INCH,LZ
M48
T1F00S00C0.0280
T2F00S00C0.0354
T3F00S00C0.0400
T4F00S00C0.1520
%
T01
X0767Y043
X0793Y0339
X0798Y0492
X077Y0585
T02
X0214Y038
Y039
Y04
Y041
Y042
Y043
Y044
Y045
Y046
X0224
Y045
Y044
Y043
Y042
Y041
Y04
Y039
Y038
X067Y0384
X068
X069
X07
X071
X072
X073
X074
X075
X076
X077
X078
Y0394
X077
X076
X075
X074
X073
X072
X071
X07
X069
X068
X067
X0675Y0425
X0685
X0695
X0705
X0715
X0725
X0735
X0745
Y0435
X0735
X0725
X0715
X0705
X0695
X0685
X0675
Y03575
X0685
X0695
X0705
X0715
X0725
X0735
X0745
Y03475
X0735
X0725
X0715
X0705
X0695
X0685
X0675
X07875
X07975
X08075
X08175
X08275
X08375
X08475
X08575
Y03575
X08475
X08375
X08275
X08175
X08075
X07975
X07875
X079Y0384
X08
X081
X082
X083
X084
X085
X086
Y0394
X085
X084
X083
X082
X081
X08
X079
X07875Y0425
X07975
X08075
X08175
X08275
X08375
X08475
X08575
Y0435
X08475
X08375
X08275
X08175
X08075
X07975
X07875
Y05025
X07975
X08075
X08175
X08275
X08375
X08475
X08575
Y05125
X08475
X08375
X08275
X08175
X08075
X07975
X07875
X079Y054
X08
X081
X082
X083
X084
X085
X086
Y055
X085
X084
X083
X082
X081
X08
X079
X07875Y058
Y059
X07975
Y058
X08075
Y059
X08175
Y058
X08275
Y059
X08375
Y058
X08475
Y059
X08575
Y058
X078Y055
Y054
X077
Y055
X076
Y054
X075
Y055
X074
Y054
X073
Y055
X072
Y054
X071
Y055
X07
Y054
X069
Y055
X068
Y054
X067
Y055
X0675Y058
Y059
X0685
X0695
X0705
X0715
X0725
X0735
X0745
Y058
X0735
X0725
X0715
X0705
X0695
X0685
Y05125
X0695
X0705
X0715
X0725
X0735
X0745
Y05025
X0735
X0725
X0715
X0705
X0695
X0685
X0675
Y05125
X0224Y051
Y052
Y053
Y054
Y055
Y056
Y057
X0214
Y056
Y055
Y054
Y053
Y052
Y051
Y05
X0224
Y049
X0214
Y048
X0224
Y047
X0214
T03
X026Y03275
Y03775
X0261Y0405
Y0455
X0311
Y0405
X031Y03775
Y03275
X0285Y03525
X0286Y043
X0385
X041Y0405
Y03775
X0385Y03525
X041Y03275
X036
Y03775
Y0405
Y0455
X041
X046
Y0405
Y03775
Y03275
X051
Y03775
Y0405
Y0455
X0485Y043
Y03525
X0585
X061Y03275
X056
Y03775
Y0405
X0585Y043
X061Y0405
Y03775
Y0455
X056
Y04825
X051
Y05325
Y056
Y061
X0485Y0585
Y05075
X0585
X061Y04825
Y05325
Y056
X0585Y0585
X056Y056
Y05325
Y061
X061
X046
X041
X0385Y0585
X041Y056
Y05325
X0385Y05075
X041Y04825
X036
Y05325
Y056
Y061
X046Y056
Y05325
Y04825
X031
Y05325
Y056
Y061
X026
Y056
Y05325
Y04825
X0285Y05075
Y0585
T04
X0225Y0325
X0925
X0225Y0625
X0925
M30
