  0
SECTION
  2
HEADER
  9
$ACADVER
  1
AC1012
  9
$DWGCODEPAGE
  3
ansi_1252
  9
$INSBASE
 10
0.0
 20
0.0
 30
0.0
  9
$EXTMIN
 10
0.0
 20
0.0
 30
0.0
  9
$EXTMAX
 10
279.4
 20
215.9
 30
0.0
  9
$LIMMIN
 10
0.0
 20
0.0
  9
$LIMMAX
 10
0.0
 20
0.0
  9
$ORTHOMODE
 70
         0
  9
$REGENMODE
 70
         1
  9
$FILLMODE
 70
         1
  9
$QTEXTMODE
 70
         0
  9
$MIRRTEXT
 70
         1
  9
$DRAGMODE
 70
         2
  9
$LTSCALE
 40
1.0
  9
$OSMODE
 70
         0
  9
$ATTMODE
 70
         1
  9
$TEXTSIZE
 40
3.5
  9
$TRACEWID
 40
0.05
  9
$TEXTSTYLE
  7
STANDARD
  9
$CLAYER
  8
0
  9
$CELTYPE
  6
CONTINUOUS
  9
$CECOLOR
 62
       256
  9
$CELTSCALE
 40
1.0
  9
$DELOBJ
 70
         1
  9
$DISPSILH
 70
         0
  9
$DIMSCALE
 40
1.0
  9
$DIMASZ
 40
6.0
  9
$DIMEXO
 40
1.0
  9
$DIMDLI
 40
0.38
  9
$DIMRND
 40
0.0
  9
$DIMDLE
 40
1.0
  9
$DIMEXE
 40
0.18
  9
$DIMTP
 40
0.0
  9
$DIMTM
 40
0.0
  9
$DIMTXT
 40
3.5
  9
$DIMCEN
 40
0.09
  9
$DIMTSZ
 40
0.0
  9
$DIMTOL
 70
         0
  9
$DIMLIM
 70
         0
  9
$DIMTIH
 70
         1
  9
$DIMTOH
 70
         1
  9
$DIMSE1
 70
         0
  9
$DIMSE2
 70
         0
  9
$DIMTAD
 70
         1
  9
$DIMZIN
 70
         0
  9
$DIMBLK
  1

  9
$DIMASO
 70
         1
  9
$DIMSHO
 70
         1
  9
$DIMPOST
  1

  9
$DIMAPOST
  1

  9
$DIMALT
 70
         0
  9
$DIMALTD
 70
         2
  9
$DIMALTF
 40
0.0394
  9
$DIMLFAC
 40
2.0
  9
$DIMTOFL
 70
         0
  9
$DIMTVP
 40
0.0
  9
$DIMTIX
 70
         0
  9
$DIMSOXD
 70
         0
  9
$DIMSAH
 70
         0
  9
$DIMBLK1
  1

  9
$DIMBLK2
  1

  9
$DIMSTYLE
  2
STANDARD
  9
$DIMCLRD
 70
         0
  9
$DIMCLRE
 70
         0
  9
$DIMCLRT
 70
         0
  9
$DIMTFAC
 40
1.0
  9
$DIMGAP
 40
1.0
  9
$DIMJUST
 70
         0
  9
$DIMSD1
 70
         0
  9
$DIMSD2
 70
         0
  9
$DIMTOLJ
 70
         1
  9
$DIMTZIN
 70
         0
  9
$DIMALTZ
 70
         0
  9
$DIMALTTZ
 70
         0
  9
$DIMFIT
 70
         3
  9
$DIMUPT
 70
         0
  9
$DIMUNIT
 70
         2
  9
$DIMDEC
 70
         4
  9
$DIMTDEC
 70
         4
  9
$DIMALTU
 70
         2
  9
$DIMALTTD
 70
         2
  9
$DIMTXSTY
  7
STANDARD
  9
$DIMAUNIT
 70
         0
  9
$LUNITS
 70
         2
  9
$LUPREC
 70
         2
  9
$SKETCHINC
 40
0.1
  9
$FILLETRAD
 40
0.0
  9
$AUNITS
 70
         0
  9
$AUPREC
 70
         2
  9
$MENU
  1
acad
  9
$ELEVATION
 40
0.0
  9
$PELEVATION
 40
0.0
  9
$THICKNESS
 40
0.0
  9
$LIMCHECK
 70
         0
  9
$BLIPMODE
 70
         1
  9
$CHAMFERA
 40
0.0
  9
$CHAMFERB
 40
0.0
  9
$CHAMFERC
 40
0.0
  9
$CHAMFERD
 40
0.0
  9
$SKPOLY
 70
         0
  9
$TDCREATE
 40
0.000000000
  9
$TDUPDATE
 40
0.000000000
  9
$TDINDWG
 40
0.0000000000
  9
$TDUSRTIMER
 40
0.0000000000
  9
$USRTIMER
 70
         1
  9
$ANGBASE
 50
0.0
  9
$ANGDIR
 70
         0
  9
$PDMODE
 70
         0
  9
$PDSIZE
 40
-1.0
  9
$PLINEWID
 40
0.0
  9
$COORDS
 70
         0
  9
$SPLFRAME
 70
         0
  9
$SPLINETYPE
 70
         6
  9
$SPLINESEGS
 70
         8
  9
$ATTDIA
 70
         0
  9
$ATTREQ
 70
         1
  9
$HANDLING
 70
         1
  9
$HANDSEED
  5
1F6
  9
$SURFTAB1
 70
         6
  9
$SURFTAB2
 70
         6
  9
$SURFTYPE
 70
         6
  9
$SURFU
 70
         6
  9
$SURFV
 70
         6
  9
$UCSNAME
  2

  9
$UCSORG
 10
0.0
 20
0.0
 30
0.0
  9
$UCSXDIR
 10
1.0
 20
0.0
 30
0.0
  9
$UCSYDIR
 10
0.0
 20
1.0
 30
0.0
  9
$PUCSNAME
  2

  9
$PUCSORG
 10
0.0
 20
0.0
 30
0.0
  9
$PUCSXDIR
 10
1.0
 20
0.0
 30
0.0
  9
$PUCSYDIR
 10
0.0
 20
1.0
 30
0.0
  9
$USERI1
 70
         0
  9
$USERI2
 70
         0
  9
$USERI3
 70
         0
  9
$USERI4
 70
         0
  9
$USERI5
 70
         0
  9
$USERR1
 40
0.0
  9
$USERR2
 40
0.0
  9
$USERR3
 40
0.0
  9
$USERR4
 40
0.0
  9
$USERR5
 40
0.0
  9
$WORLDVIEW
 70
         1
  9
$SHADEDGE
 70
         3
  9
$SHADEDIF
 70
        70
  9
$TILEMODE
 70
         1
  9
$MAXACTVP
 70
        16
  9
$PINSBASE
 10
0.0
 20
0.0
 30
0.0
  9
$PLIMCHECK
 70
         0
  9
$PEXTMIN
 10
1.0000000000E+20
 20
1.0000000000E+20
 30
1.0000000000E+20
  9
$PEXTMAX
 10
-1.0000000000E+20
 20
-1.0000000000E+20
 30
-1.0000000000E+20
  9
$PLIMMIN
 10
0.0
 20
0.0
  9
$PLIMMAX
 10
12.0
 20
9.0
  9
$UNITMODE
 70
         0
  9
$VISRETAIN
 70
         0
  9
$PLINEGEN
 70
         1
  9
$PSLTSCALE
 70
         1
  9
$TREEDEPTH
 70
      3020
  9
$PICKSTYLE
 70
         1
  9
$CMLSTYLE
  2
STANDARD
  9
$CMLJUST
 70
         0
  9
$CMLSCALE
 40
1.0
  9
$SAVEIMAGES
 70
         0
  0
ENDSEC
  0
SECTION
  2
CLASSES
  0
CLASS
  1
LWPOLYLINE
  2
AcDbPolyline
  3
"AutoCAD"
 90
        0
280
         0
281
         1
  0
CLASS
  1
IMAGE
  2
AcDbRasterImage
  3
ISM
 90
      127
280
         0
281
         1
  0
CLASS
  1
OLE2FRAME
  2
AcDbOle2Frame
  3
""
 90
        0
280
         0
281
         1
  0
CLASS
  1
HATCH
  2
AcDbHatch
  3
"ACAD_SEDONA"
 90
        0
280
         0
281
         1
  0
CLASS
  1
DICTIONARYVAR
  2
AcDbDictionaryVar
  3
"AutoCAD"
 90
        0
280
         0
281
         0
  0
CLASS
  1
RASTERVARIABLES
  2
AcDbRasterVariables
  3
ISM
 90
        0
280
         0
281
         0
  0
CLASS
  1
IMAGEDEF
  2
AcDbRasterImageDef
  3
ISM
 90
        0
280
         0
281
         0
  0
CLASS
  1
IMAGEDEF_REACTOR
  2
AcDbRasterImageDefReactor
  3
ISM
 90
        1
280
         0
281
         0
  0
CLASS
  1
IDBUFFER
  2
AcDbIdBuffer
  3
"Acad"
 90
        0
280
         0
281
         0
  0
CLASS
  1
SPATIAL_FILTER
  2
AcDbSpatialFilter
  3
"Acad"
 90
        0
280
         0
281
         0
  0
CLASS
  1
XRECORD
  2
AcDbXrecord
  3
"<Built In>"
 90
        0
280
         0
281
         0
  0
CLASS
  1
SORTENTSTABLE
  2
AcDbSortentsTable
  3
"AutoCAD"
 90
        0
280
         0
281
         0
  0
CLASS
  1
LAYER_INDEX
  2
AcDbLayerIndex
  3
"Acad"
 90
        0
280
         0
281
         0
  0
CLASS
  1
SPATIAL_INDEX
  2
AcDbSpatialIndex
  3
"Acad"
 90
        0
280
         0
281
         0
  0
CLASS
  1
OBJECT_PTR
  2
CAseDLPNTableRecord
  3
"ASE-LPNTableRecord"
 90
        1
280
         0
281
         0
  0
CLASS
  1
LAYOUT
  2
AcDbLayout
  3
"AutoCAD 2000"
 90
        1
280
         0
281
         0
  0
CLASS
  1
PLOTSETTINGS
  2
AcDbPlotSettings
  3
"AutoCAD 2000"
 90
        1
280
         0
281
         0
  0
CLASS
  1
ACDBDICTIONARYWDFLT
  2
AcDbDictionaryWithDefault
  3
"AutoCAD 2000"
 90
        1
280
         0
281
         0
  0
CLASS
  1
ACDBPLACEHOLDER
  2
AcDbPlaceHolder
  3
"AutoCAD 2000"
 90
        1
280
         0
281
         0
  0
CLASS
  1
VBA_PROJECT
  2
AcDbVbaProject
  3
"acadvba"
 90
        1
280
         0
281
         0
  0
CLASS
  1
WIPEOUT
  2
AcDbWipeout
  3
WipeOut|AutoCAD Express Tool|expresstools@autodesk.com
 90
      127
280
         0
281
         1
  0
CLASS
  1
WIPEOUTVARIABLES
  2
AcDbWipeoutVariables
  3
WipeOut|AutoCAD Express Tool|expresstools@autodesk.com
 90
        0
280
         0
281
         0
  0
CLASS
  1
RTEXT
  2
RText
  3
RText|AutoCAD Express Tool|expresstools@autodesk.com
 90
        0
280
         0
281
         1
  0
CLASS
  1
ARCALIGNEDTEXT
  2
AcDbArcAlignedText
  3
ATEXT|AutoCAD Express Tool|expresstools@autodesk.com
 90
        0
280
         0
281
         1
  0
ENDSEC
  0
SECTION
  2
TABLES
  0
TABLE
  2
VPORT
  5
7
100
AcDbSymbolTable
 70
         1
  0
VPORT
  5
15
100
AcDbSymbolTableRecord
100
AcDbViewportTableRecord
  2
*ACTIVE
 70
         0
 10
0.0
 20
0.0
 11
1.0
 21
1.0
 12
139.7
 22
107.95
 13
0.0
 23
0.0
 14
1.0
 24
1.0
 15
0.0
 25
0.0
 16
0.0
 26
0.0
 36
1.0
 17
0.0
 27
0.0
 37
0.0
 40
215.9
 41
0.7727272727
 42
50.0
 43
0.0
 44
0.0
 50
0.0
 51
0.0
 71
         0
 72
      2000
 73
         1
 74
         1
 75
         0
 76
         0
 77
         0
 78
         0
  0
ENDTAB
  0
TABLE
  2
LTYPE
  5
4
100
AcDbSymbolTable
 70
         8
  0
LTYPE
  5
11
100
AcDbSymbolTableRecord
100
AcDbLinetypeTableRecord
  2
BYBLOCK
 70
        64
  3

 72
        65
 73
         0
 40
0.0
  0
LTYPE
  5
12
100
AcDbSymbolTableRecord
100
AcDbLinetypeTableRecord
  2
BYLAYER
 70
        64
  3

 72
        65
 73
         0
 40
0.0
  0
LTYPE
  5
13
100
AcDbSymbolTableRecord
100
AcDbLinetypeTableRecord
  2
CONTINUOUS
 70
        64
  3
Solid line
 72
        65
 73
         0
 40
0.0
  0
LTYPE
  5
1E
100
AcDbSymbolTableRecord
100
AcDbLinetypeTableRecord
  2
HIDDEN
 70
        64
  3
Hidden __ __ __ __ __ __ __ __ __ __ __ __ __ __
 72
        65
 73
         2
 40
1.905
 49
1.27
 74
         0
 49
-0.635
 74
         0
  0
LTYPE
  5
1F
100
AcDbSymbolTableRecord
100
AcDbLinetypeTableRecord
  2
PHANTOM
 70
        64
  3
Phantom ______  __  __  ______  __  __  ______
 72
        65
 73
         6
 40
12.7
 49
6.35
 74
         0
 49
-1.27
 74
         0
 49
1.27
 74
         0
 49
-1.27
 74
         0
 49
1.27
 74
         0
 49
-1.27
 74
         0
  0
LTYPE
  5
20
100
AcDbSymbolTableRecord
100
AcDbLinetypeTableRecord
  2
CENTER
 70
        64
  3
Center ____ _ ____ _ ____ _ ____ _ ____ _ ____
 72
        65
 73
         4
 40
10.16
 49
6.35
 74
         0
 49
-1.27
 74
         0
 49
1.27
 74
         0
 49
-1.27
 74
         0
  0
LTYPE
  5
21
100
AcDbSymbolTableRecord
100
AcDbLinetypeTableRecord
  2
CENTERX2
 70
        64
  3
Center (2x) ________  __  ________  __  _____
 72
        65
 73
         4
 40
20.32
 49
12.7
 74
         0
 49
-2.54
 74
         0
 49
2.54
 74
         0
 49
-2.54
 74
         0
  0
LTYPE
  5
22
100
AcDbSymbolTableRecord
100
AcDbLinetypeTableRecord
  2
DOT2
 70
        64
  3
Dot (.5x) ........................................
 72
        65
 73
         2
 40
0.635
 49
0.0
 74
         0
 49
-0.635
 74
         0
  0
ENDTAB
  0
TABLE
  2
LAYER
  5
2
100
AcDbSymbolTable
 70
         3
  0
LAYER
  5
14
100
AcDbSymbolTableRecord
100
AcDbLayerTableRecord
  2
0
 70
         0
 62
         7
  6
CONTINUOUS
  0
LAYER
  5
26
100
AcDbSymbolTableRecord
100
AcDbLayerTableRecord
  2
DEFPOINTS
 70
         0
 62
         7
  6
CONTINUOUS
  0
LAYER
  5
27
100
AcDbSymbolTableRecord
100
AcDbLayerTableRecord
  2
FORMAT
 70
         0
 62
         7
  6
CONTINUOUS
  0
ENDTAB
  0
TABLE
  2
STYLE
  5
3
100
AcDbSymbolTable
 70
         1
  0
STYLE
  5
17
100
AcDbSymbolTableRecord
100
AcDbTextStyleTableRecord
  2
STANDARD
 70
         0
 40
0.0
 41
1.0
 50
0.0
 71
         0
 42
0.0
  3
txt
  4

  0
ENDTAB
  0
TABLE
  2
VIEW
  5
5
100
AcDbSymbolTable
 70
         0
  0
ENDTAB
  0
TABLE
  2
UCS
  5
6
100
AcDbSymbolTable
 70
         0
  0
ENDTAB
  0
TABLE
  2
APPID
  5
8
100
AcDbSymbolTable
 70
         1
  0
APPID
  5
16
100
AcDbSymbolTableRecord
100
AcDbRegAppTableRecord
  2
ACAD
 70
         0
  0
ENDTAB
  0
TABLE
  2
DIMSTYLE
  5
9
100
AcDbSymbolTable
 70
         1
  0
DIMSTYLE
105
18
100
AcDbSymbolTableRecord
100
AcDbDimStyleTableRecord
  2
STANDARD
 70
         0
  3

  4

  5

  6

  7

 40
1.0
 41
0.18
 42
0.0625
 43
0.38
 44
0.18
 45
0.0
 46
0.0
 47
0.0
 48
0.0
 71
         0
 72
         0
 73
         1
 74
         1
 75
         0
 76
         0
 77
         0
 78
         0
140
0.18
141
0.09
142
0.0
143
25.4
144
1.0
145
0.0
146
1.0
147
0.09
170
         0
171
         2
172
         0
173
         0
174
         0
175
         0
176
         0
177
         0
178
         0
270
         2
271
         4
272
         4
273
         2
274
         2
275
         0
280
         0
281
         0
282
         0
283
         1
284
         0
285
         0
286
         0
287
         0
288
         0
340
17
  0
ENDTAB
  0
TABLE
  2
BLOCK_RECORD
  5
1
100
AcDbSymbolTable
 70
        23
  0
BLOCK_RECORD
  5
A
100
AcDbSymbolTableRecord
100
AcDbBlockTableRecord
  2
*MODEL_SPACE
  0
BLOCK_RECORD
  5
B
100
AcDbSymbolTableRecord
100
AcDbBlockTableRecord
  2
*PAPER_SPACE
  0
BLOCK_RECORD
  5
85
100
AcDbSymbolTableRecord
100
AcDbBlockTableRecord
  2
SW_CENTERMARK0
  0
BLOCK_RECORD
  5
8E
100
AcDbSymbolTableRecord
100
AcDbBlockTableRecord
  2
SW_CENTERMARK1
  0
BLOCK_RECORD
  5
97
100
AcDbSymbolTableRecord
100
AcDbBlockTableRecord
  2
SW_CENTERMARK2
  0
BLOCK_RECORD
  5
A0
100
AcDbSymbolTableRecord
100
AcDbBlockTableRecord
  2
SW_CENTERMARK3
  0
BLOCK_RECORD
  5
A9
100
AcDbSymbolTableRecord
100
AcDbBlockTableRecord
  2
SW_CENTERMARK4
  0
BLOCK_RECORD
  5
B6
100
AcDbSymbolTableRecord
100
AcDbBlockTableRecord
  2
SW_CENTERMARK5
  0
BLOCK_RECORD
  5
C3
100
AcDbSymbolTableRecord
100
AcDbBlockTableRecord
  2
SW_CENTERMARK6
  0
BLOCK_RECORD
  5
D0
100
AcDbSymbolTableRecord
100
AcDbBlockTableRecord
  2
SW_CENTERMARK7
  0
BLOCK_RECORD
  5
DD
100
AcDbSymbolTableRecord
100
AcDbBlockTableRecord
  2
SW_CENTERMARK8
  0
BLOCK_RECORD
  5
EA
100
AcDbSymbolTableRecord
100
AcDbBlockTableRecord
  2
SW_CENTERMARK9
  0
BLOCK_RECORD
  5
F3
100
AcDbSymbolTableRecord
100
AcDbBlockTableRecord
  2
SW_CENTERMARK10
  0
BLOCK_RECORD
  5
FC
100
AcDbSymbolTableRecord
100
AcDbBlockTableRecord
  2
SW_CENTERMARK11
  0
BLOCK_RECORD
  5
105
100
AcDbSymbolTableRecord
100
AcDbBlockTableRecord
  2
SW_CENTERMARK12
  0
BLOCK_RECORD
  5
10E
100
AcDbSymbolTableRecord
100
AcDbBlockTableRecord
  2
SW_CENTERMARK13
  0
BLOCK_RECORD
  5
117
100
AcDbSymbolTableRecord
100
AcDbBlockTableRecord
  2
SW_CENTERMARK14
  0
BLOCK_RECORD
  5
120
100
AcDbSymbolTableRecord
100
AcDbBlockTableRecord
  2
SW_CENTERMARK15
  0
BLOCK_RECORD
  5
129
100
AcDbSymbolTableRecord
100
AcDbBlockTableRecord
  2
SW_CENTERMARK16
  0
BLOCK_RECORD
  5
132
100
AcDbSymbolTableRecord
100
AcDbBlockTableRecord
  2
SW_CENTERMARK17
  0
BLOCK_RECORD
  5
19F
100
AcDbSymbolTableRecord
100
AcDbBlockTableRecord
  2
SW_CENTERMARK18
  0
BLOCK_RECORD
  5
1AC
100
AcDbSymbolTableRecord
100
AcDbBlockTableRecord
  2
SW_CENTERMARK19
  0
BLOCK_RECORD
  5
1B9
100
AcDbSymbolTableRecord
100
AcDbBlockTableRecord
  2
SW_CENTERMARK20
  0
BLOCK_RECORD
  5
1C6
100
AcDbSymbolTableRecord
100
AcDbBlockTableRecord
  2
SW_CENTERMARK21
  0
BLOCK_RECORD
  5
1D3
100
AcDbSymbolTableRecord
100
AcDbBlockTableRecord
  2
SW_CENTERMARK22
  0
ENDTAB
  0
ENDSEC
  0
SECTION
  2
BLOCKS
  0
BLOCK
  5
D
100
AcDbEntity
  8
0
100
AcDbBlockBegin
  2
*MODEL_SPACE
 70
         0
 10
0.0
 20
0.0
 30
0.0
  3
*MODEL_SPACE
  1

  0
ENDBLK
  5
E
100
AcDbEntity
  8
0
100
AcDbBlockEnd
  0
BLOCK
  5
F
100
AcDbEntity
 67
         1
  8
0
100
AcDbBlockBegin
  2
*PAPER_SPACE
 70
         0
 10
0.0
 20
0.0
 30
0.0
  3
*PAPER_SPACE
  1

  0
ENDBLK
  5
10
100
AcDbEntity
 67
         1
  8
0
100
AcDbBlockEnd
  0
BLOCK
  5
86
100
AcDbEntity
  8
0
 62
         0
100
AcDbBlockBegin
  2
SW_CENTERMARK0
 70
         0
 10
0.0
 20
0.0
 30
0.0
  3
SW_CENTERMARK0
  1

  0
LINE
  5
87
100
AcDbEntity
  8
0
  6
CONTINUOUS
 62
         7
100
AcDbLine
 10
17.6636134618
 20
159.5471699693
 30
0.0
 11
17.6636134618
 21
160.7971699693
 31
0.0
  0
LINE
  5
88
100
AcDbEntity
  8
0
  6
CONTINUOUS
 62
         7
100
AcDbLine
 10
17.6636134618
 20
159.5471699693
 30
0.0
 11
16.4136134618
 21
159.5471699693
 31
0.0
  0
LINE
  5
89
100
AcDbEntity
  8
0
  6
CONTINUOUS
 62
         7
100
AcDbLine
 10
17.6636134618
 20
159.5471699693
 30
0.0
 11
17.6636134618
 21
158.2971699693
 31
0.0
  0
LINE
  5
8A
100
AcDbEntity
  8
0
  6
CONTINUOUS
 62
         7
100
AcDbLine
 10
17.6636134618
 20
159.5471699693
 30
0.0
 11
18.9136134618
 21
159.5471699693
 31
0.0
  0
ENDBLK
  5
8C
100
AcDbEntity
  8
0
100
AcDbBlockEnd
  0
BLOCK
  5
8F
100
AcDbEntity
  8
0
 62
         0
100
AcDbBlockBegin
  2
SW_CENTERMARK1
 70
         0
 10
0.0
 20
0.0
 30
0.0
  3
SW_CENTERMARK1
  1

  0
LINE
  5
90
100
AcDbEntity
  8
0
  6
CONTINUOUS
 62
         7
100
AcDbLine
 10
17.6636134618
 20
94.2691699693
 30
0.0
 11
17.6636134618
 21
95.5191699693
 31
0.0
  0
LINE
  5
91
100
AcDbEntity
  8
0
  6
CONTINUOUS
 62
         7
100
AcDbLine
 10
17.6636134618
 20
94.2691699693
 30
0.0
 11
16.4136134618
 21
94.2691699693
 31
0.0
  0
LINE
  5
92
100
AcDbEntity
  8
0
  6
CONTINUOUS
 62
         7
100
AcDbLine
 10
17.6636134618
 20
94.2691699693
 30
0.0
 11
17.6636134618
 21
93.0191699693
 31
0.0
  0
LINE
  5
93
100
AcDbEntity
  8
0
  6
CONTINUOUS
 62
         7
100
AcDbLine
 10
17.6636134618
 20
94.2691699693
 30
0.0
 11
18.9136134618
 21
94.2691699693
 31
0.0
  0
ENDBLK
  5
95
100
AcDbEntity
  8
0
100
AcDbBlockEnd
  0
BLOCK
  5
98
100
AcDbEntity
  8
0
 62
         0
100
AcDbBlockBegin
  2
SW_CENTERMARK2
 70
         0
 10
0.0
 20
0.0
 30
0.0
  3
SW_CENTERMARK2
  1

  0
LINE
  5
99
100
AcDbEntity
  8
0
  6
CONTINUOUS
 62
         7
100
AcDbLine
 10
257.9476134618
 20
94.2691699693
 30
0.0
 11
257.9476134618
 21
95.5191699693
 31
0.0
  0
LINE
  5
9A
100
AcDbEntity
  8
0
  6
CONTINUOUS
 62
         7
100
AcDbLine
 10
257.9476134618
 20
94.2691699693
 30
0.0
 11
256.6976134618
 21
94.2691699693
 31
0.0
  0
LINE
  5
9B
100
AcDbEntity
  8
0
  6
CONTINUOUS
 62
         7
100
AcDbLine
 10
257.9476134618
 20
94.2691699693
 30
0.0
 11
257.9476134618
 21
93.0191699693
 31
0.0
  0
LINE
  5
9C
100
AcDbEntity
  8
0
  6
CONTINUOUS
 62
         7
100
AcDbLine
 10
257.9476134618
 20
94.2691699693
 30
0.0
 11
259.1976134618
 21
94.2691699693
 31
0.0
  0
ENDBLK
  5
9E
100
AcDbEntity
  8
0
100
AcDbBlockEnd
  0
BLOCK
  5
A1
100
AcDbEntity
  8
0
 62
         0
100
AcDbBlockBegin
  2
SW_CENTERMARK3
 70
         0
 10
0.0
 20
0.0
 30
0.0
  3
SW_CENTERMARK3
  1

  0
LINE
  5
A2
100
AcDbEntity
  8
0
  6
CONTINUOUS
 62
         7
100
AcDbLine
 10
257.9476134618
 20
159.5471699693
 30
0.0
 11
257.9476134618
 21
160.7971699693
 31
0.0
  0
LINE
  5
A3
100
AcDbEntity
  8
0
  6
CONTINUOUS
 62
         7
100
AcDbLine
 10
257.9476134618
 20
159.5471699693
 30
0.0
 11
256.6976134618
 21
159.5471699693
 31
0.0
  0
LINE
  5
A4
100
AcDbEntity
  8
0
  6
CONTINUOUS
 62
         7
100
AcDbLine
 10
257.9476134618
 20
159.5471699693
 30
0.0
 11
257.9476134618
 21
158.2971699693
 31
0.0
  0
LINE
  5
A5
100
AcDbEntity
  8
0
  6
CONTINUOUS
 62
         7
100
AcDbLine
 10
257.9476134618
 20
159.5471699693
 30
0.0
 11
259.1976134618
 21
159.5471699693
 31
0.0
  0
ENDBLK
  5
A7
100
AcDbEntity
  8
0
100
AcDbBlockEnd
  0
BLOCK
  5
AA
100
AcDbEntity
  8
0
 62
         0
100
AcDbBlockBegin
  2
SW_CENTERMARK4
 70
         0
 10
0.0
 20
0.0
 30
0.0
  3
SW_CENTERMARK4
  1

  0
LINE
  5
AB
100
AcDbEntity
  8
0
  6
CONTINUOUS
 62
         7
100
AcDbLine
 10
239.7231134618
 20
104.6831699693
 30
0.0
 11
239.7231134618
 21
105.9331699693
 31
0.0
  0
LINE
  5
AC
100
AcDbEntity
  8
0
  6
CONTINUOUS
 62
         7
100
AcDbLine
 10
239.7231134618
 20
104.6831699693
 30
0.0
 11
238.4731134618
 21
104.6831699693
 31
0.0
  0
LINE
  5
AD
100
AcDbEntity
  8
0
  6
CONTINUOUS
 62
         7
100
AcDbLine
 10
239.7231134618
 20
104.6831699693
 30
0.0
 11
239.7231134618
 21
103.4331699693
 31
0.0
  0
LINE
  5
AE
100
AcDbEntity
  8
0
  6
CONTINUOUS
 62
         7
100
AcDbLine
 10
239.7231134618
 20
104.6831699693
 30
0.0
 11
240.9731134618
 21
104.6831699693
 31
0.0
  0
LINE
  5
AF
100
AcDbEntity
  8
0
  6
CONTINUOUS
 62
         7
100
AcDbLine
 10
239.7231134618
 20
105.9331699693
 30
0.0
 11
239.7231134618
 21
107.1460199693
 31
0.0
  0
LINE
  5
B0
100
AcDbEntity
  8
0
  6
CONTINUOUS
 62
         7
100
AcDbLine
 10
238.4731134618
 20
104.6831699693
 30
0.0
 11
237.2602634618
 21
104.6831699693
 31
0.0
  0
LINE
  5
B1
100
AcDbEntity
  8
0
  6
CONTINUOUS
 62
         7
100
AcDbLine
 10
239.7231134618
 20
103.4331699693
 30
0.0
 11
239.7231134618
 21
102.2203199693
 31
0.0
  0
LINE
  5
B2
100
AcDbEntity
  8
0
  6
CONTINUOUS
 62
         7
100
AcDbLine
 10
240.9731134618
 20
104.6831699693
 30
0.0
 11
242.1859634618
 21
104.6831699693
 31
0.0
  0
ENDBLK
  5
B4
100
AcDbEntity
  8
0
100
AcDbBlockEnd
  0
BLOCK
  5
B7
100
AcDbEntity
  8
0
 62
         0
100
AcDbBlockBegin
  2
SW_CENTERMARK5
 70
         0
 10
0.0
 20
0.0
 30
0.0
  3
SW_CENTERMARK5
  1

  0
LINE
  5
B8
100
AcDbEntity
  8
0
  6
CONTINUOUS
 62
         7
100
AcDbLine
 10
35.8881134618
 20
104.6831699693
 30
0.0
 11
35.8881134618
 21
105.9331699693
 31
0.0
  0
LINE
  5
B9
100
AcDbEntity
  8
0
  6
CONTINUOUS
 62
         7
100
AcDbLine
 10
35.8881134618
 20
104.6831699693
 30
0.0
 11
34.6381134618
 21
104.6831699693
 31
0.0
  0
LINE
  5
BA
100
AcDbEntity
  8
0
  6
CONTINUOUS
 62
         7
100
AcDbLine
 10
35.8881134618
 20
104.6831699693
 30
0.0
 11
35.8881134618
 21
103.4331699693
 31
0.0
  0
LINE
  5
BB
100
AcDbEntity
  8
0
  6
CONTINUOUS
 62
         7
100
AcDbLine
 10
35.8881134618
 20
104.6831699693
 30
0.0
 11
37.1381134618
 21
104.6831699693
 31
0.0
  0
LINE
  5
BC
100
AcDbEntity
  8
0
  6
CONTINUOUS
 62
         7
100
AcDbLine
 10
35.8881134618
 20
105.9331699693
 30
0.0
 11
35.8881134618
 21
107.1460199693
 31
0.0
  0
LINE
  5
BD
100
AcDbEntity
  8
0
  6
CONTINUOUS
 62
         7
100
AcDbLine
 10
34.6381134618
 20
104.6831699693
 30
0.0
 11
33.4252634618
 21
104.6831699693
 31
0.0
  0
LINE
  5
BE
100
AcDbEntity
  8
0
  6
CONTINUOUS
 62
         7
100
AcDbLine
 10
35.8881134618
 20
103.4331699693
 30
0.0
 11
35.8881134618
 21
102.2203199693
 31
0.0
  0
LINE
  5
BF
100
AcDbEntity
  8
0
  6
CONTINUOUS
 62
         7
100
AcDbLine
 10
37.1381134618
 20
104.6831699693
 30
0.0
 11
38.3509634618
 21
104.6831699693
 31
0.0
  0
ENDBLK
  5
C1
100
AcDbEntity
  8
0
100
AcDbBlockEnd
  0
BLOCK
  5
C4
100
AcDbEntity
  8
0
 62
         0
100
AcDbBlockBegin
  2
SW_CENTERMARK6
 70
         0
 10
0.0
 20
0.0
 30
0.0
  3
SW_CENTERMARK6
  1

  0
LINE
  5
C5
100
AcDbEntity
  8
0
  6
CONTINUOUS
 62
         7
100
AcDbLine
 10
35.8881134618
 20
149.1331699693
 30
0.0
 11
35.8881134618
 21
150.3831699693
 31
0.0
  0
LINE
  5
C6
100
AcDbEntity
  8
0
  6
CONTINUOUS
 62
         7
100
AcDbLine
 10
35.8881134618
 20
149.1331699693
 30
0.0
 11
34.6381134618
 21
149.1331699693
 31
0.0
  0
LINE
  5
C7
100
AcDbEntity
  8
0
  6
CONTINUOUS
 62
         7
100
AcDbLine
 10
35.8881134618
 20
149.1331699693
 30
0.0
 11
35.8881134618
 21
147.8831699693
 31
0.0
  0
LINE
  5
C8
100
AcDbEntity
  8
0
  6
CONTINUOUS
 62
         7
100
AcDbLine
 10
35.8881134618
 20
149.1331699693
 30
0.0
 11
37.1381134618
 21
149.1331699693
 31
0.0
  0
LINE
  5
C9
100
AcDbEntity
  8
0
  6
CONTINUOUS
 62
         7
100
AcDbLine
 10
35.8881134618
 20
150.3831699693
 30
0.0
 11
35.8881134618
 21
151.5960199693
 31
0.0
  0
LINE
  5
CA
100
AcDbEntity
  8
0
  6
CONTINUOUS
 62
         7
100
AcDbLine
 10
34.6381134618
 20
149.1331699693
 30
0.0
 11
33.4252634618
 21
149.1331699693
 31
0.0
  0
LINE
  5
CB
100
AcDbEntity
  8
0
  6
CONTINUOUS
 62
         7
100
AcDbLine
 10
35.8881134618
 20
147.8831699693
 30
0.0
 11
35.8881134618
 21
146.6703199693
 31
0.0
  0
LINE
  5
CC
100
AcDbEntity
  8
0
  6
CONTINUOUS
 62
         7
100
AcDbLine
 10
37.1381134618
 20
149.1331699693
 30
0.0
 11
38.3509634618
 21
149.1331699693
 31
0.0
  0
ENDBLK
  5
CE
100
AcDbEntity
  8
0
100
AcDbBlockEnd
  0
BLOCK
  5
D1
100
AcDbEntity
  8
0
 62
         0
100
AcDbBlockBegin
  2
SW_CENTERMARK7
 70
         0
 10
0.0
 20
0.0
 30
0.0
  3
SW_CENTERMARK7
  1

  0
LINE
  5
D2
100
AcDbEntity
  8
0
  6
CONTINUOUS
 62
         7
100
AcDbLine
 10
239.7231134618
 20
149.1331699693
 30
0.0
 11
239.7231134618
 21
150.3831699693
 31
0.0
  0
LINE
  5
D3
100
AcDbEntity
  8
0
  6
CONTINUOUS
 62
         7
100
AcDbLine
 10
239.7231134618
 20
149.1331699693
 30
0.0
 11
238.4731134618
 21
149.1331699693
 31
0.0
  0
LINE
  5
D4
100
AcDbEntity
  8
0
  6
CONTINUOUS
 62
         7
100
AcDbLine
 10
239.7231134618
 20
149.1331699693
 30
0.0
 11
239.7231134618
 21
147.8831699693
 31
0.0
  0
LINE
  5
D5
100
AcDbEntity
  8
0
  6
CONTINUOUS
 62
         7
100
AcDbLine
 10
239.7231134618
 20
149.1331699693
 30
0.0
 11
240.9731134618
 21
149.1331699693
 31
0.0
  0
LINE
  5
D6
100
AcDbEntity
  8
0
  6
CONTINUOUS
 62
         7
100
AcDbLine
 10
239.7231134618
 20
150.3831699693
 30
0.0
 11
239.7231134618
 21
151.5960199693
 31
0.0
  0
LINE
  5
D7
100
AcDbEntity
  8
0
  6
CONTINUOUS
 62
         7
100
AcDbLine
 10
238.4731134618
 20
149.1331699693
 30
0.0
 11
237.2602634618
 21
149.1331699693
 31
0.0
  0
LINE
  5
D8
100
AcDbEntity
  8
0
  6
CONTINUOUS
 62
         7
100
AcDbLine
 10
239.7231134618
 20
147.8831699693
 30
0.0
 11
239.7231134618
 21
146.6703199693
 31
0.0
  0
LINE
  5
D9
100
AcDbEntity
  8
0
  6
CONTINUOUS
 62
         7
100
AcDbLine
 10
240.9731134618
 20
149.1331699693
 30
0.0
 11
242.1859634618
 21
149.1331699693
 31
0.0
  0
ENDBLK
  5
DB
100
AcDbEntity
  8
0
100
AcDbBlockEnd
  0
BLOCK
  5
DE
100
AcDbEntity
  8
0
 62
         0
100
AcDbBlockBegin
  2
SW_CENTERMARK8
 70
         0
 10
0.0
 20
0.0
 30
0.0
  3
SW_CENTERMARK8
  1

  0
LINE
  5
DF
100
AcDbEntity
  8
0
  6
CONTINUOUS
 62
         7
100
AcDbLine
 10
137.8056134618
 20
100.4286699693
 30
0.0
 11
137.8056134618
 21
101.6786699693
 31
0.0
  0
LINE
  5
E0
100
AcDbEntity
  8
0
  6
CONTINUOUS
 62
         7
100
AcDbLine
 10
137.8056134618
 20
100.4286699693
 30
0.0
 11
136.5556134618
 21
100.4286699693
 31
0.0
  0
LINE
  5
E1
100
AcDbEntity
  8
0
  6
CONTINUOUS
 62
         7
100
AcDbLine
 10
137.8056134618
 20
100.4286699693
 30
0.0
 11
137.8056134618
 21
99.1786699693
 31
0.0
  0
LINE
  5
E2
100
AcDbEntity
  8
0
  6
CONTINUOUS
 62
         7
100
AcDbLine
 10
137.8056134618
 20
100.4286699693
 30
0.0
 11
139.0556134618
 21
100.4286699693
 31
0.0
  0
LINE
  5
E3
100
AcDbEntity
  8
0
  6
CONTINUOUS
 62
         7
100
AcDbLine
 10
137.8056134618
 20
101.6786699693
 30
0.0
 11
137.8056134618
 21
102.7137199693
 31
0.0
  0
LINE
  5
E4
100
AcDbEntity
  8
0
  6
CONTINUOUS
 62
         7
100
AcDbLine
 10
136.5556134618
 20
100.4286699693
 30
0.0
 11
135.5205634618
 21
100.4286699693
 31
0.0
  0
LINE
  5
E5
100
AcDbEntity
  8
0
  6
CONTINUOUS
 62
         7
100
AcDbLine
 10
137.8056134618
 20
99.1786699693
 30
0.0
 11
137.8056134618
 21
98.1436199693
 31
0.0
  0
LINE
  5
E6
100
AcDbEntity
  8
0
  6
CONTINUOUS
 62
         7
100
AcDbLine
 10
139.0556134618
 20
100.4286699693
 30
0.0
 11
140.0906634618
 21
100.4286699693
 31
0.0
  0
ENDBLK
  5
E8
100
AcDbEntity
  8
0
100
AcDbBlockEnd
  0
BLOCK
  5
EB
100
AcDbEntity
  8
0
 62
         0
100
AcDbBlockBegin
  2
SW_CENTERMARK9
 70
         0
 10
0.0
 20
0.0
 30
0.0
  3
SW_CENTERMARK9
  1

  0
LINE
  5
EC
100
AcDbEntity
  8
0
  6
CONTINUOUS
 62
         7
100
AcDbLine
 10
253.5343634618
 20
112.6079699693
 30
0.0
 11
253.5343634618
 21
113.8579699693
 31
0.0
  0
LINE
  5
ED
100
AcDbEntity
  8
0
  6
CONTINUOUS
 62
         7
100
AcDbLine
 10
253.5343634618
 20
112.6079699693
 30
0.0
 11
252.2843634618
 21
112.6079699693
 31
0.0
  0
LINE
  5
EE
100
AcDbEntity
  8
0
  6
CONTINUOUS
 62
         7
100
AcDbLine
 10
253.5343634618
 20
112.6079699693
 30
0.0
 11
253.5343634618
 21
111.3579699693
 31
0.0
  0
LINE
  5
EF
100
AcDbEntity
  8
0
  6
CONTINUOUS
 62
         7
100
AcDbLine
 10
253.5343634618
 20
112.6079699693
 30
0.0
 11
254.7843634618
 21
112.6079699693
 31
0.0
  0
ENDBLK
  5
F1
100
AcDbEntity
  8
0
100
AcDbBlockEnd
  0
BLOCK
  5
F4
100
AcDbEntity
  8
0
 62
         0
100
AcDbBlockBegin
  2
SW_CENTERMARK10
 70
         0
 10
0.0
 20
0.0
 30
0.0
  3
SW_CENTERMARK10
  1

  0
LINE
  5
F5
100
AcDbEntity
  8
0
  6
CONTINUOUS
 62
         7
100
AcDbLine
 10
255.1345634618
 20
112.6079699693
 30
0.0
 11
255.1345634618
 21
113.8579699693
 31
0.0
  0
LINE
  5
F6
100
AcDbEntity
  8
0
  6
CONTINUOUS
 62
         7
100
AcDbLine
 10
255.1345634618
 20
112.6079699693
 30
0.0
 11
253.8845634618
 21
112.6079699693
 31
0.0
  0
LINE
  5
F7
100
AcDbEntity
  8
0
  6
CONTINUOUS
 62
         7
100
AcDbLine
 10
255.1345634618
 20
112.6079699693
 30
0.0
 11
255.1345634618
 21
111.3579699693
 31
0.0
  0
LINE
  5
F8
100
AcDbEntity
  8
0
  6
CONTINUOUS
 62
         7
100
AcDbLine
 10
255.1345634618
 20
112.6079699693
 30
0.0
 11
256.3845634618
 21
112.6079699693
 31
0.0
  0
ENDBLK
  5
FA
100
AcDbEntity
  8
0
100
AcDbBlockEnd
  0
BLOCK
  5
FD
100
AcDbEntity
  8
0
 62
         0
100
AcDbBlockBegin
  2
SW_CENTERMARK11
 70
         0
 10
0.0
 20
0.0
 30
0.0
  3
SW_CENTERMARK11
  1

  0
LINE
  5
FE
100
AcDbEntity
  8
0
  6
CONTINUOUS
 62
         7
100
AcDbLine
 10
22.0768634618
 20
141.2083699693
 30
0.0
 11
22.0768634618
 21
142.4583699693
 31
0.0
  0
LINE
  5
FF
100
AcDbEntity
  8
0
  6
CONTINUOUS
 62
         7
100
AcDbLine
 10
22.0768634618
 20
141.2083699693
 30
0.0
 11
20.8268634618
 21
141.2083699693
 31
0.0
  0
LINE
  5
100
100
AcDbEntity
  8
0
  6
CONTINUOUS
 62
         7
100
AcDbLine
 10
22.0768634618
 20
141.2083699693
 30
0.0
 11
22.0768634618
 21
139.9583699693
 31
0.0
  0
LINE
  5
101
100
AcDbEntity
  8
0
  6
CONTINUOUS
 62
         7
100
AcDbLine
 10
22.0768634618
 20
141.2083699693
 30
0.0
 11
23.3268634618
 21
141.2083699693
 31
0.0
  0
ENDBLK
  5
103
100
AcDbEntity
  8
0
100
AcDbBlockEnd
  0
BLOCK
  5
106
100
AcDbEntity
  8
0
 62
         0
100
AcDbBlockBegin
  2
SW_CENTERMARK12
 70
         0
 10
0.0
 20
0.0
 30
0.0
  3
SW_CENTERMARK12
  1

  0
LINE
  5
107
100
AcDbEntity
  8
0
  6
CONTINUOUS
 62
         7
100
AcDbLine
 10
20.4766634618
 20
141.2083699693
 30
0.0
 11
20.4766634618
 21
142.4583699693
 31
0.0
  0
LINE
  5
108
100
AcDbEntity
  8
0
  6
CONTINUOUS
 62
         7
100
AcDbLine
 10
20.4766634618
 20
141.2083699693
 30
0.0
 11
19.2266634618
 21
141.2083699693
 31
0.0
  0
LINE
  5
109
100
AcDbEntity
  8
0
  6
CONTINUOUS
 62
         7
100
AcDbLine
 10
20.4766634618
 20
141.2083699693
 30
0.0
 11
20.4766634618
 21
139.9583699693
 31
0.0
  0
LINE
  5
10A
100
AcDbEntity
  8
0
  6
CONTINUOUS
 62
         7
100
AcDbLine
 10
20.4766634618
 20
141.2083699693
 30
0.0
 11
21.7266634618
 21
141.2083699693
 31
0.0
  0
ENDBLK
  5
10C
100
AcDbEntity
  8
0
100
AcDbBlockEnd
  0
BLOCK
  5
10F
100
AcDbEntity
  8
0
 62
         0
100
AcDbBlockBegin
  2
SW_CENTERMARK13
 70
         0
 10
0.0
 20
0.0
 30
0.0
  3
SW_CENTERMARK13
  1

  0
LINE
  5
110
100
AcDbEntity
  8
0
  6
CONTINUOUS
 62
         7
100
AcDbLine
 10
255.1345634618
 20
141.2083699693
 30
0.0
 11
255.1345634618
 21
142.4583699693
 31
0.0
  0
LINE
  5
111
100
AcDbEntity
  8
0
  6
CONTINUOUS
 62
         7
100
AcDbLine
 10
255.1345634618
 20
141.2083699693
 30
0.0
 11
253.8845634618
 21
141.2083699693
 31
0.0
  0
LINE
  5
112
100
AcDbEntity
  8
0
  6
CONTINUOUS
 62
         7
100
AcDbLine
 10
255.1345634618
 20
141.2083699693
 30
0.0
 11
255.1345634618
 21
139.9583699693
 31
0.0
  0
LINE
  5
113
100
AcDbEntity
  8
0
  6
CONTINUOUS
 62
         7
100
AcDbLine
 10
255.1345634618
 20
141.2083699693
 30
0.0
 11
256.3845634618
 21
141.2083699693
 31
0.0
  0
ENDBLK
  5
115
100
AcDbEntity
  8
0
100
AcDbBlockEnd
  0
BLOCK
  5
118
100
AcDbEntity
  8
0
 62
         0
100
AcDbBlockBegin
  2
SW_CENTERMARK14
 70
         0
 10
0.0
 20
0.0
 30
0.0
  3
SW_CENTERMARK14
  1

  0
LINE
  5
119
100
AcDbEntity
  8
0
  6
CONTINUOUS
 62
         7
100
AcDbLine
 10
253.5343634618
 20
141.2083699693
 30
0.0
 11
253.5343634618
 21
142.4583699693
 31
0.0
  0
LINE
  5
11A
100
AcDbEntity
  8
0
  6
CONTINUOUS
 62
         7
100
AcDbLine
 10
253.5343634618
 20
141.2083699693
 30
0.0
 11
252.2843634618
 21
141.2083699693
 31
0.0
  0
LINE
  5
11B
100
AcDbEntity
  8
0
  6
CONTINUOUS
 62
         7
100
AcDbLine
 10
253.5343634618
 20
141.2083699693
 30
0.0
 11
253.5343634618
 21
139.9583699693
 31
0.0
  0
LINE
  5
11C
100
AcDbEntity
  8
0
  6
CONTINUOUS
 62
         7
100
AcDbLine
 10
253.5343634618
 20
141.2083699693
 30
0.0
 11
254.7843634618
 21
141.2083699693
 31
0.0
  0
ENDBLK
  5
11E
100
AcDbEntity
  8
0
100
AcDbBlockEnd
  0
BLOCK
  5
121
100
AcDbEntity
  8
0
 62
         0
100
AcDbBlockBegin
  2
SW_CENTERMARK15
 70
         0
 10
0.0
 20
0.0
 30
0.0
  3
SW_CENTERMARK15
  1

  0
LINE
  5
122
100
AcDbEntity
  8
0
  6
CONTINUOUS
 62
         7
100
AcDbLine
 10
20.4766634618
 20
112.6079699693
 30
0.0
 11
20.4766634618
 21
113.8579699693
 31
0.0
  0
LINE
  5
123
100
AcDbEntity
  8
0
  6
CONTINUOUS
 62
         7
100
AcDbLine
 10
20.4766634618
 20
112.6079699693
 30
0.0
 11
19.2266634618
 21
112.6079699693
 31
0.0
  0
LINE
  5
124
100
AcDbEntity
  8
0
  6
CONTINUOUS
 62
         7
100
AcDbLine
 10
20.4766634618
 20
112.6079699693
 30
0.0
 11
20.4766634618
 21
111.3579699693
 31
0.0
  0
LINE
  5
125
100
AcDbEntity
  8
0
  6
CONTINUOUS
 62
         7
100
AcDbLine
 10
20.4766634618
 20
112.6079699693
 30
0.0
 11
21.7266634618
 21
112.6079699693
 31
0.0
  0
ENDBLK
  5
127
100
AcDbEntity
  8
0
100
AcDbBlockEnd
  0
BLOCK
  5
12A
100
AcDbEntity
  8
0
 62
         0
100
AcDbBlockBegin
  2
SW_CENTERMARK16
 70
         0
 10
0.0
 20
0.0
 30
0.0
  3
SW_CENTERMARK16
  1

  0
LINE
  5
12B
100
AcDbEntity
  8
0
  6
CONTINUOUS
 62
         7
100
AcDbLine
 10
22.0768634618
 20
112.6079699693
 30
0.0
 11
22.0768634618
 21
113.8579699693
 31
0.0
  0
LINE
  5
12C
100
AcDbEntity
  8
0
  6
CONTINUOUS
 62
         7
100
AcDbLine
 10
22.0768634618
 20
112.6079699693
 30
0.0
 11
20.8268634618
 21
112.6079699693
 31
0.0
  0
LINE
  5
12D
100
AcDbEntity
  8
0
  6
CONTINUOUS
 62
         7
100
AcDbLine
 10
22.0768634618
 20
112.6079699693
 30
0.0
 11
22.0768634618
 21
111.3579699693
 31
0.0
  0
LINE
  5
12E
100
AcDbEntity
  8
0
  6
CONTINUOUS
 62
         7
100
AcDbLine
 10
22.0768634618
 20
112.6079699693
 30
0.0
 11
23.3268634618
 21
112.6079699693
 31
0.0
  0
ENDBLK
  5
130
100
AcDbEntity
  8
0
100
AcDbBlockEnd
  0
BLOCK
  5
133
100
AcDbEntity
  8
0
 62
         0
100
AcDbBlockBegin
  2
SW_CENTERMARK17
 70
         0
 10
0.0
 20
0.0
 30
0.0
  3
SW_CENTERMARK17
  1

  0
LINE
  5
134
100
AcDbEntity
  8
0
  6
CONTINUOUS
 62
         7
100
AcDbLine
 10
62.8756134618
 20
148.6251699693
 30
0.0
 11
62.8756134618
 21
149.8751699693
 31
0.0
  0
LINE
  5
135
100
AcDbEntity
  8
0
  6
CONTINUOUS
 62
         7
100
AcDbLine
 10
62.8756134618
 20
148.6251699693
 30
0.0
 11
61.6256134618
 21
148.6251699693
 31
0.0
  0
LINE
  5
136
100
AcDbEntity
  8
0
  6
CONTINUOUS
 62
         7
100
AcDbLine
 10
62.8756134618
 20
148.6251699693
 30
0.0
 11
62.8756134618
 21
147.3751699693
 31
0.0
  0
LINE
  5
137
100
AcDbEntity
  8
0
  6
CONTINUOUS
 62
         7
100
AcDbLine
 10
62.8756134618
 20
148.6251699693
 30
0.0
 11
64.1256134618
 21
148.6251699693
 31
0.0
  0
LINE
  5
138
100
AcDbEntity
  8
0
  6
CONTINUOUS
 62
         7
100
AcDbLine
 10
62.8756134618
 20
151.1251699693
 30
0.0
 11
62.8756134618
 21
153.3041699693
 31
0.0
  0
LINE
  5
139
100
AcDbEntity
  8
0
  6
CONTINUOUS
 62
         7
100
AcDbLine
 10
50.1756134618
 20
148.6251699693
 30
0.0
 11
50.1756134618
 21
149.8751699693
 31
0.0
  0
LINE
  5
13A
100
AcDbEntity
  8
0
  6
CONTINUOUS
 62
         7
100
AcDbLine
 10
50.1756134618
 20
148.6251699693
 30
0.0
 11
48.9256134618
 21
148.6251699693
 31
0.0
  0
LINE
  5
13B
100
AcDbEntity
  8
0
  6
CONTINUOUS
 62
         7
100
AcDbLine
 10
50.1756134618
 20
148.6251699693
 30
0.0
 11
50.1756134618
 21
147.3751699693
 31
0.0
  0
LINE
  5
13C
100
AcDbEntity
  8
0
  6
CONTINUOUS
 62
         7
100
AcDbLine
 10
50.1756134618
 20
148.6251699693
 30
0.0
 11
51.4256134618
 21
148.6251699693
 31
0.0
  0
LINE
  5
13D
100
AcDbEntity
  8
0
  6
CONTINUOUS
 62
         7
100
AcDbLine
 10
50.1756134618
 20
151.1251699693
 30
0.0
 11
50.1756134618
 21
153.3041699693
 31
0.0
  0
LINE
  5
13E
100
AcDbEntity
  8
0
  6
CONTINUOUS
 62
         7
100
AcDbLine
 10
47.6756134618
 20
148.6251699693
 30
0.0
 11
45.4966134618
 21
148.6251699693
 31
0.0
  0
LINE
  5
13F
100
AcDbEntity
  8
0
  6
CONTINUOUS
 62
         7
100
AcDbLine
 10
75.5756134618
 20
148.6251699693
 30
0.0
 11
75.5756134618
 21
149.8751699693
 31
0.0
  0
LINE
  5
140
100
AcDbEntity
  8
0
  6
CONTINUOUS
 62
         7
100
AcDbLine
 10
75.5756134618
 20
148.6251699693
 30
0.0
 11
74.3256134618
 21
148.6251699693
 31
0.0
  0
LINE
  5
141
100
AcDbEntity
  8
0
  6
CONTINUOUS
 62
         7
100
AcDbLine
 10
75.5756134618
 20
148.6251699693
 30
0.0
 11
75.5756134618
 21
147.3751699693
 31
0.0
  0
LINE
  5
142
100
AcDbEntity
  8
0
  6
CONTINUOUS
 62
         7
100
AcDbLine
 10
75.5756134618
 20
148.6251699693
 30
0.0
 11
76.8256134618
 21
148.6251699693
 31
0.0
  0
LINE
  5
143
100
AcDbEntity
  8
0
  6
CONTINUOUS
 62
         7
100
AcDbLine
 10
75.5756134618
 20
151.1251699693
 30
0.0
 11
75.5756134618
 21
153.3041699693
 31
0.0
  0
LINE
  5
144
100
AcDbEntity
  8
0
  6
CONTINUOUS
 62
         7
100
AcDbLine
 10
88.2756134618
 20
148.6251699693
 30
0.0
 11
88.2756134618
 21
149.8751699693
 31
0.0
  0
LINE
  5
145
100
AcDbEntity
  8
0
  6
CONTINUOUS
 62
         7
100
AcDbLine
 10
88.2756134618
 20
148.6251699693
 30
0.0
 11
87.0256134618
 21
148.6251699693
 31
0.0
  0
LINE
  5
146
100
AcDbEntity
  8
0
  6
CONTINUOUS
 62
         7
100
AcDbLine
 10
88.2756134618
 20
148.6251699693
 30
0.0
 11
88.2756134618
 21
147.3751699693
 31
0.0
  0
LINE
  5
147
100
AcDbEntity
  8
0
  6
CONTINUOUS
 62
         7
100
AcDbLine
 10
88.2756134618
 20
148.6251699693
 30
0.0
 11
89.5256134618
 21
148.6251699693
 31
0.0
  0
LINE
  5
148
100
AcDbEntity
  8
0
  6
CONTINUOUS
 62
         7
100
AcDbLine
 10
88.2756134618
 20
151.1251699693
 30
0.0
 11
88.2756134618
 21
153.3041699693
 31
0.0
  0
LINE
  5
149
100
AcDbEntity
  8
0
  6
CONTINUOUS
 62
         7
100
AcDbLine
 10
90.7756134618
 20
148.6251699693
 30
0.0
 11
92.9546134618
 21
148.6251699693
 31
0.0
  0
LINE
  5
14A
100
AcDbEntity
  8
0
  6
CONTINUOUS
 62
         7
100
AcDbLine
 10
50.1756134618
 20
138.7826699693
 30
0.0
 11
50.1756134618
 21
140.0326699693
 31
0.0
  0
LINE
  5
14B
100
AcDbEntity
  8
0
  6
CONTINUOUS
 62
         7
100
AcDbLine
 10
50.1756134618
 20
138.7826699693
 30
0.0
 11
48.9256134618
 21
138.7826699693
 31
0.0
  0
LINE
  5
14C
100
AcDbEntity
  8
0
  6
CONTINUOUS
 62
         7
100
AcDbLine
 10
50.1756134618
 20
138.7826699693
 30
0.0
 11
50.1756134618
 21
137.5326699693
 31
0.0
  0
LINE
  5
14D
100
AcDbEntity
  8
0
  6
CONTINUOUS
 62
         7
100
AcDbLine
 10
50.1756134618
 20
138.7826699693
 30
0.0
 11
51.4256134618
 21
138.7826699693
 31
0.0
  0
LINE
  5
14E
100
AcDbEntity
  8
0
  6
CONTINUOUS
 62
         7
100
AcDbLine
 10
47.6756134618
 20
138.7826699693
 30
0.0
 11
45.4966134618
 21
138.7826699693
 31
0.0
  0
LINE
  5
14F
100
AcDbEntity
  8
0
  6
CONTINUOUS
 62
         7
100
AcDbLine
 10
62.8756134618
 20
138.7826699693
 30
0.0
 11
62.8756134618
 21
140.0326699693
 31
0.0
  0
LINE
  5
150
100
AcDbEntity
  8
0
  6
CONTINUOUS
 62
         7
100
AcDbLine
 10
62.8756134618
 20
138.7826699693
 30
0.0
 11
61.6256134618
 21
138.7826699693
 31
0.0
  0
LINE
  5
151
100
AcDbEntity
  8
0
  6
CONTINUOUS
 62
         7
100
AcDbLine
 10
62.8756134618
 20
138.7826699693
 30
0.0
 11
62.8756134618
 21
137.5326699693
 31
0.0
  0
LINE
  5
152
100
AcDbEntity
  8
0
  6
CONTINUOUS
 62
         7
100
AcDbLine
 10
62.8756134618
 20
138.7826699693
 30
0.0
 11
64.1256134618
 21
138.7826699693
 31
0.0
  0
LINE
  5
153
100
AcDbEntity
  8
0
  6
CONTINUOUS
 62
         7
100
AcDbLine
 10
75.5756134618
 20
138.7826699693
 30
0.0
 11
75.5756134618
 21
140.0326699693
 31
0.0
  0
LINE
  5
154
100
AcDbEntity
  8
0
  6
CONTINUOUS
 62
         7
100
AcDbLine
 10
75.5756134618
 20
138.7826699693
 30
0.0
 11
74.3256134618
 21
138.7826699693
 31
0.0
  0
LINE
  5
155
100
AcDbEntity
  8
0
  6
CONTINUOUS
 62
         7
100
AcDbLine
 10
75.5756134618
 20
138.7826699693
 30
0.0
 11
75.5756134618
 21
137.5326699693
 31
0.0
  0
LINE
  5
156
100
AcDbEntity
  8
0
  6
CONTINUOUS
 62
         7
100
AcDbLine
 10
75.5756134618
 20
138.7826699693
 30
0.0
 11
76.8256134618
 21
138.7826699693
 31
0.0
  0
LINE
  5
157
100
AcDbEntity
  8
0
  6
CONTINUOUS
 62
         7
100
AcDbLine
 10
88.2756134618
 20
138.7826699693
 30
0.0
 11
88.2756134618
 21
140.0326699693
 31
0.0
  0
LINE
  5
158
100
AcDbEntity
  8
0
  6
CONTINUOUS
 62
         7
100
AcDbLine
 10
88.2756134618
 20
138.7826699693
 30
0.0
 11
87.0256134618
 21
138.7826699693
 31
0.0
  0
LINE
  5
159
100
AcDbEntity
  8
0
  6
CONTINUOUS
 62
         7
100
AcDbLine
 10
88.2756134618
 20
138.7826699693
 30
0.0
 11
88.2756134618
 21
137.5326699693
 31
0.0
  0
LINE
  5
15A
100
AcDbEntity
  8
0
  6
CONTINUOUS
 62
         7
100
AcDbLine
 10
88.2756134618
 20
138.7826699693
 30
0.0
 11
89.5256134618
 21
138.7826699693
 31
0.0
  0
LINE
  5
15B
100
AcDbEntity
  8
0
  6
CONTINUOUS
 62
         7
100
AcDbLine
 10
90.7756134618
 20
138.7826699693
 30
0.0
 11
92.9546134618
 21
138.7826699693
 31
0.0
  0
LINE
  5
15C
100
AcDbEntity
  8
0
  6
CONTINUOUS
 62
         7
100
AcDbLine
 10
50.1756134618
 20
128.9401699693
 30
0.0
 11
50.1756134618
 21
130.1901699693
 31
0.0
  0
LINE
  5
15D
100
AcDbEntity
  8
0
  6
CONTINUOUS
 62
         7
100
AcDbLine
 10
50.1756134618
 20
128.9401699693
 30
0.0
 11
48.9256134618
 21
128.9401699693
 31
0.0
  0
LINE
  5
15E
100
AcDbEntity
  8
0
  6
CONTINUOUS
 62
         7
100
AcDbLine
 10
50.1756134618
 20
128.9401699693
 30
0.0
 11
50.1756134618
 21
127.6901699693
 31
0.0
  0
LINE
  5
15F
100
AcDbEntity
  8
0
  6
CONTINUOUS
 62
         7
100
AcDbLine
 10
50.1756134618
 20
128.9401699693
 30
0.0
 11
51.4256134618
 21
128.9401699693
 31
0.0
  0
LINE
  5
160
100
AcDbEntity
  8
0
  6
CONTINUOUS
 62
         7
100
AcDbLine
 10
47.6756134618
 20
128.9401699693
 30
0.0
 11
45.4966134618
 21
128.9401699693
 31
0.0
  0
LINE
  5
161
100
AcDbEntity
  8
0
  6
CONTINUOUS
 62
         7
100
AcDbLine
 10
62.8756134618
 20
128.9401699693
 30
0.0
 11
62.8756134618
 21
130.1901699693
 31
0.0
  0
LINE
  5
162
100
AcDbEntity
  8
0
  6
CONTINUOUS
 62
         7
100
AcDbLine
 10
62.8756134618
 20
128.9401699693
 30
0.0
 11
61.6256134618
 21
128.9401699693
 31
0.0
  0
LINE
  5
163
100
AcDbEntity
  8
0
  6
CONTINUOUS
 62
         7
100
AcDbLine
 10
62.8756134618
 20
128.9401699693
 30
0.0
 11
62.8756134618
 21
127.6901699693
 31
0.0
  0
LINE
  5
164
100
AcDbEntity
  8
0
  6
CONTINUOUS
 62
         7
100
AcDbLine
 10
62.8756134618
 20
128.9401699693
 30
0.0
 11
64.1256134618
 21
128.9401699693
 31
0.0
  0
LINE
  5
165
100
AcDbEntity
  8
0
  6
CONTINUOUS
 62
         7
100
AcDbLine
 10
75.5756134618
 20
128.9401699693
 30
0.0
 11
75.5756134618
 21
130.1901699693
 31
0.0
  0
LINE
  5
166
100
AcDbEntity
  8
0
  6
CONTINUOUS
 62
         7
100
AcDbLine
 10
75.5756134618
 20
128.9401699693
 30
0.0
 11
74.3256134618
 21
128.9401699693
 31
0.0
  0
LINE
  5
167
100
AcDbEntity
  8
0
  6
CONTINUOUS
 62
         7
100
AcDbLine
 10
75.5756134618
 20
128.9401699693
 30
0.0
 11
75.5756134618
 21
127.6901699693
 31
0.0
  0
LINE
  5
168
100
AcDbEntity
  8
0
  6
CONTINUOUS
 62
         7
100
AcDbLine
 10
75.5756134618
 20
128.9401699693
 30
0.0
 11
76.8256134618
 21
128.9401699693
 31
0.0
  0
LINE
  5
169
100
AcDbEntity
  8
0
  6
CONTINUOUS
 62
         7
100
AcDbLine
 10
88.2756134618
 20
128.9401699693
 30
0.0
 11
88.2756134618
 21
130.1901699693
 31
0.0
  0
LINE
  5
16A
100
AcDbEntity
  8
0
  6
CONTINUOUS
 62
         7
100
AcDbLine
 10
88.2756134618
 20
128.9401699693
 30
0.0
 11
87.0256134618
 21
128.9401699693
 31
0.0
  0
LINE
  5
16B
100
AcDbEntity
  8
0
  6
CONTINUOUS
 62
         7
100
AcDbLine
 10
88.2756134618
 20
128.9401699693
 30
0.0
 11
88.2756134618
 21
127.6901699693
 31
0.0
  0
LINE
  5
16C
100
AcDbEntity
  8
0
  6
CONTINUOUS
 62
         7
100
AcDbLine
 10
88.2756134618
 20
128.9401699693
 30
0.0
 11
89.5256134618
 21
128.9401699693
 31
0.0
  0
LINE
  5
16D
100
AcDbEntity
  8
0
  6
CONTINUOUS
 62
         7
100
AcDbLine
 10
90.7756134618
 20
128.9401699693
 30
0.0
 11
92.9546134618
 21
128.9401699693
 31
0.0
  0
LINE
  5
16E
100
AcDbEntity
  8
0
  6
CONTINUOUS
 62
         7
100
AcDbLine
 10
50.1756134618
 20
119.0976699693
 30
0.0
 11
50.1756134618
 21
120.3476699693
 31
0.0
  0
LINE
  5
16F
100
AcDbEntity
  8
0
  6
CONTINUOUS
 62
         7
100
AcDbLine
 10
50.1756134618
 20
119.0976699693
 30
0.0
 11
48.9256134618
 21
119.0976699693
 31
0.0
  0
LINE
  5
170
100
AcDbEntity
  8
0
  6
CONTINUOUS
 62
         7
100
AcDbLine
 10
50.1756134618
 20
119.0976699693
 30
0.0
 11
50.1756134618
 21
117.8476699693
 31
0.0
  0
LINE
  5
171
100
AcDbEntity
  8
0
  6
CONTINUOUS
 62
         7
100
AcDbLine
 10
50.1756134618
 20
119.0976699693
 30
0.0
 11
51.4256134618
 21
119.0976699693
 31
0.0
  0
LINE
  5
172
100
AcDbEntity
  8
0
  6
CONTINUOUS
 62
         7
100
AcDbLine
 10
47.6756134618
 20
119.0976699693
 30
0.0
 11
45.4966134618
 21
119.0976699693
 31
0.0
  0
LINE
  5
173
100
AcDbEntity
  8
0
  6
CONTINUOUS
 62
         7
100
AcDbLine
 10
50.1756134618
 20
116.5976699693
 30
0.0
 11
50.1756134618
 21
114.4186699693
 31
0.0
  0
LINE
  5
174
100
AcDbEntity
  8
0
  6
CONTINUOUS
 62
         7
100
AcDbLine
 10
62.8756134618
 20
119.0976699693
 30
0.0
 11
62.8756134618
 21
120.3476699693
 31
0.0
  0
LINE
  5
175
100
AcDbEntity
  8
0
  6
CONTINUOUS
 62
         7
100
AcDbLine
 10
62.8756134618
 20
119.0976699693
 30
0.0
 11
61.6256134618
 21
119.0976699693
 31
0.0
  0
LINE
  5
176
100
AcDbEntity
  8
0
  6
CONTINUOUS
 62
         7
100
AcDbLine
 10
62.8756134618
 20
119.0976699693
 30
0.0
 11
62.8756134618
 21
117.8476699693
 31
0.0
  0
LINE
  5
177
100
AcDbEntity
  8
0
  6
CONTINUOUS
 62
         7
100
AcDbLine
 10
62.8756134618
 20
119.0976699693
 30
0.0
 11
64.1256134618
 21
119.0976699693
 31
0.0
  0
LINE
  5
178
100
AcDbEntity
  8
0
  6
CONTINUOUS
 62
         7
100
AcDbLine
 10
62.8756134618
 20
116.5976699693
 30
0.0
 11
62.8756134618
 21
114.4186699693
 31
0.0
  0
LINE
  5
179
100
AcDbEntity
  8
0
  6
CONTINUOUS
 62
         7
100
AcDbLine
 10
75.5756134618
 20
119.0976699693
 30
0.0
 11
75.5756134618
 21
120.3476699693
 31
0.0
  0
LINE
  5
17A
100
AcDbEntity
  8
0
  6
CONTINUOUS
 62
         7
100
AcDbLine
 10
75.5756134618
 20
119.0976699693
 30
0.0
 11
74.3256134618
 21
119.0976699693
 31
0.0
  0
LINE
  5
17B
100
AcDbEntity
  8
0
  6
CONTINUOUS
 62
         7
100
AcDbLine
 10
75.5756134618
 20
119.0976699693
 30
0.0
 11
75.5756134618
 21
117.8476699693
 31
0.0
  0
LINE
  5
17C
100
AcDbEntity
  8
0
  6
CONTINUOUS
 62
         7
100
AcDbLine
 10
75.5756134618
 20
119.0976699693
 30
0.0
 11
76.8256134618
 21
119.0976699693
 31
0.0
  0
LINE
  5
17D
100
AcDbEntity
  8
0
  6
CONTINUOUS
 62
         7
100
AcDbLine
 10
75.5756134618
 20
116.5976699693
 30
0.0
 11
75.5756134618
 21
114.4186699693
 31
0.0
  0
LINE
  5
17E
100
AcDbEntity
  8
0
  6
CONTINUOUS
 62
         7
100
AcDbLine
 10
88.2756134618
 20
119.0976699693
 30
0.0
 11
88.2756134618
 21
120.3476699693
 31
0.0
  0
LINE
  5
17F
100
AcDbEntity
  8
0
  6
CONTINUOUS
 62
         7
100
AcDbLine
 10
88.2756134618
 20
119.0976699693
 30
0.0
 11
87.0256134618
 21
119.0976699693
 31
0.0
  0
LINE
  5
180
100
AcDbEntity
  8
0
  6
CONTINUOUS
 62
         7
100
AcDbLine
 10
88.2756134618
 20
119.0976699693
 30
0.0
 11
88.2756134618
 21
117.8476699693
 31
0.0
  0
LINE
  5
181
100
AcDbEntity
  8
0
  6
CONTINUOUS
 62
         7
100
AcDbLine
 10
88.2756134618
 20
119.0976699693
 30
0.0
 11
89.5256134618
 21
119.0976699693
 31
0.0
  0
LINE
  5
182
100
AcDbEntity
  8
0
  6
CONTINUOUS
 62
         7
100
AcDbLine
 10
88.2756134618
 20
116.5976699693
 30
0.0
 11
88.2756134618
 21
114.4186699693
 31
0.0
  0
LINE
  5
183
100
AcDbEntity
  8
0
  6
CONTINUOUS
 62
         7
100
AcDbLine
 10
90.7756134618
 20
119.0976699693
 30
0.0
 11
92.9546134618
 21
119.0976699693
 31
0.0
  0
LINE
  5
184
100
AcDbEntity
  8
0
  6
CONTINUOUS
 62
         7
100
AcDbLine
 10
52.6756134618
 20
119.0976699693
 30
0.0
 11
60.3756134618
 21
119.0976699693
 31
0.0
  0
LINE
  5
185
100
AcDbEntity
  8
0
  6
CONTINUOUS
 62
         7
100
AcDbLine
 10
65.3756134618
 20
119.0976699693
 30
0.0
 11
73.0756134618
 21
119.0976699693
 31
0.0
  0
LINE
  5
186
100
AcDbEntity
  8
0
  6
CONTINUOUS
 62
         7
100
AcDbLine
 10
78.0756134618
 20
119.0976699693
 30
0.0
 11
85.7756134618
 21
119.0976699693
 31
0.0
  0
LINE
  5
187
100
AcDbEntity
  8
0
  6
CONTINUOUS
 62
         7
100
AcDbLine
 10
52.6756134618
 20
128.9401699693
 30
0.0
 11
60.3756134618
 21
128.9401699693
 31
0.0
  0
LINE
  5
188
100
AcDbEntity
  8
0
  6
CONTINUOUS
 62
         7
100
AcDbLine
 10
65.3756134618
 20
128.9401699693
 30
0.0
 11
73.0756134618
 21
128.9401699693
 31
0.0
  0
LINE
  5
189
100
AcDbEntity
  8
0
  6
CONTINUOUS
 62
         7
100
AcDbLine
 10
78.0756134618
 20
128.9401699693
 30
0.0
 11
85.7756134618
 21
128.9401699693
 31
0.0
  0
LINE
  5
18A
100
AcDbEntity
  8
0
  6
CONTINUOUS
 62
         7
100
AcDbLine
 10
52.6756134618
 20
138.7826699693
 30
0.0
 11
60.3756134618
 21
138.7826699693
 31
0.0
  0
LINE
  5
18B
100
AcDbEntity
  8
0
  6
CONTINUOUS
 62
         7
100
AcDbLine
 10
65.3756134618
 20
138.7826699693
 30
0.0
 11
73.0756134618
 21
138.7826699693
 31
0.0
  0
LINE
  5
18C
100
AcDbEntity
  8
0
  6
CONTINUOUS
 62
         7
100
AcDbLine
 10
78.0756134618
 20
138.7826699693
 30
0.0
 11
85.7756134618
 21
138.7826699693
 31
0.0
  0
LINE
  5
18D
100
AcDbEntity
  8
0
  6
CONTINUOUS
 62
         7
100
AcDbLine
 10
52.6756134618
 20
148.6251699693
 30
0.0
 11
60.3756134618
 21
148.6251699693
 31
0.0
  0
LINE
  5
18E
100
AcDbEntity
  8
0
  6
CONTINUOUS
 62
         7
100
AcDbLine
 10
65.3756134618
 20
148.6251699693
 30
0.0
 11
73.0756134618
 21
148.6251699693
 31
0.0
  0
LINE
  5
18F
100
AcDbEntity
  8
0
  6
CONTINUOUS
 62
         7
100
AcDbLine
 10
78.0756134618
 20
148.6251699693
 30
0.0
 11
85.7756134618
 21
148.6251699693
 31
0.0
  0
LINE
  5
190
100
AcDbEntity
  8
0
  6
CONTINUOUS
 62
         7
100
AcDbLine
 10
50.1756134618
 20
121.5976699693
 30
0.0
 11
50.1756134618
 21
126.4401699693
 31
0.0
  0
LINE
  5
191
100
AcDbEntity
  8
0
  6
CONTINUOUS
 62
         7
100
AcDbLine
 10
50.1756134618
 20
131.4401699693
 30
0.0
 11
50.1756134618
 21
136.2826699693
 31
0.0
  0
LINE
  5
192
100
AcDbEntity
  8
0
  6
CONTINUOUS
 62
         7
100
AcDbLine
 10
50.1756134618
 20
141.2826699693
 30
0.0
 11
50.1756134618
 21
146.1251699693
 31
0.0
  0
LINE
  5
193
100
AcDbEntity
  8
0
  6
CONTINUOUS
 62
         7
100
AcDbLine
 10
62.8756134618
 20
121.5976699693
 30
0.0
 11
62.8756134618
 21
126.4401699693
 31
0.0
  0
LINE
  5
194
100
AcDbEntity
  8
0
  6
CONTINUOUS
 62
         7
100
AcDbLine
 10
62.8756134618
 20
131.4401699693
 30
0.0
 11
62.8756134618
 21
136.2826699693
 31
0.0
  0
LINE
  5
195
100
AcDbEntity
  8
0
  6
CONTINUOUS
 62
         7
100
AcDbLine
 10
62.8756134618
 20
141.2826699693
 30
0.0
 11
62.8756134618
 21
146.1251699693
 31
0.0
  0
LINE
  5
196
100
AcDbEntity
  8
0
  6
CONTINUOUS
 62
         7
100
AcDbLine
 10
75.5756134618
 20
121.5976699693
 30
0.0
 11
75.5756134618
 21
126.4401699693
 31
0.0
  0
LINE
  5
197
100
AcDbEntity
  8
0
  6
CONTINUOUS
 62
         7
100
AcDbLine
 10
75.5756134618
 20
131.4401699693
 30
0.0
 11
75.5756134618
 21
136.2826699693
 31
0.0
  0
LINE
  5
198
100
AcDbEntity
  8
0
  6
CONTINUOUS
 62
         7
100
AcDbLine
 10
75.5756134618
 20
141.2826699693
 30
0.0
 11
75.5756134618
 21
146.1251699693
 31
0.0
  0
LINE
  5
199
100
AcDbEntity
  8
0
  6
CONTINUOUS
 62
         7
100
AcDbLine
 10
88.2756134618
 20
121.5976699693
 30
0.0
 11
88.2756134618
 21
126.4401699693
 31
0.0
  0
LINE
  5
19A
100
AcDbEntity
  8
0
  6
CONTINUOUS
 62
         7
100
AcDbLine
 10
88.2756134618
 20
131.4401699693
 30
0.0
 11
88.2756134618
 21
136.2826699693
 31
0.0
  0
LINE
  5
19B
100
AcDbEntity
  8
0
  6
CONTINUOUS
 62
         7
100
AcDbLine
 10
88.2756134618
 20
141.2826699693
 30
0.0
 11
88.2756134618
 21
146.1251699693
 31
0.0
  0
ENDBLK
  5
19D
100
AcDbEntity
  8
0
100
AcDbBlockEnd
  0
BLOCK
  5
1A0
100
AcDbEntity
  8
0
 62
         0
100
AcDbBlockBegin
  2
SW_CENTERMARK18
 70
         0
 10
0.0
 20
0.0
 30
0.0
  3
SW_CENTERMARK18
  1

  0
LINE
  5
1A1
100
AcDbEntity
  8
0
  6
CONTINUOUS
 62
         7
100
AcDbLine
 10
222.1806134618
 20
155.9551699693
 30
0.0
 11
222.1806134618
 21
157.2051699693
 31
0.0
  0
LINE
  5
1A2
100
AcDbEntity
  8
0
  6
CONTINUOUS
 62
         7
100
AcDbLine
 10
222.1806134618
 20
155.9551699693
 30
0.0
 11
220.9306134618
 21
155.9551699693
 31
0.0
  0
LINE
  5
1A3
100
AcDbEntity
  8
0
  6
CONTINUOUS
 62
         7
100
AcDbLine
 10
222.1806134618
 20
155.9551699693
 30
0.0
 11
222.1806134618
 21
154.7051699693
 31
0.0
  0
LINE
  5
1A4
100
AcDbEntity
  8
0
  6
CONTINUOUS
 62
         7
100
AcDbLine
 10
222.1806134618
 20
155.9551699693
 30
0.0
 11
223.4306134618
 21
155.9551699693
 31
0.0
  0
LINE
  5
1A5
100
AcDbEntity
  8
0
  6
CONTINUOUS
 62
         7
100
AcDbLine
 10
222.1806134618
 20
157.2051699693
 30
0.0
 11
222.1806134618
 21
158.0751199693
 31
0.0
  0
LINE
  5
1A6
100
AcDbEntity
  8
0
  6
CONTINUOUS
 62
         7
100
AcDbLine
 10
220.9306134618
 20
155.9551699693
 30
0.0
 11
220.0606634618
 21
155.9551699693
 31
0.0
  0
LINE
  5
1A7
100
AcDbEntity
  8
0
  6
CONTINUOUS
 62
         7
100
AcDbLine
 10
222.1806134618
 20
154.7051699693
 30
0.0
 11
222.1806134618
 21
153.8352199693
 31
0.0
  0
LINE
  5
1A8
100
AcDbEntity
  8
0
  6
CONTINUOUS
 62
         7
100
AcDbLine
 10
223.4306134618
 20
155.9551699693
 30
0.0
 11
224.3005634618
 21
155.9551699693
 31
0.0
  0
ENDBLK
  5
1AA
100
AcDbEntity
  8
0
100
AcDbBlockEnd
  0
BLOCK
  5
1AD
100
AcDbEntity
  8
0
 62
         0
100
AcDbBlockBegin
  2
SW_CENTERMARK19
 70
         0
 10
0.0
 20
0.0
 30
0.0
  3
SW_CENTERMARK19
  1

  0
LINE
  5
1AE
100
AcDbEntity
  8
0
  6
CONTINUOUS
 62
         7
100
AcDbLine
 10
222.1806134618
 20
105.4551699693
 30
0.0
 11
222.1806134618
 21
106.7051699693
 31
0.0
  0
LINE
  5
1AF
100
AcDbEntity
  8
0
  6
CONTINUOUS
 62
         7
100
AcDbLine
 10
222.1806134618
 20
105.4551699693
 30
0.0
 11
220.9306134618
 21
105.4551699693
 31
0.0
  0
LINE
  5
1B0
100
AcDbEntity
  8
0
  6
CONTINUOUS
 62
         7
100
AcDbLine
 10
222.1806134618
 20
105.4551699693
 30
0.0
 11
222.1806134618
 21
104.2051699693
 31
0.0
  0
LINE
  5
1B1
100
AcDbEntity
  8
0
  6
CONTINUOUS
 62
         7
100
AcDbLine
 10
222.1806134618
 20
105.4551699693
 30
0.0
 11
223.4306134618
 21
105.4551699693
 31
0.0
  0
LINE
  5
1B2
100
AcDbEntity
  8
0
  6
CONTINUOUS
 62
         7
100
AcDbLine
 10
222.1806134618
 20
106.7051699693
 30
0.0
 11
222.1806134618
 21
107.5751199693
 31
0.0
  0
LINE
  5
1B3
100
AcDbEntity
  8
0
  6
CONTINUOUS
 62
         7
100
AcDbLine
 10
220.9306134618
 20
105.4551699693
 30
0.0
 11
220.0606634618
 21
105.4551699693
 31
0.0
  0
LINE
  5
1B4
100
AcDbEntity
  8
0
  6
CONTINUOUS
 62
         7
100
AcDbLine
 10
222.1806134618
 20
104.2051699693
 30
0.0
 11
222.1806134618
 21
103.3352199693
 31
0.0
  0
LINE
  5
1B5
100
AcDbEntity
  8
0
  6
CONTINUOUS
 62
         7
100
AcDbLine
 10
223.4306134618
 20
105.4551699693
 30
0.0
 11
224.3005634618
 21
105.4551699693
 31
0.0
  0
ENDBLK
  5
1B7
100
AcDbEntity
  8
0
100
AcDbBlockEnd
  0
BLOCK
  5
1BA
100
AcDbEntity
  8
0
 62
         0
100
AcDbBlockBegin
  2
SW_CENTERMARK20
 70
         0
 10
0.0
 20
0.0
 30
0.0
  3
SW_CENTERMARK20
  1

  0
LINE
  5
1BB
100
AcDbEntity
  8
0
  6
CONTINUOUS
 62
         7
100
AcDbLine
 10
146.1806134618
 20
155.9551699693
 30
0.0
 11
146.1806134618
 21
157.2051699693
 31
0.0
  0
LINE
  5
1BC
100
AcDbEntity
  8
0
  6
CONTINUOUS
 62
         7
100
AcDbLine
 10
146.1806134618
 20
155.9551699693
 30
0.0
 11
144.9306134618
 21
155.9551699693
 31
0.0
  0
LINE
  5
1BD
100
AcDbEntity
  8
0
  6
CONTINUOUS
 62
         7
100
AcDbLine
 10
146.1806134618
 20
155.9551699693
 30
0.0
 11
146.1806134618
 21
154.7051699693
 31
0.0
  0
LINE
  5
1BE
100
AcDbEntity
  8
0
  6
CONTINUOUS
 62
         7
100
AcDbLine
 10
146.1806134618
 20
155.9551699693
 30
0.0
 11
147.4306134618
 21
155.9551699693
 31
0.0
  0
LINE
  5
1BF
100
AcDbEntity
  8
0
  6
CONTINUOUS
 62
         7
100
AcDbLine
 10
146.1806134618
 20
157.2051699693
 30
0.0
 11
146.1806134618
 21
158.0751199693
 31
0.0
  0
LINE
  5
1C0
100
AcDbEntity
  8
0
  6
CONTINUOUS
 62
         7
100
AcDbLine
 10
144.9306134618
 20
155.9551699693
 30
0.0
 11
144.0606634618
 21
155.9551699693
 31
0.0
  0
LINE
  5
1C1
100
AcDbEntity
  8
0
  6
CONTINUOUS
 62
         7
100
AcDbLine
 10
146.1806134618
 20
154.7051699693
 30
0.0
 11
146.1806134618
 21
153.8352199693
 31
0.0
  0
LINE
  5
1C2
100
AcDbEntity
  8
0
  6
CONTINUOUS
 62
         7
100
AcDbLine
 10
147.4306134618
 20
155.9551699693
 30
0.0
 11
148.3005634618
 21
155.9551699693
 31
0.0
  0
ENDBLK
  5
1C4
100
AcDbEntity
  8
0
100
AcDbBlockEnd
  0
BLOCK
  5
1C7
100
AcDbEntity
  8
0
 62
         0
100
AcDbBlockBegin
  2
SW_CENTERMARK21
 70
         0
 10
0.0
 20
0.0
 30
0.0
  3
SW_CENTERMARK21
  1

  0
LINE
  5
1C8
100
AcDbEntity
  8
0
  6
CONTINUOUS
 62
         7
100
AcDbLine
 10
146.1806134618
 20
105.4551699693
 30
0.0
 11
146.1806134618
 21
106.7051699693
 31
0.0
  0
LINE
  5
1C9
100
AcDbEntity
  8
0
  6
CONTINUOUS
 62
         7
100
AcDbLine
 10
146.1806134618
 20
105.4551699693
 30
0.0
 11
144.9306134618
 21
105.4551699693
 31
0.0
  0
LINE
  5
1CA
100
AcDbEntity
  8
0
  6
CONTINUOUS
 62
         7
100
AcDbLine
 10
146.1806134618
 20
105.4551699693
 30
0.0
 11
146.1806134618
 21
104.2051699693
 31
0.0
  0
LINE
  5
1CB
100
AcDbEntity
  8
0
  6
CONTINUOUS
 62
         7
100
AcDbLine
 10
146.1806134618
 20
105.4551699693
 30
0.0
 11
147.4306134618
 21
105.4551699693
 31
0.0
  0
LINE
  5
1CC
100
AcDbEntity
  8
0
  6
CONTINUOUS
 62
         7
100
AcDbLine
 10
146.1806134618
 20
106.7051699693
 30
0.0
 11
146.1806134618
 21
107.5751199693
 31
0.0
  0
LINE
  5
1CD
100
AcDbEntity
  8
0
  6
CONTINUOUS
 62
         7
100
AcDbLine
 10
144.9306134618
 20
105.4551699693
 30
0.0
 11
144.0606634618
 21
105.4551699693
 31
0.0
  0
LINE
  5
1CE
100
AcDbEntity
  8
0
  6
CONTINUOUS
 62
         7
100
AcDbLine
 10
146.1806134618
 20
104.2051699693
 30
0.0
 11
146.1806134618
 21
103.3352199693
 31
0.0
  0
LINE
  5
1CF
100
AcDbEntity
  8
0
  6
CONTINUOUS
 62
         7
100
AcDbLine
 10
147.4306134618
 20
105.4551699693
 30
0.0
 11
148.3005634618
 21
105.4551699693
 31
0.0
  0
ENDBLK
  5
1D1
100
AcDbEntity
  8
0
100
AcDbBlockEnd
  0
BLOCK
  5
1D4
100
AcDbEntity
  8
0
 62
         0
100
AcDbBlockBegin
  2
SW_CENTERMARK22
 70
         0
 10
0.0
 20
0.0
 30
0.0
  3
SW_CENTERMARK22
  1

  0
LINE
  5
1D5
100
AcDbEntity
  8
0
  6
CONTINUOUS
 62
         7
100
AcDbLine
 10
131.4556134618
 20
153.7051699693
 30
0.0
 11
131.4556134618
 21
154.9551699693
 31
0.0
  0
LINE
  5
1D6
100
AcDbEntity
  8
0
  6
CONTINUOUS
 62
         7
100
AcDbLine
 10
131.4556134618
 20
153.7051699693
 30
0.0
 11
130.2056134618
 21
153.7051699693
 31
0.0
  0
LINE
  5
1D7
100
AcDbEntity
  8
0
  6
CONTINUOUS
 62
         7
100
AcDbLine
 10
131.4556134618
 20
153.7051699693
 30
0.0
 11
131.4556134618
 21
152.4551699693
 31
0.0
  0
LINE
  5
1D8
100
AcDbEntity
  8
0
  6
CONTINUOUS
 62
         7
100
AcDbLine
 10
131.4556134618
 20
153.7051699693
 30
0.0
 11
132.7056134618
 21
153.7051699693
 31
0.0
  0
LINE
  5
1D9
100
AcDbEntity
  8
0
  6
CONTINUOUS
 62
         7
100
AcDbLine
 10
131.4556134618
 20
154.9551699693
 30
0.0
 11
131.4556134618
 21
155.8251199693
 31
0.0
  0
LINE
  5
1DA
100
AcDbEntity
  8
0
  6
CONTINUOUS
 62
         7
100
AcDbLine
 10
132.7056134618
 20
153.7051699693
 30
0.0
 11
133.5755634618
 21
153.7051699693
 31
0.0
  0
LINE
  5
1DB
100
AcDbEntity
  8
0
  6
CONTINUOUS
 62
         7
100
AcDbLine
 10
42.5556134618
 20
153.7051699693
 30
0.0
 11
42.5556134618
 21
154.9551699693
 31
0.0
  0
LINE
  5
1DC
100
AcDbEntity
  8
0
  6
CONTINUOUS
 62
         7
100
AcDbLine
 10
42.5556134618
 20
153.7051699693
 30
0.0
 11
41.3056134618
 21
153.7051699693
 31
0.0
  0
LINE
  5
1DD
100
AcDbEntity
  8
0
  6
CONTINUOUS
 62
         7
100
AcDbLine
 10
42.5556134618
 20
153.7051699693
 30
0.0
 11
42.5556134618
 21
152.4551699693
 31
0.0
  0
LINE
  5
1DE
100
AcDbEntity
  8
0
  6
CONTINUOUS
 62
         7
100
AcDbLine
 10
42.5556134618
 20
153.7051699693
 30
0.0
 11
43.8056134618
 21
153.7051699693
 31
0.0
  0
LINE
  5
1DF
100
AcDbEntity
  8
0
  6
CONTINUOUS
 62
         7
100
AcDbLine
 10
42.5556134618
 20
154.9551699693
 30
0.0
 11
42.5556134618
 21
155.8251199693
 31
0.0
  0
LINE
  5
1E0
100
AcDbEntity
  8
0
  6
CONTINUOUS
 62
         7
100
AcDbLine
 10
41.3056134618
 20
153.7051699693
 30
0.0
 11
40.4356634618
 21
153.7051699693
 31
0.0
  0
LINE
  5
1E1
100
AcDbEntity
  8
0
  6
CONTINUOUS
 62
         7
100
AcDbLine
 10
42.5556134618
 20
115.6051699693
 30
0.0
 11
42.5556134618
 21
116.8551699693
 31
0.0
  0
LINE
  5
1E2
100
AcDbEntity
  8
0
  6
CONTINUOUS
 62
         7
100
AcDbLine
 10
42.5556134618
 20
115.6051699693
 30
0.0
 11
41.3056134618
 21
115.6051699693
 31
0.0
  0
LINE
  5
1E3
100
AcDbEntity
  8
0
  6
CONTINUOUS
 62
         7
100
AcDbLine
 10
42.5556134618
 20
115.6051699693
 30
0.0
 11
42.5556134618
 21
114.3551699693
 31
0.0
  0
LINE
  5
1E4
100
AcDbEntity
  8
0
  6
CONTINUOUS
 62
         7
100
AcDbLine
 10
42.5556134618
 20
115.6051699693
 30
0.0
 11
43.8056134618
 21
115.6051699693
 31
0.0
  0
LINE
  5
1E5
100
AcDbEntity
  8
0
  6
CONTINUOUS
 62
         7
100
AcDbLine
 10
41.3056134618
 20
115.6051699693
 30
0.0
 11
40.4356634618
 21
115.6051699693
 31
0.0
  0
LINE
  5
1E6
100
AcDbEntity
  8
0
  6
CONTINUOUS
 62
         7
100
AcDbLine
 10
42.5556134618
 20
114.3551699693
 30
0.0
 11
42.5556134618
 21
113.4852199693
 31
0.0
  0
LINE
  5
1E7
100
AcDbEntity
  8
0
  6
CONTINUOUS
 62
         7
100
AcDbLine
 10
131.4556134618
 20
115.6051699693
 30
0.0
 11
131.4556134618
 21
116.8551699693
 31
0.0
  0
LINE
  5
1E8
100
AcDbEntity
  8
0
  6
CONTINUOUS
 62
         7
100
AcDbLine
 10
131.4556134618
 20
115.6051699693
 30
0.0
 11
130.2056134618
 21
115.6051699693
 31
0.0
  0
LINE
  5
1E9
100
AcDbEntity
  8
0
  6
CONTINUOUS
 62
         7
100
AcDbLine
 10
131.4556134618
 20
115.6051699693
 30
0.0
 11
131.4556134618
 21
114.3551699693
 31
0.0
  0
LINE
  5
1EA
100
AcDbEntity
  8
0
  6
CONTINUOUS
 62
         7
100
AcDbLine
 10
131.4556134618
 20
115.6051699693
 30
0.0
 11
132.7056134618
 21
115.6051699693
 31
0.0
  0
LINE
  5
1EB
100
AcDbEntity
  8
0
  6
CONTINUOUS
 62
         7
100
AcDbLine
 10
131.4556134618
 20
114.3551699693
 30
0.0
 11
131.4556134618
 21
113.4852199693
 31
0.0
  0
LINE
  5
1EC
100
AcDbEntity
  8
0
  6
CONTINUOUS
 62
         7
100
AcDbLine
 10
132.7056134618
 20
115.6051699693
 30
0.0
 11
133.5755634618
 21
115.6051699693
 31
0.0
  0
LINE
  5
1ED
100
AcDbEntity
  8
0
  6
CONTINUOUS
 62
         7
100
AcDbLine
 10
45.0556134618
 20
115.6051699693
 30
0.0
 11
128.9556134618
 21
115.6051699693
 31
0.0
  0
LINE
  5
1EE
100
AcDbEntity
  8
0
  6
CONTINUOUS
 62
         7
100
AcDbLine
 10
45.0556134618
 20
153.7051699693
 30
0.0
 11
128.9556134618
 21
153.7051699693
 31
0.0
  0
LINE
  5
1EF
100
AcDbEntity
  8
0
  6
CONTINUOUS
 62
         7
100
AcDbLine
 10
42.5556134618
 20
118.1051699693
 30
0.0
 11
42.5556134618
 21
151.2051699693
 31
0.0
  0
LINE
  5
1F0
100
AcDbEntity
  8
0
  6
CONTINUOUS
 62
         7
100
AcDbLine
 10
131.4556134618
 20
118.1051699693
 30
0.0
 11
131.4556134618
 21
151.2051699693
 31
0.0
  0
ENDBLK
  5
1F2
100
AcDbEntity
  8
0
100
AcDbBlockEnd
  0
ENDSEC
  0
SECTION
  2
ENTITIES
  0
LINE
  5
28
100
AcDbEntity
  8
0
  6
CONTINUOUS
 62
         7
100
AcDbLine
 10
96.3718634618
 20
151.2921699693
 30
0.0
 11
126.2168634618
 21
151.2921699693
 31
0.0
  0
LINE
  5
29
100
AcDbEntity
  8
0
  6
CONTINUOUS
 62
         7
100
AcDbLine
 10
96.3718634618
 20
151.2921699693
 30
0.0
 11
96.3718634618
 21
145.9581699693
 31
0.0
  0
LINE
  5
2A
100
AcDbEntity
  8
0
  6
CONTINUOUS
 62
         7
100
AcDbLine
 10
96.3718634618
 20
145.9581699693
 30
0.0
 11
126.2168634618
 21
145.9581699693
 31
0.0
  0
LINE
  5
2B
100
AcDbEntity
  8
0
  6
CONTINUOUS
 62
         7
100
AcDbLine
 10
126.2168634618
 20
151.2921699693
 30
0.0
 11
126.2168634618
 21
145.9581699693
 31
0.0
  0
LINE
  5
2C
100
AcDbEntity
  8
0
  6
CONTINUOUS
 62
         7
100
AcDbLine
 10
96.3718634618
 20
116.4306699693
 30
0.0
 11
126.2168634618
 21
116.4306699693
 31
0.0
  0
LINE
  5
2D
100
AcDbEntity
  8
0
  6
CONTINUOUS
 62
         7
100
AcDbLine
 10
126.2168634618
 20
116.4306699693
 30
0.0
 11
126.2168634618
 21
121.7646699693
 31
0.0
  0
LINE
  5
2E
100
AcDbEntity
  8
0
  6
CONTINUOUS
 62
         7
100
AcDbLine
 10
126.2168634618
 20
121.7646699693
 30
0.0
 11
96.3718634618
 21
121.7646699693
 31
0.0
  0
LINE
  5
2F
100
AcDbEntity
  8
0
  6
CONTINUOUS
 62
         7
100
AcDbLine
 10
96.3718634618
 20
121.7646699693
 30
0.0
 11
96.3718634618
 21
116.4306699693
 31
0.0
  0
LINE
  5
30
100
AcDbEntity
  8
0
  6
CONTINUOUS
 62
         7
100
AcDbLine
 10
96.3718634618
 20
126.2731699693
 30
0.0
 11
126.2168634618
 21
126.2731699693
 31
0.0
  0
LINE
  5
31
100
AcDbEntity
  8
0
  6
CONTINUOUS
 62
         7
100
AcDbLine
 10
126.2168634618
 20
126.2731699693
 30
0.0
 11
126.2168634618
 21
131.6071699693
 31
0.0
  0
LINE
  5
32
100
AcDbEntity
  8
0
  6
CONTINUOUS
 62
         7
100
AcDbLine
 10
126.2168634618
 20
131.6071699693
 30
0.0
 11
96.3718634618
 21
131.6071699693
 31
0.0
  0
LINE
  5
33
100
AcDbEntity
  8
0
  6
CONTINUOUS
 62
         7
100
AcDbLine
 10
96.3718634618
 20
131.6071699693
 30
0.0
 11
96.3718634618
 21
126.2731699693
 31
0.0
  0
CIRCLE
  5
34
100
AcDbEntity
  8
0
  6
CONTINUOUS
 62
         7
100
AcDbCircle
 10
88.2756134618
 20
119.0976699693
 30
0.0
 40
3.429
  0
CIRCLE
  5
35
100
AcDbEntity
  8
0
  6
CONTINUOUS
 62
         7
100
AcDbCircle
 10
75.5756134618
 20
119.0976699693
 30
0.0
 40
3.429
  0
CIRCLE
  5
36
100
AcDbEntity
  8
0
  6
CONTINUOUS
 62
         7
100
AcDbCircle
 10
62.8756134618
 20
119.0976699693
 30
0.0
 40
3.429
  0
CIRCLE
  5
37
100
AcDbEntity
  8
0
  6
CONTINUOUS
 62
         7
100
AcDbCircle
 10
50.1756134618
 20
119.0976699693
 30
0.0
 40
3.429
  0
CIRCLE
  5
38
100
AcDbEntity
  8
0
  6
CONTINUOUS
 62
         7
100
AcDbCircle
 10
88.2756134618
 20
128.9401699693
 30
0.0
 40
3.429
  0
CIRCLE
  5
39
100
AcDbEntity
  8
0
  6
CONTINUOUS
 62
         7
100
AcDbCircle
 10
50.1756134618
 20
128.9401699693
 30
0.0
 40
3.429
  0
CIRCLE
  5
3A
100
AcDbEntity
  8
0
  6
CONTINUOUS
 62
         7
100
AcDbCircle
 10
88.2756134618
 20
138.7826699693
 30
0.0
 40
3.429
  0
CIRCLE
  5
3B
100
AcDbEntity
  8
0
  6
CONTINUOUS
 62
         7
100
AcDbCircle
 10
50.1756134618
 20
138.7826699693
 30
0.0
 40
3.429
  0
CIRCLE
  5
3C
100
AcDbEntity
  8
0
  6
CONTINUOUS
 62
         7
100
AcDbCircle
 10
88.2756134618
 20
148.6251699693
 30
0.0
 40
3.429
  0
CIRCLE
  5
3D
100
AcDbEntity
  8
0
  6
CONTINUOUS
 62
         7
100
AcDbCircle
 10
75.5756134618
 20
148.6251699693
 30
0.0
 40
3.429
  0
CIRCLE
  5
3E
100
AcDbEntity
  8
0
  6
CONTINUOUS
 62
         7
100
AcDbCircle
 10
75.5756134618
 20
128.9401699693
 30
0.0
 40
3.429
  0
CIRCLE
  5
3F
100
AcDbEntity
  8
0
  6
CONTINUOUS
 62
         7
100
AcDbCircle
 10
62.8756134618
 20
128.9401699693
 30
0.0
 40
3.429
  0
CIRCLE
  5
40
100
AcDbEntity
  8
0
  6
CONTINUOUS
 62
         7
100
AcDbCircle
 10
75.5756134618
 20
138.7826699693
 30
0.0
 40
3.429
  0
CIRCLE
  5
41
100
AcDbEntity
  8
0
  6
CONTINUOUS
 62
         7
100
AcDbCircle
 10
239.7231134618
 20
104.6831699693
 30
0.0
 40
1.21285
  0
CIRCLE
  5
42
100
AcDbEntity
  8
0
  6
CONTINUOUS
 62
         7
100
AcDbCircle
 10
35.8881134618
 20
104.6831699693
 30
0.0
 40
1.21285
  0
CIRCLE
  5
43
100
AcDbEntity
  8
0
  6
CONTINUOUS
 62
         7
100
AcDbCircle
 10
35.8881134618
 20
149.1331699693
 30
0.0
 40
1.21285
  0
CIRCLE
  5
44
100
AcDbEntity
  8
0
  6
CONTINUOUS
 62
         7
100
AcDbCircle
 10
239.7231134618
 20
149.1331699693
 30
0.0
 40
1.21285
  0
CIRCLE
  5
45
100
AcDbEntity
  8
0
  6
CONTINUOUS
 62
         7
100
AcDbCircle
 10
137.8056134618
 20
100.4286699693
 30
0.0
 40
1.03505
  0
ARC
  5
46
100
AcDbEntity
  8
0
  6
CONTINUOUS
 62
         7
100
AcDbCircle
 10
255.1345634618
 20
112.6079699693
 30
0.0
 40
1.77165
100
AcDbArc
 50
270.0
 51
90.0
  0
LINE
  5
47
100
AcDbEntity
  8
0
  6
CONTINUOUS
 62
         7
100
AcDbLine
 10
255.1345634618
 20
114.3796199693
 30
0.0
 11
253.5343634618
 21
114.3796199693
 31
0.0
  0
ARC
  5
48
100
AcDbEntity
  8
0
  6
CONTINUOUS
 62
         7
100
AcDbCircle
 10
253.5343634618
 20
112.6079699693
 30
0.0
 40
1.77165
100
AcDbArc
 50
90.0
 51
270.0
  0
LINE
  5
49
100
AcDbEntity
  8
0
  6
CONTINUOUS
 62
         7
100
AcDbLine
 10
253.5343634618
 20
110.8363199693
 30
0.0
 11
255.1345634618
 21
110.8363199693
 31
0.0
  0
ARC
  5
4A
100
AcDbEntity
  8
0
  6
CONTINUOUS
 62
         7
100
AcDbCircle
 10
20.4766634618
 20
141.2083699693
 30
0.0
 40
1.77165
100
AcDbArc
 50
90.0
 51
270.0
  0
LINE
  5
4B
100
AcDbEntity
  8
0
  6
CONTINUOUS
 62
         7
100
AcDbLine
 10
20.4766634618
 20
139.4367199693
 30
0.0
 11
22.0768634618
 21
139.4367199693
 31
0.0
  0
ARC
  5
4C
100
AcDbEntity
  8
0
  6
CONTINUOUS
 62
         7
100
AcDbCircle
 10
22.0768634618
 20
141.2083699693
 30
0.0
 40
1.77165
100
AcDbArc
 50
270.0
 51
90.0
  0
LINE
  5
4D
100
AcDbEntity
  8
0
  6
CONTINUOUS
 62
         7
100
AcDbLine
 10
22.0768634618
 20
142.9800199693
 30
0.0
 11
20.4766634618
 21
142.9800199693
 31
0.0
  0
ARC
  5
4E
100
AcDbEntity
  8
0
  6
CONTINUOUS
 62
         7
100
AcDbCircle
 10
253.5343634618
 20
141.2083699693
 30
0.0
 40
1.77165
100
AcDbArc
 50
90.0
 51
270.0
  0
LINE
  5
4F
100
AcDbEntity
  8
0
  6
CONTINUOUS
 62
         7
100
AcDbLine
 10
253.5343634618
 20
139.4367199693
 30
0.0
 11
255.1345634618
 21
139.4367199693
 31
0.0
  0
ARC
  5
50
100
AcDbEntity
  8
0
  6
CONTINUOUS
 62
         7
100
AcDbCircle
 10
255.1345634618
 20
141.2083699693
 30
0.0
 40
1.77165
100
AcDbArc
 50
270.0
 51
90.0
  0
LINE
  5
51
100
AcDbEntity
  8
0
  6
CONTINUOUS
 62
         7
100
AcDbLine
 10
255.1345634618
 20
142.9800199693
 30
0.0
 11
253.5343634618
 21
142.9800199693
 31
0.0
  0
ARC
  5
52
100
AcDbEntity
  8
0
  6
CONTINUOUS
 62
         7
100
AcDbCircle
 10
22.0768634618
 20
112.6079699693
 30
0.0
 40
1.77165
100
AcDbArc
 50
270.0
 51
90.0
  0
LINE
  5
53
100
AcDbEntity
  8
0
  6
CONTINUOUS
 62
         7
100
AcDbLine
 10
22.0768634618
 20
114.3796199693
 30
0.0
 11
20.4766634618
 21
114.3796199693
 31
0.0
  0
ARC
  5
54
100
AcDbEntity
  8
0
  6
CONTINUOUS
 62
         7
100
AcDbCircle
 10
20.4766634618
 20
112.6079699693
 30
0.0
 40
1.77165
100
AcDbArc
 50
90.0
 51
270.0
  0
LINE
  5
55
100
AcDbEntity
  8
0
  6
CONTINUOUS
 62
         7
100
AcDbLine
 10
20.4766634618
 20
110.8363199693
 30
0.0
 11
22.0768634618
 21
110.8363199693
 31
0.0
  0
CIRCLE
  5
56
100
AcDbEntity
  8
0
  6
CONTINUOUS
 62
         7
100
AcDbCircle
 10
42.5556134618
 20
153.7051699693
 30
0.0
 40
0.86995
  0
CIRCLE
  5
57
100
AcDbEntity
  8
0
  6
CONTINUOUS
 62
         7
100
AcDbCircle
 10
50.1756134618
 20
148.6251699693
 30
0.0
 40
3.429
  0
CIRCLE
  5
58
100
AcDbEntity
  8
0
  6
CONTINUOUS
 62
         7
100
AcDbCircle
 10
62.8756134618
 20
138.7826699693
 30
0.0
 40
3.429
  0
CIRCLE
  5
59
100
AcDbEntity
  8
0
  6
CONTINUOUS
 62
         7
100
AcDbCircle
 10
62.8756134618
 20
148.6251699693
 30
0.0
 40
3.429
  0
LINE
  5
5A
100
AcDbEntity
  8
0
  6
CONTINUOUS
 62
         7
100
AcDbLine
 10
126.2168634618
 20
145.9581699693
 30
0.0
 11
126.2168634618
 21
151.2921699693
 31
0.0
  0
LINE
  5
5B
100
AcDbEntity
  8
0
  6
CONTINUOUS
 62
         7
100
AcDbLine
 10
126.2168634618
 20
151.2921699693
 30
0.0
 11
96.3718634618
 21
151.2921699693
 31
0.0
  0
LINE
  5
5C
100
AcDbEntity
  8
0
  6
CONTINUOUS
 62
         7
100
AcDbLine
 10
96.3718634618
 20
151.2921699693
 30
0.0
 11
96.3718634618
 21
145.9581699693
 31
0.0
  0
LINE
  5
5D
100
AcDbEntity
  8
0
  6
CONTINUOUS
 62
         7
100
AcDbLine
 10
96.3718634618
 20
145.9581699693
 30
0.0
 11
126.2168634618
 21
145.9581699693
 31
0.0
  0
LINE
  5
5E
100
AcDbEntity
  8
0
  6
CONTINUOUS
 62
         7
100
AcDbLine
 10
126.2168634618
 20
136.1156699693
 30
0.0
 11
126.2168634618
 21
141.4496699693
 31
0.0
  0
LINE
  5
5F
100
AcDbEntity
  8
0
  6
CONTINUOUS
 62
         7
100
AcDbLine
 10
126.2168634618
 20
141.4496699693
 30
0.0
 11
96.3718634618
 21
141.4496699693
 31
0.0
  0
LINE
  5
60
100
AcDbEntity
  8
0
  6
CONTINUOUS
 62
         7
100
AcDbLine
 10
96.3718634618
 20
141.4496699693
 30
0.0
 11
96.3718634618
 21
136.1156699693
 31
0.0
  0
LINE
  5
61
100
AcDbEntity
  8
0
  6
CONTINUOUS
 62
         7
100
AcDbLine
 10
96.3718634618
 20
136.1156699693
 30
0.0
 11
126.2168634618
 21
136.1156699693
 31
0.0
  0
LINE
  5
62
100
AcDbEntity
  8
0
  6
CONTINUOUS
 62
         7
100
AcDbLine
 10
217.1806134618
 20
108.7051699693
 30
0.0
 11
217.1806134618
 21
153.7051699693
 31
0.0
  0
LINE
  5
63
100
AcDbEntity
  8
0
  6
CONTINUOUS
 62
         7
100
AcDbLine
 10
217.1806134618
 20
153.7051699693
 30
0.0
 11
157.1806134618
 21
153.7051699693
 31
0.0
  0
LINE
  5
64
100
AcDbEntity
  8
0
  6
CONTINUOUS
 62
         7
100
AcDbLine
 10
157.1806134618
 20
153.7051699693
 30
0.0
 11
157.1806134618
 21
108.7051699693
 31
0.0
  0
LINE
  5
65
100
AcDbEntity
  8
0
  6
CONTINUOUS
 62
         7
100
AcDbLine
 10
157.1806134618
 20
108.7051699693
 30
0.0
 11
217.1806134618
 21
108.7051699693
 31
0.0
  0
CIRCLE
  5
66
100
AcDbEntity
  8
0
  6
CONTINUOUS
 62
         7
100
AcDbCircle
 10
146.1806134618
 20
105.4551699693
 30
0.0
 40
0.86995
  0
LINE
  5
67
100
AcDbEntity
  8
0
  6
CONTINUOUS
 62
         7
100
AcDbLine
 10
234.6431134618
 20
144.1051699693
 30
0.0
 11
234.6431134618
 21
153.7051699693
 31
0.0
  0
LINE
  5
68
100
AcDbEntity
  8
0
  6
CONTINUOUS
 62
         7
100
AcDbLine
 10
234.6431134618
 20
153.7051699693
 30
0.0
 11
228.1931134618
 21
153.7051699693
 31
0.0
  0
LINE
  5
69
100
AcDbEntity
  8
0
  6
CONTINUOUS
 62
         7
100
AcDbLine
 10
228.1931134618
 20
153.7051699693
 30
0.0
 11
228.1931134618
 21
144.1051699693
 31
0.0
  0
LINE
  5
6A
100
AcDbEntity
  8
0
  6
CONTINUOUS
 62
         7
100
AcDbLine
 10
228.1931134618
 20
144.1051699693
 30
0.0
 11
234.6431134618
 21
144.1051699693
 31
0.0
  0
CIRCLE
  5
6B
100
AcDbEntity
  8
0
  6
CONTINUOUS
 62
         7
100
AcDbCircle
 10
42.5556134618
 20
115.6051699693
 30
0.0
 40
0.86995
  0
CIRCLE
  5
6C
100
AcDbEntity
  8
0
  6
CONTINUOUS
 62
         7
100
AcDbCircle
 10
131.4556134618
 20
153.7051699693
 30
0.0
 40
0.86995
  0
CIRCLE
  5
6D
100
AcDbEntity
  8
0
  6
CONTINUOUS
 62
         7
100
AcDbCircle
 10
131.4556134618
 20
115.6051699693
 30
0.0
 40
0.86995
  0
CIRCLE
  5
6E
100
AcDbEntity
  8
0
  6
CONTINUOUS
 62
         7
100
AcDbCircle
 10
146.1806134618
 20
155.9551699693
 30
0.0
 40
0.86995
  0
CIRCLE
  5
6F
100
AcDbEntity
  8
0
  6
CONTINUOUS
 62
         7
100
AcDbCircle
 10
222.1806134618
 20
105.4551699693
 30
0.0
 40
0.86995
  0
CIRCLE
  5
70
100
AcDbEntity
  8
0
  6
CONTINUOUS
 62
         7
100
AcDbCircle
 10
222.1806134618
 20
155.9551699693
 30
0.0
 40
0.86995
  0
LINE
  5
71
100
AcDbEntity
  8
0
  6
CONTINUOUS
 62
         7
100
AcDbLine
 10
87.8946134618
 20
103.7941699693
 30
0.0
 11
87.8946134618
 21
110.1441699693
 31
0.0
  0
LINE
  5
72
100
AcDbEntity
  8
0
  6
CONTINUOUS
 62
         7
100
AcDbLine
 10
87.8946134618
 20
110.1441699693
 30
0.0
 11
81.2906134618
 21
110.1441699693
 31
0.0
  0
LINE
  5
73
100
AcDbEntity
  8
0
  6
CONTINUOUS
 62
         7
100
AcDbLine
 10
81.2906134618
 20
110.1441699693
 30
0.0
 11
81.2906134618
 21
103.7941699693
 31
0.0
  0
LINE
  5
74
100
AcDbEntity
  8
0
  6
CONTINUOUS
 62
         7
100
AcDbLine
 10
81.2906134618
 20
103.7941699693
 30
0.0
 11
87.8946134618
 21
103.7941699693
 31
0.0
  0
LINE
  5
75
100
AcDbEntity
  8
0
  6
CONTINUOUS
 62
         7
100
AcDbLine
 10
102.7536134618
 20
103.7941699693
 30
0.0
 11
102.7536134618
 21
108.7471699693
 31
0.0
  0
LINE
  5
76
100
AcDbEntity
  8
0
  6
CONTINUOUS
 62
         7
100
AcDbLine
 10
102.7536134618
 20
108.7471699693
 30
0.0
 11
92.0856134618
 21
108.7471699693
 31
0.0
  0
LINE
  5
77
100
AcDbEntity
  8
0
  6
CONTINUOUS
 62
         7
100
AcDbLine
 10
92.0856134618
 20
108.7471699693
 30
0.0
 11
92.0856134618
 21
103.7941699693
 31
0.0
  0
LINE
  5
78
100
AcDbEntity
  8
0
  6
CONTINUOUS
 62
         7
100
AcDbLine
 10
92.0856134618
 20
103.7941699693
 30
0.0
 11
102.7536134618
 21
103.7941699693
 31
0.0
  0
LINE
  5
79
100
AcDbEntity
  8
0
  6
CONTINUOUS
 62
         7
100
AcDbLine
 10
135.2656134618
 20
104.5561699693
 30
0.0
 11
135.2656134618
 21
108.3661699693
 31
0.0
  0
LINE
  5
7A
100
AcDbEntity
  8
0
  6
CONTINUOUS
 62
         7
100
AcDbLine
 10
135.2656134618
 20
108.3661699693
 30
0.0
 11
107.3256134618
 21
108.3661699693
 31
0.0
  0
LINE
  5
7B
100
AcDbEntity
  8
0
  6
CONTINUOUS
 62
         7
100
AcDbLine
 10
107.3256134618
 20
108.3661699693
 30
0.0
 11
107.3256134618
 21
104.5561699693
 31
0.0
  0
LINE
  5
7C
100
AcDbEntity
  8
0
  6
CONTINUOUS
 62
         7
100
AcDbLine
 10
107.3256134618
 20
104.5561699693
 30
0.0
 11
135.2656134618
 21
104.5561699693
 31
0.0
  0
LINE
  5
7D
100
AcDbEntity
  8
0
  6
CONTINUOUS
 62
         7
100
AcDbLine
 10
257.9476134618
 20
160.0551699693
 30
0.0
 11
17.6636134618
 21
160.0551699693
 31
0.0
  0
ARC
  5
7E
100
AcDbEntity
  8
0
  6
CONTINUOUS
 62
         7
100
AcDbCircle
 10
257.9476134618
 20
159.5471699693
 30
0.0
 40
0.508
100
AcDbArc
 50
0.0
 51
90.0
  0
LINE
  5
7F
100
AcDbEntity
  8
0
  6
CONTINUOUS
 62
         7
100
AcDbLine
 10
258.4556134618
 20
94.2691699693
 30
0.0
 11
258.4556134618
 21
159.5471699693
 31
0.0
  0
ARC
  5
80
100
AcDbEntity
  8
0
  6
CONTINUOUS
 62
         7
100
AcDbCircle
 10
257.9476134618
 20
94.2691699693
 30
0.0
 40
0.508
100
AcDbArc
 50
270.0
 51
0.0
  0
LINE
  5
81
100
AcDbEntity
  8
0
  6
CONTINUOUS
 62
         7
100
AcDbLine
 10
17.6636134618
 20
93.7611699693
 30
0.0
 11
257.9476134618
 21
93.7611699693
 31
0.0
  0
ARC
  5
82
100
AcDbEntity
  8
0
  6
CONTINUOUS
 62
         7
100
AcDbCircle
 10
17.6636134618
 20
94.2691699693
 30
0.0
 40
0.508
100
AcDbArc
 50
180.0
 51
270.0
  0
LINE
  5
83
100
AcDbEntity
  8
0
  6
CONTINUOUS
 62
         7
100
AcDbLine
 10
17.1556134618
 20
159.5471699693
 30
0.0
 11
17.1556134618
 21
94.2691699693
 31
0.0
  0
ARC
  5
84
100
AcDbEntity
  8
0
  6
CONTINUOUS
 62
         7
100
AcDbCircle
 10
17.6636134618
 20
159.5471699693
 30
0.0
 40
0.508
100
AcDbArc
 50
90.0
 51
180.0
  0
INSERT
  5
8D
100
AcDbEntity
  8
0
100
AcDbBlockReference
  2
SW_CENTERMARK0
 10
0.0
 20
0.0
 30
0.0
  0
INSERT
  5
96
100
AcDbEntity
  8
0
100
AcDbBlockReference
  2
SW_CENTERMARK1
 10
0.0
 20
0.0
 30
0.0
  0
INSERT
  5
9F
100
AcDbEntity
  8
0
100
AcDbBlockReference
  2
SW_CENTERMARK2
 10
0.0
 20
0.0
 30
0.0
  0
INSERT
  5
A8
100
AcDbEntity
  8
0
100
AcDbBlockReference
  2
SW_CENTERMARK3
 10
0.0
 20
0.0
 30
0.0
  0
INSERT
  5
B5
100
AcDbEntity
  8
0
100
AcDbBlockReference
  2
SW_CENTERMARK4
 10
0.0
 20
0.0
 30
0.0
  0
INSERT
  5
C2
100
AcDbEntity
  8
0
100
AcDbBlockReference
  2
SW_CENTERMARK5
 10
0.0
 20
0.0
 30
0.0
  0
INSERT
  5
CF
100
AcDbEntity
  8
0
100
AcDbBlockReference
  2
SW_CENTERMARK6
 10
0.0
 20
0.0
 30
0.0
  0
INSERT
  5
DC
100
AcDbEntity
  8
0
100
AcDbBlockReference
  2
SW_CENTERMARK7
 10
0.0
 20
0.0
 30
0.0
  0
INSERT
  5
E9
100
AcDbEntity
  8
0
100
AcDbBlockReference
  2
SW_CENTERMARK8
 10
0.0
 20
0.0
 30
0.0
  0
INSERT
  5
F2
100
AcDbEntity
  8
0
100
AcDbBlockReference
  2
SW_CENTERMARK9
 10
0.0
 20
0.0
 30
0.0
  0
INSERT
  5
FB
100
AcDbEntity
  8
0
100
AcDbBlockReference
  2
SW_CENTERMARK10
 10
0.0
 20
0.0
 30
0.0
  0
INSERT
  5
104
100
AcDbEntity
  8
0
100
AcDbBlockReference
  2
SW_CENTERMARK11
 10
0.0
 20
0.0
 30
0.0
  0
INSERT
  5
10D
100
AcDbEntity
  8
0
100
AcDbBlockReference
  2
SW_CENTERMARK12
 10
0.0
 20
0.0
 30
0.0
  0
INSERT
  5
116
100
AcDbEntity
  8
0
100
AcDbBlockReference
  2
SW_CENTERMARK13
 10
0.0
 20
0.0
 30
0.0
  0
INSERT
  5
11F
100
AcDbEntity
  8
0
100
AcDbBlockReference
  2
SW_CENTERMARK14
 10
0.0
 20
0.0
 30
0.0
  0
INSERT
  5
128
100
AcDbEntity
  8
0
100
AcDbBlockReference
  2
SW_CENTERMARK15
 10
0.0
 20
0.0
 30
0.0
  0
INSERT
  5
131
100
AcDbEntity
  8
0
100
AcDbBlockReference
  2
SW_CENTERMARK16
 10
0.0
 20
0.0
 30
0.0
  0
INSERT
  5
19E
100
AcDbEntity
  8
0
100
AcDbBlockReference
  2
SW_CENTERMARK17
 10
0.0
 20
0.0
 30
0.0
  0
INSERT
  5
1AB
100
AcDbEntity
  8
0
100
AcDbBlockReference
  2
SW_CENTERMARK18
 10
0.0
 20
0.0
 30
0.0
  0
INSERT
  5
1B8
100
AcDbEntity
  8
0
100
AcDbBlockReference
  2
SW_CENTERMARK19
 10
0.0
 20
0.0
 30
0.0
  0
INSERT
  5
1C5
100
AcDbEntity
  8
0
100
AcDbBlockReference
  2
SW_CENTERMARK20
 10
0.0
 20
0.0
 30
0.0
  0
INSERT
  5
1D2
100
AcDbEntity
  8
0
100
AcDbBlockReference
  2
SW_CENTERMARK21
 10
0.0
 20
0.0
 30
0.0
  0
INSERT
  5
1F3
100
AcDbEntity
  8
0
100
AcDbBlockReference
  2
SW_CENTERMARK22
 10
0.0
 20
0.0
 30
0.0
  0
ENDSEC
  0
SECTION
  2
OBJECTS
  0
DICTIONARY
  5
19
100
AcDbDictionary
  3
ACAD_GROUP
350
1A
  3
ACAD_MLINESTYLE
350
1B
  0
DICTIONARY
  5
1A
102
{ACAD_REACTORS
330
19
102
}
100
AcDbDictionary
  0
DICTIONARY
  5
1B
102
{ACAD_REACTORS
330
19
102
}
100
AcDbDictionary
  3
STANDARD
350
1C
  0
MLINESTYLE
  5
1C
102
{ACAD_REACTORS
330
1B
102
}
100
AcDbMlineStyle
  2
STANDARD
 70
         0
  3

 62
         0
 51
90.0
 52
90.0
 71
         2
 49
0.5
 62
       256
  6
BYLAYER
 49
-0.5
 62
       256
  6
BYLAYER
  0
ENDSEC
  0
EOF
