%
T01C0.118100
X124181Y113539
T02C0.053100
X67969Y43394
X78968Y43394
X89969Y43394
X51218Y81856
X103768Y91306
T03C0.020000
X84264Y12354
X87768Y12394
X112083Y9322
X122964Y29795
X124382Y30583
X124421Y33575
X126586Y34047
X126626Y33063
X126586Y32079
X126567Y31074
X128456Y29835
X130464Y29795
X131882Y30583
X131921Y33575
X134086Y34047
X134126Y33063
X134086Y32079
X134067Y31074
X135976Y31803
X136015Y29795
X128535Y33338
X119126Y33063
X119086Y34047
X119067Y31074
X116882Y30583
X116921Y33575
X113535Y33338
X111626Y33063
X111586Y34047
X111567Y31074
X109382Y30583
X109421Y33575
X107964Y29795
X113456Y29835
X115464Y29795
X120956Y29835
X104124Y31055
X104182Y33044
X104143Y34028
X106035Y33338
X101978Y33556
X101938Y32532
X100464Y29795
X98456Y29835
X96567Y31074
X96586Y32079
X96626Y33063
X96586Y34047
X94421Y33575
X94382Y32551
X92964Y29795
X98535Y33338
X89126Y33063
X89086Y34047
X89067Y31074
X86882Y30583
X86921Y33575
X83535Y33338
X81626Y33063
X81586Y34047
X81567Y31074
X79382Y30583
X79421Y33575
X83456Y29835
X85464Y29795
X90956Y29835
X87118Y21803
X83575Y21409
X70976Y20425
X71882Y30583
X71921Y33575
X74086Y34047
X74126Y33063
X74086Y32079
X74067Y31074
X67748Y30268
X66604Y31016
X66663Y33004
X66623Y33989
X68516Y33457
X64458Y33516
X64419Y32493
X61016Y33457
X59126Y33063
X59086Y34047
X59067Y31074
X56882Y30583
X56921Y33575
X53516Y33457
X51626Y33063
X51586Y34047
X51567Y31074
X49382Y30583
X49421Y33575
X46016Y33457
X44067Y31074
X44086Y32079
X44126Y33063
X44086Y34047
X41921Y33575
X41882Y32551
X36567Y31074
X36586Y32079
X36626Y33063
X36586Y34047
X38516Y33457
X34421Y33575
X34382Y32551
X29067Y31074
X29086Y32079
X29126Y33063
X29086Y34047
X31016Y33457
X26921Y33575
X26882Y32551
X23496Y29795
X21567Y31074
X21586Y32079
X21626Y33063
X21586Y34047
X19421Y33575
X19382Y32551
X17984Y29756
X17157Y34205
X19436Y34574
X21607Y36074
X26936Y34574
X29107Y36074
X34436Y34574
X36607Y36074
X41936Y34574
X44107Y36074
X45071Y43496
X47777Y44115
X49436Y34574
X51607Y36074
X56936Y34574
X59107Y36074
X59126Y44716
X59165Y45622
X57791Y46295
X57039Y46331
X56882Y47079
X56277Y47054
X57397Y46925
X55504Y45897
X53338Y45976
X53929Y42748
X64022Y43783
X67014Y43783
X61094Y46212
X75008Y43823
X74107Y36074
X71936Y34574
X66644Y36016
X66627Y35016
X64473Y34516
X63023Y37039
X79436Y34574
X81607Y36074
X86936Y34574
X89107Y36074
X78008Y43839
X94436Y34574
X96607Y36074
X101993Y34555
X104146Y35055
X104163Y36055
X109436Y34574
X111607Y36074
X116936Y34574
X119107Y36074
X124436Y34574
X126607Y36074
X131936Y34574
X134107Y36074
X35932Y77632
X35832Y72132
X31049Y72651
X30577Y78773
X34931Y76769
X34968Y78431
X34831Y71268
X34868Y72931
X28701Y81951
X34831Y92331
X33168Y92369
X33969Y93332
X31291Y93741
X22135Y95165
X20535Y95135
X33649Y88511
X34751Y88489
X17335Y95165
X18935Y95135
X12335Y80535
X10832Y77169
X10832Y78732
X79634Y73039
X77862Y77173
X77764Y77961
X76484Y78551
X77665Y80323
X78846Y79929
X77567Y82783
X77764Y84161
X79043Y85835
X78059Y87016
X73925Y82685
X74122Y80323
X38961Y65738
X42232Y81799
X43246Y83731
X40529Y80194
X45939Y84626
X41146Y90661
X39276Y92531
X98049Y86268
X96783Y86697
X96833Y87976
X96783Y88715
X98457Y89059
X94667Y85565
X96144Y85663
X97423Y84728
X97965Y83793
X94694Y83378
X93782Y84728
X93634Y78183
X95294Y75883
X97106Y75942
X98211Y78528
X96685Y79512
X96439Y80939
X97374Y80988
X97965Y81382
X96685Y74049
X95701Y70752
X93043Y69915
X95674Y68265
X100622Y76461
X103378Y77248
X104953Y76854
X104362Y75378
X98838Y60732
X98309Y58744
X100032Y58941
X102443Y58892
X104165Y58055
T04C0.010000
X55622Y18063
X57197Y18358
X64283Y12354
X64874Y12453
X72157Y12945
X72551Y13732
X75307Y14126
X74913Y16882
X73732Y15701
X72945Y16094
X71961Y16291
X71635Y16125
X71491Y15875
X72079Y14717
X73339Y14126
X73339Y12551
X73339Y10583
X75307Y11764
X72551Y10189
X72512Y9756
X73732Y9697
X75504Y9303
X75307Y7728
X75406Y7335
X74913Y18063
X72551Y18063
X72945Y17276
X73339Y16882
X73339Y16488
X71665Y17571
X76094Y18063
X76488Y18063
X76094Y17276
X77669Y16094
X79638Y17276
X80819Y16094
X81213Y16882
X80819Y18063
X83625Y17375
X82591Y15406
X82492Y14717
X81606Y14126
X80425Y13732
X79638Y13339
X79244Y13339
X76882Y13732
X80819Y11764
X81606Y12157
X81606Y12551
X82492Y12157
X82984Y12748
X81213Y12945
X80032Y12551
X79638Y11764
X80032Y10583
X81606Y10976
X82945Y7984
X83535Y8024
X85425Y8142
X85583Y7906
X86094Y7984
X86724Y8023
X87236Y8024
X87039Y6725
X86724Y6685
X86409Y6685
X86094Y6724
X85779Y6725
X85543Y6567
X85268Y6724
X84913Y6764
X84283Y6803
X82669Y6961
X82699Y5888
X83929Y4913
X84638Y4795
X84992Y4874
X85268Y4677
X85464Y4914
X85779Y4717
X86094Y4665
X86173Y4913
X86409Y4638
X86724Y4795
X87039Y4795
X87669Y5465
X87197Y6094
X86567Y6134
X86173Y6264
X85858Y6252
X85622Y6094
X85268Y6213
X84834Y6094
X86055Y6016
X84795Y7906
X85642Y10878
X79244Y10583
X79244Y10189
X79244Y9461
X78654Y9598
X77866Y9402
X77472Y9697
X77079Y9697
X76488Y10189
X76882Y10583
X76882Y10976
X76094Y11764
X76488Y12551
X76488Y11764
X78457Y12157
X78457Y13339
X77276Y13339
X77669Y10583
X78457Y10189
X76783Y8516
X76291Y8122
X78358Y4087
X78457Y6547
X79638Y7728
X80425Y14913
X78457Y16488
X77276Y17669
X77276Y18063
X77669Y18063
X78063Y18063
X78457Y18457
X79638Y18457
X78063Y16488
X116449Y25248
X116881Y26074
X85937Y27315
X85228Y27472
X84874Y27591
X84244Y28063
X83181Y28299
X81606Y21409
X81606Y19244
X80819Y19638
X80032Y19244
X79638Y19638
X78457Y19244
X77276Y19638
X77079Y20228
X77276Y20474
X77669Y20581
X75898Y20622
X76094Y19244
X73732Y19638
X73339Y19244
X72945Y19244
X72551Y19638
X72118Y19677
X73142Y20661
X73339Y20898
X73634Y20917
X68732Y20504
X73299Y28496
X73535Y28732
X73732Y28929
X73929Y29126
X74087Y29362
X74283Y29598
X74402Y29992
X51587Y29579
X52965Y26331
X54146Y24264
X51094Y22295
X46468Y41587
X47157Y40898
X51764Y43102
X54146Y40602
X54441Y40799
X55622Y39913
X56016Y39028
X52965Y38835
X54756Y45268
X56409Y45543
X56094Y44008
X74709Y36574
X74126Y37157
X86959Y42359
X86065Y42065
X96862Y38339
X100799Y38634
X106488Y40701
X77469Y73827
X76764Y73361
X71661Y74319
X72236Y75122
X74663Y75106
X74992Y75122
X75303Y74959
X75583Y75122
X77469Y75008
X75205Y76337
X75451Y76681
X75402Y77075
X75008Y78108
X73236Y83177
X69299Y83177
X67921Y86425
X67528Y86524
X66445Y85638
X66405Y87701
X67528Y87606
X66937Y81406
X66346Y81209
X66839Y76632
X67035Y76337
X67528Y76632
X67478Y77124
X68069Y77616
X68173Y75139
X69594Y75008
X68764Y73361
X71563Y87606
X73343Y87997
X74202Y86744
X73097Y86865
X75394Y86432
X71277Y88489
X71071Y88689
X71129Y88981
X72015Y89375
X72866Y90147
X73147Y90211
X73934Y90457
X71178Y90359
X69259Y88735
X68964Y88833
X68619Y90064
X64994Y89391
X63797Y89129
X63748Y88833
X63797Y88538
X61828Y88489
X61828Y89276
X62902Y89378
X59104Y88057
X57934Y90457
X57147Y90211
X56866Y90147
X56015Y89375
X55129Y88981
X55031Y88686
X55277Y88489
X53259Y88735
X52964Y88833
X52619Y90064
X55178Y90359
X65657Y88542
X65568Y87455
X64322Y87409
X64141Y87652
X65362Y85835
X64772Y84752
X65067Y84654
X64968Y83768
X64966Y82589
X64181Y82587
X63787Y82193
X63787Y80618
X61423Y79046
X60638Y79043
X61032Y80618
X61032Y81012
X63394Y82587
X62604Y82589
X61032Y83374
X61816Y83771
X61718Y84263
X63787Y84654
X64179Y83377
X65362Y83768
X65756Y84161
X65754Y82983
X65854Y81996
X65362Y81012
X64968Y80618
X64968Y79437
X63787Y79831
X64968Y78256
X65756Y77862
X64575Y78256
X61816Y78652
X61032Y79437
X59358Y80028
X59848Y78258
X59454Y77865
X58669Y78059
X57879Y77077
X57682Y76782
X58008Y75139
X57682Y74912
X57417Y75139
X55469Y75551
X55551Y74449
X56236Y73335
X61622Y73827
X60764Y75139
X64236Y75139
X63591Y74417
X63591Y77835
X61622Y77665
X61032Y81799
X59358Y81996
X58667Y81113
X57291Y81996
X56896Y81994
X56602Y82094
X56209Y82193
X55913Y81996
X55104Y81876
X54851Y82094
X54593Y81955
X54142Y81996
X53514Y81565
X53748Y83965
X54339Y83571
X55028Y83472
X54848Y84636
X55421Y84654
X55872Y84596
X56307Y84654
X56406Y83472
X59457Y83768
X59749Y84656
X61032Y82587
X60992Y86865
X60441Y86819
X59872Y87978
X58082Y87997
X57097Y86865
X58202Y86744
X61976Y87751
X65854Y80028
X51878Y79732
X50992Y75165
X53453Y74811
X52764Y73335
X50606Y85581
X50602Y86324
X41356Y73294
X44496Y73138
X46238Y73955
X44201Y78157
X42951Y79467
X42117Y80208
X41448Y80221
X41839Y78256
X41445Y76976
X42695Y74585
X48236Y75165
X49831Y75008
X50205Y75112
X49906Y76191
X49513Y76487
X49611Y76979
X49316Y77471
X50402Y77764
X47564Y77649
X46465Y79043
X47154Y80323
X47843Y80618
X47252Y81504
X50257Y86274
X50405Y87701
X49568Y87455
X48728Y87409
X48141Y87652
X45976Y87751
X44992Y86865
X42604Y86796
X43372Y87902
X43884Y87971
X49277Y85631
X48236Y73335
X48827Y73335
X49614Y88492
X48994Y89391
X47797Y89129
X47748Y88833
X47797Y88538
X46957Y89378
X45828Y89276
X45828Y88489
X43515Y90211
X42604Y90284
X42974Y89079
X114374Y59799
X113051Y60193
X114472Y61768
X114472Y62161
X114472Y62555
X114965Y63736
X115555Y64917
X114374Y65311
X111476Y64721
X111575Y65114
X111378Y64327
X111279Y63933
X111181Y63539
X111575Y63146
X111083Y62752
X110984Y62358
X110886Y61965
X110787Y61571
X110689Y61177
X110591Y60783
X111575Y59996
X112953Y59406
X105543Y73114
X105346Y76067
X105839Y77839
X105346Y78429
X105839Y79807
X105346Y81185
X105919Y86628
X105857Y87084
X104261Y87487
X103772Y87091
X103214Y88107
X104552Y88363
X101311Y92504
X99974Y88362
X102082Y86828
X103187Y85804
X103181Y85293
X103575Y86008
X102661Y84701
X102394Y83843
X99974Y84966
X100327Y85909
X102295Y82957
X101606Y82071
X102197Y81185
X102984Y80791
X102591Y76854
X103378Y75673
X104559Y76067
X104165Y76854
X103772Y77642
X101409Y76854
X101016Y77248
X100622Y76854
X100228Y76461
X99343Y77839
X99343Y79807
X100228Y79217
X100622Y80791
X100228Y81185
X99835Y81579
X99343Y81579
X103772Y81185
X104165Y80791
X104559Y80791
X104953Y80791
X104165Y80398
X104953Y77248
X104559Y72917
X104067Y72524
X104215Y70801
X103968Y69866
X101016Y71736
X101114Y70358
X100857Y68488
X99244Y70654
X100816Y73308
X102295Y75083
X101803Y75575
X101345Y67175
X98825Y63837
X101345Y63828
X101705Y63961
X102098Y63862
T05C0.025000
X5268Y10839
X5228Y16783
X5799Y18063
X9323Y13732
X10219Y12837
X9323Y11941
X8427Y12837
X13181Y5602
X24913Y5681
X24205Y7955
X24205Y9746
X17955Y7955
X17955Y12955
X17955Y14746
X15219Y12837
X14323Y11941
X13427Y12837
X27551Y16173
X30455Y14746
X30455Y12955
X30455Y9746
X30455Y7955
X77039Y4126
X90563Y10189
X100701Y4776
X105622Y4579
X106803Y4776
X108555Y4598
X109698Y6999
X109854Y8319
X109657Y10189
X108575Y9598
X118811Y10091
X120051Y9559
X119965Y8193
X120082Y7523
X120061Y6183
X118811Y5465
X117039Y4677
X121646Y9323
X124365Y25074
X124323Y28063
X131843Y26567
X134165Y28063
X116803Y24874
X116843Y26567
X119165Y28063
X109316Y26574
X109405Y25074
X101843Y24913
X101882Y26606
X104154Y28074
X96724Y28102
X94409Y26574
X94362Y24717
X87433Y24559
X86843Y26567
X89165Y28063
X81803Y26626
X81688Y25074
X72512Y24598
X71843Y26567
X71567Y28063
X66649Y25074
X59283Y28102
X59205Y25071
X56921Y26567
X51724Y28063
X49369Y26574
X49359Y25074
X44283Y25071
X44205Y28063
X41882Y26606
X36724Y28063
X36721Y25074
X29168Y25074
X29126Y28063
X26843Y26567
X21685Y28063
X21682Y25074
X19362Y26567
X15219Y25337
X14323Y24441
X13427Y25337
X14323Y28535
X15219Y29431
X14323Y30327
X13427Y29431
X9323Y28535
X8427Y29431
X4441Y27118
X5622Y23968
X5228Y22492
X8427Y19087
X9323Y19982
X10219Y19087
X9323Y24441
X8427Y25337
X4461Y34421
X8427Y41931
X9323Y42827
X10219Y41931
X9323Y36577
X8427Y35681
X14323Y41035
X15219Y41931
X14323Y42827
X13427Y41931
X18083Y37905
X16115Y124865
X14747Y126447
X16435Y122935
X27439Y127161
X26455Y129395
X24555Y129395
T06C0.014000
X19935Y129235
X22876Y132274
T07C0.013500
X35762Y64438
X33435Y61785
X33094Y59456
X26123Y62977
X21989Y64311
X22383Y64417
X23761Y64361
X24942Y64342
X26414Y68814
X26408Y69208
X25617Y69995
X26636Y71964
X26629Y74129
X24942Y75042
X22973Y74927
X20217Y74983
X27795Y69405
X27789Y69011
X26565Y75635
X22504Y82604
X22462Y86738
X25735Y90665
X22187Y89387
X22406Y88706
X24195Y89595
X21203Y80403
X24649Y103749
X25751Y104949
X25751Y103749
X15551Y103749
X15551Y105251
X14499Y105149
X8065Y105165
X8065Y101135
X8065Y97435
X8065Y93435
X8026Y87474
X8065Y85435
X7035Y81665
X15804Y82604
X15813Y82013
X17024Y84376
X17057Y85557
X16969Y87131
X17465Y89335
X19065Y88565
X18535Y82465
X17857Y81543
X17461Y75061
X15989Y69011
X15983Y68617
X15964Y67436
X15946Y66846
X15939Y72161
X14256Y77494
X7965Y77365
X8328Y71928
X5769Y71831
X8335Y64365
X10375Y73175
X12152Y66948
X16065Y65465
X16735Y65365
X16674Y64526
X19627Y64373
X7935Y79365
X5769Y63131
X8596Y59454
X9648Y59402
X15835Y63765
X4416Y67716
T08C0.118000
X4481Y5758
T09C0.035400
X11157Y45464
T10C0.015000
X88201Y8516
X90268Y9106
X90563Y12354
T11C0.060000
X6331Y5578
X92108Y4884
X92108Y11084
M30
