G75*
G70*
%OFA0B0*%
%FSLAX24Y24*%
%IPPOS*%
%LPD*%
%AMOC8*
5,1,8,0,0,1.08239X$1,22.5*
%
%ADD110C,0.0780*%
%ADD119C,0.0330*%
%ADD123R,0.0356X0.0434*%
%ADD126C,0.0749*%
%ADD129O,0.0474X0.1163*%
%ADD140C,0.0830*%
%ADD144C,0.1680*%
%ADD15R,0.0474X0.1163*%
%ADD151C,0.0580*%
%ADD156C,0.0513*%
%ADD158R,0.0789X0.0710*%
%ADD163R,0.0474X0.0513*%
%ADD166C,0.0380*%
%ADD197C,0.2200*%
%ADD200R,0.0671X0.0671*%
%ADD203R,0.0434X0.0356*%
%ADD212R,0.0513X0.0474*%
%ADD223R,0.0434X0.1025*%
%ADD231C,0.0710*%
%ADD241C,0.0552*%
%ADD242C,0.0680*%
%ADD26C,0.1480*%
%ADD276R,0.1419X0.0592*%
%ADD277R,0.0867X0.0356*%
%ADD31C,0.1000*%
%ADD42R,0.0710X0.0789*%
%ADD52R,0.0580X0.1529*%
%ADD53C,0.1900*%
%ADD58C,0.0480*%
%ADD61C,0.0880*%
%ADD67C,0.0320*%
%ADD74C,0.0280*%
%ADD75C,0.0430*%
%ADD94C,0.1143*%
%ADD96C,0.0671*%
%ADD98C,0.2350*%
X002000Y002000D02*
G01*
G75*
D163*
X084362Y007256D02*
D03*
X084362Y007925D02*
D03*
X084441Y006193D02*
D03*
X084441Y005524D02*
D03*
X079638Y009461D02*
D03*
X079638Y010130D02*
D03*
X080425Y013043D02*
D03*
X080425Y012374D02*
D03*
X074126Y018594D02*
D03*
X074126Y019264D02*
D03*
X073890Y016783D02*
D03*
X073890Y017453D02*
D03*
X081764Y016862D02*
D03*
X081764Y017532D02*
D03*
X080032Y020366D02*
D03*
X080032Y019697D02*
D03*
D212*
X077335Y018457D02*
D03*
X078004Y018457D02*
D03*
X072610Y009323D02*
D03*
X073280Y009323D02*
D03*
X075799Y004992D02*
D03*
X075130Y004992D02*
D03*
X074028Y014362D02*
D03*
X074697Y014362D02*
D03*
X073831Y014992D02*
D03*
X073161Y014992D02*
D03*
D42*
X011249Y012800D02*
D03*
X012351Y012800D02*
D03*
X006980Y034800D02*
D03*
X008082Y034800D02*
D03*
D158*
X024300Y007251D02*
D03*
X024300Y006149D02*
D03*
D31*
X085000Y021000D02*
D03*
X070000Y009000D02*
D03*
X137000Y009000D02*
D03*
X137000Y043000D02*
D03*
X013000Y018000D02*
D03*
D123*
X087118Y007610D02*
D03*
X087118Y007098D02*
D03*
X072472Y014185D02*
D03*
X072472Y014697D02*
D03*
X073339Y015681D02*
D03*
X073339Y016193D02*
D03*
X072866Y018358D02*
D03*
X072866Y018870D02*
D03*
X075307Y019461D02*
D03*
X075307Y018949D02*
D03*
X072315Y011272D02*
D03*
X072315Y010760D02*
D03*
X081370Y013752D02*
D03*
X081370Y013240D02*
D03*
X075307Y011468D02*
D03*
X075307Y010957D02*
D03*
X078063Y017137D02*
D03*
X078063Y017649D02*
D03*
X079244Y019776D02*
D03*
X079244Y019264D02*
D03*
D200*
X003900Y045900D02*
D03*
X027400Y047000D02*
D03*
X012100Y008700D02*
D03*
D96*
X003900Y046900D02*
D03*
X027400Y046000D02*
D03*
X027400Y045000D02*
D03*
X011100Y008700D02*
D03*
D151*
X044969Y045900D02*
D03*
X041032Y045900D02*
D03*
X019362Y026567D02*
D03*
X021682Y025074D02*
D03*
X026843Y026567D02*
D03*
X021685Y028063D02*
D03*
X029168Y025074D02*
D03*
X034330Y026574D02*
D03*
X029126Y028063D02*
D03*
X036721Y025074D02*
D03*
X041882Y026606D02*
D03*
X036724Y028063D02*
D03*
X044283Y025071D02*
D03*
X049359Y025074D02*
D03*
X044205Y028063D02*
D03*
X049369Y026574D02*
D03*
X051724Y028063D02*
D03*
X059205Y025071D02*
D03*
X056921Y026567D02*
D03*
X064330Y026574D02*
D03*
X066649Y025074D02*
D03*
X071843Y026567D02*
D03*
X059283Y028102D02*
D03*
X066685Y028063D02*
D03*
X071567Y028063D02*
D03*
X072512Y024598D02*
D03*
X081803Y026626D02*
D03*
X087433Y024559D02*
D03*
X081688Y025074D02*
D03*
X081764Y028063D02*
D03*
X086843Y026567D02*
D03*
X094362Y024717D02*
D03*
X094409Y026574D02*
D03*
X089165Y028063D02*
D03*
X096724Y028102D02*
D03*
X101843Y024913D02*
D03*
X101882Y026606D02*
D03*
X104154Y028074D02*
D03*
X109405Y025074D02*
D03*
X109316Y026574D02*
D03*
X111646Y028063D02*
D03*
X116803Y024874D02*
D03*
X116843Y026567D02*
D03*
X119165Y028063D02*
D03*
X124365Y025074D02*
D03*
X124330Y026574D02*
D03*
X124323Y028063D02*
D03*
X134250Y025000D02*
D03*
X131843Y026567D02*
D03*
X134165Y028063D02*
D03*
D98*
X007000Y046000D02*
D03*
X051000Y046000D02*
D03*
X096500Y046000D02*
D03*
X139000Y046000D02*
D03*
X018000Y019500D02*
D03*
X048000Y019500D02*
D03*
X106000Y019500D02*
D03*
X139000Y019500D02*
D03*
D126*
X078968Y043394D02*
D03*
X073917Y043000D02*
D03*
X089969Y043394D02*
D03*
X084917Y043000D02*
D03*
X062917Y043000D02*
D03*
X067969Y043394D02*
D03*
D94*
X125900Y023700D02*
D03*
X125900Y038948D02*
D03*
X118400Y023700D02*
D03*
X118400Y038948D02*
D03*
X110900Y023700D02*
D03*
X110900Y038948D02*
D03*
X133400Y023700D02*
D03*
X133400Y038948D02*
D03*
X088400Y023700D02*
D03*
X088400Y038948D02*
D03*
X080900Y023700D02*
D03*
X080900Y038948D02*
D03*
X103400Y023700D02*
D03*
X103400Y038948D02*
D03*
X095900Y023700D02*
D03*
X095900Y038948D02*
D03*
X058400Y023700D02*
D03*
X058400Y038948D02*
D03*
X050900Y023700D02*
D03*
X050900Y038948D02*
D03*
X073400Y023700D02*
D03*
X073400Y038948D02*
D03*
X065900Y023700D02*
D03*
X065900Y038948D02*
D03*
X028400Y023700D02*
D03*
X028400Y038948D02*
D03*
X020900Y023700D02*
D03*
X020900Y038948D02*
D03*
X043400Y023700D02*
D03*
X043400Y038948D02*
D03*
X035900Y023700D02*
D03*
X035900Y038948D02*
D03*
D61*
X092108Y004884D02*
D03*
X094608Y004884D02*
D03*
X095858Y004884D02*
D03*
X095858Y011134D02*
D03*
X092108Y011084D02*
D03*
X007900Y004800D02*
D03*
X006250Y004800D02*
D03*
X007900Y006970D02*
D03*
X006250Y006970D02*
D03*
X026705Y008850D02*
D03*
X025455Y008850D02*
D03*
X024205Y008850D02*
D03*
X017955Y008850D02*
D03*
X017955Y013850D02*
D03*
X024205Y013850D02*
D03*
X025455Y013850D02*
D03*
X026705Y013850D02*
D03*
X030455Y013850D02*
D03*
X030455Y008850D02*
D03*
X009323Y012837D02*
D03*
X014323Y012837D02*
D03*
X014323Y016587D02*
D03*
X014323Y017837D02*
D03*
X014323Y019087D02*
D03*
X014323Y025337D02*
D03*
X009323Y025337D02*
D03*
X009323Y019087D02*
D03*
X009323Y017837D02*
D03*
X009323Y016587D02*
D03*
X009323Y033181D02*
D03*
X009323Y034431D02*
D03*
X009323Y035681D02*
D03*
X009323Y041931D02*
D03*
X014323Y041931D02*
D03*
X014323Y035681D02*
D03*
X014323Y034431D02*
D03*
X014323Y033181D02*
D03*
X014323Y029431D02*
D03*
X009323Y029431D02*
D03*
D53*
X004400Y006790D02*
D03*
X009750Y006790D02*
D03*
D242*
X066750Y009800D02*
D03*
X066750Y008800D02*
D03*
X065750Y009800D02*
D03*
X064750Y009800D02*
D03*
X063750Y009800D02*
D03*
X062750Y009800D02*
D03*
X061750Y009800D02*
D03*
X060750Y009800D02*
D03*
X059750Y009800D02*
D03*
X058750Y009800D02*
D03*
X057750Y009800D02*
D03*
X056750Y009800D02*
D03*
X055750Y009800D02*
D03*
X054750Y009800D02*
D03*
X053750Y009800D02*
D03*
X052750Y009800D02*
D03*
X051750Y009800D02*
D03*
X050750Y009800D02*
D03*
X049750Y009800D02*
D03*
X048750Y009800D02*
D03*
X047750Y009800D02*
D03*
X046750Y009800D02*
D03*
X045750Y009800D02*
D03*
X044750Y009800D02*
D03*
X043750Y009800D02*
D03*
X042750Y009800D02*
D03*
X041750Y009800D02*
D03*
X040750Y009800D02*
D03*
X039750Y009800D02*
D03*
X065750Y008800D02*
D03*
X064750Y008800D02*
D03*
X063750Y008800D02*
D03*
X062750Y008800D02*
D03*
X061750Y008800D02*
D03*
X060750Y008800D02*
D03*
X059750Y008800D02*
D03*
X058750Y008800D02*
D03*
X057750Y008800D02*
D03*
X056750Y008800D02*
D03*
X055750Y008800D02*
D03*
X054750Y008800D02*
D03*
X053750Y008800D02*
D03*
X052750Y008800D02*
D03*
X051750Y008800D02*
D03*
X050750Y008800D02*
D03*
X049750Y008800D02*
D03*
X048750Y008800D02*
D03*
X047750Y008800D02*
D03*
X046750Y008800D02*
D03*
X045750Y008800D02*
D03*
X044750Y008800D02*
D03*
X043750Y008800D02*
D03*
X042750Y008800D02*
D03*
X041750Y008800D02*
D03*
X040750Y008800D02*
D03*
X039750Y008800D02*
D03*
X016800Y046800D02*
D03*
X015800Y046800D02*
D03*
X014800Y046800D02*
D03*
X010700Y046800D02*
D03*
X011700Y046800D02*
D03*
X012700Y046800D02*
D03*
D74*
X014382Y009894D02*
D03*
X058772Y044146D02*
D03*
X042532Y044047D02*
D03*
X058476Y044539D02*
D03*
X040661Y044146D02*
D03*
X045681Y045917D02*
D03*
X044303Y045917D02*
D03*
X043780Y045949D02*
D03*
X042992Y045949D02*
D03*
X042205Y045949D02*
D03*
X041646Y045917D02*
D03*
X040366Y045917D02*
D03*
X044399Y043065D02*
D03*
X043780Y044276D02*
D03*
X042138Y044146D02*
D03*
X041154Y044146D02*
D03*
X040700Y042237D02*
D03*
X041700Y041532D02*
D03*
X014265Y011094D02*
D03*
X058870Y046606D02*
D03*
X077669Y017669D02*
D03*
X053850Y042079D02*
D03*
X057343Y046457D02*
D03*
X056606Y042866D02*
D03*
X057000Y042571D02*
D03*
X057619Y046143D02*
D03*
X057591Y045425D02*
D03*
X057787Y042669D02*
D03*
X054441Y038831D02*
D03*
X057000Y040209D02*
D03*
X054244Y044835D02*
D03*
X057394Y044244D02*
D03*
X057689Y044244D02*
D03*
X056114Y044146D02*
D03*
X055720Y045524D02*
D03*
X056125Y045828D02*
D03*
X033476Y047984D02*
D03*
X056128Y046691D02*
D03*
X032492Y048181D02*
D03*
X031508Y048083D02*
D03*
X055813Y047006D02*
D03*
X034500Y048122D02*
D03*
X035500Y048039D02*
D03*
X053950Y047885D02*
D03*
X037020Y048083D02*
D03*
X053842Y047402D02*
D03*
X038496Y047098D02*
D03*
X053665Y047087D02*
D03*
X054146Y024264D02*
D03*
X076882Y012157D02*
D03*
X076488Y012157D02*
D03*
X076488Y011764D02*
D03*
X076094Y011764D02*
D03*
X082492Y012157D02*
D03*
X082699Y005888D02*
D03*
X085642Y010878D02*
D03*
X076291Y004972D02*
D03*
X075110Y005366D02*
D03*
X082984Y012748D02*
D03*
X079244Y009461D02*
D03*
X079244Y010189D02*
D03*
X081606Y012157D02*
D03*
X082000Y012551D02*
D03*
X078850Y012551D02*
D03*
X078457Y012551D02*
D03*
X080032Y011370D02*
D03*
X080425Y011370D02*
D03*
X080819Y011370D02*
D03*
X080032Y012157D02*
D03*
X081606Y012551D02*
D03*
X078358Y004087D02*
D03*
X079480Y004047D02*
D03*
X078457Y006547D02*
D03*
X079441Y006350D02*
D03*
X080032Y010583D02*
D03*
X079638Y007728D02*
D03*
X078654Y009598D02*
D03*
X078260Y009598D02*
D03*
X077866Y009402D02*
D03*
X076783Y008516D02*
D03*
X075307Y007728D02*
D03*
X075406Y007335D02*
D03*
X076291Y008122D02*
D03*
X075701Y011370D02*
D03*
X064874Y012453D02*
D03*
X074520Y011370D02*
D03*
X074126Y011370D02*
D03*
X073732Y011370D02*
D03*
X073339Y011370D02*
D03*
X075110Y008811D02*
D03*
X075504Y009303D02*
D03*
X074913Y010976D02*
D03*
X074520Y010583D02*
D03*
X074520Y010976D02*
D03*
X074126Y010976D02*
D03*
X074126Y010583D02*
D03*
X073732Y010583D02*
D03*
X073339Y010583D02*
D03*
X073732Y010976D02*
D03*
X073339Y010976D02*
D03*
X072945Y010976D02*
D03*
X073339Y011764D02*
D03*
X072945Y011764D02*
D03*
X073339Y012157D02*
D03*
X072945Y012157D02*
D03*
X073339Y012551D02*
D03*
X072945Y012551D02*
D03*
X073732Y018850D02*
D03*
X080130Y020819D02*
D03*
X082492Y014717D02*
D03*
X078063Y019244D02*
D03*
X073732Y009697D02*
D03*
X080425Y018457D02*
D03*
X077276Y016488D02*
D03*
X082492Y015110D02*
D03*
X077669Y017276D02*
D03*
X076094Y009697D02*
D03*
X072059Y015110D02*
D03*
X072551Y016094D02*
D03*
X071491Y015875D02*
D03*
X072945Y015701D02*
D03*
X071635Y016125D02*
D03*
X072945Y016094D02*
D03*
X079244Y017669D02*
D03*
X073732Y013339D02*
D03*
X073339Y016488D02*
D03*
X074913Y019244D02*
D03*
X078457Y012945D02*
D03*
X078850Y012945D02*
D03*
X074520Y014913D02*
D03*
X074520Y015701D02*
D03*
X080425Y016488D02*
D03*
X080425Y014913D02*
D03*
X080425Y013732D02*
D03*
X080032Y012551D02*
D03*
X074520Y013339D02*
D03*
X075307Y016094D02*
D03*
X075701Y016094D02*
D03*
X075701Y016488D02*
D03*
X077276Y013339D02*
D03*
X078457Y014126D02*
D03*
X078457Y014520D02*
D03*
X078063Y014520D02*
D03*
X078063Y015307D02*
D03*
X078457Y015307D02*
D03*
X078850Y015701D02*
D03*
X078457Y015701D02*
D03*
X078457Y016488D02*
D03*
X078063Y016094D02*
D03*
X078063Y016488D02*
D03*
X077669Y016488D02*
D03*
X077669Y016094D02*
D03*
X077669Y015701D02*
D03*
X075701Y015307D02*
D03*
X076094Y015307D02*
D03*
X076882Y016882D02*
D03*
X076882Y016488D02*
D03*
X076488Y016488D02*
D03*
X076094Y016488D02*
D03*
X076488Y016094D02*
D03*
X076882Y016094D02*
D03*
X076882Y015701D02*
D03*
X075701Y015701D02*
D03*
X076094Y015701D02*
D03*
X076488Y015307D02*
D03*
X076882Y013339D02*
D03*
X076488Y013339D02*
D03*
X076094Y013339D02*
D03*
X075701Y013339D02*
D03*
X075701Y014126D02*
D03*
X076094Y014126D02*
D03*
X075701Y014520D02*
D03*
X076094Y014520D02*
D03*
X076488Y014520D02*
D03*
X076882Y013732D02*
D03*
X076488Y013732D02*
D03*
X077669Y013732D02*
D03*
X077669Y014126D02*
D03*
X076882Y014126D02*
D03*
X076882Y014520D02*
D03*
X076882Y015307D02*
D03*
X077669Y015307D02*
D03*
X077669Y014520D02*
D03*
X051587Y029579D02*
D03*
X051094Y022295D02*
D03*
X064283Y012354D02*
D03*
X052965Y026331D02*
D03*
X076882Y012551D02*
D03*
X076882Y012945D02*
D03*
X076488Y012551D02*
D03*
X081213Y016094D02*
D03*
X056803Y038240D02*
D03*
X058280Y017866D02*
D03*
X055622Y018063D02*
D03*
X057197Y018358D02*
D03*
X076094Y018063D02*
D03*
X076094Y018850D02*
D03*
X076488Y018850D02*
D03*
X076488Y018457D02*
D03*
X074520Y018063D02*
D03*
X077669Y016882D02*
D03*
X078457Y018457D02*
D03*
X076488Y017669D02*
D03*
X077276Y018063D02*
D03*
X072551Y011764D02*
D03*
X077276Y017669D02*
D03*
X073634Y020917D02*
D03*
X076882Y017669D02*
D03*
X076488Y018063D02*
D03*
X072059Y013240D02*
D03*
X072551Y013339D02*
D03*
X072157Y012945D02*
D03*
X072945Y013339D02*
D03*
X073339Y013339D02*
D03*
X075307Y011764D02*
D03*
X075701Y010583D02*
D03*
X074126Y011764D02*
D03*
X082000Y009795D02*
D03*
X077079Y009697D02*
D03*
X077472Y009697D02*
D03*
X078063Y010583D02*
D03*
X076488Y010189D02*
D03*
X100799Y038634D02*
D03*
X078457Y010189D02*
D03*
X096862Y038339D02*
D03*
X076882Y018063D02*
D03*
X078063Y018063D02*
D03*
X079244Y018850D02*
D03*
X079638Y019638D02*
D03*
X080819Y019638D02*
D03*
X079638Y018457D02*
D03*
X082000Y018063D02*
D03*
X080819Y018063D02*
D03*
X081606Y014126D02*
D03*
X082000Y015701D02*
D03*
X080819Y016094D02*
D03*
X080819Y014126D02*
D03*
X075701Y012551D02*
D03*
X076094Y012551D02*
D03*
X075307Y010189D02*
D03*
X073732Y011764D02*
D03*
X075307Y012551D02*
D03*
X074913Y012945D02*
D03*
X074913Y012551D02*
D03*
X075307Y015701D02*
D03*
X075307Y015307D02*
D03*
X075307Y014520D02*
D03*
X075307Y014126D02*
D03*
X075307Y013732D02*
D03*
X075307Y013339D02*
D03*
X074913Y013339D02*
D03*
X076094Y012945D02*
D03*
X075701Y012945D02*
D03*
X075701Y013732D02*
D03*
X076094Y013732D02*
D03*
X076094Y016094D02*
D03*
X076488Y015701D02*
D03*
X076488Y014126D02*
D03*
X078063Y014126D02*
D03*
X078063Y015701D02*
D03*
X078457Y016094D02*
D03*
X078457Y016882D02*
D03*
X078850Y016882D02*
D03*
X078850Y016488D02*
D03*
X079244Y016488D02*
D03*
X079638Y016882D02*
D03*
X079638Y016488D02*
D03*
X079244Y016094D02*
D03*
X078850Y016094D02*
D03*
X079244Y015307D02*
D03*
X078850Y015307D02*
D03*
X079244Y014913D02*
D03*
X078850Y014913D02*
D03*
X079244Y014520D02*
D03*
X078850Y014520D02*
D03*
X078850Y014126D02*
D03*
X079244Y014126D02*
D03*
X078063Y013732D02*
D03*
X078063Y013339D02*
D03*
X078457Y013339D02*
D03*
X078457Y013732D02*
D03*
X078850Y013732D02*
D03*
X079244Y013732D02*
D03*
X079638Y013339D02*
D03*
X078850Y013339D02*
D03*
X075307Y016488D02*
D03*
X076488Y016882D02*
D03*
X076094Y016882D02*
D03*
X075701Y016882D02*
D03*
X074913Y016488D02*
D03*
X074913Y016882D02*
D03*
X075307Y017276D02*
D03*
X075701Y017276D02*
D03*
X076094Y017276D02*
D03*
X078457Y017276D02*
D03*
X078850Y017276D02*
D03*
X079244Y017276D02*
D03*
X079638Y017276D02*
D03*
X074913Y018457D02*
D03*
X076882Y018457D02*
D03*
X077276Y018850D02*
D03*
X077669Y018063D02*
D03*
X076094Y019244D02*
D03*
X081606Y021409D02*
D03*
X080032Y019244D02*
D03*
X081606Y021016D02*
D03*
X080425Y019638D02*
D03*
X081952Y020327D02*
D03*
X081606Y020327D02*
D03*
X081606Y019244D02*
D03*
X081606Y018850D02*
D03*
X075898Y020622D02*
D03*
X075701Y019638D02*
D03*
X075701Y020819D02*
D03*
X075701Y019244D02*
D03*
X075701Y018850D02*
D03*
X077079Y020228D02*
D03*
X077276Y019638D02*
D03*
X078457Y018850D02*
D03*
X078457Y019244D02*
D03*
X083181Y028299D02*
D03*
X073732Y019638D02*
D03*
X072551Y018063D02*
D03*
X073732Y018063D02*
D03*
X073732Y015701D02*
D03*
X073732Y013732D02*
D03*
X072551Y013732D02*
D03*
X074126Y037157D02*
D03*
X076882Y011764D02*
D03*
X076094Y012157D02*
D03*
X076882Y011370D02*
D03*
X076882Y010976D02*
D03*
X076488Y010976D02*
D03*
X076094Y010976D02*
D03*
X072079Y014717D02*
D03*
X073339Y013732D02*
D03*
X073339Y014126D02*
D03*
X081606Y010583D02*
D03*
X082000Y010189D02*
D03*
X072512Y009756D02*
D03*
X072551Y010189D02*
D03*
X072157Y010189D02*
D03*
X098378Y040740D02*
D03*
X106488Y040701D02*
D03*
X073299Y028496D02*
D03*
X073535Y028732D02*
D03*
X073732Y028929D02*
D03*
X073929Y029126D02*
D03*
X083890Y028378D02*
D03*
X074087Y029362D02*
D03*
X074283Y029598D02*
D03*
X074402Y029992D02*
D03*
X074709Y036574D02*
D03*
X084244Y028063D02*
D03*
X084559Y027630D02*
D03*
X084874Y027591D02*
D03*
X085228Y027472D02*
D03*
X085583Y027315D02*
D03*
X072551Y016488D02*
D03*
X072945Y016488D02*
D03*
X071961Y016291D02*
D03*
X073339Y016882D02*
D03*
X072945Y017276D02*
D03*
X072551Y020032D02*
D03*
X072551Y019638D02*
D03*
X072118Y019677D02*
D03*
X072945Y019244D02*
D03*
X073339Y019244D02*
D03*
X073339Y020898D02*
D03*
X073339Y018850D02*
D03*
X073142Y020661D02*
D03*
X072000Y016625D02*
D03*
X071370Y017866D02*
D03*
X071665Y017571D02*
D03*
X071875Y013750D02*
D03*
X072000Y013500D02*
D03*
X116449Y025248D02*
D03*
X116881Y026074D02*
D03*
X081213Y016882D02*
D03*
X080819Y016882D02*
D03*
X082000Y020032D02*
D03*
X082000Y019638D02*
D03*
X083625Y017375D02*
D03*
X083500Y017625D02*
D03*
X082000Y015307D02*
D03*
X081606Y015307D02*
D03*
X082886Y015110D02*
D03*
X082591Y015406D02*
D03*
X081213Y012945D02*
D03*
X080425Y011764D02*
D03*
X080425Y018063D02*
D03*
X081213Y019244D02*
D03*
X082506Y019750D02*
D03*
X082362Y020000D02*
D03*
X080819Y018850D02*
D03*
X077669Y020581D02*
D03*
X077276Y020474D02*
D03*
X077669Y011764D02*
D03*
X078063Y011764D02*
D03*
X079638Y011764D02*
D03*
X078063Y012945D02*
D03*
X077669Y013339D02*
D03*
X077669Y012551D02*
D03*
X077276Y012945D02*
D03*
X077669Y012945D02*
D03*
X079244Y013339D02*
D03*
X078850Y010583D02*
D03*
X077669Y010583D02*
D03*
X078457Y010976D02*
D03*
X078063Y010976D02*
D03*
X077669Y010976D02*
D03*
X077669Y011370D02*
D03*
X078457Y012157D02*
D03*
X078063Y012157D02*
D03*
X077669Y012157D02*
D03*
X076882Y010583D02*
D03*
X085937Y027315D02*
D03*
X084834Y006094D02*
D03*
X082669Y006961D02*
D03*
X082945Y007984D02*
D03*
X083535Y008024D02*
D03*
X084795Y007906D02*
D03*
X082276Y010110D02*
D03*
X087630Y007039D02*
D03*
X087039Y006725D02*
D03*
X087630Y007354D02*
D03*
X087630Y007669D02*
D03*
X085268Y006213D02*
D03*
X084992Y004874D02*
D03*
X085268Y004677D02*
D03*
X085464Y004914D02*
D03*
X085622Y006094D02*
D03*
X085858Y006252D02*
D03*
X087039Y004795D02*
D03*
X086567Y006134D02*
D03*
X086055Y006016D02*
D03*
X086173Y006264D02*
D03*
X087197Y006094D02*
D03*
X086882Y006094D02*
D03*
X087630Y005779D02*
D03*
X087669Y005465D02*
D03*
X087669Y005150D02*
D03*
X086724Y004795D02*
D03*
X084638Y004795D02*
D03*
X085779Y004717D02*
D03*
X086094Y004665D02*
D03*
X086409Y004638D02*
D03*
X086173Y004913D02*
D03*
X087236Y008024D02*
D03*
X086724Y006685D02*
D03*
X086724Y008023D02*
D03*
X087000Y008181D02*
D03*
X086409Y006685D02*
D03*
X086094Y006724D02*
D03*
X086094Y007984D02*
D03*
X086409Y008220D02*
D03*
X085779Y008220D02*
D03*
X085779Y006725D02*
D03*
X085543Y006567D02*
D03*
X085149Y008260D02*
D03*
X085425Y008142D02*
D03*
X085583Y007906D02*
D03*
X079244Y010583D02*
D03*
X079244Y010976D02*
D03*
X079638Y010976D02*
D03*
X080032Y010976D02*
D03*
X080425Y010976D02*
D03*
X080425Y010583D02*
D03*
X083693Y006803D02*
D03*
X084283Y006803D02*
D03*
X080819Y010583D02*
D03*
X080819Y010976D02*
D03*
X081213Y010583D02*
D03*
X081213Y010976D02*
D03*
X081606Y010976D02*
D03*
X081213Y011370D02*
D03*
X081606Y011370D02*
D03*
X081213Y011764D02*
D03*
X081213Y012157D02*
D03*
X079638Y011370D02*
D03*
X080819Y012157D02*
D03*
X080819Y011764D02*
D03*
X083929Y004913D02*
D03*
X084598Y006764D02*
D03*
X084913Y006764D02*
D03*
X085268Y006724D02*
D03*
X075307Y016882D02*
D03*
X074913Y018063D02*
D03*
X075307Y018457D02*
D03*
X068732Y020504D02*
D03*
X079244Y012945D02*
D03*
X084250Y008400D02*
D03*
X033500Y043950D02*
D03*
X032500Y044100D02*
D03*
X064500Y042250D02*
D03*
X065000Y042250D02*
D03*
X066000Y042250D02*
D03*
X066500Y042200D02*
D03*
X065000Y048700D02*
D03*
X076000Y041250D02*
D03*
X075500Y042200D02*
D03*
X077000Y042000D02*
D03*
X077500Y042100D02*
D03*
X076100Y048750D02*
D03*
X088000Y041500D02*
D03*
X088500Y042250D02*
D03*
X086065Y042065D02*
D03*
X086959Y042359D02*
D03*
X087050Y048600D02*
D03*
X076150Y044250D02*
D03*
X071173Y042900D02*
D03*
X052965Y038835D02*
D03*
X082550Y038850D02*
D03*
X084362Y004972D02*
D03*
X078654Y009106D02*
D03*
X079244Y011370D02*
D03*
X075701Y009697D02*
D03*
X074913Y009303D02*
D03*
X074913Y010583D02*
D03*
X074913Y010189D02*
D03*
X074913Y009697D02*
D03*
X075307Y010583D02*
D03*
X075799Y008811D02*
D03*
X076094Y009008D02*
D03*
X072900Y006994D02*
D03*
X072551Y005268D02*
D03*
X008181Y035484D02*
D03*
X024300Y007850D02*
D03*
D166*
X090563Y012354D02*
D03*
X088201Y008516D02*
D03*
X090268Y009106D02*
D03*
D58*
X090563Y010189D02*
D03*
X109657Y010189D02*
D03*
X108575Y009598D02*
D03*
X120051Y009559D02*
D03*
X118811Y010091D02*
D03*
X105447Y009420D02*
D03*
X105447Y008520D02*
D03*
X105447Y007620D02*
D03*
X105447Y006720D02*
D03*
X104547Y009420D02*
D03*
X103647Y009420D02*
D03*
X102747Y009420D02*
D03*
X101847Y009420D02*
D03*
X101847Y008520D02*
D03*
X101847Y007620D02*
D03*
X101847Y006720D02*
D03*
X105447Y005820D02*
D03*
X104547Y005820D02*
D03*
X103647Y005820D02*
D03*
X102747Y005820D02*
D03*
X101847Y005820D02*
D03*
X121646Y009323D02*
D03*
X100701Y004776D02*
D03*
X099520Y008220D02*
D03*
X099520Y009500D02*
D03*
X109756Y007630D02*
D03*
X105622Y004579D02*
D03*
X111429Y009598D02*
D03*
X120082Y007523D02*
D03*
X117039Y004677D02*
D03*
X120080Y006853D02*
D03*
X120061Y006183D02*
D03*
X118811Y005465D02*
D03*
X119965Y008193D02*
D03*
X109698Y006999D02*
D03*
X109756Y006350D02*
D03*
X108555Y004598D02*
D03*
X073535Y005760D02*
D03*
X077039Y004126D02*
D03*
X027551Y016173D02*
D03*
X029559Y008850D02*
D03*
X030455Y009746D02*
D03*
X030455Y007955D02*
D03*
X031350Y008850D02*
D03*
X029559Y013850D02*
D03*
X030455Y014746D02*
D03*
X030455Y012955D02*
D03*
X031350Y013850D02*
D03*
X017059Y008850D02*
D03*
X017955Y009746D02*
D03*
X017955Y007955D02*
D03*
X018850Y008850D02*
D03*
X017059Y013850D02*
D03*
X017955Y014746D02*
D03*
X017955Y012955D02*
D03*
X018850Y013850D02*
D03*
X008427Y012837D02*
D03*
X009323Y013732D02*
D03*
X009323Y011941D02*
D03*
X010219Y012837D02*
D03*
X013427Y012837D02*
D03*
X014323Y013732D02*
D03*
X014323Y011941D02*
D03*
X015219Y012837D02*
D03*
X013427Y025337D02*
D03*
X014323Y026232D02*
D03*
X014323Y024441D02*
D03*
X015219Y025337D02*
D03*
X008427Y025337D02*
D03*
X009323Y026232D02*
D03*
X009323Y024441D02*
D03*
X010219Y025337D02*
D03*
X013427Y041931D02*
D03*
X014323Y042827D02*
D03*
X014323Y041035D02*
D03*
X015219Y041931D02*
D03*
X013427Y029431D02*
D03*
X014323Y030327D02*
D03*
X014323Y028535D02*
D03*
X015219Y029431D02*
D03*
X008427Y029431D02*
D03*
X009323Y030327D02*
D03*
X009323Y028535D02*
D03*
X010219Y029431D02*
D03*
X010219Y041931D02*
D03*
X009323Y041035D02*
D03*
X009323Y042827D02*
D03*
X008427Y041931D02*
D03*
X018083Y037905D02*
D03*
X018350Y016900D02*
D03*
X028220Y005681D02*
D03*
X028220Y004402D02*
D03*
X024913Y005681D02*
D03*
X024913Y004402D02*
D03*
X022472Y005602D02*
D03*
X022472Y004323D02*
D03*
X019165Y005602D02*
D03*
X019165Y004323D02*
D03*
X016488Y005602D02*
D03*
X016488Y004323D02*
D03*
X013181Y005602D02*
D03*
X013181Y004323D02*
D03*
X005878Y012000D02*
D03*
X004598Y012000D02*
D03*
X005878Y015307D02*
D03*
X004598Y015307D02*
D03*
X005799Y018063D02*
D03*
X004520Y018063D02*
D03*
X005799Y021370D02*
D03*
X004520Y021370D02*
D03*
X005760Y042945D02*
D03*
X004480Y042945D02*
D03*
X005760Y039638D02*
D03*
X004480Y039638D02*
D03*
X005760Y037669D02*
D03*
X004480Y037669D02*
D03*
X005740Y034421D02*
D03*
X004461Y034421D02*
D03*
X005760Y032394D02*
D03*
X004480Y032394D02*
D03*
X005760Y029087D02*
D03*
X004480Y029087D02*
D03*
X004441Y027118D02*
D03*
X005720Y027118D02*
D03*
X005622Y023968D02*
D03*
X005228Y022492D02*
D03*
X005268Y010839D02*
D03*
X005228Y016783D02*
D03*
X071882Y031567D02*
D03*
X064419Y031508D02*
D03*
X074067Y031074D02*
D03*
X066604Y031016D02*
D03*
X056882Y031567D02*
D03*
X049382Y031567D02*
D03*
X059067Y031074D02*
D03*
X051567Y031074D02*
D03*
X071882Y030583D02*
D03*
X064419Y030524D02*
D03*
X067748Y030268D02*
D03*
X061000Y029819D02*
D03*
X056882Y030583D02*
D03*
X049382Y030583D02*
D03*
X053500Y029819D02*
D03*
X046000Y029819D02*
D03*
X041882Y031567D02*
D03*
X044067Y031074D02*
D03*
X036567Y031074D02*
D03*
X034382Y031567D02*
D03*
X026882Y031567D02*
D03*
X019382Y031567D02*
D03*
X029067Y031074D02*
D03*
X021567Y031074D02*
D03*
X041882Y030583D02*
D03*
X034382Y030583D02*
D03*
X038500Y029819D02*
D03*
X031000Y029819D02*
D03*
X026882Y030583D02*
D03*
X023496Y029795D02*
D03*
X019382Y030583D02*
D03*
X017984Y029756D02*
D03*
X070976Y020425D02*
D03*
X083575Y021409D02*
D03*
X087118Y021803D02*
D03*
X084264Y012354D02*
D03*
X087768Y012394D02*
D03*
X021586Y032079D02*
D03*
X029086Y032079D02*
D03*
X036586Y032079D02*
D03*
X044086Y032079D02*
D03*
X051586Y032079D02*
D03*
X059086Y032079D02*
D03*
X066623Y032020D02*
D03*
X074086Y032079D02*
D03*
X019382Y032551D02*
D03*
X017984Y033339D02*
D03*
X021626Y033063D02*
D03*
X026882Y032551D02*
D03*
X023500Y033382D02*
D03*
X112083Y005722D02*
D03*
X112983Y005722D02*
D03*
X113883Y005722D02*
D03*
X114783Y005722D02*
D03*
X115683Y005722D02*
D03*
X021590Y035074D02*
D03*
X029090Y035074D02*
D03*
X021607Y036074D02*
D03*
X034382Y032551D02*
D03*
X029126Y033063D02*
D03*
X041882Y032551D02*
D03*
X049382Y032551D02*
D03*
X031016Y033457D02*
D03*
X036626Y033063D02*
D03*
X029107Y036074D02*
D03*
X036590Y035074D02*
D03*
X038516Y033457D02*
D03*
X044126Y033063D02*
D03*
X046016Y033457D02*
D03*
X044090Y035074D02*
D03*
X112083Y006622D02*
D03*
X112083Y007522D02*
D03*
X112083Y008422D02*
D03*
X112083Y009322D02*
D03*
X112983Y009322D02*
D03*
X113883Y009322D02*
D03*
X114783Y009322D02*
D03*
X115683Y006622D02*
D03*
X018940Y036184D02*
D03*
X025504Y037000D02*
D03*
X033004Y037000D02*
D03*
X036607Y036074D02*
D03*
X044107Y036074D02*
D03*
X115683Y007522D02*
D03*
X115683Y008422D02*
D03*
X115683Y009322D02*
D03*
X040504Y037000D02*
D03*
X048004Y037000D02*
D03*
X056882Y032551D02*
D03*
X051626Y033063D02*
D03*
X053516Y033457D02*
D03*
X064419Y032493D02*
D03*
X059126Y033063D02*
D03*
X051590Y035074D02*
D03*
X051607Y036074D02*
D03*
X061016Y033457D02*
D03*
X059090Y035074D02*
D03*
X059107Y036074D02*
D03*
X071882Y032551D02*
D03*
X066663Y033004D02*
D03*
X079382Y032551D02*
D03*
X074126Y033063D02*
D03*
X068516Y033457D02*
D03*
X066627Y035016D02*
D03*
X066644Y036016D02*
D03*
X074090Y035074D02*
D03*
X074107Y036074D02*
D03*
X055504Y037000D02*
D03*
X063023Y037039D02*
D03*
X064022Y043783D02*
D03*
X065518Y043783D02*
D03*
X070504Y037000D02*
D03*
X067014Y043783D02*
D03*
X075008Y043823D02*
D03*
X078008Y043839D02*
D03*
X076500Y043866D02*
D03*
X081586Y032079D02*
D03*
X086882Y032551D02*
D03*
X081626Y033063D02*
D03*
X089086Y032079D02*
D03*
X094382Y032551D02*
D03*
X096586Y032079D02*
D03*
X104143Y032060D02*
D03*
X101938Y032532D02*
D03*
X081590Y035074D02*
D03*
X083535Y033338D02*
D03*
X081607Y036074D02*
D03*
X083456Y036960D02*
D03*
X089090Y035074D02*
D03*
X086000Y043824D02*
D03*
X087500Y043789D02*
D03*
X089000Y043853D02*
D03*
X089126Y033063D02*
D03*
X091035Y033338D02*
D03*
X096590Y035074D02*
D03*
X096626Y033063D02*
D03*
X104182Y033044D02*
D03*
X098535Y033338D02*
D03*
X104146Y035055D02*
D03*
X089107Y036074D02*
D03*
X096607Y036074D02*
D03*
X090956Y036960D02*
D03*
X104163Y036055D02*
D03*
X098456Y036960D02*
D03*
X105956Y036960D02*
D03*
X111586Y032079D02*
D03*
X109382Y032551D02*
D03*
X116882Y032551D02*
D03*
X119086Y032079D02*
D03*
X126586Y032079D02*
D03*
X124382Y032551D02*
D03*
X135976Y031803D02*
D03*
X131882Y032551D02*
D03*
X134086Y032079D02*
D03*
X111626Y033063D02*
D03*
X106035Y033338D02*
D03*
X111590Y035074D02*
D03*
X113535Y033338D02*
D03*
X119126Y033063D02*
D03*
X111607Y036074D02*
D03*
X119090Y035074D02*
D03*
X113456Y036960D02*
D03*
X119107Y036074D02*
D03*
X126626Y033063D02*
D03*
X121035Y033338D02*
D03*
X126590Y035074D02*
D03*
X128535Y033338D02*
D03*
X134126Y033063D02*
D03*
X126607Y036074D02*
D03*
X120956Y036960D02*
D03*
X128456Y036960D02*
D03*
X134090Y035074D02*
D03*
X134107Y036074D02*
D03*
X136000Y036984D02*
D03*
X019436Y034574D02*
D03*
X021586Y034047D02*
D03*
X019421Y033575D02*
D03*
X026936Y034574D02*
D03*
X029086Y034047D02*
D03*
X026921Y033575D02*
D03*
X034436Y034574D02*
D03*
X036586Y034047D02*
D03*
X034421Y033575D02*
D03*
X041936Y034574D02*
D03*
X044086Y034047D02*
D03*
X041921Y033575D02*
D03*
X049436Y034574D02*
D03*
X051586Y034047D02*
D03*
X049421Y033575D02*
D03*
X056936Y034574D02*
D03*
X059086Y034047D02*
D03*
X056921Y033575D02*
D03*
X064473Y034516D02*
D03*
X066623Y033989D02*
D03*
X064458Y033516D02*
D03*
X071936Y034574D02*
D03*
X074086Y034047D02*
D03*
X071921Y033575D02*
D03*
X079436Y034574D02*
D03*
X081586Y034047D02*
D03*
X079421Y033575D02*
D03*
X079382Y031567D02*
D03*
X081567Y031074D02*
D03*
X079382Y030583D02*
D03*
X131936Y034574D02*
D03*
X134086Y034047D02*
D03*
X131921Y033575D02*
D03*
X131882Y031567D02*
D03*
X134067Y031074D02*
D03*
X131882Y030583D02*
D03*
X124436Y034574D02*
D03*
X126586Y034047D02*
D03*
X124421Y033575D02*
D03*
X124382Y031567D02*
D03*
X126567Y031074D02*
D03*
X124382Y030583D02*
D03*
X116936Y034574D02*
D03*
X119086Y034047D02*
D03*
X116921Y033575D02*
D03*
X116882Y031567D02*
D03*
X119067Y031074D02*
D03*
X116882Y030583D02*
D03*
X109436Y034574D02*
D03*
X111586Y034047D02*
D03*
X109421Y033575D02*
D03*
X109382Y031567D02*
D03*
X111567Y031074D02*
D03*
X109382Y030583D02*
D03*
X101993Y034555D02*
D03*
X104143Y034028D02*
D03*
X101978Y033556D02*
D03*
X101938Y031548D02*
D03*
X104124Y031055D02*
D03*
X101938Y030564D02*
D03*
X094436Y034574D02*
D03*
X096586Y034047D02*
D03*
X094421Y033575D02*
D03*
X094382Y031567D02*
D03*
X096567Y031074D02*
D03*
X094382Y030583D02*
D03*
X086882Y030583D02*
D03*
X089067Y031074D02*
D03*
X086882Y031567D02*
D03*
X086921Y033575D02*
D03*
X089086Y034047D02*
D03*
X086936Y034574D02*
D03*
X083456Y034992D02*
D03*
X083456Y029835D02*
D03*
X085464Y029795D02*
D03*
X092964Y029795D02*
D03*
X090956Y029835D02*
D03*
X090956Y034992D02*
D03*
X100464Y029795D02*
D03*
X098456Y029835D02*
D03*
X098456Y034992D02*
D03*
X107964Y029795D02*
D03*
X105956Y029835D02*
D03*
X105956Y034992D02*
D03*
X115464Y029795D02*
D03*
X113456Y029835D02*
D03*
X113456Y034992D02*
D03*
X122964Y029795D02*
D03*
X120956Y029835D02*
D03*
X120956Y034992D02*
D03*
X130464Y029795D02*
D03*
X128456Y029835D02*
D03*
X128456Y034992D02*
D03*
X136000Y034977D02*
D03*
X136015Y029795D02*
D03*
X017157Y034205D02*
D03*
X109854Y008319D02*
D03*
X037500Y044000D02*
D03*
X036500Y044000D02*
D03*
X035500Y044000D02*
D03*
X034500Y044000D02*
D03*
X031500Y044000D02*
D03*
X030500Y044000D02*
D03*
X030500Y048000D02*
D03*
X069000Y044750D02*
D03*
X068000Y044750D02*
D03*
X067000Y044750D02*
D03*
X066000Y044750D02*
D03*
X065000Y044724D02*
D03*
X064000Y044750D02*
D03*
X063000Y044750D02*
D03*
X062000Y044750D02*
D03*
X069000Y048626D02*
D03*
X068000Y048626D02*
D03*
X067000Y048626D02*
D03*
X066000Y048626D02*
D03*
X064000Y048626D02*
D03*
X063000Y048626D02*
D03*
X062000Y048626D02*
D03*
X073000Y048626D02*
D03*
X074000Y048626D02*
D03*
X075000Y048626D02*
D03*
X077000Y048626D02*
D03*
X078000Y048626D02*
D03*
X079000Y048626D02*
D03*
X080000Y048626D02*
D03*
X073000Y044750D02*
D03*
X074000Y044750D02*
D03*
X075000Y044750D02*
D03*
X076000Y044724D02*
D03*
X077000Y044750D02*
D03*
X078000Y044750D02*
D03*
X079000Y044750D02*
D03*
X080000Y044750D02*
D03*
X084000Y048626D02*
D03*
X085000Y048626D02*
D03*
X086000Y048626D02*
D03*
X088000Y048626D02*
D03*
X089000Y048626D02*
D03*
X090000Y048626D02*
D03*
X091000Y048626D02*
D03*
X084000Y044750D02*
D03*
X085000Y044750D02*
D03*
X086000Y044750D02*
D03*
X087000Y044724D02*
D03*
X088000Y044750D02*
D03*
X089000Y044750D02*
D03*
X090000Y044750D02*
D03*
X091000Y044750D02*
D03*
D129*
X040638Y046737D02*
D03*
X040638Y045063D02*
D03*
X041425Y046737D02*
D03*
X044575Y046737D02*
D03*
X045362Y046737D02*
D03*
X041425Y045063D02*
D03*
X044575Y045063D02*
D03*
X045362Y045063D02*
D03*
D15*
X042213Y046737D02*
D03*
X043000Y046737D02*
D03*
X043787Y046737D02*
D03*
X042213Y045063D02*
D03*
X043000Y045063D02*
D03*
X043787Y045063D02*
D03*
D203*
X057856Y043900D02*
D03*
X057344Y043900D02*
D03*
X086665Y005622D02*
D03*
X086153Y005622D02*
D03*
X082138Y012945D02*
D03*
X082649Y012945D02*
D03*
X081665Y011842D02*
D03*
X082177Y011842D02*
D03*
X079067Y012157D02*
D03*
X079579Y012157D02*
D03*
X079736Y013969D02*
D03*
X080247Y013969D02*
D03*
X074382Y013024D02*
D03*
X073870Y013024D02*
D03*
X074854Y013732D02*
D03*
X074343Y013732D02*
D03*
X079776Y016094D02*
D03*
X080287Y016094D02*
D03*
X079657Y015307D02*
D03*
X080169Y015307D02*
D03*
X079814Y017669D02*
D03*
X080326Y017669D02*
D03*
X077965Y010110D02*
D03*
X077453Y010110D02*
D03*
X078633Y018063D02*
D03*
X079145Y018063D02*
D03*
X075644Y010000D02*
D03*
X076156Y010000D02*
D03*
X076444Y017300D02*
D03*
X076956Y017300D02*
D03*
X074816Y012157D02*
D03*
X074304Y012157D02*
D03*
X074854Y016094D02*
D03*
X074343Y016094D02*
D03*
X075209Y017669D02*
D03*
X074697Y017669D02*
D03*
X082177Y016094D02*
D03*
X081665Y016094D02*
D03*
X079776Y018850D02*
D03*
X080287Y018850D02*
D03*
X119067Y009559D02*
D03*
X119578Y009559D02*
D03*
X109105Y009638D02*
D03*
X109617Y009638D02*
D03*
D52*
X036500Y046874D02*
D03*
X034500Y046874D02*
D03*
X033500Y046874D02*
D03*
X030500Y045126D02*
D03*
X030500Y046874D02*
D03*
X031500Y045126D02*
D03*
X031500Y046874D02*
D03*
X032500Y045126D02*
D03*
X032500Y046874D02*
D03*
X033500Y045126D02*
D03*
X034500Y045126D02*
D03*
X035500Y045126D02*
D03*
X035500Y046874D02*
D03*
X036500Y045126D02*
D03*
X037500Y045126D02*
D03*
X037500Y046874D02*
D03*
X062000Y045876D02*
D03*
X062000Y047624D02*
D03*
X063000Y045876D02*
D03*
X063000Y047624D02*
D03*
X064000Y045876D02*
D03*
X064000Y047624D02*
D03*
X065000Y045876D02*
D03*
X065000Y047624D02*
D03*
X066000Y045876D02*
D03*
X066000Y047624D02*
D03*
X067000Y045876D02*
D03*
X067000Y047624D02*
D03*
X068000Y045876D02*
D03*
X068000Y047624D02*
D03*
X069000Y045876D02*
D03*
X069000Y047624D02*
D03*
X073000Y045876D02*
D03*
X073000Y047624D02*
D03*
X074000Y045876D02*
D03*
X074000Y047624D02*
D03*
X075000Y045876D02*
D03*
X075000Y047624D02*
D03*
X076000Y045876D02*
D03*
X076000Y047624D02*
D03*
X077000Y045876D02*
D03*
X077000Y047624D02*
D03*
X078000Y045876D02*
D03*
X078000Y047624D02*
D03*
X079000Y045876D02*
D03*
X079000Y047624D02*
D03*
X080000Y045876D02*
D03*
X080000Y047624D02*
D03*
X084000Y045876D02*
D03*
X084000Y047624D02*
D03*
X085000Y045876D02*
D03*
X085000Y047624D02*
D03*
X086000Y045876D02*
D03*
X086000Y047624D02*
D03*
X087000Y045876D02*
D03*
X087000Y047624D02*
D03*
X088000Y045876D02*
D03*
X088000Y047624D02*
D03*
X089000Y045876D02*
D03*
X089000Y047624D02*
D03*
X090000Y045876D02*
D03*
X090000Y047624D02*
D03*
X091000Y045876D02*
D03*
X091000Y047624D02*
D03*
D223*
X078000Y043000D02*
D03*
X076500Y043000D02*
D03*
X075000Y043000D02*
D03*
X089000Y043000D02*
D03*
X087500Y043000D02*
D03*
X086000Y043000D02*
D03*
X086500Y043000D02*
D03*
X087000Y043000D02*
D03*
X088500Y043000D02*
D03*
X088000Y043000D02*
D03*
X075500Y043000D02*
D03*
X076000Y043000D02*
D03*
X077500Y043000D02*
D03*
X077000Y043000D02*
D03*
X066000Y043000D02*
D03*
X066500Y043000D02*
D03*
X065000Y043000D02*
D03*
X064500Y043000D02*
D03*
X064000Y043000D02*
D03*
X065500Y043000D02*
D03*
X067000Y043000D02*
D03*
X002000Y050500D02*
G01*
G75*
D212*
X017865Y082000D02*
D03*
X018535Y082000D02*
D03*
X022135Y084200D02*
D03*
X021465Y084200D02*
D03*
X021935Y086800D02*
D03*
X021265Y086800D02*
D03*
X017465Y088000D02*
D03*
X018135Y088000D02*
D03*
X021335Y082000D02*
D03*
X020665Y082000D02*
D03*
X017465Y087000D02*
D03*
X018135Y087000D02*
D03*
X017465Y083200D02*
D03*
X018135Y083200D02*
D03*
X019265Y081000D02*
D03*
X019935Y081000D02*
D03*
X022065Y080800D02*
D03*
X022735Y080800D02*
D03*
X022135Y083000D02*
D03*
X021465Y083000D02*
D03*
X017465Y085000D02*
D03*
X018135Y085000D02*
D03*
X022135Y087800D02*
D03*
X021465Y087800D02*
D03*
X021735Y089000D02*
D03*
X021065Y089000D02*
D03*
X019735Y089000D02*
D03*
X019065Y089000D02*
D03*
X018135Y089000D02*
D03*
X017465Y089000D02*
D03*
X017135Y067200D02*
D03*
X016465Y067200D02*
D03*
X017135Y071200D02*
D03*
X016465Y071200D02*
D03*
X025665Y072200D02*
D03*
X026335Y072200D02*
D03*
X017135Y068200D02*
D03*
X016465Y068200D02*
D03*
X017135Y070200D02*
D03*
X016465Y070200D02*
D03*
X016735Y065000D02*
D03*
X016065Y065000D02*
D03*
X016935Y073000D02*
D03*
X016265Y073000D02*
D03*
X013935Y076200D02*
D03*
X013265Y076200D02*
D03*
X031865Y073800D02*
D03*
X032535Y073800D02*
D03*
X006935Y065300D02*
D03*
X006265Y065300D02*
D03*
X006935Y066900D02*
D03*
X006265Y066900D02*
D03*
X006935Y068200D02*
D03*
X006265Y068200D02*
D03*
X004665Y070400D02*
D03*
X005335Y070400D02*
D03*
X007665Y063700D02*
D03*
X008335Y063700D02*
D03*
X007665Y072500D02*
D03*
X008335Y072500D02*
D03*
X011065Y065300D02*
D03*
X011735Y065300D02*
D03*
X011065Y066900D02*
D03*
X011735Y066900D02*
D03*
X011065Y069300D02*
D03*
X011735Y069300D02*
D03*
X011735Y070900D02*
D03*
X011065Y070900D02*
D03*
X032617Y089400D02*
D03*
X031948Y089400D02*
D03*
X032065Y079200D02*
D03*
X032735Y079200D02*
D03*
X009648Y058600D02*
D03*
X010317Y058600D02*
D03*
D163*
X018600Y065535D02*
D03*
X018600Y064865D02*
D03*
X018600Y073865D02*
D03*
X018600Y074535D02*
D03*
X023000Y073865D02*
D03*
X023000Y074535D02*
D03*
X019600Y073865D02*
D03*
X019600Y074535D02*
D03*
X017600Y065535D02*
D03*
X017600Y064865D02*
D03*
X020400Y065735D02*
D03*
X020400Y065065D02*
D03*
X022200Y065535D02*
D03*
X022200Y064865D02*
D03*
X027200Y069735D02*
D03*
X027200Y069065D02*
D03*
X027200Y071535D02*
D03*
X027200Y070865D02*
D03*
X025000Y073865D02*
D03*
X025000Y074535D02*
D03*
X024000Y073865D02*
D03*
X024000Y074535D02*
D03*
X019600Y065535D02*
D03*
X019600Y064865D02*
D03*
X023200Y065535D02*
D03*
X023200Y064865D02*
D03*
X017400Y073865D02*
D03*
X017400Y074535D02*
D03*
X027235Y066393D02*
D03*
X027235Y065724D02*
D03*
X020600Y073865D02*
D03*
X020600Y074535D02*
D03*
X027235Y067298D02*
D03*
X027235Y067968D02*
D03*
X022000Y074535D02*
D03*
X022000Y073865D02*
D03*
X025000Y064865D02*
D03*
X025000Y065535D02*
D03*
D31*
X034100Y097900D02*
D03*
X007100Y058300D02*
D03*
X014000Y101000D02*
D03*
D203*
X016744Y094600D02*
D03*
X017256Y094600D02*
D03*
X018344Y094600D02*
D03*
X018856Y094600D02*
D03*
X019944Y094600D02*
D03*
X020456Y094600D02*
D03*
X021544Y094600D02*
D03*
X022056Y094600D02*
D03*
X032456Y070400D02*
D03*
X031944Y070400D02*
D03*
D123*
X016600Y092656D02*
D03*
X016600Y092144D02*
D03*
X022600Y092656D02*
D03*
X022600Y092144D02*
D03*
X020600Y092656D02*
D03*
X020600Y092144D02*
D03*
X018600Y092656D02*
D03*
X018600Y092144D02*
D03*
X012800Y079944D02*
D03*
X012800Y080456D02*
D03*
X035400Y089656D02*
D03*
X035400Y089144D02*
D03*
D242*
X033000Y052500D02*
D03*
X032000Y051500D02*
D03*
X031000Y051500D02*
D03*
X030000Y051500D02*
D03*
X029000Y051500D02*
D03*
X028000Y051500D02*
D03*
X027000Y051500D02*
D03*
X026000Y051500D02*
D03*
X025000Y051500D02*
D03*
X024000Y051500D02*
D03*
X023000Y051500D02*
D03*
X022000Y051500D02*
D03*
X021000Y051500D02*
D03*
X020000Y051500D02*
D03*
X019000Y051500D02*
D03*
X018000Y051500D02*
D03*
X017000Y051500D02*
D03*
X016000Y051500D02*
D03*
X015000Y051500D02*
D03*
X014000Y051500D02*
D03*
X013000Y051500D02*
D03*
X012000Y051500D02*
D03*
X011000Y051500D02*
D03*
X010000Y051500D02*
D03*
X009000Y051500D02*
D03*
X008000Y051500D02*
D03*
X007000Y051500D02*
D03*
X033000Y051500D02*
D03*
X032000Y052500D02*
D03*
X031000Y052500D02*
D03*
X030000Y052500D02*
D03*
X029000Y052500D02*
D03*
X028000Y052500D02*
D03*
X027000Y052500D02*
D03*
X026000Y052500D02*
D03*
X025000Y052500D02*
D03*
X024000Y052500D02*
D03*
X023000Y052500D02*
D03*
X022000Y052500D02*
D03*
X021000Y052500D02*
D03*
X020000Y052500D02*
D03*
X019000Y052500D02*
D03*
X018000Y052500D02*
D03*
X017000Y052500D02*
D03*
X016000Y052500D02*
D03*
X015000Y052500D02*
D03*
X014000Y052500D02*
D03*
X013000Y052500D02*
D03*
X012000Y052500D02*
D03*
X011000Y052500D02*
D03*
X010000Y052500D02*
D03*
X009000Y052500D02*
D03*
X008000Y052500D02*
D03*
X007000Y052500D02*
D03*
X006000Y051500D02*
D03*
X006000Y052500D02*
D03*
D26*
X017450Y110700D02*
D03*
X021950Y110700D02*
D03*
D140*
X022790Y111900D02*
D03*
X016610Y111900D02*
D03*
D151*
X021450Y108200D02*
D03*
X020950Y107200D02*
D03*
X020450Y108200D02*
D03*
X019950Y107200D02*
D03*
X019450Y108200D02*
D03*
X018950Y107200D02*
D03*
X018450Y108200D02*
D03*
X017950Y107200D02*
D03*
D197*
X005500Y106000D02*
D03*
X033500Y106000D02*
D03*
X005500Y056000D02*
D03*
X033500Y056000D02*
D03*
D156*
X034100Y068768D02*
D03*
X034100Y064832D02*
D03*
D75*
X026100Y061150D02*
D03*
X026700Y058050D02*
D03*
X016400Y059300D02*
D03*
X015650Y058550D02*
D03*
X013800Y058500D02*
D03*
X012950Y059000D02*
D03*
X018200Y103500D02*
D03*
X019800Y103500D02*
D03*
X021200Y103500D02*
D03*
X016400Y103500D02*
D03*
X021500Y095400D02*
D03*
X019700Y095400D02*
D03*
X018200Y095400D02*
D03*
X016700Y095400D02*
D03*
X017335Y095165D02*
D03*
X018935Y095135D02*
D03*
X020535Y095135D02*
D03*
X022135Y095165D02*
D03*
X012800Y076400D02*
D03*
X014500Y076050D02*
D03*
X013800Y079300D02*
D03*
X012800Y079300D02*
D03*
X012335Y080535D02*
D03*
X010832Y078732D02*
D03*
X010832Y077169D02*
D03*
X011900Y077800D02*
D03*
X009800Y077900D02*
D03*
X033700Y072100D02*
D03*
X033000Y073700D02*
D03*
X031300Y073800D02*
D03*
X031049Y072651D02*
D03*
X032300Y071500D02*
D03*
X032900Y070765D02*
D03*
X031200Y070400D02*
D03*
X031000Y071700D02*
D03*
X032400Y076600D02*
D03*
X033700Y077600D02*
D03*
X032300Y078300D02*
D03*
X031600Y078300D02*
D03*
X030900Y076500D02*
D03*
X033649Y088511D02*
D03*
X033300Y089800D02*
D03*
X032340Y090500D02*
D03*
X031300Y089400D02*
D03*
X034000Y091240D02*
D03*
X034520Y089880D02*
D03*
X034751Y088489D02*
D03*
X035840Y088900D02*
D03*
X035400Y090400D02*
D03*
X034868Y072931D02*
D03*
X035832Y072132D02*
D03*
X034831Y071268D02*
D03*
X034931Y076769D02*
D03*
X035932Y077632D02*
D03*
X034968Y078431D02*
D03*
X034831Y092331D02*
D03*
X033969Y093332D02*
D03*
X033168Y092369D02*
D03*
X030560Y074260D02*
D03*
X034150Y075550D02*
D03*
X030577Y078773D02*
D03*
X030300Y080600D02*
D03*
X031140Y079810D02*
D03*
X034450Y080600D02*
D03*
X033250Y079350D02*
D03*
X034600Y084150D02*
D03*
X031291Y093741D02*
D03*
X027600Y094700D02*
D03*
X012400Y075950D02*
D03*
X010550Y076000D02*
D03*
X032550Y083200D02*
D03*
X028701Y081951D02*
D03*
D119*
X014256Y077494D02*
D03*
X021000Y087800D02*
D03*
X016500Y066500D02*
D03*
X018700Y077100D02*
D03*
X020400Y062000D02*
D03*
X017600Y066300D02*
D03*
X006100Y071800D02*
D03*
X006800Y071800D02*
D03*
X014600Y063500D02*
D03*
X017500Y064400D02*
D03*
X016900Y066200D02*
D03*
X010375Y073175D02*
D03*
X011300Y073500D02*
D03*
X015700Y063200D02*
D03*
X005769Y071831D02*
D03*
X016500Y079600D02*
D03*
X025900Y079600D02*
D03*
X027400Y075600D02*
D03*
X028100Y072100D02*
D03*
X012100Y082000D02*
D03*
X021600Y085700D02*
D03*
X026700Y082300D02*
D03*
X024900Y084700D02*
D03*
X026100Y084100D02*
D03*
X026500Y073600D02*
D03*
X020700Y103900D02*
D03*
X016600Y093100D02*
D03*
X018600Y093100D02*
D03*
X020600Y093100D02*
D03*
X022600Y093100D02*
D03*
X016100Y091700D02*
D03*
X017100Y091700D02*
D03*
X018100Y091700D02*
D03*
X019100Y091700D02*
D03*
X020100Y091700D02*
D03*
X021100Y091700D02*
D03*
X022100Y091700D02*
D03*
X023100Y091700D02*
D03*
X015813Y082013D02*
D03*
X017100Y082000D02*
D03*
X017200Y082600D02*
D03*
X015804Y082604D02*
D03*
X017857Y081543D02*
D03*
X018535Y082465D02*
D03*
X019200Y081600D02*
D03*
X017900Y080400D02*
D03*
X019100Y080400D02*
D03*
X020200Y081600D02*
D03*
X020100Y080400D02*
D03*
X020600Y082400D02*
D03*
X021200Y081600D02*
D03*
X021203Y080403D02*
D03*
X022100Y080300D02*
D03*
X022400Y081400D02*
D03*
X023600Y082700D02*
D03*
X022504Y082604D02*
D03*
X022400Y083400D02*
D03*
X021000Y083000D02*
D03*
X022500Y084200D02*
D03*
X023600Y084300D02*
D03*
X021100Y084200D02*
D03*
X022400Y085300D02*
D03*
X023600Y085300D02*
D03*
X023700Y086500D02*
D03*
X022462Y086738D02*
D03*
X020800Y086800D02*
D03*
X022400Y087300D02*
D03*
X023600Y087400D02*
D03*
X022406Y088706D02*
D03*
X022187Y089387D02*
D03*
X021200Y089300D02*
D03*
X021800Y090600D02*
D03*
X020400Y089300D02*
D03*
X020300Y090500D02*
D03*
X019400Y090600D02*
D03*
X019600Y089400D02*
D03*
X019065Y088565D02*
D03*
X018250Y089450D02*
D03*
X018300Y090600D02*
D03*
X017465Y089335D02*
D03*
X017000Y089100D02*
D03*
X017000Y088300D02*
D03*
X018500Y088000D02*
D03*
X018500Y087000D02*
D03*
X015800Y088200D02*
D03*
X017100Y087500D02*
D03*
X016969Y087131D02*
D03*
X017100Y086200D02*
D03*
X015800Y086000D02*
D03*
X017100Y085000D02*
D03*
X015800Y085100D02*
D03*
X017057Y085557D02*
D03*
X017024Y084376D02*
D03*
X015800Y084300D02*
D03*
X015800Y083500D02*
D03*
X017000Y083500D02*
D03*
X018500Y085000D02*
D03*
X018600Y083200D02*
D03*
X015964Y067436D02*
D03*
X015983Y068617D02*
D03*
X016000Y070200D02*
D03*
X016000Y071500D02*
D03*
X016100Y073600D02*
D03*
X017461Y075061D02*
D03*
X019000Y074900D02*
D03*
X019600Y074900D02*
D03*
X020217Y074983D02*
D03*
X022200Y074900D02*
D03*
X022973Y074927D02*
D03*
X023600Y074800D02*
D03*
X024942Y075042D02*
D03*
X026000Y074900D02*
D03*
X026565Y075635D02*
D03*
X026629Y074129D02*
D03*
X026636Y071964D02*
D03*
X024942Y064342D02*
D03*
X023170Y064370D02*
D03*
X022383Y064417D02*
D03*
X019627Y064373D02*
D03*
X016065Y065465D02*
D03*
X016735Y065365D02*
D03*
X017550Y067200D02*
D03*
X017550Y068200D02*
D03*
X017600Y070200D02*
D03*
X017550Y071200D02*
D03*
X017400Y073050D02*
D03*
X017400Y073450D02*
D03*
X018600Y073400D02*
D03*
X019600Y073400D02*
D03*
X020600Y073400D02*
D03*
X022000Y073400D02*
D03*
X023000Y073450D02*
D03*
X024000Y073450D02*
D03*
X025000Y073450D02*
D03*
X025200Y072200D02*
D03*
X025000Y066000D02*
D03*
X023200Y065950D02*
D03*
X022200Y065950D02*
D03*
X020300Y066200D02*
D03*
X019600Y066000D02*
D03*
X018600Y065950D02*
D03*
X015920Y074720D02*
D03*
X015939Y072161D02*
D03*
X016000Y069800D02*
D03*
X015989Y069011D02*
D03*
X015946Y066846D02*
D03*
X016000Y065800D02*
D03*
X017600Y063200D02*
D03*
X019100Y064500D02*
D03*
X018700Y064400D02*
D03*
X021989Y064311D02*
D03*
X023300Y063200D02*
D03*
X025000Y063200D02*
D03*
X023761Y064361D02*
D03*
X026800Y064400D02*
D03*
X027795Y069405D02*
D03*
X025000Y076200D02*
D03*
X023900Y075000D02*
D03*
X021800Y075000D02*
D03*
X020800Y075000D02*
D03*
X017400Y076200D02*
D03*
X005700Y065300D02*
D03*
X004400Y065300D02*
D03*
X007300Y065300D02*
D03*
X005700Y066900D02*
D03*
X004400Y066800D02*
D03*
X005700Y068200D02*
D03*
X004416Y067716D02*
D03*
X004400Y069400D02*
D03*
X005700Y069400D02*
D03*
X005700Y071000D02*
D03*
X004400Y070900D02*
D03*
X006400Y073100D02*
D03*
X007300Y071800D02*
D03*
X007700Y071800D02*
D03*
X008200Y073100D02*
D03*
X008328Y071928D02*
D03*
X009300Y071700D02*
D03*
X012100Y070900D02*
D03*
X010600Y070900D02*
D03*
X012200Y069300D02*
D03*
X010700Y069300D02*
D03*
X010800Y068400D02*
D03*
X012000Y068400D02*
D03*
X012152Y066948D02*
D03*
X010700Y066900D02*
D03*
X010700Y065300D02*
D03*
X012200Y065300D02*
D03*
X008335Y064365D02*
D03*
X007900Y064400D02*
D03*
X005769Y063131D02*
D03*
X007400Y066900D02*
D03*
X007400Y068200D02*
D03*
X013100Y065200D02*
D03*
X010300Y064700D02*
D03*
X013100Y065800D02*
D03*
X014200Y067700D02*
D03*
X013400Y067800D02*
D03*
X010400Y066300D02*
D03*
X014000Y068400D02*
D03*
X014600Y068500D02*
D03*
X012500Y068300D02*
D03*
X010300Y067900D02*
D03*
X013400Y069300D02*
D03*
X013500Y070500D02*
D03*
X014100Y070700D02*
D03*
X010500Y070000D02*
D03*
X012700Y071400D02*
D03*
X014600Y072200D02*
D03*
X010500Y071500D02*
D03*
X009700Y071200D02*
D03*
X014000Y072200D02*
D03*
X014000Y072700D02*
D03*
X008400Y071000D02*
D03*
X011500Y072400D02*
D03*
X008600Y071400D02*
D03*
X010300Y065600D02*
D03*
X010100Y066000D02*
D03*
X010400Y067300D02*
D03*
X009800Y067100D02*
D03*
X010300Y068400D02*
D03*
X010200Y069300D02*
D03*
X010100Y070400D02*
D03*
X023700Y083500D02*
D03*
X027789Y069011D02*
D03*
X026500Y070500D02*
D03*
X026600Y072700D02*
D03*
X024900Y078700D02*
D03*
X025000Y076900D02*
D03*
X025700Y076900D02*
D03*
X026000Y078800D02*
D03*
X017200Y079100D02*
D03*
X017000Y077100D02*
D03*
X016400Y077100D02*
D03*
X015800Y079400D02*
D03*
X028800Y088200D02*
D03*
X028800Y083600D02*
D03*
X025000Y088400D02*
D03*
X024300Y088300D02*
D03*
X023800Y088600D02*
D03*
X024195Y089595D02*
D03*
X025700Y087600D02*
D03*
X025735Y090665D02*
D03*
X026200Y089200D02*
D03*
X028800Y089800D02*
D03*
X026200Y091600D02*
D03*
X030260Y090540D02*
D03*
X007935Y079365D02*
D03*
X007965Y077365D02*
D03*
X008500Y076300D02*
D03*
X017000Y086600D02*
D03*
X007035Y081665D02*
D03*
X015551Y103749D02*
D03*
X015650Y104400D02*
D03*
X015551Y105251D02*
D03*
X014499Y105149D02*
D03*
X014499Y103649D02*
D03*
X024649Y105051D02*
D03*
X024649Y103749D02*
D03*
X024649Y104400D02*
D03*
X025751Y104949D02*
D03*
X025751Y103749D02*
D03*
X025800Y104400D02*
D03*
X009100Y082000D02*
D03*
X020200Y103900D02*
D03*
X024300Y103100D02*
D03*
X024400Y101500D02*
D03*
X008065Y101135D02*
D03*
X027600Y079700D02*
D03*
X008065Y105165D02*
D03*
X026100Y079900D02*
D03*
X020400Y076400D02*
D03*
X003600Y076100D02*
D03*
X008026Y087474D02*
D03*
X008000Y092700D02*
D03*
X008000Y096400D02*
D03*
X008000Y100300D02*
D03*
X008000Y104200D02*
D03*
X008000Y108500D02*
D03*
X025617Y069995D02*
D03*
X025600Y069600D02*
D03*
X026200Y069500D02*
D03*
X026408Y069208D02*
D03*
X026414Y068814D02*
D03*
X026343Y068400D02*
D03*
X025500Y067000D02*
D03*
X026500Y067300D02*
D03*
X026570Y067830D02*
D03*
X025100Y070500D02*
D03*
X027800Y065650D02*
D03*
X026500Y066700D02*
D03*
X026200Y066300D02*
D03*
X026123Y062977D02*
D03*
X026100Y066700D02*
D03*
X017100Y064600D02*
D03*
X016674Y064526D02*
D03*
X015800Y064300D02*
D03*
X015835Y063765D02*
D03*
X025900Y064600D02*
D03*
X025800Y065800D02*
D03*
X025800Y066200D02*
D03*
X018200Y072500D02*
D03*
X008065Y097435D02*
D03*
X008065Y093435D02*
D03*
X017800Y071700D02*
D03*
X017800Y070700D02*
D03*
X008100Y089700D02*
D03*
X008065Y085435D02*
D03*
X016700Y070700D02*
D03*
X011900Y059500D02*
D03*
X021100Y065000D02*
D03*
X020700Y064600D02*
D03*
X026300Y071600D02*
D03*
X004200Y059400D02*
D03*
X008596Y059454D02*
D03*
X011200Y058450D02*
D03*
X026670Y074720D02*
D03*
X005050Y061950D02*
D03*
X027820Y066200D02*
D03*
X020250Y064600D02*
D03*
X027950Y070350D02*
D03*
X027850Y070900D02*
D03*
X026650Y071550D02*
D03*
X014350Y085550D02*
D03*
X013650Y083000D02*
D03*
X013650Y084800D02*
D03*
X009648Y059402D02*
D03*
X035400Y062850D02*
D03*
X034050Y067600D02*
D03*
X034050Y066800D02*
D03*
X034100Y066000D02*
D03*
X032750Y062800D02*
D03*
X034100Y065500D02*
D03*
X035762Y069162D02*
D03*
X035762Y068375D02*
D03*
X035762Y067587D02*
D03*
X035762Y066800D02*
D03*
X035762Y066013D02*
D03*
X035762Y065225D02*
D03*
X035762Y064438D02*
D03*
X033435Y061785D02*
D03*
X032300Y061300D02*
D03*
X034500Y061800D02*
D03*
X034200Y060000D02*
D03*
X033094Y059456D02*
D03*
X034850Y059400D02*
D03*
X033900Y060500D02*
D03*
X032250Y060500D02*
D03*
X033665Y063200D02*
D03*
X034600Y063800D02*
D03*
X033650Y064000D02*
D03*
X033900Y061850D02*
D03*
X035600Y060850D02*
D03*
X036050Y063350D02*
D03*
X032300Y064450D02*
D03*
D166*
X033050Y075450D02*
D03*
X002000Y116000D02*
G01*
G75*
D31*
X032000Y131600D02*
D03*
X031400Y117200D02*
D03*
X009600Y123000D02*
D03*
D163*
X016800Y124865D02*
D03*
X016800Y125535D02*
D03*
D212*
X010148Y119200D02*
D03*
X010817Y119200D02*
D03*
D197*
X009600Y126200D02*
D03*
X035000Y129000D02*
D03*
X035000Y122000D02*
D03*
D242*
X012000Y120400D02*
D03*
X013000Y120400D02*
D03*
X011000Y120400D02*
D03*
X010000Y120400D02*
D03*
X013000Y117400D02*
D03*
X010000Y117400D02*
D03*
X016000Y120400D02*
D03*
X017000Y120400D02*
D03*
X015000Y120400D02*
D03*
X014000Y120400D02*
D03*
X017000Y117400D02*
D03*
X014000Y117400D02*
D03*
D241*
X033000Y127000D02*
D03*
D231*
X022764Y127000D02*
D03*
D58*
X014747Y126447D02*
D03*
X008500Y123400D02*
D03*
X024555Y129395D02*
D03*
X026455Y129395D02*
D03*
X025450Y127150D02*
D03*
X028400Y127250D02*
D03*
X027439Y127161D02*
D03*
X015500Y124050D02*
D03*
X018400Y123550D02*
D03*
X016115Y124865D02*
D03*
X017650Y125550D02*
D03*
X016435Y122935D02*
D03*
D67*
X018750Y129200D02*
D03*
X019935Y129235D02*
D03*
X014800Y131600D02*
D03*
X015300Y129600D02*
D03*
X016450Y129650D02*
D03*
X017300Y129600D02*
D03*
X018300Y129650D02*
D03*
X023600Y131250D02*
D03*
X021300Y129450D02*
D03*
X022300Y129600D02*
D03*
X020700Y131750D02*
D03*
X022876Y132274D02*
D03*
X017700Y132100D02*
D03*
X038000Y050500D02*
G01*
G75*
D212*
X055035Y081500D02*
D03*
X054365Y081500D02*
D03*
X063435Y078250D02*
D03*
X062765Y078250D02*
D03*
X060635Y084250D02*
D03*
X059965Y084250D02*
D03*
X064135Y079100D02*
D03*
X063465Y079100D02*
D03*
X075583Y072900D02*
D03*
X076252Y072900D02*
D03*
X075583Y075600D02*
D03*
X076252Y075600D02*
D03*
X067583Y072900D02*
D03*
X068252Y072900D02*
D03*
X067635Y075600D02*
D03*
X066965Y075600D02*
D03*
X059517Y075700D02*
D03*
X058848Y075700D02*
D03*
X059583Y072800D02*
D03*
X060252Y072800D02*
D03*
X051565Y072900D02*
D03*
X052235Y072900D02*
D03*
X051465Y075700D02*
D03*
X052135Y075700D02*
D03*
X042965Y088700D02*
D03*
X043635Y088700D02*
D03*
X043300Y087400D02*
D03*
X043969Y087400D02*
D03*
X056866Y089593D02*
D03*
X057535Y089593D02*
D03*
X057852Y087400D02*
D03*
X057183Y087400D02*
D03*
X059565Y089600D02*
D03*
X060235Y089600D02*
D03*
X059969Y087400D02*
D03*
X059300Y087400D02*
D03*
X073852Y087400D02*
D03*
X073183Y087400D02*
D03*
X072866Y089593D02*
D03*
X073535Y089593D02*
D03*
D31*
X067000Y082500D02*
D03*
X076000Y095700D02*
D03*
X073000Y071500D02*
D03*
X044400Y066700D02*
D03*
D163*
X078600Y086348D02*
D03*
X078600Y087017D02*
D03*
X078400Y080248D02*
D03*
X078400Y080917D02*
D03*
X041500Y082435D02*
D03*
X041500Y081765D02*
D03*
X065800Y080483D02*
D03*
X065800Y081152D02*
D03*
X065350Y082183D02*
D03*
X065350Y082852D02*
D03*
X062000Y082715D02*
D03*
X062000Y083385D02*
D03*
X063800Y082665D02*
D03*
X063800Y083335D02*
D03*
X062100Y077565D02*
D03*
X062100Y078235D02*
D03*
X066000Y087698D02*
D03*
X050000Y088367D02*
D03*
X050000Y087698D02*
D03*
X051000Y085581D02*
D03*
X051000Y086250D02*
D03*
X049800Y085631D02*
D03*
X049800Y086300D02*
D03*
X049300Y088535D02*
D03*
X049300Y087865D02*
D03*
X066900Y085365D02*
D03*
X066900Y086035D02*
D03*
X066000Y088367D02*
D03*
X065800Y085631D02*
D03*
X065800Y086300D02*
D03*
X065270Y088585D02*
D03*
X065270Y087915D02*
D03*
X064600Y088535D02*
D03*
X064600Y087865D02*
D03*
X048600Y087865D02*
D03*
X048600Y088535D02*
D03*
D98*
X040500Y053500D02*
D03*
X040500Y100500D02*
D03*
X078500Y100500D02*
D03*
X078500Y053500D02*
D03*
X040500Y125500D02*
D03*
X078500Y125500D02*
D03*
D156*
X040800Y070069D02*
D03*
X040800Y066131D02*
D03*
D110*
X062500Y111500D02*
D03*
X065000Y109000D02*
D03*
X065000Y114000D02*
D03*
X060000Y114000D02*
D03*
X062500Y103500D02*
D03*
X065000Y101000D02*
D03*
X065000Y106000D02*
D03*
X060000Y106000D02*
D03*
X062500Y095500D02*
D03*
X065000Y093000D02*
D03*
X065000Y098000D02*
D03*
X060000Y098000D02*
D03*
X070500Y119500D02*
D03*
X073000Y117000D02*
D03*
X073000Y122000D02*
D03*
X068000Y122000D02*
D03*
X070500Y111500D02*
D03*
X073000Y109000D02*
D03*
X073000Y114000D02*
D03*
X068000Y114000D02*
D03*
X070500Y103500D02*
D03*
X073000Y101000D02*
D03*
X073000Y106000D02*
D03*
X068000Y106000D02*
D03*
X070500Y095500D02*
D03*
X073000Y093000D02*
D03*
X073000Y098000D02*
D03*
X068000Y098000D02*
D03*
X054500Y095500D02*
D03*
X057000Y093000D02*
D03*
X057000Y098000D02*
D03*
X052000Y098000D02*
D03*
X054500Y103500D02*
D03*
X057000Y101000D02*
D03*
X057000Y106000D02*
D03*
X052000Y106000D02*
D03*
X054500Y111500D02*
D03*
X057000Y109000D02*
D03*
X057000Y114000D02*
D03*
X052000Y114000D02*
D03*
X054500Y119500D02*
D03*
X057000Y117000D02*
D03*
X057000Y122000D02*
D03*
X052000Y122000D02*
D03*
X046500Y095500D02*
D03*
X049000Y093000D02*
D03*
X049000Y098000D02*
D03*
X044000Y098000D02*
D03*
X046500Y103500D02*
D03*
X049000Y101000D02*
D03*
X049000Y106000D02*
D03*
X044000Y106000D02*
D03*
X046500Y111500D02*
D03*
X049000Y109000D02*
D03*
X049000Y114000D02*
D03*
X044000Y114000D02*
D03*
X046500Y119500D02*
D03*
X049000Y117000D02*
D03*
X049000Y122000D02*
D03*
X044000Y122000D02*
D03*
X044000Y117000D02*
D03*
X044000Y109000D02*
D03*
X060000Y109000D02*
D03*
X044000Y101000D02*
D03*
X060000Y101000D02*
D03*
X044000Y093000D02*
D03*
X060000Y093000D02*
D03*
X052000Y117000D02*
D03*
X068000Y117000D02*
D03*
X052000Y109000D02*
D03*
X068000Y109000D02*
D03*
X052000Y101000D02*
D03*
X068000Y101000D02*
D03*
X052000Y093000D02*
D03*
X068000Y093000D02*
D03*
X060000Y117000D02*
D03*
X060000Y122000D02*
D03*
X065000Y122000D02*
D03*
X065000Y117000D02*
D03*
X062500Y119500D02*
D03*
D200*
X071000Y059250D02*
D03*
X071000Y070500D02*
D03*
X063000Y059250D02*
D03*
X063000Y070500D02*
D03*
X055000Y059250D02*
D03*
X055000Y070500D02*
D03*
X047000Y059250D02*
D03*
X047000Y070500D02*
D03*
D96*
X070000Y059250D02*
D03*
X071000Y058250D02*
D03*
X070000Y058250D02*
D03*
X071000Y057250D02*
D03*
X070000Y057250D02*
D03*
X071000Y056250D02*
D03*
X070000Y056250D02*
D03*
X071000Y055250D02*
D03*
X070000Y055250D02*
D03*
X071000Y054250D02*
D03*
X070000Y054250D02*
D03*
X071000Y053250D02*
D03*
X070000Y053250D02*
D03*
X071000Y052250D02*
D03*
X070000Y052250D02*
D03*
X070000Y070500D02*
D03*
X071000Y069500D02*
D03*
X070000Y069500D02*
D03*
X071000Y068500D02*
D03*
X070000Y068500D02*
D03*
X071000Y067500D02*
D03*
X070000Y067500D02*
D03*
X071000Y066500D02*
D03*
X070000Y066500D02*
D03*
X071000Y065500D02*
D03*
X070000Y065500D02*
D03*
X071000Y064500D02*
D03*
X070000Y064500D02*
D03*
X071000Y063500D02*
D03*
X070000Y063500D02*
D03*
X062000Y059250D02*
D03*
X063000Y058250D02*
D03*
X062000Y058250D02*
D03*
X063000Y057250D02*
D03*
X062000Y057250D02*
D03*
X063000Y056250D02*
D03*
X062000Y056250D02*
D03*
X063000Y055250D02*
D03*
X062000Y055250D02*
D03*
X063000Y054250D02*
D03*
X062000Y054250D02*
D03*
X063000Y053250D02*
D03*
X062000Y053250D02*
D03*
X063000Y052250D02*
D03*
X062000Y052250D02*
D03*
X062000Y070500D02*
D03*
X063000Y069500D02*
D03*
X062000Y069500D02*
D03*
X063000Y068500D02*
D03*
X062000Y068500D02*
D03*
X063000Y067500D02*
D03*
X062000Y067500D02*
D03*
X063000Y066500D02*
D03*
X062000Y066500D02*
D03*
X063000Y065500D02*
D03*
X062000Y065500D02*
D03*
X063000Y064500D02*
D03*
X062000Y064500D02*
D03*
X063000Y063500D02*
D03*
X062000Y063500D02*
D03*
X054000Y059250D02*
D03*
X055000Y058250D02*
D03*
X054000Y058250D02*
D03*
X055000Y057250D02*
D03*
X054000Y057250D02*
D03*
X055000Y056250D02*
D03*
X054000Y056250D02*
D03*
X055000Y055250D02*
D03*
X054000Y055250D02*
D03*
X055000Y054250D02*
D03*
X054000Y054250D02*
D03*
X055000Y053250D02*
D03*
X054000Y053250D02*
D03*
X055000Y052250D02*
D03*
X054000Y052250D02*
D03*
X054000Y070500D02*
D03*
X055000Y069500D02*
D03*
X054000Y069500D02*
D03*
X055000Y068500D02*
D03*
X054000Y068500D02*
D03*
X055000Y067500D02*
D03*
X054000Y067500D02*
D03*
X055000Y066500D02*
D03*
X054000Y066500D02*
D03*
X055000Y065500D02*
D03*
X054000Y065500D02*
D03*
X055000Y064500D02*
D03*
X054000Y064500D02*
D03*
X055000Y063500D02*
D03*
X054000Y063500D02*
D03*
X046000Y059250D02*
D03*
X047000Y058250D02*
D03*
X046000Y058250D02*
D03*
X047000Y057250D02*
D03*
X046000Y057250D02*
D03*
X047000Y056250D02*
D03*
X046000Y056250D02*
D03*
X047000Y055250D02*
D03*
X046000Y055250D02*
D03*
X047000Y054250D02*
D03*
X046000Y054250D02*
D03*
X047000Y053250D02*
D03*
X046000Y053250D02*
D03*
X047000Y052250D02*
D03*
X046000Y052250D02*
D03*
X046000Y070500D02*
D03*
X047000Y069500D02*
D03*
X046000Y069500D02*
D03*
X047000Y068500D02*
D03*
X046000Y068500D02*
D03*
X047000Y067500D02*
D03*
X046000Y067500D02*
D03*
X047000Y066500D02*
D03*
X046000Y066500D02*
D03*
X047000Y065500D02*
D03*
X046000Y065500D02*
D03*
X047000Y064500D02*
D03*
X046000Y064500D02*
D03*
X047000Y063500D02*
D03*
X046000Y063500D02*
D03*
D126*
X046167Y082250D02*
D03*
X051218Y081856D02*
D03*
D74*
X063400Y079450D02*
D03*
X065800Y078300D02*
D03*
X064950Y078650D02*
D03*
X071250Y087350D02*
D03*
X069150Y087350D02*
D03*
X042600Y067350D02*
D03*
X043050Y073200D02*
D03*
X042550Y068150D02*
D03*
X042550Y068850D02*
D03*
X041356Y073294D02*
D03*
X038950Y060600D02*
D03*
X043250Y073750D02*
D03*
X064966Y082589D02*
D03*
X065754Y082983D02*
D03*
X064179Y083377D02*
D03*
X058667Y081113D02*
D03*
X059749Y084656D02*
D03*
X061816Y083771D02*
D03*
X061718Y084263D02*
D03*
X070087Y089280D02*
D03*
X070180Y088399D02*
D03*
X054142Y089280D02*
D03*
X054150Y088304D02*
D03*
X046957Y089378D02*
D03*
X046800Y088532D02*
D03*
X062902Y089378D02*
D03*
X062800Y088495D02*
D03*
X071071Y088689D02*
D03*
X055031Y088686D02*
D03*
X047748Y088833D02*
D03*
X050405Y087701D02*
D03*
X063748Y088833D02*
D03*
X066405Y087701D02*
D03*
X048141Y087652D02*
D03*
X064141Y087652D02*
D03*
X049614Y088492D02*
D03*
X046790Y086100D02*
D03*
X059872Y087978D02*
D03*
X075394Y086432D02*
D03*
X078600Y087557D02*
D03*
X049831Y075008D02*
D03*
X048236Y073335D02*
D03*
X058669Y078059D02*
D03*
X058177Y077370D02*
D03*
X043020Y076484D02*
D03*
X066346Y081209D02*
D03*
X069299Y083177D02*
D03*
X071362Y081500D02*
D03*
X077469Y073827D02*
D03*
X077469Y075008D02*
D03*
X071661Y075402D02*
D03*
X071661Y074319D02*
D03*
X069594Y073925D02*
D03*
X069594Y075008D02*
D03*
X063591Y075500D02*
D03*
X063591Y074417D02*
D03*
X061622Y074909D02*
D03*
X061622Y073827D02*
D03*
X055469Y075551D02*
D03*
X055551Y074449D02*
D03*
X053453Y073827D02*
D03*
X053453Y074811D02*
D03*
X072236Y073361D02*
D03*
X072827Y073361D02*
D03*
X073417Y073361D02*
D03*
X074008Y073361D02*
D03*
X074992Y073361D02*
D03*
X075583Y073361D02*
D03*
X076173Y073361D02*
D03*
X076764Y073361D02*
D03*
X064236Y073361D02*
D03*
X064827Y073361D02*
D03*
X065417Y073361D02*
D03*
X066008Y073361D02*
D03*
X066992Y073361D02*
D03*
X067583Y073361D02*
D03*
X068173Y073361D02*
D03*
X068764Y073361D02*
D03*
X056236Y073335D02*
D03*
X056827Y073335D02*
D03*
X057417Y073335D02*
D03*
X058008Y073335D02*
D03*
X058992Y073335D02*
D03*
X059583Y073335D02*
D03*
X060173Y073335D02*
D03*
X060764Y073335D02*
D03*
X048236Y075165D02*
D03*
X048827Y075165D02*
D03*
X049417Y075165D02*
D03*
X050992Y075165D02*
D03*
X051583Y075165D02*
D03*
X052173Y075165D02*
D03*
X052764Y075165D02*
D03*
X052764Y073335D02*
D03*
X052173Y073335D02*
D03*
X051583Y073335D02*
D03*
X050992Y073335D02*
D03*
X050008Y073335D02*
D03*
X049417Y073335D02*
D03*
X048827Y073335D02*
D03*
X061032Y082587D02*
D03*
X060638Y082980D02*
D03*
X059457Y084161D02*
D03*
X059850Y083768D02*
D03*
X061032Y081406D02*
D03*
X059850Y081406D02*
D03*
X061032Y081799D02*
D03*
X054339Y083571D02*
D03*
X055028Y083472D02*
D03*
X054848Y084636D02*
D03*
X055872Y084596D02*
D03*
X056307Y084654D02*
D03*
X055421Y084654D02*
D03*
X054851Y082094D02*
D03*
X055104Y081876D02*
D03*
X060638Y082193D02*
D03*
X060638Y081799D02*
D03*
X056602Y082094D02*
D03*
X056209Y082193D02*
D03*
X052468Y084260D02*
D03*
X053514Y081565D02*
D03*
X047252Y081504D02*
D03*
X048750Y082959D02*
D03*
X050250Y081557D02*
D03*
X057291Y081996D02*
D03*
X056896Y081994D02*
D03*
X054142Y081996D02*
D03*
X054593Y081955D02*
D03*
X060244Y081799D02*
D03*
X060244Y082193D02*
D03*
X060244Y082587D02*
D03*
X055913Y081996D02*
D03*
X056406Y083472D02*
D03*
X059358Y081996D02*
D03*
X050402Y077764D02*
D03*
X061032Y080618D02*
D03*
X060635Y080621D02*
D03*
X049316Y077471D02*
D03*
X060242Y080227D02*
D03*
X060635Y080227D02*
D03*
X060242Y079833D02*
D03*
X060635Y079833D02*
D03*
X060242Y079440D02*
D03*
X060635Y079440D02*
D03*
X049217Y076979D02*
D03*
X049611Y076979D02*
D03*
X049513Y076487D02*
D03*
X049906Y076585D02*
D03*
X049906Y076191D02*
D03*
X050205Y075112D02*
D03*
X059454Y077865D02*
D03*
X059848Y078258D02*
D03*
X056236Y075139D02*
D03*
X056827Y075139D02*
D03*
X057417Y075139D02*
D03*
X058008Y075139D02*
D03*
X058992Y075139D02*
D03*
X059583Y075139D02*
D03*
X060173Y075139D02*
D03*
X060764Y075139D02*
D03*
X057682Y074912D02*
D03*
X057781Y076290D02*
D03*
X057682Y076782D02*
D03*
X057879Y077077D02*
D03*
X061816Y078652D02*
D03*
X061816Y079046D02*
D03*
X061423Y078652D02*
D03*
X061423Y079046D02*
D03*
X061029Y078652D02*
D03*
X064236Y075139D02*
D03*
X064827Y075139D02*
D03*
X065417Y075139D02*
D03*
X066008Y075139D02*
D03*
X066992Y075139D02*
D03*
X067583Y075139D02*
D03*
X068173Y075139D02*
D03*
X068764Y075139D02*
D03*
X067035Y076337D02*
D03*
X066839Y076632D02*
D03*
X067528Y076632D02*
D03*
X067478Y077124D02*
D03*
X067970Y077075D02*
D03*
X068069Y077616D02*
D03*
X063000Y078650D02*
D03*
X063394Y078650D02*
D03*
X063787Y078650D02*
D03*
X063591Y077835D02*
D03*
X064181Y078650D02*
D03*
X064575Y078256D02*
D03*
X064968Y078256D02*
D03*
X065854Y080028D02*
D03*
X072236Y075122D02*
D03*
X072827Y075122D02*
D03*
X073417Y075122D02*
D03*
X074008Y075122D02*
D03*
X075583Y075122D02*
D03*
X076173Y075122D02*
D03*
X076764Y075122D02*
D03*
X074663Y075106D02*
D03*
X074992Y075122D02*
D03*
X075303Y074959D02*
D03*
X075205Y076337D02*
D03*
X065756Y077862D02*
D03*
X065362Y078256D02*
D03*
X075451Y076681D02*
D03*
X075402Y077075D02*
D03*
X064575Y079437D02*
D03*
X064968Y079437D02*
D03*
X064575Y079831D02*
D03*
X064968Y079831D02*
D03*
X064968Y080224D02*
D03*
X075008Y078108D02*
D03*
X072990Y080618D02*
D03*
X064575Y080224D02*
D03*
X064968Y080618D02*
D03*
X045830Y088835D02*
D03*
X042604Y090284D02*
D03*
X043023Y090310D02*
D03*
X044155Y090310D02*
D03*
X044598Y090310D02*
D03*
X045828Y089276D02*
D03*
X045828Y088489D02*
D03*
X047797Y089129D02*
D03*
X047797Y088538D02*
D03*
X057934Y090457D02*
D03*
X057639Y090310D02*
D03*
X056605Y090310D02*
D03*
X056212Y090260D02*
D03*
X055277Y088489D02*
D03*
X055129Y088981D02*
D03*
X052964Y088833D02*
D03*
X053259Y088735D02*
D03*
X053161Y088390D02*
D03*
X052619Y090064D02*
D03*
X048994Y089391D02*
D03*
X057147Y090211D02*
D03*
X056866Y090147D02*
D03*
X043417Y089079D02*
D03*
X043515Y090211D02*
D03*
X042974Y089079D02*
D03*
X043372Y087902D02*
D03*
X043884Y087971D02*
D03*
X045730Y090211D02*
D03*
X045300Y088108D02*
D03*
X043319Y086570D02*
D03*
X044992Y086865D02*
D03*
X050602Y086324D02*
D03*
X050257Y086274D02*
D03*
X051297Y087400D02*
D03*
X049568Y087455D02*
D03*
X057393Y089030D02*
D03*
X055178Y090359D02*
D03*
X056015Y089375D02*
D03*
X058082Y087997D02*
D03*
X057343Y087997D02*
D03*
X058202Y086744D02*
D03*
X057097Y086865D02*
D03*
X045976Y087751D02*
D03*
X051783Y084700D02*
D03*
X050606Y085581D02*
D03*
X049277Y085631D02*
D03*
X050159Y084700D02*
D03*
X048190Y088636D02*
D03*
X049250Y087432D02*
D03*
X059319Y086570D02*
D03*
X060992Y086865D02*
D03*
X061976Y087751D02*
D03*
X073097Y086865D02*
D03*
X074202Y086744D02*
D03*
X065250Y087432D02*
D03*
X071178Y090359D02*
D03*
X063797Y088538D02*
D03*
X061828Y089276D02*
D03*
X061830Y088835D02*
D03*
X061828Y088489D02*
D03*
X064994Y089391D02*
D03*
X065568Y087455D02*
D03*
X067297Y087400D02*
D03*
X068619Y090064D02*
D03*
X071277Y088489D02*
D03*
X073934Y090457D02*
D03*
X071129Y088981D02*
D03*
X073639Y090310D02*
D03*
X072015Y089375D02*
D03*
X068964Y088833D02*
D03*
X072605Y090310D02*
D03*
X069259Y088735D02*
D03*
X069161Y088390D02*
D03*
X072212Y090260D02*
D03*
X060230Y087971D02*
D03*
X073393Y089030D02*
D03*
X073147Y090211D02*
D03*
X072866Y090147D02*
D03*
X074082Y087997D02*
D03*
X073343Y087997D02*
D03*
X064190Y088636D02*
D03*
X060900Y090300D02*
D03*
X060550Y090300D02*
D03*
X063797Y089129D02*
D03*
X059350Y090600D02*
D03*
X059100Y090150D02*
D03*
X059850Y090150D02*
D03*
X060200Y090150D02*
D03*
X066200Y086300D02*
D03*
X066445Y085638D02*
D03*
X069250Y085900D02*
D03*
X069200Y084800D02*
D03*
X042604Y086796D02*
D03*
X055850Y087100D02*
D03*
X042860Y087990D02*
D03*
X056500Y088100D02*
D03*
X051900Y087450D02*
D03*
X043000Y086750D02*
D03*
X056500Y086850D02*
D03*
X061032Y083768D02*
D03*
X061032Y083374D02*
D03*
X061425Y082980D02*
D03*
X059104Y088057D02*
D03*
X072154Y088000D02*
D03*
X061819Y088000D02*
D03*
X059457Y088000D02*
D03*
X071563Y087606D02*
D03*
X067528Y087606D02*
D03*
X072744Y088000D02*
D03*
X060441Y086819D02*
D03*
X064322Y087409D02*
D03*
X063394Y082587D02*
D03*
X041533Y073640D02*
D03*
X042754Y075530D02*
D03*
X042695Y074585D02*
D03*
X043870Y073102D02*
D03*
X044496Y073138D02*
D03*
X046238Y073955D02*
D03*
X046218Y074270D02*
D03*
X045760Y076598D02*
D03*
X047564Y077649D02*
D03*
X047550Y078751D02*
D03*
X044667Y080100D02*
D03*
X045765Y073640D02*
D03*
X050824Y079900D02*
D03*
X060244Y079043D02*
D03*
X059260Y078453D02*
D03*
X047843Y080618D02*
D03*
X060638Y082587D02*
D03*
X060244Y082980D02*
D03*
X046465Y079043D02*
D03*
X065362Y083768D02*
D03*
X064968Y083374D02*
D03*
X044201Y078157D02*
D03*
X050360Y079100D02*
D03*
X053748Y083965D02*
D03*
X047154Y080323D02*
D03*
X064968Y083768D02*
D03*
X051878Y079732D02*
D03*
X054043Y084260D02*
D03*
X063000Y083768D02*
D03*
X066565Y086250D02*
D03*
X060638Y079043D02*
D03*
X061032Y079437D02*
D03*
X068321Y086530D02*
D03*
X065067Y084654D02*
D03*
X045480Y078256D02*
D03*
X048630Y079043D02*
D03*
X067921Y086425D02*
D03*
X064772Y084752D02*
D03*
X063591Y084260D02*
D03*
X067528Y086524D02*
D03*
X064870Y085244D02*
D03*
X063787Y084654D02*
D03*
X067035Y086524D02*
D03*
X065362Y085835D02*
D03*
X064575Y082980D02*
D03*
X064181Y082587D02*
D03*
X065854Y081996D02*
D03*
X065756Y084161D02*
D03*
X044500Y077768D02*
D03*
X066150Y082193D02*
D03*
X066937Y081406D02*
D03*
X065362Y081012D02*
D03*
X064575Y079043D02*
D03*
X064181Y079437D02*
D03*
X063787Y079831D02*
D03*
X063000Y079437D02*
D03*
X059457Y083768D02*
D03*
X041445Y076976D02*
D03*
X042951Y079467D02*
D03*
X041839Y078256D02*
D03*
X041448Y080221D02*
D03*
X042117Y080208D02*
D03*
X040963Y081100D02*
D03*
X059358Y080028D02*
D03*
X073200Y081146D02*
D03*
X073236Y083177D02*
D03*
X064181Y081406D02*
D03*
X064181Y081012D02*
D03*
X063787Y081799D02*
D03*
X078895Y078600D02*
D03*
X081406Y078650D02*
D03*
X048728Y087409D02*
D03*
X064673Y086720D02*
D03*
X065657Y088542D02*
D03*
X062735Y086100D02*
D03*
X067528Y084260D02*
D03*
X062213Y081406D02*
D03*
X062213Y081799D02*
D03*
X061819Y081799D02*
D03*
X061819Y081406D02*
D03*
X061425Y081406D02*
D03*
X061425Y081799D02*
D03*
X061425Y082193D02*
D03*
X061819Y082193D02*
D03*
X062213Y082193D02*
D03*
X063000Y081406D02*
D03*
X063000Y081799D02*
D03*
X063000Y082193D02*
D03*
X063000Y082587D02*
D03*
X062604Y082589D02*
D03*
X063394Y082193D02*
D03*
X063394Y081799D02*
D03*
X063394Y081406D02*
D03*
X063787Y081406D02*
D03*
X063787Y082193D02*
D03*
X063787Y080224D02*
D03*
X063787Y080618D02*
D03*
X063394Y080618D02*
D03*
X063394Y080224D02*
D03*
X063394Y079831D02*
D03*
X063000Y079831D02*
D03*
X063000Y080224D02*
D03*
X063000Y080618D02*
D03*
X062213Y080224D02*
D03*
X062213Y079831D02*
D03*
X062213Y079437D02*
D03*
X061819Y079831D02*
D03*
X061819Y080224D02*
D03*
X061425Y079831D02*
D03*
X061425Y080224D02*
D03*
X062213Y080618D02*
D03*
X061819Y080618D02*
D03*
X061425Y080618D02*
D03*
X061032Y081012D02*
D03*
X062213Y078650D02*
D03*
X061622Y077665D02*
D03*
X043568Y082250D02*
D03*
D58*
X042639Y070462D02*
D03*
X038961Y065738D02*
D03*
X038961Y066525D02*
D03*
X038961Y067313D02*
D03*
X038961Y068100D02*
D03*
X038961Y068887D02*
D03*
X038961Y069675D02*
D03*
X038961Y070462D02*
D03*
X038924Y063200D02*
D03*
X038924Y062200D02*
D03*
X038924Y061200D02*
D03*
X038924Y059200D02*
D03*
X038924Y058200D02*
D03*
X038900Y057200D02*
D03*
X038924Y056200D02*
D03*
X042850Y056200D02*
D03*
X042850Y057200D02*
D03*
X042826Y058200D02*
D03*
X042850Y059200D02*
D03*
X042850Y060200D02*
D03*
X042850Y061200D02*
D03*
X042850Y062200D02*
D03*
X042850Y063200D02*
D03*
X040529Y080194D02*
D03*
X042222Y081100D02*
D03*
X042232Y081799D02*
D03*
X042232Y082587D02*
D03*
X039700Y082810D02*
D03*
X043246Y083731D02*
D03*
X045939Y084626D02*
D03*
X077764Y077961D02*
D03*
X076484Y078551D02*
D03*
X079187Y084600D02*
D03*
X079043Y085835D02*
D03*
X077764Y084161D02*
D03*
X077200Y086103D02*
D03*
X078059Y087016D02*
D03*
X078400Y083026D02*
D03*
X077567Y082783D02*
D03*
X073925Y082685D02*
D03*
X074122Y080323D02*
D03*
X077665Y080323D02*
D03*
X078846Y079929D02*
D03*
X078400Y081458D02*
D03*
X077862Y077173D02*
D03*
X078400Y075454D02*
D03*
X079700Y076550D02*
D03*
X079634Y073039D02*
D03*
X040000Y085310D02*
D03*
X042067Y085310D02*
D03*
X039869Y088690D02*
D03*
X041000Y089727D02*
D03*
X042130Y088692D02*
D03*
X041146Y090661D02*
D03*
X041146Y092925D02*
D03*
X039276Y092531D02*
D03*
X039276Y094795D02*
D03*
X044000Y080500D02*
D03*
X044000Y083000D02*
D03*
D123*
X078400Y076162D02*
D03*
X078400Y076673D02*
D03*
X062600Y081594D02*
D03*
X062600Y082106D02*
D03*
X062650Y083556D02*
D03*
X062650Y083044D02*
D03*
X064550Y082506D02*
D03*
X064550Y081994D02*
D03*
X062600Y080023D02*
D03*
X062600Y079512D02*
D03*
X064150Y079927D02*
D03*
X064150Y080438D02*
D03*
X064600Y083873D02*
D03*
X064600Y083362D02*
D03*
D203*
X042038Y079800D02*
D03*
X041527Y079800D02*
D03*
X060027Y081100D02*
D03*
X060538Y081100D02*
D03*
X065156Y081400D02*
D03*
X064644Y081400D02*
D03*
X062106Y081050D02*
D03*
X061594Y081050D02*
D03*
X060027Y083400D02*
D03*
X060538Y083400D02*
D03*
X059927Y078700D02*
D03*
X060438Y078700D02*
D03*
X056273Y084200D02*
D03*
X055762Y084200D02*
D03*
X084000Y050500D02*
G01*
G75*
D212*
X097665Y077900D02*
D03*
X098335Y077900D02*
D03*
X101348Y071900D02*
D03*
X102017Y071900D02*
D03*
X103024Y076756D02*
D03*
X103694Y076756D02*
D03*
X101665Y081382D02*
D03*
X100995Y081382D02*
D03*
X105252Y077900D02*
D03*
X104583Y077900D02*
D03*
D163*
X096800Y086152D02*
D03*
X096800Y085483D02*
D03*
X096200Y071648D02*
D03*
X096200Y072317D02*
D03*
X102785Y085892D02*
D03*
X102785Y085223D02*
D03*
X101311Y076322D02*
D03*
X101311Y075653D02*
D03*
X099343Y081145D02*
D03*
X099343Y080476D02*
D03*
X100600Y079552D02*
D03*
X100600Y078883D02*
D03*
D241*
X103168Y058900D02*
D03*
X099231Y058900D02*
D03*
D200*
X109800Y052100D02*
D03*
D96*
X110800Y052100D02*
D03*
X111800Y052100D02*
D03*
X112800Y052100D02*
D03*
X113800Y052100D02*
D03*
X114800Y052100D02*
D03*
X115800Y052100D02*
D03*
X116800Y052100D02*
D03*
D144*
X124181Y053500D02*
D03*
X124181Y113539D02*
D03*
X088000Y113539D02*
D03*
X088000Y053500D02*
D03*
D126*
X098717Y091700D02*
D03*
X103768Y091306D02*
D03*
D74*
X100622Y076461D02*
D03*
X100300Y075500D02*
D03*
X101950Y060566D02*
D03*
X098715Y077900D02*
D03*
X096685Y063370D02*
D03*
X101016Y078429D02*
D03*
X101016Y071736D02*
D03*
X102525Y071900D02*
D03*
X100857Y068488D02*
D03*
X099343Y081579D02*
D03*
X101803Y080398D02*
D03*
X102197Y081185D02*
D03*
X104953Y077248D02*
D03*
X102591Y076461D02*
D03*
X101409Y076854D02*
D03*
X101016Y078035D02*
D03*
X104601Y086470D02*
D03*
X105900Y086303D02*
D03*
X105919Y086628D02*
D03*
X105857Y087084D02*
D03*
X103177Y085804D02*
D03*
X103181Y085293D02*
D03*
X104953Y076854D02*
D03*
X104953Y076461D02*
D03*
X104362Y075378D02*
D03*
X103378Y077248D02*
D03*
X104261Y087487D02*
D03*
X104165Y081185D02*
D03*
X103378Y081185D02*
D03*
X104552Y088363D02*
D03*
X103772Y087091D02*
D03*
X103772Y081185D02*
D03*
X100816Y073308D02*
D03*
X103280Y071047D02*
D03*
X099209Y065500D02*
D03*
X102591Y076854D02*
D03*
X100130Y065831D02*
D03*
X101114Y070358D02*
D03*
X098825Y063837D02*
D03*
X102295Y075083D02*
D03*
X105150Y075280D02*
D03*
X104953Y080791D02*
D03*
X103772Y080791D02*
D03*
X103575Y086008D02*
D03*
X102000Y085909D02*
D03*
X102984Y080791D02*
D03*
X101345Y063828D02*
D03*
X103968Y069866D02*
D03*
X101705Y063961D02*
D03*
X102098Y063862D02*
D03*
X104559Y072917D02*
D03*
X102800Y092393D02*
D03*
X101311Y092504D02*
D03*
X099835Y092504D02*
D03*
X103343Y065500D02*
D03*
X103303Y064870D02*
D03*
X100720Y063764D02*
D03*
X099770Y063730D02*
D03*
X098697Y066760D02*
D03*
X101345Y067175D02*
D03*
X105740Y081972D02*
D03*
X105346Y081185D02*
D03*
X104559Y080791D02*
D03*
X104067Y072524D02*
D03*
X099441Y081972D02*
D03*
X099835Y081579D02*
D03*
X105346Y081579D02*
D03*
X105543Y073114D02*
D03*
X105346Y076067D02*
D03*
X105740Y075673D02*
D03*
X105346Y078429D02*
D03*
X105839Y079807D02*
D03*
X105839Y077839D02*
D03*
X099835Y081972D02*
D03*
X099244Y070654D02*
D03*
X099146Y072380D02*
D03*
X100228Y081185D02*
D03*
X099343Y079807D02*
D03*
X099343Y077839D02*
D03*
X099244Y075870D02*
D03*
X100228Y076461D02*
D03*
X102394Y083843D02*
D03*
X100327Y085909D02*
D03*
X100577Y083100D02*
D03*
X102295Y082957D02*
D03*
X102591Y081185D02*
D03*
X101606Y082071D02*
D03*
X103378Y081579D02*
D03*
X103378Y075673D02*
D03*
X101803Y075575D02*
D03*
X101016Y079217D02*
D03*
X101409Y079217D02*
D03*
X101409Y079610D02*
D03*
X101409Y080004D02*
D03*
X101803Y079610D02*
D03*
X101803Y079217D02*
D03*
X102197Y079217D02*
D03*
X102197Y079610D02*
D03*
X102197Y080004D02*
D03*
X101803Y080004D02*
D03*
X102197Y080398D02*
D03*
X101016Y080398D02*
D03*
X100622Y080791D02*
D03*
X102984Y079217D02*
D03*
X102984Y079610D02*
D03*
X102984Y080004D02*
D03*
X102984Y080398D02*
D03*
X103378Y080004D02*
D03*
X103378Y079610D02*
D03*
X103378Y079217D02*
D03*
X103772Y079217D02*
D03*
X103772Y079610D02*
D03*
X103772Y080004D02*
D03*
X104165Y079217D02*
D03*
X104165Y080398D02*
D03*
X104165Y080791D02*
D03*
X103378Y080398D02*
D03*
X103280Y087790D02*
D03*
X103280Y088370D02*
D03*
X103214Y088107D02*
D03*
X103280Y087475D02*
D03*
X102661Y084701D02*
D03*
X102082Y086828D02*
D03*
X102000Y086402D02*
D03*
X099974Y088362D02*
D03*
X099974Y084966D02*
D03*
X101409Y078429D02*
D03*
X101803Y078429D02*
D03*
X102197Y078429D02*
D03*
X102197Y078035D02*
D03*
X101803Y077642D02*
D03*
X101409Y077642D02*
D03*
X101803Y078035D02*
D03*
X101409Y078035D02*
D03*
X101016Y077248D02*
D03*
X100622Y076854D02*
D03*
X102197Y077248D02*
D03*
X102197Y077642D02*
D03*
X102984Y078429D02*
D03*
X102984Y078035D02*
D03*
X102984Y077642D02*
D03*
X102984Y077248D02*
D03*
X103378Y078429D02*
D03*
X103378Y078035D02*
D03*
X103378Y077642D02*
D03*
X103772Y077642D02*
D03*
X103772Y078035D02*
D03*
X103772Y078429D02*
D03*
X104165Y078429D02*
D03*
X104165Y077248D02*
D03*
X104165Y076854D02*
D03*
X104559Y076067D02*
D03*
X104215Y070801D02*
D03*
X102591Y076067D02*
D03*
X101400Y087032D02*
D03*
X104167Y089700D02*
D03*
X100228Y079217D02*
D03*
X111398Y059602D02*
D03*
X111378Y059996D02*
D03*
X111378Y060390D02*
D03*
X111378Y060783D02*
D03*
X111378Y061177D02*
D03*
X111378Y061965D02*
D03*
X111378Y062752D02*
D03*
X111378Y063146D02*
D03*
X111378Y063539D02*
D03*
X111378Y063933D02*
D03*
X111378Y062358D02*
D03*
X114370Y059799D02*
D03*
X114370Y060587D02*
D03*
X114370Y060980D02*
D03*
X114370Y061374D02*
D03*
X114370Y061768D02*
D03*
X114370Y062161D02*
D03*
X114370Y062555D02*
D03*
X114370Y063343D02*
D03*
X114370Y063736D02*
D03*
X114370Y064130D02*
D03*
X114370Y064524D02*
D03*
X114370Y065311D02*
D03*
X114429Y064917D02*
D03*
X111516Y064721D02*
D03*
D58*
X096667Y066600D02*
D03*
X095674Y068265D02*
D03*
X104165Y058055D02*
D03*
X102443Y058892D02*
D03*
X101606Y058941D02*
D03*
X100032Y058941D02*
D03*
X098309Y058744D02*
D03*
X098838Y060732D02*
D03*
X096669Y060600D02*
D03*
X096669Y061600D02*
D03*
X096669Y062600D02*
D03*
X096669Y064600D02*
D03*
X096669Y065600D02*
D03*
X092931Y067600D02*
D03*
X092931Y066600D02*
D03*
X092931Y065600D02*
D03*
X092931Y063600D02*
D03*
X092931Y062600D02*
D03*
X092931Y061600D02*
D03*
X092931Y060600D02*
D03*
X097600Y089867D02*
D03*
X096783Y088715D02*
D03*
X096833Y087976D02*
D03*
X098049Y086268D02*
D03*
X096783Y086697D02*
D03*
X097423Y084728D02*
D03*
X096537Y083793D02*
D03*
X094667Y085565D02*
D03*
X093782Y084728D02*
D03*
X096144Y085663D02*
D03*
X099868Y085500D02*
D03*
X098457Y089059D02*
D03*
X097965Y083793D02*
D03*
X097965Y081382D02*
D03*
X097325Y082120D02*
D03*
X094694Y083378D02*
D03*
X093795Y082500D02*
D03*
X097374Y080988D02*
D03*
X096439Y080939D02*
D03*
X096685Y079512D02*
D03*
X098211Y078528D02*
D03*
X097091Y077900D02*
D03*
X097106Y075942D02*
D03*
X095294Y075883D02*
D03*
X096771Y073200D02*
D03*
X097400Y075007D02*
D03*
X096685Y074049D02*
D03*
X096200Y075090D02*
D03*
X095475Y072700D02*
D03*
X096903Y072200D02*
D03*
X095517Y071700D02*
D03*
X096200Y071188D02*
D03*
X095701Y070752D02*
D03*
X093880Y070752D02*
D03*
X093043Y069915D02*
D03*
X094470Y075427D02*
D03*
X093634Y078183D02*
D03*
X094731Y080400D02*
D03*
X094800Y078668D02*
D03*
X093400Y073500D02*
D03*
X093300Y071900D02*
D03*
X093300Y088500D02*
D03*
X093300Y086900D02*
D03*
X095100Y088400D02*
D03*
X095100Y087000D02*
D03*
X112925Y059433D02*
D03*
X112953Y060193D02*
D03*
X114571Y062949D02*
D03*
X111476Y064327D02*
D03*
D75*
X111378Y061571D02*
D03*
D203*
X096544Y081500D02*
D03*
X097056Y081500D02*
D03*
X105485Y086598D02*
D03*
X104973Y086598D02*
D03*
X100483Y064100D02*
D03*
X099971Y064100D02*
D03*
X102926Y081579D02*
D03*
X102414Y081579D02*
D03*
X105895Y077250D02*
D03*
X105384Y077250D02*
D03*
X101074Y080791D02*
D03*
X101586Y080791D02*
D03*
X104500Y078724D02*
D03*
X105012Y078724D02*
D03*
X103831Y078823D02*
D03*
X103319Y078823D02*
D03*
D123*
X096200Y074438D02*
D03*
X096200Y073927D02*
D03*
X102984Y075633D02*
D03*
X102984Y076145D02*
D03*
X100622Y077287D02*
D03*
X100622Y077799D02*
D03*
X102591Y080044D02*
D03*
X102591Y079532D02*
D03*
X102600Y077562D02*
D03*
X102600Y078073D02*
D03*
D277*
X112185Y065114D02*
D03*
X113760Y065311D02*
D03*
X112185Y064721D02*
D03*
X112185Y064327D02*
D03*
X112185Y063933D02*
D03*
X112185Y063539D02*
D03*
X112185Y063146D02*
D03*
X112185Y062752D02*
D03*
X112185Y062358D02*
D03*
X112185Y061965D02*
D03*
X112185Y061571D02*
D03*
X112185Y061177D02*
D03*
X112185Y060783D02*
D03*
X112185Y060390D02*
D03*
X112185Y059996D02*
D03*
X112185Y059602D02*
D03*
X113760Y064917D02*
D03*
X113760Y064524D02*
D03*
X113760Y064130D02*
D03*
X113760Y063736D02*
D03*
X113760Y063343D02*
D03*
X113760Y062949D02*
D03*
X113760Y062555D02*
D03*
X113760Y062161D02*
D03*
X113760Y061768D02*
D03*
X113760Y061374D02*
D03*
X113760Y060980D02*
D03*
X113760Y060587D02*
D03*
X113760Y060193D02*
D03*
X113760Y059799D02*
D03*
X113760Y059406D02*
D03*
D276*
X112972Y058283D02*
D03*
X112972Y066433D02*
D03*
M02*
