%
T01C0.118100
X124181Y113539
X124181Y53500
X88000Y53500
X88000Y113539
T02C0.053100
X62917Y43000
X67969Y43394
X73917Y43000
X78968Y43394
X84917Y43000
X89969Y43394
X51218Y81856
X46167Y82250
X103768Y91306
X98717Y91700
T03C0.039400
X43332Y46800
X47269Y46800
X34100Y64832
X34100Y68768
X40800Y66131
X40800Y70069
X103168Y58900
X99231Y58900
T04C0.035400
X11157Y45464
X12157Y45464
X71000Y52250
X70000Y52250
X70000Y53250
X71000Y53250
X71000Y54250
X70000Y54250
X70000Y55250
X71000Y55250
X71000Y56250
X70000Y56250
X70000Y57250
X71000Y57250
X71000Y58250
X70000Y58250
X70000Y59250
X71000Y59250
X71000Y63500
X70000Y63500
X70000Y64500
X71000Y64500
X71000Y65500
X70000Y65500
X70000Y66500
X71000Y66500
X71000Y67500
X70000Y67500
X70000Y68500
X71000Y68500
X71000Y69500
X70000Y69500
X70000Y70500
X71000Y70500
X63000Y70500
X63000Y69500
X63000Y68500
X63000Y67500
X63000Y66500
X63000Y65500
X63000Y64500
X63000Y63500
X62000Y63500
X62000Y64500
X62000Y65500
X62000Y66500
X62000Y67500
X62000Y68500
X62000Y69500
X62000Y70500
X55000Y70500
X55000Y69500
X55000Y68500
X55000Y67500
X55000Y66500
X55000Y65500
X55000Y64500
X55000Y63500
X54000Y63500
X54000Y64500
X54000Y65500
X54000Y66500
X54000Y67500
X54000Y68500
X54000Y69500
X54000Y70500
X54000Y59250
X54000Y58250
X54000Y57250
X55000Y57250
X55000Y58250
X55000Y59250
X62000Y59250
X62000Y58250
X62000Y57250
X63000Y57250
X63000Y58250
X63000Y59250
X63000Y56250
X63000Y55250
X63000Y54250
X63000Y53250
X63000Y52250
X62000Y52250
X62000Y53250
X62000Y54250
X62000Y55250
X62000Y56250
X55000Y56250
X55000Y55250
X55000Y54250
X55000Y53250
X55000Y52250
X54000Y52250
X54000Y53250
X54000Y54250
X54000Y55250
X54000Y56250
X47000Y56250
X47000Y55250
X47000Y54250
X47000Y53250
X47000Y52250
X46000Y52250
X46000Y53250
X46000Y54250
X46000Y55250
X46000Y56250
X46000Y57250
X47000Y57250
X47000Y58250
X46000Y58250
X46000Y59250
X47000Y59250
X47000Y63500
X46000Y63500
X46000Y64500
X47000Y64500
X47000Y65500
X46000Y65500
X46000Y66500
X47000Y66500
X47000Y67500
X46000Y67500
X46000Y68500
X47000Y68500
X47000Y69500
X46000Y69500
X46000Y70500
X47000Y70500
X116800Y52100
X115800Y52100
X114800Y52100
X113800Y52100
X112800Y52100
X111800Y52100
X110800Y52100
X109800Y52100
T05C0.020000
X84264Y12354
X87768Y12394
X101847Y9420
X101847Y8520
X101847Y7620
X101847Y6720
X101847Y5820
X102747Y5820
X103647Y5820
X104547Y5820
X105447Y5820
X105447Y6720
X105447Y7620
X105447Y8520
X105447Y9420
X104547Y9420
X103647Y9420
X102747Y9420
X112083Y9322
X112983Y9322
X113883Y9322
X114783Y9322
X115683Y9322
X115683Y8422
X115683Y7522
X115683Y6622
X115683Y5722
X114783Y5722
X113883Y5722
X112983Y5722
X112083Y5722
X112083Y6622
X112083Y7522
X112083Y8422
X122964Y29795
X124382Y30583
X124382Y31567
X124382Y32551
X124421Y33575
X126586Y34047
X126626Y33063
X126586Y32079
X126567Y31074
X128456Y29835
X130464Y29795
X131882Y30583
X131882Y31567
X131882Y32551
X131921Y33575
X134086Y34047
X134126Y33063
X134086Y32079
X134067Y31074
X135976Y31803
X136015Y29795
X128535Y33338
X121035Y33338
X119126Y33063
X119086Y34047
X119086Y32079
X119067Y31074
X116882Y30583
X116882Y31567
X116882Y32551
X116921Y33575
X113535Y33338
X111626Y33063
X111586Y34047
X111586Y32079
X111567Y31074
X109382Y30583
X109382Y31567
X109382Y32551
X109421Y33575
X107964Y29795
X113456Y29835
X115464Y29795
X120956Y29835
X105956Y29835
X104124Y31055
X104143Y32060
X104182Y33044
X104143Y34028
X106035Y33338
X101978Y33556
X101938Y32532
X101938Y31548
X101938Y30564
X100464Y29795
X98456Y29835
X96567Y31074
X96586Y32079
X96626Y33063
X96586Y34047
X94421Y33575
X94382Y32551
X94382Y31567
X94382Y30583
X92964Y29795
X98535Y33338
X91035Y33338
X89126Y33063
X89086Y34047
X89086Y32079
X89067Y31074
X86882Y30583
X86882Y31567
X86882Y32551
X86921Y33575
X83535Y33338
X81626Y33063
X81586Y34047
X81586Y32079
X81567Y31074
X79382Y30583
X79382Y31567
X79382Y32551
X79421Y33575
X83456Y29835
X85464Y29795
X90956Y29835
X87118Y21803
X83575Y21409
X70976Y20425
X71882Y30583
X71882Y31567
X71882Y32551
X71921Y33575
X74086Y34047
X74126Y33063
X74086Y32079
X74067Y31074
X67748Y30268
X66604Y31016
X66623Y32020
X66663Y33004
X66623Y33989
X68516Y33457
X64458Y33516
X64419Y32493
X64419Y31508
X64419Y30524
X61000Y29819
X61016Y33457
X59126Y33063
X59086Y34047
X59086Y32079
X59067Y31074
X56882Y30583
X56882Y31567
X56882Y32551
X56921Y33575
X53516Y33457
X51626Y33063
X51586Y34047
X51586Y32079
X51567Y31074
X49382Y30583
X49382Y31567
X49382Y32551
X49421Y33575
X46016Y33457
X46000Y29819
X53500Y29819
X44067Y31074
X44086Y32079
X44126Y33063
X44086Y34047
X41921Y33575
X41882Y32551
X41882Y31567
X41882Y30583
X38500Y29819
X36567Y31074
X36586Y32079
X36626Y33063
X36586Y34047
X38516Y33457
X34421Y33575
X34382Y32551
X34382Y31567
X34382Y30583
X31000Y29819
X29067Y31074
X29086Y32079
X29126Y33063
X29086Y34047
X31016Y33457
X26921Y33575
X26882Y32551
X26882Y31567
X26882Y30583
X23496Y29795
X21567Y31074
X21586Y32079
X21626Y33063
X21586Y34047
X23500Y33382
X19421Y33575
X19382Y32551
X19382Y31567
X19382Y30583
X17984Y29756
X17984Y33339
X17157Y34205
X19436Y34574
X18940Y36184
X21607Y36074
X21590Y35074
X25504Y37000
X26936Y34574
X29090Y35074
X29107Y36074
X33004Y37000
X34436Y34574
X36590Y35074
X36607Y36074
X40504Y37000
X41936Y34574
X44090Y35074
X44107Y36074
X37500Y44000
X36500Y44000
X35500Y44000
X34500Y44000
X31500Y44000
X30500Y44000
X30500Y48000
X45071Y43496
X47777Y44115
X48004Y37000
X49436Y34574
X51590Y35074
X51607Y36074
X55504Y37000
X56936Y34574
X59090Y35074
X59107Y36074
X59126Y44716
X59165Y45622
X60050Y44617
X57791Y46295
X57039Y46331
X56882Y47079
X56277Y47054
X57397Y46925
X55504Y45897
X54520Y46252
X53338Y45976
X53929Y42748
X54990Y42392
X62000Y44750
X63000Y44750
X64000Y44750
X64022Y43783
X65518Y43783
X66000Y44750
X67000Y44750
X67014Y43783
X68000Y44750
X69000Y44750
X69000Y48626
X68000Y48626
X67000Y48626
X66000Y48626
X64000Y48626
X63000Y48626
X62000Y48626
X61094Y46212
X65000Y44724
X73000Y44750
X74000Y44750
X75000Y44750
X75008Y43823
X75000Y48626
X74000Y48626
X73000Y48626
X74107Y36074
X74090Y35074
X71936Y34574
X70504Y37000
X66644Y36016
X66627Y35016
X64473Y34516
X63023Y37039
X79436Y34574
X81590Y35074
X81607Y36074
X83456Y36960
X83456Y34992
X86936Y34574
X89090Y35074
X89107Y36074
X90956Y36960
X90956Y34992
X91000Y44750
X90000Y44750
X89000Y44750
X89000Y43853
X87500Y43789
X87000Y44724
X88000Y44750
X86000Y44750
X86000Y43824
X85000Y44750
X84000Y44750
X84000Y48626
X85000Y48626
X86000Y48626
X88000Y48626
X89000Y48626
X90000Y48626
X91000Y48626
X80000Y48626
X79000Y48626
X78000Y48626
X77000Y48626
X77000Y44750
X78000Y44750
X78008Y43839
X76500Y43866
X76000Y44724
X79000Y44750
X80000Y44750
X94436Y34574
X96590Y35074
X96607Y36074
X98456Y36960
X98456Y34992
X101993Y34555
X104146Y35055
X104163Y36055
X105956Y36960
X105956Y34992
X109436Y34574
X111590Y35074
X111607Y36074
X113456Y36960
X113456Y34992
X116936Y34574
X119090Y35074
X119107Y36074
X120956Y36960
X120956Y34992
X124436Y34574
X126590Y35074
X126607Y36074
X128456Y36960
X128456Y34992
X131936Y34574
X134090Y35074
X134107Y36074
X136000Y36984
X136000Y34977
X35840Y88900
X35932Y77632
X35832Y72132
X26100Y61150
X26700Y58050
X31200Y70400
X31000Y71700
X31049Y72651
X31300Y73800
X30560Y74260
X30900Y76500
X32400Y76600
X32300Y78300
X31600Y78300
X30577Y78773
X31140Y79810
X33250Y79350
X33700Y77600
X34931Y76769
X34968Y78431
X34150Y75550
X33050Y75450
X33000Y73700
X33700Y72100
X34831Y71268
X34868Y72931
X32300Y71500
X32900Y70765
X34450Y80600
X34600Y84150
X32550Y83200
X30300Y80600
X28701Y81951
X31300Y89400
X32340Y90500
X33300Y89800
X34520Y89880
X35400Y90400
X34000Y91240
X34831Y92331
X33168Y92369
X33969Y93332
X31291Y93741
X27600Y94700
X22135Y95165
X21500Y95400
X20535Y95135
X33649Y88511
X34751Y88489
X21200Y103500
X19800Y103500
X18200Y103500
X16400Y103500
X16700Y95400
X17335Y95165
X18200Y95400
X18935Y95135
X19700Y95400
X12335Y80535
X12800Y79300
X13800Y79300
X11900Y77800
X10832Y77169
X10550Y76000
X12400Y75950
X12800Y76400
X14500Y76050
X10832Y78732
X9800Y77900
X12950Y59000
X13800Y58500
X15650Y58550
X16400Y59300
X79634Y73039
X79700Y76550
X78400Y75454
X77862Y77173
X77764Y77961
X76484Y78551
X77665Y80323
X78846Y79929
X78400Y81458
X78400Y83026
X77567Y82783
X77764Y84161
X79187Y84600
X79043Y85835
X77200Y86103
X78059Y87016
X73925Y82685
X74122Y80323
X42850Y56200
X38924Y56200
X38900Y57200
X38924Y58200
X38924Y59200
X38924Y61200
X38924Y62200
X38924Y63200
X38961Y65738
X38961Y66525
X38961Y67313
X38961Y68100
X38961Y68887
X38961Y69675
X38961Y70462
X42639Y70462
X42850Y63200
X42850Y62200
X42850Y61200
X42850Y60200
X42850Y59200
X42826Y58200
X42850Y57200
X42222Y81100
X42232Y81799
X42232Y82587
X43246Y83731
X42067Y85310
X40000Y85310
X39700Y82810
X40529Y80194
X45939Y84626
X42130Y88692
X41000Y89727
X41146Y90661
X41146Y92925
X39276Y92531
X39276Y94795
X39869Y88690
X99868Y85500
X98049Y86268
X96783Y86697
X96833Y87976
X96783Y88715
X97600Y89867
X98457Y89059
X95100Y88400
X95100Y87000
X94667Y85565
X96144Y85663
X97423Y84728
X97965Y83793
X96537Y83793
X94694Y83378
X93782Y84728
X93300Y86900
X93300Y88500
X93795Y82500
X94731Y80400
X94800Y78668
X93634Y78183
X94470Y75427
X95294Y75883
X96200Y75090
X97400Y75007
X97106Y75942
X97091Y77900
X98211Y78528
X96685Y79512
X96439Y80939
X97374Y80988
X97965Y81382
X97325Y82120
X96685Y74049
X96771Y73200
X96903Y72200
X96200Y71188
X95701Y70752
X95517Y71700
X95475Y72700
X93400Y73500
X93300Y71900
X93880Y70752
X93043Y69915
X95674Y68265
X96667Y66600
X96669Y65600
X96669Y64600
X96669Y62600
X96669Y61600
X96669Y60600
X98838Y60732
X98309Y58744
X100032Y58941
X101606Y58941
X102443Y58892
X104165Y58055
X92931Y60600
X92931Y61600
X92931Y62600
X92931Y63600
X92931Y65600
X92931Y66600
X92931Y67600
T06C0.010000
X55622Y18063
X57197Y18358
X58280Y17866
X64283Y12354
X64874Y12453
X72157Y12945
X72059Y13240
X72000Y13500
X71875Y13750
X72551Y13732
X72551Y13339
X72945Y13339
X73339Y13339
X73339Y13732
X73732Y13732
X73732Y13339
X74520Y13339
X74913Y13339
X75307Y13339
X75307Y13732
X75701Y13732
X75701Y13339
X75701Y12945
X75701Y12551
X75307Y12551
X74913Y12551
X74913Y12945
X75307Y14126
X75701Y14126
X75701Y14520
X75307Y14520
X75307Y15307
X75307Y15701
X75701Y15701
X75701Y15307
X75701Y16094
X75307Y16094
X75307Y16488
X75701Y16488
X75701Y16882
X75307Y16882
X75307Y17276
X75701Y17276
X74913Y16882
X74913Y16488
X74520Y15701
X74520Y14913
X73732Y15701
X72945Y15701
X72945Y16094
X72945Y16488
X72551Y16488
X72551Y16094
X71961Y16291
X72000Y16625
X71635Y16125
X71491Y15875
X72059Y15110
X72079Y14717
X73339Y14126
X73339Y12551
X72945Y12551
X72945Y12157
X72945Y11764
X72551Y11764
X73339Y11764
X73732Y11764
X74126Y11764
X74126Y11370
X74126Y10976
X73732Y10976
X73339Y10976
X72945Y10976
X73339Y10583
X73732Y10583
X74126Y10583
X74520Y10583
X74520Y10976
X74913Y10976
X74913Y10583
X75307Y10583
X75701Y10583
X75701Y11370
X75307Y11764
X74520Y11370
X73732Y11370
X73339Y11370
X73339Y12157
X72551Y10189
X72157Y10189
X72512Y9756
X73732Y9697
X75504Y9303
X75110Y8811
X75307Y7728
X75406Y7335
X75110Y5366
X74913Y18063
X74913Y18457
X75307Y18457
X75701Y18850
X74520Y18063
X73732Y18063
X73732Y18850
X73339Y18850
X72551Y18063
X72945Y17276
X73339Y16882
X73339Y16488
X71665Y17571
X71370Y17866
X76094Y18063
X76488Y18063
X76488Y18457
X76882Y18457
X76882Y18063
X76882Y17669
X76488Y17669
X76094Y17276
X76094Y16882
X76488Y16882
X76488Y16488
X76488Y16094
X76488Y15701
X76488Y15307
X76882Y15307
X76882Y15701
X76882Y16094
X76882Y16488
X76882Y16882
X77669Y16882
X77669Y16488
X77276Y16488
X77669Y16094
X77669Y15701
X77669Y15307
X78063Y15307
X78063Y15701
X78063Y16094
X78457Y16094
X78850Y16094
X79244Y16094
X79244Y16488
X78850Y16488
X78850Y16882
X78850Y17276
X79244Y17276
X79244Y17669
X79638Y17276
X79638Y16882
X79638Y16488
X80425Y16488
X80819Y16094
X81213Y16094
X81213Y16882
X80819Y16882
X80819Y18063
X80425Y18063
X80425Y18457
X80819Y18850
X81606Y18850
X82000Y18063
X83500Y17625
X83625Y17375
X82591Y15406
X82492Y15110
X82886Y15110
X82492Y14717
X82000Y15307
X81606Y15307
X82000Y15701
X81606Y14126
X80819Y14126
X80425Y13732
X79638Y13339
X79244Y13339
X78850Y13339
X78850Y13732
X79244Y13732
X79244Y14126
X78850Y14126
X78850Y14520
X79244Y14520
X79244Y14913
X78850Y14913
X78850Y15307
X79244Y15307
X78850Y15701
X78457Y15701
X78457Y15307
X78457Y14520
X78063Y14520
X78063Y14126
X78063Y13732
X78063Y13339
X77669Y13339
X77669Y13732
X77669Y14126
X77669Y14520
X76882Y14520
X76882Y14126
X76488Y14126
X76488Y13732
X76488Y13339
X76094Y13339
X76094Y13732
X76094Y14126
X76094Y14520
X76488Y14520
X76882Y13732
X76882Y13339
X76882Y12945
X77276Y12945
X77669Y12945
X77669Y12551
X77669Y12157
X77669Y11764
X77669Y11370
X77669Y10976
X78063Y10976
X78457Y10976
X79244Y10976
X79638Y10976
X79638Y11370
X80032Y11370
X80032Y10976
X80425Y10976
X80819Y10976
X81213Y10976
X81213Y11370
X80819Y11370
X80425Y11370
X80425Y11764
X80819Y11764
X80819Y12157
X81213Y12157
X81213Y11764
X81606Y12157
X81606Y12551
X82000Y12551
X82492Y12157
X82984Y12748
X81213Y12945
X80032Y12551
X80032Y12157
X79638Y11764
X80032Y10583
X80425Y10583
X80819Y10583
X81213Y10583
X81606Y10583
X81606Y10976
X81606Y11370
X82000Y10189
X82276Y10110
X82000Y9795
X82945Y7984
X83535Y8024
X84250Y8400
X85149Y8260
X85425Y8142
X85583Y7906
X85779Y8220
X86094Y7984
X86409Y8220
X86724Y8023
X87000Y8181
X87236Y8024
X87630Y7669
X87630Y7354
X87630Y7039
X87039Y6725
X86724Y6685
X86409Y6685
X86094Y6724
X85779Y6725
X85543Y6567
X85268Y6724
X84913Y6764
X84598Y6764
X84283Y6803
X83693Y6803
X82669Y6961
X82699Y5888
X83929Y4913
X84362Y4913
X84638Y4795
X84992Y4874
X85268Y4677
X85464Y4914
X85779Y4717
X86094Y4665
X86173Y4913
X86409Y4638
X86724Y4795
X87039Y4795
X87669Y5150
X87669Y5465
X87630Y5779
X87197Y6094
X86882Y6094
X86567Y6134
X86173Y6264
X85858Y6252
X85622Y6094
X85268Y6213
X84834Y6094
X86055Y6016
X84795Y7906
X85642Y10878
X79244Y10583
X78850Y10583
X79244Y10189
X79244Y9461
X78654Y9598
X78260Y9598
X77866Y9402
X77472Y9697
X77079Y9697
X76094Y9697
X76488Y10189
X76882Y10583
X76882Y10976
X76488Y10976
X76094Y10976
X76094Y11764
X76094Y12157
X76094Y12551
X76094Y12945
X76488Y12551
X76882Y12551
X76882Y12157
X76882Y11764
X76882Y11370
X76488Y11764
X76488Y12157
X78063Y12157
X78063Y11764
X78457Y12157
X78457Y12551
X78457Y12945
X78063Y12945
X78457Y13339
X78457Y13732
X78457Y14126
X78850Y12945
X79244Y12945
X78850Y12551
X77276Y13339
X77669Y10583
X78063Y10583
X78457Y10189
X76783Y8516
X76291Y8122
X76291Y4972
X78358Y4087
X79480Y4047
X79441Y6350
X78457Y6547
X79638Y7728
X80425Y14913
X78457Y16488
X78457Y16882
X78457Y17276
X77669Y17276
X77276Y17669
X77276Y18063
X77669Y18063
X78063Y18063
X78457Y18457
X78457Y18850
X79244Y18850
X79638Y18457
X77276Y18850
X76488Y18850
X76094Y18850
X76094Y16488
X76094Y16094
X76094Y15701
X76094Y15307
X78063Y16488
X116449Y25248
X116881Y26074
X85937Y27315
X85583Y27315
X85228Y27472
X84874Y27591
X84559Y27630
X84244Y28063
X83890Y28378
X83181Y28299
X81606Y21409
X81606Y21016
X81606Y20327
X81952Y20327
X82000Y20032
X82362Y20000
X82506Y19750
X82000Y19638
X81606Y19244
X81213Y19244
X80819Y19638
X80425Y19638
X80032Y19244
X79638Y19638
X78457Y19244
X78063Y19244
X77276Y19638
X77079Y20228
X77276Y20474
X77669Y20581
X75898Y20622
X76094Y19244
X80130Y20819
X75701Y20819
X75701Y19638
X75701Y19244
X74913Y19244
X73732Y19638
X73339Y19244
X72945Y19244
X72551Y19638
X72551Y20032
X72118Y19677
X73142Y20661
X73339Y20898
X73634Y20917
X68732Y20504
X73299Y28496
X73535Y28732
X73732Y28929
X73929Y29126
X74087Y29362
X74283Y29598
X74402Y29992
X51587Y29579
X52965Y26331
X54146Y24264
X51094Y22295
X43850Y46800
X42600Y46850
X38500Y47000
X38300Y47750
X37050Y47850
X35950Y47800
X35000Y47700
X33850Y48000
X33000Y47900
X32000Y47900
X32500Y44100
X33500Y43950
X44600Y43800
X44650Y44600
X44750Y45150
X44500Y46900
X45300Y46900
X46100Y46900
X46750Y46900
X47800Y46950
X48000Y45150
X47550Y44850
X45780Y43555
X46468Y41587
X47157Y40898
X51764Y43102
X53220Y40071
X54146Y40602
X54441Y40799
X55622Y39913
X56016Y39028
X56803Y38240
X52965Y38835
X54756Y45268
X55780Y45228
X56409Y45543
X57161Y45980
X56094Y44008
X53000Y47550
X52450Y47850
X65000Y48700
X65000Y42250
X64500Y42250
X66000Y42250
X66500Y42200
X71173Y42900
X75500Y42200
X74709Y36574
X74126Y37157
X76000Y41250
X77000Y42000
X77500Y42100
X76150Y44250
X76100Y48750
X87050Y48600
X86959Y42359
X86065Y42065
X88000Y41500
X88500Y42250
X82550Y38850
X96862Y38339
X98378Y40740
X100799Y38634
X106488Y40701
X77469Y73827
X76764Y73361
X76173Y73361
X75583Y73361
X74992Y73361
X74008Y73361
X73417Y73361
X72827Y73361
X72236Y73361
X71661Y74319
X71661Y75402
X72236Y75122
X72827Y75122
X73417Y75122
X74008Y75122
X74663Y75106
X74992Y75122
X75303Y74959
X75583Y75122
X76173Y75122
X76764Y75122
X77469Y75008
X75205Y76337
X75451Y76681
X75402Y77075
X75008Y78108
X78895Y78600
X81406Y78650
X72990Y80618
X73200Y81146
X73236Y83177
X71362Y81500
X69299Y83177
X69200Y84800
X69250Y85900
X69150Y87350
X68321Y86530
X67921Y86425
X67528Y86524
X67035Y86524
X66565Y86250
X66200Y86300
X66445Y85638
X66405Y87701
X67297Y87400
X67528Y87606
X67528Y84260
X66937Y81406
X66346Y81209
X66150Y82193
X66839Y76632
X67035Y76337
X67528Y76632
X67478Y77124
X67970Y77075
X68069Y77616
X68173Y75139
X68764Y75139
X69594Y75008
X69594Y73925
X68764Y73361
X68173Y73361
X67583Y73361
X66992Y73361
X66992Y75139
X67583Y75139
X71250Y87350
X71563Y87606
X73343Y87997
X74082Y87997
X74202Y86744
X73097Y86865
X75394Y86432
X78600Y87557
X72744Y88000
X72154Y88000
X71277Y88489
X71071Y88689
X71129Y88981
X72015Y89375
X72212Y90260
X72605Y90310
X72866Y90147
X73147Y90211
X73639Y90310
X73934Y90457
X73393Y89030
X71178Y90359
X70087Y89280
X70180Y88399
X69161Y88390
X69259Y88735
X68964Y88833
X68619Y90064
X64994Y89391
X63797Y89129
X63748Y88833
X63797Y88538
X64190Y88636
X62800Y88495
X61828Y88489
X61830Y88835
X61828Y89276
X62902Y89378
X61819Y88000
X59457Y88000
X59104Y88057
X59100Y90150
X59350Y90600
X59850Y90150
X60200Y90150
X60550Y90300
X60900Y90300
X57934Y90457
X57639Y90310
X57147Y90211
X56866Y90147
X56605Y90310
X56212Y90260
X56015Y89375
X55129Y88981
X55031Y88686
X55277Y88489
X54150Y88304
X54142Y89280
X53259Y88735
X52964Y88833
X53161Y88390
X52619Y90064
X55178Y90359
X57393Y89030
X56500Y88100
X65657Y88542
X65568Y87455
X65250Y87432
X64322Y87409
X64141Y87652
X64673Y86720
X65362Y85835
X64870Y85244
X64772Y84752
X65067Y84654
X64968Y83768
X64968Y83374
X64966Y82589
X64575Y82980
X64181Y82587
X63787Y82193
X63787Y81799
X63787Y81406
X64181Y81406
X64181Y81012
X63787Y80618
X63394Y80618
X63000Y80618
X63000Y80224
X63000Y79831
X63394Y79831
X63400Y79450
X63000Y79437
X62213Y79437
X62213Y79831
X61819Y79831
X61819Y80224
X62213Y80224
X62213Y80618
X61819Y80618
X61425Y80618
X61425Y80224
X61425Y79831
X61423Y79046
X61423Y78652
X61029Y78652
X60638Y79043
X60244Y79043
X60242Y79440
X60635Y79440
X60635Y79833
X60242Y79833
X60242Y80227
X60635Y80227
X60635Y80621
X61032Y80618
X61032Y81012
X61032Y81406
X61425Y81406
X61425Y81799
X61425Y82193
X61819Y82193
X62213Y82193
X62213Y81799
X61819Y81799
X61819Y81406
X62213Y81406
X63000Y81406
X63394Y81406
X63394Y81799
X63394Y82193
X63000Y82193
X63000Y81799
X63000Y82587
X63394Y82587
X62604Y82589
X61425Y82980
X61032Y83374
X61032Y83768
X61816Y83771
X61718Y84263
X63000Y83768
X63591Y84260
X63787Y84654
X64179Y83377
X65362Y83768
X65756Y84161
X65754Y82983
X65854Y81996
X65362Y81012
X64968Y80618
X64968Y80224
X64575Y80224
X64575Y79831
X64968Y79831
X64968Y79437
X64575Y79437
X64181Y79437
X63787Y79831
X63787Y80224
X63394Y80224
X63394Y78650
X63787Y78650
X64181Y78650
X64950Y78650
X64968Y78256
X65362Y78256
X65800Y78300
X65756Y77862
X64575Y78256
X64575Y79043
X63000Y78650
X62213Y78650
X61816Y78652
X61816Y79046
X61032Y79437
X59358Y80028
X59260Y78453
X59848Y78258
X59454Y77865
X58669Y78059
X58177Y77370
X57879Y77077
X57682Y76782
X57781Y76290
X58008Y75139
X57682Y74912
X57417Y75139
X56827Y75139
X56236Y75139
X55469Y75551
X55551Y74449
X56236Y73335
X56827Y73335
X57417Y73335
X58008Y73335
X58992Y73335
X59583Y73335
X60173Y73335
X60764Y73335
X61622Y73827
X61622Y74909
X60764Y75139
X60173Y75139
X59583Y75139
X58992Y75139
X63591Y75500
X64236Y75139
X64827Y75139
X65417Y75139
X66008Y75139
X66008Y73361
X65417Y73361
X64827Y73361
X64236Y73361
X63591Y74417
X63591Y77835
X61622Y77665
X61032Y81799
X60638Y81799
X60638Y82193
X60638Y82587
X60244Y82587
X60244Y82193
X60244Y81799
X59850Y81406
X59358Y81996
X58667Y81113
X57291Y81996
X56896Y81994
X56602Y82094
X56209Y82193
X55913Y81996
X55104Y81876
X54851Y82094
X54593Y81955
X54142Y81996
X53514Y81565
X53748Y83965
X54043Y84260
X54339Y83571
X55028Y83472
X54848Y84636
X55421Y84654
X55872Y84596
X56307Y84654
X56406Y83472
X59457Y83768
X59457Y84161
X59850Y83768
X59749Y84656
X60244Y82980
X60638Y82980
X61032Y82587
X60992Y86865
X60441Y86819
X60230Y87971
X59872Y87978
X58082Y87997
X57343Y87997
X57097Y86865
X56500Y86850
X55850Y87100
X58202Y86744
X59319Y86570
X61976Y87751
X62735Y86100
X65854Y80028
X51878Y79732
X50824Y79900
X50992Y75165
X51583Y75165
X52173Y75165
X52764Y75165
X53453Y74811
X53453Y73827
X52764Y73335
X52173Y73335
X51583Y73335
X50992Y73335
X51783Y84700
X52468Y84260
X50606Y85581
X50602Y86324
X51297Y87400
X51900Y87450
X42550Y68850
X42550Y68150
X42600Y67350
X38950Y60600
X41356Y73294
X41533Y73640
X43250Y73750
X43050Y73200
X43870Y73102
X44496Y73138
X45765Y73640
X46238Y73955
X46218Y74270
X45760Y76598
X45480Y78256
X44201Y78157
X44500Y77768
X44667Y80100
X42951Y79467
X42117Y80208
X41448Y80221
X40963Y81100
X41839Y78256
X41445Y76976
X43020Y76484
X42754Y75530
X42695Y74585
X48236Y75165
X48827Y75165
X49417Y75165
X49831Y75008
X50205Y75112
X49906Y76191
X49906Y76585
X49513Y76487
X49611Y76979
X49217Y76979
X49316Y77471
X50402Y77764
X50360Y79100
X48630Y79043
X47550Y78751
X47564Y77649
X46465Y79043
X47154Y80323
X47843Y80618
X47252Y81504
X48750Y82959
X50250Y81557
X50159Y84700
X50257Y86274
X50405Y87701
X49568Y87455
X49250Y87432
X48728Y87409
X48141Y87652
X45976Y87751
X44992Y86865
X43319Y86570
X43000Y86750
X42604Y86796
X42860Y87990
X43372Y87902
X43884Y87971
X46790Y86100
X49277Y85631
X43568Y82250
X48236Y73335
X48827Y73335
X49417Y73335
X50008Y73335
X49614Y88492
X48994Y89391
X47797Y89129
X47748Y88833
X47797Y88538
X48190Y88636
X46800Y88532
X46957Y89378
X45828Y89276
X45830Y88835
X45828Y88489
X45300Y88108
X45730Y90211
X44598Y90310
X44155Y90310
X43515Y90211
X43023Y90310
X42604Y90284
X42974Y89079
X43417Y89079
X114374Y59799
X113051Y60193
X113051Y60587
X113051Y60980
X113051Y61374
X114472Y61768
X114472Y62161
X114472Y62555
X114472Y62949
X114472Y63343
X114965Y63736
X115260Y64130
X115555Y64917
X114374Y64524
X114374Y65311
X111575Y65114
X111476Y64721
X111378Y64327
X111279Y63933
X111181Y63539
X111575Y63146
X111083Y62752
X110984Y62358
X110886Y61965
X110787Y61571
X110689Y61177
X110591Y60783
X111476Y60390
X111575Y59996
X112953Y59406
X105543Y73114
X105150Y75280
X105740Y75673
X105346Y76067
X105839Y77839
X105346Y78429
X105839Y79807
X105346Y81185
X105346Y81579
X105740Y81972
X105900Y86303
X105919Y86628
X105857Y87084
X104601Y86470
X104261Y87487
X103772Y87091
X103280Y87475
X103280Y87780
X103214Y88107
X103280Y88370
X104552Y88363
X104167Y89700
X102800Y92393
X101311Y92504
X99835Y92504
X99974Y88362
X101400Y87032
X102082Y86828
X102000Y86402
X102000Y85909
X103187Y85804
X103181Y85293
X103575Y86008
X102661Y84701
X102394Y83843
X99974Y84966
X100327Y85909
X100577Y83100
X102295Y82957
X101606Y82071
X102197Y81185
X102591Y81185
X102984Y80791
X102984Y80398
X103378Y80398
X103378Y80004
X103772Y80004
X103772Y79610
X103772Y79217
X104165Y79217
X104165Y78429
X103772Y78429
X103772Y78035
X103772Y77642
X103378Y77642
X103378Y77248
X102984Y77248
X102984Y77642
X102984Y78035
X103378Y78035
X103378Y78429
X102984Y78429
X102984Y79217
X103378Y79217
X103378Y79610
X102984Y79610
X102984Y80004
X102197Y80004
X101803Y80004
X101803Y79610
X102197Y79610
X102197Y79217
X101803Y79217
X101409Y79217
X101409Y79610
X101409Y80004
X101016Y80398
X100622Y80791
X100228Y81185
X99835Y81579
X99835Y81972
X99441Y81972
X99343Y81579
X99343Y79807
X100228Y79217
X101016Y79217
X101016Y78429
X101409Y78429
X101409Y78035
X101803Y78035
X102197Y78035
X102197Y77642
X101803Y77642
X101409Y77642
X101409Y76854
X101016Y77248
X100622Y76854
X100622Y76461
X100228Y76461
X100300Y75500
X99244Y75870
X99343Y77839
X98715Y77900
X101016Y78035
X101803Y78429
X102197Y78429
X102197Y77248
X102591Y76854
X102591Y76461
X102591Y76067
X103378Y75673
X104362Y75378
X104559Y76067
X104953Y76461
X104953Y76854
X104953Y77248
X104165Y77248
X104165Y76854
X104165Y80398
X104165Y80791
X104559Y80791
X104953Y80791
X104165Y81185
X103772Y81185
X103772Y80791
X103378Y81185
X103378Y81579
X102197Y80398
X101803Y80398
X101803Y75575
X102295Y75083
X100816Y73308
X101016Y71736
X101114Y70358
X100857Y68488
X99244Y70654
X99146Y72380
X102525Y71900
X103280Y71047
X104215Y70801
X103968Y69866
X104067Y72524
X104559Y72917
X103343Y65500
X103303Y64870
X102098Y63862
X101705Y63961
X101345Y63828
X100720Y63764
X99770Y63730
X98825Y63837
X99209Y65500
X100130Y65831
X98697Y66760
X101345Y67175
X101950Y60566
X96685Y63370
T07C0.140000
X139000Y19500
X106000Y19500
X48000Y19500
X18000Y19500
X7000Y46000
X51000Y46000
X95000Y46000
X139000Y46000
X33500Y56000
X33500Y106000
X5500Y106000
X5500Y56000
X9600Y126200
X35000Y129000
X35000Y122000
X78500Y53500
X78500Y100500
X78500Y125500
X40500Y53500
X40500Y100500
X40500Y125500
T08C0.059100
X22764Y127000
T09C0.043300
X33000Y127000
T10C0.040000
X39750Y8800
X40750Y8800
X41750Y8800
X42750Y8800
X43750Y8800
X43750Y9800
X42750Y9800
X41750Y9800
X40750Y9800
X39750Y9800
X44750Y9800
X44750Y8800
X45750Y8800
X46750Y8800
X47750Y8800
X48750Y8800
X49750Y8800
X50750Y8800
X51750Y8800
X52750Y8800
X53750Y8800
X54750Y8800
X55750Y8800
X56750Y8800
X57750Y8800
X58750Y8800
X59750Y8800
X59750Y9800
X58750Y9800
X57750Y9800
X56750Y9800
X55750Y9800
X54750Y9800
X53750Y9800
X52750Y9800
X51750Y9800
X50750Y9800
X49750Y9800
X48750Y9800
X47750Y9800
X46750Y9800
X45750Y9800
X60750Y9800
X60750Y8800
X61750Y8800
X62750Y8800
X63750Y8800
X64750Y8800
X65750Y8800
X65750Y9800
X64750Y9800
X63750Y9800
X62750Y9800
X61750Y9800
X66750Y9800
X66750Y8800
X33000Y51500
X33000Y52500
X32000Y52500
X32000Y51500
X31000Y51500
X30000Y51500
X29000Y51500
X28000Y51500
X27000Y51500
X26000Y51500
X25000Y51500
X24000Y51500
X23000Y51500
X22000Y51500
X21000Y51500
X21000Y52500
X22000Y52500
X23000Y52500
X24000Y52500
X25000Y52500
X26000Y52500
X27000Y52500
X28000Y52500
X29000Y52500
X30000Y52500
X31000Y52500
X20000Y52500
X20000Y51500
X19000Y51500
X18000Y51500
X17000Y51500
X16000Y51500
X15000Y51500
X14000Y51500
X13000Y51500
X12000Y51500
X11000Y51500
X10000Y51500
X9000Y51500
X8000Y51500
X7000Y51500
X7000Y52500
X8000Y52500
X9000Y52500
X10000Y52500
X11000Y52500
X12000Y52500
X13000Y52500
X14000Y52500
X15000Y52500
X16000Y52500
X17000Y52500
X18000Y52500
X19000Y52500
X6000Y52500
X6000Y51500
X10000Y117400
X13000Y117400
X14000Y117400
X14000Y120400
X15000Y120400
X16000Y120400
X13000Y120400
X12000Y120400
X11000Y120400
X10000Y120400
X17000Y120400
X17000Y117400
T11C0.025000
X5268Y10839
X5878Y12000
X4598Y12000
X4598Y15307
X5878Y15307
X5228Y16783
X5799Y18063
X4520Y18063
X9323Y13732
X10219Y12837
X9323Y11941
X8427Y12837
X13181Y5602
X13181Y4323
X16488Y4323
X16488Y5602
X19165Y5602
X19165Y4323
X22472Y4323
X22472Y5602
X24913Y5681
X24913Y4402
X28220Y4402
X28220Y5681
X24205Y7955
X23309Y8850
X24205Y9746
X18850Y8850
X17955Y7955
X17955Y9746
X17059Y8850
X17955Y12955
X18850Y13850
X17955Y14746
X17059Y13850
X15219Y12837
X14323Y11941
X14323Y13732
X13427Y12837
X18350Y16900
X27551Y16173
X30455Y14746
X31350Y13850
X30455Y12955
X29559Y13850
X30455Y9746
X31350Y8850
X30455Y7955
X29559Y8850
X73535Y5760
X77039Y4126
X90563Y10189
X99520Y9500
X99520Y8220
X100701Y4776
X105622Y4579
X106803Y4776
X108555Y4598
X109756Y6350
X109698Y6999
X109756Y7630
X109854Y8319
X109657Y10189
X108575Y9598
X111429Y9598
X118811Y10091
X120051Y9559
X119965Y8193
X120082Y7523
X120080Y6853
X120061Y6183
X118811Y5465
X117039Y4677
X121646Y9323
X124365Y25074
X124330Y26574
X124323Y28063
X131843Y26567
X134165Y28063
X134250Y25000
X116803Y24874
X116843Y26567
X119165Y28063
X111646Y28063
X109316Y26574
X109405Y25074
X101843Y24913
X101882Y26606
X104154Y28074
X96724Y28102
X94409Y26574
X94362Y24717
X87433Y24559
X86843Y26567
X89165Y28063
X81764Y28063
X81803Y26626
X81688Y25074
X72512Y24598
X71843Y26567
X71567Y28063
X66685Y28063
X66649Y25074
X64330Y26574
X59283Y28102
X59205Y25071
X56921Y26567
X51724Y28063
X49369Y26574
X49359Y25074
X44283Y25071
X44205Y28063
X41882Y26606
X36724Y28063
X36721Y25074
X34330Y26574
X29168Y25074
X29126Y28063
X26843Y26567
X21685Y28063
X21682Y25074
X19362Y26567
X15219Y25337
X14323Y24441
X14323Y26232
X13427Y25337
X14323Y28535
X15219Y29431
X14323Y30327
X13427Y29431
X10219Y29431
X9323Y28535
X9323Y30327
X8427Y29431
X5760Y29087
X4480Y29087
X4441Y27118
X5720Y27118
X5622Y23968
X5228Y22492
X5799Y21370
X4520Y21370
X8427Y19087
X9323Y19982
X10219Y19087
X10219Y25337
X9323Y24441
X9323Y26232
X8427Y25337
X5760Y32394
X4480Y32394
X4461Y34421
X5740Y34421
X5760Y37669
X4480Y37669
X4480Y39638
X5760Y39638
X5760Y42945
X4480Y42945
X8427Y41931
X9323Y42827
X9323Y41035
X10219Y41931
X9323Y36577
X8427Y35681
X10219Y35681
X14323Y41035
X15219Y41931
X14323Y42827
X13427Y41931
X18083Y37905
X8500Y123400
X15500Y124050
X16115Y124865
X14747Y126447
X17650Y125550
X18400Y123550
X16435Y122935
X25450Y127150
X27439Y127161
X28400Y127250
X26455Y129395
X24555Y129395
X44000Y80500
X44000Y83000
T12C0.014000
X15300Y129600
X14800Y131600
X17700Y132100
X17300Y129600
X16450Y129650
X18300Y129650
X18750Y129200
X19935Y129235
X21300Y129450
X22300Y129600
X23600Y131250
X22876Y132274
X20700Y131750
T13C0.128000
X21950Y110700
X17450Y110700
T14C0.062000
X22790Y111900
X16610Y111900
T15C0.035000
X20950Y107200
X21450Y108200
X20450Y108200
X19450Y108200
X18450Y108200
X18950Y107200
X19950Y107200
X17950Y107200
T16C0.013500
X35762Y64438
X35762Y65225
X35762Y66013
X35762Y66800
X35762Y67587
X35762Y68375
X35762Y69162
X36050Y63350
X36050Y59300
X34850Y59400
X34200Y60000
X33900Y60500
X33900Y61850
X33435Y61785
X34500Y61800
X35400Y62850
X34600Y63800
X33650Y64000
X33665Y63200
X32750Y62800
X32300Y61300
X32250Y60500
X33094Y59456
X35600Y60850
X26123Y62977
X25000Y63200
X23300Y63200
X20400Y62000
X20250Y64600
X20700Y64600
X21100Y65000
X21989Y64311
X22383Y64417
X23170Y64370
X23761Y64361
X24942Y64342
X25900Y64600
X26800Y64400
X27800Y65650
X27820Y66200
X26200Y66300
X26100Y66700
X26500Y66700
X26500Y67300
X26570Y67830
X26343Y68400
X26414Y68814
X26408Y69208
X26200Y69500
X25600Y69600
X25617Y69995
X25100Y70500
X26500Y70500
X26650Y71550
X26300Y71600
X26636Y71964
X26600Y72700
X26500Y73600
X26629Y74129
X26670Y74720
X26000Y74900
X24942Y75042
X23900Y75000
X23600Y74800
X22973Y74927
X22200Y74900
X21800Y75000
X20800Y75000
X20217Y74983
X20400Y76400
X20600Y73400
X22000Y73400
X23000Y73450
X24000Y73450
X25000Y73450
X25200Y72200
X28100Y72100
X27850Y70900
X27950Y70350
X27795Y69405
X27789Y69011
X25500Y67000
X25800Y66200
X25800Y65800
X25000Y66000
X23200Y65950
X22200Y65950
X20300Y66200
X32300Y64450
X34100Y65500
X34100Y66000
X34050Y66800
X34050Y67600
X27400Y75600
X26565Y75635
X25000Y76200
X25000Y76900
X25700Y76900
X26000Y78800
X25900Y79600
X27600Y79700
X24900Y78700
X26100Y79900
X26700Y82300
X26100Y84100
X24900Y84700
X23600Y84300
X23700Y83500
X23600Y82700
X22504Y82604
X22400Y83400
X22500Y84200
X22400Y85300
X21600Y85700
X22462Y86738
X22400Y87300
X23600Y87400
X23700Y86500
X23600Y85300
X23800Y88600
X24300Y88300
X25000Y88400
X25700Y87600
X26200Y89200
X25735Y90665
X26200Y91600
X23100Y91700
X22100Y91700
X21100Y91700
X21800Y90600
X22187Y89387
X22406Y88706
X21200Y89300
X20400Y89300
X20300Y90500
X20600Y93100
X22600Y93100
X24195Y89595
X28800Y89800
X28800Y88200
X30260Y90540
X28800Y83600
X21100Y84200
X21000Y83000
X20600Y82400
X20200Y81600
X21200Y81600
X21203Y80403
X22100Y80300
X22400Y81400
X20800Y86800
X21000Y87800
X20700Y103900
X20200Y103900
X24649Y103749
X24649Y104400
X24649Y105051
X25751Y104949
X25800Y104400
X25751Y103749
X24300Y103100
X24400Y101500
X15551Y103749
X15650Y104400
X15551Y105251
X14499Y105149
X14499Y103649
X8000Y104200
X8065Y105165
X8000Y108500
X8065Y101135
X8000Y100300
X8065Y97435
X8000Y96400
X8065Y93435
X8000Y92700
X8100Y89700
X8026Y87474
X8065Y85435
X9100Y82000
X7035Y81665
X12100Y82000
X13650Y83000
X13650Y84800
X14350Y85550
X15800Y86000
X15800Y85100
X15800Y84300
X15800Y83500
X15804Y82604
X15813Y82013
X17100Y82000
X17200Y82600
X17000Y83500
X17024Y84376
X17100Y85000
X17057Y85557
X17100Y86200
X17000Y86600
X16969Y87131
X17100Y87500
X17000Y88300
X17000Y89100
X17465Y89335
X18250Y89450
X18300Y90600
X19400Y90600
X19100Y91700
X18100Y91700
X17100Y91700
X16100Y91700
X16600Y93100
X18600Y93100
X20100Y91700
X19600Y89400
X19065Y88565
X18500Y88000
X18500Y87000
X18500Y85000
X18600Y83200
X18535Y82465
X19200Y81600
X19100Y80400
X20100Y80400
X17900Y80400
X17857Y81543
X15800Y88200
X15800Y79400
X16500Y79600
X17200Y79100
X17000Y77100
X16400Y77100
X17400Y76200
X17461Y75061
X17400Y73450
X17400Y73050
X18200Y72500
X17800Y71700
X17550Y71200
X17800Y70700
X17600Y70200
X16700Y70700
X16000Y70200
X16000Y69800
X15989Y69011
X15983Y68617
X15964Y67436
X15946Y66846
X16500Y66500
X16900Y66200
X17600Y66300
X17550Y67200
X17550Y68200
X14600Y68500
X14000Y68400
X14200Y67700
X13400Y67800
X12500Y68300
X12000Y68400
X12200Y69300
X13400Y69300
X13500Y70500
X14100Y70700
X14000Y72200
X14000Y72700
X14600Y72200
X15939Y72161
X16000Y71500
X16100Y73600
X15920Y74720
X19000Y74900
X19600Y74900
X19600Y73400
X18600Y73400
X18700Y77100
X14256Y77494
X7965Y77365
X8500Y76300
X8200Y73100
X8328Y71928
X7700Y71800
X7300Y71800
X6800Y71800
X6100Y71800
X5769Y71831
X5700Y71000
X5700Y69400
X5700Y68200
X5700Y66900
X5700Y65300
X7300Y65300
X7900Y64400
X8335Y64365
X10300Y64700
X10300Y65600
X10100Y66000
X10400Y66300
X10700Y66900
X10400Y67300
X10300Y67900
X10300Y68400
X10800Y68400
X10700Y69300
X10200Y69300
X10500Y70000
X10100Y70400
X10600Y70900
X10500Y71500
X9700Y71200
X9300Y71700
X8600Y71400
X8400Y71000
X12100Y70900
X12700Y71400
X11500Y72400
X11300Y73500
X10375Y73175
X6400Y73100
X7400Y68200
X7400Y66900
X9800Y67100
X12152Y66948
X12200Y65300
X13100Y65200
X13100Y65800
X16000Y65800
X16065Y65465
X16735Y65365
X16674Y64526
X17100Y64600
X17500Y64400
X18700Y64400
X19100Y64500
X19627Y64373
X19600Y66000
X18600Y65950
X15800Y64300
X10700Y65300
X7935Y79365
X5769Y63131
X5050Y61950
X8596Y59454
X9648Y59402
X11900Y59500
X11200Y58450
X14600Y63500
X15700Y63200
X15835Y63765
X17600Y63200
X4200Y59400
X4400Y65300
X4400Y66800
X4416Y67716
X4400Y69400
X4400Y70900
X3600Y76100
T17C0.052000
X73000Y93000
X68000Y93000
X68000Y98000
X68000Y101000
X73000Y101000
X73000Y98000
X70500Y95500
X70500Y103500
X68000Y106000
X68000Y109000
X68000Y114000
X68000Y117000
X73000Y117000
X73000Y114000
X73000Y109000
X73000Y106000
X70500Y111500
X70500Y119500
X68000Y122000
X73000Y122000
X65000Y122000
X62500Y119500
X60000Y122000
X57000Y122000
X52000Y122000
X54500Y119500
X52000Y117000
X52000Y114000
X52000Y109000
X52000Y106000
X57000Y106000
X57000Y109000
X60000Y109000
X60000Y106000
X65000Y106000
X65000Y109000
X65000Y114000
X65000Y117000
X60000Y117000
X57000Y117000
X57000Y114000
X60000Y114000
X62500Y111500
X54500Y111500
X54500Y103500
X52000Y101000
X52000Y98000
X52000Y93000
X57000Y93000
X60000Y93000
X60000Y98000
X60000Y101000
X57000Y101000
X57000Y98000
X54500Y95500
X62500Y95500
X65000Y98000
X65000Y101000
X62500Y103500
X65000Y93000
X49000Y93000
X44000Y93000
X44000Y98000
X44000Y101000
X49000Y101000
X49000Y98000
X46500Y95500
X46500Y103500
X44000Y106000
X44000Y109000
X44000Y114000
X44000Y117000
X49000Y117000
X49000Y114000
X49000Y109000
X49000Y106000
X46500Y111500
X46500Y119500
X44000Y122000
X49000Y122000
T18C0.118000
X4481Y5758
X9831Y5758
T19C0.015000
X88201Y8516
X90268Y9106
X90563Y12354
T20C0.090600
X125900Y23700
X133400Y23700
X118400Y23700
X110900Y23700
X103400Y23700
X95900Y23700
X88400Y23700
X80900Y23700
X73400Y23700
X65900Y23700
X58400Y23700
X50900Y23700
X43400Y23700
X35900Y23700
X28400Y23700
X20900Y23700
X20900Y38948
X28400Y38948
X35900Y38948
X43400Y38948
X50900Y38948
X58400Y38948
X65900Y38948
X73400Y38948
X80900Y38948
X88400Y38948
X95900Y38948
X103400Y38948
X110900Y38948
X118400Y38948
X125900Y38948
X133400Y38948
T21C0.060000
X6331Y5578
X7981Y5578
X7981Y7748
X6331Y7748
X92108Y4884
X94608Y4884
X95858Y4884
X95858Y11134
X92108Y11084
M30
