G75*
G70*
%OFA0B0*%
%FSLAX24Y24*%
%IPPOS*%
%LPD*%
%AMOC8*
5,1,8,0,0,1.08239X$1,22.5*
%
%ADD144C,0.0010*%
%ADD211C,0.0080*%
X002000Y002000D02*
G01*
G75*
D144*
X071500Y006409D02*
G03*
X070909Y007000I-00591J000000D01*
G01*
X035591Y007000D02*
G03*
X035000Y006409I000000J-00591D01*
G01*
X142000Y002000D02*
X142000Y049500D01*
X002000Y002000D02*
X035000Y002000D01*
X002000Y002000D02*
X002000Y049500D01*
X142000Y049500D01*
X035000Y002000D02*
X035000Y006409D01*
X035591Y007000D02*
X070909Y007000D01*
X071500Y002000D02*
X071500Y006409D01*
X071500Y002000D02*
X142000Y002000D01*
X002000Y050500D02*
G01*
G75*
D144*
X037000Y115000D02*
X002000Y115000D01*
X002000Y050500D02*
X002000Y115000D01*
X037000Y050500D02*
X002000Y050500D01*
X037000Y050500D02*
X037000Y115000D01*
X002000Y116000D02*
G01*
G75*
D144*
X002000Y116000D02*
X037000Y116000D01*
X002000Y116000D02*
X002000Y134000D01*
X037000Y134000D01*
X037000Y116000D02*
X037000Y134000D01*
X038000Y050500D02*
G01*
G75*
D144*
X083000Y128000D02*
X038000Y128000D01*
X083000Y050500D02*
X083000Y128000D01*
X083000Y050500D02*
X038000Y050500D01*
X038000Y128000D01*
X084000Y050500D02*
G01*
G75*
D211*
X127000Y050500D02*
X127000Y116500D01*
X084000Y116500D01*
X084000Y050500D02*
X084000Y116500D01*
X127000Y050500D02*
X084000Y050500D01*
M02*
