G75*
G70*
%OFA0B0*%
%FSLAX24Y24*%
%IPPOS*%
%LPD*%
%AMOC8*
5,1,8,0,0,1.08239X$1,22.5*
%
%ADD102C,0.0780*%
%ADD104C,0.1419*%
%ADD108R,0.1025X0.1104*%
%ADD110C,0.0330*%
%ADD114R,0.0356X0.0434*%
%ADD115R,0.0552X0.0552*%
%ADD116C,0.0749*%
%ADD117R,0.0789X0.0202*%
%ADD118R,0.1163X0.0474*%
%ADD119R,0.0380X0.0680*%
%ADD120R,0.0680X0.0380*%
%ADD121R,0.0828X0.0277*%
%ADD124R,0.0631X0.0867*%
%ADD125R,0.0474X0.1576*%
%ADD129C,0.0830*%
%ADD136R,0.0808X0.0198*%
%ADD141C,0.0580*%
%ADD142R,0.0867X0.0552*%
%ADD146C,0.0513*%
%ADD148R,0.0789X0.0710*%
%ADD149R,0.1580X0.0580*%
%ADD15R,0.0474X0.1163*%
%ADD153R,0.0474X0.0513*%
%ADD155R,0.0277X0.0828*%
%ADD156C,0.0380*%
%ADD159R,0.0749X0.0789*%
%ADD160R,0.1480X0.1080*%
%ADD161R,0.0237X0.0789*%
%ADD183R,0.3080X0.2980*%
%ADD185R,0.1080X0.1480*%
%ADD186C,0.2200*%
%ADD187R,0.0257X0.0749*%
%ADD189R,0.0671X0.0671*%
%ADD192R,0.0434X0.0356*%
%ADD193R,0.0202X0.0789*%
%ADD20R,0.0552X0.0867*%
%ADD200R,0.0513X0.0474*%
%ADD207R,0.0828X0.0828*%
%ADD209R,0.1655X0.0415*%
%ADD21R,0.1104X0.1025*%
%ADD212R,0.0434X0.1025*%
%ADD214R,0.0789X0.0237*%
%ADD217R,0.0887X0.0316*%
%ADD22R,0.0749X0.0257*%
%ADD220C,0.0710*%
%ADD225R,0.0552X0.1655*%
%ADD227R,0.0867X0.0631*%
%ADD230R,0.0592X0.0710*%
%ADD231C,0.0552*%
%ADD232C,0.0680*%
%ADD241R,0.1694X0.0907*%
%ADD242R,0.0380X0.0780*%
%ADD243O,0.0380X0.0780*%
%ADD244O,0.0789X0.0202*%
%ADD25C,0.1480*%
%ADD254R,0.0245X0.0572*%
%ADD255R,0.0198X0.0730*%
%ADD256R,0.1529X0.0580*%
%ADD257R,0.0336X0.0178*%
%ADD258R,0.1440X0.1320*%
%ADD30C,0.1000*%
%ADD31R,0.1576X0.0474*%
%ADD34C,0.0277*%
%ADD40C,0.0248*%
%ADD41R,0.0710X0.0789*%
%ADD44R,0.0198X0.0808*%
%ADD50R,0.0580X0.1529*%
%ADD51C,0.1900*%
%ADD56C,0.0480*%
%ADD59C,0.0880*%
%ADD62R,0.0710X0.0592*%
%ADD63C,0.0217*%
%ADD67R,0.0651X0.0277*%
%ADD70C,0.0280*%
%ADD71C,0.0430*%
%ADD89C,0.1143*%
%ADD91C,0.0671*%
%ADD94R,0.1182X0.1104*%
X002000Y002000D02*
G01*
G75*
D153*
X105050Y041835D02*
D03*
X105050Y041165D02*
D03*
X096850Y041885D02*
D03*
X096850Y041215D02*
D03*
X079480Y005484D02*
D03*
X079480Y004815D02*
D03*
X078378Y005484D02*
D03*
X078378Y004815D02*
D03*
X044050Y044115D02*
D03*
X044050Y044785D02*
D03*
X045200Y044115D02*
D03*
X045200Y044785D02*
D03*
X045800Y044735D02*
D03*
X045800Y044065D02*
D03*
X046500Y044115D02*
D03*
X046500Y044785D02*
D03*
X047150Y044115D02*
D03*
X047150Y044785D02*
D03*
D21*
X085594Y010100D02*
D03*
X087406Y010100D02*
D03*
X070622Y021134D02*
D03*
X068811Y021134D02*
D03*
X084480Y021449D02*
D03*
X086291Y021449D02*
D03*
X085110Y012394D02*
D03*
X086921Y012394D02*
D03*
D183*
X113968Y007433D02*
D03*
X103685Y007579D02*
D03*
D149*
X118818Y008863D02*
D03*
X118818Y008193D02*
D03*
X118818Y007523D02*
D03*
X118818Y006853D02*
D03*
X118818Y006183D02*
D03*
X108535Y006999D02*
D03*
X108535Y006329D02*
D03*
X108535Y007669D02*
D03*
X108535Y008339D02*
D03*
X108535Y009009D02*
D03*
D15*
X047662Y047637D02*
D03*
X047662Y045963D02*
D03*
X046875Y047637D02*
D03*
X046087Y047637D02*
D03*
X045300Y047637D02*
D03*
X044513Y047637D02*
D03*
X043725Y047637D02*
D03*
X042938Y047637D02*
D03*
X046875Y045963D02*
D03*
X046087Y045963D02*
D03*
X045300Y045963D02*
D03*
X044513Y045963D02*
D03*
X043725Y045963D02*
D03*
X042938Y045963D02*
D03*
D94*
X099480Y004835D02*
D03*
X099480Y007354D02*
D03*
D108*
X136000Y036106D02*
D03*
X136000Y034294D02*
D03*
X136000Y030694D02*
D03*
X136000Y032506D02*
D03*
X130500Y030694D02*
D03*
X130500Y032506D02*
D03*
X128500Y034294D02*
D03*
X128500Y036106D02*
D03*
X128500Y030694D02*
D03*
X128500Y032506D02*
D03*
X123000Y030694D02*
D03*
X123000Y032506D02*
D03*
X121000Y034294D02*
D03*
X121000Y036106D02*
D03*
X121000Y030694D02*
D03*
X121000Y032506D02*
D03*
X115500Y030694D02*
D03*
X115500Y032506D02*
D03*
X113500Y034294D02*
D03*
X113500Y036106D02*
D03*
X113500Y030694D02*
D03*
X113500Y032506D02*
D03*
X108000Y030694D02*
D03*
X108000Y032506D02*
D03*
X106000Y034294D02*
D03*
X106000Y036106D02*
D03*
X106000Y030694D02*
D03*
X106000Y032506D02*
D03*
X100500Y030694D02*
D03*
X100500Y032506D02*
D03*
X098500Y034294D02*
D03*
X098500Y036106D02*
D03*
X098500Y030694D02*
D03*
X098500Y032506D02*
D03*
X093000Y030694D02*
D03*
X093000Y032506D02*
D03*
X091000Y034294D02*
D03*
X091000Y036106D02*
D03*
X091000Y030694D02*
D03*
X091000Y032506D02*
D03*
X085500Y030694D02*
D03*
X085500Y032506D02*
D03*
X083500Y034294D02*
D03*
X083500Y036106D02*
D03*
X083500Y030694D02*
D03*
X083500Y032506D02*
D03*
X070500Y034294D02*
D03*
X070500Y036106D02*
D03*
X070500Y030694D02*
D03*
X070500Y032506D02*
D03*
X068500Y030694D02*
D03*
X068500Y032506D02*
D03*
X063000Y034294D02*
D03*
X063000Y036106D02*
D03*
X063000Y030694D02*
D03*
X063000Y032506D02*
D03*
X061000Y030694D02*
D03*
X061000Y032506D02*
D03*
X055500Y034294D02*
D03*
X055500Y036106D02*
D03*
X055500Y030694D02*
D03*
X055500Y032506D02*
D03*
X053500Y030694D02*
D03*
X053500Y032506D02*
D03*
X048100Y034294D02*
D03*
X048100Y036106D02*
D03*
X048100Y030694D02*
D03*
X048100Y032506D02*
D03*
X018000Y032506D02*
D03*
X018000Y030694D02*
D03*
X018000Y034294D02*
D03*
X018000Y036106D02*
D03*
X023500Y032506D02*
D03*
X023500Y030694D02*
D03*
X025500Y030694D02*
D03*
X025500Y032506D02*
D03*
X025500Y036106D02*
D03*
X025500Y034294D02*
D03*
X031000Y030694D02*
D03*
X031000Y032506D02*
D03*
X033000Y032506D02*
D03*
X033000Y030694D02*
D03*
X033000Y034294D02*
D03*
X033000Y036106D02*
D03*
X038500Y032506D02*
D03*
X038500Y030694D02*
D03*
X040500Y030694D02*
D03*
X040500Y032506D02*
D03*
X040500Y036106D02*
D03*
X040500Y034294D02*
D03*
X046000Y030694D02*
D03*
X046000Y032506D02*
D03*
D41*
X118850Y004677D02*
D03*
X090031Y008535D02*
D03*
X017433Y037905D02*
D03*
X017551Y016900D02*
D03*
X025622Y016173D02*
D03*
X026724Y016173D02*
D03*
X088929Y008535D02*
D03*
X089874Y012315D02*
D03*
X088771Y012315D02*
D03*
X089874Y011213D02*
D03*
X088771Y011213D02*
D03*
X016449Y016900D02*
D03*
X016331Y037905D02*
D03*
X106645Y004598D02*
D03*
X107748Y004598D02*
D03*
X117748Y004677D02*
D03*
D102*
X009323Y016587D02*
D03*
X009323Y017837D02*
D03*
X009323Y019087D02*
D03*
X009323Y025337D02*
D03*
X014323Y025337D02*
D03*
X014323Y019087D02*
D03*
X014323Y017837D02*
D03*
X014323Y016587D02*
D03*
X014323Y012837D02*
D03*
X009323Y012837D02*
D03*
X009323Y029431D02*
D03*
X014323Y029431D02*
D03*
X014323Y033181D02*
D03*
X014323Y034431D02*
D03*
X014323Y035681D02*
D03*
X014323Y041931D02*
D03*
X009323Y041931D02*
D03*
X009323Y035681D02*
D03*
X009323Y034431D02*
D03*
X009323Y033181D02*
D03*
X030455Y008850D02*
D03*
X030455Y013850D02*
D03*
X026705Y013850D02*
D03*
X025455Y013850D02*
D03*
X024205Y013850D02*
D03*
X017955Y013850D02*
D03*
X017955Y008850D02*
D03*
X024205Y008850D02*
D03*
X025455Y008850D02*
D03*
X026705Y008850D02*
D03*
D121*
X058593Y045035D02*
D03*
X058593Y043775D02*
D03*
X058593Y044090D02*
D03*
X058593Y044405D02*
D03*
X058593Y044720D02*
D03*
X058593Y045350D02*
D03*
X058593Y045665D02*
D03*
X058593Y045980D02*
D03*
X058593Y046295D02*
D03*
X058593Y046610D02*
D03*
X058593Y046925D02*
D03*
X053907Y043775D02*
D03*
X053907Y044090D02*
D03*
X053907Y044405D02*
D03*
X053907Y044720D02*
D03*
X053907Y045035D02*
D03*
X053907Y045350D02*
D03*
X053907Y045980D02*
D03*
X053907Y046295D02*
D03*
X053907Y046610D02*
D03*
X053907Y046925D02*
D03*
X053907Y045665D02*
D03*
D125*
X005189Y018142D02*
D03*
X005189Y021449D02*
D03*
X005268Y015386D02*
D03*
X005268Y012079D02*
D03*
X005150Y032472D02*
D03*
X005150Y029165D02*
D03*
X005150Y037748D02*
D03*
X005150Y034441D02*
D03*
X005150Y043023D02*
D03*
X005150Y039716D02*
D03*
X005110Y027197D02*
D03*
X005110Y023890D02*
D03*
D31*
X022394Y004992D02*
D03*
X019087Y004992D02*
D03*
X028142Y005071D02*
D03*
X024835Y005071D02*
D03*
X016409Y004992D02*
D03*
X013102Y004992D02*
D03*
D34*
X073535Y011567D02*
D03*
X075504Y009992D02*
D03*
X075110Y009992D02*
D03*
X074717Y011567D02*
D03*
X074323Y011567D02*
D03*
X073929Y011567D02*
D03*
X075110Y011173D02*
D03*
X074717Y010780D02*
D03*
X074323Y010780D02*
D03*
X073929Y010780D02*
D03*
X073535Y010780D02*
D03*
X073142Y010780D02*
D03*
X074717Y011173D02*
D03*
X074323Y011173D02*
D03*
X075504Y010386D02*
D03*
X073929Y011173D02*
D03*
X073535Y011173D02*
D03*
X073142Y011173D02*
D03*
X073535Y012354D02*
D03*
X073142Y012354D02*
D03*
X073535Y012748D02*
D03*
X073142Y012748D02*
D03*
X073535Y011961D02*
D03*
X073142Y011961D02*
D03*
X074717Y009992D02*
D03*
X074323Y009992D02*
D03*
X073929Y009992D02*
D03*
X074717Y010386D02*
D03*
X074323Y010386D02*
D03*
X073535Y009992D02*
D03*
X073142Y009992D02*
D03*
X073535Y010386D02*
D03*
X073142Y010386D02*
D03*
X072748Y010780D02*
D03*
X072354Y010780D02*
D03*
X072748Y011173D02*
D03*
X072354Y011173D02*
D03*
X072748Y011567D02*
D03*
X072354Y011567D02*
D03*
X072354Y011961D02*
D03*
X072748Y012354D02*
D03*
X072354Y012354D02*
D03*
X075110Y010780D02*
D03*
X073142Y011567D02*
D03*
X077079Y010386D02*
D03*
X077472Y010386D02*
D03*
X076685Y009992D02*
D03*
X072354Y012748D02*
D03*
X072748Y012748D02*
D03*
X076685Y018654D02*
D03*
X076291Y018654D02*
D03*
X076291Y019047D02*
D03*
X076291Y017866D02*
D03*
X077866Y018654D02*
D03*
X078260Y019047D02*
D03*
X077866Y017866D02*
D03*
X077472Y017866D02*
D03*
X077079Y017866D02*
D03*
X076685Y017866D02*
D03*
X077472Y018260D02*
D03*
X077472Y018654D02*
D03*
X075898Y010386D02*
D03*
X078654Y010780D02*
D03*
X077472Y017472D02*
D03*
X076685Y017472D02*
D03*
X077866Y017079D02*
D03*
X076685Y012748D02*
D03*
X076291Y012354D02*
D03*
X077079Y012354D02*
D03*
X076685Y012354D02*
D03*
X078260Y018260D02*
D03*
X076291Y018260D02*
D03*
X076291Y010386D02*
D03*
X077866Y010780D02*
D03*
X076685Y011961D02*
D03*
X076291Y011961D02*
D03*
X078260Y012748D02*
D03*
X076291Y012748D02*
D03*
X075898Y012748D02*
D03*
X075504Y012748D02*
D03*
X075110Y012748D02*
D03*
X078654Y013142D02*
D03*
X078260Y013142D02*
D03*
X077866Y013142D02*
D03*
X077079Y013142D02*
D03*
X076291Y013142D02*
D03*
X075898Y013142D02*
D03*
X075110Y013142D02*
D03*
X073142Y013142D02*
D03*
X079047Y013535D02*
D03*
X078654Y013535D02*
D03*
X077079Y013535D02*
D03*
X076685Y013535D02*
D03*
X076291Y013535D02*
D03*
X075898Y013535D02*
D03*
X075504Y013535D02*
D03*
X079047Y013929D02*
D03*
X078654Y013929D02*
D03*
X078260Y013929D02*
D03*
X077079Y013929D02*
D03*
X076685Y013929D02*
D03*
X076291Y013929D02*
D03*
X075898Y013929D02*
D03*
X075504Y013929D02*
D03*
X079047Y014323D02*
D03*
X077866Y014323D02*
D03*
X077079Y014323D02*
D03*
X076685Y014323D02*
D03*
X076291Y014323D02*
D03*
X075898Y014323D02*
D03*
X079047Y014717D02*
D03*
X077079Y014717D02*
D03*
X076685Y014717D02*
D03*
X076291Y014717D02*
D03*
X075898Y014717D02*
D03*
X075504Y014717D02*
D03*
X072354Y014717D02*
D03*
X079047Y015110D02*
D03*
X077079Y015110D02*
D03*
X076685Y015110D02*
D03*
X076291Y015110D02*
D03*
X075898Y015110D02*
D03*
X075504Y015110D02*
D03*
X074323Y015110D02*
D03*
X077866Y015504D02*
D03*
X077079Y015504D02*
D03*
X076685Y015504D02*
D03*
X076291Y015504D02*
D03*
X075898Y015504D02*
D03*
X075504Y015504D02*
D03*
X079047Y015898D02*
D03*
X078654Y015898D02*
D03*
X078260Y015898D02*
D03*
X077079Y015898D02*
D03*
X076685Y015898D02*
D03*
X076291Y015898D02*
D03*
X075898Y015898D02*
D03*
X075504Y015898D02*
D03*
X079047Y016291D02*
D03*
X078654Y016291D02*
D03*
X077079Y016291D02*
D03*
X076685Y016291D02*
D03*
X076291Y016291D02*
D03*
X075898Y016291D02*
D03*
X075504Y016291D02*
D03*
X078654Y016685D02*
D03*
X078260Y016685D02*
D03*
X077079Y016685D02*
D03*
X076685Y016685D02*
D03*
X076291Y016685D02*
D03*
X075898Y016685D02*
D03*
X073142Y016685D02*
D03*
X078654Y017079D02*
D03*
X078260Y017079D02*
D03*
X076291Y017079D02*
D03*
X074323Y017866D02*
D03*
X076685Y018260D02*
D03*
X075504Y019047D02*
D03*
X073142Y019047D02*
D03*
X072748Y019441D02*
D03*
X072354Y019441D02*
D03*
X077079Y009992D02*
D03*
X072748Y009992D02*
D03*
X075110Y010386D02*
D03*
X073929Y010386D02*
D03*
X072748Y010386D02*
D03*
X072354Y010386D02*
D03*
X075504Y010780D02*
D03*
X076685Y011567D02*
D03*
X075110Y011567D02*
D03*
X074323Y011961D02*
D03*
X073929Y011961D02*
D03*
X072748Y011961D02*
D03*
X077079Y019835D02*
D03*
X072748Y019835D02*
D03*
X072354Y019047D02*
D03*
X072354Y016291D02*
D03*
X072354Y015898D02*
D03*
X072354Y015110D02*
D03*
X072354Y014323D02*
D03*
X072354Y013929D02*
D03*
X072354Y013535D02*
D03*
X072354Y013142D02*
D03*
X072748Y019047D02*
D03*
X072748Y018260D02*
D03*
X072748Y015898D02*
D03*
X072748Y014717D02*
D03*
X072748Y014323D02*
D03*
X072748Y013929D02*
D03*
X072748Y013535D02*
D03*
X072748Y013142D02*
D03*
X073142Y018654D02*
D03*
X073142Y018260D02*
D03*
X073142Y017866D02*
D03*
X073142Y017472D02*
D03*
X073142Y015504D02*
D03*
X073142Y014717D02*
D03*
X073142Y014323D02*
D03*
X073142Y013929D02*
D03*
X073142Y013535D02*
D03*
X073535Y018260D02*
D03*
X073535Y017866D02*
D03*
X073535Y017472D02*
D03*
X073535Y016685D02*
D03*
X073535Y016291D02*
D03*
X073535Y015504D02*
D03*
X073535Y015110D02*
D03*
X073535Y014717D02*
D03*
X073535Y014323D02*
D03*
X073535Y013929D02*
D03*
X073535Y013535D02*
D03*
X073535Y013142D02*
D03*
X073929Y019047D02*
D03*
X073929Y018654D02*
D03*
X073929Y018260D02*
D03*
X073929Y017472D02*
D03*
X073929Y017079D02*
D03*
X073929Y016685D02*
D03*
X073929Y016291D02*
D03*
X073929Y015898D02*
D03*
X073929Y015504D02*
D03*
X073929Y015110D02*
D03*
X073929Y014717D02*
D03*
X073929Y014323D02*
D03*
X073929Y013929D02*
D03*
X073929Y013535D02*
D03*
X073929Y013142D02*
D03*
X073929Y012748D02*
D03*
X074323Y019441D02*
D03*
X074323Y019047D02*
D03*
X074323Y018654D02*
D03*
X074323Y018260D02*
D03*
X074323Y017472D02*
D03*
X074323Y017079D02*
D03*
X074323Y016685D02*
D03*
X074323Y016291D02*
D03*
X074323Y015898D02*
D03*
X074323Y015504D02*
D03*
X074323Y014717D02*
D03*
X074323Y014323D02*
D03*
X074323Y013929D02*
D03*
X074323Y013535D02*
D03*
X074323Y013142D02*
D03*
X074323Y012748D02*
D03*
X074323Y012354D02*
D03*
X074717Y019441D02*
D03*
X074717Y019047D02*
D03*
X074717Y018654D02*
D03*
X074717Y018260D02*
D03*
X074717Y017866D02*
D03*
X074717Y017472D02*
D03*
X074717Y017079D02*
D03*
X074717Y016685D02*
D03*
X074717Y016291D02*
D03*
X074717Y015898D02*
D03*
X074717Y015504D02*
D03*
X074717Y015110D02*
D03*
X074717Y014717D02*
D03*
X074717Y014323D02*
D03*
X074717Y013929D02*
D03*
X074717Y013535D02*
D03*
X074717Y013142D02*
D03*
X074717Y012748D02*
D03*
X074717Y012354D02*
D03*
X074717Y011961D02*
D03*
X075110Y019047D02*
D03*
X075110Y018654D02*
D03*
X075110Y017866D02*
D03*
X075110Y017472D02*
D03*
X075110Y017079D02*
D03*
X075110Y016291D02*
D03*
X075110Y015898D02*
D03*
X075110Y015504D02*
D03*
X075110Y015110D02*
D03*
X075110Y014717D02*
D03*
X075110Y014323D02*
D03*
X075110Y013929D02*
D03*
X075110Y013535D02*
D03*
X075110Y012354D02*
D03*
X075110Y011961D02*
D03*
X075504Y018654D02*
D03*
X075504Y018260D02*
D03*
X075504Y017866D02*
D03*
X075504Y017472D02*
D03*
X075504Y014323D02*
D03*
X075504Y012354D02*
D03*
X075504Y011961D02*
D03*
X075504Y011567D02*
D03*
X075504Y011173D02*
D03*
X075898Y018260D02*
D03*
X075898Y017866D02*
D03*
X075898Y017472D02*
D03*
X075898Y012354D02*
D03*
X075898Y011961D02*
D03*
X075898Y010780D02*
D03*
X076291Y017472D02*
D03*
X076291Y011567D02*
D03*
X076291Y011173D02*
D03*
X076291Y010780D02*
D03*
X076685Y019441D02*
D03*
X076685Y019047D02*
D03*
X076685Y017079D02*
D03*
X076685Y013142D02*
D03*
X076685Y011173D02*
D03*
X076685Y010780D02*
D03*
X076685Y010386D02*
D03*
X077079Y019441D02*
D03*
X077079Y019047D02*
D03*
X077079Y018654D02*
D03*
X077079Y018260D02*
D03*
X077079Y017472D02*
D03*
X077079Y017079D02*
D03*
X077079Y012748D02*
D03*
X077079Y011961D02*
D03*
X077079Y011567D02*
D03*
X077079Y011173D02*
D03*
X077079Y010780D02*
D03*
X077472Y019835D02*
D03*
X077472Y017079D02*
D03*
X077472Y016685D02*
D03*
X077472Y016291D02*
D03*
X077472Y015898D02*
D03*
X077472Y015504D02*
D03*
X077472Y015110D02*
D03*
X077472Y014717D02*
D03*
X077472Y014323D02*
D03*
X077472Y013929D02*
D03*
X077472Y013535D02*
D03*
X077472Y013142D02*
D03*
X077472Y012748D02*
D03*
X077472Y012354D02*
D03*
X077472Y011961D02*
D03*
X077472Y011567D02*
D03*
X077472Y011173D02*
D03*
X077472Y010780D02*
D03*
X077472Y009992D02*
D03*
X077866Y018260D02*
D03*
X077866Y017472D02*
D03*
X077866Y016685D02*
D03*
X077866Y016291D02*
D03*
X077866Y015898D02*
D03*
X077866Y015110D02*
D03*
X077866Y014717D02*
D03*
X077866Y013929D02*
D03*
X077866Y013535D02*
D03*
X077866Y012748D02*
D03*
X077866Y012354D02*
D03*
X077866Y011961D02*
D03*
X077866Y011567D02*
D03*
X077866Y011173D02*
D03*
X078260Y018654D02*
D03*
X078260Y017866D02*
D03*
X078260Y017472D02*
D03*
X078260Y016291D02*
D03*
X078260Y015504D02*
D03*
X078260Y015110D02*
D03*
X078260Y014717D02*
D03*
X078260Y014323D02*
D03*
X078260Y013535D02*
D03*
X078260Y012354D02*
D03*
X078260Y011961D02*
D03*
X078260Y011567D02*
D03*
X078260Y011173D02*
D03*
X078260Y010780D02*
D03*
X078654Y019047D02*
D03*
X078654Y018654D02*
D03*
X078654Y018260D02*
D03*
X078654Y017866D02*
D03*
X078654Y017472D02*
D03*
X078654Y015504D02*
D03*
X078654Y015110D02*
D03*
X078654Y014717D02*
D03*
X078654Y014323D02*
D03*
X078654Y011567D02*
D03*
X078654Y011173D02*
D03*
X079047Y019047D02*
D03*
X079047Y018654D02*
D03*
X079047Y018260D02*
D03*
X079047Y017866D02*
D03*
X079047Y017472D02*
D03*
X079047Y010780D02*
D03*
X079441Y019047D02*
D03*
X079441Y018654D02*
D03*
X079441Y017866D02*
D03*
X079441Y017472D02*
D03*
X079441Y015898D02*
D03*
X079441Y015504D02*
D03*
X079441Y015110D02*
D03*
X079441Y014717D02*
D03*
X079441Y014323D02*
D03*
X079441Y013929D02*
D03*
X079835Y019441D02*
D03*
X079835Y019047D02*
D03*
X079835Y018654D02*
D03*
X079835Y018260D02*
D03*
X079835Y017866D02*
D03*
X079835Y017472D02*
D03*
X079835Y017079D02*
D03*
X079835Y016685D02*
D03*
X079835Y016291D02*
D03*
X079835Y015898D02*
D03*
X079835Y015504D02*
D03*
X079835Y015110D02*
D03*
X079835Y014717D02*
D03*
X079835Y014323D02*
D03*
X079835Y013929D02*
D03*
X079835Y013535D02*
D03*
X079835Y012354D02*
D03*
X080228Y018654D02*
D03*
X080228Y018260D02*
D03*
X080228Y017866D02*
D03*
X080228Y017472D02*
D03*
X080228Y017079D02*
D03*
X080228Y016685D02*
D03*
X080228Y016291D02*
D03*
X080228Y015898D02*
D03*
X080228Y015504D02*
D03*
X080228Y015110D02*
D03*
X080228Y014717D02*
D03*
X080228Y014323D02*
D03*
X080228Y013929D02*
D03*
X080228Y013535D02*
D03*
X080228Y013142D02*
D03*
X080228Y012748D02*
D03*
X080228Y011961D02*
D03*
X080622Y019047D02*
D03*
X080622Y018654D02*
D03*
X080622Y018260D02*
D03*
X080622Y017472D02*
D03*
X080622Y017079D02*
D03*
X080622Y016291D02*
D03*
X080622Y015504D02*
D03*
X080622Y015110D02*
D03*
X080622Y014717D02*
D03*
X080622Y014323D02*
D03*
X080622Y013535D02*
D03*
X080622Y013142D02*
D03*
X080622Y012748D02*
D03*
X081016Y018260D02*
D03*
X081016Y017866D02*
D03*
X081016Y017079D02*
D03*
X081016Y016291D02*
D03*
X081016Y015898D02*
D03*
X081016Y015504D02*
D03*
X081016Y015110D02*
D03*
X081016Y014717D02*
D03*
X081016Y014323D02*
D03*
X081016Y013929D02*
D03*
X081016Y013535D02*
D03*
X081016Y013142D02*
D03*
X081016Y012748D02*
D03*
X081409Y019047D02*
D03*
X081409Y018654D02*
D03*
X081409Y017866D02*
D03*
X081409Y017079D02*
D03*
X081409Y016685D02*
D03*
X081409Y016291D02*
D03*
X081409Y015898D02*
D03*
X081409Y015504D02*
D03*
X081409Y014323D02*
D03*
X081409Y013929D02*
D03*
X081409Y013142D02*
D03*
X081409Y010780D02*
D03*
X081803Y019835D02*
D03*
X081803Y019441D02*
D03*
X081803Y015504D02*
D03*
X081803Y013142D02*
D03*
X081803Y012748D02*
D03*
X081803Y010386D02*
D03*
X081803Y009992D02*
D03*
X082197Y019441D02*
D03*
X082197Y015110D02*
D03*
X082197Y013142D02*
D03*
X082197Y012748D02*
D03*
X082197Y010386D02*
D03*
X072748Y015110D02*
D03*
X073142Y015110D02*
D03*
X073142Y015898D02*
D03*
X073535Y015898D02*
D03*
X072354Y015504D02*
D03*
X072748Y015504D02*
D03*
X072354Y016685D02*
D03*
X072748Y016685D02*
D03*
X072748Y016291D02*
D03*
X073142Y016291D02*
D03*
X072748Y017472D02*
D03*
X072354Y017472D02*
D03*
X072354Y017079D02*
D03*
X072748Y017079D02*
D03*
X073142Y017079D02*
D03*
X073535Y017079D02*
D03*
X072354Y018654D02*
D03*
X072748Y018654D02*
D03*
X072354Y018260D02*
D03*
X072354Y017866D02*
D03*
X073142Y019835D02*
D03*
X073142Y019441D02*
D03*
X073535Y019835D02*
D03*
X073535Y019047D02*
D03*
X073535Y019441D02*
D03*
X073535Y018654D02*
D03*
X082197Y013929D02*
D03*
X082197Y013535D02*
D03*
X081409Y013535D02*
D03*
X081803Y013535D02*
D03*
X081803Y014323D02*
D03*
X082197Y014323D02*
D03*
X081409Y015110D02*
D03*
X081803Y015110D02*
D03*
X081409Y014717D02*
D03*
X081803Y014717D02*
D03*
X081803Y016291D02*
D03*
X082197Y016291D02*
D03*
X082197Y015898D02*
D03*
X082197Y015504D02*
D03*
X080622Y016685D02*
D03*
X081016Y016685D02*
D03*
X081803Y016685D02*
D03*
X082197Y016685D02*
D03*
X081803Y017079D02*
D03*
X082197Y017079D02*
D03*
X082197Y018260D02*
D03*
X082197Y017866D02*
D03*
X081803Y017472D02*
D03*
X082197Y017472D02*
D03*
X079047Y019835D02*
D03*
X079047Y019441D02*
D03*
X079441Y019835D02*
D03*
X079835Y019835D02*
D03*
X081016Y019441D02*
D03*
X081409Y019441D02*
D03*
X081016Y019835D02*
D03*
X081409Y019835D02*
D03*
X080228Y019835D02*
D03*
X080622Y019835D02*
D03*
X080228Y019441D02*
D03*
X080228Y019047D02*
D03*
X081016Y019047D02*
D03*
X081016Y018654D02*
D03*
X081409Y018260D02*
D03*
X081803Y018260D02*
D03*
X081803Y019047D02*
D03*
X082197Y019047D02*
D03*
X081016Y017472D02*
D03*
X081409Y017472D02*
D03*
X081803Y018654D02*
D03*
X082197Y018654D02*
D03*
X073929Y019441D02*
D03*
X075110Y019441D02*
D03*
X076291Y019441D02*
D03*
X078260Y019441D02*
D03*
X079441Y019441D02*
D03*
X080622Y019441D02*
D03*
X075110Y018260D02*
D03*
X079441Y018260D02*
D03*
X072748Y017866D02*
D03*
X073929Y017866D02*
D03*
X080622Y017866D02*
D03*
X081803Y017866D02*
D03*
X075504Y017079D02*
D03*
X075898Y017079D02*
D03*
X079047Y017079D02*
D03*
X079441Y017079D02*
D03*
X075110Y016685D02*
D03*
X079441Y016685D02*
D03*
X079441Y016291D02*
D03*
X080622Y015898D02*
D03*
X081803Y015898D02*
D03*
X079047Y015504D02*
D03*
X082197Y014717D02*
D03*
X080622Y013929D02*
D03*
X081803Y013929D02*
D03*
X079441Y013535D02*
D03*
X077866Y019835D02*
D03*
X078260Y019835D02*
D03*
X078654Y019835D02*
D03*
X078654Y019441D02*
D03*
X075504Y019835D02*
D03*
X075504Y019441D02*
D03*
X073929Y019835D02*
D03*
X074323Y019835D02*
D03*
X075898Y019047D02*
D03*
X075898Y018654D02*
D03*
X074717Y019835D02*
D03*
X075110Y019835D02*
D03*
X077472Y019441D02*
D03*
X077866Y019441D02*
D03*
X077472Y019047D02*
D03*
X077866Y019047D02*
D03*
X075898Y019835D02*
D03*
X076291Y019835D02*
D03*
X076685Y019835D02*
D03*
X075898Y019441D02*
D03*
X080622Y011961D02*
D03*
X081803Y011961D02*
D03*
X079441Y011567D02*
D03*
X079441Y010386D02*
D03*
X080622Y010386D02*
D03*
X079441Y013142D02*
D03*
X078654Y012748D02*
D03*
X079047Y012748D02*
D03*
X079835Y011173D02*
D03*
X081409Y012748D02*
D03*
X080228Y012354D02*
D03*
X081016Y012354D02*
D03*
X082197Y011567D02*
D03*
X079835Y010386D02*
D03*
X079835Y010780D02*
D03*
X079835Y012748D02*
D03*
X079047Y010386D02*
D03*
X079047Y009992D02*
D03*
X079441Y009992D02*
D03*
X079835Y009992D02*
D03*
X080228Y010386D02*
D03*
X080228Y009992D02*
D03*
X081016Y010386D02*
D03*
X080622Y009992D02*
D03*
X079047Y011961D02*
D03*
X079047Y012354D02*
D03*
X081409Y010386D02*
D03*
X081016Y009992D02*
D03*
X081409Y009992D02*
D03*
X082197Y011173D02*
D03*
X082197Y010780D02*
D03*
X081803Y011567D02*
D03*
X081803Y011173D02*
D03*
X081803Y010780D02*
D03*
X079047Y011567D02*
D03*
X079835Y013142D02*
D03*
X081409Y011961D02*
D03*
X082197Y011961D02*
D03*
X082197Y012354D02*
D03*
X078654Y011961D02*
D03*
X079835Y011961D02*
D03*
X079047Y011173D02*
D03*
X079441Y011173D02*
D03*
X080228Y011173D02*
D03*
X079441Y010780D02*
D03*
X079441Y012748D02*
D03*
X079441Y012354D02*
D03*
X080228Y010780D02*
D03*
X080622Y010780D02*
D03*
X080622Y011173D02*
D03*
X081016Y010780D02*
D03*
X079441Y011961D02*
D03*
X078654Y012354D02*
D03*
X081016Y011567D02*
D03*
X081409Y011567D02*
D03*
X081016Y011173D02*
D03*
X081409Y011173D02*
D03*
X081016Y011961D02*
D03*
X081409Y012354D02*
D03*
X081803Y012354D02*
D03*
X079835Y011567D02*
D03*
X080228Y011567D02*
D03*
X080622Y011567D02*
D03*
X080622Y012354D02*
D03*
X073929Y012354D02*
D03*
X076291Y009992D02*
D03*
X075898Y009992D02*
D03*
X077866Y010386D02*
D03*
X078260Y010386D02*
D03*
X078654Y010386D02*
D03*
X077866Y009992D02*
D03*
X078260Y009992D02*
D03*
X078654Y009992D02*
D03*
X075898Y011567D02*
D03*
X075898Y011173D02*
D03*
D209*
X073006Y031574D02*
D03*
X073006Y031074D02*
D03*
X073006Y030574D02*
D03*
X065506Y031574D02*
D03*
X065506Y031074D02*
D03*
X065506Y030574D02*
D03*
X058006Y031574D02*
D03*
X058006Y031074D02*
D03*
X058006Y030574D02*
D03*
X050506Y031574D02*
D03*
X050506Y031074D02*
D03*
X050506Y030574D02*
D03*
X043006Y031574D02*
D03*
X043006Y031074D02*
D03*
X043006Y030574D02*
D03*
X035506Y031574D02*
D03*
X035506Y031074D02*
D03*
X035506Y030574D02*
D03*
X028006Y031574D02*
D03*
X028006Y031074D02*
D03*
X028006Y030574D02*
D03*
X020506Y031574D02*
D03*
X020506Y031074D02*
D03*
X020506Y030574D02*
D03*
X028006Y027574D02*
D03*
X028006Y027074D02*
D03*
X028006Y026074D02*
D03*
X028006Y025574D02*
D03*
X125506Y037574D02*
D03*
X125506Y037074D02*
D03*
X125506Y036574D02*
D03*
X125506Y036074D02*
D03*
X125506Y035574D02*
D03*
X125506Y035074D02*
D03*
X125506Y034574D02*
D03*
X125506Y034074D02*
D03*
X125506Y033574D02*
D03*
X125506Y033074D02*
D03*
X125506Y032574D02*
D03*
X125506Y032074D02*
D03*
X125506Y031574D02*
D03*
X125506Y031074D02*
D03*
X125506Y025074D02*
D03*
X125506Y026574D02*
D03*
X125506Y028074D02*
D03*
X125506Y030574D02*
D03*
X118006Y037574D02*
D03*
X118006Y037074D02*
D03*
X118006Y036574D02*
D03*
X118006Y036074D02*
D03*
X118006Y035574D02*
D03*
X118006Y035074D02*
D03*
X118006Y034574D02*
D03*
X118006Y034074D02*
D03*
X118006Y033574D02*
D03*
X118006Y033074D02*
D03*
X118006Y032574D02*
D03*
X118006Y032074D02*
D03*
X118006Y031574D02*
D03*
X118006Y031074D02*
D03*
X118006Y025074D02*
D03*
X118006Y026574D02*
D03*
X118006Y028074D02*
D03*
X118006Y030574D02*
D03*
X110506Y037574D02*
D03*
X110506Y037074D02*
D03*
X110506Y036574D02*
D03*
X110506Y036074D02*
D03*
X110506Y035574D02*
D03*
X110506Y035074D02*
D03*
X110506Y034574D02*
D03*
X110506Y034074D02*
D03*
X110506Y033574D02*
D03*
X110506Y033074D02*
D03*
X110506Y032574D02*
D03*
X110506Y032074D02*
D03*
X110506Y031574D02*
D03*
X110506Y031074D02*
D03*
X110506Y025074D02*
D03*
X110506Y026574D02*
D03*
X110506Y028074D02*
D03*
X110506Y030574D02*
D03*
X133006Y037574D02*
D03*
X133006Y037074D02*
D03*
X133006Y036574D02*
D03*
X133006Y036074D02*
D03*
X133006Y035574D02*
D03*
X133006Y035074D02*
D03*
X133006Y034574D02*
D03*
X133006Y034074D02*
D03*
X133006Y033574D02*
D03*
X133006Y033074D02*
D03*
X133006Y032574D02*
D03*
X133006Y032074D02*
D03*
X133006Y031574D02*
D03*
X133006Y031074D02*
D03*
X133006Y025074D02*
D03*
X133006Y026574D02*
D03*
X133006Y028074D02*
D03*
X133006Y030574D02*
D03*
X088006Y037574D02*
D03*
X088006Y037074D02*
D03*
X088006Y036574D02*
D03*
X088006Y036074D02*
D03*
X088006Y035574D02*
D03*
X088006Y035074D02*
D03*
X088006Y034574D02*
D03*
X088006Y034074D02*
D03*
X088006Y033574D02*
D03*
X088006Y033074D02*
D03*
X088006Y032574D02*
D03*
X088006Y032074D02*
D03*
X088006Y031574D02*
D03*
X088006Y031074D02*
D03*
X088006Y025074D02*
D03*
X088006Y026574D02*
D03*
X088006Y028074D02*
D03*
X088006Y030574D02*
D03*
X080506Y037574D02*
D03*
X080506Y037074D02*
D03*
X080506Y036574D02*
D03*
X080506Y036074D02*
D03*
X080506Y035574D02*
D03*
X080506Y035074D02*
D03*
X080506Y034574D02*
D03*
X080506Y034074D02*
D03*
X080506Y033574D02*
D03*
X080506Y033074D02*
D03*
X080506Y032574D02*
D03*
X080506Y032074D02*
D03*
X080506Y031574D02*
D03*
X080506Y031074D02*
D03*
X080506Y025074D02*
D03*
X080506Y026574D02*
D03*
X080506Y028074D02*
D03*
X080506Y030574D02*
D03*
X103006Y037574D02*
D03*
X103006Y037074D02*
D03*
X103006Y036574D02*
D03*
X103006Y036074D02*
D03*
X103006Y035574D02*
D03*
X103006Y035074D02*
D03*
X103006Y034574D02*
D03*
X103006Y034074D02*
D03*
X103006Y033574D02*
D03*
X103006Y033074D02*
D03*
X103006Y032574D02*
D03*
X103006Y032074D02*
D03*
X103006Y031574D02*
D03*
X103006Y031074D02*
D03*
X103006Y025074D02*
D03*
X103006Y026574D02*
D03*
X103006Y028074D02*
D03*
X103006Y030574D02*
D03*
X095506Y037574D02*
D03*
X095506Y037074D02*
D03*
X095506Y036574D02*
D03*
X095506Y036074D02*
D03*
X095506Y035574D02*
D03*
X095506Y035074D02*
D03*
X095506Y034574D02*
D03*
X095506Y034074D02*
D03*
X095506Y033574D02*
D03*
X095506Y033074D02*
D03*
X095506Y032574D02*
D03*
X095506Y032074D02*
D03*
X095506Y031574D02*
D03*
X095506Y031074D02*
D03*
X095506Y025074D02*
D03*
X095506Y026574D02*
D03*
X095506Y028074D02*
D03*
X095506Y030574D02*
D03*
X058006Y037574D02*
D03*
X058006Y037074D02*
D03*
X058006Y036574D02*
D03*
X058006Y036074D02*
D03*
X058006Y035574D02*
D03*
X058006Y035074D02*
D03*
X058006Y034574D02*
D03*
X058006Y034074D02*
D03*
X058006Y033574D02*
D03*
X058006Y033074D02*
D03*
X058006Y032574D02*
D03*
X058006Y032074D02*
D03*
X058006Y025074D02*
D03*
X058006Y026574D02*
D03*
X058006Y028074D02*
D03*
X050506Y037574D02*
D03*
X050506Y037074D02*
D03*
X050506Y036574D02*
D03*
X050506Y036074D02*
D03*
X050506Y035574D02*
D03*
X050506Y035074D02*
D03*
X050506Y034574D02*
D03*
X050506Y034074D02*
D03*
X050506Y033574D02*
D03*
X050506Y033074D02*
D03*
X050506Y032574D02*
D03*
X050506Y032074D02*
D03*
X050506Y025074D02*
D03*
X050506Y026574D02*
D03*
X050506Y028074D02*
D03*
X073006Y037574D02*
D03*
X073006Y037074D02*
D03*
X073006Y036574D02*
D03*
X073006Y036074D02*
D03*
X073006Y035574D02*
D03*
X073006Y035074D02*
D03*
X073006Y034574D02*
D03*
X073006Y034074D02*
D03*
X073006Y033574D02*
D03*
X073006Y033074D02*
D03*
X073006Y032574D02*
D03*
X073006Y032074D02*
D03*
X073006Y025074D02*
D03*
X073006Y026574D02*
D03*
X073006Y028074D02*
D03*
X065506Y037574D02*
D03*
X065506Y037074D02*
D03*
X065506Y036574D02*
D03*
X065506Y036074D02*
D03*
X065506Y035574D02*
D03*
X065506Y035074D02*
D03*
X065506Y034574D02*
D03*
X065506Y034074D02*
D03*
X065506Y033574D02*
D03*
X065506Y033074D02*
D03*
X065506Y032574D02*
D03*
X065506Y032074D02*
D03*
X065506Y025074D02*
D03*
X065506Y026574D02*
D03*
X065506Y028074D02*
D03*
X028006Y037574D02*
D03*
X028006Y037074D02*
D03*
X028006Y036574D02*
D03*
X028006Y036074D02*
D03*
X028006Y035574D02*
D03*
X028006Y035074D02*
D03*
X028006Y034574D02*
D03*
X028006Y034074D02*
D03*
X028006Y033574D02*
D03*
X028006Y033074D02*
D03*
X028006Y032574D02*
D03*
X028006Y032074D02*
D03*
X028006Y025074D02*
D03*
X028006Y026574D02*
D03*
X028006Y028074D02*
D03*
X020506Y037574D02*
D03*
X020506Y037074D02*
D03*
X020506Y036574D02*
D03*
X020506Y036074D02*
D03*
X020506Y035574D02*
D03*
X020506Y035074D02*
D03*
X020506Y034574D02*
D03*
X020506Y034074D02*
D03*
X020506Y033574D02*
D03*
X020506Y033074D02*
D03*
X020506Y032574D02*
D03*
X020506Y032074D02*
D03*
X020506Y025074D02*
D03*
X020506Y026574D02*
D03*
X020506Y028074D02*
D03*
X043006Y037574D02*
D03*
X043006Y037074D02*
D03*
X043006Y036574D02*
D03*
X043006Y036074D02*
D03*
X043006Y035574D02*
D03*
X043006Y035074D02*
D03*
X043006Y034574D02*
D03*
X043006Y034074D02*
D03*
X043006Y033574D02*
D03*
X043006Y033074D02*
D03*
X043006Y032574D02*
D03*
X043006Y032074D02*
D03*
X043006Y025074D02*
D03*
X043006Y026574D02*
D03*
X043006Y028074D02*
D03*
X035506Y037574D02*
D03*
X035506Y037074D02*
D03*
X035506Y036574D02*
D03*
X035506Y036074D02*
D03*
X035506Y035574D02*
D03*
X035506Y035074D02*
D03*
X035506Y034574D02*
D03*
X035506Y034074D02*
D03*
X035506Y033574D02*
D03*
X035506Y033074D02*
D03*
X035506Y032574D02*
D03*
X035506Y032074D02*
D03*
X035506Y025074D02*
D03*
X035506Y026574D02*
D03*
X035506Y028074D02*
D03*
X020506Y027574D02*
D03*
X020506Y027074D02*
D03*
X020506Y025574D02*
D03*
X020506Y026074D02*
D03*
X035506Y027574D02*
D03*
X035506Y027074D02*
D03*
X035506Y025574D02*
D03*
X035506Y026074D02*
D03*
X043006Y027574D02*
D03*
X043006Y027074D02*
D03*
X043006Y025574D02*
D03*
X043006Y026074D02*
D03*
X050506Y027574D02*
D03*
X050506Y027074D02*
D03*
X050506Y025574D02*
D03*
X050506Y026074D02*
D03*
X058006Y027574D02*
D03*
X058006Y027074D02*
D03*
X058006Y025574D02*
D03*
X058006Y026074D02*
D03*
X065506Y027574D02*
D03*
X065506Y027074D02*
D03*
X065506Y025574D02*
D03*
X065506Y026074D02*
D03*
X073006Y027574D02*
D03*
X073006Y027074D02*
D03*
X073006Y025574D02*
D03*
X073006Y026074D02*
D03*
X133006Y027574D02*
D03*
X133006Y027074D02*
D03*
X133006Y025574D02*
D03*
X133006Y026074D02*
D03*
X110506Y027574D02*
D03*
X110506Y027074D02*
D03*
X110506Y025574D02*
D03*
X110506Y026074D02*
D03*
X118006Y027574D02*
D03*
X118006Y027074D02*
D03*
X118006Y025574D02*
D03*
X118006Y026074D02*
D03*
X125506Y027574D02*
D03*
X125506Y027074D02*
D03*
X125506Y025574D02*
D03*
X125506Y026074D02*
D03*
X080506Y027574D02*
D03*
X080506Y027074D02*
D03*
X080506Y025574D02*
D03*
X080506Y026074D02*
D03*
X088006Y027574D02*
D03*
X088006Y027074D02*
D03*
X088006Y025574D02*
D03*
X088006Y026074D02*
D03*
X095506Y027574D02*
D03*
X095506Y027074D02*
D03*
X095506Y025574D02*
D03*
X095506Y026074D02*
D03*
X103006Y027574D02*
D03*
X103006Y027074D02*
D03*
X103006Y025574D02*
D03*
X103006Y026074D02*
D03*
D200*
X057715Y041400D02*
D03*
X056165Y041450D02*
D03*
X054615Y041450D02*
D03*
X058385Y041400D02*
D03*
X055285Y041450D02*
D03*
X056835Y041450D02*
D03*
X053065Y041450D02*
D03*
X053735Y041450D02*
D03*
D124*
X076362Y005779D02*
D03*
X074362Y005779D02*
D03*
X076362Y004126D02*
D03*
X074362Y004126D02*
D03*
D155*
X056880Y047693D02*
D03*
X057825Y047693D02*
D03*
X057510Y047693D02*
D03*
X057195Y047693D02*
D03*
X056565Y047693D02*
D03*
X056250Y047693D02*
D03*
X055935Y047693D02*
D03*
X055620Y047693D02*
D03*
X055305Y047693D02*
D03*
X054990Y047693D02*
D03*
X054675Y047693D02*
D03*
X057825Y043007D02*
D03*
X057510Y043007D02*
D03*
X057195Y043007D02*
D03*
X056880Y043007D02*
D03*
X056565Y043007D02*
D03*
X056250Y043007D02*
D03*
X055935Y043007D02*
D03*
X054990Y043007D02*
D03*
X054675Y043007D02*
D03*
X055305Y043007D02*
D03*
X055620Y043007D02*
D03*
D227*
X060050Y046200D02*
D03*
X060050Y044200D02*
D03*
X061704Y044200D02*
D03*
X061704Y046200D02*
D03*
D62*
X098350Y041326D02*
D03*
X098350Y042074D02*
D03*
X106400Y041326D02*
D03*
X106400Y042074D02*
D03*
D40*
X087354Y005150D02*
D03*
X087354Y005779D02*
D03*
X087354Y007039D02*
D03*
X087354Y007354D02*
D03*
X087354Y007669D02*
D03*
X087039Y007669D02*
D03*
X087039Y007354D02*
D03*
X087039Y007039D02*
D03*
X087039Y005779D02*
D03*
X087039Y005465D02*
D03*
X087039Y005150D02*
D03*
X086409Y005150D02*
D03*
X086409Y005465D02*
D03*
X086409Y005779D02*
D03*
X086409Y007039D02*
D03*
X086409Y007354D02*
D03*
X086409Y007669D02*
D03*
X086724Y007669D02*
D03*
X086724Y007354D02*
D03*
X086724Y007039D02*
D03*
X086724Y005779D02*
D03*
X086724Y005465D02*
D03*
X086724Y005150D02*
D03*
X085779Y005150D02*
D03*
X085779Y005465D02*
D03*
X085779Y005779D02*
D03*
X085779Y007039D02*
D03*
X085779Y007354D02*
D03*
X085779Y007669D02*
D03*
X086094Y007669D02*
D03*
X086094Y007354D02*
D03*
X086094Y007039D02*
D03*
X086094Y005779D02*
D03*
X086094Y005465D02*
D03*
X086094Y005150D02*
D03*
X085149Y005150D02*
D03*
X085149Y005465D02*
D03*
X085149Y005779D02*
D03*
X085149Y007039D02*
D03*
X085149Y007354D02*
D03*
X085149Y007669D02*
D03*
X085464Y007669D02*
D03*
X085464Y007354D02*
D03*
X085464Y007039D02*
D03*
X085464Y005779D02*
D03*
X085464Y005465D02*
D03*
X085464Y005150D02*
D03*
X082945Y007669D02*
D03*
X082945Y005465D02*
D03*
X082945Y005779D02*
D03*
X082945Y007039D02*
D03*
X082945Y007354D02*
D03*
X083575Y007669D02*
D03*
X083575Y005465D02*
D03*
X083575Y005779D02*
D03*
X083575Y007039D02*
D03*
X083575Y007354D02*
D03*
X083260Y005150D02*
D03*
X083260Y007354D02*
D03*
X083260Y007039D02*
D03*
X083260Y005779D02*
D03*
X083260Y005465D02*
D03*
X084205Y007669D02*
D03*
X084205Y005465D02*
D03*
X084205Y005779D02*
D03*
X084205Y007039D02*
D03*
X084205Y007354D02*
D03*
X083890Y005150D02*
D03*
X083890Y007354D02*
D03*
X083890Y007039D02*
D03*
X083890Y005779D02*
D03*
X083890Y005465D02*
D03*
X084519Y005465D02*
D03*
X084519Y005779D02*
D03*
X084519Y007039D02*
D03*
X084519Y007354D02*
D03*
X084834Y007669D02*
D03*
X084834Y007354D02*
D03*
X084834Y007039D02*
D03*
X084834Y005779D02*
D03*
X084834Y005465D02*
D03*
X084834Y005150D02*
D03*
X084519Y005150D02*
D03*
X087354Y005465D02*
D03*
D148*
X120976Y008220D02*
D03*
X120976Y009323D02*
D03*
X099480Y010189D02*
D03*
X099480Y011291D02*
D03*
X110661Y009559D02*
D03*
X110661Y008457D02*
D03*
D67*
X089854Y009441D02*
D03*
X089854Y009815D02*
D03*
X089854Y010189D02*
D03*
X089008Y009441D02*
D03*
X089008Y010189D02*
D03*
D30*
X013000Y047000D02*
D03*
X090000Y020000D02*
D03*
X078000Y003000D02*
D03*
X139000Y008000D02*
D03*
X020000Y017000D02*
D03*
X139000Y042000D02*
D03*
D146*
X043332Y046800D02*
D03*
X047269Y046800D02*
D03*
D186*
X007000Y046000D02*
D03*
X051000Y046000D02*
D03*
X095000Y046000D02*
D03*
X139000Y046000D02*
D03*
X018000Y019500D02*
D03*
X048000Y019500D02*
D03*
X106000Y019500D02*
D03*
X139000Y019500D02*
D03*
D116*
X078968Y043394D02*
D03*
X073917Y043000D02*
D03*
X089969Y043394D02*
D03*
X084917Y043000D02*
D03*
X062917Y043000D02*
D03*
X067969Y043394D02*
D03*
D89*
X125900Y023700D02*
D03*
X125900Y038948D02*
D03*
X118400Y023700D02*
D03*
X118400Y038948D02*
D03*
X110900Y023700D02*
D03*
X110900Y038948D02*
D03*
X133400Y023700D02*
D03*
X133400Y038948D02*
D03*
X088400Y023700D02*
D03*
X088400Y038948D02*
D03*
X080900Y023700D02*
D03*
X080900Y038948D02*
D03*
X103400Y023700D02*
D03*
X103400Y038948D02*
D03*
X095900Y023700D02*
D03*
X095900Y038948D02*
D03*
X058400Y023700D02*
D03*
X058400Y038948D02*
D03*
X050900Y023700D02*
D03*
X050900Y038948D02*
D03*
X073400Y023700D02*
D03*
X073400Y038948D02*
D03*
X065900Y023700D02*
D03*
X065900Y038948D02*
D03*
X028400Y023700D02*
D03*
X028400Y038948D02*
D03*
X020900Y023700D02*
D03*
X020900Y038948D02*
D03*
X043400Y023700D02*
D03*
X043400Y038948D02*
D03*
X035900Y023700D02*
D03*
X035900Y038948D02*
D03*
D189*
X012157Y045464D02*
D03*
D91*
X011157Y045464D02*
D03*
D59*
X092108Y004884D02*
D03*
X094608Y004884D02*
D03*
X095858Y004884D02*
D03*
X095858Y011134D02*
D03*
X092108Y011084D02*
D03*
X006331Y007748D02*
D03*
X007981Y007748D02*
D03*
X006331Y005578D02*
D03*
X007981Y005578D02*
D03*
D51*
X009831Y005758D02*
D03*
X004481Y005758D02*
D03*
D232*
X066750Y009800D02*
D03*
X066750Y008800D02*
D03*
X065750Y009800D02*
D03*
X064750Y009800D02*
D03*
X063750Y009800D02*
D03*
X062750Y009800D02*
D03*
X061750Y009800D02*
D03*
X060750Y009800D02*
D03*
X059750Y009800D02*
D03*
X058750Y009800D02*
D03*
X057750Y009800D02*
D03*
X056750Y009800D02*
D03*
X055750Y009800D02*
D03*
X054750Y009800D02*
D03*
X053750Y009800D02*
D03*
X052750Y009800D02*
D03*
X051750Y009800D02*
D03*
X050750Y009800D02*
D03*
X049750Y009800D02*
D03*
X048750Y009800D02*
D03*
X047750Y009800D02*
D03*
X046750Y009800D02*
D03*
X045750Y009800D02*
D03*
X044750Y009800D02*
D03*
X043750Y009800D02*
D03*
X042750Y009800D02*
D03*
X041750Y009800D02*
D03*
X040750Y009800D02*
D03*
X039750Y009800D02*
D03*
X065750Y008800D02*
D03*
X064750Y008800D02*
D03*
X063750Y008800D02*
D03*
X062750Y008800D02*
D03*
X061750Y008800D02*
D03*
X060750Y008800D02*
D03*
X059750Y008800D02*
D03*
X058750Y008800D02*
D03*
X057750Y008800D02*
D03*
X056750Y008800D02*
D03*
X055750Y008800D02*
D03*
X054750Y008800D02*
D03*
X053750Y008800D02*
D03*
X052750Y008800D02*
D03*
X051750Y008800D02*
D03*
X050750Y008800D02*
D03*
X049750Y008800D02*
D03*
X048750Y008800D02*
D03*
X047750Y008800D02*
D03*
X046750Y008800D02*
D03*
X045750Y008800D02*
D03*
X044750Y008800D02*
D03*
X043750Y008800D02*
D03*
X042750Y008800D02*
D03*
X041750Y008800D02*
D03*
X040750Y008800D02*
D03*
X039750Y008800D02*
D03*
D70*
X076488Y012157D02*
D03*
X076488Y011764D02*
D03*
X076094Y011764D02*
D03*
X047550Y044850D02*
D03*
X052450Y047850D02*
D03*
X038500Y047000D02*
D03*
X053000Y047550D02*
D03*
X048000Y045150D02*
D03*
X047800Y046950D02*
D03*
X046750Y046900D02*
D03*
X046100Y046900D02*
D03*
X045300Y046900D02*
D03*
X044500Y046900D02*
D03*
X043850Y046800D02*
D03*
X042600Y046850D02*
D03*
X044750Y045150D02*
D03*
X044650Y044600D02*
D03*
X082492Y012157D02*
D03*
X082699Y005888D02*
D03*
X085642Y010878D02*
D03*
X076291Y004972D02*
D03*
X075110Y005366D02*
D03*
X082984Y012748D02*
D03*
X079244Y009461D02*
D03*
X078358Y004087D02*
D03*
X079480Y004047D02*
D03*
X078457Y006547D02*
D03*
X079441Y006350D02*
D03*
X079638Y007728D02*
D03*
X078654Y009598D02*
D03*
X078260Y009598D02*
D03*
X077866Y009402D02*
D03*
X076783Y008516D02*
D03*
X075307Y007728D02*
D03*
X075406Y007335D02*
D03*
X076291Y008122D02*
D03*
X064874Y012453D02*
D03*
X075110Y008811D02*
D03*
X075504Y009303D02*
D03*
X080130Y020819D02*
D03*
X071491Y015875D02*
D03*
X071635Y016125D02*
D03*
X054146Y040602D02*
D03*
X046468Y041587D02*
D03*
X051587Y029579D02*
D03*
X047157Y040898D02*
D03*
X051094Y022295D02*
D03*
X064283Y012354D02*
D03*
X052965Y026331D02*
D03*
X054146Y024264D02*
D03*
X056803Y038240D02*
D03*
X058280Y017866D02*
D03*
X054441Y040799D02*
D03*
X055622Y018063D02*
D03*
X056016Y039028D02*
D03*
X057197Y018358D02*
D03*
X045780Y043555D02*
D03*
X073634Y020917D02*
D03*
X100799Y038634D02*
D03*
X096862Y038339D02*
D03*
X081606Y021409D02*
D03*
X081606Y021016D02*
D03*
X081952Y020327D02*
D03*
X081606Y020327D02*
D03*
X075898Y020622D02*
D03*
X075701Y020819D02*
D03*
X083181Y028299D02*
D03*
X074126Y037157D02*
D03*
X098378Y040740D02*
D03*
X106488Y040701D02*
D03*
X054756Y045268D02*
D03*
X055780Y045228D02*
D03*
X056409Y045543D02*
D03*
X057161Y045980D02*
D03*
X073299Y028496D02*
D03*
X073535Y028732D02*
D03*
X073732Y028929D02*
D03*
X073929Y029126D02*
D03*
X083890Y028378D02*
D03*
X074087Y029362D02*
D03*
X074283Y029598D02*
D03*
X074402Y029992D02*
D03*
X074709Y036574D02*
D03*
X084244Y028063D02*
D03*
X084559Y027630D02*
D03*
X084874Y027591D02*
D03*
X085228Y027472D02*
D03*
X085583Y027315D02*
D03*
X055622Y039913D02*
D03*
X056094Y044008D02*
D03*
X053220Y040071D02*
D03*
X051764Y043102D02*
D03*
X073339Y020898D02*
D03*
X073142Y020661D02*
D03*
X071370Y017866D02*
D03*
X071665Y017571D02*
D03*
X116449Y025248D02*
D03*
X116881Y026074D02*
D03*
X083625Y017375D02*
D03*
X083500Y017625D02*
D03*
X077669Y020581D02*
D03*
X077276Y020474D02*
D03*
X085937Y027315D02*
D03*
X084834Y006094D02*
D03*
X082669Y006961D02*
D03*
X082945Y007984D02*
D03*
X083535Y008024D02*
D03*
X084795Y007906D02*
D03*
X087630Y007039D02*
D03*
X087039Y006725D02*
D03*
X087630Y007354D02*
D03*
X087630Y007669D02*
D03*
X085268Y006213D02*
D03*
X084992Y004874D02*
D03*
X085268Y004677D02*
D03*
X085464Y004914D02*
D03*
X085622Y006094D02*
D03*
X085858Y006252D02*
D03*
X087039Y004795D02*
D03*
X086567Y006134D02*
D03*
X086055Y006016D02*
D03*
X086173Y006264D02*
D03*
X087197Y006094D02*
D03*
X086882Y006094D02*
D03*
X087630Y005779D02*
D03*
X087669Y005465D02*
D03*
X087669Y005150D02*
D03*
X086724Y004795D02*
D03*
X084638Y004795D02*
D03*
X085779Y004717D02*
D03*
X086094Y004665D02*
D03*
X086409Y004638D02*
D03*
X086173Y004913D02*
D03*
X087236Y008024D02*
D03*
X086724Y006685D02*
D03*
X086724Y008023D02*
D03*
X087000Y008181D02*
D03*
X086409Y006685D02*
D03*
X086094Y006724D02*
D03*
X086094Y007984D02*
D03*
X086409Y008220D02*
D03*
X085779Y008220D02*
D03*
X085779Y006725D02*
D03*
X085543Y006567D02*
D03*
X085149Y008260D02*
D03*
X085425Y008142D02*
D03*
X085583Y007906D02*
D03*
X083693Y006803D02*
D03*
X084283Y006803D02*
D03*
X083929Y004913D02*
D03*
X084362Y004913D02*
D03*
X084598Y006764D02*
D03*
X084913Y006764D02*
D03*
X085268Y006724D02*
D03*
X068732Y020504D02*
D03*
X084250Y008400D02*
D03*
X033500Y043950D02*
D03*
X032500Y044100D02*
D03*
X038300Y047750D02*
D03*
X037050Y047850D02*
D03*
X035950Y047800D02*
D03*
X035000Y047700D02*
D03*
X033850Y048000D02*
D03*
X033000Y047900D02*
D03*
X032000Y047900D02*
D03*
X064500Y042250D02*
D03*
X065000Y042250D02*
D03*
X066000Y042250D02*
D03*
X066500Y042200D02*
D03*
X065000Y048700D02*
D03*
X076000Y041250D02*
D03*
X075500Y042200D02*
D03*
X077000Y042000D02*
D03*
X077500Y042100D02*
D03*
X076100Y048750D02*
D03*
X088000Y041500D02*
D03*
X088500Y042250D02*
D03*
X086065Y042065D02*
D03*
X086959Y042359D02*
D03*
X087050Y048600D02*
D03*
X076150Y044250D02*
D03*
X071173Y042900D02*
D03*
X052965Y038835D02*
D03*
X044600Y043800D02*
D03*
X082550Y038850D02*
D03*
D156*
X090563Y012354D02*
D03*
X088201Y008516D02*
D03*
X090268Y009106D02*
D03*
X053929Y042748D02*
D03*
X059126Y044716D02*
D03*
X060050Y044617D02*
D03*
X054520Y046252D02*
D03*
X056277Y047054D02*
D03*
X056882Y047079D02*
D03*
X053338Y045976D02*
D03*
X054990Y042392D02*
D03*
X059165Y045622D02*
D03*
X057791Y046295D02*
D03*
X055504Y045897D02*
D03*
X061094Y046212D02*
D03*
X057039Y046331D02*
D03*
X047777Y044115D02*
D03*
X057397Y046925D02*
D03*
X045071Y043496D02*
D03*
D56*
X090563Y010189D02*
D03*
X109657Y010189D02*
D03*
X108575Y009598D02*
D03*
X120051Y009559D02*
D03*
X118811Y010091D02*
D03*
X105447Y009420D02*
D03*
X105447Y008520D02*
D03*
X105447Y007620D02*
D03*
X105447Y006720D02*
D03*
X104547Y009420D02*
D03*
X103647Y009420D02*
D03*
X102747Y009420D02*
D03*
X101847Y009420D02*
D03*
X101847Y008520D02*
D03*
X101847Y007620D02*
D03*
X101847Y006720D02*
D03*
X105447Y005820D02*
D03*
X104547Y005820D02*
D03*
X103647Y005820D02*
D03*
X102747Y005820D02*
D03*
X101847Y005820D02*
D03*
X106803Y004776D02*
D03*
X121646Y009323D02*
D03*
X100701Y004776D02*
D03*
X099520Y008220D02*
D03*
X099520Y009500D02*
D03*
X109756Y007630D02*
D03*
X105622Y004579D02*
D03*
X111429Y009598D02*
D03*
X120082Y007523D02*
D03*
X117039Y004677D02*
D03*
X120080Y006853D02*
D03*
X120061Y006183D02*
D03*
X118811Y005465D02*
D03*
X119965Y008193D02*
D03*
X109698Y006999D02*
D03*
X109756Y006350D02*
D03*
X108555Y004598D02*
D03*
X073535Y005760D02*
D03*
X077039Y004126D02*
D03*
X027551Y016173D02*
D03*
X010219Y035681D02*
D03*
X009323Y036577D02*
D03*
X008427Y035681D02*
D03*
X010219Y019087D02*
D03*
X009323Y019982D02*
D03*
X008427Y019087D02*
D03*
X024205Y007955D02*
D03*
X024205Y009746D02*
D03*
X023309Y008850D02*
D03*
X029559Y008850D02*
D03*
X030455Y009746D02*
D03*
X030455Y007955D02*
D03*
X031350Y008850D02*
D03*
X029559Y013850D02*
D03*
X030455Y014746D02*
D03*
X030455Y012955D02*
D03*
X031350Y013850D02*
D03*
X017059Y008850D02*
D03*
X017955Y009746D02*
D03*
X017955Y007955D02*
D03*
X018850Y008850D02*
D03*
X017059Y013850D02*
D03*
X017955Y014746D02*
D03*
X017955Y012955D02*
D03*
X018850Y013850D02*
D03*
X008427Y012837D02*
D03*
X009323Y013732D02*
D03*
X009323Y011941D02*
D03*
X010219Y012837D02*
D03*
X013427Y012837D02*
D03*
X014323Y013732D02*
D03*
X014323Y011941D02*
D03*
X015219Y012837D02*
D03*
X013427Y025337D02*
D03*
X014323Y026232D02*
D03*
X014323Y024441D02*
D03*
X015219Y025337D02*
D03*
X008427Y025337D02*
D03*
X009323Y026232D02*
D03*
X009323Y024441D02*
D03*
X010219Y025337D02*
D03*
X013427Y041931D02*
D03*
X014323Y042827D02*
D03*
X014323Y041035D02*
D03*
X015219Y041931D02*
D03*
X013427Y029431D02*
D03*
X014323Y030327D02*
D03*
X014323Y028535D02*
D03*
X015219Y029431D02*
D03*
X008427Y029431D02*
D03*
X009323Y030327D02*
D03*
X009323Y028535D02*
D03*
X010219Y029431D02*
D03*
X010219Y041931D02*
D03*
X009323Y041035D02*
D03*
X009323Y042827D02*
D03*
X008427Y041931D02*
D03*
X018083Y037905D02*
D03*
X018350Y016900D02*
D03*
X028220Y005681D02*
D03*
X028220Y004402D02*
D03*
X024913Y005681D02*
D03*
X024913Y004402D02*
D03*
X022472Y005602D02*
D03*
X022472Y004323D02*
D03*
X019165Y005602D02*
D03*
X019165Y004323D02*
D03*
X016488Y005602D02*
D03*
X016488Y004323D02*
D03*
X013181Y005602D02*
D03*
X013181Y004323D02*
D03*
X005878Y012000D02*
D03*
X004598Y012000D02*
D03*
X005878Y015307D02*
D03*
X004598Y015307D02*
D03*
X005799Y018063D02*
D03*
X004520Y018063D02*
D03*
X005799Y021370D02*
D03*
X004520Y021370D02*
D03*
X005760Y042945D02*
D03*
X004480Y042945D02*
D03*
X005760Y039638D02*
D03*
X004480Y039638D02*
D03*
X005760Y037669D02*
D03*
X004480Y037669D02*
D03*
X005740Y034421D02*
D03*
X004461Y034421D02*
D03*
X005760Y032394D02*
D03*
X004480Y032394D02*
D03*
X005760Y029087D02*
D03*
X004480Y029087D02*
D03*
X004441Y027118D02*
D03*
X005720Y027118D02*
D03*
X005622Y023968D02*
D03*
X005228Y022492D02*
D03*
X005268Y010839D02*
D03*
X005228Y016783D02*
D03*
X071882Y031567D02*
D03*
X064419Y031508D02*
D03*
X074067Y031074D02*
D03*
X066604Y031016D02*
D03*
X056882Y031567D02*
D03*
X049382Y031567D02*
D03*
X059067Y031074D02*
D03*
X051567Y031074D02*
D03*
X071882Y030583D02*
D03*
X064419Y030524D02*
D03*
X067748Y030268D02*
D03*
X061000Y029819D02*
D03*
X056882Y030583D02*
D03*
X049382Y030583D02*
D03*
X053500Y029819D02*
D03*
X046000Y029819D02*
D03*
X041882Y031567D02*
D03*
X044067Y031074D02*
D03*
X036567Y031074D02*
D03*
X034382Y031567D02*
D03*
X026882Y031567D02*
D03*
X019382Y031567D02*
D03*
X029067Y031074D02*
D03*
X021567Y031074D02*
D03*
X041882Y030583D02*
D03*
X034382Y030583D02*
D03*
X038500Y029819D02*
D03*
X031000Y029819D02*
D03*
X026882Y030583D02*
D03*
X023496Y029795D02*
D03*
X019382Y030583D02*
D03*
X017984Y029756D02*
D03*
X070976Y020425D02*
D03*
X083575Y021409D02*
D03*
X087118Y021803D02*
D03*
X084264Y012354D02*
D03*
X087768Y012394D02*
D03*
X021586Y032079D02*
D03*
X029086Y032079D02*
D03*
X036586Y032079D02*
D03*
X044086Y032079D02*
D03*
X051586Y032079D02*
D03*
X059086Y032079D02*
D03*
X066623Y032020D02*
D03*
X074086Y032079D02*
D03*
X019382Y032551D02*
D03*
X017984Y033339D02*
D03*
X021626Y033063D02*
D03*
X026882Y032551D02*
D03*
X023500Y033382D02*
D03*
X112083Y005722D02*
D03*
X112983Y005722D02*
D03*
X113883Y005722D02*
D03*
X114783Y005722D02*
D03*
X115683Y005722D02*
D03*
X021590Y035074D02*
D03*
X029090Y035074D02*
D03*
X021607Y036074D02*
D03*
X034382Y032551D02*
D03*
X029126Y033063D02*
D03*
X041882Y032551D02*
D03*
X049382Y032551D02*
D03*
X031016Y033457D02*
D03*
X036626Y033063D02*
D03*
X029107Y036074D02*
D03*
X036590Y035074D02*
D03*
X038516Y033457D02*
D03*
X044126Y033063D02*
D03*
X046016Y033457D02*
D03*
X044090Y035074D02*
D03*
X112083Y006622D02*
D03*
X112083Y007522D02*
D03*
X112083Y008422D02*
D03*
X112083Y009322D02*
D03*
X112983Y009322D02*
D03*
X113883Y009322D02*
D03*
X114783Y009322D02*
D03*
X115683Y006622D02*
D03*
X018940Y036184D02*
D03*
X025504Y037000D02*
D03*
X033004Y037000D02*
D03*
X036607Y036074D02*
D03*
X044107Y036074D02*
D03*
X115683Y007522D02*
D03*
X115683Y008422D02*
D03*
X115683Y009322D02*
D03*
X040504Y037000D02*
D03*
X048004Y037000D02*
D03*
X056882Y032551D02*
D03*
X051626Y033063D02*
D03*
X053516Y033457D02*
D03*
X064419Y032493D02*
D03*
X059126Y033063D02*
D03*
X051590Y035074D02*
D03*
X051607Y036074D02*
D03*
X061016Y033457D02*
D03*
X059090Y035074D02*
D03*
X059107Y036074D02*
D03*
X071882Y032551D02*
D03*
X066663Y033004D02*
D03*
X079382Y032551D02*
D03*
X074126Y033063D02*
D03*
X068516Y033457D02*
D03*
X066627Y035016D02*
D03*
X066644Y036016D02*
D03*
X074090Y035074D02*
D03*
X074107Y036074D02*
D03*
X055504Y037000D02*
D03*
X063023Y037039D02*
D03*
X064022Y043783D02*
D03*
X065518Y043783D02*
D03*
X070504Y037000D02*
D03*
X067014Y043783D02*
D03*
X075008Y043823D02*
D03*
X078008Y043839D02*
D03*
X076500Y043866D02*
D03*
X081586Y032079D02*
D03*
X086882Y032551D02*
D03*
X081626Y033063D02*
D03*
X089086Y032079D02*
D03*
X094382Y032551D02*
D03*
X096586Y032079D02*
D03*
X104143Y032060D02*
D03*
X101938Y032532D02*
D03*
X081590Y035074D02*
D03*
X083535Y033338D02*
D03*
X081607Y036074D02*
D03*
X083456Y036960D02*
D03*
X089090Y035074D02*
D03*
X086000Y043824D02*
D03*
X087500Y043789D02*
D03*
X089000Y043853D02*
D03*
X089126Y033063D02*
D03*
X091035Y033338D02*
D03*
X096590Y035074D02*
D03*
X096626Y033063D02*
D03*
X104182Y033044D02*
D03*
X098535Y033338D02*
D03*
X104146Y035055D02*
D03*
X089107Y036074D02*
D03*
X096607Y036074D02*
D03*
X090956Y036960D02*
D03*
X104163Y036055D02*
D03*
X098456Y036960D02*
D03*
X105956Y036960D02*
D03*
X111586Y032079D02*
D03*
X109382Y032551D02*
D03*
X116882Y032551D02*
D03*
X119086Y032079D02*
D03*
X126586Y032079D02*
D03*
X124382Y032551D02*
D03*
X135976Y031803D02*
D03*
X131882Y032551D02*
D03*
X134086Y032079D02*
D03*
X111626Y033063D02*
D03*
X106035Y033338D02*
D03*
X111590Y035074D02*
D03*
X113535Y033338D02*
D03*
X119126Y033063D02*
D03*
X111607Y036074D02*
D03*
X119090Y035074D02*
D03*
X113456Y036960D02*
D03*
X119107Y036074D02*
D03*
X126626Y033063D02*
D03*
X121035Y033338D02*
D03*
X126590Y035074D02*
D03*
X128535Y033338D02*
D03*
X134126Y033063D02*
D03*
X126607Y036074D02*
D03*
X120956Y036960D02*
D03*
X128456Y036960D02*
D03*
X134090Y035074D02*
D03*
X134107Y036074D02*
D03*
X136000Y036984D02*
D03*
X019436Y034574D02*
D03*
X021586Y034047D02*
D03*
X019421Y033575D02*
D03*
X026936Y034574D02*
D03*
X029086Y034047D02*
D03*
X026921Y033575D02*
D03*
X034436Y034574D02*
D03*
X036586Y034047D02*
D03*
X034421Y033575D02*
D03*
X041936Y034574D02*
D03*
X044086Y034047D02*
D03*
X041921Y033575D02*
D03*
X049436Y034574D02*
D03*
X051586Y034047D02*
D03*
X049421Y033575D02*
D03*
X056936Y034574D02*
D03*
X059086Y034047D02*
D03*
X056921Y033575D02*
D03*
X064473Y034516D02*
D03*
X066623Y033989D02*
D03*
X064458Y033516D02*
D03*
X071936Y034574D02*
D03*
X074086Y034047D02*
D03*
X071921Y033575D02*
D03*
X079436Y034574D02*
D03*
X081586Y034047D02*
D03*
X079421Y033575D02*
D03*
X079382Y031567D02*
D03*
X081567Y031074D02*
D03*
X079382Y030583D02*
D03*
X131936Y034574D02*
D03*
X134086Y034047D02*
D03*
X131921Y033575D02*
D03*
X131882Y031567D02*
D03*
X134067Y031074D02*
D03*
X131882Y030583D02*
D03*
X124436Y034574D02*
D03*
X126586Y034047D02*
D03*
X124421Y033575D02*
D03*
X124382Y031567D02*
D03*
X126567Y031074D02*
D03*
X124382Y030583D02*
D03*
X116936Y034574D02*
D03*
X119086Y034047D02*
D03*
X116921Y033575D02*
D03*
X116882Y031567D02*
D03*
X119067Y031074D02*
D03*
X116882Y030583D02*
D03*
X109436Y034574D02*
D03*
X111586Y034047D02*
D03*
X109421Y033575D02*
D03*
X109382Y031567D02*
D03*
X111567Y031074D02*
D03*
X109382Y030583D02*
D03*
X101993Y034555D02*
D03*
X104143Y034028D02*
D03*
X101978Y033556D02*
D03*
X101938Y031548D02*
D03*
X104124Y031055D02*
D03*
X101938Y030564D02*
D03*
X094436Y034574D02*
D03*
X096586Y034047D02*
D03*
X094421Y033575D02*
D03*
X094382Y031567D02*
D03*
X096567Y031074D02*
D03*
X094382Y030583D02*
D03*
X086882Y030583D02*
D03*
X089067Y031074D02*
D03*
X086882Y031567D02*
D03*
X086921Y033575D02*
D03*
X089086Y034047D02*
D03*
X086936Y034574D02*
D03*
X083456Y034992D02*
D03*
X083456Y029835D02*
D03*
X085464Y029795D02*
D03*
X092964Y029795D02*
D03*
X090956Y029835D02*
D03*
X090956Y034992D02*
D03*
X100464Y029795D02*
D03*
X098456Y029835D02*
D03*
X098456Y034992D02*
D03*
X107964Y029795D02*
D03*
X105956Y029835D02*
D03*
X105956Y034992D02*
D03*
X115464Y029795D02*
D03*
X113456Y029835D02*
D03*
X113456Y034992D02*
D03*
X122964Y029795D02*
D03*
X120956Y029835D02*
D03*
X120956Y034992D02*
D03*
X130464Y029795D02*
D03*
X128456Y029835D02*
D03*
X128456Y034992D02*
D03*
X136000Y034977D02*
D03*
X136015Y029795D02*
D03*
X017157Y034205D02*
D03*
X109854Y008319D02*
D03*
X037500Y044000D02*
D03*
X036500Y044000D02*
D03*
X035500Y044000D02*
D03*
X034500Y044000D02*
D03*
X031500Y044000D02*
D03*
X030500Y044000D02*
D03*
X030500Y048000D02*
D03*
X069000Y044750D02*
D03*
X068000Y044750D02*
D03*
X067000Y044750D02*
D03*
X066000Y044750D02*
D03*
X065000Y044724D02*
D03*
X064000Y044750D02*
D03*
X063000Y044750D02*
D03*
X062000Y044750D02*
D03*
X069000Y048626D02*
D03*
X068000Y048626D02*
D03*
X067000Y048626D02*
D03*
X066000Y048626D02*
D03*
X064000Y048626D02*
D03*
X063000Y048626D02*
D03*
X062000Y048626D02*
D03*
X073000Y048626D02*
D03*
X074000Y048626D02*
D03*
X075000Y048626D02*
D03*
X077000Y048626D02*
D03*
X078000Y048626D02*
D03*
X079000Y048626D02*
D03*
X080000Y048626D02*
D03*
X073000Y044750D02*
D03*
X074000Y044750D02*
D03*
X075000Y044750D02*
D03*
X076000Y044724D02*
D03*
X077000Y044750D02*
D03*
X078000Y044750D02*
D03*
X079000Y044750D02*
D03*
X080000Y044750D02*
D03*
X084000Y048626D02*
D03*
X085000Y048626D02*
D03*
X086000Y048626D02*
D03*
X088000Y048626D02*
D03*
X089000Y048626D02*
D03*
X090000Y048626D02*
D03*
X091000Y048626D02*
D03*
X084000Y044750D02*
D03*
X085000Y044750D02*
D03*
X086000Y044750D02*
D03*
X087000Y044724D02*
D03*
X088000Y044750D02*
D03*
X089000Y044750D02*
D03*
X090000Y044750D02*
D03*
X091000Y044750D02*
D03*
D141*
X019362Y026567D02*
D03*
X021682Y025074D02*
D03*
X026843Y026567D02*
D03*
X021685Y028063D02*
D03*
X029168Y025074D02*
D03*
X034330Y026574D02*
D03*
X029126Y028063D02*
D03*
X036721Y025074D02*
D03*
X041882Y026606D02*
D03*
X036724Y028063D02*
D03*
X044283Y025071D02*
D03*
X049359Y025074D02*
D03*
X044205Y028063D02*
D03*
X049369Y026574D02*
D03*
X051724Y028063D02*
D03*
X059205Y025071D02*
D03*
X056921Y026567D02*
D03*
X064330Y026574D02*
D03*
X066649Y025074D02*
D03*
X071843Y026567D02*
D03*
X059283Y028102D02*
D03*
X066685Y028063D02*
D03*
X071567Y028063D02*
D03*
X072512Y024598D02*
D03*
X081803Y026626D02*
D03*
X087433Y024559D02*
D03*
X081688Y025074D02*
D03*
X081764Y028063D02*
D03*
X086843Y026567D02*
D03*
X094362Y024717D02*
D03*
X094409Y026574D02*
D03*
X089165Y028063D02*
D03*
X096724Y028102D02*
D03*
X101843Y024913D02*
D03*
X101882Y026606D02*
D03*
X104154Y028074D02*
D03*
X109405Y025074D02*
D03*
X109316Y026574D02*
D03*
X111646Y028063D02*
D03*
X116803Y024874D02*
D03*
X116843Y026567D02*
D03*
X119165Y028063D02*
D03*
X124365Y025074D02*
D03*
X124330Y026574D02*
D03*
X124323Y028063D02*
D03*
X134250Y025000D02*
D03*
X131843Y026567D02*
D03*
X134165Y028063D02*
D03*
X002000Y050750D02*
G01*
G75*
D200*
X030665Y083450D02*
D03*
X031335Y083450D02*
D03*
X005535Y061650D02*
D03*
X004865Y061650D02*
D03*
X008735Y086650D02*
D03*
X008065Y086650D02*
D03*
X008735Y090450D02*
D03*
X008065Y090450D02*
D03*
X008735Y094250D02*
D03*
X008065Y094250D02*
D03*
X008735Y098250D02*
D03*
X008065Y098250D02*
D03*
X008735Y102050D02*
D03*
X008065Y102050D02*
D03*
X008735Y106450D02*
D03*
X008065Y106450D02*
D03*
X032765Y060750D02*
D03*
X033435Y060750D02*
D03*
X028335Y090050D02*
D03*
X027665Y090050D02*
D03*
X027665Y083850D02*
D03*
X028335Y083850D02*
D03*
X027665Y088450D02*
D03*
X028335Y088450D02*
D03*
X025065Y089450D02*
D03*
X025735Y089450D02*
D03*
X025735Y091850D02*
D03*
X025065Y091850D02*
D03*
X035235Y062550D02*
D03*
X034565Y062550D02*
D03*
X035235Y060750D02*
D03*
X034565Y060750D02*
D03*
X035235Y061550D02*
D03*
X034565Y061550D02*
D03*
X013735Y082250D02*
D03*
X013065Y082250D02*
D03*
X032765Y061550D02*
D03*
X033435Y061550D02*
D03*
X033435Y062550D02*
D03*
X032765Y062550D02*
D03*
D153*
X027800Y081315D02*
D03*
X027800Y081985D02*
D03*
X016500Y078585D02*
D03*
X016500Y077915D02*
D03*
X017300Y078115D02*
D03*
X017300Y078785D02*
D03*
X024800Y078585D02*
D03*
X024800Y077915D02*
D03*
X026000Y077915D02*
D03*
X026000Y078585D02*
D03*
X022100Y092985D02*
D03*
X022100Y092315D02*
D03*
X023100Y092985D02*
D03*
X023100Y092315D02*
D03*
X021100Y092985D02*
D03*
X021100Y092315D02*
D03*
X020100Y092985D02*
D03*
X020100Y092315D02*
D03*
X019100Y092985D02*
D03*
X019100Y092315D02*
D03*
X018100Y092985D02*
D03*
X018100Y092315D02*
D03*
X017100Y092985D02*
D03*
X017100Y092315D02*
D03*
X016100Y092985D02*
D03*
X016100Y092315D02*
D03*
X021200Y103185D02*
D03*
X021200Y102515D02*
D03*
X019800Y103185D02*
D03*
X019800Y102515D02*
D03*
X018200Y103185D02*
D03*
X018200Y102515D02*
D03*
X016400Y103185D02*
D03*
X016400Y102515D02*
D03*
X007500Y076085D02*
D03*
X007500Y075415D02*
D03*
X008500Y082585D02*
D03*
X008500Y081915D02*
D03*
X008500Y080285D02*
D03*
X008500Y079615D02*
D03*
X008500Y078285D02*
D03*
X008500Y077615D02*
D03*
X008500Y076085D02*
D03*
X008500Y075415D02*
D03*
X007500Y082585D02*
D03*
X007500Y081915D02*
D03*
X007500Y080285D02*
D03*
X007500Y079615D02*
D03*
X007500Y078285D02*
D03*
X007500Y077615D02*
D03*
X036100Y060615D02*
D03*
X036100Y061285D02*
D03*
D108*
X029800Y078756D02*
D03*
X029800Y076944D02*
D03*
X034600Y085544D02*
D03*
X034600Y087356D02*
D03*
X031291Y092707D02*
D03*
X031291Y090896D02*
D03*
X029800Y074156D02*
D03*
X029800Y072344D02*
D03*
X015000Y077744D02*
D03*
X015000Y079556D02*
D03*
X026900Y059144D02*
D03*
X026900Y060956D02*
D03*
X027600Y091390D02*
D03*
X027600Y093910D02*
D03*
X014400Y083244D02*
D03*
X014400Y085056D02*
D03*
D21*
X031394Y080950D02*
D03*
X033206Y080950D02*
D03*
X034506Y075050D02*
D03*
X032694Y075050D02*
D03*
X010894Y075450D02*
D03*
X012706Y075450D02*
D03*
X015606Y059550D02*
D03*
X013794Y059550D02*
D03*
X034906Y058950D02*
D03*
X033094Y058950D02*
D03*
D30*
X034100Y098150D02*
D03*
X007100Y058550D02*
D03*
X014000Y101250D02*
D03*
D44*
X018643Y075885D02*
D03*
X016280Y075885D02*
D03*
X020808Y064015D02*
D03*
X026320Y075885D02*
D03*
X026123Y075885D02*
D03*
X025926Y075885D02*
D03*
X025729Y075885D02*
D03*
X025532Y075885D02*
D03*
X025335Y075885D02*
D03*
X025139Y075885D02*
D03*
X024942Y075885D02*
D03*
X024745Y075885D02*
D03*
X024548Y075885D02*
D03*
X024351Y075885D02*
D03*
X024154Y075885D02*
D03*
X023957Y075885D02*
D03*
X023761Y075885D02*
D03*
X023564Y075885D02*
D03*
X023367Y075885D02*
D03*
X023170Y075885D02*
D03*
X022973Y075885D02*
D03*
X022776Y075885D02*
D03*
X022580Y075885D02*
D03*
X022383Y075885D02*
D03*
X022186Y075885D02*
D03*
X021989Y075885D02*
D03*
X021792Y075885D02*
D03*
X021398Y075885D02*
D03*
X021202Y075885D02*
D03*
X021005Y075885D02*
D03*
X020808Y075885D02*
D03*
X020611Y075885D02*
D03*
X020217Y075885D02*
D03*
X020020Y075885D02*
D03*
X019824Y075885D02*
D03*
X019627Y075885D02*
D03*
X019430Y075885D02*
D03*
X019233Y075885D02*
D03*
X019036Y075885D02*
D03*
X018839Y075885D02*
D03*
X018446Y075885D02*
D03*
X018249Y075885D02*
D03*
X018052Y075885D02*
D03*
X017855Y075885D02*
D03*
X017658Y075885D02*
D03*
X017461Y075885D02*
D03*
X017265Y075885D02*
D03*
X017068Y075885D02*
D03*
X016871Y075885D02*
D03*
X016674Y075885D02*
D03*
X026123Y064015D02*
D03*
X025926Y064015D02*
D03*
X025139Y064015D02*
D03*
X024942Y064015D02*
D03*
X023761Y064015D02*
D03*
X023367Y064015D02*
D03*
X023170Y064015D02*
D03*
X022383Y064015D02*
D03*
X021989Y064015D02*
D03*
X021005Y064015D02*
D03*
X020611Y064015D02*
D03*
X020414Y064015D02*
D03*
X020217Y064015D02*
D03*
X020020Y064015D02*
D03*
X019824Y064015D02*
D03*
X019627Y064015D02*
D03*
X019430Y064015D02*
D03*
X019233Y064015D02*
D03*
X019036Y064015D02*
D03*
X018839Y064015D02*
D03*
X018643Y064015D02*
D03*
X018446Y064015D02*
D03*
X018249Y064015D02*
D03*
X018052Y064015D02*
D03*
X017855Y064015D02*
D03*
X017658Y064015D02*
D03*
X017461Y064015D02*
D03*
X017265Y064015D02*
D03*
X017068Y064015D02*
D03*
X016280Y064015D02*
D03*
X020414Y075885D02*
D03*
X021595Y075885D02*
D03*
X021595Y064015D02*
D03*
X021792Y064015D02*
D03*
X022186Y064015D02*
D03*
X022580Y064015D02*
D03*
X022776Y064015D02*
D03*
X022973Y064015D02*
D03*
X023564Y064015D02*
D03*
X023957Y064015D02*
D03*
X024154Y064015D02*
D03*
X024351Y064015D02*
D03*
X024548Y064015D02*
D03*
X024745Y064015D02*
D03*
X025335Y064015D02*
D03*
X025532Y064015D02*
D03*
X025729Y064015D02*
D03*
X016674Y064015D02*
D03*
X026320Y064015D02*
D03*
X016477Y064015D02*
D03*
X016871Y064015D02*
D03*
X016477Y075885D02*
D03*
D161*
X006025Y063978D02*
D03*
D241*
X031985Y085541D02*
D03*
X031985Y086959D02*
D03*
X027615Y085541D02*
D03*
X027615Y086959D02*
D03*
D124*
X009200Y058050D02*
D03*
X011200Y058050D02*
D03*
X011200Y059704D02*
D03*
X009200Y059704D02*
D03*
D243*
X022200Y100500D02*
D03*
X021700Y100500D02*
D03*
X021200Y100500D02*
D03*
X020700Y100500D02*
D03*
X020200Y100500D02*
D03*
X019700Y100500D02*
D03*
X019200Y100500D02*
D03*
X018700Y100500D02*
D03*
X018200Y100500D02*
D03*
X017700Y100500D02*
D03*
X017200Y100500D02*
D03*
X016700Y100500D02*
D03*
X022200Y094750D02*
D03*
X021700Y094750D02*
D03*
X021200Y094750D02*
D03*
X020700Y094750D02*
D03*
X020200Y094750D02*
D03*
X019700Y094750D02*
D03*
X019200Y094750D02*
D03*
X018700Y094750D02*
D03*
X018200Y094750D02*
D03*
X017700Y094750D02*
D03*
X017200Y094750D02*
D03*
D242*
X016700Y094750D02*
D03*
D117*
X023054Y089350D02*
D03*
X023054Y089153D02*
D03*
X023054Y088956D02*
D03*
X023054Y088759D02*
D03*
X023054Y088563D02*
D03*
X023054Y088366D02*
D03*
X023054Y088169D02*
D03*
X023054Y087972D02*
D03*
X023054Y087775D02*
D03*
X023054Y087578D02*
D03*
X023054Y087381D02*
D03*
X023054Y087185D02*
D03*
X023054Y086988D02*
D03*
X023054Y086791D02*
D03*
X023054Y086594D02*
D03*
X023054Y086397D02*
D03*
X023054Y086200D02*
D03*
X023054Y086004D02*
D03*
X023054Y085807D02*
D03*
X023054Y085610D02*
D03*
X023054Y085413D02*
D03*
X023054Y085216D02*
D03*
X023054Y085019D02*
D03*
X023054Y084822D02*
D03*
X023054Y084626D02*
D03*
X023054Y084429D02*
D03*
X023054Y084232D02*
D03*
X023054Y084035D02*
D03*
X023054Y083838D02*
D03*
X023054Y083641D02*
D03*
X023054Y083445D02*
D03*
X023054Y083248D02*
D03*
X023054Y083051D02*
D03*
X023054Y082854D02*
D03*
X023054Y082657D02*
D03*
X023054Y082460D02*
D03*
X023054Y082263D02*
D03*
X023054Y082067D02*
D03*
X016400Y082067D02*
D03*
X016400Y082263D02*
D03*
X016400Y082460D02*
D03*
X016400Y082657D02*
D03*
X016400Y082854D02*
D03*
X016400Y083051D02*
D03*
X016400Y083248D02*
D03*
X016400Y083445D02*
D03*
X016400Y083641D02*
D03*
X016400Y083838D02*
D03*
X016400Y084035D02*
D03*
X016400Y084232D02*
D03*
X016400Y084429D02*
D03*
X016400Y084626D02*
D03*
X016400Y084822D02*
D03*
X016400Y085019D02*
D03*
X016400Y085216D02*
D03*
X016400Y085413D02*
D03*
X016400Y085610D02*
D03*
X016400Y085807D02*
D03*
X016400Y086004D02*
D03*
X016400Y086200D02*
D03*
X016400Y086397D02*
D03*
X016400Y086594D02*
D03*
X016400Y086791D02*
D03*
X016400Y086988D02*
D03*
X016400Y087185D02*
D03*
X016400Y087381D02*
D03*
X016400Y087578D02*
D03*
X016400Y087775D02*
D03*
X016400Y087972D02*
D03*
X016400Y088169D02*
D03*
X016400Y088366D02*
D03*
X016400Y088563D02*
D03*
X016400Y088759D02*
D03*
X016400Y088956D02*
D03*
X016400Y089153D02*
D03*
D193*
X022187Y081200D02*
D03*
X021991Y081200D02*
D03*
X021794Y081200D02*
D03*
X021597Y081200D02*
D03*
X021203Y081200D02*
D03*
X021006Y081200D02*
D03*
X020809Y081200D02*
D03*
X020613Y081200D02*
D03*
X020416Y081200D02*
D03*
X020219Y081200D02*
D03*
X020022Y081200D02*
D03*
X019825Y081200D02*
D03*
X019628Y081200D02*
D03*
X019431Y081200D02*
D03*
X019235Y081200D02*
D03*
X019038Y081200D02*
D03*
X018841Y081200D02*
D03*
X018644Y081200D02*
D03*
X018447Y081200D02*
D03*
X018250Y081200D02*
D03*
X018054Y081200D02*
D03*
X017857Y081200D02*
D03*
X017660Y081200D02*
D03*
X017463Y081200D02*
D03*
X017266Y081200D02*
D03*
X017266Y090216D02*
D03*
X017463Y090216D02*
D03*
X017660Y090216D02*
D03*
X017857Y090216D02*
D03*
X018054Y090216D02*
D03*
X018250Y090216D02*
D03*
X018447Y090216D02*
D03*
X018644Y090216D02*
D03*
X018841Y090216D02*
D03*
X019038Y090216D02*
D03*
X019235Y090216D02*
D03*
X019431Y090216D02*
D03*
X019628Y090216D02*
D03*
X019825Y090216D02*
D03*
X020022Y090216D02*
D03*
X020219Y090216D02*
D03*
X020416Y090216D02*
D03*
X020613Y090216D02*
D03*
X020809Y090216D02*
D03*
X021006Y090216D02*
D03*
X021203Y090216D02*
D03*
X021400Y090216D02*
D03*
X021597Y090216D02*
D03*
X021794Y090216D02*
D03*
X021991Y090216D02*
D03*
X022187Y090216D02*
D03*
X021400Y081200D02*
D03*
D244*
X016400Y089350D02*
D03*
D214*
X005009Y072061D02*
D03*
X005009Y071805D02*
D03*
X005009Y071549D02*
D03*
X005009Y071293D02*
D03*
X005009Y071037D02*
D03*
X005009Y070781D02*
D03*
X005009Y070525D02*
D03*
X005009Y070269D02*
D03*
X005009Y070013D02*
D03*
X005009Y069757D02*
D03*
X005009Y069502D02*
D03*
X005009Y069246D02*
D03*
X005009Y068990D02*
D03*
X005009Y068734D02*
D03*
X005009Y068478D02*
D03*
X005009Y068222D02*
D03*
X005009Y067966D02*
D03*
X005009Y067710D02*
D03*
X005009Y067454D02*
D03*
X005009Y067198D02*
D03*
X005009Y066943D02*
D03*
X005009Y066687D02*
D03*
X005009Y066431D02*
D03*
X005009Y066175D02*
D03*
X005009Y065919D02*
D03*
X005009Y065663D02*
D03*
X005009Y065407D02*
D03*
X005009Y065151D02*
D03*
X005009Y064895D02*
D03*
X005009Y064639D02*
D03*
X011391Y064639D02*
D03*
X011391Y064895D02*
D03*
X011391Y065151D02*
D03*
X011391Y065407D02*
D03*
X011391Y065663D02*
D03*
X011391Y065919D02*
D03*
X011391Y066175D02*
D03*
X011391Y066431D02*
D03*
X011391Y066687D02*
D03*
X011391Y066943D02*
D03*
X011391Y067198D02*
D03*
X011391Y067454D02*
D03*
X011391Y067710D02*
D03*
X011391Y067966D02*
D03*
X011391Y068222D02*
D03*
X011391Y068478D02*
D03*
X011391Y068734D02*
D03*
X011391Y068990D02*
D03*
X011391Y069246D02*
D03*
X011391Y069502D02*
D03*
X011391Y069757D02*
D03*
X011391Y070013D02*
D03*
X011391Y070269D02*
D03*
X011391Y070525D02*
D03*
X011391Y070781D02*
D03*
X011391Y071037D02*
D03*
X011391Y071293D02*
D03*
X011391Y071549D02*
D03*
X011391Y071805D02*
D03*
X011391Y072061D02*
D03*
D161*
X005769Y063978D02*
D03*
X006281Y063978D02*
D03*
X006537Y063978D02*
D03*
X006793Y063978D02*
D03*
X007048Y063978D02*
D03*
X007304Y063978D02*
D03*
X007560Y063978D02*
D03*
X007816Y063978D02*
D03*
X008072Y063978D02*
D03*
X008328Y063978D02*
D03*
X008584Y063978D02*
D03*
X008840Y063978D02*
D03*
X009096Y063978D02*
D03*
X009352Y063978D02*
D03*
X009607Y063978D02*
D03*
X009863Y063978D02*
D03*
X010119Y063978D02*
D03*
X010375Y063978D02*
D03*
X010631Y063978D02*
D03*
X010631Y072722D02*
D03*
X010375Y072722D02*
D03*
X010119Y072722D02*
D03*
X009863Y072722D02*
D03*
X009607Y072722D02*
D03*
X009352Y072722D02*
D03*
X009096Y072722D02*
D03*
X008840Y072722D02*
D03*
X008584Y072722D02*
D03*
X008328Y072722D02*
D03*
X008072Y072722D02*
D03*
X007816Y072722D02*
D03*
X007560Y072722D02*
D03*
X007304Y072722D02*
D03*
X007048Y072722D02*
D03*
X006793Y072722D02*
D03*
X006537Y072722D02*
D03*
X006281Y072722D02*
D03*
X006025Y072722D02*
D03*
X005769Y072722D02*
D03*
D136*
X027235Y064930D02*
D03*
X027235Y065127D02*
D03*
X027235Y065324D02*
D03*
X027235Y065521D02*
D03*
X027235Y065718D02*
D03*
X027235Y065915D02*
D03*
X027235Y066308D02*
D03*
X027235Y067489D02*
D03*
X027235Y068080D02*
D03*
X027235Y069261D02*
D03*
X027235Y069655D02*
D03*
X027235Y070245D02*
D03*
X027235Y070442D02*
D03*
X027235Y070639D02*
D03*
X027235Y070836D02*
D03*
X027235Y071033D02*
D03*
X027235Y071230D02*
D03*
X027235Y071426D02*
D03*
X027235Y071623D02*
D03*
X027235Y071820D02*
D03*
X027235Y072017D02*
D03*
X027235Y072214D02*
D03*
X027235Y072411D02*
D03*
X027235Y072804D02*
D03*
X027235Y073592D02*
D03*
X027235Y073789D02*
D03*
X027235Y073985D02*
D03*
X027235Y074182D02*
D03*
X027235Y074379D02*
D03*
X027235Y074576D02*
D03*
X027235Y074773D02*
D03*
X027235Y074970D02*
D03*
X015365Y064930D02*
D03*
X015365Y065127D02*
D03*
X015365Y065324D02*
D03*
X015365Y065521D02*
D03*
X015365Y065718D02*
D03*
X015365Y065915D02*
D03*
X015365Y066111D02*
D03*
X015365Y066308D02*
D03*
X015365Y066505D02*
D03*
X015365Y066702D02*
D03*
X015365Y066899D02*
D03*
X015365Y067096D02*
D03*
X015365Y067293D02*
D03*
X015365Y067489D02*
D03*
X015365Y067686D02*
D03*
X015365Y067883D02*
D03*
X015365Y068080D02*
D03*
X015365Y068277D02*
D03*
X015365Y068474D02*
D03*
X015365Y068670D02*
D03*
X015365Y068867D02*
D03*
X015365Y069064D02*
D03*
X015365Y069261D02*
D03*
X015365Y069458D02*
D03*
X015365Y069655D02*
D03*
X015365Y069852D02*
D03*
X015365Y070048D02*
D03*
X015365Y070245D02*
D03*
X015365Y070442D02*
D03*
X015365Y070639D02*
D03*
X015365Y070836D02*
D03*
X015365Y071033D02*
D03*
X015365Y071230D02*
D03*
X015365Y071426D02*
D03*
X015365Y071623D02*
D03*
X015365Y071820D02*
D03*
X015365Y072017D02*
D03*
X015365Y072214D02*
D03*
X015365Y072411D02*
D03*
X015365Y072607D02*
D03*
X015365Y072804D02*
D03*
X015365Y073001D02*
D03*
X015365Y073198D02*
D03*
X015365Y073395D02*
D03*
X015365Y073592D02*
D03*
X015365Y073789D02*
D03*
X015365Y073985D02*
D03*
X015365Y074182D02*
D03*
X015365Y074379D02*
D03*
X015365Y074576D02*
D03*
X015365Y074773D02*
D03*
X015365Y074970D02*
D03*
X027235Y072607D02*
D03*
X027235Y073001D02*
D03*
X027235Y073198D02*
D03*
X027235Y073395D02*
D03*
X027235Y068670D02*
D03*
X027235Y068867D02*
D03*
X027235Y069064D02*
D03*
X027235Y069458D02*
D03*
X027235Y069852D02*
D03*
X027235Y070048D02*
D03*
X027235Y066111D02*
D03*
X027235Y066505D02*
D03*
X027235Y066702D02*
D03*
X027235Y066899D02*
D03*
X027235Y067096D02*
D03*
X027235Y067293D02*
D03*
X027235Y067686D02*
D03*
X027235Y067883D02*
D03*
X027235Y068277D02*
D03*
X027235Y068474D02*
D03*
D44*
X021398Y064015D02*
D03*
X021202Y064015D02*
D03*
D230*
X008774Y088450D02*
D03*
X008026Y088450D02*
D03*
X008774Y092050D02*
D03*
X008026Y092050D02*
D03*
X008774Y095650D02*
D03*
X008026Y095650D02*
D03*
X008774Y099650D02*
D03*
X008026Y099650D02*
D03*
X008774Y103650D02*
D03*
X008026Y103650D02*
D03*
X008774Y107850D02*
D03*
X008026Y107850D02*
D03*
X005574Y059650D02*
D03*
X004826Y059650D02*
D03*
X004774Y082850D02*
D03*
X004026Y082850D02*
D03*
X004774Y080450D02*
D03*
X004026Y080450D02*
D03*
X004774Y078050D02*
D03*
X004026Y078050D02*
D03*
X004774Y075650D02*
D03*
X004026Y075650D02*
D03*
D148*
X031700Y071799D02*
D03*
X031700Y072901D02*
D03*
X031600Y076699D02*
D03*
X031600Y077801D02*
D03*
D41*
X033649Y089450D02*
D03*
X034751Y089450D02*
D03*
X012249Y080250D02*
D03*
X013351Y080250D02*
D03*
D160*
X034968Y077850D02*
D03*
X010832Y078150D02*
D03*
X034868Y072350D02*
D03*
D120*
X033000Y078350D02*
D03*
X033000Y076850D02*
D03*
X033000Y078850D02*
D03*
X033000Y077350D02*
D03*
X033000Y077850D02*
D03*
X012800Y077650D02*
D03*
X012800Y079150D02*
D03*
X012800Y077150D02*
D03*
X012800Y078650D02*
D03*
X012800Y078150D02*
D03*
X032900Y072850D02*
D03*
X032900Y071350D02*
D03*
X032900Y073350D02*
D03*
X032900Y071850D02*
D03*
X032900Y072350D02*
D03*
D185*
X034000Y092619D02*
D03*
D119*
X033500Y090650D02*
D03*
X035000Y090650D02*
D03*
X033000Y090650D02*
D03*
X034500Y090650D02*
D03*
X034000Y090650D02*
D03*
D192*
X025144Y088250D02*
D03*
X025656Y088250D02*
D03*
X025144Y090450D02*
D03*
X025656Y090450D02*
D03*
X015256Y104650D02*
D03*
X014744Y104650D02*
D03*
X025456Y104650D02*
D03*
X024944Y104650D02*
D03*
D114*
X024400Y102706D02*
D03*
X024400Y102194D02*
D03*
D118*
X034937Y064688D02*
D03*
X033263Y064688D02*
D03*
X034937Y065475D02*
D03*
X034937Y066263D02*
D03*
X034937Y067050D02*
D03*
X034937Y067837D02*
D03*
X034937Y068625D02*
D03*
X034937Y069412D02*
D03*
X033263Y065475D02*
D03*
X033263Y066263D02*
D03*
X033263Y067050D02*
D03*
X033263Y067837D02*
D03*
X033263Y068625D02*
D03*
X033263Y069412D02*
D03*
D25*
X017450Y110950D02*
D03*
X021950Y110950D02*
D03*
D129*
X022790Y112150D02*
D03*
X016610Y112150D02*
D03*
D141*
X021450Y108450D02*
D03*
X020950Y107450D02*
D03*
X020450Y108450D02*
D03*
X019950Y107450D02*
D03*
X019450Y108450D02*
D03*
X018950Y107450D02*
D03*
X018450Y108450D02*
D03*
X017950Y107450D02*
D03*
D186*
X005500Y106250D02*
D03*
X033500Y106250D02*
D03*
X005500Y056250D02*
D03*
X033500Y056250D02*
D03*
D232*
X033000Y052750D02*
D03*
X032000Y051750D02*
D03*
X031000Y051750D02*
D03*
X030000Y051750D02*
D03*
X029000Y051750D02*
D03*
X028000Y051750D02*
D03*
X027000Y051750D02*
D03*
X026000Y051750D02*
D03*
X025000Y051750D02*
D03*
X024000Y051750D02*
D03*
X023000Y051750D02*
D03*
X022000Y051750D02*
D03*
X021000Y051750D02*
D03*
X020000Y051750D02*
D03*
X019000Y051750D02*
D03*
X018000Y051750D02*
D03*
X017000Y051750D02*
D03*
X016000Y051750D02*
D03*
X015000Y051750D02*
D03*
X014000Y051750D02*
D03*
X013000Y051750D02*
D03*
X012000Y051750D02*
D03*
X011000Y051750D02*
D03*
X010000Y051750D02*
D03*
X009000Y051750D02*
D03*
X008000Y051750D02*
D03*
X007000Y051750D02*
D03*
X033000Y051750D02*
D03*
X032000Y052750D02*
D03*
X031000Y052750D02*
D03*
X030000Y052750D02*
D03*
X029000Y052750D02*
D03*
X028000Y052750D02*
D03*
X027000Y052750D02*
D03*
X026000Y052750D02*
D03*
X025000Y052750D02*
D03*
X024000Y052750D02*
D03*
X023000Y052750D02*
D03*
X022000Y052750D02*
D03*
X021000Y052750D02*
D03*
X020000Y052750D02*
D03*
X019000Y052750D02*
D03*
X018000Y052750D02*
D03*
X017000Y052750D02*
D03*
X016000Y052750D02*
D03*
X015000Y052750D02*
D03*
X014000Y052750D02*
D03*
X013000Y052750D02*
D03*
X012000Y052750D02*
D03*
X011000Y052750D02*
D03*
X010000Y052750D02*
D03*
X009000Y052750D02*
D03*
X008000Y052750D02*
D03*
X007000Y052750D02*
D03*
X006000Y051750D02*
D03*
X006000Y052750D02*
D03*
D146*
X034100Y069018D02*
D03*
X034100Y065082D02*
D03*
D71*
X026100Y061400D02*
D03*
X026700Y058300D02*
D03*
X016400Y059550D02*
D03*
X015650Y058800D02*
D03*
X013800Y058750D02*
D03*
X012950Y059250D02*
D03*
X018200Y103750D02*
D03*
X019800Y103750D02*
D03*
X021200Y103750D02*
D03*
X016400Y103750D02*
D03*
X021500Y095650D02*
D03*
X019700Y095650D02*
D03*
X018200Y095650D02*
D03*
X016700Y095650D02*
D03*
X017335Y095415D02*
D03*
X018935Y095385D02*
D03*
X020535Y095385D02*
D03*
X022135Y095415D02*
D03*
X012800Y076650D02*
D03*
X014500Y076300D02*
D03*
X013800Y079550D02*
D03*
X012800Y079550D02*
D03*
X012335Y080785D02*
D03*
X010832Y078982D02*
D03*
X010832Y077419D02*
D03*
X011900Y078050D02*
D03*
X009800Y078150D02*
D03*
X033700Y072350D02*
D03*
X033000Y073950D02*
D03*
X031300Y074050D02*
D03*
X031049Y072901D02*
D03*
X032300Y071750D02*
D03*
X032900Y071015D02*
D03*
X031200Y070650D02*
D03*
X031000Y071950D02*
D03*
X032400Y076850D02*
D03*
X033700Y077850D02*
D03*
X032300Y078550D02*
D03*
X031600Y078550D02*
D03*
X030900Y076750D02*
D03*
X033649Y088761D02*
D03*
X033300Y090050D02*
D03*
X032340Y090750D02*
D03*
X031300Y089650D02*
D03*
X034000Y091490D02*
D03*
X034520Y090130D02*
D03*
X034751Y088739D02*
D03*
X035840Y089150D02*
D03*
X035400Y090650D02*
D03*
X034868Y073181D02*
D03*
X035832Y072382D02*
D03*
X034831Y071518D02*
D03*
X034931Y077019D02*
D03*
X035932Y077882D02*
D03*
X034968Y078681D02*
D03*
X034831Y092581D02*
D03*
X033969Y093582D02*
D03*
X033168Y092619D02*
D03*
X030560Y074510D02*
D03*
X034150Y075800D02*
D03*
X030577Y079023D02*
D03*
X030300Y080850D02*
D03*
X031140Y080060D02*
D03*
X034450Y080850D02*
D03*
X033250Y079600D02*
D03*
X034600Y084400D02*
D03*
X031291Y093991D02*
D03*
X027600Y094950D02*
D03*
X012400Y076200D02*
D03*
X010550Y076250D02*
D03*
X032550Y083450D02*
D03*
X028701Y082201D02*
D03*
D110*
X014256Y077744D02*
D03*
X021000Y088050D02*
D03*
X016500Y066750D02*
D03*
X018700Y077350D02*
D03*
X020400Y062250D02*
D03*
X017600Y066550D02*
D03*
X006100Y072050D02*
D03*
X006800Y072050D02*
D03*
X014600Y063750D02*
D03*
X017500Y064650D02*
D03*
X016900Y066450D02*
D03*
X010375Y073425D02*
D03*
X011300Y073750D02*
D03*
X015700Y063450D02*
D03*
X005769Y072081D02*
D03*
X016500Y079850D02*
D03*
X025900Y079850D02*
D03*
X027400Y075850D02*
D03*
X028100Y072350D02*
D03*
X012100Y082250D02*
D03*
X021600Y085950D02*
D03*
X026700Y082550D02*
D03*
X024900Y084950D02*
D03*
X026100Y084350D02*
D03*
X026500Y073850D02*
D03*
X020700Y104150D02*
D03*
X016600Y093350D02*
D03*
X018600Y093350D02*
D03*
X020600Y093350D02*
D03*
X022600Y093350D02*
D03*
X016100Y091950D02*
D03*
X017100Y091950D02*
D03*
X018100Y091950D02*
D03*
X019100Y091950D02*
D03*
X020100Y091950D02*
D03*
X021100Y091950D02*
D03*
X022100Y091950D02*
D03*
X023100Y091950D02*
D03*
X015813Y082263D02*
D03*
X017100Y082250D02*
D03*
X017200Y082850D02*
D03*
X015804Y082854D02*
D03*
X017857Y081793D02*
D03*
X018535Y082715D02*
D03*
X019200Y081850D02*
D03*
X017900Y080650D02*
D03*
X019100Y080650D02*
D03*
X020200Y081850D02*
D03*
X020100Y080650D02*
D03*
X020600Y082650D02*
D03*
X021200Y081850D02*
D03*
X021203Y080653D02*
D03*
X022100Y080550D02*
D03*
X022400Y081650D02*
D03*
X023600Y082950D02*
D03*
X022504Y082854D02*
D03*
X022400Y083650D02*
D03*
X021000Y083250D02*
D03*
X022500Y084450D02*
D03*
X023600Y084550D02*
D03*
X021100Y084450D02*
D03*
X022400Y085550D02*
D03*
X023600Y085550D02*
D03*
X023700Y086750D02*
D03*
X022462Y086988D02*
D03*
X020800Y087050D02*
D03*
X022400Y087550D02*
D03*
X023600Y087650D02*
D03*
X022406Y088956D02*
D03*
X022187Y089637D02*
D03*
X021200Y089550D02*
D03*
X021800Y090850D02*
D03*
X020400Y089550D02*
D03*
X020300Y090750D02*
D03*
X019400Y090850D02*
D03*
X019600Y089650D02*
D03*
X019065Y088815D02*
D03*
X018250Y089700D02*
D03*
X018300Y090850D02*
D03*
X017465Y089585D02*
D03*
X017000Y089350D02*
D03*
X017000Y088550D02*
D03*
X018500Y088250D02*
D03*
X018500Y087250D02*
D03*
X015800Y088450D02*
D03*
X017100Y087750D02*
D03*
X016969Y087381D02*
D03*
X017100Y086450D02*
D03*
X015800Y086250D02*
D03*
X017100Y085250D02*
D03*
X015800Y085350D02*
D03*
X017057Y085807D02*
D03*
X017024Y084626D02*
D03*
X015800Y084550D02*
D03*
X015800Y083750D02*
D03*
X017000Y083750D02*
D03*
X018500Y085250D02*
D03*
X018600Y083450D02*
D03*
X015964Y067686D02*
D03*
X015983Y068867D02*
D03*
X016000Y070450D02*
D03*
X016000Y071750D02*
D03*
X016100Y073850D02*
D03*
X017461Y075311D02*
D03*
X019000Y075150D02*
D03*
X019600Y075150D02*
D03*
X020217Y075233D02*
D03*
X022200Y075150D02*
D03*
X022973Y075177D02*
D03*
X023600Y075050D02*
D03*
X024942Y075292D02*
D03*
X026000Y075150D02*
D03*
X026565Y075885D02*
D03*
X026629Y074379D02*
D03*
X026636Y072214D02*
D03*
X024942Y064592D02*
D03*
X023170Y064620D02*
D03*
X022383Y064667D02*
D03*
X019627Y064623D02*
D03*
X016065Y065715D02*
D03*
X016735Y065615D02*
D03*
X017550Y067450D02*
D03*
X017550Y068450D02*
D03*
X017600Y070450D02*
D03*
X017550Y071450D02*
D03*
X017400Y073300D02*
D03*
X017400Y073700D02*
D03*
X018600Y073650D02*
D03*
X019600Y073650D02*
D03*
X020600Y073650D02*
D03*
X022000Y073650D02*
D03*
X023000Y073700D02*
D03*
X024000Y073700D02*
D03*
X025000Y073700D02*
D03*
X025200Y072450D02*
D03*
X025000Y066250D02*
D03*
X023200Y066200D02*
D03*
X022200Y066200D02*
D03*
X020300Y066450D02*
D03*
X019600Y066250D02*
D03*
X018600Y066200D02*
D03*
X015920Y074970D02*
D03*
X015939Y072411D02*
D03*
X016000Y070050D02*
D03*
X015989Y069261D02*
D03*
X015946Y067096D02*
D03*
X016000Y066050D02*
D03*
X017600Y063450D02*
D03*
X019100Y064750D02*
D03*
X018700Y064650D02*
D03*
X021989Y064561D02*
D03*
X023300Y063450D02*
D03*
X025000Y063450D02*
D03*
X023761Y064611D02*
D03*
X026800Y064650D02*
D03*
X027795Y069655D02*
D03*
X025000Y076450D02*
D03*
X023900Y075250D02*
D03*
X021800Y075250D02*
D03*
X020800Y075250D02*
D03*
X017400Y076450D02*
D03*
X005700Y065550D02*
D03*
X004400Y065550D02*
D03*
X007300Y065550D02*
D03*
X005700Y067150D02*
D03*
X004400Y067050D02*
D03*
X005700Y068450D02*
D03*
X004416Y067966D02*
D03*
X004400Y069650D02*
D03*
X005700Y069650D02*
D03*
X005700Y071250D02*
D03*
X004400Y071150D02*
D03*
X006400Y073350D02*
D03*
X007300Y072050D02*
D03*
X007700Y072050D02*
D03*
X008200Y073350D02*
D03*
X008328Y072178D02*
D03*
X009300Y071950D02*
D03*
X012100Y071150D02*
D03*
X010600Y071150D02*
D03*
X012200Y069550D02*
D03*
X010700Y069550D02*
D03*
X010800Y068650D02*
D03*
X012000Y068650D02*
D03*
X012152Y067198D02*
D03*
X010700Y067150D02*
D03*
X010700Y065550D02*
D03*
X012200Y065550D02*
D03*
X008335Y064615D02*
D03*
X007900Y064650D02*
D03*
X005769Y063381D02*
D03*
X007400Y067150D02*
D03*
X007400Y068450D02*
D03*
X013100Y065450D02*
D03*
X010300Y064950D02*
D03*
X013100Y066050D02*
D03*
X014200Y067950D02*
D03*
X013400Y068050D02*
D03*
X010400Y066550D02*
D03*
X014000Y068650D02*
D03*
X014600Y068750D02*
D03*
X012500Y068550D02*
D03*
X010300Y068150D02*
D03*
X013400Y069550D02*
D03*
X013500Y070750D02*
D03*
X014100Y070950D02*
D03*
X010500Y070250D02*
D03*
X012700Y071650D02*
D03*
X014600Y072450D02*
D03*
X010500Y071750D02*
D03*
X009700Y071450D02*
D03*
X014000Y072450D02*
D03*
X014000Y072950D02*
D03*
X008400Y071250D02*
D03*
X011500Y072650D02*
D03*
X008600Y071650D02*
D03*
X010300Y065850D02*
D03*
X010100Y066250D02*
D03*
X010400Y067550D02*
D03*
X009800Y067350D02*
D03*
X010300Y068650D02*
D03*
X010200Y069550D02*
D03*
X010100Y070650D02*
D03*
X023700Y083750D02*
D03*
X027789Y069261D02*
D03*
X026500Y070750D02*
D03*
X026600Y072950D02*
D03*
X024900Y078950D02*
D03*
X025000Y077150D02*
D03*
X025700Y077150D02*
D03*
X026000Y079050D02*
D03*
X017200Y079350D02*
D03*
X017000Y077350D02*
D03*
X016400Y077350D02*
D03*
X015800Y079650D02*
D03*
X028800Y088450D02*
D03*
X028800Y083850D02*
D03*
X025000Y088650D02*
D03*
X024300Y088550D02*
D03*
X023800Y088850D02*
D03*
X024195Y089845D02*
D03*
X025700Y087850D02*
D03*
X025735Y090915D02*
D03*
X026200Y089450D02*
D03*
X028800Y090050D02*
D03*
X026200Y091850D02*
D03*
X030260Y090790D02*
D03*
X007935Y079615D02*
D03*
X007965Y077615D02*
D03*
X008500Y076550D02*
D03*
X017000Y086850D02*
D03*
X007035Y081915D02*
D03*
X015551Y103999D02*
D03*
X015650Y104650D02*
D03*
X015551Y105501D02*
D03*
X014499Y105399D02*
D03*
X014499Y103899D02*
D03*
X024649Y105301D02*
D03*
X024649Y103999D02*
D03*
X024649Y104650D02*
D03*
X025751Y105199D02*
D03*
X025751Y103999D02*
D03*
X025800Y104650D02*
D03*
X009100Y082250D02*
D03*
X020200Y104150D02*
D03*
X024300Y103350D02*
D03*
X024400Y101750D02*
D03*
X008065Y101385D02*
D03*
X027600Y079950D02*
D03*
X008065Y105415D02*
D03*
X026100Y080150D02*
D03*
X020400Y076650D02*
D03*
X003600Y076350D02*
D03*
X008026Y087724D02*
D03*
X008000Y092950D02*
D03*
X008000Y096650D02*
D03*
X008000Y100550D02*
D03*
X008000Y104450D02*
D03*
X008000Y108750D02*
D03*
X025617Y070245D02*
D03*
X025600Y069850D02*
D03*
X026200Y069750D02*
D03*
X026408Y069458D02*
D03*
X026414Y069064D02*
D03*
X026343Y068650D02*
D03*
X025500Y067250D02*
D03*
X026500Y067550D02*
D03*
X026570Y068080D02*
D03*
X025100Y070750D02*
D03*
X027800Y065900D02*
D03*
X026500Y066950D02*
D03*
X026200Y066550D02*
D03*
X026123Y063227D02*
D03*
X026100Y066950D02*
D03*
X017100Y064850D02*
D03*
X016674Y064776D02*
D03*
X015800Y064550D02*
D03*
X015835Y064015D02*
D03*
X025900Y064850D02*
D03*
X025800Y066050D02*
D03*
X025800Y066450D02*
D03*
X018200Y072750D02*
D03*
X008065Y097685D02*
D03*
X008065Y093685D02*
D03*
X017800Y071950D02*
D03*
X017800Y070950D02*
D03*
X008100Y089950D02*
D03*
X008065Y085685D02*
D03*
X016700Y070950D02*
D03*
X011900Y059750D02*
D03*
X021100Y065250D02*
D03*
X020700Y064850D02*
D03*
X026300Y071850D02*
D03*
X004200Y059650D02*
D03*
X008596Y059704D02*
D03*
X011200Y058700D02*
D03*
X026670Y074970D02*
D03*
X005050Y062200D02*
D03*
X027820Y066450D02*
D03*
X020250Y064850D02*
D03*
X027950Y070600D02*
D03*
X027850Y071150D02*
D03*
X026650Y071800D02*
D03*
X014350Y085800D02*
D03*
X013650Y083250D02*
D03*
X013650Y085050D02*
D03*
X009648Y059652D02*
D03*
X035400Y063100D02*
D03*
X034050Y067850D02*
D03*
X034050Y067050D02*
D03*
X034100Y066250D02*
D03*
X032750Y063050D02*
D03*
X034100Y065750D02*
D03*
X035762Y069412D02*
D03*
X035762Y068625D02*
D03*
X035762Y067837D02*
D03*
X035762Y067050D02*
D03*
X035762Y066263D02*
D03*
X035762Y065475D02*
D03*
X035762Y064688D02*
D03*
X033435Y062035D02*
D03*
X032300Y061550D02*
D03*
X034500Y062050D02*
D03*
X034200Y060250D02*
D03*
X033094Y059706D02*
D03*
X034850Y059650D02*
D03*
X033900Y060750D02*
D03*
X032250Y060750D02*
D03*
X033665Y063450D02*
D03*
X034600Y064050D02*
D03*
X033650Y064250D02*
D03*
X033900Y062100D02*
D03*
X035600Y061100D02*
D03*
X036050Y059550D02*
D03*
X036050Y063600D02*
D03*
X032300Y064700D02*
D03*
D156*
X033050Y075700D02*
D03*
X002000Y116500D02*
G01*
G75*
D30*
X010000Y131300D02*
D03*
X032000Y132100D02*
D03*
X019400Y118700D02*
D03*
D153*
X013000Y123435D02*
D03*
X013000Y122765D02*
D03*
X017000Y122765D02*
D03*
X017000Y123435D02*
D03*
X015800Y122765D02*
D03*
X015800Y123435D02*
D03*
X018400Y125635D02*
D03*
X018400Y124965D02*
D03*
D200*
X008465Y123100D02*
D03*
X009135Y123100D02*
D03*
D225*
X031376Y128839D02*
D03*
X030392Y128839D02*
D03*
X029407Y128839D02*
D03*
X028423Y128839D02*
D03*
X027439Y128839D02*
D03*
X026455Y128839D02*
D03*
X025470Y128839D02*
D03*
X024555Y128839D02*
D03*
X023807Y128839D02*
D03*
X022852Y128839D02*
D03*
D159*
X022331Y118032D02*
D03*
X022331Y126791D02*
D03*
D207*
X033374Y118032D02*
D03*
D217*
X016853Y124550D02*
D03*
X016853Y125050D02*
D03*
X016853Y125550D02*
D03*
X016853Y126050D02*
D03*
X014747Y124550D02*
D03*
X014747Y125050D02*
D03*
X014747Y125550D02*
D03*
X014747Y126050D02*
D03*
D50*
X022300Y131026D02*
D03*
X022300Y132774D02*
D03*
X021300Y131026D02*
D03*
X021300Y132774D02*
D03*
X020300Y131026D02*
D03*
X020300Y132774D02*
D03*
X019300Y131026D02*
D03*
X019300Y132774D02*
D03*
X018300Y131026D02*
D03*
X018300Y132774D02*
D03*
X017300Y131026D02*
D03*
X017300Y132774D02*
D03*
X016300Y131026D02*
D03*
X016300Y132774D02*
D03*
X015300Y131026D02*
D03*
X015300Y132774D02*
D03*
D186*
X009600Y126700D02*
D03*
X035000Y129500D02*
D03*
X035000Y122500D02*
D03*
D232*
X012000Y120900D02*
D03*
X013000Y120900D02*
D03*
X011000Y120900D02*
D03*
X010000Y120900D02*
D03*
X013000Y117900D02*
D03*
X010000Y117900D02*
D03*
X016000Y120900D02*
D03*
X017000Y120900D02*
D03*
X015000Y120900D02*
D03*
X014000Y120900D02*
D03*
X017000Y117900D02*
D03*
X014000Y117900D02*
D03*
D231*
X033000Y127500D02*
D03*
D220*
X022764Y127500D02*
D03*
D56*
X014747Y126947D02*
D03*
X008500Y123900D02*
D03*
X024555Y129895D02*
D03*
X026455Y129895D02*
D03*
X025450Y127650D02*
D03*
X028400Y127750D02*
D03*
X027439Y127661D02*
D03*
X015500Y124550D02*
D03*
X018400Y124050D02*
D03*
X016115Y125365D02*
D03*
X017650Y126050D02*
D03*
X016435Y123435D02*
D03*
D70*
X018750Y129700D02*
D03*
X019935Y129735D02*
D03*
X014800Y132100D02*
D03*
X015300Y130100D02*
D03*
X016450Y130150D02*
D03*
X017300Y130100D02*
D03*
X018300Y130150D02*
D03*
X023600Y131750D02*
D03*
X021300Y129950D02*
D03*
X022300Y130100D02*
D03*
X020700Y132250D02*
D03*
X022876Y132774D02*
D03*
X017700Y132600D02*
D03*
X038250Y050750D02*
G01*
G75*
D63*
X065809Y078703D02*
D03*
X065022Y079490D02*
D03*
X065022Y079096D02*
D03*
X060691Y081459D02*
D03*
X061085Y081852D02*
D03*
X060691Y082640D02*
D03*
X060691Y082246D02*
D03*
X060297Y081852D02*
D03*
X059904Y081852D02*
D03*
X060691Y081852D02*
D03*
X061085Y081459D02*
D03*
X060297Y081065D02*
D03*
X059904Y081065D02*
D03*
X065809Y081459D02*
D03*
X064628Y081459D02*
D03*
X064234Y082246D02*
D03*
X064234Y081459D02*
D03*
X063841Y081852D02*
D03*
X063841Y081459D02*
D03*
X061478Y080671D02*
D03*
X060297Y082640D02*
D03*
X059904Y082640D02*
D03*
X061085Y082640D02*
D03*
X060297Y083427D02*
D03*
X060297Y083033D02*
D03*
X059904Y083427D02*
D03*
X059904Y083033D02*
D03*
X061085Y082246D02*
D03*
X065809Y084215D02*
D03*
X063841Y084215D02*
D03*
X063447Y084215D02*
D03*
X063053Y084215D02*
D03*
X062659Y084215D02*
D03*
X062266Y084215D02*
D03*
X061872Y084215D02*
D03*
X061478Y084215D02*
D03*
X061085Y084215D02*
D03*
X060691Y084215D02*
D03*
X060297Y084215D02*
D03*
X059904Y084215D02*
D03*
X065809Y083821D02*
D03*
X065415Y083821D02*
D03*
X065022Y083821D02*
D03*
X063447Y083821D02*
D03*
X063053Y083821D02*
D03*
X062659Y083821D02*
D03*
X062266Y083821D02*
D03*
X061872Y083821D02*
D03*
X061478Y083821D02*
D03*
X061085Y083821D02*
D03*
X060691Y083821D02*
D03*
X060297Y083821D02*
D03*
X059904Y083821D02*
D03*
X065809Y083427D02*
D03*
X065415Y083427D02*
D03*
X064628Y083427D02*
D03*
X064234Y083427D02*
D03*
X063053Y083427D02*
D03*
X062659Y083427D02*
D03*
X062266Y083427D02*
D03*
X061872Y083427D02*
D03*
X061478Y083427D02*
D03*
X061085Y083427D02*
D03*
X060691Y083427D02*
D03*
X065809Y083033D02*
D03*
X065415Y083033D02*
D03*
X065022Y083033D02*
D03*
X064628Y083033D02*
D03*
X064234Y083033D02*
D03*
X063447Y083033D02*
D03*
X063053Y083033D02*
D03*
X062659Y083033D02*
D03*
X062266Y083033D02*
D03*
X061872Y083033D02*
D03*
X061478Y083033D02*
D03*
X061085Y083033D02*
D03*
X060691Y083033D02*
D03*
X065809Y082640D02*
D03*
X065415Y082640D02*
D03*
X065022Y082640D02*
D03*
X064628Y082640D02*
D03*
X064234Y082640D02*
D03*
X063841Y082640D02*
D03*
X063447Y082640D02*
D03*
X063053Y082640D02*
D03*
X062659Y082640D02*
D03*
X062266Y082640D02*
D03*
X061872Y082640D02*
D03*
X061478Y082640D02*
D03*
X065809Y082246D02*
D03*
X065415Y082246D02*
D03*
X065022Y082246D02*
D03*
X064628Y082246D02*
D03*
X063841Y082246D02*
D03*
X063447Y082246D02*
D03*
X063053Y082246D02*
D03*
X062659Y082246D02*
D03*
X062266Y082246D02*
D03*
X061872Y082246D02*
D03*
X061478Y082246D02*
D03*
X060297Y082246D02*
D03*
X059904Y082246D02*
D03*
X065809Y081852D02*
D03*
X065415Y081852D02*
D03*
X065022Y081852D02*
D03*
X064628Y081852D02*
D03*
X064234Y081852D02*
D03*
X063447Y081852D02*
D03*
X063053Y081852D02*
D03*
X062659Y081852D02*
D03*
X062266Y081852D02*
D03*
X061872Y081852D02*
D03*
X061478Y081852D02*
D03*
X065415Y081459D02*
D03*
X065022Y081459D02*
D03*
X063447Y081459D02*
D03*
X063053Y081459D02*
D03*
X062659Y081459D02*
D03*
X062266Y081459D02*
D03*
X061872Y081459D02*
D03*
X061478Y081459D02*
D03*
X060297Y081459D02*
D03*
X059904Y081459D02*
D03*
X065809Y081065D02*
D03*
X065415Y081065D02*
D03*
X064234Y081065D02*
D03*
X063841Y081065D02*
D03*
X063447Y081065D02*
D03*
X063053Y081065D02*
D03*
X062659Y081065D02*
D03*
X062266Y081065D02*
D03*
X061872Y081065D02*
D03*
X061478Y081065D02*
D03*
X061085Y081065D02*
D03*
X060691Y081065D02*
D03*
X064234Y080671D02*
D03*
X063841Y080671D02*
D03*
X063447Y080671D02*
D03*
X063053Y080671D02*
D03*
X062659Y080671D02*
D03*
X062266Y080671D02*
D03*
X061872Y080671D02*
D03*
X061085Y080671D02*
D03*
X060691Y080671D02*
D03*
X060297Y080671D02*
D03*
X059904Y080671D02*
D03*
X065809Y080278D02*
D03*
X064234Y080278D02*
D03*
X063841Y080278D02*
D03*
X063447Y080278D02*
D03*
X063053Y080278D02*
D03*
X062659Y080278D02*
D03*
X062266Y080278D02*
D03*
X061872Y080278D02*
D03*
X061478Y080278D02*
D03*
X061085Y080278D02*
D03*
X060691Y080278D02*
D03*
X060297Y080278D02*
D03*
X059904Y080278D02*
D03*
X064234Y079884D02*
D03*
X063053Y079884D02*
D03*
X062659Y079884D02*
D03*
X061478Y079884D02*
D03*
X061085Y079884D02*
D03*
X060691Y079884D02*
D03*
X060297Y079884D02*
D03*
X059904Y079884D02*
D03*
X064628Y079490D02*
D03*
X062659Y079490D02*
D03*
X061085Y079490D02*
D03*
X060691Y079490D02*
D03*
X060297Y079490D02*
D03*
X059904Y079490D02*
D03*
X064234Y079096D02*
D03*
X062659Y079096D02*
D03*
X060297Y079096D02*
D03*
X059904Y079096D02*
D03*
X065415Y078703D02*
D03*
X063447Y078703D02*
D03*
X062659Y078703D02*
D03*
X060297Y078703D02*
D03*
X059904Y078703D02*
D03*
X065809Y078309D02*
D03*
X063841Y078309D02*
D03*
X063447Y078309D02*
D03*
X061872Y078309D02*
D03*
X059904Y078309D02*
D03*
X061872Y078703D02*
D03*
X062266Y078309D02*
D03*
X062266Y078703D02*
D03*
X062659Y078309D02*
D03*
X062266Y079884D02*
D03*
X061085Y078309D02*
D03*
X061478Y078309D02*
D03*
X061478Y078703D02*
D03*
X062266Y079096D02*
D03*
X061478Y079490D02*
D03*
X060691Y078309D02*
D03*
X061085Y078703D02*
D03*
X061872Y079096D02*
D03*
X061872Y079884D02*
D03*
X060297Y078309D02*
D03*
X060691Y078703D02*
D03*
X060691Y079096D02*
D03*
X061478Y079096D02*
D03*
X061085Y079096D02*
D03*
X061872Y079490D02*
D03*
X062266Y079490D02*
D03*
X063053Y079096D02*
D03*
X063053Y079490D02*
D03*
X063447Y079490D02*
D03*
X063447Y079884D02*
D03*
X063053Y078309D02*
D03*
X063053Y078703D02*
D03*
X063447Y079096D02*
D03*
X063841Y078703D02*
D03*
X064234Y078309D02*
D03*
X064234Y078703D02*
D03*
X064628Y078309D02*
D03*
X065022Y078309D02*
D03*
X065415Y078309D02*
D03*
X063841Y079490D02*
D03*
X063841Y079884D02*
D03*
X064234Y079490D02*
D03*
X063841Y079096D02*
D03*
X064628Y078703D02*
D03*
X064628Y079096D02*
D03*
X065022Y078703D02*
D03*
X065415Y079096D02*
D03*
X065415Y079490D02*
D03*
X065415Y079884D02*
D03*
X065415Y080278D02*
D03*
X065415Y080671D02*
D03*
X065809Y079096D02*
D03*
X065809Y079490D02*
D03*
X065809Y079884D02*
D03*
X065809Y080671D02*
D03*
X064628Y081065D02*
D03*
X064628Y079884D02*
D03*
X064628Y080278D02*
D03*
X065022Y079884D02*
D03*
X065022Y080278D02*
D03*
X065022Y080671D02*
D03*
X064628Y080671D02*
D03*
X065022Y081065D02*
D03*
X065022Y083427D02*
D03*
X063447Y083427D02*
D03*
X065022Y084215D02*
D03*
X065415Y084215D02*
D03*
X064628Y084215D02*
D03*
X063841Y083427D02*
D03*
X064628Y083821D02*
D03*
X063841Y083033D02*
D03*
X063841Y083821D02*
D03*
X064234Y083821D02*
D03*
X064234Y084215D02*
D03*
D200*
X050085Y080150D02*
D03*
X049415Y080150D02*
D03*
X050085Y079350D02*
D03*
X049415Y079350D02*
D03*
X045515Y079650D02*
D03*
X046185Y079650D02*
D03*
X046185Y080350D02*
D03*
X045515Y080350D02*
D03*
X050085Y078550D02*
D03*
X049415Y078550D02*
D03*
X046185Y078950D02*
D03*
X045515Y078950D02*
D03*
X052715Y084950D02*
D03*
X053385Y084950D02*
D03*
D142*
X069899Y087350D02*
D03*
X071001Y087350D02*
D03*
X063701Y087550D02*
D03*
X047701Y087550D02*
D03*
X047599Y086350D02*
D03*
X048701Y086350D02*
D03*
X060150Y086650D02*
D03*
X067799Y086150D02*
D03*
X073199Y086550D02*
D03*
X064701Y086350D02*
D03*
X044150Y086650D02*
D03*
X046599Y087550D02*
D03*
X057199Y086550D02*
D03*
X045252Y086650D02*
D03*
X061252Y086650D02*
D03*
X068901Y086150D02*
D03*
X062599Y087550D02*
D03*
X058301Y086550D02*
D03*
X074301Y086550D02*
D03*
X063599Y086350D02*
D03*
X067799Y085050D02*
D03*
X068901Y085050D02*
D03*
D30*
X067250Y082550D02*
D03*
X044650Y061550D02*
D03*
X078250Y069750D02*
D03*
X042250Y096750D02*
D03*
D118*
X041887Y065988D02*
D03*
X041887Y066775D02*
D03*
X041887Y067563D02*
D03*
X041887Y068350D02*
D03*
X041887Y069137D02*
D03*
X041887Y069925D02*
D03*
X040213Y065988D02*
D03*
X040213Y066775D02*
D03*
X040213Y067563D02*
D03*
X040213Y068350D02*
D03*
X040213Y069137D02*
D03*
X040213Y069925D02*
D03*
X041887Y070712D02*
D03*
X040213Y070712D02*
D03*
D256*
X040176Y056450D02*
D03*
X041924Y056450D02*
D03*
X040176Y057450D02*
D03*
X041924Y057450D02*
D03*
X040176Y058450D02*
D03*
X041924Y058450D02*
D03*
X040176Y059450D02*
D03*
X041924Y059450D02*
D03*
X040176Y060450D02*
D03*
X041924Y060450D02*
D03*
X040176Y061450D02*
D03*
X041924Y061450D02*
D03*
X040176Y062450D02*
D03*
X041924Y062450D02*
D03*
X040176Y063450D02*
D03*
X041924Y063450D02*
D03*
D108*
X039950Y082256D02*
D03*
X039950Y080444D02*
D03*
X079950Y075956D02*
D03*
X079950Y074144D02*
D03*
D160*
X080619Y078850D02*
D03*
X080619Y084850D02*
D03*
X043818Y081852D02*
D03*
D120*
X078650Y079350D02*
D03*
X078650Y077850D02*
D03*
X078650Y079850D02*
D03*
X078650Y078350D02*
D03*
X078650Y078850D02*
D03*
X078650Y084850D02*
D03*
X078650Y084350D02*
D03*
X078650Y085850D02*
D03*
X078650Y083850D02*
D03*
X078650Y085350D02*
D03*
X041850Y081852D02*
D03*
X041850Y081352D02*
D03*
X041850Y082852D02*
D03*
X041850Y080852D02*
D03*
X041850Y082352D02*
D03*
D115*
X070430Y089060D02*
D03*
X054400Y089050D02*
D03*
X047050Y089182D02*
D03*
X063050Y089182D02*
D03*
D257*
X070980Y088371D02*
D03*
X070980Y088568D02*
D03*
X070980Y088765D02*
D03*
X070980Y088962D02*
D03*
X070980Y089158D02*
D03*
X070980Y089355D02*
D03*
X070980Y089552D02*
D03*
X070980Y089749D02*
D03*
X069858Y089749D02*
D03*
X069858Y089552D02*
D03*
X069858Y089355D02*
D03*
X069858Y089158D02*
D03*
X069858Y088962D02*
D03*
X069858Y088765D02*
D03*
X069858Y088568D02*
D03*
X069858Y088371D02*
D03*
X054950Y088361D02*
D03*
X054950Y088558D02*
D03*
X054950Y088755D02*
D03*
X054950Y088952D02*
D03*
X054950Y089148D02*
D03*
X054950Y089345D02*
D03*
X054950Y089542D02*
D03*
X054950Y089739D02*
D03*
X053828Y089739D02*
D03*
X053828Y089542D02*
D03*
X053828Y089345D02*
D03*
X053828Y089148D02*
D03*
X053828Y088952D02*
D03*
X053828Y088755D02*
D03*
X053828Y088558D02*
D03*
X053828Y088361D02*
D03*
X047600Y088493D02*
D03*
X047600Y088690D02*
D03*
X047600Y088886D02*
D03*
X047600Y089083D02*
D03*
X047600Y089280D02*
D03*
X047600Y089477D02*
D03*
X047600Y089674D02*
D03*
X047600Y089871D02*
D03*
X046478Y089871D02*
D03*
X046478Y089674D02*
D03*
X046478Y089477D02*
D03*
X046478Y089280D02*
D03*
X046478Y089083D02*
D03*
X046478Y088886D02*
D03*
X046478Y088690D02*
D03*
X046478Y088493D02*
D03*
X063600Y088493D02*
D03*
X063600Y088690D02*
D03*
X063600Y088886D02*
D03*
X063600Y089083D02*
D03*
X063600Y089280D02*
D03*
X063600Y089477D02*
D03*
X063600Y089674D02*
D03*
X063600Y089871D02*
D03*
X062478Y089871D02*
D03*
X062478Y089674D02*
D03*
X062478Y089477D02*
D03*
X062478Y089280D02*
D03*
X062478Y089083D02*
D03*
X062478Y088886D02*
D03*
X062478Y088690D02*
D03*
X062478Y088493D02*
D03*
D254*
X066268Y087250D02*
D03*
X050268Y087250D02*
D03*
X065500Y087250D02*
D03*
X065500Y090085D02*
D03*
X065756Y090085D02*
D03*
X066012Y090085D02*
D03*
X066268Y090085D02*
D03*
X066524Y087250D02*
D03*
X066780Y087250D02*
D03*
X067035Y087250D02*
D03*
X068059Y087250D02*
D03*
X068571Y090085D02*
D03*
X065244Y090085D02*
D03*
X065756Y087250D02*
D03*
X066012Y087250D02*
D03*
X067547Y087250D02*
D03*
X067547Y090085D02*
D03*
X068059Y090085D02*
D03*
X067291Y090085D02*
D03*
X067035Y090085D02*
D03*
X066780Y090085D02*
D03*
X066524Y090085D02*
D03*
X068315Y090085D02*
D03*
X067803Y090085D02*
D03*
X049244Y090085D02*
D03*
X049500Y087250D02*
D03*
X049500Y090085D02*
D03*
X049756Y087250D02*
D03*
X049756Y090085D02*
D03*
X050012Y087250D02*
D03*
X050012Y090085D02*
D03*
X050268Y090085D02*
D03*
X050524Y087250D02*
D03*
X050524Y090085D02*
D03*
X050780Y087250D02*
D03*
X050780Y090085D02*
D03*
X051035Y087250D02*
D03*
X051035Y090085D02*
D03*
X051291Y090085D02*
D03*
X051547Y087250D02*
D03*
X051547Y090085D02*
D03*
X051803Y090085D02*
D03*
X052059Y087250D02*
D03*
X052059Y090085D02*
D03*
X052315Y090085D02*
D03*
X052571Y090085D02*
D03*
X052571Y087250D02*
D03*
X049244Y087250D02*
D03*
X065244Y087250D02*
D03*
X051291Y087250D02*
D03*
X051803Y087250D02*
D03*
X052315Y087250D02*
D03*
X068571Y087250D02*
D03*
X068315Y087250D02*
D03*
X067291Y087250D02*
D03*
X067803Y087250D02*
D03*
D255*
X044646Y087657D02*
D03*
X044390Y087657D02*
D03*
X044134Y087657D02*
D03*
X043878Y087657D02*
D03*
X043366Y089843D02*
D03*
X043622Y089843D02*
D03*
X042854Y087657D02*
D03*
X043110Y087657D02*
D03*
X043366Y087657D02*
D03*
X043622Y087657D02*
D03*
X042854Y089843D02*
D03*
X043110Y089843D02*
D03*
X043878Y089843D02*
D03*
X044134Y089843D02*
D03*
X044390Y089843D02*
D03*
X044646Y089843D02*
D03*
X072604Y087657D02*
D03*
X072860Y087657D02*
D03*
X073116Y087657D02*
D03*
X073372Y087657D02*
D03*
X073628Y087657D02*
D03*
X072604Y089843D02*
D03*
X072860Y089843D02*
D03*
X073628Y089843D02*
D03*
X073884Y089843D02*
D03*
X074140Y089843D02*
D03*
X074396Y089843D02*
D03*
X056604Y087657D02*
D03*
X056860Y087657D02*
D03*
X057116Y087657D02*
D03*
X057372Y087657D02*
D03*
X057628Y087657D02*
D03*
X056604Y089843D02*
D03*
X056860Y089843D02*
D03*
X057628Y089843D02*
D03*
X057884Y089843D02*
D03*
X058140Y089843D02*
D03*
X058396Y089843D02*
D03*
X048486Y073073D02*
D03*
X048683Y073073D02*
D03*
X048880Y073073D02*
D03*
X049077Y073073D02*
D03*
X049274Y073073D02*
D03*
X049470Y073073D02*
D03*
X049667Y073073D02*
D03*
X049864Y073073D02*
D03*
X050061Y073073D02*
D03*
X050258Y073073D02*
D03*
X050455Y073073D02*
D03*
X050652Y073073D02*
D03*
X050848Y073073D02*
D03*
X051045Y073073D02*
D03*
X051242Y073073D02*
D03*
X051439Y073073D02*
D03*
X051636Y073073D02*
D03*
X051833Y073073D02*
D03*
X052030Y073073D02*
D03*
X052226Y073073D02*
D03*
X052423Y073073D02*
D03*
X052620Y073073D02*
D03*
X052817Y073073D02*
D03*
X053014Y073073D02*
D03*
X048486Y075927D02*
D03*
X048683Y075927D02*
D03*
X048880Y075927D02*
D03*
X049077Y075927D02*
D03*
X049274Y075927D02*
D03*
X049470Y075927D02*
D03*
X049667Y075927D02*
D03*
X049864Y075927D02*
D03*
X050061Y075927D02*
D03*
X050258Y075927D02*
D03*
X050455Y075927D02*
D03*
X050652Y075927D02*
D03*
X050848Y075927D02*
D03*
X051045Y075927D02*
D03*
X051242Y075927D02*
D03*
X051439Y075927D02*
D03*
X051636Y075927D02*
D03*
X051833Y075927D02*
D03*
X052030Y075927D02*
D03*
X052226Y075927D02*
D03*
X052423Y075927D02*
D03*
X052620Y075927D02*
D03*
X052817Y075927D02*
D03*
X053014Y075927D02*
D03*
X064486Y073073D02*
D03*
X064683Y073073D02*
D03*
X064880Y073073D02*
D03*
X065077Y073073D02*
D03*
X065274Y073073D02*
D03*
X065470Y073073D02*
D03*
X065667Y073073D02*
D03*
X065864Y073073D02*
D03*
X066061Y073073D02*
D03*
X066258Y073073D02*
D03*
X066455Y073073D02*
D03*
X066652Y073073D02*
D03*
X066848Y073073D02*
D03*
X067045Y073073D02*
D03*
X067242Y073073D02*
D03*
X067439Y073073D02*
D03*
X067636Y073073D02*
D03*
X067833Y073073D02*
D03*
X068030Y073073D02*
D03*
X068226Y073073D02*
D03*
X068423Y073073D02*
D03*
X068620Y073073D02*
D03*
X068817Y073073D02*
D03*
X069014Y073073D02*
D03*
X064486Y075927D02*
D03*
X064683Y075927D02*
D03*
X064880Y075927D02*
D03*
X065077Y075927D02*
D03*
X065274Y075927D02*
D03*
X065470Y075927D02*
D03*
X065667Y075927D02*
D03*
X065864Y075927D02*
D03*
X066061Y075927D02*
D03*
X066258Y075927D02*
D03*
X066455Y075927D02*
D03*
X066652Y075927D02*
D03*
X066848Y075927D02*
D03*
X067045Y075927D02*
D03*
X067242Y075927D02*
D03*
X067439Y075927D02*
D03*
X067636Y075927D02*
D03*
X067833Y075927D02*
D03*
X068030Y075927D02*
D03*
X068226Y075927D02*
D03*
X068423Y075927D02*
D03*
X068620Y075927D02*
D03*
X068817Y075927D02*
D03*
X069014Y075927D02*
D03*
X056486Y073073D02*
D03*
X056683Y073073D02*
D03*
X056880Y073073D02*
D03*
X057077Y073073D02*
D03*
X057274Y073073D02*
D03*
X057470Y073073D02*
D03*
X057667Y073073D02*
D03*
X057864Y073073D02*
D03*
X058061Y073073D02*
D03*
X058258Y073073D02*
D03*
X058455Y073073D02*
D03*
X058652Y073073D02*
D03*
X058848Y073073D02*
D03*
X059045Y073073D02*
D03*
X059242Y073073D02*
D03*
X059439Y073073D02*
D03*
X059636Y073073D02*
D03*
X059833Y073073D02*
D03*
X060030Y073073D02*
D03*
X060226Y073073D02*
D03*
X060423Y073073D02*
D03*
X060620Y073073D02*
D03*
X060817Y073073D02*
D03*
X061014Y073073D02*
D03*
X056486Y075927D02*
D03*
X056683Y075927D02*
D03*
X056880Y075927D02*
D03*
X057077Y075927D02*
D03*
X057274Y075927D02*
D03*
X057470Y075927D02*
D03*
X057667Y075927D02*
D03*
X057864Y075927D02*
D03*
X058061Y075927D02*
D03*
X058258Y075927D02*
D03*
X058455Y075927D02*
D03*
X058652Y075927D02*
D03*
X058848Y075927D02*
D03*
X059045Y075927D02*
D03*
X059242Y075927D02*
D03*
X059439Y075927D02*
D03*
X059636Y075927D02*
D03*
X059833Y075927D02*
D03*
X060030Y075927D02*
D03*
X060226Y075927D02*
D03*
X060423Y075927D02*
D03*
X060620Y075927D02*
D03*
X060817Y075927D02*
D03*
X061014Y075927D02*
D03*
X077014Y075927D02*
D03*
X076817Y075927D02*
D03*
X076620Y075927D02*
D03*
X076423Y075927D02*
D03*
X076226Y075927D02*
D03*
X076030Y075927D02*
D03*
X075833Y075927D02*
D03*
X075636Y075927D02*
D03*
X075439Y075927D02*
D03*
X075242Y075927D02*
D03*
X075045Y075927D02*
D03*
X074848Y075927D02*
D03*
X074652Y075927D02*
D03*
X074455Y075927D02*
D03*
X074258Y075927D02*
D03*
X074061Y075927D02*
D03*
X073864Y075927D02*
D03*
X073667Y075927D02*
D03*
X073470Y075927D02*
D03*
X073274Y075927D02*
D03*
X073077Y075927D02*
D03*
X072880Y075927D02*
D03*
X072683Y075927D02*
D03*
X072486Y075927D02*
D03*
X077014Y073073D02*
D03*
X076817Y073073D02*
D03*
X076620Y073073D02*
D03*
X076423Y073073D02*
D03*
X076226Y073073D02*
D03*
X076030Y073073D02*
D03*
X075833Y073073D02*
D03*
X075636Y073073D02*
D03*
X075439Y073073D02*
D03*
X075242Y073073D02*
D03*
X075045Y073073D02*
D03*
X074848Y073073D02*
D03*
X074652Y073073D02*
D03*
X074455Y073073D02*
D03*
X074258Y073073D02*
D03*
X074061Y073073D02*
D03*
X073864Y073073D02*
D03*
X073667Y073073D02*
D03*
X073470Y073073D02*
D03*
X073274Y073073D02*
D03*
X073077Y073073D02*
D03*
X072880Y073073D02*
D03*
X072683Y073073D02*
D03*
X072486Y073073D02*
D03*
X057372Y089843D02*
D03*
X057116Y089843D02*
D03*
X057884Y087657D02*
D03*
X058140Y087657D02*
D03*
X058396Y087657D02*
D03*
X073372Y089843D02*
D03*
X073116Y089843D02*
D03*
X073884Y087657D02*
D03*
X074140Y087657D02*
D03*
X074396Y087657D02*
D03*
X059354Y087657D02*
D03*
X059610Y087657D02*
D03*
X059866Y087657D02*
D03*
X060122Y087657D02*
D03*
X060378Y087657D02*
D03*
X060634Y087657D02*
D03*
X060890Y087657D02*
D03*
X061146Y087657D02*
D03*
X059354Y089843D02*
D03*
X059610Y089843D02*
D03*
X059866Y089843D02*
D03*
X060122Y089843D02*
D03*
X060378Y089843D02*
D03*
X060634Y089843D02*
D03*
X060890Y089843D02*
D03*
X061146Y089843D02*
D03*
D21*
X077456Y087450D02*
D03*
X075644Y087450D02*
D03*
X045307Y084876D02*
D03*
X043496Y084876D02*
D03*
X075244Y080550D02*
D03*
X077056Y080550D02*
D03*
X075144Y082950D02*
D03*
X076956Y082950D02*
D03*
X041356Y094150D02*
D03*
X039544Y094150D02*
D03*
X041356Y091800D02*
D03*
X039544Y091800D02*
D03*
D124*
X069050Y083404D02*
D03*
X069050Y081750D02*
D03*
X071050Y083404D02*
D03*
X071050Y081750D02*
D03*
D20*
X063450Y074699D02*
D03*
X063450Y075801D02*
D03*
X070250Y075201D02*
D03*
X070250Y074099D02*
D03*
X054150Y075101D02*
D03*
X054150Y073999D02*
D03*
X048250Y079001D02*
D03*
X048250Y077899D02*
D03*
X071450Y074499D02*
D03*
X071450Y075601D02*
D03*
X078150Y075201D02*
D03*
X078150Y074099D02*
D03*
X062350Y075201D02*
D03*
X062350Y074099D02*
D03*
X055350Y074699D02*
D03*
X055350Y075801D02*
D03*
X071850Y089299D02*
D03*
X045550Y088999D02*
D03*
X050000Y084949D02*
D03*
X050000Y086051D02*
D03*
X045550Y090101D02*
D03*
X071850Y090401D02*
D03*
X055850Y090401D02*
D03*
X055850Y089299D02*
D03*
X051500Y086051D02*
D03*
X051500Y084949D02*
D03*
D187*
X054587Y081661D02*
D03*
D187*
X054843Y081661D02*
D03*
X055098Y081661D02*
D03*
X055354Y081661D02*
D03*
X055610Y081661D02*
D03*
X055866Y081661D02*
D03*
X056122Y081661D02*
D03*
X056378Y081661D02*
D03*
X056634Y081661D02*
D03*
X056890Y081661D02*
D03*
X057146Y081661D02*
D03*
X057402Y081661D02*
D03*
X057657Y081661D02*
D03*
X057913Y081661D02*
D03*
X054587Y084339D02*
D03*
X054843Y084339D02*
D03*
X055098Y084339D02*
D03*
X055354Y084339D02*
D03*
X055610Y084339D02*
D03*
X055866Y084339D02*
D03*
X056122Y084339D02*
D03*
X056378Y084339D02*
D03*
X056634Y084339D02*
D03*
X056890Y084339D02*
D03*
X057146Y084339D02*
D03*
X057402Y084339D02*
D03*
X057657Y084339D02*
D03*
X057913Y084339D02*
D03*
D121*
X042407Y076725D02*
D03*
X042407Y076410D02*
D03*
X042407Y076095D02*
D03*
X042407Y075780D02*
D03*
X042407Y075465D02*
D03*
X042407Y075150D02*
D03*
X042407Y074835D02*
D03*
X042407Y074520D02*
D03*
X042407Y074205D02*
D03*
X042407Y073890D02*
D03*
X042407Y073575D02*
D03*
X047093Y076725D02*
D03*
X047093Y076410D02*
D03*
X047093Y076095D02*
D03*
X047093Y075780D02*
D03*
X047093Y075465D02*
D03*
X047093Y075150D02*
D03*
X047093Y074835D02*
D03*
X047093Y074520D02*
D03*
X047093Y074205D02*
D03*
X047093Y073890D02*
D03*
X047093Y073575D02*
D03*
D155*
X044750Y077493D02*
D03*
X044435Y077493D02*
D03*
X043175Y072807D02*
D03*
X043490Y072807D02*
D03*
X043805Y072807D02*
D03*
X044120Y072807D02*
D03*
X044435Y072807D02*
D03*
X044750Y072807D02*
D03*
X045065Y072807D02*
D03*
X045380Y072807D02*
D03*
X045695Y072807D02*
D03*
X046010Y072807D02*
D03*
X046325Y072807D02*
D03*
X043175Y077493D02*
D03*
X043490Y077493D02*
D03*
X043805Y077493D02*
D03*
X044120Y077493D02*
D03*
X045065Y077493D02*
D03*
X045380Y077493D02*
D03*
X045695Y077493D02*
D03*
X046010Y077493D02*
D03*
X046325Y077493D02*
D03*
D212*
X047500Y082500D02*
D03*
X048000Y082500D02*
D03*
X048500Y082500D02*
D03*
X049000Y082500D02*
D03*
X049500Y082500D02*
D03*
X050000Y082500D02*
D03*
X050500Y082500D02*
D03*
D153*
X053450Y081815D02*
D03*
X053450Y082485D02*
D03*
X053450Y083985D02*
D03*
X053450Y083315D02*
D03*
X072450Y084785D02*
D03*
X072450Y084115D02*
D03*
X072450Y082115D02*
D03*
X072450Y082785D02*
D03*
D41*
X043201Y079150D02*
D03*
X042099Y079150D02*
D03*
D148*
X077450Y078801D02*
D03*
X077450Y077699D02*
D03*
X077450Y085801D02*
D03*
X077450Y084699D02*
D03*
D62*
X073450Y082824D02*
D03*
X073450Y082076D02*
D03*
X073450Y084824D02*
D03*
X073450Y084076D02*
D03*
D258*
X041250Y085560D02*
D03*
X041250Y088940D02*
D03*
D146*
X041050Y070319D02*
D03*
X041050Y066381D02*
D03*
D186*
X040750Y125750D02*
D03*
X078750Y125750D02*
D03*
X040750Y053750D02*
D03*
X078750Y053750D02*
D03*
X040750Y100750D02*
D03*
X078750Y100750D02*
D03*
D102*
X062750Y111750D02*
D03*
X065250Y109250D02*
D03*
X065250Y114250D02*
D03*
X060250Y114250D02*
D03*
X062750Y103750D02*
D03*
X065250Y101250D02*
D03*
X065250Y106250D02*
D03*
X060250Y106250D02*
D03*
X062750Y095750D02*
D03*
X065250Y093250D02*
D03*
X065250Y098250D02*
D03*
X060250Y098250D02*
D03*
X070750Y119750D02*
D03*
X073250Y117250D02*
D03*
X073250Y122250D02*
D03*
X068250Y122250D02*
D03*
X070750Y111750D02*
D03*
X073250Y109250D02*
D03*
X073250Y114250D02*
D03*
X068250Y114250D02*
D03*
X070750Y103750D02*
D03*
X073250Y101250D02*
D03*
X073250Y106250D02*
D03*
X068250Y106250D02*
D03*
X070750Y095750D02*
D03*
X073250Y093250D02*
D03*
X073250Y098250D02*
D03*
X068250Y098250D02*
D03*
X054750Y095750D02*
D03*
X057250Y093250D02*
D03*
X057250Y098250D02*
D03*
X052250Y098250D02*
D03*
X054750Y103750D02*
D03*
X057250Y101250D02*
D03*
X057250Y106250D02*
D03*
X052250Y106250D02*
D03*
X054750Y111750D02*
D03*
X057250Y109250D02*
D03*
X057250Y114250D02*
D03*
X052250Y114250D02*
D03*
X054750Y119750D02*
D03*
X057250Y117250D02*
D03*
X057250Y122250D02*
D03*
X052250Y122250D02*
D03*
X046750Y095750D02*
D03*
X049250Y093250D02*
D03*
X049250Y098250D02*
D03*
X044250Y098250D02*
D03*
X046750Y103750D02*
D03*
X049250Y101250D02*
D03*
X049250Y106250D02*
D03*
X044250Y106250D02*
D03*
X046750Y111750D02*
D03*
X049250Y109250D02*
D03*
X049250Y114250D02*
D03*
X044250Y114250D02*
D03*
X046750Y119750D02*
D03*
X049250Y117250D02*
D03*
X049250Y122250D02*
D03*
X044250Y122250D02*
D03*
X044250Y117250D02*
D03*
X044250Y109250D02*
D03*
X060250Y109250D02*
D03*
X044250Y101250D02*
D03*
X060250Y101250D02*
D03*
X044250Y093250D02*
D03*
X060250Y093250D02*
D03*
X052250Y117250D02*
D03*
X068250Y117250D02*
D03*
X052250Y109250D02*
D03*
X068250Y109250D02*
D03*
X052250Y101250D02*
D03*
X068250Y101250D02*
D03*
X052250Y093250D02*
D03*
X068250Y093250D02*
D03*
X060250Y117250D02*
D03*
X060250Y122250D02*
D03*
X065250Y122250D02*
D03*
X065250Y117250D02*
D03*
X062750Y119750D02*
D03*
D189*
X071250Y059500D02*
D03*
X071250Y070750D02*
D03*
X063250Y059500D02*
D03*
X063250Y070750D02*
D03*
X055250Y059500D02*
D03*
X055250Y070750D02*
D03*
X047250Y059500D02*
D03*
X047250Y070750D02*
D03*
D91*
X070250Y059500D02*
D03*
X071250Y058500D02*
D03*
X070250Y058500D02*
D03*
X071250Y057500D02*
D03*
X070250Y057500D02*
D03*
X071250Y056500D02*
D03*
X070250Y056500D02*
D03*
X071250Y055500D02*
D03*
X070250Y055500D02*
D03*
X071250Y054500D02*
D03*
X070250Y054500D02*
D03*
X071250Y053500D02*
D03*
X070250Y053500D02*
D03*
X071250Y052500D02*
D03*
X070250Y052500D02*
D03*
X070250Y070750D02*
D03*
X071250Y069750D02*
D03*
X070250Y069750D02*
D03*
X071250Y068750D02*
D03*
X070250Y068750D02*
D03*
X071250Y067750D02*
D03*
X070250Y067750D02*
D03*
X071250Y066750D02*
D03*
X070250Y066750D02*
D03*
X071250Y065750D02*
D03*
X070250Y065750D02*
D03*
X071250Y064750D02*
D03*
X070250Y064750D02*
D03*
X071250Y063750D02*
D03*
X070250Y063750D02*
D03*
X062250Y059500D02*
D03*
X063250Y058500D02*
D03*
X062250Y058500D02*
D03*
X063250Y057500D02*
D03*
X062250Y057500D02*
D03*
X063250Y056500D02*
D03*
X062250Y056500D02*
D03*
X063250Y055500D02*
D03*
X062250Y055500D02*
D03*
X063250Y054500D02*
D03*
X062250Y054500D02*
D03*
X063250Y053500D02*
D03*
X062250Y053500D02*
D03*
X063250Y052500D02*
D03*
X062250Y052500D02*
D03*
X062250Y070750D02*
D03*
X063250Y069750D02*
D03*
X062250Y069750D02*
D03*
X063250Y068750D02*
D03*
X062250Y068750D02*
D03*
X063250Y067750D02*
D03*
X062250Y067750D02*
D03*
X063250Y066750D02*
D03*
X062250Y066750D02*
D03*
X063250Y065750D02*
D03*
X062250Y065750D02*
D03*
X063250Y064750D02*
D03*
X062250Y064750D02*
D03*
X063250Y063750D02*
D03*
X062250Y063750D02*
D03*
X054250Y059500D02*
D03*
X055250Y058500D02*
D03*
X054250Y058500D02*
D03*
X055250Y057500D02*
D03*
X054250Y057500D02*
D03*
X055250Y056500D02*
D03*
X054250Y056500D02*
D03*
X055250Y055500D02*
D03*
X054250Y055500D02*
D03*
X055250Y054500D02*
D03*
X054250Y054500D02*
D03*
X055250Y053500D02*
D03*
X054250Y053500D02*
D03*
X055250Y052500D02*
D03*
X054250Y052500D02*
D03*
X054250Y070750D02*
D03*
X055250Y069750D02*
D03*
X054250Y069750D02*
D03*
X055250Y068750D02*
D03*
X054250Y068750D02*
D03*
X055250Y067750D02*
D03*
X054250Y067750D02*
D03*
X055250Y066750D02*
D03*
X054250Y066750D02*
D03*
X055250Y065750D02*
D03*
X054250Y065750D02*
D03*
X055250Y064750D02*
D03*
X054250Y064750D02*
D03*
X055250Y063750D02*
D03*
X054250Y063750D02*
D03*
X046250Y059500D02*
D03*
X047250Y058500D02*
D03*
X046250Y058500D02*
D03*
X047250Y057500D02*
D03*
X046250Y057500D02*
D03*
X047250Y056500D02*
D03*
X046250Y056500D02*
D03*
X047250Y055500D02*
D03*
X046250Y055500D02*
D03*
X047250Y054500D02*
D03*
X046250Y054500D02*
D03*
X047250Y053500D02*
D03*
X046250Y053500D02*
D03*
X047250Y052500D02*
D03*
X046250Y052500D02*
D03*
X046250Y070750D02*
D03*
X047250Y069750D02*
D03*
X046250Y069750D02*
D03*
X047250Y068750D02*
D03*
X046250Y068750D02*
D03*
X047250Y067750D02*
D03*
X046250Y067750D02*
D03*
X047250Y066750D02*
D03*
X046250Y066750D02*
D03*
X047250Y065750D02*
D03*
X046250Y065750D02*
D03*
X047250Y064750D02*
D03*
X046250Y064750D02*
D03*
X047250Y063750D02*
D03*
X046250Y063750D02*
D03*
D116*
X046417Y082500D02*
D03*
X051468Y082106D02*
D03*
D70*
X071500Y087600D02*
D03*
X069400Y087600D02*
D03*
X042850Y067600D02*
D03*
X043300Y073450D02*
D03*
X042800Y068400D02*
D03*
X042800Y069100D02*
D03*
X041606Y073544D02*
D03*
X039200Y060850D02*
D03*
X043500Y074000D02*
D03*
X058917Y081363D02*
D03*
X059999Y084906D02*
D03*
X070337Y089530D02*
D03*
X070430Y088649D02*
D03*
X054392Y089530D02*
D03*
X054400Y088554D02*
D03*
X047207Y089628D02*
D03*
X047050Y088782D02*
D03*
X063152Y089628D02*
D03*
X063050Y088745D02*
D03*
X071321Y088939D02*
D03*
X055281Y088936D02*
D03*
X047998Y089083D02*
D03*
X050655Y087951D02*
D03*
X063998Y089083D02*
D03*
X066655Y087951D02*
D03*
X048391Y087902D02*
D03*
X064391Y087902D02*
D03*
X049864Y088742D02*
D03*
X047040Y086350D02*
D03*
X060122Y088228D02*
D03*
X075644Y086682D02*
D03*
X078850Y087807D02*
D03*
X050081Y075258D02*
D03*
X048486Y073585D02*
D03*
X058919Y078309D02*
D03*
X058427Y077620D02*
D03*
X043270Y076734D02*
D03*
X066596Y081459D02*
D03*
X069549Y083427D02*
D03*
X071612Y081750D02*
D03*
X077719Y074077D02*
D03*
X077719Y075258D02*
D03*
X071911Y075652D02*
D03*
X071911Y074569D02*
D03*
X069844Y074175D02*
D03*
X069844Y075258D02*
D03*
X063841Y075750D02*
D03*
X063841Y074667D02*
D03*
X061872Y075159D02*
D03*
X061872Y074077D02*
D03*
X055719Y075801D02*
D03*
X055801Y074699D02*
D03*
X053703Y074077D02*
D03*
X053703Y075061D02*
D03*
X072486Y073611D02*
D03*
X073077Y073611D02*
D03*
X073667Y073611D02*
D03*
X074258Y073611D02*
D03*
X075242Y073611D02*
D03*
X075833Y073611D02*
D03*
X076423Y073611D02*
D03*
X077014Y073611D02*
D03*
X064486Y073611D02*
D03*
X065077Y073611D02*
D03*
X065667Y073611D02*
D03*
X066258Y073611D02*
D03*
X067242Y073611D02*
D03*
X067833Y073611D02*
D03*
X068423Y073611D02*
D03*
X069014Y073611D02*
D03*
X056486Y073585D02*
D03*
X057077Y073585D02*
D03*
X057667Y073585D02*
D03*
X058258Y073585D02*
D03*
X059242Y073585D02*
D03*
X059833Y073585D02*
D03*
X060423Y073585D02*
D03*
X061014Y073585D02*
D03*
X048486Y075415D02*
D03*
X049077Y075415D02*
D03*
X049667Y075415D02*
D03*
X051242Y075415D02*
D03*
X051833Y075415D02*
D03*
X052423Y075415D02*
D03*
X053014Y075415D02*
D03*
X053014Y073585D02*
D03*
X052423Y073585D02*
D03*
X051833Y073585D02*
D03*
X051242Y073585D02*
D03*
X050258Y073585D02*
D03*
X049667Y073585D02*
D03*
X049077Y073585D02*
D03*
X054589Y083821D02*
D03*
X055278Y083722D02*
D03*
X055098Y084886D02*
D03*
X056122Y084846D02*
D03*
X056557Y084904D02*
D03*
X055671Y084904D02*
D03*
X055101Y082344D02*
D03*
X055354Y082126D02*
D03*
X056852Y082344D02*
D03*
X056459Y082443D02*
D03*
X052718Y084510D02*
D03*
X053764Y081815D02*
D03*
X047502Y081754D02*
D03*
X049000Y083209D02*
D03*
X050500Y081807D02*
D03*
X057541Y082246D02*
D03*
X057146Y082244D02*
D03*
X054392Y082246D02*
D03*
X054843Y082205D02*
D03*
X056163Y082246D02*
D03*
X056656Y083722D02*
D03*
X050652Y078014D02*
D03*
X049566Y077721D02*
D03*
X049467Y077229D02*
D03*
X049861Y077229D02*
D03*
X049763Y076737D02*
D03*
X050156Y076835D02*
D03*
X050156Y076441D02*
D03*
X050455Y075362D02*
D03*
X056486Y075389D02*
D03*
X057077Y075389D02*
D03*
X057667Y075389D02*
D03*
X058258Y075389D02*
D03*
X059242Y075389D02*
D03*
X059833Y075389D02*
D03*
X060423Y075389D02*
D03*
X061014Y075389D02*
D03*
X057932Y075162D02*
D03*
X058031Y076540D02*
D03*
X057932Y077032D02*
D03*
X058129Y077327D02*
D03*
X064486Y075389D02*
D03*
X065077Y075389D02*
D03*
X065667Y075389D02*
D03*
X066258Y075389D02*
D03*
X067242Y075389D02*
D03*
X067833Y075389D02*
D03*
X068423Y075389D02*
D03*
X069014Y075389D02*
D03*
X067285Y076587D02*
D03*
X067089Y076882D02*
D03*
X067778Y076882D02*
D03*
X067728Y077374D02*
D03*
X068220Y077325D02*
D03*
X068319Y077866D02*
D03*
X072486Y075372D02*
D03*
X073077Y075372D02*
D03*
X073667Y075372D02*
D03*
X074258Y075372D02*
D03*
X075833Y075372D02*
D03*
X076423Y075372D02*
D03*
X077014Y075372D02*
D03*
X074913Y075356D02*
D03*
X075242Y075372D02*
D03*
X075553Y075209D02*
D03*
X075455Y076587D02*
D03*
X075701Y076931D02*
D03*
X075652Y077325D02*
D03*
X075258Y078358D02*
D03*
X073240Y080868D02*
D03*
X046080Y089085D02*
D03*
X042854Y090534D02*
D03*
X043273Y090560D02*
D03*
X044405Y090560D02*
D03*
X044848Y090560D02*
D03*
X046078Y089526D02*
D03*
X046078Y088739D02*
D03*
X048047Y089379D02*
D03*
X048047Y088788D02*
D03*
X058184Y090707D02*
D03*
X057889Y090560D02*
D03*
X056855Y090560D02*
D03*
X056462Y090510D02*
D03*
X055527Y088739D02*
D03*
X055379Y089231D02*
D03*
X053214Y089083D02*
D03*
X053509Y088985D02*
D03*
X053411Y088640D02*
D03*
X052869Y090314D02*
D03*
X049244Y089641D02*
D03*
X057397Y090461D02*
D03*
X057116Y090397D02*
D03*
X043667Y089329D02*
D03*
X043765Y090461D02*
D03*
X043224Y089329D02*
D03*
X043622Y088152D02*
D03*
X044134Y088221D02*
D03*
X045980Y090461D02*
D03*
X045550Y088358D02*
D03*
X043569Y086820D02*
D03*
X045242Y087115D02*
D03*
X050852Y086574D02*
D03*
X050507Y086524D02*
D03*
X051547Y087650D02*
D03*
X049818Y087705D02*
D03*
X057643Y089280D02*
D03*
X055428Y090609D02*
D03*
X056265Y089625D02*
D03*
X058332Y088247D02*
D03*
X057593Y088247D02*
D03*
X058452Y086994D02*
D03*
X057347Y087115D02*
D03*
X046226Y088001D02*
D03*
X052033Y084950D02*
D03*
X050856Y085831D02*
D03*
X049527Y085881D02*
D03*
X050409Y084950D02*
D03*
X048440Y088886D02*
D03*
X049500Y087682D02*
D03*
X059569Y086820D02*
D03*
X061242Y087115D02*
D03*
X062226Y088001D02*
D03*
X073347Y087115D02*
D03*
X074452Y086994D02*
D03*
X065500Y087682D02*
D03*
X071428Y090609D02*
D03*
X064047Y088788D02*
D03*
X062078Y089526D02*
D03*
X062080Y089085D02*
D03*
X062078Y088739D02*
D03*
X065244Y089641D02*
D03*
X065818Y087705D02*
D03*
X067547Y087650D02*
D03*
X068869Y090314D02*
D03*
X071527Y088739D02*
D03*
X074184Y090707D02*
D03*
X071379Y089231D02*
D03*
X073889Y090560D02*
D03*
X072265Y089625D02*
D03*
X069214Y089083D02*
D03*
X072855Y090560D02*
D03*
X069509Y088985D02*
D03*
X069411Y088640D02*
D03*
X072462Y090510D02*
D03*
X060480Y088221D02*
D03*
X073643Y089280D02*
D03*
X073397Y090461D02*
D03*
X073116Y090397D02*
D03*
X074332Y088247D02*
D03*
X073593Y088247D02*
D03*
X064440Y088886D02*
D03*
X061150Y090550D02*
D03*
X060800Y090550D02*
D03*
X064047Y089379D02*
D03*
X059600Y090850D02*
D03*
X059350Y090400D02*
D03*
X060100Y090400D02*
D03*
X060450Y090400D02*
D03*
X066450Y086550D02*
D03*
X066695Y085888D02*
D03*
X069500Y086150D02*
D03*
X069450Y085050D02*
D03*
X042854Y087046D02*
D03*
X056100Y087350D02*
D03*
X043110Y088240D02*
D03*
X056750Y088350D02*
D03*
X052150Y087700D02*
D03*
X043250Y087000D02*
D03*
X056750Y087100D02*
D03*
X059354Y088307D02*
D03*
X072404Y088250D02*
D03*
X062069Y088250D02*
D03*
X059707Y088250D02*
D03*
X071813Y087856D02*
D03*
X067778Y087856D02*
D03*
X072994Y088250D02*
D03*
X060691Y087069D02*
D03*
X064572Y087659D02*
D03*
X041783Y073890D02*
D03*
X043004Y075780D02*
D03*
X042945Y074835D02*
D03*
X044120Y073352D02*
D03*
X044746Y073388D02*
D03*
X046488Y074205D02*
D03*
X046468Y074520D02*
D03*
X046010Y076848D02*
D03*
X047814Y077899D02*
D03*
X047800Y079001D02*
D03*
X044917Y080350D02*
D03*
X046015Y073890D02*
D03*
X051074Y080150D02*
D03*
X048093Y080868D02*
D03*
X046715Y079293D02*
D03*
X044451Y078407D02*
D03*
X050610Y079350D02*
D03*
X053998Y084215D02*
D03*
X047404Y080573D02*
D03*
X052128Y079982D02*
D03*
X054293Y084510D02*
D03*
X066815Y086500D02*
D03*
X068571Y086780D02*
D03*
X065317Y084904D02*
D03*
X045730Y078506D02*
D03*
X048880Y079293D02*
D03*
X068171Y086675D02*
D03*
X065022Y085002D02*
D03*
X067778Y086774D02*
D03*
X065120Y085494D02*
D03*
X064037Y084904D02*
D03*
X067285Y086774D02*
D03*
X065612Y086085D02*
D03*
X044750Y078018D02*
D03*
X066400Y082443D02*
D03*
X067187Y081656D02*
D03*
X041695Y077226D02*
D03*
X043201Y079717D02*
D03*
X042089Y078506D02*
D03*
X041698Y080471D02*
D03*
X042367Y080458D02*
D03*
X041213Y081350D02*
D03*
X073450Y081396D02*
D03*
X073486Y083427D02*
D03*
X079145Y078850D02*
D03*
X081656Y078900D02*
D03*
X048978Y087659D02*
D03*
X064923Y086970D02*
D03*
X065907Y088792D02*
D03*
X062985Y086350D02*
D03*
X067778Y084510D02*
D03*
X043818Y082500D02*
D03*
D56*
X042889Y070712D02*
D03*
X039211Y065988D02*
D03*
X039211Y066775D02*
D03*
X039211Y067563D02*
D03*
X039211Y068350D02*
D03*
X039211Y069137D02*
D03*
X039211Y069925D02*
D03*
X039211Y070712D02*
D03*
X039174Y063450D02*
D03*
X039174Y062450D02*
D03*
X039174Y061450D02*
D03*
X039174Y059450D02*
D03*
X039174Y058450D02*
D03*
X039150Y057450D02*
D03*
X039174Y056450D02*
D03*
X043100Y056450D02*
D03*
X043100Y057450D02*
D03*
X043076Y058450D02*
D03*
X043100Y059450D02*
D03*
X043100Y060450D02*
D03*
X043100Y061450D02*
D03*
X043100Y062450D02*
D03*
X043100Y063450D02*
D03*
X040779Y080444D02*
D03*
X042472Y081350D02*
D03*
X042482Y082049D02*
D03*
X042482Y082837D02*
D03*
X039950Y083060D02*
D03*
X043496Y083981D02*
D03*
X046189Y084876D02*
D03*
X078014Y078211D02*
D03*
X076734Y078801D02*
D03*
X079437Y084850D02*
D03*
X079293Y086085D02*
D03*
X078014Y084411D02*
D03*
X077450Y086353D02*
D03*
X078309Y087266D02*
D03*
X078650Y083276D02*
D03*
X077817Y083033D02*
D03*
X074175Y082935D02*
D03*
X074372Y080573D02*
D03*
X077915Y080573D02*
D03*
X079096Y080179D02*
D03*
X078650Y081708D02*
D03*
X078112Y077423D02*
D03*
X078650Y075704D02*
D03*
X079950Y076800D02*
D03*
X079884Y073289D02*
D03*
X040250Y085560D02*
D03*
X042317Y085560D02*
D03*
X040119Y088940D02*
D03*
X041250Y089977D02*
D03*
X042380Y088942D02*
D03*
X041396Y090911D02*
D03*
X041396Y093175D02*
D03*
X039526Y092781D02*
D03*
X039526Y095045D02*
D03*
X044250Y080750D02*
D03*
X044250Y083250D02*
D03*
X084500Y050750D02*
G01*
G75*
D160*
X094731Y072950D02*
D03*
X094731Y087950D02*
D03*
X096132Y079750D02*
D03*
D120*
X096700Y072450D02*
D03*
X096700Y073950D02*
D03*
X096700Y071950D02*
D03*
X096700Y073450D02*
D03*
X096700Y072950D02*
D03*
X096700Y087950D02*
D03*
X096700Y088450D02*
D03*
X096700Y086950D02*
D03*
X096700Y088950D02*
D03*
X096700Y087450D02*
D03*
X098100Y079750D02*
D03*
X098100Y080250D02*
D03*
X098100Y078750D02*
D03*
X098100Y080750D02*
D03*
X098100Y079250D02*
D03*
D153*
X099300Y072285D02*
D03*
X099300Y071615D02*
D03*
X099300Y069815D02*
D03*
X099300Y070485D02*
D03*
X105100Y072485D02*
D03*
X105100Y071815D02*
D03*
X105100Y073815D02*
D03*
X105100Y074485D02*
D03*
X105100Y070015D02*
D03*
X105100Y070685D02*
D03*
X099300Y073415D02*
D03*
X099300Y074085D02*
D03*
X101900Y088485D02*
D03*
X101900Y087815D02*
D03*
D230*
X100474Y087950D02*
D03*
X099726Y087950D02*
D03*
X100474Y084550D02*
D03*
X099726Y084550D02*
D03*
D21*
X097006Y084950D02*
D03*
X095194Y084950D02*
D03*
X097606Y076950D02*
D03*
X095794Y076950D02*
D03*
X097006Y082750D02*
D03*
X095194Y082750D02*
D03*
X096206Y070150D02*
D03*
X094394Y070150D02*
D03*
D41*
X098549Y085750D02*
D03*
X099651Y085750D02*
D03*
D108*
X098100Y087444D02*
D03*
X098100Y089256D02*
D03*
X094100Y075644D02*
D03*
X094100Y077456D02*
D03*
D148*
X098500Y082199D02*
D03*
X098500Y083301D02*
D03*
X097900Y073599D02*
D03*
X097900Y074701D02*
D03*
D200*
X102835Y089350D02*
D03*
X102165Y089350D02*
D03*
X103365Y089950D02*
D03*
X104035Y089950D02*
D03*
X100435Y086750D02*
D03*
X099765Y086750D02*
D03*
X100435Y083350D02*
D03*
X099765Y083350D02*
D03*
D212*
X103300Y091950D02*
D03*
X102800Y091950D02*
D03*
X102300Y091950D02*
D03*
X101800Y091950D02*
D03*
X101300Y091950D02*
D03*
X100800Y091950D02*
D03*
X100300Y091950D02*
D03*
D15*
X099338Y058313D02*
D03*
X099338Y059987D02*
D03*
X100125Y058313D02*
D03*
X100913Y058313D02*
D03*
X101700Y058313D02*
D03*
X102487Y058313D02*
D03*
X103275Y058313D02*
D03*
X104062Y058313D02*
D03*
X100125Y059987D02*
D03*
X100913Y059987D02*
D03*
X101700Y059987D02*
D03*
X102487Y059987D02*
D03*
X103275Y059987D02*
D03*
X104062Y059987D02*
D03*
D124*
X103316Y071300D02*
D03*
X101316Y071300D02*
D03*
X101316Y072953D02*
D03*
X103316Y072953D02*
D03*
D63*
X106043Y079270D02*
D03*
X105650Y079270D02*
D03*
X106043Y079663D02*
D03*
X105650Y079663D02*
D03*
X105650Y080057D02*
D03*
X106043Y080451D02*
D03*
X105650Y080451D02*
D03*
X106043Y080844D02*
D03*
X105650Y080844D02*
D03*
X106043Y081238D02*
D03*
X105650Y081238D02*
D03*
X106043Y081632D02*
D03*
X106043Y078482D02*
D03*
X106043Y078876D02*
D03*
X106043Y077695D02*
D03*
X105650Y078089D02*
D03*
X105650Y078482D02*
D03*
X106043Y076514D02*
D03*
X106043Y076907D02*
D03*
X105650Y076907D02*
D03*
X106043Y077301D02*
D03*
X105650Y077301D02*
D03*
X105650Y077695D02*
D03*
X100138Y082026D02*
D03*
X100138Y081632D02*
D03*
X100138Y081238D02*
D03*
X100138Y080844D02*
D03*
X100138Y080451D02*
D03*
X100138Y080057D02*
D03*
X100138Y079663D02*
D03*
X100138Y079270D02*
D03*
X100138Y078876D02*
D03*
X100138Y078482D02*
D03*
X100138Y078089D02*
D03*
X100138Y077695D02*
D03*
X100138Y077301D02*
D03*
X100138Y076907D02*
D03*
X100138Y076514D02*
D03*
X100138Y076120D02*
D03*
X100531Y082026D02*
D03*
X100531Y081632D02*
D03*
X100531Y081238D02*
D03*
X100531Y080844D02*
D03*
X100531Y080451D02*
D03*
X100531Y080057D02*
D03*
X100531Y079663D02*
D03*
X100531Y079270D02*
D03*
X100531Y078876D02*
D03*
X100531Y078482D02*
D03*
X100531Y078089D02*
D03*
X100531Y077695D02*
D03*
X100531Y077301D02*
D03*
X100531Y076907D02*
D03*
X100531Y076514D02*
D03*
X100925Y082026D02*
D03*
X100925Y081632D02*
D03*
X100925Y081238D02*
D03*
X100925Y080844D02*
D03*
X100925Y080451D02*
D03*
X100925Y080057D02*
D03*
X100925Y079663D02*
D03*
X100925Y079270D02*
D03*
X100925Y078876D02*
D03*
X100925Y078482D02*
D03*
X100925Y078089D02*
D03*
X100925Y077695D02*
D03*
X100925Y077301D02*
D03*
X100925Y076514D02*
D03*
X100925Y076120D02*
D03*
X101319Y082026D02*
D03*
X101319Y081632D02*
D03*
X101319Y081238D02*
D03*
X101319Y080844D02*
D03*
X101319Y080451D02*
D03*
X101319Y080057D02*
D03*
X101319Y079663D02*
D03*
X101319Y079270D02*
D03*
X101319Y078876D02*
D03*
X101319Y078482D02*
D03*
X101319Y078089D02*
D03*
X101319Y077695D02*
D03*
X101319Y077301D02*
D03*
X101319Y076514D02*
D03*
X101319Y076120D02*
D03*
X101713Y082026D02*
D03*
X101713Y081632D02*
D03*
X101713Y081238D02*
D03*
X101713Y080844D02*
D03*
X101713Y080451D02*
D03*
X101713Y080057D02*
D03*
X101713Y079663D02*
D03*
X101713Y079270D02*
D03*
X101713Y078876D02*
D03*
X101713Y078482D02*
D03*
X101713Y078089D02*
D03*
X101713Y077695D02*
D03*
X101713Y077301D02*
D03*
X101713Y076907D02*
D03*
X101713Y076514D02*
D03*
X101713Y076120D02*
D03*
X102106Y082026D02*
D03*
X102106Y081632D02*
D03*
X102106Y081238D02*
D03*
X102106Y080844D02*
D03*
X102106Y080451D02*
D03*
X102106Y080057D02*
D03*
X102106Y079663D02*
D03*
X102106Y079270D02*
D03*
X102106Y078876D02*
D03*
X102106Y078482D02*
D03*
X102106Y078089D02*
D03*
X102106Y077695D02*
D03*
X102106Y077301D02*
D03*
X102106Y076907D02*
D03*
X102106Y076514D02*
D03*
X102106Y076120D02*
D03*
X102500Y082026D02*
D03*
X102500Y081632D02*
D03*
X102500Y081238D02*
D03*
X102500Y080844D02*
D03*
X102500Y080451D02*
D03*
X102500Y080057D02*
D03*
X102500Y079663D02*
D03*
X102500Y079270D02*
D03*
X102500Y078876D02*
D03*
X102500Y078482D02*
D03*
X102500Y078089D02*
D03*
X102500Y077695D02*
D03*
X102500Y077301D02*
D03*
X102500Y076907D02*
D03*
X102500Y076514D02*
D03*
X102500Y076120D02*
D03*
X102894Y082026D02*
D03*
X102894Y081632D02*
D03*
X102894Y081238D02*
D03*
X102894Y080844D02*
D03*
X102894Y080451D02*
D03*
X102894Y080057D02*
D03*
X102894Y079663D02*
D03*
X102894Y079270D02*
D03*
X102894Y078876D02*
D03*
X102894Y078482D02*
D03*
X102894Y078089D02*
D03*
X102894Y077695D02*
D03*
X102894Y077301D02*
D03*
X102894Y076907D02*
D03*
X102894Y076514D02*
D03*
X102894Y076120D02*
D03*
X103287Y082026D02*
D03*
X103287Y081632D02*
D03*
X103287Y081238D02*
D03*
X103287Y080844D02*
D03*
X103287Y080451D02*
D03*
X103287Y080057D02*
D03*
X103287Y079663D02*
D03*
X103287Y079270D02*
D03*
X103287Y078876D02*
D03*
X103287Y078482D02*
D03*
X103287Y078089D02*
D03*
X103287Y077695D02*
D03*
X103287Y077301D02*
D03*
X103287Y076907D02*
D03*
X103287Y076514D02*
D03*
X103287Y076120D02*
D03*
X103681Y082026D02*
D03*
X103681Y081632D02*
D03*
X103681Y081238D02*
D03*
X103681Y080844D02*
D03*
X103681Y080451D02*
D03*
X103681Y080057D02*
D03*
X103681Y079663D02*
D03*
X103681Y079270D02*
D03*
X103681Y078876D02*
D03*
X103681Y078482D02*
D03*
X103681Y078089D02*
D03*
X103681Y077695D02*
D03*
X103681Y077301D02*
D03*
X103681Y076907D02*
D03*
X103681Y076514D02*
D03*
X103681Y076120D02*
D03*
X104075Y082026D02*
D03*
X104075Y081632D02*
D03*
X104075Y081238D02*
D03*
X104075Y080844D02*
D03*
X104075Y080451D02*
D03*
X104075Y080057D02*
D03*
X104075Y079663D02*
D03*
X104075Y079270D02*
D03*
X104075Y078876D02*
D03*
X104075Y078482D02*
D03*
X104075Y078089D02*
D03*
X104075Y077695D02*
D03*
X104075Y077301D02*
D03*
X104075Y076907D02*
D03*
X104075Y076514D02*
D03*
X104075Y076120D02*
D03*
X104468Y082026D02*
D03*
X104468Y081632D02*
D03*
X104468Y081238D02*
D03*
X104468Y080844D02*
D03*
X104468Y080451D02*
D03*
X104468Y080057D02*
D03*
X104468Y079663D02*
D03*
X104468Y079270D02*
D03*
X104468Y078876D02*
D03*
X104468Y078482D02*
D03*
X104468Y078089D02*
D03*
X104468Y077695D02*
D03*
X104468Y077301D02*
D03*
X104468Y076907D02*
D03*
X104468Y076514D02*
D03*
X104468Y076120D02*
D03*
X104862Y082026D02*
D03*
X104862Y081632D02*
D03*
X104862Y081238D02*
D03*
X104862Y080844D02*
D03*
X104862Y080451D02*
D03*
X104862Y080057D02*
D03*
X104862Y079663D02*
D03*
X104862Y079270D02*
D03*
X104862Y078876D02*
D03*
X104862Y078482D02*
D03*
X104862Y078089D02*
D03*
X104862Y077695D02*
D03*
X104862Y077301D02*
D03*
X104862Y076907D02*
D03*
X104862Y076514D02*
D03*
X104862Y076120D02*
D03*
X105256Y082026D02*
D03*
X105256Y081632D02*
D03*
X105256Y081238D02*
D03*
X105256Y080844D02*
D03*
X105256Y080451D02*
D03*
X105256Y080057D02*
D03*
X105256Y079663D02*
D03*
X105256Y079270D02*
D03*
X105256Y078876D02*
D03*
X105256Y078482D02*
D03*
X105256Y078089D02*
D03*
X105256Y077695D02*
D03*
X105256Y077301D02*
D03*
X105256Y076907D02*
D03*
X105256Y076514D02*
D03*
X105256Y076120D02*
D03*
X105650Y082026D02*
D03*
X105650Y081632D02*
D03*
X105650Y078876D02*
D03*
X105650Y076514D02*
D03*
X105650Y076120D02*
D03*
X106043Y082026D02*
D03*
X106043Y080057D02*
D03*
X106043Y078089D02*
D03*
X106043Y076120D02*
D03*
X100925Y076907D02*
D03*
X101319Y076907D02*
D03*
X100531Y076120D02*
D03*
D256*
X096174Y067850D02*
D03*
X094426Y067850D02*
D03*
X096174Y066850D02*
D03*
X094426Y066850D02*
D03*
X096174Y065850D02*
D03*
X094426Y065850D02*
D03*
X096174Y064850D02*
D03*
X094426Y064850D02*
D03*
X096174Y063850D02*
D03*
X094426Y063850D02*
D03*
X096174Y062850D02*
D03*
X094426Y062850D02*
D03*
X096174Y061850D02*
D03*
X094426Y061850D02*
D03*
X096174Y060850D02*
D03*
X094426Y060850D02*
D03*
D22*
X105839Y085287D02*
D03*
X105839Y085543D02*
D03*
X105839Y085798D02*
D03*
X105839Y086054D02*
D03*
X105839Y086310D02*
D03*
X105839Y086566D02*
D03*
X105839Y086822D02*
D03*
X105839Y087078D02*
D03*
X105839Y087334D02*
D03*
X105839Y087590D02*
D03*
X105839Y087846D02*
D03*
X105839Y088102D02*
D03*
X105839Y088357D02*
D03*
X105839Y088613D02*
D03*
X103161Y085287D02*
D03*
X103161Y085543D02*
D03*
X103161Y085798D02*
D03*
X103161Y086054D02*
D03*
X103161Y086310D02*
D03*
X103161Y086566D02*
D03*
X103161Y086822D02*
D03*
X103161Y087078D02*
D03*
X103161Y087334D02*
D03*
X103161Y087590D02*
D03*
X103161Y087846D02*
D03*
X103161Y088102D02*
D03*
X103161Y088357D02*
D03*
D22*
X103161Y088613D02*
D03*
D121*
X098557Y067325D02*
D03*
X098557Y067010D02*
D03*
X098557Y066695D02*
D03*
X098557Y066380D02*
D03*
X098557Y066065D02*
D03*
X098557Y065750D02*
D03*
X098557Y065435D02*
D03*
X098557Y065120D02*
D03*
X098557Y064805D02*
D03*
X098557Y064490D02*
D03*
X098557Y064175D02*
D03*
X103243Y067325D02*
D03*
X103243Y067010D02*
D03*
X103243Y066695D02*
D03*
X103243Y066380D02*
D03*
X103243Y066065D02*
D03*
X103243Y065750D02*
D03*
X103243Y065435D02*
D03*
X103243Y065120D02*
D03*
X103243Y064805D02*
D03*
X103243Y064490D02*
D03*
X103243Y064175D02*
D03*
D155*
X102475Y068093D02*
D03*
X102160Y068093D02*
D03*
X101845Y068093D02*
D03*
X101530Y068093D02*
D03*
X101215Y068093D02*
D03*
X100900Y068093D02*
D03*
X100585Y068093D02*
D03*
X100270Y068093D02*
D03*
X099955Y068093D02*
D03*
X099640Y068093D02*
D03*
X099325Y068093D02*
D03*
X102475Y063407D02*
D03*
X102160Y063407D02*
D03*
X101845Y063407D02*
D03*
X101530Y063407D02*
D03*
X101215Y063407D02*
D03*
X100900Y063407D02*
D03*
X100585Y063407D02*
D03*
X100270Y063407D02*
D03*
X099955Y063407D02*
D03*
X099640Y063407D02*
D03*
X099325Y063407D02*
D03*
D116*
X104268Y091556D02*
D03*
X099217Y091950D02*
D03*
D146*
X103668Y059150D02*
D03*
X099731Y059150D02*
D03*
D104*
X088500Y053750D02*
D03*
D104*
X088500Y113789D02*
D03*
X124681Y113789D02*
D03*
X124681Y053750D02*
D03*
D91*
X117300Y052350D02*
D03*
X116300Y052350D02*
D03*
X115300Y052350D02*
D03*
X114300Y052350D02*
D03*
X113300Y052350D02*
D03*
X112300Y052350D02*
D03*
X111300Y052350D02*
D03*
D189*
X110300Y052350D02*
D03*
D56*
X095600Y087250D02*
D03*
X095600Y088650D02*
D03*
X093800Y087150D02*
D03*
X093800Y088750D02*
D03*
X093800Y072150D02*
D03*
X093900Y073750D02*
D03*
X095300Y078918D02*
D03*
X095231Y080650D02*
D03*
X094134Y078433D02*
D03*
X094970Y075677D02*
D03*
X093543Y070165D02*
D03*
X094380Y071002D02*
D03*
X096201Y071002D02*
D03*
X096700Y071438D02*
D03*
X096017Y071950D02*
D03*
X097403Y072450D02*
D03*
X095975Y072950D02*
D03*
X096700Y075340D02*
D03*
X097185Y074299D02*
D03*
X097900Y075257D02*
D03*
X097271Y073450D02*
D03*
X095794Y076133D02*
D03*
X097606Y076192D02*
D03*
X097591Y078150D02*
D03*
X098711Y078778D02*
D03*
X097185Y079762D02*
D03*
X096939Y081189D02*
D03*
X097874Y081238D02*
D03*
X094295Y082750D02*
D03*
X095194Y083628D02*
D03*
X097825Y082370D02*
D03*
X098465Y081632D02*
D03*
X098465Y084043D02*
D03*
X098957Y089309D02*
D03*
X100368Y085750D02*
D03*
X096644Y085913D02*
D03*
X094282Y084978D02*
D03*
X095167Y085815D02*
D03*
X097037Y084043D02*
D03*
X097923Y084978D02*
D03*
X097283Y086947D02*
D03*
X098549Y086518D02*
D03*
X097333Y088226D02*
D03*
X097283Y088965D02*
D03*
X098100Y090117D02*
D03*
X093431Y060850D02*
D03*
X093431Y061850D02*
D03*
X093431Y062850D02*
D03*
X093431Y063850D02*
D03*
X093431Y065850D02*
D03*
X093431Y066850D02*
D03*
X093431Y067850D02*
D03*
X097169Y065850D02*
D03*
X097169Y064850D02*
D03*
X097169Y062850D02*
D03*
X097169Y061850D02*
D03*
X097169Y060850D02*
D03*
X099338Y060982D02*
D03*
X098809Y058994D02*
D03*
X100532Y059191D02*
D03*
X102106Y059191D02*
D03*
X102943Y059142D02*
D03*
X104665Y058305D02*
D03*
X096174Y068515D02*
D03*
X097167Y066850D02*
D03*
D70*
X104667Y089950D02*
D03*
X101900Y087282D02*
D03*
X104715Y071051D02*
D03*
X100474Y085216D02*
D03*
X100474Y088612D02*
D03*
X102500Y086652D02*
D03*
X102582Y087078D02*
D03*
X103161Y084951D02*
D03*
X103780Y087725D02*
D03*
X103714Y088357D02*
D03*
X103780Y088620D02*
D03*
X103780Y088030D02*
D03*
X102795Y083207D02*
D03*
X101077Y083350D02*
D03*
X100827Y086159D02*
D03*
X102894Y084093D02*
D03*
X099646Y072630D02*
D03*
X099744Y070904D02*
D03*
X106043Y073364D02*
D03*
X104567Y072774D02*
D03*
X101845Y067425D02*
D03*
X099197Y067010D02*
D03*
X100270Y063980D02*
D03*
X101220Y064014D02*
D03*
X103803Y065120D02*
D03*
X103843Y065750D02*
D03*
X100335Y092754D02*
D03*
X101811Y092754D02*
D03*
X103300Y092643D02*
D03*
X105059Y073167D02*
D03*
X102598Y064112D02*
D03*
X102205Y064211D02*
D03*
X104468Y070116D02*
D03*
X101845Y064078D02*
D03*
X102500Y086159D02*
D03*
X104075Y086258D02*
D03*
X099325Y064087D02*
D03*
X101614Y070608D02*
D03*
X100630Y066081D02*
D03*
X099709Y065750D02*
D03*
X103780Y071297D02*
D03*
X101316Y073558D02*
D03*
X104272Y087341D02*
D03*
X105052Y088613D02*
D03*
X104761Y087737D02*
D03*
X111091Y061033D02*
D03*
X111189Y061427D02*
D03*
X111287Y061821D02*
D03*
X111386Y062215D02*
D03*
X111484Y062608D02*
D03*
X111583Y063002D02*
D03*
X111681Y063789D02*
D03*
X111779Y064183D02*
D03*
X111878Y064577D02*
D03*
X111976Y064971D02*
D03*
X112075Y065364D02*
D03*
X113453Y059656D02*
D03*
X113551Y060443D02*
D03*
X113551Y060837D02*
D03*
X113551Y061230D02*
D03*
X113551Y061624D02*
D03*
X114972Y062411D02*
D03*
X114972Y062805D02*
D03*
X114972Y063199D02*
D03*
X114972Y063593D02*
D03*
X115465Y063986D02*
D03*
X115760Y064380D02*
D03*
X116055Y065167D02*
D03*
X112075Y063396D02*
D03*
X111976Y060640D02*
D03*
X112075Y060246D02*
D03*
X114874Y060049D02*
D03*
X114972Y062018D02*
D03*
X114874Y064774D02*
D03*
X114874Y065561D02*
D03*
X103681Y085543D02*
D03*
X103687Y086054D02*
D03*
X106357Y087334D02*
D03*
X106419Y086878D02*
D03*
X106400Y086553D02*
D03*
X105101Y086720D02*
D03*
X101357Y068738D02*
D03*
X103025Y072150D02*
D03*
X101516Y071986D02*
D03*
X097185Y063620D02*
D03*
X099215Y078150D02*
D03*
X102450Y060816D02*
D03*
M02*
