%FSLAX24Y24*%
%MOIN*%
G70*
G01*
G75*
G04 Layer_Color=8388736*
G04 Layer_Color=8388736*
%ADD10R,0.1000X0.1400*%
%ADD11R,0.0300X0.0600*%
%ADD12R,0.0433X0.0394*%
%ADD13R,0.0630X0.0512*%
%ADD14R,0.0945X0.1024*%
%ADD15R,0.0709X0.0630*%
%ADD16R,0.1024X0.0945*%
%ADD17R,0.0630X0.0709*%
%ADD18R,0.0394X0.0433*%
%ADD19R,0.0945X0.0354*%
%ADD20R,0.1083X0.0394*%
%ADD21R,0.0787X0.0551*%
%ADD22C,0.0177*%
%ADD23R,0.0500X0.1449*%
%ADD24R,0.0177X0.0669*%
%ADD25R,0.0177X0.0669*%
%ADD26R,0.0197X0.0748*%
%ADD27R,0.0748X0.0197*%
%ADD28C,0.0300*%
%ADD29C,0.0160*%
%ADD30C,0.0060*%
%ADD31C,0.0110*%
%ADD32C,0.0120*%
%ADD33C,0.0200*%
%ADD34C,0.0100*%
%ADD35C,0.0669*%
%ADD36C,0.0433*%
%ADD37C,0.1339*%
%ADD38C,0.1339*%
%ADD39C,0.0591*%
%ADD40R,0.0591X0.0591*%
%ADD41C,0.0400*%
%ADD42C,0.0200*%
%ADD43R,0.0512X0.1339*%
%ADD44R,0.0276X0.0787*%
%ADD45R,0.0354X0.0276*%
%ADD46R,0.0276X0.0354*%
%ADD47C,0.0098*%
%ADD48C,0.0079*%
%ADD49C,0.0040*%
%ADD50C,0.0080*%
%ADD51C,0.0070*%
%ADD52C,0.0150*%
%ADD53C,0.0600*%
%ADD54R,0.0098X0.1575*%
%ADD55R,0.1080X0.1480*%
%ADD56R,0.0380X0.0680*%
%ADD57R,0.0513X0.0474*%
%ADD58R,0.0710X0.0592*%
%ADD59R,0.1025X0.1104*%
%ADD60R,0.0789X0.0710*%
%ADD61R,0.1104X0.1025*%
%ADD62R,0.0710X0.0789*%
%ADD63R,0.0474X0.0513*%
%ADD64R,0.1025X0.0434*%
%ADD65R,0.1163X0.0474*%
%ADD66R,0.0867X0.0631*%
%ADD67C,0.0217*%
%ADD68R,0.0580X0.1529*%
%ADD69R,0.0257X0.0749*%
%ADD70R,0.0257X0.0749*%
%ADD71R,0.0277X0.0828*%
%ADD72R,0.0828X0.0277*%
%ADD73C,0.0749*%
%ADD74C,0.0513*%
%ADD75C,0.1419*%
%ADD76C,0.1419*%
%ADD77C,0.0671*%
%ADD78R,0.0671X0.0671*%
%ADD79C,0.0480*%
%ADD80C,0.0280*%
D55*
X36200Y57769D02*
D03*
X51200D02*
D03*
X43000Y56368D02*
D03*
D56*
X35700Y55800D02*
D03*
X37200D02*
D03*
X35200D02*
D03*
X36700D02*
D03*
X36200D02*
D03*
X51200D02*
D03*
X51700D02*
D03*
X50200D02*
D03*
X52200D02*
D03*
X50700D02*
D03*
X43000Y54400D02*
D03*
X43500D02*
D03*
X42000D02*
D03*
X44000D02*
D03*
X42500D02*
D03*
D57*
X35535Y53200D02*
D03*
X34865D02*
D03*
X33065D02*
D03*
X33735D02*
D03*
X35735Y47400D02*
D03*
X35065D02*
D03*
X37065D02*
D03*
X37735D02*
D03*
X33265D02*
D03*
X33935D02*
D03*
X36665Y53200D02*
D03*
X37335D02*
D03*
X51735Y50600D02*
D03*
X51065D02*
D03*
D58*
X51200Y52026D02*
D03*
Y52774D02*
D03*
X47800Y52026D02*
D03*
Y52774D02*
D03*
D59*
X48200Y55494D02*
D03*
Y57306D02*
D03*
X40200Y54894D02*
D03*
Y56706D02*
D03*
X46000Y55494D02*
D03*
Y57306D02*
D03*
X33400Y56294D02*
D03*
Y58106D02*
D03*
D60*
X49000Y53951D02*
D03*
Y52849D02*
D03*
D61*
X50694Y54400D02*
D03*
X52506D02*
D03*
X38894Y58400D02*
D03*
X40706D02*
D03*
D62*
X45449Y54000D02*
D03*
X46551D02*
D03*
X36849Y54600D02*
D03*
X37951D02*
D03*
D63*
X52600Y49665D02*
D03*
Y50335D02*
D03*
X53200Y49135D02*
D03*
Y48465D02*
D03*
X50000Y52065D02*
D03*
Y52735D02*
D03*
X46600Y52065D02*
D03*
Y52735D02*
D03*
D64*
X55200Y49200D02*
D03*
Y49700D02*
D03*
Y50200D02*
D03*
Y50700D02*
D03*
Y51200D02*
D03*
Y51700D02*
D03*
Y52200D02*
D03*
D65*
X21563Y53162D02*
D03*
X23237D02*
D03*
X21563Y52375D02*
D03*
Y51587D02*
D03*
Y50800D02*
D03*
Y50013D02*
D03*
Y49225D02*
D03*
Y48438D02*
D03*
X23237Y52375D02*
D03*
Y51587D02*
D03*
Y50800D02*
D03*
Y50013D02*
D03*
Y49225D02*
D03*
Y48438D02*
D03*
D66*
X34550Y49184D02*
D03*
Y51184D02*
D03*
X36203D02*
D03*
Y49184D02*
D03*
D67*
X42520Y46457D02*
D03*
Y46850D02*
D03*
X42913Y46457D02*
D03*
Y46850D02*
D03*
X43307D02*
D03*
X43701Y46457D02*
D03*
Y46850D02*
D03*
X44094Y46457D02*
D03*
Y46850D02*
D03*
X44488Y46457D02*
D03*
Y46850D02*
D03*
X44882Y46457D02*
D03*
X41732D02*
D03*
X42126D02*
D03*
X40945D02*
D03*
X41339Y46850D02*
D03*
X41732D02*
D03*
X39764Y46457D02*
D03*
X40157D02*
D03*
Y46850D02*
D03*
X40551Y46457D02*
D03*
Y46850D02*
D03*
X40945D02*
D03*
X45276Y52362D02*
D03*
X44882D02*
D03*
X44488D02*
D03*
X44094D02*
D03*
X43701D02*
D03*
X43307D02*
D03*
X42913D02*
D03*
X42520D02*
D03*
X42126D02*
D03*
X41732D02*
D03*
X41339D02*
D03*
X40945D02*
D03*
X40551D02*
D03*
X40157D02*
D03*
X39764D02*
D03*
X39370D02*
D03*
X45276Y51969D02*
D03*
X44882D02*
D03*
X44488D02*
D03*
X44094D02*
D03*
X43701D02*
D03*
X43307D02*
D03*
X42913D02*
D03*
X42520D02*
D03*
X42126D02*
D03*
X41732D02*
D03*
X41339D02*
D03*
X40945D02*
D03*
X40551D02*
D03*
X40157D02*
D03*
X39764D02*
D03*
X45276Y51575D02*
D03*
X44882D02*
D03*
X44488D02*
D03*
X44094D02*
D03*
X43701D02*
D03*
X43307D02*
D03*
X42913D02*
D03*
X42520D02*
D03*
X42126D02*
D03*
X41732D02*
D03*
X41339D02*
D03*
X40945D02*
D03*
X40551D02*
D03*
X39764D02*
D03*
X39370D02*
D03*
X45276Y51181D02*
D03*
X44882D02*
D03*
X44488D02*
D03*
X44094D02*
D03*
X43701D02*
D03*
X43307D02*
D03*
X42913D02*
D03*
X42520D02*
D03*
X42126D02*
D03*
X41732D02*
D03*
X41339D02*
D03*
X40945D02*
D03*
X40551D02*
D03*
X39764D02*
D03*
X39370D02*
D03*
X45276Y50787D02*
D03*
X44882D02*
D03*
X44488D02*
D03*
X44094D02*
D03*
X43701D02*
D03*
X43307D02*
D03*
X42913D02*
D03*
X42520D02*
D03*
X42126D02*
D03*
X41732D02*
D03*
X41339D02*
D03*
X40945D02*
D03*
X40551D02*
D03*
X40157D02*
D03*
X39764D02*
D03*
X39370D02*
D03*
X45276Y50394D02*
D03*
X44882D02*
D03*
X44488D02*
D03*
X44094D02*
D03*
X43701D02*
D03*
X43307D02*
D03*
X42913D02*
D03*
X42520D02*
D03*
X42126D02*
D03*
X41732D02*
D03*
X41339D02*
D03*
X40945D02*
D03*
X40551D02*
D03*
X40157D02*
D03*
X39764D02*
D03*
X39370D02*
D03*
X45276Y50000D02*
D03*
X44882D02*
D03*
X44488D02*
D03*
X44094D02*
D03*
X43701D02*
D03*
X43307D02*
D03*
X42913D02*
D03*
X42520D02*
D03*
X42126D02*
D03*
X41732D02*
D03*
X41339D02*
D03*
X40945D02*
D03*
X40551D02*
D03*
X40157D02*
D03*
X39764D02*
D03*
X39370D02*
D03*
X45276Y49606D02*
D03*
X44882D02*
D03*
X44488D02*
D03*
X44094D02*
D03*
X43701D02*
D03*
X43307D02*
D03*
X42913D02*
D03*
X42520D02*
D03*
X42126D02*
D03*
X41732D02*
D03*
X41339D02*
D03*
X40945D02*
D03*
X40551D02*
D03*
X40157D02*
D03*
X39764D02*
D03*
X39370D02*
D03*
X45276Y49213D02*
D03*
X44882D02*
D03*
X44488D02*
D03*
X44094D02*
D03*
X43701D02*
D03*
X43307D02*
D03*
X42913D02*
D03*
X42520D02*
D03*
X42126D02*
D03*
X41732D02*
D03*
X41339D02*
D03*
X40945D02*
D03*
X40551D02*
D03*
X40157D02*
D03*
X39764D02*
D03*
X39370D02*
D03*
X45276Y48819D02*
D03*
X44882D02*
D03*
X44488D02*
D03*
X44094D02*
D03*
X43701D02*
D03*
X43307D02*
D03*
X42913D02*
D03*
X42520D02*
D03*
X42126D02*
D03*
X41732D02*
D03*
X41339D02*
D03*
X40945D02*
D03*
X40551D02*
D03*
X40157D02*
D03*
X39764D02*
D03*
X39370D02*
D03*
X45276Y48425D02*
D03*
X44882D02*
D03*
X44488D02*
D03*
X44094D02*
D03*
X43701D02*
D03*
X43307D02*
D03*
X42913D02*
D03*
X42520D02*
D03*
X42126D02*
D03*
X41732D02*
D03*
X41339D02*
D03*
X40945D02*
D03*
X40551D02*
D03*
X40157D02*
D03*
X39764D02*
D03*
X39370D02*
D03*
X45276Y48032D02*
D03*
X44882D02*
D03*
X44488D02*
D03*
X44094D02*
D03*
X43701D02*
D03*
X43307D02*
D03*
X42913D02*
D03*
X42520D02*
D03*
X42126D02*
D03*
X41732D02*
D03*
X41339D02*
D03*
X40945D02*
D03*
X40551D02*
D03*
X40157D02*
D03*
X39764D02*
D03*
X39370D02*
D03*
X45276Y47638D02*
D03*
X44882D02*
D03*
X44488D02*
D03*
X44094D02*
D03*
X43701D02*
D03*
X43307D02*
D03*
X42913D02*
D03*
X42520D02*
D03*
X42126D02*
D03*
X41732D02*
D03*
X41339D02*
D03*
X40945D02*
D03*
X40551D02*
D03*
X40157D02*
D03*
X39764D02*
D03*
X39370D02*
D03*
X45276Y47244D02*
D03*
X44882D02*
D03*
X44488D02*
D03*
X44094D02*
D03*
X43701D02*
D03*
X43307D02*
D03*
X42913D02*
D03*
X42520D02*
D03*
X42126D02*
D03*
X41732D02*
D03*
X41339D02*
D03*
X40945D02*
D03*
X40551D02*
D03*
X40157D02*
D03*
X39764D02*
D03*
X39370D02*
D03*
X45276Y46850D02*
D03*
X44882D02*
D03*
X42126D02*
D03*
X39764D02*
D03*
X39370D02*
D03*
X45276Y46457D02*
D03*
X43307D02*
D03*
X41339D02*
D03*
X39370D02*
D03*
X40157Y51575D02*
D03*
Y51181D02*
D03*
X39370Y51969D02*
D03*
D68*
X31100Y56326D02*
D03*
Y58074D02*
D03*
X30100Y56326D02*
D03*
Y58074D02*
D03*
X29100Y56326D02*
D03*
Y58074D02*
D03*
X28100Y56326D02*
D03*
Y58074D02*
D03*
X27100Y56326D02*
D03*
Y58074D02*
D03*
X26100Y56326D02*
D03*
Y58074D02*
D03*
X25100Y56326D02*
D03*
Y58074D02*
D03*
X24100Y56326D02*
D03*
Y58074D02*
D03*
D69*
X48537Y46661D02*
D03*
X48793D02*
D03*
X49048D02*
D03*
X49304D02*
D03*
X49560D02*
D03*
X49816D02*
D03*
X50072D02*
D03*
X50328D02*
D03*
X50584D02*
D03*
X50840D02*
D03*
X51096D02*
D03*
X51352D02*
D03*
X51607D02*
D03*
X51863D02*
D03*
X48537Y49339D02*
D03*
X48793D02*
D03*
X49048D02*
D03*
X49304D02*
D03*
X49560D02*
D03*
X49816D02*
D03*
X50072D02*
D03*
X50328D02*
D03*
X50584D02*
D03*
X50840D02*
D03*
X51096D02*
D03*
X51352D02*
D03*
X51607D02*
D03*
D70*
X51863D02*
D03*
D71*
X30575Y53943D02*
D03*
X30260D02*
D03*
X29945D02*
D03*
X29630D02*
D03*
X29315D02*
D03*
X29000D02*
D03*
X28685D02*
D03*
X28370D02*
D03*
X28055D02*
D03*
X27740D02*
D03*
X27425D02*
D03*
X30575Y49257D02*
D03*
X30260D02*
D03*
X29945D02*
D03*
X29630D02*
D03*
X29315D02*
D03*
X29000D02*
D03*
X28685D02*
D03*
X28370D02*
D03*
X28055D02*
D03*
X27740D02*
D03*
X27425D02*
D03*
D72*
X31343Y50025D02*
D03*
Y50340D02*
D03*
Y50655D02*
D03*
Y50970D02*
D03*
Y51285D02*
D03*
Y51600D02*
D03*
Y51915D02*
D03*
Y52230D02*
D03*
Y52545D02*
D03*
Y52860D02*
D03*
Y53175D02*
D03*
X26657Y50025D02*
D03*
Y50340D02*
D03*
Y50655D02*
D03*
Y50970D02*
D03*
Y51285D02*
D03*
Y51600D02*
D03*
Y51915D02*
D03*
Y52230D02*
D03*
Y52545D02*
D03*
Y52860D02*
D03*
Y53175D02*
D03*
D73*
X54806Y48232D02*
D03*
X55200Y53283D02*
D03*
D74*
X22400Y48832D02*
D03*
Y52769D02*
D03*
D75*
X17000Y64000D02*
D03*
D76*
X77039D02*
D03*
Y27819D02*
D03*
X17000D02*
D03*
D77*
X15600Y35200D02*
D03*
Y36200D02*
D03*
Y37200D02*
D03*
Y38200D02*
D03*
Y39200D02*
D03*
Y40200D02*
D03*
Y41200D02*
D03*
D78*
Y42200D02*
D03*
D79*
X50500Y56900D02*
D03*
X51900D02*
D03*
X50400Y58700D02*
D03*
X52000D02*
D03*
X35400D02*
D03*
X37000Y58600D02*
D03*
X42168Y57200D02*
D03*
X43900Y57269D02*
D03*
X41683Y58366D02*
D03*
X38927Y57530D02*
D03*
X33415Y58957D02*
D03*
X34252Y58120D02*
D03*
Y56299D02*
D03*
X34688Y55800D02*
D03*
X35200Y56483D02*
D03*
X35700Y55097D02*
D03*
X36200Y56525D02*
D03*
X38590Y55800D02*
D03*
X37549Y55315D02*
D03*
X38507Y54600D02*
D03*
X36700Y55229D02*
D03*
X39383Y56706D02*
D03*
X39442Y54894D02*
D03*
X41400Y54909D02*
D03*
X42028Y53789D02*
D03*
X43012Y55315D02*
D03*
X44439Y55561D02*
D03*
X44488Y54626D02*
D03*
X46000Y58205D02*
D03*
X46878Y57306D02*
D03*
X45620Y54675D02*
D03*
X44882Y54035D02*
D03*
X47293D02*
D03*
X52559Y53543D02*
D03*
X49000Y52132D02*
D03*
X49163Y55856D02*
D03*
X48228Y58218D02*
D03*
X49065Y57333D02*
D03*
X47293Y55463D02*
D03*
X48228Y54577D02*
D03*
X50197Y55217D02*
D03*
X49768Y53951D02*
D03*
X51476Y55167D02*
D03*
X52215Y55217D02*
D03*
X53367Y54400D02*
D03*
X24100Y59069D02*
D03*
X25100D02*
D03*
X26100D02*
D03*
X27100D02*
D03*
X29100D02*
D03*
X30100D02*
D03*
X31100D02*
D03*
X29100Y55331D02*
D03*
X28100D02*
D03*
X26100D02*
D03*
X25100D02*
D03*
X24100D02*
D03*
X24232Y53162D02*
D03*
X22244Y53691D02*
D03*
X22441Y51968D02*
D03*
Y50394D02*
D03*
X22392Y49557D02*
D03*
X21555Y47835D02*
D03*
X31765Y56326D02*
D03*
X30100Y55333D02*
D03*
D80*
X53200Y47833D02*
D03*
X50532Y50600D02*
D03*
X34301Y47785D02*
D03*
X48466Y52026D02*
D03*
X51862D02*
D03*
X49902Y50000D02*
D03*
X50328Y49918D02*
D03*
X48201Y49339D02*
D03*
X50975Y48720D02*
D03*
X51607Y48786D02*
D03*
X51870Y48720D02*
D03*
X51280D02*
D03*
X46457Y49705D02*
D03*
X46600Y51423D02*
D03*
X49409Y51673D02*
D03*
X47343Y49606D02*
D03*
X35880Y52854D02*
D03*
X34154Y52756D02*
D03*
X36614Y46457D02*
D03*
X36024Y47933D02*
D03*
X30675Y50655D02*
D03*
X30260Y53303D02*
D03*
X27230Y52230D02*
D03*
X27264Y51280D02*
D03*
X28370Y48697D02*
D03*
X29000Y48657D02*
D03*
X56004Y52165D02*
D03*
Y50689D02*
D03*
X55893Y49200D02*
D03*
X36417Y47441D02*
D03*
X27362Y49902D02*
D03*
X27461Y50295D02*
D03*
X33366Y48032D02*
D03*
X27328Y50655D02*
D03*
X49409Y50000D02*
D03*
X49508Y48425D02*
D03*
X27337Y53175D02*
D03*
X33858Y50886D02*
D03*
X29331Y51870D02*
D03*
X29000Y52791D02*
D03*
X34547Y48720D02*
D03*
X36808Y51184D02*
D03*
X50591Y48228D02*
D03*
X51863Y47448D02*
D03*
X50987Y47739D02*
D03*
X24283Y41409D02*
D03*
X24677Y41311D02*
D03*
X25071Y41213D02*
D03*
X25465Y41114D02*
D03*
X25858Y41016D02*
D03*
X26252Y40917D02*
D03*
X27039Y40819D02*
D03*
X27433Y40721D02*
D03*
X27827Y40622D02*
D03*
X28221Y40524D02*
D03*
X28614Y40425D02*
D03*
X22906Y39047D02*
D03*
X23693Y38949D02*
D03*
X24087D02*
D03*
X24480Y38949D02*
D03*
X24874D02*
D03*
X25661Y37528D02*
D03*
X26055Y37528D02*
D03*
X26449D02*
D03*
X26843D02*
D03*
X27236Y37035D02*
D03*
X27630Y36740D02*
D03*
X28417Y36445D02*
D03*
X26646Y40425D02*
D03*
X23890Y40524D02*
D03*
X23496Y40425D02*
D03*
X23299Y37626D02*
D03*
X25268Y37528D02*
D03*
X28024Y37626D02*
D03*
X28811D02*
D03*
X48793Y48819D02*
D03*
X49304Y48813D02*
D03*
X50584Y46143D02*
D03*
X50128Y46081D02*
D03*
X49803Y46100D02*
D03*
X49970Y47399D02*
D03*
X31988Y51143D02*
D03*
X35400Y49475D02*
D03*
X35236Y50984D02*
D03*
X26870Y55315D02*
D03*
X41400Y53285D02*
D03*
X24066Y50050D02*
D03*
M02*
