%FSLAX24Y24*%
%MOIN*%
G70*
G01*
G75*
G04 Layer_Physical_Order=6*
G04 Layer_Color=16711680*
%ADD10R,0.1000X0.1400*%
%ADD11R,0.0300X0.0600*%
%ADD12R,0.0433X0.0394*%
%ADD13R,0.0630X0.0512*%
%ADD14R,0.0945X0.1024*%
%ADD15R,0.0709X0.0630*%
%ADD16R,0.1024X0.0945*%
%ADD17R,0.0630X0.0709*%
%ADD18R,0.0394X0.0433*%
%ADD19R,0.0945X0.0354*%
%ADD20R,0.1083X0.0394*%
%ADD21R,0.0787X0.0551*%
%ADD22C,0.0177*%
%ADD23R,0.0500X0.1449*%
%ADD24R,0.0177X0.0669*%
%ADD25R,0.0177X0.0669*%
%ADD26R,0.0197X0.0748*%
%ADD27R,0.0748X0.0197*%
%ADD28C,0.0300*%
%ADD29C,0.0160*%
%ADD30C,0.0060*%
%ADD31C,0.0110*%
%ADD32C,0.0120*%
%ADD33C,0.0200*%
%ADD34C,0.0100*%
%ADD35C,0.0669*%
%ADD36C,0.0433*%
%ADD37C,0.1339*%
%ADD38C,0.1339*%
%ADD39C,0.0591*%
%ADD40R,0.0591X0.0591*%
%ADD41C,0.0400*%
%ADD42C,0.0200*%
%ADD43R,0.0512X0.1339*%
%ADD44R,0.0276X0.0787*%
%ADD45R,0.0354X0.0276*%
%ADD46R,0.0276X0.0354*%
G36*
X46850Y57564D02*
X46810Y57559D01*
X46746Y57533D01*
X46692Y57491D01*
X46650Y57437D01*
X46624Y57373D01*
X46615Y57306D01*
X46624Y57238D01*
X46650Y57174D01*
X46692Y57120D01*
X46746Y57078D01*
X46810Y57052D01*
X46850Y57047D01*
Y44882D01*
X38681D01*
Y46667D01*
X38720Y46699D01*
X38780Y46687D01*
X38842Y46700D01*
X38895Y46735D01*
X38930Y46788D01*
X38943Y46850D01*
X38930Y46913D01*
X38895Y46966D01*
X38842Y47001D01*
X38780Y47014D01*
X38720Y47002D01*
X38681Y47033D01*
Y47558D01*
X38729Y47573D01*
X38763Y47522D01*
X38816Y47487D01*
X38878Y47475D01*
X38940Y47487D01*
X38993Y47522D01*
X39029Y47575D01*
X39041Y47638D01*
X39029Y47700D01*
X38993Y47753D01*
X38940Y47789D01*
X38878Y47801D01*
X38816Y47789D01*
X38763Y47753D01*
X38729Y47703D01*
X38681Y47717D01*
Y49578D01*
X38698Y49589D01*
X38733Y49642D01*
X38746Y49705D01*
X38733Y49767D01*
X38698Y49820D01*
X38681Y49831D01*
Y54405D01*
X38693Y54415D01*
X38735Y54469D01*
X38761Y54532D01*
X38770Y54600D01*
X38761Y54668D01*
X38735Y54731D01*
X38693Y54785D01*
X38681Y54795D01*
Y55556D01*
X38721Y55573D01*
X38775Y55615D01*
X38817Y55669D01*
X38843Y55732D01*
X38852Y55800D01*
X38843Y55868D01*
X38817Y55931D01*
X38775Y55985D01*
X38721Y56027D01*
X38681Y56044D01*
Y57302D01*
X38685Y57310D01*
X38685Y57312D01*
X38686Y57313D01*
X38690Y57321D01*
X38710Y57339D01*
X38718Y57341D01*
X38720Y57343D01*
X38722Y57343D01*
X38729Y57345D01*
X38733Y57343D01*
X38741Y57342D01*
X38747Y57337D01*
X38752Y57336D01*
X38796Y57302D01*
X38804Y57299D01*
X38804Y57299D01*
X38817Y57294D01*
X38817Y57294D01*
X38851Y57279D01*
X38851D01*
X38859Y57276D01*
X38868Y57275D01*
X38868Y57275D01*
X38868D01*
X38868Y57275D01*
X38919Y57268D01*
D01*
X38927Y57267D01*
X38936Y57268D01*
X38936D01*
X38961Y57272D01*
X38980Y57274D01*
X38987Y57275D01*
X38987Y57275D01*
D01*
X38987Y57275D01*
X38987D01*
Y57275D01*
D01*
D01*
D01*
X38995Y57276D01*
X39003Y57279D01*
X39003D01*
X39027Y57289D01*
X39027D01*
X39050Y57299D01*
X39050Y57299D01*
X39058Y57302D01*
X39065Y57308D01*
X39065D01*
X39106Y57339D01*
Y57339D01*
X39113Y57344D01*
X39118Y57351D01*
X39118Y57351D01*
X39142Y57383D01*
X39147Y57389D01*
X39154Y57398D01*
X39158Y57406D01*
X39158Y57406D01*
X39163Y57420D01*
X39163D01*
D01*
D01*
D01*
D01*
D01*
D01*
D01*
D01*
D01*
D01*
D01*
D01*
D01*
D01*
X39163D01*
D01*
X39163D01*
D01*
D01*
D01*
D01*
D01*
D01*
Y57420D01*
D01*
D01*
D01*
D01*
X39177Y57454D01*
D01*
Y57454D01*
D01*
D01*
D01*
D01*
D01*
D01*
D01*
D01*
D01*
D01*
X39177D01*
X39180Y57462D01*
X39182Y57470D01*
X39182Y57470D01*
Y57470D01*
X39182Y57470D01*
X39188Y57521D01*
D01*
D01*
D01*
D01*
D01*
X39188D01*
D01*
D01*
D01*
D01*
D01*
D01*
D01*
D01*
D01*
D01*
D01*
D01*
D01*
Y57521D01*
D01*
D01*
D01*
Y57521D01*
D01*
Y57521D01*
Y57521D01*
Y57521D01*
D01*
Y57521D01*
D01*
D01*
D01*
D01*
D01*
D01*
Y57521D01*
X39189Y57530D01*
X39188Y57538D01*
X39188D01*
Y57538D01*
Y57538D01*
D01*
X39188Y57538D01*
D01*
D01*
D01*
D01*
D01*
D01*
D01*
D01*
D01*
X39186Y57555D01*
X39186Y57555D01*
D01*
D01*
D01*
D01*
D01*
X39186Y57555D01*
X39186Y57555D01*
X39185Y57562D01*
X39185Y57563D01*
D01*
D01*
X39185D01*
D01*
D01*
D01*
D01*
D01*
D01*
D01*
D01*
Y57563D01*
D01*
D01*
D01*
D01*
D01*
D01*
D01*
D01*
Y57563D01*
D01*
D01*
D01*
D01*
D01*
D01*
D01*
D01*
D01*
D01*
D01*
D01*
D01*
Y57563D01*
X39185Y57563D01*
D01*
D01*
D01*
D01*
D01*
D01*
Y57563D01*
X39185Y57563D01*
D01*
D01*
Y57563D01*
Y57563D01*
Y57563D01*
X39185Y57563D01*
X39182Y57589D01*
X39182Y57589D01*
D01*
D01*
X39182D01*
D01*
D01*
D01*
D01*
Y57589D01*
D01*
D01*
D01*
D01*
D01*
D01*
D01*
X39182Y57589D01*
X39180Y57597D01*
X39179Y57600D01*
X39179Y57600D01*
X39176Y57608D01*
X39176Y57608D01*
X39176Y57608D01*
D01*
D01*
D01*
D01*
D01*
D01*
D01*
X39173Y57615D01*
X39172Y57618D01*
X39154Y57661D01*
D01*
D01*
D01*
Y57661D01*
D01*
X39154Y57661D01*
D01*
D01*
D01*
D01*
D01*
D01*
D01*
D01*
D01*
D01*
D01*
X39154Y57661D01*
D01*
X39113Y57715D01*
X39058Y57757D01*
X39050Y57760D01*
X39050Y57760D01*
X39037Y57766D01*
X39037Y57766D01*
X39003Y57780D01*
X39003Y57780D01*
X39003Y57780D01*
X38995Y57783D01*
X38987Y57784D01*
X38987Y57784D01*
X38987D01*
X38987Y57784D01*
X38936Y57791D01*
X38936Y57791D01*
X38936Y57791D01*
X38927Y57792D01*
X38919Y57791D01*
X38919Y57791D01*
X38878Y57785D01*
X38872Y57784D01*
X38859Y57783D01*
X38796Y57757D01*
X38789Y57751D01*
D01*
X38749Y57720D01*
X38749Y57720D01*
X38743Y57716D01*
X38731Y57715D01*
X38729Y57714D01*
X38722Y57716D01*
X38720Y57716D01*
X38718Y57718D01*
X38710Y57720D01*
X38690Y57738D01*
X38686Y57746D01*
X38685Y57747D01*
X38685Y57749D01*
X38681Y57757D01*
Y59436D01*
X38684Y59437D01*
X38693Y59446D01*
X38694Y59449D01*
X38694Y59449D01*
X46850D01*
Y57564D01*
D02*
G37*
G36*
X39469Y59514D02*
X38694D01*
X38682Y59509D01*
X38669Y59509D01*
X38669Y59509D01*
X38660Y59500D01*
X38648Y59495D01*
X38647Y59492D01*
X38647Y59492D01*
X38638Y59483D01*
X38638Y59483D01*
X38635Y59482D01*
X38630Y59470D01*
X38621Y59461D01*
X38621Y59448D01*
X38616Y59436D01*
Y57757D01*
X38620Y57748D01*
X38620Y57747D01*
X38620Y57747D01*
X38620Y57746D01*
X38620Y57744D01*
X38622Y57740D01*
X38623Y57729D01*
X38626Y57721D01*
X38630Y57713D01*
X38637Y57705D01*
X38639Y57702D01*
X38640Y57700D01*
X38641Y57700D01*
X38642Y57699D01*
X38642Y57699D01*
X38646Y57690D01*
X38667Y57672D01*
X38676Y57668D01*
X38676Y57668D01*
X38677Y57668D01*
X38678Y57667D01*
X38679Y57666D01*
X38683Y57664D01*
X38692Y57658D01*
X38700Y57655D01*
X38700D01*
D01*
X38708Y57652D01*
X38710Y57653D01*
X38711Y57651D01*
X38721Y57652D01*
X38723Y57652D01*
X38725Y57652D01*
X38726Y57652D01*
X38727Y57652D01*
X38729Y57653D01*
X38738Y57650D01*
X38750Y57652D01*
X38757Y57655D01*
X38757Y57655D01*
X38758Y57656D01*
X38760Y57657D01*
X38761Y57657D01*
X38762Y57658D01*
X38762Y57658D01*
X38765Y57657D01*
X38770Y57661D01*
X38783Y57665D01*
X38788Y57669D01*
X38829Y57700D01*
X38876Y57720D01*
X38880Y57720D01*
X38880Y57720D01*
X38887Y57721D01*
X38927Y57726D01*
X38927Y57726D01*
X38927Y57726D01*
X38927Y57726D01*
X38978Y57720D01*
X38978D01*
X38978D01*
D01*
X38978Y57720D01*
X38978D01*
X39012Y57706D01*
X39012Y57706D01*
X39026Y57700D01*
D01*
X39066Y57669D01*
X39098Y57628D01*
X39112Y57593D01*
X39112Y57593D01*
D01*
X39113Y57590D01*
Y57590D01*
X39116Y57583D01*
Y57583D01*
D01*
X39116Y57583D01*
X39116Y57583D01*
Y57583D01*
X39116Y57583D01*
X39116Y57583D01*
Y57583D01*
X39117Y57580D01*
X39117Y57580D01*
X39121Y57555D01*
X39121Y57555D01*
X39121Y57555D01*
X39121Y57554D01*
X39121Y57554D01*
X39121Y57554D01*
X39122Y57547D01*
D01*
Y57547D01*
X39122Y57547D01*
X39122Y57546D01*
X39122Y57546D01*
X39122Y57546D01*
X39124Y57530D01*
X39124Y57530D01*
Y57530D01*
X39124Y57530D01*
X39117Y57479D01*
Y57479D01*
X39117Y57479D01*
X39117Y57479D01*
X39103Y57445D01*
X39103Y57445D01*
X39098Y57431D01*
X39096Y57429D01*
X39096Y57429D01*
X39091Y57422D01*
X39091Y57422D01*
X39066Y57390D01*
X39066Y57390D01*
X39066Y57390D01*
X39026Y57359D01*
X39026D01*
X39026Y57359D01*
X39002Y57349D01*
X39002D01*
X38978Y57339D01*
X38978D01*
X38978D01*
X38978D01*
X38972Y57339D01*
D01*
X38972D01*
X38953Y57336D01*
X38927Y57333D01*
X38927Y57333D01*
X38927Y57333D01*
X38927Y57333D01*
X38876Y57339D01*
D01*
D01*
D01*
D01*
D01*
D01*
D01*
D01*
D01*
D01*
Y57339D01*
D01*
D01*
D01*
D01*
D01*
X38876D01*
D01*
D01*
D01*
X38876Y57339D01*
X38876D01*
X38876D01*
X38876Y57339D01*
D01*
Y57339D01*
Y57339D01*
D01*
D01*
Y57339D01*
Y57339D01*
Y57339D01*
D01*
D01*
D01*
Y57339D01*
X38842Y57354D01*
X38842D01*
X38842Y57354D01*
X38829Y57359D01*
X38792Y57388D01*
X38787Y57389D01*
X38781Y57394D01*
X38773Y57396D01*
X38769Y57399D01*
X38764Y57400D01*
D01*
D01*
D01*
D01*
D01*
D01*
D01*
D01*
D01*
D01*
D01*
D01*
D01*
D01*
X38764D01*
D01*
X38764Y57400D01*
X38764D01*
D01*
D01*
D01*
D01*
D01*
D01*
D01*
D01*
D01*
D01*
D01*
Y57400D01*
X38764D01*
D01*
D01*
X38764D01*
D01*
D01*
D01*
D01*
D01*
D01*
D01*
Y57400D01*
X38764D01*
D01*
D01*
D01*
X38764D01*
D01*
D01*
D01*
D01*
D01*
D01*
D01*
D01*
D01*
Y57400D01*
D01*
X38761Y57402D01*
X38759Y57402D01*
X38757Y57404D01*
X38753Y57404D01*
X38748Y57407D01*
X38740Y57408D01*
X38735Y57406D01*
X38733Y57407D01*
X38730Y57406D01*
X38730Y57406D01*
X38727Y57407D01*
X38726Y57407D01*
X38725Y57407D01*
X38723Y57408D01*
X38721Y57407D01*
X38711Y57408D01*
X38710Y57406D01*
X38708Y57407D01*
X38700Y57404D01*
X38700D01*
X38692Y57401D01*
X38683Y57395D01*
X38679Y57393D01*
X38678Y57392D01*
X38677Y57391D01*
X38676Y57391D01*
X38676Y57391D01*
X38667Y57387D01*
X38646Y57369D01*
X38642Y57360D01*
X38642Y57360D01*
X38641Y57359D01*
X38640Y57359D01*
X38639Y57358D01*
X38637Y57354D01*
X38630Y57346D01*
X38626Y57338D01*
D01*
X38623Y57330D01*
X38622Y57319D01*
X38620Y57315D01*
X38620Y57313D01*
X38620Y57312D01*
X38620Y57312D01*
X38620Y57311D01*
X38616Y57302D01*
Y56085D01*
X38590Y56062D01*
X38522Y56053D01*
X38459Y56027D01*
X38404Y55985D01*
X38372Y55943D01*
X38176D01*
Y55998D01*
X37701D01*
D01*
D01*
X37701Y55998D01*
X37664D01*
Y55998D01*
X37189D01*
Y55602D01*
X37205D01*
Y55516D01*
X37205Y55516D01*
X37216Y55462D01*
X37247Y55415D01*
X37294Y55368D01*
X37287Y55315D01*
X37296Y55247D01*
X37322Y55184D01*
X37364Y55130D01*
X37418Y55088D01*
X37481Y55062D01*
X37549Y55053D01*
X37617Y55062D01*
X37680Y55088D01*
X37735Y55130D01*
X37776Y55184D01*
X37803Y55247D01*
X37811Y55315D01*
X37803Y55383D01*
X37776Y55446D01*
X37735Y55500D01*
X37680Y55542D01*
X37617Y55568D01*
X37549Y55577D01*
X37574Y55602D01*
X37664D01*
Y55602D01*
X37664D01*
X37664Y55602D01*
X37701D01*
Y55602D01*
X38176D01*
Y55657D01*
X38372D01*
X38404Y55615D01*
X38459Y55573D01*
X38522Y55547D01*
X38590Y55538D01*
X38616Y55515D01*
Y54881D01*
X38575Y54853D01*
X38507Y54862D01*
X38440Y54853D01*
X38376Y54827D01*
X38322Y54785D01*
X38280Y54731D01*
X38254Y54668D01*
X38245Y54600D01*
X38254Y54532D01*
X38280Y54469D01*
X38322Y54415D01*
X38376Y54373D01*
X38440Y54347D01*
X38507Y54338D01*
X38575Y54347D01*
X38616Y54319D01*
Y53642D01*
X38484D01*
Y49831D01*
X38467Y49820D01*
X38432Y49767D01*
X38420Y49705D01*
X38432Y49642D01*
X38467Y49589D01*
X38484Y49578D01*
Y47244D01*
X36497D01*
X36482Y47292D01*
X36533Y47326D01*
X36568Y47379D01*
X36580Y47441D01*
X36568Y47503D01*
X36533Y47556D01*
X36480Y47592D01*
X36417Y47604D01*
X36355Y47592D01*
X36302Y47556D01*
X36267Y47503D01*
X36254Y47441D01*
X36267Y47379D01*
X36302Y47326D01*
X36352Y47292D01*
X36338Y47244D01*
X25591D01*
Y60236D01*
X39469D01*
Y59514D01*
D02*
G37*
%LPC*%
G36*
X45139Y50612D02*
X44625D01*
Y50059D01*
X44702D01*
X44721Y50013D01*
X44673Y49964D01*
X44623Y49954D01*
X44570Y49918D01*
X44534Y49866D01*
X44522Y49803D01*
X44534Y49741D01*
X44570Y49688D01*
X44623Y49652D01*
X44681Y49641D01*
X44690Y49611D01*
X44664Y49568D01*
X44623Y49560D01*
X44570Y49525D01*
X44534Y49472D01*
X44522Y49409D01*
X44534Y49347D01*
X44570Y49294D01*
X44623Y49259D01*
X44685Y49246D01*
X44747Y49259D01*
X44800Y49294D01*
X44833Y49343D01*
X44881Y49329D01*
Y49311D01*
X44881D01*
Y49124D01*
X45277D01*
Y49311D01*
D01*
Y49311D01*
X45277Y49311D01*
Y49349D01*
X45277D01*
Y49823D01*
X44943D01*
X44924Y49869D01*
X44968Y49913D01*
X44995Y49953D01*
X45004Y50000D01*
Y50059D01*
X45139D01*
Y50612D01*
D02*
G37*
G36*
X44291Y49179D02*
X44229Y49166D01*
X44176Y49131D01*
X44141Y49078D01*
X44128Y49016D01*
X44141Y48953D01*
X44176Y48900D01*
X44229Y48865D01*
X44291Y48853D01*
X44354Y48865D01*
X44407Y48900D01*
X44442Y48953D01*
X44454Y49016D01*
X44442Y49078D01*
X44407Y49131D01*
X44354Y49166D01*
X44291Y49179D01*
D02*
G37*
G36*
X39083Y49214D02*
X38896D01*
Y49066D01*
X39083D01*
Y49214D01*
D02*
G37*
G36*
X46457Y49868D02*
X46394Y49855D01*
X46341Y49820D01*
X46306Y49767D01*
X46294Y49705D01*
X46306Y49642D01*
X46341Y49589D01*
X46394Y49554D01*
X46457Y49542D01*
X46519Y49554D01*
X46572Y49589D01*
X46607Y49642D01*
X46620Y49705D01*
X46607Y49767D01*
X46572Y49820D01*
X46519Y49855D01*
X46457Y49868D01*
D02*
G37*
G36*
X41535Y49966D02*
X41473Y49954D01*
X41420Y49918D01*
X41385Y49866D01*
X41372Y49803D01*
X41385Y49741D01*
X41420Y49688D01*
X41473Y49652D01*
X41498Y49648D01*
X41493Y49598D01*
X41336D01*
D01*
D01*
X41336Y49598D01*
X41299D01*
Y49598D01*
X41185D01*
X41180Y49648D01*
X41204Y49652D01*
X41257Y49688D01*
X41292Y49741D01*
X41305Y49803D01*
X41292Y49866D01*
X41257Y49918D01*
X41204Y49954D01*
X41142Y49966D01*
X41079Y49954D01*
X41026Y49918D01*
X40991Y49866D01*
X40979Y49803D01*
X40991Y49741D01*
X41026Y49688D01*
X41079Y49652D01*
X41104Y49648D01*
X41099Y49598D01*
X40824D01*
Y49203D01*
X40786Y49171D01*
X40748Y49179D01*
X40686Y49166D01*
X40633Y49131D01*
X40597Y49078D01*
X40585Y49016D01*
X40597Y48953D01*
X40633Y48900D01*
X40686Y48865D01*
X40748Y48853D01*
X40810Y48865D01*
X40863Y48900D01*
X40899Y48953D01*
X40911Y49016D01*
X40911Y49017D01*
X40957Y49036D01*
X40975Y49009D01*
X40981Y49003D01*
X40991Y48953D01*
X41026Y48900D01*
X41079Y48865D01*
X41142Y48853D01*
X41204Y48865D01*
X41257Y48900D01*
X41292Y48953D01*
X41305Y49016D01*
X41292Y49078D01*
X41257Y49131D01*
X41204Y49166D01*
X41184Y49170D01*
Y49202D01*
X41299D01*
D01*
Y49202D01*
X41299D01*
X41299Y49202D01*
X41336D01*
Y49202D01*
X41440D01*
X41455Y49154D01*
X41420Y49131D01*
X41385Y49078D01*
X41372Y49016D01*
X41385Y48953D01*
X41420Y48900D01*
X41473Y48865D01*
X41535Y48853D01*
X41598Y48865D01*
X41651Y48900D01*
X41686Y48953D01*
X41699Y49016D01*
X41686Y49078D01*
X41651Y49131D01*
X41616Y49154D01*
X41631Y49202D01*
X41783D01*
X41807Y49179D01*
Y49121D01*
X41778Y49078D01*
X41766Y49016D01*
X41778Y48953D01*
X41814Y48900D01*
X41867Y48865D01*
X41929Y48853D01*
X41992Y48865D01*
X42044Y48900D01*
X42080Y48953D01*
X42092Y49016D01*
X42080Y49078D01*
X42051Y49121D01*
Y49230D01*
X42042Y49276D01*
X42016Y49316D01*
X41845Y49487D01*
X41811Y49510D01*
Y49598D01*
X41578D01*
X41573Y49648D01*
X41598Y49652D01*
X41651Y49688D01*
X41686Y49741D01*
X41699Y49803D01*
X41686Y49866D01*
X41651Y49918D01*
X41598Y49954D01*
X41535Y49966D01*
D02*
G37*
G36*
X35657Y50259D02*
X35143D01*
Y49706D01*
X35278D01*
Y49580D01*
X35249Y49537D01*
X35237Y49475D01*
X35249Y49412D01*
X35285Y49359D01*
X35338Y49324D01*
X35400Y49312D01*
X35462Y49324D01*
X35515Y49359D01*
X35551Y49412D01*
X35563Y49475D01*
X35551Y49537D01*
X35522Y49580D01*
Y49706D01*
X35657D01*
Y50259D01*
D02*
G37*
G36*
X40354Y49573D02*
X40292Y49560D01*
X40239Y49525D01*
X40204Y49472D01*
X40192Y49413D01*
X40163Y49405D01*
X40120Y49430D01*
X40111Y49472D01*
X40076Y49525D01*
X40023Y49560D01*
X39961Y49573D01*
X39898Y49560D01*
X39845Y49525D01*
X39810Y49472D01*
X39797Y49409D01*
X39810Y49347D01*
X39845Y49294D01*
X39894Y49261D01*
X39894Y49260D01*
X39894D01*
X39894Y49260D01*
D01*
X39893Y49259D01*
X39880Y49214D01*
D01*
D01*
X39880Y49214D01*
X39689D01*
Y49305D01*
X39718Y49347D01*
X39730Y49409D01*
X39718Y49472D01*
X39682Y49525D01*
X39629Y49560D01*
X39567Y49573D01*
X39504Y49560D01*
X39452Y49525D01*
X39416Y49472D01*
X39404Y49409D01*
X39416Y49347D01*
X39445Y49305D01*
Y49214D01*
X39408Y49214D01*
D01*
X39370D01*
Y49214D01*
X39183D01*
Y49016D01*
Y48818D01*
X39370D01*
D01*
Y48818D01*
X39370D01*
X39370Y48818D01*
X39408D01*
Y48818D01*
X39882D01*
Y49213D01*
X39882D01*
Y49214D01*
D01*
D01*
X39882D01*
Y49214D01*
D01*
X39888Y49230D01*
X39927Y49253D01*
X39948Y49249D01*
X39999Y49198D01*
Y48699D01*
X40513D01*
Y49252D01*
X40498D01*
X40483Y49273D01*
X40471Y49296D01*
X40505Y49347D01*
X40517Y49409D01*
X40505Y49472D01*
X40470Y49525D01*
X40417Y49560D01*
X40354Y49573D01*
D02*
G37*
G36*
X43898Y49179D02*
X43835Y49166D01*
X43782Y49131D01*
X43747Y49078D01*
X43734Y49016D01*
X43747Y48953D01*
X43782Y48900D01*
X43835Y48865D01*
X43898Y48853D01*
X43960Y48865D01*
X44013Y48900D01*
X44048Y48953D01*
X44061Y49016D01*
X44048Y49078D01*
X44013Y49131D01*
X43960Y49166D01*
X43898Y49179D01*
D02*
G37*
G36*
X44685Y48785D02*
X44623Y48773D01*
X44570Y48737D01*
X44534Y48684D01*
X44522Y48622D01*
X44534Y48560D01*
X44570Y48507D01*
X44623Y48471D01*
X44685Y48459D01*
X44747Y48471D01*
X44800Y48507D01*
X44836Y48560D01*
X44848Y48622D01*
X44836Y48684D01*
X44800Y48737D01*
X44747Y48773D01*
X44685Y48785D01*
D02*
G37*
G36*
X29000Y48821D02*
X28938Y48808D01*
X28885Y48773D01*
X28849Y48720D01*
X28837Y48657D01*
X28849Y48595D01*
X28885Y48542D01*
X28938Y48507D01*
X29000Y48494D01*
X29062Y48507D01*
X29115Y48542D01*
X29151Y48595D01*
X29163Y48657D01*
X29151Y48720D01*
X29115Y48773D01*
X29062Y48808D01*
X29000Y48821D01*
D02*
G37*
G36*
X43504Y48785D02*
X43442Y48773D01*
X43389Y48737D01*
X43353Y48684D01*
X43341Y48622D01*
X43353Y48560D01*
X43389Y48507D01*
X43442Y48471D01*
X43504Y48459D01*
X43566Y48471D01*
X43619Y48507D01*
X43655Y48560D01*
X43667Y48622D01*
X43655Y48684D01*
X43619Y48737D01*
X43566Y48773D01*
X43504Y48785D01*
D02*
G37*
G36*
X43898D02*
X43835Y48773D01*
X43782Y48737D01*
X43747Y48684D01*
X43734Y48622D01*
X43747Y48560D01*
X43782Y48507D01*
X43835Y48471D01*
X43898Y48459D01*
X43960Y48471D01*
X44013Y48507D01*
X44048Y48560D01*
X44061Y48622D01*
X44048Y48684D01*
X44013Y48737D01*
X43960Y48773D01*
X43898Y48785D01*
D02*
G37*
G36*
X45029Y49024D02*
X44881D01*
Y48837D01*
X45029D01*
Y49024D01*
D02*
G37*
G36*
X45277D02*
X45129D01*
Y48837D01*
X45277D01*
Y49024D01*
D02*
G37*
G36*
X34547Y48884D02*
X34485Y48871D01*
X34432Y48836D01*
X34397Y48783D01*
X34384Y48720D01*
X34397Y48658D01*
X34432Y48605D01*
X34485Y48570D01*
X34547Y48557D01*
X34610Y48570D01*
X34663Y48605D01*
X34698Y48658D01*
X34710Y48720D01*
X34698Y48783D01*
X34663Y48836D01*
X34610Y48871D01*
X34547Y48884D01*
D02*
G37*
G36*
X39083Y48966D02*
X38896D01*
Y48818D01*
X39083D01*
Y48966D01*
D02*
G37*
G36*
X43110Y49966D02*
X43048Y49954D01*
X42995Y49918D01*
X42960Y49866D01*
X42947Y49803D01*
X42960Y49741D01*
X42995Y49688D01*
X43044Y49655D01*
X43029Y49607D01*
X42826D01*
X42790Y49633D01*
X42784Y49652D01*
X42783Y49654D01*
D01*
X42783Y49654D01*
X42783D01*
X42783Y49655D01*
X42832Y49688D01*
X42867Y49741D01*
X42880Y49803D01*
X42867Y49866D01*
X42832Y49918D01*
X42779Y49954D01*
X42717Y49966D01*
X42654Y49954D01*
X42601Y49918D01*
X42566Y49866D01*
X42553Y49803D01*
X42566Y49741D01*
X42601Y49688D01*
X42654Y49652D01*
X42717Y49640D01*
X42750Y49647D01*
X42789Y49623D01*
X42793Y49613D01*
X42795Y49607D01*
X42795D01*
D01*
D01*
D01*
Y49606D01*
X42795D01*
Y49212D01*
X42795D01*
X42779Y49166D01*
X42717Y49179D01*
X42654Y49166D01*
X42601Y49131D01*
X42566Y49078D01*
X42553Y49016D01*
X42566Y48953D01*
X42601Y48900D01*
X42654Y48865D01*
X42717Y48853D01*
X42779Y48865D01*
X42832Y48900D01*
X42867Y48953D01*
X42880Y49016D01*
X42879Y49019D01*
X42925Y49038D01*
X42946Y49007D01*
X42950Y49003D01*
X42960Y48953D01*
X42995Y48900D01*
X43048Y48865D01*
X43110Y48853D01*
X43173Y48865D01*
X43226Y48900D01*
X43261Y48953D01*
X43273Y49016D01*
X43261Y49078D01*
X43226Y49131D01*
X43173Y49166D01*
X43154Y49170D01*
Y49212D01*
X43269D01*
D01*
Y49212D01*
X43269D01*
X43269Y49212D01*
X43307D01*
Y49212D01*
X43422D01*
Y49153D01*
X43389Y49131D01*
X43353Y49078D01*
X43341Y49016D01*
X43353Y48953D01*
X43389Y48900D01*
X43442Y48865D01*
X43504Y48853D01*
X43566Y48865D01*
X43619Y48900D01*
X43655Y48953D01*
X43667Y49016D01*
X43663Y49038D01*
X43666Y49056D01*
Y49212D01*
X43781D01*
Y49607D01*
X43307D01*
D01*
D01*
X43307Y49607D01*
X43269D01*
Y49607D01*
X43191D01*
X43177Y49655D01*
X43226Y49688D01*
X43261Y49741D01*
X43273Y49803D01*
X43261Y49866D01*
X43226Y49918D01*
X43173Y49954D01*
X43110Y49966D01*
D02*
G37*
G36*
X40099Y50946D02*
X39546D01*
Y50432D01*
X40099D01*
Y50567D01*
X40196D01*
X40204Y50528D01*
X40239Y50475D01*
X40292Y50440D01*
X40354Y50427D01*
X40417Y50440D01*
X40470Y50475D01*
X40505Y50528D01*
X40517Y50591D01*
X40505Y50653D01*
X40470Y50706D01*
X40417Y50741D01*
X40367Y50751D01*
X40342Y50775D01*
X40303Y50802D01*
X40256Y50811D01*
X40099D01*
Y50946D01*
D02*
G37*
G36*
X41142Y50754D02*
X41079Y50741D01*
X41026Y50706D01*
X40991Y50653D01*
X40979Y50591D01*
X40991Y50528D01*
X41026Y50475D01*
X41079Y50440D01*
X41142Y50427D01*
X41204Y50440D01*
X41257Y50475D01*
X41292Y50528D01*
X41305Y50591D01*
X41292Y50653D01*
X41257Y50706D01*
X41204Y50741D01*
X41142Y50754D01*
D02*
G37*
G36*
X27461Y50458D02*
X27398Y50446D01*
X27345Y50411D01*
X27310Y50358D01*
X27297Y50295D01*
X27310Y50233D01*
X27345Y50180D01*
X27398Y50145D01*
X27461Y50132D01*
X27523Y50145D01*
X27576Y50180D01*
X27611Y50233D01*
X27624Y50295D01*
X27611Y50358D01*
X27576Y50411D01*
X27523Y50446D01*
X27461Y50458D01*
D02*
G37*
G36*
X35236Y51147D02*
X35174Y51135D01*
X35121Y51100D01*
X35085Y51047D01*
X35073Y50984D01*
X35085Y50922D01*
X35121Y50869D01*
X35143Y50854D01*
Y50376D01*
X35657D01*
Y50929D01*
X35465D01*
X35397Y50997D01*
X35387Y51047D01*
X35352Y51100D01*
X35299Y51135D01*
X35236Y51147D01*
D02*
G37*
G36*
X42717Y50754D02*
X42654Y50741D01*
X42601Y50706D01*
X42566Y50653D01*
X42553Y50591D01*
X42566Y50528D01*
X42601Y50475D01*
X42654Y50440D01*
X42717Y50427D01*
X42779Y50440D01*
X42832Y50475D01*
X42867Y50528D01*
X42880Y50591D01*
X42867Y50653D01*
X42832Y50706D01*
X42779Y50741D01*
X42717Y50754D01*
D02*
G37*
G36*
X43110D02*
X43048Y50741D01*
X42995Y50706D01*
X42960Y50653D01*
X42947Y50591D01*
X42960Y50528D01*
X42995Y50475D01*
X43048Y50440D01*
X43110Y50427D01*
X43173Y50440D01*
X43226Y50475D01*
X43261Y50528D01*
X43273Y50591D01*
X43261Y50653D01*
X43226Y50706D01*
X43173Y50741D01*
X43110Y50754D01*
D02*
G37*
G36*
X41535D02*
X41473Y50741D01*
X41420Y50706D01*
X41385Y50653D01*
X41372Y50591D01*
X41385Y50528D01*
X41420Y50475D01*
X41473Y50440D01*
X41535Y50427D01*
X41598Y50440D01*
X41651Y50475D01*
X41686Y50528D01*
X41699Y50591D01*
X41686Y50653D01*
X41651Y50706D01*
X41598Y50741D01*
X41535Y50754D01*
D02*
G37*
G36*
X41929D02*
X41867Y50741D01*
X41814Y50706D01*
X41778Y50653D01*
X41766Y50591D01*
X41778Y50528D01*
X41814Y50475D01*
X41867Y50440D01*
X41929Y50427D01*
X41992Y50440D01*
X42044Y50475D01*
X42080Y50528D01*
X42092Y50591D01*
X42080Y50653D01*
X42044Y50706D01*
X41992Y50741D01*
X41929Y50754D01*
D02*
G37*
G36*
X27362Y50065D02*
X27300Y50052D01*
X27247Y50017D01*
X27211Y49964D01*
X27199Y49902D01*
X27211Y49839D01*
X27247Y49786D01*
X27300Y49751D01*
X27362Y49738D01*
X27425Y49751D01*
X27478Y49786D01*
X27513Y49839D01*
X27525Y49902D01*
X27513Y49964D01*
X27478Y50017D01*
X27425Y50052D01*
X27362Y50065D01*
D02*
G37*
G36*
X41142Y50360D02*
X41079Y50348D01*
X41026Y50312D01*
X40991Y50259D01*
X40979Y50197D01*
X40991Y50134D01*
X41026Y50082D01*
X41079Y50046D01*
X41142Y50034D01*
X41204Y50046D01*
X41257Y50082D01*
X41292Y50134D01*
X41305Y50197D01*
X41292Y50259D01*
X41257Y50312D01*
X41204Y50348D01*
X41142Y50360D01*
D02*
G37*
G36*
X40748Y49966D02*
X40686Y49954D01*
X40633Y49918D01*
X40597Y49866D01*
X40585Y49803D01*
X40597Y49741D01*
X40633Y49688D01*
X40686Y49652D01*
X40748Y49640D01*
X40810Y49652D01*
X40863Y49688D01*
X40899Y49741D01*
X40911Y49803D01*
X40899Y49866D01*
X40863Y49918D01*
X40810Y49954D01*
X40748Y49966D01*
D02*
G37*
G36*
X41929D02*
X41867Y49954D01*
X41814Y49918D01*
X41778Y49866D01*
X41766Y49803D01*
X41778Y49741D01*
X41814Y49688D01*
X41867Y49652D01*
X41929Y49640D01*
X41992Y49652D01*
X42044Y49688D01*
X42080Y49741D01*
X42092Y49803D01*
X42080Y49866D01*
X42044Y49918D01*
X41992Y49954D01*
X41929Y49966D01*
D02*
G37*
G36*
X42717Y50360D02*
X42654Y50348D01*
X42601Y50312D01*
X42566Y50259D01*
X42553Y50197D01*
X42566Y50134D01*
X42601Y50082D01*
X42654Y50046D01*
X42717Y50034D01*
X42779Y50046D01*
X42832Y50082D01*
X42867Y50134D01*
X42880Y50197D01*
X42867Y50259D01*
X42832Y50312D01*
X42779Y50348D01*
X42717Y50360D01*
D02*
G37*
G36*
X43110D02*
X43048Y50348D01*
X42995Y50312D01*
X42960Y50259D01*
X42947Y50197D01*
X42960Y50134D01*
X42995Y50082D01*
X43048Y50046D01*
X43110Y50034D01*
X43173Y50046D01*
X43226Y50082D01*
X43261Y50134D01*
X43273Y50197D01*
X43261Y50259D01*
X43226Y50312D01*
X43173Y50348D01*
X43110Y50360D01*
D02*
G37*
G36*
X41535D02*
X41473Y50348D01*
X41420Y50312D01*
X41385Y50259D01*
X41372Y50197D01*
X41385Y50134D01*
X41420Y50082D01*
X41473Y50046D01*
X41535Y50034D01*
X41598Y50046D01*
X41651Y50082D01*
X41686Y50134D01*
X41699Y50197D01*
X41686Y50259D01*
X41651Y50312D01*
X41598Y50348D01*
X41535Y50360D01*
D02*
G37*
G36*
X41929D02*
X41867Y50348D01*
X41814Y50312D01*
X41778Y50259D01*
X41766Y50197D01*
X41778Y50134D01*
X41814Y50082D01*
X41867Y50046D01*
X41929Y50034D01*
X41992Y50046D01*
X42044Y50082D01*
X42080Y50134D01*
X42092Y50197D01*
X42080Y50259D01*
X42044Y50312D01*
X41992Y50348D01*
X41929Y50360D01*
D02*
G37*
G36*
X43110Y48785D02*
X43048Y48773D01*
X42995Y48737D01*
X42960Y48684D01*
X42947Y48622D01*
X42960Y48560D01*
X42995Y48507D01*
X43048Y48471D01*
X43110Y48459D01*
X43173Y48471D01*
X43226Y48507D01*
X43261Y48560D01*
X43273Y48622D01*
X43261Y48684D01*
X43226Y48737D01*
X43173Y48773D01*
X43110Y48785D01*
D02*
G37*
G36*
X44291Y47210D02*
X44229Y47198D01*
X44176Y47163D01*
X44141Y47110D01*
X44128Y47047D01*
X44141Y46985D01*
X44176Y46932D01*
X44229Y46897D01*
X44291Y46884D01*
X44354Y46897D01*
X44407Y46932D01*
X44442Y46985D01*
X44454Y47047D01*
X44442Y47110D01*
X44407Y47163D01*
X44354Y47198D01*
X44291Y47210D01*
D02*
G37*
G36*
X41929Y47998D02*
X41867Y47985D01*
X41824Y47957D01*
X41567D01*
X41521Y47948D01*
X41481Y47921D01*
X41313Y47754D01*
X41287Y47714D01*
X41283Y47694D01*
X41143D01*
Y47141D01*
X41657D01*
Y47694D01*
D01*
X41657D01*
Y47694D01*
X41657D01*
X41657D01*
Y47712D01*
X41824D01*
X41867Y47684D01*
X41917Y47674D01*
X42027Y47564D01*
Y47263D01*
D01*
X42027Y47263D01*
Y47263D01*
X42027D01*
X42027D01*
X42027Y47225D01*
X42027D01*
Y46924D01*
X41929Y46827D01*
X41921Y46834D01*
X41882Y46861D01*
X41835Y46870D01*
X41657D01*
Y47024D01*
X41143D01*
Y46471D01*
X41657D01*
Y46626D01*
X41772D01*
X41778Y46591D01*
X41814Y46538D01*
X41867Y46503D01*
X41929Y46490D01*
X41992Y46503D01*
X42044Y46538D01*
X42080Y46591D01*
X42090Y46641D01*
X42200Y46751D01*
X42422D01*
Y47225D01*
D01*
Y47225D01*
X42422Y47225D01*
Y47263D01*
X42422D01*
Y47737D01*
X42200D01*
X42090Y47847D01*
X42080Y47897D01*
X42044Y47950D01*
X41992Y47985D01*
X41929Y47998D01*
D02*
G37*
G36*
X39961Y47210D02*
X39898Y47198D01*
X39845Y47163D01*
X39810Y47110D01*
X39797Y47047D01*
X39810Y46985D01*
X39845Y46932D01*
X39898Y46897D01*
X39961Y46884D01*
X40023Y46897D01*
X40076Y46932D01*
X40111Y46985D01*
X40124Y47047D01*
X40111Y47110D01*
X40076Y47163D01*
X40023Y47198D01*
X39961Y47210D01*
D02*
G37*
G36*
X40354D02*
X40292Y47198D01*
X40239Y47163D01*
X40204Y47110D01*
X40191Y47047D01*
X40204Y46985D01*
X40239Y46932D01*
X40292Y46897D01*
X40354Y46884D01*
X40417Y46897D01*
X40470Y46932D01*
X40505Y46985D01*
X40517Y47047D01*
X40505Y47110D01*
X40470Y47163D01*
X40417Y47198D01*
X40354Y47210D01*
D02*
G37*
G36*
X34301Y47949D02*
X34239Y47936D01*
X34186Y47901D01*
X34150Y47848D01*
X34138Y47785D01*
X34150Y47723D01*
X34186Y47670D01*
X34239Y47635D01*
X34301Y47622D01*
X34364Y47635D01*
X34417Y47670D01*
X34452Y47723D01*
X34464Y47785D01*
X34452Y47848D01*
X34417Y47901D01*
X34364Y47936D01*
X34301Y47949D01*
D02*
G37*
G36*
X40513Y48583D02*
X39999D01*
Y48030D01*
X40134D01*
Y47933D01*
X40143Y47886D01*
X40169Y47847D01*
X40194Y47822D01*
X40204Y47772D01*
X40239Y47719D01*
X40292Y47684D01*
X40354Y47672D01*
X40417Y47684D01*
X40470Y47719D01*
X40505Y47772D01*
X40517Y47835D01*
X40505Y47897D01*
X40470Y47950D01*
X40417Y47985D01*
X40378Y47993D01*
Y48030D01*
X40513D01*
Y48583D01*
D02*
G37*
G36*
X39567Y47604D02*
X39504Y47592D01*
X39452Y47556D01*
X39416Y47503D01*
X39404Y47441D01*
X39416Y47379D01*
X39452Y47326D01*
X39504Y47290D01*
X39567Y47278D01*
X39629Y47290D01*
X39682Y47326D01*
X39718Y47379D01*
X39730Y47441D01*
X39718Y47503D01*
X39682Y47556D01*
X39629Y47592D01*
X39567Y47604D01*
D02*
G37*
G36*
X44291D02*
X44229Y47592D01*
X44176Y47556D01*
X44141Y47503D01*
X44128Y47441D01*
X44141Y47379D01*
X44176Y47326D01*
X44229Y47290D01*
X44291Y47278D01*
X44354Y47290D01*
X44407Y47326D01*
X44442Y47379D01*
X44454Y47441D01*
X44442Y47503D01*
X44407Y47556D01*
X44354Y47592D01*
X44291Y47604D01*
D02*
G37*
G36*
X39173Y46423D02*
X39111Y46411D01*
X39058Y46375D01*
X39023Y46322D01*
X39010Y46260D01*
X39023Y46197D01*
X39058Y46144D01*
X39111Y46109D01*
X39173Y46097D01*
X39236Y46109D01*
X39289Y46144D01*
X39324Y46197D01*
X39336Y46260D01*
X39324Y46322D01*
X39289Y46375D01*
X39236Y46411D01*
X39173Y46423D01*
D02*
G37*
G36*
X45472D02*
X45410Y46411D01*
X45357Y46375D01*
X45322Y46322D01*
X45309Y46260D01*
X45322Y46197D01*
X45357Y46144D01*
X45410Y46109D01*
X45472Y46097D01*
X45535Y46109D01*
X45588Y46144D01*
X45623Y46197D01*
X45636Y46260D01*
X45623Y46322D01*
X45588Y46375D01*
X45535Y46411D01*
X45472Y46423D01*
D02*
G37*
G36*
X40700Y46055D02*
X40552D01*
Y45867D01*
X40700D01*
Y46055D01*
D02*
G37*
G36*
X40948D02*
X40800D01*
Y45867D01*
X40948D01*
Y46055D01*
D02*
G37*
G36*
X44685Y46817D02*
X44623Y46804D01*
X44570Y46769D01*
X44534Y46716D01*
X44522Y46654D01*
X44534Y46591D01*
X44570Y46538D01*
X44623Y46503D01*
X44685Y46490D01*
X44747Y46503D01*
X44800Y46538D01*
X44836Y46591D01*
X44848Y46654D01*
X44836Y46716D01*
X44800Y46769D01*
X44747Y46804D01*
X44685Y46817D01*
D02*
G37*
G36*
X45079D02*
X45016Y46804D01*
X44963Y46769D01*
X44928Y46716D01*
X44916Y46654D01*
X44928Y46591D01*
X44963Y46538D01*
X45016Y46503D01*
X45079Y46490D01*
X45141Y46503D01*
X45194Y46538D01*
X45229Y46591D01*
X45242Y46654D01*
X45229Y46716D01*
X45194Y46769D01*
X45141Y46804D01*
X45079Y46817D01*
D02*
G37*
G36*
X40748Y47210D02*
X40686Y47198D01*
X40633Y47163D01*
X40597Y47110D01*
X40585Y47047D01*
X40597Y46985D01*
X40628Y46939D01*
Y46854D01*
X40552D01*
Y46379D01*
D01*
X40552Y46379D01*
Y46379D01*
X40552D01*
X40552D01*
X40552Y46342D01*
X40552D01*
Y46155D01*
X40948D01*
Y46342D01*
D01*
Y46342D01*
X40948Y46342D01*
Y46379D01*
X40948D01*
Y46854D01*
X40872D01*
Y46945D01*
X40899Y46985D01*
X40911Y47047D01*
X40899Y47110D01*
X40863Y47163D01*
X40810Y47198D01*
X40748Y47210D01*
D02*
G37*
G36*
X39567Y46817D02*
X39504Y46804D01*
X39452Y46769D01*
X39416Y46716D01*
X39404Y46654D01*
X39416Y46591D01*
X39452Y46538D01*
X39504Y46503D01*
X39567Y46490D01*
X39629Y46503D01*
X39682Y46538D01*
X39718Y46591D01*
X39730Y46654D01*
X39718Y46716D01*
X39682Y46769D01*
X39629Y46804D01*
X39567Y46817D01*
D02*
G37*
G36*
X40748Y47998D02*
X40686Y47985D01*
X40633Y47950D01*
X40597Y47897D01*
X40585Y47835D01*
X40597Y47772D01*
X40633Y47719D01*
X40686Y47684D01*
X40748Y47672D01*
X40810Y47684D01*
X40863Y47719D01*
X40899Y47772D01*
X40911Y47835D01*
X40899Y47897D01*
X40863Y47950D01*
X40810Y47985D01*
X40748Y47998D01*
D02*
G37*
G36*
X44291Y48391D02*
X44229Y48379D01*
X44176Y48344D01*
X44141Y48291D01*
X44128Y48228D01*
X44141Y48166D01*
X44176Y48113D01*
X44229Y48078D01*
X44291Y48065D01*
X44354Y48078D01*
X44407Y48113D01*
X44442Y48166D01*
X44454Y48228D01*
X44442Y48291D01*
X44407Y48344D01*
X44354Y48379D01*
X44291Y48391D01*
D02*
G37*
G36*
X44685D02*
X44623Y48379D01*
X44570Y48344D01*
X44534Y48291D01*
X44522Y48228D01*
X44534Y48166D01*
X44570Y48113D01*
X44623Y48078D01*
X44685Y48065D01*
X44747Y48078D01*
X44800Y48113D01*
X44836Y48166D01*
X44848Y48228D01*
X44836Y48291D01*
X44800Y48344D01*
X44747Y48379D01*
X44685Y48391D01*
D02*
G37*
G36*
X43110D02*
X43048Y48379D01*
X42995Y48344D01*
X42960Y48291D01*
X42947Y48228D01*
X42960Y48166D01*
X42995Y48113D01*
X43048Y48078D01*
X43110Y48065D01*
X43173Y48078D01*
X43226Y48113D01*
X43261Y48166D01*
X43273Y48228D01*
X43261Y48291D01*
X43226Y48344D01*
X43173Y48379D01*
X43110Y48391D01*
D02*
G37*
G36*
X43504D02*
X43442Y48379D01*
X43389Y48344D01*
X43353Y48291D01*
X43341Y48228D01*
X43353Y48166D01*
X43389Y48113D01*
X43442Y48078D01*
X43504Y48065D01*
X43566Y48078D01*
X43619Y48113D01*
X43655Y48166D01*
X43667Y48228D01*
X43655Y48291D01*
X43619Y48344D01*
X43566Y48379D01*
X43504Y48391D01*
D02*
G37*
G36*
X41535Y48785D02*
X41473Y48773D01*
X41420Y48737D01*
X41385Y48684D01*
X41372Y48622D01*
X41385Y48560D01*
X41420Y48507D01*
X41473Y48471D01*
X41535Y48459D01*
X41598Y48471D01*
X41651Y48507D01*
X41686Y48560D01*
X41699Y48622D01*
X41686Y48684D01*
X41651Y48737D01*
X41598Y48773D01*
X41535Y48785D01*
D02*
G37*
G36*
X42521Y48918D02*
X42125D01*
Y48803D01*
X41988D01*
X41941Y48794D01*
X41927Y48785D01*
X41867Y48773D01*
X41814Y48737D01*
X41778Y48684D01*
X41766Y48622D01*
X41778Y48560D01*
X41814Y48507D01*
X41867Y48471D01*
X41929Y48459D01*
X41992Y48471D01*
X42044Y48507D01*
X42077Y48556D01*
X42125Y48541D01*
Y48444D01*
D01*
X42125Y48444D01*
Y48444D01*
X42125D01*
X42125D01*
X42125Y48406D01*
X42125D01*
Y48309D01*
X42077Y48295D01*
X42044Y48344D01*
X41992Y48379D01*
X41929Y48391D01*
X41867Y48379D01*
X41814Y48344D01*
X41778Y48291D01*
X41766Y48228D01*
X41778Y48166D01*
X41814Y48113D01*
X41867Y48078D01*
X41929Y48065D01*
X41992Y48078D01*
X42044Y48113D01*
X42077Y48162D01*
X42125Y48147D01*
Y47932D01*
X42521D01*
Y48047D01*
X42657D01*
X42704Y48056D01*
X42718Y48066D01*
X42779Y48078D01*
X42832Y48113D01*
X42867Y48166D01*
X42880Y48228D01*
X42867Y48291D01*
X42832Y48344D01*
X42779Y48379D01*
X42717Y48391D01*
X42654Y48379D01*
X42601Y48344D01*
X42568Y48295D01*
X42521Y48309D01*
Y48406D01*
D01*
Y48406D01*
X42521Y48406D01*
Y48444D01*
X42521D01*
Y48541D01*
X42568Y48556D01*
X42601Y48507D01*
X42654Y48471D01*
X42717Y48459D01*
X42779Y48471D01*
X42832Y48507D01*
X42867Y48560D01*
X42880Y48622D01*
X42867Y48684D01*
X42832Y48737D01*
X42779Y48773D01*
X42717Y48785D01*
X42654Y48773D01*
X42601Y48737D01*
X42568Y48688D01*
X42521Y48703D01*
Y48918D01*
D02*
G37*
G36*
X40748Y48785D02*
X40686Y48773D01*
X40633Y48737D01*
X40597Y48684D01*
X40585Y48622D01*
X40597Y48560D01*
X40633Y48507D01*
X40686Y48471D01*
X40748Y48459D01*
X40810Y48471D01*
X40863Y48507D01*
X40899Y48560D01*
X40911Y48622D01*
X40899Y48684D01*
X40863Y48737D01*
X40810Y48773D01*
X40748Y48785D01*
D02*
G37*
G36*
X41142D02*
X41079Y48773D01*
X41026Y48737D01*
X40991Y48684D01*
X40979Y48622D01*
X40991Y48560D01*
X41026Y48507D01*
X41079Y48471D01*
X41142Y48459D01*
X41204Y48471D01*
X41257Y48507D01*
X41292Y48560D01*
X41305Y48622D01*
X41292Y48684D01*
X41257Y48737D01*
X41204Y48773D01*
X41142Y48785D01*
D02*
G37*
G36*
X44291Y47998D02*
X44229Y47985D01*
X44176Y47950D01*
X44141Y47897D01*
X44128Y47835D01*
X44141Y47772D01*
X44176Y47719D01*
X44229Y47684D01*
X44291Y47672D01*
X44354Y47684D01*
X44407Y47719D01*
X44442Y47772D01*
X44454Y47835D01*
X44442Y47897D01*
X44407Y47950D01*
X44354Y47985D01*
X44291Y47998D01*
D02*
G37*
G36*
X44685D02*
X44623Y47985D01*
X44570Y47950D01*
X44534Y47897D01*
X44522Y47835D01*
X44534Y47772D01*
X44570Y47719D01*
X44623Y47684D01*
X44685Y47672D01*
X44747Y47684D01*
X44800Y47719D01*
X44836Y47772D01*
X44848Y47835D01*
X44836Y47897D01*
X44800Y47950D01*
X44747Y47985D01*
X44685Y47998D01*
D02*
G37*
G36*
X42717D02*
X42654Y47985D01*
X42601Y47950D01*
X42566Y47897D01*
X42553Y47835D01*
X42566Y47772D01*
X42601Y47719D01*
X42654Y47684D01*
X42717Y47672D01*
X42779Y47684D01*
X42832Y47719D01*
X42867Y47772D01*
X42880Y47835D01*
X42867Y47897D01*
X42832Y47950D01*
X42779Y47985D01*
X42717Y47998D01*
D02*
G37*
G36*
X43898D02*
X43835Y47985D01*
X43782Y47950D01*
X43747Y47897D01*
X43734Y47835D01*
X43747Y47772D01*
X43782Y47719D01*
X43835Y47684D01*
X43898Y47672D01*
X43960Y47684D01*
X44013Y47719D01*
X44048Y47772D01*
X44061Y47835D01*
X44048Y47897D01*
X44013Y47950D01*
X43960Y47985D01*
X43898Y47998D01*
D02*
G37*
G36*
X41142Y48391D02*
X41079Y48379D01*
X41026Y48344D01*
X40991Y48291D01*
X40979Y48228D01*
X40991Y48166D01*
X41026Y48113D01*
X41079Y48078D01*
X41142Y48065D01*
X41204Y48078D01*
X41257Y48113D01*
X41292Y48166D01*
X41305Y48228D01*
X41292Y48291D01*
X41257Y48344D01*
X41204Y48379D01*
X41142Y48391D01*
D02*
G37*
G36*
X41535D02*
X41473Y48379D01*
X41420Y48344D01*
X41385Y48291D01*
X41372Y48228D01*
X41385Y48166D01*
X41420Y48113D01*
X41473Y48078D01*
X41535Y48065D01*
X41598Y48078D01*
X41651Y48113D01*
X41686Y48166D01*
X41699Y48228D01*
X41686Y48291D01*
X41651Y48344D01*
X41598Y48379D01*
X41535Y48391D01*
D02*
G37*
G36*
X36024Y48096D02*
X35961Y48084D01*
X35908Y48048D01*
X35873Y47996D01*
X35860Y47933D01*
X35873Y47871D01*
X35908Y47818D01*
X35961Y47782D01*
X36024Y47770D01*
X36086Y47782D01*
X36139Y47818D01*
X36174Y47871D01*
X36187Y47933D01*
X36174Y47996D01*
X36139Y48048D01*
X36086Y48084D01*
X36024Y48096D01*
D02*
G37*
G36*
X33366Y48195D02*
X33304Y48182D01*
X33251Y48147D01*
X33215Y48094D01*
X33203Y48032D01*
X33215Y47969D01*
X33251Y47916D01*
X33304Y47881D01*
X33366Y47868D01*
X33429Y47881D01*
X33482Y47916D01*
X33517Y47969D01*
X33529Y48032D01*
X33517Y48094D01*
X33482Y48147D01*
X33429Y48182D01*
X33366Y48195D01*
D02*
G37*
G36*
X29100Y55593D02*
X29032Y55584D01*
X28969Y55558D01*
X28915Y55516D01*
X28873Y55462D01*
X28847Y55399D01*
X28838Y55331D01*
X28847Y55263D01*
X28873Y55200D01*
X28915Y55145D01*
X28969Y55104D01*
X29032Y55077D01*
X29100Y55068D01*
X29168Y55077D01*
X29231Y55104D01*
X29285Y55145D01*
X29327Y55200D01*
X29353Y55263D01*
X29362Y55331D01*
X29353Y55399D01*
X29327Y55462D01*
X29285Y55516D01*
X29231Y55558D01*
X29168Y55584D01*
X29100Y55593D01*
D02*
G37*
G36*
X30100Y55595D02*
X30032Y55586D01*
X29969Y55560D01*
X29915Y55519D01*
X29873Y55464D01*
X29847Y55401D01*
X29838Y55333D01*
X29847Y55265D01*
X29873Y55202D01*
X29915Y55148D01*
X29969Y55106D01*
X30032Y55080D01*
X30100Y55071D01*
X30168Y55080D01*
X30231Y55106D01*
X30285Y55148D01*
X30327Y55202D01*
X30353Y55265D01*
X30362Y55333D01*
X30353Y55401D01*
X30327Y55464D01*
X30285Y55519D01*
X30231Y55560D01*
X30168Y55586D01*
X30100Y55595D01*
D02*
G37*
G36*
X26100Y55593D02*
X26032Y55584D01*
X25969Y55558D01*
X25915Y55516D01*
X25873Y55462D01*
X25847Y55399D01*
X25838Y55331D01*
X25847Y55263D01*
X25873Y55200D01*
X25915Y55145D01*
X25969Y55104D01*
X26032Y55077D01*
X26100Y55068D01*
X26168Y55077D01*
X26231Y55104D01*
X26285Y55145D01*
X26327Y55200D01*
X26353Y55263D01*
X26362Y55331D01*
X26353Y55399D01*
X26327Y55462D01*
X26285Y55516D01*
X26231Y55558D01*
X26168Y55584D01*
X26100Y55593D01*
D02*
G37*
G36*
X28100D02*
X28032Y55584D01*
X27969Y55558D01*
X27915Y55516D01*
X27873Y55462D01*
X27847Y55399D01*
X27838Y55331D01*
X27847Y55263D01*
X27873Y55200D01*
X27915Y55145D01*
X27969Y55104D01*
X28032Y55077D01*
X28100Y55068D01*
X28168Y55077D01*
X28231Y55104D01*
X28285Y55145D01*
X28327Y55200D01*
X28353Y55263D01*
X28362Y55331D01*
X28353Y55399D01*
X28327Y55462D01*
X28285Y55516D01*
X28231Y55558D01*
X28168Y55584D01*
X28100Y55593D01*
D02*
G37*
G36*
X34688Y56062D02*
X34620Y56053D01*
X34557Y56027D01*
X34502Y55985D01*
X34461Y55931D01*
X34434Y55868D01*
X34426Y55800D01*
X34434Y55732D01*
X34461Y55669D01*
X34502Y55615D01*
X34557Y55573D01*
X34620Y55547D01*
X34688Y55538D01*
X34756Y55547D01*
X34819Y55573D01*
X34826Y55579D01*
X34871Y55557D01*
Y55543D01*
X35424D01*
Y56057D01*
X34871D01*
Y56043D01*
X34826Y56021D01*
X34819Y56027D01*
X34756Y56053D01*
X34688Y56062D01*
D02*
G37*
G36*
X34252Y56561D02*
X34184Y56553D01*
X34121Y56526D01*
X34067Y56485D01*
X34025Y56430D01*
X33999Y56367D01*
X33990Y56299D01*
X33999Y56231D01*
X34025Y56168D01*
X34067Y56114D01*
X34121Y56072D01*
X34184Y56046D01*
X34252Y56037D01*
X34320Y56046D01*
X34383Y56072D01*
X34437Y56114D01*
X34479Y56168D01*
X34505Y56231D01*
X34514Y56299D01*
X34505Y56367D01*
X34479Y56430D01*
X34437Y56485D01*
X34383Y56526D01*
X34320Y56553D01*
X34252Y56561D01*
D02*
G37*
G36*
X26870Y55478D02*
X26808Y55466D01*
X26755Y55430D01*
X26719Y55377D01*
X26707Y55315D01*
X26719Y55253D01*
X26755Y55200D01*
X26808Y55164D01*
X26870Y55152D01*
X26933Y55164D01*
X26985Y55200D01*
X27021Y55253D01*
X27033Y55315D01*
X27021Y55377D01*
X26985Y55430D01*
X26933Y55466D01*
X26870Y55478D01*
D02*
G37*
G36*
X44439Y55823D02*
X44371Y55814D01*
X44308Y55788D01*
X44254Y55746D01*
X44212Y55692D01*
X44186Y55629D01*
X44177Y55561D01*
X44186Y55493D01*
X44212Y55430D01*
X44254Y55376D01*
X44308Y55334D01*
X44371Y55308D01*
X44439Y55299D01*
X44507Y55308D01*
X44570Y55334D01*
X44624Y55376D01*
X44657Y55418D01*
X44802D01*
Y55219D01*
D01*
X44802Y55219D01*
Y55219D01*
X44802D01*
X44802D01*
X44802Y55181D01*
X44802D01*
Y54966D01*
X44783D01*
X44729Y54955D01*
X44710Y54942D01*
X44683Y54924D01*
X44683Y54924D01*
X44614Y54855D01*
X44556Y54879D01*
X44488Y54888D01*
X44420Y54879D01*
X44357Y54853D01*
X44303Y54811D01*
X44261Y54757D01*
X44235Y54694D01*
X44226Y54626D01*
X44235Y54558D01*
X44261Y54495D01*
X44303Y54441D01*
X44357Y54399D01*
X44420Y54373D01*
X44488Y54364D01*
X44556Y54373D01*
X44619Y54399D01*
X44674Y54441D01*
X44715Y54495D01*
X44742Y54558D01*
X44745Y54582D01*
X44843Y54680D01*
X44980D01*
X45035Y54691D01*
X45059Y54707D01*
X45198D01*
Y55181D01*
D01*
Y55181D01*
X45198Y55181D01*
Y55219D01*
X45198D01*
Y55693D01*
X45083D01*
X45030Y55704D01*
X44657D01*
X44624Y55746D01*
X44570Y55788D01*
X44507Y55814D01*
X44439Y55823D01*
D02*
G37*
G36*
X30260Y53466D02*
X30197Y53454D01*
X30144Y53419D01*
X30109Y53366D01*
X30097Y53303D01*
X30109Y53241D01*
X30144Y53188D01*
X30197Y53152D01*
X30260Y53140D01*
X30322Y53152D01*
X30375Y53188D01*
X30411Y53241D01*
X30423Y53303D01*
X30411Y53366D01*
X30375Y53419D01*
X30322Y53454D01*
X30260Y53466D01*
D02*
G37*
G36*
X42028Y54052D02*
X41960Y54043D01*
X41896Y54016D01*
X41842Y53975D01*
X41800Y53920D01*
X41774Y53857D01*
X41765Y53789D01*
X41774Y53721D01*
X41800Y53658D01*
X41842Y53604D01*
X41896Y53562D01*
X41960Y53536D01*
X42028Y53527D01*
X42095Y53536D01*
X42159Y53562D01*
X42213Y53604D01*
X42255Y53658D01*
X42281Y53721D01*
X42290Y53789D01*
X42281Y53857D01*
X42255Y53920D01*
X42213Y53975D01*
X42159Y54016D01*
X42095Y54043D01*
X42028Y54052D01*
D02*
G37*
G36*
X27337Y53338D02*
X27275Y53326D01*
X27222Y53290D01*
X27186Y53237D01*
X27174Y53175D01*
X27186Y53112D01*
X27222Y53059D01*
X27275Y53024D01*
X27337Y53012D01*
X27399Y53024D01*
X27452Y53059D01*
X27488Y53112D01*
X27500Y53175D01*
X27488Y53237D01*
X27452Y53290D01*
X27399Y53326D01*
X27337Y53338D01*
D02*
G37*
G36*
X41657Y53942D02*
X41143D01*
Y53389D01*
X41227D01*
X41249Y53347D01*
X41237Y53285D01*
X41249Y53223D01*
X41285Y53170D01*
X41338Y53134D01*
X41400Y53122D01*
X41462Y53134D01*
X41515Y53170D01*
X41551Y53223D01*
X41563Y53285D01*
X41551Y53347D01*
X41573Y53389D01*
X41657D01*
Y53942D01*
D02*
G37*
G36*
X35700Y55359D02*
X35632Y55351D01*
X35569Y55324D01*
X35515Y55283D01*
X35473Y55228D01*
X35447Y55165D01*
X35438Y55097D01*
X35447Y55029D01*
X35473Y54966D01*
X35515Y54912D01*
X35569Y54870D01*
X35632Y54844D01*
X35700Y54835D01*
X35768Y54844D01*
X35831Y54870D01*
X35885Y54912D01*
X35927Y54966D01*
X35953Y55029D01*
X35962Y55097D01*
X35953Y55165D01*
X35927Y55228D01*
X35885Y55283D01*
X35831Y55324D01*
X35768Y55351D01*
X35700Y55359D01*
D02*
G37*
G36*
X43012Y55577D02*
X42944Y55568D01*
X42881Y55542D01*
X42826Y55500D01*
X42785Y55446D01*
X42758Y55383D01*
X42750Y55315D01*
X42758Y55247D01*
X42785Y55184D01*
X42826Y55130D01*
X42881Y55088D01*
X42944Y55062D01*
X43012Y55053D01*
X43080Y55062D01*
X43143Y55088D01*
X43197Y55130D01*
X43239Y55184D01*
X43265Y55247D01*
X43274Y55315D01*
X43265Y55383D01*
X43239Y55446D01*
X43197Y55500D01*
X43143Y55542D01*
X43080Y55568D01*
X43012Y55577D01*
D02*
G37*
G36*
X41400Y55171D02*
X41332Y55162D01*
X41269Y55136D01*
X41215Y55094D01*
X41173Y55040D01*
X41147Y54977D01*
X41138Y54909D01*
X41147Y54841D01*
X41173Y54778D01*
X41215Y54724D01*
X41257Y54691D01*
Y54611D01*
X41143D01*
Y54058D01*
X41657D01*
Y54611D01*
X41543D01*
Y54691D01*
X41585Y54724D01*
X41627Y54778D01*
X41653Y54841D01*
X41662Y54909D01*
X41653Y54977D01*
X41627Y55040D01*
X41585Y55094D01*
X41531Y55136D01*
X41468Y55162D01*
X41400Y55171D01*
D02*
G37*
G36*
X39442Y55157D02*
X39374Y55148D01*
X39311Y55122D01*
X39256Y55080D01*
X39215Y55026D01*
X39188Y54962D01*
X39179Y54894D01*
X39188Y54827D01*
X39215Y54763D01*
X39256Y54709D01*
X39311Y54667D01*
X39374Y54641D01*
X39442Y54632D01*
X39510Y54641D01*
X39573Y54667D01*
X39627Y54709D01*
X39669Y54763D01*
X39695Y54827D01*
X39704Y54894D01*
X39695Y54962D01*
X39669Y55026D01*
X39627Y55080D01*
X39573Y55122D01*
X39510Y55148D01*
X39442Y55157D01*
D02*
G37*
G36*
X31765Y56588D02*
X31697Y56579D01*
X31633Y56553D01*
X31579Y56511D01*
X31537Y56457D01*
X31511Y56394D01*
X31502Y56326D01*
X31511Y56258D01*
X31537Y56195D01*
X31579Y56141D01*
X31633Y56099D01*
X31697Y56073D01*
X31765Y56064D01*
X31832Y56073D01*
X31896Y56099D01*
X31950Y56141D01*
X31992Y56195D01*
X32018Y56258D01*
X32027Y56326D01*
X32018Y56394D01*
X31992Y56457D01*
X31950Y56511D01*
X31896Y56553D01*
X31832Y56579D01*
X31765Y56588D01*
D02*
G37*
G36*
X33415Y59219D02*
X33347Y59210D01*
X33284Y59184D01*
X33230Y59142D01*
X33188Y59088D01*
X33162Y59025D01*
X33153Y58957D01*
X33162Y58889D01*
X33188Y58826D01*
X33230Y58771D01*
X33284Y58730D01*
X33347Y58703D01*
X33415Y58694D01*
X33483Y58703D01*
X33546Y58730D01*
X33601Y58771D01*
X33642Y58826D01*
X33669Y58889D01*
X33678Y58957D01*
X33669Y59025D01*
X33642Y59088D01*
X33601Y59142D01*
X33546Y59184D01*
X33483Y59210D01*
X33415Y59219D01*
D02*
G37*
G36*
X26100Y59332D02*
X26032Y59323D01*
X25969Y59296D01*
X25915Y59255D01*
X25873Y59200D01*
X25847Y59137D01*
X25838Y59069D01*
X25847Y59001D01*
X25873Y58938D01*
X25915Y58884D01*
X25969Y58842D01*
X26032Y58816D01*
X26100Y58807D01*
X26168Y58816D01*
X26231Y58842D01*
X26285Y58884D01*
X26327Y58938D01*
X26353Y59001D01*
X26362Y59069D01*
X26353Y59137D01*
X26327Y59200D01*
X26285Y59255D01*
X26231Y59296D01*
X26168Y59323D01*
X26100Y59332D01*
D02*
G37*
G36*
X37000Y58862D02*
X36932Y58853D01*
X36869Y58827D01*
X36815Y58785D01*
X36773Y58731D01*
X36747Y58668D01*
X36738Y58600D01*
X36747Y58532D01*
X36773Y58469D01*
X36815Y58415D01*
X36869Y58373D01*
X36932Y58347D01*
X37000Y58338D01*
X37068Y58347D01*
X37131Y58373D01*
X37185Y58415D01*
X37227Y58469D01*
X37253Y58532D01*
X37262Y58600D01*
X37253Y58668D01*
X37227Y58731D01*
X37185Y58785D01*
X37131Y58827D01*
X37068Y58853D01*
X37000Y58862D01*
D02*
G37*
G36*
X35400Y58962D02*
X35332Y58953D01*
X35269Y58927D01*
X35215Y58885D01*
X35173Y58831D01*
X35147Y58768D01*
X35138Y58700D01*
X35147Y58632D01*
X35173Y58569D01*
X35215Y58515D01*
X35269Y58473D01*
X35332Y58447D01*
X35400Y58438D01*
X35468Y58447D01*
X35531Y58473D01*
X35585Y58515D01*
X35627Y58569D01*
X35653Y58632D01*
X35662Y58700D01*
X35653Y58768D01*
X35627Y58831D01*
X35585Y58885D01*
X35531Y58927D01*
X35468Y58953D01*
X35400Y58962D01*
D02*
G37*
G36*
X30100Y59332D02*
X30032Y59323D01*
X29969Y59296D01*
X29915Y59255D01*
X29873Y59200D01*
X29847Y59137D01*
X29838Y59069D01*
X29847Y59001D01*
X29873Y58938D01*
X29915Y58884D01*
X29969Y58842D01*
X30032Y58816D01*
X30100Y58807D01*
X30168Y58816D01*
X30231Y58842D01*
X30285Y58884D01*
X30327Y58938D01*
X30353Y59001D01*
X30362Y59069D01*
X30353Y59137D01*
X30327Y59200D01*
X30285Y59255D01*
X30231Y59296D01*
X30168Y59323D01*
X30100Y59332D01*
D02*
G37*
G36*
X31100D02*
X31032Y59323D01*
X30969Y59296D01*
X30915Y59255D01*
X30873Y59200D01*
X30847Y59137D01*
X30838Y59069D01*
X30847Y59001D01*
X30873Y58938D01*
X30915Y58884D01*
X30969Y58842D01*
X31032Y58816D01*
X31100Y58807D01*
X31168Y58816D01*
X31231Y58842D01*
X31285Y58884D01*
X31327Y58938D01*
X31353Y59001D01*
X31362Y59069D01*
X31353Y59137D01*
X31327Y59200D01*
X31285Y59255D01*
X31231Y59296D01*
X31168Y59323D01*
X31100Y59332D01*
D02*
G37*
G36*
X27100D02*
X27032Y59323D01*
X26969Y59296D01*
X26915Y59255D01*
X26873Y59200D01*
X26847Y59137D01*
X26838Y59069D01*
X26847Y59001D01*
X26873Y58938D01*
X26915Y58884D01*
X26969Y58842D01*
X27032Y58816D01*
X27100Y58807D01*
X27168Y58816D01*
X27231Y58842D01*
X27285Y58884D01*
X27327Y58938D01*
X27353Y59001D01*
X27362Y59069D01*
X27353Y59137D01*
X27327Y59200D01*
X27285Y59255D01*
X27231Y59296D01*
X27168Y59323D01*
X27100Y59332D01*
D02*
G37*
G36*
X29100D02*
X29032Y59323D01*
X28969Y59296D01*
X28915Y59255D01*
X28873Y59200D01*
X28847Y59137D01*
X28838Y59069D01*
X28847Y59001D01*
X28873Y58938D01*
X28915Y58884D01*
X28969Y58842D01*
X29032Y58816D01*
X29100Y58807D01*
X29168Y58816D01*
X29231Y58842D01*
X29285Y58884D01*
X29327Y58938D01*
X29353Y59001D01*
X29362Y59069D01*
X29353Y59137D01*
X29327Y59200D01*
X29285Y59255D01*
X29231Y59296D01*
X29168Y59323D01*
X29100Y59332D01*
D02*
G37*
G36*
X39383Y56968D02*
X39315Y56959D01*
X39252Y56933D01*
X39197Y56891D01*
X39156Y56837D01*
X39129Y56773D01*
X39120Y56706D01*
X39129Y56638D01*
X39156Y56574D01*
X39197Y56520D01*
X39252Y56478D01*
X39315Y56452D01*
X39383Y56443D01*
X39451Y56452D01*
X39514Y56478D01*
X39568Y56520D01*
X39610Y56574D01*
X39636Y56638D01*
X39645Y56706D01*
X39636Y56773D01*
X39610Y56837D01*
X39568Y56891D01*
X39514Y56933D01*
X39451Y56959D01*
X39383Y56968D01*
D02*
G37*
G36*
X42168Y57462D02*
X42101Y57453D01*
X42037Y57427D01*
X41983Y57385D01*
X41941Y57331D01*
X41915Y57268D01*
X41906Y57200D01*
X41915Y57132D01*
X41941Y57069D01*
X41983Y57015D01*
X42037Y56973D01*
X42101Y56947D01*
X42168Y56938D01*
X42236Y56947D01*
X42300Y56973D01*
X42354Y57015D01*
X42396Y57069D01*
X42422Y57132D01*
X42431Y57200D01*
X42422Y57268D01*
X42396Y57331D01*
X42354Y57385D01*
X42300Y57427D01*
X42236Y57453D01*
X42168Y57462D01*
D02*
G37*
G36*
X35200Y56745D02*
X35132Y56736D01*
X35069Y56710D01*
X35015Y56669D01*
X34973Y56614D01*
X34947Y56551D01*
X34938Y56483D01*
X34947Y56415D01*
X34973Y56352D01*
X35015Y56298D01*
X35069Y56256D01*
X35132Y56230D01*
X35200Y56221D01*
X35268Y56230D01*
X35331Y56256D01*
X35385Y56298D01*
X35427Y56352D01*
X35453Y56415D01*
X35462Y56483D01*
X35453Y56551D01*
X35427Y56614D01*
X35385Y56669D01*
X35331Y56710D01*
X35268Y56736D01*
X35200Y56745D01*
D02*
G37*
G36*
X36200Y56787D02*
X36132Y56778D01*
X36069Y56752D01*
X36015Y56710D01*
X35973Y56656D01*
X35947Y56593D01*
X35944Y56569D01*
X35716Y56341D01*
X35685Y56295D01*
X35674Y56240D01*
X35674Y56240D01*
Y56057D01*
X35541D01*
Y55543D01*
X36094D01*
Y56057D01*
X35960D01*
Y56181D01*
X36074Y56296D01*
X36132Y56272D01*
X36200Y56263D01*
X36268Y56272D01*
X36331Y56298D01*
X36385Y56339D01*
X36427Y56394D01*
X36453Y56457D01*
X36462Y56525D01*
X36453Y56593D01*
X36427Y56656D01*
X36385Y56710D01*
X36331Y56752D01*
X36268Y56778D01*
X36200Y56787D01*
D02*
G37*
G36*
X46000Y58467D02*
X45932Y58458D01*
X45869Y58432D01*
X45815Y58390D01*
X45773Y58336D01*
X45747Y58273D01*
X45738Y58205D01*
X45747Y58137D01*
X45773Y58074D01*
X45815Y58019D01*
X45869Y57978D01*
X45932Y57951D01*
X46000Y57942D01*
X46068Y57951D01*
X46131Y57978D01*
X46185Y58019D01*
X46227Y58074D01*
X46253Y58137D01*
X46262Y58205D01*
X46253Y58273D01*
X46227Y58336D01*
X46185Y58390D01*
X46131Y58432D01*
X46068Y58458D01*
X46000Y58467D01*
D02*
G37*
G36*
X41683Y58628D02*
X41615Y58619D01*
X41552Y58593D01*
X41498Y58552D01*
X41456Y58497D01*
X41430Y58434D01*
X41421Y58366D01*
X41430Y58298D01*
X41456Y58235D01*
X41498Y58181D01*
X41552Y58139D01*
X41615Y58113D01*
X41683Y58104D01*
X41751Y58113D01*
X41814Y58139D01*
X41869Y58181D01*
X41910Y58235D01*
X41936Y58298D01*
X41945Y58366D01*
X41936Y58434D01*
X41910Y58497D01*
X41869Y58552D01*
X41814Y58593D01*
X41751Y58619D01*
X41683Y58628D01*
D02*
G37*
G36*
X43900Y57531D02*
X43832Y57522D01*
X43769Y57496D01*
X43715Y57454D01*
X43673Y57400D01*
X43647Y57336D01*
X43638Y57269D01*
X43647Y57201D01*
X43673Y57137D01*
X43715Y57083D01*
X43769Y57041D01*
X43832Y57015D01*
X43900Y57006D01*
X43968Y57015D01*
X44031Y57041D01*
X44085Y57083D01*
X44127Y57137D01*
X44153Y57201D01*
X44162Y57269D01*
X44153Y57336D01*
X44127Y57400D01*
X44085Y57454D01*
X44031Y57496D01*
X43968Y57522D01*
X43900Y57531D01*
D02*
G37*
G36*
X34252Y58382D02*
X34184Y58373D01*
X34121Y58347D01*
X34067Y58306D01*
X34025Y58251D01*
X33999Y58188D01*
X33990Y58120D01*
X33999Y58052D01*
X34025Y57989D01*
X34067Y57935D01*
X34121Y57893D01*
X34184Y57867D01*
X34252Y57858D01*
X34320Y57867D01*
X34383Y57893D01*
X34437Y57935D01*
X34479Y57989D01*
X34505Y58052D01*
X34514Y58120D01*
X34505Y58188D01*
X34479Y58251D01*
X34437Y58306D01*
X34383Y58347D01*
X34320Y58373D01*
X34252Y58382D01*
D02*
G37*
G36*
X44252Y52914D02*
X44026D01*
Y52707D01*
X44252D01*
Y52914D01*
D02*
G37*
G36*
X42717Y51935D02*
X42654Y51922D01*
X42601Y51887D01*
X42566Y51834D01*
X42553Y51772D01*
X42566Y51709D01*
X42571Y51701D01*
X42548Y51657D01*
X42106D01*
Y51143D01*
X42312D01*
X42558Y50898D01*
X42582Y50882D01*
X42598Y50871D01*
X42600Y50871D01*
X42601Y50869D01*
X42654Y50834D01*
X42717Y50821D01*
X42779Y50834D01*
X42832Y50869D01*
X42867Y50922D01*
X42880Y50984D01*
X42867Y51047D01*
X42832Y51100D01*
X42779Y51135D01*
X42774Y51136D01*
X42776Y51143D01*
X42776Y51143D01*
D01*
X43329D01*
Y51657D01*
X43139D01*
X43139Y51657D01*
X42937Y51858D01*
X42898Y51885D01*
X42851Y51894D01*
X42821D01*
X42779Y51922D01*
X42717Y51935D01*
D02*
G37*
G36*
X31988Y51306D02*
X31926Y51293D01*
X31873Y51258D01*
X31837Y51205D01*
X31825Y51143D01*
X31837Y51080D01*
X31873Y51027D01*
X31926Y50992D01*
X31988Y50980D01*
X32051Y50992D01*
X32104Y51027D01*
X32139Y51080D01*
X32151Y51143D01*
X32139Y51205D01*
X32104Y51258D01*
X32051Y51293D01*
X31988Y51306D01*
D02*
G37*
G36*
X39429Y50946D02*
X39203D01*
Y50739D01*
X39429D01*
Y50946D01*
D02*
G37*
G36*
X41929Y51147D02*
X41867Y51135D01*
X41814Y51100D01*
X41778Y51047D01*
X41766Y50984D01*
X41778Y50922D01*
X41814Y50869D01*
X41867Y50834D01*
X41929Y50821D01*
X41992Y50834D01*
X42044Y50869D01*
X42080Y50922D01*
X42092Y50984D01*
X42080Y51047D01*
X42044Y51100D01*
X41992Y51135D01*
X41929Y51147D01*
D02*
G37*
G36*
X39961Y51541D02*
X39898Y51529D01*
X39845Y51493D01*
X39810Y51440D01*
X39797Y51378D01*
X39810Y51316D01*
X39845Y51263D01*
X39898Y51227D01*
X39961Y51215D01*
X40023Y51227D01*
X40076Y51263D01*
X40111Y51316D01*
X40124Y51378D01*
X40111Y51440D01*
X40076Y51493D01*
X40023Y51529D01*
X39961Y51541D01*
D02*
G37*
G36*
X46600Y51586D02*
X46538Y51574D01*
X46485Y51538D01*
X46449Y51485D01*
X46437Y51423D01*
X46449Y51360D01*
X46485Y51307D01*
X46538Y51272D01*
X46600Y51260D01*
X46662Y51272D01*
X46715Y51307D01*
X46751Y51360D01*
X46763Y51423D01*
X46751Y51485D01*
X46715Y51538D01*
X46662Y51574D01*
X46600Y51586D01*
D02*
G37*
G36*
X36808Y51347D02*
X36745Y51335D01*
X36693Y51300D01*
X36657Y51247D01*
X36645Y51184D01*
X36657Y51122D01*
X36693Y51069D01*
X36745Y51034D01*
X36808Y51021D01*
X36870Y51034D01*
X36923Y51069D01*
X36959Y51122D01*
X36971Y51184D01*
X36959Y51247D01*
X36923Y51300D01*
X36870Y51335D01*
X36808Y51347D01*
D02*
G37*
G36*
X44489Y51163D02*
X44094D01*
Y51065D01*
X44046Y51051D01*
X44013Y51100D01*
X43960Y51135D01*
X43898Y51147D01*
X43835Y51135D01*
X43782Y51100D01*
X43747Y51047D01*
X43734Y50984D01*
X43747Y50922D01*
X43782Y50869D01*
X43835Y50834D01*
X43896Y50821D01*
X43909Y50813D01*
X43956Y50803D01*
X44094D01*
Y50689D01*
D01*
X44094Y50689D01*
Y50689D01*
X44094D01*
X44094D01*
X44094Y50651D01*
X44094D01*
Y50467D01*
X43968Y50342D01*
X43960Y50348D01*
X43898Y50360D01*
X43835Y50348D01*
X43782Y50312D01*
X43747Y50259D01*
X43734Y50197D01*
X43747Y50134D01*
X43782Y50082D01*
X43835Y50046D01*
X43898Y50034D01*
X43960Y50046D01*
X44005Y50076D01*
X44043Y50084D01*
X44083Y50110D01*
X44149Y50177D01*
X44489D01*
Y50651D01*
D01*
Y50651D01*
X44489Y50651D01*
Y50689D01*
X44489D01*
Y51163D01*
D02*
G37*
G36*
X39429Y50639D02*
X39203D01*
Y50432D01*
X39429D01*
Y50639D01*
D02*
G37*
G36*
X27328Y50818D02*
X27266Y50806D01*
X27213Y50770D01*
X27178Y50718D01*
X27165Y50655D01*
X27178Y50593D01*
X27213Y50540D01*
X27266Y50504D01*
X27328Y50492D01*
X27391Y50504D01*
X27444Y50540D01*
X27479Y50593D01*
X27491Y50655D01*
X27479Y50718D01*
X27444Y50770D01*
X27391Y50806D01*
X27328Y50818D01*
D02*
G37*
G36*
X43504Y50754D02*
X43442Y50741D01*
X43389Y50706D01*
X43353Y50653D01*
X43341Y50591D01*
X43353Y50528D01*
X43389Y50475D01*
X43442Y50440D01*
X43504Y50427D01*
X43566Y50440D01*
X43619Y50475D01*
X43655Y50528D01*
X43667Y50591D01*
X43655Y50653D01*
X43619Y50706D01*
X43566Y50741D01*
X43504Y50754D01*
D02*
G37*
G36*
X39103Y50639D02*
X38876D01*
Y50432D01*
X39103D01*
Y50639D01*
D02*
G37*
G36*
X44291Y51541D02*
X44229Y51529D01*
X44176Y51493D01*
X44141Y51440D01*
X44128Y51378D01*
X44141Y51316D01*
X44176Y51263D01*
X44229Y51227D01*
X44291Y51215D01*
X44354Y51227D01*
X44396Y51256D01*
X44523D01*
X44625Y51153D01*
Y50728D01*
X45139D01*
Y51281D01*
X44843D01*
X44660Y51464D01*
X44620Y51491D01*
X44574Y51500D01*
X44396D01*
X44354Y51529D01*
X44291Y51541D01*
D02*
G37*
G36*
X39103Y50946D02*
X38876D01*
Y50739D01*
X39103D01*
Y50946D01*
D02*
G37*
G36*
X30675Y50818D02*
X30612Y50806D01*
X30559Y50770D01*
X30524Y50718D01*
X30512Y50655D01*
X30524Y50593D01*
X30559Y50540D01*
X30612Y50504D01*
X30675Y50492D01*
X30737Y50504D01*
X30790Y50540D01*
X30826Y50593D01*
X30838Y50655D01*
X30826Y50718D01*
X30790Y50770D01*
X30737Y50806D01*
X30675Y50818D01*
D02*
G37*
G36*
X33858Y51049D02*
X33796Y51037D01*
X33743Y51001D01*
X33708Y50948D01*
X33695Y50886D01*
X33708Y50823D01*
X33743Y50770D01*
X33796Y50735D01*
X33858Y50723D01*
X33921Y50735D01*
X33974Y50770D01*
X34009Y50823D01*
X34021Y50886D01*
X34009Y50948D01*
X33974Y51001D01*
X33921Y51037D01*
X33858Y51049D01*
D02*
G37*
G36*
X41062Y51576D02*
X41033Y51576D01*
X41025D01*
Y51576D01*
X41025D01*
X41025D01*
X40550D01*
Y51500D01*
X40459D01*
X40417Y51529D01*
X40354Y51541D01*
X40292Y51529D01*
X40239Y51493D01*
X40204Y51440D01*
X40191Y51378D01*
X40204Y51316D01*
X40239Y51263D01*
X40292Y51227D01*
X40354Y51215D01*
X40417Y51227D01*
X40459Y51256D01*
X40550D01*
Y51180D01*
X40667D01*
X40682Y51132D01*
X40633Y51100D01*
X40597Y51047D01*
X40585Y50984D01*
X40597Y50922D01*
X40633Y50869D01*
X40686Y50834D01*
X40748Y50821D01*
X40810Y50834D01*
X40863Y50869D01*
X40899Y50922D01*
X40911Y50984D01*
X40899Y51047D01*
X40863Y51100D01*
X40814Y51132D01*
X40829Y51180D01*
X41025D01*
D01*
Y51180D01*
X41025D01*
X41025Y51180D01*
X41062D01*
Y51180D01*
X41185D01*
X41186Y51174D01*
X41213Y51134D01*
X41375Y50972D01*
X41385Y50922D01*
X41420Y50869D01*
X41473Y50834D01*
X41535Y50821D01*
X41598Y50834D01*
X41651Y50869D01*
X41686Y50922D01*
X41699Y50984D01*
X41686Y51047D01*
X41651Y51100D01*
X41598Y51135D01*
X41548Y51145D01*
X41529Y51163D01*
X41536Y51180D01*
X41536Y51180D01*
Y51180D01*
Y51180D01*
X41536D01*
D01*
Y51576D01*
X41062D01*
Y51576D01*
D02*
G37*
G36*
X44922Y52914D02*
X44369D01*
Y52401D01*
X44922D01*
Y52535D01*
X44974D01*
X45016Y52507D01*
X45079Y52494D01*
X45141Y52507D01*
X45194Y52542D01*
X45229Y52595D01*
X45242Y52657D01*
X45229Y52720D01*
X45194Y52773D01*
X45141Y52808D01*
X45079Y52821D01*
X45016Y52808D01*
X44974Y52780D01*
X44922D01*
Y52914D01*
D02*
G37*
G36*
X39370Y52919D02*
X39308Y52907D01*
X39255Y52871D01*
X39219Y52818D01*
X39207Y52756D01*
X39219Y52693D01*
X39255Y52641D01*
X39308Y52605D01*
X39370Y52593D01*
X39433Y52605D01*
X39485Y52641D01*
X39521Y52693D01*
X39533Y52756D01*
X39521Y52818D01*
X39485Y52871D01*
X39433Y52907D01*
X39370Y52919D01*
D02*
G37*
G36*
X43926Y52607D02*
X43699D01*
Y52401D01*
X43926D01*
Y52607D01*
D02*
G37*
G36*
X44252D02*
X44026D01*
Y52401D01*
X44252D01*
Y52607D01*
D02*
G37*
G36*
X35880Y53017D02*
X35818Y53005D01*
X35765Y52970D01*
X35730Y52917D01*
X35717Y52854D01*
X35730Y52792D01*
X35765Y52739D01*
X35818Y52704D01*
X35880Y52691D01*
X35943Y52704D01*
X35996Y52739D01*
X36031Y52792D01*
X36043Y52854D01*
X36031Y52917D01*
X35996Y52970D01*
X35943Y53005D01*
X35880Y53017D01*
D02*
G37*
G36*
X43926Y52914D02*
X43699D01*
Y52707D01*
X43926D01*
Y52914D01*
D02*
G37*
G36*
X34154Y52919D02*
X34091Y52907D01*
X34038Y52871D01*
X34003Y52818D01*
X33990Y52756D01*
X34003Y52693D01*
X34038Y52641D01*
X34091Y52605D01*
X34154Y52593D01*
X34216Y52605D01*
X34269Y52641D01*
X34304Y52693D01*
X34317Y52756D01*
X34304Y52818D01*
X34269Y52871D01*
X34216Y52907D01*
X34154Y52919D01*
D02*
G37*
G36*
X29000Y52954D02*
X28938Y52942D01*
X28885Y52907D01*
X28849Y52854D01*
X28837Y52791D01*
X28849Y52729D01*
X28885Y52676D01*
X28938Y52641D01*
X29000Y52628D01*
X29062Y52641D01*
X29115Y52676D01*
X29151Y52729D01*
X29163Y52791D01*
X29151Y52854D01*
X29115Y52907D01*
X29062Y52942D01*
X29000Y52954D01*
D02*
G37*
G36*
X44685Y51935D02*
X44623Y51922D01*
X44570Y51887D01*
X44534Y51834D01*
X44522Y51772D01*
X44534Y51709D01*
X44570Y51656D01*
X44623Y51621D01*
X44685Y51609D01*
X44747Y51621D01*
X44800Y51656D01*
X44836Y51709D01*
X44848Y51772D01*
X44836Y51834D01*
X44800Y51887D01*
X44747Y51922D01*
X44685Y51935D01*
D02*
G37*
G36*
X29331Y52033D02*
X29268Y52021D01*
X29215Y51985D01*
X29180Y51933D01*
X29168Y51870D01*
X29180Y51808D01*
X29215Y51755D01*
X29268Y51719D01*
X29331Y51707D01*
X29393Y51719D01*
X29446Y51755D01*
X29481Y51808D01*
X29494Y51870D01*
X29481Y51933D01*
X29446Y51985D01*
X29393Y52021D01*
X29331Y52033D01*
D02*
G37*
G36*
X39000Y51863D02*
X38938Y51851D01*
X38885Y51815D01*
X38849Y51762D01*
X38837Y51700D01*
X38849Y51638D01*
X38885Y51585D01*
X38938Y51549D01*
X39000Y51537D01*
X39062Y51549D01*
X39115Y51585D01*
X39151Y51638D01*
X39163Y51700D01*
X39151Y51762D01*
X39115Y51815D01*
X39062Y51851D01*
X39000Y51863D01*
D02*
G37*
G36*
X39961Y51935D02*
X39898Y51922D01*
X39845Y51887D01*
X39810Y51834D01*
X39797Y51772D01*
X39810Y51709D01*
X39845Y51656D01*
X39898Y51621D01*
X39961Y51609D01*
X40023Y51621D01*
X40076Y51656D01*
X40111Y51709D01*
X40124Y51772D01*
X40111Y51834D01*
X40076Y51887D01*
X40023Y51922D01*
X39961Y51935D01*
D02*
G37*
G36*
X45472Y52328D02*
X45410Y52316D01*
X45357Y52281D01*
X45322Y52228D01*
X45309Y52165D01*
X45322Y52103D01*
X45357Y52050D01*
X45410Y52015D01*
X45472Y52002D01*
X45535Y52015D01*
X45588Y52050D01*
X45623Y52103D01*
X45636Y52165D01*
X45623Y52228D01*
X45588Y52281D01*
X45535Y52316D01*
X45472Y52328D01*
D02*
G37*
G36*
Y52722D02*
X45410Y52710D01*
X45357Y52674D01*
X45322Y52621D01*
X45309Y52559D01*
X45322Y52497D01*
X45357Y52444D01*
X45410Y52408D01*
X45472Y52396D01*
X45535Y52408D01*
X45588Y52444D01*
X45623Y52497D01*
X45636Y52559D01*
X45623Y52621D01*
X45588Y52674D01*
X45535Y52710D01*
X45472Y52722D01*
D02*
G37*
G36*
X27230Y52393D02*
X27167Y52381D01*
X27115Y52345D01*
X27079Y52292D01*
X27067Y52230D01*
X27079Y52167D01*
X27115Y52115D01*
X27167Y52079D01*
X27218Y52069D01*
X27344Y51943D01*
X27384Y51916D01*
X27402Y51913D01*
Y51792D01*
D01*
X27402Y51792D01*
Y51792D01*
X27402D01*
X27402D01*
X27402Y51755D01*
X27402D01*
Y51591D01*
X27251Y51440D01*
X27201Y51430D01*
X27148Y51395D01*
X27113Y51342D01*
X27101Y51280D01*
X27113Y51217D01*
X27148Y51164D01*
X27201Y51129D01*
X27264Y51116D01*
X27326Y51129D01*
X27379Y51164D01*
X27415Y51217D01*
X27424Y51267D01*
X27438Y51280D01*
X27798D01*
Y51755D01*
D01*
Y51755D01*
X27798Y51755D01*
Y51792D01*
X27798D01*
Y52266D01*
X27402D01*
D01*
Y52266D01*
X27402D01*
Y52266D01*
Y52266D01*
X27386D01*
X27381Y52292D01*
X27345Y52345D01*
X27292Y52381D01*
X27230Y52393D01*
D02*
G37*
G36*
X45079Y52328D02*
X45016Y52316D01*
X44963Y52281D01*
X44928Y52228D01*
X44916Y52165D01*
X44928Y52103D01*
X44963Y52050D01*
X45016Y52015D01*
X45079Y52002D01*
X45141Y52015D01*
X45194Y52050D01*
X45229Y52103D01*
X45242Y52165D01*
X45229Y52228D01*
X45194Y52281D01*
X45141Y52316D01*
X45079Y52328D01*
D02*
G37*
%LPD*%
D12*
X42383Y51400D02*
D03*
X43052D02*
D03*
X43976Y52657D02*
D03*
X44645D02*
D03*
X39153Y50689D02*
D03*
X39822D02*
D03*
X48723Y49215D02*
D03*
X49392D02*
D03*
X35817Y55800D02*
D03*
X35148D02*
D03*
X48983Y55200D02*
D03*
X49652D02*
D03*
D18*
X41400Y47417D02*
D03*
Y46748D02*
D03*
X44882Y51005D02*
D03*
Y50335D02*
D03*
X40256Y48306D02*
D03*
Y48976D02*
D03*
X35400Y49983D02*
D03*
Y50652D02*
D03*
X41400Y53665D02*
D03*
Y54335D02*
D03*
D29*
X35817Y56240D02*
X36122Y56545D01*
X35817Y55800D02*
Y56240D01*
X34688Y55800D02*
X35148D01*
X38017D02*
X38590D01*
X37348Y55516D02*
X37549Y55315D01*
X37348Y55516D02*
Y55800D01*
X41400Y54335D02*
Y54909D01*
X44488Y54626D02*
X44587D01*
X44783Y54823D01*
X44980D01*
X44439Y55561D02*
X45030D01*
X48967Y55659D02*
X49163Y55856D01*
X48967Y55217D02*
Y55659D01*
X49705Y55217D02*
X50295D01*
D30*
X24874Y38240D02*
Y38287D01*
D32*
X24283Y39815D02*
Y41409D01*
X24677Y39815D02*
Y41311D01*
X25071Y39815D02*
Y41213D01*
X25465Y39815D02*
Y41114D01*
X25858Y39815D02*
Y41016D01*
X26252Y39815D02*
Y40917D01*
X27039Y39815D02*
Y40819D01*
X27433Y39815D02*
Y40721D01*
X27827Y39815D02*
Y40622D01*
X28221Y39815D02*
Y40524D01*
X28614Y39815D02*
Y40425D01*
X50128Y46081D02*
Y46486D01*
X50098Y47027D02*
Y47271D01*
X49313Y48822D02*
Y49215D01*
X48802Y48829D02*
Y49215D01*
X40354Y51378D02*
X40787D01*
X39153Y50275D02*
Y50689D01*
X39133Y48662D02*
Y49016D01*
X39567Y49094D02*
Y49409D01*
Y49094D02*
X39645Y49016D01*
X40256Y47933D02*
Y48306D01*
Y47933D02*
X40354Y47835D01*
X41400Y46748D02*
X41835D01*
X41929Y46654D01*
X41400Y47417D02*
Y47667D01*
X41567Y47835D01*
X41929D01*
X42224Y47500D02*
Y47539D01*
X41929Y47835D02*
X42224Y47539D01*
X41062Y49096D02*
Y49400D01*
Y49096D02*
X41142Y49016D01*
X41573Y49400D02*
X41759D01*
X41929Y49230D01*
Y49016D02*
Y49230D01*
X41988Y48681D02*
X42323D01*
Y48169D02*
X42657D01*
X42717Y48228D01*
X43032Y49094D02*
Y49409D01*
Y49094D02*
X43110Y49016D01*
X43544Y49056D02*
Y49409D01*
X43504Y49016D02*
X43544Y49056D01*
X45079Y48622D02*
Y49074D01*
X44862Y49586D02*
X45079D01*
X44685Y49409D02*
X44862Y49586D01*
X43956Y50926D02*
X44291D01*
X43898Y50984D02*
X43956Y50926D01*
X44291Y51378D02*
X44574D01*
X44882Y51070D01*
Y51005D02*
Y51070D01*
X43307Y52657D02*
X43976D01*
X42383Y51246D02*
Y51400D01*
Y51246D02*
X42644Y50984D01*
X42717D01*
X43052Y51400D02*
Y51570D01*
X42851Y51772D02*
X43052Y51570D01*
X42717Y51772D02*
X42851D01*
X41228Y46161D02*
X41339D01*
X42224Y46949D02*
Y46988D01*
X41929Y46654D02*
X42224Y46949D01*
X41299Y51220D02*
Y51378D01*
Y51220D02*
X41535Y50984D01*
X39822Y50689D02*
X40256D01*
X40354Y50591D01*
X40256Y48976D02*
Y49114D01*
X39961Y49409D02*
X40256Y49114D01*
X40750Y46616D02*
Y47045D01*
X40748Y47047D02*
X40750Y47045D01*
X40807Y46161D02*
X41339D01*
X44882Y50000D02*
Y50335D01*
X44685Y49803D02*
X44882Y50000D01*
X43996Y50197D02*
X44193Y50394D01*
X43898Y50197D02*
X43996D01*
X44193Y50394D02*
X44291D01*
X44587Y52657D02*
X45079D01*
X35400Y49475D02*
Y49983D01*
Y50652D02*
Y50820D01*
X35236Y50984D02*
X35400Y50820D01*
X27431Y52029D02*
X27600D01*
X27230Y52230D02*
X27431Y52029D01*
X27502Y51517D02*
X27600D01*
X27264Y51280D02*
X27502Y51517D01*
X41400Y53285D02*
Y53665D01*
X49970Y47399D02*
X50098Y47271D01*
D34*
X22906Y38240D02*
Y39047D01*
X23693Y38240D02*
Y38949D01*
X24087Y38240D02*
Y38949D01*
X24480Y38240D02*
Y38949D01*
X24874Y38287D02*
Y38949D01*
X25661Y37528D02*
Y38240D01*
X26055Y37528D02*
Y38240D01*
X26449Y37528D02*
Y38240D01*
X26843Y37528D02*
Y38240D01*
X27236Y37035D02*
Y38240D01*
X27630Y36740D02*
Y38240D01*
X28417Y36445D02*
Y38240D01*
X26646Y39815D02*
Y40425D01*
X23890Y39815D02*
Y40524D01*
X23496Y39815D02*
Y40425D01*
X23299Y37626D02*
Y38240D01*
X25268Y37528D02*
Y38240D01*
X28024Y37626D02*
Y38240D01*
X28811Y37626D02*
Y38240D01*
X82600Y30600D02*
Y30000D01*
X83000D01*
X83300Y30400D02*
X83500D01*
X83600Y30300D01*
Y30000D01*
X83300D01*
X83200Y30100D01*
X83300Y30200D01*
X83600D01*
X83800Y30400D02*
Y30100D01*
X83900Y30000D01*
X84199D01*
Y29900D01*
X84100Y29800D01*
X84000D01*
X84199Y30000D02*
Y30400D01*
X84699Y30000D02*
X84499D01*
X84399Y30100D01*
Y30300D01*
X84499Y30400D01*
X84699D01*
X84799Y30300D01*
Y30200D01*
X84399D01*
X84999Y30400D02*
Y30000D01*
Y30200D01*
X85099Y30300D01*
X85199Y30400D01*
X85299D01*
X86599Y30600D02*
X86399Y30500D01*
X86199Y30300D01*
Y30100D01*
X86299Y30000D01*
X86499D01*
X86599Y30100D01*
Y30200D01*
X86499Y30300D01*
X86199D01*
D35*
X54806Y48232D02*
D03*
X55200Y53283D02*
D03*
D36*
X22400Y48832D02*
D03*
Y52769D02*
D03*
D37*
X17000Y64000D02*
D03*
D38*
X77039D02*
D03*
Y27819D02*
D03*
X17000D02*
D03*
D39*
X15600Y35200D02*
D03*
Y36200D02*
D03*
Y37200D02*
D03*
Y38200D02*
D03*
Y39200D02*
D03*
Y40200D02*
D03*
Y41200D02*
D03*
D40*
Y42200D02*
D03*
D41*
X50500Y56900D02*
D03*
X51900D02*
D03*
X50400Y58700D02*
D03*
X52000D02*
D03*
X35400D02*
D03*
X37000Y58600D02*
D03*
X42168Y57200D02*
D03*
X43900Y57269D02*
D03*
X41683Y58366D02*
D03*
X38927Y57530D02*
D03*
X33415Y58957D02*
D03*
X34252Y58120D02*
D03*
Y56299D02*
D03*
X34688Y55800D02*
D03*
X35200Y56483D02*
D03*
X35700Y55097D02*
D03*
X36200Y56525D02*
D03*
X38590Y55800D02*
D03*
X37549Y55315D02*
D03*
X38507Y54600D02*
D03*
X36700Y55229D02*
D03*
X39383Y56706D02*
D03*
X39442Y54894D02*
D03*
X41400Y54909D02*
D03*
X42028Y53789D02*
D03*
X43012Y55315D02*
D03*
X44439Y55561D02*
D03*
X44488Y54626D02*
D03*
X46000Y58205D02*
D03*
X46878Y57306D02*
D03*
X45620Y54675D02*
D03*
X44882Y54035D02*
D03*
X47293D02*
D03*
X52559Y53543D02*
D03*
X49000Y52132D02*
D03*
X49163Y55856D02*
D03*
X48228Y58218D02*
D03*
X49065Y57333D02*
D03*
X47293Y55463D02*
D03*
X48228Y54577D02*
D03*
X50197Y55217D02*
D03*
X49768Y53951D02*
D03*
X51476Y55167D02*
D03*
X52215Y55217D02*
D03*
X53367Y54400D02*
D03*
X24100Y59069D02*
D03*
X25100D02*
D03*
X26100D02*
D03*
X27100D02*
D03*
X29100D02*
D03*
X30100D02*
D03*
X31100D02*
D03*
X29100Y55331D02*
D03*
X28100D02*
D03*
X26100D02*
D03*
X25100D02*
D03*
X24100D02*
D03*
X24232Y53162D02*
D03*
X22244Y53691D02*
D03*
X22441Y51968D02*
D03*
Y50394D02*
D03*
X22392Y49557D02*
D03*
X21555Y47835D02*
D03*
X31765Y56326D02*
D03*
X30100Y55333D02*
D03*
D42*
X42717Y51772D02*
D03*
X53200Y47833D02*
D03*
X50532Y50600D02*
D03*
X39567Y49409D02*
D03*
X34301Y47785D02*
D03*
X39567Y47441D02*
D03*
X40354Y47835D02*
D03*
X40748D02*
D03*
X41929D02*
D03*
Y48228D02*
D03*
X41535D02*
D03*
X41142D02*
D03*
Y48622D02*
D03*
X41535D02*
D03*
X41929D02*
D03*
X40748Y49016D02*
D03*
X41142D02*
D03*
X41535D02*
D03*
X41929D02*
D03*
X41142Y49803D02*
D03*
X40748D02*
D03*
X40354Y51378D02*
D03*
X40748Y50984D02*
D03*
X41535Y50591D02*
D03*
Y50197D02*
D03*
X41142Y50591D02*
D03*
Y50197D02*
D03*
X41535Y49803D02*
D03*
X41929D02*
D03*
Y50197D02*
D03*
Y50591D02*
D03*
X48466Y52026D02*
D03*
X51862D02*
D03*
X49902Y50000D02*
D03*
X50328Y49918D02*
D03*
X48201Y49339D02*
D03*
X50975Y48720D02*
D03*
X51607Y48786D02*
D03*
X51870Y48720D02*
D03*
X51280D02*
D03*
X43898Y48622D02*
D03*
X44291Y47835D02*
D03*
X43898D02*
D03*
X42717D02*
D03*
X43504Y48228D02*
D03*
X43110D02*
D03*
X42717D02*
D03*
Y48622D02*
D03*
X43110D02*
D03*
X43504D02*
D03*
X43898Y49016D02*
D03*
X43504D02*
D03*
X43110D02*
D03*
X42717D02*
D03*
X44291Y51378D02*
D03*
X43898Y50984D02*
D03*
Y49803D02*
D03*
X43504Y50197D02*
D03*
Y49803D02*
D03*
X43110D02*
D03*
X42717D02*
D03*
Y50197D02*
D03*
X43110D02*
D03*
X43504Y50591D02*
D03*
X43110D02*
D03*
X42717D02*
D03*
Y50984D02*
D03*
X39075Y50197D02*
D03*
X39173Y48622D02*
D03*
X45079D02*
D03*
X45571Y50394D02*
D03*
X44685Y49409D02*
D03*
X46457Y49705D02*
D03*
X46600Y51423D02*
D03*
X49409Y51673D02*
D03*
X47343Y49606D02*
D03*
X39961Y51772D02*
D03*
X39370Y52756D02*
D03*
X41339Y52657D02*
D03*
X43307D02*
D03*
X44685Y51772D02*
D03*
X35880Y52854D02*
D03*
X34154Y52756D02*
D03*
X45472Y52165D02*
D03*
X41339Y46161D02*
D03*
X43307Y46161D02*
D03*
X41929Y46654D02*
D03*
X39173Y46260D02*
D03*
X39567Y46654D02*
D03*
X36614Y46457D02*
D03*
X45079Y46654D02*
D03*
Y52165D02*
D03*
X45472Y52559D02*
D03*
X36024Y47933D02*
D03*
X44291Y47441D02*
D03*
X44685Y46654D02*
D03*
X45472Y46260D02*
D03*
X30675Y50655D02*
D03*
X30260Y53303D02*
D03*
X27230Y52230D02*
D03*
X27264Y51280D02*
D03*
X28370Y48697D02*
D03*
X29000Y48657D02*
D03*
X56004Y52165D02*
D03*
Y50689D02*
D03*
X55893Y49200D02*
D03*
X36417Y47441D02*
D03*
X27362Y49902D02*
D03*
X27461Y50295D02*
D03*
X33366Y48032D02*
D03*
X27328Y50655D02*
D03*
X44291Y49016D02*
D03*
X49409Y50000D02*
D03*
X49508Y48425D02*
D03*
X44291Y48228D02*
D03*
X44291Y47047D02*
D03*
X38780Y46850D02*
D03*
X38583Y49705D02*
D03*
X27337Y53175D02*
D03*
X33858Y50886D02*
D03*
X29331Y51870D02*
D03*
X40354Y49409D02*
D03*
X29000Y52791D02*
D03*
X34547Y48720D02*
D03*
X36808Y51184D02*
D03*
X44685Y48228D02*
D03*
X50591D02*
D03*
X51863Y47448D02*
D03*
X44685Y48622D02*
D03*
X44685Y47835D02*
D03*
X50987Y47739D02*
D03*
X24283Y41409D02*
D03*
X24677Y41311D02*
D03*
X25071Y41213D02*
D03*
X25465Y41114D02*
D03*
X25858Y41016D02*
D03*
X26252Y40917D02*
D03*
X27039Y40819D02*
D03*
X27433Y40721D02*
D03*
X27827Y40622D02*
D03*
X28221Y40524D02*
D03*
X28614Y40425D02*
D03*
X22906Y39047D02*
D03*
X23693Y38949D02*
D03*
X24087D02*
D03*
X24480Y38949D02*
D03*
X24874D02*
D03*
X25661Y37528D02*
D03*
X26055Y37528D02*
D03*
X26449D02*
D03*
X26843D02*
D03*
X27236Y37035D02*
D03*
X27630Y36740D02*
D03*
X28417Y36445D02*
D03*
X26646Y40425D02*
D03*
X23890Y40524D02*
D03*
X23496Y40425D02*
D03*
X23299Y37626D02*
D03*
X25268Y37528D02*
D03*
X28024Y37626D02*
D03*
X28811D02*
D03*
X40748Y48622D02*
D03*
X38878Y47638D02*
D03*
X39961Y47047D02*
D03*
X40354D02*
D03*
X48793Y48819D02*
D03*
X49304Y48813D02*
D03*
X50584Y46143D02*
D03*
X50128Y46081D02*
D03*
X49803Y46100D02*
D03*
X49970Y47399D02*
D03*
X41535Y50984D02*
D03*
X40354Y50591D02*
D03*
X39961Y49409D02*
D03*
X40748Y47047D02*
D03*
X44685Y49803D02*
D03*
X43898Y50197D02*
D03*
X45079Y52657D02*
D03*
X31988Y51143D02*
D03*
X35400Y49475D02*
D03*
X35236Y50984D02*
D03*
X41929D02*
D03*
X26870Y55315D02*
D03*
X41400Y53285D02*
D03*
X24066Y50050D02*
D03*
X39000Y51700D02*
D03*
X39961Y51378D02*
D03*
D43*
X29933Y39028D02*
D03*
X21783D02*
D03*
D44*
X22906Y38240D02*
D03*
X23299D02*
D03*
X23693D02*
D03*
X24087D02*
D03*
X24480D02*
D03*
X24874D02*
D03*
X25268D02*
D03*
X25661D02*
D03*
X26055D02*
D03*
X26449D02*
D03*
X26843D02*
D03*
X27236D02*
D03*
X27630D02*
D03*
X28024D02*
D03*
X28417D02*
D03*
X23102Y39815D02*
D03*
X23496D02*
D03*
X23890D02*
D03*
X24283D02*
D03*
X24677D02*
D03*
X25071D02*
D03*
X25465D02*
D03*
X25858D02*
D03*
X26252D02*
D03*
X26646D02*
D03*
X27039D02*
D03*
X27433D02*
D03*
X27827D02*
D03*
X28221D02*
D03*
X28811Y38240D02*
D03*
X28614Y39815D02*
D03*
D45*
X41573Y49400D02*
D03*
X41062D02*
D03*
X43032Y49409D02*
D03*
X43544D02*
D03*
X41299Y51378D02*
D03*
X40787D02*
D03*
X39645Y49016D02*
D03*
X39133D02*
D03*
X37427Y55800D02*
D03*
X37938D02*
D03*
D46*
X42323Y48681D02*
D03*
Y48169D02*
D03*
X42224Y46988D02*
D03*
Y47500D02*
D03*
X44291Y50414D02*
D03*
Y50926D02*
D03*
X40750Y46616D02*
D03*
Y46105D02*
D03*
X45079Y49586D02*
D03*
Y49074D02*
D03*
X27600Y52029D02*
D03*
Y51517D02*
D03*
X50098Y47027D02*
D03*
Y46515D02*
D03*
X45000Y54944D02*
D03*
Y55456D02*
D03*
M02*
