%FSLAX24Y24*%
%MOIN*%
G70*
G01*
G75*
G04 Layer_Color=128*
G04 Layer_Color=128*
%ADD10R,0.1000X0.1400*%
%ADD11R,0.0300X0.0600*%
%ADD12R,0.0433X0.0394*%
%ADD13R,0.0630X0.0512*%
%ADD14R,0.0945X0.1024*%
%ADD15R,0.0709X0.0630*%
%ADD16R,0.1024X0.0945*%
%ADD17R,0.0630X0.0709*%
%ADD18R,0.0394X0.0433*%
%ADD19R,0.0945X0.0354*%
%ADD20R,0.1083X0.0394*%
%ADD21R,0.0787X0.0551*%
%ADD22C,0.0177*%
%ADD23R,0.0500X0.1449*%
%ADD24R,0.0177X0.0669*%
%ADD25R,0.0177X0.0669*%
%ADD26R,0.0197X0.0748*%
%ADD27R,0.0748X0.0197*%
%ADD28C,0.0300*%
%ADD29C,0.0160*%
%ADD30C,0.0060*%
%ADD31C,0.0110*%
%ADD32C,0.0120*%
%ADD33C,0.0200*%
%ADD34C,0.0100*%
%ADD35C,0.0669*%
%ADD36C,0.0433*%
%ADD37C,0.1339*%
%ADD38C,0.1339*%
%ADD39C,0.0591*%
%ADD40R,0.0591X0.0591*%
%ADD41C,0.0400*%
%ADD42C,0.0200*%
%ADD43R,0.0512X0.1339*%
%ADD44R,0.0276X0.0787*%
%ADD45R,0.0354X0.0276*%
%ADD46R,0.0276X0.0354*%
%ADD47C,0.0098*%
%ADD48C,0.0079*%
%ADD49C,0.0040*%
%ADD50C,0.0080*%
%ADD51C,0.0070*%
%ADD52C,0.0150*%
%ADD53C,0.0600*%
%ADD54R,0.0098X0.1575*%
D12*
X42383Y51400D02*
D03*
X43052D02*
D03*
X43976Y52657D02*
D03*
X44645D02*
D03*
X39153Y50689D02*
D03*
X39822D02*
D03*
X48723Y49215D02*
D03*
X49392D02*
D03*
X35817Y55800D02*
D03*
X35148D02*
D03*
X48983Y55200D02*
D03*
X49652D02*
D03*
D18*
X41400Y47417D02*
D03*
Y46748D02*
D03*
X44882Y51005D02*
D03*
Y50335D02*
D03*
X40256Y48306D02*
D03*
Y48976D02*
D03*
X35400Y49983D02*
D03*
Y50652D02*
D03*
X41400Y53665D02*
D03*
Y54335D02*
D03*
D43*
X29933Y39028D02*
D03*
X21783D02*
D03*
D44*
X22906Y38240D02*
D03*
X23299D02*
D03*
X23693D02*
D03*
X24087D02*
D03*
X24480D02*
D03*
X24874D02*
D03*
X25268D02*
D03*
X25661D02*
D03*
X26055D02*
D03*
X26449D02*
D03*
X26843D02*
D03*
X27236D02*
D03*
X27630D02*
D03*
X28024D02*
D03*
X28417D02*
D03*
X23102Y39815D02*
D03*
X23496D02*
D03*
X23890D02*
D03*
X24283D02*
D03*
X24677D02*
D03*
X25071D02*
D03*
X25465D02*
D03*
X25858D02*
D03*
X26252D02*
D03*
X26646D02*
D03*
X27039D02*
D03*
X27433D02*
D03*
X27827D02*
D03*
X28221D02*
D03*
X28811Y38240D02*
D03*
X28614Y39815D02*
D03*
D45*
X41573Y49400D02*
D03*
X41062D02*
D03*
X43032Y49409D02*
D03*
X43544D02*
D03*
X41299Y51378D02*
D03*
X40787D02*
D03*
X39645Y49016D02*
D03*
X39133D02*
D03*
X37427Y55800D02*
D03*
X37938D02*
D03*
D46*
X42323Y48681D02*
D03*
Y48169D02*
D03*
X42224Y46988D02*
D03*
Y47500D02*
D03*
X44291Y50414D02*
D03*
Y50926D02*
D03*
X40750Y46616D02*
D03*
Y46105D02*
D03*
X45079Y49586D02*
D03*
Y49074D02*
D03*
X27600Y52029D02*
D03*
Y51517D02*
D03*
X50098Y47027D02*
D03*
Y46515D02*
D03*
X45000Y54944D02*
D03*
Y55456D02*
D03*
M02*
