%FSLAX24Y24*%
%MOIN*%
G70*
G01*
G75*
G04 Layer_Physical_Order=3*
G04 Layer_Color=128*
%ADD10R,0.1000X0.1400*%
%ADD11R,0.0300X0.0600*%
%ADD12R,0.0433X0.0394*%
%ADD13R,0.0630X0.0512*%
%ADD14R,0.0945X0.1024*%
%ADD15R,0.0709X0.0630*%
%ADD16R,0.1024X0.0945*%
%ADD17R,0.0630X0.0709*%
%ADD18R,0.0394X0.0433*%
%ADD19R,0.0945X0.0354*%
%ADD20R,0.1083X0.0394*%
%ADD21R,0.0787X0.0551*%
%ADD22C,0.0177*%
%ADD23R,0.0500X0.1449*%
%ADD24R,0.0177X0.0669*%
%ADD25R,0.0177X0.0669*%
%ADD26R,0.0197X0.0748*%
%ADD27R,0.0748X0.0197*%
%ADD28C,0.0300*%
%ADD29C,0.0160*%
%ADD30C,0.0060*%
%ADD31C,0.0110*%
%ADD32C,0.0120*%
%ADD33C,0.0200*%
%ADD34C,0.0100*%
%ADD35C,0.0669*%
%ADD36C,0.0433*%
%ADD37C,0.1339*%
%ADD38C,0.1339*%
%ADD39C,0.0591*%
%ADD40R,0.0591X0.0591*%
%ADD41C,0.0400*%
%ADD42C,0.0200*%
D30*
X34547Y47785D02*
X34646Y47687D01*
X38337D01*
X34301Y47785D02*
X34547D01*
X38337Y47687D02*
X38583Y47441D01*
X39567D01*
X44094Y47638D02*
X44291Y47441D01*
X46850Y48819D02*
X47047Y48622D01*
X50689D01*
X44882Y48819D02*
X46850D01*
X44685Y48622D02*
X44882Y48819D01*
X44685Y48622D02*
Y48622D01*
X46457Y49705D02*
X46600Y49848D01*
Y51423D01*
X47343Y49606D02*
X49409Y51673D01*
X39370Y52362D02*
Y52362D01*
X35138Y53740D02*
X37992D01*
X39370Y52362D02*
X45276D01*
X37992Y53740D02*
X39370Y52362D01*
X45276D02*
X45472Y52165D01*
X44461Y51968D02*
X44475Y51982D01*
X44685Y51772D01*
X35880Y52854D02*
X38091D01*
X38976Y51968D01*
X44461D01*
X34154Y52756D02*
X35138Y53740D01*
X36024Y47933D02*
X38287D01*
X44291Y49016D02*
X47244D01*
X48228Y50000D01*
X49409D01*
X44488Y48425D02*
X49508D01*
X44291Y48228D02*
X44488Y48425D01*
X44685Y48228D02*
X50591D01*
X50689Y48622D02*
X51863Y47448D01*
X44781Y47739D02*
X50987D01*
X44685Y47835D02*
X44781Y47739D01*
X44094Y47244D02*
X44291Y47047D01*
X44882Y46850D02*
X45079Y46654D01*
X43996Y46850D02*
X44882D01*
X43799Y47047D02*
X43996Y46850D01*
X36614Y46457D02*
X37795D01*
X39764Y48622D02*
X40748D01*
X39370Y48228D02*
X39764Y48622D01*
X38386Y48032D02*
X40945D01*
X38287Y47933D02*
X38386Y48032D01*
X40945D02*
X41339Y47638D01*
X44094D01*
X38878D02*
X40945D01*
X41339Y47244D01*
X44094D01*
X39961Y47441D02*
X40748D01*
X39764Y47244D02*
X39961Y47441D01*
X38583Y47244D02*
X39764D01*
X40748Y47441D02*
X41142Y47047D01*
X37795Y46457D02*
X38583Y47244D01*
X41142Y47047D02*
X43799D01*
X39272Y45965D02*
X39961Y46654D01*
X23130Y45965D02*
X39272D01*
X18602Y41437D02*
X23130Y45965D01*
X18602Y40202D02*
Y41437D01*
X15600Y37200D02*
X18602Y40202D01*
X15600Y38200D02*
X16054D01*
X18209Y40354D01*
Y41535D01*
X22933Y46260D01*
X38780D01*
X39567Y47047D01*
X39961D01*
Y46654D02*
X39961D01*
X40354Y47047D01*
D32*
X33366Y47441D02*
X36417D01*
X30906Y49902D02*
X33366Y47441D01*
X27362Y49902D02*
X30906D01*
X27461Y50295D02*
X31102D01*
X33366Y48032D01*
X24558Y50050D02*
X25163Y50655D01*
X27328D01*
X27337Y53175D02*
X29626Y50886D01*
X33858D01*
X35236Y51378D02*
X38386Y48228D01*
X29823Y51378D02*
X35236D01*
X29331Y51870D02*
X29823Y51378D01*
X38091Y51673D02*
X40354Y49409D01*
X30118Y51673D02*
X38091D01*
X29000Y52791D02*
X30118Y51673D01*
X38386Y48228D02*
X39370D01*
X24066Y50050D02*
X24558D01*
X29100Y55331D02*
Y55576D01*
X29921Y56398D02*
X31791D01*
X30100Y55333D02*
Y55816D01*
X29720Y56196D02*
X30100Y55816D01*
X29100Y55576D02*
X29921Y56398D01*
D34*
X82600Y34800D02*
Y34200D01*
X83000D01*
X83300Y34600D02*
X83500D01*
X83600Y34500D01*
Y34200D01*
X83300D01*
X83200Y34300D01*
X83300Y34400D01*
X83600D01*
X83800Y34600D02*
Y34300D01*
X83900Y34200D01*
X84199D01*
Y34100D01*
X84100Y34000D01*
X84000D01*
X84199Y34200D02*
Y34600D01*
X84699Y34200D02*
X84499D01*
X84399Y34300D01*
Y34500D01*
X84499Y34600D01*
X84699D01*
X84799Y34500D01*
Y34400D01*
X84399D01*
X84999Y34600D02*
Y34200D01*
Y34400D01*
X85099Y34500D01*
X85199Y34600D01*
X85299D01*
X86199Y34700D02*
X86299Y34800D01*
X86499D01*
X86599Y34700D01*
Y34600D01*
X86499Y34500D01*
X86399D01*
X86499D01*
X86599Y34400D01*
Y34300D01*
X86499Y34200D01*
X86299D01*
X86199Y34300D01*
D39*
X15600Y37200D02*
D03*
Y38200D02*
D03*
D41*
X29100Y55331D02*
D03*
X31765Y56326D02*
D03*
X30100Y55333D02*
D03*
D42*
X34301Y47785D02*
D03*
X39567Y47441D02*
D03*
X46457Y49705D02*
D03*
X46600Y51423D02*
D03*
X49409Y51673D02*
D03*
X47343Y49606D02*
D03*
X44685Y51772D02*
D03*
X35880Y52854D02*
D03*
X34154Y52756D02*
D03*
X45472Y52165D02*
D03*
X36614Y46457D02*
D03*
X45079Y46654D02*
D03*
X36024Y47933D02*
D03*
X44291Y47441D02*
D03*
X36417D02*
D03*
X27362Y49902D02*
D03*
X27461Y50295D02*
D03*
X33366Y48032D02*
D03*
X27328Y50655D02*
D03*
X44291Y49016D02*
D03*
X49409Y50000D02*
D03*
X49508Y48425D02*
D03*
X44291Y48228D02*
D03*
X44291Y47047D02*
D03*
X27337Y53175D02*
D03*
X33858Y50886D02*
D03*
X29331Y51870D02*
D03*
X40354Y49409D02*
D03*
X29000Y52791D02*
D03*
X44685Y48228D02*
D03*
X50591D02*
D03*
X51863Y47448D02*
D03*
X44685Y48622D02*
D03*
X44685Y47835D02*
D03*
X50987Y47739D02*
D03*
X40748Y48622D02*
D03*
X38878Y47638D02*
D03*
X39961Y47047D02*
D03*
X40354D02*
D03*
X24066Y50050D02*
D03*
M02*
