%FSLAX24Y24*%
%MOIN*%
G70*
G01*
G75*
G04 Layer_Color=8421504*
G04 Layer_Color=8421504*
%ADD10R,0.1000X0.1400*%
%ADD11R,0.0300X0.0600*%
%ADD12R,0.0433X0.0394*%
%ADD13R,0.0630X0.0512*%
%ADD14R,0.0945X0.1024*%
%ADD15R,0.0709X0.0630*%
%ADD16R,0.1024X0.0945*%
%ADD17R,0.0630X0.0709*%
%ADD18R,0.0394X0.0433*%
%ADD19R,0.0945X0.0354*%
%ADD20R,0.1083X0.0394*%
%ADD21R,0.0787X0.0551*%
%ADD22C,0.0177*%
%ADD23R,0.0500X0.1449*%
%ADD24R,0.0177X0.0669*%
%ADD25R,0.0177X0.0669*%
%ADD26R,0.0197X0.0748*%
%ADD27R,0.0748X0.0197*%
%ADD28C,0.0300*%
%ADD29C,0.0160*%
%ADD30C,0.0060*%
%ADD31C,0.0110*%
%ADD32C,0.0120*%
%ADD33C,0.0200*%
%ADD34C,0.0100*%
%ADD35C,0.0669*%
%ADD36C,0.0433*%
%ADD37C,0.1339*%
%ADD38C,0.1339*%
%ADD39C,0.0591*%
%ADD40R,0.0591X0.0591*%
%ADD41C,0.0400*%
%ADD42C,0.0200*%
%ADD43R,0.0512X0.1339*%
%ADD44R,0.0276X0.0787*%
%ADD45R,0.0354X0.0276*%
%ADD46R,0.0276X0.0354*%
%ADD47C,0.0098*%
%ADD48C,0.0079*%
%ADD49C,0.0040*%
%ADD50C,0.0080*%
%ADD51C,0.0070*%
%ADD52C,0.0150*%
%ADD53C,0.0600*%
%ADD54R,0.0098X0.1575*%
D10*
X36200Y57769D02*
D03*
X51200D02*
D03*
X43000Y56368D02*
D03*
D11*
X35700Y55800D02*
D03*
X37200D02*
D03*
X35200D02*
D03*
X36700D02*
D03*
X36200D02*
D03*
X51200D02*
D03*
X51700D02*
D03*
X50200D02*
D03*
X52200D02*
D03*
X50700D02*
D03*
X43000Y54400D02*
D03*
X43500D02*
D03*
X42000D02*
D03*
X44000D02*
D03*
X42500D02*
D03*
D12*
X35535Y53200D02*
D03*
X34865D02*
D03*
X33065D02*
D03*
X33735D02*
D03*
X35735Y47400D02*
D03*
X35065D02*
D03*
X37065D02*
D03*
X37735D02*
D03*
X33265D02*
D03*
X33935D02*
D03*
X36665Y53200D02*
D03*
X37335D02*
D03*
X51735Y50600D02*
D03*
X51065D02*
D03*
D13*
X51200Y52026D02*
D03*
Y52774D02*
D03*
X47800Y52026D02*
D03*
Y52774D02*
D03*
D14*
X48200Y55494D02*
D03*
Y57306D02*
D03*
X40200Y54894D02*
D03*
Y56706D02*
D03*
X46000Y55494D02*
D03*
Y57306D02*
D03*
X33400Y56294D02*
D03*
Y58106D02*
D03*
D15*
X49000Y53951D02*
D03*
Y52849D02*
D03*
D16*
X50694Y54400D02*
D03*
X52506D02*
D03*
X38894Y58400D02*
D03*
X40706D02*
D03*
D17*
X45449Y54000D02*
D03*
X46551D02*
D03*
X36849Y54600D02*
D03*
X37951D02*
D03*
D18*
X52600Y49665D02*
D03*
Y50335D02*
D03*
X53200Y49135D02*
D03*
Y48465D02*
D03*
X50000Y52065D02*
D03*
Y52735D02*
D03*
X46600Y52065D02*
D03*
Y52735D02*
D03*
D19*
X55200Y49200D02*
D03*
Y49700D02*
D03*
Y50200D02*
D03*
Y50700D02*
D03*
Y51200D02*
D03*
Y51700D02*
D03*
Y52200D02*
D03*
D20*
X21563Y53162D02*
D03*
X23237D02*
D03*
X21563Y52375D02*
D03*
Y51587D02*
D03*
Y50800D02*
D03*
Y50013D02*
D03*
Y49225D02*
D03*
Y48438D02*
D03*
X23237Y52375D02*
D03*
Y51587D02*
D03*
Y50800D02*
D03*
Y50013D02*
D03*
Y49225D02*
D03*
Y48438D02*
D03*
D21*
X34550Y49184D02*
D03*
Y51184D02*
D03*
X36203D02*
D03*
Y49184D02*
D03*
D22*
X42520Y46457D02*
D03*
Y46850D02*
D03*
X42913Y46457D02*
D03*
Y46850D02*
D03*
X43307D02*
D03*
X43701Y46457D02*
D03*
Y46850D02*
D03*
X44094Y46457D02*
D03*
Y46850D02*
D03*
X44488Y46457D02*
D03*
Y46850D02*
D03*
X44882Y46457D02*
D03*
X41732D02*
D03*
X42126D02*
D03*
X40945D02*
D03*
X41339Y46850D02*
D03*
X41732D02*
D03*
X39764Y46457D02*
D03*
X40157D02*
D03*
Y46850D02*
D03*
X40551Y46457D02*
D03*
Y46850D02*
D03*
X40945D02*
D03*
X45276Y52362D02*
D03*
X44882D02*
D03*
X44488D02*
D03*
X44094D02*
D03*
X43701D02*
D03*
X43307D02*
D03*
X42913D02*
D03*
X42520D02*
D03*
X42126D02*
D03*
X41732D02*
D03*
X41339D02*
D03*
X40945D02*
D03*
X40551D02*
D03*
X40157D02*
D03*
X39764D02*
D03*
X39370D02*
D03*
X45276Y51969D02*
D03*
X44882D02*
D03*
X44488D02*
D03*
X44094D02*
D03*
X43701D02*
D03*
X43307D02*
D03*
X42913D02*
D03*
X42520D02*
D03*
X42126D02*
D03*
X41732D02*
D03*
X41339D02*
D03*
X40945D02*
D03*
X40551D02*
D03*
X40157D02*
D03*
X39764D02*
D03*
X45276Y51575D02*
D03*
X44882D02*
D03*
X44488D02*
D03*
X44094D02*
D03*
X43701D02*
D03*
X43307D02*
D03*
X42913D02*
D03*
X42520D02*
D03*
X42126D02*
D03*
X41732D02*
D03*
X41339D02*
D03*
X40945D02*
D03*
X40551D02*
D03*
X39764D02*
D03*
X39370D02*
D03*
X45276Y51181D02*
D03*
X44882D02*
D03*
X44488D02*
D03*
X44094D02*
D03*
X43701D02*
D03*
X43307D02*
D03*
X42913D02*
D03*
X42520D02*
D03*
X42126D02*
D03*
X41732D02*
D03*
X41339D02*
D03*
X40945D02*
D03*
X40551D02*
D03*
X39764D02*
D03*
X39370D02*
D03*
X45276Y50787D02*
D03*
X44882D02*
D03*
X44488D02*
D03*
X44094D02*
D03*
X43701D02*
D03*
X43307D02*
D03*
X42913D02*
D03*
X42520D02*
D03*
X42126D02*
D03*
X41732D02*
D03*
X41339D02*
D03*
X40945D02*
D03*
X40551D02*
D03*
X40157D02*
D03*
X39764D02*
D03*
X39370D02*
D03*
X45276Y50394D02*
D03*
X44882D02*
D03*
X44488D02*
D03*
X44094D02*
D03*
X43701D02*
D03*
X43307D02*
D03*
X42913D02*
D03*
X42520D02*
D03*
X42126D02*
D03*
X41732D02*
D03*
X41339D02*
D03*
X40945D02*
D03*
X40551D02*
D03*
X40157D02*
D03*
X39764D02*
D03*
X39370D02*
D03*
X45276Y50000D02*
D03*
X44882D02*
D03*
X44488D02*
D03*
X44094D02*
D03*
X43701D02*
D03*
X43307D02*
D03*
X42913D02*
D03*
X42520D02*
D03*
X42126D02*
D03*
X41732D02*
D03*
X41339D02*
D03*
X40945D02*
D03*
X40551D02*
D03*
X40157D02*
D03*
X39764D02*
D03*
X39370D02*
D03*
X45276Y49606D02*
D03*
X44882D02*
D03*
X44488D02*
D03*
X44094D02*
D03*
X43701D02*
D03*
X43307D02*
D03*
X42913D02*
D03*
X42520D02*
D03*
X42126D02*
D03*
X41732D02*
D03*
X41339D02*
D03*
X40945D02*
D03*
X40551D02*
D03*
X40157D02*
D03*
X39764D02*
D03*
X39370D02*
D03*
X45276Y49213D02*
D03*
X44882D02*
D03*
X44488D02*
D03*
X44094D02*
D03*
X43701D02*
D03*
X43307D02*
D03*
X42913D02*
D03*
X42520D02*
D03*
X42126D02*
D03*
X41732D02*
D03*
X41339D02*
D03*
X40945D02*
D03*
X40551D02*
D03*
X40157D02*
D03*
X39764D02*
D03*
X39370D02*
D03*
X45276Y48819D02*
D03*
X44882D02*
D03*
X44488D02*
D03*
X44094D02*
D03*
X43701D02*
D03*
X43307D02*
D03*
X42913D02*
D03*
X42520D02*
D03*
X42126D02*
D03*
X41732D02*
D03*
X41339D02*
D03*
X40945D02*
D03*
X40551D02*
D03*
X40157D02*
D03*
X39764D02*
D03*
X39370D02*
D03*
X45276Y48425D02*
D03*
X44882D02*
D03*
X44488D02*
D03*
X44094D02*
D03*
X43701D02*
D03*
X43307D02*
D03*
X42913D02*
D03*
X42520D02*
D03*
X42126D02*
D03*
X41732D02*
D03*
X41339D02*
D03*
X40945D02*
D03*
X40551D02*
D03*
X40157D02*
D03*
X39764D02*
D03*
X39370D02*
D03*
X45276Y48032D02*
D03*
X44882D02*
D03*
X44488D02*
D03*
X44094D02*
D03*
X43701D02*
D03*
X43307D02*
D03*
X42913D02*
D03*
X42520D02*
D03*
X42126D02*
D03*
X41732D02*
D03*
X41339D02*
D03*
X40945D02*
D03*
X40551D02*
D03*
X40157D02*
D03*
X39764D02*
D03*
X39370D02*
D03*
X45276Y47638D02*
D03*
X44882D02*
D03*
X44488D02*
D03*
X44094D02*
D03*
X43701D02*
D03*
X43307D02*
D03*
X42913D02*
D03*
X42520D02*
D03*
X42126D02*
D03*
X41732D02*
D03*
X41339D02*
D03*
X40945D02*
D03*
X40551D02*
D03*
X40157D02*
D03*
X39764D02*
D03*
X39370D02*
D03*
X45276Y47244D02*
D03*
X44882D02*
D03*
X44488D02*
D03*
X44094D02*
D03*
X43701D02*
D03*
X43307D02*
D03*
X42913D02*
D03*
X42520D02*
D03*
X42126D02*
D03*
X41732D02*
D03*
X41339D02*
D03*
X40945D02*
D03*
X40551D02*
D03*
X40157D02*
D03*
X39764D02*
D03*
X39370D02*
D03*
X45276Y46850D02*
D03*
X44882D02*
D03*
X42126D02*
D03*
X39764D02*
D03*
X39370D02*
D03*
X45276Y46457D02*
D03*
X43307D02*
D03*
X41339D02*
D03*
X39370D02*
D03*
X40157Y51575D02*
D03*
Y51181D02*
D03*
X39370Y51969D02*
D03*
D23*
X31100Y56326D02*
D03*
Y58074D02*
D03*
X30100Y56326D02*
D03*
Y58074D02*
D03*
X29100Y56326D02*
D03*
Y58074D02*
D03*
X28100Y56326D02*
D03*
Y58074D02*
D03*
X27100Y56326D02*
D03*
Y58074D02*
D03*
X26100Y56326D02*
D03*
Y58074D02*
D03*
X25100Y56326D02*
D03*
Y58074D02*
D03*
X24100Y56326D02*
D03*
Y58074D02*
D03*
D24*
X48537Y46661D02*
D03*
X48793D02*
D03*
X49048D02*
D03*
X49304D02*
D03*
X49560D02*
D03*
X49816D02*
D03*
X50072D02*
D03*
X50328D02*
D03*
X50584D02*
D03*
X50840D02*
D03*
X51096D02*
D03*
X51352D02*
D03*
X51607D02*
D03*
X51863D02*
D03*
X48537Y49339D02*
D03*
X48793D02*
D03*
X49048D02*
D03*
X49304D02*
D03*
X49560D02*
D03*
X49816D02*
D03*
X50072D02*
D03*
X50328D02*
D03*
X50584D02*
D03*
X50840D02*
D03*
X51096D02*
D03*
X51352D02*
D03*
X51607D02*
D03*
D25*
X51863D02*
D03*
D26*
X30575Y53943D02*
D03*
X30260D02*
D03*
X29945D02*
D03*
X29630D02*
D03*
X29315D02*
D03*
X29000D02*
D03*
X28685D02*
D03*
X28370D02*
D03*
X28055D02*
D03*
X27740D02*
D03*
X27425D02*
D03*
X30575Y49257D02*
D03*
X30260D02*
D03*
X29945D02*
D03*
X29630D02*
D03*
X29315D02*
D03*
X29000D02*
D03*
X28685D02*
D03*
X28370D02*
D03*
X28055D02*
D03*
X27740D02*
D03*
X27425D02*
D03*
D27*
X31343Y50025D02*
D03*
Y50340D02*
D03*
Y50655D02*
D03*
Y50970D02*
D03*
Y51285D02*
D03*
Y51600D02*
D03*
Y51915D02*
D03*
Y52230D02*
D03*
Y52545D02*
D03*
Y52860D02*
D03*
Y53175D02*
D03*
X26657Y50025D02*
D03*
Y50340D02*
D03*
Y50655D02*
D03*
Y50970D02*
D03*
Y51285D02*
D03*
Y51600D02*
D03*
Y51915D02*
D03*
Y52230D02*
D03*
Y52545D02*
D03*
Y52860D02*
D03*
Y53175D02*
D03*
M02*
