<?xml version="1.0" encoding="UTF-8" standalone="no"?>
<!-- Created with Inkscape (http://www.inkscape.org/) -->
<svg
   xmlns:dc="http://purl.org/dc/elements/1.1/"
   xmlns:cc="http://web.resource.org/cc/"
   xmlns:rdf="http://www.w3.org/1999/02/22-rdf-syntax-ns#"
   xmlns:svg="http://www.w3.org/2000/svg"
   xmlns="http://www.w3.org/2000/svg"
   xmlns:sodipodi="http://sodipodi.sourceforge.net/DTD/sodipodi-0.dtd"
   xmlns:inkscape="http://www.inkscape.org/namespaces/inkscape"
   sodipodi:docname="data.acquire.svg"
   sodipodi:docbase="/home/jonas/soma/somabackplane/network"
   inkscape:version="0.44"
   sodipodi:version="0.32"
   id="svg1996"
   height="792.00000pt"
   width="612.00000pt">
  <defs
     id="defs3">
    <marker
       inkscape:stockid="TriangleInM"
       orient="auto"
       refY="0.0"
       refX="0.0"
       id="TriangleInM"
       style="overflow:visible;">
      <path
         sodipodi:nodetypes="cccc"
         id="path1545"
         d="M 5.77,0.0 L -2.88,5.0 L -2.88,-5.0 L 5.77,0.0 z "
         style="fill-rule:evenodd;stroke:#000000;stroke-width:1.0pt;marker-start:none;"
         transform="scale(-0.4)" />
    </marker>
    <marker
       inkscape:stockid="TriangleOutM"
       orient="auto"
       refY="0.0"
       refX="0.0"
       id="TriangleOutM"
       style="overflow:visible;">
      <path
         sodipodi:nodetypes="cccc"
         id="path1698"
         d="M 5.77,0.0 L -2.88,5.0 L -2.88,-5.0 L 5.77,0.0 z "
         style="fill-rule:evenodd;stroke:#000000;stroke-width:1.0pt;marker-start:none;"
         transform="scale(0.4)" />
    </marker>
  </defs>
  <sodipodi:namedview
     inkscape:window-y="476"
     inkscape:window-x="587"
     inkscape:window-height="682"
     inkscape:window-width="930"
     guidetolerance="2.5000000pt"
     inkscape:grid-bbox="false"
     gridtolerance="10000"
     gridoriginx="0.0000000pt"
     gridoriginy="0.0000000pt"
     gridspacingx="2.5000000pt"
     gridspacingy="2.5000000pt"
     inkscape:grid-points="true"
     showgrid="true"
     inkscape:current-layer="layer1"
     inkscape:document-units="pt"
     inkscape:cy="421.43006"
     inkscape:cx="480.42311"
     inkscape:zoom="0.49497475"
     inkscape:pageshadow="2"
     inkscape:pageopacity="0.0"
     borderopacity="1.0"
     bordercolor="#666666"
     pagecolor="#ffffff"
     id="base"
     showguides="true"
     inkscape:guide-bbox="true"
     inkscape:object-paths="false" />
  <metadata
     id="metadata4">
    <rdf:RDF>
      <cc:Work
         rdf:about="">
        <dc:format>image/svg+xml</dc:format>
        <dc:type
           rdf:resource="http://purl.org/dc/dcmitype/StillImage" />
      </cc:Work>
    </rdf:RDF>
  </metadata>
  <g
     id="layer1"
     inkscape:groupmode="layer"
     inkscape:label="Layer 1">
    <g
       transform="translate(228.125,15.69254)"
       id="g1784">
      <rect
         y="430.625"
         x="68.68132"
         height="50.036339"
         width="50.06868"
         id="rect1024"
         style="fill:white;fill-rule:evenodd;stroke:black;stroke-width:1pt" />
      <text
         sodipodi:linespacing="100%"
         id="text1706"
         y="427.43246"
         x="93.872253"
         style="font-size:8px;line-height:100%;text-anchor:middle;stroke-width:1pt;font-family:Bitstream Vera Sans"
         xml:space="preserve"><tspan
           id="tspan1707">10-bit counter</tspan></text>
      <text
         sodipodi:linespacing="100%"
         id="text1709"
         y="461.51956"
         x="93.667191"
         style="font-size:20px;line-height:100%;text-anchor:middle;stroke-width:1pt;font-family:Bitstream Vera Sans"
         xml:space="preserve"><tspan
           id="tspan1710">i++</tspan></text>
      <path
         id="path1712"
         d="M 68.75,468.125 L 75,474.375 L 68.75,480.625"
         style="fill:none;fill-opacity:0.75;fill-rule:evenodd;stroke:black;stroke-width:1pt;stroke-linecap:butt;stroke-linejoin:miter;stroke-opacity:1" />
      <text
         sodipodi:linespacing="100%"
         id="text1713"
         y="442.67761"
         x="71.268555"
         style="font-size:10px;line-height:100%;stroke-width:1pt;font-family:Bitstream Vera Sans"
         xml:space="preserve"><tspan
           id="tspan1714">R</tspan></text>
      <text
         sodipodi:linespacing="100%"
         id="text1721"
         y="442.67761"
         x="108.76855"
         style="font-size:10px;line-height:100%;stroke-width:1pt;font-family:Bitstream Vera Sans"
         xml:space="preserve"><tspan
           id="tspan1724"
           sodipodi:role="line"
           y="442.67761"
           x="108.76855">D</tspan></text>
      <text
         sodipodi:linespacing="100%"
         id="text1726"
         y="477.05261"
         x="99.393547"
         style="font-size:10px;line-height:100%;stroke-width:1pt;font-family:Bitstream Vera Sans"
         xml:space="preserve"><tspan
           id="tspan1729"
           sodipodi:role="line"
           y="477.05261"
           x="99.393547">EN</tspan></text>
    </g>
    <g
       transform="translate(390.625,221.875)"
       id="g2728">
      <rect
         y="343.125"
         x="77.8992"
         height="50.096931"
         width="28.350792"
         id="rect1767"
         style="fill:white;fill-rule:evenodd;stroke:black;stroke-width:1.17443275" />
      <text
         sodipodi:linespacing="100%"
         id="text1651"
         y="390.89999"
         x="96.335358"
         style="font-size:10px;line-height:100%;text-anchor:middle;stroke-width:1pt;font-family:Bitstream Vera Sans"
         xml:space="preserve"><tspan
           id="tspan1652">EN</tspan></text>
      <text
         transform="scale(3.384064,3.384064)"
         sodipodi:linespacing="100%"
         id="text1768"
         y="106.56478"
         x="23.410166"
         style="font-size:4px;line-height:100%;stroke-width:0.36937839;font-family:Bitstream Vera Sans"
         xml:space="preserve"><tspan
           id="tspan1769">D</tspan></text>
      <text
         transform="scale(3.384064,3.384064)"
         sodipodi:linespacing="100%"
         id="text1771"
         y="106.58192"
         x="30.771975"
         style="font-size:4px;line-height:100%;text-anchor:end;stroke-width:0.36937839;font-family:Bitstream Vera Sans"
         xml:space="preserve"><tspan
           id="tspan1772">Q</tspan></text>
      <path
         id="path1774"
         d="M 78.125,393.125 L 84.375,386.875 L 78.125,380.625"
         style="fill:none;fill-opacity:0.75;fill-rule:evenodd;stroke:black;stroke-width:1pt" />
    </g>
    <g
       id="g2869"
       transform="matrix(-0.5,0,0,0.5,406.25,460.625)">
      <path
         d="M 146.875 108.75 A 3.125 3.125 0 1 1  140.625,108.75 A 3.125 3.125 0 1 1  146.875 108.75 z"
         sodipodi:ry="3.125"
         sodipodi:rx="3.125"
         sodipodi:cy="108.75"
         sodipodi:cx="143.75"
         id="path2865"
         style="fill:black;fill-opacity:1;fill-rule:evenodd;stroke:none;stroke-width:1.25;stroke-miterlimit:3.9000001;stroke-dasharray:none;stroke-opacity:1"
         sodipodi:type="arc" />
      <rect
         y="102.5"
         x="137.5"
         height="12.5"
         width="12.5"
         id="rect2867"
         style="fill:none;fill-opacity:1;fill-rule:evenodd;stroke:none;stroke-width:1.25;stroke-miterlimit:3.9000001;stroke-dasharray:none;stroke-opacity:1" />
    </g>
    <text
       xml:space="preserve"
       style="font-size:11px;font-style:normal;font-variant:normal;font-weight:normal;font-stretch:normal;text-align:start;line-height:125%;writing-mode:lr-tb;text-anchor:start;fill:black;fill-opacity:1;stroke:none;stroke-width:1px;stroke-linecap:butt;stroke-linejoin:miter;stroke-opacity:1;font-family:Bitstream Vera Sans"
       x="312.5"
       y="677.5"
       id="text2804"
       sodipodi:linespacing="125%"><tspan
         sodipodi:role="line"
         id="tspan2806"
         x="312.5"
         y="677.5">ECYCLE</tspan></text>
    <text
       xml:space="preserve"
       style="font-size:11px;font-style:normal;font-variant:normal;font-weight:normal;font-stretch:normal;text-align:end;line-height:125%;writing-mode:lr-tb;text-anchor:end;fill:black;fill-opacity:1;stroke:none;stroke-width:1px;stroke-linecap:butt;stroke-linejoin:miter;stroke-opacity:1;font-family:Bitstream Vera Sans"
       x="276.89844"
       y="518.125"
       id="text2808"
       sodipodi:linespacing="125%"><tspan
         sodipodi:role="line"
         id="tspan2810"
         x="276.89844"
         y="518.125">DIEN</tspan></text>
    <text
       xml:space="preserve"
       style="font-size:11px;font-style:normal;font-variant:normal;font-weight:normal;font-stretch:normal;text-align:end;line-height:125%;writing-mode:lr-tb;text-anchor:end;fill:black;fill-opacity:1;stroke:none;stroke-width:1px;stroke-linecap:butt;stroke-linejoin:miter;stroke-opacity:1;font-family:Bitstream Vera Sans"
       x="277.50586"
       y="424.375"
       id="text2812"
       sodipodi:linespacing="125%"><tspan
         sodipodi:role="line"
         id="tspan2814"
         x="277.50586"
         y="424.375">DIN[7:0]</tspan></text>
    <text
       xml:space="preserve"
       style="font-size:11px;font-style:normal;font-variant:normal;font-weight:normal;font-stretch:normal;text-align:start;line-height:125%;writing-mode:lr-tb;text-anchor:start;fill:black;fill-opacity:1;stroke:none;stroke-width:1px;stroke-linecap:butt;stroke-linejoin:miter;stroke-opacity:1;font-family:Bitstream Vera Sans"
       x="581.25"
       y="424.375"
       id="text2824"
       sodipodi:linespacing="125%"><tspan
         sodipodi:role="line"
         id="tspan2826"
         x="581.25"
         y="424.375">DOUT[15:0]</tspan></text>
    <text
       xml:space="preserve"
       style="font-size:11px;font-style:normal;font-variant:normal;font-weight:normal;font-stretch:normal;text-align:start;line-height:125%;writing-mode:lr-tb;text-anchor:start;fill:black;fill-opacity:1;stroke:none;stroke-width:1px;stroke-linecap:butt;stroke-linejoin:miter;stroke-opacity:1;font-family:Bitstream Vera Sans"
       x="584.375"
       y="518.125"
       id="text2828"
       sodipodi:linespacing="125%"><tspan
         sodipodi:role="line"
         id="tspan2830"
         x="584.375"
         y="518.125">ADDR[8:0]</tspan></text>
    <text
       xml:space="preserve"
       style="font-size:11px;font-style:normal;font-variant:normal;font-weight:normal;font-stretch:normal;text-align:start;line-height:125%;writing-mode:lr-tb;text-anchor:start;fill:black;fill-opacity:1;stroke:none;stroke-width:1px;stroke-linecap:butt;stroke-linejoin:miter;stroke-opacity:1;font-family:Bitstream Vera Sans"
       x="584.375"
       y="580.625"
       id="text2832"
       sodipodi:linespacing="125%"><tspan
         sodipodi:role="line"
         id="tspan2834"
         x="584.375"
         y="580.625">LEN[9:0]</tspan></text>
    <path
       style="fill:white;fill-opacity:1;fill-rule:evenodd;stroke:black;stroke-width:1.25000083;stroke-miterlimit:4;stroke-dasharray:none;stroke-dashoffset:0;stroke-opacity:1"
       d="M 418.75,412.03885 C 460.37516,412.03885 502.00033,412.03885 543.62549,412.03885 C 543.62549,455.79614 543.62549,499.55344 543.62549,543.31073 C 502.00033,543.31073 460.37516,543.31073 418.75,543.31073 C 418.75,499.55344 418.75,455.79614 418.75,412.03885 z "
       id="rect3083" />
    <path
       style="font-size:14px;font-style:normal;font-variant:normal;font-weight:normal;font-stretch:normal;text-align:start;line-height:121.00000381%;writing-mode:lr-tb;text-anchor:start;fill:black;fill-opacity:1;stroke:none;stroke-width:1px;stroke-linecap:butt;stroke-linejoin:miter;stroke-opacity:1;font-family:Bitstream Vera Sans"
       d="M 421.50488,403.87598 C 420.34586,407.29218 423.1378,409.14382 425.77221,406.57105 C 426.75064,403.48558 423.39269,403.86267 421.50488,403.87598 z M 421.50488,399.67871 C 419.62151,403.40078 425.75694,404.06963 425.427,400.54175 C 424.63108,399.19321 422.78736,399.83012 421.50488,399.67871 z M 420.12402,398.54395 C 424.80129,397.14904 428.18858,401.54152 426.12084,403.58545 C 430.88555,407.52478 421.60987,410.53603 420.12402,407.9788 C 420.12402,404.83385 420.12402,401.6889 420.12402,398.54395 z M 429.66699,398.11328 C 432.27763,397.84992 430.32015,402.15467 430.9248,403.89728 C 431.06768,405.36133 431.14557,410.68268 429.66699,407.9788 C 429.66699,404.69029 429.66699,401.40179 429.66699,398.11328 z M 436.5166,401.97559 C 430.50986,403.33832 438.09466,412.22282 438.69727,404.92871 C 438.78232,403.64179 438.0534,401.90817 436.5166,401.97559 z M 436.5166,400.90918 C 445.93999,402.59411 434.10227,415.07304 433.00293,404.92871 C 432.86414,402.9232 434.27718,400.71797 436.5166,400.90918 z M 447.61816,401.3877 C 447.80952,403.54716 440.74404,400.89311 443.05688,406.17456 C 443.96285,408.8958 451.20491,407.13883 445.32812,408.94824 C 438.66516,408.6016 441.66581,398.18819 447.61816,401.3877 z M 449.77148,398.11328 C 452.39041,397.8439 450.43211,402.15176 451.03613,403.89728 C 452.04529,404.65635 454.1062,400.16291 456.33146,401.09375 C 455.79738,402.47859 451.15184,403.96211 453.16828,405.47813 C 454.27297,406.60987 458.34889,409.80627 454.6478,408.48277 C 453.09987,407.28865 450.26593,403.07437 451.03613,407.32434 C 450.40592,411.14337 449.15237,406.32615 449.77148,404.5084 C 449.77148,402.37669 449.77148,400.24499 449.77148,398.11328 z M 462.83496,403.96484 C 464.86029,404.6789 467.07957,411.32043 463.94566,407.71479 C 463.73376,404.77503 458.31238,402.52927 459.37598,406.75012 C 459.71939,410.69768 456.94327,407.80741 457.99512,405.2796 C 458.26743,403.17816 457.45942,399.9964 458.38072,398.54395 C 461.97322,397.73937 467.81511,400.53664 462.83496,403.96484 z M 459.37598,399.67871 C 457.88318,403.09896 461.82695,405.13089 463.12891,401.4834 C 463.22242,399.32331 460.79685,399.70272 459.37598,399.67871 z M 471.14062,399.9043 C 471.13168,401.52674 467.60049,405.60439 470.80998,404.9834 C 474.63194,405.96792 471.65763,402.22104 471.28052,400.28227 L 471.14668,399.92065 L 471.14062,399.9043 z M 470.36133,398.54395 C 473.12174,397.90664 472.64633,401.9654 473.84926,403.58841 C 473.88172,405.20921 477.38824,409.22381 474.38086,408.75 C 474.33271,405.50417 471.60825,406.0487 469.20957,406.13184 C 468.78674,408.18649 465.47619,410.34454 467.29004,406.58857 C 468.3138,403.90703 469.33757,401.22549 470.36133,398.54395 z M 477.2998,398.54395 C 480.31764,397.59009 480.02564,401.4123 481.11753,403.23758 C 481.93874,407.55445 482.7676,402.98476 483.5941,401.15949 C 483.28765,398.49633 487.49981,397.11225 486.6377,400.47194 C 486.6377,403.2313 486.6377,405.99065 486.6377,408.75 C 483.92036,409.09045 485.88683,404.74708 485.29102,402.966 C 485.61935,398.81511 484.90653,400.39187 483.93399,403.39741 C 483.77602,405.69552 481.30922,408.72626 480.59297,404.98342 C 479.96515,403.89385 478.4288,397.80626 478.63965,401.33049 C 478.63965,403.80366 478.63965,406.27683 478.63965,408.75 C 475.93043,409.0846 477.89634,404.74408 477.2998,402.966 C 477.2998,401.49198 477.2998,400.01796 477.2998,398.54395 z "
       id="text3085" />
    <path
       style="font-size:9px;font-style:normal;font-variant:normal;font-weight:normal;font-stretch:normal;text-align:start;line-height:121.00000381%;writing-mode:lr-tb;text-anchor:start;fill:black;fill-opacity:1;stroke:none;stroke-width:1px;stroke-linecap:butt;stroke-linejoin:miter;stroke-opacity:1;font-family:Bitstream Vera Sans"
       d="M 423.646,418.54346 C 423.74852,420.93649 422.60151,425.77034 426.70459,423.03027 C 428.55709,420.567 426.48602,417.87068 423.646,418.54346 z M 422.7583,417.81396 C 429.27383,415.88052 429.85883,426.06513 423.03963,424.375 C 422.3933,422.81163 422.93939,419.85549 422.7583,417.81396 z M 429.68408,417.81396 C 431.6778,418.17268 430.03841,422.1645 430.57178,423.98356 C 428.94833,425.31396 429.9563,420.33387 429.68408,418.9766 C 429.68408,418.58906 429.68408,418.20151 429.68408,417.81396 z M 434.53125,418.68848 C 432.29531,420.85741 434.62216,423.56649 435.47206,421.23036 C 435.15845,420.38307 434.84485,419.53577 434.53125,418.68848 z M 434.03027,417.81396 C 436.28563,418.01225 436.02859,421.8567 437.23377,423.57907 C 437.3192,425.82664 435.38285,421.00417 433.05908,422.69189 C 431.38765,426.63657 431.78143,422.19437 433.03825,420.41237 C 433.36892,419.54624 433.6996,418.6801 434.03027,417.81396 z M 438.38086,417.53711 C 442.04364,417.13761 437.90377,418.94163 439.18945,421.63593 C 437.90839,424.30696 442.05901,425.92931 438.38086,425.56152 C 438.38086,422.88672 438.38086,420.21191 438.38086,417.53711 z M 441.86133,417.81396 C 444.53766,417.55578 447.39652,417.50047 445.1098,420.71067 C 445.00837,422.66446 442.00731,426.48669 443.46447,422.57604 C 444.34886,420.3674 446.17158,417.51486 442.31301,418.56104 C 441.61695,418.85751 441.93116,418.14371 441.86133,417.81396 z M 447.9082,423.25879 C 450.49574,422.87329 447.45072,426.20697 447.9082,423.25879 z M 447.9082,419.72119 C 450.49574,419.33569 447.45072,422.66937 447.9082,419.72119 z M 452.75537,418.39844 C 448.64611,419.86496 453.95867,427.48297 454.13525,421.10107 C 454.10776,420.18187 454.07879,418.43131 452.75537,418.39844 z M 452.75537,417.69531 C 459.18235,419.32167 450.97959,429.43537 450.48779,421.10107 C 450.40349,419.71131 450.97173,417.60585 452.75537,417.69531 z M 458.36279,417.53711 C 458.36279,420.21191 458.36279,422.88672 458.36279,425.56152 C 454.7037,425.96356 458.83214,424.15341 457.5498,421.46271 C 458.89325,418.56165 454.46881,417.11435 458.36279,417.53711 z "
       id="text3152" />
    <path
       style="font-size:9px;font-style:normal;font-variant:normal;font-weight:normal;font-stretch:normal;text-align:start;line-height:121.00000381%;writing-mode:lr-tb;text-anchor:start;fill:black;fill-opacity:1;stroke:none;stroke-width:1px;stroke-linecap:butt;stroke-linejoin:miter;stroke-opacity:1;font-family:Bitstream Vera Sans"
       d="M 422.17383,511.56396 C 424.25564,511.40634 423.57951,516.72022 424.54302,516.7356 C 425.13233,515.37976 425.38197,509.87522 427.00945,512.31235 C 427.59334,514.10836 428.1785,519.30518 428.76007,514.8643 C 428.81021,511.84573 431.30327,510.26625 429.82195,514.18185 C 429.80634,516.32734 427.89566,520.37886 427.25998,516.25154 C 426.70823,513.29402 426.15548,511.25564 425.59594,515.42562 C 425.60615,519.09176 423.02173,518.37141 423.06779,515.13266 C 422.76981,513.94309 422.47182,512.75353 422.17383,511.56396 z M 431.65283,511.56396 C 434.05646,511.02423 437.96474,512.37041 433.48767,512.31104 C 430.35387,513.54795 434.5665,514.61537 435.66504,514.63902 C 434.21106,514.38594 430.58326,515.96569 433.31173,517.37793 C 437.67586,517.11267 434.78955,518.70678 432.02437,518.125 C 431.16865,516.78385 431.89373,513.54378 431.65283,511.56396 z M 439.54102,512.43848 C 437.30508,514.60741 439.63192,517.31649 440.48182,514.98036 C 440.16822,514.13307 439.85462,513.28577 439.54102,512.43848 z M 439.04004,511.56396 C 441.2954,511.76225 441.03836,515.6067 442.24354,517.32907 C 442.32897,519.57664 440.39261,514.75417 438.06885,516.44189 C 436.39741,520.38657 436.7912,515.94437 438.04801,514.16237 C 438.37869,513.29624 438.70936,512.4301 439.04004,511.56396 z "
       id="text3156" />
    <path
       style="font-size:9px;font-style:normal;font-variant:normal;font-weight:normal;font-stretch:normal;text-align:start;line-height:121.00000381%;writing-mode:lr-tb;text-anchor:start;fill:black;fill-opacity:1;stroke:none;stroke-width:1px;stroke-linecap:butt;stroke-linejoin:miter;stroke-opacity:1;font-family:Bitstream Vera Sans"
       d="M 424.95117,453.06348 C 422.71524,455.23241 425.04208,457.94149 425.89198,455.60536 C 425.57838,454.75807 425.26477,453.91077 424.95117,453.06348 z M 424.4502,452.18896 C 426.70555,452.38725 426.44851,456.2317 427.65369,457.95407 C 427.73913,460.20164 425.80277,455.37917 423.479,457.06689 C 421.80757,461.01157 422.20135,456.56937 423.45817,454.78737 C 423.78885,453.92124 424.11952,453.0551 424.4502,452.18896 z M 429.79834,452.91846 C 429.90086,455.31149 428.75385,460.14534 432.85693,457.40527 C 434.70943,454.942 432.63836,452.24568 429.79834,452.91846 z M 428.91064,452.18896 C 435.42617,450.25552 436.01117,460.44013 429.19198,458.75 C 428.54564,457.18663 429.09173,454.23049 428.91064,452.18896 z M 436.72412,452.91846 C 436.82664,455.31149 435.67963,460.14534 439.78271,457.40527 C 441.63521,454.942 439.56414,452.24568 436.72412,452.91846 z M 435.83643,452.18896 C 442.35196,450.25552 442.93695,460.44013 436.11776,458.75 C 435.47142,457.18663 436.01751,454.23049 435.83643,452.18896 z M 445.87354,455.67383 C 448.96725,458.42664 446.95217,460.01905 445.44727,456.19238 C 442.69446,454.11037 443.75801,461.88263 442.76221,457.2076 C 443.22469,455.35454 441.38838,451.20269 444.69021,452.18896 C 446.80936,451.6563 448.06304,454.91346 445.87354,455.67383 z M 443.6499,452.91846 C 442.22058,458.56448 449.84929,452.70277 443.6499,452.91846 z M 451.21289,453.06348 C 448.97695,455.23241 451.3038,457.94149 452.1537,455.60536 C 451.84009,454.75807 451.52649,453.91077 451.21289,453.06348 z M 450.71191,452.18896 C 452.96727,452.38725 452.71023,456.2317 453.91541,457.95407 C 454.00085,460.20164 452.06449,455.37917 449.74072,457.06689 C 448.06929,461.01157 448.46307,456.56937 449.71989,454.78737 C 450.05056,453.92124 450.38124,453.0551 450.71191,452.18896 z M 455.0625,451.91211 C 458.72528,451.51261 454.58541,453.31663 455.87109,456.01093 C 454.59003,458.68196 458.74065,460.30431 455.0625,459.93652 C 455.0625,457.26172 455.0625,454.58691 455.0625,451.91211 z M 458.9209,458.00293 C 461.32619,458.95839 460.70466,452.9349 459.61495,453.14921 C 456.73963,452.89032 463.07409,450.73694 461.25,454.11696 C 459.94278,456.81301 463.19915,458.563 461.929,458.75 C 461.08628,458.43701 458.51871,459.48389 458.9209,458.00293 z M 466.396,452.77344 C 462.28673,454.23996 467.59929,461.85797 467.77588,455.47607 C 467.74838,454.55687 467.71942,452.80631 466.396,452.77344 z M 466.396,452.07031 C 472.82298,453.69667 464.62022,463.81037 464.12842,455.47607 C 464.04412,454.08631 464.61236,451.98085 466.396,452.07031 z M 470.32031,457.63379 C 472.90785,457.24829 469.86283,460.58197 470.32031,457.63379 z M 470.32031,454.09619 C 472.90785,453.71069 469.86283,457.04437 470.32031,454.09619 z M 475.16748,452.77344 C 471.05822,454.23996 476.37078,461.85797 476.54736,455.47607 C 476.51987,454.55687 476.4909,452.80631 475.16748,452.77344 z M 475.16748,452.07031 C 481.59446,453.69667 473.3917,463.81037 472.8999,455.47607 C 472.8156,454.08631 473.38384,451.98085 475.16748,452.07031 z M 480.7749,451.91211 C 480.7749,454.58691 480.7749,457.26172 480.7749,459.93652 C 477.11581,460.33856 481.24425,458.52841 479.96191,455.83771 C 481.30536,452.93665 476.88092,451.48935 480.7749,451.91211 z "
       id="text3160" />
    <path
       style="font-size:9px;font-style:normal;font-variant:normal;font-weight:normal;font-stretch:normal;text-align:end;line-height:121.00000381%;writing-mode:lr-tb;text-anchor:end;fill:black;fill-opacity:1;stroke:none;stroke-width:1px;stroke-linecap:butt;stroke-linejoin:miter;stroke-opacity:1;font-family:Bitstream Vera Sans"
       d="M 490.57617,512.43848 C 488.34024,514.60741 490.66708,517.31649 491.51698,514.98036 C 491.20338,514.13307 490.88977,513.28577 490.57617,512.43848 z M 490.0752,511.56396 C 492.33055,511.76225 492.07351,515.6067 493.27869,517.32907 C 493.36413,519.57664 491.42777,514.75417 489.104,516.44189 C 487.43257,520.38657 487.82635,515.94437 489.08317,514.16237 C 489.41385,513.29624 489.74452,512.4301 490.0752,511.56396 z M 495.42334,512.29346 C 495.52586,514.68649 494.37885,519.52034 498.48193,516.78027 C 500.33443,514.317 498.26336,511.62068 495.42334,512.29346 z M 494.53564,511.56396 C 501.05117,509.63052 501.63617,519.81513 494.81698,518.125 C 494.17064,516.56163 494.71673,513.60549 494.53564,511.56396 z M 502.34912,512.29346 C 502.45164,514.68649 501.30463,519.52034 505.40771,516.78027 C 507.26021,514.317 505.18914,511.62068 502.34912,512.29346 z M 501.46143,511.56396 C 507.97696,509.63052 508.56195,519.81513 501.74276,518.125 C 501.09642,516.56163 501.64251,513.60549 501.46143,511.56396 z M 511.49854,515.04883 C 514.59225,517.80164 512.57717,519.39405 511.07227,515.56738 C 508.31946,513.48537 509.38301,521.25763 508.38721,516.5826 C 508.84969,514.72954 507.01338,510.57769 510.31521,511.56396 C 512.43436,511.0313 513.68804,514.28846 511.49854,515.04883 z M 509.2749,512.29346 C 507.84558,517.93948 515.47429,512.07777 509.2749,512.29346 z M 515.53271,514.9917 C 513.80379,520.05884 521.91924,515.32734 516.18534,514.9917 L 515.79974,514.9917 L 515.53271,514.9917 z M 515.53271,512.29346 C 514.40616,516.92419 521.3537,511.84889 515.68988,512.29346 L 515.53271,512.29346 z M 514.64502,511.56396 C 517.63222,510.69523 519.99192,513.24403 518.50012,514.80493 C 522.10605,517.67842 513.16416,520.22887 514.64502,516.197 C 514.64502,514.65266 514.64502,513.10831 514.64502,511.56396 z M 520.70508,511.28711 C 524.36786,510.88761 520.22799,512.69163 521.51367,515.38593 C 520.23261,518.05696 524.38323,519.67931 520.70508,519.31152 C 520.70508,516.63672 520.70508,513.96191 520.70508,511.28711 z M 524.43604,517.98877 C 524.25836,517.31236 529.73155,516.25123 527.01123,515.69922 C 520.94199,517.00852 526.14422,507.28987 528.39001,513.3877 C 529.26566,515.94901 527.41208,519.34046 524.43604,517.98877 z M 526.20264,515.20703 C 531.37641,511.46281 521.16922,511.29576 526.20264,515.20703 z M 530.23242,517.00879 C 532.81996,516.62329 529.77494,519.95697 530.23242,517.00879 z M 530.23242,513.47119 C 532.81996,513.08569 529.77494,516.41937 530.23242,513.47119 z M 535.07959,512.14844 C 530.97033,513.61496 536.28289,521.23297 536.45947,514.85107 C 536.43197,513.93187 536.40301,512.18131 535.07959,512.14844 z M 535.07959,511.44531 C 541.50657,513.07167 533.30381,523.18537 532.81201,514.85107 C 532.72771,513.46131 533.29595,511.35585 535.07959,511.44531 z M 540.68701,511.28711 C 540.68701,513.96191 540.68701,516.63672 540.68701,519.31152 C 537.02792,519.71356 541.15636,517.90341 539.87402,515.21271 C 541.21747,512.31165 536.79303,510.86435 540.68701,511.28711 z "
       id="text3238" />
    <path
       style="font-size:9px;font-style:normal;font-variant:normal;font-weight:normal;font-stretch:normal;text-align:end;line-height:121.00000381%;writing-mode:lr-tb;text-anchor:end;fill:black;fill-opacity:1;stroke:none;stroke-width:1px;stroke-linecap:butt;stroke-linejoin:miter;stroke-opacity:1;font-family:Bitstream Vera Sans"
       d="M 492.396,418.54346 C 492.49852,420.93649 491.35151,425.77034 495.45459,423.03027 C 497.30709,420.567 495.23602,417.87068 492.396,418.54346 z M 491.5083,417.81396 C 498.02383,415.88052 498.60883,426.06513 491.78963,424.375 C 491.1433,422.81163 491.68939,419.85549 491.5083,417.81396 z M 501.09717,418.41602 C 495.3813,419.60361 502.57795,427.78425 503.19336,421.10107 C 503.28643,419.87895 502.51506,418.33313 501.09717,418.41602 z M 501.09717,417.69531 C 509.13092,419.0988 499.08244,429.7479 498.05615,421.10107 C 497.9116,419.38126 499.25679,417.56114 501.09717,417.69531 z M 506.40576,421.2417 C 504.67684,426.30884 512.79228,421.57734 507.05839,421.2417 L 506.67279,421.2417 L 506.40576,421.2417 z M 506.40576,418.54346 C 505.2792,423.17419 512.22675,418.09889 506.56293,418.54346 L 506.40576,418.54346 z M 505.51807,417.81396 C 508.50527,416.94523 510.86497,419.49403 509.37317,421.05493 C 512.9791,423.92842 504.03721,426.47887 505.51807,422.447 C 505.51807,420.90266 505.51807,419.35831 505.51807,417.81396 z M 511.57812,417.53711 C 515.2409,417.13761 511.10103,418.94163 512.38672,421.63593 C 511.10566,424.30696 515.25628,425.92931 511.57812,425.56152 C 511.57812,422.88672 511.57813,420.21191 511.57812,417.53711 z M 515.43652,423.62793 C 517.84181,424.58339 517.22029,418.5599 516.13058,418.77421 C 513.25525,418.51532 519.58972,416.36194 517.76562,419.74196 C 516.45841,422.43801 519.71478,424.188 518.44462,424.375 C 517.6019,424.06201 515.03433,425.10889 515.43652,423.62793 z M 521.02197,417.81396 C 524.05922,417.207 525.90071,418.87882 521.83496,418.56104 C 521.11371,421.08454 528.1706,421.15848 523.53674,424.35632 C 518.7912,423.95878 521.56072,423.92053 523.99157,422.88416 C 523.96493,418.55754 519.75691,423.43274 521.02197,417.81396 z M 526.83594,423.25879 C 529.42348,422.87329 526.37845,426.20697 526.83594,423.25879 z M 526.83594,419.72119 C 529.42348,419.33569 526.37845,422.66937 526.83594,419.72119 z M 531.68311,418.39844 C 527.57384,419.86496 532.8864,427.48297 533.06299,421.10107 C 533.03549,420.18187 533.00653,418.43131 531.68311,418.39844 z M 531.68311,417.69531 C 538.11009,419.32167 529.90733,429.43537 529.41553,421.10107 C 529.33122,419.71131 529.89947,417.60585 531.68311,417.69531 z M 537.29053,417.53711 C 537.29053,420.21191 537.29053,422.88672 537.29053,425.56152 C 533.63144,425.96356 537.75987,424.15341 536.47754,421.46271 C 537.82098,418.56165 533.39654,417.11435 537.29053,417.53711 z "
       id="text3242" />
    <path
       style="opacity:1;color:black;fill:none;fill-opacity:0.75;fill-rule:evenodd;stroke:black;stroke-width:1.25;stroke-linecap:butt;stroke-linejoin:miter;marker:none;marker-start:none;marker-mid:none;marker-end:none;stroke-miterlimit:4;stroke-dasharray:none;stroke-dashoffset:0;stroke-opacity:1;visibility:visible;display:inline;overflow:visible"
       d="M 346.875,455.625 L 418.75,455.625"
       id="path4819" />
    <path
       style="opacity:1;color:black;fill:none;fill-opacity:0.75;fill-rule:evenodd;stroke:black;stroke-width:1.25;stroke-linecap:butt;stroke-linejoin:miter;marker:none;marker-start:none;marker-mid:none;marker-end:none;stroke-miterlimit:4;stroke-dasharray:none;stroke-dashoffset:0;stroke-opacity:1;visibility:visible;display:inline;overflow:visible"
       d="M 281.25,515 L 418.75,515"
       id="path4821"
       sodipodi:nodetypes="cc" />
    <path
       style="opacity:1;color:black;fill:none;fill-opacity:0.75;fill-rule:evenodd;stroke:black;stroke-width:1.25;stroke-linecap:butt;stroke-linejoin:miter;marker:none;marker-start:none;marker-mid:none;marker-end:none;stroke-miterlimit:4;stroke-dasharray:none;stroke-dashoffset:0;stroke-opacity:1;visibility:visible;display:inline;overflow:visible"
       d="M 334.375,496.25 L 334.375,515"
       id="path4823" />
    <path
       style="opacity:1;color:black;fill:none;fill-opacity:0.75;fill-rule:evenodd;stroke:black;stroke-width:1.25;stroke-linecap:butt;stroke-linejoin:miter;marker:none;marker-start:none;marker-mid:none;marker-end:none;stroke-miterlimit:4;stroke-dasharray:none;stroke-dashoffset:0;stroke-opacity:1;visibility:visible;display:inline;overflow:visible"
       d="M 281.25,421.25 L 418.75,421.25"
       id="path4825"
       sodipodi:nodetypes="cc" />
    <text
       xml:space="preserve"
       style="font-size:7px;font-style:normal;font-variant:normal;font-weight:normal;font-stretch:normal;text-align:start;line-height:121.00000381%;writing-mode:lr-tb;text-anchor:start;fill:black;fill-opacity:1;stroke:none;stroke-width:1px;stroke-linecap:butt;stroke-linejoin:miter;stroke-opacity:1;font-family:Bitstream Vera Sans"
       x="599.375"
       y="-428.125"
       id="text3973"
       sodipodi:linespacing="121%"
       transform="matrix(0,1,-1,0,0,0)"><tspan
         sodipodi:role="line"
         id="tspan3975"
         x="599.375"
         y="-428.125">BSEL</tspan></text>
    <g
       transform="translate(306.4758,271.875)"
       id="g4031">
      <rect
         y="343.125"
         x="77.8992"
         height="50.096931"
         width="28.350792"
         id="rect4033"
         style="fill:white;fill-rule:evenodd;stroke:black;stroke-width:1.17443275" />
      <text
         sodipodi:linespacing="100%"
         id="text4035"
         y="390.89999"
         x="96.335358"
         style="font-size:10px;line-height:100%;text-anchor:middle;stroke-width:1pt;font-family:Bitstream Vera Sans"
         xml:space="preserve"><tspan
           id="tspan4037">EN</tspan></text>
      <text
         transform="scale(3.384064,3.384064)"
         sodipodi:linespacing="100%"
         id="text4039"
         y="106.56478"
         x="23.410166"
         style="font-size:4px;line-height:100%;stroke-width:0.36937839;font-family:Bitstream Vera Sans"
         xml:space="preserve"><tspan
           id="tspan4041">D</tspan></text>
      <text
         transform="scale(3.384064,3.384064)"
         sodipodi:linespacing="100%"
         id="text4043"
         y="106.58192"
         x="30.771975"
         style="font-size:4px;line-height:100%;text-anchor:end;stroke-width:0.36937839;font-family:Bitstream Vera Sans"
         xml:space="preserve"><tspan
           id="tspan4045">Q</tspan></text>
      <path
         id="path4047"
         d="M 78.125,393.125 L 84.375,386.875 L 78.125,380.625"
         style="fill:none;fill-opacity:0.75;fill-rule:evenodd;stroke:black;stroke-width:1pt" />
    </g>
    <g
       id="g4944"
       transform="translate(-112.5,146.875)">
      <path
         id="path4049"
         d="M 515.625,440 L 503.125,446.25 L 515.625,452.5 L 515.625,440 z "
         style="opacity:1;color:black;fill:white;fill-opacity:1;fill-rule:evenodd;stroke:black;stroke-width:1.25;stroke-linecap:butt;stroke-linejoin:miter;marker:none;marker-start:none;marker-mid:none;marker-end:none;stroke-miterlimit:4;stroke-dasharray:none;stroke-dashoffset:0;stroke-opacity:1;visibility:visible;display:inline;overflow:visible" />
      <g
         transform="matrix(0.5,0,0,0.5,256.25,224.6875)"
         id="g4940">
        <path
           sodipodi:type="arc"
           style="fill:white;fill-opacity:1;fill-rule:evenodd;stroke:black;stroke-width:2.5;stroke-miterlimit:4;stroke-dasharray:none;stroke-dashoffset:0;stroke-opacity:1"
           id="path4936"
           sodipodi:cx="490.625"
           sodipodi:cy="443.125"
           sodipodi:rx="3.125"
           sodipodi:ry="3.125"
           d="M 493.75 443.125 A 3.125 3.125 0 1 1  487.5,443.125 A 3.125 3.125 0 1 1  493.75 443.125 z" />
        <rect
           style="fill:none;fill-opacity:1;fill-rule:evenodd;stroke:none;stroke-width:1.25;stroke-miterlimit:4;stroke-dasharray:none;stroke-dashoffset:0;stroke-opacity:1"
           id="rect4938"
           width="12.5"
           height="12.5"
           x="481.25"
           y="436.875" />
      </g>
    </g>
    <path
       style="opacity:1;color:black;fill:none;fill-opacity:0.75;fill-rule:evenodd;stroke:black;stroke-width:1.25;stroke-linecap:butt;stroke-linejoin:miter;marker:none;marker-start:none;marker-mid:none;marker-end:none;stroke-miterlimit:4;stroke-dasharray:none;stroke-dashoffset:0;stroke-opacity:1;visibility:visible;display:inline;overflow:visible"
       d="M 412.5,627.5 L 425,627.5 C 425,627.5 425,593.125 425,593.125 L 403.125,593.125"
       id="path4950" />
    <path
       style="opacity:1;color:black;fill:none;fill-opacity:0.75;fill-rule:evenodd;stroke:black;stroke-width:1.25;stroke-linecap:butt;stroke-linejoin:miter;marker:none;marker-start:none;marker-mid:none;marker-end:none;stroke-miterlimit:4;stroke-dasharray:none;stroke-dashoffset:0;stroke-opacity:1;visibility:visible;display:inline;overflow:visible"
       d="M 387.5,593.125 L 371.875,593.125 L 371.875,627.5 L 384.375,627.5"
       id="path4952" />
    <text
       xml:space="preserve"
       style="font-size:7.91176462px;font-style:normal;font-variant:normal;font-weight:normal;font-stretch:normal;text-align:start;line-height:121.00000381%;writing-mode:lr-tb;text-anchor:start;fill:black;fill-opacity:1;stroke:none;stroke-width:1px;stroke-linecap:butt;stroke-linejoin:miter;stroke-opacity:1;font-family:Bitstream Vera Sans"
       x="-621.25"
       y="368.75"
       id="text4954"
       sodipodi:linespacing="121%"
       transform="matrix(0,-1,1,0,0,0)"><tspan
         sodipodi:role="line"
         id="tspan4956"
         x="-621.25"
         y="368.75">nBSEL</tspan></text>
    <g
       id="g4982"
       transform="matrix(-0.5,0,0,0.5,443.75,538.75)">
      <path
         d="M 146.875 108.75 A 3.125 3.125 0 1 1  140.625,108.75 A 3.125 3.125 0 1 1  146.875 108.75 z"
         sodipodi:ry="3.125"
         sodipodi:rx="3.125"
         sodipodi:cy="108.75"
         sodipodi:cx="143.75"
         id="path4984"
         style="fill:black;fill-opacity:1;fill-rule:evenodd;stroke:none;stroke-width:1.25;stroke-miterlimit:3.9000001;stroke-dasharray:none;stroke-opacity:1"
         sodipodi:type="arc" />
      <rect
         y="102.5"
         x="137.5"
         height="12.5"
         width="12.5"
         id="rect4986"
         style="fill:none;fill-opacity:1;fill-rule:evenodd;stroke:none;stroke-width:1.25;stroke-miterlimit:3.9000001;stroke-dasharray:none;stroke-opacity:1" />
    </g>
    <path
       style="opacity:1;color:black;fill:none;fill-opacity:0.75;fill-rule:evenodd;stroke:black;stroke-width:1.25;stroke-linecap:butt;stroke-linejoin:miter;marker:none;marker-start:none;marker-mid:none;marker-end:none;stroke-miterlimit:4;stroke-dasharray:none;stroke-dashoffset:0;stroke-opacity:1;visibility:visible;display:inline;overflow:visible"
       d="M 403.125,665 L 403.125,674.375 L 356.25,674.375"
       id="path2120"
       sodipodi:nodetypes="ccc" />
    <path
       style="opacity:1;color:black;fill:none;fill-opacity:0.75;fill-rule:evenodd;stroke:black;stroke-width:1.25;stroke-linecap:butt;stroke-linejoin:miter;marker:none;marker-start:none;marker-mid:none;marker-end:none;stroke-miterlimit:4;stroke-dasharray:none;stroke-dashoffset:0;stroke-opacity:1;visibility:visible;display:inline;overflow:visible"
       d="M 390.625,455.625 L 390.625,511.875"
       id="path6493" />
    <path
       style="opacity:1;color:black;fill:none;fill-opacity:0.75;fill-rule:evenodd;stroke:black;stroke-width:1.25;stroke-linecap:butt;stroke-linejoin:miter;marker:none;marker-start:none;marker-mid:none;marker-end:none;stroke-miterlimit:4;stroke-dasharray:none;stroke-dashoffset:0;stroke-opacity:1;visibility:visible;display:inline;overflow:visible"
       d="M 390.625,518.125 L 390.625,577.5 L 468.75,577.5"
       id="path6495"
       sodipodi:nodetypes="ccc" />
    <path
       style="opacity:1;color:black;fill:none;fill-opacity:0.75;fill-rule:evenodd;stroke:black;stroke-width:1.25;stroke-linecap:butt;stroke-linejoin:miter;marker:none;marker-start:none;marker-mid:none;marker-end:none;stroke-miterlimit:4;stroke-dasharray:none;stroke-dashoffset:0;stroke-opacity:1;visibility:visible;display:inline;overflow:visible"
       d="M 390.625,577.5 L 371.875,577.5 L 371.875,593.125"
       id="path6497" />
    <path
       style="opacity:1;color:black;fill:none;fill-opacity:0.75;fill-rule:evenodd;stroke:black;stroke-width:1.25;stroke-linecap:butt;stroke-linejoin:miter;marker:none;marker-start:none;marker-mid:none;marker-end:none;stroke-miterlimit:4;stroke-dasharray:none;stroke-dashoffset:0;stroke-opacity:1;visibility:visible;display:inline;overflow:visible"
       d="M 487.5,615.3906 L 487.5,630.62497"
       id="path6503" />
    <path
       style="opacity:1;color:black;fill:none;fill-opacity:0.75;fill-rule:evenodd;stroke:black;stroke-width:1.25;stroke-linecap:butt;stroke-linejoin:miter;marker:none;marker-start:none;marker-mid:none;marker-end:none;stroke-miterlimit:4;stroke-dasharray:none;stroke-dashoffset:0;stroke-opacity:1;visibility:visible;display:inline;overflow:visible"
       d="M 487.5,630.625 L 487.5,674.375 L 403.125,674.375"
       id="path6505" />
    <g
       id="g6507"
       transform="matrix(-0.5,0,0,0.5,496.875,538.75)">
      <path
         d="M 146.875 108.75 A 3.125 3.125 0 1 1  140.625,108.75 A 3.125 3.125 0 1 1  146.875 108.75 z"
         sodipodi:ry="3.125"
         sodipodi:rx="3.125"
         sodipodi:cy="108.75"
         sodipodi:cx="143.75"
         id="path6509"
         style="fill:black;fill-opacity:1;fill-rule:evenodd;stroke:none;stroke-width:1.25;stroke-miterlimit:3.9000001;stroke-dasharray:none;stroke-opacity:1"
         sodipodi:type="arc" />
      <rect
         y="102.5"
         x="137.5"
         height="12.5"
         width="12.5"
         id="rect6511"
         style="fill:none;fill-opacity:1;fill-rule:evenodd;stroke:none;stroke-width:1.25;stroke-miterlimit:3.9000001;stroke-dasharray:none;stroke-opacity:1" />
    </g>
    <g
       id="g6513"
       transform="matrix(-0.5,0,0,0.5,475,620)">
      <path
         d="M 146.875 108.75 A 3.125 3.125 0 1 1  140.625,108.75 A 3.125 3.125 0 1 1  146.875 108.75 z"
         sodipodi:ry="3.125"
         sodipodi:rx="3.125"
         sodipodi:cy="108.75"
         sodipodi:cx="143.75"
         id="path6515"
         style="fill:black;fill-opacity:1;fill-rule:evenodd;stroke:none;stroke-width:1.25;stroke-miterlimit:3.9000001;stroke-dasharray:none;stroke-opacity:1"
         sodipodi:type="arc" />
      <rect
         y="102.5"
         x="137.5"
         height="12.5"
         width="12.5"
         id="rect6517"
         style="fill:none;fill-opacity:1;fill-rule:evenodd;stroke:none;stroke-width:1.25;stroke-miterlimit:3.9000001;stroke-dasharray:none;stroke-opacity:1" />
    </g>
    <g
       id="g6519"
       transform="matrix(-0.5,0,0,0.5,462.5,523.125)">
      <path
         d="M 146.875 108.75 A 3.125 3.125 0 1 1  140.625,108.75 A 3.125 3.125 0 1 1  146.875 108.75 z"
         sodipodi:ry="3.125"
         sodipodi:rx="3.125"
         sodipodi:cy="108.75"
         sodipodi:cx="143.75"
         id="path6521"
         style="fill:black;fill-opacity:1;fill-rule:evenodd;stroke:none;stroke-width:1.25;stroke-miterlimit:3.9000001;stroke-dasharray:none;stroke-opacity:1"
         sodipodi:type="arc" />
      <rect
         y="102.5"
         x="137.5"
         height="12.5"
         width="12.5"
         id="rect6523"
         style="fill:none;fill-opacity:1;fill-rule:evenodd;stroke:none;stroke-width:1.25;stroke-miterlimit:3.9000001;stroke-dasharray:none;stroke-opacity:1" />
    </g>
    <g
       id="g6525"
       transform="matrix(-0.5,0,0,0.5,462.5,401.25)">
      <path
         d="M 146.875 108.75 A 3.125 3.125 0 1 1  140.625,108.75 A 3.125 3.125 0 1 1  146.875 108.75 z"
         sodipodi:ry="3.125"
         sodipodi:rx="3.125"
         sodipodi:cy="108.75"
         sodipodi:cx="143.75"
         id="path6527"
         style="fill:black;fill-opacity:1;fill-rule:evenodd;stroke:none;stroke-width:1.25;stroke-miterlimit:3.9000001;stroke-dasharray:none;stroke-opacity:1"
         sodipodi:type="arc" />
      <rect
         y="102.5"
         x="137.5"
         height="12.5"
         width="12.5"
         id="rect6529"
         style="fill:none;fill-opacity:1;fill-rule:evenodd;stroke:none;stroke-width:1.25;stroke-miterlimit:3.9000001;stroke-dasharray:none;stroke-opacity:1" />
    </g>
    <text
       xml:space="preserve"
       style="font-size:7px;font-style:normal;font-weight:normal;fill:black;fill-opacity:1;stroke:none;stroke-width:1px;stroke-linecap:butt;stroke-linejoin:miter;stroke-opacity:1;font-family:Bitstream Vera Sans"
       x="371.875"
       y="574.375"
       id="text6531"><tspan
         sodipodi:role="line"
         id="tspan6533"
         x="371.875"
         y="574.375">[10]</tspan></text>
    <text
       xml:space="preserve"
       style="font-size:7px;font-style:normal;font-weight:normal;fill:black;fill-opacity:1;stroke:none;stroke-width:1px;stroke-linecap:butt;stroke-linejoin:miter;stroke-opacity:1;font-family:Bitstream Vera Sans"
       x="359.375"
       y="452.5"
       id="text6535"><tspan
         sodipodi:role="line"
         id="tspan6537"
         x="359.375"
         y="452.5">[9:0]</tspan></text>
    <text
       xml:space="preserve"
       style="font-size:7px;font-style:normal;font-weight:normal;fill:black;fill-opacity:1;stroke:none;stroke-width:1px;stroke-linecap:butt;stroke-linejoin:miter;stroke-opacity:1;font-family:Bitstream Vera Sans"
       x="434.375"
       y="574.375"
       id="text6539"><tspan
         sodipodi:role="line"
         id="tspan6541"
         x="434.375"
         y="574.375">[9:0]</tspan></text>
    <text
       xml:space="preserve"
       style="font-size:11px;font-style:normal;font-variant:normal;font-weight:normal;font-stretch:normal;text-align:start;line-height:125%;writing-mode:lr-tb;text-anchor:start;fill:black;fill-opacity:1;stroke:none;stroke-width:1px;stroke-linecap:butt;stroke-linejoin:miter;stroke-opacity:1;font-family:Bitstream Vera Sans"
       x="237.5"
       y="458.75"
       id="text6543"
       sodipodi:linespacing="125%"><tspan
         sodipodi:role="line"
         id="tspan6545"
         x="237.5"
         y="458.75">ECYCLE</tspan></text>
    <path
       style="opacity:1;color:black;fill:none;fill-opacity:0.75;fill-rule:evenodd;stroke:black;stroke-width:1.25;stroke-linecap:butt;stroke-linejoin:miter;marker:none;marker-start:none;marker-mid:none;marker-end:none;stroke-miterlimit:4;stroke-dasharray:none;stroke-dashoffset:0;stroke-opacity:1;visibility:visible;display:inline;overflow:visible"
       d="M 281.25,455.625 L 296.875,455.625"
       id="path6547" />
    <path
       style="opacity:1;color:black;fill:none;fill-opacity:0.75;fill-rule:evenodd;stroke:black;stroke-width:1.25;stroke-linecap:butt;stroke-linejoin:miter;marker:none;marker-start:none;marker-mid:none;marker-end:none;stroke-miterlimit:4;stroke-dasharray:none;stroke-dashoffset:0;stroke-opacity:1;visibility:visible;display:inline;overflow:visible"
       d="M 496.875,577.5 L 581.25,577.5"
       id="path6553" />
    <path
       style="opacity:1;color:black;fill:none;fill-opacity:0.75;fill-rule:evenodd;stroke:black;stroke-width:1.25;stroke-linecap:butt;stroke-linejoin:miter;marker:none;marker-start:none;marker-mid:none;marker-end:none;stroke-miterlimit:4;stroke-dasharray:none;stroke-dashoffset:0;stroke-opacity:1;visibility:visible;display:inline;overflow:visible"
       d="M 425,593.125 L 425,580.625"
       id="path6555" />
    <path
       style="opacity:1;color:black;fill:none;fill-opacity:0.75;fill-rule:evenodd;stroke:black;stroke-width:1.25;stroke-linecap:butt;stroke-linejoin:miter;marker:none;marker-start:none;marker-mid:none;marker-end:none;stroke-miterlimit:4;stroke-dasharray:none;stroke-dashoffset:0;stroke-opacity:1;visibility:visible;display:inline;overflow:visible"
       d="M 425,574.375 L 425,555.625 L 556.25,555.625 L 556.25,515"
       id="path6557" />
    <path
       style="opacity:1;color:black;fill:none;fill-opacity:0.75;fill-rule:evenodd;stroke:black;stroke-width:1.25;stroke-linecap:butt;stroke-linejoin:miter;marker:none;marker-start:none;marker-mid:none;marker-end:none;stroke-miterlimit:4;stroke-dasharray:none;stroke-dashoffset:0;stroke-opacity:1;visibility:visible;display:inline;overflow:visible"
       d="M 543.75,515 L 581.25,515"
       id="path6559"
       sodipodi:nodetypes="cc" />
    <text
       xml:space="preserve"
       style="font-size:7px;font-style:normal;font-weight:normal;fill:black;fill-opacity:1;stroke:none;stroke-width:1px;stroke-linecap:butt;stroke-linejoin:miter;stroke-opacity:1;font-family:Bitstream Vera Sans"
       x="525"
       y="552.5"
       id="text6561"><tspan
         sodipodi:role="line"
         id="tspan6563"
         x="525"
         y="552.5">[9]</tspan></text>
    <g
       id="g6565"
       transform="matrix(-0.5,0,0,0.5,628.125,460.625)">
      <path
         d="M 146.875 108.75 A 3.125 3.125 0 1 1  140.625,108.75 A 3.125 3.125 0 1 1  146.875 108.75 z"
         sodipodi:ry="3.125"
         sodipodi:rx="3.125"
         sodipodi:cy="108.75"
         sodipodi:cx="143.75"
         id="path6567"
         style="fill:black;fill-opacity:1;fill-rule:evenodd;stroke:none;stroke-width:1.25;stroke-miterlimit:3.9000001;stroke-dasharray:none;stroke-opacity:1"
         sodipodi:type="arc" />
      <rect
         y="102.5"
         x="137.5"
         height="12.5"
         width="12.5"
         id="rect6569"
         style="fill:none;fill-opacity:1;fill-rule:evenodd;stroke:none;stroke-width:1.25;stroke-miterlimit:3.9000001;stroke-dasharray:none;stroke-opacity:1" />
    </g>
    <text
       xml:space="preserve"
       style="font-size:7px;font-style:normal;font-weight:normal;fill:black;fill-opacity:1;stroke:none;stroke-width:1px;stroke-linecap:butt;stroke-linejoin:miter;stroke-opacity:1;font-family:Bitstream Vera Sans"
       x="550"
       y="511.875"
       id="text6571"><tspan
         sodipodi:role="line"
         id="tspan6573"
         x="550"
         y="511.875">ADDRB</tspan></text>
    <text
       xml:space="preserve"
       style="font-size:7px;font-style:normal;font-weight:normal;fill:black;fill-opacity:1;stroke:none;stroke-width:1px;stroke-linecap:butt;stroke-linejoin:miter;stroke-opacity:1;font-family:Bitstream Vera Sans"
       x="553.125"
       y="418.125"
       id="text6575"><tspan
         sodipodi:role="line"
         id="tspan6577"
         x="553.125"
         y="418.125">DOB</tspan></text>
    <path
       style="opacity:1;color:black;fill:none;fill-opacity:0.75;fill-rule:evenodd;stroke:black;stroke-width:1.25;stroke-linecap:butt;stroke-linejoin:miter;marker:none;marker-start:none;marker-mid:none;marker-end:none;stroke-miterlimit:4;stroke-dasharray:none;stroke-dashoffset:0;stroke-opacity:1;visibility:visible;display:inline;overflow:visible"
       d="M 543.75,421.25 L 578.125,421.25"
       id="path6579" />
    <text
       xml:space="preserve"
       style="font-size:7px;font-style:normal;font-weight:normal;fill:black;fill-opacity:1;stroke:none;stroke-width:1px;stroke-linecap:butt;stroke-linejoin:miter;stroke-opacity:1;font-family:Bitstream Vera Sans"
       x="387.5"
       y="452.5"
       id="text6581"><tspan
         sodipodi:role="line"
         id="tspan6583"
         x="387.5"
         y="452.5">ADDRA</tspan></text>
  </g>
</svg>
