;Layer_Color=15461320
M48
;FILE_FORMAT=2:3
INCH,LZ
;TYPE=PLATED
T1F00S00C0.028
T2F00S00C0.035
T3F00S00C0.110
%
T01
X03115Y03245
X0223Y043
T02
X0228Y03745
Y03845
Y03945
Y04045
Y04145
Y04245
Y04345
Y04445
Y04545
Y04645
X02355Y04595
Y04495
Y04395
Y04295
Y04195
Y04095
Y03995
Y03895
Y03795
Y03695
X0243Y03745
Y03845
Y03945
Y04045
Y04145
Y04245
Y04345
Y04445
Y04545
Y04645
X02505Y04595
Y04495
Y04395
Y04295
Y04195
Y04095
Y03995
Y03895
Y03795
Y03695
X03745Y03735
Y03835
Y03935
Y04035
Y04135
Y04235
Y04335
X03845
Y04235
Y04135
Y04035
Y03935
Y03835
Y03735
Y03635
X03745
Y03535
X03845
Y03435
X03745
X03345Y04615
X03245
X042Y0462
X043
Y0472
Y0482
Y0492
Y0502
Y0512
Y0522
Y0532
Y0542
Y0552
X042
Y0542
Y0532
Y0522
Y0512
Y0502
Y0492
Y0482
Y0472
X03345Y04715
Y04815
Y04915
Y05015
Y05115
Y05215
Y05315
Y05415
Y05515
X03245
Y05415
Y05315
Y05215
Y05115
Y05015
Y04915
Y04815
Y04715
X02505Y04695
Y04795
Y04895
Y04995
Y05095
Y05195
Y05295
X0243Y05345
Y05245
Y05145
Y05045
Y04945
Y04845
Y04745
X02355Y04795
Y04895
Y04995
Y05095
Y05195
Y05295
X0228Y05345
Y05245
Y05145
Y05045
Y04945
Y04845
Y04745
X02355Y04695
T03
X0228Y03549
Y05491
M30
