%FSLAX24Y24*%
%MOIN*%
G70*
G01*
G75*
G04 Layer_Physical_Order=3*
G04 Layer_Color=32768*
%ADD10C,0.0080*%
%ADD11R,0.0591X0.0591*%
%ADD12C,0.0591*%
%ADD13C,0.1200*%
%ADD14C,0.0550*%
%ADD15C,0.0500*%
D10*
X40950Y54200D02*
X42000D01*
X40450Y53700D02*
X40950Y54200D01*
X31750Y53700D02*
X40450D01*
X26500Y48450D02*
X31750Y53700D01*
X24950Y48450D02*
X26500D01*
X24450Y47950D02*
X24950Y48450D01*
X22800Y47450D02*
X23700D01*
X24200Y47950D02*
X24450D01*
X23700Y47450D02*
X24200Y47950D01*
X41050Y53200D02*
X42000D01*
X40500Y52650D02*
X41050Y53200D01*
X31250Y52650D02*
X40500D01*
X26950Y48350D02*
X31250Y52650D01*
X26950Y47350D02*
Y48350D01*
X26100Y46500D02*
X26950Y47350D01*
X25000Y46500D02*
X26100D01*
X24450Y45950D02*
X25000Y46500D01*
X23550Y45950D02*
X24450D01*
X40750Y52200D02*
X42000D01*
X40200Y51650D02*
X40750Y52200D01*
X31950Y51650D02*
X40200D01*
X25700Y45400D02*
X31950Y51650D01*
X24850Y45400D02*
X25700D01*
X24400Y44950D02*
X24850Y45400D01*
X23550Y44950D02*
X24400D01*
X40850Y51200D02*
X42000D01*
X40250Y50600D02*
X40850Y51200D01*
X31950Y50600D02*
X40250D01*
X25750Y44400D02*
X31950Y50600D01*
X24850Y44400D02*
X25750D01*
X24400Y43950D02*
X24850Y44400D01*
X24150Y43950D02*
X24400D01*
X23700Y44400D02*
X24150Y43950D01*
X23350Y44400D02*
X23700D01*
X22800Y43850D02*
X23350Y44400D01*
X22800Y43450D02*
Y43850D01*
X35300Y50200D02*
X42000D01*
X34750Y49650D02*
X35300Y50200D01*
X32000Y49650D02*
X34750D01*
X41100Y49200D02*
X42000D01*
X40600Y48700D02*
X41100Y49200D01*
X32050Y48700D02*
X40600D01*
X27950Y44600D02*
X32050Y48700D01*
X27950Y43700D02*
Y44600D01*
X25700Y41450D02*
X27950Y43700D01*
X41350Y48200D02*
X42000D01*
X38600Y45450D02*
X41350Y48200D01*
X31600Y45450D02*
X38600D01*
X25700Y39550D02*
X31600Y45450D01*
X24850Y39550D02*
X25700D01*
X24500Y39900D02*
X24850Y39550D01*
X24100Y39900D02*
X24500D01*
X23650Y39450D02*
X24100Y39900D01*
X22800Y39450D02*
X23650D01*
X22800Y38450D02*
X23650D01*
X24150Y38950D01*
X24450D01*
X24900Y38500D01*
X29950D01*
X36250Y44800D01*
X38850D01*
X40750Y46700D01*
X42500D01*
X43000Y47200D01*
X22450Y36950D02*
X23550D01*
X22250Y37150D02*
X22450Y36950D01*
X22250Y37150D02*
Y39550D01*
X22650Y39950D01*
X22900D01*
X24900Y43400D02*
X25750D01*
X24450Y42950D02*
X24900Y43400D01*
X24200Y42950D02*
X24450D01*
X23550Y42300D02*
X24200Y42950D01*
X23550Y41950D02*
Y42300D01*
X25750Y43400D02*
X32000Y49650D01*
X24500Y41850D02*
X24900Y41450D01*
X24050Y41850D02*
X24500D01*
X23550Y41350D02*
X24050Y41850D01*
X23550Y40950D02*
Y41350D01*
X24900Y41450D02*
X25700D01*
X23350Y40400D02*
X23650D01*
X24200Y40950D02*
X24400D01*
X24900Y40450D01*
X25700D01*
X31950Y46700D01*
X33000D01*
X33450Y47150D01*
X23650Y40400D02*
X24200Y40950D01*
X22900Y39950D02*
X23350Y40400D01*
X31150Y32450D02*
X34500Y35800D01*
X37900D01*
X38450Y36350D01*
X21900Y43400D02*
X22300Y43000D01*
X21900Y43400D02*
Y52550D01*
X22800Y53450D01*
D12*
X38450Y36350D02*
D03*
X33450Y47150D02*
D03*
X42000Y54200D02*
D03*
Y53200D02*
D03*
Y52200D02*
D03*
Y51200D02*
D03*
Y50200D02*
D03*
Y49200D02*
D03*
Y48200D02*
D03*
X43000Y47200D02*
D03*
D14*
X22800Y53450D02*
D03*
Y47450D02*
D03*
X23550Y45950D02*
D03*
Y44950D02*
D03*
X22800Y43450D02*
D03*
X23550Y41950D02*
D03*
Y40950D02*
D03*
X22800Y39450D02*
D03*
Y38450D02*
D03*
X23550Y36950D02*
D03*
D15*
X31150Y32450D02*
D03*
X22300Y43000D02*
D03*
M02*
