%FSLAX24Y24*%
%MOIN*%
G70*
G01*
G75*
G04 Layer_Color=65535*
%ADD10C,0.0080*%
%ADD11R,0.0591X0.0591*%
%ADD12C,0.0591*%
%ADD13C,0.1200*%
%ADD14C,0.0550*%
%ADD15C,0.0500*%
%ADD16C,0.0160*%
%ADD17C,0.0079*%
%ADD18C,0.0100*%
%ADD19C,0.0070*%
D10*
X21249Y55660D02*
X25650D01*
X21249Y34740D02*
X25650D01*
X21249D02*
Y55660D01*
X25650Y34740D02*
Y55660D01*
X38250Y33417D02*
Y33750D01*
X38583Y33417D01*
X38667D01*
X38750Y33500D01*
Y33667D01*
X38667Y33750D01*
Y33250D02*
X38750Y33167D01*
Y33000D01*
X38667Y32917D01*
X38333D01*
X38250Y33000D01*
Y33167D01*
X38333Y33250D01*
X38667D01*
X37250Y33750D02*
Y33583D01*
Y33667D01*
X37750D01*
X37667Y33750D01*
X37333Y33333D02*
X37250Y33250D01*
Y33084D01*
X37333Y33000D01*
X37667D01*
X37750Y33084D01*
Y33250D01*
X37667Y33333D01*
X37583D01*
X37500Y33250D01*
Y33000D01*
X37250Y44350D02*
Y44183D01*
Y44267D01*
X37750D01*
X37667Y44350D01*
X38250Y44017D02*
Y44350D01*
X38583Y44017D01*
X38667D01*
X38750Y44100D01*
Y44267D01*
X38667Y44350D01*
X33250Y45217D02*
Y45550D01*
X33583Y45217D01*
X33667D01*
X33750Y45300D01*
Y45467D01*
X33667Y45550D01*
Y45050D02*
X33750Y44967D01*
Y44800D01*
X33667Y44717D01*
X33333D01*
X33250Y44800D01*
Y44967D01*
X33333Y45050D01*
X33667D01*
X32250Y45550D02*
Y45383D01*
Y45467D01*
X32750D01*
X32667Y45550D01*
X32333Y45133D02*
X32250Y45050D01*
Y44884D01*
X32333Y44800D01*
X32667D01*
X32750Y44884D01*
Y45050D01*
X32667Y45133D01*
X32583D01*
X32500Y45050D01*
Y44800D01*
X32250Y56150D02*
Y55983D01*
Y56067D01*
X32750D01*
X32667Y56150D01*
X33250Y55817D02*
Y56150D01*
X33583Y55817D01*
X33667D01*
X33750Y55900D01*
Y56067D01*
X33667Y56150D01*
X42800Y45267D02*
Y45600D01*
X43133Y45267D01*
X43217D01*
X43300Y45350D01*
Y45517D01*
X43217Y45600D01*
Y45100D02*
X43300Y45017D01*
Y44850D01*
X43217Y44767D01*
X42883D01*
X42800Y44850D01*
Y45017D01*
X42883Y45100D01*
X43217D01*
X41800Y45600D02*
Y45433D01*
Y45517D01*
X42300D01*
X42217Y45600D01*
X41883Y45183D02*
X41800Y45100D01*
Y44934D01*
X41883Y44850D01*
X42217D01*
X42300Y44934D01*
Y45100D01*
X42217Y45183D01*
X42133D01*
X42050Y45100D01*
Y44850D01*
X41800Y56200D02*
Y56033D01*
Y56117D01*
X42300D01*
X42217Y56200D01*
X42800Y55867D02*
Y56200D01*
X43133Y55867D01*
X43217D01*
X43300Y55950D01*
Y56117D01*
X43217Y56200D01*
D16*
X22050Y58200D02*
X21850Y58400D01*
X21450D01*
X21250Y58200D01*
Y58000D01*
X21450Y57800D01*
X21850D01*
X22050Y57600D01*
Y57400D01*
X21850Y57200D01*
X21450D01*
X21250Y57400D01*
X22650Y57200D02*
X23049D01*
X23249Y57400D01*
Y57800D01*
X23049Y58000D01*
X22650D01*
X22450Y57800D01*
Y57400D01*
X22650Y57200D01*
X23649D02*
Y58000D01*
X23849D01*
X24049Y57800D01*
Y57200D01*
Y57800D01*
X24249Y58000D01*
X24449Y57800D01*
Y57200D01*
X25049Y58000D02*
X25449D01*
X25649Y57800D01*
Y57200D01*
X25049D01*
X24849Y57400D01*
X25049Y57600D01*
X25649D01*
X27248Y58400D02*
Y57200D01*
X27848D01*
X28048Y57400D01*
Y57600D01*
X27848Y57800D01*
X27248D01*
X27848D01*
X28048Y58000D01*
Y58200D01*
X27848Y58400D01*
X27248D01*
X28648Y58000D02*
X29047D01*
X29247Y57800D01*
Y57200D01*
X28648D01*
X28448Y57400D01*
X28648Y57600D01*
X29247D01*
X30447Y58000D02*
X29847D01*
X29647Y57800D01*
Y57400D01*
X29847Y57200D01*
X30447D01*
X30847D02*
Y58400D01*
Y57600D02*
X31447Y58000D01*
X30847Y57600D02*
X31447Y57200D01*
X32047Y56800D02*
Y58000D01*
X32646D01*
X32846Y57800D01*
Y57400D01*
X32646Y57200D01*
X32047D01*
X33246D02*
X33646D01*
X33446D01*
Y58400D01*
X33246D01*
X34446Y58000D02*
X34846D01*
X35046Y57800D01*
Y57200D01*
X34446D01*
X34246Y57400D01*
X34446Y57600D01*
X35046D01*
X35445Y57200D02*
Y58000D01*
X36045D01*
X36245Y57800D01*
Y57200D01*
X37245D02*
X36845D01*
X36645Y57400D01*
Y57800D01*
X36845Y58000D01*
X37245D01*
X37445Y57800D01*
Y57600D01*
X36645D01*
X39044Y58400D02*
Y57200D01*
X39644D01*
X39844Y57400D01*
Y58200D01*
X39644Y58400D01*
X39044D01*
X40844Y57200D02*
X40444D01*
X40244Y57400D01*
Y57800D01*
X40444Y58000D01*
X40844D01*
X41044Y57800D01*
Y57600D01*
X40244D01*
X41443Y58400D02*
Y57200D01*
X42043D01*
X42243Y57400D01*
Y57600D01*
Y57800D01*
X42043Y58000D01*
X41443D01*
X42643D02*
Y57400D01*
X42843Y57200D01*
X43443D01*
Y58000D01*
X44243Y56800D02*
X44443D01*
X44642Y57000D01*
Y58000D01*
X44043D01*
X43843Y57800D01*
Y57400D01*
X44043Y57200D01*
X44642D01*
D17*
X36950Y33850D02*
X38950D01*
X36950Y43100D02*
Y43850D01*
X38950D01*
Y43100D02*
Y43850D01*
Y33850D02*
Y43100D01*
X36950Y33850D02*
Y43100D01*
X31950Y45650D02*
X33950D01*
X31950Y54900D02*
Y55650D01*
X33950D01*
Y54900D02*
Y55650D01*
Y45650D02*
Y54900D01*
X31950Y45650D02*
Y54900D01*
X41500Y45700D02*
X43500D01*
X41500Y54950D02*
Y55700D01*
X43500D01*
Y54950D02*
Y55700D01*
Y45700D02*
Y54950D01*
X41500Y45700D02*
Y54950D01*
D18*
X43435Y44385D02*
Y43785D01*
X43135D01*
X43035Y43885D01*
Y44085D01*
X43135Y44185D01*
X43435D01*
X42835Y44385D02*
X42635D01*
X42735D01*
Y43785D01*
X42835Y43885D01*
X33885Y44335D02*
Y43735D01*
X33585D01*
X33485Y43835D01*
Y44035D01*
X33585Y44135D01*
X33885D01*
X32885Y44335D02*
X33285D01*
X32885Y43935D01*
Y43835D01*
X32985Y43735D01*
X33185D01*
X33285Y43835D01*
X38885Y32535D02*
Y31935D01*
X38585D01*
X38485Y32035D01*
Y32235D01*
X38585Y32335D01*
X38885D01*
X38285Y32035D02*
X38185Y31935D01*
X37985D01*
X37885Y32035D01*
Y32135D01*
X37985Y32235D01*
X38085D01*
X37985D01*
X37885Y32335D01*
Y32435D01*
X37985Y32535D01*
X38185D01*
X38285Y32435D01*
X25725Y33905D02*
X25825Y33805D01*
X26025D01*
X26125Y33905D01*
Y34305D01*
X26025Y34405D01*
X25825D01*
X25725Y34305D01*
X25225Y33805D02*
X25425D01*
X25525Y33905D01*
Y34305D01*
X25425Y34405D01*
X25225D01*
X25125Y34305D01*
Y33905D01*
X25225Y33805D01*
X24925Y34405D02*
Y33805D01*
X24526Y34405D01*
Y33805D01*
X24326Y34405D02*
Y33805D01*
X23926Y34405D01*
Y33805D01*
X23726Y34405D02*
X23526D01*
X23626D01*
Y33805D01*
X23726Y33905D01*
D19*
X26150Y34850D02*
X25850D01*
X25950Y34950D01*
X25850Y35050D01*
X26150D01*
X25850Y35300D02*
Y35200D01*
X25900Y35150D01*
X26100D01*
X26150Y35200D01*
Y35300D01*
X26100Y35350D01*
X25900D01*
X25850Y35300D01*
Y35450D02*
X26150D01*
Y35650D01*
X25850Y35950D02*
Y35750D01*
X26150D01*
Y35950D01*
X26000Y35750D02*
Y35850D01*
X25850Y36050D02*
X26150Y36250D01*
X25850D02*
X26150Y36050D01*
X25850Y36649D02*
Y36849D01*
X25900D01*
X26100Y36649D01*
X26150D01*
Y36949D02*
Y37049D01*
Y36999D01*
X25850D01*
X25900Y36949D01*
X25850Y37399D02*
X25900Y37299D01*
X26000Y37199D01*
X26100D01*
X26150Y37249D01*
Y37349D01*
X26100Y37399D01*
X26050D01*
X26000Y37349D01*
Y37199D01*
X25850Y37699D02*
X25900Y37599D01*
X26000Y37499D01*
X26100D01*
X26150Y37549D01*
Y37649D01*
X26100Y37699D01*
X26050D01*
X26000Y37649D01*
Y37499D01*
X26150Y37799D02*
Y37899D01*
Y37849D01*
X25850D01*
X25900Y37799D01*
X26000Y38049D02*
Y38249D01*
X26150Y38549D02*
Y38349D01*
X25950Y38549D01*
X25900D01*
X25850Y38499D01*
Y38399D01*
X25900Y38349D01*
Y38649D02*
X25850Y38699D01*
Y38799D01*
X25900Y38849D01*
X26100D01*
X26150Y38799D01*
Y38699D01*
X26100Y38649D01*
X25900D01*
X25850Y39149D02*
X25900Y39049D01*
X26000Y38949D01*
X26100D01*
X26150Y38999D01*
Y39099D01*
X26100Y39149D01*
X26050D01*
X26000Y39099D01*
Y38949D01*
X25900Y39249D02*
X25850Y39299D01*
Y39399D01*
X25900Y39449D01*
X25950D01*
X26000Y39399D01*
X26050Y39449D01*
X26100D01*
X26150Y39399D01*
Y39299D01*
X26100Y39249D01*
X26050D01*
X26000Y39299D01*
X25950Y39249D01*
X25900D01*
X26000Y39299D02*
Y39399D01*
X26150Y39848D02*
X25850D01*
Y39998D01*
X25900Y40048D01*
X26000D01*
X26050Y39998D01*
Y39848D01*
X25850Y40148D02*
X26150D01*
Y40348D01*
X25850Y40448D02*
X26100D01*
X26150Y40498D01*
Y40598D01*
X26100Y40648D01*
X25850D01*
X25900Y40948D02*
X25850Y40898D01*
Y40798D01*
X25900Y40748D01*
X26100D01*
X26150Y40798D01*
Y40898D01*
X26100Y40948D01*
X26000D01*
Y40848D01*
X40217Y55333D02*
X40150Y55400D01*
X40017D01*
X39950Y55333D01*
Y55267D01*
X40017Y55200D01*
X40150D01*
X40217Y55133D01*
Y55067D01*
X40150Y55000D01*
X40017D01*
X39950Y55067D01*
X40350Y55400D02*
Y55000D01*
X40550D01*
X40616Y55067D01*
Y55333D01*
X40550Y55400D01*
X40350D01*
X40750Y55333D02*
X40816Y55400D01*
X40950D01*
X41016Y55333D01*
Y55067D01*
X40950Y55000D01*
X40816D01*
X40750Y55067D01*
Y55333D01*
X43967D02*
X43900Y55400D01*
X43767D01*
X43700Y55333D01*
Y55267D01*
X43767Y55200D01*
X43900D01*
X43967Y55133D01*
Y55067D01*
X43900Y55000D01*
X43767D01*
X43700Y55067D01*
X44100Y55400D02*
Y55000D01*
X44300D01*
X44366Y55067D01*
Y55333D01*
X44300Y55400D01*
X44100D01*
X44500Y55000D02*
X44633D01*
X44566D01*
Y55400D01*
X44500Y55333D01*
X40267Y54333D02*
X40200Y54400D01*
X40067D01*
X40000Y54333D01*
Y54267D01*
X40067Y54200D01*
X40200D01*
X40267Y54133D01*
Y54067D01*
X40200Y54000D01*
X40067D01*
X40000Y54067D01*
X40400Y54400D02*
Y54000D01*
X40600D01*
X40666Y54067D01*
Y54333D01*
X40600Y54400D01*
X40400D01*
X41066Y54000D02*
X40800D01*
X41066Y54267D01*
Y54333D01*
X41000Y54400D01*
X40866D01*
X40800Y54333D01*
X40267Y53333D02*
X40200Y53400D01*
X40067D01*
X40000Y53333D01*
Y53267D01*
X40067Y53200D01*
X40200D01*
X40267Y53133D01*
Y53067D01*
X40200Y53000D01*
X40067D01*
X40000Y53067D01*
X40400Y53400D02*
Y53000D01*
X40600D01*
X40666Y53067D01*
Y53333D01*
X40600Y53400D01*
X40400D01*
X41000Y53000D02*
Y53400D01*
X40800Y53200D01*
X41066D01*
X40267Y52333D02*
X40200Y52400D01*
X40067D01*
X40000Y52333D01*
Y52267D01*
X40067Y52200D01*
X40200D01*
X40267Y52133D01*
Y52067D01*
X40200Y52000D01*
X40067D01*
X40000Y52067D01*
X40400Y52400D02*
Y52000D01*
X40600D01*
X40666Y52067D01*
Y52333D01*
X40600Y52400D01*
X40400D01*
X41066D02*
X40933Y52333D01*
X40800Y52200D01*
Y52067D01*
X40866Y52000D01*
X41000D01*
X41066Y52067D01*
Y52133D01*
X41000Y52200D01*
X40800D01*
X40267Y51333D02*
X40200Y51400D01*
X40067D01*
X40000Y51333D01*
Y51267D01*
X40067Y51200D01*
X40200D01*
X40267Y51133D01*
Y51067D01*
X40200Y51000D01*
X40067D01*
X40000Y51067D01*
X40400Y51400D02*
Y51000D01*
X40600D01*
X40666Y51067D01*
Y51333D01*
X40600Y51400D01*
X40400D01*
X40800Y51333D02*
X40866Y51400D01*
X41000D01*
X41066Y51333D01*
Y51267D01*
X41000Y51200D01*
X41066Y51133D01*
Y51067D01*
X41000Y51000D01*
X40866D01*
X40800Y51067D01*
Y51133D01*
X40866Y51200D01*
X40800Y51267D01*
Y51333D01*
X40866Y51200D02*
X41000D01*
X40267Y50333D02*
X40200Y50400D01*
X40067D01*
X40000Y50333D01*
Y50267D01*
X40067Y50200D01*
X40200D01*
X40267Y50133D01*
Y50067D01*
X40200Y50000D01*
X40067D01*
X40000Y50067D01*
X40400Y50400D02*
Y50000D01*
X40600D01*
X40666Y50067D01*
Y50333D01*
X40600Y50400D01*
X40400D01*
X40800Y50000D02*
X40933D01*
X40866D01*
Y50400D01*
X40800Y50333D01*
X41133D02*
X41200Y50400D01*
X41333D01*
X41400Y50333D01*
Y50067D01*
X41333Y50000D01*
X41200D01*
X41133Y50067D01*
Y50333D01*
X40267Y49333D02*
X40200Y49400D01*
X40067D01*
X40000Y49333D01*
Y49267D01*
X40067Y49200D01*
X40200D01*
X40267Y49133D01*
Y49067D01*
X40200Y49000D01*
X40067D01*
X40000Y49067D01*
X40400Y49400D02*
Y49000D01*
X40600D01*
X40666Y49067D01*
Y49333D01*
X40600Y49400D01*
X40400D01*
X40800Y49000D02*
X40933D01*
X40866D01*
Y49400D01*
X40800Y49333D01*
X41400Y49000D02*
X41133D01*
X41400Y49267D01*
Y49333D01*
X41333Y49400D01*
X41200D01*
X41133Y49333D01*
X40267Y48333D02*
X40200Y48400D01*
X40067D01*
X40000Y48333D01*
Y48267D01*
X40067Y48200D01*
X40200D01*
X40267Y48133D01*
Y48067D01*
X40200Y48000D01*
X40067D01*
X40000Y48067D01*
X40400Y48400D02*
Y48000D01*
X40600D01*
X40666Y48067D01*
Y48333D01*
X40600Y48400D01*
X40400D01*
X40800Y48000D02*
X40933D01*
X40866D01*
Y48400D01*
X40800Y48333D01*
X41333Y48000D02*
Y48400D01*
X41133Y48200D01*
X41400D01*
X38450Y47400D02*
Y47000D01*
X38650D01*
X38717Y47067D01*
Y47333D01*
X38650Y47400D01*
X38450D01*
X38850Y47000D02*
Y47267D01*
X38983Y47400D01*
X39116Y47267D01*
Y47000D01*
Y47200D01*
X38850D01*
X39250Y47400D02*
X39516D01*
X39383D01*
Y47000D01*
X39650D02*
Y47267D01*
X39783Y47400D01*
X39916Y47267D01*
Y47000D01*
Y47200D01*
X39650D01*
X40049Y47000D02*
Y47267D01*
X40183Y47400D01*
X40316Y47267D01*
Y47000D01*
Y47200D01*
X40049D01*
X40716Y47333D02*
X40649Y47400D01*
X40516D01*
X40449Y47333D01*
Y47067D01*
X40516Y47000D01*
X40649D01*
X40716Y47067D01*
X40849Y47400D02*
Y47000D01*
Y47133D01*
X41116Y47400D01*
X40916Y47200D01*
X41116Y47000D01*
X43967Y54333D02*
X43900Y54400D01*
X43767D01*
X43700Y54333D01*
Y54267D01*
X43767Y54200D01*
X43900D01*
X43967Y54133D01*
Y54067D01*
X43900Y54000D01*
X43767D01*
X43700Y54067D01*
X44100Y54400D02*
Y54000D01*
X44300D01*
X44366Y54067D01*
Y54333D01*
X44300Y54400D01*
X44100D01*
X44500Y54333D02*
X44566Y54400D01*
X44700D01*
X44766Y54333D01*
Y54267D01*
X44700Y54200D01*
X44633D01*
X44700D01*
X44766Y54133D01*
Y54067D01*
X44700Y54000D01*
X44566D01*
X44500Y54067D01*
X43967Y53333D02*
X43900Y53400D01*
X43767D01*
X43700Y53333D01*
Y53267D01*
X43767Y53200D01*
X43900D01*
X43967Y53133D01*
Y53067D01*
X43900Y53000D01*
X43767D01*
X43700Y53067D01*
X44100Y53400D02*
Y53000D01*
X44300D01*
X44366Y53067D01*
Y53333D01*
X44300Y53400D01*
X44100D01*
X44766D02*
X44500D01*
Y53200D01*
X44633Y53267D01*
X44700D01*
X44766Y53200D01*
Y53067D01*
X44700Y53000D01*
X44566D01*
X44500Y53067D01*
X43967Y52333D02*
X43900Y52400D01*
X43767D01*
X43700Y52333D01*
Y52267D01*
X43767Y52200D01*
X43900D01*
X43967Y52133D01*
Y52067D01*
X43900Y52000D01*
X43767D01*
X43700Y52067D01*
X44100Y52400D02*
Y52000D01*
X44300D01*
X44366Y52067D01*
Y52333D01*
X44300Y52400D01*
X44100D01*
X44500D02*
X44766D01*
Y52333D01*
X44500Y52067D01*
Y52000D01*
X43967Y51383D02*
X43900Y51450D01*
X43767D01*
X43700Y51383D01*
Y51317D01*
X43767Y51250D01*
X43900D01*
X43967Y51183D01*
Y51117D01*
X43900Y51050D01*
X43767D01*
X43700Y51117D01*
X44100Y51450D02*
Y51050D01*
X44300D01*
X44366Y51117D01*
Y51383D01*
X44300Y51450D01*
X44100D01*
X44500Y51117D02*
X44566Y51050D01*
X44700D01*
X44766Y51117D01*
Y51383D01*
X44700Y51450D01*
X44566D01*
X44500Y51383D01*
Y51317D01*
X44566Y51250D01*
X44766D01*
X44017Y50333D02*
X43950Y50400D01*
X43817D01*
X43750Y50333D01*
Y50267D01*
X43817Y50200D01*
X43950D01*
X44017Y50133D01*
Y50067D01*
X43950Y50000D01*
X43817D01*
X43750Y50067D01*
X44150Y50400D02*
Y50000D01*
X44350D01*
X44416Y50067D01*
Y50333D01*
X44350Y50400D01*
X44150D01*
X44550Y50000D02*
X44683D01*
X44616D01*
Y50400D01*
X44550Y50333D01*
X44883Y50000D02*
X45016D01*
X44950D01*
Y50400D01*
X44883Y50333D01*
X44017Y49333D02*
X43950Y49400D01*
X43817D01*
X43750Y49333D01*
Y49267D01*
X43817Y49200D01*
X43950D01*
X44017Y49133D01*
Y49067D01*
X43950Y49000D01*
X43817D01*
X43750Y49067D01*
X44150Y49400D02*
Y49000D01*
X44350D01*
X44416Y49067D01*
Y49333D01*
X44350Y49400D01*
X44150D01*
X44550Y49000D02*
X44683D01*
X44616D01*
Y49400D01*
X44550Y49333D01*
X44883D02*
X44950Y49400D01*
X45083D01*
X45150Y49333D01*
Y49267D01*
X45083Y49200D01*
X45016D01*
X45083D01*
X45150Y49133D01*
Y49067D01*
X45083Y49000D01*
X44950D01*
X44883Y49067D01*
X44017Y48333D02*
X43950Y48400D01*
X43817D01*
X43750Y48333D01*
Y48267D01*
X43817Y48200D01*
X43950D01*
X44017Y48133D01*
Y48067D01*
X43950Y48000D01*
X43817D01*
X43750Y48067D01*
X44150Y48400D02*
Y48000D01*
X44350D01*
X44416Y48067D01*
Y48333D01*
X44350Y48400D01*
X44150D01*
X44550Y48000D02*
X44683D01*
X44616D01*
Y48400D01*
X44550Y48333D01*
X45150Y48400D02*
X44883D01*
Y48200D01*
X45016Y48267D01*
X45083D01*
X45150Y48200D01*
Y48067D01*
X45083Y48000D01*
X44950D01*
X44883Y48067D01*
X43650Y47400D02*
Y47000D01*
X43850D01*
X43917Y47067D01*
Y47333D01*
X43850Y47400D01*
X43650D01*
X44050Y47000D02*
Y47267D01*
X44183Y47400D01*
X44316Y47267D01*
Y47000D01*
Y47200D01*
X44050D01*
X44450Y47400D02*
X44716D01*
X44583D01*
Y47000D01*
X44850D02*
Y47267D01*
X44983Y47400D01*
X45116Y47267D01*
Y47000D01*
Y47200D01*
X44850D01*
X45516Y47400D02*
X45249D01*
Y47000D01*
X45516D01*
X45249Y47200D02*
X45383D01*
X45649Y47000D02*
Y47400D01*
X45916Y47000D01*
Y47400D01*
X29467Y55300D02*
X29200D01*
Y54900D01*
X29467D01*
X29200Y55100D02*
X29333D01*
X29600Y55300D02*
Y54900D01*
X29800D01*
X29866Y54967D01*
Y55233D01*
X29800Y55300D01*
X29600D01*
X30000Y54900D02*
Y55167D01*
X30133Y55300D01*
X30266Y55167D01*
Y54900D01*
Y55100D01*
X30000D01*
X30400Y55300D02*
X30666D01*
X30533D01*
Y54900D01*
X30799D02*
Y55167D01*
X30933Y55300D01*
X31066Y55167D01*
Y54900D01*
Y55100D01*
X30799D01*
X31199Y55233D02*
X31266Y55300D01*
X31399D01*
X31466Y55233D01*
Y54967D01*
X31399Y54900D01*
X31266D01*
X31199Y54967D01*
Y55233D01*
X29467Y54400D02*
X29200D01*
Y54000D01*
X29467D01*
X29200Y54200D02*
X29333D01*
X29600Y54400D02*
Y54000D01*
X29800D01*
X29866Y54067D01*
Y54333D01*
X29800Y54400D01*
X29600D01*
X30000Y54000D02*
Y54267D01*
X30133Y54400D01*
X30266Y54267D01*
Y54000D01*
Y54200D01*
X30000D01*
X30400Y54400D02*
X30666D01*
X30533D01*
Y54000D01*
X30799D02*
Y54267D01*
X30933Y54400D01*
X31066Y54267D01*
Y54000D01*
Y54200D01*
X30799D01*
X31466Y54000D02*
X31199D01*
X31466Y54267D01*
Y54333D01*
X31399Y54400D01*
X31266D01*
X31199Y54333D01*
X29467Y53400D02*
X29200D01*
Y53000D01*
X29467D01*
X29200Y53200D02*
X29333D01*
X29600Y53400D02*
Y53000D01*
X29800D01*
X29866Y53067D01*
Y53333D01*
X29800Y53400D01*
X29600D01*
X30000Y53000D02*
Y53267D01*
X30133Y53400D01*
X30266Y53267D01*
Y53000D01*
Y53200D01*
X30000D01*
X30400Y53400D02*
X30666D01*
X30533D01*
Y53000D01*
X30799D02*
Y53267D01*
X30933Y53400D01*
X31066Y53267D01*
Y53000D01*
Y53200D01*
X30799D01*
X31399Y53000D02*
Y53400D01*
X31199Y53200D01*
X31466D01*
X29417Y52400D02*
X29150D01*
Y52000D01*
X29417D01*
X29150Y52200D02*
X29283D01*
X29550Y52400D02*
Y52000D01*
X29750D01*
X29816Y52067D01*
Y52333D01*
X29750Y52400D01*
X29550D01*
X29950Y52000D02*
Y52267D01*
X30083Y52400D01*
X30216Y52267D01*
Y52000D01*
Y52200D01*
X29950D01*
X30350Y52400D02*
X30616D01*
X30483D01*
Y52000D01*
X30749D02*
Y52267D01*
X30883Y52400D01*
X31016Y52267D01*
Y52000D01*
Y52200D01*
X30749D01*
X31416Y52400D02*
X31283Y52333D01*
X31149Y52200D01*
Y52067D01*
X31216Y52000D01*
X31349D01*
X31416Y52067D01*
Y52133D01*
X31349Y52200D01*
X31149D01*
X29417Y51400D02*
X29150D01*
Y51000D01*
X29417D01*
X29150Y51200D02*
X29283D01*
X29550Y51400D02*
Y51000D01*
X29750D01*
X29816Y51067D01*
Y51333D01*
X29750Y51400D01*
X29550D01*
X29950Y51000D02*
Y51267D01*
X30083Y51400D01*
X30216Y51267D01*
Y51000D01*
Y51200D01*
X29950D01*
X30350Y51400D02*
X30616D01*
X30483D01*
Y51000D01*
X30749D02*
Y51267D01*
X30883Y51400D01*
X31016Y51267D01*
Y51000D01*
Y51200D01*
X30749D01*
X31149Y51333D02*
X31216Y51400D01*
X31349D01*
X31416Y51333D01*
Y51267D01*
X31349Y51200D01*
X31416Y51133D01*
Y51067D01*
X31349Y51000D01*
X31216D01*
X31149Y51067D01*
Y51133D01*
X31216Y51200D01*
X31149Y51267D01*
Y51333D01*
X31216Y51200D02*
X31349D01*
X29417Y50400D02*
X29150D01*
Y50000D01*
X29417D01*
X29150Y50200D02*
X29283D01*
X29550Y50400D02*
Y50000D01*
X29750D01*
X29816Y50067D01*
Y50333D01*
X29750Y50400D01*
X29550D01*
X29950Y50000D02*
Y50267D01*
X30083Y50400D01*
X30216Y50267D01*
Y50000D01*
Y50200D01*
X29950D01*
X30350Y50400D02*
X30616D01*
X30483D01*
Y50000D01*
X30749D02*
Y50267D01*
X30883Y50400D01*
X31016Y50267D01*
Y50000D01*
Y50200D01*
X30749D01*
X31149Y50000D02*
X31283D01*
X31216D01*
Y50400D01*
X31149Y50333D01*
X31483D02*
X31549Y50400D01*
X31683D01*
X31749Y50333D01*
Y50067D01*
X31683Y50000D01*
X31549D01*
X31483Y50067D01*
Y50333D01*
X29417Y49400D02*
X29150D01*
Y49000D01*
X29417D01*
X29150Y49200D02*
X29283D01*
X29550Y49400D02*
Y49000D01*
X29750D01*
X29816Y49067D01*
Y49333D01*
X29750Y49400D01*
X29550D01*
X29950Y49000D02*
Y49267D01*
X30083Y49400D01*
X30216Y49267D01*
Y49000D01*
Y49200D01*
X29950D01*
X30350Y49400D02*
X30616D01*
X30483D01*
Y49000D01*
X30749D02*
Y49267D01*
X30883Y49400D01*
X31016Y49267D01*
Y49000D01*
Y49200D01*
X30749D01*
X31149Y49000D02*
X31283D01*
X31216D01*
Y49400D01*
X31149Y49333D01*
X31749Y49000D02*
X31483D01*
X31749Y49267D01*
Y49333D01*
X31683Y49400D01*
X31549D01*
X31483Y49333D01*
X29417Y48400D02*
X29150D01*
Y48000D01*
X29417D01*
X29150Y48200D02*
X29283D01*
X29550Y48400D02*
Y48000D01*
X29750D01*
X29816Y48067D01*
Y48333D01*
X29750Y48400D01*
X29550D01*
X29950Y48000D02*
Y48267D01*
X30083Y48400D01*
X30216Y48267D01*
Y48000D01*
Y48200D01*
X29950D01*
X30350Y48400D02*
X30616D01*
X30483D01*
Y48000D01*
X30749D02*
Y48267D01*
X30883Y48400D01*
X31016Y48267D01*
Y48000D01*
Y48200D01*
X30749D01*
X31149Y48000D02*
X31283D01*
X31216D01*
Y48400D01*
X31149Y48333D01*
X31683Y48000D02*
Y48400D01*
X31483Y48200D01*
X31749D01*
X29517Y47400D02*
X29250D01*
Y47000D01*
X29517D01*
X29250Y47200D02*
X29383D01*
X29650Y47400D02*
Y47133D01*
X29783Y47000D01*
X29916Y47133D01*
Y47400D01*
X30316D02*
X30050D01*
Y47000D01*
X30316D01*
X30050Y47200D02*
X30183D01*
X30450Y47000D02*
Y47400D01*
X30716Y47000D01*
Y47400D01*
X30849D02*
X31116D01*
X30983D01*
Y47000D01*
X34467Y55400D02*
X34200D01*
Y55000D01*
X34467D01*
X34200Y55200D02*
X34333D01*
X34600Y55400D02*
Y55000D01*
X34800D01*
X34866Y55067D01*
Y55333D01*
X34800Y55400D01*
X34600D01*
X35000Y55000D02*
Y55267D01*
X35133Y55400D01*
X35266Y55267D01*
Y55000D01*
Y55200D01*
X35000D01*
X35400Y55400D02*
X35666D01*
X35533D01*
Y55000D01*
X35799D02*
Y55267D01*
X35933Y55400D01*
X36066Y55267D01*
Y55000D01*
Y55200D01*
X35799D01*
X36199Y55000D02*
X36333D01*
X36266D01*
Y55400D01*
X36199Y55333D01*
X34467Y54400D02*
X34200D01*
Y54000D01*
X34467D01*
X34200Y54200D02*
X34333D01*
X34600Y54400D02*
Y54000D01*
X34800D01*
X34866Y54067D01*
Y54333D01*
X34800Y54400D01*
X34600D01*
X35000Y54000D02*
Y54267D01*
X35133Y54400D01*
X35266Y54267D01*
Y54000D01*
Y54200D01*
X35000D01*
X35400Y54400D02*
X35666D01*
X35533D01*
Y54000D01*
X35799D02*
Y54267D01*
X35933Y54400D01*
X36066Y54267D01*
Y54000D01*
Y54200D01*
X35799D01*
X36199Y54333D02*
X36266Y54400D01*
X36399D01*
X36466Y54333D01*
Y54267D01*
X36399Y54200D01*
X36333D01*
X36399D01*
X36466Y54133D01*
Y54067D01*
X36399Y54000D01*
X36266D01*
X36199Y54067D01*
X34467Y53400D02*
X34200D01*
Y53000D01*
X34467D01*
X34200Y53200D02*
X34333D01*
X34600Y53400D02*
Y53000D01*
X34800D01*
X34866Y53067D01*
Y53333D01*
X34800Y53400D01*
X34600D01*
X35000Y53000D02*
Y53267D01*
X35133Y53400D01*
X35266Y53267D01*
Y53000D01*
Y53200D01*
X35000D01*
X35400Y53400D02*
X35666D01*
X35533D01*
Y53000D01*
X35799D02*
Y53267D01*
X35933Y53400D01*
X36066Y53267D01*
Y53000D01*
Y53200D01*
X35799D01*
X36466Y53400D02*
X36199D01*
Y53200D01*
X36333Y53267D01*
X36399D01*
X36466Y53200D01*
Y53067D01*
X36399Y53000D01*
X36266D01*
X36199Y53067D01*
X34467Y52400D02*
X34200D01*
Y52000D01*
X34467D01*
X34200Y52200D02*
X34333D01*
X34600Y52400D02*
Y52000D01*
X34800D01*
X34866Y52067D01*
Y52333D01*
X34800Y52400D01*
X34600D01*
X35000Y52000D02*
Y52267D01*
X35133Y52400D01*
X35266Y52267D01*
Y52000D01*
Y52200D01*
X35000D01*
X35400Y52400D02*
X35666D01*
X35533D01*
Y52000D01*
X35799D02*
Y52267D01*
X35933Y52400D01*
X36066Y52267D01*
Y52000D01*
Y52200D01*
X35799D01*
X36199Y52400D02*
X36466D01*
Y52333D01*
X36199Y52067D01*
Y52000D01*
X34467Y51450D02*
X34200D01*
Y51050D01*
X34467D01*
X34200Y51250D02*
X34333D01*
X34600Y51450D02*
Y51050D01*
X34800D01*
X34866Y51117D01*
Y51383D01*
X34800Y51450D01*
X34600D01*
X35000Y51050D02*
Y51317D01*
X35133Y51450D01*
X35266Y51317D01*
Y51050D01*
Y51250D01*
X35000D01*
X35400Y51450D02*
X35666D01*
X35533D01*
Y51050D01*
X35799D02*
Y51317D01*
X35933Y51450D01*
X36066Y51317D01*
Y51050D01*
Y51250D01*
X35799D01*
X36199Y51117D02*
X36266Y51050D01*
X36399D01*
X36466Y51117D01*
Y51383D01*
X36399Y51450D01*
X36266D01*
X36199Y51383D01*
Y51317D01*
X36266Y51250D01*
X36466D01*
X34467Y50400D02*
X34200D01*
Y50000D01*
X34467D01*
X34200Y50200D02*
X34333D01*
X34600Y50400D02*
Y50000D01*
X34800D01*
X34866Y50067D01*
Y50333D01*
X34800Y50400D01*
X34600D01*
X35000Y50000D02*
Y50267D01*
X35133Y50400D01*
X35266Y50267D01*
Y50000D01*
Y50200D01*
X35000D01*
X35400Y50400D02*
X35666D01*
X35533D01*
Y50000D01*
X35799D02*
Y50267D01*
X35933Y50400D01*
X36066Y50267D01*
Y50000D01*
Y50200D01*
X35799D01*
X36199Y50000D02*
X36333D01*
X36266D01*
Y50400D01*
X36199Y50333D01*
X36533Y50000D02*
X36666D01*
X36599D01*
Y50400D01*
X36533Y50333D01*
X34467Y49400D02*
X34200D01*
Y49000D01*
X34467D01*
X34200Y49200D02*
X34333D01*
X34600Y49400D02*
Y49000D01*
X34800D01*
X34866Y49067D01*
Y49333D01*
X34800Y49400D01*
X34600D01*
X35000Y49000D02*
Y49267D01*
X35133Y49400D01*
X35266Y49267D01*
Y49000D01*
Y49200D01*
X35000D01*
X35400Y49400D02*
X35666D01*
X35533D01*
Y49000D01*
X35799D02*
Y49267D01*
X35933Y49400D01*
X36066Y49267D01*
Y49000D01*
Y49200D01*
X35799D01*
X36199Y49000D02*
X36333D01*
X36266D01*
Y49400D01*
X36199Y49333D01*
X36533D02*
X36599Y49400D01*
X36733D01*
X36799Y49333D01*
Y49267D01*
X36733Y49200D01*
X36666D01*
X36733D01*
X36799Y49133D01*
Y49067D01*
X36733Y49000D01*
X36599D01*
X36533Y49067D01*
X34467Y48400D02*
X34200D01*
Y48000D01*
X34467D01*
X34200Y48200D02*
X34333D01*
X34600Y48400D02*
Y48000D01*
X34800D01*
X34866Y48067D01*
Y48333D01*
X34800Y48400D01*
X34600D01*
X35000Y48000D02*
Y48267D01*
X35133Y48400D01*
X35266Y48267D01*
Y48000D01*
Y48200D01*
X35000D01*
X35400Y48400D02*
X35666D01*
X35533D01*
Y48000D01*
X35799D02*
Y48267D01*
X35933Y48400D01*
X36066Y48267D01*
Y48000D01*
Y48200D01*
X35799D01*
X36199Y48000D02*
X36333D01*
X36266D01*
Y48400D01*
X36199Y48333D01*
X36799Y48400D02*
X36533D01*
Y48200D01*
X36666Y48267D01*
X36733D01*
X36799Y48200D01*
Y48067D01*
X36733Y48000D01*
X36599D01*
X36533Y48067D01*
X34467Y47400D02*
X34200D01*
Y47000D01*
X34467D01*
X34200Y47200D02*
X34333D01*
X34600Y47400D02*
Y47133D01*
X34733Y47000D01*
X34866Y47133D01*
Y47400D01*
X35266D02*
X35000D01*
Y47000D01*
X35266D01*
X35000Y47200D02*
X35133D01*
X35400Y47000D02*
Y47400D01*
X35666Y47000D01*
Y47400D01*
X35799D02*
X36066D01*
X35933D01*
Y47000D01*
X36466Y47333D02*
X36399Y47400D01*
X36266D01*
X36199Y47333D01*
Y47067D01*
X36266Y47000D01*
X36399D01*
X36466Y47067D01*
X36866Y47400D02*
X36599D01*
Y47000D01*
X36866D01*
X36599Y47200D02*
X36733D01*
X34417Y43400D02*
X34150D01*
Y43000D01*
X34417D01*
X34150Y43200D02*
X34283D01*
X34550Y43000D02*
Y43267D01*
X34683Y43400D01*
X34816Y43267D01*
Y43000D01*
Y43200D01*
X34550D01*
X34950Y43400D02*
Y43000D01*
X35150D01*
X35216Y43067D01*
Y43333D01*
X35150Y43400D01*
X34950D01*
X35350D02*
Y43000D01*
X35550D01*
X35616Y43067D01*
Y43333D01*
X35550Y43400D01*
X35350D01*
X35749Y43000D02*
Y43400D01*
X35949D01*
X36016Y43333D01*
Y43200D01*
X35949Y43133D01*
X35749D01*
X35883D02*
X36016Y43000D01*
X36149Y43333D02*
X36216Y43400D01*
X36349D01*
X36416Y43333D01*
Y43067D01*
X36349Y43000D01*
X36216D01*
X36149Y43067D01*
Y43333D01*
X34417Y42400D02*
X34150D01*
Y42000D01*
X34417D01*
X34150Y42200D02*
X34283D01*
X34550Y42000D02*
Y42267D01*
X34683Y42400D01*
X34816Y42267D01*
Y42000D01*
Y42200D01*
X34550D01*
X34950Y42400D02*
Y42000D01*
X35150D01*
X35216Y42067D01*
Y42333D01*
X35150Y42400D01*
X34950D01*
X35350D02*
Y42000D01*
X35550D01*
X35616Y42067D01*
Y42333D01*
X35550Y42400D01*
X35350D01*
X35749Y42000D02*
Y42400D01*
X35949D01*
X36016Y42333D01*
Y42200D01*
X35949Y42133D01*
X35749D01*
X35883D02*
X36016Y42000D01*
X36416D02*
X36149D01*
X36416Y42267D01*
Y42333D01*
X36349Y42400D01*
X36216D01*
X36149Y42333D01*
X34417Y41400D02*
X34150D01*
Y41000D01*
X34417D01*
X34150Y41200D02*
X34283D01*
X34550Y41000D02*
Y41267D01*
X34683Y41400D01*
X34816Y41267D01*
Y41000D01*
Y41200D01*
X34550D01*
X34950Y41400D02*
Y41000D01*
X35150D01*
X35216Y41067D01*
Y41333D01*
X35150Y41400D01*
X34950D01*
X35350D02*
Y41000D01*
X35550D01*
X35616Y41067D01*
Y41333D01*
X35550Y41400D01*
X35350D01*
X35749Y41000D02*
Y41400D01*
X35949D01*
X36016Y41333D01*
Y41200D01*
X35949Y41133D01*
X35749D01*
X35883D02*
X36016Y41000D01*
X36349D02*
Y41400D01*
X36149Y41200D01*
X36416D01*
X34417Y40400D02*
X34150D01*
Y40000D01*
X34417D01*
X34150Y40200D02*
X34283D01*
X34550Y40000D02*
Y40267D01*
X34683Y40400D01*
X34816Y40267D01*
Y40000D01*
Y40200D01*
X34550D01*
X34950Y40400D02*
Y40000D01*
X35150D01*
X35216Y40067D01*
Y40333D01*
X35150Y40400D01*
X34950D01*
X35350D02*
Y40000D01*
X35550D01*
X35616Y40067D01*
Y40333D01*
X35550Y40400D01*
X35350D01*
X35749Y40000D02*
Y40400D01*
X35949D01*
X36016Y40333D01*
Y40200D01*
X35949Y40133D01*
X35749D01*
X35883D02*
X36016Y40000D01*
X36416Y40400D02*
X36283Y40333D01*
X36149Y40200D01*
Y40067D01*
X36216Y40000D01*
X36349D01*
X36416Y40067D01*
Y40133D01*
X36349Y40200D01*
X36149D01*
X39617Y43400D02*
X39350D01*
Y43000D01*
X39617D01*
X39350Y43200D02*
X39483D01*
X39750Y43000D02*
Y43267D01*
X39883Y43400D01*
X40016Y43267D01*
Y43000D01*
Y43200D01*
X39750D01*
X40150Y43400D02*
Y43000D01*
X40350D01*
X40416Y43067D01*
Y43333D01*
X40350Y43400D01*
X40150D01*
X40550D02*
Y43000D01*
X40750D01*
X40816Y43067D01*
Y43333D01*
X40750Y43400D01*
X40550D01*
X40949Y43000D02*
Y43400D01*
X41149D01*
X41216Y43333D01*
Y43200D01*
X41149Y43133D01*
X40949D01*
X41083D02*
X41216Y43000D01*
X41349D02*
X41483D01*
X41416D01*
Y43400D01*
X41349Y43333D01*
X39617Y42400D02*
X39350D01*
Y42000D01*
X39617D01*
X39350Y42200D02*
X39483D01*
X39750Y42000D02*
Y42267D01*
X39883Y42400D01*
X40016Y42267D01*
Y42000D01*
Y42200D01*
X39750D01*
X40150Y42400D02*
Y42000D01*
X40350D01*
X40416Y42067D01*
Y42333D01*
X40350Y42400D01*
X40150D01*
X40550D02*
Y42000D01*
X40750D01*
X40816Y42067D01*
Y42333D01*
X40750Y42400D01*
X40550D01*
X40949Y42000D02*
Y42400D01*
X41149D01*
X41216Y42333D01*
Y42200D01*
X41149Y42133D01*
X40949D01*
X41083D02*
X41216Y42000D01*
X41349Y42333D02*
X41416Y42400D01*
X41549D01*
X41616Y42333D01*
Y42267D01*
X41549Y42200D01*
X41483D01*
X41549D01*
X41616Y42133D01*
Y42067D01*
X41549Y42000D01*
X41416D01*
X41349Y42067D01*
X39617Y41450D02*
X39350D01*
Y41050D01*
X39617D01*
X39350Y41250D02*
X39483D01*
X39750Y41050D02*
Y41317D01*
X39883Y41450D01*
X40016Y41317D01*
Y41050D01*
Y41250D01*
X39750D01*
X40150Y41450D02*
Y41050D01*
X40350D01*
X40416Y41117D01*
Y41383D01*
X40350Y41450D01*
X40150D01*
X40550D02*
Y41050D01*
X40750D01*
X40816Y41117D01*
Y41383D01*
X40750Y41450D01*
X40550D01*
X40949Y41050D02*
Y41450D01*
X41149D01*
X41216Y41383D01*
Y41250D01*
X41149Y41183D01*
X40949D01*
X41083D02*
X41216Y41050D01*
X41616Y41450D02*
X41349D01*
Y41250D01*
X41483Y41317D01*
X41549D01*
X41616Y41250D01*
Y41117D01*
X41549Y41050D01*
X41416D01*
X41349Y41117D01*
X39617Y40400D02*
X39350D01*
Y40000D01*
X39617D01*
X39350Y40200D02*
X39483D01*
X39750Y40000D02*
Y40267D01*
X39883Y40400D01*
X40016Y40267D01*
Y40000D01*
Y40200D01*
X39750D01*
X40150Y40400D02*
Y40000D01*
X40350D01*
X40416Y40067D01*
Y40333D01*
X40350Y40400D01*
X40150D01*
X40550D02*
Y40000D01*
X40750D01*
X40816Y40067D01*
Y40333D01*
X40750Y40400D01*
X40550D01*
X40949Y40000D02*
Y40400D01*
X41149D01*
X41216Y40333D01*
Y40200D01*
X41149Y40133D01*
X40949D01*
X41083D02*
X41216Y40000D01*
X41349Y40400D02*
X41616D01*
Y40333D01*
X41349Y40067D01*
Y40000D01*
X34467Y46333D02*
X34400Y46400D01*
X34267D01*
X34200Y46333D01*
Y46067D01*
X34267Y46000D01*
X34400D01*
X34467Y46067D01*
Y46200D01*
X34333D01*
X34600Y46000D02*
Y46400D01*
X34866Y46000D01*
Y46400D01*
X35000D02*
Y46000D01*
X35200D01*
X35266Y46067D01*
Y46333D01*
X35200Y46400D01*
X35000D01*
X30317Y46333D02*
X30250Y46400D01*
X30117D01*
X30050Y46333D01*
Y46067D01*
X30117Y46000D01*
X30250D01*
X30317Y46067D01*
Y46200D01*
X30183D01*
X30450Y46000D02*
Y46400D01*
X30716Y46000D01*
Y46400D01*
X30850D02*
Y46000D01*
X31050D01*
X31116Y46067D01*
Y46333D01*
X31050Y46400D01*
X30850D01*
X44067Y46333D02*
X44000Y46400D01*
X43867D01*
X43800Y46333D01*
Y46067D01*
X43867Y46000D01*
X44000D01*
X44067Y46067D01*
Y46200D01*
X43933D01*
X44200Y46000D02*
Y46400D01*
X44466Y46000D01*
Y46400D01*
X44600D02*
Y46000D01*
X44800D01*
X44866Y46067D01*
Y46333D01*
X44800Y46400D01*
X44600D01*
X40117Y46333D02*
X40050Y46400D01*
X39917D01*
X39850Y46333D01*
Y46067D01*
X39917Y46000D01*
X40050D01*
X40117Y46067D01*
Y46200D01*
X39983D01*
X40250Y46000D02*
Y46400D01*
X40516Y46000D01*
Y46400D01*
X40650D02*
Y46000D01*
X40850D01*
X40916Y46067D01*
Y46333D01*
X40850Y46400D01*
X40650D01*
X39717Y34433D02*
X39650Y34500D01*
X39517D01*
X39450Y34433D01*
Y34167D01*
X39517Y34100D01*
X39650D01*
X39717Y34167D01*
Y34300D01*
X39583D01*
X39850Y34100D02*
Y34500D01*
X40116Y34100D01*
Y34500D01*
X40250D02*
Y34100D01*
X40450D01*
X40516Y34167D01*
Y34433D01*
X40450Y34500D01*
X40250D01*
X35717Y34483D02*
X35650Y34550D01*
X35517D01*
X35450Y34483D01*
Y34217D01*
X35517Y34150D01*
X35650D01*
X35717Y34217D01*
Y34350D01*
X35583D01*
X35850Y34150D02*
Y34550D01*
X36116Y34150D01*
Y34550D01*
X36250D02*
Y34150D01*
X36450D01*
X36516Y34217D01*
Y34483D01*
X36450Y34550D01*
X36250D01*
X39567Y38433D02*
X39500Y38500D01*
X39367D01*
X39300Y38433D01*
Y38367D01*
X39367Y38300D01*
X39500D01*
X39567Y38233D01*
Y38167D01*
X39500Y38100D01*
X39367D01*
X39300Y38167D01*
X39700Y38500D02*
Y38433D01*
X39833Y38300D01*
X39966Y38433D01*
Y38500D01*
X39833Y38300D02*
Y38100D01*
X40366Y38433D02*
X40300Y38500D01*
X40166D01*
X40100Y38433D01*
Y38367D01*
X40166Y38300D01*
X40300D01*
X40366Y38233D01*
Y38167D01*
X40300Y38100D01*
X40166D01*
X40100Y38167D01*
X40766Y38433D02*
X40700Y38500D01*
X40566D01*
X40500Y38433D01*
Y38167D01*
X40566Y38100D01*
X40700D01*
X40766Y38167D01*
X40899Y38500D02*
Y38100D01*
X41166D01*
X41299Y38500D02*
Y38100D01*
Y38233D01*
X41566Y38500D01*
X41366Y38300D01*
X41566Y38100D01*
X34667Y38483D02*
X34600Y38550D01*
X34467D01*
X34400Y38483D01*
Y38417D01*
X34467Y38350D01*
X34600D01*
X34667Y38283D01*
Y38217D01*
X34600Y38150D01*
X34467D01*
X34400Y38217D01*
X34800Y38550D02*
Y38483D01*
X34933Y38350D01*
X35066Y38483D01*
Y38550D01*
X34933Y38350D02*
Y38150D01*
X35466Y38483D02*
X35400Y38550D01*
X35266D01*
X35200Y38483D01*
Y38417D01*
X35266Y38350D01*
X35400D01*
X35466Y38283D01*
Y38217D01*
X35400Y38150D01*
X35266D01*
X35200Y38217D01*
X35866Y38483D02*
X35800Y38550D01*
X35666D01*
X35600Y38483D01*
Y38217D01*
X35666Y38150D01*
X35800D01*
X35866Y38217D01*
X35999Y38550D02*
Y38150D01*
X36266D01*
X36399Y38550D02*
Y38150D01*
Y38283D01*
X36666Y38550D01*
X36466Y38350D01*
X36666Y38150D01*
X39517Y37483D02*
X39450Y37550D01*
X39317D01*
X39250Y37483D01*
Y37217D01*
X39317Y37150D01*
X39450D01*
X39517Y37217D01*
X39916Y37483D02*
X39850Y37550D01*
X39717D01*
X39650Y37483D01*
Y37217D01*
X39717Y37150D01*
X39850D01*
X39916Y37217D01*
X40050Y37550D02*
Y37150D01*
X40316D01*
X40450Y37550D02*
Y37150D01*
Y37283D01*
X40716Y37550D01*
X40516Y37350D01*
X40716Y37150D01*
X35200Y37500D02*
Y37100D01*
X35400D01*
X35467Y37167D01*
Y37433D01*
X35400Y37500D01*
X35200D01*
X35800D02*
X35667D01*
X35600Y37433D01*
Y37167D01*
X35667Y37100D01*
X35800D01*
X35866Y37167D01*
Y37433D01*
X35800Y37500D01*
X36000Y37100D02*
Y37500D01*
X36266Y37100D01*
Y37500D01*
X36666D02*
X36400D01*
Y37100D01*
X36666D01*
X36400Y37300D02*
X36533D01*
X39300Y36550D02*
X39433D01*
X39367D01*
Y36150D01*
X39300D01*
X39433D01*
X39633D02*
Y36550D01*
X39900Y36150D01*
Y36550D01*
X40033D02*
X40166D01*
X40100D01*
Y36150D01*
X40033D01*
X40166D01*
X40366Y36550D02*
X40633D01*
X40500D01*
Y36150D01*
X33950Y36100D02*
Y36500D01*
X34150D01*
X34217Y36433D01*
Y36300D01*
X34150Y36233D01*
X33950D01*
X34350Y36100D02*
Y36500D01*
X34550D01*
X34616Y36433D01*
Y36300D01*
X34550Y36233D01*
X34350D01*
X34483D02*
X34616Y36100D01*
X34950Y36500D02*
X34816D01*
X34750Y36433D01*
Y36167D01*
X34816Y36100D01*
X34950D01*
X35016Y36167D01*
Y36433D01*
X34950Y36500D01*
X35416Y36433D02*
X35350Y36500D01*
X35216D01*
X35150Y36433D01*
Y36167D01*
X35216Y36100D01*
X35350D01*
X35416Y36167D01*
Y36300D01*
X35283D01*
X35549Y36100D02*
Y36500D01*
X35749D01*
X35816Y36433D01*
Y36300D01*
X35749Y36233D01*
X35549D01*
X35683D02*
X35816Y36100D01*
X35949D02*
Y36367D01*
X36083Y36500D01*
X36216Y36367D01*
Y36100D01*
Y36300D01*
X35949D01*
X36349Y36100D02*
Y36500D01*
X36483Y36367D01*
X36616Y36500D01*
Y36100D01*
X35450Y35600D02*
Y35200D01*
X35650D01*
X35717Y35267D01*
Y35533D01*
X35650Y35600D01*
X35450D01*
X35850D02*
X35983D01*
X35917D01*
Y35200D01*
X35850D01*
X35983D01*
X36183D02*
Y35600D01*
X36450Y35200D01*
Y35600D01*
M02*
