%FSLAX24Y24*%
%MOIN*%
G70*
G01*
G75*
G04 Layer_Physical_Order=1*
G04 Layer_Color=255*
%ADD10C,0.0177*%
%ADD11R,0.0394X0.0433*%
%ADD12R,0.0472X0.0787*%
%ADD13C,0.0400*%
%ADD14R,0.0394X0.1083*%
%ADD15R,0.0500X0.1449*%
%ADD16R,0.1024X0.0945*%
%ADD17R,0.1000X0.1400*%
%ADD18R,0.0300X0.0600*%
%ADD19R,0.0472X0.0472*%
%ADD20R,0.0098X0.0256*%
%ADD21R,0.0492X0.0165*%
%ADD22R,0.0650X0.0118*%
%ADD23R,0.0945X0.1024*%
%ADD24R,0.0787X0.0551*%
%ADD25R,0.0787X0.0472*%
%ADD26R,0.0669X0.0177*%
%ADD27R,0.0669X0.0177*%
%ADD28R,0.0197X0.0748*%
%ADD29R,0.0748X0.0197*%
%ADD30R,0.0945X0.0354*%
%ADD31R,0.0433X0.0394*%
%ADD32R,0.0709X0.0630*%
%ADD33R,0.0630X0.0709*%
%ADD34R,0.0512X0.0630*%
%ADD35R,0.1240X0.1360*%
%ADD36C,0.0060*%
%ADD37C,0.0080*%
%ADD38C,0.0100*%
%ADD39C,0.0120*%
%ADD40C,0.0200*%
%ADD41C,0.0160*%
%ADD42C,0.0110*%
%ADD43C,0.0150*%
%ADD44C,0.0433*%
%ADD45C,0.1600*%
%ADD46C,0.0700*%
%ADD47R,0.0591X0.0591*%
%ADD48C,0.0591*%
%ADD49C,0.0669*%
%ADD50C,0.0200*%
G36*
X62992Y30612D02*
X46850D01*
Y33858D01*
X47787D01*
X47823Y33823D01*
Y33450D01*
X48966D01*
Y33823D01*
X48966Y33823D01*
D01*
D01*
X48966Y33832D01*
D01*
X48992Y33858D01*
X49598D01*
X49634Y33823D01*
Y32768D01*
X50777D01*
Y33157D01*
X50832D01*
X50865Y33115D01*
X50919Y33073D01*
X50983Y33047D01*
X51050Y33038D01*
X51118Y33047D01*
X51182Y33073D01*
X51236Y33115D01*
X51277Y33169D01*
X51304Y33232D01*
X51313Y33300D01*
X51304Y33368D01*
X51277Y33431D01*
X51236Y33485D01*
X51182Y33527D01*
X51118Y33553D01*
X51050Y33562D01*
X50983Y33553D01*
X50919Y33527D01*
X50865Y33485D01*
X50832Y33443D01*
X50777D01*
Y33823D01*
X50777Y33823D01*
D01*
D01*
X50777Y33832D01*
D01*
X50803Y33858D01*
X60094D01*
X60108Y33826D01*
X60149Y33771D01*
X60204Y33730D01*
X60267Y33703D01*
X60335Y33694D01*
X60403Y33703D01*
X60466Y33730D01*
X60520Y33771D01*
X60562Y33826D01*
X60575Y33858D01*
X62992D01*
Y30612D01*
D02*
G37*
G36*
X58268Y70048D02*
X58231Y70016D01*
X58163Y70007D01*
X58100Y69981D01*
X58045Y69939D01*
X58004Y69885D01*
X57977Y69821D01*
X57969Y69754D01*
X57977Y69686D01*
X58004Y69622D01*
X58045Y69568D01*
X58100Y69526D01*
X58163Y69500D01*
X58231Y69491D01*
X58268Y69459D01*
Y66142D01*
X55118D01*
Y68307D01*
X54784D01*
X54763Y68333D01*
X54751Y68396D01*
X54715Y68448D01*
X54662Y68484D01*
X54600Y68496D01*
X54538Y68484D01*
X54485Y68448D01*
X54449Y68396D01*
X54437Y68333D01*
X54416Y68307D01*
X53937D01*
Y70472D01*
X58268D01*
Y70048D01*
D02*
G37*
%LPC*%
G36*
X52950Y33391D02*
X52540D01*
Y32782D01*
X52950D01*
Y33391D01*
D02*
G37*
G36*
X48966Y33150D02*
X48544D01*
Y32768D01*
X48966D01*
Y33150D01*
D02*
G37*
G36*
X48244D02*
X47823D01*
Y32768D01*
X48244D01*
Y33150D01*
D02*
G37*
G36*
X53660Y32482D02*
X53250D01*
Y31872D01*
X53660D01*
Y32482D01*
D02*
G37*
G36*
X52950D02*
X52540D01*
Y31872D01*
X52950D01*
Y32482D01*
D02*
G37*
G36*
X59660D02*
X59250D01*
Y31872D01*
X59660D01*
Y32482D01*
D02*
G37*
G36*
X58950D02*
X58540D01*
Y31872D01*
X58950D01*
Y32482D01*
D02*
G37*
G36*
X53660Y33391D02*
X53250D01*
Y32782D01*
X53660D01*
Y33391D01*
D02*
G37*
G36*
X56662Y69282D02*
X56252D01*
Y68671D01*
X56662D01*
Y69282D01*
D02*
G37*
G36*
X55952Y70191D02*
X55542D01*
Y69581D01*
X55952D01*
Y70191D01*
D02*
G37*
G36*
X56662D02*
X56252D01*
Y69581D01*
X56662D01*
Y70191D01*
D02*
G37*
G36*
X55952Y69282D02*
X55542D01*
Y68671D01*
X55952D01*
Y69282D01*
D02*
G37*
G36*
X58950Y33391D02*
X58540D01*
Y32782D01*
X58950D01*
Y33391D01*
D02*
G37*
G36*
X59660D02*
X59250D01*
Y32782D01*
X59660D01*
Y33391D01*
D02*
G37*
G36*
X56750Y67231D02*
X56647Y67217D01*
X56551Y67177D01*
X56469Y67114D01*
X56405Y67032D01*
X56366Y66936D01*
X56352Y66833D01*
X56366Y66730D01*
X56405Y66634D01*
X56469Y66551D01*
X56551Y66488D01*
X56647Y66448D01*
X56750Y66435D01*
X56853Y66448D01*
X56949Y66488D01*
X57031Y66551D01*
X57095Y66634D01*
X57134Y66730D01*
X57148Y66833D01*
X57134Y66936D01*
X57095Y67032D01*
X57031Y67114D01*
X56949Y67177D01*
X56853Y67217D01*
X56750Y67231D01*
D02*
G37*
%LPD*%
D10*
X52953Y47441D02*
D03*
X53740Y48228D02*
D03*
X53346D02*
D03*
X55709Y52559D02*
D03*
X56102Y52165D02*
D03*
X56890Y52559D02*
D03*
X56496D02*
D03*
X56102Y52953D02*
D03*
Y53346D02*
D03*
Y52559D02*
D03*
X55709Y52165D02*
D03*
X55315Y52953D02*
D03*
Y53346D02*
D03*
X55709Y47441D02*
D03*
Y48622D02*
D03*
X56496Y49016D02*
D03*
X55709D02*
D03*
X56102Y49409D02*
D03*
X55709D02*
D03*
X54921Y51772D02*
D03*
X56890Y52953D02*
D03*
Y53346D02*
D03*
Y52165D02*
D03*
X57677Y52953D02*
D03*
X57283D02*
D03*
X57677Y53346D02*
D03*
X57283D02*
D03*
X56496Y52165D02*
D03*
X58465Y47441D02*
D03*
Y49409D02*
D03*
Y49803D02*
D03*
Y50197D02*
D03*
Y50591D02*
D03*
Y50984D02*
D03*
Y51378D02*
D03*
Y51772D02*
D03*
Y52165D02*
D03*
Y52559D02*
D03*
Y52953D02*
D03*
Y53346D02*
D03*
X58071Y47441D02*
D03*
Y47835D02*
D03*
Y48228D02*
D03*
Y49803D02*
D03*
Y50197D02*
D03*
Y50591D02*
D03*
Y50984D02*
D03*
Y51378D02*
D03*
Y51772D02*
D03*
Y52165D02*
D03*
Y52559D02*
D03*
Y52953D02*
D03*
Y53346D02*
D03*
X57677Y47441D02*
D03*
Y47835D02*
D03*
Y48622D02*
D03*
Y49016D02*
D03*
Y50197D02*
D03*
Y50591D02*
D03*
Y50984D02*
D03*
Y51378D02*
D03*
Y51772D02*
D03*
Y52165D02*
D03*
Y52559D02*
D03*
X57283Y47441D02*
D03*
Y47835D02*
D03*
Y48228D02*
D03*
Y48622D02*
D03*
Y49016D02*
D03*
Y49803D02*
D03*
Y50197D02*
D03*
Y50591D02*
D03*
Y50984D02*
D03*
Y51378D02*
D03*
Y51772D02*
D03*
Y52165D02*
D03*
Y52559D02*
D03*
X56890Y47441D02*
D03*
Y47835D02*
D03*
Y48228D02*
D03*
Y48622D02*
D03*
Y49016D02*
D03*
Y49409D02*
D03*
Y49803D02*
D03*
Y50197D02*
D03*
Y50591D02*
D03*
Y50984D02*
D03*
Y51378D02*
D03*
Y51772D02*
D03*
X56496Y47441D02*
D03*
Y47835D02*
D03*
Y48228D02*
D03*
Y48622D02*
D03*
Y49409D02*
D03*
Y49803D02*
D03*
Y50197D02*
D03*
Y50591D02*
D03*
Y50984D02*
D03*
Y51378D02*
D03*
Y51772D02*
D03*
Y52953D02*
D03*
Y53346D02*
D03*
X56102Y47441D02*
D03*
Y47835D02*
D03*
Y48228D02*
D03*
Y48622D02*
D03*
Y49016D02*
D03*
Y49803D02*
D03*
Y50197D02*
D03*
Y50591D02*
D03*
Y50984D02*
D03*
Y51378D02*
D03*
Y51772D02*
D03*
X55709Y47835D02*
D03*
Y48228D02*
D03*
Y49803D02*
D03*
Y50197D02*
D03*
Y50591D02*
D03*
Y50984D02*
D03*
Y51378D02*
D03*
Y51772D02*
D03*
Y52953D02*
D03*
Y53346D02*
D03*
X55315Y47441D02*
D03*
Y47835D02*
D03*
Y49016D02*
D03*
Y49409D02*
D03*
Y49803D02*
D03*
Y50197D02*
D03*
Y50591D02*
D03*
Y50984D02*
D03*
Y51378D02*
D03*
Y51772D02*
D03*
Y52165D02*
D03*
Y52559D02*
D03*
X54921Y49016D02*
D03*
Y49409D02*
D03*
Y49803D02*
D03*
Y50197D02*
D03*
Y50591D02*
D03*
Y50984D02*
D03*
Y51378D02*
D03*
Y52165D02*
D03*
Y52559D02*
D03*
Y52953D02*
D03*
Y53346D02*
D03*
X54528Y47441D02*
D03*
Y49016D02*
D03*
Y49409D02*
D03*
Y49803D02*
D03*
Y50197D02*
D03*
Y50591D02*
D03*
Y50984D02*
D03*
Y51378D02*
D03*
Y51772D02*
D03*
Y52165D02*
D03*
Y52559D02*
D03*
Y52953D02*
D03*
Y53346D02*
D03*
X54134Y49016D02*
D03*
Y50197D02*
D03*
Y50591D02*
D03*
Y51772D02*
D03*
Y52165D02*
D03*
Y52559D02*
D03*
Y52953D02*
D03*
Y53346D02*
D03*
X53740Y48622D02*
D03*
Y50591D02*
D03*
Y52165D02*
D03*
Y52559D02*
D03*
Y52953D02*
D03*
Y53346D02*
D03*
X53346Y49016D02*
D03*
Y50591D02*
D03*
Y52953D02*
D03*
Y53346D02*
D03*
X52953Y47835D02*
D03*
Y49803D02*
D03*
Y50591D02*
D03*
Y52953D02*
D03*
Y53346D02*
D03*
X52559Y47441D02*
D03*
Y49409D02*
D03*
Y49803D02*
D03*
Y51378D02*
D03*
Y53346D02*
D03*
X52953Y51378D02*
D03*
X52559Y50984D02*
D03*
X52953D02*
D03*
X52559Y50591D02*
D03*
X54134Y50984D02*
D03*
X52559Y52165D02*
D03*
Y51772D02*
D03*
X52953D02*
D03*
X53346Y50984D02*
D03*
X53740Y51772D02*
D03*
X52559Y52559D02*
D03*
X52953Y52165D02*
D03*
X53346Y51378D02*
D03*
X54134D02*
D03*
X52559Y52953D02*
D03*
X52953Y52559D02*
D03*
X53346D02*
D03*
Y51772D02*
D03*
Y52165D02*
D03*
X53740Y51378D02*
D03*
Y50984D02*
D03*
X53346Y50197D02*
D03*
X53740D02*
D03*
Y49803D02*
D03*
X54134D02*
D03*
X52559Y50197D02*
D03*
X52953D02*
D03*
X53346Y49803D02*
D03*
X52953Y49409D02*
D03*
X52559Y49016D02*
D03*
X52953D02*
D03*
X52559Y48622D02*
D03*
Y48228D02*
D03*
Y47835D02*
D03*
X53740Y49409D02*
D03*
X54134D02*
D03*
X53740Y49016D02*
D03*
X53346Y49409D02*
D03*
X52953Y48622D02*
D03*
X53346D02*
D03*
X52953Y48228D02*
D03*
X53346Y47835D02*
D03*
X53740D02*
D03*
X54134D02*
D03*
X54528D02*
D03*
X54921D02*
D03*
X53346Y47441D02*
D03*
X53740D02*
D03*
X54134D02*
D03*
X54921D02*
D03*
X55315Y48622D02*
D03*
X54134D02*
D03*
X54528D02*
D03*
X54134Y48228D02*
D03*
X54528D02*
D03*
X54921D02*
D03*
Y48622D02*
D03*
X55315Y48228D02*
D03*
X57677D02*
D03*
Y49803D02*
D03*
X58465Y48228D02*
D03*
Y47835D02*
D03*
Y48622D02*
D03*
X57677Y49409D02*
D03*
X58071Y48622D02*
D03*
X57283Y49409D02*
D03*
X58071D02*
D03*
Y49016D02*
D03*
X58465D02*
D03*
D11*
X54400Y63165D02*
D03*
Y63835D02*
D03*
X53600Y63165D02*
D03*
Y63835D02*
D03*
X53900Y67735D02*
D03*
Y67065D02*
D03*
X54600Y67065D02*
D03*
Y67735D02*
D03*
X52800Y63165D02*
D03*
Y63835D02*
D03*
X53200Y67065D02*
D03*
Y67735D02*
D03*
X59200Y60535D02*
D03*
Y59865D02*
D03*
D12*
X61600Y43351D02*
D03*
Y42249D02*
D03*
X61800Y49549D02*
D03*
Y65549D02*
D03*
X60600Y65651D02*
D03*
Y64549D02*
D03*
X60900Y53100D02*
D03*
X60400Y45451D02*
D03*
X60800Y40051D02*
D03*
X60600Y48549D02*
D03*
X60900Y69100D02*
D03*
X61800Y66651D02*
D03*
X60800Y56051D02*
D03*
X60900Y67998D02*
D03*
Y51998D02*
D03*
X60400Y44349D02*
D03*
X61800Y50651D02*
D03*
X60800Y54949D02*
D03*
Y38949D02*
D03*
X60600Y49651D02*
D03*
X59300Y45451D02*
D03*
Y44349D02*
D03*
D13*
X56800Y46000D02*
D03*
X35800Y68600D02*
D03*
X44000Y35000D02*
D03*
X71000Y71000D02*
D03*
X44962Y70361D02*
D03*
X40238Y74039D02*
D03*
X41025D02*
D03*
X41813D02*
D03*
X42600D02*
D03*
X43387D02*
D03*
X44175D02*
D03*
X44962D02*
D03*
X37700Y74076D02*
D03*
X36700D02*
D03*
X35700D02*
D03*
X33700D02*
D03*
X32700D02*
D03*
X31700Y74100D02*
D03*
X30700Y74076D02*
D03*
Y70150D02*
D03*
X31700D02*
D03*
X32700Y70174D02*
D03*
X33700Y70150D02*
D03*
X34700D02*
D03*
X35700D02*
D03*
X36700D02*
D03*
X37700D02*
D03*
X54694Y72471D02*
D03*
X55600Y70778D02*
D03*
X56299Y70768D02*
D03*
X57087D02*
D03*
X57310Y73300D02*
D03*
X58231Y69754D02*
D03*
X59126Y67061D02*
D03*
X52461Y35236D02*
D03*
X53051Y36516D02*
D03*
X59100Y33813D02*
D03*
X60335Y33957D02*
D03*
X58661Y35236D02*
D03*
X60603Y35800D02*
D03*
X61516Y34941D02*
D03*
X57526Y34600D02*
D03*
X57283Y35433D02*
D03*
X57185Y39075D02*
D03*
X54823Y38878D02*
D03*
Y35335D02*
D03*
X54429Y34154D02*
D03*
X55958Y34600D02*
D03*
X51673Y35138D02*
D03*
X49954Y34600D02*
D03*
X51050Y33300D02*
D03*
X47539Y33366D02*
D03*
X59810Y73000D02*
D03*
Y70933D02*
D03*
X63190Y73131D02*
D03*
X64227Y72000D02*
D03*
X63192Y70870D02*
D03*
X65161Y71854D02*
D03*
X67425D02*
D03*
X67031Y73724D02*
D03*
X69295D02*
D03*
X55000Y69000D02*
D03*
X57500D02*
D03*
D14*
X40238Y71363D02*
D03*
X41025D02*
D03*
X41813D02*
D03*
X42600D02*
D03*
X43387D02*
D03*
X44175D02*
D03*
X40238Y73037D02*
D03*
X41025D02*
D03*
X41813D02*
D03*
X42600D02*
D03*
X43387D02*
D03*
X44175D02*
D03*
X44962Y71363D02*
D03*
Y73037D02*
D03*
D15*
X30700Y73074D02*
D03*
Y71326D02*
D03*
X31700Y73074D02*
D03*
Y71326D02*
D03*
X32700Y73074D02*
D03*
Y71326D02*
D03*
X33700Y73074D02*
D03*
Y71326D02*
D03*
X34700Y73074D02*
D03*
Y71326D02*
D03*
X35700Y73074D02*
D03*
Y71326D02*
D03*
X36700Y73074D02*
D03*
Y71326D02*
D03*
X37700Y73074D02*
D03*
Y71326D02*
D03*
D16*
X56506Y73300D02*
D03*
X54694D02*
D03*
X50206Y33300D02*
D03*
X48394D02*
D03*
D17*
X53100Y32631D02*
D03*
X59100D02*
D03*
X56102Y69432D02*
D03*
D18*
X53600Y34600D02*
D03*
X52100D02*
D03*
X54100D02*
D03*
X52600D02*
D03*
X53100D02*
D03*
X59100D02*
D03*
X58600D02*
D03*
X60100D02*
D03*
X58100D02*
D03*
X59600D02*
D03*
X56102Y71400D02*
D03*
X55602D02*
D03*
X57102D02*
D03*
X55102D02*
D03*
X56602D02*
D03*
D19*
X63310Y42820D02*
D03*
X63300Y58850D02*
D03*
X63432Y66200D02*
D03*
Y50200D02*
D03*
D20*
X62621Y42270D02*
D03*
X62818D02*
D03*
X63015D02*
D03*
X63212D02*
D03*
X63408D02*
D03*
X63605D02*
D03*
X63802D02*
D03*
X63999D02*
D03*
Y43392D02*
D03*
X63802D02*
D03*
X63605D02*
D03*
X63408D02*
D03*
X63212D02*
D03*
X63015D02*
D03*
X62818D02*
D03*
X62621D02*
D03*
X62611Y58300D02*
D03*
X62808D02*
D03*
X63005D02*
D03*
X63202D02*
D03*
X63398D02*
D03*
X63595D02*
D03*
X63792D02*
D03*
X63989D02*
D03*
Y59422D02*
D03*
X63792D02*
D03*
X63595D02*
D03*
X63398D02*
D03*
X63202D02*
D03*
X63005D02*
D03*
X62808D02*
D03*
X62611D02*
D03*
X62743Y65650D02*
D03*
X62940D02*
D03*
X63136D02*
D03*
X63333D02*
D03*
X63530D02*
D03*
X63727D02*
D03*
X63924D02*
D03*
X64121D02*
D03*
Y66772D02*
D03*
X63924D02*
D03*
X63727D02*
D03*
X63530D02*
D03*
X63333D02*
D03*
X63136D02*
D03*
X62940D02*
D03*
X62743D02*
D03*
Y49650D02*
D03*
X62940D02*
D03*
X63136D02*
D03*
X63333D02*
D03*
X63530D02*
D03*
X63727D02*
D03*
X63924D02*
D03*
X64121D02*
D03*
Y50772D02*
D03*
X63924D02*
D03*
X63727D02*
D03*
X63530D02*
D03*
X63333D02*
D03*
X63136D02*
D03*
X62940D02*
D03*
X62743D02*
D03*
D21*
X61500Y46982D02*
D03*
Y62982D02*
D03*
Y47750D02*
D03*
X64335D02*
D03*
Y47494D02*
D03*
Y47238D02*
D03*
Y46982D02*
D03*
X61500Y46726D02*
D03*
Y46470D02*
D03*
Y46215D02*
D03*
Y45191D02*
D03*
X64335Y44679D02*
D03*
Y48006D02*
D03*
X61500Y47494D02*
D03*
Y47238D02*
D03*
Y45703D02*
D03*
X64335D02*
D03*
Y45191D02*
D03*
Y45959D02*
D03*
Y46215D02*
D03*
Y46470D02*
D03*
Y46726D02*
D03*
Y44935D02*
D03*
Y45447D02*
D03*
Y64006D02*
D03*
X61500Y63750D02*
D03*
X64335D02*
D03*
X61500Y63494D02*
D03*
X64335D02*
D03*
X61500Y63238D02*
D03*
X64335D02*
D03*
Y62982D02*
D03*
X61500Y62726D02*
D03*
X64335D02*
D03*
X61500Y62470D02*
D03*
X64335D02*
D03*
X61500Y62215D02*
D03*
X64335D02*
D03*
Y61959D02*
D03*
X61500Y61703D02*
D03*
X64335D02*
D03*
Y61447D02*
D03*
X61500Y61191D02*
D03*
X64335D02*
D03*
Y60935D02*
D03*
Y60679D02*
D03*
X61500D02*
D03*
Y64006D02*
D03*
Y48006D02*
D03*
Y61959D02*
D03*
Y61447D02*
D03*
Y60935D02*
D03*
Y44679D02*
D03*
Y44935D02*
D03*
Y45959D02*
D03*
Y45447D02*
D03*
D22*
X61907Y68604D02*
D03*
Y68860D02*
D03*
Y69116D02*
D03*
Y69372D02*
D03*
X64093Y69884D02*
D03*
Y69628D02*
D03*
X61907Y70396D02*
D03*
Y70140D02*
D03*
Y69884D02*
D03*
Y69628D02*
D03*
X64093Y70396D02*
D03*
Y70140D02*
D03*
Y69372D02*
D03*
Y69116D02*
D03*
Y68860D02*
D03*
Y68604D02*
D03*
X61907Y40646D02*
D03*
Y40390D02*
D03*
Y40134D02*
D03*
Y39878D02*
D03*
Y39622D02*
D03*
X64093Y40646D02*
D03*
Y40390D02*
D03*
Y39622D02*
D03*
Y39366D02*
D03*
Y39110D02*
D03*
Y38854D02*
D03*
X61907Y56646D02*
D03*
Y56390D02*
D03*
Y56134D02*
D03*
Y55878D02*
D03*
Y55622D02*
D03*
X64093Y56646D02*
D03*
Y56390D02*
D03*
Y55622D02*
D03*
Y55366D02*
D03*
Y55110D02*
D03*
Y54854D02*
D03*
X47323Y64764D02*
D03*
Y64567D02*
D03*
Y64370D02*
D03*
Y64173D02*
D03*
Y63976D02*
D03*
Y63780D02*
D03*
Y63583D02*
D03*
Y63386D02*
D03*
Y63189D02*
D03*
Y62992D02*
D03*
Y62795D02*
D03*
Y62598D02*
D03*
Y62402D02*
D03*
Y62205D02*
D03*
Y62008D02*
D03*
Y61811D02*
D03*
Y61614D02*
D03*
Y61417D02*
D03*
Y61220D02*
D03*
Y61024D02*
D03*
Y60827D02*
D03*
Y60630D02*
D03*
Y60433D02*
D03*
Y60236D02*
D03*
X50177Y64764D02*
D03*
Y64567D02*
D03*
Y64370D02*
D03*
Y64173D02*
D03*
Y63976D02*
D03*
Y63780D02*
D03*
Y63583D02*
D03*
Y63386D02*
D03*
Y63189D02*
D03*
Y62992D02*
D03*
Y62795D02*
D03*
Y62598D02*
D03*
Y62402D02*
D03*
Y62205D02*
D03*
Y62008D02*
D03*
Y61811D02*
D03*
Y61614D02*
D03*
Y61417D02*
D03*
Y61220D02*
D03*
Y61024D02*
D03*
Y60827D02*
D03*
Y60630D02*
D03*
Y60433D02*
D03*
Y60236D02*
D03*
X47323Y48764D02*
D03*
Y48567D02*
D03*
Y48370D02*
D03*
Y48173D02*
D03*
Y47976D02*
D03*
Y47780D02*
D03*
Y47583D02*
D03*
Y47386D02*
D03*
Y47189D02*
D03*
Y46992D02*
D03*
Y46795D02*
D03*
Y46598D02*
D03*
Y46402D02*
D03*
Y46205D02*
D03*
Y46008D02*
D03*
Y45811D02*
D03*
Y45614D02*
D03*
Y45417D02*
D03*
Y45220D02*
D03*
Y45024D02*
D03*
Y44827D02*
D03*
Y44630D02*
D03*
Y44433D02*
D03*
Y44236D02*
D03*
X50177Y48764D02*
D03*
Y48567D02*
D03*
Y48370D02*
D03*
Y48173D02*
D03*
Y47976D02*
D03*
Y47780D02*
D03*
Y47583D02*
D03*
Y47386D02*
D03*
Y47189D02*
D03*
Y46992D02*
D03*
Y46795D02*
D03*
Y46598D02*
D03*
Y46402D02*
D03*
Y46205D02*
D03*
Y46008D02*
D03*
Y45811D02*
D03*
Y45614D02*
D03*
Y45417D02*
D03*
Y45220D02*
D03*
Y45024D02*
D03*
Y44827D02*
D03*
Y44630D02*
D03*
Y44433D02*
D03*
Y44236D02*
D03*
X47323Y56764D02*
D03*
Y56567D02*
D03*
Y56370D02*
D03*
Y56173D02*
D03*
Y55976D02*
D03*
Y55780D02*
D03*
Y55583D02*
D03*
Y55386D02*
D03*
Y55189D02*
D03*
Y54992D02*
D03*
Y54795D02*
D03*
Y54598D02*
D03*
Y54402D02*
D03*
Y54205D02*
D03*
Y54008D02*
D03*
Y53811D02*
D03*
Y53614D02*
D03*
Y53417D02*
D03*
Y53220D02*
D03*
Y53024D02*
D03*
Y52827D02*
D03*
Y52630D02*
D03*
Y52433D02*
D03*
Y52236D02*
D03*
X50177Y56764D02*
D03*
Y56567D02*
D03*
Y56370D02*
D03*
Y56173D02*
D03*
Y55976D02*
D03*
Y55780D02*
D03*
Y55583D02*
D03*
Y55386D02*
D03*
Y55189D02*
D03*
Y54992D02*
D03*
Y54795D02*
D03*
Y54598D02*
D03*
Y54402D02*
D03*
Y54205D02*
D03*
Y54008D02*
D03*
Y53811D02*
D03*
Y53614D02*
D03*
Y53417D02*
D03*
Y53220D02*
D03*
Y53024D02*
D03*
Y52827D02*
D03*
Y52630D02*
D03*
Y52433D02*
D03*
Y52236D02*
D03*
Y36236D02*
D03*
Y36433D02*
D03*
Y36630D02*
D03*
Y36827D02*
D03*
Y37024D02*
D03*
Y37220D02*
D03*
Y37417D02*
D03*
Y37614D02*
D03*
Y37811D02*
D03*
Y38008D02*
D03*
Y38205D02*
D03*
Y38402D02*
D03*
Y38598D02*
D03*
Y38795D02*
D03*
Y38992D02*
D03*
Y39189D02*
D03*
Y39386D02*
D03*
Y39583D02*
D03*
Y39780D02*
D03*
Y39976D02*
D03*
Y40173D02*
D03*
Y40370D02*
D03*
Y40567D02*
D03*
Y40764D02*
D03*
X47323Y36236D02*
D03*
Y36433D02*
D03*
Y36630D02*
D03*
Y36827D02*
D03*
Y37024D02*
D03*
Y37220D02*
D03*
Y37417D02*
D03*
Y37614D02*
D03*
Y37811D02*
D03*
Y38008D02*
D03*
Y38205D02*
D03*
Y38402D02*
D03*
Y38598D02*
D03*
Y38795D02*
D03*
Y38992D02*
D03*
Y39189D02*
D03*
Y39386D02*
D03*
Y39583D02*
D03*
Y39780D02*
D03*
Y39976D02*
D03*
Y40173D02*
D03*
Y40370D02*
D03*
Y40567D02*
D03*
Y40764D02*
D03*
X64093Y55878D02*
D03*
Y56134D02*
D03*
X61907Y55366D02*
D03*
Y55110D02*
D03*
Y54854D02*
D03*
X64093Y39878D02*
D03*
Y40134D02*
D03*
X61907Y39366D02*
D03*
Y39110D02*
D03*
Y38854D02*
D03*
Y53896D02*
D03*
Y53640D02*
D03*
Y53384D02*
D03*
Y53128D02*
D03*
Y52872D02*
D03*
Y52616D02*
D03*
Y52360D02*
D03*
Y52104D02*
D03*
X64093Y53896D02*
D03*
Y53640D02*
D03*
Y53384D02*
D03*
Y53128D02*
D03*
Y52872D02*
D03*
Y52616D02*
D03*
Y52360D02*
D03*
Y52104D02*
D03*
D23*
X61700Y35794D02*
D03*
Y37606D02*
D03*
X59126Y67943D02*
D03*
Y69754D02*
D03*
X54800Y38006D02*
D03*
Y36194D02*
D03*
X57200Y38106D02*
D03*
Y36294D02*
D03*
X68400Y71894D02*
D03*
Y73706D02*
D03*
X66050Y71894D02*
D03*
Y73706D02*
D03*
D24*
X57654Y44200D02*
D03*
X56000D02*
D03*
X57654Y42200D02*
D03*
X56000D02*
D03*
D25*
X48949Y49800D02*
D03*
X50051D02*
D03*
X49451Y43000D02*
D03*
X48349D02*
D03*
X49351Y59100D02*
D03*
X48249D02*
D03*
X53251Y65000D02*
D03*
X52149D02*
D03*
X48749Y41800D02*
D03*
X49851D02*
D03*
X49451Y35100D02*
D03*
X48349D02*
D03*
X49451Y50900D02*
D03*
X48349D02*
D03*
X48949Y57900D02*
D03*
X50051D02*
D03*
X63549Y41400D02*
D03*
X63249Y67700D02*
D03*
X59199Y63250D02*
D03*
X60301D02*
D03*
X64351Y67700D02*
D03*
X64651Y41400D02*
D03*
Y57400D02*
D03*
X63549D02*
D03*
X60301Y61750D02*
D03*
X59199D02*
D03*
D26*
X55911Y58663D02*
D03*
D27*
Y58407D02*
D03*
Y58152D02*
D03*
Y57896D02*
D03*
Y57640D02*
D03*
Y57384D02*
D03*
Y57128D02*
D03*
Y56872D02*
D03*
Y56616D02*
D03*
Y56360D02*
D03*
Y56104D02*
D03*
Y55848D02*
D03*
Y55593D02*
D03*
Y55337D02*
D03*
X58589Y58663D02*
D03*
Y58407D02*
D03*
Y58152D02*
D03*
Y57896D02*
D03*
Y57640D02*
D03*
Y57384D02*
D03*
Y57128D02*
D03*
Y56872D02*
D03*
Y56616D02*
D03*
Y56360D02*
D03*
Y56104D02*
D03*
Y55848D02*
D03*
Y55593D02*
D03*
Y55337D02*
D03*
D28*
X50975Y70843D02*
D03*
X50660D02*
D03*
X50345D02*
D03*
X50030D02*
D03*
X49715D02*
D03*
X49400D02*
D03*
X49085D02*
D03*
X48770D02*
D03*
X48455D02*
D03*
X48140D02*
D03*
X47825D02*
D03*
X50975Y66157D02*
D03*
X50660D02*
D03*
X50345D02*
D03*
X50030D02*
D03*
X49715D02*
D03*
X49400D02*
D03*
X49085D02*
D03*
X48770D02*
D03*
X48455D02*
D03*
X48140D02*
D03*
X47825D02*
D03*
D29*
X51743Y68500D02*
D03*
Y68815D02*
D03*
X47057Y70075D02*
D03*
Y69760D02*
D03*
Y69445D02*
D03*
Y69130D02*
D03*
Y68815D02*
D03*
Y68500D02*
D03*
Y68185D02*
D03*
Y67870D02*
D03*
Y67555D02*
D03*
Y67240D02*
D03*
Y66925D02*
D03*
X51743Y70075D02*
D03*
Y69760D02*
D03*
Y69445D02*
D03*
Y69130D02*
D03*
Y68185D02*
D03*
Y67870D02*
D03*
Y67555D02*
D03*
Y67240D02*
D03*
Y66925D02*
D03*
D30*
X56750Y65750D02*
D03*
Y65250D02*
D03*
Y64750D02*
D03*
Y64250D02*
D03*
Y63750D02*
D03*
Y63250D02*
D03*
Y62750D02*
D03*
D31*
X56065Y59800D02*
D03*
X56735D02*
D03*
X58235D02*
D03*
X57565D02*
D03*
X59035Y40800D02*
D03*
X58365D02*
D03*
X56365D02*
D03*
X57035D02*
D03*
D32*
X53400Y70049D02*
D03*
Y71151D02*
D03*
D33*
X53051Y35800D02*
D03*
X51949D02*
D03*
X60051D02*
D03*
X58949D02*
D03*
D34*
X57074Y39800D02*
D03*
X56326D02*
D03*
X59074D02*
D03*
X58326D02*
D03*
D35*
X59810Y72000D02*
D03*
X63190D02*
D03*
D36*
X52800Y47200D02*
X52953Y47353D01*
Y47441D01*
X53150Y48050D02*
X53350Y48250D01*
X53346Y48228D02*
X53740D01*
X53600Y62640D02*
Y63246D01*
X58667Y51378D02*
X58763Y51282D01*
X58465Y51378D02*
X58667D01*
X58465Y51378D02*
Y51378D01*
X55709Y45768D02*
Y47441D01*
X51873Y54823D02*
Y55613D01*
X57677Y43701D02*
Y44193D01*
X56000Y41638D02*
Y42200D01*
Y44200D02*
X56102Y44302D01*
Y45374D01*
X55709Y45768D02*
X56102Y45374D01*
X58563Y56890D02*
X58957D01*
X56890Y51772D02*
X57087Y51968D01*
X57283Y52165D02*
X57480Y52362D01*
X58465Y53346D02*
X58661Y53543D01*
X58071Y52953D02*
X58268Y53150D01*
X58071Y52953D02*
X58071D01*
X55709Y51772D02*
X55906Y51968D01*
X55709Y51772D02*
X55709D01*
X55906Y53150D02*
X55906D01*
X55709Y52953D02*
X55906Y53150D01*
X55906Y58169D02*
X56594D01*
X56102Y51772D02*
X56299Y51968D01*
X56102Y51772D02*
X56102D01*
X58169Y58407D02*
X58589D01*
X57972Y58211D02*
X58169Y58407D01*
X57972Y57972D02*
Y58211D01*
X58589Y58152D02*
X59136D01*
X57382Y57087D02*
X58191Y57896D01*
X57382Y56299D02*
Y57087D01*
X56890Y54626D02*
Y55807D01*
X56890D02*
X57382Y56299D01*
X57579Y56988D02*
X58230Y57640D01*
X57579Y56201D02*
Y56988D01*
X57087Y55709D02*
X57579Y56201D01*
X57087Y54331D02*
Y55709D01*
X58230Y57640D02*
X58589D01*
X59055Y57128D02*
X59096D01*
X58957Y56890D02*
X59154Y56693D01*
X58563Y57382D02*
X58589D01*
X58959Y57384D02*
X59154Y57579D01*
X58589Y57384D02*
X58959D01*
X58071Y58661D02*
X58563D01*
X55911Y57896D02*
X56376D01*
X56693Y52362D02*
X56890Y52165D01*
X56890D01*
X56102D02*
X56299Y52362D01*
X56102Y52165D02*
X56102D01*
X56557Y56360D02*
X56594Y56398D01*
X55911Y56360D02*
X56557D01*
X56518Y56616D02*
X56693Y56791D01*
X55911Y56616D02*
X56518D01*
X55906Y56890D02*
X55911D01*
X58465Y56594D02*
X58661D01*
X55911Y58407D02*
X56004D01*
X56890Y52559D02*
X57087Y52756D01*
X56496Y52559D02*
X56693Y52756D01*
X56102Y52559D02*
X56299Y52756D01*
X56102Y52559D02*
X56102D01*
X56496Y53346D02*
Y53642D01*
X56693Y53150D02*
Y54429D01*
X56890Y54626D01*
X58191Y57896D02*
X58589D01*
X56890Y53346D02*
Y54134D01*
X57087Y54331D01*
Y53150D02*
Y54035D01*
X57274Y54223D02*
Y55601D01*
X57087Y54035D02*
X57274Y54223D01*
Y55601D02*
X58033Y56360D01*
X57480Y55512D02*
X58073Y56104D01*
X57480Y54134D02*
Y55512D01*
X57283Y53937D02*
X57480Y54134D01*
X57283Y53346D02*
Y53937D01*
X57677Y55413D02*
X58112Y55848D01*
X57480Y53150D02*
Y53839D01*
X57677Y54035D02*
Y55413D01*
X57480Y53839D02*
X57677Y54035D01*
X58152Y55593D02*
X58589D01*
X57874Y53937D02*
Y55315D01*
X57677Y53740D02*
X57874Y53937D01*
X57677Y53346D02*
Y53740D01*
X57874Y55315D02*
X58152Y55593D01*
X57874Y53150D02*
Y53740D01*
X58071Y53937D02*
Y55217D01*
X57874Y53740D02*
X58071Y53937D01*
Y55217D02*
X58191Y55337D01*
X56496Y52953D02*
X56693Y53150D01*
X56496Y52953D02*
X56496D01*
X55315D02*
X55512Y53150D01*
X55315Y52953D02*
X55315D01*
X50177Y62598D02*
X52264D01*
X54921Y51772D02*
X55118Y51968D01*
X56890Y53346D02*
X56890Y53346D01*
Y52953D02*
X57087Y53150D01*
X57087D01*
X57283Y52953D02*
X57480Y53150D01*
X57480D01*
X57677Y53346D02*
X57677Y53346D01*
Y52953D02*
X57874Y53150D01*
X57874D01*
X58033Y56360D02*
X58589D01*
X58073Y56104D02*
X58589D01*
X58112Y55848D02*
X58589D01*
X58191Y55337D02*
X58589D01*
X55315Y52165D02*
Y52171D01*
X55121Y52365D02*
X55315Y52171D01*
X51088Y64567D02*
X51971Y63684D01*
X50177Y64567D02*
X51088D01*
X54727Y52753D02*
X54921Y52559D01*
X54727Y52753D02*
Y52758D01*
X54921Y52165D02*
Y52171D01*
X54727Y52365D02*
X54921Y52171D01*
X54528Y52559D02*
Y52564D01*
X54333Y52758D02*
X54528Y52564D01*
Y52165D02*
Y52171D01*
X54333Y52365D02*
X54528Y52171D01*
X54134Y52559D02*
Y52564D01*
X53940Y52758D02*
X54134Y52564D01*
Y52165D02*
Y52171D01*
X53940Y52365D02*
X54134Y52171D01*
X50891Y64370D02*
X51479Y63783D01*
X50177Y64370D02*
X50891D01*
X50891Y63976D02*
X51479Y63389D01*
X50177Y63976D02*
X50891D01*
X50691Y63783D02*
X50987Y63487D01*
X50199Y63783D02*
X50691D01*
X50793Y63386D02*
X51085Y63094D01*
X50177Y63386D02*
X50793D01*
X50596Y63189D02*
X50691Y63094D01*
X50177Y63189D02*
X50596D01*
X49612Y62795D02*
X50177D01*
X54727Y53152D02*
X54921Y52958D01*
Y52953D02*
Y52958D01*
X50177Y62402D02*
X51187D01*
X50177Y62205D02*
X51088D01*
X54333Y53152D02*
Y58664D01*
Y53152D02*
X54528Y52958D01*
Y52953D02*
Y52958D01*
X50990Y61614D02*
X54134Y58470D01*
Y53346D02*
Y58470D01*
X53940Y53152D02*
Y58271D01*
Y53152D02*
X54134Y52958D01*
Y52953D02*
Y52958D01*
X53743Y53644D02*
Y58172D01*
X53740Y53346D02*
Y53839D01*
X53543Y53155D02*
Y57978D01*
X50891Y60630D02*
X53543Y57978D01*
Y53155D02*
X53740Y52958D01*
Y52953D02*
Y52958D01*
X50767Y60433D02*
X53346Y57854D01*
Y53346D02*
Y57854D01*
X51187Y61811D02*
X54333Y58664D01*
X50177Y61811D02*
X51187D01*
X50177Y61614D02*
X50990D01*
X50177Y60630D02*
X50891D01*
X50990Y61220D02*
X53940Y58271D01*
X50177Y61220D02*
X50990D01*
X50891Y61024D02*
X53743Y58172D01*
X50177Y61024D02*
X50891D01*
X50177Y60433D02*
X50767D01*
X50177Y52433D02*
X50525D01*
X50177Y52630D02*
X50623D01*
X50177Y53024D02*
X50525D01*
X50177Y53614D02*
X50525D01*
X52365Y51774D01*
X50177Y53811D02*
X50498D01*
X52338Y51971D01*
X52758D01*
X50177Y54205D02*
X50525D01*
X50177Y54402D02*
X50525D01*
X52463Y52365D02*
X52758D01*
X50525Y54205D02*
X50691Y54038D01*
Y53940D02*
Y54038D01*
X50177Y53220D02*
X50525D01*
X52168Y51577D01*
X52753D01*
X50177Y54598D02*
X50623D01*
X50525Y54402D02*
X50888Y54038D01*
Y53940D02*
Y54038D01*
Y53940D02*
X52463Y52365D01*
X50623Y54598D02*
X51093Y54128D01*
Y53931D02*
Y54128D01*
X50177Y54795D02*
X50623D01*
X51282Y54137D01*
Y53940D02*
Y54137D01*
Y53940D02*
X52463Y52758D01*
X52758D01*
X50177Y55189D02*
X50525D01*
X52758Y51179D02*
Y51184D01*
Y51179D02*
X52953Y50984D01*
X52753Y51577D02*
X52953Y51378D01*
X52365Y51774D02*
X52557D01*
X52758Y51966D02*
Y51971D01*
Y51966D02*
X52953Y51772D01*
X52466Y52165D02*
X52559D01*
X50691Y53940D02*
X52466Y52165D01*
X52758Y52360D02*
Y52365D01*
Y52360D02*
X52953Y52165D01*
X52466Y52559D02*
X52559D01*
X51093Y53931D02*
X52466Y52559D01*
X52758Y52753D02*
Y52758D01*
Y52753D02*
X52953Y52559D01*
X51676Y53836D02*
Y54038D01*
X50525Y55189D02*
X51676Y54038D01*
Y53836D02*
X52559Y52953D01*
Y53346D02*
Y53352D01*
X52365Y53546D02*
X52559Y53352D01*
X52953Y52953D02*
Y52958D01*
X52758Y53152D02*
X52953Y52958D01*
X49775Y55386D02*
X50177D01*
X49707Y55318D02*
X49775Y55386D01*
X49412Y55318D02*
X49707D01*
X50177Y55780D02*
X50525D01*
X50790Y55515D01*
Y55219D02*
Y55515D01*
X50177Y55976D02*
X50623D01*
X51282Y55318D01*
X50177Y56370D02*
X50722D01*
X51577Y55515D01*
Y55121D02*
Y55515D01*
X50177Y56567D02*
X50919D01*
X51873Y55613D01*
X53152Y51184D02*
X53346Y50989D01*
Y50984D02*
Y50989D01*
X53546Y51184D02*
X53740Y50989D01*
Y50984D02*
Y50989D01*
X53152Y51577D02*
X53346Y51383D01*
Y51378D02*
Y51383D01*
X53546Y51577D02*
X53740Y51383D01*
Y51378D02*
Y51383D01*
X53152Y51971D02*
Y51971D01*
X53346Y52165D01*
X50177Y47386D02*
X50536D01*
X52365Y49215D01*
X52758D01*
X50177Y48567D02*
X50585D01*
X52217Y50199D01*
X50585Y48370D02*
X52217Y50002D01*
X50177Y48370D02*
X50585D01*
X52217Y50002D02*
X52758D01*
X50177Y47976D02*
X50535D01*
X50177Y47780D02*
X50535D01*
X50683Y46795D02*
X50837Y46949D01*
X50177Y46795D02*
X50683D01*
X50177Y46598D02*
X50781D01*
X51280Y47096D01*
Y47343D01*
X52362Y48425D01*
X50177Y46402D02*
X50831D01*
X50177Y46205D02*
X50880D01*
X52217Y50199D02*
X52557D01*
X52758Y50002D02*
Y50003D01*
X52758Y50003D02*
X52953Y50197D01*
X52758Y49609D02*
Y49609D01*
X52953Y49803D01*
X52758Y49215D02*
Y49215D01*
X52953Y49409D01*
X52758Y48821D02*
X52953Y49016D01*
X52463Y48821D02*
X52758D01*
X52362Y48425D02*
Y48425D01*
X52559Y48622D01*
X52510Y47835D02*
X52559D01*
X50880Y46205D02*
X52510Y47835D01*
X52559Y48130D02*
Y48228D01*
X50831Y46402D02*
X52559Y48130D01*
X50837Y47195D02*
X52463Y48821D01*
X50837Y46949D02*
Y47195D01*
X50634Y47189D02*
X52461Y49016D01*
X52559D01*
X50177Y47189D02*
X50634D01*
X50177Y45811D02*
X50683D01*
X50837Y45965D01*
X50177Y45614D02*
X50880D01*
X51132Y45866D01*
Y46161D01*
X50177Y45220D02*
X50880D01*
X51132Y45472D01*
X50197Y45030D02*
X51132D01*
X51624Y45522D01*
X50177Y44630D02*
X51175D01*
X51575Y45030D01*
X50177Y44433D02*
X51618D01*
X52116Y44931D01*
X52335Y49409D02*
X52559D01*
X52264Y49803D02*
X52559D01*
X52756Y48032D02*
Y48032D01*
X52953Y48228D01*
X52756Y48425D02*
Y48425D01*
X52953Y48622D01*
X53150Y48819D02*
Y48819D01*
Y48819D02*
X53346Y48622D01*
X53150Y49213D02*
X53346Y49016D01*
X53150Y49606D02*
X53346Y49409D01*
X53150Y50000D02*
X53346Y49803D01*
X50535Y47780D02*
X50840Y48085D01*
Y48210D01*
X52239Y49609D01*
X52758D01*
X50640Y48081D02*
Y48179D01*
X50535Y47976D02*
X50640Y48081D01*
Y48179D02*
X52264Y49803D01*
X50177Y40567D02*
X50803D01*
X53150Y42913D01*
X50177Y40370D02*
X50902D01*
X53346Y42815D01*
X50177Y39976D02*
X51000D01*
X53543Y42520D01*
Y47638D01*
X53150Y42913D02*
Y47638D01*
X50177Y39780D02*
X51246D01*
X53740Y42274D01*
X50177Y39386D02*
X51197D01*
X53937Y42126D01*
Y47638D01*
X50177Y39189D02*
X51295D01*
X54134Y42028D01*
X50177Y38795D02*
X51295D01*
X54331Y41831D01*
Y47638D01*
X50177Y38598D02*
X51492D01*
X54724Y41831D01*
Y47638D01*
X50177Y38402D02*
X51591D01*
X54921Y41732D01*
X53150Y47638D02*
X53346Y47835D01*
Y47441D02*
X53346Y47441D01*
Y42815D02*
Y47441D01*
X53543Y47638D02*
X53740Y47835D01*
Y42274D02*
Y47441D01*
X53937Y47638D02*
X54134Y47835D01*
Y42028D02*
Y47441D01*
X54331Y47638D02*
X54528Y47835D01*
X54724Y47638D02*
X54724D01*
X54921Y47835D01*
Y41732D02*
Y47441D01*
X54528Y47146D02*
Y47441D01*
X49738Y38205D02*
X50177D01*
X49606Y38337D02*
X49738Y38205D01*
X49573Y37811D02*
X50177D01*
X49459Y37697D02*
X49573Y37811D01*
X50640Y37598D02*
X50837Y37795D01*
X52362Y47244D02*
X52559Y47441D01*
X52953Y47835D02*
Y47835D01*
X52756Y47638D02*
X52953Y47835D01*
X50177Y37220D02*
X50852D01*
X51181Y37549D01*
X50177Y37024D02*
X51000D01*
X51575Y37598D01*
X53937Y48425D02*
X54134Y48622D01*
X53937Y48032D02*
X54134Y48228D01*
X54331Y48425D02*
X54528Y48622D01*
X50148Y37598D02*
X50640D01*
X54528Y48228D02*
X54528D01*
X54331Y48032D02*
X54528Y48228D01*
X54724Y48032D02*
X54921Y48228D01*
X50177Y36630D02*
X51246D01*
X52608Y37992D01*
X50177Y36433D02*
X51541D01*
X55118Y40010D01*
X54724Y48425D02*
X54724D01*
X54921Y48622D01*
X55118Y48032D02*
X55118D01*
X55315Y48228D02*
X55315D01*
X55118Y48032D02*
X55315Y48228D01*
X62941Y65402D02*
Y65627D01*
X62890Y65351D02*
X62941Y65402D01*
X62792Y65351D02*
X62890D01*
X62744Y65398D02*
X62792Y65351D01*
X62744Y65398D02*
Y65627D01*
X63532Y65349D02*
Y65627D01*
X63729Y65398D02*
Y65627D01*
Y65398D02*
X63776Y65351D01*
X63875D02*
X63926Y65402D01*
Y65627D01*
X63532Y65349D02*
X63629Y65252D01*
X63776Y65351D02*
X63875D01*
X63138Y65303D02*
Y65627D01*
X63038Y65203D02*
X63138Y65303D01*
X62744Y49398D02*
Y49627D01*
Y49398D02*
X62792Y49351D01*
X62890D01*
X62941Y49402D01*
Y49627D01*
X63038Y49203D02*
X63138Y49303D01*
Y49627D01*
X63532Y49349D02*
X63629Y49252D01*
X63532Y49349D02*
Y49627D01*
X63729Y49398D02*
X63776Y49351D01*
X63875D01*
X63926Y49402D01*
X63729Y49398D02*
Y49627D01*
X63926Y49402D02*
Y49627D01*
X59350Y52165D02*
X60300Y53115D01*
X58465Y52165D02*
X59350D01*
X58071D02*
X58268Y52362D01*
X59252D01*
X60039Y53150D01*
Y60039D01*
X60935Y60935D01*
X61500D01*
X61073Y60679D02*
X61500D01*
X60300Y59906D02*
X61073Y60679D01*
X60300Y53115D02*
Y59906D01*
X61152Y61447D02*
X61500D01*
X59843Y60138D02*
X61152Y61447D01*
X59843Y53150D02*
Y60138D01*
X59252Y52559D02*
X59843Y53150D01*
X58465Y52559D02*
X59252D01*
X58071D02*
X58268Y52756D01*
X59154D01*
X59646Y53248D01*
Y60335D01*
X61270Y61959D01*
X61500D01*
X58071Y51772D02*
X58268Y51968D01*
X57677Y51772D02*
X57874Y51968D01*
X57283Y51772D02*
X57480Y51575D01*
Y51575D02*
Y51575D01*
X61907Y53896D02*
X62557D01*
X62299Y40646D02*
X62500Y40846D01*
X61907Y40646D02*
X62299D01*
X58465Y49803D02*
X59055D01*
X60630Y51378D01*
X62303D01*
X62500Y51181D01*
X61417Y40453D02*
X61480Y40390D01*
X61417Y40453D02*
Y40748D01*
X61480Y40390D02*
X61907D01*
X61417Y40748D02*
X62106Y41437D01*
X61500Y45191D02*
X61825D01*
X62106Y45472D01*
X61907Y40134D02*
X62378D01*
X62500Y40256D01*
X58071Y49803D02*
X58268Y49606D01*
X59350D01*
X59843Y49114D01*
X61474D01*
X61909Y48678D01*
X56890Y49409D02*
X57087Y49606D01*
X57087Y52362D02*
X57283Y52559D01*
X57480Y52756D02*
X57677Y52559D01*
X53200Y66879D02*
X53543Y66535D01*
X53200Y66879D02*
Y67065D01*
X58071Y47441D02*
X58268Y47638D01*
X57677Y47835D02*
Y47835D01*
X57874Y48032D01*
X51772Y68799D02*
X52657D01*
X58071Y49016D02*
X58268Y49213D01*
X58071Y48622D02*
X58268Y48819D01*
X58661D01*
X59252Y48228D01*
X58465Y49016D02*
X58858D01*
X59744Y48130D01*
X61024Y45965D02*
X61030Y45959D01*
X58268Y49213D02*
X59154D01*
X57283Y48622D02*
Y48622D01*
Y48622D02*
X57480Y48425D01*
X56890Y49016D02*
Y49016D01*
Y49016D02*
X57087Y48819D01*
X56496Y47146D02*
Y47441D01*
X58465D02*
X58661Y47244D01*
X56496Y49016D02*
Y49016D01*
X56693Y48819D01*
X51743Y68500D02*
X52268D01*
X56693Y46850D02*
Y48819D01*
X55906Y46063D02*
Y48425D01*
X55709Y48622D02*
X55906Y48425D01*
X55315Y47835D02*
X55512Y47638D01*
X53543Y48425D02*
X53740Y48622D01*
X53937Y48819D02*
X54134Y49016D01*
X54528Y49409D02*
Y49409D01*
X54331Y49213D02*
X54528Y49409D01*
X54134Y50197D02*
Y50197D01*
X53937Y50000D02*
X54134Y50197D01*
Y50591D02*
Y50591D01*
X58071Y53346D02*
X58071D01*
X58268Y53543D01*
X54528Y53346D02*
Y53642D01*
X51088Y62205D02*
X54528Y58765D01*
Y54035D02*
X54727Y53836D01*
X54528Y54035D02*
Y58765D01*
X54727Y53152D02*
Y53836D01*
X54724Y54235D02*
Y58858D01*
X51187Y62402D02*
X54727Y58861D01*
X54724Y54235D02*
X54924Y54035D01*
Y53349D02*
Y54035D01*
X55315Y53346D02*
X55315D01*
X55375Y53719D02*
X55512Y53582D01*
Y53150D02*
Y53582D01*
X55315Y53346D02*
X55315D01*
X55118Y53543D02*
X55315Y53346D01*
X58465Y47835D02*
X58563D01*
X58957Y47441D01*
Y46555D02*
Y47441D01*
X58366Y45965D02*
X58957Y46555D01*
X58366Y41831D02*
Y45965D01*
X57972Y41437D02*
X58366Y41831D01*
X56693Y41437D02*
X57972D01*
X56365Y41109D02*
X56693Y41437D01*
X56365Y40780D02*
Y41109D01*
X57035Y39717D02*
Y40800D01*
X55646Y39800D02*
X56326D01*
X57677Y39764D02*
X58366D01*
X59055Y39819D02*
Y40846D01*
X58365Y40800D02*
Y41436D01*
X58563Y41634D01*
Y45866D01*
X59154Y46457D01*
Y47539D01*
X58465Y48228D02*
X59154Y47539D01*
X55709Y49016D02*
X55906Y48819D01*
X55315Y49016D02*
X55512Y48819D01*
X56102Y49409D02*
Y49409D01*
Y49409D02*
X56299Y49213D01*
X55709Y50591D02*
X55906Y50787D01*
X56102Y50591D02*
X56299Y50787D01*
X56102Y50984D02*
X56102D01*
X56299Y51181D01*
X55709Y50984D02*
X55709D01*
X55906Y51181D01*
X55709Y51378D02*
X55709D01*
X55906Y51575D01*
X56102Y51378D02*
X56102D01*
X56299Y51575D01*
X56496Y51378D02*
X56693Y51575D01*
X56496Y50984D02*
X56693Y51181D01*
X56496Y50591D02*
Y50591D01*
X56693Y50787D01*
X55709Y50197D02*
Y50197D01*
Y50197D02*
X55906Y50000D01*
X56102Y50197D02*
Y50197D01*
Y50197D02*
X56299Y50000D01*
X56496Y50197D02*
Y50197D01*
Y50197D02*
X56693Y50000D01*
X56890Y50197D02*
Y50197D01*
Y50197D02*
X57087Y50000D01*
X56890Y50591D02*
Y50591D01*
X57089Y50396D01*
X56496Y49803D02*
Y49803D01*
Y49803D02*
X56693Y49606D01*
X56102Y49803D02*
Y49803D01*
Y49803D02*
X56299Y49606D01*
X55709Y49803D02*
Y49803D01*
Y49803D02*
X55906Y49606D01*
X55709Y49409D02*
Y49409D01*
Y49409D02*
X55906Y49213D01*
X56496Y49409D02*
Y49409D01*
Y49409D02*
X56693Y49213D01*
X54724D02*
X54921Y49409D01*
X55118Y49213D02*
X55315Y49409D01*
X55118Y49606D02*
X55315Y49803D01*
X54724Y49606D02*
X54921Y49803D01*
X54528Y49803D02*
Y49803D01*
X54331Y49606D02*
X54528Y49803D01*
Y50197D02*
Y50197D01*
X54331Y50000D02*
X54528Y50197D01*
X54724Y50000D02*
X54921Y50197D01*
X55118Y50000D02*
X55315Y50197D01*
X54528Y50591D02*
Y50591D01*
X54921D02*
X54921D01*
X54724Y50787D02*
X54921Y50591D01*
X54331Y50787D02*
X54528Y50591D01*
X53937Y50787D02*
X54134Y50591D01*
X54528Y50984D02*
X54528D01*
X54331Y51181D02*
X54528Y50984D01*
X54921D02*
X54921D01*
X54724Y51181D02*
X54921Y50984D01*
X54528Y51378D02*
X54528D01*
X54331Y51575D02*
X54528Y51378D01*
X54921D02*
X54921D01*
X54724Y51575D02*
X54921Y51378D01*
X55315Y50591D02*
X55315D01*
X55118Y50787D02*
X55315Y50591D01*
X55315Y50984D02*
X55315D01*
X55118Y51181D02*
X55315Y50984D01*
Y51378D02*
X55315D01*
X55118Y51575D02*
X55315Y51378D01*
X55315Y51772D02*
X55315D01*
X55512Y51968D01*
X52953Y50591D02*
Y50591D01*
X53150Y50787D01*
X52165Y50591D02*
X52559D01*
X50787Y51968D02*
X52165Y50591D01*
X50787Y51968D02*
Y52165D01*
X50525Y52433D02*
X50790Y52168D01*
X52067Y50984D02*
X52559D01*
X50984Y52067D02*
X52067Y50984D01*
X50984Y52067D02*
Y52264D01*
X52165Y51378D02*
X52559D01*
X52067Y51181D02*
X52362D01*
X51155Y52093D02*
X52067Y51181D01*
X51155Y52093D02*
Y52394D01*
X52362Y51184D02*
X52758D01*
X50525Y53024D02*
X51155Y52394D01*
X50623Y52630D02*
X50987Y52266D01*
X56102Y69432D02*
X56750D01*
D37*
X61750Y42050D02*
Y42300D01*
X61600Y42000D02*
X61850Y41750D01*
X61600Y42000D02*
Y42249D01*
X61699D01*
X61750Y42300D01*
X61600Y43600D02*
X61850Y43850D01*
X61600Y43351D02*
Y43600D01*
X41850Y70400D02*
Y71300D01*
X47700Y69950D02*
X48050D01*
X48455Y70355D01*
Y70843D01*
X42650Y70450D02*
Y71500D01*
X43350Y70450D02*
Y71450D01*
X47794Y71644D02*
X47825D01*
X48032Y71850D02*
X50787D01*
X47825Y71644D02*
X48032Y71850D01*
X63189Y41929D02*
X63209Y41950D01*
Y57993D02*
Y58278D01*
X63186Y57969D02*
X63186D01*
X63209Y57993D01*
X63333Y65252D02*
Y65646D01*
Y49252D02*
Y49646D01*
X64071Y68599D02*
X64613D01*
X64071Y68845D02*
X64810D01*
X64071Y70124D02*
X64662D01*
X63530Y66729D02*
Y66926D01*
X63136Y66729D02*
Y67024D01*
X63530Y50749D02*
Y50926D01*
X63136Y50749D02*
Y51024D01*
X62744Y66530D02*
Y66749D01*
Y66530D02*
X62792Y66483D01*
X62890D01*
X62941Y66534D01*
Y66749D01*
X63729Y66530D02*
Y66749D01*
Y66530D02*
X63776Y66483D01*
X63875D01*
X63926Y66534D01*
Y66749D01*
X63335D02*
Y67170D01*
X64093Y70396D02*
X64784D01*
X64662Y70124D02*
X64810Y69977D01*
X64613Y68599D02*
X64810Y68402D01*
X63530Y66926D02*
X63776Y67172D01*
X62989D02*
X63136Y67024D01*
X62619Y59400D02*
Y59617D01*
X62644Y59643D01*
X62792D01*
X62816Y59619D01*
Y59400D02*
Y59619D01*
X63800Y59400D02*
Y59619D01*
X62619Y58044D02*
Y58278D01*
Y58044D02*
X62644Y58019D01*
X62792D01*
X62816Y58042D01*
Y58278D01*
X63603Y58044D02*
Y58278D01*
Y58044D02*
X63629Y58019D01*
X63776D01*
X63800Y58042D01*
Y58278D01*
X62558Y58339D02*
X62619Y58278D01*
X63209Y59400D02*
Y59666D01*
X63284Y59741D01*
X63406Y57946D02*
Y58278D01*
X63013Y58070D02*
Y58278D01*
X62956Y58013D02*
X63013Y58070D01*
X62940Y57773D02*
X62989Y57723D01*
X62940Y57773D02*
Y57789D01*
X62956D02*
Y58013D01*
X63603Y59400D02*
Y59617D01*
X63333Y60036D02*
X63530Y59839D01*
X63013Y59400D02*
Y59717D01*
X62890Y59839D02*
X63013Y59717D01*
X63406Y59400D02*
Y59638D01*
X63530Y59762D01*
Y59839D01*
X64335Y60610D02*
Y60679D01*
Y60610D02*
X64564Y60381D01*
X63891Y64006D02*
X64335D01*
X64093Y55878D02*
X64687D01*
X64093Y56134D02*
X64647D01*
X63603Y59617D02*
X63674Y59688D01*
X63731D01*
X63800Y59619D01*
X63729Y50530D02*
X63776Y50483D01*
X63729Y50530D02*
Y50749D01*
X63776Y50483D02*
X63875D01*
X63926Y50534D01*
Y50749D01*
X63530Y50926D02*
X63776Y51172D01*
X63335Y50749D02*
Y51170D01*
X62989Y51172D02*
X63136Y51024D01*
X62744Y50530D02*
Y50749D01*
Y50530D02*
X62792Y50483D01*
X62890D01*
X62941Y50534D01*
Y50749D01*
X63891Y48006D02*
X64335D01*
X62619Y43400D02*
Y43617D01*
X62644Y43643D01*
X62792D01*
X62816Y43400D02*
Y43619D01*
X62792Y43643D02*
X62816Y43619D01*
X63603Y43400D02*
Y43617D01*
X63674Y43688D01*
X63731D01*
X63800Y43619D01*
Y43400D02*
Y43619D01*
X63603Y42044D02*
X63629Y42019D01*
X63776D01*
X63603Y42044D02*
Y42278D01*
X63776Y42019D02*
X63800Y42042D01*
Y42278D01*
X64335Y44610D02*
X64564Y44381D01*
X64335Y44610D02*
Y44679D01*
X62619Y42044D02*
X62644Y42019D01*
X62558Y42339D02*
X62619Y42278D01*
Y42044D02*
Y42278D01*
X62644Y42019D02*
X62792D01*
X62816Y42042D01*
Y42278D01*
X62940Y41773D02*
X62989Y41723D01*
X62940Y41773D02*
Y41789D01*
X62956D02*
Y42013D01*
X63013Y42070D01*
Y42278D01*
X63406Y41946D02*
Y42278D01*
Y43400D02*
Y43638D01*
X63530Y43762D01*
Y43839D01*
X63333Y44036D02*
X63530Y43839D01*
X63209Y43400D02*
Y43666D01*
X63284Y43741D01*
X63013Y43400D02*
Y43717D01*
X62890Y43839D02*
X63013Y43717D01*
X64093Y39878D02*
X64687D01*
X64093Y40134D02*
X64647D01*
X61516Y56134D02*
X61907D01*
X61350Y56300D02*
X61516Y56134D01*
X61350Y56300D02*
Y56500D01*
X54600Y67735D02*
Y68333D01*
X48140Y66157D02*
Y67235D01*
X53346Y52953D02*
X53543Y52756D01*
X53346Y52953D02*
Y52953D01*
X52953Y53346D02*
Y53740D01*
X54600Y66463D02*
Y67065D01*
X53900Y66376D02*
Y67065D01*
Y66376D02*
X55118Y65157D01*
X54823Y65846D02*
Y66240D01*
X54600Y66463D02*
X54823Y66240D01*
X58071Y47835D02*
Y47835D01*
X58268Y48032D01*
X52756Y62598D02*
X54232Y61122D01*
X58071Y50197D02*
X58268Y50000D01*
Y50000D02*
Y50000D01*
X60400Y45451D02*
Y46128D01*
X60742Y46470D01*
X61500D01*
X52756Y62598D02*
Y63121D01*
X54400Y62135D02*
Y63165D01*
X53740Y52165D02*
X53740D01*
X53543Y52362D02*
X53740Y52165D01*
X54134Y51772D02*
X54134D01*
X53937Y51968D02*
X54134Y51772D01*
X61030Y44679D02*
X61500D01*
X58465Y48622D02*
X59154Y47933D01*
X58465Y48622D02*
Y48622D01*
X54400Y63835D02*
Y65187D01*
X52461Y67126D02*
X54400Y65187D01*
X52461Y67126D02*
Y67323D01*
X52264Y67520D02*
X52461Y67323D01*
X51673Y67520D02*
X52264D01*
X52504Y63835D02*
X52800D01*
X51575Y64764D02*
X52504Y63835D01*
X51575Y64764D02*
Y66339D01*
X50787Y67126D02*
X51575Y66339D01*
X50787Y67126D02*
Y67717D01*
X51256Y68185D01*
X51743D01*
Y67870D02*
X52406D01*
X52756Y67520D01*
X53600Y63835D02*
Y64313D01*
X53543Y64370D02*
X53600Y64313D01*
X61069Y44935D02*
X61500D01*
X60925Y45079D02*
X61069Y44935D01*
X58465Y49409D02*
X58760D01*
X61024Y45472D02*
X61049Y45447D01*
X52953Y67982D02*
X53200Y67735D01*
X53900Y67735D02*
Y67950D01*
X52413Y69634D02*
Y70225D01*
X50787Y71850D02*
X52413Y70225D01*
Y69634D02*
X52953Y69094D01*
Y67982D02*
Y69094D01*
X53248Y68602D02*
Y69094D01*
X52639Y69703D02*
Y70373D01*
X51476Y71555D02*
X52649Y70383D01*
X52639Y69703D02*
X53248Y69094D01*
Y68602D02*
X53900Y67950D01*
X53400Y70049D02*
X53967D01*
X52756Y71161D02*
X53445D01*
X54774Y71500D02*
X55100D01*
X54721Y71552D02*
X54774Y71500D01*
X55600D02*
Y72037D01*
X63209Y41950D02*
Y42278D01*
D38*
X47825Y70843D02*
Y71644D01*
X48140Y70843D02*
Y71467D01*
X48250Y69750D02*
X48770Y70270D01*
X34700Y73074D02*
Y73650D01*
X35100Y74050D01*
X48770Y70270D02*
Y70843D01*
X61800Y65211D02*
X62152Y64859D01*
X61800Y65211D02*
Y65549D01*
Y49211D02*
X62152Y48859D01*
X61800Y49211D02*
Y49549D01*
X62697Y63035D02*
X63517Y62215D01*
X62697Y63035D02*
Y65256D01*
X62792Y65351D01*
X60600Y65651D02*
Y66210D01*
X61907Y53128D02*
X62478D01*
X62471Y52235D02*
Y52770D01*
X62371Y52360D02*
X62471Y52461D01*
X61907Y52860D02*
X62339D01*
X61907Y52604D02*
X62305D01*
X61907Y53640D02*
X62404D01*
X62500Y53543D01*
X61455Y53384D02*
X61907D01*
X61319Y52559D02*
Y53248D01*
X61455Y53384D01*
X61907Y52360D02*
X62371D01*
X62341Y52104D02*
X62471Y52235D01*
X61907Y52104D02*
X62341D01*
X60932Y37606D02*
X61700D01*
X49685Y62992D02*
X50197D01*
X49508Y63169D02*
X49685Y62992D01*
X47323Y64764D02*
X47835D01*
X50975Y69990D02*
X50984Y69980D01*
X50975Y69990D02*
Y70843D01*
X47323Y40764D02*
X47861D01*
X47323Y40173D02*
X47861D01*
X47323Y39583D02*
X47861D01*
X47323Y38992D02*
X47861D01*
X47323Y38008D02*
X47861D01*
X47323Y37417D02*
X47861D01*
X47323Y36827D02*
X47861D01*
X47323Y36236D02*
X47861D01*
X47323Y48764D02*
X47861D01*
X47323Y48173D02*
X47861D01*
X47323Y47583D02*
X47861D01*
X47323Y46992D02*
X47861D01*
X47323Y46008D02*
X47861D01*
X47323Y45417D02*
X47861D01*
X47323Y44827D02*
X47861D01*
X47323Y44236D02*
X47861D01*
X49639Y52827D02*
X50177D01*
X49639Y53417D02*
X50177D01*
X49639Y54008D02*
X50177D01*
X49639Y54992D02*
X50177D01*
X49639Y55583D02*
X50177D01*
X49639Y56173D02*
X50177D01*
X49639Y56764D02*
X50177D01*
X47323D02*
X47835D01*
X47323Y56173D02*
X47835D01*
X47323Y55583D02*
X47835D01*
X47323Y54992D02*
X47835D01*
X47323Y54008D02*
X47835D01*
X47323Y53417D02*
X47835D01*
X47323Y52827D02*
X47835D01*
X47323Y52236D02*
X47835D01*
X49665Y64764D02*
X50177D01*
X49665Y64173D02*
X50177D01*
X49665Y63583D02*
X50177D01*
X49665Y62008D02*
X50177D01*
X49665Y61417D02*
X50177D01*
X49665Y60827D02*
X50177D01*
X49665Y60236D02*
X50177D01*
X47323D02*
X47835D01*
X47323Y60827D02*
X47835D01*
X47323Y61417D02*
X47835D01*
X47323Y62008D02*
X47835D01*
X47323Y62992D02*
X47835D01*
X47323Y63583D02*
X47835D01*
X47323Y64173D02*
X47835D01*
X32317Y36433D02*
X47323D01*
X26750Y42000D02*
X32317Y36433D01*
X27750Y42000D02*
X33120Y36630D01*
X47323D01*
X33726Y37024D02*
X47323D01*
X28750Y42000D02*
X33726Y37024D01*
X29750Y42000D02*
X34530Y37220D01*
X47323D01*
X35136Y37614D02*
X47323D01*
X30750Y42000D02*
X35136Y37614D01*
X31750Y42000D02*
X35939Y37811D01*
X47323D01*
X36545Y38205D02*
X47323D01*
X32750Y42000D02*
X36545Y38205D01*
X33750Y42000D02*
X37348Y38402D01*
X47323D01*
X41402Y38598D02*
X47323D01*
X38000Y42000D02*
X41402Y38598D01*
X39000Y42000D02*
X42205Y38795D01*
X47323D01*
X42811Y39189D02*
X47323D01*
X40000Y42000D02*
X42811Y39189D01*
X41000Y42000D02*
X43614Y39386D01*
X47323D01*
X44220Y39780D02*
X47323D01*
X42000Y42000D02*
X44220Y39780D01*
X43000Y42000D02*
X45024Y39976D01*
X47323D01*
X45630Y40370D02*
X47323D01*
X44000Y42000D02*
X45630Y40370D01*
X45000Y42000D02*
X46433Y40567D01*
X47323D01*
X32317Y44433D02*
X47323D01*
X26750Y50000D02*
X32317Y44433D01*
X27750Y50000D02*
X33120Y44630D01*
X47323D01*
X33726Y45024D02*
X47323D01*
X28750Y50000D02*
X33726Y45024D01*
X29750Y50000D02*
X34530Y45220D01*
X47323D01*
X35136Y45614D02*
X47323D01*
X30750Y50000D02*
X35136Y45614D01*
X31750Y50000D02*
X35939Y45811D01*
X47323D01*
X36545Y46205D02*
X47323D01*
X32750Y50000D02*
X36545Y46205D01*
X33750Y50000D02*
X37348Y46402D01*
X47323D01*
X41402Y46598D02*
X47323D01*
X38000Y50000D02*
X41402Y46598D01*
X39000Y50000D02*
X42205Y46795D01*
X47323D01*
X42811Y47189D02*
X47323D01*
X40000Y50000D02*
X42811Y47189D01*
X41000Y50000D02*
X43614Y47386D01*
X47323D01*
X44220Y47780D02*
X47323D01*
X42000Y50000D02*
X44220Y47780D01*
X43000Y50000D02*
X45024Y47976D01*
X47323D01*
X45630Y48370D02*
X47323D01*
X44000Y50000D02*
X45630Y48370D01*
X45000Y50000D02*
X46433Y48567D01*
X47323D01*
X32317Y52433D02*
X47323D01*
X26750Y58000D02*
X32317Y52433D01*
X27750Y58000D02*
X33120Y52630D01*
X47323D01*
X33726Y53024D02*
X47323D01*
X28750Y58000D02*
X33726Y53024D01*
X29750Y58000D02*
X34530Y53220D01*
X47323D01*
X35136Y53614D02*
X47323D01*
X30750Y58000D02*
X35136Y53614D01*
X31750Y58000D02*
X35939Y53811D01*
X47323D01*
X36545Y54205D02*
X47323D01*
X32750Y58000D02*
X36545Y54205D01*
X33750Y58000D02*
X37348Y54402D01*
X47323D01*
X41402Y54598D02*
X47323D01*
X38000Y58000D02*
X41402Y54598D01*
X39000Y58000D02*
X42205Y54795D01*
X47323D01*
X42811Y55189D02*
X47323D01*
X40000Y58000D02*
X42811Y55189D01*
X41000Y58000D02*
X43614Y55386D01*
X47323D01*
X44220Y55780D02*
X47323D01*
X42000Y58000D02*
X44220Y55780D01*
X43000Y58000D02*
X45024Y55976D01*
X47323D01*
X45630Y56370D02*
X47323D01*
X44000Y58000D02*
X45630Y56370D01*
X45000Y58000D02*
X46433Y56567D01*
X47323D01*
X46433Y64567D02*
X47323D01*
X45000Y66000D02*
X46433Y64567D01*
X44000Y66000D02*
X45630Y64370D01*
X47323D01*
X45024Y63976D02*
X47323D01*
X43000Y66000D02*
X45024Y63976D01*
X42000Y66000D02*
X44220Y63780D01*
X47323D01*
X43614Y63386D02*
X47323D01*
X41000Y66000D02*
X43614Y63386D01*
X40000Y66000D02*
X42811Y63189D01*
X47323D01*
X42205Y62795D02*
X47323D01*
X39000Y66000D02*
X42205Y62795D01*
X38000Y66000D02*
X41402Y62598D01*
X47323D01*
X37348Y62402D02*
X47323D01*
X33750Y66000D02*
X37348Y62402D01*
X32750Y66000D02*
X36545Y62205D01*
X47323D01*
X35939Y61811D02*
X47323D01*
X31750Y66000D02*
X35939Y61811D01*
X30750Y66000D02*
X35136Y61614D01*
X47323D01*
X34530Y61220D02*
X47323D01*
X29750Y66000D02*
X34530Y61220D01*
X28750Y66000D02*
X33726Y61024D01*
X47323D01*
X33120Y60630D02*
X47323D01*
X27750Y66000D02*
X33120Y60630D01*
X26750Y66000D02*
X32317Y60433D01*
X47323D01*
X49639Y52236D02*
X50177D01*
X49639Y48764D02*
X50177D01*
X49639Y48173D02*
X50177D01*
X49639Y47583D02*
X50177D01*
X49639Y46992D02*
X50177D01*
X49639Y46008D02*
X50177D01*
X49639Y45417D02*
X50177D01*
X49639Y44827D02*
X50177D01*
X49639Y44236D02*
X50177D01*
X49622Y40764D02*
X50177D01*
X49622Y40173D02*
X50177D01*
X49622Y39583D02*
X50177D01*
X49622Y38992D02*
X50177D01*
X49622Y37417D02*
X50177D01*
X49622Y36827D02*
X50177D01*
X49622Y36236D02*
X50177D01*
X49622Y38008D02*
X50177D01*
X63379Y61959D02*
X64335D01*
X62447Y62890D02*
X63379Y61959D01*
X63517Y62215D02*
X64335D01*
X63704Y62470D02*
X64335D01*
X63235Y62940D02*
X63704Y62470D01*
X63235Y62940D02*
Y64416D01*
X63989Y62726D02*
X64335D01*
X63579Y63136D02*
X63989Y62726D01*
X63579Y63136D02*
Y64071D01*
X64367Y64859D01*
X62447Y66138D02*
X62792Y66483D01*
X62447Y62890D02*
Y66138D01*
X63875Y66483D02*
X64367Y65991D01*
Y64859D02*
Y65991D01*
X63235Y64416D02*
X63875Y65056D01*
Y65351D01*
X62103Y58794D02*
X62558Y58339D01*
X62103Y58794D02*
Y60774D01*
X63038Y61709D01*
X64416D01*
X63415Y61447D02*
X64335D01*
X62644Y60676D02*
X63415Y61447D01*
X62644Y59643D02*
Y60676D01*
X64335Y60935D02*
X64698D01*
X64859Y60774D01*
Y58609D02*
Y60774D01*
X64268Y58019D02*
X64859Y58609D01*
X63776Y58019D02*
X64268D01*
X64093Y54854D02*
X64746D01*
X64957Y55066D01*
X64564Y55115D02*
X64810Y55361D01*
X64613Y56641D02*
X64760Y56788D01*
X63674Y59688D02*
X63825Y59839D01*
X64045Y61191D02*
X64335D01*
X63825Y60971D02*
X64045Y61191D01*
X63825Y59839D02*
Y60971D01*
X64071Y56395D02*
X64810D01*
X64071Y56641D02*
X64613D01*
X63678Y69372D02*
X64093D01*
Y69628D02*
X64568D01*
X64711Y69485D01*
X63579Y70026D02*
X63727Y69878D01*
X64121D01*
X61907Y69628D02*
X62402D01*
X61907Y69372D02*
X62314D01*
X62471Y69215D01*
X63652Y69116D02*
X64093D01*
X63579Y69189D02*
X63652Y69116D01*
X63579Y69470D02*
X63678Y69372D01*
X63579Y69189D02*
Y69583D01*
X61907Y68604D02*
X62305D01*
X62471Y68770D01*
X61907Y68860D02*
X62339D01*
X62471Y68992D01*
X61907Y69116D02*
X62471D01*
Y68770D02*
Y69215D01*
X60896Y62470D02*
X61500D01*
X60824Y62398D02*
X60896Y62470D01*
X60774Y62743D02*
X60824Y62694D01*
X60301Y62970D02*
Y63250D01*
Y62970D02*
X60528Y62743D01*
X60774D01*
X60824Y62694D02*
X61512D01*
X60824Y62054D02*
Y62398D01*
X60520Y61750D02*
X60824Y62054D01*
X60301Y61750D02*
X60520D01*
X61500Y61703D02*
X61900D01*
X61512Y63235D02*
X61759D01*
X61955Y63432D01*
X61512Y63481D02*
X61906D01*
X61955Y63432D01*
X63673Y55366D02*
X64093D01*
X63530Y55509D02*
X63673Y55366D01*
X63530Y55509D02*
Y55607D01*
X63545Y55622D02*
X64093D01*
X64651Y57400D02*
Y57614D01*
X64859Y57822D01*
X64093Y55115D02*
X64564D01*
X61907Y54854D02*
X62433D01*
X62497Y54918D01*
X62300Y55115D02*
X62497Y54918D01*
X61907Y55366D02*
X62344D01*
X62497Y55214D01*
Y54918D02*
Y55214D01*
X61857Y55115D02*
X62300D01*
X62447Y55607D02*
X62497Y55657D01*
X62275Y55878D02*
X62497Y55657D01*
X60800Y54798D02*
X61244D01*
X60774Y55903D02*
X61365D01*
X61389Y55878D02*
X62275D01*
X61906Y55607D02*
X62447D01*
X61808Y66630D02*
X61857D01*
X62251Y67024D01*
X59200Y61217D02*
Y61709D01*
Y62841D02*
Y63284D01*
X60600Y64295D02*
X61145Y63750D01*
X60600Y64295D02*
Y64549D01*
X61145Y63750D02*
X61932D01*
X61808Y50630D02*
X61857D01*
X62251Y51024D01*
X60774Y39903D02*
X61365D01*
X61389Y39878D02*
X62275D01*
X60800Y38798D02*
X61244D01*
X60600Y48295D02*
X61145Y47750D01*
X61932D01*
X60600Y48295D02*
Y48549D01*
X64651Y41400D02*
Y41614D01*
X64859Y41822D01*
X62792Y46940D02*
Y49351D01*
Y46940D02*
X63517Y46215D01*
X64335D01*
X63875Y49056D02*
Y49351D01*
X63579Y47136D02*
Y48071D01*
Y47136D02*
X63989Y46726D01*
X63579Y48071D02*
X64367Y48859D01*
X63989Y46726D02*
X64335D01*
X64367Y48859D02*
Y49991D01*
X63875Y50483D02*
X64367Y49991D01*
X62447Y46890D02*
Y50138D01*
Y46890D02*
X63379Y45959D01*
X62447Y50138D02*
X62792Y50483D01*
X63379Y45959D02*
X64335D01*
X61759Y47235D02*
X61955Y47432D01*
X61512Y47481D02*
X61906D01*
X61955Y47432D01*
X61512Y47235D02*
X61759D01*
X61500Y45703D02*
X61900D01*
X62103Y42794D02*
Y44774D01*
Y42794D02*
X62558Y42339D01*
X62103Y44774D02*
X63038Y45709D01*
X64416D01*
X62644Y44676D02*
X63415Y45447D01*
X62644Y43643D02*
Y44676D01*
X63415Y45447D02*
X64335D01*
X63674Y43688D02*
X63825Y43839D01*
Y44971D01*
X64045Y45191D01*
X64335D01*
X63776Y42019D02*
X64268D01*
X64859Y42609D01*
X64335Y44935D02*
X64698D01*
X64859Y42609D02*
Y44774D01*
X64698Y44935D02*
X64859Y44774D01*
X64093Y38854D02*
X64746D01*
X64957Y39066D01*
X64093Y39115D02*
X64564D01*
X64810Y39361D01*
X64071Y40395D02*
X64810D01*
X64071Y40641D02*
X64613D01*
X64760Y40788D01*
X62305Y52604D02*
X62471Y52770D01*
X62339Y52860D02*
X62471Y52770D01*
X63530Y39509D02*
X63673Y39366D01*
X63530Y39509D02*
Y39607D01*
X63673Y39366D02*
X64093D01*
X63545Y39622D02*
X64093D01*
X61907Y38854D02*
X62433D01*
X62497Y38918D01*
X62300Y39115D02*
X62497Y38918D01*
X61857Y39115D02*
X62300D01*
X62497Y38918D02*
Y39214D01*
X62344Y39366D02*
X62497Y39214D01*
X61907Y39366D02*
X62344D01*
X61906Y39607D02*
X62447D01*
X62275Y39878D02*
X62497Y39657D01*
X62447Y39607D02*
X62497Y39657D01*
X60874Y46726D02*
X61500D01*
X60800Y46800D02*
X60874Y46726D01*
X60824Y46694D02*
X61512D01*
X59300Y45451D02*
Y46100D01*
X60000Y46800D01*
X60800D01*
X60400Y43750D02*
Y44349D01*
X59300Y43800D02*
Y44349D01*
X61296Y70396D02*
X61907D01*
X61804Y56646D02*
X61907D01*
X61600Y56850D02*
X61804Y56646D01*
X61600Y56850D02*
Y57150D01*
X61907Y70140D02*
X62490D01*
X61907Y56390D02*
X62490D01*
X62600Y56500D01*
X61500Y61191D02*
X61859D01*
X61950Y61100D01*
X61366Y69884D02*
X61907D01*
X61250Y70000D02*
X61366Y69884D01*
X50030Y70246D02*
Y70843D01*
X49085Y70305D02*
Y70843D01*
X47057Y69130D02*
X47602D01*
X47047Y68504D02*
X47638D01*
X48455Y66157D02*
Y66762D01*
X48770Y66157D02*
Y66782D01*
X51098Y67240D02*
X51743D01*
X52149Y65000D02*
Y65436D01*
X53251Y65000D02*
Y65450D01*
X63386Y46949D02*
X63864Y46470D01*
X63386Y46949D02*
Y48567D01*
X63875Y49056D01*
X63864Y46470D02*
X64335D01*
X60600Y49651D02*
Y50265D01*
X58781Y45451D02*
X59300D01*
X58760Y45472D02*
X58781Y45451D01*
X63549Y57400D02*
Y57422D01*
X63191Y57779D02*
X63549Y57422D01*
X63191Y57779D02*
Y57964D01*
X63549Y41400D02*
Y41476D01*
X63189Y41836D02*
X63549Y41476D01*
X63189Y41836D02*
Y41929D01*
D39*
X48140Y70340D02*
Y70900D01*
X48000Y70200D02*
X48140Y70340D01*
X47700Y70200D02*
X48000D01*
X47550Y70350D02*
X47700Y70200D01*
X45950Y70350D02*
X47550D01*
X45500Y69900D02*
X45950Y70350D01*
X44450Y69900D02*
X45500D01*
X44175Y70175D02*
X44450Y69900D01*
X44175Y70175D02*
Y71363D01*
X64093Y52104D02*
X64861D01*
X64833Y52133D02*
X64861Y52104D01*
X56735Y59800D02*
X57565D01*
X59135D02*
X59200Y59865D01*
X58235Y59800D02*
X59135D01*
X58760Y60532D02*
X59154D01*
X56065Y59486D02*
Y59800D01*
X56004Y65748D02*
X56693D01*
X56750Y64250D02*
X57459D01*
X56057Y62750D02*
X56750D01*
X55906Y55610D02*
X56398D01*
X56496Y55413D02*
Y55709D01*
X56419Y55337D02*
X56496Y55413D01*
X55911Y55337D02*
X56419D01*
X56398Y55610D02*
X56496Y55709D01*
X56356Y55848D02*
X56496Y55709D01*
X55911Y55848D02*
X56356D01*
X55911Y56104D02*
X56494D01*
X56455Y57128D02*
X56496Y57087D01*
X55911Y57128D02*
X56455D01*
X56281Y56872D02*
X56496Y57087D01*
X55911Y56872D02*
X56281D01*
X57972Y56594D02*
X58465D01*
X58604Y57128D02*
X59055D01*
X56301Y58663D02*
X56496Y58858D01*
X55911Y58663D02*
X56301D01*
X56004Y58407D02*
X56455D01*
X94029Y50471D02*
X94090Y50532D01*
X64093Y53640D02*
X65100D01*
X64093Y53896D02*
X64650D01*
X64093Y52360D02*
X64710D01*
X64093Y53384D02*
X64466D01*
X64650Y53200D01*
Y53150D02*
Y53200D01*
X64093Y53128D02*
X64628D01*
X64093Y52872D02*
X64578D01*
X64650Y52800D01*
X64093Y52616D02*
X64466D01*
X64650Y52800D01*
X64370Y62992D02*
X64764D01*
X64862Y63091D01*
Y63386D01*
X64754Y63494D02*
X64862Y63386D01*
X64335Y63494D02*
X64754D01*
X63947Y63750D02*
X64335D01*
X63878Y63681D02*
X63947Y63750D01*
X63878Y63287D02*
Y63681D01*
Y63287D02*
X63927Y63238D01*
X64335D01*
X64041Y46982D02*
X64335D01*
X63878Y47146D02*
X64041Y46982D01*
X64335Y47238D02*
X64659D01*
X64764Y47343D01*
Y47638D01*
X64652Y47750D02*
X64764Y47638D01*
X64335Y47750D02*
X64652D01*
X64030Y47494D02*
X64335D01*
X63878Y47146D02*
Y47343D01*
X64030Y47494D01*
X61030Y45959D02*
X61500D01*
X61049Y45447D02*
X61500D01*
Y64006D02*
X61644D01*
X61909Y64272D01*
X61220Y48327D02*
X61516Y48032D01*
D40*
X44962Y70361D02*
Y71537D01*
X40238Y72863D02*
Y74039D01*
X41025Y72863D02*
Y74039D01*
X41813Y72863D02*
Y74039D01*
X42600Y72863D02*
Y74039D01*
X43387Y72863D02*
Y74039D01*
X44175Y72863D02*
Y74039D01*
X44962Y72863D02*
Y74039D01*
X37700Y72900D02*
Y74076D01*
X36700Y72900D02*
Y74076D01*
X35700Y72900D02*
Y74076D01*
X33700Y72900D02*
Y74076D01*
X32700Y72900D02*
Y74076D01*
X31700Y72924D02*
Y74100D01*
X30700Y72900D02*
Y74076D01*
Y70150D02*
Y71326D01*
X31700Y70150D02*
Y71326D01*
X32700Y70174D02*
Y71350D01*
X33700Y70150D02*
Y71326D01*
X34700Y70150D02*
Y71326D01*
X35700Y70150D02*
Y71326D01*
X36700Y70150D02*
Y71326D01*
X37700Y70150D02*
Y71326D01*
X62608Y67700D02*
X63249D01*
X64351Y67630D02*
Y67700D01*
Y67630D02*
X64711Y67270D01*
X60900Y69100D02*
Y69512D01*
X61070Y69681D01*
X60873Y68008D02*
X61365D01*
X60900Y53100D02*
Y53512D01*
X61070Y53681D01*
X60873Y52008D02*
X61365D01*
X59810Y70933D02*
Y73000D01*
X63190Y72000D02*
Y73131D01*
X63192Y70870D02*
Y71952D01*
X63190Y72000D02*
X64227D01*
X65161Y71854D02*
X66047D01*
X67425D02*
X68409D01*
X66047Y73724D02*
X67031D01*
X68310D02*
X69295D01*
D41*
X62899Y42820D02*
X63686D01*
X63780Y42913D01*
X63287Y58858D02*
X63780D01*
X62804Y58850D02*
X63300D01*
X63032Y66200D02*
X63721D01*
X63878Y66043D01*
X63386Y50197D02*
X63780D01*
X62995Y50200D02*
X63432D01*
X63780Y50197D02*
X63878Y50098D01*
X61814Y62982D02*
X62201Y62595D01*
X61500Y62982D02*
X61814D01*
Y46982D02*
X62201Y46595D01*
X61500Y46982D02*
X61814D01*
X48327Y35138D02*
Y35531D01*
X49508Y35138D02*
Y35531D01*
X49902Y41339D02*
Y41831D01*
X48819Y41339D02*
Y41831D01*
X48425Y43012D02*
Y43406D01*
X49508Y43012D02*
Y43406D01*
X50000Y49409D02*
Y49803D01*
X48917Y49409D02*
Y49803D01*
X49409Y50886D02*
Y51378D01*
X48327Y50886D02*
Y51378D01*
X50051Y57531D02*
Y57900D01*
X48949Y57449D02*
Y57900D01*
X48327Y59154D02*
Y59449D01*
X49311Y59055D02*
Y59547D01*
X68064Y65006D02*
X92506D01*
X64810Y68261D02*
X68064Y65006D01*
X64810Y68261D02*
Y68402D01*
X92506Y65006D02*
X94000Y66500D01*
X84953Y65453D02*
X86000Y66500D01*
X64810Y68845D02*
X68202Y65453D01*
X84953D01*
X77441Y65941D02*
X78000Y66500D01*
X68845Y65941D02*
X77441D01*
X64810Y69977D02*
X68845Y65941D01*
X64784Y70396D02*
X65136D01*
X69032Y66500D01*
X70000D01*
X67894Y49006D02*
X92506D01*
X94000Y50500D01*
X64800Y52100D02*
X67894Y49006D01*
X85128Y49499D02*
X86122Y50492D01*
X68218Y49499D02*
X85128D01*
X64800Y52450D02*
X65267D01*
X68218Y49499D01*
X68809Y49941D02*
X77441D01*
X78000Y50500D01*
X65100Y53650D02*
X68809Y49941D01*
X65687Y53900D02*
X69087Y50500D01*
X64650Y53900D02*
X65687D01*
X69087Y50500D02*
X70000D01*
X84780Y57280D02*
X86000Y58500D01*
X66729Y57280D02*
X84780D01*
X64810Y55361D02*
X66729Y57280D01*
X77420Y57920D02*
X78000Y58500D01*
X92218Y56639D02*
X94000Y58421D01*
Y58500D01*
X64957Y55066D02*
X65351D01*
X66924Y56639D01*
X92218D01*
X64810Y56395D02*
X65252D01*
X66778Y57920D01*
X77420D01*
X64760Y56788D02*
X65006D01*
X66718Y58500D01*
X70000D01*
X64957Y39066D02*
X65351D01*
X66924Y40639D01*
X92218D01*
X94000Y42421D01*
X64810Y39361D02*
X66729Y41280D01*
X84780D01*
X86000Y42500D01*
X64810Y40395D02*
X65252D01*
X66778Y41920D01*
X77420D01*
X78000Y42500D01*
X64760Y40788D02*
X65006D01*
X66718Y42500D01*
X70000D01*
X94000Y42421D02*
Y42500D01*
X54694Y72471D02*
Y73300D01*
X55600Y70778D02*
Y71500D01*
X56102Y70965D02*
Y71457D01*
Y70965D02*
X56299Y70768D01*
X56594Y71555D02*
Y71850D01*
X56693Y71949D01*
X56988D01*
X57100Y71837D01*
Y71500D02*
Y71837D01*
X57087Y70768D02*
Y71555D01*
X56506Y73300D02*
X57310D01*
X58231Y69754D02*
X59126D01*
Y67061D02*
Y67943D01*
X52600Y34600D02*
Y35097D01*
X51968Y35728D02*
X52600Y35097D01*
X51968Y35728D02*
Y35827D01*
X53051Y35800D02*
Y36516D01*
X59100Y32631D02*
Y34600D01*
X60100Y34191D02*
X60335Y33957D01*
X59600Y34600D02*
Y35092D01*
X59646Y35138D01*
X59941D01*
X60100Y34979D01*
Y34191D02*
Y34979D01*
X58600Y34600D02*
Y35175D01*
X58858Y35433D02*
Y35728D01*
X60051Y35800D02*
X60603D01*
X61516Y34941D02*
X61614Y35039D01*
Y35827D01*
X58071Y34646D02*
Y35138D01*
X58169Y35236D01*
X57526Y34600D02*
X58100D01*
X58169Y35236D02*
X58661D01*
X58600Y35175D02*
X58858Y35433D01*
X57283D02*
Y36122D01*
X57185Y38189D02*
Y39075D01*
X54823Y37992D02*
Y38878D01*
Y35335D02*
Y36220D01*
X54100Y34483D02*
Y34600D01*
Y34483D02*
X54429Y34154D01*
X53600Y34600D02*
Y34998D01*
X53740Y35138D01*
X54035D01*
X54134Y35039D01*
Y34634D02*
Y35039D01*
X54100Y34600D02*
X54134Y34634D01*
X51968Y34646D02*
Y34843D01*
X51673Y35138D02*
X51968Y34843D01*
X50206Y33300D02*
X51050D01*
X47539Y33366D02*
X48425D01*
D42*
X56089Y64750D02*
X56750D01*
X55370Y64031D02*
X56089Y64750D01*
X55370Y53719D02*
Y64031D01*
X55120Y64175D02*
X56201Y65256D01*
X55120Y53543D02*
Y64175D01*
X56201Y65256D02*
X56791D01*
X56750Y63250D02*
X57222D01*
X57480Y62992D01*
Y59885D02*
Y62992D01*
Y59885D02*
X57565Y59800D01*
X56750Y63750D02*
X57215D01*
X57776Y63189D01*
Y60335D02*
Y63189D01*
Y60335D02*
X58235Y59876D01*
X56594Y57382D02*
X57677Y58465D01*
X55911Y57640D02*
X56459D01*
X57382Y58563D01*
X57565Y59449D02*
Y59800D01*
X57382Y58563D02*
Y59265D01*
X57565Y59449D01*
X57677Y58957D02*
X58235Y59514D01*
X55807Y57382D02*
X56594D01*
X57677Y58465D02*
Y58957D01*
X58235Y59514D02*
Y59876D01*
D43*
X53100Y34105D02*
Y34600D01*
X53150Y31594D02*
Y32579D01*
D44*
X44569Y72200D02*
D03*
X40631D02*
D03*
D45*
X100000Y72500D02*
D03*
Y34500D02*
D03*
X28000Y72500D02*
D03*
Y34500D02*
D03*
X75000Y72500D02*
D03*
Y34500D02*
D03*
D46*
X86000Y50500D02*
D03*
X83500Y48000D02*
D03*
X88500D02*
D03*
Y53000D02*
D03*
X78000Y50500D02*
D03*
X75500Y48000D02*
D03*
X80500D02*
D03*
Y53000D02*
D03*
X70000Y50500D02*
D03*
X67500Y48000D02*
D03*
X72500D02*
D03*
Y53000D02*
D03*
X94000Y42500D02*
D03*
X91500Y40000D02*
D03*
X96500D02*
D03*
Y45000D02*
D03*
X86000Y42500D02*
D03*
X83500Y40000D02*
D03*
X88500D02*
D03*
Y45000D02*
D03*
X78000Y42500D02*
D03*
X75500Y40000D02*
D03*
X80500D02*
D03*
Y45000D02*
D03*
X70000Y42500D02*
D03*
X67500Y40000D02*
D03*
X72500D02*
D03*
Y45000D02*
D03*
X70000Y58500D02*
D03*
X67500Y56000D02*
D03*
X72500D02*
D03*
Y61000D02*
D03*
X78000Y58500D02*
D03*
X75500Y56000D02*
D03*
X80500D02*
D03*
Y61000D02*
D03*
X86000Y58500D02*
D03*
X83500Y56000D02*
D03*
X88500D02*
D03*
Y61000D02*
D03*
X94000Y58500D02*
D03*
X91500Y56000D02*
D03*
X96500D02*
D03*
Y61000D02*
D03*
X70000Y66500D02*
D03*
X67500Y64000D02*
D03*
X72500D02*
D03*
Y69000D02*
D03*
X78000Y66500D02*
D03*
X75500Y64000D02*
D03*
X80500D02*
D03*
Y69000D02*
D03*
X86000Y66500D02*
D03*
X83500Y64000D02*
D03*
X88500D02*
D03*
Y69000D02*
D03*
X94000Y66500D02*
D03*
X91500Y64000D02*
D03*
X96500D02*
D03*
Y69000D02*
D03*
X91500D02*
D03*
X83500D02*
D03*
Y53000D02*
D03*
X75500Y69000D02*
D03*
Y53000D02*
D03*
X67500Y69000D02*
D03*
Y53000D02*
D03*
X91500Y61000D02*
D03*
Y45000D02*
D03*
X83500Y61000D02*
D03*
Y45000D02*
D03*
X75500Y61000D02*
D03*
Y45000D02*
D03*
X67500Y61000D02*
D03*
Y45000D02*
D03*
X91500Y53000D02*
D03*
X96500D02*
D03*
Y48000D02*
D03*
X91500D02*
D03*
X94000Y50500D02*
D03*
D47*
X33750Y42000D02*
D03*
X45000D02*
D03*
X33750Y50000D02*
D03*
X45000D02*
D03*
X33750Y58000D02*
D03*
X45000D02*
D03*
X33750Y66000D02*
D03*
X45000D02*
D03*
D48*
X33750Y43000D02*
D03*
X32750Y42000D02*
D03*
Y43000D02*
D03*
X31750Y42000D02*
D03*
Y43000D02*
D03*
X30750Y42000D02*
D03*
Y43000D02*
D03*
X29750Y42000D02*
D03*
Y43000D02*
D03*
X28750Y42000D02*
D03*
Y43000D02*
D03*
X27750Y42000D02*
D03*
Y43000D02*
D03*
X26750Y42000D02*
D03*
Y43000D02*
D03*
X45000D02*
D03*
X44000Y42000D02*
D03*
Y43000D02*
D03*
X43000Y42000D02*
D03*
Y43000D02*
D03*
X42000Y42000D02*
D03*
Y43000D02*
D03*
X41000Y42000D02*
D03*
Y43000D02*
D03*
X40000Y42000D02*
D03*
Y43000D02*
D03*
X39000Y42000D02*
D03*
Y43000D02*
D03*
X38000Y42000D02*
D03*
Y43000D02*
D03*
X33750Y51000D02*
D03*
X32750Y50000D02*
D03*
Y51000D02*
D03*
X31750Y50000D02*
D03*
Y51000D02*
D03*
X30750Y50000D02*
D03*
Y51000D02*
D03*
X29750Y50000D02*
D03*
Y51000D02*
D03*
X28750Y50000D02*
D03*
Y51000D02*
D03*
X27750Y50000D02*
D03*
Y51000D02*
D03*
X26750Y50000D02*
D03*
Y51000D02*
D03*
X45000D02*
D03*
X44000Y50000D02*
D03*
Y51000D02*
D03*
X43000Y50000D02*
D03*
Y51000D02*
D03*
X42000Y50000D02*
D03*
Y51000D02*
D03*
X41000Y50000D02*
D03*
Y51000D02*
D03*
X40000Y50000D02*
D03*
Y51000D02*
D03*
X39000Y50000D02*
D03*
Y51000D02*
D03*
X38000Y50000D02*
D03*
Y51000D02*
D03*
X33750Y59000D02*
D03*
X32750Y58000D02*
D03*
Y59000D02*
D03*
X31750Y58000D02*
D03*
Y59000D02*
D03*
X30750Y58000D02*
D03*
Y59000D02*
D03*
X29750Y58000D02*
D03*
Y59000D02*
D03*
X28750Y58000D02*
D03*
Y59000D02*
D03*
X27750Y58000D02*
D03*
Y59000D02*
D03*
X26750Y58000D02*
D03*
Y59000D02*
D03*
X45000D02*
D03*
X44000Y58000D02*
D03*
Y59000D02*
D03*
X43000Y58000D02*
D03*
Y59000D02*
D03*
X42000Y58000D02*
D03*
Y59000D02*
D03*
X41000Y58000D02*
D03*
Y59000D02*
D03*
X40000Y58000D02*
D03*
Y59000D02*
D03*
X39000Y58000D02*
D03*
Y59000D02*
D03*
X38000Y58000D02*
D03*
Y59000D02*
D03*
X33750Y67000D02*
D03*
X32750Y66000D02*
D03*
Y67000D02*
D03*
X31750Y66000D02*
D03*
Y67000D02*
D03*
X30750Y66000D02*
D03*
Y67000D02*
D03*
X29750Y66000D02*
D03*
Y67000D02*
D03*
X28750Y66000D02*
D03*
Y67000D02*
D03*
X27750Y66000D02*
D03*
Y67000D02*
D03*
X26750Y66000D02*
D03*
Y67000D02*
D03*
X45000D02*
D03*
X44000Y66000D02*
D03*
Y67000D02*
D03*
X43000Y66000D02*
D03*
Y67000D02*
D03*
X42000Y66000D02*
D03*
Y67000D02*
D03*
X41000Y66000D02*
D03*
Y67000D02*
D03*
X40000Y66000D02*
D03*
Y67000D02*
D03*
X39000Y66000D02*
D03*
Y67000D02*
D03*
X38000Y66000D02*
D03*
Y67000D02*
D03*
D49*
X56750Y66833D02*
D03*
X56356Y61782D02*
D03*
D50*
X53950Y49600D02*
D03*
X52800Y47200D02*
D03*
X53150Y48050D02*
D03*
X61850Y41750D02*
D03*
Y43850D02*
D03*
X41850Y70400D02*
D03*
X47700Y69950D02*
D03*
X42650Y70450D02*
D03*
X43350D02*
D03*
X47794Y71644D02*
D03*
X35100Y74050D02*
D03*
X48250Y69750D02*
D03*
X57089Y48034D02*
D03*
X57483Y47246D02*
D03*
X57877Y48821D02*
D03*
X55613Y54333D02*
D03*
X59156Y53251D02*
D03*
X58271Y51184D02*
D03*
X58763Y51282D02*
D03*
X63780Y42913D02*
D03*
X62899Y42820D02*
D03*
X63780Y58858D02*
D03*
X62804Y58850D02*
D03*
X63878Y66043D02*
D03*
X63032Y66200D02*
D03*
X63878Y50098D02*
D03*
X62995Y50200D02*
D03*
X63189Y41929D02*
D03*
X63186Y57969D02*
D03*
X63333Y65252D02*
D03*
X62201Y62595D02*
D03*
X63333Y49252D02*
D03*
X62201Y46595D02*
D03*
X62152Y64859D02*
D03*
Y48859D02*
D03*
X62992Y63386D02*
D03*
X60600Y66210D02*
D03*
X62478Y53128D02*
D03*
X60932Y37606D02*
D03*
X62057Y34400D02*
D03*
X49508Y63169D02*
D03*
X47835Y64764D02*
D03*
X52559Y54331D02*
D03*
X51870Y54823D02*
D03*
X50984Y69980D02*
D03*
X55709Y46654D02*
D03*
X57677Y43701D02*
D03*
X56000Y41638D02*
D03*
X48327Y35531D02*
D03*
X49508D02*
D03*
X49902Y41339D02*
D03*
X48819D02*
D03*
X48425Y43406D02*
D03*
X49508D02*
D03*
X50000Y49409D02*
D03*
X48917Y49409D02*
D03*
X49409Y51378D02*
D03*
X48327D02*
D03*
X50051Y57531D02*
D03*
X48949Y57449D02*
D03*
X48327Y59547D02*
D03*
X49311D02*
D03*
X47861Y40764D02*
D03*
Y40173D02*
D03*
Y39583D02*
D03*
Y38992D02*
D03*
Y38008D02*
D03*
Y37417D02*
D03*
Y36827D02*
D03*
Y36236D02*
D03*
Y48764D02*
D03*
Y48173D02*
D03*
Y47583D02*
D03*
Y46992D02*
D03*
Y46008D02*
D03*
Y45417D02*
D03*
Y44827D02*
D03*
Y44236D02*
D03*
X47835Y56764D02*
D03*
Y56173D02*
D03*
Y55583D02*
D03*
Y54992D02*
D03*
Y54008D02*
D03*
Y53417D02*
D03*
Y52827D02*
D03*
Y52236D02*
D03*
X49665Y64764D02*
D03*
Y64173D02*
D03*
Y63583D02*
D03*
Y62008D02*
D03*
Y61417D02*
D03*
Y60827D02*
D03*
Y60236D02*
D03*
X47835D02*
D03*
Y60827D02*
D03*
Y61417D02*
D03*
Y62008D02*
D03*
Y62992D02*
D03*
Y63583D02*
D03*
Y64173D02*
D03*
X57087Y51968D02*
D03*
X57480Y52362D02*
D03*
X58661Y53543D02*
D03*
X58268Y53150D02*
D03*
X55906Y51968D02*
D03*
Y53150D02*
D03*
X56299Y51968D02*
D03*
X58071Y58661D02*
D03*
X57972Y57972D02*
D03*
X59136Y58152D02*
D03*
X59096Y57128D02*
D03*
X59154Y56693D02*
D03*
Y57579D02*
D03*
X56594Y58149D02*
D03*
X56376Y57896D02*
D03*
X56693Y52362D02*
D03*
X56299D02*
D03*
X56594Y56398D02*
D03*
X56693Y56791D02*
D03*
X58760Y60532D02*
D03*
X56065Y59486D02*
D03*
X56004Y65748D02*
D03*
X57459Y64250D02*
D03*
X56057Y62750D02*
D03*
X56496Y55709D02*
D03*
X56494Y56104D02*
D03*
X56496Y58858D02*
D03*
X56455Y58407D02*
D03*
X56299Y52756D02*
D03*
X56693D02*
D03*
X57087D02*
D03*
X56496Y57087D02*
D03*
X57972Y56594D02*
D03*
X56496Y53642D02*
D03*
X52264Y62598D02*
D03*
X55118Y51968D02*
D03*
X55121Y52365D02*
D03*
X51971Y63684D02*
D03*
X54727Y52758D02*
D03*
Y52365D02*
D03*
X54333Y52758D02*
D03*
Y52365D02*
D03*
X53940Y52758D02*
D03*
Y52365D02*
D03*
X51479Y63783D02*
D03*
Y63389D02*
D03*
X50987Y63487D02*
D03*
X51085Y63094D02*
D03*
X50691D02*
D03*
X49612Y62795D02*
D03*
X52365Y53546D02*
D03*
X52758Y53152D02*
D03*
X49639Y56764D02*
D03*
Y56173D02*
D03*
Y55583D02*
D03*
Y54992D02*
D03*
Y54008D02*
D03*
Y53417D02*
D03*
Y52827D02*
D03*
Y52236D02*
D03*
X49412Y55318D02*
D03*
X50790Y55219D02*
D03*
X51282Y55318D02*
D03*
X51577Y55121D02*
D03*
X53152Y51184D02*
D03*
X53546D02*
D03*
X53152Y51577D02*
D03*
X53546D02*
D03*
X53152Y51971D02*
D03*
X49639Y48764D02*
D03*
Y48173D02*
D03*
Y47583D02*
D03*
Y46992D02*
D03*
Y46008D02*
D03*
Y45417D02*
D03*
Y44827D02*
D03*
Y44236D02*
D03*
X50837Y45965D02*
D03*
X51132Y46161D02*
D03*
Y45472D02*
D03*
X51624Y45522D02*
D03*
X51575Y45030D02*
D03*
X52116Y44931D02*
D03*
X53150Y50000D02*
D03*
Y49606D02*
D03*
Y49213D02*
D03*
X52335Y49409D02*
D03*
X53150Y48819D02*
D03*
X52756Y48425D02*
D03*
Y48032D02*
D03*
X54528Y47146D02*
D03*
X49622Y40764D02*
D03*
Y40173D02*
D03*
Y39583D02*
D03*
Y38992D02*
D03*
Y37417D02*
D03*
Y36827D02*
D03*
Y36236D02*
D03*
X49606Y38337D02*
D03*
X49622Y38008D02*
D03*
X49459Y37697D02*
D03*
X50837Y37795D02*
D03*
X52362Y47244D02*
D03*
X52756Y47638D02*
D03*
X51181Y37549D02*
D03*
X51575Y37598D02*
D03*
X53937Y48425D02*
D03*
Y48032D02*
D03*
X54331Y48425D02*
D03*
Y48032D02*
D03*
X54724Y48032D02*
D03*
X52608Y37992D02*
D03*
X55118Y40010D02*
D03*
X54724Y48425D02*
D03*
X55118Y48032D02*
D03*
X63335Y67170D02*
D03*
X64784Y70396D02*
D03*
X64810Y69977D02*
D03*
Y68845D02*
D03*
Y68402D02*
D03*
X63776Y67172D02*
D03*
X62989D02*
D03*
X63629Y65203D02*
D03*
X63038D02*
D03*
X64957Y55066D02*
D03*
X64810Y55361D02*
D03*
Y56395D02*
D03*
X64760Y56788D02*
D03*
X62989Y57723D02*
D03*
X63481Y57871D02*
D03*
X63333Y60036D02*
D03*
X63235Y59741D02*
D03*
X62890Y59839D02*
D03*
X64564Y60381D02*
D03*
X63891Y64006D02*
D03*
X64711Y55853D02*
D03*
X64647Y56134D02*
D03*
X63579Y69583D02*
D03*
X64711Y69485D02*
D03*
X63579Y70026D02*
D03*
X62402Y69628D02*
D03*
X62471Y69116D02*
D03*
X64711Y67270D02*
D03*
X62608Y67700D02*
D03*
X61070Y69681D02*
D03*
X61365Y68008D02*
D03*
X60824Y62398D02*
D03*
X60774Y62743D02*
D03*
X61900Y61703D02*
D03*
X61955Y63432D02*
D03*
X63530Y55607D02*
D03*
X64859Y57822D02*
D03*
X63875Y56985D02*
D03*
X62497Y54918D02*
D03*
Y55657D02*
D03*
X61244Y54798D02*
D03*
X61365Y55903D02*
D03*
X62251Y67024D02*
D03*
X59200Y61217D02*
D03*
X60081Y62394D02*
D03*
X60131Y63723D02*
D03*
X59200Y62841D02*
D03*
X63136Y64810D02*
D03*
X61932Y63750D02*
D03*
X61070Y53681D02*
D03*
X61365Y52008D02*
D03*
X62251Y51024D02*
D03*
X61365Y39903D02*
D03*
X61244Y38798D02*
D03*
X61932Y47750D02*
D03*
X64859Y41822D02*
D03*
X63038Y49203D02*
D03*
X63776Y51172D02*
D03*
X63335Y51170D02*
D03*
X62989Y51172D02*
D03*
X63891Y48006D02*
D03*
X61955Y47432D02*
D03*
X61900Y45703D02*
D03*
X64564Y44381D02*
D03*
X62989Y41723D02*
D03*
X64957Y39066D02*
D03*
X63481Y41871D02*
D03*
X64810Y39361D02*
D03*
X63875Y40985D02*
D03*
X63333Y44036D02*
D03*
X64810Y40395D02*
D03*
X63235Y43741D02*
D03*
X62890Y43839D02*
D03*
X64760Y40788D02*
D03*
X62471Y52770D02*
D03*
X63530Y39607D02*
D03*
X64711Y39853D02*
D03*
X64647Y40134D02*
D03*
X62497Y38918D02*
D03*
Y39657D02*
D03*
X63136Y48810D02*
D03*
X64800Y52100D02*
D03*
Y52450D02*
D03*
X63629Y49203D02*
D03*
X65100Y53650D02*
D03*
X64650Y53900D02*
D03*
Y53150D02*
D03*
Y52800D02*
D03*
X60800Y46800D02*
D03*
X60138Y46555D02*
D03*
X60400Y43750D02*
D03*
X59300Y43800D02*
D03*
X61296Y70396D02*
D03*
X61600Y57150D02*
D03*
X62490Y70140D02*
D03*
X62600Y56500D02*
D03*
X61950Y61100D02*
D03*
X61250Y70000D02*
D03*
X61350Y56500D02*
D03*
X58268Y51968D02*
D03*
X57874D02*
D03*
X57480Y51575D02*
D03*
X62557Y53896D02*
D03*
X62500Y40846D02*
D03*
Y51181D02*
D03*
Y53543D02*
D03*
X62106Y41437D02*
D03*
Y45472D02*
D03*
X62500Y40256D02*
D03*
X61319Y52559D02*
D03*
X61909Y48678D02*
D03*
X57087Y49606D02*
D03*
X48140Y71467D02*
D03*
X50030Y70246D02*
D03*
X49085Y70305D02*
D03*
X47602Y69130D02*
D03*
X47638Y68504D02*
D03*
X48455Y66762D02*
D03*
X48770Y66782D02*
D03*
X51098Y67240D02*
D03*
X52149Y65436D02*
D03*
X53251Y65450D02*
D03*
X54600Y68333D02*
D03*
X48140Y67235D02*
D03*
X54400Y62176D02*
D03*
X53543Y52756D02*
D03*
X52953Y53740D02*
D03*
X55118Y65157D02*
D03*
X57087Y52362D02*
D03*
X57480Y52756D02*
D03*
X53543Y66535D02*
D03*
X58268Y47638D02*
D03*
X57874Y48032D02*
D03*
X52657Y68799D02*
D03*
X53600Y62640D02*
D03*
X58465Y59252D02*
D03*
X54823Y65846D02*
D03*
X58268Y48032D02*
D03*
X54232Y61122D02*
D03*
X58760Y58957D02*
D03*
X58268Y50000D02*
D03*
X60750Y46435D02*
D03*
X53543Y52362D02*
D03*
X53937Y51968D02*
D03*
X61030Y44679D02*
D03*
X59154Y47933D02*
D03*
X52756Y67520D02*
D03*
X53543Y64370D02*
D03*
X60925Y45079D02*
D03*
X59252Y48228D02*
D03*
X58760Y49409D02*
D03*
X61024Y45472D02*
D03*
X59744Y48130D02*
D03*
X59154Y49213D02*
D03*
X61024Y45965D02*
D03*
X60335Y47638D02*
D03*
X57480Y48425D02*
D03*
X57087Y48819D02*
D03*
X56496Y47146D02*
D03*
X58661Y47244D02*
D03*
X52268Y68500D02*
D03*
X56693Y46850D02*
D03*
X55906Y46063D02*
D03*
X55512Y47638D02*
D03*
X53543Y48425D02*
D03*
X53937Y48819D02*
D03*
X54331Y49213D02*
D03*
X53937Y50000D02*
D03*
X58268Y53543D02*
D03*
X51476Y71555D02*
D03*
X53967Y70049D02*
D03*
X52756Y71161D02*
D03*
X54721Y71552D02*
D03*
X54708Y70883D02*
D03*
X55600Y72037D02*
D03*
X54528Y53642D02*
D03*
X55646Y39800D02*
D03*
X57677Y39764D02*
D03*
X55906Y48819D02*
D03*
X55512D02*
D03*
X56299Y49213D02*
D03*
X53100Y34105D02*
D03*
X53150Y31594D02*
D03*
X61909Y64272D02*
D03*
X61220Y48327D02*
D03*
X63042Y47343D02*
D03*
X60600Y50265D02*
D03*
X58760Y45472D02*
D03*
X55906Y50787D02*
D03*
X56299D02*
D03*
Y51181D02*
D03*
X55906D02*
D03*
Y51575D02*
D03*
X56299D02*
D03*
X56693D02*
D03*
Y51181D02*
D03*
Y50787D02*
D03*
X55906Y50000D02*
D03*
X56299D02*
D03*
X56693D02*
D03*
X57087D02*
D03*
X57089Y50396D02*
D03*
X56693Y49606D02*
D03*
X56299D02*
D03*
X55906D02*
D03*
Y49213D02*
D03*
X56693D02*
D03*
X54724D02*
D03*
X55118D02*
D03*
Y49606D02*
D03*
X54724D02*
D03*
X54331D02*
D03*
Y50000D02*
D03*
X54724D02*
D03*
X55118D02*
D03*
X54724Y50787D02*
D03*
X54331D02*
D03*
X53937D02*
D03*
X54331Y51181D02*
D03*
X54724D02*
D03*
X54331Y51575D02*
D03*
X54724D02*
D03*
X55118Y50787D02*
D03*
Y51181D02*
D03*
Y51575D02*
D03*
X55512Y51968D02*
D03*
X53150Y50787D02*
D03*
X52165Y51378D02*
D03*
X56750Y69432D02*
D03*
M02*
