%FSLAX24Y24*%
%MOIN*%
G70*
G01*
G75*
G04 Layer_Color=32896*
%ADD10R,0.0787X0.0472*%
%ADD11R,0.1240X0.1360*%
%ADD12R,0.0945X0.1024*%
%ADD13R,0.1000X0.1400*%
%ADD14R,0.0300X0.0600*%
%ADD15R,0.0492X0.0165*%
%ADD16C,0.0177*%
%ADD17R,0.0433X0.0394*%
%ADD18R,0.0650X0.0118*%
%ADD19R,0.0472X0.0787*%
%ADD20R,0.0512X0.0630*%
%ADD21R,0.0630X0.0709*%
%ADD22R,0.0787X0.0551*%
%ADD23R,0.0748X0.0197*%
%ADD24R,0.0197X0.0748*%
%ADD25R,0.0709X0.0630*%
%ADD26R,0.0394X0.0433*%
%ADD27R,0.0945X0.0354*%
%ADD28R,0.0669X0.0177*%
%ADD29R,0.0669X0.0177*%
%ADD30R,0.0098X0.0256*%
%ADD31R,0.0472X0.0472*%
%ADD32R,0.1024X0.0945*%
%ADD33C,0.0400*%
%ADD34R,0.0500X0.1449*%
%ADD35R,0.0394X0.1083*%
%ADD36C,0.0080*%
%ADD37C,0.0100*%
%ADD38C,0.0200*%
%ADD39C,0.0060*%
%ADD40C,0.0120*%
%ADD41C,0.0150*%
%ADD42C,0.0110*%
%ADD43C,0.0160*%
%ADD44C,0.0700*%
%ADD45C,0.0669*%
%ADD46C,0.0591*%
%ADD47R,0.0591X0.0591*%
%ADD48C,0.1600*%
%ADD49C,0.0433*%
%ADD50C,0.0200*%
%ADD51R,0.0276X0.0354*%
%ADD52R,0.0354X0.0276*%
%ADD53C,0.0098*%
%ADD54C,0.0079*%
%ADD55C,0.0040*%
%ADD56C,0.0070*%
%ADD57C,0.0600*%
%ADD58C,0.0025*%
D36*
X37400Y66800D02*
X37233D01*
X37317D01*
Y67300D01*
X37400Y67217D01*
X36650Y67300D02*
X36817Y67217D01*
X36983Y67050D01*
Y66883D01*
X36900Y66800D01*
X36734D01*
X36650Y66883D01*
Y66967D01*
X36734Y67050D01*
X36983D01*
X37400Y65800D02*
X37233D01*
X37317D01*
Y66300D01*
X37400Y66217D01*
X36650Y66300D02*
X36983D01*
Y66050D01*
X36817Y66133D01*
X36734D01*
X36650Y66050D01*
Y65883D01*
X36734Y65800D01*
X36900D01*
X36983Y65883D01*
X46000Y65800D02*
X45833D01*
X45917D01*
Y66300D01*
X46000Y66217D01*
X45667Y66800D02*
X46000D01*
X45667Y67133D01*
Y67217D01*
X45750Y67300D01*
X45917D01*
X46000Y67217D01*
X34750Y65800D02*
X34583D01*
X34667D01*
Y66300D01*
X34750Y66217D01*
X34417Y66800D02*
X34750D01*
X34417Y67133D01*
Y67217D01*
X34500Y67300D01*
X34667D01*
X34750Y67217D01*
X37400Y58800D02*
X37233D01*
X37317D01*
Y59300D01*
X37400Y59217D01*
X36650Y59300D02*
X36817Y59217D01*
X36983Y59050D01*
Y58883D01*
X36900Y58800D01*
X36734D01*
X36650Y58883D01*
Y58967D01*
X36734Y59050D01*
X36983D01*
X37400Y57800D02*
X37233D01*
X37317D01*
Y58300D01*
X37400Y58217D01*
X36650Y58300D02*
X36983D01*
Y58050D01*
X36817Y58133D01*
X36734D01*
X36650Y58050D01*
Y57883D01*
X36734Y57800D01*
X36900D01*
X36983Y57883D01*
X46000Y57800D02*
X45833D01*
X45917D01*
Y58300D01*
X46000Y58217D01*
X45667Y58800D02*
X46000D01*
X45667Y59133D01*
Y59217D01*
X45750Y59300D01*
X45917D01*
X46000Y59217D01*
X34750Y57800D02*
X34583D01*
X34667D01*
Y58300D01*
X34750Y58217D01*
X34417Y58800D02*
X34750D01*
X34417Y59133D01*
Y59217D01*
X34500Y59300D01*
X34667D01*
X34750Y59217D01*
X37400Y50800D02*
X37233D01*
X37317D01*
Y51300D01*
X37400Y51217D01*
X36650Y51300D02*
X36817Y51217D01*
X36983Y51050D01*
Y50883D01*
X36900Y50800D01*
X36734D01*
X36650Y50883D01*
Y50967D01*
X36734Y51050D01*
X36983D01*
X37400Y49800D02*
X37233D01*
X37317D01*
Y50300D01*
X37400Y50217D01*
X36650Y50300D02*
X36983D01*
Y50050D01*
X36817Y50133D01*
X36734D01*
X36650Y50050D01*
Y49883D01*
X36734Y49800D01*
X36900D01*
X36983Y49883D01*
X46000Y49800D02*
X45833D01*
X45917D01*
Y50300D01*
X46000Y50217D01*
X45667Y50800D02*
X46000D01*
X45667Y51133D01*
Y51217D01*
X45750Y51300D01*
X45917D01*
X46000Y51217D01*
X26150Y50800D02*
X25983D01*
X26067D01*
Y51300D01*
X26150Y51217D01*
X25400Y51300D02*
X25567Y51217D01*
X25733Y51050D01*
Y50883D01*
X25650Y50800D01*
X25484D01*
X25400Y50883D01*
Y50967D01*
X25484Y51050D01*
X25733D01*
X26150Y49800D02*
X25983D01*
X26067D01*
Y50300D01*
X26150Y50217D01*
X25400Y50300D02*
X25733D01*
Y50050D01*
X25567Y50133D01*
X25484D01*
X25400Y50050D01*
Y49883D01*
X25484Y49800D01*
X25650D01*
X25733Y49883D01*
X34750Y49800D02*
X34583D01*
X34667D01*
Y50300D01*
X34750Y50217D01*
X34417Y50800D02*
X34750D01*
X34417Y51133D01*
Y51217D01*
X34500Y51300D01*
X34667D01*
X34750Y51217D01*
X37400Y42800D02*
X37233D01*
X37317D01*
Y43300D01*
X37400Y43217D01*
X36650Y43300D02*
X36817Y43217D01*
X36983Y43050D01*
Y42883D01*
X36900Y42800D01*
X36734D01*
X36650Y42883D01*
Y42967D01*
X36734Y43050D01*
X36983D01*
X37400Y41800D02*
X37233D01*
X37317D01*
Y42300D01*
X37400Y42217D01*
X36650Y42300D02*
X36983D01*
Y42050D01*
X36817Y42133D01*
X36734D01*
X36650Y42050D01*
Y41883D01*
X36734Y41800D01*
X36900D01*
X36983Y41883D01*
X46000Y41800D02*
X45833D01*
X45917D01*
Y42300D01*
X46000Y42217D01*
X45667Y42800D02*
X46000D01*
X45667Y43133D01*
Y43217D01*
X45750Y43300D01*
X45917D01*
X46000Y43217D01*
X34750Y41800D02*
X34583D01*
X34667D01*
Y42300D01*
X34750Y42217D01*
X34417Y42800D02*
X34750D01*
X34417Y43133D01*
Y43217D01*
X34500Y43300D01*
X34667D01*
X34750Y43217D01*
D37*
X76400Y34500D02*
G03*
X76400Y34500I-1400J0D01*
G01*
Y72500D02*
G03*
X76400Y72500I-1400J0D01*
G01*
X29400Y34500D02*
G03*
X29400Y34500I-1400J0D01*
G01*
Y72500D02*
G03*
X29400Y72500I-1400J0D01*
G01*
X101400Y34500D02*
G03*
X101400Y34500I-1400J0D01*
G01*
Y72500D02*
G03*
X101400Y72500I-1400J0D01*
G01*
X90550Y53950D02*
X97450D01*
Y47050D02*
Y53950D01*
X90550Y47050D02*
X97450D01*
X90550D02*
Y53950D01*
Y63050D02*
Y69950D01*
Y63050D02*
X97450D01*
Y69950D01*
X90550D02*
X97450D01*
X82550Y63050D02*
Y69950D01*
Y63050D02*
X89450D01*
Y69950D01*
X82550D02*
X89450D01*
X74550Y63050D02*
Y69950D01*
Y63050D02*
X81450D01*
Y69950D01*
X74550D02*
X81450D01*
X66550Y63050D02*
Y69950D01*
Y63050D02*
X73450D01*
Y69950D01*
X66550D02*
X73450D01*
X90550Y55050D02*
Y61950D01*
Y55050D02*
X97450D01*
Y61950D01*
X90550D02*
X97450D01*
X82550Y55050D02*
Y61950D01*
Y55050D02*
X89450D01*
Y61950D01*
X82550D02*
X89450D01*
X74550Y55050D02*
Y61950D01*
Y55050D02*
X81450D01*
Y61950D01*
X74550D02*
X81450D01*
X66550Y55050D02*
Y61950D01*
Y55050D02*
X73450D01*
Y61950D01*
X66550D02*
X73450D01*
X66550Y39050D02*
Y45950D01*
Y39050D02*
X73450D01*
Y45950D01*
X66550D02*
X73450D01*
X74550Y39050D02*
Y45950D01*
Y39050D02*
X81450D01*
Y45950D01*
X74550D02*
X81450D01*
X82550Y39050D02*
Y45950D01*
Y39050D02*
X89450D01*
Y45950D01*
X82550D02*
X89450D01*
X90550Y39050D02*
Y45950D01*
Y39050D02*
X97450D01*
Y45950D01*
X90550D02*
X97450D01*
X66550Y47050D02*
Y53950D01*
Y47050D02*
X73450D01*
Y53950D01*
X66550D02*
X73450D01*
X74550Y47050D02*
Y53950D01*
Y47050D02*
X81450D01*
Y53950D01*
X74550D02*
X81450D01*
X82550Y47050D02*
Y53950D01*
Y47050D02*
X89450D01*
Y53950D01*
X82550D02*
X89450D01*
D54*
X62031Y64243D02*
Y64557D01*
Y48243D02*
Y48557D01*
X63935Y39130D02*
X64250D01*
X62081Y47573D02*
Y47887D01*
X61743Y40152D02*
X62057D01*
X61135Y47043D02*
Y47357D01*
X61864Y46843D02*
Y47157D01*
X60869Y45943D02*
Y46257D01*
X61743Y54035D02*
X62057D01*
X63943Y52431D02*
X64257D01*
X62031Y63543D02*
Y63857D01*
X61743Y56152D02*
X62057D01*
X63935Y55130D02*
X64250D01*
X61743Y70035D02*
X62057D01*
X63043Y69031D02*
X63357D01*
X61135Y63043D02*
Y63357D01*
X61085Y61843D02*
Y62157D01*
X37500Y67500D02*
X45500D01*
X37500Y65500D02*
X45500D01*
Y67500D01*
X37500Y65500D02*
Y67500D01*
X26250D02*
X34250D01*
X26250Y65500D02*
X34250D01*
Y67500D01*
X26250Y65500D02*
Y67500D01*
X37500Y59500D02*
X45500D01*
X37500Y57500D02*
X45500D01*
Y59500D01*
X37500Y57500D02*
Y59500D01*
X26250D02*
X34250D01*
X26250Y57500D02*
X34250D01*
Y59500D01*
X26250Y57500D02*
Y59500D01*
X37500Y51500D02*
X45500D01*
X37500Y49500D02*
X45500D01*
Y51500D01*
X37500Y49500D02*
Y51500D01*
X26250D02*
X34250D01*
X26250Y49500D02*
X34250D01*
Y51500D01*
X26250Y49500D02*
Y51500D01*
X37500Y43500D02*
X45500D01*
X37500Y41500D02*
X45500D01*
Y43500D01*
X37500Y41500D02*
Y43500D01*
X26250D02*
X34250D01*
X26250Y41500D02*
X34250D01*
Y43500D01*
X26250Y41500D02*
Y43500D01*
X58602Y57534D02*
X58798D01*
X50043Y61869D02*
X50357D01*
X47243Y61769D02*
X47557D01*
X47143Y53752D02*
X47457D01*
X50043Y53148D02*
X50357D01*
X49943Y45031D02*
X50257D01*
X47243Y45752D02*
X47557D01*
X49943Y37752D02*
X50257D01*
X47243D02*
X47557D01*
X61864Y62843D02*
Y63157D01*
X53102Y52266D02*
X53298D01*
X57802Y52166D02*
X57998D01*
X57566Y48302D02*
Y48498D01*
X51731Y50743D02*
Y51057D01*
X55234Y48752D02*
Y48948D01*
X53716Y50302D02*
Y50498D01*
X55452Y51701D02*
X55648D01*
X55802Y48651D02*
X55998D01*
X53443Y48531D02*
X53757D01*
X58593Y52031D02*
X58907D01*
X56199Y48352D02*
Y48548D01*
X57249Y50252D02*
Y50448D01*
X56901Y50302D02*
Y50498D01*
X55502Y52166D02*
X55698D01*
X56831Y49043D02*
Y49357D01*
X56881Y50843D02*
Y51157D01*
X56348Y47493D02*
Y47807D01*
X52593Y49231D02*
X52907D01*
X54648Y47043D02*
Y47357D01*
X55843Y58969D02*
X56157D01*
X54202Y70666D02*
X54398D01*
X50366Y34502D02*
Y34698D01*
X55931Y71343D02*
Y71657D01*
X55752Y34443D02*
Y34757D01*
X61852Y34243D02*
Y34557D01*
D56*
X57250Y45300D02*
X57450D01*
Y45150D01*
X57350D01*
X57450D01*
Y45000D01*
X57150Y45300D02*
X57050D01*
X57100D01*
Y45000D01*
X57150D01*
X57050D01*
X56900Y45300D02*
Y45000D01*
X56750D01*
X56700Y45050D01*
Y45250D01*
X56750Y45300D01*
X56900D01*
X56450Y45000D02*
Y45300D01*
X56600Y45150D01*
X56400D01*
X46300Y39250D02*
X46500D01*
Y39100D01*
X46400D01*
X46500D01*
Y38950D01*
X46200Y39250D02*
X46100D01*
X46150D01*
Y38950D01*
X46200D01*
X46100D01*
X45950Y39250D02*
Y38950D01*
X45800D01*
X45750Y39000D01*
Y39200D01*
X45800Y39250D01*
X45950D01*
X45450D02*
X45650D01*
Y39100D01*
X45550Y39150D01*
X45500D01*
X45450Y39100D01*
Y39000D01*
X45500Y38950D01*
X45600D01*
X45650Y39000D01*
X42950Y68750D02*
X43150D01*
Y68600D01*
X43050D01*
X43150D01*
Y68450D01*
X42850Y68750D02*
X42750D01*
X42800D01*
Y68450D01*
X42850D01*
X42750D01*
X42600Y68750D02*
Y68450D01*
X42450D01*
X42400Y68500D01*
Y68700D01*
X42450Y68750D01*
X42600D01*
X42100D02*
X42200Y68700D01*
X42300Y68600D01*
Y68500D01*
X42250Y68450D01*
X42150D01*
X42100Y68500D01*
Y68550D01*
X42150Y68600D01*
X42300D01*
X70650Y36300D02*
X70850D01*
Y36150D01*
X70750D01*
X70850D01*
Y36000D01*
X70550Y36300D02*
X70450D01*
X70500D01*
Y36000D01*
X70550D01*
X70450D01*
X70300Y36300D02*
Y36000D01*
X70150D01*
X70100Y36050D01*
Y36250D01*
X70150Y36300D01*
X70300D01*
X70000Y36000D02*
X69900D01*
X69950D01*
Y36300D01*
X70000Y36250D01*
X69750D02*
X69700Y36300D01*
X69600D01*
X69550Y36250D01*
Y36050D01*
X69600Y36000D01*
X69700D01*
X69750Y36050D01*
Y36250D01*
X55300Y58550D02*
X55250Y58600D01*
Y58700D01*
X55300Y58750D01*
X55500D01*
X55550Y58700D01*
Y58600D01*
X55500Y58550D01*
X55550Y58300D02*
X55250D01*
X55400Y58450D01*
Y58250D01*
X55250Y57950D02*
X55300Y58050D01*
X55400Y58150D01*
X55500D01*
X55550Y58100D01*
Y58000D01*
X55500Y57950D01*
X55450D01*
X55400Y58000D01*
Y58150D01*
X58100Y57250D02*
X58050Y57300D01*
Y57400D01*
X58100Y57450D01*
X58300D01*
X58350Y57400D01*
Y57300D01*
X58300Y57250D01*
X58350Y57000D02*
X58050D01*
X58200Y57150D01*
Y56950D01*
X58050Y56850D02*
Y56650D01*
X58100D01*
X58300Y56850D01*
X58350D01*
X35975Y51235D02*
Y51335D01*
Y51285D01*
X36225D01*
X36275Y51335D01*
Y51385D01*
X36225Y51435D01*
X36275Y51135D02*
X35975D01*
Y50985D01*
X36025Y50935D01*
X36125D01*
X36175Y50985D01*
Y51135D01*
X36275Y50835D02*
Y50735D01*
Y50785D01*
X35975D01*
X36025Y50835D01*
X35975Y67235D02*
Y67335D01*
Y67285D01*
X36225D01*
X36275Y67335D01*
Y67385D01*
X36225Y67435D01*
X36275Y67135D02*
X35975D01*
Y66985D01*
X36025Y66935D01*
X36125D01*
X36175Y66985D01*
Y67135D01*
X36275Y66635D02*
Y66835D01*
X36075Y66635D01*
X36025D01*
X35975Y66685D01*
Y66785D01*
X36025Y66835D01*
X24725Y51235D02*
Y51335D01*
Y51285D01*
X24975D01*
X25025Y51335D01*
Y51385D01*
X24975Y51435D01*
X25025Y51135D02*
X24725D01*
Y50985D01*
X24775Y50935D01*
X24875D01*
X24925Y50985D01*
Y51135D01*
X24775Y50835D02*
X24725Y50785D01*
Y50685D01*
X24775Y50635D01*
X24825D01*
X24875Y50685D01*
Y50735D01*
Y50685D01*
X24925Y50635D01*
X24975D01*
X25025Y50685D01*
Y50785D01*
X24975Y50835D01*
X27000Y67950D02*
X27100D01*
X27050D01*
Y67700D01*
X27100Y67650D01*
X27150D01*
X27200Y67700D01*
X26900Y67650D02*
Y67950D01*
X26750D01*
X26700Y67900D01*
Y67800D01*
X26750Y67750D01*
X26900D01*
X26450Y67650D02*
Y67950D01*
X26600Y67800D01*
X26400D01*
X35975Y43235D02*
Y43335D01*
Y43285D01*
X36225D01*
X36275Y43335D01*
Y43385D01*
X36225Y43435D01*
X36275Y43135D02*
X35975D01*
Y42985D01*
X36025Y42935D01*
X36125D01*
X36175Y42985D01*
Y43135D01*
X35975Y42635D02*
Y42835D01*
X36125D01*
X36075Y42735D01*
Y42685D01*
X36125Y42635D01*
X36225D01*
X36275Y42685D01*
Y42785D01*
X36225Y42835D01*
X35975Y59235D02*
Y59335D01*
Y59285D01*
X36225D01*
X36275Y59335D01*
Y59385D01*
X36225Y59435D01*
X36275Y59135D02*
X35975D01*
Y58985D01*
X36025Y58935D01*
X36125D01*
X36175Y58985D01*
Y59135D01*
X35975Y58635D02*
X36025Y58735D01*
X36125Y58835D01*
X36225D01*
X36275Y58785D01*
Y58685D01*
X36225Y58635D01*
X36175D01*
X36125Y58685D01*
Y58835D01*
X27050Y43900D02*
X27150D01*
X27100D01*
Y43650D01*
X27150Y43600D01*
X27200D01*
X27250Y43650D01*
X26950Y43600D02*
Y43900D01*
X26800D01*
X26750Y43850D01*
Y43750D01*
X26800Y43700D01*
X26950D01*
X26650Y43900D02*
X26450D01*
Y43850D01*
X26650Y43650D01*
Y43600D01*
X27050Y59900D02*
X27150D01*
X27100D01*
Y59650D01*
X27150Y59600D01*
X27200D01*
X27250Y59650D01*
X26950Y59600D02*
Y59900D01*
X26800D01*
X26750Y59850D01*
Y59750D01*
X26800Y59700D01*
X26950D01*
X26650Y59850D02*
X26600Y59900D01*
X26500D01*
X26450Y59850D01*
Y59800D01*
X26500Y59750D01*
X26450Y59700D01*
Y59650D01*
X26500Y59600D01*
X26600D01*
X26650Y59650D01*
Y59700D01*
X26600Y59750D01*
X26650Y59800D01*
Y59850D01*
X26600Y59750D02*
X26500D01*
X97395Y70395D02*
Y70695D01*
X97245D01*
X97195Y70645D01*
Y70545D01*
X97245Y70495D01*
X97395D01*
X97095Y70395D02*
X96995D01*
X97045D01*
Y70695D01*
X97095Y70645D01*
X96845Y70395D02*
Y70445D01*
X96795D01*
Y70395D01*
X96845D01*
X96595D02*
Y70595D01*
X96495Y70695D01*
X96395Y70595D01*
Y70395D01*
Y70545D01*
X96595D01*
X96295Y70395D02*
X96195D01*
X96245D01*
Y70695D01*
X96295Y70645D01*
X97495Y54395D02*
Y54695D01*
X97345D01*
X97295Y54645D01*
Y54545D01*
X97345Y54495D01*
X97495D01*
X97195Y54395D02*
X97095D01*
X97145D01*
Y54695D01*
X97195Y54645D01*
X96945Y54395D02*
Y54445D01*
X96895D01*
Y54395D01*
X96945D01*
X96695D02*
Y54595D01*
X96595Y54695D01*
X96495Y54595D01*
Y54395D01*
Y54545D01*
X96695D01*
X96195Y54395D02*
X96395D01*
X96195Y54595D01*
Y54645D01*
X96245Y54695D01*
X96345D01*
X96395Y54645D01*
X89395Y70395D02*
Y70695D01*
X89245D01*
X89195Y70645D01*
Y70545D01*
X89245Y70495D01*
X89395D01*
X88895Y70395D02*
X89095D01*
X88895Y70595D01*
Y70645D01*
X88945Y70695D01*
X89045D01*
X89095Y70645D01*
X88795Y70395D02*
Y70445D01*
X88745D01*
Y70395D01*
X88795D01*
X88545D02*
Y70595D01*
X88445Y70695D01*
X88345Y70595D01*
Y70395D01*
Y70545D01*
X88545D01*
X88245Y70395D02*
X88145D01*
X88195D01*
Y70695D01*
X88245Y70645D01*
X89495Y54395D02*
Y54695D01*
X89345D01*
X89295Y54645D01*
Y54545D01*
X89345Y54495D01*
X89495D01*
X88995Y54395D02*
X89195D01*
X88995Y54595D01*
Y54645D01*
X89045Y54695D01*
X89145D01*
X89195Y54645D01*
X88895Y54395D02*
Y54445D01*
X88845D01*
Y54395D01*
X88895D01*
X88645D02*
Y54595D01*
X88545Y54695D01*
X88445Y54595D01*
Y54395D01*
Y54545D01*
X88645D01*
X88145Y54395D02*
X88345D01*
X88145Y54595D01*
Y54645D01*
X88195Y54695D01*
X88295D01*
X88345Y54645D01*
X81395Y70395D02*
Y70695D01*
X81245D01*
X81195Y70645D01*
Y70545D01*
X81245Y70495D01*
X81395D01*
X81095Y70645D02*
X81045Y70695D01*
X80945D01*
X80895Y70645D01*
Y70595D01*
X80945Y70545D01*
X80995D01*
X80945D01*
X80895Y70495D01*
Y70445D01*
X80945Y70395D01*
X81045D01*
X81095Y70445D01*
X80795Y70395D02*
Y70445D01*
X80745D01*
Y70395D01*
X80795D01*
X80545D02*
Y70595D01*
X80445Y70695D01*
X80345Y70595D01*
Y70395D01*
Y70545D01*
X80545D01*
X80245Y70395D02*
X80145D01*
X80195D01*
Y70695D01*
X80245Y70645D01*
X81495Y54395D02*
Y54695D01*
X81345D01*
X81295Y54645D01*
Y54545D01*
X81345Y54495D01*
X81495D01*
X81195Y54645D02*
X81145Y54695D01*
X81045D01*
X80995Y54645D01*
Y54595D01*
X81045Y54545D01*
X81095D01*
X81045D01*
X80995Y54495D01*
Y54445D01*
X81045Y54395D01*
X81145D01*
X81195Y54445D01*
X80895Y54395D02*
Y54445D01*
X80845D01*
Y54395D01*
X80895D01*
X80645D02*
Y54595D01*
X80545Y54695D01*
X80445Y54595D01*
Y54395D01*
Y54545D01*
X80645D01*
X80145Y54395D02*
X80345D01*
X80145Y54595D01*
Y54645D01*
X80195Y54695D01*
X80295D01*
X80345Y54645D01*
X73395Y70395D02*
Y70695D01*
X73245D01*
X73195Y70645D01*
Y70545D01*
X73245Y70495D01*
X73395D01*
X72945Y70395D02*
Y70695D01*
X73095Y70545D01*
X72895D01*
X72795Y70395D02*
Y70445D01*
X72745D01*
Y70395D01*
X72795D01*
X72545D02*
Y70595D01*
X72445Y70695D01*
X72345Y70595D01*
Y70395D01*
Y70545D01*
X72545D01*
X72245Y70395D02*
X72145D01*
X72195D01*
Y70695D01*
X72245Y70645D01*
X73495Y54395D02*
Y54695D01*
X73345D01*
X73295Y54645D01*
Y54545D01*
X73345Y54495D01*
X73495D01*
X73045Y54395D02*
Y54695D01*
X73195Y54545D01*
X72995D01*
X72895Y54395D02*
Y54445D01*
X72845D01*
Y54395D01*
X72895D01*
X72645D02*
Y54595D01*
X72545Y54695D01*
X72445Y54595D01*
Y54395D01*
Y54545D01*
X72645D01*
X72145Y54395D02*
X72345D01*
X72145Y54595D01*
Y54645D01*
X72195Y54695D01*
X72295D01*
X72345Y54645D01*
X97395Y62395D02*
Y62695D01*
X97245D01*
X97195Y62645D01*
Y62545D01*
X97245Y62495D01*
X97395D01*
X96895Y62695D02*
X97095D01*
Y62545D01*
X96995Y62595D01*
X96945D01*
X96895Y62545D01*
Y62445D01*
X96945Y62395D01*
X97045D01*
X97095Y62445D01*
X96795Y62395D02*
Y62445D01*
X96745D01*
Y62395D01*
X96795D01*
X96545D02*
Y62595D01*
X96445Y62695D01*
X96345Y62595D01*
Y62395D01*
Y62545D01*
X96545D01*
X96245Y62395D02*
X96145D01*
X96195D01*
Y62695D01*
X96245Y62645D01*
X97495Y46395D02*
Y46695D01*
X97345D01*
X97295Y46645D01*
Y46545D01*
X97345Y46495D01*
X97495D01*
X96995Y46695D02*
X97195D01*
Y46545D01*
X97095Y46595D01*
X97045D01*
X96995Y46545D01*
Y46445D01*
X97045Y46395D01*
X97145D01*
X97195Y46445D01*
X96895Y46395D02*
Y46445D01*
X96845D01*
Y46395D01*
X96895D01*
X96645D02*
Y46595D01*
X96545Y46695D01*
X96445Y46595D01*
Y46395D01*
Y46545D01*
X96645D01*
X96145Y46395D02*
X96345D01*
X96145Y46595D01*
Y46645D01*
X96195Y46695D01*
X96295D01*
X96345Y46645D01*
X89395Y62395D02*
Y62695D01*
X89245D01*
X89195Y62645D01*
Y62545D01*
X89245Y62495D01*
X89395D01*
X88895Y62695D02*
X88995Y62645D01*
X89095Y62545D01*
Y62445D01*
X89045Y62395D01*
X88945D01*
X88895Y62445D01*
Y62495D01*
X88945Y62545D01*
X89095D01*
X88795Y62395D02*
Y62445D01*
X88745D01*
Y62395D01*
X88795D01*
X88545D02*
Y62595D01*
X88445Y62695D01*
X88345Y62595D01*
Y62395D01*
Y62545D01*
X88545D01*
X88245Y62395D02*
X88145D01*
X88195D01*
Y62695D01*
X88245Y62645D01*
X89495Y46395D02*
Y46695D01*
X89345D01*
X89295Y46645D01*
Y46545D01*
X89345Y46495D01*
X89495D01*
X88995Y46695D02*
X89095Y46645D01*
X89195Y46545D01*
Y46445D01*
X89145Y46395D01*
X89045D01*
X88995Y46445D01*
Y46495D01*
X89045Y46545D01*
X89195D01*
X88895Y46395D02*
Y46445D01*
X88845D01*
Y46395D01*
X88895D01*
X88645D02*
Y46595D01*
X88545Y46695D01*
X88445Y46595D01*
Y46395D01*
Y46545D01*
X88645D01*
X88145Y46395D02*
X88345D01*
X88145Y46595D01*
Y46645D01*
X88195Y46695D01*
X88295D01*
X88345Y46645D01*
X81395Y62395D02*
Y62695D01*
X81245D01*
X81195Y62645D01*
Y62545D01*
X81245Y62495D01*
X81395D01*
X81095Y62695D02*
X80895D01*
Y62645D01*
X81095Y62445D01*
Y62395D01*
X80795D02*
Y62445D01*
X80745D01*
Y62395D01*
X80795D01*
X80545D02*
Y62595D01*
X80445Y62695D01*
X80345Y62595D01*
Y62395D01*
Y62545D01*
X80545D01*
X80245Y62395D02*
X80145D01*
X80195D01*
Y62695D01*
X80245Y62645D01*
X81495Y46395D02*
Y46695D01*
X81345D01*
X81295Y46645D01*
Y46545D01*
X81345Y46495D01*
X81495D01*
X81195Y46695D02*
X80995D01*
Y46645D01*
X81195Y46445D01*
Y46395D01*
X80895D02*
Y46445D01*
X80845D01*
Y46395D01*
X80895D01*
X80645D02*
Y46595D01*
X80545Y46695D01*
X80445Y46595D01*
Y46395D01*
Y46545D01*
X80645D01*
X80145Y46395D02*
X80345D01*
X80145Y46595D01*
Y46645D01*
X80195Y46695D01*
X80295D01*
X80345Y46645D01*
X73395Y62395D02*
Y62695D01*
X73245D01*
X73195Y62645D01*
Y62545D01*
X73245Y62495D01*
X73395D01*
X73095Y62645D02*
X73045Y62695D01*
X72945D01*
X72895Y62645D01*
Y62595D01*
X72945Y62545D01*
X72895Y62495D01*
Y62445D01*
X72945Y62395D01*
X73045D01*
X73095Y62445D01*
Y62495D01*
X73045Y62545D01*
X73095Y62595D01*
Y62645D01*
X73045Y62545D02*
X72945D01*
X72795Y62395D02*
Y62445D01*
X72745D01*
Y62395D01*
X72795D01*
X72545D02*
Y62595D01*
X72445Y62695D01*
X72345Y62595D01*
Y62395D01*
Y62545D01*
X72545D01*
X72245Y62395D02*
X72145D01*
X72195D01*
Y62695D01*
X72245Y62645D01*
X73495Y46395D02*
Y46695D01*
X73345D01*
X73295Y46645D01*
Y46545D01*
X73345Y46495D01*
X73495D01*
X73195Y46645D02*
X73145Y46695D01*
X73045D01*
X72995Y46645D01*
Y46595D01*
X73045Y46545D01*
X72995Y46495D01*
Y46445D01*
X73045Y46395D01*
X73145D01*
X73195Y46445D01*
Y46495D01*
X73145Y46545D01*
X73195Y46595D01*
Y46645D01*
X73145Y46545D02*
X73045D01*
X72895Y46395D02*
Y46445D01*
X72845D01*
Y46395D01*
X72895D01*
X72645D02*
Y46595D01*
X72545Y46695D01*
X72445Y46595D01*
Y46395D01*
Y46545D01*
X72645D01*
X72145Y46395D02*
X72345D01*
X72145Y46595D01*
Y46645D01*
X72195Y46695D01*
X72295D01*
X72345Y46645D01*
X63950Y68950D02*
X64000Y68900D01*
Y68800D01*
X63950Y68750D01*
X63750D01*
X63700Y68800D01*
Y68900D01*
X63750Y68950D01*
X64000Y69250D02*
X63950Y69150D01*
X63850Y69050D01*
X63750D01*
X63700Y69100D01*
Y69200D01*
X63750Y69250D01*
X63800D01*
X63850Y69200D01*
Y69050D01*
X63700Y69350D02*
X63750D01*
Y69400D01*
X63700D01*
Y69350D01*
Y69600D02*
X63900D01*
X64000Y69700D01*
X63900Y69800D01*
X63700D01*
X63850D01*
Y69600D01*
X63700Y69900D02*
Y70000D01*
Y69950D01*
X64000D01*
X63950Y69900D01*
X64700Y52650D02*
X64750Y52600D01*
Y52500D01*
X64700Y52450D01*
X64500D01*
X64450Y52500D01*
Y52600D01*
X64500Y52650D01*
X64750Y52950D02*
X64700Y52850D01*
X64600Y52750D01*
X64500D01*
X64450Y52800D01*
Y52900D01*
X64500Y52950D01*
X64550D01*
X64600Y52900D01*
Y52750D01*
X64450Y53050D02*
X64500D01*
Y53100D01*
X64450D01*
Y53050D01*
Y53300D02*
X64650D01*
X64750Y53400D01*
X64650Y53500D01*
X64450D01*
X64600D01*
Y53300D01*
X64450Y53800D02*
Y53600D01*
X64650Y53800D01*
X64700D01*
X64750Y53750D01*
Y53650D01*
X64700Y53600D01*
X61250Y69400D02*
X61200Y69450D01*
Y69550D01*
X61250Y69600D01*
X61450D01*
X61500Y69550D01*
Y69450D01*
X61450Y69400D01*
X61200Y69300D02*
Y69100D01*
X61250D01*
X61450Y69300D01*
X61500D01*
Y69000D02*
X61450D01*
Y68950D01*
X61500D01*
Y69000D01*
Y68750D02*
X61300D01*
X61200Y68650D01*
X61300Y68550D01*
X61500D01*
X61350D01*
Y68750D01*
X61500Y68450D02*
Y68350D01*
Y68400D01*
X61200D01*
X61250Y68450D01*
X61200Y53850D02*
X61150Y53900D01*
Y54000D01*
X61200Y54050D01*
X61400D01*
X61450Y54000D01*
Y53900D01*
X61400Y53850D01*
X61150Y53750D02*
Y53550D01*
X61200D01*
X61400Y53750D01*
X61450D01*
Y53450D02*
X61400D01*
Y53400D01*
X61450D01*
Y53450D01*
Y53200D02*
X61250D01*
X61150Y53100D01*
X61250Y53000D01*
X61450D01*
X61300D01*
Y53200D01*
X61450Y52700D02*
Y52900D01*
X61250Y52700D01*
X61200D01*
X61150Y52750D01*
Y52850D01*
X61200Y52900D01*
X59944Y61364D02*
X59894Y61314D01*
X59794D01*
X59744Y61364D01*
Y61564D01*
X59794Y61614D01*
X59894D01*
X59944Y61564D01*
X60044D02*
X60094Y61614D01*
X60194D01*
X60244Y61564D01*
Y61364D01*
X60194Y61314D01*
X60094D01*
X60044Y61364D01*
Y61414D01*
X60094Y61464D01*
X60244D01*
X60344Y61614D02*
Y61564D01*
X60394D01*
Y61614D01*
X60344D01*
X60594D02*
Y61414D01*
X60694Y61314D01*
X60794Y61414D01*
Y61614D01*
Y61464D01*
X60594D01*
X60894Y61614D02*
X60994D01*
X60944D01*
Y61314D01*
X60894Y61364D01*
X60701Y46747D02*
X60751Y46797D01*
X60851D01*
X60901Y46747D01*
Y46547D01*
X60851Y46497D01*
X60751D01*
X60701Y46547D01*
X60601D02*
X60551Y46497D01*
X60451D01*
X60401Y46547D01*
Y46747D01*
X60451Y46797D01*
X60551D01*
X60601Y46747D01*
Y46697D01*
X60551Y46647D01*
X60401D01*
X60301Y46497D02*
Y46547D01*
X60251D01*
Y46497D01*
X60301D01*
X60051D02*
Y46697D01*
X59951Y46797D01*
X59851Y46697D01*
Y46497D01*
Y46647D01*
X60051D01*
X59551Y46497D02*
X59751D01*
X59551Y46697D01*
Y46747D01*
X59601Y46797D01*
X59701D01*
X59751Y46747D01*
X62200Y62350D02*
X62150Y62300D01*
X62050D01*
X62000Y62350D01*
Y62550D01*
X62050Y62600D01*
X62150D01*
X62200Y62550D01*
X62300Y62600D02*
X62400D01*
X62350D01*
Y62300D01*
X62300Y62350D01*
X62550Y62600D02*
X62650D01*
X62600D01*
Y62300D01*
X62550Y62350D01*
X62800Y62600D02*
Y62550D01*
X62850D01*
Y62600D01*
X62800D01*
X63050D02*
Y62400D01*
X63150Y62300D01*
X63250Y62400D01*
Y62600D01*
Y62450D01*
X63050D01*
X63350Y62600D02*
X63450D01*
X63400D01*
Y62300D01*
X63350Y62350D01*
X62401Y46400D02*
X62351Y46350D01*
X62251D01*
X62201Y46400D01*
Y46600D01*
X62251Y46650D01*
X62351D01*
X62401Y46600D01*
X62501Y46650D02*
X62601D01*
X62551D01*
Y46350D01*
X62501Y46400D01*
X62751Y46650D02*
X62851D01*
X62801D01*
Y46350D01*
X62751Y46400D01*
X63001Y46650D02*
Y46600D01*
X63051D01*
Y46650D01*
X63001D01*
X63251D02*
Y46450D01*
X63351Y46350D01*
X63451Y46450D01*
Y46650D01*
Y46500D01*
X63251D01*
X63751Y46650D02*
X63551D01*
X63751Y46450D01*
Y46400D01*
X63701Y46350D01*
X63601D01*
X63551Y46400D01*
X60824Y63833D02*
X60874Y63883D01*
X60974D01*
X61024Y63833D01*
Y63633D01*
X60974Y63583D01*
X60874D01*
X60824Y63633D01*
X60724Y63583D02*
X60624D01*
X60674D01*
Y63883D01*
X60724Y63833D01*
X60274Y63583D02*
X60474D01*
X60274Y63783D01*
Y63833D01*
X60324Y63883D01*
X60424D01*
X60474Y63833D01*
X60174Y63583D02*
Y63633D01*
X60124D01*
Y63583D01*
X60174D01*
X59924D02*
Y63783D01*
X59824Y63883D01*
X59724Y63783D01*
Y63583D01*
Y63733D01*
X59924D01*
X59624Y63583D02*
X59524D01*
X59574D01*
Y63883D01*
X59624Y63833D01*
X61000Y47800D02*
X61050Y47850D01*
X61150D01*
X61200Y47800D01*
Y47600D01*
X61150Y47550D01*
X61050D01*
X61000Y47600D01*
X60900Y47550D02*
X60800D01*
X60850D01*
Y47850D01*
X60900Y47800D01*
X60450Y47550D02*
X60650D01*
X60450Y47750D01*
Y47800D01*
X60500Y47850D01*
X60600D01*
X60650Y47800D01*
X60350Y47550D02*
Y47600D01*
X60300D01*
Y47550D01*
X60350D01*
X60100D02*
Y47750D01*
X60000Y47850D01*
X59900Y47750D01*
Y47550D01*
Y47700D01*
X60100D01*
X59601Y47550D02*
X59800D01*
X59601Y47750D01*
Y47800D01*
X59651Y47850D01*
X59750D01*
X59800Y47800D01*
X61250Y56000D02*
X61200Y56050D01*
Y56150D01*
X61250Y56200D01*
X61450D01*
X61500Y56150D01*
Y56050D01*
X61450Y56000D01*
X61500Y55900D02*
Y55800D01*
Y55850D01*
X61200D01*
X61250Y55900D01*
X61200Y55450D02*
Y55650D01*
X61350D01*
X61300Y55550D01*
Y55500D01*
X61350Y55450D01*
X61450D01*
X61500Y55500D01*
Y55600D01*
X61450Y55650D01*
X61500Y55350D02*
X61450D01*
Y55300D01*
X61500D01*
Y55350D01*
Y55100D02*
X61300D01*
X61200Y55000D01*
X61300Y54900D01*
X61500D01*
X61350D01*
Y55100D01*
X61500Y54800D02*
Y54700D01*
Y54750D01*
X61200D01*
X61250Y54800D01*
X62500Y38850D02*
X62550Y38800D01*
Y38700D01*
X62500Y38650D01*
X62300D01*
X62250Y38700D01*
Y38800D01*
X62300Y38850D01*
X62250Y38950D02*
Y39050D01*
Y39000D01*
X62550D01*
X62500Y38950D01*
X62550Y39400D02*
Y39200D01*
X62400D01*
X62450Y39300D01*
Y39350D01*
X62400Y39400D01*
X62300D01*
X62250Y39350D01*
Y39250D01*
X62300Y39200D01*
X62250Y39500D02*
X62300D01*
Y39550D01*
X62250D01*
Y39500D01*
Y39750D02*
X62450D01*
X62550Y39850D01*
X62450Y39950D01*
X62250D01*
X62400D01*
Y39750D01*
X62250Y40249D02*
Y40050D01*
X62450Y40249D01*
X62500D01*
X62550Y40199D01*
Y40100D01*
X62500Y40050D01*
X64850Y63850D02*
X64900Y63900D01*
X65000D01*
X65050Y63850D01*
Y63650D01*
X65000Y63600D01*
X64900D01*
X64850Y63650D01*
X64750Y63600D02*
X64650D01*
X64700D01*
Y63900D01*
X64750Y63850D01*
X64500Y63900D02*
X64300D01*
Y63850D01*
X64500Y63650D01*
Y63600D01*
X64200D02*
Y63650D01*
X64150D01*
Y63600D01*
X64200D01*
X63950D02*
Y63800D01*
X63850Y63900D01*
X63750Y63800D01*
Y63600D01*
Y63750D01*
X63950D01*
X63650Y63600D02*
X63550D01*
X63600D01*
Y63900D01*
X63650Y63850D01*
X63750Y47250D02*
X63800Y47200D01*
Y47100D01*
X63750Y47050D01*
X63550D01*
X63500Y47100D01*
Y47200D01*
X63550Y47250D01*
X63500Y47350D02*
Y47450D01*
Y47400D01*
X63800D01*
X63750Y47350D01*
X63800Y47600D02*
Y47800D01*
X63750D01*
X63550Y47600D01*
X63500D01*
Y47900D02*
X63550D01*
Y47950D01*
X63500D01*
Y47900D01*
Y48150D02*
X63700D01*
X63800Y48250D01*
X63700Y48350D01*
X63500D01*
X63650D01*
Y48150D01*
X63500Y48649D02*
Y48450D01*
X63700Y48649D01*
X63750D01*
X63800Y48600D01*
Y48500D01*
X63750Y48450D01*
X63500Y56200D02*
X63450Y56250D01*
Y56350D01*
X63500Y56400D01*
X63700D01*
X63750Y56350D01*
Y56250D01*
X63700Y56200D01*
X63750Y56100D02*
Y56000D01*
Y56050D01*
X63450D01*
X63500Y56100D01*
X63700Y55850D02*
X63750Y55800D01*
Y55700D01*
X63700Y55650D01*
X63500D01*
X63450Y55700D01*
Y55800D01*
X63500Y55850D01*
X63550D01*
X63600Y55800D01*
Y55650D01*
X63750Y55550D02*
X63700D01*
Y55500D01*
X63750D01*
Y55550D01*
Y55300D02*
X63550D01*
X63450Y55200D01*
X63550Y55100D01*
X63750D01*
X63600D01*
Y55300D01*
X63750Y55000D02*
Y54900D01*
Y54950D01*
X63450D01*
X63500Y55000D01*
X63400Y40300D02*
X63350Y40350D01*
Y40450D01*
X63400Y40500D01*
X63600D01*
X63650Y40450D01*
Y40350D01*
X63600Y40300D01*
X63650Y40200D02*
Y40100D01*
Y40150D01*
X63350D01*
X63400Y40200D01*
X63600Y39950D02*
X63650Y39900D01*
Y39800D01*
X63600Y39750D01*
X63400D01*
X63350Y39800D01*
Y39900D01*
X63400Y39950D01*
X63450D01*
X63500Y39900D01*
Y39750D01*
X63650Y39650D02*
X63600D01*
Y39600D01*
X63650D01*
Y39650D01*
Y39400D02*
X63450D01*
X63350Y39300D01*
X63450Y39200D01*
X63650D01*
X63500D01*
Y39400D01*
X63650Y38901D02*
Y39100D01*
X63450Y38901D01*
X63400D01*
X63350Y38951D01*
Y39050D01*
X63400Y39100D01*
X63087Y65122D02*
X63137Y65172D01*
X63237D01*
X63287Y65122D01*
Y64922D01*
X63237Y64872D01*
X63137D01*
X63087Y64922D01*
X62787Y64872D02*
X62987D01*
X62787Y65072D01*
Y65122D01*
X62837Y65172D01*
X62937D01*
X62987Y65122D01*
X62687Y64872D02*
X62587D01*
X62637D01*
Y65172D01*
X62687Y65122D01*
X62437Y64872D02*
Y64922D01*
X62387D01*
Y64872D01*
X62437D01*
X62188D02*
Y65072D01*
X62088Y65172D01*
X61988Y65072D01*
Y64872D01*
Y65022D01*
X62188D01*
X61888Y64872D02*
X61788D01*
X61838D01*
Y65172D01*
X61888Y65122D01*
X63200Y49050D02*
X63250Y49100D01*
X63350D01*
X63400Y49050D01*
Y48850D01*
X63350Y48800D01*
X63250D01*
X63200Y48850D01*
X62900Y48800D02*
X63100D01*
X62900Y49000D01*
Y49050D01*
X62950Y49100D01*
X63050D01*
X63100Y49050D01*
X62800Y48800D02*
X62700D01*
X62750D01*
Y49100D01*
X62800Y49050D01*
X62550Y48800D02*
Y48850D01*
X62500D01*
Y48800D01*
X62550D01*
X62300D02*
Y49000D01*
X62200Y49100D01*
X62100Y49000D01*
Y48800D01*
Y48950D01*
X62300D01*
X61801Y48800D02*
X62000D01*
X61801Y49000D01*
Y49050D01*
X61851Y49100D01*
X61950D01*
X62000Y49050D01*
X46700Y45300D02*
X46650Y45350D01*
Y45450D01*
X46700Y45500D01*
X46900D01*
X46950Y45450D01*
Y45350D01*
X46900Y45300D01*
X46950Y45000D02*
Y45200D01*
X46750Y45000D01*
X46700D01*
X46650Y45050D01*
Y45150D01*
X46700Y45200D01*
Y44900D02*
X46650Y44850D01*
Y44750D01*
X46700Y44700D01*
X46750D01*
X46800Y44750D01*
Y44800D01*
Y44750D01*
X46850Y44700D01*
X46900D01*
X46950Y44750D01*
Y44850D01*
X46900Y44900D01*
X50750Y45500D02*
X50800Y45450D01*
Y45350D01*
X50750Y45300D01*
X50550D01*
X50500Y45350D01*
Y45450D01*
X50550Y45500D01*
X50500Y45800D02*
Y45600D01*
X50700Y45800D01*
X50750D01*
X50800Y45750D01*
Y45650D01*
X50750Y45600D01*
X50500Y46050D02*
X50800D01*
X50650Y45900D01*
Y46100D01*
X50800Y61000D02*
X50850Y60950D01*
Y60850D01*
X50800Y60800D01*
X50600D01*
X50550Y60850D01*
Y60950D01*
X50600Y61000D01*
X50550Y61300D02*
Y61100D01*
X50750Y61300D01*
X50800D01*
X50850Y61250D01*
Y61150D01*
X50800Y61100D01*
X50850Y61400D02*
Y61600D01*
X50800D01*
X50600Y61400D01*
X50550D01*
X46700Y61350D02*
X46650Y61400D01*
Y61500D01*
X46700Y61550D01*
X46900D01*
X46950Y61500D01*
Y61400D01*
X46900Y61350D01*
X46950Y61050D02*
Y61250D01*
X46750Y61050D01*
X46700D01*
X46650Y61100D01*
Y61200D01*
X46700Y61250D01*
Y60950D02*
X46650Y60900D01*
Y60800D01*
X46700Y60750D01*
X46750D01*
X46800Y60800D01*
X46850Y60750D01*
X46900D01*
X46950Y60800D01*
Y60900D01*
X46900Y60950D01*
X46850D01*
X46800Y60900D01*
X46750Y60950D01*
X46700D01*
X46800Y60900D02*
Y60800D01*
X46700Y37200D02*
X46650Y37250D01*
Y37350D01*
X46700Y37400D01*
X46900D01*
X46950Y37350D01*
Y37250D01*
X46900Y37200D01*
X46700Y37100D02*
X46650Y37050D01*
Y36950D01*
X46700Y36900D01*
X46750D01*
X46800Y36950D01*
Y37000D01*
Y36950D01*
X46850Y36900D01*
X46900D01*
X46950Y36950D01*
Y37050D01*
X46900Y37100D01*
X46950Y36800D02*
Y36700D01*
Y36750D01*
X46650D01*
X46700Y36800D01*
X50800Y36750D02*
X50850Y36700D01*
Y36600D01*
X50800Y36550D01*
X50600D01*
X50550Y36600D01*
Y36700D01*
X50600Y36750D01*
X50800Y36850D02*
X50850Y36900D01*
Y37000D01*
X50800Y37050D01*
X50750D01*
X50700Y37000D01*
Y36950D01*
Y37000D01*
X50650Y37050D01*
X50600D01*
X50550Y37000D01*
Y36900D01*
X50600Y36850D01*
X50550Y37350D02*
Y37150D01*
X50750Y37350D01*
X50800D01*
X50850Y37300D01*
Y37200D01*
X50800Y37150D01*
X50850Y53550D02*
X50900Y53500D01*
Y53400D01*
X50850Y53350D01*
X50650D01*
X50600Y53400D01*
Y53500D01*
X50650Y53550D01*
X50850Y53650D02*
X50900Y53700D01*
Y53800D01*
X50850Y53850D01*
X50800D01*
X50750Y53800D01*
Y53750D01*
Y53800D01*
X50700Y53850D01*
X50650D01*
X50600Y53800D01*
Y53700D01*
X50650Y53650D01*
X50900Y54150D02*
Y53950D01*
X50750D01*
X50800Y54050D01*
Y54100D01*
X50750Y54150D01*
X50650D01*
X50600Y54100D01*
Y54000D01*
X50650Y53950D01*
X46600Y53300D02*
X46550Y53350D01*
Y53450D01*
X46600Y53500D01*
X46800D01*
X46850Y53450D01*
Y53350D01*
X46800Y53300D01*
X46600Y53200D02*
X46550Y53150D01*
Y53050D01*
X46600Y53000D01*
X46650D01*
X46700Y53050D01*
Y53100D01*
Y53050D01*
X46750Y53000D01*
X46800D01*
X46850Y53050D01*
Y53150D01*
X46800Y53200D01*
X46550Y52700D02*
X46600Y52800D01*
X46700Y52900D01*
X46800D01*
X46850Y52850D01*
Y52750D01*
X46800Y52700D01*
X46750D01*
X46700Y52750D01*
Y52900D01*
X56850Y72100D02*
X56900Y72150D01*
X57000D01*
X57050Y72100D01*
Y71900D01*
X57000Y71850D01*
X56900D01*
X56850Y71900D01*
X56550Y71850D02*
X56750D01*
X56550Y72050D01*
Y72100D01*
X56600Y72150D01*
X56700D01*
X56750Y72100D01*
X55550Y35250D02*
X55600Y35300D01*
X55700D01*
X55750Y35250D01*
Y35050D01*
X55700Y35000D01*
X55600D01*
X55550Y35050D01*
X55450Y35250D02*
X55400Y35300D01*
X55300D01*
X55250Y35250D01*
Y35200D01*
X55300Y35150D01*
X55350D01*
X55300D01*
X55250Y35100D01*
Y35050D01*
X55300Y35000D01*
X55400D01*
X55450Y35050D01*
X53650Y71350D02*
X53600Y71400D01*
Y71500D01*
X53650Y71550D01*
X53850D01*
X53900Y71500D01*
Y71400D01*
X53850Y71350D01*
X53600Y71250D02*
Y71050D01*
X53650D01*
X53850Y71250D01*
X53900D01*
X53650Y70950D02*
X53600Y70900D01*
Y70800D01*
X53650Y70750D01*
X53700D01*
X53750Y70800D01*
Y70850D01*
Y70800D01*
X53800Y70750D01*
X53850D01*
X53900Y70800D01*
Y70900D01*
X53850Y70950D01*
X60038Y34335D02*
X59988Y34385D01*
Y34485D01*
X60038Y34535D01*
X60238D01*
X60288Y34485D01*
Y34385D01*
X60238Y34335D01*
X59988Y34235D02*
Y34035D01*
X60038D01*
X60238Y34235D01*
X60288D01*
Y33785D02*
X59988D01*
X60138Y33935D01*
Y33735D01*
X50900Y35150D02*
X50950Y35200D01*
X51050D01*
X51100Y35150D01*
Y34950D01*
X51050Y34900D01*
X50950D01*
X50900Y34950D01*
X50800Y35150D02*
X50750Y35200D01*
X50650D01*
X50600Y35150D01*
Y35100D01*
X50650Y35050D01*
X50600Y35000D01*
Y34950D01*
X50650Y34900D01*
X50750D01*
X50800Y34950D01*
Y35000D01*
X50750Y35050D01*
X50800Y35100D01*
Y35150D01*
X50750Y35050D02*
X50650D01*
X50500Y35150D02*
X50450Y35200D01*
X50350D01*
X50300Y35150D01*
Y34950D01*
X50350Y34900D01*
X50450D01*
X50500Y34950D01*
Y35150D01*
X52509Y52952D02*
X52459Y53002D01*
Y53102D01*
X52509Y53152D01*
X52709D01*
X52758Y53102D01*
Y53002D01*
X52709Y52952D01*
X52509Y52852D02*
X52459Y52802D01*
Y52702D01*
X52509Y52652D01*
X52559D01*
X52609Y52702D01*
Y52752D01*
Y52702D01*
X52659Y52652D01*
X52709D01*
X52758Y52702D01*
Y52802D01*
X52709Y52852D01*
X52459Y52552D02*
Y52352D01*
X52509D01*
X52709Y52552D01*
X52758D01*
X57250Y52950D02*
X57200Y53000D01*
Y53100D01*
X57250Y53150D01*
X57450D01*
X57500Y53100D01*
Y53000D01*
X57450Y52950D01*
X57250Y52850D02*
X57200Y52800D01*
Y52700D01*
X57250Y52650D01*
X57300D01*
X57350Y52700D01*
Y52750D01*
Y52700D01*
X57400Y52650D01*
X57450D01*
X57500Y52700D01*
Y52800D01*
X57450Y52850D01*
X57250Y52550D02*
X57200Y52500D01*
Y52400D01*
X57250Y52350D01*
X57300D01*
X57350Y52400D01*
X57400Y52350D01*
X57450D01*
X57500Y52400D01*
Y52500D01*
X57450Y52550D01*
X57400D01*
X57350Y52500D01*
X57300Y52550D01*
X57250D01*
X57350Y52500D02*
Y52400D01*
X59429Y48495D02*
X59479Y48545D01*
X59579D01*
X59629Y48495D01*
Y48295D01*
X59579Y48245D01*
X59479D01*
X59429Y48295D01*
X59329Y48495D02*
X59279Y48545D01*
X59179D01*
X59129Y48495D01*
Y48445D01*
X59179Y48395D01*
X59229D01*
X59179D01*
X59129Y48345D01*
Y48295D01*
X59179Y48245D01*
X59279D01*
X59329Y48295D01*
X59029D02*
X58979Y48245D01*
X58879D01*
X58829Y48295D01*
Y48495D01*
X58879Y48545D01*
X58979D01*
X59029Y48495D01*
Y48445D01*
X58979Y48395D01*
X58829D01*
X52962Y48770D02*
X52912Y48820D01*
Y48920D01*
X52962Y48970D01*
X53162D01*
X53212Y48920D01*
Y48820D01*
X53162Y48770D01*
X53212Y48520D02*
X52912D01*
X53062Y48670D01*
Y48470D01*
X52962Y48370D02*
X52912Y48320D01*
Y48220D01*
X52962Y48170D01*
X53162D01*
X53212Y48220D01*
Y48320D01*
X53162Y48370D01*
X52962D01*
X59350Y52450D02*
X59400Y52400D01*
Y52300D01*
X59350Y52250D01*
X59150D01*
X59100Y52300D01*
Y52400D01*
X59150Y52450D01*
X59100Y52700D02*
X59400D01*
X59250Y52550D01*
Y52750D01*
X59100Y52850D02*
Y52950D01*
Y52900D01*
X59400D01*
X59350Y52850D01*
X54918Y49463D02*
X54968Y49513D01*
X55068D01*
X55118Y49463D01*
Y49263D01*
X55068Y49213D01*
X54968D01*
X54918Y49263D01*
X54668Y49213D02*
Y49513D01*
X54818Y49363D01*
X54618D01*
X54518Y49463D02*
X54468Y49513D01*
X54368D01*
X54318Y49463D01*
Y49413D01*
X54368Y49363D01*
X54418D01*
X54368D01*
X54318Y49313D01*
Y49263D01*
X54368Y49213D01*
X54468D01*
X54518Y49263D01*
X54421Y50934D02*
X54471Y50984D01*
X54571D01*
X54621Y50934D01*
Y50734D01*
X54571Y50684D01*
X54471D01*
X54421Y50734D01*
X54171Y50684D02*
Y50984D01*
X54321Y50834D01*
X54121D01*
X53871Y50684D02*
Y50984D01*
X54021Y50834D01*
X53821D01*
X57600Y50600D02*
X57550Y50550D01*
X57450D01*
X57400Y50600D01*
Y50800D01*
X57450Y50850D01*
X57550D01*
X57600Y50800D01*
X57850Y50850D02*
Y50550D01*
X57700Y50700D01*
X57900D01*
X58200Y50550D02*
X58000D01*
Y50700D01*
X58100Y50650D01*
X58150D01*
X58200Y50700D01*
Y50800D01*
X58150Y50850D01*
X58050D01*
X58000Y50800D01*
X55350Y48300D02*
X55300Y48350D01*
Y48450D01*
X55350Y48500D01*
X55550D01*
X55600Y48450D01*
Y48350D01*
X55550Y48300D01*
X55600Y48050D02*
X55300D01*
X55450Y48200D01*
Y48000D01*
X55350Y47900D02*
X55300Y47850D01*
Y47750D01*
X55350Y47700D01*
X55400D01*
X55450Y47750D01*
X55500Y47700D01*
X55550D01*
X55600Y47750D01*
Y47850D01*
X55550Y47900D01*
X55500D01*
X55450Y47850D01*
X55400Y47900D01*
X55350D01*
X55450Y47850D02*
Y47750D01*
X52600Y51500D02*
X52650Y51550D01*
X52750D01*
X52800Y51500D01*
Y51300D01*
X52750Y51250D01*
X52650D01*
X52600Y51300D01*
X52300Y51550D02*
X52500D01*
Y51400D01*
X52400Y51450D01*
X52350D01*
X52300Y51400D01*
Y51300D01*
X52350Y51250D01*
X52450D01*
X52500Y51300D01*
X52200Y51250D02*
X52100D01*
X52150D01*
Y51550D01*
X52200Y51500D01*
X52050Y50050D02*
X52000Y50100D01*
Y50200D01*
X52050Y50250D01*
X52250D01*
X52300Y50200D01*
Y50100D01*
X52250Y50050D01*
X52000Y49750D02*
Y49950D01*
X52150D01*
X52100Y49850D01*
Y49800D01*
X52150Y49750D01*
X52250D01*
X52300Y49800D01*
Y49900D01*
X52250Y49950D01*
X52300Y49450D02*
Y49650D01*
X52100Y49450D01*
X52050D01*
X52000Y49500D01*
Y49600D01*
X52050Y49650D01*
X54950Y46600D02*
X54900Y46550D01*
X54800D01*
X54750Y46600D01*
Y46800D01*
X54800Y46850D01*
X54900D01*
X54950Y46800D01*
X55250Y46550D02*
X55050D01*
Y46700D01*
X55150Y46650D01*
X55200D01*
X55250Y46700D01*
Y46800D01*
X55200Y46850D01*
X55100D01*
X55050Y46800D01*
X55350Y46600D02*
X55400Y46550D01*
X55500D01*
X55550Y46600D01*
Y46650D01*
X55500Y46700D01*
X55450D01*
X55500D01*
X55550Y46750D01*
Y46800D01*
X55500Y46850D01*
X55400D01*
X55350Y46800D01*
X57005Y47083D02*
X56955Y47033D01*
X56855D01*
X56805Y47083D01*
Y47282D01*
X56855Y47332D01*
X56955D01*
X57005Y47282D01*
X57305Y47033D02*
X57105D01*
Y47182D01*
X57205Y47133D01*
X57255D01*
X57305Y47182D01*
Y47282D01*
X57255Y47332D01*
X57155D01*
X57105Y47282D01*
X57605Y47033D02*
X57405D01*
Y47182D01*
X57505Y47133D01*
X57555D01*
X57605Y47182D01*
Y47282D01*
X57555Y47332D01*
X57455D01*
X57405Y47282D01*
X56550Y49000D02*
X56600Y49050D01*
X56700D01*
X56750Y49000D01*
Y48800D01*
X56700Y48750D01*
X56600D01*
X56550Y48800D01*
X56250Y49050D02*
X56450D01*
Y48900D01*
X56350Y48950D01*
X56300D01*
X56250Y48900D01*
Y48800D01*
X56300Y48750D01*
X56400D01*
X56450Y48800D01*
X55950Y49050D02*
X56050Y49000D01*
X56150Y48900D01*
Y48800D01*
X56100Y48750D01*
X56000D01*
X55950Y48800D01*
Y48850D01*
X56000Y48900D01*
X56150D01*
X59100Y50450D02*
X59150Y50500D01*
X59250D01*
X59300Y50450D01*
Y50250D01*
X59250Y50200D01*
X59150D01*
X59100Y50250D01*
X58800Y50500D02*
X59000D01*
Y50350D01*
X58900Y50400D01*
X58850D01*
X58800Y50350D01*
Y50250D01*
X58850Y50200D01*
X58950D01*
X59000Y50250D01*
X58700Y50500D02*
X58500D01*
Y50450D01*
X58700Y50250D01*
Y50200D01*
X56155Y51381D02*
X56205Y51331D01*
Y51231D01*
X56155Y51181D01*
X55956D01*
X55906Y51231D01*
Y51331D01*
X55956Y51381D01*
X56205Y51681D02*
Y51481D01*
X56055D01*
X56105Y51581D01*
Y51631D01*
X56055Y51681D01*
X55956D01*
X55906Y51631D01*
Y51531D01*
X55956Y51481D01*
X56155Y51781D02*
X56205Y51831D01*
Y51931D01*
X56155Y51981D01*
X56105D01*
X56055Y51931D01*
X56005Y51981D01*
X55956D01*
X55906Y51931D01*
Y51831D01*
X55956Y51781D01*
X56005D01*
X56055Y51831D01*
X56105Y51781D01*
X56155D01*
X56055Y51831D02*
Y51931D01*
X55050Y52950D02*
X55000Y53000D01*
Y53100D01*
X55050Y53150D01*
X55250D01*
X55300Y53100D01*
Y53000D01*
X55250Y52950D01*
X55000Y52650D02*
Y52850D01*
X55150D01*
X55100Y52750D01*
Y52700D01*
X55150Y52650D01*
X55250D01*
X55300Y52700D01*
Y52800D01*
X55250Y52850D01*
Y52550D02*
X55300Y52500D01*
Y52400D01*
X55250Y52350D01*
X55050D01*
X55000Y52400D01*
Y52500D01*
X55050Y52550D01*
X55100D01*
X55150Y52500D01*
Y52350D01*
X57850Y49800D02*
X57900Y49850D01*
X58000D01*
X58050Y49800D01*
Y49600D01*
X58000Y49550D01*
X57900D01*
X57850Y49600D01*
X57550Y49850D02*
X57650Y49800D01*
X57750Y49700D01*
Y49600D01*
X57700Y49550D01*
X57600D01*
X57550Y49600D01*
Y49650D01*
X57600Y49700D01*
X57750D01*
X57450Y49550D02*
X57350D01*
X57400D01*
Y49850D01*
X57450Y49800D01*
X57750Y51650D02*
X57800Y51700D01*
X57900D01*
X57950Y51650D01*
Y51450D01*
X57900Y51400D01*
X57800D01*
X57750Y51450D01*
X57450Y51700D02*
X57550Y51650D01*
X57650Y51550D01*
Y51450D01*
X57600Y51400D01*
X57500D01*
X57450Y51450D01*
Y51500D01*
X57500Y51550D01*
X57650D01*
X57150Y51400D02*
X57350D01*
X57150Y51600D01*
Y51650D01*
X57200Y51700D01*
X57300D01*
X57350Y51650D01*
M02*
