M48
;Layer_Color=15461320
;FILE_FORMAT=2:4
INCH,LZ
;TYPE=PLATED
T1F00S00C0.0100
T2F00S00C0.0200
T3F00S00C0.0250
T4F00S00C0.0354
T5F00S00C0.0394
T6F00S00C0.0520
T7F00S00C0.0531
T8F00S00C0.1400
%
T01
X048327Y035531
X047861Y036236
Y036827
Y037417
Y038008
Y038992
Y039583
Y040173
Y040764
X048819Y041339
X049902
X049622Y040764
Y040173
Y039583
Y038992
X049606Y038337
X049622Y038008
X049459Y037697
X049622Y037417
Y036827
Y036236
X049508Y035531
X050837Y037795
X051181Y037549
X051575Y037598
X052608Y037992
X0531Y034105
X05315Y031594
X055118Y04001
X055646Y0398
X057677Y039764
X056Y041638
X057677Y043701
X0593Y0438
X0604Y04375
X06185Y04385
X06103Y044679
X060925Y045079
X061024Y045472
Y045965
X06075Y046435
X0608Y0468
X060138Y046555
X062201Y046595
X0619Y045703
X062106Y045472
X05876
X055906Y046063
X055709Y046654
X056693Y04685
X051132Y046161
X050837Y045965
X051132Y045472
X051624Y045522
X051575Y04503
X052116Y044931
X049639Y044827
Y044236
X049508Y043406
X048425
X047861Y044236
Y044827
Y045417
Y046008
X049639
Y045417
X06185Y04175
X062106Y041437
X062497Y039657
Y038918
X061244Y038798
X061365Y039903
X060932Y037606
X062057Y0344
X0625Y040256
Y040846
X062989Y041723
X063189Y041929
X063481Y041871
X063875Y040985
X06476Y040788
X06481Y040395
X064647Y040134
X064711Y039853
X06481Y039361
X064957Y039066
X06353Y039607
X064859Y041822
X06378Y042913
X062899Y04282
X06289Y043839
X063235Y043741
X063333Y044036
X064564Y044381
X063891Y048006
X063629Y049203
X063333Y049252
X063038Y049203
X063136Y04881
X062995Y0502
X062989Y051172
X063335Y05117
X063776Y051172
X063878Y050098
X0625Y051181
Y053543
X062557Y053896
X06465Y0539
X0651Y05365
X06465Y05315
Y0528
X0648Y05245
Y0521
X064957Y055066
X06481Y055361
X064711Y055853
X064647Y056134
X06481Y056395
X06476Y056788
X063875Y056985
X063481Y057871
X063186Y057969
X062989Y057723
X062804Y05885
X06378Y058858
X063235Y059741
X063333Y060036
X06289Y059839
X064564Y060381
X064859Y057822
X06353Y055607
X0626Y0565
X063042Y047343
X061955Y047432
X061932Y04775
X061909Y048678
X062152Y048859
X06122Y048327
X060335Y047638
X059744Y04813
X059252Y048228
X059154Y047933
X058268Y048032
X057874
X057089Y048034
X05748Y048425
X057087Y048819
X056693Y049213
X056299
X055906
Y048819
X055512
X055118Y049213
Y049606
Y05
X054724
X054331
Y049606
X05395Y0496
X053937Y05
Y050787
X054331
Y051181
X054724
Y050787
X055118
Y051181
Y051575
X054724
X054331
X053546Y051577
X053152
Y051971
X053543Y052362
Y052756
X05394Y052758
Y052365
X054333
Y052758
X054727
Y052365
X055121
X055118Y051968
X055512Y051968
X055906
Y051575
X056299
X056693
Y051181
Y050787
X056299
Y051181
X055906
Y050787
Y05
Y049606
X056299
X056693
Y05
X056299
X057087
X057087Y049606
X057089Y050396
X05748Y051575
X057874Y051968
X058268
X058271Y051184
X058763Y051282
X058268Y05
X05876Y049409
X059154Y049213
X057877Y048821
X058268Y047638
X058661Y047244
X057483Y047246
X056496Y047146
X055512Y047638
X055118Y048032
X054724
Y048425
X054331
Y048032
X053937Y048032
Y048425
Y048819
X054331Y049213
X054724
Y049606
X05315
Y049213
Y048819
X05315Y04805
X052756Y048032
Y047638
X0528Y0472
X052362Y047244
X052756Y048425
X053543
X05315Y05
Y050787
X053152Y051184
X053546
X053937Y051968
X054528Y053642
X052953Y05374
X052758Y053152
X052365Y053546
X052559Y054331
X05187Y054823
X051577Y055121
X051282Y055318
X05079Y055219
X049639Y054992
X049412Y055318
X049639Y055583
Y056173
Y056764
X050051Y057531
X048949Y057449
X047835Y056764
Y056173
Y055583
Y054992
Y054008
Y053417
Y052827
Y052236
X048327Y051378
X049409
X049639Y052236
Y052827
Y053417
Y054008
X05Y049409
X049639Y048764
Y048173
Y047583
Y046992
X047861
Y047583
Y048173
Y048764
X048917Y049409
X052335Y049409
X052165Y051378
X056299Y051968
Y052362
X056693
X057087
Y052756
X056693
X056299
X055906Y05315
X056496Y053642
X055613Y054333
X056496Y055709
X056494Y056104
X056594Y056398
X056693Y056791
X056496Y057087
X056376Y057896
X056594Y058149
X056455Y058407
X056496Y058858
X056065Y059486
X058465Y059252
X05876Y058957
X058071Y058661
X057972Y057972
X059136Y058152
X059154Y057579
X059096Y057128
X059154Y056693
X057972Y056594
X058268Y053543
X058661
X058268Y05315
X059156Y053251
X05748Y052756
Y052362
X057087Y051968
X061365Y052008
X061319Y052559
X062471Y05277
X062478Y053128
X062497Y054918
Y055657
X061365Y055903
X06135Y0565
X0616Y05715
X061244Y054798
X06107Y053681
X062251Y051024
X0606Y050265
X054528Y047146
X054232Y061122
X0544Y062176
X049665Y062008
Y061417
Y060827
Y060236
X049311Y059547
X048327
X047835Y060236
Y060827
Y061417
Y062008
X0592Y061217
X05876Y060532
X060081Y062394
X060824Y062398
X0619Y061703
X06195Y0611
X04335Y07045
X04265
X04185Y0704
X0351Y07405
X047794Y071644
X04814Y071467
X04825Y06975
X0477Y06995
X047602Y06913
X047638Y068504
X04814Y067235
X048455Y066762
X04877Y066782
X051098Y06724
X052756Y06752
X052657Y068799
X052268Y0685
X0546Y068333
X053967Y070049
X054708Y070883
X054721Y071552
X0556Y072037
X052756Y071161
X051476Y071555
X050984Y06998
X05003Y070246
X049085Y070305
X049665Y064764
Y064173
Y063583
X049508Y063169
X049612Y062795
X050691Y063094
X051085
X050987Y063487
X051479Y063389
Y063783
X051971Y063684
X052264Y062598
X0536Y06264
X053543Y06437
X053251Y06545
X052149Y065436
X053543Y066535
X054823Y065846
X055118Y065157
X056004Y065748
X057459Y06425
X056057Y06275
X0592Y062841
X060774Y062743
X062201Y062595
X061955Y063432
X061932Y06375
X061909Y064272
X062152Y064859
X062251Y067024
X061365Y068008
X06107Y069681
X06125Y07
X061296Y070396
X06249Y07014
X062402Y069628
X062471Y069116
X0606Y06621
X060131Y063723
X05675Y069432
X047835Y064764
X047835Y064173
Y063583
Y062992
X062992Y063386
X063891Y064006
X063629Y065203
X063333Y065252
X063038Y065203
X063136Y06481
X063032Y0662
X063878Y066043
X063776Y067172
X063335Y06717
X062989Y067172
X062608Y0677
X064711Y06727
X06481Y068402
Y068845
X064711Y069485
X06481Y069977
X064784Y070396
X063579Y070026
Y069583
T02
X047539Y033366
X05105Y0333
X049954Y0346
X051673Y035138
X052461Y035236
X053051Y036516
X054823Y035335
X054429Y034154
X055958Y0346
X057526
X057283Y035433
X058661Y035236
X0591Y033813
X060335Y033957
X060603Y0358
X061516Y034941
X057185Y039075
X054823Y038878
X0307Y07015
Y074076
X0317Y0741
X0327Y074076
X0337
X0357
X0367
X0377
X040238Y074039
X041025
X041813
X0426
X043387
X044175
X044962
Y070361
X0377Y07015
X0367
X0357
X0347
X0337
X0327Y070174
X0317Y07015
X0556Y070778
X056299Y070768
X057087
X058231Y069754
X05981Y070933
Y073
X05731Y0733
X054694Y072471
X059126Y067061
X063192Y07087
X064227Y072
X065161Y071854
X067425
X067031Y073724
X069295
X06319Y073131
T03
X055Y069
X0575
T04
X02675Y042
Y043
X02775
Y042
X02875
Y043
X02975
Y042
X03075
Y043
X03175
Y042
X03275
Y043
X03375
Y042
X038
Y043
X039
Y042
X04
Y043
X041
Y042
X042
Y043
X043
Y042
X044
Y043
X045
Y042
Y05
X044
X043
X042
X041
X04
X039
X038
Y051
X039
X04
X041
X042
X043
X044
X045
Y058
X044
X043
X042
X041
X04
X039
X038
Y059
X039
X04
X041
X042
X043
X044
X045
X03375
X03275
X03175
Y058
X03275
X03375
Y051
X03275
X03175
Y05
X03275
X03375
X03075
X02975
X02875
X02775
X02675
Y051
X02775
X02875
X02975
X03075
Y058
X02975
X02875
X02775
X02675
Y059
X02775
X02875
X02975
X03075
Y066
X02975
X02875
X02775
X02675
Y067
X02775
X02875
X02975
X03075
X03175
Y066
X03275
Y067
X03375
Y066
X038
Y067
X039
Y066
X04
Y067
X041
Y066
X042
Y067
X043
Y066
X044
Y067
X045
Y066
T05
X040631Y0722
X044569
T06
X0675Y04
Y045
X0725
X0755
Y04
X0725
X07Y0425
X078
X0805Y045
X0835
X0885
X0915
Y04
X0885
X0835
X0805
X086Y0425
X094
X0965Y045
Y04
Y048
X094Y0505
X0965Y053
Y056
Y061
X094Y0585
X0915Y061
X0885
X0835
X0805
Y056
X0835
Y053
X0805
Y048
X0835
X0885
X0915
Y053
Y056
X0885
Y053
X086Y0505
Y0585
X078
X0755Y061
X0725
X0675
Y056
Y053
X0725
X0755
Y056
X0725
X07Y0585
Y0505
X0725Y048
X0755
X078Y0505
X0675Y048
Y064
Y069
X0725
X0755
Y064
X0725
X07Y0665
X078
X0805Y069
X0835
X0885
X0915
Y064
X0885
X0835
X0805
X086Y0665
X094
X0965Y069
Y064
T07
X056356Y061782
X05675Y066833
T08
X028Y0345
X075
X1
X028Y0725
X075
X1
M30
