%FSLAX24Y24*%
%MOIN*%
G70*
G01*
G75*
G04 Layer_Color=128*
G04 Layer_Color=128*
%ADD10C,0.0177*%
%ADD11R,0.0394X0.0433*%
%ADD12R,0.0472X0.0787*%
%ADD13C,0.0400*%
%ADD14R,0.0394X0.1083*%
%ADD15R,0.0500X0.1449*%
%ADD16R,0.1024X0.0945*%
%ADD17R,0.1000X0.1400*%
%ADD18R,0.0300X0.0600*%
%ADD19R,0.0472X0.0472*%
%ADD20R,0.0098X0.0256*%
%ADD21R,0.0492X0.0165*%
%ADD22R,0.0650X0.0118*%
%ADD23R,0.0945X0.1024*%
%ADD24R,0.0787X0.0551*%
%ADD25R,0.0787X0.0472*%
%ADD26R,0.0669X0.0177*%
%ADD27R,0.0669X0.0177*%
%ADD28R,0.0197X0.0748*%
%ADD29R,0.0748X0.0197*%
%ADD30R,0.0945X0.0354*%
%ADD31R,0.0433X0.0394*%
%ADD32R,0.0709X0.0630*%
%ADD33R,0.0630X0.0709*%
%ADD34R,0.0512X0.0630*%
%ADD35R,0.1240X0.1360*%
%ADD36C,0.0060*%
%ADD37C,0.0080*%
%ADD38C,0.0100*%
%ADD39C,0.0120*%
%ADD40C,0.0200*%
%ADD41C,0.0160*%
%ADD42C,0.0110*%
%ADD43C,0.0150*%
%ADD44C,0.0433*%
%ADD45C,0.1600*%
%ADD46C,0.0700*%
%ADD47R,0.0591X0.0591*%
%ADD48C,0.0591*%
%ADD49C,0.0669*%
%ADD50C,0.0200*%
%ADD51R,0.0354X0.0276*%
%ADD52R,0.0276X0.0354*%
%ADD53C,0.0079*%
%ADD54C,0.0098*%
%ADD55C,0.0070*%
%ADD56C,0.0040*%
%ADD57C,0.0600*%
%ADD58C,0.0025*%
D11*
X56000Y57965D02*
D03*
Y58635D02*
D03*
X52750Y49565D02*
D03*
Y50235D02*
D03*
X58750Y52365D02*
D03*
Y53035D02*
D03*
X53600Y48865D02*
D03*
Y49535D02*
D03*
X47400Y37417D02*
D03*
Y36748D02*
D03*
X50100Y37417D02*
D03*
Y36748D02*
D03*
X47400Y45417D02*
D03*
Y44748D02*
D03*
X50100Y45365D02*
D03*
Y46035D02*
D03*
X50200Y53483D02*
D03*
Y54152D02*
D03*
X47300Y53417D02*
D03*
Y52748D02*
D03*
X47400Y61435D02*
D03*
Y60765D02*
D03*
X50200Y61535D02*
D03*
Y60865D02*
D03*
X63200Y70035D02*
D03*
Y69365D02*
D03*
X61900Y69700D02*
D03*
Y69031D02*
D03*
X64093Y56134D02*
D03*
Y55465D02*
D03*
X61900Y55148D02*
D03*
Y55817D02*
D03*
X64100Y53435D02*
D03*
Y52765D02*
D03*
X61900Y53031D02*
D03*
Y53700D02*
D03*
Y39148D02*
D03*
Y39817D02*
D03*
X64093Y40134D02*
D03*
Y39465D02*
D03*
D31*
X60848Y34400D02*
D03*
X61517D02*
D03*
X54748Y34600D02*
D03*
X55417D02*
D03*
X56935Y71500D02*
D03*
X56265D02*
D03*
X54983Y47200D02*
D03*
X55652D02*
D03*
X56683Y47650D02*
D03*
X57352D02*
D03*
X57215Y51000D02*
D03*
X57885D02*
D03*
X57165Y49200D02*
D03*
X57835D02*
D03*
X52065Y50900D02*
D03*
X52735D02*
D03*
X62198Y47000D02*
D03*
X62867Y63000D02*
D03*
X62198D02*
D03*
X60081Y62000D02*
D03*
X60750D02*
D03*
X60131Y63200D02*
D03*
X60800D02*
D03*
X63035Y63700D02*
D03*
X62365D02*
D03*
X59865Y46100D02*
D03*
X60535D02*
D03*
X62867Y47000D02*
D03*
X60131Y47200D02*
D03*
X60800D02*
D03*
X63085Y47730D02*
D03*
X62415D02*
D03*
X63035Y48400D02*
D03*
X62365D02*
D03*
Y64400D02*
D03*
X63035D02*
D03*
D51*
X50662Y34600D02*
D03*
X51173D02*
D03*
X56094Y50400D02*
D03*
X56606D02*
D03*
X58056Y50350D02*
D03*
X57544D02*
D03*
X57006Y48450D02*
D03*
X56494D02*
D03*
X54523Y50400D02*
D03*
X54012D02*
D03*
X54427Y48850D02*
D03*
X54938D02*
D03*
X58373Y48400D02*
D03*
X57862D02*
D03*
D52*
X54300Y70962D02*
D03*
Y71473D02*
D03*
X55600Y52973D02*
D03*
Y52462D02*
D03*
X55900Y47844D02*
D03*
Y48356D02*
D03*
X55550Y50894D02*
D03*
Y51406D02*
D03*
X57900Y52973D02*
D03*
Y52462D02*
D03*
X53200Y53073D02*
D03*
Y52562D02*
D03*
X58700Y56727D02*
D03*
Y57238D02*
D03*
M02*
