%FSLAX24Y24*%
%MOIN*%
G70*
G01*
G75*
%ADD10C,0.0080*%
%ADD11R,0.0157X0.0846*%
%ADD12R,0.0157X0.0846*%
%ADD13R,0.0945X0.1024*%
%ADD14R,0.0650X0.0085*%
%ADD15R,0.0846X0.0157*%
%ADD16R,0.0394X0.0433*%
%ADD17R,0.0118X0.0610*%
%ADD18R,0.0846X0.0157*%
%ADD19R,0.0610X0.0118*%
%ADD20R,0.0600X0.0150*%
%ADD21O,0.0600X0.0150*%
%ADD22R,0.0236X0.0866*%
%ADD23R,0.0433X0.0394*%
%ADD24R,0.0866X0.0787*%
%ADD25R,0.0787X0.0866*%
%ADD26R,0.0157X0.0630*%
%ADD27R,0.0630X0.0157*%
%ADD28R,0.0709X0.0630*%
%ADD29R,0.0709X0.0709*%
%ADD30R,0.0512X0.0591*%
%ADD31R,0.0591X0.0512*%
%ADD32R,0.0807X0.0236*%
%ADD33R,0.1024X0.0945*%
%ADD34R,0.1000X0.1400*%
%ADD35R,0.0300X0.0600*%
%ADD36R,0.1417X0.0315*%
%ADD37R,0.1240X0.1360*%
%ADD38R,0.0173X0.0787*%
%ADD39R,0.0173X0.0787*%
%ADD40R,0.0984X0.2362*%
%ADD41O,0.0394X0.0170*%
%ADD42R,0.0394X0.0170*%
%ADD43R,0.0394X0.0236*%
%ADD44R,0.0177X0.0807*%
%ADD45R,0.0177X0.0807*%
%ADD46C,0.0100*%
%ADD47C,0.0160*%
%ADD48C,0.0070*%
%ADD49C,0.0110*%
%ADD50C,0.0200*%
%ADD51C,0.0120*%
%ADD52C,0.0300*%
%ADD53C,0.0400*%
%ADD54C,0.0500*%
%ADD55C,0.1260*%
%ADD56C,0.1000*%
%ADD57C,0.1800*%
%ADD58C,0.0600*%
%ADD59R,0.0591X0.0591*%
%ADD60C,0.0591*%
%ADD61C,0.1300*%
%ADD62C,0.0550*%
%ADD63C,0.1024*%
%ADD64C,0.0551*%
%ADD65C,0.0250*%
%ADD66C,0.0079*%
%ADD67C,0.0098*%
%ADD68C,0.0060*%
%ADD69C,0.0098*%
%ADD70C,0.0039*%
%ADD71R,0.0079X0.0197*%
%ADD72R,0.0079X0.0197*%
%ADD73C,0.0020*%
%ADD74R,0.0197X0.0079*%
%ADD75R,0.0197X0.0079*%
%ADD76R,0.0237X0.0926*%
%ADD77R,0.0237X0.0926*%
%ADD78R,0.1025X0.1104*%
%ADD79R,0.0730X0.0165*%
%ADD80R,0.0926X0.0237*%
%ADD81R,0.0474X0.0513*%
%ADD82R,0.0198X0.0690*%
%ADD83R,0.0926X0.0237*%
%ADD84R,0.0690X0.0198*%
%ADD85R,0.0680X0.0230*%
%ADD86O,0.0680X0.0230*%
%ADD87R,0.0316X0.0946*%
%ADD88R,0.0513X0.0474*%
%ADD89R,0.0946X0.0867*%
%ADD90R,0.0867X0.0946*%
%ADD91R,0.0237X0.0710*%
%ADD92R,0.0710X0.0237*%
%ADD93R,0.0789X0.0710*%
%ADD94R,0.0789X0.0789*%
%ADD95R,0.0592X0.0671*%
%ADD96R,0.0671X0.0592*%
%ADD97R,0.0887X0.0316*%
%ADD98R,0.1104X0.1025*%
%ADD99R,0.1080X0.1480*%
%ADD100R,0.0380X0.0680*%
%ADD101R,0.1497X0.0395*%
%ADD102R,0.1320X0.1440*%
%ADD103R,0.0253X0.0867*%
%ADD104R,0.0253X0.0867*%
%ADD105R,0.1064X0.2442*%
%ADD106O,0.0474X0.0250*%
%ADD107R,0.0474X0.0250*%
%ADD108R,0.0474X0.0316*%
%ADD109R,0.0257X0.0887*%
%ADD110R,0.0257X0.0887*%
%ADD111C,0.0480*%
%ADD112C,0.0580*%
%ADD113C,0.1340*%
%ADD114C,0.1080*%
%ADD115C,0.1880*%
%ADD116C,0.0680*%
%ADD117R,0.0671X0.0671*%
%ADD118C,0.0671*%
%ADD119C,0.1380*%
%ADD120C,0.0630*%
%ADD121C,0.1104*%
%ADD122C,0.0631*%
%ADD123C,0.0330*%
D76*
X24704Y66089D02*
D03*
X26240D02*
D03*
X26496D02*
D03*
X25984D02*
D03*
X25728D02*
D03*
X25472D02*
D03*
X25216D02*
D03*
X26496Y63511D02*
D03*
X24960D02*
D03*
X25216D02*
D03*
X25472D02*
D03*
X25728D02*
D03*
X25984D02*
D03*
X26240D02*
D03*
X24960Y66089D02*
D03*
X26240Y34911D02*
D03*
X24960Y37489D02*
D03*
X25216D02*
D03*
X25472D02*
D03*
X25728D02*
D03*
X25984D02*
D03*
X26240D02*
D03*
X24704D02*
D03*
X25984Y34911D02*
D03*
X25728D02*
D03*
X25472D02*
D03*
X25216D02*
D03*
X24704D02*
D03*
X24960D02*
D03*
X26496D02*
D03*
D77*
X24704Y63511D02*
D03*
X26496Y37489D02*
D03*
D78*
X46000Y44660D02*
D03*
Y42140D02*
D03*
X75800Y63340D02*
D03*
Y65860D02*
D03*
X43600Y44660D02*
D03*
Y42140D02*
D03*
X52200Y44060D02*
D03*
Y41540D02*
D03*
X76200Y55460D02*
D03*
Y52940D02*
D03*
X68200Y55860D02*
D03*
Y53340D02*
D03*
X72200Y61060D02*
D03*
Y58540D02*
D03*
X54400Y44060D02*
D03*
Y41540D02*
D03*
X42200Y64460D02*
D03*
Y61940D02*
D03*
D79*
X89893Y58789D02*
D03*
Y58946D02*
D03*
Y59104D02*
D03*
Y59261D02*
D03*
Y59419D02*
D03*
Y59576D02*
D03*
Y59734D02*
D03*
Y59891D02*
D03*
Y60049D02*
D03*
Y60206D02*
D03*
Y60364D02*
D03*
Y60521D02*
D03*
Y60679D02*
D03*
Y60836D02*
D03*
Y60994D02*
D03*
Y61151D02*
D03*
Y61309D02*
D03*
Y61466D02*
D03*
Y61624D02*
D03*
Y61781D02*
D03*
Y61939D02*
D03*
Y62096D02*
D03*
Y62254D02*
D03*
Y62411D02*
D03*
X87707Y58789D02*
D03*
Y58946D02*
D03*
Y59104D02*
D03*
Y59261D02*
D03*
Y59419D02*
D03*
Y59576D02*
D03*
Y59734D02*
D03*
Y59891D02*
D03*
Y60049D02*
D03*
Y60206D02*
D03*
Y60364D02*
D03*
Y60521D02*
D03*
Y60679D02*
D03*
Y60836D02*
D03*
Y60994D02*
D03*
Y61151D02*
D03*
Y61309D02*
D03*
Y61466D02*
D03*
Y61624D02*
D03*
Y61781D02*
D03*
Y61939D02*
D03*
Y62096D02*
D03*
Y62254D02*
D03*
Y62411D02*
D03*
X87807Y51311D02*
D03*
Y51154D02*
D03*
Y50996D02*
D03*
Y50839D02*
D03*
Y50681D02*
D03*
Y50524D02*
D03*
Y50366D02*
D03*
Y50209D02*
D03*
Y50051D02*
D03*
Y49894D02*
D03*
Y49736D02*
D03*
Y49579D02*
D03*
Y49421D02*
D03*
Y49264D02*
D03*
Y49106D02*
D03*
Y48949D02*
D03*
Y48791D02*
D03*
Y48634D02*
D03*
Y48476D02*
D03*
Y48319D02*
D03*
Y48161D02*
D03*
Y48004D02*
D03*
Y47846D02*
D03*
Y47689D02*
D03*
X89993Y51311D02*
D03*
Y51154D02*
D03*
Y50996D02*
D03*
Y50839D02*
D03*
Y50681D02*
D03*
Y50524D02*
D03*
Y50366D02*
D03*
Y50209D02*
D03*
Y50051D02*
D03*
Y49894D02*
D03*
Y49736D02*
D03*
Y49579D02*
D03*
Y49421D02*
D03*
Y49264D02*
D03*
Y49106D02*
D03*
Y48949D02*
D03*
Y48791D02*
D03*
Y48634D02*
D03*
Y48476D02*
D03*
Y48319D02*
D03*
Y48161D02*
D03*
Y48004D02*
D03*
Y47846D02*
D03*
Y47689D02*
D03*
X78907Y51211D02*
D03*
Y51054D02*
D03*
Y50896D02*
D03*
Y50739D02*
D03*
Y50581D02*
D03*
Y50424D02*
D03*
Y50266D02*
D03*
Y50109D02*
D03*
Y49951D02*
D03*
Y49794D02*
D03*
Y49636D02*
D03*
Y49479D02*
D03*
Y49321D02*
D03*
Y49164D02*
D03*
Y49006D02*
D03*
Y48849D02*
D03*
Y48691D02*
D03*
Y48534D02*
D03*
Y48376D02*
D03*
Y48219D02*
D03*
Y48061D02*
D03*
Y47904D02*
D03*
Y47746D02*
D03*
Y47589D02*
D03*
X81093Y51211D02*
D03*
Y51054D02*
D03*
Y50896D02*
D03*
Y50739D02*
D03*
Y50581D02*
D03*
Y50424D02*
D03*
Y50266D02*
D03*
Y50109D02*
D03*
Y49951D02*
D03*
Y49794D02*
D03*
Y49636D02*
D03*
Y49479D02*
D03*
Y49321D02*
D03*
Y49164D02*
D03*
Y49006D02*
D03*
Y48849D02*
D03*
Y48691D02*
D03*
Y48534D02*
D03*
Y48376D02*
D03*
Y48219D02*
D03*
Y48061D02*
D03*
Y47904D02*
D03*
Y47746D02*
D03*
Y47589D02*
D03*
Y58789D02*
D03*
Y58946D02*
D03*
Y59104D02*
D03*
Y59261D02*
D03*
Y59419D02*
D03*
Y59576D02*
D03*
Y59734D02*
D03*
Y59891D02*
D03*
Y60049D02*
D03*
Y60206D02*
D03*
Y60364D02*
D03*
Y60521D02*
D03*
Y60679D02*
D03*
Y60836D02*
D03*
Y60994D02*
D03*
Y61151D02*
D03*
Y61309D02*
D03*
Y61466D02*
D03*
Y61624D02*
D03*
Y61781D02*
D03*
Y61939D02*
D03*
Y62096D02*
D03*
Y62254D02*
D03*
Y62411D02*
D03*
X78907Y58789D02*
D03*
Y58946D02*
D03*
Y59104D02*
D03*
Y59261D02*
D03*
Y59419D02*
D03*
Y59576D02*
D03*
Y59734D02*
D03*
Y59891D02*
D03*
Y60049D02*
D03*
Y60206D02*
D03*
Y60364D02*
D03*
Y60521D02*
D03*
Y60679D02*
D03*
Y60836D02*
D03*
Y60994D02*
D03*
Y61151D02*
D03*
Y61309D02*
D03*
Y61466D02*
D03*
Y61624D02*
D03*
Y61781D02*
D03*
Y61939D02*
D03*
Y62096D02*
D03*
Y62254D02*
D03*
Y62411D02*
D03*
D80*
X78711Y64216D02*
D03*
Y57296D02*
D03*
Y52816D02*
D03*
X87511Y64472D02*
D03*
Y53272D02*
D03*
X90089Y63960D02*
D03*
Y64216D02*
D03*
Y64472D02*
D03*
Y64728D02*
D03*
Y64984D02*
D03*
Y65240D02*
D03*
Y65496D02*
D03*
X87511Y63704D02*
D03*
Y63960D02*
D03*
Y64216D02*
D03*
Y64728D02*
D03*
Y64984D02*
D03*
Y65240D02*
D03*
Y65496D02*
D03*
X81289Y63960D02*
D03*
Y64216D02*
D03*
Y64472D02*
D03*
Y64728D02*
D03*
Y64984D02*
D03*
Y65240D02*
D03*
Y65496D02*
D03*
X78711Y63704D02*
D03*
Y63960D02*
D03*
Y64472D02*
D03*
Y64728D02*
D03*
Y64984D02*
D03*
Y65240D02*
D03*
Y65496D02*
D03*
X90089Y56160D02*
D03*
Y56416D02*
D03*
Y56672D02*
D03*
Y56928D02*
D03*
Y57184D02*
D03*
Y57440D02*
D03*
Y57696D02*
D03*
X87511Y55904D02*
D03*
Y56160D02*
D03*
Y56416D02*
D03*
Y56672D02*
D03*
Y56928D02*
D03*
Y57184D02*
D03*
Y57440D02*
D03*
Y57696D02*
D03*
X81289Y55760D02*
D03*
Y56016D02*
D03*
Y56272D02*
D03*
Y56528D02*
D03*
Y56784D02*
D03*
Y57040D02*
D03*
Y57296D02*
D03*
X78711Y55504D02*
D03*
Y55760D02*
D03*
Y56016D02*
D03*
Y56272D02*
D03*
Y56528D02*
D03*
Y56784D02*
D03*
Y57040D02*
D03*
X90089Y52760D02*
D03*
Y53016D02*
D03*
Y53272D02*
D03*
Y53528D02*
D03*
Y53784D02*
D03*
Y54040D02*
D03*
Y54296D02*
D03*
X87511Y52504D02*
D03*
Y52760D02*
D03*
Y53016D02*
D03*
Y53528D02*
D03*
Y53784D02*
D03*
Y54040D02*
D03*
Y54296D02*
D03*
X81289Y52560D02*
D03*
Y52816D02*
D03*
Y53072D02*
D03*
Y53328D02*
D03*
Y53584D02*
D03*
Y53840D02*
D03*
Y54096D02*
D03*
X78711Y52304D02*
D03*
Y52560D02*
D03*
Y53072D02*
D03*
Y53328D02*
D03*
Y53584D02*
D03*
Y53840D02*
D03*
Y54096D02*
D03*
X90289Y44560D02*
D03*
Y44816D02*
D03*
Y45072D02*
D03*
Y45328D02*
D03*
Y45584D02*
D03*
Y45840D02*
D03*
Y46096D02*
D03*
X87711Y44304D02*
D03*
Y44560D02*
D03*
Y44816D02*
D03*
Y45072D02*
D03*
Y45328D02*
D03*
Y45584D02*
D03*
Y45840D02*
D03*
Y46096D02*
D03*
X78711Y46040D02*
D03*
Y45784D02*
D03*
Y45528D02*
D03*
Y45272D02*
D03*
Y45016D02*
D03*
Y44760D02*
D03*
Y44504D02*
D03*
X81289Y46296D02*
D03*
Y46040D02*
D03*
Y45784D02*
D03*
Y45528D02*
D03*
Y45272D02*
D03*
Y45016D02*
D03*
Y44760D02*
D03*
X78711Y46296D02*
D03*
D81*
X41600Y39535D02*
D03*
Y38865D02*
D03*
X43800Y39735D02*
D03*
Y39065D02*
D03*
X65600Y46465D02*
D03*
Y47135D02*
D03*
X67000D02*
D03*
Y46465D02*
D03*
X43200Y57265D02*
D03*
Y57935D02*
D03*
Y58865D02*
D03*
Y59535D02*
D03*
X45600Y60935D02*
D03*
Y60265D02*
D03*
X50800Y60935D02*
D03*
Y60265D02*
D03*
X51200Y50135D02*
D03*
Y49465D02*
D03*
X65400Y60535D02*
D03*
Y59865D02*
D03*
X66400Y59265D02*
D03*
Y59935D02*
D03*
X55200Y54135D02*
D03*
Y53465D02*
D03*
X56200Y53865D02*
D03*
Y54535D02*
D03*
X56600Y57465D02*
D03*
Y58135D02*
D03*
X59000Y60935D02*
D03*
Y60265D02*
D03*
X64400Y60665D02*
D03*
Y61335D02*
D03*
X60000Y60865D02*
D03*
Y61535D02*
D03*
X63200Y61735D02*
D03*
Y61065D02*
D03*
X74800Y53665D02*
D03*
Y54335D02*
D03*
X68200Y58665D02*
D03*
Y59335D02*
D03*
X65400Y38265D02*
D03*
Y38935D02*
D03*
X69200Y59535D02*
D03*
Y58865D02*
D03*
X82400Y64535D02*
D03*
Y63865D02*
D03*
D82*
X48784Y52778D02*
D03*
X48194D02*
D03*
X47997D02*
D03*
X47800D02*
D03*
X70038Y44578D02*
D03*
X70235D02*
D03*
X70431D02*
D03*
X70628D02*
D03*
X70825D02*
D03*
X71022D02*
D03*
X71219D02*
D03*
X71416D02*
D03*
X71613D02*
D03*
X71809D02*
D03*
X72006D02*
D03*
X72203D02*
D03*
X72400D02*
D03*
X72597D02*
D03*
X72794D02*
D03*
X72991D02*
D03*
X73187D02*
D03*
X73384D02*
D03*
X73581D02*
D03*
X73778D02*
D03*
X73975D02*
D03*
X74172D02*
D03*
X74369D02*
D03*
X74565D02*
D03*
X74762D02*
D03*
X70038Y50622D02*
D03*
X70235D02*
D03*
X70431D02*
D03*
X70628D02*
D03*
X70825D02*
D03*
X71022D02*
D03*
X71219D02*
D03*
X71416D02*
D03*
X71613D02*
D03*
X71809D02*
D03*
X72006D02*
D03*
X72203D02*
D03*
X72400D02*
D03*
X72597D02*
D03*
X72794D02*
D03*
X72991D02*
D03*
X73187D02*
D03*
X73384D02*
D03*
X73581D02*
D03*
X73778D02*
D03*
X73975D02*
D03*
X74172D02*
D03*
X74369D02*
D03*
X74565D02*
D03*
X74762D02*
D03*
X58638Y52778D02*
D03*
X58835D02*
D03*
X59032D02*
D03*
X59228D02*
D03*
X59425D02*
D03*
X59622D02*
D03*
X59819D02*
D03*
X60016D02*
D03*
X60213D02*
D03*
X60409D02*
D03*
X60606D02*
D03*
X60803D02*
D03*
X61000D02*
D03*
X61197D02*
D03*
X61394D02*
D03*
X61591D02*
D03*
X61787D02*
D03*
X61984D02*
D03*
X62181D02*
D03*
X62378D02*
D03*
X62575D02*
D03*
X62772D02*
D03*
X62969D02*
D03*
X63165D02*
D03*
X63362D02*
D03*
X58638Y58822D02*
D03*
X58835D02*
D03*
X59032D02*
D03*
X59228D02*
D03*
X59425D02*
D03*
X59622D02*
D03*
X59819D02*
D03*
X60016D02*
D03*
X60213D02*
D03*
X60409D02*
D03*
X60606D02*
D03*
X60803D02*
D03*
X61000D02*
D03*
X61197D02*
D03*
X61394D02*
D03*
X61591D02*
D03*
X61787D02*
D03*
X61984D02*
D03*
X62181D02*
D03*
X62378D02*
D03*
X62575D02*
D03*
X62772D02*
D03*
X62969D02*
D03*
X63165D02*
D03*
X63362D02*
D03*
X45438Y52778D02*
D03*
X45635D02*
D03*
X45831D02*
D03*
X46028D02*
D03*
X46225D02*
D03*
X46422D02*
D03*
X46619D02*
D03*
X46816D02*
D03*
X47013D02*
D03*
X47209D02*
D03*
X47406D02*
D03*
X47603D02*
D03*
X48391D02*
D03*
X48587D02*
D03*
X48981D02*
D03*
X49178D02*
D03*
X49375D02*
D03*
X49572D02*
D03*
X49769D02*
D03*
X49965D02*
D03*
X50162D02*
D03*
X45438Y58822D02*
D03*
X45635D02*
D03*
X45831D02*
D03*
X46028D02*
D03*
X46225D02*
D03*
X46422D02*
D03*
X46619D02*
D03*
X46816D02*
D03*
X47013D02*
D03*
X47209D02*
D03*
X47406D02*
D03*
X47603D02*
D03*
X47800D02*
D03*
X47997D02*
D03*
X48194D02*
D03*
X48391D02*
D03*
X48587D02*
D03*
X48784D02*
D03*
X48981D02*
D03*
X49178D02*
D03*
X49375D02*
D03*
X49572D02*
D03*
X49769D02*
D03*
X49965D02*
D03*
X50162D02*
D03*
D83*
X90089Y55904D02*
D03*
X90289Y44304D02*
D03*
X90089Y63704D02*
D03*
X81289D02*
D03*
Y55504D02*
D03*
X90089Y52504D02*
D03*
X81289Y52304D02*
D03*
Y44504D02*
D03*
D84*
X75422Y45238D02*
D03*
Y45435D02*
D03*
Y45631D02*
D03*
Y45828D02*
D03*
Y46025D02*
D03*
Y46222D02*
D03*
Y46419D02*
D03*
Y46616D02*
D03*
Y46813D02*
D03*
Y47009D02*
D03*
Y47206D02*
D03*
Y47403D02*
D03*
Y47600D02*
D03*
Y47797D02*
D03*
Y47994D02*
D03*
Y48191D02*
D03*
Y48387D02*
D03*
Y48584D02*
D03*
Y48781D02*
D03*
Y48978D02*
D03*
Y49175D02*
D03*
Y49372D02*
D03*
Y49569D02*
D03*
Y49765D02*
D03*
Y49962D02*
D03*
X69378Y45238D02*
D03*
Y45435D02*
D03*
Y45631D02*
D03*
Y45828D02*
D03*
Y46025D02*
D03*
Y46222D02*
D03*
Y46419D02*
D03*
Y46616D02*
D03*
Y46813D02*
D03*
Y47009D02*
D03*
Y47206D02*
D03*
Y47403D02*
D03*
Y47600D02*
D03*
Y47797D02*
D03*
Y47994D02*
D03*
Y48191D02*
D03*
Y48387D02*
D03*
Y48584D02*
D03*
Y48781D02*
D03*
Y48978D02*
D03*
Y49175D02*
D03*
Y49372D02*
D03*
Y49569D02*
D03*
Y49765D02*
D03*
Y49962D02*
D03*
X64022Y53438D02*
D03*
Y53635D02*
D03*
Y53832D02*
D03*
Y54028D02*
D03*
Y54225D02*
D03*
Y54422D02*
D03*
Y54619D02*
D03*
Y54816D02*
D03*
Y55013D02*
D03*
Y55209D02*
D03*
Y55406D02*
D03*
Y55603D02*
D03*
Y55800D02*
D03*
Y55997D02*
D03*
Y56194D02*
D03*
Y56391D02*
D03*
Y56587D02*
D03*
Y56784D02*
D03*
Y56981D02*
D03*
Y57178D02*
D03*
Y57375D02*
D03*
Y57572D02*
D03*
Y57769D02*
D03*
Y57965D02*
D03*
X57978Y53438D02*
D03*
Y53635D02*
D03*
Y53832D02*
D03*
Y54028D02*
D03*
Y54225D02*
D03*
Y54422D02*
D03*
Y54619D02*
D03*
Y54816D02*
D03*
Y55013D02*
D03*
Y55209D02*
D03*
Y55406D02*
D03*
Y55800D02*
D03*
Y55997D02*
D03*
Y56194D02*
D03*
Y56391D02*
D03*
Y56587D02*
D03*
Y56784D02*
D03*
Y56981D02*
D03*
Y57178D02*
D03*
Y57375D02*
D03*
Y57572D02*
D03*
Y57769D02*
D03*
Y57965D02*
D03*
Y58162D02*
D03*
X44778D02*
D03*
Y57965D02*
D03*
Y57769D02*
D03*
Y57572D02*
D03*
Y57375D02*
D03*
Y57178D02*
D03*
Y56981D02*
D03*
Y56784D02*
D03*
Y56587D02*
D03*
Y56391D02*
D03*
Y56194D02*
D03*
Y55997D02*
D03*
Y55800D02*
D03*
Y55603D02*
D03*
Y55406D02*
D03*
Y55209D02*
D03*
Y55013D02*
D03*
Y54816D02*
D03*
Y54619D02*
D03*
Y54422D02*
D03*
Y54225D02*
D03*
Y54028D02*
D03*
Y53832D02*
D03*
Y53635D02*
D03*
Y53438D02*
D03*
X50822Y58162D02*
D03*
Y57965D02*
D03*
Y57769D02*
D03*
Y57572D02*
D03*
Y57375D02*
D03*
Y57178D02*
D03*
Y56981D02*
D03*
Y56784D02*
D03*
Y56587D02*
D03*
Y56391D02*
D03*
Y56194D02*
D03*
Y55997D02*
D03*
Y55800D02*
D03*
Y55603D02*
D03*
Y55406D02*
D03*
Y55209D02*
D03*
Y55013D02*
D03*
Y54816D02*
D03*
Y54619D02*
D03*
Y54422D02*
D03*
Y54225D02*
D03*
Y54028D02*
D03*
Y53832D02*
D03*
Y53635D02*
D03*
Y53438D02*
D03*
X64022Y58162D02*
D03*
X57978Y55603D02*
D03*
D85*
X63400Y42200D02*
D03*
D86*
Y42450D02*
D03*
Y42700D02*
D03*
Y42950D02*
D03*
Y43200D02*
D03*
Y43450D02*
D03*
Y43700D02*
D03*
Y43950D02*
D03*
Y44200D02*
D03*
Y44450D02*
D03*
Y44700D02*
D03*
Y44950D02*
D03*
Y45200D02*
D03*
Y45450D02*
D03*
Y45700D02*
D03*
Y45950D02*
D03*
Y46200D02*
D03*
Y46450D02*
D03*
Y46700D02*
D03*
Y46950D02*
D03*
Y47200D02*
D03*
Y47450D02*
D03*
Y47700D02*
D03*
Y47950D02*
D03*
Y48200D02*
D03*
Y48450D02*
D03*
Y48700D02*
D03*
Y48950D02*
D03*
X59800Y42200D02*
D03*
Y42450D02*
D03*
Y42700D02*
D03*
Y42950D02*
D03*
Y43200D02*
D03*
Y43450D02*
D03*
Y43700D02*
D03*
Y43950D02*
D03*
Y44200D02*
D03*
Y44450D02*
D03*
Y44700D02*
D03*
Y44950D02*
D03*
Y45200D02*
D03*
Y45450D02*
D03*
Y45700D02*
D03*
Y45950D02*
D03*
Y46200D02*
D03*
Y46450D02*
D03*
Y46700D02*
D03*
Y46950D02*
D03*
Y47200D02*
D03*
Y47450D02*
D03*
Y47700D02*
D03*
Y47950D02*
D03*
Y48200D02*
D03*
Y48450D02*
D03*
Y48700D02*
D03*
Y48950D02*
D03*
D87*
X27900Y57976D02*
D03*
X28400D02*
D03*
X28900D02*
D03*
X29900D02*
D03*
X30400D02*
D03*
X30900D02*
D03*
X27900Y60024D02*
D03*
X28400D02*
D03*
X28900D02*
D03*
X29900D02*
D03*
X30400D02*
D03*
X30900D02*
D03*
X27900Y52176D02*
D03*
X28400D02*
D03*
X28900D02*
D03*
X29900D02*
D03*
X30400D02*
D03*
X30900D02*
D03*
X27900Y54224D02*
D03*
X28400D02*
D03*
X28900D02*
D03*
X29900D02*
D03*
X30400D02*
D03*
X30900D02*
D03*
X27900Y46776D02*
D03*
X28400D02*
D03*
X28900D02*
D03*
X29900D02*
D03*
X30400D02*
D03*
X30900D02*
D03*
X27900Y48824D02*
D03*
X28400D02*
D03*
X28900D02*
D03*
X29900D02*
D03*
X30400D02*
D03*
X30900D02*
D03*
X27900Y40976D02*
D03*
X28400D02*
D03*
X28900D02*
D03*
X29900D02*
D03*
X30400D02*
D03*
X30900D02*
D03*
X27900Y43024D02*
D03*
X28400D02*
D03*
X28900D02*
D03*
X29900D02*
D03*
X30400D02*
D03*
X30900D02*
D03*
X29400D02*
D03*
Y48824D02*
D03*
Y54224D02*
D03*
Y60024D02*
D03*
Y40976D02*
D03*
Y46776D02*
D03*
Y52176D02*
D03*
Y57976D02*
D03*
D88*
X36865Y55000D02*
D03*
X37535D02*
D03*
X39335Y51600D02*
D03*
X38665D02*
D03*
X46665Y61200D02*
D03*
X47335D02*
D03*
X51865Y61000D02*
D03*
X52535D02*
D03*
X47465Y62400D02*
D03*
X52135Y51800D02*
D03*
X51465D02*
D03*
X52535Y60000D02*
D03*
X51865D02*
D03*
X52865Y53400D02*
D03*
X53535D02*
D03*
X52465Y62400D02*
D03*
X53135D02*
D03*
X53535Y54400D02*
D03*
X52865D02*
D03*
X53265Y51800D02*
D03*
X53935D02*
D03*
X57735Y51000D02*
D03*
X57065D02*
D03*
X55465Y56600D02*
D03*
X56135D02*
D03*
X89135Y37600D02*
D03*
X88465D02*
D03*
X60535Y36800D02*
D03*
X59865D02*
D03*
X48135Y62400D02*
D03*
X58665Y51000D02*
D03*
X59335D02*
D03*
D89*
X39000Y50191D02*
D03*
Y49009D02*
D03*
X32600Y45991D02*
D03*
X60800Y38409D02*
D03*
Y39591D02*
D03*
X32600Y44809D02*
D03*
D90*
X38191Y53800D02*
D03*
X36209Y45400D02*
D03*
X37391D02*
D03*
X35809Y62000D02*
D03*
X36991D02*
D03*
X32991Y61200D02*
D03*
X31809D02*
D03*
X37009Y53800D02*
D03*
D91*
X33865Y60365D02*
D03*
X34120D02*
D03*
X34376D02*
D03*
X34632D02*
D03*
X34888D02*
D03*
X35144D02*
D03*
X35400D02*
D03*
X35656D02*
D03*
X35912D02*
D03*
X36168D02*
D03*
X36424D02*
D03*
X36680D02*
D03*
X36935D02*
D03*
Y56035D02*
D03*
X36680D02*
D03*
X36424D02*
D03*
X36168D02*
D03*
X35912D02*
D03*
X35656D02*
D03*
X35400D02*
D03*
X35144D02*
D03*
X34888D02*
D03*
X34632D02*
D03*
X34376D02*
D03*
X34120D02*
D03*
X33865D02*
D03*
Y43965D02*
D03*
X34120D02*
D03*
X34376D02*
D03*
X34632D02*
D03*
X34888D02*
D03*
X35144D02*
D03*
X35400D02*
D03*
X35656D02*
D03*
X35912D02*
D03*
X36168D02*
D03*
X36424D02*
D03*
X36680D02*
D03*
X36935D02*
D03*
Y39635D02*
D03*
X36680D02*
D03*
X36424D02*
D03*
X36168D02*
D03*
X35912D02*
D03*
X35656D02*
D03*
X35400D02*
D03*
X35144D02*
D03*
X34888D02*
D03*
X34632D02*
D03*
X34376D02*
D03*
X34120D02*
D03*
X33865D02*
D03*
D92*
X37565Y59735D02*
D03*
Y59480D02*
D03*
Y59224D02*
D03*
Y58968D02*
D03*
Y58712D02*
D03*
Y58456D02*
D03*
Y58200D02*
D03*
Y57944D02*
D03*
Y57688D02*
D03*
Y57432D02*
D03*
Y57176D02*
D03*
Y56920D02*
D03*
Y56665D02*
D03*
X33235D02*
D03*
Y56920D02*
D03*
Y57176D02*
D03*
Y57432D02*
D03*
Y57688D02*
D03*
Y58200D02*
D03*
Y58456D02*
D03*
Y58712D02*
D03*
Y58968D02*
D03*
Y59224D02*
D03*
Y59480D02*
D03*
Y59735D02*
D03*
X37565Y43335D02*
D03*
Y43080D02*
D03*
Y42824D02*
D03*
Y42568D02*
D03*
Y42312D02*
D03*
Y42056D02*
D03*
Y41800D02*
D03*
Y41544D02*
D03*
Y41288D02*
D03*
Y41032D02*
D03*
Y40776D02*
D03*
Y40520D02*
D03*
Y40265D02*
D03*
X33235D02*
D03*
Y40520D02*
D03*
Y40776D02*
D03*
Y41032D02*
D03*
Y41288D02*
D03*
Y41800D02*
D03*
Y42056D02*
D03*
Y42312D02*
D03*
Y42568D02*
D03*
Y42824D02*
D03*
Y43080D02*
D03*
Y43335D02*
D03*
Y41544D02*
D03*
Y57944D02*
D03*
D93*
X57800Y48849D02*
D03*
Y49951D02*
D03*
Y47551D02*
D03*
Y46449D02*
D03*
Y43449D02*
D03*
Y44551D02*
D03*
D94*
X66978Y41099D02*
D03*
Y44800D02*
D03*
X65600Y41099D02*
D03*
Y44800D02*
D03*
D95*
X57826Y36800D02*
D03*
X58574D02*
D03*
X62974Y37000D02*
D03*
X62226D02*
D03*
X64226D02*
D03*
X64974D02*
D03*
D96*
X59200Y38774D02*
D03*
Y38026D02*
D03*
D97*
X62347Y40150D02*
D03*
Y39650D02*
D03*
Y39150D02*
D03*
Y38650D02*
D03*
X64453Y40150D02*
D03*
Y39650D02*
D03*
Y39150D02*
D03*
Y38650D02*
D03*
D98*
X67540Y42400D02*
D03*
X70060D02*
D03*
X69940Y55800D02*
D03*
X72460D02*
D03*
X90460Y42000D02*
D03*
X87940D02*
D03*
D99*
X53400Y48369D02*
D03*
X75000Y60269D02*
D03*
X45000Y48868D02*
D03*
D100*
X52900Y46400D02*
D03*
X54400D02*
D03*
X52400D02*
D03*
X53900D02*
D03*
X53400D02*
D03*
X75000Y58300D02*
D03*
X75500D02*
D03*
X74000D02*
D03*
X76000D02*
D03*
X74500D02*
D03*
X45000Y46900D02*
D03*
X45500D02*
D03*
X44000D02*
D03*
X46000D02*
D03*
X44500D02*
D03*
D101*
X31981Y65000D02*
D03*
X29619D02*
D03*
D102*
X37090Y35000D02*
D03*
X33710D02*
D03*
D103*
X71731Y40024D02*
D03*
X83981D02*
D03*
D104*
X71981D02*
D03*
X72231D02*
D03*
X72481D02*
D03*
X72731D02*
D03*
X72981D02*
D03*
X73231D02*
D03*
X73481D02*
D03*
X73731D02*
D03*
X73981D02*
D03*
X74231D02*
D03*
X74481D02*
D03*
X74731D02*
D03*
X74981D02*
D03*
X75231D02*
D03*
X75731D02*
D03*
X75981D02*
D03*
X76231D02*
D03*
X76481D02*
D03*
X76731D02*
D03*
X76981D02*
D03*
X77231D02*
D03*
X77481D02*
D03*
X77731D02*
D03*
X77981D02*
D03*
X78231D02*
D03*
X78481D02*
D03*
X78731D02*
D03*
X78981D02*
D03*
X79231D02*
D03*
X79481D02*
D03*
X79731D02*
D03*
X79981D02*
D03*
X80231D02*
D03*
X80481D02*
D03*
X80731D02*
D03*
X80981D02*
D03*
X81231D02*
D03*
X81481D02*
D03*
X81731D02*
D03*
X81981D02*
D03*
X82231D02*
D03*
X82481D02*
D03*
X82731D02*
D03*
X82981D02*
D03*
X83231D02*
D03*
X83481D02*
D03*
X83731D02*
D03*
X75481D02*
D03*
D105*
X68776Y32740D02*
D03*
X86937D02*
D03*
D106*
X24289Y61368D02*
D03*
Y61112D02*
D03*
Y60856D02*
D03*
Y60600D02*
D03*
X26100Y61112D02*
D03*
Y60856D02*
D03*
Y59456D02*
D03*
Y59712D02*
D03*
X24289Y59200D02*
D03*
Y59456D02*
D03*
Y59712D02*
D03*
Y59968D02*
D03*
Y58568D02*
D03*
Y58312D02*
D03*
Y58056D02*
D03*
Y57800D02*
D03*
X26100Y58312D02*
D03*
Y58056D02*
D03*
Y56656D02*
D03*
Y56912D02*
D03*
X24289Y56400D02*
D03*
Y56656D02*
D03*
Y56912D02*
D03*
Y57168D02*
D03*
Y55768D02*
D03*
Y55512D02*
D03*
Y55256D02*
D03*
Y55000D02*
D03*
X26100Y55512D02*
D03*
Y55256D02*
D03*
Y53856D02*
D03*
Y54112D02*
D03*
X24289Y53600D02*
D03*
Y53856D02*
D03*
Y54112D02*
D03*
Y54368D02*
D03*
Y52968D02*
D03*
Y52712D02*
D03*
Y52456D02*
D03*
Y52200D02*
D03*
X26100Y52712D02*
D03*
Y52456D02*
D03*
Y51056D02*
D03*
Y51312D02*
D03*
X24289Y50800D02*
D03*
Y51056D02*
D03*
Y51312D02*
D03*
Y51568D02*
D03*
Y40368D02*
D03*
Y40112D02*
D03*
Y39856D02*
D03*
Y39600D02*
D03*
X26100Y40112D02*
D03*
Y39856D02*
D03*
Y41256D02*
D03*
Y41512D02*
D03*
X24289Y41000D02*
D03*
Y41256D02*
D03*
Y41512D02*
D03*
Y41768D02*
D03*
Y43168D02*
D03*
Y42912D02*
D03*
Y42656D02*
D03*
Y42400D02*
D03*
X26100Y42912D02*
D03*
Y42656D02*
D03*
Y44056D02*
D03*
Y44312D02*
D03*
X24289Y43800D02*
D03*
Y44056D02*
D03*
Y44312D02*
D03*
Y44568D02*
D03*
Y45968D02*
D03*
Y45712D02*
D03*
Y45456D02*
D03*
Y45200D02*
D03*
X26100Y45712D02*
D03*
Y45456D02*
D03*
Y46856D02*
D03*
Y47112D02*
D03*
X24289Y46600D02*
D03*
Y46856D02*
D03*
Y47112D02*
D03*
Y47368D02*
D03*
Y48768D02*
D03*
Y48512D02*
D03*
Y48256D02*
D03*
Y48000D02*
D03*
X26100Y48512D02*
D03*
Y48256D02*
D03*
Y49656D02*
D03*
Y49912D02*
D03*
X24289Y49400D02*
D03*
Y49656D02*
D03*
Y49912D02*
D03*
Y50168D02*
D03*
X26100D02*
D03*
Y48768D02*
D03*
Y47368D02*
D03*
Y45968D02*
D03*
Y44568D02*
D03*
Y43168D02*
D03*
Y41768D02*
D03*
Y40368D02*
D03*
Y51568D02*
D03*
Y52968D02*
D03*
Y54368D02*
D03*
Y55768D02*
D03*
Y57168D02*
D03*
Y58568D02*
D03*
Y59968D02*
D03*
Y61368D02*
D03*
D107*
Y60600D02*
D03*
Y59200D02*
D03*
Y57800D02*
D03*
Y56400D02*
D03*
Y55000D02*
D03*
Y53600D02*
D03*
Y52200D02*
D03*
Y50800D02*
D03*
Y39600D02*
D03*
Y41000D02*
D03*
Y42400D02*
D03*
Y43800D02*
D03*
Y45200D02*
D03*
Y46600D02*
D03*
Y48000D02*
D03*
Y49400D02*
D03*
D108*
X35902Y53652D02*
D03*
X34800Y54400D02*
D03*
Y54026D02*
D03*
Y53652D02*
D03*
X35902Y54400D02*
D03*
Y54026D02*
D03*
D109*
X35672Y51309D02*
D03*
X37463D02*
D03*
X37207D02*
D03*
X36952D02*
D03*
X36696D02*
D03*
X36440D02*
D03*
X36184D02*
D03*
X35928D02*
D03*
X35416D02*
D03*
X35160D02*
D03*
X34904D02*
D03*
X34648D02*
D03*
X34393D02*
D03*
X34137D02*
D03*
X37463Y48691D02*
D03*
X37207D02*
D03*
X36952D02*
D03*
X36696D02*
D03*
X36440D02*
D03*
X36184D02*
D03*
X35928D02*
D03*
X35672D02*
D03*
X35416D02*
D03*
X35160D02*
D03*
X34904D02*
D03*
X34648D02*
D03*
X34393D02*
D03*
D110*
X34137D02*
D03*
D111*
X52560Y49500D02*
D03*
X55000D02*
D03*
D112*
X51674Y34067D02*
D03*
X50689Y34854D02*
D03*
X51674D02*
D03*
X50689Y34067D02*
D03*
X41600Y35900D02*
D03*
Y36900D02*
D03*
X43800Y35900D02*
D03*
Y36900D02*
D03*
X91100Y37600D02*
D03*
Y38600D02*
D03*
D113*
X53552Y33000D02*
D03*
X48811D02*
D03*
D114*
X83000Y68200D02*
D03*
X85000D02*
D03*
X87000D02*
D03*
X89000D02*
D03*
D115*
X22500Y67130D02*
D03*
X92500D02*
D03*
Y33750D02*
D03*
X22500D02*
D03*
D116*
X64900Y34200D02*
D03*
X63900D02*
D03*
X62900D02*
D03*
X61900D02*
D03*
X64900Y31200D02*
D03*
X61900D02*
D03*
X59900Y34200D02*
D03*
X60900D02*
D03*
X58900D02*
D03*
X57900D02*
D03*
X60900Y31200D02*
D03*
X57900D02*
D03*
D117*
X22000Y40600D02*
D03*
X93400Y45400D02*
D03*
X85200D02*
D03*
D118*
X21000Y40600D02*
D03*
X22000Y41600D02*
D03*
X21000D02*
D03*
X22000Y42600D02*
D03*
X21000D02*
D03*
X22000Y43600D02*
D03*
X21000D02*
D03*
X22000Y44600D02*
D03*
X21000D02*
D03*
X22000Y45600D02*
D03*
X21000D02*
D03*
X22000Y46600D02*
D03*
X21000D02*
D03*
X22000Y47600D02*
D03*
X21000D02*
D03*
X22000Y48600D02*
D03*
X21000D02*
D03*
X22000Y49600D02*
D03*
X21000D02*
D03*
X22000Y50600D02*
D03*
X21000D02*
D03*
X22000Y51600D02*
D03*
X21000D02*
D03*
X22000Y52600D02*
D03*
X21000D02*
D03*
X22000Y53600D02*
D03*
X21000D02*
D03*
X22000Y54600D02*
D03*
X21000D02*
D03*
X22000Y55600D02*
D03*
X21000D02*
D03*
X22000Y56600D02*
D03*
X21000D02*
D03*
X22000Y57600D02*
D03*
X21000D02*
D03*
X22000Y58600D02*
D03*
X21000D02*
D03*
X22000Y59600D02*
D03*
X21000D02*
D03*
X92400Y64400D02*
D03*
X93400D02*
D03*
X92400Y63400D02*
D03*
X93400D02*
D03*
X92400Y62400D02*
D03*
X93400D02*
D03*
X92400Y61400D02*
D03*
X93400D02*
D03*
X92400Y60400D02*
D03*
X93400D02*
D03*
X92400Y59400D02*
D03*
X93400D02*
D03*
X92400Y58400D02*
D03*
X93400D02*
D03*
X92400Y57400D02*
D03*
X93400D02*
D03*
X92400Y56400D02*
D03*
X93400D02*
D03*
X92400Y55400D02*
D03*
X93400D02*
D03*
X92400Y54400D02*
D03*
X93400D02*
D03*
X92400Y53400D02*
D03*
X93400D02*
D03*
X92400Y52400D02*
D03*
X93400D02*
D03*
X92400Y51400D02*
D03*
X93400D02*
D03*
X92400Y50400D02*
D03*
X93400D02*
D03*
X92400Y49400D02*
D03*
X93400D02*
D03*
X92400Y48400D02*
D03*
X93400D02*
D03*
X92400Y47400D02*
D03*
X93400D02*
D03*
X92400Y46400D02*
D03*
X93400D02*
D03*
X92400Y45400D02*
D03*
X84200Y64400D02*
D03*
X85200D02*
D03*
X84200Y63400D02*
D03*
X85200D02*
D03*
X84200Y62400D02*
D03*
X85200D02*
D03*
X84200Y61400D02*
D03*
X85200D02*
D03*
X84200Y60400D02*
D03*
X85200D02*
D03*
X84200Y59400D02*
D03*
X85200D02*
D03*
X84200Y58400D02*
D03*
X85200D02*
D03*
X84200Y57400D02*
D03*
X85200D02*
D03*
X84200Y56400D02*
D03*
X85200D02*
D03*
X84200Y55400D02*
D03*
X85200D02*
D03*
X84200Y54400D02*
D03*
X85200D02*
D03*
X84200Y53400D02*
D03*
X85200D02*
D03*
X84200Y52400D02*
D03*
X85200D02*
D03*
X84200Y51400D02*
D03*
X85200D02*
D03*
X84200Y50400D02*
D03*
X85200D02*
D03*
X84200Y49400D02*
D03*
X85200D02*
D03*
X84200Y48400D02*
D03*
X85200D02*
D03*
X84200Y47400D02*
D03*
X85200D02*
D03*
X84200Y46400D02*
D03*
X85200D02*
D03*
X84200Y45400D02*
D03*
D119*
X45000Y67880D02*
D03*
X64420D02*
D03*
D120*
X62960D02*
D03*
X62460Y67130D02*
D03*
X61960Y67880D02*
D03*
X61460Y67130D02*
D03*
X60460D02*
D03*
X59960Y67880D02*
D03*
X59460Y67130D02*
D03*
X58960Y67880D02*
D03*
X58460Y67130D02*
D03*
X57960Y67880D02*
D03*
X57460Y67130D02*
D03*
X56960Y67880D02*
D03*
X56460Y67130D02*
D03*
X55960Y67880D02*
D03*
X55460Y67130D02*
D03*
X54960Y67880D02*
D03*
X54460Y67130D02*
D03*
X53960Y67880D02*
D03*
X52460Y67130D02*
D03*
X51960Y67880D02*
D03*
X50460Y67130D02*
D03*
X49960Y67880D02*
D03*
X48460Y67130D02*
D03*
X46960Y67880D02*
D03*
X46460Y67130D02*
D03*
X62460Y65630D02*
D03*
X61960Y66380D02*
D03*
X61460Y65630D02*
D03*
X60960Y66380D02*
D03*
X60460Y65630D02*
D03*
X59960Y66380D02*
D03*
X59460Y65630D02*
D03*
X58960Y66380D02*
D03*
X58460Y65630D02*
D03*
X57960Y66380D02*
D03*
X57460Y65630D02*
D03*
X56960Y66380D02*
D03*
X56460Y65630D02*
D03*
X55960Y66380D02*
D03*
X55460Y65630D02*
D03*
X54960Y66380D02*
D03*
X54460Y65630D02*
D03*
X53960Y66380D02*
D03*
X53460Y65630D02*
D03*
X52960Y66380D02*
D03*
X52460Y65630D02*
D03*
X51960Y66380D02*
D03*
X51460Y65630D02*
D03*
X50960Y66380D02*
D03*
X50460Y65630D02*
D03*
X49960Y66380D02*
D03*
X49460Y65630D02*
D03*
X48960Y66380D02*
D03*
X48460Y65630D02*
D03*
X47960Y66380D02*
D03*
X47460Y65630D02*
D03*
X46960Y66380D02*
D03*
X46460Y65630D02*
D03*
X48960Y67880D02*
D03*
X49460Y67130D02*
D03*
X50960Y67880D02*
D03*
X51460Y67130D02*
D03*
X52960Y67880D02*
D03*
X53460Y67130D02*
D03*
X60960Y67880D02*
D03*
X47460Y67130D02*
D03*
X47960Y67880D02*
D03*
X62960Y66380D02*
D03*
D121*
X69713Y39000D02*
D03*
X86000D02*
D03*
D122*
X86531Y39945D02*
D03*
X69181D02*
D03*
D123*
X31981Y64581D02*
D03*
X33000Y65000D02*
D03*
X37090Y34090D02*
D03*
X38200Y35000D02*
D03*
X37090Y36090D02*
D03*
X54169Y48369D02*
D03*
X52632D02*
D03*
X52100Y46000D02*
D03*
X52900Y46900D02*
D03*
X53400Y45800D02*
D03*
X54400D02*
D03*
X74232Y60269D02*
D03*
X75000Y61200D02*
D03*
X75768Y60269D02*
D03*
X76000Y57800D02*
D03*
X75000Y58900D02*
D03*
X74500Y58800D02*
D03*
Y57800D02*
D03*
X74000Y58900D02*
D03*
Y57800D02*
D03*
X46000Y47500D02*
D03*
Y46300D02*
D03*
X45500Y47500D02*
D03*
X44500D02*
D03*
Y46300D02*
D03*
X44000Y47500D02*
D03*
Y46300D02*
D03*
X48724Y41976D02*
D03*
X42300Y53400D02*
D03*
X34700Y44600D02*
D03*
X34500Y45000D02*
D03*
X34120Y44680D02*
D03*
X31300Y43400D02*
D03*
X33535Y39635D02*
D03*
X33865Y43435D02*
D03*
X35400Y59800D02*
D03*
X35144Y60944D02*
D03*
X50000Y55700D02*
D03*
X49800Y58200D02*
D03*
X48700Y62200D02*
D03*
X49700Y54800D02*
D03*
X69700Y53800D02*
D03*
X60400Y54600D02*
D03*
X61000Y56400D02*
D03*
X62700Y57700D02*
D03*
X63200D02*
D03*
X81600Y51500D02*
D03*
X87200Y47700D02*
D03*
Y48400D02*
D03*
X87100Y49700D02*
D03*
X88400Y49100D02*
D03*
X86900Y51000D02*
D03*
X87100Y50200D02*
D03*
X87807Y51693D02*
D03*
X87511Y57911D02*
D03*
X87707Y58507D02*
D03*
X88300Y59900D02*
D03*
Y60400D02*
D03*
X86900Y60900D02*
D03*
X88300Y62200D02*
D03*
Y61700D02*
D03*
X51565Y49465D02*
D03*
X47714Y43614D02*
D03*
X48500Y52100D02*
D03*
X49300Y49500D02*
D03*
X59800Y37900D02*
D03*
X82500Y43200D02*
D03*
X90984Y45584D02*
D03*
X86828Y45072D02*
D03*
X88072Y56672D02*
D03*
X91200Y56500D02*
D03*
Y54400D02*
D03*
X90700Y54600D02*
D03*
X91200Y46200D02*
D03*
Y64800D02*
D03*
X77700Y50700D02*
D03*
X77400Y50400D02*
D03*
X79800Y43900D02*
D03*
X77400Y57200D02*
D03*
X78000Y57300D02*
D03*
X78028Y56528D02*
D03*
X77400Y54400D02*
D03*
X77928Y53328D02*
D03*
X78000Y52900D02*
D03*
Y45500D02*
D03*
X77700Y64200D02*
D03*
X79500Y64700D02*
D03*
X79100Y58000D02*
D03*
Y51700D02*
D03*
X79200Y47100D02*
D03*
X77400Y64600D02*
D03*
X87200Y52000D02*
D03*
Y63100D02*
D03*
X86860Y44560D02*
D03*
X86660Y56160D02*
D03*
X88300Y53300D02*
D03*
X89296Y44304D02*
D03*
X89200Y55900D02*
D03*
X88228Y64472D02*
D03*
X78306Y49794D02*
D03*
X78339Y48061D02*
D03*
X78300Y48500D02*
D03*
X78306Y49006D02*
D03*
X78300Y51300D02*
D03*
Y50300D02*
D03*
X78361Y50739D02*
D03*
X78907Y58507D02*
D03*
X78265Y59265D02*
D03*
X78300Y59900D02*
D03*
Y60300D02*
D03*
X78335Y61465D02*
D03*
X78400Y61000D02*
D03*
X78339Y61939D02*
D03*
X89411Y51311D02*
D03*
X89339Y50839D02*
D03*
X89400Y50300D02*
D03*
X89406Y49894D02*
D03*
Y49106D02*
D03*
X89300Y48700D02*
D03*
Y48300D02*
D03*
X90300Y47500D02*
D03*
X90800Y61390D02*
D03*
X89200Y59200D02*
D03*
X90400Y58500D02*
D03*
Y62700D02*
D03*
X90900Y62100D02*
D03*
X89893Y62693D02*
D03*
X89300Y60900D02*
D03*
Y59600D02*
D03*
Y60000D02*
D03*
X54000Y53400D02*
D03*
X53535Y54065D02*
D03*
X52300Y54500D02*
D03*
X50200Y60700D02*
D03*
X53200Y61000D02*
D03*
X66065Y47135D02*
D03*
X67335D02*
D03*
X48500Y60300D02*
D03*
X68603Y47797D02*
D03*
X70000Y45800D02*
D03*
X68800Y46600D02*
D03*
X68600Y47200D02*
D03*
X69900Y46700D02*
D03*
X68700Y48200D02*
D03*
X70100D02*
D03*
X68700Y48800D02*
D03*
X70000D02*
D03*
X71022Y51178D02*
D03*
X70100Y50100D02*
D03*
X71219Y49981D02*
D03*
X71900Y51300D02*
D03*
X72700Y49900D02*
D03*
X73058Y51300D02*
D03*
X73600Y51100D02*
D03*
X73700Y50000D02*
D03*
X71731Y39431D02*
D03*
X76231Y40631D02*
D03*
X77000Y39300D02*
D03*
X77800Y40700D02*
D03*
X78231Y39431D02*
D03*
X78481Y40681D02*
D03*
X78731Y39331D02*
D03*
X79231Y39369D02*
D03*
X83231Y39331D02*
D03*
X83981Y39319D02*
D03*
X76200Y50600D02*
D03*
X76600Y50200D02*
D03*
X81600Y43100D02*
D03*
X76600Y49700D02*
D03*
X81100Y43100D02*
D03*
X76900Y48800D02*
D03*
X81231Y42469D02*
D03*
X76800Y48400D02*
D03*
X80400Y42800D02*
D03*
X80300Y42300D02*
D03*
X76800Y48000D02*
D03*
X74300Y46700D02*
D03*
X78800Y42000D02*
D03*
X74600Y46400D02*
D03*
X77481Y41019D02*
D03*
X74628Y45828D02*
D03*
X74300Y45563D02*
D03*
X75731Y44131D02*
D03*
X76200Y49400D02*
D03*
X74800Y48900D02*
D03*
X76200Y48300D02*
D03*
X74600Y47000D02*
D03*
X76184Y46616D02*
D03*
X76100Y46000D02*
D03*
X74700Y44100D02*
D03*
X73581Y44019D02*
D03*
X72100Y43700D02*
D03*
X74000Y45300D02*
D03*
X73384Y45184D02*
D03*
X72100Y45200D02*
D03*
X71400Y44000D02*
D03*
X70800Y43900D02*
D03*
X70500Y45200D02*
D03*
X62200Y45800D02*
D03*
X66000Y54000D02*
D03*
X65700Y54800D02*
D03*
X65200Y55500D02*
D03*
X66900Y54600D02*
D03*
X64300Y44200D02*
D03*
Y44600D02*
D03*
X64200Y47800D02*
D03*
X58551Y48849D02*
D03*
X58351Y49951D02*
D03*
X63900Y47300D02*
D03*
X58800Y47100D02*
D03*
X58449Y46449D02*
D03*
X57149Y44551D02*
D03*
X63400Y56000D02*
D03*
X59200Y47500D02*
D03*
X59350Y47950D02*
D03*
X59300Y44200D02*
D03*
Y43700D02*
D03*
X61800Y48900D02*
D03*
X60750Y46950D02*
D03*
X59100Y46400D02*
D03*
X59150Y45950D02*
D03*
X62950Y46450D02*
D03*
X63800Y46200D02*
D03*
X63850Y45450D02*
D03*
X63900Y43700D02*
D03*
X62850Y43450D02*
D03*
Y42950D02*
D03*
X64800Y42200D02*
D03*
X64350Y42450D02*
D03*
X63500Y54900D02*
D03*
X64000Y42700D02*
D03*
X66000Y53300D02*
D03*
X61600Y45700D02*
D03*
X63100Y54900D02*
D03*
X61300Y45900D02*
D03*
X65000Y50200D02*
D03*
X61000Y46200D02*
D03*
X65300Y51100D02*
D03*
X60700Y46500D02*
D03*
X61800Y48400D02*
D03*
X61500Y53600D02*
D03*
X34700Y55400D02*
D03*
X26500Y50800D02*
D03*
X35809Y62591D02*
D03*
X34700Y61000D02*
D03*
X37600Y62000D02*
D03*
X35300D02*
D03*
X35800Y61000D02*
D03*
X32600Y58700D02*
D03*
X32700Y42000D02*
D03*
X33800Y42300D02*
D03*
X32632Y42568D02*
D03*
X36952Y51948D02*
D03*
X38800Y53800D02*
D03*
X37900Y55000D02*
D03*
X35160Y50640D02*
D03*
X39800Y51600D02*
D03*
X39000Y48400D02*
D03*
Y50800D02*
D03*
X38100Y51600D02*
D03*
X60000Y53800D02*
D03*
X59800Y53400D02*
D03*
X59300Y53900D02*
D03*
X58800Y54000D02*
D03*
X55387Y55013D02*
D03*
X57213Y56587D02*
D03*
X58891Y56391D02*
D03*
X60500Y58013D02*
D03*
X60300Y59500D02*
D03*
X60800Y61500D02*
D03*
X61100Y62700D02*
D03*
X61600Y57900D02*
D03*
X57400Y56900D02*
D03*
X58500Y56800D02*
D03*
X58600Y54900D02*
D03*
X58778Y54422D02*
D03*
X57400Y54700D02*
D03*
X58800Y53300D02*
D03*
X59622Y52222D02*
D03*
X60000Y52200D02*
D03*
X60700Y53400D02*
D03*
X61900Y52100D02*
D03*
X62100Y53400D02*
D03*
X62500D02*
D03*
X63300Y52200D02*
D03*
X62300D02*
D03*
X64562Y53438D02*
D03*
X63300Y55400D02*
D03*
X63400Y54000D02*
D03*
X64800Y54400D02*
D03*
X64600Y54900D02*
D03*
X64691Y56391D02*
D03*
X63400Y57200D02*
D03*
X64600Y57500D02*
D03*
X62300Y59400D02*
D03*
X62100Y58300D02*
D03*
X61900Y59400D02*
D03*
X60000Y58200D02*
D03*
X59100D02*
D03*
X59700Y59400D02*
D03*
X47300Y57900D02*
D03*
X47800Y58100D02*
D03*
X45600Y56500D02*
D03*
X45400Y56900D02*
D03*
X44000Y57100D02*
D03*
X50000Y54200D02*
D03*
X51500Y54700D02*
D03*
X50200Y56000D02*
D03*
X51500Y56300D02*
D03*
X49800Y53500D02*
D03*
X49300Y52200D02*
D03*
X49100Y53400D02*
D03*
X47200Y53600D02*
D03*
X46900Y52200D02*
D03*
X45600Y52000D02*
D03*
X44200Y53500D02*
D03*
X45500Y54200D02*
D03*
X44219Y54619D02*
D03*
X45500Y54900D02*
D03*
Y56100D02*
D03*
X44100Y56700D02*
D03*
X45600Y57500D02*
D03*
X51500Y54300D02*
D03*
X50200Y54600D02*
D03*
X50100Y55200D02*
D03*
X50300Y56800D02*
D03*
X50200Y57700D02*
D03*
X51400Y57100D02*
D03*
X48700Y58300D02*
D03*
X48784Y59384D02*
D03*
X49200Y58100D02*
D03*
X48200Y58000D02*
D03*
X46800Y58300D02*
D03*
X47200Y59600D02*
D03*
X46200Y58100D02*
D03*
X46600Y59400D02*
D03*
X23900Y51300D02*
D03*
X26500Y57800D02*
D03*
Y52200D02*
D03*
Y53600D02*
D03*
Y55000D02*
D03*
Y56400D02*
D03*
X26240Y62040D02*
D03*
X23900Y52700D02*
D03*
X25300Y61300D02*
D03*
X23800Y54100D02*
D03*
X25100Y61600D02*
D03*
X23900Y55500D02*
D03*
X25472Y62372D02*
D03*
X23900Y56900D02*
D03*
X24800Y62200D02*
D03*
X23700Y58300D02*
D03*
X24300Y62200D02*
D03*
X23900Y59700D02*
D03*
Y62700D02*
D03*
X25200Y66900D02*
D03*
X24704Y35696D02*
D03*
X26800Y36200D02*
D03*
X23812Y49912D02*
D03*
X23700Y48500D02*
D03*
X26000Y38200D02*
D03*
X26496Y36804D02*
D03*
X23800Y47000D02*
D03*
Y45700D02*
D03*
X25984Y36716D02*
D03*
X23800Y44300D02*
D03*
X25300Y38600D02*
D03*
X23700Y43100D02*
D03*
X25472Y36728D02*
D03*
X23800Y41600D02*
D03*
X24200Y39200D02*
D03*
X23712Y40112D02*
D03*
X23900Y38600D02*
D03*
X36800Y60900D02*
D03*
X37335Y56035D02*
D03*
X34100Y56700D02*
D03*
X33900Y58300D02*
D03*
X33868Y58968D02*
D03*
X28100Y39700D02*
D03*
X32220Y40520D02*
D03*
X32300Y40000D02*
D03*
X28200Y46100D02*
D03*
X30600Y40200D02*
D03*
X31500Y48700D02*
D03*
X25600Y39600D02*
D03*
X33900Y37800D02*
D03*
X25600Y41000D02*
D03*
X33900Y38300D02*
D03*
X25700Y42400D02*
D03*
X33800Y38800D02*
D03*
X25600Y43800D02*
D03*
Y45200D02*
D03*
Y46600D02*
D03*
X25700Y48000D02*
D03*
X25600Y49400D02*
D03*
X27400Y43500D02*
D03*
X29100Y45200D02*
D03*
X27400Y48800D02*
D03*
X31000Y50100D02*
D03*
X33900Y47900D02*
D03*
X28300Y51000D02*
D03*
Y56900D02*
D03*
X31700Y52300D02*
D03*
X30300Y58700D02*
D03*
X33709Y48691D02*
D03*
X31300Y54200D02*
D03*
X33200Y52700D02*
D03*
X31800Y53200D02*
D03*
X27400Y54200D02*
D03*
X34300Y52500D02*
D03*
X31576Y60024D02*
D03*
X33700Y53600D02*
D03*
X27400Y59700D02*
D03*
X24656Y60856D02*
D03*
X24644Y59456D02*
D03*
X24656Y58056D02*
D03*
X24644Y56656D02*
D03*
Y55256D02*
D03*
Y53856D02*
D03*
X24656Y52456D02*
D03*
Y51056D02*
D03*
X24644Y49656D02*
D03*
X24656Y48256D02*
D03*
X24644Y46856D02*
D03*
X24656Y45456D02*
D03*
X24644Y44056D02*
D03*
Y42656D02*
D03*
X24656Y41256D02*
D03*
X24644Y39856D02*
D03*
X25700Y60600D02*
D03*
X31300Y58700D02*
D03*
X31500Y58000D02*
D03*
X25700Y59200D02*
D03*
X31500Y57500D02*
D03*
X29420Y56920D02*
D03*
X29200Y55900D02*
D03*
X30100Y55100D02*
D03*
X31800Y54100D02*
D03*
X46422Y53222D02*
D03*
X37809Y48691D02*
D03*
X44100Y52800D02*
D03*
X46300Y51500D02*
D03*
X46100Y53400D02*
D03*
X45600Y53700D02*
D03*
Y55700D02*
D03*
X43800Y54800D02*
D03*
X45700Y55200D02*
D03*
X38865Y59735D02*
D03*
X40200Y57500D02*
D03*
X26100Y67100D02*
D03*
X25472Y65472D02*
D03*
X26496Y62804D02*
D03*
X35100Y46800D02*
D03*
X37800Y46400D02*
D03*
X36100Y46800D02*
D03*
X31300Y46900D02*
D03*
X35000Y45600D02*
D03*
X36500Y46100D02*
D03*
X35912Y44600D02*
D03*
X36424D02*
D03*
X35144Y44500D02*
D03*
X38100Y45400D02*
D03*
X37100Y46000D02*
D03*
X37391Y44609D02*
D03*
X36800Y44500D02*
D03*
X36168Y43432D02*
D03*
X35400Y43500D02*
D03*
X31100Y41800D02*
D03*
X31200Y42223D02*
D03*
X33200Y45800D02*
D03*
X32000D02*
D03*
X25728Y34228D02*
D03*
X24311Y37489D02*
D03*
X29400Y61000D02*
D03*
Y55000D02*
D03*
Y49500D02*
D03*
X29900Y44100D02*
D03*
X36935Y39135D02*
D03*
X38135Y40265D02*
D03*
X42700Y46400D02*
D03*
X43200Y54600D02*
D03*
X42909Y55209D02*
D03*
X40600Y48500D02*
D03*
X35174Y54026D02*
D03*
X34800Y54800D02*
D03*
X41672Y54028D02*
D03*
X27300Y65500D02*
D03*
X23100Y37200D02*
D03*
X22900Y64100D02*
D03*
X43400Y50400D02*
D03*
Y53400D02*
D03*
X22500Y65200D02*
D03*
X25100Y33500D02*
D03*
X72200Y50000D02*
D03*
Y52200D02*
D03*
X71613Y54613D02*
D03*
X71200Y54200D02*
D03*
Y59800D02*
D03*
X70825Y49775D02*
D03*
X70900Y59400D02*
D03*
X70628Y54572D02*
D03*
X57100Y36800D02*
D03*
X61100D02*
D03*
X62226Y37626D02*
D03*
X64974Y36426D02*
D03*
X64453Y37847D02*
D03*
X61600Y39300D02*
D03*
Y40100D02*
D03*
X65100Y40200D02*
D03*
X65835Y38935D02*
D03*
X60800Y37700D02*
D03*
X61500Y37800D02*
D03*
X63600Y39300D02*
D03*
X47600Y53700D02*
D03*
X58500Y39400D02*
D03*
X46700Y53600D02*
D03*
X64000Y58600D02*
D03*
X74700Y49300D02*
D03*
X74331Y49569D02*
D03*
X74165Y54335D02*
D03*
X73100Y64500D02*
D03*
X69100Y58200D02*
D03*
X68700Y45100D02*
D03*
X68668Y45631D02*
D03*
X69400Y57600D02*
D03*
X68200Y59800D02*
D03*
X63500Y63800D02*
D03*
X73100Y53500D02*
D03*
X57700Y64300D02*
D03*
X63900Y65800D02*
D03*
X59800Y57900D02*
D03*
X59425Y59575D02*
D03*
X59700Y59900D02*
D03*
X60400Y60200D02*
D03*
X60600Y60500D02*
D03*
X61000Y62200D02*
D03*
X60800Y60900D02*
D03*
X60600Y62200D02*
D03*
X58500Y60700D02*
D03*
X58978Y57178D02*
D03*
X57035Y58135D02*
D03*
X55000Y56850D02*
D03*
X64800Y61400D02*
D03*
X62900Y62100D02*
D03*
X55800Y54700D02*
D03*
X55735Y54135D02*
D03*
X59200Y51800D02*
D03*
X60000Y50600D02*
D03*
X60700Y51700D02*
D03*
X56500Y51000D02*
D03*
X59335Y50635D02*
D03*
X66865Y59935D02*
D03*
X62600Y64000D02*
D03*
X64100Y59200D02*
D03*
X57700Y63700D02*
D03*
X51600Y53300D02*
D03*
X49300Y62800D02*
D03*
X52200Y59600D02*
D03*
X53200Y62900D02*
D03*
X46000Y61300D02*
D03*
X47100Y61700D02*
D03*
X43500Y60200D02*
D03*
X43100D02*
D03*
X44778Y58422D02*
D03*
X42800Y58900D02*
D03*
X45300Y58100D02*
D03*
X42800Y57900D02*
D03*
X43400Y56900D02*
D03*
X42765Y59535D02*
D03*
X45635Y59665D02*
D03*
X46900Y62200D02*
D03*
X49000Y63200D02*
D03*
X54400Y63500D02*
D03*
X52600Y51800D02*
D03*
X54000Y52600D02*
D03*
X58000Y58800D02*
D03*
X61300Y63500D02*
D03*
X54235Y50135D02*
D03*
X54700Y59500D02*
D03*
X53200Y60600D02*
D03*
X58600Y64000D02*
D03*
X60400D02*
D03*
X58300Y64600D02*
D03*
X63800Y62300D02*
D03*
X65200Y57300D02*
D03*
X48900Y57200D02*
D03*
X48400Y61900D02*
D03*
X71500Y67100D02*
D03*
Y64300D02*
D03*
X66500Y58200D02*
D03*
X71981Y40981D02*
D03*
X72500Y41500D02*
D03*
X74981Y41181D02*
D03*
X75700Y44800D02*
D03*
X75481Y39419D02*
D03*
X80396Y65496D02*
D03*
X78700Y63400D02*
D03*
X78072Y64472D02*
D03*
X78040Y65240D02*
D03*
X81996Y57296D02*
D03*
X79300Y56200D02*
D03*
X79500Y55600D02*
D03*
X81896Y54096D02*
D03*
X80000Y53900D02*
D03*
X79360Y53840D02*
D03*
X79500Y53200D02*
D03*
X78711Y52011D02*
D03*
X81996Y46296D02*
D03*
X79400Y44300D02*
D03*
X79600Y45000D02*
D03*
X80500Y61300D02*
D03*
X81600Y62600D02*
D03*
X80539Y61939D02*
D03*
X80500Y60900D02*
D03*
Y60400D02*
D03*
X81866Y59734D02*
D03*
X81400Y58500D02*
D03*
X82000Y50200D02*
D03*
X81000Y51500D02*
D03*
X80500Y50400D02*
D03*
X81700Y47400D02*
D03*
X80500Y49200D02*
D03*
X80494Y49794D02*
D03*
X80800Y47300D02*
D03*
X82100Y48450D02*
D03*
X81000Y58400D02*
D03*
X80900Y58000D02*
D03*
X89384Y64984D02*
D03*
X86804Y65496D02*
D03*
X88400Y64000D02*
D03*
X89700Y63400D02*
D03*
X89404Y65496D02*
D03*
X88300Y56000D02*
D03*
X89300Y57400D02*
D03*
X89500Y58000D02*
D03*
X89384Y53784D02*
D03*
X90696Y52504D02*
D03*
X88300Y52700D02*
D03*
X88196Y54296D02*
D03*
X88400Y44500D02*
D03*
X88500Y45100D02*
D03*
X90200Y46400D02*
D03*
X87900D02*
D03*
X44260Y44660D02*
D03*
X42840D02*
D03*
X43600Y41400D02*
D03*
X46000D02*
D03*
Y42900D02*
D03*
X45360Y44660D02*
D03*
X46000Y45400D02*
D03*
X55060Y44060D02*
D03*
X54400Y40700D02*
D03*
X53660Y41540D02*
D03*
X52940D02*
D03*
X52200Y40800D02*
D03*
X53000Y44400D02*
D03*
X51400Y43700D02*
D03*
X70060Y43140D02*
D03*
Y41540D02*
D03*
X67540Y43140D02*
D03*
X66800Y42600D02*
D03*
X76200Y56200D02*
D03*
Y52200D02*
D03*
X75540Y52940D02*
D03*
X72600Y55100D02*
D03*
X73400Y55800D02*
D03*
X70300Y54900D02*
D03*
X68149Y56649D02*
D03*
Y52649D02*
D03*
Y54249D02*
D03*
X67409Y55909D02*
D03*
X72840Y58540D02*
D03*
X72500Y60300D02*
D03*
Y61800D02*
D03*
X75040Y65860D02*
D03*
Y63340D02*
D03*
X75800Y62500D02*
D03*
X76560Y65860D02*
D03*
X32991Y61891D02*
D03*
X32700Y60500D02*
D03*
X33500Y60200D02*
D03*
X34000Y61000D02*
D03*
Y61700D02*
D03*
X29400Y40200D02*
D03*
Y51500D02*
D03*
X29600Y45700D02*
D03*
X31991Y44809D02*
D03*
X29600Y57200D02*
D03*
X28600Y65000D02*
D03*
X29619Y64619D02*
D03*
X31200Y61200D02*
D03*
X31809Y61891D02*
D03*
X32500Y35000D02*
D03*
X32400Y42300D02*
D03*
X33200Y45000D02*
D03*
X33710Y34110D02*
D03*
X33800Y36200D02*
D03*
Y57800D02*
D03*
X59000Y55000D02*
D03*
X58994Y55406D02*
D03*
X57000Y56300D02*
D03*
X56700Y56100D02*
D03*
X57300Y55500D02*
D03*
X52200Y61700D02*
D03*
X56200Y56100D02*
D03*
X58800Y55800D02*
D03*
X51300Y64200D02*
D03*
X51700Y65000D02*
D03*
X26532Y61368D02*
D03*
Y59968D02*
D03*
Y58568D02*
D03*
Y57168D02*
D03*
Y55768D02*
D03*
X26468Y54368D02*
D03*
Y52968D02*
D03*
Y51568D02*
D03*
X26532Y50168D02*
D03*
X26568Y48768D02*
D03*
Y47368D02*
D03*
X26600Y45800D02*
D03*
X26568Y44568D02*
D03*
Y43168D02*
D03*
X26432Y41768D02*
D03*
X26568Y40368D02*
D03*
X62500Y54100D02*
D03*
X63900Y50100D02*
D03*
X66300Y43100D02*
D03*
X58600Y63100D02*
D03*
X51100Y39000D02*
D03*
X49400Y42400D02*
D03*
X48900Y44000D02*
D03*
X50500Y43200D02*
D03*
X36335Y50635D02*
D03*
X33700Y51500D02*
D03*
X35902Y53202D02*
D03*
X36400Y54100D02*
D03*
X52900Y45800D02*
D03*
X60250Y46450D02*
D03*
X64300Y48200D02*
D03*
X78100Y47100D02*
D03*
X78400Y46800D02*
D03*
X45000Y46300D02*
D03*
X44900Y49820D02*
D03*
X78900Y47300D02*
D03*
X79000Y62700D02*
D03*
X42880Y61940D02*
D03*
X41320Y64460D02*
D03*
X42200Y61140D02*
D03*
X90400Y42900D02*
D03*
X87940Y42840D02*
D03*
X90460Y41160D02*
D03*
X87940Y41260D02*
D03*
X82865Y64535D02*
D03*
Y63865D02*
D03*
X26240Y66740D02*
D03*
X24704Y66796D02*
D03*
X26496Y34304D02*
D03*
X24960Y34240D02*
D03*
M02*
