%FSLAX24Y24*%
%MOIN*%
G70*
G01*
G75*
%ADD10C,0.0080*%
%ADD11R,0.0157X0.0846*%
%ADD12R,0.0157X0.0846*%
%ADD13R,0.0945X0.1024*%
%ADD14R,0.0650X0.0085*%
%ADD15R,0.0846X0.0157*%
%ADD16R,0.0394X0.0433*%
%ADD17R,0.0118X0.0610*%
%ADD18R,0.0846X0.0157*%
%ADD19R,0.0610X0.0118*%
%ADD20R,0.0600X0.0150*%
%ADD21O,0.0600X0.0150*%
%ADD22R,0.0236X0.0866*%
%ADD23R,0.0433X0.0394*%
%ADD24R,0.0866X0.0787*%
%ADD25R,0.0787X0.0866*%
%ADD26R,0.0157X0.0630*%
%ADD27R,0.0630X0.0157*%
%ADD28R,0.0709X0.0630*%
%ADD29R,0.0709X0.0709*%
%ADD30R,0.0512X0.0591*%
%ADD31R,0.0591X0.0512*%
%ADD32R,0.0807X0.0236*%
%ADD33R,0.1024X0.0945*%
%ADD34R,0.1000X0.1400*%
%ADD35R,0.0300X0.0600*%
%ADD36R,0.1417X0.0315*%
%ADD37R,0.1240X0.1360*%
%ADD38R,0.0173X0.0787*%
%ADD39R,0.0173X0.0787*%
%ADD40R,0.0984X0.2362*%
%ADD41O,0.0394X0.0170*%
%ADD42R,0.0394X0.0170*%
%ADD43R,0.0394X0.0236*%
%ADD44R,0.0177X0.0807*%
%ADD45R,0.0177X0.0807*%
%ADD46C,0.0100*%
%ADD47C,0.0160*%
%ADD48C,0.0070*%
%ADD49C,0.0110*%
%ADD50C,0.0200*%
%ADD51C,0.0120*%
%ADD52C,0.0300*%
%ADD53C,0.0400*%
%ADD54C,0.0500*%
%ADD55C,0.1260*%
%ADD56C,0.1000*%
%ADD57C,0.1800*%
%ADD58C,0.0600*%
%ADD59R,0.0591X0.0591*%
%ADD60C,0.0591*%
%ADD61C,0.1300*%
%ADD62C,0.0550*%
%ADD63C,0.1024*%
%ADD64C,0.0551*%
%ADD65C,0.0250*%
%ADD66C,0.0079*%
%ADD67C,0.0098*%
%ADD68C,0.0060*%
%ADD69C,0.0098*%
%ADD70C,0.0039*%
%ADD71R,0.0079X0.0197*%
%ADD72R,0.0079X0.0197*%
%ADD73C,0.0020*%
%ADD74R,0.0197X0.0079*%
%ADD75R,0.0197X0.0079*%
D10*
X61663Y42075D02*
G03*
X61537Y42075I-63J0D01*
G01*
X61663D02*
X62770D01*
X60430D02*
X61537D01*
X60430D02*
Y49075D01*
X62770D01*
Y42075D02*
Y49075D01*
X65170Y65030D02*
Y69431D01*
X44250Y65030D02*
Y69431D01*
X65170D01*
X44250Y65030D02*
X65170D01*
X21783Y60400D02*
X21700Y60483D01*
Y60650D01*
X21783Y60733D01*
X21867D01*
X21950Y60650D01*
Y60567D01*
Y60650D01*
X22033Y60733D01*
X22117D01*
X22200Y60650D01*
Y60483D01*
X22117Y60400D01*
Y60900D02*
X22200Y60983D01*
Y61150D01*
X22117Y61233D01*
X21783D01*
X21700Y61150D01*
Y60983D01*
X21783Y60900D01*
X21867D01*
X21950Y60983D01*
Y61233D01*
X21200Y60650D02*
X20700D01*
X20950Y60400D01*
Y60733D01*
X20783Y60900D02*
X20700Y60983D01*
Y61150D01*
X20783Y61233D01*
X21117D01*
X21200Y61150D01*
Y60983D01*
X21117Y60900D01*
X20783D01*
X21200Y39933D02*
Y39600D01*
X20867Y39933D01*
X20783D01*
X20700Y39850D01*
Y39683D01*
X20783Y39600D01*
X22200D02*
Y39767D01*
Y39683D01*
X21700D01*
X21783Y39600D01*
X93600Y44400D02*
Y44567D01*
Y44483D01*
X93100D01*
X93183Y44400D01*
X92600Y44733D02*
Y44400D01*
X92267Y44733D01*
X92183D01*
X92100Y44650D01*
Y44483D01*
X92183Y44400D01*
X92600Y65450D02*
X92100D01*
X92350Y65200D01*
Y65533D01*
X92183Y65700D02*
X92100Y65783D01*
Y65950D01*
X92183Y66033D01*
X92517D01*
X92600Y65950D01*
Y65783D01*
X92517Y65700D01*
X92183D01*
X93183Y65200D02*
X93100Y65283D01*
Y65450D01*
X93183Y65533D01*
X93267D01*
X93350Y65450D01*
Y65367D01*
Y65450D01*
X93433Y65533D01*
X93517D01*
X93600Y65450D01*
Y65283D01*
X93517Y65200D01*
Y65700D02*
X93600Y65783D01*
Y65950D01*
X93517Y66033D01*
X93183D01*
X93100Y65950D01*
Y65783D01*
X93183Y65700D01*
X93267D01*
X93350Y65783D01*
Y66033D01*
X85400Y44400D02*
Y44567D01*
Y44483D01*
X84900D01*
X84983Y44400D01*
X84400Y44733D02*
Y44400D01*
X84067Y44733D01*
X83983D01*
X83900Y44650D01*
Y44483D01*
X83983Y44400D01*
X84400Y65450D02*
X83900D01*
X84150Y65200D01*
Y65533D01*
X83983Y65700D02*
X83900Y65783D01*
Y65950D01*
X83983Y66033D01*
X84317D01*
X84400Y65950D01*
Y65783D01*
X84317Y65700D01*
X83983D01*
X84983Y65200D02*
X84900Y65283D01*
Y65450D01*
X84983Y65533D01*
X85067D01*
X85150Y65450D01*
Y65367D01*
Y65450D01*
X85233Y65533D01*
X85317D01*
X85400Y65450D01*
Y65283D01*
X85317Y65200D01*
Y65700D02*
X85400Y65783D01*
Y65950D01*
X85317Y66033D01*
X84983D01*
X84900Y65950D01*
Y65783D01*
X84983Y65700D01*
X85067D01*
X85150Y65783D01*
Y66033D01*
D46*
X46449Y33000D02*
Y36937D01*
X55111D01*
X55898D01*
Y31425D02*
Y36937D01*
X46449Y31425D02*
X51174D01*
X46449D02*
Y33000D01*
X51174Y31425D02*
X55898D01*
X90800Y67125D02*
Y69275D01*
X81200Y67125D02*
X90800D01*
X81200D02*
Y69275D01*
X90800D01*
X65600Y45430D02*
Y45666D01*
X66939D01*
X67017D01*
Y45509D02*
Y45666D01*
Y45430D02*
Y45509D01*
X65600Y40312D02*
Y40548D01*
Y40312D02*
X67017D01*
Y40548D01*
X61400Y30800D02*
Y34200D01*
X65400Y30800D02*
Y34200D01*
X61400Y35200D02*
X61600D01*
Y35000D02*
Y35200D01*
Y35000D02*
X62200D01*
Y35200D01*
X62900D01*
Y35000D02*
Y35200D01*
Y35000D02*
X63900D01*
Y35200D01*
X64600D01*
Y35000D02*
Y35200D01*
Y35000D02*
X65200D01*
Y35200D01*
X65400D01*
Y34200D02*
Y35200D01*
X61400Y34100D02*
Y35200D01*
Y30500D02*
Y31200D01*
Y30500D02*
X65400D01*
Y30800D01*
X61400Y30900D02*
X61800Y30500D01*
X65000D02*
X65400Y30900D01*
X57400Y30800D02*
Y34200D01*
X61400Y30800D02*
Y34200D01*
X57400Y35200D02*
X57600D01*
Y35000D02*
Y35200D01*
Y35000D02*
X58200D01*
Y35200D01*
X58900D01*
Y35000D02*
Y35200D01*
Y35000D02*
X59900D01*
Y35200D01*
X60600D01*
Y35000D02*
Y35200D01*
Y35000D02*
X61200D01*
Y35200D01*
X61400D01*
Y34200D02*
Y35200D01*
X57400Y34100D02*
Y35200D01*
Y30500D02*
Y31200D01*
Y30500D02*
X61400D01*
Y30800D01*
X57400Y30900D02*
X57800Y30500D01*
X61000D02*
X61400Y30900D01*
X52000Y47000D02*
Y48400D01*
X54800D01*
Y47000D02*
Y48400D01*
X52000Y47000D02*
X54800D01*
X32611Y63346D02*
Y64606D01*
X29422Y63346D02*
X32611D01*
X28989Y63780D02*
X29422Y63346D01*
X28989Y63780D02*
Y64606D01*
Y65394D02*
Y66220D01*
X29383Y66614D01*
X32611D01*
Y65394D02*
Y66614D01*
X38030Y34000D02*
Y35000D01*
X32770Y34000D02*
X38030D01*
X32770D02*
Y36000D01*
X38030D01*
Y35000D02*
Y36000D01*
X73600Y58900D02*
X76400D01*
Y60300D01*
X73600D02*
X76400D01*
X73600Y58900D02*
Y60300D01*
X43600Y47500D02*
X46400D01*
Y48900D01*
X43600D02*
X46400D01*
X43600Y47500D02*
Y48900D01*
X75900Y33800D02*
Y33400D01*
X76100D01*
X76167Y33467D01*
Y33533D01*
X76100Y33600D01*
X75900D01*
X76100D01*
X76167Y33667D01*
Y33733D01*
X76100Y33800D01*
X75900D01*
X76367Y33400D02*
X76500D01*
X76566Y33467D01*
Y33600D01*
X76500Y33667D01*
X76367D01*
X76300Y33600D01*
Y33467D01*
X76367Y33400D01*
X76766D02*
X76900D01*
X76966Y33467D01*
Y33600D01*
X76900Y33667D01*
X76766D01*
X76700Y33600D01*
Y33467D01*
X76766Y33400D01*
X77166Y33733D02*
Y33667D01*
X77100D01*
X77233D01*
X77166D01*
Y33467D01*
X77233Y33400D01*
X78099Y33733D02*
X78033Y33800D01*
X77899D01*
X77833Y33733D01*
Y33467D01*
X77899Y33400D01*
X78033D01*
X78099Y33467D01*
X78499Y33800D02*
X78233D01*
Y33600D01*
X78366D01*
X78233D01*
Y33400D01*
X90900Y46700D02*
X91300D01*
Y46900D01*
X91233Y46967D01*
X90967D01*
X90900Y46900D01*
Y46700D01*
X91300Y47100D02*
Y47233D01*
Y47167D01*
X91033D01*
Y47100D01*
X91433Y47566D02*
Y47633D01*
X91367Y47700D01*
X91033D01*
Y47500D01*
X91100Y47433D01*
X91233D01*
X91300Y47500D01*
Y47700D01*
Y47833D02*
Y47966D01*
Y47900D01*
X91033D01*
Y47833D01*
X90967Y48233D02*
X91033D01*
Y48166D01*
Y48299D01*
Y48233D01*
X91233D01*
X91300Y48299D01*
X91033Y48566D02*
Y48699D01*
X91100Y48766D01*
X91300D01*
Y48566D01*
X91233Y48499D01*
X91167Y48566D01*
Y48766D01*
X91300Y48899D02*
Y49033D01*
Y48966D01*
X90900D01*
Y48899D01*
Y49632D02*
Y49766D01*
Y49699D01*
X91300D01*
Y49632D01*
Y49766D01*
Y49966D02*
X91033D01*
Y50166D01*
X91100Y50232D01*
X91300D01*
X91433Y50365D02*
X91033D01*
Y50565D01*
X91100Y50632D01*
X91233D01*
X91300Y50565D01*
Y50365D01*
X91033Y50765D02*
X91233D01*
X91300Y50832D01*
Y51032D01*
X91033D01*
X90967Y51232D02*
X91033D01*
Y51165D01*
Y51299D01*
Y51232D01*
X91233D01*
X91300Y51299D01*
X82600Y46300D02*
X83000D01*
Y46500D01*
X82933Y46567D01*
X82667D01*
X82600Y46500D01*
Y46300D01*
X83000Y46700D02*
Y46833D01*
Y46767D01*
X82733D01*
Y46700D01*
X83133Y47166D02*
Y47233D01*
X83067Y47300D01*
X82733D01*
Y47100D01*
X82800Y47033D01*
X82933D01*
X83000Y47100D01*
Y47300D01*
Y47433D02*
Y47566D01*
Y47500D01*
X82733D01*
Y47433D01*
X82667Y47833D02*
X82733D01*
Y47766D01*
Y47899D01*
Y47833D01*
X82933D01*
X83000Y47899D01*
X82733Y48166D02*
Y48299D01*
X82800Y48366D01*
X83000D01*
Y48166D01*
X82933Y48099D01*
X82867Y48166D01*
Y48366D01*
X83000Y48499D02*
Y48633D01*
Y48566D01*
X82600D01*
Y48499D01*
Y49432D02*
Y49299D01*
X82667Y49232D01*
X82933D01*
X83000Y49299D01*
Y49432D01*
X82933Y49499D01*
X82667D01*
X82600Y49432D01*
X82733Y49632D02*
X82933D01*
X83000Y49699D01*
Y49899D01*
X82733D01*
X82667Y50099D02*
X82733D01*
Y50032D01*
Y50165D01*
Y50099D01*
X82933D01*
X83000Y50165D01*
X83133Y50365D02*
X82733D01*
Y50565D01*
X82800Y50632D01*
X82933D01*
X83000Y50565D01*
Y50365D01*
X82733Y50765D02*
X82933D01*
X83000Y50832D01*
Y51032D01*
X82733D01*
X82667Y51232D02*
X82733D01*
Y51165D01*
Y51298D01*
Y51232D01*
X82933D01*
X83000Y51298D01*
X77200Y68000D02*
Y68267D01*
X77333Y68400D01*
X77467Y68267D01*
Y68000D01*
Y68200D01*
X77200D01*
X77600Y68400D02*
Y68067D01*
X77667Y68000D01*
X77800D01*
X77866Y68067D01*
Y68400D01*
X78000D02*
X78266Y68000D01*
Y68400D02*
X78000Y68000D01*
X78799D02*
Y68400D01*
X78999D01*
X79066Y68333D01*
Y68200D01*
X78999Y68133D01*
X78799D01*
X79266Y68000D02*
X79399D01*
X79466Y68067D01*
Y68200D01*
X79399Y68267D01*
X79266D01*
X79199Y68200D01*
Y68067D01*
X79266Y68000D01*
X79599Y68267D02*
Y68067D01*
X79666Y68000D01*
X79733Y68067D01*
X79799Y68000D01*
X79866Y68067D01*
Y68267D01*
X80199Y68000D02*
X80066D01*
X79999Y68067D01*
Y68200D01*
X80066Y68267D01*
X80199D01*
X80266Y68200D01*
Y68133D01*
X79999D01*
X80399Y68267D02*
Y68000D01*
Y68133D01*
X80466Y68200D01*
X80532Y68267D01*
X80599D01*
X23300Y56800D02*
X23033D01*
X22900Y56933D01*
X23033Y57067D01*
X23300D01*
X23100D01*
Y56800D01*
X23300Y57200D02*
X23033D01*
Y57400D01*
X23100Y57466D01*
X23300D01*
X23033Y57666D02*
Y57800D01*
X23100Y57866D01*
X23300D01*
Y57666D01*
X23233Y57600D01*
X23167Y57666D01*
Y57866D01*
X23300Y58000D02*
Y58133D01*
Y58066D01*
X22900D01*
Y58000D01*
X23300Y58399D02*
Y58533D01*
X23233Y58599D01*
X23100D01*
X23033Y58533D01*
Y58399D01*
X23100Y58333D01*
X23233D01*
X23300Y58399D01*
X23433Y58866D02*
Y58933D01*
X23367Y58999D01*
X23033D01*
Y58799D01*
X23100Y58733D01*
X23233D01*
X23300Y58799D01*
Y58999D01*
X22900Y59532D02*
Y59666D01*
Y59599D01*
X23300D01*
Y59532D01*
Y59666D01*
X22900Y60066D02*
Y59932D01*
X22967Y59866D01*
X23233D01*
X23300Y59932D01*
Y60066D01*
X23233Y60132D01*
X22967D01*
X22900Y60066D01*
D47*
X28300Y33071D02*
X28214Y33157D01*
X28086Y33200D01*
X27914D01*
X27786Y33157D01*
X27700Y33071D01*
Y32986D01*
X27743Y32900D01*
X27786Y32857D01*
X27871Y32814D01*
X28128Y32728D01*
X28214Y32686D01*
X28257Y32643D01*
X28300Y32557D01*
Y32429D01*
X28214Y32343D01*
X28086Y32300D01*
X27914D01*
X27786Y32343D01*
X27700Y32429D01*
X28758Y33200D02*
X28673Y33157D01*
X28587Y33071D01*
X28544Y32986D01*
X28501Y32857D01*
Y32643D01*
X28544Y32514D01*
X28587Y32429D01*
X28673Y32343D01*
X28758Y32300D01*
X28930D01*
X29015Y32343D01*
X29101Y32429D01*
X29144Y32514D01*
X29187Y32643D01*
Y32857D01*
X29144Y32986D01*
X29101Y33071D01*
X29015Y33157D01*
X28930Y33200D01*
X28758D01*
X29397D02*
Y32300D01*
Y33200D02*
X29740Y32300D01*
X30082Y33200D02*
X29740Y32300D01*
X30082Y33200D02*
Y32300D01*
X31025D02*
X30682Y33200D01*
X30339Y32300D01*
X30468Y32600D02*
X30896D01*
X31942Y33200D02*
Y32300D01*
Y33200D02*
X32328D01*
X32456Y33157D01*
X32499Y33114D01*
X32542Y33028D01*
Y32943D01*
X32499Y32857D01*
X32456Y32814D01*
X32328Y32771D01*
X31942D02*
X32328D01*
X32456Y32728D01*
X32499Y32686D01*
X32542Y32600D01*
Y32471D01*
X32499Y32386D01*
X32456Y32343D01*
X32328Y32300D01*
X31942D01*
X33257Y32900D02*
Y32300D01*
Y32771D02*
X33172Y32857D01*
X33086Y32900D01*
X32957D01*
X32872Y32857D01*
X32786Y32771D01*
X32743Y32643D01*
Y32557D01*
X32786Y32429D01*
X32872Y32343D01*
X32957Y32300D01*
X33086D01*
X33172Y32343D01*
X33257Y32429D01*
X34011Y32771D02*
X33926Y32857D01*
X33840Y32900D01*
X33712D01*
X33626Y32857D01*
X33540Y32771D01*
X33497Y32643D01*
Y32557D01*
X33540Y32429D01*
X33626Y32343D01*
X33712Y32300D01*
X33840D01*
X33926Y32343D01*
X34011Y32429D01*
X34204Y33200D02*
Y32300D01*
X34633Y32900D02*
X34204Y32471D01*
X34376Y32643D02*
X34676Y32300D01*
X34817Y32900D02*
Y32000D01*
Y32771D02*
X34903Y32857D01*
X34988Y32900D01*
X35117D01*
X35203Y32857D01*
X35288Y32771D01*
X35331Y32643D01*
Y32557D01*
X35288Y32429D01*
X35203Y32343D01*
X35117Y32300D01*
X34988D01*
X34903Y32343D01*
X34817Y32429D01*
X35524Y33200D02*
Y32300D01*
X36227Y32900D02*
Y32300D01*
Y32771D02*
X36141Y32857D01*
X36055Y32900D01*
X35927D01*
X35841Y32857D01*
X35755Y32771D01*
X35713Y32643D01*
Y32557D01*
X35755Y32429D01*
X35841Y32343D01*
X35927Y32300D01*
X36055D01*
X36141Y32343D01*
X36227Y32429D01*
X36467Y32900D02*
Y32300D01*
Y32728D02*
X36595Y32857D01*
X36681Y32900D01*
X36809D01*
X36895Y32857D01*
X36938Y32728D01*
Y32300D01*
X37174Y32643D02*
X37688D01*
Y32728D01*
X37645Y32814D01*
X37602Y32857D01*
X37516Y32900D01*
X37388D01*
X37302Y32857D01*
X37217Y32771D01*
X37174Y32643D01*
Y32557D01*
X37217Y32429D01*
X37302Y32343D01*
X37388Y32300D01*
X37516D01*
X37602Y32343D01*
X37688Y32429D01*
X38588Y32728D02*
X38973D01*
X39102Y32771D01*
X39145Y32814D01*
X39188Y32900D01*
Y33028D01*
X39145Y33114D01*
X39102Y33157D01*
X38973Y33200D01*
X38588D01*
Y32300D01*
X39389Y32643D02*
X39903D01*
Y32728D01*
X39860Y32814D01*
X39817Y32857D01*
X39732Y32900D01*
X39603D01*
X39517Y32857D01*
X39432Y32771D01*
X39389Y32643D01*
Y32557D01*
X39432Y32429D01*
X39517Y32343D01*
X39603Y32300D01*
X39732D01*
X39817Y32343D01*
X39903Y32429D01*
X40096Y32900D02*
Y32300D01*
Y32643D02*
X40139Y32771D01*
X40224Y32857D01*
X40310Y32900D01*
X40439D01*
X40606Y33200D02*
X40649Y33157D01*
X40691Y33200D01*
X40649Y33243D01*
X40606Y33200D01*
X40649Y32900D02*
Y32300D01*
X40850Y32900D02*
Y32000D01*
Y32771D02*
X40936Y32857D01*
X41021Y32900D01*
X41150D01*
X41236Y32857D01*
X41321Y32771D01*
X41364Y32643D01*
Y32557D01*
X41321Y32429D01*
X41236Y32343D01*
X41150Y32300D01*
X41021D01*
X40936Y32343D01*
X40850Y32429D01*
X41557Y33200D02*
Y32300D01*
Y32728D02*
X41686Y32857D01*
X41771Y32900D01*
X41900D01*
X41986Y32857D01*
X42028Y32728D01*
Y32300D01*
X42264Y32643D02*
X42778D01*
Y32728D01*
X42735Y32814D01*
X42692Y32857D01*
X42607Y32900D01*
X42478D01*
X42393Y32857D01*
X42307Y32771D01*
X42264Y32643D01*
Y32557D01*
X42307Y32429D01*
X42393Y32343D01*
X42478Y32300D01*
X42607D01*
X42692Y32343D01*
X42778Y32429D01*
X42971Y32900D02*
Y32300D01*
Y32643D02*
X43014Y32771D01*
X43100Y32857D01*
X43185Y32900D01*
X43314D01*
X43909D02*
Y32300D01*
Y32771D02*
X43824Y32857D01*
X43738Y32900D01*
X43609D01*
X43524Y32857D01*
X43438Y32771D01*
X43395Y32643D01*
Y32557D01*
X43438Y32429D01*
X43524Y32343D01*
X43609Y32300D01*
X43738D01*
X43824Y32343D01*
X43909Y32429D01*
X44149Y33200D02*
Y32300D01*
X44809Y32771D02*
X44766Y32857D01*
X44638Y32900D01*
X44509D01*
X44381Y32857D01*
X44338Y32771D01*
X44381Y32686D01*
X44466Y32643D01*
X44681Y32600D01*
X44766Y32557D01*
X44809Y32471D01*
Y32429D01*
X44766Y32343D01*
X44638Y32300D01*
X44509D01*
X44381Y32343D01*
X44338Y32429D01*
D48*
X23800Y64100D02*
X24050D01*
X24100Y64150D01*
Y64250D01*
X24050Y64300D01*
X23800D01*
X24100Y64600D02*
Y64400D01*
X23900Y64600D01*
X23850D01*
X23800Y64550D01*
Y64450D01*
X23850Y64400D01*
X23800Y64900D02*
Y64700D01*
X23950D01*
X23900Y64800D01*
Y64850D01*
X23950Y64900D01*
X24050D01*
X24100Y64850D01*
Y64750D01*
X24050Y64700D01*
X80700Y66800D02*
Y66700D01*
Y66750D01*
X80950D01*
X81000Y66700D01*
Y66650D01*
X80950Y66600D01*
X81000Y66900D02*
X80700D01*
Y67050D01*
X80750Y67100D01*
X80850D01*
X80900Y67050D01*
Y66900D01*
X81000Y67200D02*
Y67300D01*
Y67250D01*
X80700D01*
X80750Y67200D01*
X54000Y45290D02*
X53950Y45340D01*
X53850D01*
X53800Y45290D01*
Y45090D01*
X53850Y45040D01*
X53950D01*
X54000Y45090D01*
X54100Y45040D02*
X54200D01*
X54150D01*
Y45340D01*
X54100Y45290D01*
X54550Y45340D02*
X54350D01*
Y45190D01*
X54450Y45240D01*
X54500D01*
X54550Y45190D01*
Y45090D01*
X54500Y45040D01*
X54400D01*
X54350Y45090D01*
X54850Y45040D02*
X54650D01*
X54850Y45240D01*
Y45290D01*
X54800Y45340D01*
X54700D01*
X54650Y45290D01*
X80500Y58200D02*
Y58450D01*
X80450Y58500D01*
X80350D01*
X80300Y58450D01*
Y58200D01*
X80050Y58500D02*
Y58200D01*
X80200Y58350D01*
X80000D01*
X79900Y58200D02*
X79700D01*
Y58250D01*
X79900Y58450D01*
Y58500D01*
X89400Y58200D02*
Y58450D01*
X89350Y58500D01*
X89250D01*
X89200Y58450D01*
Y58200D01*
X88950Y58500D02*
Y58200D01*
X89100Y58350D01*
X88900D01*
X88600Y58200D02*
X88700Y58250D01*
X88800Y58350D01*
Y58450D01*
X88750Y58500D01*
X88650D01*
X88600Y58450D01*
Y58400D01*
X88650Y58350D01*
X88800D01*
X89500Y47100D02*
Y47350D01*
X89450Y47400D01*
X89350D01*
X89300Y47350D01*
Y47100D01*
X89050Y47400D02*
Y47100D01*
X89200Y47250D01*
X89000D01*
X88700Y47100D02*
X88900D01*
Y47250D01*
X88800Y47200D01*
X88750D01*
X88700Y47250D01*
Y47350D01*
X88750Y47400D01*
X88850D01*
X88900Y47350D01*
X80600Y47000D02*
Y47250D01*
X80550Y47300D01*
X80450D01*
X80400Y47250D01*
Y47000D01*
X80150Y47300D02*
Y47000D01*
X80300Y47150D01*
X80100D01*
X79850Y47300D02*
Y47000D01*
X80000Y47150D01*
X79800D01*
X89400Y62900D02*
Y63150D01*
X89350Y63200D01*
X89250D01*
X89200Y63150D01*
Y62900D01*
X89100Y62950D02*
X89050Y62900D01*
X88950D01*
X88900Y62950D01*
Y63000D01*
X88950Y63050D01*
X89000D01*
X88950D01*
X88900Y63100D01*
Y63150D01*
X88950Y63200D01*
X89050D01*
X89100Y63150D01*
X88650Y63200D02*
Y62900D01*
X88800Y63050D01*
X88600D01*
X89500Y55000D02*
Y55250D01*
X89450Y55300D01*
X89350D01*
X89300Y55250D01*
Y55000D01*
X89200Y55050D02*
X89150Y55000D01*
X89050D01*
X89000Y55050D01*
Y55100D01*
X89050Y55150D01*
X89100D01*
X89050D01*
X89000Y55200D01*
Y55250D01*
X89050Y55300D01*
X89150D01*
X89200Y55250D01*
X88900Y55050D02*
X88850Y55000D01*
X88750D01*
X88700Y55050D01*
Y55100D01*
X88750Y55150D01*
X88800D01*
X88750D01*
X88700Y55200D01*
Y55250D01*
X88750Y55300D01*
X88850D01*
X88900Y55250D01*
X89500Y51700D02*
Y51950D01*
X89450Y52000D01*
X89350D01*
X89300Y51950D01*
Y51700D01*
X89200Y51750D02*
X89150Y51700D01*
X89050D01*
X89000Y51750D01*
Y51800D01*
X89050Y51850D01*
X89100D01*
X89050D01*
X89000Y51900D01*
Y51950D01*
X89050Y52000D01*
X89150D01*
X89200Y51950D01*
X88700Y52000D02*
X88900D01*
X88700Y51800D01*
Y51750D01*
X88750Y51700D01*
X88850D01*
X88900Y51750D01*
X88900Y43500D02*
Y43750D01*
X88850Y43800D01*
X88750D01*
X88700Y43750D01*
Y43500D01*
X88600Y43550D02*
X88550Y43500D01*
X88450D01*
X88400Y43550D01*
Y43600D01*
X88450Y43650D01*
X88500D01*
X88450D01*
X88400Y43700D01*
Y43750D01*
X88450Y43800D01*
X88550D01*
X88600Y43750D01*
X88300Y43800D02*
X88200D01*
X88250D01*
Y43500D01*
X88300Y43550D01*
X80600Y62900D02*
Y63150D01*
X80550Y63200D01*
X80450D01*
X80400Y63150D01*
Y62900D01*
X80300Y62950D02*
X80250Y62900D01*
X80150D01*
X80100Y62950D01*
Y63000D01*
X80150Y63050D01*
X80200D01*
X80150D01*
X80100Y63100D01*
Y63150D01*
X80150Y63200D01*
X80250D01*
X80300Y63150D01*
X80000Y62950D02*
X79950Y62900D01*
X79850D01*
X79800Y62950D01*
Y63150D01*
X79850Y63200D01*
X79950D01*
X80000Y63150D01*
Y62950D01*
X80700Y54700D02*
Y54950D01*
X80650Y55000D01*
X80550D01*
X80500Y54950D01*
Y54700D01*
X80200Y55000D02*
X80400D01*
X80200Y54800D01*
Y54750D01*
X80250Y54700D01*
X80350D01*
X80400Y54750D01*
X80100Y54950D02*
X80050Y55000D01*
X79950D01*
X79900Y54950D01*
Y54750D01*
X79950Y54700D01*
X80050D01*
X80100Y54750D01*
Y54800D01*
X80050Y54850D01*
X79900D01*
X80700Y51500D02*
Y51750D01*
X80650Y51800D01*
X80550D01*
X80500Y51750D01*
Y51500D01*
X80200Y51800D02*
X80400D01*
X80200Y51600D01*
Y51550D01*
X80250Y51500D01*
X80350D01*
X80400Y51550D01*
X80100D02*
X80050Y51500D01*
X79950D01*
X79900Y51550D01*
Y51600D01*
X79950Y51650D01*
X79900Y51700D01*
Y51750D01*
X79950Y51800D01*
X80050D01*
X80100Y51750D01*
Y51700D01*
X80050Y51650D01*
X80100Y51600D01*
Y51550D01*
X80050Y51650D02*
X79950D01*
X80700Y43600D02*
Y43850D01*
X80650Y43900D01*
X80550D01*
X80500Y43850D01*
Y43600D01*
X80200Y43900D02*
X80400D01*
X80200Y43700D01*
Y43650D01*
X80250Y43600D01*
X80350D01*
X80400Y43650D01*
X80100Y43600D02*
X79900D01*
Y43650D01*
X80100Y43850D01*
Y43900D01*
X83200Y64400D02*
Y64300D01*
Y64350D01*
X83450D01*
X83500Y64300D01*
Y64250D01*
X83450Y64200D01*
X83500Y64700D02*
Y64500D01*
X83300Y64700D01*
X83250D01*
X83200Y64650D01*
Y64550D01*
X83250Y64500D01*
X91400Y64400D02*
Y64300D01*
Y64350D01*
X91650D01*
X91700Y64300D01*
Y64250D01*
X91650Y64200D01*
X91700Y64500D02*
Y64600D01*
Y64550D01*
X91400D01*
X91450Y64500D01*
X82200Y65350D02*
X82150Y65400D01*
X82050D01*
X82000Y65350D01*
Y65150D01*
X82050Y65100D01*
X82150D01*
X82200Y65150D01*
X82300Y65350D02*
X82350Y65400D01*
X82450D01*
X82500Y65350D01*
Y65300D01*
X82450Y65250D01*
X82400D01*
X82450D01*
X82500Y65200D01*
Y65150D01*
X82450Y65100D01*
X82350D01*
X82300Y65150D01*
X82800Y65400D02*
X82700Y65350D01*
X82600Y65250D01*
Y65150D01*
X82650Y65100D01*
X82750D01*
X82800Y65150D01*
Y65200D01*
X82750Y65250D01*
X82600D01*
X43600Y49500D02*
Y49250D01*
X43650Y49200D01*
X43750D01*
X43800Y49250D01*
Y49500D01*
X44050Y49200D02*
Y49500D01*
X43900Y49350D01*
X44100D01*
X44200Y49200D02*
X44300D01*
X44250D01*
Y49500D01*
X44200Y49450D01*
X51800Y49000D02*
Y48750D01*
X51850Y48700D01*
X51950D01*
X52000Y48750D01*
Y49000D01*
X52250Y48700D02*
Y49000D01*
X52100Y48850D01*
X52300D01*
X52400Y48950D02*
X52450Y49000D01*
X52550D01*
X52600Y48950D01*
Y48750D01*
X52550Y48700D01*
X52450D01*
X52400Y48750D01*
Y48950D01*
X73300Y60900D02*
Y60650D01*
X73350Y60600D01*
X73450D01*
X73500Y60650D01*
Y60900D01*
X73600Y60850D02*
X73650Y60900D01*
X73750D01*
X73800Y60850D01*
Y60800D01*
X73750Y60750D01*
X73700D01*
X73750D01*
X73800Y60700D01*
Y60650D01*
X73750Y60600D01*
X73650D01*
X73600Y60650D01*
X73900D02*
X73950Y60600D01*
X74050D01*
X74100Y60650D01*
Y60850D01*
X74050Y60900D01*
X73950D01*
X73900Y60850D01*
Y60800D01*
X73950Y60750D01*
X74100D01*
X32790Y36620D02*
Y36320D01*
X32990D01*
X33090D02*
X33190D01*
X33140D01*
Y36620D01*
X33090Y36570D01*
X33050Y66300D02*
X33100Y66350D01*
Y66450D01*
X33050Y66500D01*
X32850D01*
X32800Y66450D01*
Y66350D01*
X32850Y66300D01*
X32800Y66200D02*
Y66100D01*
Y66150D01*
X33100D01*
X33050Y66200D01*
X32800Y65750D02*
Y65950D01*
X33000Y65750D01*
X33050D01*
X33100Y65800D01*
Y65900D01*
X33050Y65950D01*
Y65650D02*
X33100Y65600D01*
Y65500D01*
X33050Y65450D01*
X33000D01*
X32950Y65500D01*
Y65550D01*
Y65500D01*
X32900Y65450D01*
X32850D01*
X32800Y65500D01*
Y65600D01*
X32850Y65650D01*
X75800Y56530D02*
X75750Y56580D01*
X75650D01*
X75600Y56530D01*
Y56330D01*
X75650Y56280D01*
X75750D01*
X75800Y56330D01*
X75900Y56280D02*
X76000D01*
X75950D01*
Y56580D01*
X75900Y56530D01*
X76350Y56280D02*
X76150D01*
X76350Y56480D01*
Y56530D01*
X76300Y56580D01*
X76200D01*
X76150Y56530D01*
X76650Y56280D02*
X76450D01*
X76650Y56480D01*
Y56530D01*
X76600Y56580D01*
X76500D01*
X76450Y56530D01*
X86950Y41700D02*
X86900Y41650D01*
Y41550D01*
X86950Y41500D01*
X87150D01*
X87200Y41550D01*
Y41650D01*
X87150Y41700D01*
X87200Y41800D02*
Y41900D01*
Y41850D01*
X86900D01*
X86950Y41800D01*
X87200Y42250D02*
Y42050D01*
X87000Y42250D01*
X86950D01*
X86900Y42200D01*
Y42100D01*
X86950Y42050D01*
X87200Y42350D02*
Y42450D01*
Y42400D01*
X86900D01*
X86950Y42350D01*
X67800Y56930D02*
X67750Y56980D01*
X67650D01*
X67600Y56930D01*
Y56730D01*
X67650Y56680D01*
X67750D01*
X67800Y56730D01*
X67900Y56680D02*
X68000D01*
X67950D01*
Y56980D01*
X67900Y56930D01*
X68350Y56680D02*
X68150D01*
X68350Y56880D01*
Y56930D01*
X68300Y56980D01*
X68200D01*
X68150Y56930D01*
X68450D02*
X68500Y56980D01*
X68600D01*
X68650Y56930D01*
Y56730D01*
X68600Y56680D01*
X68500D01*
X68450Y56730D01*
Y56930D01*
X67260Y43590D02*
X67210Y43640D01*
X67110D01*
X67060Y43590D01*
Y43390D01*
X67110Y43340D01*
X67210D01*
X67260Y43390D01*
X67360Y43340D02*
X67460D01*
X67410D01*
Y43640D01*
X67360Y43590D01*
X67610Y43340D02*
X67710D01*
X67660D01*
Y43640D01*
X67610Y43590D01*
X67860Y43390D02*
X67910Y43340D01*
X68010D01*
X68060Y43390D01*
Y43590D01*
X68010Y43640D01*
X67910D01*
X67860Y43590D01*
Y43540D01*
X67910Y43490D01*
X68060D01*
X71800Y62130D02*
X71750Y62180D01*
X71650D01*
X71600Y62130D01*
Y61930D01*
X71650Y61880D01*
X71750D01*
X71800Y61930D01*
X71900Y61880D02*
X72000D01*
X71950D01*
Y62180D01*
X71900Y62130D01*
X72150Y61880D02*
X72250D01*
X72200D01*
Y62180D01*
X72150Y62130D01*
X72400D02*
X72450Y62180D01*
X72550D01*
X72600Y62130D01*
Y62080D01*
X72550Y62030D01*
X72600Y61980D01*
Y61930D01*
X72550Y61880D01*
X72450D01*
X72400Y61930D01*
Y61980D01*
X72450Y62030D01*
X72400Y62080D01*
Y62130D01*
X72450Y62030D02*
X72550D01*
X67300Y45700D02*
Y45650D01*
X67400Y45550D01*
X67500Y45650D01*
Y45700D01*
X67400Y45550D02*
Y45400D01*
X67600D02*
X67700D01*
X67650D01*
Y45700D01*
X67600Y45650D01*
X57700Y52400D02*
X57950D01*
X58000Y52450D01*
Y52550D01*
X57950Y52600D01*
X57700D01*
X58000Y52850D02*
X57700D01*
X57850Y52700D01*
Y52900D01*
X57750Y53000D02*
X57700Y53050D01*
Y53150D01*
X57750Y53200D01*
X57800D01*
X57850Y53150D01*
Y53100D01*
Y53150D01*
X57900Y53200D01*
X57950D01*
X58000Y53150D01*
Y53050D01*
X57950Y53000D01*
X44300Y59000D02*
Y58750D01*
X44350Y58700D01*
X44450D01*
X44500Y58750D01*
Y59000D01*
X44750Y58700D02*
Y59000D01*
X44600Y58850D01*
X44800D01*
X45100Y58700D02*
X44900D01*
X45100Y58900D01*
Y58950D01*
X45050Y59000D01*
X44950D01*
X44900Y58950D01*
X61970Y40990D02*
Y40740D01*
X62020Y40690D01*
X62120D01*
X62170Y40740D01*
Y40990D01*
X62270Y40940D02*
X62320Y40990D01*
X62420D01*
X62470Y40940D01*
Y40890D01*
X62420Y40840D01*
X62370D01*
X62420D01*
X62470Y40790D01*
Y40740D01*
X62420Y40690D01*
X62320D01*
X62270Y40740D01*
X62570Y40990D02*
X62770D01*
Y40940D01*
X62570Y40740D01*
Y40690D01*
X69100Y44200D02*
X69350D01*
X69400Y44250D01*
Y44350D01*
X69350Y44400D01*
X69100D01*
X69150Y44500D02*
X69100Y44550D01*
Y44650D01*
X69150Y44700D01*
X69200D01*
X69250Y44650D01*
Y44600D01*
Y44650D01*
X69300Y44700D01*
X69350D01*
X69400Y44650D01*
Y44550D01*
X69350Y44500D01*
X69100Y45000D02*
X69150Y44900D01*
X69250Y44800D01*
X69350D01*
X69400Y44850D01*
Y44950D01*
X69350Y45000D01*
X69300D01*
X69250Y44950D01*
Y44800D01*
X59530Y49680D02*
Y49430D01*
X59580Y49380D01*
X59680D01*
X59730Y49430D01*
Y49680D01*
X59830Y49630D02*
X59880Y49680D01*
X59980D01*
X60030Y49630D01*
Y49580D01*
X59980Y49530D01*
X59930D01*
X59980D01*
X60030Y49480D01*
Y49430D01*
X59980Y49380D01*
X59880D01*
X59830Y49430D01*
X60330Y49680D02*
X60130D01*
Y49530D01*
X60230Y49580D01*
X60280D01*
X60330Y49530D01*
Y49430D01*
X60280Y49380D01*
X60180D01*
X60130Y49430D01*
X27400Y36800D02*
X27150D01*
X27100Y36750D01*
Y36650D01*
X27150Y36600D01*
X27400D01*
X27100Y36300D02*
Y36500D01*
X27300Y36300D01*
X27350D01*
X27400Y36350D01*
Y36450D01*
X27350Y36500D01*
X27400Y36000D02*
X27350Y36100D01*
X27250Y36200D01*
X27150D01*
X27100Y36150D01*
Y36050D01*
X27150Y36000D01*
X27200D01*
X27250Y36050D01*
Y36200D01*
X26900Y61500D02*
X26650D01*
X26600Y61450D01*
Y61350D01*
X26650Y61300D01*
X26900D01*
X26600Y61000D02*
Y61200D01*
X26800Y61000D01*
X26850D01*
X26900Y61050D01*
Y61150D01*
X26850Y61200D01*
X26600Y60750D02*
X26900D01*
X26750Y60900D01*
Y60700D01*
X26900Y60100D02*
X26650D01*
X26600Y60050D01*
Y59950D01*
X26650Y59900D01*
X26900D01*
X26600Y59600D02*
Y59800D01*
X26800Y59600D01*
X26850D01*
X26900Y59650D01*
Y59750D01*
X26850Y59800D01*
Y59500D02*
X26900Y59450D01*
Y59350D01*
X26850Y59300D01*
X26800D01*
X26750Y59350D01*
Y59400D01*
Y59350D01*
X26700Y59300D01*
X26650D01*
X26600Y59350D01*
Y59450D01*
X26650Y59500D01*
X26900Y58700D02*
X26650D01*
X26600Y58650D01*
Y58550D01*
X26650Y58500D01*
X26900D01*
X26600Y58200D02*
Y58400D01*
X26800Y58200D01*
X26850D01*
X26900Y58250D01*
Y58350D01*
X26850Y58400D01*
X26600Y57900D02*
Y58100D01*
X26800Y57900D01*
X26850D01*
X26900Y57950D01*
Y58050D01*
X26850Y58100D01*
X26800Y57300D02*
X26550D01*
X26500Y57250D01*
Y57150D01*
X26550Y57100D01*
X26800D01*
X26500Y56800D02*
Y57000D01*
X26700Y56800D01*
X26750D01*
X26800Y56850D01*
Y56950D01*
X26750Y57000D01*
X26500Y56700D02*
Y56600D01*
Y56650D01*
X26800D01*
X26750Y56700D01*
X27000Y55800D02*
X26750D01*
X26700Y55750D01*
Y55650D01*
X26750Y55600D01*
X27000D01*
X26700Y55300D02*
Y55500D01*
X26900Y55300D01*
X26950D01*
X27000Y55350D01*
Y55450D01*
X26950Y55500D01*
Y55200D02*
X27000Y55150D01*
Y55050D01*
X26950Y55000D01*
X26750D01*
X26700Y55050D01*
Y55150D01*
X26750Y55200D01*
X26950D01*
X27000Y54500D02*
X26750D01*
X26700Y54450D01*
Y54350D01*
X26750Y54300D01*
X27000D01*
X26700Y54200D02*
Y54100D01*
Y54150D01*
X27000D01*
X26950Y54200D01*
X26750Y53950D02*
X26700Y53900D01*
Y53800D01*
X26750Y53750D01*
X26950D01*
X27000Y53800D01*
Y53900D01*
X26950Y53950D01*
X26900D01*
X26850Y53900D01*
Y53750D01*
X27000Y53100D02*
X26750D01*
X26700Y53050D01*
Y52950D01*
X26750Y52900D01*
X27000D01*
X26700Y52800D02*
Y52700D01*
Y52750D01*
X27000D01*
X26950Y52800D01*
Y52550D02*
X27000Y52500D01*
Y52400D01*
X26950Y52350D01*
X26900D01*
X26850Y52400D01*
X26800Y52350D01*
X26750D01*
X26700Y52400D01*
Y52500D01*
X26750Y52550D01*
X26800D01*
X26850Y52500D01*
X26900Y52550D01*
X26950D01*
X26850Y52500D02*
Y52400D01*
X27100Y51700D02*
X26850D01*
X26800Y51650D01*
Y51550D01*
X26850Y51500D01*
X27100D01*
X26800Y51400D02*
Y51300D01*
Y51350D01*
X27100D01*
X27050Y51400D01*
X27100Y51150D02*
Y50950D01*
X27050D01*
X26850Y51150D01*
X26800D01*
X27000Y40500D02*
X26750D01*
X26700Y40450D01*
Y40350D01*
X26750Y40300D01*
X27000D01*
X26700Y40200D02*
Y40100D01*
Y40150D01*
X27000D01*
X26950Y40200D01*
X27000Y39750D02*
X26950Y39850D01*
X26850Y39950D01*
X26750D01*
X26700Y39900D01*
Y39800D01*
X26750Y39750D01*
X26800D01*
X26850Y39800D01*
Y39950D01*
X27000Y41800D02*
X26750D01*
X26700Y41750D01*
Y41650D01*
X26750Y41600D01*
X27000D01*
X26700Y41500D02*
Y41400D01*
Y41450D01*
X27000D01*
X26950Y41500D01*
X27000Y41050D02*
Y41250D01*
X26850D01*
X26900Y41150D01*
Y41100D01*
X26850Y41050D01*
X26750D01*
X26700Y41100D01*
Y41200D01*
X26750Y41250D01*
X27000Y43200D02*
X26750D01*
X26700Y43150D01*
Y43050D01*
X26750Y43000D01*
X27000D01*
X26700Y42900D02*
Y42800D01*
Y42850D01*
X27000D01*
X26950Y42900D01*
X26700Y42500D02*
X27000D01*
X26850Y42650D01*
Y42450D01*
X27000Y44700D02*
X26750D01*
X26700Y44650D01*
Y44550D01*
X26750Y44500D01*
X27000D01*
X26700Y44400D02*
Y44300D01*
Y44350D01*
X27000D01*
X26950Y44400D01*
Y44150D02*
X27000Y44100D01*
Y44000D01*
X26950Y43950D01*
X26900D01*
X26850Y44000D01*
Y44050D01*
Y44000D01*
X26800Y43950D01*
X26750D01*
X26700Y44000D01*
Y44100D01*
X26750Y44150D01*
X27000Y46100D02*
X26750D01*
X26700Y46050D01*
Y45950D01*
X26750Y45900D01*
X27000D01*
X26700Y45800D02*
Y45700D01*
Y45750D01*
X27000D01*
X26950Y45800D01*
X26700Y45350D02*
Y45550D01*
X26900Y45350D01*
X26950D01*
X27000Y45400D01*
Y45500D01*
X26950Y45550D01*
X27000Y47400D02*
X26750D01*
X26700Y47350D01*
Y47250D01*
X26750Y47200D01*
X27000D01*
X26700Y47100D02*
Y47000D01*
Y47050D01*
X27000D01*
X26950Y47100D01*
X26700Y46850D02*
Y46750D01*
Y46800D01*
X27000D01*
X26950Y46850D01*
X27000Y48900D02*
X26750D01*
X26700Y48850D01*
Y48750D01*
X26750Y48700D01*
X27000D01*
X26700Y48600D02*
Y48500D01*
Y48550D01*
X27000D01*
X26950Y48600D01*
Y48350D02*
X27000Y48300D01*
Y48200D01*
X26950Y48150D01*
X26750D01*
X26700Y48200D01*
Y48300D01*
X26750Y48350D01*
X26950D01*
X27100Y50000D02*
X26850D01*
X26800Y49950D01*
Y49850D01*
X26850Y49800D01*
X27100D01*
X26850Y49700D02*
X26800Y49650D01*
Y49550D01*
X26850Y49500D01*
X27050D01*
X27100Y49550D01*
Y49650D01*
X27050Y49700D01*
X27000D01*
X26950Y49650D01*
Y49500D01*
X32900Y60500D02*
Y60250D01*
X32950Y60200D01*
X33050D01*
X33100Y60250D01*
Y60500D01*
X33200Y60450D02*
X33250Y60500D01*
X33350D01*
X33400Y60450D01*
Y60400D01*
X33350Y60350D01*
X33400Y60300D01*
Y60250D01*
X33350Y60200D01*
X33250D01*
X33200Y60250D01*
Y60300D01*
X33250Y60350D01*
X33200Y60400D01*
Y60450D01*
X33250Y60350D02*
X33350D01*
X32900Y44100D02*
Y43850D01*
X32950Y43800D01*
X33050D01*
X33100Y43850D01*
Y44100D01*
X33200D02*
X33400D01*
Y44050D01*
X33200Y43850D01*
Y43800D01*
X35100Y55100D02*
Y54850D01*
X35150Y54800D01*
X35250D01*
X35300Y54850D01*
Y55100D01*
X35600D02*
X35500Y55050D01*
X35400Y54950D01*
Y54850D01*
X35450Y54800D01*
X35550D01*
X35600Y54850D01*
Y54900D01*
X35550Y54950D01*
X35400D01*
X33200Y49300D02*
X33450D01*
X33500Y49350D01*
Y49450D01*
X33450Y49500D01*
X33200D01*
Y49800D02*
Y49600D01*
X33350D01*
X33300Y49700D01*
Y49750D01*
X33350Y49800D01*
X33450D01*
X33500Y49750D01*
Y49650D01*
X33450Y49600D01*
X27200Y58600D02*
X27450D01*
X27500Y58650D01*
Y58750D01*
X27450Y58800D01*
X27200D01*
X27500Y59050D02*
X27200D01*
X27350Y58900D01*
Y59100D01*
X27200Y52800D02*
X27450D01*
X27500Y52850D01*
Y52950D01*
X27450Y53000D01*
X27200D01*
X27250Y53100D02*
X27200Y53150D01*
Y53250D01*
X27250Y53300D01*
X27300D01*
X27350Y53250D01*
Y53200D01*
Y53250D01*
X27400Y53300D01*
X27450D01*
X27500Y53250D01*
Y53150D01*
X27450Y53100D01*
X27200Y47400D02*
X27450D01*
X27500Y47450D01*
Y47550D01*
X27450Y47600D01*
X27200D01*
X27500Y47900D02*
Y47700D01*
X27300Y47900D01*
X27250D01*
X27200Y47850D01*
Y47750D01*
X27250Y47700D01*
X27200Y41700D02*
X27450D01*
X27500Y41750D01*
Y41850D01*
X27450Y41900D01*
X27200D01*
X27500Y42000D02*
Y42100D01*
Y42050D01*
X27200D01*
X27250Y42000D01*
X57400Y37400D02*
Y37700D01*
X57550D01*
X57600Y37650D01*
Y37550D01*
X57550Y37500D01*
X57400D01*
X57500D02*
X57600Y37400D01*
X57700Y37650D02*
X57750Y37700D01*
X57850D01*
X57900Y37650D01*
Y37600D01*
X57850Y37550D01*
X57800D01*
X57850D01*
X57900Y37500D01*
Y37450D01*
X57850Y37400D01*
X57750D01*
X57700Y37450D01*
X58000Y37700D02*
X58200D01*
Y37650D01*
X58000Y37450D01*
Y37400D01*
X58780Y39500D02*
Y39800D01*
X58930D01*
X58980Y39750D01*
Y39650D01*
X58930Y39600D01*
X58780D01*
X58880D02*
X58980Y39500D01*
X59080Y39750D02*
X59130Y39800D01*
X59230D01*
X59280Y39750D01*
Y39700D01*
X59230Y39650D01*
X59180D01*
X59230D01*
X59280Y39600D01*
Y39550D01*
X59230Y39500D01*
X59130D01*
X59080Y39550D01*
X59580Y39800D02*
X59480Y39750D01*
X59380Y39650D01*
Y39550D01*
X59430Y39500D01*
X59530D01*
X59580Y39550D01*
Y39600D01*
X59530Y39650D01*
X59380D01*
X61840Y37760D02*
Y38060D01*
X61990D01*
X62040Y38010D01*
Y37910D01*
X61990Y37860D01*
X61840D01*
X61940D02*
X62040Y37760D01*
X62140Y38010D02*
X62190Y38060D01*
X62290D01*
X62340Y38010D01*
Y37960D01*
X62290Y37910D01*
X62240D01*
X62290D01*
X62340Y37860D01*
Y37810D01*
X62290Y37760D01*
X62190D01*
X62140Y37810D01*
X62640Y38060D02*
X62440D01*
Y37910D01*
X62540Y37960D01*
X62590D01*
X62640Y37910D01*
Y37810D01*
X62590Y37760D01*
X62490D01*
X62440Y37810D01*
X63840Y37760D02*
Y38060D01*
X63990D01*
X64040Y38010D01*
Y37910D01*
X63990Y37860D01*
X63840D01*
X63940D02*
X64040Y37760D01*
X64140Y38010D02*
X64190Y38060D01*
X64290D01*
X64340Y38010D01*
Y37960D01*
X64290Y37910D01*
X64240D01*
X64290D01*
X64340Y37860D01*
Y37810D01*
X64290Y37760D01*
X64190D01*
X64140Y37810D01*
X64590Y37760D02*
Y38060D01*
X64440Y37910D01*
X64640D01*
X88120Y38340D02*
Y38640D01*
X88270D01*
X88320Y38590D01*
Y38490D01*
X88270Y38440D01*
X88120D01*
X88220D02*
X88320Y38340D01*
X88420Y38590D02*
X88470Y38640D01*
X88570D01*
X88620Y38590D01*
Y38540D01*
X88570Y38490D01*
X88520D01*
X88570D01*
X88620Y38440D01*
Y38390D01*
X88570Y38340D01*
X88470D01*
X88420Y38390D01*
X88720Y38590D02*
X88770Y38640D01*
X88870D01*
X88920Y38590D01*
Y38540D01*
X88870Y38490D01*
X88820D01*
X88870D01*
X88920Y38440D01*
Y38390D01*
X88870Y38340D01*
X88770D01*
X88720Y38390D01*
X74400Y55020D02*
Y55320D01*
X74550D01*
X74600Y55270D01*
Y55170D01*
X74550Y55120D01*
X74400D01*
X74500D02*
X74600Y55020D01*
X74700Y55270D02*
X74750Y55320D01*
X74850D01*
X74900Y55270D01*
Y55220D01*
X74850Y55170D01*
X74800D01*
X74850D01*
X74900Y55120D01*
Y55070D01*
X74850Y55020D01*
X74750D01*
X74700Y55070D01*
X75200Y55020D02*
X75000D01*
X75200Y55220D01*
Y55270D01*
X75150Y55320D01*
X75050D01*
X75000Y55270D01*
X68800Y60220D02*
Y60520D01*
X68950D01*
X69000Y60470D01*
Y60370D01*
X68950Y60320D01*
X68800D01*
X68900D02*
X69000Y60220D01*
X69100Y60470D02*
X69150Y60520D01*
X69250D01*
X69300Y60470D01*
Y60420D01*
X69250Y60370D01*
X69200D01*
X69250D01*
X69300Y60320D01*
Y60270D01*
X69250Y60220D01*
X69150D01*
X69100Y60270D01*
X69400Y60220D02*
X69500D01*
X69450D01*
Y60520D01*
X69400Y60470D01*
X67800Y60020D02*
Y60320D01*
X67950D01*
X68000Y60270D01*
Y60170D01*
X67950Y60120D01*
X67800D01*
X67900D02*
X68000Y60020D01*
X68100Y60270D02*
X68150Y60320D01*
X68250D01*
X68300Y60270D01*
Y60220D01*
X68250Y60170D01*
X68200D01*
X68250D01*
X68300Y60120D01*
Y60070D01*
X68250Y60020D01*
X68150D01*
X68100Y60070D01*
X68400Y60270D02*
X68450Y60320D01*
X68550D01*
X68600Y60270D01*
Y60070D01*
X68550Y60020D01*
X68450D01*
X68400Y60070D01*
Y60270D01*
X57000Y49500D02*
X56700D01*
Y49650D01*
X56750Y49700D01*
X56850D01*
X56900Y49650D01*
Y49500D01*
Y49600D02*
X57000Y49700D01*
Y50000D02*
Y49800D01*
X56800Y50000D01*
X56750D01*
X56700Y49950D01*
Y49850D01*
X56750Y49800D01*
X56950Y50100D02*
X57000Y50150D01*
Y50250D01*
X56950Y50300D01*
X56750D01*
X56700Y50250D01*
Y50150D01*
X56750Y50100D01*
X56800D01*
X56850Y50150D01*
Y50300D01*
X57100Y47200D02*
X56800D01*
Y47350D01*
X56850Y47400D01*
X56950D01*
X57000Y47350D01*
Y47200D01*
Y47300D02*
X57100Y47400D01*
Y47700D02*
Y47500D01*
X56900Y47700D01*
X56850D01*
X56800Y47650D01*
Y47550D01*
X56850Y47500D01*
Y47800D02*
X56800Y47850D01*
Y47950D01*
X56850Y48000D01*
X56900D01*
X56950Y47950D01*
X57000Y48000D01*
X57050D01*
X57100Y47950D01*
Y47850D01*
X57050Y47800D01*
X57000D01*
X56950Y47850D01*
X56900Y47800D01*
X56850D01*
X56950Y47850D02*
Y47950D01*
X57240Y45330D02*
Y45630D01*
X57390D01*
X57440Y45580D01*
Y45480D01*
X57390Y45430D01*
X57240D01*
X57340D02*
X57440Y45330D01*
X57740D02*
X57540D01*
X57740Y45530D01*
Y45580D01*
X57690Y45630D01*
X57590D01*
X57540Y45580D01*
X57840Y45630D02*
X58040D01*
Y45580D01*
X57840Y45380D01*
Y45330D01*
X52920Y52540D02*
Y52840D01*
X53070D01*
X53120Y52790D01*
Y52690D01*
X53070Y52640D01*
X52920D01*
X53020D02*
X53120Y52540D01*
X53420D02*
X53220D01*
X53420Y52740D01*
Y52790D01*
X53370Y52840D01*
X53270D01*
X53220Y52790D01*
X53720Y52840D02*
X53620Y52790D01*
X53520Y52690D01*
Y52590D01*
X53570Y52540D01*
X53670D01*
X53720Y52590D01*
Y52640D01*
X53670Y52690D01*
X53520D01*
X65000Y61220D02*
Y61520D01*
X65150D01*
X65200Y61470D01*
Y61370D01*
X65150Y61320D01*
X65000D01*
X65100D02*
X65200Y61220D01*
X65500D02*
X65300D01*
X65500Y61420D01*
Y61470D01*
X65450Y61520D01*
X65350D01*
X65300Y61470D01*
X65800Y61520D02*
X65600D01*
Y61370D01*
X65700Y61420D01*
X65750D01*
X65800Y61370D01*
Y61270D01*
X65750Y61220D01*
X65650D01*
X65600Y61270D01*
X66000Y60620D02*
Y60920D01*
X66150D01*
X66200Y60870D01*
Y60770D01*
X66150Y60720D01*
X66000D01*
X66100D02*
X66200Y60620D01*
X66500D02*
X66300D01*
X66500Y60820D01*
Y60870D01*
X66450Y60920D01*
X66350D01*
X66300Y60870D01*
X66750Y60620D02*
Y60920D01*
X66600Y60770D01*
X66800D01*
X58300Y51500D02*
Y51800D01*
X58450D01*
X58500Y51750D01*
Y51650D01*
X58450Y51600D01*
X58300D01*
X58400D02*
X58500Y51500D01*
X58800D02*
X58600D01*
X58800Y51700D01*
Y51750D01*
X58750Y51800D01*
X58650D01*
X58600Y51750D01*
X58900D02*
X58950Y51800D01*
X59050D01*
X59100Y51750D01*
Y51700D01*
X59050Y51650D01*
X59000D01*
X59050D01*
X59100Y51600D01*
Y51550D01*
X59050Y51500D01*
X58950D01*
X58900Y51550D01*
X56700Y51500D02*
Y51800D01*
X56850D01*
X56900Y51750D01*
Y51650D01*
X56850Y51600D01*
X56700D01*
X56800D02*
X56900Y51500D01*
X57200D02*
X57000D01*
X57200Y51700D01*
Y51750D01*
X57150Y51800D01*
X57050D01*
X57000Y51750D01*
X57500Y51500D02*
X57300D01*
X57500Y51700D01*
Y51750D01*
X57450Y51800D01*
X57350D01*
X57300Y51750D01*
X54800Y54820D02*
Y55120D01*
X54950D01*
X55000Y55070D01*
Y54970D01*
X54950Y54920D01*
X54800D01*
X54900D02*
X55000Y54820D01*
X55300D02*
X55100D01*
X55300Y55020D01*
Y55070D01*
X55250Y55120D01*
X55150D01*
X55100Y55070D01*
X55400Y54820D02*
X55500D01*
X55450D01*
Y55120D01*
X55400Y55070D01*
X55800Y55220D02*
Y55520D01*
X55950D01*
X56000Y55470D01*
Y55370D01*
X55950Y55320D01*
X55800D01*
X55900D02*
X56000Y55220D01*
X56300D02*
X56100D01*
X56300Y55420D01*
Y55470D01*
X56250Y55520D01*
X56150D01*
X56100Y55470D01*
X56400D02*
X56450Y55520D01*
X56550D01*
X56600Y55470D01*
Y55270D01*
X56550Y55220D01*
X56450D01*
X56400Y55270D01*
Y55470D01*
X56200Y58600D02*
Y58900D01*
X56350D01*
X56400Y58850D01*
Y58750D01*
X56350Y58700D01*
X56200D01*
X56300D02*
X56400Y58600D01*
X56500D02*
X56600D01*
X56550D01*
Y58900D01*
X56500Y58850D01*
X56750Y58650D02*
X56800Y58600D01*
X56900D01*
X56950Y58650D01*
Y58850D01*
X56900Y58900D01*
X56800D01*
X56750Y58850D01*
Y58800D01*
X56800Y58750D01*
X56950D01*
X54900Y56200D02*
X54600D01*
Y56350D01*
X54650Y56400D01*
X54750D01*
X54800Y56350D01*
Y56200D01*
Y56300D02*
X54900Y56400D01*
Y56500D02*
Y56600D01*
Y56550D01*
X54600D01*
X54650Y56500D01*
Y56750D02*
X54600Y56800D01*
Y56900D01*
X54650Y56950D01*
X54700D01*
X54750Y56900D01*
X54800Y56950D01*
X54850D01*
X54900Y56900D01*
Y56800D01*
X54850Y56750D01*
X54800D01*
X54750Y56800D01*
X54700Y56750D01*
X54650D01*
X54750Y56800D02*
Y56900D01*
X58600Y61620D02*
Y61920D01*
X58750D01*
X58800Y61870D01*
Y61770D01*
X58750Y61720D01*
X58600D01*
X58700D02*
X58800Y61620D01*
X58900D02*
X59000D01*
X58950D01*
Y61920D01*
X58900Y61870D01*
X59150Y61920D02*
X59350D01*
Y61870D01*
X59150Y61670D01*
Y61620D01*
X64000Y62020D02*
Y62320D01*
X64150D01*
X64200Y62270D01*
Y62170D01*
X64150Y62120D01*
X64000D01*
X64100D02*
X64200Y62020D01*
X64300D02*
X64400D01*
X64350D01*
Y62320D01*
X64300Y62270D01*
X64750Y62320D02*
X64650Y62270D01*
X64550Y62170D01*
Y62070D01*
X64600Y62020D01*
X64700D01*
X64750Y62070D01*
Y62120D01*
X64700Y62170D01*
X64550D01*
X59600Y62220D02*
Y62520D01*
X59750D01*
X59800Y62470D01*
Y62370D01*
X59750Y62320D01*
X59600D01*
X59700D02*
X59800Y62220D01*
X59900D02*
X60000D01*
X59950D01*
Y62520D01*
X59900Y62470D01*
X60350Y62520D02*
X60150D01*
Y62370D01*
X60250Y62420D01*
X60300D01*
X60350Y62370D01*
Y62270D01*
X60300Y62220D01*
X60200D01*
X60150Y62270D01*
X62800Y62420D02*
Y62720D01*
X62950D01*
X63000Y62670D01*
Y62570D01*
X62950Y62520D01*
X62800D01*
X62900D02*
X63000Y62420D01*
X63100D02*
X63200D01*
X63150D01*
Y62720D01*
X63100Y62670D01*
X63500Y62420D02*
Y62720D01*
X63350Y62570D01*
X63550D01*
X47100Y62900D02*
Y63200D01*
X47250D01*
X47300Y63150D01*
Y63050D01*
X47250Y63000D01*
X47100D01*
X47200D02*
X47300Y62900D01*
X47400D02*
X47500D01*
X47450D01*
Y63200D01*
X47400Y63150D01*
X47650D02*
X47700Y63200D01*
X47800D01*
X47850Y63150D01*
Y63100D01*
X47800Y63050D01*
X47750D01*
X47800D01*
X47850Y63000D01*
Y62950D01*
X47800Y62900D01*
X47700D01*
X47650Y62950D01*
X51120Y52540D02*
Y52840D01*
X51270D01*
X51320Y52790D01*
Y52690D01*
X51270Y52640D01*
X51120D01*
X51220D02*
X51320Y52540D01*
X51420D02*
X51520D01*
X51470D01*
Y52840D01*
X51420Y52790D01*
X51870Y52540D02*
X51670D01*
X51870Y52740D01*
Y52790D01*
X51820Y52840D01*
X51720D01*
X51670Y52790D01*
X50800Y50820D02*
Y51120D01*
X50950D01*
X51000Y51070D01*
Y50970D01*
X50950Y50920D01*
X50800D01*
X50900D02*
X51000Y50820D01*
X51100D02*
X51200D01*
X51150D01*
Y51120D01*
X51100Y51070D01*
X51350Y50820D02*
X51450D01*
X51400D01*
Y51120D01*
X51350Y51070D01*
X42600Y57100D02*
X42300D01*
Y57250D01*
X42350Y57300D01*
X42450D01*
X42500Y57250D01*
Y57100D01*
Y57200D02*
X42600Y57300D01*
Y57400D02*
Y57500D01*
Y57450D01*
X42300D01*
X42350Y57400D01*
Y57650D02*
X42300Y57700D01*
Y57800D01*
X42350Y57850D01*
X42550D01*
X42600Y57800D01*
Y57700D01*
X42550Y57650D01*
X42350D01*
X42700Y59400D02*
X42400D01*
Y59550D01*
X42450Y59600D01*
X42550D01*
X42600Y59550D01*
Y59400D01*
Y59500D02*
X42700Y59600D01*
X42650Y59700D02*
X42700Y59750D01*
Y59850D01*
X42650Y59900D01*
X42450D01*
X42400Y59850D01*
Y59750D01*
X42450Y59700D01*
X42500D01*
X42550Y59750D01*
Y59900D01*
X45200Y61620D02*
Y61920D01*
X45350D01*
X45400Y61870D01*
Y61770D01*
X45350Y61720D01*
X45200D01*
X45300D02*
X45400Y61620D01*
X45500Y61870D02*
X45550Y61920D01*
X45650D01*
X45700Y61870D01*
Y61820D01*
X45650Y61770D01*
X45700Y61720D01*
Y61670D01*
X45650Y61620D01*
X45550D01*
X45500Y61670D01*
Y61720D01*
X45550Y61770D01*
X45500Y61820D01*
Y61870D01*
X45550Y61770D02*
X45650D01*
X46300Y61800D02*
Y62100D01*
X46450D01*
X46500Y62050D01*
Y61950D01*
X46450Y61900D01*
X46300D01*
X46400D02*
X46500Y61800D01*
X46600Y62100D02*
X46800D01*
Y62050D01*
X46600Y61850D01*
Y61800D01*
X52300Y61500D02*
Y61800D01*
X52450D01*
X52500Y61750D01*
Y61650D01*
X52450Y61600D01*
X52300D01*
X52400D02*
X52500Y61500D01*
X52800Y61800D02*
X52700Y61750D01*
X52600Y61650D01*
Y61550D01*
X52650Y61500D01*
X52750D01*
X52800Y61550D01*
Y61600D01*
X52750Y61650D01*
X52600D01*
X50500Y61500D02*
Y61800D01*
X50650D01*
X50700Y61750D01*
Y61650D01*
X50650Y61600D01*
X50500D01*
X50600D02*
X50700Y61500D01*
X51000Y61800D02*
X50800D01*
Y61650D01*
X50900Y61700D01*
X50950D01*
X51000Y61650D01*
Y61550D01*
X50950Y61500D01*
X50850D01*
X50800Y61550D01*
X53100Y60300D02*
X53400D01*
Y60150D01*
X53350Y60100D01*
X53250D01*
X53200Y60150D01*
Y60300D01*
Y60200D02*
X53100Y60100D01*
Y59850D02*
X53400D01*
X53250Y60000D01*
Y59800D01*
X52400Y53000D02*
X52100D01*
Y53150D01*
X52150Y53200D01*
X52250D01*
X52300Y53150D01*
Y53000D01*
Y53100D02*
X52400Y53200D01*
X52150Y53300D02*
X52100Y53350D01*
Y53450D01*
X52150Y53500D01*
X52200D01*
X52250Y53450D01*
Y53400D01*
Y53450D01*
X52300Y53500D01*
X52350D01*
X52400Y53450D01*
Y53350D01*
X52350Y53300D01*
X51900Y62100D02*
X51600D01*
Y62250D01*
X51650Y62300D01*
X51750D01*
X51800Y62250D01*
Y62100D01*
Y62200D02*
X51900Y62300D01*
Y62600D02*
Y62400D01*
X51700Y62600D01*
X51650D01*
X51600Y62550D01*
Y62450D01*
X51650Y62400D01*
X52520Y55140D02*
Y55440D01*
X52670D01*
X52720Y55390D01*
Y55290D01*
X52670Y55240D01*
X52520D01*
X52620D02*
X52720Y55140D01*
X52820D02*
X52920D01*
X52870D01*
Y55440D01*
X52820Y55390D01*
X58350Y35800D02*
X58250D01*
X58200Y35750D01*
Y35550D01*
X58250Y35500D01*
X58350D01*
X58400Y35550D01*
Y35750D01*
X58350Y35800D01*
X58700Y35500D02*
X58500D01*
X58700Y35700D01*
Y35750D01*
X58650Y35800D01*
X58550D01*
X58500Y35750D01*
X62550Y35700D02*
X62450D01*
X62400Y35650D01*
Y35450D01*
X62450Y35400D01*
X62550D01*
X62600Y35450D01*
Y35650D01*
X62550Y35700D01*
X62700Y35400D02*
X62800D01*
X62750D01*
Y35700D01*
X62700Y35650D01*
X23100Y41100D02*
Y41200D01*
Y41150D01*
X22850D01*
X22800Y41200D01*
Y41250D01*
X22850Y41300D01*
X22800Y41000D02*
X23100D01*
Y40850D01*
X23050Y40800D01*
X22950D01*
X22900Y40850D01*
Y41000D01*
X23050Y40700D02*
X23100Y40650D01*
Y40550D01*
X23050Y40500D01*
X23000D01*
X22950Y40550D01*
Y40600D01*
Y40550D01*
X22900Y40500D01*
X22850D01*
X22800Y40550D01*
Y40650D01*
X22850Y40700D01*
X92200Y38400D02*
Y38100D01*
X92350D01*
X92400Y38150D01*
Y38350D01*
X92350Y38400D01*
X92200D01*
X92700Y38350D02*
X92650Y38400D01*
X92550D01*
X92500Y38350D01*
Y38300D01*
X92550Y38250D01*
X92650D01*
X92700Y38200D01*
Y38150D01*
X92650Y38100D01*
X92550D01*
X92500Y38150D01*
X92800Y38100D02*
X92900D01*
X92850D01*
Y38400D01*
X92800Y38350D01*
X43210Y66030D02*
X43160Y65980D01*
Y65880D01*
X43210Y65830D01*
X43410D01*
X43460Y65880D01*
Y65980D01*
X43410Y66030D01*
X43160Y66280D02*
Y66180D01*
X43210Y66130D01*
X43410D01*
X43460Y66180D01*
Y66280D01*
X43410Y66330D01*
X43210D01*
X43160Y66280D01*
X43460Y66430D02*
X43160D01*
X43460Y66630D01*
X43160D01*
X43460Y66730D02*
X43160D01*
X43460Y66930D01*
X43160D01*
X43460Y67030D02*
Y67130D01*
Y67080D01*
X43160D01*
X43210Y67030D01*
X68510Y40980D02*
X68460Y41030D01*
X68360D01*
X68310Y40980D01*
Y40780D01*
X68360Y40730D01*
X68460D01*
X68510Y40780D01*
X68810Y41030D02*
X68610D01*
Y40880D01*
X68710D01*
X68610D01*
Y40730D01*
X68910D02*
X69010D01*
X68960D01*
Y41030D01*
X68910Y40980D01*
X60440Y40540D02*
X60390Y40590D01*
X60290D01*
X60240Y40540D01*
Y40340D01*
X60290Y40290D01*
X60390D01*
X60440Y40340D01*
X60540Y40290D02*
X60640D01*
X60590D01*
Y40590D01*
X60540Y40540D01*
X60790D02*
X60840Y40590D01*
X60940D01*
X60990Y40540D01*
Y40340D01*
X60940Y40290D01*
X60840D01*
X60790Y40340D01*
Y40540D01*
X61290Y40590D02*
X61190Y40540D01*
X61090Y40440D01*
Y40340D01*
X61140Y40290D01*
X61240D01*
X61290Y40340D01*
Y40390D01*
X61240Y40440D01*
X61090D01*
X60600Y36050D02*
X60650Y36000D01*
X60750D01*
X60800Y36050D01*
Y36250D01*
X60750Y36300D01*
X60650D01*
X60600Y36250D01*
X60500Y36300D02*
X60400D01*
X60450D01*
Y36000D01*
X60500Y36050D01*
X60250D02*
X60200Y36000D01*
X60100D01*
X60050Y36050D01*
Y36250D01*
X60100Y36300D01*
X60200D01*
X60250Y36250D01*
Y36050D01*
X59750Y36000D02*
X59950D01*
Y36150D01*
X59850Y36100D01*
X59800D01*
X59750Y36150D01*
Y36250D01*
X59800Y36300D01*
X59900D01*
X59950Y36250D01*
X66150Y38900D02*
X66200Y38950D01*
Y39050D01*
X66150Y39100D01*
X65950D01*
X65900Y39050D01*
Y38950D01*
X65950Y38900D01*
X65900Y38800D02*
Y38700D01*
Y38750D01*
X66200D01*
X66150Y38800D01*
Y38550D02*
X66200Y38500D01*
Y38400D01*
X66150Y38350D01*
X65950D01*
X65900Y38400D01*
Y38500D01*
X65950Y38550D01*
X66150D01*
X65900Y38100D02*
X66200D01*
X66050Y38250D01*
Y38050D01*
X46670Y37510D02*
X46620Y37560D01*
X46520D01*
X46470Y37510D01*
Y37310D01*
X46520Y37260D01*
X46620D01*
X46670Y37310D01*
X46770Y37510D02*
X46820Y37560D01*
X46920D01*
X46970Y37510D01*
Y37460D01*
X46920Y37410D01*
X46970Y37360D01*
Y37310D01*
X46920Y37260D01*
X46820D01*
X46770Y37310D01*
Y37360D01*
X46820Y37410D01*
X46770Y37460D01*
Y37510D01*
X46820Y37410D02*
X46920D01*
X47270Y37560D02*
X47170Y37510D01*
X47070Y37410D01*
Y37310D01*
X47120Y37260D01*
X47220D01*
X47270Y37310D01*
Y37360D01*
X47220Y37410D01*
X47070D01*
X66800Y48070D02*
X66750Y48120D01*
X66650D01*
X66600Y48070D01*
Y47870D01*
X66650Y47820D01*
X66750D01*
X66800Y47870D01*
X66900Y48070D02*
X66950Y48120D01*
X67050D01*
X67100Y48070D01*
Y48020D01*
X67050Y47970D01*
X67100Y47920D01*
Y47870D01*
X67050Y47820D01*
X66950D01*
X66900Y47870D01*
Y47920D01*
X66950Y47970D01*
X66900Y48020D01*
Y48070D01*
X66950Y47970D02*
X67050D01*
X67400Y48120D02*
X67200D01*
Y47970D01*
X67300Y48020D01*
X67350D01*
X67400Y47970D01*
Y47870D01*
X67350Y47820D01*
X67250D01*
X67200Y47870D01*
X65400Y48070D02*
X65350Y48120D01*
X65250D01*
X65200Y48070D01*
Y47870D01*
X65250Y47820D01*
X65350D01*
X65400Y47870D01*
X65500Y48070D02*
X65550Y48120D01*
X65650D01*
X65700Y48070D01*
Y48020D01*
X65650Y47970D01*
X65700Y47920D01*
Y47870D01*
X65650Y47820D01*
X65550D01*
X65500Y47870D01*
Y47920D01*
X65550Y47970D01*
X65500Y48020D01*
Y48070D01*
X65550Y47970D02*
X65650D01*
X65950Y47820D02*
Y48120D01*
X65800Y47970D01*
X66000D01*
X32240Y46940D02*
X32190Y46990D01*
X32090D01*
X32040Y46940D01*
Y46740D01*
X32090Y46690D01*
X32190D01*
X32240Y46740D01*
X32340Y46940D02*
X32390Y46990D01*
X32490D01*
X32540Y46940D01*
Y46890D01*
X32490Y46840D01*
X32440D01*
X32490D01*
X32540Y46790D01*
Y46740D01*
X32490Y46690D01*
X32390D01*
X32340Y46740D01*
X32840Y46990D02*
X32640D01*
Y46840D01*
X32740Y46890D01*
X32790D01*
X32840Y46840D01*
Y46740D01*
X32790Y46690D01*
X32690D01*
X32640Y46740D01*
X35890Y46550D02*
X35840Y46600D01*
X35740D01*
X35690Y46550D01*
Y46350D01*
X35740Y46300D01*
X35840D01*
X35890Y46350D01*
X35990Y46550D02*
X36040Y46600D01*
X36140D01*
X36190Y46550D01*
Y46500D01*
X36140Y46450D01*
X36090D01*
X36140D01*
X36190Y46400D01*
Y46350D01*
X36140Y46300D01*
X36040D01*
X35990Y46350D01*
X36440Y46300D02*
Y46600D01*
X36290Y46450D01*
X36490D01*
X31490Y62350D02*
X31440Y62400D01*
X31340D01*
X31290Y62350D01*
Y62150D01*
X31340Y62100D01*
X31440D01*
X31490Y62150D01*
X31590Y62350D02*
X31640Y62400D01*
X31740D01*
X31790Y62350D01*
Y62300D01*
X31740Y62250D01*
X31690D01*
X31740D01*
X31790Y62200D01*
Y62150D01*
X31740Y62100D01*
X31640D01*
X31590Y62150D01*
X31890Y62350D02*
X31940Y62400D01*
X32040D01*
X32090Y62350D01*
Y62300D01*
X32040Y62250D01*
X31990D01*
X32040D01*
X32090Y62200D01*
Y62150D01*
X32040Y62100D01*
X31940D01*
X31890Y62150D01*
X35490Y63150D02*
X35440Y63200D01*
X35340D01*
X35290Y63150D01*
Y62950D01*
X35340Y62900D01*
X35440D01*
X35490Y62950D01*
X35590Y63150D02*
X35640Y63200D01*
X35740D01*
X35790Y63150D01*
Y63100D01*
X35740Y63050D01*
X35690D01*
X35740D01*
X35790Y63000D01*
Y62950D01*
X35740Y62900D01*
X35640D01*
X35590Y62950D01*
X36090Y62900D02*
X35890D01*
X36090Y63100D01*
Y63150D01*
X36040Y63200D01*
X35940D01*
X35890Y63150D01*
X39950Y50500D02*
X40000Y50550D01*
Y50650D01*
X39950Y50700D01*
X39750D01*
X39700Y50650D01*
Y50550D01*
X39750Y50500D01*
X39700Y50400D02*
Y50300D01*
Y50350D01*
X40000D01*
X39950Y50400D01*
X40000Y50150D02*
Y49950D01*
X39950D01*
X39750Y50150D01*
X39700D01*
X38950Y54100D02*
X39000Y54150D01*
Y54250D01*
X38950Y54300D01*
X38750D01*
X38700Y54250D01*
Y54150D01*
X38750Y54100D01*
X38700Y54000D02*
Y53900D01*
Y53950D01*
X39000D01*
X38950Y54000D01*
X39000Y53550D02*
X38950Y53650D01*
X38850Y53750D01*
X38750D01*
X38700Y53700D01*
Y53600D01*
X38750Y53550D01*
X38800D01*
X38850Y53600D01*
Y53750D01*
X38250Y55200D02*
X38300Y55250D01*
Y55350D01*
X38250Y55400D01*
X38050D01*
X38000Y55350D01*
Y55250D01*
X38050Y55200D01*
X38000Y55100D02*
Y55000D01*
Y55050D01*
X38300D01*
X38250Y55100D01*
X38300Y54650D02*
Y54850D01*
X38150D01*
X38200Y54750D01*
Y54700D01*
X38150Y54650D01*
X38050D01*
X38000Y54700D01*
Y54800D01*
X38050Y54850D01*
X38500Y52350D02*
X38450Y52400D01*
X38350D01*
X38300Y52350D01*
Y52150D01*
X38350Y52100D01*
X38450D01*
X38500Y52150D01*
X38600Y52100D02*
X38700D01*
X38650D01*
Y52400D01*
X38600Y52350D01*
X39000Y52100D02*
Y52400D01*
X38850Y52250D01*
X39050D01*
X45300Y36700D02*
X45000D01*
Y36550D01*
X45050Y36500D01*
X45250D01*
X45300Y36550D01*
Y36700D01*
X45250Y36200D02*
X45300Y36250D01*
Y36350D01*
X45250Y36400D01*
X45200D01*
X45150Y36350D01*
Y36250D01*
X45100Y36200D01*
X45050D01*
X45000Y36250D01*
Y36350D01*
X45050Y36400D01*
X45000Y35900D02*
Y36100D01*
X45200Y35900D01*
X45250D01*
X45300Y35950D01*
Y36050D01*
X45250Y36100D01*
X40200Y36100D02*
X40500D01*
Y36250D01*
X40450Y36300D01*
X40250D01*
X40200Y36250D01*
Y36100D01*
X40250Y36600D02*
X40200Y36550D01*
Y36450D01*
X40250Y36400D01*
X40300D01*
X40350Y36450D01*
Y36550D01*
X40400Y36600D01*
X40450D01*
X40500Y36550D01*
Y36450D01*
X40450Y36400D01*
X40250Y36700D02*
X40200Y36750D01*
Y36850D01*
X40250Y36900D01*
X40300D01*
X40350Y36850D01*
Y36800D01*
Y36850D01*
X40400Y36900D01*
X40450D01*
X40500Y36850D01*
Y36750D01*
X40450Y36700D01*
X43400Y40420D02*
Y40720D01*
X43550D01*
X43600Y40670D01*
Y40570D01*
X43550Y40520D01*
X43400D01*
X43500D02*
X43600Y40420D01*
X43700Y40670D02*
X43750Y40720D01*
X43850D01*
X43900Y40670D01*
Y40620D01*
X43850Y40570D01*
X43800D01*
X43850D01*
X43900Y40520D01*
Y40470D01*
X43850Y40420D01*
X43750D01*
X43700Y40470D01*
X44000Y40670D02*
X44050Y40720D01*
X44150D01*
X44200Y40670D01*
Y40620D01*
X44150Y40570D01*
X44200Y40520D01*
Y40470D01*
X44150Y40420D01*
X44050D01*
X44000Y40470D01*
Y40520D01*
X44050Y40570D01*
X44000Y40620D01*
Y40670D01*
X44050Y40570D02*
X44150D01*
X41200Y40220D02*
Y40520D01*
X41350D01*
X41400Y40470D01*
Y40370D01*
X41350Y40320D01*
X41200D01*
X41300D02*
X41400Y40220D01*
X41500Y40470D02*
X41550Y40520D01*
X41650D01*
X41700Y40470D01*
Y40420D01*
X41650Y40370D01*
X41600D01*
X41650D01*
X41700Y40320D01*
Y40270D01*
X41650Y40220D01*
X41550D01*
X41500Y40270D01*
X41800D02*
X41850Y40220D01*
X41950D01*
X42000Y40270D01*
Y40470D01*
X41950Y40520D01*
X41850D01*
X41800Y40470D01*
Y40420D01*
X41850Y40370D01*
X42000D01*
X69660Y56990D02*
X69610Y57040D01*
X69510D01*
X69460Y56990D01*
Y56790D01*
X69510Y56740D01*
X69610D01*
X69660Y56790D01*
X69760Y56740D02*
X69860D01*
X69810D01*
Y57040D01*
X69760Y56990D01*
X70160Y56740D02*
Y57040D01*
X70010Y56890D01*
X70210D01*
X70510Y57040D02*
X70410Y56990D01*
X70310Y56890D01*
Y56790D01*
X70360Y56740D01*
X70460D01*
X70510Y56790D01*
Y56840D01*
X70460Y56890D01*
X70310D01*
X44950Y42100D02*
X44900Y42050D01*
Y41950D01*
X44950Y41900D01*
X45150D01*
X45200Y41950D01*
Y42050D01*
X45150Y42100D01*
X45200Y42200D02*
Y42300D01*
Y42250D01*
X44900D01*
X44950Y42200D01*
X45200Y42600D02*
X44900D01*
X45050Y42450D01*
Y42650D01*
X44900Y42750D02*
Y42950D01*
X44950D01*
X45150Y42750D01*
X45200D01*
X51800Y45290D02*
X51750Y45340D01*
X51650D01*
X51600Y45290D01*
Y45090D01*
X51650Y45040D01*
X51750D01*
X51800Y45090D01*
X51900Y45040D02*
X52000D01*
X51950D01*
Y45340D01*
X51900Y45290D01*
X52300Y45040D02*
Y45340D01*
X52150Y45190D01*
X52350D01*
X52450Y45290D02*
X52500Y45340D01*
X52600D01*
X52650Y45290D01*
Y45240D01*
X52600Y45190D01*
X52650Y45140D01*
Y45090D01*
X52600Y45040D01*
X52500D01*
X52450Y45090D01*
Y45140D01*
X52500Y45190D01*
X52450Y45240D01*
Y45290D01*
X52500Y45190D02*
X52600D01*
X42650Y42100D02*
X42600Y42050D01*
Y41950D01*
X42650Y41900D01*
X42850D01*
X42900Y41950D01*
Y42050D01*
X42850Y42100D01*
X42900Y42200D02*
Y42300D01*
Y42250D01*
X42600D01*
X42650Y42200D01*
X42900Y42600D02*
X42600D01*
X42750Y42450D01*
Y42650D01*
X42850Y42750D02*
X42900Y42800D01*
Y42900D01*
X42850Y42950D01*
X42650D01*
X42600Y42900D01*
Y42800D01*
X42650Y42750D01*
X42700D01*
X42750Y42800D01*
Y42950D01*
X74750Y64100D02*
X74700Y64050D01*
Y63950D01*
X74750Y63900D01*
X74950D01*
X75000Y63950D01*
Y64050D01*
X74950Y64100D01*
X75000Y64200D02*
Y64300D01*
Y64250D01*
X74700D01*
X74750Y64200D01*
X74700Y64650D02*
Y64450D01*
X74850D01*
X74800Y64550D01*
Y64600D01*
X74850Y64650D01*
X74950D01*
X75000Y64600D01*
Y64500D01*
X74950Y64450D01*
X74750Y64750D02*
X74700Y64800D01*
Y64900D01*
X74750Y64950D01*
X74950D01*
X75000Y64900D01*
Y64800D01*
X74950Y64750D01*
X74750D01*
X41800Y65530D02*
X41750Y65580D01*
X41650D01*
X41600Y65530D01*
Y65330D01*
X41650Y65280D01*
X41750D01*
X41800Y65330D01*
X41900Y65280D02*
X42000D01*
X41950D01*
Y65580D01*
X41900Y65530D01*
X42350Y65580D02*
X42150D01*
Y65430D01*
X42250Y65480D01*
X42300D01*
X42350Y65430D01*
Y65330D01*
X42300Y65280D01*
X42200D01*
X42150Y65330D01*
X42450Y65280D02*
X42550D01*
X42500D01*
Y65580D01*
X42450Y65530D01*
X44360Y64530D02*
Y64830D01*
X44460Y64730D01*
X44560Y64830D01*
Y64530D01*
X44810Y64830D02*
X44710D01*
X44660Y64780D01*
Y64580D01*
X44710Y64530D01*
X44810D01*
X44860Y64580D01*
Y64780D01*
X44810Y64830D01*
X44960D02*
Y64530D01*
X45160D01*
X45460Y64830D02*
X45260D01*
Y64530D01*
X45460D01*
X45260Y64680D02*
X45360D01*
X45560Y64830D02*
X45760Y64530D01*
Y64830D02*
X45560Y64530D01*
X46159Y64830D02*
X46359D01*
Y64780D01*
X46159Y64580D01*
Y64530D01*
X46459D02*
X46559D01*
X46509D01*
Y64830D01*
X46459Y64780D01*
X46909Y64830D02*
X46809Y64780D01*
X46709Y64680D01*
Y64580D01*
X46759Y64530D01*
X46859D01*
X46909Y64580D01*
Y64630D01*
X46859Y64680D01*
X46709D01*
X47209Y64830D02*
X47109Y64780D01*
X47009Y64680D01*
Y64580D01*
X47059Y64530D01*
X47159D01*
X47209Y64580D01*
Y64630D01*
X47159Y64680D01*
X47009D01*
X47309Y64530D02*
X47409D01*
X47359D01*
Y64830D01*
X47309Y64780D01*
X47559Y64680D02*
X47759D01*
X48059Y64530D02*
X47859D01*
X48059Y64730D01*
Y64780D01*
X48009Y64830D01*
X47909D01*
X47859Y64780D01*
X48159D02*
X48209Y64830D01*
X48309D01*
X48359Y64780D01*
Y64580D01*
X48309Y64530D01*
X48209D01*
X48159Y64580D01*
Y64780D01*
X48659Y64830D02*
X48559Y64780D01*
X48459Y64680D01*
Y64580D01*
X48509Y64530D01*
X48609D01*
X48659Y64580D01*
Y64630D01*
X48609Y64680D01*
X48459D01*
X48759Y64780D02*
X48809Y64830D01*
X48909D01*
X48959Y64780D01*
Y64730D01*
X48909Y64680D01*
X48959Y64630D01*
Y64580D01*
X48909Y64530D01*
X48809D01*
X48759Y64580D01*
Y64630D01*
X48809Y64680D01*
X48759Y64730D01*
Y64780D01*
X48809Y64680D02*
X48909D01*
X49358Y64530D02*
Y64830D01*
X49508D01*
X49558Y64780D01*
Y64680D01*
X49508Y64630D01*
X49358D01*
X49658Y64830D02*
Y64530D01*
X49858D01*
X49958Y64830D02*
Y64580D01*
X50008Y64530D01*
X50108D01*
X50158Y64580D01*
Y64830D01*
X50458Y64780D02*
X50408Y64830D01*
X50308D01*
X50258Y64780D01*
Y64580D01*
X50308Y64530D01*
X50408D01*
X50458Y64580D01*
Y64680D01*
X50358D01*
X27867Y31933D02*
X27800Y32000D01*
X27667D01*
X27600Y31933D01*
Y31667D01*
X27667Y31600D01*
X27800D01*
X27867Y31667D01*
X28067Y31600D02*
X28200D01*
X28266Y31667D01*
Y31800D01*
X28200Y31867D01*
X28067D01*
X28000Y31800D01*
Y31667D01*
X28067Y31600D01*
X28400Y31467D02*
Y31867D01*
X28600D01*
X28666Y31800D01*
Y31667D01*
X28600Y31600D01*
X28400D01*
X28800Y31867D02*
Y31667D01*
X28866Y31600D01*
X29066D01*
Y31533D01*
X29000Y31467D01*
X28933D01*
X29066Y31600D02*
Y31867D01*
X29199D02*
Y31600D01*
Y31733D01*
X29266Y31800D01*
X29333Y31867D01*
X29399D01*
X29599Y31600D02*
X29733D01*
X29666D01*
Y31867D01*
X29599D01*
X30066Y31467D02*
X30133D01*
X30199Y31533D01*
Y31867D01*
X29999D01*
X29933Y31800D01*
Y31667D01*
X29999Y31600D01*
X30199D01*
X30332Y32000D02*
Y31600D01*
Y31800D01*
X30399Y31867D01*
X30532D01*
X30599Y31800D01*
Y31600D01*
X30799Y31933D02*
Y31867D01*
X30732D01*
X30866D01*
X30799D01*
Y31667D01*
X30866Y31600D01*
X31732Y32000D02*
X31465D01*
Y31600D01*
X31732D01*
X31465Y31800D02*
X31599D01*
X31865Y31867D02*
Y31600D01*
Y31733D01*
X31932Y31800D01*
X31999Y31867D01*
X32065D01*
X32265Y31600D02*
X32398D01*
X32332D01*
Y31867D01*
X32265D01*
X32865D02*
X32665D01*
X32598Y31800D01*
Y31667D01*
X32665Y31600D01*
X32865D01*
X33665Y32000D02*
X33531D01*
X33598D01*
Y31667D01*
X33531Y31600D01*
X33465D01*
X33398Y31667D01*
X33865Y31600D02*
X33998D01*
X34065Y31667D01*
Y31800D01*
X33998Y31867D01*
X33865D01*
X33798Y31800D01*
Y31667D01*
X33865Y31600D01*
X34198D02*
Y31867D01*
X34398D01*
X34464Y31800D01*
Y31600D01*
X34664Y31867D02*
X34798D01*
X34864Y31800D01*
Y31600D01*
X34664D01*
X34598Y31667D01*
X34664Y31733D01*
X34864D01*
X34998Y31600D02*
X35198D01*
X35264Y31667D01*
X35198Y31733D01*
X35064D01*
X34998Y31800D01*
X35064Y31867D01*
X35264D01*
X36064Y31600D02*
X35797D01*
X36064Y31867D01*
Y31933D01*
X35997Y32000D01*
X35864D01*
X35797Y31933D01*
X36197D02*
X36264Y32000D01*
X36397D01*
X36464Y31933D01*
Y31667D01*
X36397Y31600D01*
X36264D01*
X36197Y31667D01*
Y31933D01*
X36597D02*
X36664Y32000D01*
X36797D01*
X36864Y31933D01*
Y31667D01*
X36797Y31600D01*
X36664D01*
X36597Y31667D01*
Y31933D01*
X37264Y31600D02*
X36997D01*
X37264Y31867D01*
Y31933D01*
X37197Y32000D01*
X37064D01*
X36997Y31933D01*
X37397Y31800D02*
X37663D01*
X38063Y31600D02*
X37797D01*
X38063Y31867D01*
Y31933D01*
X37997Y32000D01*
X37863D01*
X37797Y31933D01*
X38197D02*
X38263Y32000D01*
X38397D01*
X38463Y31933D01*
Y31667D01*
X38397Y31600D01*
X38263D01*
X38197Y31667D01*
Y31933D01*
X38596D02*
X38663Y32000D01*
X38796D01*
X38863Y31933D01*
Y31667D01*
X38796Y31600D01*
X38663D01*
X38596Y31667D01*
Y31933D01*
X39196Y31600D02*
Y32000D01*
X38996Y31800D01*
X39263D01*
X42300Y31867D02*
X42433Y31600D01*
X42567Y31867D01*
X42900Y31600D02*
X42767D01*
X42700Y31667D01*
Y31800D01*
X42767Y31867D01*
X42900D01*
X42966Y31800D01*
Y31733D01*
X42700D01*
X43100Y31867D02*
Y31600D01*
Y31733D01*
X43166Y31800D01*
X43233Y31867D01*
X43300D01*
X43899Y31600D02*
X44033D01*
X43966D01*
Y32000D01*
X43899Y31933D01*
X44233Y31600D02*
Y31667D01*
X44299D01*
Y31600D01*
X44233D01*
X44566Y31933D02*
X44633Y32000D01*
X44766D01*
X44833Y31933D01*
Y31667D01*
X44766Y31600D01*
X44633D01*
X44566Y31667D01*
Y31933D01*
X27600Y30863D02*
X27658D01*
X27717Y30922D01*
Y31213D01*
X28008Y30980D02*
X28125D01*
X28183Y31038D01*
Y31155D01*
X28125Y31213D01*
X28008D01*
X27950Y31155D01*
Y31038D01*
X28008Y30980D01*
X28300D02*
Y31213D01*
X28475D01*
X28533Y31155D01*
Y30980D01*
X28708Y31213D02*
X28825D01*
X28883Y31155D01*
Y30980D01*
X28708D01*
X28650Y31038D01*
X28708Y31097D01*
X28883D01*
X29000Y30980D02*
X29174D01*
X29233Y31038D01*
X29174Y31097D01*
X29058D01*
X29000Y31155D01*
X29058Y31213D01*
X29233D01*
X29524Y31097D02*
Y31155D01*
X29466D01*
Y31097D01*
X29524D01*
X29583Y31155D01*
Y31272D01*
X29524Y31330D01*
X29408D01*
X29349Y31272D01*
Y31038D01*
X29408Y30980D01*
X29583D01*
X29699D02*
X29874D01*
X29933Y31038D01*
X29874Y31097D01*
X29758D01*
X29699Y31155D01*
X29758Y31213D01*
X29933D01*
X30108Y30980D02*
X30224D01*
X30282Y31038D01*
Y31155D01*
X30224Y31213D01*
X30108D01*
X30049Y31155D01*
Y31038D01*
X30108Y30980D01*
X30399D02*
Y31213D01*
X30457D01*
X30516Y31155D01*
Y30980D01*
Y31155D01*
X30574Y31213D01*
X30632Y31155D01*
Y30980D01*
X30807Y31213D02*
X30924D01*
X30982Y31155D01*
Y30980D01*
X30807D01*
X30749Y31038D01*
X30807Y31097D01*
X30982D01*
X31099Y30980D02*
Y31038D01*
X31157D01*
Y30980D01*
X31099D01*
X31390D02*
Y31213D01*
X31449D01*
X31507Y31155D01*
Y30980D01*
Y31155D01*
X31565Y31213D01*
X31624Y31155D01*
Y30980D01*
X31740D02*
X31857D01*
X31799D01*
Y31213D01*
X31740D01*
X32090Y31272D02*
Y31213D01*
X32032D01*
X32149D01*
X32090D01*
Y31038D01*
X32149Y30980D01*
X32323D02*
Y31038D01*
X32382D01*
Y30980D01*
X32323D01*
X32790D02*
X32673D01*
X32615Y31038D01*
Y31155D01*
X32673Y31213D01*
X32790D01*
X32848Y31155D01*
Y31097D01*
X32615D01*
X33198Y31330D02*
Y30980D01*
X33023D01*
X32965Y31038D01*
Y31155D01*
X33023Y31213D01*
X33198D01*
X33315D02*
Y31038D01*
X33373Y30980D01*
X33548D01*
Y31213D01*
X42000Y30980D02*
Y31330D01*
X42175D01*
X42233Y31272D01*
Y31155D01*
X42175Y31097D01*
X42000D01*
X42583Y31272D02*
X42525Y31330D01*
X42408D01*
X42350Y31272D01*
Y31038D01*
X42408Y30980D01*
X42525D01*
X42583Y31038D01*
X42700Y31330D02*
Y30980D01*
X42933D01*
X43050D02*
Y31330D01*
X43166Y31213D01*
X43283Y31330D01*
Y30980D01*
X43458Y30922D02*
X43516Y30980D01*
Y31038D01*
X43458D01*
Y30980D01*
X43516D01*
X43458Y30922D01*
X43400Y30863D01*
X44099Y30980D02*
Y31330D01*
X44216Y31213D01*
X44333Y31330D01*
Y30980D01*
X44449Y31330D02*
X44566D01*
X44508D01*
Y30980D01*
X44449D01*
X44566D01*
X44741Y31330D02*
X44974D01*
X44857D01*
Y30980D01*
D66*
X24320Y64564D02*
G03*
X24320Y65036I0J236D01*
G01*
X89003Y58671D02*
G03*
X88597Y58671I-203J0D01*
G01*
X89103Y47571D02*
G03*
X88697Y47571I-203J0D01*
G01*
X27678Y58856D02*
G03*
X27678Y59144I0J144D01*
G01*
Y53056D02*
G03*
X27678Y53344I0J144D01*
G01*
Y47656D02*
G03*
X27678Y47944I0J144D01*
G01*
Y41856D02*
G03*
X27678Y42144I0J144D01*
G01*
X26880Y36436D02*
G03*
X26880Y35964I0J-236D01*
G01*
X63564Y38416D02*
G03*
X63236Y38416I-164J0D01*
G01*
X89036Y63320D02*
G03*
X88564Y63320I-236J0D01*
G01*
X80236D02*
G03*
X79764Y63320I-236J0D01*
G01*
X89036Y55520D02*
G03*
X88564Y55520I-236J0D01*
G01*
X80236Y55120D02*
G03*
X79764Y55120I-236J0D01*
G01*
X89036Y52120D02*
G03*
X88564Y52120I-236J0D01*
G01*
X80236Y51920D02*
G03*
X79764Y51920I-236J0D01*
G01*
X89236Y43920D02*
G03*
X88764Y43920I-236J0D01*
G01*
X35253Y54590D02*
G03*
X35440Y54590I93J0D01*
G01*
X33753Y49751D02*
G03*
X33753Y50249I0J249D01*
G01*
X80236Y44120D02*
G03*
X79764Y44120I-236J0D01*
G01*
X80203Y47471D02*
G03*
X79797Y47471I-203J0D01*
G01*
X80203Y58671D02*
G03*
X79797Y58671I-203J0D01*
G01*
X24320Y65509D02*
X26880D01*
X24320Y64091D02*
X26880D01*
Y65509D01*
X24320Y65036D02*
Y65509D01*
Y64091D02*
Y64564D01*
X46630Y41668D02*
Y45329D01*
X45370Y41668D02*
Y45329D01*
X46630D01*
X75170Y62671D02*
Y66332D01*
X76430Y62671D02*
Y66332D01*
X75170Y62671D02*
X76430D01*
X44230Y41668D02*
Y45329D01*
X42970Y41668D02*
Y45329D01*
X44230D01*
X52830Y41068D02*
Y44729D01*
X51570Y41068D02*
Y44729D01*
X52830D01*
X89003Y58671D02*
X89410D01*
X88190D02*
X88597D01*
X88190Y62529D02*
X89410D01*
Y58671D02*
Y62529D01*
X88190Y58671D02*
Y62529D01*
X88290Y47571D02*
Y51429D01*
X89510Y47571D02*
Y51429D01*
X88290D02*
X89510D01*
X88290Y47571D02*
X88697D01*
X89103D02*
X89510D01*
X41954Y39338D02*
Y39909D01*
X41246Y39338D02*
Y39909D01*
X41954D01*
X41246Y38491D02*
X41954D01*
Y39062D01*
X41246Y38491D02*
Y39062D01*
X44154Y39538D02*
Y40109D01*
X43446Y39538D02*
Y40109D01*
X44154D01*
X43446Y38691D02*
X44154D01*
Y39262D01*
X43446Y38691D02*
Y39262D01*
X74959Y45041D02*
Y50159D01*
X69841Y45041D02*
Y50159D01*
Y45041D02*
X74959D01*
X69841Y50159D02*
X74959D01*
X65246Y46091D02*
Y46662D01*
X65954Y46091D02*
Y46662D01*
X65246Y46091D02*
X65954D01*
X65246Y47509D02*
X65954D01*
X65246Y46938D02*
Y47509D01*
X65954Y46938D02*
Y47509D01*
X67354Y46938D02*
Y47509D01*
X66646Y46938D02*
Y47509D01*
X67354D01*
X66646Y46091D02*
X67354D01*
Y46662D01*
X66646Y46091D02*
Y46662D01*
X63559Y53241D02*
Y58359D01*
X58441Y53241D02*
Y58359D01*
Y53241D02*
X63559D01*
X58441Y58359D02*
X63559D01*
X45241Y53241D02*
X50359D01*
X45241Y58359D02*
X50359D01*
X45241Y53241D02*
Y58359D01*
X50359Y53241D02*
Y58359D01*
X27678Y58567D02*
Y58856D01*
Y59144D02*
Y59433D01*
X31122Y58567D02*
Y59433D01*
X27678Y58567D02*
X31122D01*
X27678Y59433D02*
X31122D01*
X36491Y55354D02*
X37062D01*
X36491Y54646D02*
X37062D01*
X36491D02*
Y55354D01*
X37909Y54646D02*
Y55354D01*
X37338D02*
X37909D01*
X37338Y54646D02*
X37909D01*
X27678Y52767D02*
Y53056D01*
Y53344D02*
Y53633D01*
X31122Y52767D02*
Y53633D01*
X27678Y52767D02*
X31122D01*
X27678Y53633D02*
X31122D01*
X39138Y51246D02*
X39709D01*
X39138Y51954D02*
X39709D01*
Y51246D02*
Y51954D01*
X38291Y51246D02*
Y51954D01*
Y51246D02*
X38862D01*
X38291Y51954D02*
X38862D01*
X39591Y48655D02*
Y50742D01*
X38409Y48655D02*
Y50742D01*
X39591D01*
X36458Y54391D02*
X38545D01*
X36458Y53209D02*
X38545D01*
X36458D02*
Y54391D01*
X27678Y47367D02*
Y47656D01*
Y47944D02*
Y48233D01*
X31122Y47367D02*
Y48233D01*
X27678Y47367D02*
X31122D01*
X27678Y48233D02*
X31122D01*
X27678Y41567D02*
Y41856D01*
Y42144D02*
Y42433D01*
X31122Y41567D02*
Y42433D01*
X27678Y41567D02*
X31122D01*
X27678Y42433D02*
X31122D01*
X26880Y36436D02*
Y36909D01*
Y35491D02*
Y35964D01*
X24320Y35491D02*
Y36909D01*
X26880D01*
X24320Y35491D02*
X26880D01*
X33707Y59893D02*
X37093D01*
Y56507D02*
Y59893D01*
X33707Y56507D02*
X37093D01*
X33707D02*
Y59893D01*
X35658Y45991D02*
X37745D01*
X35658Y44809D02*
X37745D01*
X35658D02*
Y45991D01*
X32009Y44258D02*
Y46345D01*
X33191Y44258D02*
Y46345D01*
X32009Y44258D02*
X33191D01*
X33707Y43493D02*
X37093D01*
Y40107D02*
Y43493D01*
X33707Y40107D02*
X37093D01*
X33707D02*
Y43493D01*
X35258Y62591D02*
X37345D01*
X35258Y61409D02*
X37345D01*
X35258D02*
Y62591D01*
X31258Y61791D02*
X33345D01*
X31258Y60609D02*
X33345D01*
X31258D02*
Y61791D01*
X42846Y56891D02*
Y57462D01*
X43554Y56891D02*
Y57462D01*
X42846Y56891D02*
X43554D01*
X42846Y58309D02*
X43554D01*
X42846Y57738D02*
Y58309D01*
X43554Y57738D02*
Y58309D01*
X42846Y58491D02*
Y59062D01*
X43554Y58491D02*
Y59062D01*
X42846Y58491D02*
X43554D01*
X42846Y59909D02*
X43554D01*
X42846Y59338D02*
Y59909D01*
X43554Y59338D02*
Y59909D01*
X45954Y60738D02*
Y61309D01*
X45246Y60738D02*
Y61309D01*
X45954D01*
X45246Y59891D02*
X45954D01*
Y60462D01*
X45246Y59891D02*
Y60462D01*
X46291Y61554D02*
X46862D01*
X46291Y60846D02*
X46862D01*
X46291D02*
Y61554D01*
X47709Y60846D02*
Y61554D01*
X47138D02*
X47709D01*
X47138Y60846D02*
X47709D01*
X51491Y61354D02*
X52062D01*
X51491Y60646D02*
X52062D01*
X51491D02*
Y61354D01*
X52909Y60646D02*
Y61354D01*
X52338D02*
X52909D01*
X52338Y60646D02*
X52909D01*
X51154Y60738D02*
Y61309D01*
X50446Y60738D02*
Y61309D01*
X51154D01*
X50446Y59891D02*
X51154D01*
Y60462D01*
X50446Y59891D02*
Y60462D01*
X47938Y62046D02*
X48509D01*
X47938Y62754D02*
X48509D01*
Y62046D02*
Y62754D01*
X47091Y62046D02*
Y62754D01*
Y62046D02*
X47662D01*
X47091Y62754D02*
X47662D01*
X51938Y51446D02*
X52509D01*
X51938Y52154D02*
X52509D01*
Y51446D02*
Y52154D01*
X51091Y51446D02*
Y52154D01*
Y51446D02*
X51662D01*
X51091Y52154D02*
X51662D01*
X52338Y59646D02*
X52909D01*
X52338Y60354D02*
X52909D01*
Y59646D02*
Y60354D01*
X51491Y59646D02*
Y60354D01*
Y59646D02*
X52062D01*
X51491Y60354D02*
X52062D01*
X51554Y49938D02*
Y50509D01*
X50846Y49938D02*
Y50509D01*
X51554D01*
X50846Y49091D02*
X51554D01*
Y49662D01*
X50846Y49091D02*
Y49662D01*
X52491Y53754D02*
X53062D01*
X52491Y53046D02*
X53062D01*
X52491D02*
Y53754D01*
X53909Y53046D02*
Y53754D01*
X53338D02*
X53909D01*
X53338Y53046D02*
X53909D01*
X52091Y62754D02*
X52662D01*
X52091Y62046D02*
X52662D01*
X52091D02*
Y62754D01*
X53509Y62046D02*
Y62754D01*
X52938D02*
X53509D01*
X52938Y62046D02*
X53509D01*
X53338Y54046D02*
X53909D01*
X53338Y54754D02*
X53909D01*
Y54046D02*
Y54754D01*
X52491Y54046D02*
Y54754D01*
Y54046D02*
X53062D01*
X52491Y54754D02*
X53062D01*
X52891Y52154D02*
X53462D01*
X52891Y51446D02*
X53462D01*
X52891D02*
Y52154D01*
X54309Y51446D02*
Y52154D01*
X53738D02*
X54309D01*
X53738Y51446D02*
X54309D01*
X65754Y60338D02*
Y60909D01*
X65046Y60338D02*
Y60909D01*
X65754D01*
X65046Y59491D02*
X65754D01*
Y60062D01*
X65046Y59491D02*
Y60062D01*
X66046Y58891D02*
Y59462D01*
X66754Y58891D02*
Y59462D01*
X66046Y58891D02*
X66754D01*
X66046Y60309D02*
X66754D01*
X66046Y59738D02*
Y60309D01*
X66754Y59738D02*
Y60309D01*
X57538Y50646D02*
X58109D01*
X57538Y51354D02*
X58109D01*
Y50646D02*
Y51354D01*
X56691Y50646D02*
Y51354D01*
Y50646D02*
X57262D01*
X56691Y51354D02*
X57262D01*
X55554Y53938D02*
Y54509D01*
X54846Y53938D02*
Y54509D01*
X55554D01*
X54846Y53091D02*
X55554D01*
Y53662D01*
X54846Y53091D02*
Y53662D01*
X55846Y53491D02*
Y54062D01*
X56554Y53491D02*
Y54062D01*
X55846Y53491D02*
X56554D01*
X55846Y54909D02*
X56554D01*
X55846Y54338D02*
Y54909D01*
X56554Y54338D02*
Y54909D01*
X56246Y57091D02*
Y57662D01*
X56954Y57091D02*
Y57662D01*
X56246Y57091D02*
X56954D01*
X56246Y58509D02*
X56954D01*
X56246Y57938D02*
Y58509D01*
X56954Y57938D02*
Y58509D01*
X57288Y48376D02*
X58312D01*
X57288Y50424D02*
X58312D01*
X57288Y49676D02*
Y50424D01*
X58312Y49676D02*
Y50424D01*
X57288Y48376D02*
Y49124D01*
X58312Y48376D02*
Y49124D01*
X57288Y48024D02*
X58312D01*
X57288Y45976D02*
X58312D01*
Y46724D01*
X57288Y45976D02*
Y46724D01*
X58312Y47276D02*
Y48024D01*
X57288Y47276D02*
Y48024D01*
Y42976D02*
X58312D01*
X57288Y45024D02*
X58312D01*
X57288Y44276D02*
Y45024D01*
X58312Y44276D02*
Y45024D01*
X57288Y42976D02*
Y43724D01*
X58312Y42976D02*
Y43724D01*
X55091Y56954D02*
X55662D01*
X55091Y56246D02*
X55662D01*
X55091D02*
Y56954D01*
X56509Y56246D02*
Y56954D01*
X55938D02*
X56509D01*
X55938Y56246D02*
X56509D01*
X59354Y60738D02*
Y61309D01*
X58646Y60738D02*
Y61309D01*
X59354D01*
X58646Y59891D02*
X59354D01*
Y60462D01*
X58646Y59891D02*
Y60462D01*
X64046Y60291D02*
Y60862D01*
X64754Y60291D02*
Y60862D01*
X64046Y60291D02*
X64754D01*
X64046Y61709D02*
X64754D01*
X64046Y61138D02*
Y61709D01*
X64754Y61138D02*
Y61709D01*
X59646Y60491D02*
Y61062D01*
X60354Y60491D02*
Y61062D01*
X59646Y60491D02*
X60354D01*
X59646Y61909D02*
X60354D01*
X59646Y61338D02*
Y61909D01*
X60354Y61338D02*
Y61909D01*
X63554Y61538D02*
Y62109D01*
X62846Y61538D02*
Y62109D01*
X63554D01*
X62846Y60691D02*
X63554D01*
Y61262D01*
X62846Y60691D02*
Y61262D01*
X88938Y37246D02*
X89509D01*
X88938Y37954D02*
X89509D01*
Y37246D02*
Y37954D01*
X88091Y37246D02*
Y37954D01*
Y37246D02*
X88662D01*
X88091Y37954D02*
X88662D01*
X74446Y53291D02*
Y53862D01*
X75154Y53291D02*
Y53862D01*
X74446Y53291D02*
X75154D01*
X74446Y54709D02*
X75154D01*
X74446Y54138D02*
Y54709D01*
X75154Y54138D02*
Y54709D01*
X67846Y58291D02*
Y58862D01*
X68554Y58291D02*
Y58862D01*
X67846Y58291D02*
X68554D01*
X67846Y59709D02*
X68554D01*
X67846Y59138D02*
Y59709D01*
X68554Y59138D02*
Y59709D01*
X57413Y37253D02*
X58043D01*
X57413Y36347D02*
X58043D01*
X57413D02*
Y37253D01*
X58987Y36347D02*
Y37253D01*
X58357D02*
X58987D01*
X58357Y36347D02*
X58987D01*
X59653Y38557D02*
Y39187D01*
X58747Y38557D02*
Y39187D01*
X59653D01*
X58747Y37613D02*
X59653D01*
Y38243D01*
X58747Y37613D02*
Y38243D01*
X65046Y37891D02*
Y38462D01*
X65754Y37891D02*
Y38462D01*
X65046Y37891D02*
X65754D01*
X65046Y39309D02*
X65754D01*
X65046Y38738D02*
Y39309D01*
X65754Y38738D02*
Y39309D01*
X62757Y36547D02*
X63387D01*
X62757Y37453D02*
X63387D01*
Y36547D02*
Y37453D01*
X61813Y36547D02*
Y37453D01*
Y36547D02*
X62443D01*
X61813Y37453D02*
X62443D01*
X63813D02*
X64443D01*
X63813Y36547D02*
X64443D01*
X63813D02*
Y37453D01*
X65387Y36547D02*
Y37453D01*
X64757D02*
X65387D01*
X64757Y36547D02*
X65387D01*
X60209Y37858D02*
Y39945D01*
X61391Y37858D02*
Y39945D01*
X60209Y37858D02*
X61391D01*
X20500Y60100D02*
X22500D01*
X20500Y40100D02*
X22500D01*
X20500D02*
Y60100D01*
X22500Y40100D02*
Y60100D01*
X62908Y38416D02*
Y40384D01*
X63892Y38416D02*
Y40384D01*
X62908D02*
X63892D01*
X62908Y38416D02*
X63236D01*
X63564D02*
X63892D01*
X60338Y36446D02*
X60909D01*
X60338Y37154D02*
X60909D01*
Y36446D02*
Y37154D01*
X59491Y36446D02*
Y37154D01*
Y36446D02*
X60062D01*
X59491Y37154D02*
X60062D01*
X69554Y59338D02*
Y59909D01*
X68846Y59338D02*
Y59909D01*
X69554D01*
X68846Y58491D02*
X69554D01*
Y59062D01*
X68846Y58491D02*
Y59062D01*
X75570Y52271D02*
X76830D01*
Y55932D01*
X75570Y52271D02*
Y55932D01*
X70729Y41770D02*
Y43030D01*
X67068D02*
X70729D01*
X67068Y41770D02*
X70729D01*
X67570Y52671D02*
X68830D01*
Y56332D01*
X67570Y52671D02*
Y56332D01*
X71570Y57871D02*
X72830D01*
Y61532D01*
X71570Y57871D02*
Y61532D01*
X89036Y63320D02*
X89509D01*
X88091D02*
X88564D01*
X88091Y65880D02*
X89509D01*
Y63320D02*
Y65880D01*
X88091Y63320D02*
Y65880D01*
X80236Y63320D02*
X80709D01*
X79291D02*
X79764D01*
X79291Y65880D02*
X80709D01*
Y63320D02*
Y65880D01*
X79291Y63320D02*
Y65880D01*
X89036Y55520D02*
X89509D01*
X88091D02*
X88564D01*
X88091Y58080D02*
X89509D01*
Y55520D02*
Y58080D01*
X88091Y55520D02*
Y58080D01*
X80236Y55120D02*
X80709D01*
X79291D02*
X79764D01*
X79291Y57680D02*
X80709D01*
Y55120D02*
Y57680D01*
X79291Y55120D02*
Y57680D01*
X89036Y52120D02*
X89509D01*
X88091D02*
X88564D01*
X88091Y54680D02*
X89509D01*
Y52120D02*
Y54680D01*
X88091Y52120D02*
Y54680D01*
X80236Y51920D02*
X80709D01*
X79291D02*
X79764D01*
X79291Y54480D02*
X80709D01*
Y51920D02*
Y54480D01*
X79291Y51920D02*
Y54480D01*
X93900Y44900D02*
Y64900D01*
X91900Y44900D02*
Y64900D01*
Y44900D02*
X93900D01*
X91900Y64900D02*
X93900D01*
X85700Y44900D02*
Y64900D01*
X83700Y44900D02*
Y64900D01*
Y44900D02*
X85700D01*
X83700Y64900D02*
X85700D01*
X89236Y43920D02*
X89709D01*
X88291D02*
X88764D01*
X88291Y46480D02*
X89709D01*
Y43920D02*
Y46480D01*
X88291Y43920D02*
Y46480D01*
X73129Y55170D02*
Y56430D01*
X69468D02*
X73129D01*
X69468Y55170D02*
X73129D01*
X58291Y51354D02*
X58862D01*
X58291Y50646D02*
X58862D01*
X58291D02*
Y51354D01*
X59709Y50646D02*
Y51354D01*
X59138D02*
X59709D01*
X59138Y50646D02*
X59709D01*
X35130Y54590D02*
X35198D01*
X35500D02*
X35568D01*
X35570Y53458D02*
Y54580D01*
X35130Y53470D02*
X35570D01*
X35130Y53460D02*
Y54582D01*
X33753Y50748D02*
X37847D01*
X33753Y49252D02*
X37847D01*
Y50748D01*
X33753Y50249D02*
Y50748D01*
Y49252D02*
Y49751D01*
X55030Y41068D02*
Y44729D01*
X53770Y41068D02*
Y44729D01*
X55030D01*
X79291Y44120D02*
Y46680D01*
X80709Y44120D02*
Y46680D01*
X79291D02*
X80709D01*
X79291Y44120D02*
X79764D01*
X80236D02*
X80709D01*
X79390Y47471D02*
Y51329D01*
X80610Y47471D02*
Y51329D01*
X79390D02*
X80610D01*
X79390Y47471D02*
X79797D01*
X80203D02*
X80610D01*
X80203Y58671D02*
X80610D01*
X79390D02*
X79797D01*
X79390Y62529D02*
X80610D01*
Y58671D02*
Y62529D01*
X79390Y58671D02*
Y62529D01*
X41570Y61271D02*
X42830D01*
Y64932D01*
X41570Y61271D02*
Y64932D01*
X87468Y41370D02*
X91129D01*
X87468Y42630D02*
X91129D01*
Y41370D02*
Y42630D01*
X82754Y64338D02*
Y64909D01*
X82046Y64338D02*
Y64909D01*
X82754D01*
X82046Y63491D02*
X82754D01*
Y64062D01*
X82046Y63491D02*
Y64062D01*
D67*
X24458Y63511D02*
G03*
X24458Y63511I-49J0D01*
G01*
X89942Y58523D02*
G03*
X89942Y58523I-49J0D01*
G01*
X90042Y47423D02*
G03*
X90042Y47423I-49J0D01*
G01*
X69811Y44578D02*
G03*
X69811Y44578I-49J0D01*
G01*
X58411Y52778D02*
G03*
X58411Y52778I-49J0D01*
G01*
X44828Y58438D02*
G03*
X44828Y58438I-49J0D01*
G01*
X27615Y57976D02*
G03*
X27615Y57976I-49J0D01*
G01*
Y52176D02*
G03*
X27615Y52176I-49J0D01*
G01*
Y46776D02*
G03*
X27615Y46776I-49J0D01*
G01*
Y40976D02*
G03*
X27615Y40976I-49J0D01*
G01*
X26840Y37489D02*
G03*
X26840Y37489I-49J0D01*
G01*
X64502Y38315D02*
G03*
X64502Y38315I-49J0D01*
G01*
X90139Y63409D02*
G03*
X90139Y63409I-49J0D01*
G01*
X81339D02*
G03*
X81339Y63409I-49J0D01*
G01*
X90139Y55609D02*
G03*
X90139Y55609I-49J0D01*
G01*
X81339Y55209D02*
G03*
X81339Y55209I-49J0D01*
G01*
X90139Y52209D02*
G03*
X90139Y52209I-49J0D01*
G01*
X81339Y52009D02*
G03*
X81339Y52009I-49J0D01*
G01*
X90339Y44009D02*
G03*
X90339Y44009I-49J0D01*
G01*
X33881Y48691D02*
G03*
X33881Y48691I-49J0D01*
G01*
X81339Y44209D02*
G03*
X81339Y44209I-49J0D01*
G01*
X81142Y47323D02*
G03*
X81142Y47323I-49J0D01*
G01*
Y58523D02*
G03*
X81142Y58523I-49J0D01*
G01*
D68*
X41920Y35548D02*
G03*
X41249Y35560I-320J852D01*
G01*
X44120Y35548D02*
G03*
X43449Y35560I-320J852D01*
G01*
X90780Y38952D02*
G03*
X91451Y38940I320J-852D01*
G01*
X41260Y35550D02*
X41921D01*
X43460D02*
X44121D01*
X90779Y38950D02*
X91440D01*
D69*
X33284Y60031D02*
G03*
X33284Y60031I-49J0D01*
G01*
Y43631D02*
G03*
X33284Y43631I-49J0D01*
G01*
D70*
X25258Y60472D02*
G03*
X25131Y60472I-64J0D01*
G01*
X25258Y59072D02*
G03*
X25131Y59072I-64J0D01*
G01*
X25258Y57672D02*
G03*
X25131Y57672I-64J0D01*
G01*
X25258Y56272D02*
G03*
X25131Y56272I-64J0D01*
G01*
X25258Y54872D02*
G03*
X25131Y54872I-64J0D01*
G01*
X25258Y53472D02*
G03*
X25131Y53472I-64J0D01*
G01*
X25258Y52072D02*
G03*
X25131Y52072I-64J0D01*
G01*
X25258Y50672D02*
G03*
X25131Y50672I-64J0D01*
G01*
X25258Y39472D02*
G03*
X25131Y39472I-64J0D01*
G01*
X25258Y40872D02*
G03*
X25131Y40872I-64J0D01*
G01*
X25258Y42272D02*
G03*
X25131Y42272I-64J0D01*
G01*
X25258Y43672D02*
G03*
X25131Y43672I-64J0D01*
G01*
X25258Y45072D02*
G03*
X25131Y45072I-64J0D01*
G01*
X25258Y46472D02*
G03*
X25131Y46472I-64J0D01*
G01*
X25258Y47872D02*
G03*
X25131Y47872I-64J0D01*
G01*
X25258Y49272D02*
G03*
X25131Y49272I-64J0D01*
G01*
X25614Y60472D02*
Y61496D01*
X24775D02*
X25614D01*
X24775Y60472D02*
Y61496D01*
Y60472D02*
X25131D01*
X25258D02*
X25614D01*
X25258Y59072D02*
X25614D01*
X24775D02*
X25131D01*
X24775D02*
Y60096D01*
X25614D01*
Y59072D02*
Y60096D01*
Y57672D02*
Y58696D01*
X24775D02*
X25614D01*
X24775Y57672D02*
Y58696D01*
Y57672D02*
X25131D01*
X25258D02*
X25614D01*
X25258Y56272D02*
X25614D01*
X24775D02*
X25131D01*
X24775D02*
Y57296D01*
X25614D01*
Y56272D02*
Y57296D01*
Y54872D02*
Y55896D01*
X24775D02*
X25614D01*
X24775Y54872D02*
Y55896D01*
Y54872D02*
X25131D01*
X25258D02*
X25614D01*
X25258Y53472D02*
X25614D01*
X24775D02*
X25131D01*
X24775D02*
Y54496D01*
X25614D01*
Y53472D02*
Y54496D01*
Y52072D02*
Y53096D01*
X24775D02*
X25614D01*
X24775Y52072D02*
Y53096D01*
Y52072D02*
X25131D01*
X25258D02*
X25614D01*
X25258Y50672D02*
X25614D01*
X24775D02*
X25131D01*
X24775D02*
Y51696D01*
X25614D01*
Y50672D02*
Y51696D01*
Y39472D02*
Y40496D01*
X24775D02*
X25614D01*
X24775Y39472D02*
Y40496D01*
Y39472D02*
X25131D01*
X25258D02*
X25614D01*
X25258Y40872D02*
X25614D01*
X24775D02*
X25131D01*
X24775D02*
Y41896D01*
X25614D01*
Y40872D02*
Y41896D01*
Y42272D02*
Y43296D01*
X24775D02*
X25614D01*
X24775Y42272D02*
Y43296D01*
Y42272D02*
X25131D01*
X25258D02*
X25614D01*
X25258Y43672D02*
X25614D01*
X24775D02*
X25131D01*
X24775D02*
Y44696D01*
X25614D01*
Y43672D02*
Y44696D01*
Y45072D02*
Y46096D01*
X24775D02*
X25614D01*
X24775Y45072D02*
Y46096D01*
Y45072D02*
X25131D01*
X25258D02*
X25614D01*
X25258Y46472D02*
X25614D01*
X24775D02*
X25131D01*
X24775D02*
Y47496D01*
X25614D01*
Y46472D02*
Y47496D01*
Y47872D02*
Y48896D01*
X24775D02*
X25614D01*
X24775Y47872D02*
Y48896D01*
Y47872D02*
X25131D01*
X25258D02*
X25614D01*
X25258Y49272D02*
X25614D01*
X24775D02*
X25131D01*
X24775D02*
Y50296D01*
X25614D01*
Y49272D02*
Y50296D01*
D71*
X41167Y38865D02*
D03*
X42033D02*
D03*
X43367Y39065D02*
D03*
X44233D02*
D03*
X66033Y46465D02*
D03*
X65167D02*
D03*
X67433Y47135D02*
D03*
X42767Y57265D02*
D03*
Y58865D02*
D03*
X45167Y60935D02*
D03*
X46033D02*
D03*
X51233Y60935D02*
D03*
X51633Y50135D02*
D03*
X66833Y59265D02*
D03*
X65967D02*
D03*
X54767Y54135D02*
D03*
X55633D02*
D03*
X56633Y53865D02*
D03*
X55767D02*
D03*
X57033Y57465D02*
D03*
X56167D02*
D03*
X58391Y49951D02*
D03*
X58390Y44551D02*
D03*
X59433Y60935D02*
D03*
X64833Y60665D02*
D03*
X63967D02*
D03*
X60433Y60865D02*
D03*
X59567D02*
D03*
X62767Y61735D02*
D03*
X63633D02*
D03*
X74367Y53665D02*
D03*
X67767Y58665D02*
D03*
X65833Y38265D02*
D03*
X64967D02*
D03*
X68767Y58865D02*
D03*
X81967Y63865D02*
D03*
X82833D02*
D03*
D72*
X66567Y47135D02*
D03*
X43633Y57265D02*
D03*
Y58865D02*
D03*
X50367Y60935D02*
D03*
X50767Y50135D02*
D03*
X64967Y60535D02*
D03*
X65833D02*
D03*
X57209Y49951D02*
D03*
X57209Y46449D02*
D03*
X58391D02*
D03*
X57209Y44551D02*
D03*
X58567Y60935D02*
D03*
X75233Y53665D02*
D03*
X68633Y58665D02*
D03*
X69633Y58865D02*
D03*
D73*
X36777Y54537D02*
Y54596D01*
X36954Y54596D01*
Y54537D01*
X36777Y54537D01*
X36793Y54554D02*
Y54580D01*
X36938D01*
Y54554D01*
X36793D01*
X36810Y54562D02*
X36921Y54572D01*
X36777Y55404D02*
Y55463D01*
X36954Y55463D01*
Y55404D01*
X36777Y55404D01*
X36793Y55420D02*
Y55446D01*
X36938D01*
Y55420D01*
X36793D01*
X36810Y55428D02*
X36921Y55438D01*
X46577Y60737D02*
X46577Y60796D01*
X46754Y60796D01*
X46754Y60737D01*
X46577Y60737D01*
X46593Y60754D02*
Y60780D01*
X46738D01*
Y60754D01*
X46593D01*
X46610Y60762D02*
X46721Y60772D01*
X46577Y61604D02*
X46577Y61663D01*
X46754Y61663D01*
X46754Y61604D01*
X46577Y61604D01*
X46593Y61620D02*
Y61646D01*
X46738D01*
Y61620D01*
X46593D01*
X46610Y61628D02*
X46721Y61638D01*
X51777Y60537D02*
X51777Y60596D01*
X51954Y60596D01*
X51954Y60537D01*
X51777Y60537D01*
X51793Y60554D02*
Y60580D01*
X51938D01*
Y60554D01*
X51793D01*
X51810Y60562D02*
X51921Y60572D01*
X51777Y61404D02*
X51777Y61463D01*
X51954Y61463D01*
X51954Y61404D01*
X51777Y61404D01*
X51793Y61420D02*
Y61446D01*
X51938D01*
Y61420D01*
X51793D01*
X51810Y61428D02*
X51921Y61438D01*
X52777Y52937D02*
Y52996D01*
X52954Y52996D01*
Y52937D01*
X52777Y52937D01*
X52793Y52954D02*
Y52980D01*
X52938D01*
Y52954D01*
X52793D01*
X52810Y52962D02*
X52921Y52972D01*
X52777Y53804D02*
Y53863D01*
X52954Y53863D01*
Y53804D01*
X52777Y53804D01*
X52793Y53820D02*
Y53846D01*
X52938D01*
Y53820D01*
X52793D01*
X52810Y53828D02*
X52921Y53838D01*
X52377Y61937D02*
X52377Y61996D01*
X52554Y61996D01*
X52554Y61937D01*
X52377Y61937D01*
X52393Y61954D02*
Y61980D01*
X52538D01*
Y61954D01*
X52393D01*
X52410Y61962D02*
X52521Y61972D01*
X52377Y62804D02*
X52377Y62863D01*
X52554Y62863D01*
X52554Y62804D01*
X52377Y62804D01*
X52393Y62820D02*
Y62846D01*
X52538D01*
Y62820D01*
X52393D01*
X52410Y62828D02*
X52521Y62838D01*
X53177Y51337D02*
X53177Y51396D01*
X53354Y51396D01*
X53354Y51337D01*
X53177Y51337D01*
X53193Y51354D02*
Y51380D01*
X53338D01*
Y51354D01*
X53193D01*
X53210Y51362D02*
X53321Y51372D01*
X53177Y52204D02*
X53177Y52263D01*
X53354Y52263D01*
X53354Y52204D01*
X53177Y52204D01*
X53193Y52220D02*
Y52246D01*
X53338D01*
Y52220D01*
X53193D01*
X53210Y52228D02*
X53321Y52238D01*
X55377Y56137D02*
X55377Y56196D01*
X55554Y56196D01*
X55554Y56137D01*
X55377Y56137D01*
X55393Y56154D02*
Y56180D01*
X55538D01*
Y56154D01*
X55393D01*
X55410Y56162D02*
X55521Y56172D01*
X55377Y57004D02*
X55377Y57063D01*
X55554Y57063D01*
X55554Y57004D01*
X55377Y57004D01*
X55393Y57020D02*
Y57046D01*
X55538D01*
Y57020D01*
X55393D01*
X55410Y57028D02*
X55521Y57038D01*
X59777Y37204D02*
X59777Y37263D01*
X59954Y37263D01*
X59954Y37204D01*
X59777Y37204D01*
X59793Y37220D02*
Y37246D01*
X59938D01*
Y37220D01*
X59793D01*
X59810Y37228D02*
X59921Y37238D01*
X59777Y36337D02*
X59777Y36396D01*
X59954Y36396D01*
X59954Y36337D01*
X59777Y36337D01*
X59793Y36354D02*
Y36380D01*
X59938D01*
Y36354D01*
X59793D01*
X59810Y36362D02*
X59921Y36372D01*
D74*
X39335Y52033D02*
D03*
Y51167D02*
D03*
X52135Y52233D02*
D03*
Y51367D02*
D03*
X89135Y38033D02*
D03*
Y37167D02*
D03*
X59335Y50567D02*
D03*
Y51433D02*
D03*
D75*
X48135Y62833D02*
D03*
Y61967D02*
D03*
X52535Y60433D02*
D03*
Y59567D02*
D03*
X53535Y54833D02*
D03*
Y53967D02*
D03*
X57735Y51433D02*
D03*
Y50567D02*
D03*
M02*
