INCH,LZ
M48
T1F00S00C0.0135
T2F00S00C0.0280
T3F00S00C0.0300
T4F00S00C0.0350
T5F00S00C0.0354
T6F00S00C0.0400
T7F00S00C0.0472
T8F00S00C0.0700
T9F00S00C0.0906
T10F00S00C0.1100
T11F00S00C0.1450
%
T01
X0251Y0335
X02496Y03424
X025728Y034228
X026496Y034304
X0268Y0362
X026496Y036804
X025984Y036716
X025472Y036728
X024704Y035696
X024311Y037489
X0231Y0372
X0239Y0386
X0242Y0392
X024644Y039856
X023712Y040112
X0238Y0416
X024656Y041256
X0256Y041
Y0396
X0253Y0386
X026Y0382
X026568Y040368
X026432Y041768
X0257Y0424
X024644Y042656
X0237Y0431
X0238Y0443
X024644Y044056
X0256Y0438
Y0452
X024656Y045456
X0238Y0457
X024644Y046856
X0256Y0466
X0266Y0458
X026568Y044568
Y043168
X0274Y0435
X0299Y0441
X0291Y0452
X0296Y0457
X0282Y0461
X0281Y0397
X0294Y0402
X0306
X0311Y0418
X0312Y042223
X0313Y0434
X031991Y044809
X032Y0458
X0332
Y045
X03412Y04468
X0347Y0446
X035144Y0445
X035912Y0446
X036424
X0368Y0445
X037391Y044609
X0381Y0454
X0378Y0464
X0371Y046
X0365Y0461
X0361Y0468
X0351
X035Y0456
X0345Y045
X033865Y043435
X0338Y0423
X0327Y042
X0324Y0423
X032632Y042568
X03222Y04052
X0323Y04
X033535Y039635
X0338Y0388
X0339Y0383
Y0378
X0338Y0362
X03371Y03411
X0325Y035
X03709Y03409
Y03609
X0382Y035
X038135Y040265
X036935Y039135
X036168Y043432
X0354Y0435
X04284Y04466
X04426
X04536
X046Y0454
Y0463
X045
X0445
X044
X0427Y0464
X0436Y0414
X046
Y0429
X047714Y043614
X0489Y044
X0494Y0424
X048724Y041976
X0505Y0432
X0514Y0437
X053Y0444
X0529Y0458
X0534
X0544
X05506Y04406
X057149Y044551
X0593Y0442
Y0437
X05915Y04595
X0591Y0464
X058449Y046449
X06025Y04645
X0607Y0465
X061Y0462
X0613Y0459
X0616Y0457
X0622Y0458
X0616Y0401
Y0393
X0615Y0378
X0608Y0377
X0598Y0379
X0611Y0368
X062226Y037626
X0585Y0394
X0571Y0368
X0544Y0407
X05366Y04154
X05294
X0522Y0408
X0511Y039
X0521Y046
X06295Y04645
X0638Y0462
X06385Y04545
X0643Y0446
Y0442
X0639Y0437
X064Y0427
X06435Y04245
X0648Y0422
X0651Y0402
X065835Y038935
X064453Y037847
X064974Y036426
X0636Y0393
X06285Y04295
Y04345
X0663Y0431
X0668Y0426
X06754Y04314
X07006
X0708Y0439
X0714Y044
X0721Y0437
Y0452
X073384Y045184
X074Y0453
X0743Y045563
X074628Y045828
X0746Y0464
X0743Y0467
X076184Y046616
X0761Y046
X0757Y0448
X075731Y044131
X0747Y0441
X073581Y044019
X0725Y0415
X071981Y040981
X071731Y039431
X075481Y039419
X077Y0393
X076231Y040631
X0778Y0407
X077481Y041019
X074981Y041181
X07006Y04154
X0705Y0452
X07Y0458
X0699Y0467
X0688Y0466
X068668Y045631
X0687Y0451
X078Y0455
X0784Y0468
X0796Y045
X0794Y0443
X0798Y0439
X0804Y0428
X0803Y0423
X081231Y042469
X0811Y0431
X0816
X0825Y0432
X081996Y046296
X0879Y0464
X0885Y0451
X0884Y0445
X089296Y044304
X0904Y0429
X09046Y04116
X08794Y04126
Y04284
X08686Y04456
X086828Y045072
X090984Y045584
X0912Y0462
X0902Y0464
X083981Y039319
X083231Y039331
X079231Y039369
X078731Y039331
X078231Y039431
X078481Y040681
X0788Y042
X0789Y0473
X0792Y0471
X0808Y0473
X0817Y0474
X0821Y04845
X082Y0502
X0816Y0515
X081
X0805Y0504
X080494Y049794
X0805Y0492
X078306Y049006
X0783Y0485
X078339Y048061
X078306Y049794
X0783Y0503
X078361Y050739
X0783Y0513
X078711Y052011
X0791Y0517
X0795Y0532
X07936Y05384
X08Y0539
X081896Y054096
X081996Y057296
X0814Y0585
X081Y0584
X0809Y058
X0791
X078907Y058507
X078265Y059265
X0783Y0599
Y0603
X0784Y061
X078335Y061465
X078339Y061939
X080539
X0805Y0613
Y0609
Y0604
X081866Y059734
X0793Y0562
X0795Y0556
X08666Y05616
X0883Y056
X088072Y056672
X087511Y057911
X087707Y058507
X0883Y0599
Y0604
Y0617
Y0622
X0893Y0609
Y06
Y0596
X0892Y0592
X0895Y058
X0893Y0574
X0892Y0559
X089384Y053784
X0883Y0533
Y0527
X087807Y051693
X0872Y052
X0869Y051
X0871Y0502
Y0497
X0872Y0484
Y0477
X0884Y0491
X089406Y049106
X0893Y0487
Y0483
X089406Y049894
X0894Y0503
X089339Y050839
X089411Y051311
X090696Y052504
X0907Y0546
X0912Y0544
Y0565
X0904Y0585
X0908Y06139
X0909Y0621
X0869Y0609
X088196Y054296
X0903Y0475
X0781Y0471
X0768Y048
Y0484
X0769Y0488
X0766Y0497
Y0502
X0762Y0506
Y0494
Y0483
X0748Y0489
X0747Y0493
X074331Y049569
X0737Y05
X0727Y0499
X0722Y05
X071219Y049981
X070825Y049775
X0701Y0501
X07Y0488
X0701Y0482
X0687
X068603Y047797
X0686Y0472
X067335Y047135
X066065
X0639Y0473
X0642Y0478
X0643Y0482
X0639Y0501
X065Y0502
X0653Y0511
X066Y0533
Y054
X0657Y0548
X0652Y0555
X0646Y0549
X0648Y0544
X064562Y053438
X0634Y054
X0635Y0549
X0631
X0633Y0554
X0634Y056
Y0572
X0632Y0577
X0627
X0646Y0575
X0652Y0573
X064691Y056391
X064Y0586
X0641Y0592
X0648Y0614
X0638Y0623
X0629Y0621
X066865Y059935
X0682Y0598
X0691Y0582
X0694Y0576
X068149Y056649
X067409Y055909
X0669Y0546
X068149Y054249
Y052649
X0697Y0538
X070628Y054572
X0703Y0549
X071613Y054613
X0712Y0542
X0726Y0551
X0734Y0558
X074165Y054335
X0731Y0535
X0722Y0522
X0719Y0513
X071022Y051178
X073058Y0513
X0736Y0511
X0762Y0522
X07554Y05294
X078Y0529
X077928Y053328
X0774Y0544
X078028Y056528
X078Y0573
X0774Y0572
X076Y0578
X0745
X074
Y0589
X0745Y0588
X075Y0589
X074232Y060269
X075768
X075Y0612
X0725Y0618
Y0603
X0712Y0598
X0709Y0594
X07284Y05854
X0762Y0562
X0777Y0507
X0774Y0504
X0746Y047
X0687Y0488
X0633Y0522
X0625Y0534
Y0541
X0665Y0582
X0621Y0583
X0616Y0579
X0605Y058013
X06Y0582
X0598Y0579
X0591Y0582
X058978Y057178
X0585Y0568
X058891Y056391
X0588Y0558
X058994Y055406
X059Y055
X0586Y0549
X058778Y054422
X0588Y054
X0593Y0539
X06Y0538
X0598Y0534
X0607
X0615Y0536
X0621Y0534
X0623Y0522
X0619Y0521
X0607Y0517
X06Y0522
X059622Y052222
X0592Y0518
X059335Y050635
X06Y0506
X058351Y049951
X058551Y048849
X05935Y04795
X0592Y0475
X0588Y0471
X06075Y04695
X0618Y0484
Y0489
X0604Y0546
X061Y0564
X0603Y0595
X0597Y0594
X059425Y059575
X0597Y0599
X0604Y0602
X0606Y0605
X0608Y0609
Y0615
X061Y0622
X0606
X0585Y0607
X058Y0588
X057035Y058135
X0574Y0569
X057213Y056587
X057Y0563
X0567Y0561
X0562
X0573Y0555
X0574Y0547
X0558
X055735Y054135
X055387Y055013
X055Y05685
X0547Y0595
X0522Y0596
X0532Y0606
Y061
X0522Y0617
X0502Y0607
X0485Y0603
X048784Y059384
X0487Y0583
X0492Y0581
X0498Y0582
X0502Y0577
X0503Y0568
X0502Y056
X05Y0557
X0501Y0552
X0502Y0546
X05Y0542
X0497Y0548
X0498Y0535
X0491Y0534
X0493Y0522
X0485Y0521
X0469Y0522
X0472Y0536
X0476Y0537
X0516Y0533
X0515Y0543
Y0547
X0523Y0545
X053535Y054065
X054Y0534
Y0526
X0526Y0518
X054235Y050135
X054169Y048369
X052632
X0529Y0469
X051565Y049465
X0493Y0495
X0489Y0572
X0482Y058
X0478Y0581
X0473Y0579
X0472Y0596
X0471Y0617
X0469Y0622
X0487
X0484Y0619
X0514Y0571
X0515Y0563
X0588Y0533
X0565Y051
X0619Y0594
X0623
X0466
X045635Y059665
X0453Y0581
X044778Y058422
X0456Y0575
X0454Y0569
X0456Y0565
X0455Y0561
X0456Y0557
X0457Y0552
X0455Y0549
Y0542
X0456Y0537
X0461Y0534
X046422Y053222
X0467Y0536
X0463Y0515
X0456Y052
X0441Y0528
X0442Y0535
X0434Y0534
X0423
X041672Y054028
X0432Y0546
X0438Y0548
X044219Y054619
X042909Y055209
X0434Y0569
X044Y0571
X0441Y0567
X0428Y0579
Y0589
X042765Y059535
X0431Y0602
X0435
X0422Y06114
X04288Y06194
X046Y0613
X0462Y0581
X0468Y0583
X0402Y0575
X038865Y059735
X0368Y0609
X0358Y061
X035144Y060944
X0347Y061
X034
Y0617
X032991Y061891
X031809
X031576Y060024
X0313Y0587
X0315Y058
Y0575
X0326Y0587
X033868Y058968
X0339Y0583
X0338Y0578
X0341Y0567
X0347Y0554
X0348Y0548
X035174Y054026
X0364Y0541
X035902Y053202
X036952Y051948
X0381Y0516
X0398
X039Y0508
Y0484
X037809Y048691
X0406Y0485
X044Y0475
X0445
X0455
X046
X0449Y04982
X0434Y0504
X036335Y050635
X03516Y05064
X0337Y0515
X0343Y0525
X0332Y0527
X0337Y0536
X0318Y0532
Y0541
X0313Y0542
X0317Y0523
X0315Y0487
X0313Y0469
X0339Y0479
X033709Y048691
X0388Y0538
X0379Y055
X037335Y056035
X0354Y0598
X0353Y062
X0376
X0335Y0602
X0327Y0605
X0312Y0612
X0294Y061
X0303Y0587
X0296Y0572
X02942Y05692
X0283Y0569
X0292Y0559
X0294Y055
X0301Y0551
X0274Y0542
X026468Y054368
X0265Y055
X026532Y055768
X0265Y0564
X026532Y057168
X0265Y0578
X026532Y058568
Y059968
X0274Y0597
X0257Y0592
X024644Y059456
X0239Y0597
X0237Y0583
X024656Y058056
X024644Y056656
X0239Y0569
Y0555
X024644Y055256
Y053856
X0238Y0541
X0239Y0527
X024656Y052456
Y051056
X0239Y0513
X023812Y049912
X024644Y049656
X0256Y0494
X0257Y048
X024656Y048256
X0237Y0485
X0238Y047
X026568Y047368
Y048768
X0274Y0488
X026532Y050168
X0265Y0508
X026468Y051568
X0265Y0522
X026468Y052968
X0265Y0536
X0283Y051
X0294Y0515
Y0495
X031Y0501
X026532Y061368
X02624Y06204
X025472Y062372
X0248Y0622
X0243
X0251Y0616
X0253Y0613
X024656Y060856
X0257Y0606
X026496Y062804
X0239Y0627
X0229Y0641
X0225Y0652
X025472Y065472
X0252Y0669
X024704Y066796
X02624Y06674
X0261Y0671
X0273Y0655
X0286Y065
X029619Y064619
X031981Y064581
X033Y065
X035809Y062591
X04132Y06446
X049Y0632
X0493Y0628
X0513Y0642
X0517Y065
X0532Y0629
X0544Y0635
X0577Y0637
Y0643
X0583Y0646
X0586Y064
Y0631
X0604Y064
X0613Y0635
X0611Y0627
X0626Y064
X0635Y0638
X0639Y0658
X0715Y0671
Y0643
X0731Y0645
X07504Y06334
X0758Y0625
X0777Y0642
X078072Y064472
X0774Y0646
X07804Y06524
X07656Y06586
X07504
X0795Y0647
X080396Y065496
X082865Y064535
Y063865
X0816Y0626
X079Y0627
X0787Y0634
X0872Y0631
X0884Y064
X088228Y064472
X089384Y064984
X089404Y065496
X0897Y0634
X089893Y062693
X0904Y0627
X0912Y0648
X086804Y065496
T02
X0416Y0359
Y0369
X0438
Y0359
X0911Y0376
Y0386
T03
X050689Y034067
Y034854
X051674
Y034067
X05256Y0495
X055
T04
X04646Y06563
Y06713
X04746
X04846
X04946
X05046
X05146
X05246
X05346
X05446
X05546
X05646
X05746
X05846
X05946
X06046
X06146
X06246
X06196Y06788
X06096
X05996
X05896
X05796
X05696
X05596
X05496
X05396
X05296
X05196
X05096
X04996
X04896
X04796
X04696
Y06638
X04796
X04896
X04996
X05096
X05196
X05296
X05396
X05496
X05596
X05696
X05796
X05896
X05996
X06096
X06196
X06246Y06563
X06146
X06046
X05946
X05846
X05746
X05646
X05546
X05446
X05346
X05246
X05146
X05046
X04946
X04846
X04746
X06296Y06638
Y06788
T05
X021Y0406
X022
Y0416
X021
Y0426
X022
Y0436
X021
Y0446
X022
Y0456
X021
Y0466
X022
X0842Y0464
X0852
Y0454
X0842
X0924
Y0464
X0934
Y0454
Y0474
Y0484
Y0494
Y0504
Y0514
Y0524
Y0534
Y0544
Y0554
Y0564
Y0574
Y0584
Y0594
Y0604
Y0614
Y0624
X0924
Y0614
Y0604
Y0594
Y0584
Y0574
Y0564
Y0554
Y0544
Y0534
Y0524
Y0514
Y0504
Y0494
Y0484
Y0474
X0852
Y0484
Y0494
Y0504
Y0514
Y0524
Y0534
Y0544
Y0554
Y0564
Y0574
Y0584
Y0594
Y0604
Y0614
Y0624
X0842
Y0614
Y0604
Y0594
Y0584
Y0574
Y0564
Y0554
Y0544
Y0534
Y0524
Y0514
Y0504
Y0494
Y0484
Y0474
X022Y0476
X021
Y0486
X022
Y0496
X021
Y0506
X022
Y0516
X021
Y0526
X022
Y0536
X021
Y0546
X022
Y0556
X021
Y0566
X022
Y0576
X021
Y0586
X022
Y0596
X021
X0842Y0634
Y0644
X0852
Y0634
X0924
Y0644
X0934
Y0634
T06
X0649Y0312
X0619
X0609
X0579
Y0342
X0589
X0599
X0609
X0619
X0629
X0639
X0649
T07
X069181Y039945
X086531
T08
X083Y0682
X085
X087
X089
T09
X048811Y033
X053552
X069713Y039
X086
T10
X045Y06788
X06442
T11
X0225Y03375
X0925
X0225Y06713
X0925
M30
