%FSLAX24Y24*%
%MOIN*%
G70*
G01*
G75*
G04 Layer_Physical_Order=4*
%ADD10C,0.0080*%
%ADD11R,0.0157X0.0846*%
%ADD12R,0.0157X0.0846*%
%ADD13R,0.0945X0.1024*%
%ADD14R,0.0650X0.0085*%
%ADD15R,0.0846X0.0157*%
%ADD16R,0.0394X0.0433*%
%ADD17R,0.0118X0.0610*%
%ADD18R,0.0846X0.0157*%
%ADD19R,0.0610X0.0118*%
%ADD20R,0.0600X0.0150*%
%ADD21O,0.0600X0.0150*%
%ADD22R,0.0236X0.0866*%
%ADD23R,0.0433X0.0394*%
%ADD24R,0.0866X0.0787*%
%ADD25R,0.0787X0.0866*%
%ADD26R,0.0157X0.0630*%
%ADD27R,0.0630X0.0157*%
%ADD28R,0.0709X0.0630*%
%ADD29R,0.0709X0.0709*%
%ADD30R,0.0512X0.0591*%
%ADD31R,0.0591X0.0512*%
%ADD32R,0.0807X0.0236*%
%ADD33R,0.1024X0.0945*%
%ADD34R,0.1000X0.1400*%
%ADD35R,0.0300X0.0600*%
%ADD36R,0.1417X0.0315*%
%ADD37R,0.1240X0.1360*%
%ADD38R,0.0173X0.0787*%
%ADD39R,0.0173X0.0787*%
%ADD40R,0.0984X0.2362*%
%ADD41O,0.0394X0.0170*%
%ADD42R,0.0394X0.0170*%
%ADD43R,0.0394X0.0236*%
%ADD44R,0.0177X0.0807*%
%ADD45R,0.0177X0.0807*%
%ADD46C,0.0100*%
%ADD47C,0.0160*%
%ADD48C,0.0070*%
%ADD49C,0.0110*%
%ADD50C,0.0200*%
%ADD51C,0.0120*%
%ADD52C,0.0300*%
%ADD53C,0.0400*%
%ADD54C,0.0500*%
%ADD55C,0.1260*%
%ADD56C,0.1000*%
%ADD57C,0.1800*%
%ADD58C,0.0600*%
%ADD59R,0.0591X0.0591*%
%ADD60C,0.0591*%
%ADD61C,0.1300*%
%ADD62C,0.0550*%
%ADD63C,0.1024*%
%ADD64C,0.0551*%
%ADD65C,0.0250*%
D10*
X61200Y48000D02*
Y56000D01*
X78042Y47658D02*
Y49258D01*
X76700Y50600D02*
X78042Y49258D01*
X79172Y46028D02*
X80300Y44900D01*
X78672Y46028D02*
X79172D01*
X77835Y46865D02*
Y48965D01*
Y46865D02*
X78672Y46028D01*
X77554Y46646D02*
Y48746D01*
X77340Y45460D02*
X79512Y43288D01*
X77340Y45460D02*
Y48360D01*
X77084Y45116D02*
X79400Y42800D01*
X77084Y45116D02*
Y48116D01*
X79512Y43288D02*
X80412D01*
X51100Y58700D02*
Y63000D01*
X75000Y46700D02*
X76500Y45200D01*
Y43400D02*
Y45200D01*
Y43400D02*
X77900Y42000D01*
X65400Y53000D02*
Y55300D01*
X59200Y46400D02*
X61000Y48200D01*
X65300Y49600D02*
X65700Y50000D01*
X65300Y42700D02*
Y49600D01*
X64900Y52500D02*
X65400Y53000D01*
X64900Y50900D02*
Y52500D01*
Y50900D02*
X65400Y50400D01*
Y50100D02*
Y50400D01*
X64800Y49500D02*
X65400Y50100D01*
X64800Y42900D02*
Y49500D01*
X63800Y55200D02*
X64700D01*
X65200Y54700D01*
Y53300D02*
Y54700D01*
X64600Y52700D02*
X65200Y53300D01*
X64600Y43300D02*
Y52700D01*
X47460Y59140D02*
X48500Y58100D01*
Y55300D02*
Y58100D01*
Y55300D02*
X50800Y53000D01*
X54300D01*
X59531D02*
X59800Y53268D01*
X48960Y63840D02*
X50500Y62300D01*
Y58400D02*
Y62300D01*
Y58400D02*
X55900Y53000D01*
X59531D01*
X49460Y64040D02*
X50800Y62700D01*
Y58600D02*
Y62700D01*
Y58600D02*
X55700Y53700D01*
X58900D01*
X59100Y53900D01*
X58300Y54400D02*
X58700Y54000D01*
X55400Y54400D02*
X58300D01*
X51100Y58700D02*
X55400Y54400D01*
X49960Y64140D02*
X51100Y63000D01*
X50460Y64540D02*
X51400Y63600D01*
Y59000D02*
Y63600D01*
X56960Y63040D02*
X60000Y60000D01*
Y59400D02*
Y60000D01*
Y59400D02*
X60222Y59179D01*
Y58278D02*
Y59179D01*
Y58278D02*
X60487Y58013D01*
X24200Y54100D02*
X25000Y54900D01*
Y61500D01*
X24200Y55800D02*
Y61100D01*
X23400Y37000D02*
Y65100D01*
X26100Y39000D02*
X26800Y38300D01*
X26100Y39000D02*
Y46700D01*
X25300Y47500D02*
X26100Y46700D01*
X25300Y47500D02*
Y48424D01*
X23700Y48400D02*
X25200Y46900D01*
Y39400D02*
Y46900D01*
Y39400D02*
X26496Y38104D01*
X43300Y55300D02*
X45600D01*
X44100Y54300D02*
X44700Y53700D01*
X41800Y54300D02*
X44100D01*
X22500Y37000D02*
X24300Y35200D01*
Y34300D02*
Y35200D01*
X70600Y54600D02*
Y64900D01*
X66800Y68700D02*
X70600Y64900D01*
X53900Y68700D02*
X66800D01*
X53460Y68260D02*
X53900Y68700D01*
X54960Y63140D02*
X58172Y59928D01*
X54300Y53000D02*
X55800Y51500D01*
X80300Y44400D02*
Y44900D01*
X34600Y61600D02*
X37500D01*
X38400Y60700D01*
Y57700D02*
Y60700D01*
X80412Y43288D02*
X81231Y42469D01*
X76900Y48800D02*
X77340Y48360D01*
X77900Y42000D02*
X78800D01*
X74300Y46700D02*
X75000D01*
X70600Y54600D02*
X70628Y54572D01*
X53460Y67130D02*
Y68260D01*
X77554Y46646D02*
X81100Y43100D01*
X76600Y49700D02*
X77554Y48746D01*
X80300Y44400D02*
X81600Y43100D01*
X76600Y50200D02*
X77835Y48965D01*
X78042Y47658D02*
X82500Y43200D01*
X76200Y50600D02*
X76700D01*
X26496Y36804D02*
Y38104D01*
X23700Y48400D02*
Y48500D01*
X26800Y36200D02*
Y38300D01*
X23812Y49912D02*
X25300Y48424D01*
X25000Y61500D02*
X25100Y61600D01*
X23800Y54100D02*
X24200D01*
Y61100D02*
X25472Y62372D01*
X23900Y55500D02*
X24200Y55800D01*
X58700Y54000D02*
X58800D01*
X49960Y64140D02*
Y66380D01*
X59100Y53900D02*
X59300D01*
X49460Y64040D02*
Y65630D01*
X59800Y53268D02*
Y53400D01*
X48960Y63840D02*
Y66380D01*
X47460Y59140D02*
Y65630D01*
X60487Y58013D02*
X60500D01*
X56960Y63040D02*
Y66380D01*
X55960Y63640D02*
X59700Y59900D01*
X55960Y63640D02*
Y66380D01*
X55460Y63340D02*
X58700Y60100D01*
X55460Y63340D02*
Y65630D01*
X54960Y63140D02*
Y66380D01*
X52900Y66320D02*
X52960Y66380D01*
X24300Y37500D02*
X24311Y37489D01*
X45600Y55300D02*
X45700Y55200D01*
X38865Y59735D02*
X43300Y55300D01*
X23400Y65100D02*
X25200Y66900D01*
X23400Y37000D02*
X24704Y35696D01*
X65700Y50000D02*
Y54800D01*
X64800Y42200D02*
X65300Y42700D01*
X65200Y55500D02*
X65400Y55300D01*
X64350Y42450D02*
X64800Y42900D01*
X64000Y42700D02*
X64600Y43300D01*
X63500Y54900D02*
X63800Y55200D01*
X61000Y48200D02*
Y56400D01*
X59100Y46400D02*
X59200D01*
X59150Y45950D02*
X61200Y48000D01*
X79400Y42800D02*
X80400D01*
X76800Y48400D02*
X77084Y48116D01*
X22900Y37400D02*
Y64100D01*
Y37400D02*
X23100Y37200D01*
X22500Y37000D02*
Y65200D01*
X24300Y34300D02*
X25100Y33500D01*
X44700Y53700D02*
X45600D01*
X38400Y57700D02*
X41800Y54300D01*
X34000Y61000D02*
X34600Y61600D01*
X50460Y64540D02*
Y65630D01*
X51400Y59000D02*
X55387Y55013D01*
X53960Y61840D02*
X58622Y57178D01*
X58978D01*
X53960Y61840D02*
Y66380D01*
X53700Y61000D02*
X58300Y56400D01*
X53700Y61000D02*
Y65390D01*
X53460Y65630D02*
X53700Y65390D01*
X58300Y56391D02*
Y56400D01*
Y56391D02*
X58891D01*
X53500Y59800D02*
Y63900D01*
X52900Y64500D02*
Y66320D01*
Y64500D02*
X53500Y63900D01*
Y59800D02*
X57000Y56300D01*
X52900Y59700D02*
Y63860D01*
X52460Y64300D02*
X52900Y63860D01*
X58756Y54656D02*
X59000Y54900D01*
X57802Y54656D02*
X58756D01*
X57458Y55000D02*
X57802Y54656D01*
X56100Y55200D02*
X58000D01*
X58206Y55406D01*
X51721Y61179D02*
Y64279D01*
X50960Y65040D02*
X51721Y64279D01*
X51900Y59000D02*
X55900Y55000D01*
X51900Y59000D02*
Y61000D01*
X50960Y65040D02*
Y66380D01*
X51721Y61179D02*
X51900Y61000D01*
X55900Y55000D02*
X57458D01*
X59000Y54900D02*
Y55081D01*
X52460Y64300D02*
Y65630D01*
X56200Y56100D02*
Y56400D01*
X52900Y59700D02*
X56200Y56400D01*
X55400D02*
X56000Y55800D01*
X55400Y56400D02*
Y56800D01*
X52200Y61700D02*
X52500Y61400D01*
Y58800D02*
Y61400D01*
X58206Y55406D02*
X58994D01*
X52500Y58800D02*
X56100Y55200D01*
X52700Y59500D02*
Y61900D01*
Y59500D02*
X55400Y56800D01*
X51700Y64700D02*
X52000Y64400D01*
Y62600D02*
X52700Y61900D01*
X52000Y62600D02*
Y64400D01*
X56000Y55800D02*
X58800D01*
X51700Y64700D02*
Y65000D01*
X61700Y41700D02*
X64900D01*
X61000Y42400D02*
X61700Y41700D01*
X56000Y42400D02*
X61000D01*
X52300Y45300D02*
X53100D01*
X49300Y48300D02*
X52300Y45300D01*
X53100D02*
X56000Y42400D01*
X49300Y48300D02*
Y49500D01*
X64900Y41700D02*
X66300Y43100D01*
X65500Y58600D02*
X66500Y57600D01*
X64700Y58600D02*
X65500D01*
X64400Y58900D02*
X64700Y58600D01*
X63900Y58900D02*
X64400D01*
X60900Y61900D02*
X63900Y58900D01*
X60500Y61900D02*
X60900D01*
X59300Y63100D02*
X60500Y61900D01*
X58600Y63100D02*
X59300D01*
X66500Y49900D02*
X68603Y47797D01*
X66500Y49900D02*
Y57600D01*
D46*
X39500Y43900D02*
X41073Y45473D01*
X34700Y43900D02*
X39500D01*
X34120Y44480D02*
X34700Y43900D01*
X49500Y55000D02*
Y61400D01*
X61200Y56000D02*
Y56200D01*
X55300Y41600D02*
X61300D01*
X47600Y49300D02*
X55300Y41600D01*
X47000Y45400D02*
Y51400D01*
X46600Y51800D02*
X47000Y51400D01*
X46600Y51800D02*
Y53054D01*
X46700Y53154D01*
X47000Y45400D02*
X53000Y39400D01*
X57960Y67040D02*
X58400Y66600D01*
X69914Y54786D02*
Y55686D01*
Y54786D02*
X71200Y53500D01*
X58172Y59528D02*
Y59928D01*
X61300Y64300D02*
X69914Y55686D01*
X55800Y51500D02*
X60500D01*
X59300Y65000D02*
X62300D01*
X59000Y65300D02*
X59300Y65000D01*
X59000Y65300D02*
Y65700D01*
X58400Y66300D02*
X59000Y65700D01*
X58400Y66300D02*
Y66600D01*
X58600Y64700D02*
X61900D01*
X58000Y65300D02*
X58600Y64700D01*
X58000Y65300D02*
Y65700D01*
X57500Y66200D02*
X58000Y65700D01*
X57500Y66200D02*
Y66500D01*
X57000Y67000D02*
X57500Y66500D01*
X57000Y67000D02*
Y67200D01*
X56600Y67600D02*
X57000Y67200D01*
X56239Y67600D02*
X56600D01*
X56039Y67400D02*
X56239Y67600D01*
X55800Y67400D02*
X56039D01*
X55320Y67880D02*
X55800Y67400D01*
X51900Y53600D02*
Y56400D01*
X51600Y56700D02*
X51900Y56400D01*
X51300Y56700D02*
X51600D01*
X50700Y57300D02*
X51300Y56700D01*
X50700Y57300D02*
Y57700D01*
X50200Y58200D02*
X50700Y57700D01*
X50200Y58200D02*
Y60300D01*
X49700Y60800D02*
X50200Y60300D01*
X49700Y60800D02*
Y62400D01*
X43000Y58700D02*
X44500D01*
X61400Y63800D02*
X62100Y63100D01*
X60700Y63800D02*
X61400D01*
X60600Y63700D02*
X60700Y63800D01*
X62100Y61200D02*
Y63100D01*
X54900Y68400D02*
X59440D01*
X58400Y64500D02*
X61600D01*
X54500Y67800D02*
Y68000D01*
X54000Y67300D02*
X54500Y67800D01*
X54000Y67100D02*
Y67300D01*
X53600Y66700D02*
X54000Y67100D01*
X53200Y66700D02*
X53600D01*
X53100Y66800D02*
X53200Y66700D01*
X52700Y66800D02*
X53100D01*
X52600Y66700D02*
X52700Y66800D01*
X52300Y66700D02*
X52600D01*
X52200Y66800D02*
X52300Y66700D01*
X51800Y66800D02*
X52200D01*
X51700Y66700D02*
X51800Y66800D01*
X51200Y66700D02*
X51700D01*
X51100Y66800D02*
X51200Y66700D01*
X50700Y66800D02*
X51100D01*
X50600Y66700D02*
X50700Y66800D01*
X54500Y68000D02*
X54900Y68400D01*
X48000Y65000D02*
X48400Y64600D01*
X48000Y65000D02*
Y65800D01*
X48500Y66300D01*
Y66500D01*
X48800Y66800D01*
X49243D01*
X49700D02*
X50100D01*
X50200Y66700D02*
X50600D01*
X50100Y66800D02*
X50200Y66700D01*
X49382Y66661D02*
X49561D01*
X49243Y66800D02*
X49382Y66661D01*
X49561D02*
X49700Y66800D01*
X75100Y41300D02*
Y44200D01*
X71200Y53500D02*
X73100D01*
X57700Y64300D02*
X61300D01*
X57960Y67040D02*
Y67880D01*
X62300Y65000D02*
X63500Y63800D01*
X61900Y64700D02*
X62600Y64000D01*
X54960Y67880D02*
X55320D01*
X71981Y40981D02*
X72500Y41500D01*
X75100Y44200D02*
X75700Y44800D01*
X74981Y41181D02*
X75100Y41300D01*
X58600Y64000D02*
X60400D01*
X71500Y64300D02*
Y67100D01*
X62100Y61200D02*
X64100Y59200D01*
X57700Y63700D02*
X60600D01*
X49800Y55900D02*
X50000Y55700D01*
X49800Y55900D02*
Y58200D01*
X49500Y55000D02*
X49700Y54800D01*
X48700Y62200D02*
X49500Y61400D01*
X60500Y51500D02*
X60700Y51700D01*
X58848Y60152D02*
X59425Y59575D01*
X58648Y60152D02*
X58848D01*
X58172Y59528D02*
X59800Y57900D01*
X61600Y64500D02*
X63800Y62300D01*
X58300Y64600D02*
X58400Y64500D01*
X59440Y68400D02*
X59960Y67880D01*
X48400Y61900D02*
Y64600D01*
X44500Y58700D02*
X44778Y58422D01*
X42800Y58900D02*
X43000Y58700D01*
Y58100D02*
X45300D01*
X42800Y57900D02*
X43000Y58100D01*
X53000Y39400D02*
X58500D01*
X46700Y53154D02*
Y53600D01*
X61300Y41600D02*
X63600Y39300D01*
X47600Y49300D02*
Y53700D01*
X61200Y56200D02*
X62700Y57700D01*
X41073Y45473D02*
Y55027D01*
X34120Y44480D02*
Y44680D01*
X49300Y62800D02*
X49700Y62400D01*
X51600Y53300D02*
X51900Y53600D01*
D47*
X52400Y37700D02*
X57400D01*
X59000Y36100D01*
X81600D01*
X86860Y41360D01*
X58500Y37300D02*
X80200D01*
X52400Y38300D02*
X57500D01*
X58500Y37300D01*
X80200D02*
X86400Y43500D01*
Y44800D01*
X86672Y45072D01*
X86000Y44100D02*
Y54600D01*
X65400Y38000D02*
X79900D01*
X86000Y44100D01*
X52600Y38700D02*
X64700D01*
X65400Y38000D01*
X77800Y54800D02*
X80100D01*
X82200Y56900D01*
X85700D01*
X85800Y57000D01*
X88700D01*
X89200Y56500D01*
X30300Y57800D02*
X32800Y55300D01*
Y49600D02*
Y55300D01*
X30600Y40000D02*
Y40200D01*
X28300Y55700D02*
X31700Y52300D01*
X28300Y55700D02*
Y56900D01*
X32800Y49600D02*
X33709Y48691D01*
X30300Y57800D02*
Y58700D01*
X86672Y45072D02*
X86828D01*
X48724Y41976D02*
X52400Y38300D01*
X86000Y54600D02*
X88072Y56672D01*
X47600Y43700D02*
X52600Y38700D01*
X51100Y39000D02*
X52400Y37700D01*
X86860Y41360D02*
Y44560D01*
X77400Y54400D02*
X77800Y54800D01*
X89200Y56500D02*
X91200D01*
D51*
X96600Y42500D02*
Y41600D01*
X97200D01*
X97650Y42200D02*
X97950D01*
X98100Y42050D01*
Y41600D01*
X97650D01*
X97500Y41750D01*
X97650Y41900D01*
X98100D01*
X98399Y42200D02*
Y41750D01*
X98549Y41600D01*
X98999D01*
Y41450D01*
X98849Y41300D01*
X98699D01*
X98999Y41600D02*
Y42200D01*
X99749Y41600D02*
X99449D01*
X99299Y41750D01*
Y42050D01*
X99449Y42200D01*
X99749D01*
X99899Y42050D01*
Y41900D01*
X99299D01*
X100199Y42200D02*
Y41600D01*
Y41900D01*
X100349Y42050D01*
X100499Y42200D01*
X100649D01*
X102448Y41600D02*
Y42500D01*
X101998Y42050D01*
X102598D01*
D62*
X59960Y67880D02*
D03*
X57960D02*
D03*
X54960D02*
D03*
X56960Y66380D02*
D03*
X55960D02*
D03*
X55460Y65630D02*
D03*
X54960Y66380D02*
D03*
X53960D02*
D03*
X53460Y65630D02*
D03*
X52960Y66380D02*
D03*
X52460Y65630D02*
D03*
X50960Y66380D02*
D03*
X50460Y65630D02*
D03*
X49960Y66380D02*
D03*
X49460Y65630D02*
D03*
X48960Y66380D02*
D03*
X47460Y65630D02*
D03*
X53460Y67130D02*
D03*
D65*
X48724Y41976D02*
D03*
X34120Y44680D02*
D03*
X50000Y55700D02*
D03*
X49800Y58200D02*
D03*
X48700Y62200D02*
D03*
X49700Y54800D02*
D03*
X61000Y56400D02*
D03*
X62700Y57700D02*
D03*
X47714Y43614D02*
D03*
X49300Y49500D02*
D03*
X82500Y43200D02*
D03*
X86828Y45072D02*
D03*
X88072Y56672D02*
D03*
X91200Y56500D02*
D03*
X77400Y54400D02*
D03*
X86860Y44560D02*
D03*
X68603Y47797D02*
D03*
X76200Y50600D02*
D03*
X76600Y50200D02*
D03*
X81600Y43100D02*
D03*
X76600Y49700D02*
D03*
X81100Y43100D02*
D03*
X76900Y48800D02*
D03*
X81231Y42469D02*
D03*
X76800Y48400D02*
D03*
X80400Y42800D02*
D03*
X74300Y46700D02*
D03*
X78800Y42000D02*
D03*
X65700Y54800D02*
D03*
X65200Y55500D02*
D03*
X59100Y46400D02*
D03*
X59150Y45950D02*
D03*
X64800Y42200D02*
D03*
X64350Y42450D02*
D03*
X63500Y54900D02*
D03*
X64000Y42700D02*
D03*
X59800Y53400D02*
D03*
X59300Y53900D02*
D03*
X58800Y54000D02*
D03*
X55387Y55013D02*
D03*
X58891Y56391D02*
D03*
X60500Y58013D02*
D03*
X23800Y54100D02*
D03*
X25100Y61600D02*
D03*
X23900Y55500D02*
D03*
X25472Y62372D02*
D03*
X25200Y66900D02*
D03*
X24704Y35696D02*
D03*
X26800Y36200D02*
D03*
X23812Y49912D02*
D03*
X23700Y48500D02*
D03*
X26496Y36804D02*
D03*
X30600Y40200D02*
D03*
X28300Y56900D02*
D03*
X31700Y52300D02*
D03*
X30300Y58700D02*
D03*
X33709Y48691D02*
D03*
X45600Y53700D02*
D03*
X45700Y55200D02*
D03*
X38865Y59735D02*
D03*
X24311Y37489D02*
D03*
X23100Y37200D02*
D03*
X22900Y64100D02*
D03*
X22500Y65200D02*
D03*
X25100Y33500D02*
D03*
X70628Y54572D02*
D03*
X63600Y39300D02*
D03*
X47600Y53700D02*
D03*
X58500Y39400D02*
D03*
X46700Y53600D02*
D03*
X63500Y63800D02*
D03*
X73100Y53500D02*
D03*
X57700Y64300D02*
D03*
X59800Y57900D02*
D03*
X59425Y59575D02*
D03*
X59700Y59900D02*
D03*
X58978Y57178D02*
D03*
X60700Y51700D02*
D03*
X62600Y64000D02*
D03*
X64100Y59200D02*
D03*
X57700Y63700D02*
D03*
X51600Y53300D02*
D03*
X49300Y62800D02*
D03*
X44778Y58422D02*
D03*
X42800Y58900D02*
D03*
X45300Y58100D02*
D03*
X42800Y57900D02*
D03*
X58600Y64000D02*
D03*
X60400D02*
D03*
X58300Y64600D02*
D03*
X63800Y62300D02*
D03*
X48400Y61900D02*
D03*
X71500Y67100D02*
D03*
Y64300D02*
D03*
X71981Y40981D02*
D03*
X72500Y41500D02*
D03*
X74981Y41181D02*
D03*
X75700Y44800D02*
D03*
X34000Y61000D02*
D03*
X59000Y55000D02*
D03*
X58994Y55406D02*
D03*
X57000Y56300D02*
D03*
X52200Y61700D02*
D03*
X56200Y56100D02*
D03*
X58800Y55800D02*
D03*
X51700Y65000D02*
D03*
X66300Y43100D02*
D03*
X58600Y63100D02*
D03*
X51100Y39000D02*
D03*
M02*
