%FSLAX24Y24*%
%MOIN*%
G70*
G01*
G75*
G04 Layer_Physical_Order=1*
%ADD10C,0.0080*%
%ADD11R,0.0787X0.0197*%
%ADD12R,0.1811X0.1772*%
%ADD13R,0.0394X0.0433*%
%ADD14R,0.0571X0.0118*%
%ADD15R,0.0433X0.0394*%
%ADD16R,0.0945X0.1024*%
%ADD17R,0.1000X0.1400*%
%ADD18R,0.0300X0.0600*%
%ADD19R,0.0866X0.0157*%
%ADD20R,0.0866X0.0157*%
%ADD21R,0.0118X0.0728*%
%ADD22R,0.0728X0.0118*%
%ADD23R,0.0866X0.0787*%
%ADD24C,0.0120*%
%ADD25C,0.0110*%
%ADD26C,0.0100*%
%ADD27C,0.0320*%
%ADD28C,0.0200*%
%ADD29C,0.0900*%
%ADD30C,0.0472*%
%ADD31C,0.0669*%
%ADD32R,0.0591X0.0591*%
%ADD33C,0.0591*%
%ADD34C,0.0500*%
%ADD35R,0.0394X0.0394*%
%ADD36C,0.0394*%
%ADD37C,0.1300*%
%ADD38C,0.0550*%
%ADD39C,0.1063*%
%ADD40C,0.0250*%
%ADD41C,0.0400*%
D10*
X41451Y46467D02*
G03*
X41451Y46010I-89J-228D01*
G01*
X41313Y44347D02*
G03*
X41433Y44297I120J120D01*
G01*
X41313Y44347D02*
G03*
X41433Y44297I120J120D01*
G01*
X40700Y46830D02*
G03*
X40820Y46880I0J170D01*
G01*
X40700Y46830D02*
G03*
X40820Y46880I0J170D01*
G01*
X40957Y45217D02*
G03*
X40844Y45171I0J-160D01*
G01*
X40957Y45217D02*
G03*
X40844Y45170I0J-160D01*
G01*
X41055Y44897D02*
G03*
X41205Y44455I145J-197D01*
G01*
X40618Y44944D02*
G03*
X40845Y44700I-18J-244D01*
G01*
X41233Y41479D02*
G03*
X41451Y41075I184J-161D01*
G01*
X41430Y40700D02*
G03*
X41310Y40650I0J-170D01*
G01*
X41430Y40700D02*
G03*
X41310Y40650I0J-170D01*
G01*
X41439Y40099D02*
G03*
X41326Y40053I0J-160D01*
G01*
X41439Y40099D02*
G03*
X41326Y40052I0J-160D01*
G01*
X41451Y43661D02*
G03*
X41179Y43261I-168J-178D01*
G01*
X41451Y41912D02*
G03*
X41233Y41479I-140J-201D01*
G01*
X41305Y40645D02*
G03*
X41451Y40207I-5J-245D01*
G01*
X40663Y42745D02*
G03*
X40904Y42500I-5J-245D01*
G01*
X40145Y46400D02*
G03*
X40145Y46400I-245J0D01*
G01*
X38245Y46300D02*
G03*
X38245Y46300I-245J0D01*
G01*
X37045D02*
G03*
X37045Y46300I-245J0D01*
G01*
X34045D02*
G03*
X34045Y46300I-245J0D01*
G01*
X40145Y45200D02*
G03*
X40145Y45200I-245J0D01*
G01*
Y44200D02*
G03*
X40145Y44200I-245J0D01*
G01*
Y43200D02*
G03*
X40145Y43200I-245J0D01*
G01*
X39145Y42800D02*
G03*
X38656Y42782I-245J0D01*
G01*
X38882Y42556D02*
G03*
X39145Y42800I18J244D01*
G01*
X40145Y41200D02*
G03*
X40145Y41200I-245J0D01*
G01*
Y40200D02*
G03*
X40145Y40200I-245J0D01*
G01*
X38118Y42244D02*
G03*
X38345Y42000I-18J-244D01*
G01*
X34720Y45520D02*
G03*
X34600Y45570I-120J-120D01*
G01*
X34720Y45520D02*
G03*
X34600Y45570I-120J-120D01*
G01*
X37745Y42500D02*
G03*
X37495Y42745I-245J0D01*
G01*
X37255Y42505D02*
G03*
X37745Y42500I245J-5D01*
G01*
X41318Y40044D02*
G03*
X41451Y39607I-18J-244D01*
G01*
Y38985D02*
G03*
X41255Y38536I-93J-227D01*
G01*
X41180Y38461D02*
G03*
X41130Y38341I120J-120D01*
G01*
X41180Y38461D02*
G03*
X41130Y38341I120J-120D01*
G01*
X38345Y39700D02*
G03*
X37856Y39682I-245J0D01*
G01*
X38082Y39456D02*
G03*
X38345Y39700I18J244D01*
G01*
X40145Y38600D02*
G03*
X40145Y38600I-245J0D01*
G01*
X38445Y38500D02*
G03*
X38445Y38500I-245J0D01*
G01*
X41130Y38276D02*
G03*
X41451Y37907I170J-176D01*
G01*
Y37587D02*
G03*
X41487Y37201I-131J-207D01*
G01*
X40510Y37235D02*
G03*
X40027Y37292I-245J0D01*
G01*
X40599Y37071D02*
G03*
X40549Y37191I-170J0D01*
G01*
X40599Y37071D02*
G03*
X40549Y37191I-170J0D01*
G01*
X40027Y37292D02*
G03*
X39818Y36956I-227J-92D01*
G01*
X39014Y36969D02*
G03*
X39099Y37154I-160J186D01*
G01*
G03*
X38694Y36969I-245J0D01*
G01*
X38493Y36949D02*
G03*
X38509Y37036I-229J87D01*
G01*
G03*
X38035Y36949I-245J0D01*
G01*
X37300Y38740D02*
G03*
X37413Y38787I0J160D01*
G01*
X37300Y38740D02*
G03*
X37413Y38787I0J160D01*
G01*
X37245Y38500D02*
G03*
X37049Y38740I-245J0D01*
G01*
X36951D02*
G03*
X37245Y38500I49J-240D01*
G01*
X35645D02*
G03*
X35449Y38740I-245J0D01*
G01*
X35351D02*
G03*
X35645Y38500I49J-240D01*
G01*
X33786Y39060D02*
G03*
X33786Y38740I-186J-160D01*
G01*
X37318Y36949D02*
G03*
X37328Y37017I-235J68D01*
G01*
G03*
X36847Y36949I-245J0D01*
G01*
X35548D02*
G03*
X35556Y37011I-237J62D01*
G01*
X34445Y38500D02*
G03*
X34249Y38740I-245J0D01*
G01*
X34151D02*
G03*
X34445Y38500I49J-240D01*
G01*
X35556Y37011D02*
G03*
X35074Y36949I-245J0D01*
G01*
X34375Y37030D02*
G03*
X33899Y36949I-245J0D01*
G01*
X33699Y36961D02*
G03*
X33653Y37074I-160J0D01*
G01*
X34361Y36949D02*
G03*
X34375Y37030I-231J81D01*
G01*
X33699Y36961D02*
G03*
X33652Y37074I-160J0D01*
G01*
X31924Y52600D02*
G03*
X31991Y52485I237J61D01*
G01*
X31938Y50732D02*
G03*
X31888Y50852I-170J0D01*
G01*
X31938Y50732D02*
G03*
X31888Y50853I-170J0D01*
G01*
X31645Y51100D02*
G03*
X31405Y50855I-245J0D01*
G01*
X31544Y50326D02*
G03*
X31494Y50446I-170J0D01*
G01*
X31544Y50326D02*
G03*
X31494Y50446I-170J0D01*
G01*
X31045Y50900D02*
G03*
X30805Y50655I-245J0D01*
G01*
X32380Y46665D02*
G03*
X32316Y46830I-245J0D01*
G01*
X31953D02*
G03*
X32380Y46665I181J-165D01*
G01*
X33476Y45570D02*
G03*
X33476Y45230I-176J-170D01*
G01*
X31212Y46855D02*
G03*
X31300Y46830I88J145D01*
G01*
X31212Y46855D02*
G03*
X31300Y46830I88J145D01*
G01*
X31570Y46426D02*
G03*
X31520Y46546I-170J0D01*
G01*
X31570Y46426D02*
G03*
X31520Y46546I-170J0D01*
G01*
X31520Y45580D02*
G03*
X31570Y45700I-120J120D01*
G01*
X31520Y45580D02*
G03*
X31570Y45700I-120J120D01*
G01*
X31100Y45230D02*
G03*
X31220Y45280I0J170D01*
G01*
X31100Y45230D02*
G03*
X31220Y45280I0J170D01*
G01*
X30878Y45168D02*
G03*
X30976Y45230I-78J232D01*
G01*
X30945Y45000D02*
G03*
X30878Y45168I-245J0D01*
G01*
X29645Y52400D02*
G03*
X29542Y52600I-245J0D01*
G01*
X29292Y52180D02*
G03*
X29645Y52400I108J220D01*
G01*
X29945Y50700D02*
G03*
X29524Y50870I-245J0D01*
G01*
Y50530D02*
G03*
X29945Y50700I176J170D01*
G01*
X28908Y50870D02*
G03*
X28945Y51000I-208J130D01*
G01*
G03*
X28524Y51170I-245J0D01*
G01*
X30770Y48924D02*
G03*
X30845Y49100I-170J176D01*
G01*
G03*
X30430Y48924I-245J0D01*
G01*
X29680Y49735D02*
G03*
X29317Y49949I-245J0D01*
G01*
Y49520D02*
G03*
X29680Y49735I118J215D01*
G01*
X30345Y48200D02*
G03*
X30105Y47955I-245J0D01*
G01*
X29745Y47700D02*
G03*
X29260Y47749I-245J0D01*
G01*
X32645Y42800D02*
G03*
X32645Y42800I-245J0D01*
G01*
X32545Y44800D02*
G03*
X32545Y44800I-245J0D01*
G01*
X32345Y43800D02*
G03*
X32345Y43800I-245J0D01*
G01*
Y41800D02*
G03*
X32345Y41800I-245J0D01*
G01*
X33545Y37200D02*
G03*
X33318Y36956I-245J0D01*
G01*
X32578Y36949D02*
G03*
X32603Y37058I-219J109D01*
G01*
G03*
X32153Y37192I-245J0D01*
G01*
X32345Y40800D02*
G03*
X32345Y40800I-245J0D01*
G01*
Y39800D02*
G03*
X32345Y39800I-245J0D01*
G01*
X32545Y38800D02*
G03*
X32545Y38800I-245J0D01*
G01*
X32153Y37192D02*
G03*
X31735Y36949I-188J-157D01*
G01*
X30682Y44756D02*
G03*
X30945Y45000I18J244D01*
G01*
X30695Y44155D02*
G03*
X30945Y44400I5J245D01*
G01*
X31045Y43300D02*
G03*
X30795Y43545I-245J0D01*
G01*
X30878Y43068D02*
G03*
X31045Y43300I-78J232D01*
G01*
X30945Y42900D02*
G03*
X30878Y43068I-245J0D01*
G01*
X30860Y42014D02*
G03*
X30945Y42200I-160J186D01*
G01*
X30738Y43603D02*
G03*
X30617Y43653I-120J-120D01*
G01*
X30813Y41787D02*
G03*
X30860Y41900I-113J113D01*
G01*
X30738Y43603D02*
G03*
X30617Y43653I-120J-120D01*
G01*
X30813Y41787D02*
G03*
X30860Y41900I-113J113D01*
G01*
X30945Y41400D02*
G03*
X30669Y41643I-245J0D01*
G01*
X30673Y41157D02*
G03*
X30945Y41400I27J243D01*
G01*
X30617Y41147D02*
G03*
X30673Y41157I0J170D01*
G01*
X30617Y41147D02*
G03*
X30673Y41157I0J170D01*
G01*
X30561Y44701D02*
G03*
X30674Y44748I0J160D01*
G01*
X30561Y44701D02*
G03*
X30674Y44747I0J160D01*
G01*
X30945Y44400D02*
G03*
X30549Y44593I-245J0D01*
G01*
X30570Y44100D02*
G03*
X30690Y44150I0J170D01*
G01*
X30570Y44100D02*
G03*
X30690Y44150I0J170D01*
G01*
X30549Y42707D02*
G03*
X30945Y42900I151J193D01*
G01*
Y42200D02*
G03*
X30549Y42393I-245J0D01*
G01*
X31045Y40200D02*
G03*
X30795Y40445I-245J0D01*
G01*
X30769Y39957D02*
G03*
X31045Y40200I31J243D01*
G01*
X30945Y39400D02*
G03*
X30860Y39586I-245J0D01*
G01*
Y39800D02*
G03*
X30813Y39913I-160J0D01*
G01*
X30842Y38600D02*
G03*
X30945Y38800I-142J200D01*
G01*
X30787Y40453D02*
G03*
X30667Y40503I-120J-120D01*
G01*
X30787Y40453D02*
G03*
X30667Y40503I-120J-120D01*
G01*
X30860Y39800D02*
G03*
X30813Y39913I-160J0D01*
G01*
X31225Y37080D02*
G03*
X30860Y37294I-245J0D01*
G01*
X30945Y38400D02*
G03*
X30842Y38600I-245J0D01*
G01*
X30860Y37400D02*
G03*
X30813Y37513I-160J0D01*
G01*
X31187Y36949D02*
G03*
X31225Y37080I-207J131D01*
G01*
X30860Y37400D02*
G03*
X30813Y37513I-160J0D01*
G01*
X30549Y39207D02*
G03*
X30945Y39400I151J193D01*
G01*
Y38800D02*
G03*
X30549Y38993I-245J0D01*
G01*
Y38207D02*
G03*
X30945Y38400I151J193D01*
G01*
X30636Y37690D02*
G03*
X30549Y37735I-113J-113D01*
G01*
X30636Y37690D02*
G03*
X30549Y37735I-113J-113D01*
G01*
X47489Y48611D02*
X48289D01*
X46300Y49800D02*
X47489Y48611D01*
X39445Y48335D02*
Y48945D01*
X49000Y47300D02*
X50311Y48611D01*
X47700Y47300D02*
X49000D01*
X50311Y48611D02*
X51614D01*
X39839Y48335D02*
Y48939D01*
X39248Y49148D02*
X40286Y50186D01*
X48386D01*
X39248Y48335D02*
Y49148D01*
X50210Y54910D02*
X51614D01*
X45200Y51600D02*
X47400Y53800D01*
X38067Y48335D02*
Y49867D01*
X46500Y50400D02*
X47861Y51761D01*
X48386D01*
X39051Y48335D02*
Y49251D01*
X46400Y50700D02*
X47776Y52076D01*
X48386D01*
X38854Y48335D02*
Y49454D01*
X40000Y51000D02*
X45600D01*
X47935Y53335D02*
X48386D01*
X45600Y51000D02*
X47935Y53335D01*
X38657Y48335D02*
Y49657D01*
X39900Y51300D02*
X45400D01*
X47700Y53600D02*
Y54400D01*
X45400Y51300D02*
X47700Y53600D01*
X38264Y48335D02*
Y49664D01*
X39800Y51600D02*
X45200D01*
X47900Y54600D02*
X48300D01*
X47700Y54400D02*
X47900Y54600D01*
X47625Y45225D02*
X48386D01*
X51614D02*
X52225D01*
X51614Y43335D02*
X52235D01*
X51614Y41446D02*
X52246D01*
X49100Y41000D02*
Y41200D01*
X48386Y41446D02*
X48854D01*
X49100Y41200D01*
X51614Y38611D02*
X52389D01*
X47611D02*
X48386D01*
X47666Y37666D02*
X48386D01*
X49702Y34202D02*
X51614D01*
X39839Y35861D02*
Y36465D01*
X41498Y34202D02*
X41698D01*
X50013Y33887D02*
X51614D01*
X39445Y35555D02*
Y36465D01*
Y35555D02*
X41100Y33900D01*
X49728Y33572D02*
X51614D01*
X50800Y33500D02*
X50872Y33572D01*
X39051Y35149D02*
Y36465D01*
X50057Y33257D02*
X51614D01*
X38461Y35039D02*
Y36465D01*
Y35039D02*
X40243Y33257D01*
X49742Y32942D02*
X51614D01*
X37870Y34830D02*
Y36465D01*
X49936Y37036D02*
X51614D01*
X49649Y37351D02*
X51614D01*
X49919Y37981D02*
X51614D01*
X45267Y40333D02*
X46500Y39100D01*
X41935Y40333D02*
X45267D01*
X49704Y38296D02*
X51614D01*
X43000Y39900D02*
X44200D01*
X41935Y39743D02*
X42843D01*
X49874Y38926D02*
X51614D01*
X43620Y41120D02*
X43700Y41200D01*
X41935Y41120D02*
X43620D01*
X50259Y39241D02*
X51614D01*
X41800Y42100D02*
X43800D01*
X44000Y41900D01*
X49944Y39556D02*
X51614D01*
X41935Y42498D02*
X44402D01*
X44700Y42200D01*
X50129Y39871D02*
X51614D01*
X43492Y42892D02*
X43600Y43000D01*
X41935Y42892D02*
X43492D01*
X50314Y40186D02*
X51614D01*
X41935Y43876D02*
X43724D01*
X43900Y43700D01*
X50499Y40501D02*
X51614D01*
X49800Y41200D02*
X50499Y40501D01*
X43536Y44664D02*
X43800Y44400D01*
X41935Y44664D02*
X43536D01*
X50584Y40816D02*
X51614D01*
X50100Y41300D02*
Y41500D01*
Y41300D02*
X50584Y40816D01*
X43249Y45451D02*
X43400Y45300D01*
X41935Y45451D02*
X43249D01*
X49800Y41800D02*
X50100Y41500D01*
X50769Y41131D02*
X51614D01*
X50400Y41500D02*
Y41700D01*
Y41500D02*
X50769Y41131D01*
X41935Y45845D02*
X46255D01*
X49700Y42400D02*
X50400Y41700D01*
X50260Y45540D02*
X51614D01*
X40232Y48335D02*
Y49032D01*
X47203Y46097D02*
X47760Y45540D01*
X48386D01*
X40429Y48335D02*
Y48929D01*
X47203Y46097D02*
Y46497D01*
X44500Y49200D02*
X47203Y46497D01*
X47869Y41131D02*
X48386D01*
X43552Y45648D02*
X47514Y41686D01*
Y41486D02*
Y41686D01*
X41935Y45648D02*
X43552D01*
X47514Y41486D02*
X47869Y41131D01*
X43800Y44900D02*
X47884Y40816D01*
X48386D01*
X41935Y45254D02*
X42900D01*
X44127Y44073D02*
X47699Y40501D01*
X48386D01*
X41935Y44073D02*
X44127D01*
X44300Y43400D02*
X47514Y40186D01*
X48386D01*
X41935Y43680D02*
X42900D01*
X44605Y42695D02*
X47429Y39871D01*
X48386D01*
X41935Y42695D02*
X44605D01*
X45100Y41800D02*
X47344Y39556D01*
X48386D01*
X44986Y41514D02*
X47259Y39241D01*
X48386D01*
X41935Y41514D02*
X44986D01*
X45176Y40924D02*
X47174Y38926D01*
X48386D01*
X41935Y40924D02*
X45176D01*
X45600Y39600D02*
X46904Y38296D01*
X48386D01*
X43746Y39546D02*
X43800Y39600D01*
X41935Y39546D02*
X43746D01*
X44564Y40136D02*
X46700Y38000D01*
X48300D01*
X41935Y40136D02*
X44564D01*
X28100Y30700D02*
X34500D01*
X34700Y30900D01*
X27016Y33016D02*
X27512D01*
X39051Y35149D02*
X40600Y33600D01*
X41451Y47008D02*
Y47044D01*
Y46847D02*
Y47008D01*
Y46847D02*
Y47008D01*
Y46811D02*
Y46847D01*
X40993Y47053D02*
X41451D01*
X40980Y47040D02*
X41451D01*
Y46650D02*
Y46811D01*
Y46650D02*
Y46811D01*
Y46614D02*
Y46650D01*
Y46467D02*
Y46614D01*
Y46467D02*
Y46614D01*
X41403Y46480D02*
X41451D01*
X41417Y46000D02*
X41451D01*
X41440Y46471D02*
Y47053D01*
X41360Y46484D02*
Y47053D01*
X41451Y45863D02*
Y46010D01*
Y45863D02*
Y46010D01*
X41280Y46470D02*
Y47053D01*
X41200Y46423D02*
Y47053D01*
X41120Y46280D02*
Y47053D01*
X41451Y45827D02*
Y45863D01*
Y45666D02*
Y45827D01*
Y45666D02*
Y45827D01*
Y45630D02*
Y45666D01*
Y45469D02*
Y45630D01*
Y45469D02*
Y45630D01*
Y45433D02*
Y45469D01*
Y45272D02*
Y45433D01*
Y45272D02*
Y45433D01*
X41440Y45217D02*
Y46007D01*
X41451Y45237D02*
Y45272D01*
X40957Y45217D02*
X41451D01*
Y44252D02*
Y44288D01*
Y44091D02*
Y44252D01*
Y44091D02*
Y44252D01*
Y44055D02*
Y44091D01*
Y43894D02*
Y44055D01*
X41360Y45217D02*
Y45994D01*
X41280Y45217D02*
Y46008D01*
X41200Y45217D02*
Y46054D01*
X41120Y45217D02*
Y46197D01*
X41040Y45217D02*
Y47053D01*
X40960Y45217D02*
Y47020D01*
X41024Y44897D02*
X41055D01*
X41205Y44455D02*
X41313Y44347D01*
X41280Y43728D02*
Y44380D01*
X41360Y43715D02*
Y44313D01*
X41200Y43713D02*
Y44455D01*
X41120Y43666D02*
Y44468D01*
X41040Y43516D02*
Y44514D01*
X40900Y46960D02*
X41451D01*
X40820Y46880D02*
X41451D01*
X40132Y46480D02*
X41320D01*
X40145Y46400D02*
X41177D01*
X39949Y46640D02*
X41451D01*
X40086Y46560D02*
X41451D01*
X40132Y46320D02*
X41130D01*
X39949Y45440D02*
X41451D01*
X39949Y46160D02*
X41129D01*
X40086Y45360D02*
X41451D01*
X40132Y45280D02*
X41451D01*
X33442Y45600D02*
X41451D01*
X38108Y46080D02*
X41175D01*
X34720Y45520D02*
X41451D01*
X40820Y46880D02*
X40993Y47053D01*
X40880Y45197D02*
Y46940D01*
X40800Y45126D02*
Y46863D01*
X40720Y45046D02*
Y46831D01*
X40640Y44966D02*
Y46830D01*
X40145Y45200D02*
X40885D01*
X40086Y46240D02*
X41116D01*
X40132Y45120D02*
X40794D01*
X40086Y45040D02*
X40714D01*
X40926Y44800D02*
X40976D01*
X40960Y44749D02*
Y44834D01*
X40844Y44718D02*
X41024Y44897D01*
X40846Y44720D02*
X40956D01*
X40838Y44640D02*
X40962D01*
X40801Y44560D02*
X40999D01*
X40142Y44240D02*
X41451D01*
X40708Y44480D02*
X41092D01*
X40142Y44160D02*
X41451D01*
X40114Y44320D02*
X41348D01*
X40042Y44400D02*
X41260D01*
X40114Y44080D02*
X41451D01*
X40618Y44944D02*
X40844Y45170D01*
X40560Y44942D02*
Y46830D01*
X40960Y43041D02*
Y44651D01*
X40880Y42961D02*
Y44754D01*
X39949Y44960D02*
X40634D01*
X40480Y44914D02*
Y46830D01*
X40800Y42881D02*
Y44558D01*
X40720Y42801D02*
Y44486D01*
X40640Y42744D02*
Y44458D01*
X40560Y42724D02*
Y44458D01*
X35760Y44480D02*
X40492D01*
X40480Y42667D02*
Y44486D01*
X41451Y43894D02*
Y44055D01*
Y43859D02*
Y43894D01*
Y43697D02*
Y43859D01*
Y43697D02*
Y43859D01*
Y43662D02*
Y43697D01*
Y42910D02*
Y43052D01*
Y42910D02*
Y43052D01*
Y42874D02*
Y42910D01*
Y42713D02*
Y42874D01*
Y42713D02*
Y42874D01*
Y42677D02*
Y42713D01*
X41359Y42960D02*
X41451D01*
X41279Y42880D02*
X41451D01*
X41199Y42800D02*
X41451D01*
Y42516D02*
Y42677D01*
Y42516D02*
Y42677D01*
Y42481D02*
Y42516D01*
X41440Y41919D02*
Y43041D01*
X41360Y41951D02*
Y42961D01*
X41120Y43201D02*
Y43299D01*
X41280Y41954D02*
Y42881D01*
X41451Y42319D02*
Y42481D01*
Y42319D02*
Y42481D01*
Y42284D02*
Y42319D01*
Y42123D02*
Y42284D01*
Y42123D02*
Y42284D01*
Y42087D02*
Y42123D01*
Y41926D02*
Y42087D01*
Y41926D02*
Y42087D01*
Y40941D02*
Y41075D01*
Y40941D02*
Y41075D01*
Y40906D02*
Y40941D01*
Y40745D02*
Y40906D01*
Y40745D02*
Y40906D01*
Y40709D02*
Y40745D01*
Y40154D02*
Y40207D01*
Y40154D02*
Y40207D01*
X41349Y40160D02*
X41451D01*
X41360Y40685D02*
Y41079D01*
X41280Y40644D02*
Y41114D01*
X41200Y41929D02*
Y42801D01*
Y41430D02*
Y41493D01*
Y40624D02*
Y41204D01*
X41451Y40118D02*
Y40154D01*
X41360Y40078D02*
Y40162D01*
X41280Y40044D02*
Y40156D01*
X41200Y40024D02*
Y40176D01*
X40042Y44000D02*
X41451D01*
X36560Y43680D02*
X41137D01*
X40663Y42745D02*
X41179Y43261D01*
X36320Y43920D02*
X41451D01*
X36400Y43840D02*
X41451D01*
X36480Y43760D02*
X41451D01*
X41119Y42720D02*
X41451D01*
X41039Y42640D02*
X41451D01*
X40959Y42560D02*
X41451D01*
X40904Y42505D02*
X41451Y43052D01*
X40903Y42480D02*
X41451D01*
X40883Y42400D02*
X41451D01*
X40825Y42320D02*
X41451D01*
X40132Y43280D02*
X41145D01*
X40086Y43360D02*
X41071D01*
X40145Y43200D02*
X41119D01*
X41040Y43121D02*
Y43449D01*
X36640Y43600D02*
X41068D01*
X36720Y43520D02*
X41041D01*
X39949Y43440D02*
X41041D01*
X40132Y43120D02*
X41039D01*
X40086Y43040D02*
X40959D01*
X39949Y42960D02*
X40879D01*
X39132Y42880D02*
X40799D01*
X39145Y42800D02*
X40719D01*
X39132Y42720D02*
X40551D01*
X38566Y42240D02*
X41451D01*
X39949Y41440D02*
X41205D01*
X40145Y41200D02*
X41202D01*
X38486Y42160D02*
X41451D01*
X38406Y42080D02*
X41451D01*
X38332Y41920D02*
X41183D01*
X40132Y41120D02*
X41272D01*
X40142Y40160D02*
X41251D01*
X40086Y41040D02*
X41451D01*
X39949Y40960D02*
X41451D01*
X40114Y40080D02*
X41363D01*
X41120Y41864D02*
Y42721D01*
X40132Y41280D02*
X41175D01*
X41120Y40566D02*
Y41558D01*
X38286Y41840D02*
X41103D01*
X38149Y41760D02*
X41071D01*
X40086Y41360D02*
X41176D01*
X40142Y40240D02*
X41114D01*
X40114Y40320D02*
X41068D01*
X41120Y39966D02*
Y40234D01*
X40042Y40000D02*
X41158D01*
X40042Y40400D02*
X41055D01*
X38208Y39920D02*
X41086D01*
X39920Y46644D02*
Y46830D01*
X39840Y46638D02*
Y46830D01*
X40080Y46566D02*
Y46830D01*
X40000Y46624D02*
Y46830D01*
X39760Y46601D02*
Y46830D01*
X39680Y46508D02*
Y46830D01*
X38224Y46400D02*
X39655D01*
X38244Y46320D02*
X39668D01*
X39920Y45444D02*
Y46156D01*
X39840Y45438D02*
Y46162D01*
X38238Y46240D02*
X39714D01*
X38166Y46480D02*
X39668D01*
X38201Y46160D02*
X39851D01*
X38080Y46532D02*
Y46830D01*
X38000Y46545D02*
Y46830D01*
X38240Y46349D02*
Y46830D01*
X38160Y46486D02*
Y46830D01*
X37920Y46532D02*
Y46830D01*
X37840Y46486D02*
Y46830D01*
X37760Y46349D02*
Y46830D01*
X37044Y46320D02*
X37756D01*
X37040Y46349D02*
Y46830D01*
X37024Y46400D02*
X37776D01*
X36960Y46486D02*
Y46830D01*
X37038Y46240D02*
X37762D01*
X40400Y44842D02*
Y46830D01*
X38960Y43038D02*
Y46830D01*
X39120Y42908D02*
Y46830D01*
X39040Y43001D02*
Y46830D01*
X38880Y43044D02*
Y46830D01*
X38800Y43024D02*
Y46830D01*
X38720Y42966D02*
Y46830D01*
X40000Y45424D02*
Y46176D01*
X39760Y45401D02*
Y46199D01*
X40080Y45366D02*
Y46234D01*
X39680Y45308D02*
Y46292D01*
X38640Y42766D02*
Y46830D01*
X38560Y42686D02*
Y46830D01*
X38480Y42606D02*
Y46830D01*
X37680Y42666D02*
Y46830D01*
X38400Y42526D02*
Y46830D01*
X38320Y42446D02*
Y46830D01*
X37520Y42744D02*
Y46830D01*
X37440Y42800D02*
Y46830D01*
X37600Y42724D02*
Y46830D01*
X37360Y42880D02*
Y46830D01*
X37280Y42960D02*
Y46830D01*
X38240Y42366D02*
Y46251D01*
X37120Y43120D02*
Y46830D01*
X37040Y43200D02*
Y46251D01*
X37200Y43040D02*
Y46830D01*
X36880Y46532D02*
Y46830D01*
X36800Y46545D02*
Y46830D01*
X36720Y46532D02*
Y46830D01*
X36640Y46486D02*
Y46830D01*
X36560Y46349D02*
Y46830D01*
X34640Y45565D02*
Y46830D01*
X34560Y45570D02*
Y46830D01*
X36966Y46480D02*
X37834D01*
X34024Y46400D02*
X36576D01*
X34480Y45570D02*
Y46830D01*
X33966Y46480D02*
X36634D01*
X34044Y46320D02*
X36556D01*
X34038Y46240D02*
X36562D01*
X34400Y45570D02*
Y46830D01*
X34320Y45570D02*
Y46830D01*
X34240Y45570D02*
Y46830D01*
X34160Y45570D02*
Y46830D01*
X33920Y46514D02*
Y46830D01*
X33840Y46542D02*
Y46830D01*
X34000Y46442D02*
Y46830D01*
X33760Y46542D02*
Y46830D01*
X33680Y46514D02*
Y46830D01*
X33600Y46442D02*
Y46830D01*
X33360Y45638D02*
Y46830D01*
X33440Y45601D02*
Y46830D01*
X36320Y43920D02*
Y46830D01*
X36240Y44000D02*
Y46830D01*
X36480Y43760D02*
Y46830D01*
X36400Y43840D02*
Y46830D01*
X36080Y44160D02*
Y46830D01*
X36000Y44240D02*
Y46830D01*
X36160Y44080D02*
Y46830D01*
X35920Y44320D02*
Y46830D01*
X35840Y44400D02*
Y46830D01*
X36560Y43680D02*
Y46251D01*
X35680Y44560D02*
Y46830D01*
X35600Y44640D02*
Y46830D01*
X35760Y44480D02*
Y46830D01*
X35360Y44880D02*
Y46830D01*
X35280Y44960D02*
Y46830D01*
X35520Y44720D02*
Y46830D01*
X35440Y44800D02*
Y46830D01*
X35120Y45120D02*
Y46830D01*
X35040Y45200D02*
Y46830D01*
X35200Y45040D02*
Y46830D01*
X34880Y45360D02*
Y46830D01*
X34800Y45440D02*
Y46830D01*
X34960Y45280D02*
Y46830D01*
X34080Y45570D02*
Y46830D01*
X33520Y45570D02*
Y46830D01*
X34720Y45520D02*
Y46830D01*
X40000Y44424D02*
Y44976D01*
X39920Y44444D02*
Y44956D01*
X40080Y44366D02*
Y45034D01*
Y43366D02*
Y44034D01*
X39840Y44438D02*
Y44962D01*
X40000Y43424D02*
Y43976D01*
X39920Y43444D02*
Y43956D01*
X39086Y42640D02*
X40458D01*
X38949Y42560D02*
X40421D01*
X38806Y42480D02*
X40415D01*
X38726Y42400D02*
X40435D01*
X39760Y44401D02*
Y44999D01*
X39680Y44308D02*
Y45092D01*
X39840Y43438D02*
Y43962D01*
X39760Y43401D02*
Y43999D01*
X38949Y43040D02*
X39714D01*
X39680Y43308D02*
Y44092D01*
X39086Y42960D02*
X39851D01*
X37738Y42560D02*
X38434D01*
X37701Y42640D02*
X38514D01*
X37744Y42480D02*
X38354D01*
X37724Y42400D02*
X38274D01*
X39920Y41444D02*
Y42956D01*
X39840Y41438D02*
Y42962D01*
X40080Y41366D02*
Y43034D01*
X40000Y41424D02*
Y42976D01*
X38646Y42320D02*
X40493D01*
X39760Y41401D02*
Y42999D01*
X40000Y40424D02*
Y40976D01*
X39920Y40444D02*
Y40956D01*
X40080Y40366D02*
Y41034D01*
X39840Y40438D02*
Y40962D01*
X39760Y40401D02*
Y40999D01*
X38118Y42244D02*
X38656Y42782D01*
X38160Y42286D02*
Y46114D01*
X39680Y41308D02*
Y43092D01*
X38344Y42018D02*
X38882Y42556D01*
X38080Y42244D02*
Y46068D01*
X38000Y42224D02*
Y46055D01*
X37920Y42166D02*
Y46068D01*
X39680Y40308D02*
Y41092D01*
X38160Y39938D02*
Y41762D01*
X38240Y39901D02*
Y41799D01*
X38080Y39944D02*
Y41756D01*
X38000Y39924D02*
Y41776D01*
X36908Y46080D02*
X37892D01*
X37001Y46160D02*
X37799D01*
X35040Y45200D02*
X39655D01*
X35120Y45120D02*
X39668D01*
X34800Y45440D02*
X39851D01*
X34880Y45360D02*
X39714D01*
X34960Y45280D02*
X39668D01*
X35440Y44800D02*
X40376D01*
X35520Y44720D02*
X40356D01*
X35680Y44560D02*
X40399D01*
X35600Y44640D02*
X40362D01*
X35280Y44960D02*
X39851D01*
X35200Y45040D02*
X39714D01*
X35360Y44880D02*
X40434D01*
X33908Y46080D02*
X36692D01*
X34001Y46160D02*
X36599D01*
X34000Y45570D02*
Y46158D01*
X33920Y45570D02*
Y46086D01*
X33840Y45570D02*
Y46058D01*
X33680Y45570D02*
Y46086D01*
X33600Y45570D02*
Y46158D01*
X33760Y45570D02*
Y46058D01*
X33476Y45570D02*
X34600D01*
X33476Y45230D02*
X34530D01*
X33442Y45200D02*
X34560D01*
X36160Y44080D02*
X39686D01*
X36080Y44160D02*
X39658D01*
X36800Y43440D02*
X39851D01*
X36240Y44000D02*
X39758D01*
X35840Y44400D02*
X39758D01*
X35920Y44320D02*
X39686D01*
X36000Y44240D02*
X39658D01*
X37120Y43120D02*
X39668D01*
X37200Y43040D02*
X38851D01*
X37280Y42960D02*
X38714D01*
X36880Y43360D02*
X39714D01*
X36960Y43280D02*
X39668D01*
X37040Y43200D02*
X39655D01*
X36800Y43440D02*
Y46055D01*
X36720Y43520D02*
Y46068D01*
X36960Y43280D02*
Y46114D01*
X36880Y43360D02*
Y46068D01*
X34720Y45520D02*
X37495Y42745D01*
X36640Y43600D02*
Y46114D01*
X34530Y45230D02*
X37255Y42505D01*
X37608Y42720D02*
X38594D01*
X37666Y42320D02*
X38194D01*
X37360Y42880D02*
X38668D01*
X37440Y42800D02*
X38655D01*
X41451Y39563D02*
Y39607D01*
Y39563D02*
Y39607D01*
Y39528D02*
Y39563D01*
X41440Y38989D02*
Y39599D01*
X41451Y39367D02*
Y39528D01*
X41360Y39003D02*
Y39562D01*
X41451Y39367D02*
Y39528D01*
Y39331D02*
Y39367D01*
Y39170D02*
Y39331D01*
Y39170D02*
Y39331D01*
Y39134D02*
Y39170D01*
Y38985D02*
Y39134D01*
Y38985D02*
Y39134D01*
X41120Y38815D02*
Y39634D01*
X39920Y38844D02*
Y39956D01*
X40080Y38766D02*
Y40034D01*
X40000Y38824D02*
Y39976D01*
X39840Y38838D02*
Y39962D01*
X39760Y38801D02*
Y39999D01*
X39680Y38708D02*
Y40092D01*
X41280Y38990D02*
Y39556D01*
X41200Y38945D02*
Y39576D01*
X40142Y38640D02*
X41144D01*
X40042Y38800D02*
X41117D01*
X40114Y38720D02*
X41116D01*
X40142Y38560D02*
X41214D01*
X41120Y38266D02*
Y38701D01*
X41040Y36949D02*
Y42641D01*
X40960Y36949D02*
Y42561D01*
X40880Y36949D02*
Y42394D01*
X40800Y36949D02*
Y42300D01*
X40720Y36949D02*
Y42263D01*
X41180Y38461D02*
X41255Y38536D01*
X41200Y38481D02*
Y38571D01*
X40114Y38480D02*
X41199D01*
X40042Y38400D02*
X41141D01*
X41130Y38276D02*
Y38341D01*
X40480Y37353D02*
Y42333D01*
X40400Y37439D02*
Y44558D01*
X40640Y36949D02*
Y42256D01*
X40560Y37179D02*
Y42276D01*
X40320Y37473D02*
Y46830D01*
X40240Y37478D02*
Y46830D01*
X40160Y37456D02*
Y46830D01*
X40080Y37395D02*
Y38434D01*
X39920Y37414D02*
Y38356D01*
X40000Y37342D02*
Y38376D01*
X39840Y37442D02*
Y38362D01*
X39760Y37442D02*
Y38399D01*
X39680Y37414D02*
Y38492D01*
X38301Y39840D02*
X41058D01*
X38338Y39760D02*
X41058D01*
X38324Y39600D02*
X41158D01*
X38344Y39680D02*
X41086D01*
X38266Y39520D02*
X41451D01*
X38066Y39440D02*
X41451D01*
X37986Y39360D02*
X41451D01*
X37906Y39280D02*
X41451D01*
X37826Y39200D02*
X41451D01*
X37746Y39120D02*
X41451D01*
X37666Y39040D02*
X41451D01*
X37586Y38960D02*
X41219D01*
X37506Y38880D02*
X41146D01*
X37426Y38800D02*
X39758D01*
X38320Y39808D02*
Y41892D01*
X38240Y38742D02*
Y39499D01*
X38400Y38642D02*
Y42074D01*
X38320Y38714D02*
Y39592D01*
X37920Y39866D02*
Y41834D01*
X38308Y38720D02*
X39686D01*
X38160Y38742D02*
Y39462D01*
X38080Y38714D02*
Y39454D01*
X37413Y38787D02*
X38082Y39456D01*
X37108Y38720D02*
X38092D01*
X38000Y38642D02*
Y39374D01*
X39600Y37342D02*
Y46830D01*
X39520Y36949D02*
Y46830D01*
X39440Y36949D02*
Y46830D01*
X39360Y36949D02*
Y46830D01*
X39280Y36949D02*
Y46830D01*
X39200Y36949D02*
Y46830D01*
X39120Y36949D02*
Y42692D01*
X38444Y38480D02*
X39686D01*
X39040Y37314D02*
Y42599D01*
X38401Y38640D02*
X39658D01*
X38438Y38560D02*
X39658D01*
X38424Y38400D02*
X39758D01*
X38960Y37375D02*
Y42562D01*
X38880Y37398D02*
Y42554D01*
X38800Y37393D02*
Y42474D01*
X38720Y37359D02*
Y42394D01*
X38640Y37273D02*
Y42314D01*
X38480Y37151D02*
Y42154D01*
X38560Y36949D02*
Y42234D01*
X37238Y38560D02*
X37962D01*
X37920Y36949D02*
Y39294D01*
X37201Y38640D02*
X37999D01*
X37244Y38480D02*
X37956D01*
X37224Y38400D02*
X37976D01*
X41451Y37792D02*
Y37907D01*
Y37792D02*
Y37907D01*
Y37756D02*
Y37792D01*
X41440Y37594D02*
Y37899D01*
X41360Y37622D02*
Y37862D01*
X41280Y37622D02*
Y37856D01*
X41451Y37595D02*
Y37756D01*
Y37595D02*
Y37756D01*
X41486Y37200D02*
X42000D01*
X41487Y37201D02*
X42000D01*
X40592Y37120D02*
X42000D01*
X40599Y37040D02*
X42000D01*
X41200Y37594D02*
Y37876D01*
X41120Y37522D02*
Y37934D01*
Y36949D02*
Y37238D01*
X40476Y37360D02*
X41076D01*
X40506Y37280D02*
X41096D01*
X40399Y37440D02*
X41082D01*
X41002Y36949D02*
X41199D01*
X40841D02*
X41002D01*
X40540Y37200D02*
X41154D01*
X40510Y37230D02*
X40549Y37191D01*
X42000Y36740D02*
Y37201D01*
X41920Y36660D02*
Y37201D01*
X41840Y36580D02*
Y37201D01*
X41760Y36500D02*
Y37201D01*
X40599Y36960D02*
X42000D01*
X41199Y36880D02*
X42000D01*
X41680Y36500D02*
Y37201D01*
X41199Y36800D02*
X42000D01*
X41199Y36720D02*
X41980D01*
X41760Y36500D02*
X42000Y36740D01*
X41199Y36640D02*
X41900D01*
X41199Y36560D02*
X41820D01*
X41199Y36500D02*
X41760D01*
X41600D02*
Y37201D01*
X41520Y36500D02*
Y37201D01*
X41440Y36500D02*
Y37167D01*
X41360Y36500D02*
Y37139D01*
X41280Y36500D02*
Y37139D01*
X40599Y36949D02*
Y37071D01*
X41200Y36500D02*
Y37167D01*
X40841Y36949D02*
X41002D01*
X40805D02*
X40841D01*
X41199Y36500D02*
Y36949D01*
X40644D02*
X40805D01*
X40644D02*
X40805D01*
X40608D02*
X40644D01*
X39849Y37440D02*
X40132D01*
X39986Y37360D02*
X40055D01*
X38987D02*
X39614D01*
X39065Y37280D02*
X39568D01*
X38366Y38320D02*
X41130D01*
X33349Y37440D02*
X39751D01*
X33486Y37360D02*
X38721D01*
X39680Y36949D02*
Y36986D01*
X39095Y37200D02*
X39555D01*
X39660Y36949D02*
X39821D01*
X39660D02*
X39821D01*
X39097Y37120D02*
X39568D01*
X38288Y37280D02*
X38644D01*
X39071Y37040D02*
X39614D01*
X38320Y37275D02*
Y38286D01*
X38240Y37280D02*
Y38258D01*
X38400Y37240D02*
Y38358D01*
X38160Y37258D02*
Y38258D01*
X33532Y37280D02*
X38239D01*
X37166Y38320D02*
X38034D01*
X38080Y37198D02*
Y38286D01*
X38446Y37200D02*
X38614D01*
X38494Y37120D02*
X38612D01*
X38509Y37040D02*
X38638D01*
X37246Y37200D02*
X38082D01*
X37305Y37120D02*
X38034D01*
X37327Y37040D02*
X38019D01*
X39624Y36949D02*
X39660D01*
X39600D02*
Y37058D01*
X39463Y36949D02*
X39624D01*
X39463D02*
X39624D01*
X39427D02*
X39463D01*
X39266D02*
X39427D01*
X39266D02*
X39427D01*
X39230D02*
X39266D01*
X39069D02*
X39230D01*
X39069D02*
X39230D01*
X39033D02*
X39069D01*
X39040D02*
Y36994D01*
X38640Y36949D02*
Y37036D01*
X38000Y36949D02*
Y38358D01*
X37321Y36960D02*
X38031D01*
X38640Y36949D02*
X38675D01*
X38493D02*
X38640D01*
X38493D02*
X38640D01*
X37888D02*
X38035D01*
X37888D02*
X38035D01*
X37852D02*
X37888D01*
X37840Y39666D02*
Y46114D01*
X37760Y39586D02*
Y46251D01*
X37200Y39060D02*
Y42560D01*
X37120Y39060D02*
Y42640D01*
X37040Y39060D02*
Y42720D01*
X36960Y39060D02*
Y42800D01*
X36880Y39060D02*
Y42880D01*
X37680Y39506D02*
Y42334D01*
X37600Y39426D02*
Y42276D01*
X37520Y39346D02*
Y42256D01*
X37440Y39266D02*
Y42262D01*
X37360Y39186D02*
Y42299D01*
X37280Y39106D02*
Y42392D01*
X37234Y39060D02*
X37856Y39682D01*
X36320Y39060D02*
Y43440D01*
X36240Y39060D02*
Y43520D01*
X36160Y39060D02*
Y43600D01*
X36080Y39060D02*
Y43680D01*
X36000Y39060D02*
Y43760D01*
X35920Y39060D02*
Y43840D01*
X35840Y39060D02*
Y43920D01*
X36800Y39060D02*
Y42960D01*
X36720Y39060D02*
Y43040D01*
X36640Y39060D02*
Y43120D01*
X36560Y39060D02*
Y43200D01*
X36480Y39060D02*
Y43280D01*
X36400Y39060D02*
Y43360D01*
X37840Y36949D02*
Y39214D01*
X37760Y36949D02*
Y39134D01*
X37680Y36949D02*
Y39054D01*
X37600Y36949D02*
Y38974D01*
X37520Y36949D02*
Y38894D01*
X37440Y36949D02*
Y38814D01*
X37280Y37163D02*
Y38740D01*
X37360Y36949D02*
Y38752D01*
X37049Y38740D02*
X37300D01*
X37200Y38642D02*
Y38740D01*
X36800Y38642D02*
Y38740D01*
X36720Y36949D02*
Y38740D01*
X36640Y36949D02*
Y38740D01*
X36560Y36949D02*
Y38740D01*
X36480Y36949D02*
Y38740D01*
X36400Y36949D02*
Y38740D01*
X36320Y36949D02*
Y38740D01*
X36240Y36949D02*
Y38740D01*
X36160Y36949D02*
Y38740D01*
X36080Y36949D02*
Y38740D01*
X36000Y36949D02*
Y38740D01*
X35920Y36949D02*
Y38740D01*
X35280Y39060D02*
Y44480D01*
X35200Y39060D02*
Y44560D01*
X35120Y39060D02*
Y44640D01*
X35040Y39060D02*
Y44720D01*
X34960Y39060D02*
Y44800D01*
X34880Y39060D02*
Y44880D01*
X34800Y39060D02*
Y44960D01*
X35760Y39060D02*
Y44000D01*
X35680Y39060D02*
Y44080D01*
X35600Y39060D02*
Y44160D01*
X35520Y39060D02*
Y44240D01*
X33708Y39120D02*
X37294D01*
X35440Y39060D02*
Y44320D01*
X35360Y39060D02*
Y44400D01*
X34480Y39060D02*
Y45230D01*
X34400Y39060D02*
Y45230D01*
X34320Y39060D02*
Y45230D01*
X34240Y39060D02*
Y45230D01*
X33760Y39086D02*
Y45230D01*
X33680Y39132D02*
Y45230D01*
X34160Y39060D02*
Y45230D01*
X34720Y39060D02*
Y45040D01*
X34640Y39060D02*
Y45120D01*
X34560Y39060D02*
Y45200D01*
X33600Y39145D02*
Y45230D01*
X33520Y39132D02*
Y45230D01*
X33440Y39086D02*
Y45199D01*
X35449Y38740D02*
X36951D01*
X35840Y36949D02*
Y38740D01*
X35760Y36949D02*
Y38740D01*
X35680Y36949D02*
Y38740D01*
X33786Y39060D02*
X37234D01*
X35600Y38642D02*
Y38740D01*
X35200Y38642D02*
Y38740D01*
X35120Y37164D02*
Y38740D01*
X34249D02*
X35351D01*
X35040Y36949D02*
Y38740D01*
X34960Y36949D02*
Y38740D01*
X34080Y39060D02*
Y45230D01*
X34000Y39060D02*
Y45230D01*
X33920Y39060D02*
Y45230D01*
X33840Y39060D02*
Y45230D01*
X33360Y38949D02*
Y45162D01*
X33280Y37444D02*
Y45156D01*
X34880Y36949D02*
Y38740D01*
X34800Y36949D02*
Y38740D01*
X34720Y36949D02*
Y38740D01*
X34640Y36949D02*
Y38740D01*
X33360Y37438D02*
Y38851D01*
X34560Y36949D02*
Y38740D01*
X37200Y37232D02*
Y38358D01*
X37120Y37259D02*
Y38286D01*
X37040Y37259D02*
Y38258D01*
X36960Y37229D02*
Y38258D01*
X35508Y38720D02*
X36892D01*
X35467Y37200D02*
X36919D01*
X37691Y36949D02*
X37852D01*
X37691D02*
X37852D01*
X37655D02*
X37691D01*
X37494D02*
X37655D01*
X37494D02*
X37655D01*
X37459D02*
X37494D01*
X37318D02*
X37459D01*
X35601Y38640D02*
X36799D01*
X35638Y38560D02*
X36762D01*
X36880Y37155D02*
Y38286D01*
X35644Y38480D02*
X36756D01*
X35566Y38320D02*
X36834D01*
X35624Y38400D02*
X36776D01*
X35200Y37229D02*
Y38358D01*
X35530Y37120D02*
X36860D01*
X35520Y37139D02*
Y38286D01*
X35554Y37040D02*
X36839D01*
X35360Y37251D02*
Y38258D01*
X35280Y37254D02*
Y38286D01*
X35440Y37219D02*
Y38258D01*
X37318Y36949D02*
X37459D01*
X36707D02*
X36847D01*
X36800D02*
Y38358D01*
X36707Y36949D02*
X36847D01*
X36671D02*
X36707D01*
X35551Y36960D02*
X36844D01*
X36510Y36949D02*
X36671D01*
X36510D02*
X36671D01*
X36474D02*
X36510D01*
X36313D02*
X36474D01*
X36313D02*
X36474D01*
X36277D02*
X36313D01*
X36116D02*
X36277D01*
X36116D02*
X36277D01*
X36081D02*
X36116D01*
X35919D02*
X36081D01*
X35919D02*
X36081D01*
X35600D02*
Y38358D01*
X35884Y36949D02*
X35919D01*
X35723D02*
X35884D01*
X35723D02*
X35884D01*
X35687D02*
X35723D01*
X35548D02*
X35687D01*
X35548D02*
X35687D01*
X34401Y38640D02*
X35199D01*
X34400Y38642D02*
Y38740D01*
X34438Y38560D02*
X35162D01*
X34444Y38480D02*
X35156D01*
X34308Y38720D02*
X35292D01*
X34366Y38320D02*
X35234D01*
X34424Y38400D02*
X35176D01*
X34358Y37120D02*
X35092D01*
X34375Y37040D02*
X35068D01*
X34306Y37200D02*
X35155D01*
X34240Y37249D02*
Y38258D01*
X34320Y37185D02*
Y38286D01*
X33786Y38740D02*
X34151D01*
X33766Y38720D02*
X34092D01*
X34000Y38642D02*
Y38740D01*
X33920Y37156D02*
Y38740D01*
X33520Y37308D02*
Y38668D01*
X33440Y37401D02*
Y38714D01*
X33600Y37126D02*
Y38655D01*
X34160Y37273D02*
Y38258D01*
X34080Y37270D02*
Y38286D01*
X34000Y37238D02*
Y38358D01*
X33545Y37200D02*
X33954D01*
X33606Y37120D02*
X33902D01*
X33544Y37182D02*
X33652Y37074D01*
X34935Y36949D02*
X35074D01*
X34935D02*
X35074D01*
X34900D02*
X34935D01*
X34738D02*
X34900D01*
X34738D02*
X34900D01*
X34365Y36960D02*
X35071D01*
X34703Y36949D02*
X34738D01*
X34541D02*
X34703D01*
X34541D02*
X34703D01*
X34506D02*
X34541D01*
X34361D02*
X34506D01*
X34361D02*
X34506D01*
X34480D02*
Y38740D01*
X34400Y36949D02*
Y38358D01*
X33840Y36949D02*
Y38740D01*
X33760Y36949D02*
Y38714D01*
X33680Y37037D02*
Y38668D01*
X33754Y36949D02*
X33899D01*
X33754D02*
X33899D01*
X33678Y37040D02*
X33885D01*
X33718Y36949D02*
X33754D01*
X31792Y52480D02*
X31991D01*
X31792Y52400D02*
X31991D01*
X31792Y52320D02*
X31991D01*
X31792Y52240D02*
X31991D01*
X31792Y52160D02*
X31991D01*
X31792Y52080D02*
X31991D01*
X31792Y52000D02*
X31991D01*
X31792Y51920D02*
X31991D01*
X31792Y51840D02*
X31991D01*
X31792Y51760D02*
X31991D01*
X31792Y51680D02*
X31991D01*
X31792Y51600D02*
X31991D01*
X31792Y51520D02*
X31991D01*
X31792Y52600D02*
X31924D01*
X31792Y52560D02*
X31938D01*
X31840Y50900D02*
Y52600D01*
X31792Y51508D02*
Y52600D01*
X31680Y51060D02*
Y51508D01*
X31600Y51242D02*
Y51508D01*
X31760Y50980D02*
Y51508D01*
X31700Y51040D02*
X31991D01*
X31780Y50960D02*
X31991D01*
X31860Y50880D02*
X31991D01*
X31566Y51280D02*
X31991D01*
X31624Y51200D02*
X31991D01*
X31644Y51120D02*
X31991D01*
X31924Y50800D02*
X31991D01*
X31938Y50720D02*
X31991D01*
X31938Y50640D02*
X31991D01*
Y48819D02*
Y52485D01*
X31938Y50560D02*
X31991D01*
X31938Y50480D02*
X31991D01*
X31938Y50400D02*
X31991D01*
X31938Y50320D02*
X31991D01*
X31938Y50240D02*
X31991D01*
X31938Y50160D02*
X31991D01*
X31938Y50080D02*
X31991D01*
X31938Y50000D02*
X31991D01*
X31938Y49920D02*
X31991D01*
X31938Y49840D02*
X31991D01*
X31920Y50808D02*
Y52600D01*
X31938Y48819D02*
Y50732D01*
X31645Y51095D02*
X31888Y50853D01*
X31598Y48819D02*
Y50662D01*
X31544Y48819D02*
Y50326D01*
Y50320D02*
X31598D01*
X31544Y50240D02*
X31598D01*
X31544Y50160D02*
X31598D01*
X31544Y50080D02*
X31598D01*
X31544Y50000D02*
X31598D01*
X31544Y49920D02*
X31598D01*
X31440Y51342D02*
Y51508D01*
X31360Y51342D02*
Y51508D01*
X31520Y51314D02*
Y51508D01*
X31280Y51314D02*
Y51508D01*
X30608D02*
X31792D01*
X28300Y51440D02*
X31991D01*
X31220Y50720D02*
X31540D01*
X31405Y50855D02*
X31598Y50662D01*
X31280Y50660D02*
Y50886D01*
X28300Y51360D02*
X31991D01*
X31060Y50880D02*
X31292D01*
X31140Y50800D02*
X31460D01*
X31200Y51242D02*
Y51508D01*
X31120Y50820D02*
Y51508D01*
X31040Y50949D02*
Y51508D01*
X30880Y51132D02*
Y51508D01*
X30960Y51086D02*
Y51508D01*
X31038Y50960D02*
X31199D01*
X31001Y51040D02*
X31162D01*
X31200Y50740D02*
Y50958D01*
X28300Y51280D02*
X31234D01*
X28842Y51200D02*
X31176D01*
X30908Y51120D02*
X31156D01*
X31380Y50560D02*
X31598D01*
X31360Y50580D02*
Y50858D01*
X31520Y50413D02*
Y50740D01*
X31440Y50500D02*
Y50820D01*
X31300Y50640D02*
X31598D01*
X31045Y50895D02*
X31494Y50446D01*
X30805Y50655D02*
X31204Y50256D01*
X31527Y50400D02*
X31598D01*
X31460Y50480D02*
X31598D01*
X28300Y50240D02*
X31204D01*
X28300Y50160D02*
X31204D01*
X31040Y48819D02*
Y50420D01*
X30960Y48819D02*
Y50500D01*
X30880Y48819D02*
Y50580D01*
X29808Y50480D02*
X30980D01*
X29901Y50560D02*
X30900D01*
X28300Y50400D02*
X31060D01*
X29595Y49920D02*
X31204D01*
Y48819D02*
Y50256D01*
X31120Y48819D02*
Y50340D01*
X28300Y50080D02*
X31204D01*
X28300Y50320D02*
X31140D01*
X29317Y50000D02*
X31204D01*
X31938Y49760D02*
X31991D01*
X31938Y49680D02*
X31991D01*
X31938Y49600D02*
X31991D01*
X31938Y49520D02*
X31991D01*
X31938Y49440D02*
X31991D01*
X31938Y49360D02*
X31991D01*
X31938Y49280D02*
X31991D01*
X32339Y46800D02*
X41451D01*
X32316Y46830D02*
X40700D01*
X32373Y46720D02*
X41451D01*
X32378Y46640D02*
X39851D01*
X31938Y49200D02*
X31991D01*
X31938Y49120D02*
X31991D01*
X31938Y49040D02*
X31991D01*
X31544Y49840D02*
X31598D01*
X31544Y49760D02*
X31598D01*
X31544Y49680D02*
X31598D01*
X31544Y49600D02*
X31598D01*
X31544Y49520D02*
X31598D01*
X31544Y49440D02*
X31598D01*
X31544Y49360D02*
X31598D01*
X31938Y48960D02*
X31991D01*
X31938Y48880D02*
X31991D01*
X31947Y48819D02*
X31982D01*
X31544Y49280D02*
X31598D01*
X31544Y49200D02*
X31598D01*
X31920Y46783D02*
Y46830D01*
X32356Y46560D02*
X39714D01*
X32295Y46480D02*
X33634D01*
X31570Y46400D02*
X33576D01*
X31570Y46320D02*
X33556D01*
X31570Y46080D02*
X33692D01*
X31570Y46160D02*
X33599D01*
X31570Y46000D02*
X41306D01*
X31570Y45920D02*
X41451D01*
X32349Y45040D02*
X34720D01*
X32486Y44960D02*
X34800D01*
X31570Y45840D02*
X41451D01*
X31570Y45760D02*
X41451D01*
X31569Y45680D02*
X41451D01*
X33280Y45644D02*
Y46830D01*
X33200Y45624D02*
Y46830D01*
X33120Y45566D02*
Y46830D01*
X32480Y44966D02*
Y46830D01*
X32400Y45024D02*
Y46830D01*
X32320Y45044D02*
Y46505D01*
X32240Y45038D02*
Y46444D01*
X31570Y46240D02*
X33562D01*
X31570Y45700D02*
Y46426D01*
X32160Y45001D02*
Y46422D01*
X31544Y49120D02*
X31598D01*
X29678Y49760D02*
X31204D01*
X31544Y49040D02*
X31598D01*
X31544Y48960D02*
X31598D01*
X29656Y49840D02*
X31204D01*
X29673Y49680D02*
X31204D01*
X29639Y49600D02*
X31204D01*
X31544Y48880D02*
X31598D01*
X31553Y48819D02*
X31589D01*
X31300Y46830D02*
X31953D01*
X31280Y46786D02*
Y46831D01*
X31266Y46800D02*
X31930D01*
X30766Y49280D02*
X31204D01*
X30824Y49200D02*
X31204D01*
X30844Y49120D02*
X31204D01*
X30838Y49040D02*
X31204D01*
X29553Y49520D02*
X31204D01*
X29317Y49440D02*
X31204D01*
X29317Y49360D02*
X31204D01*
X31159Y48819D02*
X31195D01*
X30998D02*
X31159D01*
X30998D02*
X31159D01*
X30801Y48960D02*
X31204D01*
X30770Y48880D02*
X31204D01*
X30801Y48819D02*
X30998D01*
X31561Y46480D02*
X31974D01*
X31506Y46560D02*
X31913D01*
X31537Y45600D02*
X33158D01*
X31346Y46720D02*
X31896D01*
X31426Y46640D02*
X31891D01*
X31460Y45520D02*
X33086D01*
X31380Y45440D02*
X33058D01*
X31300Y45360D02*
X33058D01*
X31220Y45280D02*
X33086D01*
X30914Y45120D02*
X34640D01*
X30942Y45200D02*
X33158D01*
X30942Y45040D02*
X32251D01*
X31520Y46546D02*
Y46830D01*
X31440Y46626D02*
Y46830D01*
X31360Y46706D02*
Y46830D01*
X31212Y46855D02*
X31520Y46546D01*
X31220Y45280D02*
X31520Y45580D01*
X30976Y45230D02*
X31100D01*
X29632Y52480D02*
X30608D01*
X29645Y52400D02*
X30608D01*
Y51508D02*
Y52600D01*
X30560Y50949D02*
Y52600D01*
X29542D02*
X30608D01*
X29586Y52560D02*
X30608D01*
X29632Y52320D02*
X30608D01*
X30800Y51145D02*
Y51508D01*
X29586Y52240D02*
X30608D01*
X30720Y51132D02*
Y51508D01*
X30640Y51086D02*
Y51508D01*
X29449Y52160D02*
X30608D01*
X29270Y52080D02*
X30608D01*
X29270Y52000D02*
X30608D01*
X29760Y50938D02*
Y52600D01*
X29600Y52542D02*
Y52600D01*
X29840Y50901D02*
Y52600D01*
X29680Y50944D02*
Y52600D01*
X29600Y50924D02*
Y52258D01*
X29866Y50880D02*
X30556D01*
X29520Y50870D02*
Y52186D01*
X29440Y50870D02*
Y52158D01*
X29270Y52160D02*
X29351D01*
X29270Y51980D02*
Y52180D01*
X29360Y50870D02*
Y52158D01*
X30560Y49342D02*
Y50851D01*
X30480Y49314D02*
Y52600D01*
X30400Y49242D02*
Y52600D01*
X30320Y48308D02*
Y52600D01*
X30160Y48438D02*
Y52600D01*
X30080Y48444D02*
Y52600D01*
X30240Y48401D02*
Y52600D01*
X30720Y49314D02*
Y50668D01*
X30640Y49342D02*
Y50714D01*
X30800Y49242D02*
Y50655D01*
X29944Y50720D02*
X30634D01*
X29924Y50800D02*
X30576D01*
X29938Y50640D02*
X30820D01*
X29920Y50808D02*
Y52600D01*
X30000Y48424D02*
Y52600D01*
X29920Y48366D02*
Y50592D01*
X29440Y49980D02*
Y50530D01*
X29520Y49964D02*
Y50530D01*
X29760Y47666D02*
Y50462D01*
X29680Y47866D02*
Y50456D01*
X29840Y47599D02*
Y50499D01*
X29360Y49968D02*
Y50530D01*
X29317Y49949D02*
Y50071D01*
X29600Y49915D02*
Y50476D01*
X28874Y51920D02*
X30608D01*
X28823Y51980D02*
X29270D01*
X28823D02*
X28876Y51918D01*
X28880Y51166D02*
Y51980D01*
X28823D02*
X28876Y51918D01*
X28770Y51980D02*
X28823D01*
X28300Y51920D02*
X28874D01*
X28300Y51840D02*
X30608D01*
X28300Y51760D02*
X30608D01*
X28914Y51120D02*
X30692D01*
X28942Y51040D02*
X30599D01*
X28300Y51680D02*
X30608D01*
X28300Y51600D02*
X30608D01*
X28300Y51520D02*
X30608D01*
X28730Y51980D02*
X28770D01*
X28730D02*
X28770D01*
X28800Y51224D02*
Y51980D01*
X28720Y51244D02*
Y51980D01*
X28300D02*
X28730D01*
X28640Y51238D02*
Y51980D01*
X28560Y51201D02*
Y51980D01*
X28480Y51170D02*
Y51980D01*
X28400Y51170D02*
Y51980D01*
X28320Y51170D02*
Y51980D01*
X28300Y51200D02*
X28558D01*
X28300Y51170D02*
Y51980D01*
Y51170D02*
X28524D01*
X28942Y50960D02*
X30562D01*
X29200Y50870D02*
Y51980D01*
X29120Y50870D02*
Y51980D01*
X29040Y50870D02*
Y51980D01*
X28914Y50880D02*
X29534D01*
X28908Y50870D02*
X29524D01*
X28300Y50530D02*
X29524D01*
X29280Y50071D02*
Y50530D01*
X29200Y50071D02*
Y50530D01*
X29120Y50071D02*
Y50530D01*
X28300Y50480D02*
X29592D01*
X29040Y50071D02*
Y50530D01*
X28683Y50071D02*
X29317D01*
X28960Y50870D02*
Y51980D01*
Y50071D02*
Y50530D01*
X28880Y50071D02*
Y50530D01*
X28800Y50071D02*
Y50530D01*
X28720Y50071D02*
Y50530D01*
X28560Y48366D02*
Y50530D01*
X28480Y48446D02*
Y50530D01*
X28640Y48286D02*
Y50530D01*
X28320Y48606D02*
Y50530D01*
X28300Y50071D02*
Y50530D01*
X28400Y48526D02*
Y50530D01*
X30770Y48800D02*
X30801D01*
X30770Y48720D02*
X30801D01*
X30770Y48640D02*
X30801D01*
X29317Y49280D02*
X30434D01*
X29317Y48880D02*
X30430D01*
X30770Y48560D02*
X30801D01*
X30770Y48480D02*
X30801D01*
X30770Y48400D02*
X30801D01*
X30770Y48320D02*
X30801D01*
X30770Y48240D02*
X30801D01*
X30770Y48160D02*
X30801D01*
X30770Y48080D02*
X30801D01*
X29317Y49402D02*
Y49520D01*
Y48729D02*
Y49398D01*
Y49200D02*
X30376D01*
X29317Y49120D02*
X30356D01*
X29317Y49040D02*
X30362D01*
X30342Y48240D02*
X30430D01*
X30380Y48160D02*
X30430D01*
X30400Y48140D02*
Y48958D01*
X30242Y48400D02*
X30430D01*
X29317Y48960D02*
X30399D01*
X30314Y48320D02*
X30430D01*
X30800Y48040D02*
Y48958D01*
X30770Y48070D02*
Y48924D01*
X30801Y48039D02*
Y48819D01*
X30770Y48070D02*
X30801Y48039D01*
X30430Y48110D02*
Y48924D01*
X30345Y48195D02*
X30430Y48110D01*
X30400Y47599D02*
Y47660D01*
X30320Y47599D02*
Y47740D01*
X30105Y47955D02*
X30461Y47599D01*
X29826Y47600D02*
X30460D01*
X29746Y47680D02*
X30380D01*
X29828Y47599D02*
X30461D01*
X30080D02*
Y47956D01*
X29600Y47924D02*
Y49554D01*
X30000Y47599D02*
Y47976D01*
X29920Y47599D02*
Y48034D01*
X29520Y47944D02*
Y49505D01*
X29440Y47938D02*
Y49490D01*
X29360Y47901D02*
Y49501D01*
X29738Y47760D02*
X30300D01*
X30240Y47599D02*
Y47820D01*
X30160Y47599D02*
Y47900D01*
X29701Y47840D02*
X30220D01*
X29608Y47920D02*
X30140D01*
X29744Y47682D02*
X29828Y47599D01*
X28317Y50000D02*
X28683D01*
X28317Y49920D02*
X28683D01*
X28317Y49840D02*
X28683D01*
X28317Y49760D02*
X28683D01*
X28317Y49680D02*
X28683D01*
X28317Y49600D02*
X28683D01*
X28317Y49520D02*
X28683D01*
X29317Y48800D02*
X30430D01*
X29260Y48720D02*
X30430D01*
X29260Y48640D02*
X30430D01*
X29260Y48729D02*
X29317D01*
X28683D02*
X28940D01*
X28300Y48720D02*
X28940D01*
X28300Y48640D02*
X28940D01*
X28317Y49440D02*
X28683D01*
Y49402D02*
Y50071D01*
Y48729D02*
Y49398D01*
X28317Y49402D02*
Y50071D01*
Y49360D02*
X28683D01*
X28317Y49280D02*
X28683D01*
X28317Y48729D02*
Y49398D01*
Y49200D02*
X28683D01*
X28317Y49120D02*
X28683D01*
X28317Y49040D02*
X28683D01*
X28317Y48960D02*
X28683D01*
X28317Y48880D02*
X28683D01*
X28317Y48800D02*
X28683D01*
X29260Y48560D02*
X30430D01*
X29260Y48480D02*
X30430D01*
X29280Y47808D02*
Y48729D01*
X29260Y47749D02*
Y48729D01*
Y48400D02*
X29958D01*
X29260Y48320D02*
X29886D01*
X29260Y48240D02*
X29858D01*
X29260Y48080D02*
X29886D01*
X29260Y48160D02*
X29858D01*
X29260Y48000D02*
X29958D01*
X29260Y47920D02*
X29392D01*
X29260Y47840D02*
X29299D01*
X28800Y48126D02*
Y48729D01*
X28720Y48206D02*
Y48729D01*
X28940Y47986D02*
Y48729D01*
X28880Y48046D02*
Y48729D01*
X28366Y48560D02*
X28940D01*
X28300Y48626D02*
Y48729D01*
Y48626D02*
X28940Y47986D01*
X28686Y48240D02*
X28940D01*
X28766Y48160D02*
X28940D01*
X28846Y48080D02*
X28940D01*
X28446Y48480D02*
X28940D01*
X28526Y48400D02*
X28940D01*
X28606Y48320D02*
X28940D01*
X32486Y44640D02*
X35120D01*
X32532Y44720D02*
X35040D01*
X32342Y43840D02*
X35920D01*
X32349Y44560D02*
X35200D01*
X32314Y43920D02*
X35840D01*
X32242Y44000D02*
X35760D01*
X32342Y43760D02*
X36000D01*
X32632Y42880D02*
X36880D01*
X32586Y42960D02*
X36800D01*
X32632Y42720D02*
X37040D01*
X32645Y42800D02*
X36960D01*
X32242Y43600D02*
X36160D01*
X32314Y43680D02*
X36080D01*
X32449Y43040D02*
X36720D01*
X32545Y44800D02*
X34960D01*
X32532Y44880D02*
X34880D01*
X32640Y42849D02*
Y46830D01*
X32560Y42986D02*
Y46830D01*
X32160Y44038D02*
Y44599D01*
X32080Y44908D02*
Y46427D01*
X32480Y43032D02*
Y44634D01*
X32400Y43045D02*
Y44576D01*
X32320Y43908D02*
Y44556D01*
Y43032D02*
Y43692D01*
X32240Y44001D02*
Y44562D01*
Y42986D02*
Y43599D01*
X32160Y42849D02*
Y43562D01*
X33200Y37424D02*
Y45176D01*
X33120Y37366D02*
Y45234D01*
X33040Y36949D02*
Y46830D01*
X32960Y36949D02*
Y46830D01*
X32449Y42560D02*
X37200D01*
X32586Y42640D02*
X37120D01*
X32880Y36949D02*
Y46830D01*
X32342Y41840D02*
X37914D01*
X32314Y41920D02*
X37868D01*
X32342Y41760D02*
X38051D01*
X32314Y41680D02*
X41068D01*
X32242Y42000D02*
X37855D01*
X32242Y41600D02*
X41093D01*
X32800Y36949D02*
Y46830D01*
X32560Y37197D02*
Y42614D01*
X32720Y36949D02*
Y46830D01*
X32640Y36949D02*
Y42751D01*
X32160Y42038D02*
Y42751D01*
X32240Y42001D02*
Y42614D01*
X32400Y39024D02*
Y42555D01*
X32320Y41908D02*
Y42568D01*
X32480Y38966D02*
Y42568D01*
X32240Y41001D02*
Y41599D01*
X32160Y41038D02*
Y41562D01*
X32320Y40908D02*
Y41692D01*
X30932Y44480D02*
X35280D01*
X30932Y44320D02*
X35440D01*
X30945Y44400D02*
X35360D01*
X30749Y44160D02*
X35600D01*
X30886Y44240D02*
X35520D01*
X30549Y44080D02*
X35680D01*
X31038Y43360D02*
X36400D01*
X31024Y43200D02*
X36560D01*
X31044Y43280D02*
X36480D01*
X31001Y43440D02*
X36320D01*
X30908Y43520D02*
X36240D01*
X30966Y43120D02*
X36640D01*
X30942Y44960D02*
X32114D01*
X32080Y44044D02*
Y44692D01*
X32000Y44024D02*
Y46461D01*
X31920Y43966D02*
Y46547D01*
X30914Y44880D02*
X32068D01*
X30842Y44800D02*
X32055D01*
X30637Y44720D02*
X32068D01*
X30886Y44560D02*
X32251D01*
X30749Y44640D02*
X32114D01*
X30740Y43600D02*
X31958D01*
X30549Y44000D02*
X31958D01*
X30549Y43920D02*
X31886D01*
X30549Y43680D02*
X31886D01*
X30914Y42320D02*
X37334D01*
X30901Y43040D02*
X32351D01*
X30942Y42240D02*
X38051D01*
X30942Y42160D02*
X37914D01*
X30549Y42480D02*
X37256D01*
X30549Y42560D02*
X32351D01*
X30842Y42400D02*
X37276D01*
X30942Y41440D02*
X39851D01*
X30942Y41360D02*
X39714D01*
X30914Y41520D02*
X41158D01*
X30914Y42080D02*
X37868D01*
X30914Y41280D02*
X39668D01*
X30944Y42880D02*
X32168D01*
X32080Y42044D02*
Y43556D01*
X32000Y42024D02*
Y43576D01*
X31920Y41966D02*
Y43634D01*
X30938Y42960D02*
X32214D01*
X30924Y42800D02*
X32155D01*
X30866Y42720D02*
X32168D01*
X32080Y41044D02*
Y41556D01*
X32000Y41024D02*
Y41576D01*
X31920Y40966D02*
Y41634D01*
X30549Y42640D02*
X32214D01*
X30860Y42000D02*
X31958D01*
X30842Y41600D02*
X31958D01*
X32332Y40880D02*
X41451D01*
X32286Y40960D02*
X39851D01*
X32345Y40800D02*
X41451D01*
X32332Y40720D02*
X41451D01*
X32286Y40640D02*
X41251D01*
X32149Y41040D02*
X39714D01*
X32149Y40560D02*
X41114D01*
X32314Y39920D02*
X37992D01*
X32342Y39840D02*
X37899D01*
X32342Y39760D02*
X37862D01*
X32486Y38640D02*
X33999D01*
X32242Y40000D02*
X39758D01*
X32314Y39680D02*
X37854D01*
X32242Y39600D02*
X37774D01*
X32320Y39908D02*
Y40692D01*
X32240Y40001D02*
Y40599D01*
X32320Y39044D02*
Y39692D01*
X32240Y39038D02*
Y39599D01*
X32160Y40038D02*
Y40562D01*
X32080Y40044D02*
Y40556D01*
X32160Y39001D02*
Y39562D01*
X32532Y38880D02*
X33356D01*
X32545Y38800D02*
X33376D01*
X32532Y38720D02*
X33434D01*
X32349Y39040D02*
X33399D01*
X32486Y38960D02*
X33362D01*
X32080Y38908D02*
Y39556D01*
X32603Y37040D02*
X33114D01*
X32595Y37120D02*
X33068D01*
X33120Y36949D02*
Y37034D01*
X32349Y38560D02*
X33962D01*
X32462Y37280D02*
X33068D01*
X32558Y37200D02*
X33055D01*
X33163Y36949D02*
X33325D01*
X33163D02*
X33325D01*
X33128D02*
X33163D01*
X32967D02*
X33128D01*
X32967D02*
X33128D01*
X32583Y36960D02*
X33251D01*
X32400Y37300D02*
Y38576D01*
X32320Y37300D02*
Y38556D01*
X32480Y37271D02*
Y38634D01*
X32240Y37273D02*
Y38562D01*
X32160Y37202D02*
Y38599D01*
X32931Y36949D02*
X32967D01*
X32770D02*
X32931D01*
X32770D02*
X32931D01*
X32734D02*
X32770D01*
X32578D02*
X32734D01*
X32578D02*
X32734D01*
X30942Y40400D02*
X39758D01*
X31014Y40320D02*
X39686D01*
X31042Y40240D02*
X39658D01*
X31042Y40160D02*
X39658D01*
X30842Y41200D02*
X39655D01*
X30549Y41120D02*
X39668D01*
X30752Y40480D02*
X41068D01*
X31014Y40080D02*
X39686D01*
X30914Y39520D02*
X37694D01*
X30942Y39440D02*
X37614D01*
X30942Y39360D02*
X37534D01*
X30914Y39280D02*
X37454D01*
X30842Y39200D02*
X37374D01*
X30549Y39120D02*
X33492D01*
X30549Y41040D02*
X32051D01*
X32000Y40024D02*
Y40576D01*
X31920Y39966D02*
Y40634D01*
X30549Y40960D02*
X31914D01*
X30549Y40640D02*
X31914D01*
X30549Y40560D02*
X32051D01*
X30942Y40000D02*
X31958D01*
X30932Y38880D02*
X32068D01*
X30749Y39040D02*
X32251D01*
X30860Y39600D02*
X31958D01*
X30886Y38960D02*
X32114D01*
X30945Y38400D02*
X33976D01*
X30932Y38480D02*
X33956D01*
X30886Y38240D02*
X41099D01*
X30932Y38320D02*
X34034D01*
X30749Y38160D02*
X41062D01*
X30549Y38080D02*
X41056D01*
X30549Y38000D02*
X41076D01*
X30646Y37680D02*
X41451D01*
X30726Y37600D02*
X41211D01*
X30806Y37520D02*
X41118D01*
X30549Y37840D02*
X41451D01*
X30549Y37920D02*
X41134D01*
X30549Y37760D02*
X41451D01*
X32000Y37278D02*
Y39576D01*
X32080Y37252D02*
Y38692D01*
X31920Y37276D02*
Y39634D01*
X30945Y38800D02*
X32055D01*
X30932Y38720D02*
X32068D01*
X30886Y38640D02*
X32114D01*
X31979Y37280D02*
X32254D01*
X31122D02*
X31950D01*
X30855Y37440D02*
X33251D01*
X30886Y38560D02*
X32251D01*
X30860Y37360D02*
X33114D01*
X30880Y44566D02*
Y44834D01*
Y43532D02*
Y44234D01*
X31040Y43349D02*
Y45230D01*
X30960Y43486D02*
Y45214D01*
X30880Y42366D02*
Y42734D01*
X30860Y41920D02*
X31886D01*
X30860Y41900D02*
Y42014D01*
X30848Y41840D02*
X31858D01*
X30800Y44624D02*
Y44776D01*
X30720Y44644D02*
Y44756D01*
X30800Y43545D02*
Y44176D01*
X30720Y43618D02*
Y44156D01*
X30640Y44638D02*
Y44722D01*
Y43651D02*
Y44115D01*
X30738Y43603D02*
X30795Y43545D01*
X30800Y42424D02*
Y42676D01*
X30720Y42444D02*
Y42656D01*
X30640Y42438D02*
Y42662D01*
X31840Y37246D02*
Y46830D01*
X31760Y37170D02*
Y46830D01*
X31680Y36949D02*
Y46830D01*
X31600Y36949D02*
Y46830D01*
X31520Y36949D02*
Y45580D01*
X31440Y36949D02*
Y45500D01*
X31360Y36949D02*
Y45420D01*
X31200Y37189D02*
Y45263D01*
X31120Y37282D02*
Y45231D01*
X31280Y36949D02*
Y45340D01*
X30706Y41680D02*
X31886D01*
X30786Y41760D02*
X31858D01*
X31040Y40249D02*
Y43251D01*
X30800Y41624D02*
Y41774D01*
X30960Y40386D02*
Y43114D01*
X30880Y41566D02*
Y42034D01*
X30669Y41643D02*
X30813Y41787D01*
X30720Y41644D02*
Y41694D01*
X30800Y40445D02*
Y41176D01*
X30720Y40495D02*
Y41156D01*
X30880Y40432D02*
Y41234D01*
X30549Y44646D02*
Y44682D01*
Y44640D02*
X30651D01*
X30549Y44593D02*
Y44646D01*
Y44593D02*
Y44646D01*
Y44055D02*
Y44091D01*
X28859Y44307D02*
X29581D01*
Y44252D02*
Y44288D01*
X29520Y44036D02*
Y44307D01*
X29440Y44036D02*
Y44307D01*
X29360Y44036D02*
Y44307D01*
X29280Y44036D02*
Y44307D01*
X28960Y44193D02*
Y44307D01*
X28880Y44273D02*
Y44307D01*
X29040Y44113D02*
Y44307D01*
X29581Y44091D02*
Y44252D01*
Y44091D02*
Y44252D01*
Y44055D02*
Y44091D01*
X28913Y44240D02*
X29581D01*
X28993Y44160D02*
X29581D01*
X29073Y44080D02*
X29581D01*
X30549Y43894D02*
Y44055D01*
Y43894D02*
Y44055D01*
Y43840D02*
X31858D01*
X30549Y43859D02*
Y43894D01*
Y43760D02*
X31858D01*
X30549Y43697D02*
Y43859D01*
Y43697D02*
Y43859D01*
Y43653D02*
X30617D01*
X30549Y43662D02*
Y43697D01*
X30640Y40503D02*
Y41149D01*
X30549Y41147D02*
X30617D01*
X30549Y42516D02*
Y42677D01*
X29200Y44036D02*
Y44307D01*
X30549Y42516D02*
Y42677D01*
X30560Y42401D02*
Y42699D01*
X29116Y44036D02*
X29581D01*
X29120D02*
Y44307D01*
X28845Y44308D02*
X29116Y44036D01*
X30549Y42481D02*
Y42516D01*
Y42393D02*
Y42481D01*
Y42393D02*
Y42481D01*
Y41103D02*
Y41138D01*
Y40941D02*
Y41103D01*
X30560Y40503D02*
Y41147D01*
X30806Y39920D02*
X31886D01*
X30880Y39566D02*
Y39968D01*
X30549Y40880D02*
X31868D01*
X30549Y40800D02*
X31855D01*
X30549Y40720D02*
X31868D01*
X30855Y39840D02*
X31858D01*
X30860Y39760D02*
X31858D01*
X30860Y39680D02*
X31886D01*
X30880Y38966D02*
Y39234D01*
X30549Y40941D02*
Y41103D01*
Y40906D02*
Y40941D01*
Y40745D02*
Y40906D01*
Y40745D02*
Y40906D01*
Y40709D02*
Y40745D01*
X30860Y39586D02*
Y39800D01*
X30800Y39024D02*
Y39176D01*
X30769Y39957D02*
X30813Y39913D01*
X30720Y39044D02*
Y39156D01*
X30640Y39038D02*
Y39162D01*
X31222Y37120D02*
X31735D01*
X31222Y37040D02*
X31720D01*
X31589Y36949D02*
X31735D01*
X31589D02*
X31735D01*
X31194Y37200D02*
X31783D01*
X31194Y36960D02*
X31731D01*
X31553Y36949D02*
X31589D01*
X31392D02*
X31553D01*
X31392D02*
X31553D01*
X31356D02*
X31392D01*
X31195D02*
X31356D01*
X31195D02*
X31356D01*
X31040Y37318D02*
Y40151D01*
X30880Y38566D02*
Y38634D01*
X30960Y37324D02*
Y40014D01*
X30880Y37304D02*
Y38234D01*
X30720Y37606D02*
Y38156D01*
X30800Y37526D02*
Y38176D01*
X30860Y37300D02*
Y37400D01*
X30636Y37690D02*
X30813Y37513D01*
X30640Y37686D02*
Y38162D01*
X30549Y40548D02*
Y40709D01*
Y40548D02*
Y40709D01*
Y40512D02*
Y40548D01*
X28300Y40567D02*
X29581D01*
Y40512D02*
Y40548D01*
X30549Y40503D02*
X30667D01*
X29581Y40351D02*
Y40512D01*
Y40351D02*
Y40512D01*
Y40315D02*
Y40351D01*
X28300Y40480D02*
X29581D01*
X28300Y40400D02*
X29581D01*
X28300Y40320D02*
X29581D01*
X29520Y40296D02*
Y40567D01*
X29440Y40296D02*
Y40567D01*
X29360Y40296D02*
Y40567D01*
X29280Y40296D02*
Y40567D01*
X29200Y40296D02*
Y40567D01*
X29120Y40296D02*
Y40567D01*
X29040Y40296D02*
Y40567D01*
X28960Y40296D02*
Y40567D01*
X28880Y40296D02*
Y40567D01*
X28800Y40296D02*
Y40567D01*
X28720Y40296D02*
Y40567D01*
X28640Y40296D02*
Y40567D01*
X28560Y40296D02*
Y40567D01*
X30549Y39170D02*
Y39207D01*
Y39170D02*
Y39207D01*
X30560Y39001D02*
Y39199D01*
X30549Y39134D02*
Y39170D01*
Y38993D02*
Y39134D01*
Y38993D02*
Y39134D01*
Y39040D02*
X30651D01*
X30549Y38160D02*
X30651D01*
X28480Y40296D02*
Y40567D01*
X28400Y40296D02*
Y40567D01*
X30549Y38150D02*
Y38186D01*
X30560Y37733D02*
Y38199D01*
X28320Y40296D02*
Y40567D01*
X28300Y40296D02*
Y40567D01*
Y40296D02*
X29581D01*
X30549Y37989D02*
Y38150D01*
Y37989D02*
Y38150D01*
Y37953D02*
Y37989D01*
Y37792D02*
Y37953D01*
Y37792D02*
Y37953D01*
Y37756D02*
Y37792D01*
X36295Y48335D02*
Y48805D01*
X36100Y49000D02*
X36295Y48805D01*
X35311Y47711D02*
Y48335D01*
X34917D02*
Y48883D01*
X33146Y48335D02*
Y48946D01*
X29780Y47420D02*
X30065D01*
X29500Y47700D02*
X29780Y47420D01*
X30561Y44861D02*
X30700Y45000D01*
X30065Y44861D02*
X30561D01*
X30511Y43089D02*
X30700Y42900D01*
X30065Y43089D02*
X30511D01*
X30000Y41700D02*
X30500D01*
X30700Y41900D02*
Y42200D01*
X30500Y41700D02*
X30700Y41900D01*
Y39400D02*
Y39800D01*
X30065Y39939D02*
X30561D01*
X30700Y39800D01*
X30539Y38561D02*
X30700Y38400D01*
X30065Y38561D02*
X30539D01*
X33539Y36465D02*
Y36961D01*
X33300Y37200D02*
X33539Y36961D01*
X35705Y35905D02*
Y36465D01*
X36689Y35811D02*
Y36465D01*
X38854D02*
Y37154D01*
X40957Y45057D02*
X41935D01*
X40600Y44700D02*
X40957Y45057D01*
X38100Y42000D02*
X38900Y42800D01*
X37300Y38900D02*
X38100Y39700D01*
X33600Y38900D02*
X37300D01*
X32000Y34735D02*
X32865D01*
X33400Y34200D02*
X33900D01*
X32865Y34735D02*
X33400Y34200D01*
X29352Y45648D02*
X30065D01*
X22153Y51647D02*
X22953D01*
X22000Y51750D02*
X22050D01*
X22953Y51647D02*
X23300Y51300D01*
X22050Y51750D02*
X22153Y51647D01*
X25250Y52250D02*
X26500Y51000D01*
X24250Y52250D02*
X25250D01*
X26500Y49600D02*
X28600Y47500D01*
X26500Y49600D02*
Y51000D01*
X41935Y47223D02*
X42477D01*
X42600Y47100D01*
X27872Y33528D02*
X28100Y33300D01*
X27512Y33528D02*
X27872D01*
X42461Y44861D02*
X42600Y45000D01*
X41935Y44861D02*
X42461D01*
X42389Y43089D02*
X42600Y43300D01*
X41935Y43089D02*
X42389D01*
X41417Y41317D02*
X41935D01*
X41439Y39939D02*
X41935D01*
X41300Y39800D02*
X41439Y39939D01*
X40035Y36465D02*
Y36965D01*
X39800Y37200D02*
X40035Y36965D01*
X37870Y34830D02*
X40100Y32600D01*
X49400D01*
X49742Y32942D01*
X35035Y31265D02*
X35600D01*
X32600Y32400D02*
X33100Y31900D01*
X34400D01*
X35035Y31265D01*
X35665Y32000D02*
X37500D01*
X35600Y31935D02*
X35665Y32000D01*
X26865Y38065D02*
Y38400D01*
Y37035D02*
Y37400D01*
X28868Y38168D02*
X30065D01*
X27535Y37400D02*
X28100D01*
X28868Y38168D01*
X27735Y38365D02*
X30065D01*
X27700Y38400D02*
X27735Y38365D01*
X23500Y36750D02*
X28250D01*
X29471Y37971D02*
X30065D01*
X28250Y36750D02*
X29471Y37971D01*
X29377Y37577D02*
X30523D01*
X28000Y36200D02*
X29377Y37577D01*
X31600Y32400D02*
Y33200D01*
X28000Y36000D02*
Y36200D01*
X28035Y35600D02*
Y36000D01*
X26255Y38955D02*
X30065D01*
X24550Y37250D02*
X26255Y38955D01*
X24250Y37250D02*
X24550D01*
X25952Y39152D02*
X30065D01*
X24500Y37700D02*
X25952Y39152D01*
X22000Y37750D02*
X22950D01*
X24100Y37700D02*
X24500D01*
X25549Y39349D02*
X30065D01*
X24900Y38700D02*
X25549Y39349D01*
X24100Y38700D02*
X24900D01*
X22750Y38250D02*
X23650D01*
X25286Y39546D02*
X30065D01*
X24600Y38860D02*
X25286Y39546D01*
X24040Y38860D02*
X24600D01*
X22000Y38750D02*
X22850D01*
X25043Y39743D02*
X30065D01*
X25000Y39700D02*
X25043Y39743D01*
X24000Y39700D02*
X25000D01*
X24976Y40136D02*
X30065D01*
X24700Y39860D02*
X24976Y40136D01*
X23940Y39860D02*
X24700D01*
X22000Y39750D02*
X22850D01*
X23700Y37300D02*
X24100Y37700D01*
X23400Y37300D02*
X23700D01*
X22950Y37750D02*
X23400Y37300D01*
X23650Y38250D02*
X24100Y38700D01*
X22850Y38750D02*
X23244Y39144D01*
X23756D01*
X24040Y38860D01*
X22804Y39304D02*
X23604D01*
X24000Y39700D01*
X23630Y40170D02*
X23940Y39860D01*
X22850Y39750D02*
X23270Y40170D01*
X23630D01*
X22830Y40330D02*
X23730D01*
X24127Y40727D01*
X30065D01*
X22850Y40750D02*
X23300Y41200D01*
X23600D01*
X24664Y41636D02*
X25376Y40924D01*
X22000Y40750D02*
X22850D01*
X24036Y41636D02*
X24664D01*
X23600Y41200D02*
X24036Y41636D01*
X25376Y40924D02*
X30065D01*
X24100Y41800D02*
X25800D01*
X26480Y41120D01*
X25800Y42700D02*
X26986Y41514D01*
X23650Y44250D02*
X24040Y43860D01*
X22750Y45250D02*
X22835Y45165D01*
X23735D01*
X24200Y44700D01*
X22950Y45750D02*
X23375Y45325D01*
X23725D01*
X24545Y46655D02*
X24843Y46357D01*
X23600Y46200D02*
X24055Y46655D01*
X24545D01*
X22750Y47250D02*
X22859Y47141D01*
X23759D01*
X24049Y46851D01*
X22850Y47750D02*
X23299Y47301D01*
X23701D01*
X24100Y47700D01*
X23650Y48250D02*
X24038Y48638D01*
X22750Y49250D02*
X22845Y49155D01*
X23745D01*
X24100Y48800D01*
X22850Y49750D02*
X23285Y49315D01*
X22750Y48250D02*
X23650D01*
X24038Y48638D02*
X24689D01*
X28859Y44467D01*
X30065D01*
X24100Y47700D02*
X25226D01*
X22000Y47750D02*
X22850D01*
X25226Y47700D02*
X29050Y43876D01*
X30065D01*
X24100Y48800D02*
X25000D01*
X29136Y44664D01*
X30065D01*
X24100Y49700D02*
X24400D01*
X29043Y45057D01*
X22000Y49750D02*
X22850D01*
X29043Y45057D02*
X30065D01*
X23715Y49315D02*
X24100Y49700D01*
X23285Y49315D02*
X23715D01*
X24900Y49500D02*
X29146Y45254D01*
X24900Y49500D02*
Y50300D01*
X25100Y49600D02*
X29249Y45451D01*
X25100Y49600D02*
Y50400D01*
X23650Y50250D02*
X24047Y50647D01*
X24553D01*
X29146Y45254D02*
X30065D01*
X24553Y50647D02*
X24900Y50300D01*
X22750Y50250D02*
X23650D01*
X24071Y50829D02*
X24671D01*
X25100Y50400D01*
X25400Y49600D02*
X29352Y45648D01*
X25400Y49600D02*
Y51000D01*
X22750Y51250D02*
X22861Y51139D01*
X23761D02*
X24071Y50829D01*
X22861Y51139D02*
X23761D01*
X29249Y45451D02*
X30065D01*
X23700Y51300D02*
X24047Y51647D01*
X24753D01*
X25400Y51000D01*
X23300Y51300D02*
X23700D01*
X25049Y51851D02*
X26100Y50800D01*
Y49300D02*
Y50800D01*
Y49300D02*
X29555Y45845D01*
X23650Y52250D02*
X24049Y51851D01*
X25049D01*
X22750Y52250D02*
X23650D01*
X29555Y45845D02*
X30065D01*
X38067Y35033D02*
X40158Y32942D01*
X38067Y35033D02*
Y36465D01*
X40158Y32942D02*
X48386D01*
X38657Y35243D02*
X40643Y33257D01*
X38657Y35243D02*
Y36465D01*
X40643Y33257D02*
X48386D01*
X39248Y35352D02*
X41028Y33572D01*
X39248Y35352D02*
Y36465D01*
X41028Y33572D02*
X48386D01*
X39642Y35758D02*
X41513Y33887D01*
X39642Y35758D02*
Y36465D01*
X41513Y33887D02*
X48386D01*
X39839Y35861D02*
X41498Y34202D01*
X40232Y35868D02*
X41600Y34500D01*
X47400D01*
X47700Y34200D01*
X40232Y35868D02*
Y36465D01*
X47700Y34200D02*
X48386Y34202D01*
X44651Y39349D02*
X46964Y37036D01*
X48386D01*
X41935Y39349D02*
X44651D01*
X42843Y39743D02*
X43000Y39900D01*
X44100Y42300D02*
X44600Y41800D01*
X41937Y42300D02*
X44100D01*
X44600Y41800D02*
X45100D01*
X42900Y43680D02*
X43180Y43400D01*
X44300D01*
X42900Y45254D02*
X43254Y44900D01*
X43800D01*
X41311Y41711D02*
X41935D01*
X41900Y41900D02*
X41935D01*
X40429Y48929D02*
X40700Y49200D01*
X40232Y49032D02*
X40600Y49400D01*
X39839Y48939D02*
X40500Y49600D01*
X39445Y48945D02*
X40300Y49800D01*
X39051Y49251D02*
X40200Y50400D01*
X46500D01*
X40100Y50700D02*
X46400D01*
X38854Y49454D02*
X40100Y50700D01*
X38657Y49657D02*
X40000Y51000D01*
X38461Y47739D02*
Y48335D01*
X38264Y49664D02*
X39900Y51300D01*
X38067Y49867D02*
X39800Y51600D01*
X25100Y53100D02*
Y59300D01*
X25120Y53100D02*
Y59300D01*
X25200Y53100D02*
Y59300D01*
X27440Y53100D02*
Y53548D01*
X25280Y53100D02*
Y59300D01*
X27380Y53548D02*
Y55188D01*
X25100Y53600D02*
X27380D01*
X25100Y53680D02*
X27380D01*
X25100Y53760D02*
X27380D01*
X25100Y53840D02*
X27380D01*
X25100Y53920D02*
X27380D01*
X25100Y54000D02*
X27380D01*
X27520Y53100D02*
Y53548D01*
X27600Y53100D02*
Y53548D01*
X27680Y53100D02*
Y53548D01*
X27760Y53100D02*
Y53548D01*
X27840Y53100D02*
Y53548D01*
X27920Y53100D02*
Y53548D01*
X28000Y53100D02*
Y53548D01*
X28080Y53100D02*
Y53548D01*
X28160Y53100D02*
Y53548D01*
X28240Y53100D02*
Y53548D01*
X28320Y53100D02*
Y53548D01*
X28400Y53100D02*
Y53548D01*
X25360Y53100D02*
Y59300D01*
X25440Y53100D02*
Y59300D01*
X25520Y53100D02*
Y59300D01*
X25600Y53100D02*
Y59300D01*
X25680Y53100D02*
Y59300D01*
X25760Y53100D02*
Y59300D01*
X25840Y53100D02*
Y59300D01*
X25920Y53100D02*
Y59300D01*
X26000Y53100D02*
Y59300D01*
X26080Y53100D02*
Y59300D01*
X26160Y53100D02*
Y59300D01*
X26240Y53100D02*
Y59300D01*
X26320Y53100D02*
Y59300D01*
X26400Y53100D02*
Y59300D01*
X26480Y53100D02*
Y59300D01*
X26560Y53100D02*
Y59300D01*
X26640Y53100D02*
Y59300D01*
X26720Y53100D02*
Y59300D01*
X26800Y53100D02*
Y59300D01*
X26880Y53100D02*
Y59300D01*
X26960Y53100D02*
Y59300D01*
X27040Y53100D02*
Y59300D01*
X27120Y53100D02*
Y59300D01*
X27200Y53100D02*
Y59300D01*
X27280Y53100D02*
Y59300D01*
X27360Y53100D02*
Y59300D01*
X25100Y53100D02*
X38100D01*
X28480D02*
Y53548D01*
X28560Y53100D02*
Y53548D01*
X25100Y53120D02*
X38100D01*
X25100Y53200D02*
X38100D01*
X25100Y53280D02*
X38100D01*
X27380Y53548D02*
X28620D01*
Y53600D02*
X33580D01*
X25100Y53360D02*
X38100D01*
X25100Y53440D02*
X38100D01*
X25100Y53520D02*
X38100D01*
X28620Y53680D02*
X33580D01*
X30640Y53100D02*
Y54028D01*
X30720Y53100D02*
Y54028D01*
X30800Y53100D02*
Y54028D01*
X30880Y53100D02*
Y54028D01*
X30960Y53100D02*
Y54028D01*
X31040Y53100D02*
Y54028D01*
X31120Y53100D02*
Y54028D01*
X28620Y53548D02*
Y55188D01*
X30608Y54028D02*
X31792D01*
X28620Y53760D02*
X33580D01*
X28620Y53840D02*
X33580D01*
X28620Y53920D02*
X33580D01*
X28620Y54000D02*
X33580D01*
X28640Y53100D02*
Y59300D01*
X28720Y53100D02*
Y59300D01*
X28800Y53100D02*
Y59300D01*
X28880Y53100D02*
Y59300D01*
X28960Y53100D02*
Y59300D01*
X29040Y53100D02*
Y59300D01*
X29120Y53100D02*
Y59300D01*
X29200Y53100D02*
Y59300D01*
X29280Y53100D02*
Y59300D01*
X29360Y53100D02*
Y59300D01*
X29440Y53100D02*
Y59300D01*
X29520Y53100D02*
Y59300D01*
X29600Y53100D02*
Y59300D01*
X29680Y53100D02*
Y59300D01*
X29760Y53100D02*
Y59300D01*
X29840Y53100D02*
Y59300D01*
X29920Y53100D02*
Y59300D01*
X30000Y53100D02*
Y59300D01*
X30080Y53100D02*
Y59300D01*
X30160Y53100D02*
Y59300D01*
X30240Y53100D02*
Y59300D01*
X30320Y53100D02*
Y59300D01*
X30400Y53100D02*
Y59300D01*
X30608Y54028D02*
Y55292D01*
X30480Y53100D02*
Y59300D01*
X30560Y53100D02*
Y59300D01*
X25100Y54080D02*
X27380D01*
X25100Y54160D02*
X27380D01*
X25100Y54240D02*
X27380D01*
X25100Y54320D02*
X27380D01*
X25100Y54400D02*
X27380D01*
X25100Y54480D02*
X27380D01*
X25100Y54560D02*
X27380D01*
X25100Y54640D02*
X27380D01*
X25100Y54720D02*
X27380D01*
X25100Y54800D02*
X27380D01*
X25100Y54880D02*
X27380D01*
X25100Y54960D02*
X27380D01*
X25100Y55040D02*
X27380D01*
X28620Y54080D02*
X30608D01*
X28620Y54160D02*
X30608D01*
X28620Y54240D02*
X30608D01*
X28620Y54320D02*
X30608D01*
X28620Y54400D02*
X30608D01*
X28620Y54480D02*
X30608D01*
X28620Y54560D02*
X30608D01*
X28620Y54640D02*
X30608D01*
X28620Y54720D02*
X30608D01*
X28620Y54800D02*
X30608D01*
X28620Y54880D02*
X30608D01*
X28620Y54960D02*
X30608D01*
X28620Y55040D02*
X30608D01*
X25100Y55120D02*
X27380D01*
X27440Y55188D02*
Y59300D01*
X27520Y55188D02*
Y59300D01*
X27380Y55188D02*
X28620D01*
X27600D02*
Y59300D01*
X27680Y55188D02*
Y59300D01*
X27760Y55188D02*
Y59300D01*
X27840Y55188D02*
Y59300D01*
X27920Y55188D02*
Y59300D01*
X25100Y55200D02*
X30608D01*
X25100Y55280D02*
X30608D01*
X28000Y55188D02*
Y59300D01*
X28080Y55188D02*
Y59300D01*
X28160Y55188D02*
Y59300D01*
X28240Y55188D02*
Y59300D01*
X28320Y55188D02*
Y59300D01*
X28620Y55120D02*
X30608D01*
X28400Y55188D02*
Y59300D01*
X28480Y55188D02*
Y59300D01*
X28560Y55188D02*
Y59300D01*
X30640Y55292D02*
Y59300D01*
X30720Y55292D02*
Y59300D01*
X30800Y55292D02*
Y59300D01*
X30880Y55292D02*
Y59300D01*
X30960Y55292D02*
Y59300D01*
X31040Y55292D02*
Y59300D01*
X25100Y55360D02*
X38047D01*
X25100Y55440D02*
X38047D01*
X25100Y55520D02*
X38047D01*
X25100Y55600D02*
X38047D01*
X25100Y55680D02*
X38047D01*
X25100Y55760D02*
X38047D01*
X25100Y55840D02*
X38047D01*
X25100Y55920D02*
X38047D01*
X25100Y56000D02*
X38047D01*
X25100Y56080D02*
X38047D01*
X25100Y56160D02*
X38100D01*
X25100Y56240D02*
X38100D01*
X25100Y56320D02*
X38100D01*
X25100Y56400D02*
X38100D01*
X30608Y55292D02*
X31792D01*
X25100Y56480D02*
X38100D01*
X25100Y56560D02*
X38100D01*
X25100Y56640D02*
X38100D01*
X25100Y56720D02*
X38100D01*
X25100Y56800D02*
X38100D01*
X25100Y56880D02*
X38100D01*
X25100Y56960D02*
X38100D01*
X25100Y57040D02*
X38100D01*
X25100Y57120D02*
X38100D01*
X25100Y57200D02*
X38100D01*
X25100Y57280D02*
X38100D01*
X25100Y57360D02*
X38100D01*
X25100Y57440D02*
X38100D01*
X25100Y57520D02*
X38100D01*
X25100Y57600D02*
X38100D01*
X25100Y57680D02*
X38100D01*
X25100Y57760D02*
X38100D01*
X25100Y57840D02*
X38100D01*
X25100Y57920D02*
X38100D01*
X25100Y58000D02*
X38100D01*
X25100Y58080D02*
X38100D01*
X25100Y58160D02*
X38100D01*
X25100Y58240D02*
X38100D01*
X25100Y58320D02*
X38100D01*
X25100Y58400D02*
X38100D01*
X25100Y58480D02*
X38100D01*
X25100Y58560D02*
X38100D01*
X25100Y58640D02*
X38100D01*
X25100Y58720D02*
X38100D01*
X25100Y58800D02*
X38100D01*
X25100Y58880D02*
X38100D01*
X25100Y58960D02*
X38100D01*
X25100Y59300D02*
X37900D01*
X25100Y59040D02*
X38100D01*
X25100Y59120D02*
X38100D01*
X25100Y59200D02*
X38100D01*
X25100Y59280D02*
X38100D01*
X31200Y53100D02*
Y54028D01*
X31280Y53100D02*
Y54028D01*
X31360Y53100D02*
Y54028D01*
X31440Y53100D02*
Y54028D01*
X31520Y53100D02*
Y54028D01*
X31600Y53100D02*
Y54028D01*
X33600Y53100D02*
Y53548D01*
X31680Y53100D02*
Y54028D01*
X31760Y53100D02*
Y54028D01*
X33680Y53100D02*
Y53548D01*
X33760Y53100D02*
Y53548D01*
X33580D02*
X34820D01*
X33840Y53100D02*
Y53548D01*
X33920Y53100D02*
Y53548D01*
X34000Y53100D02*
Y53548D01*
X34080Y53100D02*
Y53548D01*
X34160Y53100D02*
Y53548D01*
X34240Y53100D02*
Y53548D01*
X34320Y53100D02*
Y53548D01*
X34400Y53100D02*
Y53548D01*
X34480Y53100D02*
Y53548D01*
X34560Y53100D02*
Y53548D01*
X34640Y53100D02*
Y53548D01*
X34720Y53100D02*
Y53548D01*
X34800Y53100D02*
Y53548D01*
X31840Y53100D02*
Y59300D01*
X31920Y53100D02*
Y59300D01*
X32000Y53100D02*
Y59300D01*
X32080Y53100D02*
Y59300D01*
X32160Y53100D02*
Y59300D01*
X32240Y53100D02*
Y59300D01*
X31792Y54028D02*
Y55292D01*
X32320Y53100D02*
Y59300D01*
X32400Y53100D02*
Y59300D01*
X32480Y53100D02*
Y59300D01*
X32560Y53100D02*
Y59300D01*
X32640Y53100D02*
Y59300D01*
X32720Y53100D02*
Y59300D01*
X32800Y53100D02*
Y59300D01*
X32880Y53100D02*
Y59300D01*
X32960Y53100D02*
Y59300D01*
X33040Y53100D02*
Y59300D01*
X33120Y53100D02*
Y59300D01*
X33200Y53100D02*
Y59300D01*
X33280Y53100D02*
Y59300D01*
X33360Y53100D02*
Y59300D01*
X33440Y53100D02*
Y59300D01*
X33580Y53548D02*
Y55188D01*
X33520Y53100D02*
Y59300D01*
X36480Y53100D02*
Y54028D01*
X36560Y53100D02*
Y54028D01*
X36640Y53100D02*
Y54028D01*
X34820Y53600D02*
X38100D01*
X36720Y53100D02*
Y54028D01*
X36800Y53100D02*
Y54028D01*
X34820Y53920D02*
X38047D01*
X36408Y54028D02*
X37592D01*
X34820Y53680D02*
X38100D01*
X34820Y53760D02*
X38100D01*
X34820Y53840D02*
X38100D01*
X34820Y54000D02*
X38047D01*
X36880Y53100D02*
Y54028D01*
X36960Y53100D02*
Y54028D01*
X37040Y53100D02*
Y54028D01*
X37120Y53100D02*
Y54028D01*
X37200Y53100D02*
Y54028D01*
X37280Y53100D02*
Y54028D01*
X37360Y53100D02*
Y54028D01*
X37440Y53100D02*
Y54028D01*
X37520Y53100D02*
Y54028D01*
X38080Y53100D02*
Y53896D01*
X38100Y53100D02*
Y53896D01*
X38047D02*
X38100D01*
X38047D02*
Y54923D01*
X34880Y53100D02*
Y59300D01*
X34960Y53100D02*
Y59300D01*
X35040Y53100D02*
Y59300D01*
X35120Y53100D02*
Y59300D01*
X35200Y53100D02*
Y59300D01*
X35280Y53100D02*
Y59300D01*
X34820Y53548D02*
Y55188D01*
X35360Y53100D02*
Y59300D01*
X35440Y53100D02*
Y59300D01*
X35520Y53100D02*
Y59300D01*
X35600Y53100D02*
Y59300D01*
X35680Y53100D02*
Y59300D01*
X35760Y53100D02*
Y59300D01*
X35840Y53100D02*
Y59300D01*
X35920Y53100D02*
Y59300D01*
X36000Y53100D02*
Y59300D01*
X36080Y53100D02*
Y59300D01*
X36160Y53100D02*
Y59300D01*
X36240Y53100D02*
Y59300D01*
X36320Y53100D02*
Y59300D01*
X36400Y53100D02*
Y59300D01*
X37600Y53100D02*
Y59300D01*
X37680Y53100D02*
Y59300D01*
X37760Y53100D02*
Y59300D01*
X37840Y53100D02*
Y59300D01*
X37920Y53100D02*
Y59300D01*
X38000Y53100D02*
Y59300D01*
X31792Y54080D02*
X33580D01*
X31792Y54160D02*
X33580D01*
X31792Y54240D02*
X33580D01*
X31792Y54320D02*
X33580D01*
X31792Y54400D02*
X33580D01*
X31792Y54480D02*
X33580D01*
X31792Y54560D02*
X33580D01*
X31792Y54640D02*
X33580D01*
X31792Y54720D02*
X33580D01*
X31792Y54800D02*
X33580D01*
X31792Y54880D02*
X33580D01*
X34820Y54080D02*
X36408D01*
X34820Y54160D02*
X36408D01*
X34820Y54240D02*
X36408D01*
X34820Y54320D02*
X36408D01*
X34820Y54400D02*
X36408D01*
X34820Y54480D02*
X36408D01*
X31792Y54960D02*
X33580D01*
X31792Y55040D02*
X33580D01*
X31792Y55120D02*
X33580D01*
X34820Y54560D02*
X36408D01*
X34820Y54640D02*
X36408D01*
X33580Y55188D02*
X34820D01*
Y54720D02*
X36408D01*
X31120Y55292D02*
Y59300D01*
X31200Y55292D02*
Y59300D01*
X33600Y55188D02*
Y59300D01*
X33680Y55188D02*
Y59300D01*
X33760Y55188D02*
Y59300D01*
X31280Y55292D02*
Y59300D01*
X31360Y55292D02*
Y59300D01*
X31440Y55292D02*
Y59300D01*
X31520Y55292D02*
Y59300D01*
X31600Y55292D02*
Y59300D01*
X31680Y55292D02*
Y59300D01*
X31760Y55292D02*
Y59300D01*
X33840Y55188D02*
Y59300D01*
X33920Y55188D02*
Y59300D01*
X34000Y55188D02*
Y59300D01*
X34080Y55188D02*
Y59300D01*
X36408Y54028D02*
Y55292D01*
X34160Y55188D02*
Y59300D01*
X34240Y55188D02*
Y59300D01*
X34320Y55188D02*
Y59300D01*
X34400Y55188D02*
Y59300D01*
X34480Y55188D02*
Y59300D01*
X34560Y55188D02*
Y59300D01*
X34640Y55188D02*
Y59300D01*
X34720Y55188D02*
Y59300D01*
X34800Y55188D02*
Y59300D01*
X37592Y54080D02*
X38047D01*
X37592Y54160D02*
X38047D01*
X37592Y54240D02*
X38047D01*
X37592Y54320D02*
X38047D01*
X37592Y54400D02*
X38047D01*
X34820Y54800D02*
X36408D01*
X34820Y54880D02*
X36408D01*
X34820Y54960D02*
X36408D01*
X34820Y55040D02*
X36408D01*
X34820Y55120D02*
X36408D01*
X37592Y54480D02*
X38047D01*
X37592Y54560D02*
X38047D01*
X37592Y54640D02*
X38047D01*
X37592Y54720D02*
X38047D01*
X37592Y54800D02*
X38047D01*
X37592Y54880D02*
X38047D01*
Y54923D02*
X38100D01*
X37592Y55120D02*
X38047D01*
X38080Y54923D02*
Y55077D01*
X37592Y54960D02*
X38100D01*
X37592Y55040D02*
X38100D01*
X38047Y55077D02*
X38100D01*
Y54923D02*
Y55077D01*
X31792Y55200D02*
X36408D01*
X31792Y55280D02*
X36408D01*
X36480Y55292D02*
Y59300D01*
X36408Y55292D02*
X37592D01*
X36560D02*
Y59300D01*
X36640Y55292D02*
Y59300D01*
X36720Y55292D02*
Y59300D01*
X36800Y55292D02*
Y59300D01*
X36880Y55292D02*
Y59300D01*
X36960Y55292D02*
Y59300D01*
X37040Y55292D02*
Y59300D01*
X37120Y55292D02*
Y59300D01*
X37200Y55292D02*
Y59300D01*
X37280Y55292D02*
Y59300D01*
X37360Y55292D02*
Y59300D01*
X37592Y55200D02*
X38047D01*
X37592Y54028D02*
Y55292D01*
Y55280D02*
X38047D01*
Y55077D02*
Y56104D01*
X38100D01*
X37440Y55292D02*
Y59300D01*
X37520Y55292D02*
Y59300D01*
X38080Y56104D02*
Y59300D01*
X37900D02*
X38100D01*
Y56104D02*
Y59300D01*
X26000Y42860D02*
X26952Y41908D01*
X25600Y43700D02*
X27195Y42105D01*
X24040Y43860D02*
X26000D01*
X22750Y44250D02*
X23650D01*
X26000Y43860D02*
X27558Y42302D01*
X30065D01*
X25700Y44700D02*
X27902Y42498D01*
X24200Y44700D02*
X25700D01*
X27902Y42498D02*
X30065D01*
X23725Y45325D02*
X24100Y45700D01*
X25100D01*
X25143Y46357D02*
X28214Y43286D01*
X22700Y46200D02*
X23600D01*
X24843Y46357D02*
X25143D01*
X28214Y43286D02*
X30065D01*
X25049Y46851D02*
X28220Y43680D01*
X24049Y46851D02*
X25049D01*
X28220Y43680D02*
X30065D01*
X25100Y45700D02*
X27600Y43200D01*
X22000Y45750D02*
X22950D01*
X27600Y43200D02*
X28000D01*
X28308Y42892D02*
X30065D01*
X28000Y43200D02*
X28308Y42892D01*
X28105Y42695D02*
X30065D01*
X27900Y42900D02*
X28105Y42695D01*
X31400Y33400D02*
X31600Y33200D01*
X31400Y33400D02*
Y35000D01*
X30100Y36300D02*
X31400Y35000D01*
X30100Y36300D02*
Y36700D01*
X30700Y37300D01*
Y37400D01*
X30523Y37577D02*
X30700Y37400D01*
X32600Y34065D02*
Y34300D01*
X26800Y32800D02*
X27016Y33016D01*
X29400Y30900D02*
X33100D01*
X28052Y32248D02*
X29400Y30900D01*
X27512Y32248D02*
X28052D01*
X33100Y30900D02*
X33600Y31400D01*
X26800Y32000D02*
X28100Y30700D01*
X26800Y32000D02*
Y32800D01*
X36800Y34335D02*
X37135D01*
X26828Y33272D02*
X27512D01*
X26800Y33300D02*
X26828Y33272D01*
X28900Y47000D02*
X29465Y46435D01*
X28900Y47000D02*
Y47800D01*
X28000Y48700D02*
X28900Y47800D01*
X28000Y48700D02*
Y49065D01*
X29465Y46435D02*
X30065D01*
X29100Y47100D02*
X29568Y46632D01*
X29100Y47100D02*
Y48965D01*
X29000Y49065D02*
X29100Y48965D01*
X29568Y46632D02*
X30065D01*
X29000Y49735D02*
X29435D01*
X28000D02*
Y50200D01*
X40300Y49800D02*
X46300D01*
X45400Y49600D02*
X47700Y47300D01*
X40500Y49600D02*
X45400D01*
X47600Y46700D02*
X49100D01*
X44900Y49400D02*
X47600Y46700D01*
X40600Y49400D02*
X44900D01*
X49100Y46700D02*
X50260Y45540D01*
X40700Y49200D02*
X44500D01*
X44535Y48035D02*
Y48400D01*
X44500Y47300D02*
Y47400D01*
X44900Y47800D01*
X40800Y49000D02*
X43265D01*
X40626Y48826D02*
X40800Y49000D01*
X40626Y48335D02*
Y48826D01*
X43265Y49000D02*
X43865Y48400D01*
X22950Y43750D02*
X23340Y43360D01*
X22000Y43750D02*
X22950D01*
X27195Y42105D02*
X30065D01*
X23760Y43360D02*
X24100Y43700D01*
X23340Y43360D02*
X23760D01*
X24100Y43700D02*
X25600D01*
X22800Y43200D02*
X23700D01*
X22750Y43250D02*
X22800Y43200D01*
X26952Y41908D02*
X30065D01*
X24040Y42860D02*
X26000D01*
X23700Y43200D02*
X24040Y42860D01*
X24100Y42700D02*
X25800D01*
X23254Y42346D02*
X23746D01*
X22000Y42750D02*
X22850D01*
X26986Y41514D02*
X30065D01*
X23746Y42346D02*
X24100Y42700D01*
X22850Y42750D02*
X23254Y42346D01*
X23296Y42196D02*
X23704D01*
X22750Y41250D02*
Y41650D01*
X26480Y41120D02*
X30065D01*
X22750Y41650D02*
X23296Y42196D01*
X23704D02*
X24100Y41800D01*
X22300Y52100D02*
Y52400D01*
X22600Y51800D02*
X23450D01*
X22664Y52764D02*
X22864D01*
X23093Y52993D01*
X23450Y51800D02*
X23500Y51750D01*
X22300Y52100D02*
X22600Y51800D01*
X22300Y52400D02*
X22664Y52764D01*
D11*
X51614Y32942D02*
D03*
Y33257D02*
D03*
Y33572D02*
D03*
Y33887D02*
D03*
Y34202D02*
D03*
Y34517D02*
D03*
Y34832D02*
D03*
Y35146D02*
D03*
Y35461D02*
D03*
Y35776D02*
D03*
Y36091D02*
D03*
Y36406D02*
D03*
Y36721D02*
D03*
Y37036D02*
D03*
Y37351D02*
D03*
Y37666D02*
D03*
Y37981D02*
D03*
Y38296D02*
D03*
Y38611D02*
D03*
Y38926D02*
D03*
Y39241D02*
D03*
Y39556D02*
D03*
Y39871D02*
D03*
Y40186D02*
D03*
Y40501D02*
D03*
Y40816D02*
D03*
Y41131D02*
D03*
Y41446D02*
D03*
Y41761D02*
D03*
Y42076D02*
D03*
Y42391D02*
D03*
Y42706D02*
D03*
Y43020D02*
D03*
Y43335D02*
D03*
Y43650D02*
D03*
Y43965D02*
D03*
Y44280D02*
D03*
Y44595D02*
D03*
Y44910D02*
D03*
Y45225D02*
D03*
Y45540D02*
D03*
Y45855D02*
D03*
Y47666D02*
D03*
Y47981D02*
D03*
Y48296D02*
D03*
Y48611D02*
D03*
Y48926D02*
D03*
Y49241D02*
D03*
Y49556D02*
D03*
Y49871D02*
D03*
Y50186D02*
D03*
Y50501D02*
D03*
Y50816D02*
D03*
Y51131D02*
D03*
Y51446D02*
D03*
Y51761D02*
D03*
Y52076D02*
D03*
Y52391D02*
D03*
Y52706D02*
D03*
Y53020D02*
D03*
Y53335D02*
D03*
Y53650D02*
D03*
Y53965D02*
D03*
Y54280D02*
D03*
Y54595D02*
D03*
Y54910D02*
D03*
Y55225D02*
D03*
Y55540D02*
D03*
Y55855D02*
D03*
Y56170D02*
D03*
Y56485D02*
D03*
Y56800D02*
D03*
X48386Y32942D02*
D03*
Y33257D02*
D03*
Y33572D02*
D03*
Y33887D02*
D03*
Y34202D02*
D03*
Y34517D02*
D03*
Y34832D02*
D03*
Y35146D02*
D03*
Y35461D02*
D03*
Y35776D02*
D03*
Y36091D02*
D03*
Y36406D02*
D03*
Y36721D02*
D03*
Y37036D02*
D03*
Y37351D02*
D03*
Y37666D02*
D03*
Y37981D02*
D03*
Y38296D02*
D03*
Y38611D02*
D03*
Y38926D02*
D03*
Y39241D02*
D03*
Y39556D02*
D03*
Y39871D02*
D03*
Y40186D02*
D03*
Y40501D02*
D03*
Y40816D02*
D03*
Y41131D02*
D03*
Y41446D02*
D03*
Y41761D02*
D03*
Y42076D02*
D03*
Y42391D02*
D03*
Y42706D02*
D03*
Y43020D02*
D03*
Y43335D02*
D03*
Y43650D02*
D03*
Y43965D02*
D03*
Y44280D02*
D03*
Y44595D02*
D03*
Y44910D02*
D03*
Y45225D02*
D03*
Y45540D02*
D03*
Y45855D02*
D03*
Y47666D02*
D03*
Y47981D02*
D03*
Y48296D02*
D03*
Y48611D02*
D03*
Y48926D02*
D03*
Y49241D02*
D03*
Y49556D02*
D03*
Y49871D02*
D03*
Y50186D02*
D03*
Y50501D02*
D03*
Y50816D02*
D03*
Y51131D02*
D03*
Y51446D02*
D03*
Y51761D02*
D03*
Y52076D02*
D03*
Y52391D02*
D03*
Y52706D02*
D03*
Y53020D02*
D03*
Y53335D02*
D03*
Y53650D02*
D03*
Y53965D02*
D03*
Y54280D02*
D03*
Y54595D02*
D03*
Y54910D02*
D03*
Y55225D02*
D03*
Y55540D02*
D03*
Y55855D02*
D03*
Y56170D02*
D03*
Y56485D02*
D03*
Y56800D02*
D03*
D12*
X56358Y57686D02*
D03*
Y32056D02*
D03*
D13*
X43400Y36135D02*
D03*
Y35465D02*
D03*
X35600Y31265D02*
D03*
Y31935D02*
D03*
X44400Y36135D02*
D03*
Y35465D02*
D03*
X32000Y34735D02*
D03*
Y34065D02*
D03*
X30800Y34065D02*
D03*
Y34735D02*
D03*
X45400Y36135D02*
D03*
Y35465D02*
D03*
X35800Y34335D02*
D03*
Y33665D02*
D03*
X34800Y33665D02*
D03*
Y34335D02*
D03*
X46400Y36135D02*
D03*
Y35465D02*
D03*
X36800Y33665D02*
D03*
Y34335D02*
D03*
X47100Y31835D02*
D03*
Y31165D02*
D03*
X28000Y49735D02*
D03*
Y49065D02*
D03*
X29000Y49735D02*
D03*
Y49065D02*
D03*
X46400Y55935D02*
D03*
Y55265D02*
D03*
X45400Y55935D02*
D03*
Y55265D02*
D03*
X44400Y55935D02*
D03*
Y55265D02*
D03*
D14*
X27512Y32248D02*
D03*
Y32504D02*
D03*
Y32760D02*
D03*
Y33016D02*
D03*
Y33272D02*
D03*
Y33528D02*
D03*
Y33784D02*
D03*
Y34040D02*
D03*
Y34296D02*
D03*
Y34552D02*
D03*
X25288Y32248D02*
D03*
X25288Y32504D02*
D03*
Y32760D02*
D03*
Y33016D02*
D03*
Y33272D02*
D03*
Y33528D02*
D03*
Y33784D02*
D03*
Y34040D02*
D03*
Y34296D02*
D03*
Y34552D02*
D03*
D15*
X27535Y38400D02*
D03*
X26865D02*
D03*
X27535Y37400D02*
D03*
X26865D02*
D03*
X28035Y35600D02*
D03*
X27365D02*
D03*
X43865Y46400D02*
D03*
X44535D02*
D03*
X45465D02*
D03*
X46135D02*
D03*
X43865Y47400D02*
D03*
X44535D02*
D03*
X43865Y48400D02*
D03*
X44535D02*
D03*
D16*
X31200Y54660D02*
D03*
Y52140D02*
D03*
X37000Y54660D02*
D03*
Y52140D02*
D03*
D17*
X28000Y54369D02*
D03*
X34200D02*
D03*
D18*
X27500Y52400D02*
D03*
X29000D02*
D03*
X27000D02*
D03*
X28500D02*
D03*
X28000D02*
D03*
X33700D02*
D03*
X35200D02*
D03*
X33200D02*
D03*
X34700D02*
D03*
X34200D02*
D03*
D19*
X40376Y55175D02*
D03*
Y54925D02*
D03*
Y54675D02*
D03*
Y54425D02*
D03*
Y54175D02*
D03*
Y53925D02*
D03*
Y53675D02*
D03*
Y53425D02*
D03*
Y53175D02*
D03*
Y52925D02*
D03*
Y52675D02*
D03*
Y52425D02*
D03*
X42424Y55175D02*
D03*
Y54925D02*
D03*
Y54675D02*
D03*
Y54425D02*
D03*
Y54175D02*
D03*
Y53925D02*
D03*
Y53675D02*
D03*
Y53425D02*
D03*
Y53175D02*
D03*
Y52675D02*
D03*
Y52425D02*
D03*
D20*
X42424Y52925D02*
D03*
D21*
X30980Y36465D02*
D03*
X31177D02*
D03*
X31374D02*
D03*
X31571D02*
D03*
X31768D02*
D03*
X31965D02*
D03*
X32161D02*
D03*
X32358D02*
D03*
X32555D02*
D03*
X32752D02*
D03*
X32949D02*
D03*
X33146D02*
D03*
X33343D02*
D03*
X33539D02*
D03*
X33736D02*
D03*
X33933D02*
D03*
X34130D02*
D03*
X34327D02*
D03*
X34524D02*
D03*
X34720D02*
D03*
X34917D02*
D03*
X35114D02*
D03*
X35311D02*
D03*
X35508D02*
D03*
X35705D02*
D03*
X35902D02*
D03*
X36098D02*
D03*
X36295D02*
D03*
X36492D02*
D03*
X36689D02*
D03*
X36886D02*
D03*
X37083D02*
D03*
X37280D02*
D03*
X37476D02*
D03*
X37673D02*
D03*
X37870D02*
D03*
X38067D02*
D03*
X38264D02*
D03*
X38461D02*
D03*
X38657D02*
D03*
X38854D02*
D03*
X39051D02*
D03*
X39248D02*
D03*
X39445D02*
D03*
X39642D02*
D03*
X39839D02*
D03*
X40035D02*
D03*
X40232D02*
D03*
X40429D02*
D03*
X40626D02*
D03*
X40823D02*
D03*
X41020D02*
D03*
X30980Y48335D02*
D03*
X31177D02*
D03*
X31374D02*
D03*
X31571D02*
D03*
X31768D02*
D03*
X31965D02*
D03*
X32161D02*
D03*
X32358D02*
D03*
X32555D02*
D03*
X32752D02*
D03*
X32949D02*
D03*
X33146D02*
D03*
X33343D02*
D03*
X33539D02*
D03*
X33736D02*
D03*
X33933D02*
D03*
X34130D02*
D03*
X34327D02*
D03*
X34524D02*
D03*
X34720D02*
D03*
X34917D02*
D03*
X35114D02*
D03*
X35311D02*
D03*
X35508D02*
D03*
X35705D02*
D03*
X35902D02*
D03*
X36098D02*
D03*
X36295D02*
D03*
X36492D02*
D03*
X36689D02*
D03*
X36886D02*
D03*
X37083D02*
D03*
X37280D02*
D03*
X37476D02*
D03*
X37673D02*
D03*
X37870D02*
D03*
X38067D02*
D03*
X38264D02*
D03*
X38461D02*
D03*
X38657D02*
D03*
X38854D02*
D03*
X39051D02*
D03*
X39248D02*
D03*
X39445D02*
D03*
X39642D02*
D03*
X39839D02*
D03*
X40035D02*
D03*
X40232D02*
D03*
X40429D02*
D03*
X40626D02*
D03*
X40823D02*
D03*
X41020D02*
D03*
D22*
X41935Y37380D02*
D03*
Y37577D02*
D03*
Y37774D02*
D03*
Y37971D02*
D03*
Y38168D02*
D03*
Y38365D02*
D03*
Y38561D02*
D03*
Y38758D02*
D03*
Y38955D02*
D03*
Y39152D02*
D03*
Y39349D02*
D03*
Y39546D02*
D03*
Y39743D02*
D03*
Y39939D02*
D03*
Y40136D02*
D03*
Y40333D02*
D03*
Y40530D02*
D03*
Y40727D02*
D03*
Y40924D02*
D03*
Y41120D02*
D03*
Y41317D02*
D03*
Y41514D02*
D03*
Y41711D02*
D03*
Y41908D02*
D03*
Y42105D02*
D03*
Y42302D02*
D03*
Y42498D02*
D03*
Y42695D02*
D03*
Y42892D02*
D03*
Y43089D02*
D03*
Y43286D02*
D03*
Y43483D02*
D03*
Y43680D02*
D03*
Y43876D02*
D03*
Y44073D02*
D03*
Y44270D02*
D03*
Y44467D02*
D03*
Y44664D02*
D03*
Y44861D02*
D03*
Y45057D02*
D03*
Y45254D02*
D03*
Y45451D02*
D03*
Y45648D02*
D03*
Y45845D02*
D03*
Y46042D02*
D03*
Y46239D02*
D03*
Y46435D02*
D03*
Y46632D02*
D03*
Y46829D02*
D03*
Y47026D02*
D03*
Y47223D02*
D03*
Y47420D02*
D03*
X30065Y37380D02*
D03*
Y37577D02*
D03*
Y37774D02*
D03*
Y37971D02*
D03*
Y38168D02*
D03*
Y38365D02*
D03*
Y38561D02*
D03*
Y38758D02*
D03*
Y38955D02*
D03*
Y39152D02*
D03*
Y39349D02*
D03*
Y39546D02*
D03*
Y39743D02*
D03*
Y39939D02*
D03*
Y40136D02*
D03*
Y40333D02*
D03*
Y40530D02*
D03*
Y40727D02*
D03*
Y40924D02*
D03*
Y41120D02*
D03*
Y41317D02*
D03*
Y41514D02*
D03*
Y41711D02*
D03*
Y41908D02*
D03*
Y42105D02*
D03*
Y42302D02*
D03*
Y42498D02*
D03*
Y42695D02*
D03*
Y42892D02*
D03*
Y43089D02*
D03*
Y43286D02*
D03*
Y43483D02*
D03*
Y43680D02*
D03*
Y43876D02*
D03*
Y44073D02*
D03*
Y44270D02*
D03*
Y44467D02*
D03*
Y44664D02*
D03*
Y44861D02*
D03*
Y45057D02*
D03*
Y45254D02*
D03*
Y45451D02*
D03*
Y45648D02*
D03*
Y45845D02*
D03*
Y46042D02*
D03*
Y46239D02*
D03*
Y46435D02*
D03*
Y46632D02*
D03*
Y46829D02*
D03*
Y47026D02*
D03*
Y47223D02*
D03*
Y47420D02*
D03*
D23*
X38600Y55591D02*
D03*
Y54409D02*
D03*
D24*
X48386Y54280D02*
X48980D01*
X51614D02*
X52280D01*
X47846Y51446D02*
X48386D01*
X47600Y51000D02*
Y51200D01*
X47846Y51446D01*
X51614D02*
X52354D01*
X62200Y41100D02*
Y40200D01*
X62800D01*
X63250Y40800D02*
X63550D01*
X63700Y40650D01*
Y40200D01*
X63250D01*
X63100Y40350D01*
X63250Y40500D01*
X63700D01*
X63999Y40800D02*
Y40350D01*
X64149Y40200D01*
X64599D01*
Y40050D01*
X64449Y39900D01*
X64299D01*
X64599Y40200D02*
Y40800D01*
X65349Y40200D02*
X65049D01*
X64899Y40350D01*
Y40650D01*
X65049Y40800D01*
X65349D01*
X65499Y40650D01*
Y40500D01*
X64899D01*
X65799Y40800D02*
Y40200D01*
Y40500D01*
X65949Y40650D01*
X66099Y40800D01*
X66249D01*
X67598Y40200D02*
X67898D01*
X67748D01*
Y41100D01*
X67598Y40950D01*
D25*
X50495Y54595D02*
X51614D01*
X50000Y52400D02*
Y54100D01*
X41935Y41908D02*
X42992D01*
X43100Y41800D01*
X50000Y54100D02*
X50495Y54595D01*
D26*
X42932Y38168D02*
X43300Y37800D01*
X41935Y38168D02*
X42932D01*
X41935Y38365D02*
X43435D01*
X41491Y44270D02*
X41935D01*
X41491Y40727D02*
X41935D01*
X31200Y52140D02*
X31752D01*
X31200Y51548D02*
Y52140D01*
X30648D02*
X31200D01*
X30065Y44073D02*
X30509D01*
X29621D02*
X30065D01*
Y40530D02*
X30509D01*
X29621D02*
X30065D01*
X30570Y44270D02*
X30700Y44400D01*
X30065Y44270D02*
X30570D01*
X30065Y43483D02*
X30617D01*
X30800Y43300D01*
X30667Y40333D02*
X30800Y40200D01*
X30065Y40333D02*
X30667D01*
X30065Y38758D02*
X30642D01*
X33100Y35800D02*
X33800Y35100D01*
X30065Y47026D02*
X30800D01*
Y45400D02*
X31100D01*
X31400Y47200D02*
X32500D01*
X30600Y48000D02*
X31400Y47200D01*
X23300Y53200D02*
X23700D01*
X24200Y52700D01*
X25400D01*
X27100Y51000D01*
X40923Y47223D02*
X41935D01*
X30100Y48200D02*
X31300Y47000D01*
X31061Y46239D02*
X31100Y46200D01*
X30065Y46239D02*
X31061D01*
X30800Y47026D02*
X31400Y46426D01*
Y45700D02*
Y46426D01*
X31100Y45400D02*
X31400Y45700D01*
X30558Y46042D02*
X30800Y45800D01*
X30065Y46042D02*
X30558D01*
X32500Y47200D02*
X32720Y47420D01*
X40700Y47000D02*
X40923Y47223D01*
X31300Y47000D02*
X40700D01*
X36865Y33600D02*
X38300D01*
X29523Y47223D02*
X30065D01*
X33400Y34800D02*
X34200D01*
X34665Y34335D02*
X34800D01*
X32700Y35500D02*
X33400Y34800D01*
X34200D02*
X34665Y34335D01*
X30700Y46500D02*
Y46800D01*
X30065Y46829D02*
X30671D01*
X35665Y33665D02*
X35800D01*
Y33200D02*
Y33665D01*
X35300Y33300D02*
X35665Y33665D01*
X31400Y47600D02*
X31571Y47771D01*
Y48335D01*
X33736Y47764D02*
Y48335D01*
X36689Y47711D02*
Y48335D01*
X37870Y47730D02*
Y48335D01*
X40035Y47765D02*
Y48335D01*
X39642Y47742D02*
Y48335D01*
X41361Y46239D02*
X41935D01*
X41433Y44467D02*
X41935D01*
X41200Y44700D02*
X41433Y44467D01*
X41300Y44200D02*
X41370Y44270D01*
X41935D01*
X41283Y43483D02*
X41935D01*
X41246Y40754D02*
X41273Y40727D01*
X41935D01*
X41300Y40400D02*
X41430Y40530D01*
X41935D01*
X41358Y38758D02*
X41935D01*
X41320Y37380D02*
X41935D01*
X40265Y37235D02*
X40429Y37071D01*
Y36465D02*
Y37071D01*
X38264Y36465D02*
Y37036D01*
X37083Y36465D02*
Y37017D01*
X35311Y36465D02*
Y37011D01*
X34130Y36465D02*
Y37030D01*
X32358Y36465D02*
Y37058D01*
X31965Y36465D02*
Y37035D01*
X30980Y36465D02*
Y37080D01*
X30065Y40530D02*
X30530D01*
X30700Y40700D01*
X30065Y41317D02*
X30617D01*
X30700Y41400D01*
X30065Y44073D02*
X30527D01*
X30700Y43900D01*
X42424Y55175D02*
X43275D01*
X42424Y54675D02*
X43225D01*
X42424Y54425D02*
X43106D01*
X43265Y54265D01*
X41775Y54925D02*
X42424D01*
X41600Y54000D02*
X41775Y54175D01*
X42424D01*
X40376Y53925D02*
X40975D01*
X41065Y53835D01*
X40376Y55175D02*
X41075D01*
X39675Y54925D02*
X40376D01*
X36492Y49892D02*
X39525Y52925D01*
X36492Y48335D02*
Y49892D01*
X39525Y52925D02*
X40376D01*
X36886Y48335D02*
Y49486D01*
X38900Y53100D02*
X39475Y53675D01*
X40376D01*
Y54175D02*
X41075D01*
X41200Y54300D01*
X39825Y54425D02*
X40376D01*
Y54400D02*
X40500D01*
X39600Y54200D02*
X39825Y54425D01*
X39550Y54500D02*
X39725Y54675D01*
X38691Y54500D02*
X39550D01*
X39725Y54675D02*
X41075D01*
X38600Y53800D02*
Y54409D01*
X38691Y54500D01*
X38600Y55591D02*
Y56200D01*
Y55591D02*
X39191D01*
X30648Y54660D02*
X31200D01*
Y54068D02*
Y54660D01*
X31752D01*
X31200D02*
Y55252D01*
X37000Y54068D02*
Y54660D01*
X36448D02*
X37000D01*
X37552D01*
X37000D02*
Y55252D01*
X38087Y55591D02*
X38600D01*
X43925Y52925D02*
X44700Y53700D01*
X42424Y52925D02*
X43925D01*
X44700Y53700D02*
X45100D01*
X42424Y53675D02*
X43625D01*
X40700Y58300D02*
X43065Y55935D01*
X40600Y58300D02*
X40700D01*
X43065Y55935D02*
X44400D01*
X43400Y58300D02*
X45400Y56300D01*
Y56100D02*
Y56300D01*
X47300Y56835D02*
Y57400D01*
X46400Y55935D02*
X47300Y56835D01*
X46300Y58400D02*
X47300Y57400D01*
X31965Y47735D02*
Y48335D01*
Y47735D02*
X32200Y47500D01*
X44400Y54700D02*
Y55265D01*
X32161Y48335D02*
Y52661D01*
X31400Y51100D02*
X31768Y50732D01*
X45400Y54700D02*
Y55265D01*
X31768Y48335D02*
Y50732D01*
X30800Y50900D02*
X31374Y50326D01*
X46400Y54700D02*
Y55265D01*
X31374Y48335D02*
Y50326D01*
X42629Y37971D02*
X42723Y37877D01*
X44500Y31700D02*
Y32400D01*
X47100Y31835D02*
X47635D01*
X45700Y30900D02*
X45965Y31165D01*
X45100Y30900D02*
X45700D01*
X44400Y31600D02*
X45100Y30900D01*
X45965Y31165D02*
X47100D01*
X37900Y32600D02*
X38187Y32313D01*
X35200Y32600D02*
X37900D01*
X38300Y32900D02*
X38975Y32225D01*
X36100Y32900D02*
X38300D01*
X35800Y33200D02*
X36100Y32900D01*
X38975Y31987D02*
Y32225D01*
X38300Y33600D02*
X39762Y32138D01*
Y31987D02*
Y32138D01*
X29400Y35700D02*
X30365Y34735D01*
X29400Y35700D02*
Y37000D01*
X29788Y37388D01*
X30365Y34735D02*
X30800D01*
X32735Y34065D02*
X33600Y33200D01*
X30500Y31400D02*
X30600D01*
X28040Y32760D02*
X29400Y31400D01*
X29600D01*
X27440Y32760D02*
X28040D01*
X29300Y31900D02*
X31100D01*
X28600Y32600D02*
X29300Y31900D01*
X28600Y32600D02*
Y33300D01*
X28116Y33784D02*
X28600Y33300D01*
X27512Y33784D02*
X28116D01*
X31100Y31900D02*
X31600Y31400D01*
X31400Y31900D02*
X32100D01*
X31100Y32200D02*
X31400Y31900D01*
X31100Y32200D02*
Y32700D01*
X28148Y34552D02*
X28400Y34300D01*
X27512Y34552D02*
X28148D01*
X28160Y34040D02*
X28400Y33800D01*
X30000D01*
X27512Y34040D02*
X28160D01*
X32100Y31900D02*
X32600Y31400D01*
X30000Y33800D02*
X31100Y32700D01*
X28700Y35100D02*
X29735Y34065D01*
X27400Y35100D02*
X28700D01*
X26400Y34100D02*
X27400Y35100D01*
X26400Y33500D02*
Y34100D01*
X25900Y33000D02*
X26400Y33500D01*
X29735Y34065D02*
X30800D01*
X25100Y33000D02*
X25900D01*
X24600Y32700D02*
X24660Y32760D01*
X24600Y32500D02*
X24852Y32248D01*
X24604Y32504D02*
X25288D01*
X24852Y32248D02*
X25288D01*
X24660Y32760D02*
X25288D01*
X24600Y32500D02*
Y32700D01*
X25288Y34552D02*
X25948D01*
X26800Y35600D02*
X27365D01*
X30000Y42700D02*
X30065D01*
X33600Y32400D02*
Y33200D01*
X32000Y34065D02*
X32735D01*
X38187Y31987D02*
Y32313D01*
X34800Y33000D02*
Y33665D01*
Y33000D02*
X35200Y32600D01*
X41020Y48335D02*
X41265D01*
X42800Y47800D02*
X43200Y47400D01*
X40900Y47800D02*
X42800D01*
X40823Y47877D02*
X40900Y47800D01*
X40823Y47877D02*
Y48335D01*
X43200Y47400D02*
X43865D01*
X44535Y46400D02*
X45000D01*
X46135D02*
X46600D01*
X45465D02*
Y46635D01*
X45300Y46800D02*
X45465Y46635D01*
X41935Y46829D02*
X45171D01*
X45600Y46400D01*
X41935Y46435D02*
X42365D01*
X42600Y46200D01*
X41935Y46632D02*
X43168D01*
X43400Y46400D01*
X43865D01*
X41300Y38341D02*
X41520Y38561D01*
X41300Y38100D02*
Y38341D01*
X41520Y38561D02*
X41935D01*
Y38955D02*
X43345D01*
X45400Y36135D02*
Y36900D01*
X43345Y38955D02*
X45400Y36900D01*
X41935Y39152D02*
X43948D01*
X46400Y36135D02*
Y36700D01*
X43948Y39152D02*
X46400Y36700D01*
Y35000D02*
Y35465D01*
X45400Y35000D02*
Y35465D01*
X44300Y35000D02*
Y35500D01*
X43400Y34800D02*
Y35465D01*
X42000Y35500D02*
X42635Y36135D01*
X41100Y35500D02*
X42000D01*
X40823Y35777D02*
X41100Y35500D01*
X40823Y35777D02*
Y36465D01*
X42635Y36135D02*
X43400D01*
X41935Y37577D02*
X42723D01*
X41935Y37774D02*
X42697D01*
X41935Y37971D02*
X42629D01*
X42697Y37774D02*
X42723Y37800D01*
Y37500D02*
X42900Y37323D01*
X42723Y37500D02*
Y37877D01*
X44100Y36700D02*
X44400Y36400D01*
X42200Y36700D02*
X44100D01*
X41700Y36200D02*
X42200Y36700D01*
X44400Y36135D02*
Y36400D01*
X41012Y36200D02*
X41700D01*
X30671Y46829D02*
X30700Y46800D01*
X33800Y35100D02*
X35200D01*
X35800Y34500D01*
X26800Y49700D02*
X27800Y50700D01*
X29700D01*
X34600Y45400D02*
X37500Y42500D01*
X40659D02*
X41445Y43286D01*
X33300Y45400D02*
X34600D01*
X41445Y43286D02*
X41935D01*
X23093Y52993D02*
X23300Y53200D01*
X30600Y48000D02*
Y49100D01*
X32720Y47420D02*
X41935D01*
X27100Y51000D02*
X28700D01*
D27*
X27700Y51600D02*
X29700D01*
X28500Y51660D02*
X28560Y51600D01*
X27500Y51800D02*
Y52400D01*
X28500Y51660D02*
Y52400D01*
X27500Y51800D02*
X27700Y51600D01*
D28*
X30440Y52140D02*
X31200D01*
X33200Y51900D02*
Y52400D01*
X33700Y51900D02*
Y52400D01*
X34200Y51900D02*
Y52400D01*
X35200Y51900D02*
Y52400D01*
X36040Y52140D02*
X37000D01*
X36340Y54660D02*
X37660D01*
X37000Y53900D02*
Y55400D01*
X33468Y54369D02*
X34969D01*
X34200Y53400D02*
Y55300D01*
X30360Y54660D02*
X32040D01*
X26600Y52400D02*
X27000D01*
X28000Y53400D02*
Y54369D01*
X27232D02*
X28732D01*
X28000Y52400D02*
Y52900D01*
X29000Y52400D02*
X29400D01*
D29*
X27420Y54369D02*
X28000D01*
Y53589D02*
Y54369D01*
X28580D01*
X28000D02*
Y55149D01*
X34200Y53589D02*
Y54369D01*
X33620D02*
X34200D01*
Y55149D01*
Y54369D02*
X34780D01*
D30*
X50020Y32391D02*
D03*
D31*
Y57194D02*
D03*
D32*
X33600Y32400D02*
D03*
X45500Y31700D02*
D03*
D33*
X33600Y31400D02*
D03*
X32600Y32400D02*
D03*
Y31400D02*
D03*
X31600Y32400D02*
D03*
Y31400D02*
D03*
X30600Y32400D02*
D03*
Y31400D02*
D03*
X29600Y32400D02*
D03*
Y31400D02*
D03*
X44500Y31700D02*
D03*
X37400Y31200D02*
D03*
Y31987D02*
D03*
X38187Y31200D02*
D03*
Y31987D02*
D03*
X38975Y31200D02*
D03*
Y31987D02*
D03*
X39762Y31200D02*
D03*
Y31987D02*
D03*
X40550Y31200D02*
D03*
Y31987D02*
D03*
X41337Y31200D02*
D03*
Y31987D02*
D03*
X42124Y31200D02*
D03*
Y31987D02*
D03*
D34*
X46400Y58300D02*
D03*
Y57300D02*
D03*
X43400Y58300D02*
D03*
Y57300D02*
D03*
X40600Y58300D02*
D03*
Y57300D02*
D03*
D35*
X45100Y52700D02*
D03*
D36*
Y53200D02*
D03*
Y53700D02*
D03*
D37*
X23125Y55210D02*
D03*
Y34790D02*
D03*
D38*
X24250Y53250D02*
D03*
X23500Y52750D02*
D03*
X24250Y52250D02*
D03*
X23500Y51750D02*
D03*
X24250Y51250D02*
D03*
X23500Y50750D02*
D03*
X24250Y50250D02*
D03*
X23500Y49750D02*
D03*
X24250Y49250D02*
D03*
X23500Y48750D02*
D03*
X24250Y48250D02*
D03*
X23500Y47750D02*
D03*
X24250Y47250D02*
D03*
X23500Y46750D02*
D03*
X24250Y46250D02*
D03*
X23500Y45750D02*
D03*
X24250Y45250D02*
D03*
X23500Y44750D02*
D03*
X24250Y44250D02*
D03*
X23500Y43750D02*
D03*
X24250Y43250D02*
D03*
X23500Y42750D02*
D03*
X24250Y42250D02*
D03*
X23500Y41750D02*
D03*
X24250Y41250D02*
D03*
X23500Y40750D02*
D03*
X24250Y40250D02*
D03*
X23500Y39750D02*
D03*
X24250Y39250D02*
D03*
X23500Y38750D02*
D03*
X24250Y38250D02*
D03*
X23500Y37750D02*
D03*
X24250Y37250D02*
D03*
X23500Y36750D02*
D03*
X22750Y53250D02*
D03*
X22000Y52750D02*
D03*
X22750Y52250D02*
D03*
X22000Y51750D02*
D03*
X22750Y51250D02*
D03*
X22000Y50750D02*
D03*
X22750Y50250D02*
D03*
X22000Y49750D02*
D03*
X22750Y49250D02*
D03*
X22000Y48750D02*
D03*
X22750Y48250D02*
D03*
X22000Y47750D02*
D03*
X22750Y47250D02*
D03*
X22000Y46750D02*
D03*
X22750Y46250D02*
D03*
X22000Y45750D02*
D03*
X22750Y45250D02*
D03*
X22000Y44750D02*
D03*
X22750Y44250D02*
D03*
X22000Y43750D02*
D03*
X22750Y43250D02*
D03*
X22000Y42750D02*
D03*
X22750Y42250D02*
D03*
X22000Y41750D02*
D03*
X22750Y41250D02*
D03*
X22000Y40750D02*
D03*
X22750Y40250D02*
D03*
X22000Y39750D02*
D03*
X22750Y39250D02*
D03*
X22000Y38750D02*
D03*
X22750Y38250D02*
D03*
X22000Y37750D02*
D03*
X22750Y37250D02*
D03*
X22000Y36750D02*
D03*
D39*
X23994Y35856D02*
D03*
D40*
X48980Y54280D02*
D03*
X52280D02*
D03*
X47600Y51000D02*
D03*
X52354Y51446D02*
D03*
X47625Y45225D02*
D03*
X52225D02*
D03*
X52235Y43335D02*
D03*
X52246Y41446D02*
D03*
X49100Y41000D02*
D03*
X52389Y38611D02*
D03*
X47611D02*
D03*
X47666Y37666D02*
D03*
X34700Y30900D02*
D03*
X36100Y49000D02*
D03*
X35311Y47711D02*
D03*
X34917Y48883D02*
D03*
X33146Y48946D02*
D03*
X29500Y47700D02*
D03*
X30700Y45000D02*
D03*
Y42900D02*
D03*
Y42200D02*
D03*
Y39400D02*
D03*
X32300Y38800D02*
D03*
X30700Y38400D02*
D03*
X33300Y37200D02*
D03*
X35705Y35905D02*
D03*
X36689Y35811D02*
D03*
X38854Y37154D02*
D03*
X40600Y44700D02*
D03*
X38900Y42800D02*
D03*
X38100Y42000D02*
D03*
Y39700D02*
D03*
X33600Y38900D02*
D03*
X33900Y34200D02*
D03*
X28700Y51000D02*
D03*
X30600Y49100D02*
D03*
X26500Y51000D02*
D03*
X30100Y48200D02*
D03*
X31100Y46200D02*
D03*
X30800Y45800D02*
D03*
X29523Y47223D02*
D03*
X35300Y33300D02*
D03*
X42600Y47100D02*
D03*
Y45000D02*
D03*
Y43300D02*
D03*
X41417Y41317D02*
D03*
X41300Y39800D02*
D03*
X39800Y37200D02*
D03*
X26865Y38065D02*
D03*
Y37035D02*
D03*
X28000Y36000D02*
D03*
X31400Y47600D02*
D03*
X32135Y46665D02*
D03*
X33736Y47764D02*
D03*
X36689Y47711D02*
D03*
X37870Y47730D02*
D03*
X40035Y47765D02*
D03*
X39642Y47742D02*
D03*
X41361Y46239D02*
D03*
X41200Y44700D02*
D03*
X41300Y44200D02*
D03*
X41283Y43483D02*
D03*
X41246Y40754D02*
D03*
X41300Y40400D02*
D03*
X41358Y38758D02*
D03*
X41320Y37380D02*
D03*
X40265Y37235D02*
D03*
X38264Y37036D02*
D03*
X37083Y37017D02*
D03*
X35311Y37011D02*
D03*
X34130Y37030D02*
D03*
X32358Y37058D02*
D03*
X31965Y37035D02*
D03*
X30980Y37080D02*
D03*
X30700Y38800D02*
D03*
X30800Y40200D02*
D03*
X30700Y40700D02*
D03*
Y41400D02*
D03*
X30800Y43300D02*
D03*
X30700Y43900D02*
D03*
Y44400D02*
D03*
X33800Y46300D02*
D03*
X36800D02*
D03*
X38000D02*
D03*
X39900Y46400D02*
D03*
Y45200D02*
D03*
Y44200D02*
D03*
Y43200D02*
D03*
Y41200D02*
D03*
Y40200D02*
D03*
Y38600D02*
D03*
X38200Y38500D02*
D03*
X37000D02*
D03*
X35400D02*
D03*
X34200D02*
D03*
X32100Y39800D02*
D03*
Y40800D02*
D03*
Y41800D02*
D03*
X32400Y42800D02*
D03*
X32100Y43800D02*
D03*
X32300Y44800D02*
D03*
X50057Y33257D02*
D03*
X40243D02*
D03*
X49728Y33572D02*
D03*
X40620Y33620D02*
D03*
X50013Y33887D02*
D03*
X41100Y33900D02*
D03*
X49702Y34202D02*
D03*
X41698D02*
D03*
X49936Y37036D02*
D03*
X49649Y37351D02*
D03*
X45600Y39600D02*
D03*
X43800D02*
D03*
X49919Y37981D02*
D03*
X49704Y38296D02*
D03*
X46500Y39100D02*
D03*
X44200Y39900D02*
D03*
X49874Y38926D02*
D03*
X43700Y41200D02*
D03*
X50259Y39241D02*
D03*
X44000Y41900D02*
D03*
X49944Y39556D02*
D03*
X44700Y42200D02*
D03*
X50129Y39871D02*
D03*
X43600Y43000D02*
D03*
X50314Y40186D02*
D03*
X43900Y43700D02*
D03*
X49800Y41200D02*
D03*
Y41800D02*
D03*
X43400Y45300D02*
D03*
X49700Y42400D02*
D03*
X46255Y45845D02*
D03*
X43100Y41800D02*
D03*
X41311Y41711D02*
D03*
X43800Y44400D02*
D03*
X50000Y52400D02*
D03*
X38461Y47739D02*
D03*
X50210Y54910D02*
D03*
X47400Y53800D02*
D03*
X33200Y51900D02*
D03*
X33700D02*
D03*
X34200D02*
D03*
X35200D02*
D03*
X36040Y52140D02*
D03*
X36340Y54660D02*
D03*
X37000Y53900D02*
D03*
X37660Y54660D02*
D03*
X37000Y55400D02*
D03*
X34969Y54369D02*
D03*
X34200Y55300D02*
D03*
X33468Y54369D02*
D03*
X34200Y53400D02*
D03*
X30360Y54660D02*
D03*
X32040D02*
D03*
X26600Y52400D02*
D03*
X28732Y54369D02*
D03*
X27232D02*
D03*
X28000Y53400D02*
D03*
Y52900D02*
D03*
X29400Y52400D02*
D03*
X30440Y52140D02*
D03*
X43275Y55175D02*
D03*
X43225Y54675D02*
D03*
X43265Y54265D02*
D03*
X41775Y54925D02*
D03*
X41600Y54000D02*
D03*
X41065Y53835D02*
D03*
X41075Y55175D02*
D03*
Y54675D02*
D03*
X39675Y54925D02*
D03*
X36886Y49486D02*
D03*
X38900Y53100D02*
D03*
X41200Y54300D02*
D03*
X39600Y54200D02*
D03*
X38600Y53800D02*
D03*
Y56200D02*
D03*
X39191Y55591D02*
D03*
X43625Y53675D02*
D03*
X44400Y54700D02*
D03*
X45400D02*
D03*
X46400D02*
D03*
X32200Y47500D02*
D03*
X32161Y52661D02*
D03*
X31400Y51100D02*
D03*
X30800Y50900D02*
D03*
X47635Y31835D02*
D03*
X28400Y34300D02*
D03*
X24600Y32500D02*
D03*
X25948Y34552D02*
D03*
X26800Y35600D02*
D03*
X27900Y42900D02*
D03*
X28600Y47500D02*
D03*
X32600Y34300D02*
D03*
X37135Y34335D02*
D03*
X34800Y33000D02*
D03*
X26800Y33300D02*
D03*
X28100D02*
D03*
X29435Y49735D02*
D03*
X28000Y50200D02*
D03*
X44535Y48035D02*
D03*
X44900Y47800D02*
D03*
X41265Y48335D02*
D03*
X45000Y46400D02*
D03*
X46600D02*
D03*
X42600Y46200D02*
D03*
X43300Y37800D02*
D03*
X43435Y38365D02*
D03*
X41300Y38100D02*
D03*
X46400Y35000D02*
D03*
X45400D02*
D03*
X44300D02*
D03*
X43400Y34800D02*
D03*
X42900Y37323D02*
D03*
X32700Y35500D02*
D03*
X30700Y46500D02*
D03*
X33100Y35800D02*
D03*
X30800Y45400D02*
D03*
X37400Y33600D02*
D03*
X40659Y42500D02*
D03*
X37500D02*
D03*
X33300Y45400D02*
D03*
X29700Y50700D02*
D03*
X26800Y49700D02*
D03*
D41*
X29700Y51600D02*
D03*
X33000Y46400D02*
D03*
M02*
