%FSLAX24Y24*%
%MOIN*%
G70*
G01*
G75*
G04 Layer_Physical_Order=3*
%ADD10C,0.0080*%
%ADD11R,0.0866X0.0787*%
%ADD12R,0.0728X0.0118*%
%ADD13R,0.0118X0.0728*%
%ADD14R,0.0866X0.0157*%
%ADD15R,0.0866X0.0157*%
%ADD16R,0.0300X0.0600*%
%ADD17R,0.1000X0.1400*%
%ADD18R,0.0945X0.1024*%
%ADD19R,0.0787X0.0197*%
%ADD20R,0.1811X0.1772*%
%ADD21R,0.0394X0.0433*%
%ADD22R,0.0433X0.0394*%
%ADD23R,0.0571X0.0118*%
%ADD24C,0.0100*%
%ADD25C,0.0900*%
%ADD26C,0.0200*%
%ADD27C,0.0160*%
%ADD28C,0.0110*%
%ADD29C,0.0320*%
%ADD30C,0.0120*%
%ADD31C,0.1300*%
%ADD32C,0.0550*%
%ADD33C,0.0394*%
%ADD34R,0.0394X0.0394*%
%ADD35C,0.0787*%
%ADD36C,0.0591*%
%ADD37C,0.0500*%
%ADD38R,0.0591X0.0591*%
%ADD39C,0.0250*%
%ADD40C,0.0400*%
%ADD41C,0.0098*%
%ADD42C,0.0079*%
%ADD43C,0.0060*%
%ADD44C,0.0070*%
%ADD45R,0.0079X0.0197*%
%ADD46C,0.0020*%
%ADD47R,0.0197X0.0079*%
%ADD48R,0.0946X0.0867*%
%ADD49R,0.0808X0.0198*%
%ADD50R,0.0198X0.0808*%
%ADD51R,0.0946X0.0237*%
%ADD52R,0.0946X0.0237*%
%ADD53R,0.0380X0.0680*%
%ADD54R,0.1080X0.1480*%
%ADD55R,0.1025X0.1104*%
%ADD56R,0.0867X0.0277*%
%ADD57R,0.1891X0.1852*%
%ADD58R,0.0474X0.0513*%
%ADD59R,0.0513X0.0474*%
%ADD60R,0.0651X0.0198*%
%ADD61C,0.1380*%
%ADD62C,0.0630*%
%ADD63C,0.0474*%
%ADD64R,0.0474X0.0474*%
%ADD65C,0.0867*%
%ADD66C,0.0671*%
%ADD67C,0.0580*%
%ADD68R,0.0671X0.0671*%
%ADD69C,0.0330*%
%ADD70C,0.0480*%
%ADD71C,0.0400*%
%ADD72C,0.1500*%
%ADD73C,0.0750*%
%AMTHD74*
7,0,0,0.0950,0.0750,0.0100,45*
%
%ADD74THD74*%
%ADD75C,0.0636*%
%AMTHD76*
7,0,0,0.0836,0.0636,0.0100,45*
%
%ADD76THD76*%
%ADD77C,0.0951*%
%ADD78C,0.1109*%
%ADD79C,0.0794*%
%AMTHD80*
7,0,0,0.0994,0.0794,0.0100,45*
%
%ADD80THD80*%
%AMTHD81*
7,0,0,0.0880,0.0680,0.0100,45*
%
%ADD81THD81*%
%ADD82C,0.0680*%
%AMTHD83*
7,0,0,0.0954,0.0754,0.0100,45*
%
%ADD83THD83*%
%ADD84C,0.0754*%
%ADD85C,0.0535*%
%AMTHD86*
7,0,0,0.0735,0.0535,0.0100,45*
%
%ADD86THD86*%
%ADD87C,0.0600*%
D30*
X62100Y38100D02*
Y37200D01*
X62700D01*
X63150Y37800D02*
X63450D01*
X63600Y37650D01*
Y37200D01*
X63150D01*
X63000Y37350D01*
X63150Y37500D01*
X63600D01*
X63899Y37800D02*
Y37350D01*
X64049Y37200D01*
X64499D01*
Y37050D01*
X64349Y36900D01*
X64199D01*
X64499Y37200D02*
Y37800D01*
X65249Y37200D02*
X64949D01*
X64799Y37350D01*
Y37650D01*
X64949Y37800D01*
X65249D01*
X65399Y37650D01*
Y37500D01*
X64799D01*
X65699Y37800D02*
Y37200D01*
Y37500D01*
X65849Y37650D01*
X65999Y37800D01*
X66149D01*
X67498Y37950D02*
X67648Y38100D01*
X67948D01*
X68098Y37950D01*
Y37800D01*
X67948Y37650D01*
X67798D01*
X67948D01*
X68098Y37500D01*
Y37350D01*
X67948Y37200D01*
X67648D01*
X67498Y37350D01*
D71*
X20000Y30000D02*
Y60000D01*
X60000D01*
Y30000D02*
Y60000D01*
X20000Y30000D02*
X60000D01*
D72*
X23125Y55210D02*
D03*
Y34790D02*
D03*
D73*
X24250Y52250D02*
D03*
X23500Y51750D02*
D03*
X24250Y51250D02*
D03*
X23500Y50750D02*
D03*
X24250Y50250D02*
D03*
X23500Y49750D02*
D03*
X24250Y49250D02*
D03*
X23500Y48750D02*
D03*
X24250Y48250D02*
D03*
X23500Y47750D02*
D03*
X24250Y47250D02*
D03*
X23500Y46750D02*
D03*
X24250Y46250D02*
D03*
X23500Y45750D02*
D03*
X24250Y45250D02*
D03*
X23500Y44750D02*
D03*
X24250Y44250D02*
D03*
X23500Y43750D02*
D03*
X24250Y43250D02*
D03*
X23500Y42750D02*
D03*
X24250Y42250D02*
D03*
X23500Y41750D02*
D03*
X24250Y41250D02*
D03*
X23500Y40750D02*
D03*
X24250Y40250D02*
D03*
X23500Y39750D02*
D03*
X24250Y39250D02*
D03*
X23500Y38750D02*
D03*
X24250Y38250D02*
D03*
X23500Y37750D02*
D03*
X24250Y37250D02*
D03*
X23500Y36750D02*
D03*
X22750Y53250D02*
D03*
X22000Y52750D02*
D03*
X22750Y52250D02*
D03*
X22000Y51750D02*
D03*
X22750Y51250D02*
D03*
X22000Y50750D02*
D03*
X22750Y50250D02*
D03*
X22000Y49750D02*
D03*
X22750Y49250D02*
D03*
X22000Y48750D02*
D03*
X22750Y48250D02*
D03*
X22000Y47750D02*
D03*
X22750Y47250D02*
D03*
X22000Y46750D02*
D03*
X22750Y46250D02*
D03*
X22000Y45750D02*
D03*
X22750Y45250D02*
D03*
X22000Y44750D02*
D03*
X22750Y44250D02*
D03*
X22000Y43750D02*
D03*
X22750Y43250D02*
D03*
X22000Y42750D02*
D03*
X22750Y41250D02*
D03*
X22000Y40750D02*
D03*
X22750Y40250D02*
D03*
X22000Y39750D02*
D03*
X22750Y39250D02*
D03*
X22000Y38750D02*
D03*
X22750Y38250D02*
D03*
X22000Y37750D02*
D03*
X22750Y37250D02*
D03*
X22000Y36750D02*
D03*
D74*
X24250Y53250D02*
D03*
X23500Y52750D02*
D03*
X22750Y42250D02*
D03*
X22000Y41750D02*
D03*
D75*
X45100Y53700D02*
D03*
Y53200D02*
D03*
Y52700D02*
D03*
D77*
X50020Y32391D02*
D03*
D78*
Y57194D02*
D03*
D79*
X42124Y31987D02*
D03*
Y31200D02*
D03*
X41337Y31987D02*
D03*
Y31200D02*
D03*
X40550Y31987D02*
D03*
Y31200D02*
D03*
X39762Y31987D02*
D03*
Y31200D02*
D03*
X38975Y31987D02*
D03*
Y31200D02*
D03*
X38187Y31987D02*
D03*
Y31200D02*
D03*
X37400D02*
D03*
D80*
Y31987D02*
D03*
D82*
X40600Y57300D02*
D03*
Y58300D02*
D03*
X43400Y57300D02*
D03*
Y58300D02*
D03*
X46400Y57300D02*
D03*
Y58300D02*
D03*
D84*
X45500Y31700D02*
D03*
X44500D02*
D03*
X29600Y31400D02*
D03*
Y32400D02*
D03*
X30600Y31400D02*
D03*
Y32400D02*
D03*
X31600Y31400D02*
D03*
Y32400D02*
D03*
X32600Y31400D02*
D03*
Y32400D02*
D03*
X33600Y31400D02*
D03*
Y32400D02*
D03*
D85*
X26800Y49700D02*
D03*
X29700Y50700D02*
D03*
X33300Y45400D02*
D03*
X37500Y42500D02*
D03*
X40659D02*
D03*
X37400Y33600D02*
D03*
X30800Y45400D02*
D03*
X33100Y35800D02*
D03*
X30700Y46500D02*
D03*
X32700Y35500D02*
D03*
X42900Y37323D02*
D03*
X43400Y34800D02*
D03*
X46400Y35000D02*
D03*
X41300Y38100D02*
D03*
X43435Y38365D02*
D03*
X43300Y37800D02*
D03*
X42600Y46200D02*
D03*
X46600Y46400D02*
D03*
X41265Y48335D02*
D03*
X44535Y48035D02*
D03*
X29435Y49735D02*
D03*
X28100Y33300D02*
D03*
X26800D02*
D03*
X34800Y33000D02*
D03*
X32600Y34300D02*
D03*
X28600Y47500D02*
D03*
X27900Y42900D02*
D03*
X25948Y34552D02*
D03*
X28400Y34300D02*
D03*
X30800Y50900D02*
D03*
X31400Y51100D02*
D03*
X32161Y52661D02*
D03*
X32200Y47500D02*
D03*
X46400Y54700D02*
D03*
X45400D02*
D03*
X44400D02*
D03*
X43625Y53675D02*
D03*
X39191Y55591D02*
D03*
X38600Y56200D02*
D03*
X39600Y54200D02*
D03*
X41200Y54300D02*
D03*
X38900Y53100D02*
D03*
X36886Y49486D02*
D03*
X39675Y54925D02*
D03*
X41075Y55175D02*
D03*
X41065Y53835D02*
D03*
X41600Y54000D02*
D03*
X41775Y54925D02*
D03*
X43265Y54265D02*
D03*
X43225Y54675D02*
D03*
X43275Y55175D02*
D03*
X30440Y52140D02*
D03*
X28000Y52900D02*
D03*
Y53400D02*
D03*
X27232Y54369D02*
D03*
X28732D02*
D03*
X32040Y54660D02*
D03*
X30360D02*
D03*
X34200Y53400D02*
D03*
X33468Y54369D02*
D03*
X34200Y55300D02*
D03*
X34969Y54369D02*
D03*
X37000Y55400D02*
D03*
X37660Y54660D02*
D03*
X37000Y53900D02*
D03*
X36340Y54660D02*
D03*
X36040Y52140D02*
D03*
X34200Y51900D02*
D03*
X33700D02*
D03*
X47400Y53800D02*
D03*
X50210Y54910D02*
D03*
X38461Y47739D02*
D03*
X48420Y54280D02*
D03*
X51680D02*
D03*
X50000Y52400D02*
D03*
X43800Y44400D02*
D03*
X41311Y41711D02*
D03*
X43100Y41800D02*
D03*
X48425Y45225D02*
D03*
X51675D02*
D03*
X51565Y43335D02*
D03*
X46255Y45845D02*
D03*
X49700Y42400D02*
D03*
X43400Y45300D02*
D03*
X49800Y41800D02*
D03*
Y41200D02*
D03*
X43900Y43700D02*
D03*
X50314Y40186D02*
D03*
X43600Y43000D02*
D03*
X50129Y39871D02*
D03*
X44700Y42200D02*
D03*
X49944Y39556D02*
D03*
X44000Y41900D02*
D03*
X50259Y39241D02*
D03*
X43700Y41200D02*
D03*
X49874Y38926D02*
D03*
X44200Y39900D02*
D03*
X46500Y39100D02*
D03*
X49704Y38296D02*
D03*
X49919Y37981D02*
D03*
X43800Y39600D02*
D03*
X45600D02*
D03*
X51689Y38611D02*
D03*
X48311D02*
D03*
X48334Y37666D02*
D03*
X49649Y37351D02*
D03*
X49936Y37036D02*
D03*
X41698Y34202D02*
D03*
X49702D02*
D03*
X41100Y33900D02*
D03*
X50013Y33887D02*
D03*
X40620Y33620D02*
D03*
X49728Y33572D02*
D03*
X40243Y33257D02*
D03*
X50057D02*
D03*
X32300Y44800D02*
D03*
X32100Y43800D02*
D03*
X32400Y42800D02*
D03*
X32100Y41800D02*
D03*
Y40800D02*
D03*
Y39800D02*
D03*
X34200Y38500D02*
D03*
X35400D02*
D03*
X37000D02*
D03*
X38200D02*
D03*
X39900Y38600D02*
D03*
Y40200D02*
D03*
Y41200D02*
D03*
Y43200D02*
D03*
Y44200D02*
D03*
Y45200D02*
D03*
Y46400D02*
D03*
X38000Y46300D02*
D03*
X36800D02*
D03*
X33800D02*
D03*
X30700Y44400D02*
D03*
Y43900D02*
D03*
Y40700D02*
D03*
X30800Y40200D02*
D03*
X30980Y37080D02*
D03*
X32358Y37058D02*
D03*
X34130Y37030D02*
D03*
X38264Y37036D02*
D03*
X41320Y37380D02*
D03*
X41300Y40400D02*
D03*
X41246Y40754D02*
D03*
X41300Y44200D02*
D03*
X41200Y44700D02*
D03*
X39642Y47742D02*
D03*
X37870Y47730D02*
D03*
X33736Y47764D02*
D03*
X32135Y46665D02*
D03*
X28000Y36000D02*
D03*
X26865Y37035D02*
D03*
X39800Y37200D02*
D03*
X41300Y39800D02*
D03*
X42600Y43300D02*
D03*
Y45000D02*
D03*
Y47100D02*
D03*
X35300Y33300D02*
D03*
X29523Y47223D02*
D03*
X31100Y46200D02*
D03*
X30100Y48200D02*
D03*
X26500Y51000D02*
D03*
X30600Y49100D02*
D03*
X28700Y51000D02*
D03*
X33900Y34200D02*
D03*
X33600Y38900D02*
D03*
X38100Y39700D02*
D03*
Y42000D02*
D03*
X38900Y42800D02*
D03*
X40600Y44700D02*
D03*
X38854Y37154D02*
D03*
X36689Y35811D02*
D03*
X35705Y35905D02*
D03*
X33300Y37200D02*
D03*
X30700Y38400D02*
D03*
X32300Y38800D02*
D03*
X30700Y39400D02*
D03*
Y42200D02*
D03*
Y42900D02*
D03*
Y45000D02*
D03*
X29500Y47700D02*
D03*
X33146Y48946D02*
D03*
X35311Y47711D02*
D03*
X36100Y49000D02*
D03*
X34700Y30900D02*
D03*
D86*
X44300Y35000D02*
D03*
X45400D02*
D03*
X45000Y46400D02*
D03*
X44900Y47800D02*
D03*
X28000Y50200D02*
D03*
X37135Y34335D02*
D03*
X26800Y35600D02*
D03*
X24600Y32500D02*
D03*
X47635Y31835D02*
D03*
X38600Y53800D02*
D03*
X41075Y54675D02*
D03*
X29400Y52400D02*
D03*
X26600D02*
D03*
X35200Y51900D02*
D03*
X33200D02*
D03*
X51600Y51500D02*
D03*
X48246Y51446D02*
D03*
X48454Y41446D02*
D03*
X51854D02*
D03*
X30800Y43300D02*
D03*
X30700Y41400D02*
D03*
Y38800D02*
D03*
X31965Y37035D02*
D03*
X35311Y37011D02*
D03*
X37083Y37017D02*
D03*
X40265Y37235D02*
D03*
X41358Y38758D02*
D03*
X41283Y43483D02*
D03*
X41361Y46239D02*
D03*
X40035Y47765D02*
D03*
X36689Y47711D02*
D03*
X31400Y47600D02*
D03*
X26865Y38065D02*
D03*
X41417Y41317D02*
D03*
X30800Y45800D02*
D03*
X34917Y48883D02*
D03*
D87*
X33000Y46400D02*
D03*
X29700Y51600D02*
D03*
M02*
