%FSLAX24Y24*%
%MOIN*%
G70*
G01*
G75*
G04 Layer_Physical_Order=4*
%ADD10C,0.0080*%
%ADD11R,0.0787X0.0197*%
%ADD12R,0.1811X0.1772*%
%ADD13R,0.0394X0.0433*%
%ADD14R,0.0571X0.0118*%
%ADD15R,0.0433X0.0394*%
%ADD16R,0.0945X0.1024*%
%ADD17R,0.1000X0.1400*%
%ADD18R,0.0300X0.0600*%
%ADD19R,0.0866X0.0157*%
%ADD20R,0.0866X0.0157*%
%ADD21R,0.0118X0.0728*%
%ADD22R,0.0728X0.0118*%
%ADD23R,0.0866X0.0787*%
%ADD24C,0.0120*%
%ADD25C,0.0110*%
%ADD26C,0.0100*%
%ADD27C,0.0320*%
%ADD28C,0.0200*%
%ADD29C,0.0900*%
%ADD30C,0.0472*%
%ADD31C,0.0669*%
%ADD32R,0.0591X0.0591*%
%ADD33C,0.0591*%
%ADD34C,0.0500*%
%ADD35R,0.0394X0.0394*%
%ADD36C,0.0394*%
%ADD37C,0.1300*%
%ADD38C,0.0550*%
%ADD39C,0.1063*%
%ADD40C,0.0250*%
%ADD41C,0.0400*%
D10*
X41510Y48335D02*
G03*
X41510Y48335I-245J0D01*
G01*
X40297Y47717D02*
G03*
X40280Y47753I-162J-52D01*
G01*
X40297Y47717D02*
G03*
X40280Y47753I-162J-52D01*
G01*
X41320Y46520D02*
G03*
X41271Y46554I-120J-120D01*
G01*
X40280Y47765D02*
G03*
X39830Y47898I-245J0D01*
G01*
X39929Y46643D02*
G03*
X39929Y46157I-29J-243D01*
G01*
X41606Y46239D02*
G03*
X41357Y46484I-245J0D01*
G01*
X41172Y46083D02*
G03*
X41606Y46239I189J155D01*
G01*
X41320Y46520D02*
G03*
X41271Y46554I-120J-120D01*
G01*
X41545Y44200D02*
G03*
X41271Y44443I-245J0D01*
G01*
Y43957D02*
G03*
X41545Y44200I29J243D01*
G01*
X41278Y43238D02*
G03*
X41528Y43483I5J245D01*
G01*
G03*
X41040Y43517I-245J0D01*
G01*
X40845Y44700D02*
G03*
X40763Y44883I-245J0D01*
G01*
Y44517D02*
G03*
X40845Y44700I-163J183D01*
G01*
X40437Y44883D02*
G03*
X40414Y44860I163J-183D01*
G01*
Y44540D02*
G03*
X40437Y44517I186J160D01*
G01*
X39145Y53100D02*
G03*
X39042Y53300I-245J0D01*
G01*
X38758D02*
G03*
X38740Y52914I142J-200D01*
G01*
X39060D02*
G03*
X39145Y53100I-160J186D01*
G01*
X39013Y51387D02*
G03*
X39060Y51500I-113J113D01*
G01*
X39013Y51387D02*
G03*
X39060Y51500I-113J113D01*
G01*
X39830Y47898D02*
G03*
X39397Y47737I-188J-157D01*
G01*
X38706Y47739D02*
G03*
X38225Y47671I-245J0D01*
G01*
X38317Y47541D02*
G03*
X38706Y47739I144J198D01*
G01*
X36904Y49730D02*
G03*
X37131Y49486I-18J-244D01*
G01*
X35445Y51900D02*
G03*
X35445Y51900I-245J0D01*
G01*
X36345Y49000D02*
G03*
X36345Y49000I-245J0D01*
G01*
X36934Y47711D02*
G03*
X36483Y47578I-245J0D01*
G01*
X35162Y48883D02*
G03*
X35162Y48883I-245J0D01*
G01*
X35556Y47711D02*
G03*
X35556Y47711I-245J0D01*
G01*
X39929Y45443D02*
G03*
X39929Y44957I-29J-243D01*
G01*
X39500Y44860D02*
G03*
X39387Y44813I0J-160D01*
G01*
X39500Y44860D02*
G03*
X39387Y44813I0J-160D01*
G01*
X39929Y44443D02*
G03*
X39929Y43957I-29J-243D01*
G01*
Y43443D02*
G03*
X39929Y42957I-29J-243D01*
G01*
X38787Y44213D02*
G03*
X38740Y44100I113J-113D01*
G01*
X38787Y44213D02*
G03*
X38740Y44100I113J-113D01*
G01*
X39145Y42800D02*
G03*
X39060Y42986I-245J0D01*
G01*
X36954Y47671D02*
G03*
X36934Y47705I-154J-71D01*
G01*
X36954Y47671D02*
G03*
X36934Y47705I-154J-71D01*
G01*
X37757Y46329D02*
G03*
X38245Y46300I243J-29D01*
G01*
X36557Y46329D02*
G03*
X37045Y46300I243J-29D01*
G01*
X41662Y41317D02*
G03*
X41495Y41550I-245J0D01*
G01*
X41271Y41121D02*
G03*
X41662Y41317I146J197D01*
G01*
X41495Y41550D02*
G03*
X41556Y41711I-184J161D01*
G01*
X41409Y40937D02*
G03*
X41366Y41009I-163J-48D01*
G01*
X41409Y40937D02*
G03*
X41366Y41009I-163J-48D01*
G01*
X41556Y41711D02*
G03*
X41162Y41517I-245J0D01*
G01*
X41491Y40754D02*
G03*
X41409Y40937I-245J0D01*
G01*
X41271Y40510D02*
G03*
X41491Y40754I-25J244D01*
G01*
X41028Y40866D02*
G03*
X41184Y40517I218J-112D01*
G01*
X41545Y39800D02*
G03*
X41271Y40043I-245J0D01*
G01*
X41070Y39883D02*
G03*
X41545Y39800I230J-83D01*
G01*
X41184Y40517D02*
G03*
X41271Y40510I62J237D01*
G01*
X40904Y42500D02*
G03*
X40473Y42660I-245J0D01*
G01*
Y42340D02*
G03*
X40904Y42500I186J160D01*
G01*
X39929Y41443D02*
G03*
X39929Y40957I-29J-243D01*
G01*
Y40443D02*
G03*
X39929Y39957I-29J-243D01*
G01*
X41271Y38529D02*
G03*
X41603Y38758I87J229D01*
G01*
G03*
X41172Y38917I-245J0D01*
G01*
X41545Y38100D02*
G03*
X41271Y38343I-245J0D01*
G01*
X41137Y38283D02*
G03*
X41137Y37917I163J-183D01*
G01*
X41565Y37380D02*
G03*
X41315Y37625I-245J0D01*
G01*
X41271Y37857D02*
G03*
X41545Y38100I29J243D01*
G01*
X41095Y37283D02*
G03*
X41565Y37380I225J97D01*
G01*
X39929Y38843D02*
G03*
X39929Y38357I-29J-243D01*
G01*
X40510Y37235D02*
G03*
X40505Y37283I-245J0D01*
G01*
X40038Y37143D02*
G03*
X40510Y37235I227J92D01*
G01*
X39929Y37408D02*
G03*
X40038Y37143I-129J-208D01*
G01*
X39101Y42660D02*
G03*
X39145Y42800I-201J140D01*
G01*
X38740Y42986D02*
G03*
X38699Y42660I160J-186D01*
G01*
X38260Y41814D02*
G03*
X38345Y42000I-160J186D01*
G01*
Y39700D02*
G03*
X38260Y39886I-245J0D01*
G01*
X38445Y38500D02*
G03*
X37957Y38471I-245J0D01*
G01*
X37686Y42660D02*
G03*
X37686Y42340I-186J-160D01*
G01*
X38345Y42000D02*
G03*
X37940Y41814I-245J0D01*
G01*
Y39886D02*
G03*
X38345Y39700I160J-186D01*
G01*
X37245Y38500D02*
G03*
X36757Y38471I-245J0D01*
G01*
X35645Y38500D02*
G03*
X35157Y38471I-245J0D01*
G01*
X39099Y37154D02*
G03*
X39099Y37154I-245J0D01*
G01*
X37328Y37017D02*
G03*
X37301Y37129I-245J0D01*
G01*
X36830Y37100D02*
G03*
X36839Y37045I170J0D01*
G01*
X36830Y37100D02*
G03*
X36839Y37045I170J0D01*
G01*
X35555Y37031D02*
G03*
X35570Y37100I-155J69D01*
G01*
X35555Y37031D02*
G03*
X35570Y37100I-155J69D01*
G01*
X36839Y37045D02*
G03*
X37328Y37017I243J-27D01*
G01*
X35096Y37129D02*
G03*
X35556Y37011I215J-118D01*
G01*
X33976Y53300D02*
G03*
X34424Y53300I224J100D01*
G01*
X34445Y51900D02*
G03*
X34445Y51900I-245J0D01*
G01*
X32713Y52987D02*
G03*
X32760Y53100I-113J113D01*
G01*
X33445Y51900D02*
G03*
X33445Y51900I-245J0D01*
G01*
X32713Y52987D02*
G03*
X32760Y53100I-113J113D01*
G01*
X33391Y48946D02*
G03*
X33391Y48946I-245J0D01*
G01*
X33280Y48000D02*
G03*
X33198Y48198I-280J0D01*
G01*
X33280Y48000D02*
G03*
X33198Y48198I-280J0D01*
G01*
X32179Y52906D02*
G03*
X32406Y52661I-18J-244D01*
G01*
X33557Y46329D02*
G03*
X34045Y46300I243J-29D01*
G01*
X33320Y46400D02*
G03*
X33280Y46555I-320J0D01*
G01*
X32760Y46188D02*
G03*
X33320Y46400I240J212D01*
G01*
X33545Y45400D02*
G03*
X33282Y45644I-245J0D01*
G01*
X33056Y45418D02*
G03*
X33545Y45400I244J-18D01*
G01*
X32117Y47270D02*
G03*
X32440Y47451I83J230D01*
G01*
Y47549D02*
G03*
X32025Y47671I-240J-49D01*
G01*
X32380Y46665D02*
G03*
X32117Y46910I-245J0D01*
G01*
Y46421D02*
G03*
X32380Y46665I18J244D01*
G01*
X32440Y46100D02*
G03*
X32487Y45987I160J0D01*
G01*
X32440Y46100D02*
G03*
X32487Y45987I160J0D01*
G01*
X32545Y44800D02*
G03*
X32271Y45043I-245J0D01*
G01*
Y44557D02*
G03*
X32545Y44800I29J243D01*
G01*
X31645Y51100D02*
G03*
X31560Y51286I-245J0D01*
G01*
X31240D02*
G03*
X31645Y51100I160J-186D01*
G01*
X31045Y50900D02*
G03*
X30960Y51086I-245J0D01*
G01*
X30731Y50665D02*
G03*
X31045Y50900I69J235D01*
G01*
X30845Y49100D02*
G03*
X30582Y49344I-245J0D01*
G01*
X30356Y49118D02*
G03*
X30845Y49100I244J-18D01*
G01*
X30345Y48200D02*
G03*
X30002Y48424I-245J0D01*
G01*
X31655Y47720D02*
G03*
X31583Y47763I-120J-120D01*
G01*
X31655Y47720D02*
G03*
X31583Y47763I-120J-120D01*
G01*
G03*
X31483Y47370I-183J-163D01*
G01*
X31345Y46200D02*
G03*
X31345Y46200I-245J0D01*
G01*
X30945Y46500D02*
G03*
X30456Y46482I-245J0D01*
G01*
X30682Y46256D02*
G03*
X30945Y46500I18J244D01*
G01*
X30942Y45600D02*
G03*
X31045Y45800I-142J200D01*
G01*
G03*
X30658Y45600I-245J0D01*
G01*
X31045Y45400D02*
G03*
X30942Y45600I-245J0D01*
G01*
X30658D02*
G03*
X30579Y45505I142J-200D01*
G01*
X30878Y45168D02*
G03*
X31045Y45400I-78J232D01*
G01*
X30929Y45088D02*
G03*
X30878Y45168I-229J-88D01*
G01*
X30463Y44937D02*
G03*
X30929Y44912I237J63D01*
G01*
X30000Y47976D02*
G03*
X30345Y48200I100J224D01*
G01*
X30087Y46113D02*
G03*
X30040Y46000I113J-113D01*
G01*
X30087Y46113D02*
G03*
X30040Y46000I113J-113D01*
G01*
X30313Y45287D02*
G03*
X30360Y45400I-113J113D01*
G01*
X30313Y45287D02*
G03*
X30360Y45400I-113J113D01*
G01*
X32645Y42800D02*
G03*
X32271Y43008I-245J0D01*
G01*
Y42592D02*
G03*
X32645Y42800I129J208D01*
G01*
X32345Y43800D02*
G03*
X32071Y44043I-245J0D01*
G01*
Y43557D02*
G03*
X32345Y43800I29J243D01*
G01*
Y41800D02*
G03*
X32071Y42043I-245J0D01*
G01*
Y41557D02*
G03*
X32345Y41800I29J243D01*
G01*
Y40800D02*
G03*
X32071Y41043I-245J0D01*
G01*
Y40557D02*
G03*
X32345Y40800I29J243D01*
G01*
Y39800D02*
G03*
X32071Y40043I-245J0D01*
G01*
Y39557D02*
G03*
X32345Y39800I29J243D01*
G01*
X34445Y38500D02*
G03*
X33957Y38471I-245J0D01*
G01*
X33760Y38714D02*
G03*
X33845Y38900I-160J186D01*
G01*
G03*
X33440Y38714I-245J0D01*
G01*
Y37401D02*
G03*
X33440Y36999I-140J-201D01*
G01*
X32545Y38800D02*
G03*
X32271Y39043I-245J0D01*
G01*
Y38557D02*
G03*
X32545Y38800I29J243D01*
G01*
X32170Y36902D02*
G03*
X32603Y37058I188J157D01*
G01*
X31724Y37083D02*
G03*
X32170Y36902I240J-48D01*
G01*
X31040Y43251D02*
G03*
X31045Y43300I-240J49D01*
G01*
G03*
X30963Y43483I-245J0D01*
G01*
X30930Y42117D02*
G03*
X30945Y42200I-230J83D01*
G01*
Y41400D02*
G03*
X30942Y41437I-245J0D01*
G01*
X30814Y44117D02*
G03*
X30729Y43657I-114J-217D01*
G01*
Y43534D02*
G03*
X30622Y43132I71J-234D01*
G01*
G03*
X30929Y42812I78J-232D01*
G01*
X30945Y42200D02*
G03*
X30729Y41957I-245J0D01*
G01*
X30668Y41643D02*
G03*
X30945Y41400I32J-243D01*
G01*
X30729Y40943D02*
G03*
X30814Y40483I-29J-243D01*
G01*
X30945Y39400D02*
G03*
X30930Y39483I-245J0D01*
G01*
X31460Y37200D02*
G03*
X31413Y37313I-160J0D01*
G01*
X31460Y37200D02*
G03*
X31413Y37313I-160J0D01*
G01*
X30729Y39643D02*
G03*
X30945Y39400I-29J-243D01*
G01*
X30842Y38600D02*
G03*
X30886Y38640I-142J200D01*
G01*
Y38960D02*
G03*
X30558Y38600I-186J-160D01*
G01*
X30929Y38488D02*
G03*
X30842Y38600I-229J-88D01*
G01*
X30558D02*
G03*
X30945Y38400I142J-200D01*
G01*
G03*
X30930Y38483I-245J0D01*
G01*
X31013Y37713D02*
G03*
X30900Y37760I-113J-113D01*
G01*
X31013Y37713D02*
G03*
X30900Y37760I-113J-113D01*
G01*
X52280Y54280D02*
X52300Y54300D01*
X49100Y53800D02*
X50210Y54910D01*
X47400Y53800D02*
X49100D01*
X47600Y45200D02*
X47625Y45225D01*
X52389Y38611D02*
X52400Y38600D01*
X47600Y37600D02*
X47666Y37666D01*
X41698Y34202D02*
X49702D01*
X50000Y33900D02*
X50013Y33887D01*
X41100Y33900D02*
X50000D01*
X49700Y33600D02*
X49728Y33572D01*
X40620Y33600D02*
X49700D01*
X40243Y33257D02*
X50057D01*
X43300Y37800D02*
X44064Y37036D01*
X49936D01*
X44449Y37351D02*
X49649D01*
X43435Y38365D02*
X44449Y37351D01*
X46500Y39100D02*
X47619Y37981D01*
X49919D01*
X49204Y38296D02*
X49704D01*
X44200Y39900D02*
X47600D01*
X49174Y38926D02*
X49874D01*
X43700Y41200D02*
X46900D01*
X49259Y39241D02*
X50259D01*
X44000Y41900D02*
X44400Y41500D01*
X49344Y39556D02*
X49944D01*
X44700Y42200D02*
X46700D01*
X49529Y39871D02*
X50129D01*
X43600Y43000D02*
X46400D01*
X43900Y43700D02*
X46800D01*
X50314Y40186D01*
X43800Y44400D02*
X46600D01*
X49800Y41200D01*
X43400Y45300D02*
X46300D01*
X49800Y41800D01*
X46255Y45845D02*
X49700Y42400D01*
X43800Y39600D02*
X45600D01*
X39937Y32600D02*
X40550Y31987D01*
X34700Y30900D02*
X35000D01*
X36700Y32600D01*
X42071Y53300D02*
X42200D01*
X42071Y53280D02*
X42200D01*
X42071Y53200D02*
X42200D01*
X42071Y53120D02*
X42200D01*
X42071Y52883D02*
Y53300D01*
Y53040D02*
X42200D01*
X42071Y52960D02*
X42200D01*
X41362Y48560D02*
X42200D01*
X41402Y52883D02*
X42071D01*
X41462Y48480D02*
X42200D01*
X41501Y48400D02*
X42200D01*
X41509Y48320D02*
X42200D01*
X41491Y48240D02*
X42200D01*
X41436Y48160D02*
X42200D01*
X40103Y48000D02*
X42200D01*
X40225Y47920D02*
X42200D01*
X40269Y47840D02*
X42200D01*
X40729Y52883D02*
Y53300D01*
X41440Y48506D02*
Y52883D01*
X40240Y47899D02*
Y53300D01*
X40400Y47717D02*
Y53300D01*
X40320Y47717D02*
Y53300D01*
X40080Y48005D02*
Y53300D01*
X40000Y48007D02*
Y53300D01*
X40160Y47976D02*
Y53300D01*
X39920Y47981D02*
Y53300D01*
X41360Y48561D02*
Y52883D01*
X41280Y48580D02*
Y52883D01*
X41200Y48571D02*
Y52883D01*
X41120Y48533D02*
Y52883D01*
X41040Y48432D02*
Y52883D01*
X40729D02*
X41398D01*
X40297Y47717D02*
X40471D01*
X41440Y46471D02*
Y48164D01*
X41360Y46484D02*
Y48109D01*
X41280Y46550D02*
Y48091D01*
X41600Y46294D02*
Y52883D01*
X41520Y46425D02*
Y52883D01*
X40471Y47680D02*
X42200D01*
X40471Y47600D02*
X42200D01*
X40471Y47520D02*
X42200D01*
X40471Y47440D02*
X42200D01*
X40602Y46717D02*
X41271D01*
Y46640D02*
X42200D01*
X41271Y46554D02*
Y46717D01*
Y46560D02*
X42200D01*
X40471Y47360D02*
X42200D01*
X40471Y47280D02*
X42200D01*
X40471Y47200D02*
X42200D01*
X40471Y47120D02*
X42200D01*
X41040Y46717D02*
Y48238D01*
X41120Y46717D02*
Y48138D01*
X40960Y46717D02*
Y52883D01*
X40880Y46717D02*
Y52883D01*
X40800Y46717D02*
Y52883D01*
X40720Y46717D02*
Y53300D01*
X40640Y46717D02*
Y53300D01*
X40560Y46717D02*
Y53300D01*
X40480Y46717D02*
Y53300D01*
X41200Y46717D02*
Y48099D01*
X40471Y47083D02*
Y47717D01*
X40400Y46717D02*
Y47083D01*
X40320Y46717D02*
Y47083D01*
X40240Y46717D02*
Y47083D01*
X40160Y46717D02*
Y47083D01*
X40080Y46717D02*
Y47083D01*
X40000Y46717D02*
Y47083D01*
X39060Y52880D02*
X42200D01*
X39060Y52800D02*
X42200D01*
X39060Y52720D02*
X42200D01*
X39060Y52640D02*
X42200D01*
X39060Y52560D02*
X42200D01*
X39060Y52480D02*
X42200D01*
X39060Y52400D02*
X42200D01*
X39060Y52320D02*
X42200D01*
X39060Y52240D02*
X42200D01*
X39060Y52160D02*
X42200D01*
X39060Y52080D02*
X42200D01*
X39060Y52000D02*
X42200D01*
X39060Y51920D02*
X42200D01*
X39060Y51840D02*
X42200D01*
X39060Y51760D02*
X42200D01*
X39060Y51680D02*
X42200D01*
X39060Y51600D02*
X42200D01*
X39060Y51520D02*
X42200D01*
X39042Y53300D02*
X40729D01*
X39124Y53200D02*
X40729D01*
X39144Y53120D02*
X40729D01*
X39138Y53040D02*
X40729D01*
X39101Y52960D02*
X40729D01*
X39048Y51440D02*
X42200D01*
X39066Y53280D02*
X40729D01*
X38986Y51360D02*
X42200D01*
X38906Y51280D02*
X42200D01*
X38826Y51200D02*
X42200D01*
X38746Y51120D02*
X42200D01*
X38666Y51040D02*
X42200D01*
X38586Y50960D02*
X42200D01*
X38506Y50880D02*
X42200D01*
X38426Y50800D02*
X42200D01*
X38346Y50720D02*
X42200D01*
X38266Y50640D02*
X42200D01*
X38186Y50560D02*
X42200D01*
X38106Y50480D02*
X42200D01*
X38026Y50400D02*
X42200D01*
X37946Y50320D02*
X42200D01*
X37866Y50240D02*
X42200D01*
X37786Y50160D02*
X42200D01*
X37706Y50080D02*
X42200D01*
X37626Y50000D02*
X42200D01*
X37546Y49920D02*
X42200D01*
X37466Y49840D02*
X42200D01*
X37386Y49760D02*
X42200D01*
X37306Y49680D02*
X42200D01*
X37226Y49600D02*
X42200D01*
X37146Y49520D02*
X42200D01*
X37127Y49440D02*
X42200D01*
X37096Y49360D02*
X42200D01*
X37019Y49280D02*
X42200D01*
X36242Y49200D02*
X42200D01*
X36314Y49120D02*
X42200D01*
X36342Y49040D02*
X42200D01*
X36342Y48960D02*
X42200D01*
X39802Y47083D02*
X40471D01*
X39920Y46644D02*
Y47083D01*
X36314Y48880D02*
X42200D01*
X36242Y48800D02*
X42200D01*
X35101Y48720D02*
X42200D01*
X34951Y48640D02*
X42200D01*
X38317Y47040D02*
X42200D01*
X39929Y46717D02*
X40598D01*
X39929Y46643D02*
Y46717D01*
X38317Y46960D02*
X42200D01*
X38317Y46880D02*
X42200D01*
X38317Y46800D02*
X42200D01*
X38317Y46720D02*
X42200D01*
X41546Y46400D02*
X42200D01*
X41592Y46320D02*
X42200D01*
X41606Y46240D02*
X42200D01*
X41593Y46160D02*
X42200D01*
X41548Y46080D02*
X42200D01*
X41403Y46480D02*
X42200D01*
X41417Y46000D02*
X42200D01*
X41271Y45440D02*
X42200D01*
X41271Y45360D02*
X42200D01*
X41271Y45280D02*
X42200D01*
X41271Y45200D02*
X42200D01*
X41271Y45120D02*
X42200D01*
X41271Y45040D02*
X42200D01*
X41271Y44960D02*
X42200D01*
X40844Y44720D02*
X42200D01*
X41271Y44480D02*
X42200D01*
X41320Y46520D02*
X41357Y46484D01*
X41200Y45517D02*
Y46054D01*
X41271Y44883D02*
Y45517D01*
X41280Y44444D02*
Y46008D01*
X41120Y45517D02*
Y46083D01*
X41040Y45517D02*
Y46083D01*
X40960Y45517D02*
Y46083D01*
X40880Y45517D02*
Y46083D01*
X41200Y44517D02*
Y44883D01*
X41120Y44517D02*
Y44883D01*
X41040Y44517D02*
Y44883D01*
X41271Y44443D02*
Y44517D01*
X40960D02*
Y44883D01*
X40880Y44517D02*
Y44883D01*
X41442Y44400D02*
X42200D01*
X41514Y44320D02*
X42200D01*
X41542Y44240D02*
X42200D01*
X41542Y44160D02*
X42200D01*
X41514Y44080D02*
X42200D01*
X41442Y44000D02*
X42200D01*
X41271Y43920D02*
X42200D01*
X41428Y43680D02*
X42200D01*
X41498Y43600D02*
X42200D01*
X41525Y43520D02*
X42200D01*
X41524Y43440D02*
X42200D01*
X41495Y43360D02*
X42200D01*
X41420Y43280D02*
X42200D01*
X41271Y43200D02*
X42200D01*
X41271Y43120D02*
X42200D01*
X41271Y43040D02*
X42200D01*
X41271Y42960D02*
X42200D01*
X41520Y44308D02*
Y46052D01*
X41440Y44401D02*
Y46007D01*
X41360Y44438D02*
Y45994D01*
X41520Y43544D02*
Y44092D01*
X41440Y43670D02*
Y43999D01*
X41271Y43883D02*
Y43957D01*
X41360Y43715D02*
Y43962D01*
X41280Y43728D02*
Y43956D01*
X41200Y43713D02*
Y43883D01*
X41120Y43666D02*
Y43883D01*
X41271Y42883D02*
Y43231D01*
X41040Y43517D02*
Y43883D01*
X40960Y43517D02*
Y43883D01*
X40880Y43517D02*
Y43883D01*
X40800Y45517D02*
Y46083D01*
X40766Y44880D02*
X42200D01*
X40720Y45517D02*
Y46083D01*
X40763Y44883D02*
X41271D01*
X40602Y46083D02*
X41172D01*
X38108Y46080D02*
X41175D01*
X40602Y45517D02*
X41271D01*
X40640D02*
Y46083D01*
X40824Y44800D02*
X42200D01*
X40838Y44640D02*
X42200D01*
X40800Y44842D02*
Y44883D01*
X40801Y44560D02*
X42200D01*
X40800Y44517D02*
Y44558D01*
X40763Y44517D02*
X41271D01*
X39060Y43840D02*
X42200D01*
X40602Y43883D02*
X41271D01*
X40560Y45517D02*
Y46083D01*
X40480Y45517D02*
Y46083D01*
X40400Y45517D02*
Y46083D01*
X40320Y45517D02*
Y46083D01*
X40240Y45517D02*
Y46083D01*
X39929D02*
X40598D01*
X39929D02*
Y46157D01*
X40160Y45517D02*
Y46083D01*
X40080Y45517D02*
Y46083D01*
X39929Y45517D02*
X40598D01*
X39929Y44883D02*
X40437D01*
X40000Y45517D02*
Y46083D01*
X39500Y44860D02*
X40414D01*
X39566Y44540D02*
X40414D01*
X39929Y43883D02*
X40598D01*
X39929Y44517D02*
X40437D01*
X40800Y43517D02*
Y43883D01*
X40720Y43517D02*
Y43883D01*
X40640Y43517D02*
Y43883D01*
X40602Y43517D02*
X41040D01*
X39929D02*
X40598D01*
X39060Y43760D02*
X42200D01*
X39060Y43680D02*
X41137D01*
X39060Y43600D02*
X41068D01*
X39060Y43520D02*
X41041D01*
X40720Y42737D02*
Y42883D01*
X40767Y42720D02*
X42200D01*
X40640Y42744D02*
Y42883D01*
X40860Y42640D02*
X42200D01*
X40800Y42700D02*
Y42883D01*
X40602D02*
X41271D01*
X39929D02*
X40598D01*
X39132Y42880D02*
X42200D01*
X39145Y42800D02*
X42200D01*
X40560Y43517D02*
Y43883D01*
X40480Y43517D02*
Y43883D01*
X40400Y43517D02*
Y43883D01*
X40560Y42724D02*
Y42883D01*
X40320Y43517D02*
Y43883D01*
X40240Y43517D02*
Y43883D01*
X40160Y43517D02*
Y43883D01*
X40080Y43517D02*
Y43883D01*
X40000Y43517D02*
Y43883D01*
X40480Y42667D02*
Y42883D01*
X40400Y42660D02*
Y42883D01*
X40320Y42660D02*
Y42883D01*
X40240Y42660D02*
Y42883D01*
X39132Y42720D02*
X40551D01*
X40160Y42660D02*
Y42883D01*
X40080Y42660D02*
Y42883D01*
X40000Y42660D02*
Y42883D01*
X39680Y47984D02*
Y53300D01*
X39120Y53208D02*
Y53300D01*
X39760Y47956D02*
Y53300D01*
X39600Y47983D02*
Y53300D01*
X38720Y53266D02*
Y53300D01*
X38640Y51466D02*
Y53300D01*
X38560Y51386D02*
Y53300D01*
X39060Y51500D02*
Y52914D01*
X38740Y51566D02*
Y52914D01*
X38720Y51546D02*
Y52934D01*
X38480Y51306D02*
Y53300D01*
X37130Y49504D02*
X39013Y51387D01*
X38480Y47984D02*
Y50854D01*
X38400Y51226D02*
Y53300D01*
X38320Y51146D02*
Y53300D01*
X38240Y51066D02*
Y53300D01*
X38160Y50986D02*
Y53300D01*
X38080Y50906D02*
Y53300D01*
X38000Y50826D02*
Y53300D01*
X37920Y50746D02*
Y53300D01*
X37840Y50666D02*
Y53300D01*
X37760Y50586D02*
Y53300D01*
X37680Y50506D02*
Y53300D01*
X37600Y50426D02*
Y53300D01*
X37520Y50346D02*
Y53300D01*
X37440Y50266D02*
Y53300D01*
X37360Y50186D02*
Y53300D01*
X37280Y50106D02*
Y53300D01*
X37200Y50026D02*
Y53300D01*
X37120Y49946D02*
Y53300D01*
X37040Y49866D02*
Y53300D01*
X39840Y47912D02*
Y53300D01*
X39520Y47954D02*
Y53300D01*
X39440Y47881D02*
Y53300D01*
X39360Y47717D02*
Y53300D01*
X39280Y47717D02*
Y53300D01*
X39200Y47717D02*
Y53300D01*
X39120Y44546D02*
Y52992D01*
X39040Y44466D02*
Y51423D01*
X38960Y44386D02*
Y51334D01*
X39810Y47920D02*
X39846D01*
X38684Y47840D02*
X39417D01*
X38880Y44306D02*
Y51254D01*
X38800Y44226D02*
Y51174D01*
X38626Y47920D02*
X39474D01*
X38705Y47760D02*
X39397D01*
X38560Y47963D02*
Y50934D01*
X38400Y47977D02*
Y50774D01*
X38320Y47940D02*
Y50694D01*
X38720Y42966D02*
Y51094D01*
X38640Y47906D02*
Y51014D01*
X38240Y47846D02*
Y50614D01*
X38160Y47671D02*
Y50534D01*
X38080Y47671D02*
Y50454D01*
X38000Y47671D02*
Y50374D01*
X37920Y47671D02*
Y50294D01*
X37840Y47671D02*
Y50214D01*
X37760Y47671D02*
Y50134D01*
X37600Y42724D02*
Y49974D01*
X37520Y42744D02*
Y49894D01*
X37040Y47671D02*
Y49295D01*
X37440Y42738D02*
Y49814D01*
X37360Y42701D02*
Y49734D01*
X36960Y49786D02*
Y53300D01*
X36880Y49731D02*
Y53300D01*
X36800Y49715D02*
Y53300D01*
X36720Y49666D02*
Y53300D01*
X36240Y49201D02*
Y53300D01*
X34424D02*
X38758D01*
X34414Y53280D02*
X38734D01*
X36160Y49238D02*
Y53300D01*
X36080Y49244D02*
Y53300D01*
X35424Y52000D02*
X38740D01*
X35444Y51920D02*
X38740D01*
X35438Y51840D02*
X38740D01*
X36904Y49730D02*
X38740Y51566D01*
X35366Y52080D02*
X38740D01*
X34342Y53200D02*
X38676D01*
X35401Y51760D02*
X38740D01*
X35308Y51680D02*
X38740D01*
X35280Y52132D02*
Y53300D01*
X35200Y52145D02*
Y53300D01*
X35120Y52132D02*
Y53300D01*
X35440Y51949D02*
Y53300D01*
X35360Y52086D02*
Y53300D01*
X35040Y52086D02*
Y53300D01*
X34320Y52114D02*
Y53186D01*
X34960Y51949D02*
Y53300D01*
X34400Y52042D02*
Y53258D01*
X34424Y52000D02*
X34976D01*
X34438Y51840D02*
X34962D01*
X34444Y51920D02*
X34956D01*
X34401Y51760D02*
X34999D01*
X34240Y52142D02*
Y53158D01*
X34160Y52142D02*
Y53158D01*
X34308Y51680D02*
X35092D01*
X34366Y52080D02*
X35034D01*
X36720Y47954D02*
Y49305D01*
X36800Y47929D02*
Y49256D01*
X36640Y47951D02*
Y53300D01*
X36960Y47671D02*
Y49252D01*
X36560Y47919D02*
Y53300D01*
X36000Y49224D02*
Y53300D01*
X35920Y49166D02*
Y53300D01*
X36480Y47839D02*
Y53300D01*
X36320Y49108D02*
Y53300D01*
X36880Y47864D02*
Y49241D01*
X36817Y47920D02*
X38295D01*
X36897Y47840D02*
X38237D01*
X35148Y48800D02*
X35958D01*
X34978Y49120D02*
X35886D01*
X35439Y47920D02*
X36561D01*
X35519Y47840D02*
X36481D01*
X35360Y47951D02*
Y51714D01*
X35280Y47954D02*
Y51668D01*
X35040Y49095D02*
Y51714D01*
X35520Y47839D02*
Y53300D01*
X35440Y47919D02*
Y51851D01*
X34960Y49124D02*
Y51851D01*
X34880Y49125D02*
Y53300D01*
X34800Y49098D02*
Y53300D01*
X34720Y49028D02*
Y53300D01*
X35150Y48960D02*
X35858D01*
X35120Y49020D02*
Y51668D01*
X35162Y48880D02*
X35886D01*
X35200Y47929D02*
Y51655D01*
X35105Y49040D02*
X35858D01*
X35120Y47864D02*
Y48745D01*
X39840Y46638D02*
Y47083D01*
X39920Y45444D02*
Y46156D01*
X39760Y46601D02*
Y47083D01*
X39929Y45443D02*
Y45517D01*
X39840Y45438D02*
Y46162D01*
X39129Y47083D02*
X39798D01*
X39760Y45401D02*
Y46199D01*
Y44860D02*
Y44999D01*
X39929Y44883D02*
Y44957D01*
X39920Y44860D02*
Y44956D01*
X39840Y44860D02*
Y44962D01*
X39920Y44444D02*
Y44540D01*
X39929Y44443D02*
Y44517D01*
X39506Y44480D02*
X39929D01*
X39840Y44438D02*
Y44540D01*
X39760Y44401D02*
Y44540D01*
X39426Y44400D02*
X39758D01*
X39680Y46508D02*
Y47083D01*
X39600Y44860D02*
Y47083D01*
X39520Y44860D02*
Y47083D01*
X39440Y44848D02*
Y47083D01*
X39360Y44786D02*
Y47083D01*
X39129Y47717D02*
X39376D01*
X38698Y47680D02*
X39129D01*
X38662Y47600D02*
X39129D01*
Y47083D02*
Y47717D01*
X39680Y45308D02*
Y46292D01*
Y44860D02*
Y45092D01*
Y44308D02*
Y44540D01*
X39280Y44706D02*
Y47083D01*
X39200Y44626D02*
Y47083D01*
X39346Y44320D02*
X39686D01*
X39266Y44240D02*
X39658D01*
X39929Y43883D02*
Y43957D01*
X39920Y43444D02*
Y43956D01*
X39929Y43443D02*
Y43517D01*
X39840Y43438D02*
Y43962D01*
X39760Y43401D02*
Y43999D01*
X39060Y44000D02*
X39758D01*
X39106Y44080D02*
X39686D01*
X39060Y43920D02*
X39929D01*
Y42883D02*
Y42957D01*
X39920Y42660D02*
Y42956D01*
X39840Y42660D02*
Y42962D01*
X39760Y42660D02*
Y42999D01*
X39060Y43440D02*
X39851D01*
X39060Y43360D02*
X39714D01*
X39086Y42960D02*
X39851D01*
X39060Y43040D02*
X39714D01*
X39600Y42660D02*
Y44540D01*
X39186Y44160D02*
X39658D01*
X39060Y44034D02*
X39566Y44540D01*
X39520Y42660D02*
Y44494D01*
X39440Y42660D02*
Y44414D01*
X38787Y44213D02*
X39387Y44813D01*
X38740Y42986D02*
Y44100D01*
X39680Y43308D02*
Y44092D01*
X39060Y42986D02*
Y44034D01*
X39680Y42660D02*
Y43092D01*
X39120Y42908D02*
Y44094D01*
X39060Y43280D02*
X39668D01*
X39060Y43200D02*
X39655D01*
X39060Y43120D02*
X39668D01*
X38570Y47520D02*
X39129D01*
X38317D02*
X38352D01*
X37683Y47671D02*
X38225D01*
X38317Y47002D02*
Y47541D01*
X36929Y47760D02*
X38217D01*
X36950Y47680D02*
X38223D01*
X37117Y47600D02*
X37683D01*
X37117Y47520D02*
X37683D01*
X38317Y47440D02*
X39129D01*
X38317Y47360D02*
X39129D01*
X38317Y47280D02*
X39129D01*
X38317Y47200D02*
X39129D01*
X38317Y47120D02*
X39129D01*
X37117Y47440D02*
X37683D01*
X37117Y47360D02*
X37683D01*
X36954Y47671D02*
X37117D01*
X37683Y47002D02*
Y47671D01*
X37117Y47002D02*
Y47671D01*
X35551Y47760D02*
X36449D01*
X35554Y47680D02*
X36446D01*
X35529Y47600D02*
X36471D01*
X36483Y47002D02*
Y47578D01*
X37117Y47280D02*
X37683D01*
X37117Y47200D02*
X37683D01*
X37117Y47120D02*
X37683D01*
X37117Y47040D02*
X37683D01*
X37117Y46960D02*
X37683D01*
X35464Y47520D02*
X36483D01*
X34117Y47120D02*
X36483D01*
X34117Y47040D02*
X36483D01*
X34117Y46960D02*
X36483D01*
X38317Y46640D02*
X39851D01*
X38317Y46560D02*
X39714D01*
X38317Y46480D02*
X39668D01*
X38317Y46400D02*
X39655D01*
X38317Y46329D02*
Y46998D01*
X37117Y46880D02*
X37683D01*
X37117Y46800D02*
X37683D01*
X37117Y46720D02*
X37683D01*
X37117Y46640D02*
X37683D01*
X38243Y46329D02*
X38317D01*
X38238Y46240D02*
X39714D01*
X37683Y46329D02*
X37757D01*
X38201Y46160D02*
X39851D01*
X37001D02*
X37799D01*
X37038Y46240D02*
X37762D01*
X37608Y42720D02*
X38668D01*
X36908Y46080D02*
X37892D01*
X37683Y46329D02*
Y46998D01*
X37117Y46560D02*
X37683D01*
X37117Y46329D02*
Y46998D01*
X36483Y46329D02*
Y46998D01*
X34117Y46329D02*
Y46998D01*
Y46880D02*
X36483D01*
X34117Y46800D02*
X36483D01*
X34117Y46720D02*
X36483D01*
X34117Y46640D02*
X36483D01*
X37117Y46480D02*
X37683D01*
X37117Y46400D02*
X37683D01*
X37043Y46329D02*
X37117D01*
X34117Y46560D02*
X36483D01*
X34117Y46480D02*
X36483D01*
Y46329D02*
X36557D01*
X34117Y46400D02*
X36483D01*
X41551Y41760D02*
X42200D01*
X41554Y41680D02*
X42200D01*
X41529Y41600D02*
X42200D01*
X41555Y41520D02*
X42200D01*
X41629Y41440D02*
X42200D01*
X40903Y42480D02*
X42200D01*
X41439Y41920D02*
X42200D01*
X41519Y41840D02*
X42200D01*
X41659Y41360D02*
X42200D01*
X41659Y41280D02*
X42200D01*
X41632Y41200D02*
X42200D01*
X41563Y41120D02*
X42200D01*
X41487Y40800D02*
X42200D01*
X41335Y41040D02*
X42200D01*
X41400Y40960D02*
X42200D01*
X41456Y40880D02*
X42200D01*
X41440Y41919D02*
Y43295D01*
X41360Y41951D02*
Y43250D01*
X41280Y41954D02*
Y43238D01*
X41600Y41481D02*
Y46183D01*
X41520Y41839D02*
Y43422D01*
X41200Y41929D02*
Y42883D01*
X41120Y41864D02*
Y42883D01*
X41040Y41517D02*
Y42883D01*
X40960Y41517D02*
Y42883D01*
X41520Y41540D02*
Y41583D01*
X41440Y40904D02*
Y41073D01*
X41120Y41517D02*
Y41558D01*
X41360Y41015D02*
Y41079D01*
X41271Y41104D02*
X41366Y41009D01*
X42200Y36426D02*
Y53300D01*
X42160Y36386D02*
Y53300D01*
X42080Y36306D02*
Y53300D01*
X42000Y36300D02*
Y52883D01*
X41920Y36300D02*
Y52883D01*
X41489Y40720D02*
X42200D01*
X41463Y40640D02*
X42200D01*
X41840Y36300D02*
Y52883D01*
X41760Y36300D02*
Y52883D01*
X41396Y40560D02*
X42200D01*
X41271Y40480D02*
X42200D01*
X41271Y40400D02*
X42200D01*
X41442Y40000D02*
X42200D01*
X41514Y39920D02*
X42200D01*
X41271Y40320D02*
X42200D01*
X41271Y40240D02*
X42200D01*
X41271Y40160D02*
X42200D01*
X41271Y40080D02*
X42200D01*
X41520Y39908D02*
Y41095D01*
X41440Y40001D02*
Y40604D01*
X41680Y36300D02*
Y52883D01*
X41600Y38798D02*
Y41154D01*
X41040Y40517D02*
Y40621D01*
X40960Y40517D02*
Y40883D01*
X41360Y40038D02*
Y40537D01*
X41280Y40044D02*
Y40511D01*
X41271Y40043D02*
Y40510D01*
X41040Y38917D02*
Y39883D01*
X40960Y38917D02*
Y39883D01*
X40896Y42560D02*
X42200D01*
X40883Y42400D02*
X42200D01*
X40880Y42606D02*
Y42883D01*
X40825Y42320D02*
X42200D01*
X40880Y41517D02*
Y42394D01*
X38149Y42240D02*
X42200D01*
X38286Y42160D02*
X42200D01*
X38332Y42080D02*
X42200D01*
X38345Y42000D02*
X42200D01*
X38332Y41920D02*
X41183D01*
X40602Y41517D02*
X41162D01*
X38286Y41840D02*
X41103D01*
X38260Y41760D02*
X41071D01*
X38260Y41680D02*
X41068D01*
X38260Y41520D02*
X41158D01*
X38260Y41600D02*
X41093D01*
X40480Y41517D02*
Y42333D01*
X40400Y41517D02*
Y42340D01*
X40320Y41517D02*
Y42340D01*
X40240Y41517D02*
Y42340D01*
X40160Y41517D02*
Y42340D01*
X39101Y42660D02*
X40473D01*
X37686Y42340D02*
X40473D01*
X40080Y41517D02*
Y42340D01*
X40000Y41517D02*
Y42340D01*
X40800Y41517D02*
Y42300D01*
X40720Y41517D02*
Y42263D01*
X40640Y41517D02*
Y42256D01*
X40560Y41517D02*
Y42276D01*
X39920Y41444D02*
Y42340D01*
X39929Y41517D02*
X40598D01*
X37666Y42320D02*
X40493D01*
X39929Y41443D02*
Y41517D01*
X39840Y41438D02*
Y42340D01*
X40602Y40883D02*
X41011D01*
X40880Y40517D02*
Y40883D01*
X40800Y40517D02*
Y40883D01*
X40720Y40517D02*
Y40883D01*
X40640Y40517D02*
Y40883D01*
X38260Y40800D02*
X41005D01*
X39929Y40883D02*
X40598D01*
X40560Y40517D02*
Y40883D01*
X40480Y40517D02*
Y40883D01*
X40602Y40517D02*
X41184D01*
X40602Y39883D02*
X41070D01*
X38260Y40640D02*
X41029D01*
X38260Y40720D02*
X41003D01*
X38260Y40560D02*
X41096D01*
X39929Y40517D02*
X40598D01*
X40400D02*
Y40883D01*
X40320Y40517D02*
Y40883D01*
X39929D02*
Y40957D01*
X40240Y40517D02*
Y40883D01*
X40160Y40517D02*
Y40883D01*
X38260Y41440D02*
X39851D01*
X39920Y40444D02*
Y40956D01*
X38260Y40960D02*
X39851D01*
X40080Y40517D02*
Y40883D01*
X40000Y40517D02*
Y40883D01*
X39929Y40443D02*
Y40517D01*
Y39883D02*
Y39957D01*
X38260Y40480D02*
X39929D01*
X38260Y39920D02*
X39929D01*
X39920Y38844D02*
Y39956D01*
X41542Y39840D02*
X42200D01*
X41571Y38880D02*
X42200D01*
X41600Y38800D02*
X42200D01*
X41600Y38720D02*
X42200D01*
X41573Y38640D02*
X42200D01*
X41542Y39760D02*
X42200D01*
X41514Y39680D02*
X42200D01*
X41442Y39600D02*
X42200D01*
X41497Y38960D02*
X42200D01*
X41502Y38560D02*
X42200D01*
X41501Y38240D02*
X42200D01*
X41538Y38160D02*
X42200D01*
X41544Y38080D02*
X42200D01*
X41524Y38000D02*
X42200D01*
X41271Y38480D02*
X42200D01*
X41271Y38400D02*
X42200D01*
X41408Y38320D02*
X42200D01*
X41466Y37920D02*
X42200D01*
X41440Y38989D02*
Y39599D01*
X41360Y39003D02*
Y39562D01*
X41280Y38990D02*
Y39556D01*
X41520Y38942D02*
Y39692D01*
X41200Y38945D02*
Y39576D01*
X41120Y38917D02*
Y39634D01*
X40880Y38917D02*
Y39883D01*
X40800Y38917D02*
Y39883D01*
X40720Y38917D02*
Y39883D01*
X41360Y38338D02*
Y38513D01*
X41271Y38343D02*
Y38529D01*
X41520Y38208D02*
Y38574D01*
X41440Y38301D02*
Y38527D01*
X41280Y38344D02*
Y38526D01*
X41520Y37521D02*
Y37992D01*
X41428Y37600D02*
X42200D01*
X41440Y37594D02*
Y37899D01*
X41600Y36300D02*
Y38718D01*
X41271Y37840D02*
X42200D01*
X41271Y37760D02*
X42200D01*
X41271Y37680D02*
X42200D01*
X41521Y37520D02*
X42200D01*
X41557Y37440D02*
X42200D01*
X41564Y37360D02*
X42200D01*
X41543Y37280D02*
X42200D01*
X42074Y36300D02*
X42200Y36426D01*
X41486Y37200D02*
X42200D01*
X41520Y36300D02*
Y37239D01*
X41440Y36300D02*
Y37167D01*
X41280Y37660D02*
Y37856D01*
X41271Y37669D02*
Y37857D01*
X41040Y37917D02*
Y38283D01*
X41360Y37622D02*
Y37862D01*
X41271Y37669D02*
X41315Y37625D01*
X40960Y37917D02*
Y38283D01*
X40880Y37917D02*
Y38283D01*
X40800Y37917D02*
Y38283D01*
X40720Y37917D02*
Y38283D01*
X41360Y36300D02*
Y37139D01*
X41280Y36300D02*
Y37139D01*
X41200Y36300D02*
Y37167D01*
X41120Y36300D02*
Y37238D01*
X41040Y36300D02*
Y37283D01*
X40960Y36300D02*
Y37283D01*
X40880Y36300D02*
Y37283D01*
X40800Y36300D02*
Y37283D01*
X40640Y38917D02*
Y39883D01*
X38338Y39760D02*
X41058D01*
X39929Y39883D02*
X40598D01*
X40602Y38917D02*
X41172D01*
X39929D02*
X40598D01*
X38344Y39680D02*
X41086D01*
X38301Y39840D02*
X41058D01*
X38266Y39520D02*
X42200D01*
X38324Y39600D02*
X41158D01*
X40602Y38283D02*
X41137D01*
X38517Y38240D02*
X41099D01*
X39929Y38283D02*
X40598D01*
X40602Y37917D02*
X41137D01*
X40640D02*
Y38283D01*
X38517Y38160D02*
X41062D01*
X38517Y38080D02*
X41056D01*
X38517Y37920D02*
X41134D01*
X38517Y38000D02*
X41076D01*
X40560Y38917D02*
Y39883D01*
X40480Y38917D02*
Y39883D01*
X40400Y38917D02*
Y39883D01*
X40320Y38917D02*
Y39883D01*
X40240Y38917D02*
Y39883D01*
X40160Y38917D02*
Y39883D01*
X40080Y38917D02*
Y39883D01*
X40000Y38917D02*
Y39883D01*
X39929Y38843D02*
Y38917D01*
X40560Y37917D02*
Y38283D01*
X40480Y37917D02*
Y38283D01*
X40400Y37917D02*
Y38283D01*
X40320Y37917D02*
Y38283D01*
X40240Y37917D02*
Y38283D01*
X38517Y38320D02*
X39929D01*
X40160Y37917D02*
Y38283D01*
X39929D02*
Y38357D01*
X40602Y37283D02*
X41095D01*
X40720Y36300D02*
Y37283D01*
X40505D02*
X40598D01*
X40640Y36300D02*
Y37283D01*
X40560Y36300D02*
Y37283D01*
X40506Y37280D02*
X41096D01*
X39929Y37917D02*
X40598D01*
X40482Y37120D02*
X42200D01*
X40414Y37040D02*
X42200D01*
X40508Y37200D02*
X41154D01*
X40480Y36300D02*
Y37117D01*
X40400Y36300D02*
Y37030D01*
X39849Y36960D02*
X42200D01*
X37286Y36880D02*
X42200D01*
X37196Y36800D02*
X42200D01*
X40320Y36300D02*
Y36996D01*
X40080Y37917D02*
Y38283D01*
X40000Y37917D02*
Y38283D01*
X38517Y37840D02*
X39929D01*
X39920Y37414D02*
Y38356D01*
X39929Y37408D02*
Y37917D01*
X38517Y37760D02*
X39929D01*
X38517Y37680D02*
X39929D01*
X38517Y37600D02*
X39929D01*
X38517Y37520D02*
X39929D01*
X40240Y36300D02*
Y36991D01*
X40160Y36300D02*
Y37013D01*
X40080Y36300D02*
Y37074D01*
X40000Y36300D02*
Y37058D01*
X39986Y37040D02*
X40117D01*
X39849Y37440D02*
X39929D01*
X39920Y36300D02*
Y36986D01*
X39360Y42660D02*
Y44334D01*
X39280Y42660D02*
Y44254D01*
X39200Y42660D02*
Y44174D01*
X39760Y41401D02*
Y42340D01*
X39680Y41308D02*
Y42340D01*
X38260Y41360D02*
X39714D01*
X38260Y41280D02*
X39668D01*
X38260Y41200D02*
X39655D01*
X38260Y41120D02*
X39668D01*
X39760Y40401D02*
Y40999D01*
X39840Y40438D02*
Y40962D01*
X38260Y41040D02*
X39714D01*
X38260Y40400D02*
X39758D01*
X39680Y40308D02*
Y41092D01*
X38260Y40320D02*
X39686D01*
X38260Y40240D02*
X39658D01*
X38260Y40080D02*
X39686D01*
X38260Y40160D02*
X39658D01*
X38640Y42660D02*
Y47572D01*
X38560Y42660D02*
Y47515D01*
X38480Y42660D02*
Y47495D01*
X38400Y42660D02*
Y47502D01*
X38320Y42660D02*
Y47539D01*
X38240Y42660D02*
Y46251D01*
X38160Y42660D02*
Y46114D01*
X38080Y42660D02*
Y46068D01*
X38000Y42660D02*
Y46055D01*
X39120Y42660D02*
Y42692D01*
X38320Y42108D02*
Y42340D01*
X38160Y42238D02*
Y42340D01*
X38080Y42244D02*
Y42340D01*
X38240Y42201D02*
Y42340D01*
X38000Y42224D02*
Y42340D01*
X39600Y37342D02*
Y42340D01*
X39520Y36300D02*
Y42340D01*
X39440Y36300D02*
Y42340D01*
X39360Y36300D02*
Y42340D01*
X39280Y36300D02*
Y42340D01*
X39040Y37314D02*
Y42340D01*
X38960Y37375D02*
Y42340D01*
X39200Y36300D02*
Y42340D01*
X39120Y36300D02*
Y42340D01*
X39760Y38801D02*
Y39999D01*
X39840Y38838D02*
Y39962D01*
X39680Y38708D02*
Y40092D01*
Y37414D02*
Y38492D01*
X38880Y37398D02*
Y42340D01*
X38260Y40000D02*
X39758D01*
X38308Y38720D02*
X39686D01*
X38401Y38640D02*
X39658D01*
X38438Y38560D02*
X39658D01*
X38800Y37393D02*
Y42340D01*
X38720Y37359D02*
Y42340D01*
X38480Y38471D02*
Y42340D01*
X38640Y37273D02*
Y42340D01*
X38560Y36300D02*
Y42340D01*
X38320Y39808D02*
Y41892D01*
X38260Y39886D02*
Y41814D01*
X38400Y38642D02*
Y42340D01*
X38320Y38714D02*
Y39592D01*
X38240Y38742D02*
Y39499D01*
X38443Y38471D02*
X38517D01*
Y37802D02*
Y38471D01*
X38160Y38742D02*
Y39462D01*
X38080Y38714D02*
Y39456D01*
X38000Y38642D02*
Y39476D01*
X37840Y42660D02*
Y46114D01*
X37920Y42660D02*
Y46068D01*
X37760Y42660D02*
Y46251D01*
X37680Y42666D02*
Y50054D01*
X37280Y42608D02*
Y49654D01*
X37040Y38742D02*
Y46251D01*
X37200Y38642D02*
Y49574D01*
X37120Y38714D02*
Y49414D01*
X37940Y39886D02*
Y41814D01*
X37920Y42166D02*
Y42340D01*
Y39866D02*
Y41834D01*
X37686Y42660D02*
X38699D01*
X37108Y38720D02*
X38092D01*
X37201Y38640D02*
X37999D01*
X37238Y38560D02*
X37962D01*
X35520Y38714D02*
Y47583D01*
X35440Y38742D02*
Y47503D01*
X35360Y38742D02*
Y47471D01*
X35600Y38642D02*
Y53300D01*
X35200Y38642D02*
Y47493D01*
X34240Y38742D02*
Y51658D01*
X34160Y38742D02*
Y51658D01*
X34400Y38642D02*
Y51758D01*
X34320Y38714D02*
Y51686D01*
X36960Y38742D02*
Y46114D01*
X36880Y38714D02*
Y46068D01*
X36800Y38642D02*
Y46055D01*
X35601Y38640D02*
X36799D01*
X35638Y38560D02*
X36762D01*
X35508Y38720D02*
X36892D01*
X35280Y38714D02*
Y47468D01*
X34308Y38720D02*
X35292D01*
X34401Y38640D02*
X35199D01*
X36720Y38471D02*
Y46068D01*
X37280Y38471D02*
Y42392D01*
X36640Y36300D02*
Y46114D01*
X36560Y36300D02*
Y46251D01*
X36480Y36300D02*
Y47583D01*
X36400Y36300D02*
Y53300D01*
X36320Y36300D02*
Y48892D01*
X36240Y36300D02*
Y48799D01*
X36160Y36300D02*
Y48762D01*
X37840Y36300D02*
Y42340D01*
X37920Y38471D02*
Y39534D01*
X37760Y36300D02*
Y42340D01*
X37680Y36300D02*
Y42334D01*
X37600Y36300D02*
Y42276D01*
X37520Y36300D02*
Y42256D01*
X37440Y36300D02*
Y42262D01*
X37360Y36300D02*
Y42299D01*
X36080Y36300D02*
Y48756D01*
X36000Y36300D02*
Y48776D01*
X35920Y36300D02*
Y48834D01*
X35840Y36300D02*
Y53300D01*
X35760Y36300D02*
Y53300D01*
X35680Y38471D02*
Y53300D01*
X34480Y38471D02*
Y53300D01*
X34640Y36300D02*
Y53300D01*
X34560Y36300D02*
Y53300D01*
X35120Y38471D02*
Y47558D01*
X35040Y36300D02*
Y48671D01*
X34960Y36300D02*
Y48641D01*
X34438Y38560D02*
X35162D01*
X34880Y36300D02*
Y48641D01*
X34800Y36300D02*
Y48668D01*
X34720Y36300D02*
Y48737D01*
X38517Y38400D02*
X39758D01*
X39840Y37442D02*
Y38362D01*
X39760Y37442D02*
Y38399D01*
X38517Y37129D02*
Y37798D01*
X37883Y38471D02*
X37957D01*
X37317Y38400D02*
X37883D01*
X37317Y38320D02*
X37883D01*
X38517Y37440D02*
X39751D01*
X38987Y37360D02*
X39614D01*
X39065Y37280D02*
X39568D01*
X39095Y37200D02*
X39555D01*
X39097Y37120D02*
X39568D01*
X38517Y37360D02*
X38721D01*
X38517Y37280D02*
X38644D01*
X38517Y37200D02*
X38614D01*
X37317Y38240D02*
X37883D01*
X37317Y38160D02*
X37883D01*
X37317Y38080D02*
X37883D01*
Y37802D02*
Y38471D01*
X37317Y37802D02*
Y38471D01*
Y38000D02*
X37883D01*
X37243Y38471D02*
X37317D01*
Y37920D02*
X37883D01*
X37317Y37840D02*
X37883D01*
X37317Y37760D02*
X37883D01*
X37317Y37680D02*
X37883D01*
X37317Y37600D02*
X37883D01*
X37317Y37520D02*
X37883D01*
Y37129D02*
Y37798D01*
X37317Y37440D02*
X37883D01*
X37317Y37360D02*
X37883D01*
X37317Y37280D02*
X37883D01*
X37317Y37200D02*
X37883D01*
X39600Y36300D02*
Y37058D01*
X39071Y37040D02*
X39614D01*
X39040Y36300D02*
Y36994D01*
X38640Y36300D02*
Y37036D01*
X37305Y37120D02*
X38612D01*
X37883Y37129D02*
X38517D01*
X37327Y37040D02*
X38638D01*
X38480Y36300D02*
Y37129D01*
X39840Y36300D02*
Y36958D01*
X39004Y36960D02*
X39751D01*
X39760Y36300D02*
Y36958D01*
X39680Y36300D02*
Y36986D01*
X38960Y36300D02*
Y36933D01*
X38880Y36300D02*
Y36911D01*
X37321Y36960D02*
X38705D01*
X38800Y36300D02*
Y36915D01*
X38720Y36300D02*
Y36949D01*
X38400Y36300D02*
Y37129D01*
X38320Y36300D02*
Y37129D01*
X38240Y36300D02*
Y37129D01*
X38160Y36300D02*
Y37129D01*
X38080Y36300D02*
Y37129D01*
X37317D02*
Y37798D01*
X38000Y36300D02*
Y37129D01*
X37920Y36300D02*
Y37129D01*
X37280Y36300D02*
Y36872D01*
X37200Y36300D02*
Y36802D01*
X37120Y36300D02*
Y36775D01*
X37040Y36300D02*
Y36776D01*
X36960Y36300D02*
Y36805D01*
X36880Y36300D02*
Y36880D01*
X36683Y38471D02*
X36757D01*
X35717Y38400D02*
X36683D01*
X35717Y38320D02*
X36683D01*
Y37802D02*
Y38471D01*
X35717Y37802D02*
Y38471D01*
Y38240D02*
X36683D01*
X35643Y38471D02*
X35717D01*
Y38160D02*
X36683D01*
X35717Y38080D02*
X36683D01*
X35717Y38000D02*
X36683D01*
X35717Y37920D02*
X36683D01*
X35717Y37840D02*
X36683D01*
X35717Y37760D02*
X36683D01*
X35717Y37680D02*
X36683D01*
X35717Y37600D02*
X36683D01*
X35717Y37520D02*
X36683D01*
X35717Y37440D02*
X36683D01*
X35717Y37360D02*
X36683D01*
X35083Y38471D02*
X35157D01*
X34517Y38400D02*
X35083D01*
X34517Y38320D02*
X35083D01*
Y37802D02*
Y38471D01*
X34517Y37802D02*
Y38471D01*
Y38240D02*
X35083D01*
X34443Y38471D02*
X34517D01*
Y38160D02*
X35083D01*
X34517Y38080D02*
X35083D01*
X34517Y38000D02*
X35083D01*
X34517Y37920D02*
X35083D01*
X34517Y37840D02*
X35083D01*
X34517Y37760D02*
X35083D01*
X34517Y37680D02*
X35083D01*
X34517Y37600D02*
X35083D01*
X34517Y37520D02*
X35083D01*
X34517Y37440D02*
X35083D01*
X36683Y37129D02*
Y37798D01*
Y37129D02*
X36830D01*
X35717D02*
Y37798D01*
X36800Y36300D02*
Y37129D01*
X36720Y36300D02*
Y37129D01*
X35717Y37280D02*
X36683D01*
X35717Y37200D02*
X36683D01*
X35570Y37129D02*
X35717D01*
X35680Y36300D02*
Y37129D01*
X35559Y37040D02*
X36839D01*
X35600Y36300D02*
Y37129D01*
X35518Y36880D02*
X36880D01*
X35551Y36960D02*
X36844D01*
X35436Y36800D02*
X36970D01*
X34517Y37360D02*
X35083D01*
X34517Y37280D02*
X35083D01*
X34517Y37200D02*
X35083D01*
Y37129D02*
Y37798D01*
X34517Y37129D02*
Y37798D01*
X34480Y36300D02*
Y37129D01*
X34400Y36300D02*
Y37129D01*
X34320Y36300D02*
Y37129D01*
X35520Y36300D02*
Y36883D01*
X35440Y36300D02*
Y36803D01*
X35360Y36300D02*
Y36771D01*
X35280Y36300D02*
Y36768D01*
X35200Y36300D02*
Y36793D01*
X35120Y36300D02*
Y36858D01*
X34240Y36300D02*
Y37129D01*
X34160Y36300D02*
Y37129D01*
X32760Y53300D02*
X33976D01*
X32760Y53280D02*
X33986D01*
X34080Y52114D02*
Y53186D01*
X34000Y52042D02*
Y53258D01*
X32760Y53120D02*
X38656D01*
X32760Y53200D02*
X34058D01*
X32686Y52960D02*
X38699D01*
X32748Y53040D02*
X38662D01*
X33366Y52080D02*
X34034D01*
X33424Y52000D02*
X33976D01*
X33444Y51920D02*
X33956D01*
X33401Y51760D02*
X33999D01*
X32606Y52880D02*
X38740D01*
X33308Y51680D02*
X34092D01*
X33318Y49120D02*
X34856D01*
X33372Y49040D02*
X34730D01*
X33280Y52132D02*
Y53300D01*
X33200Y52145D02*
Y53300D01*
X33120Y52132D02*
Y53300D01*
X33440Y51949D02*
Y53300D01*
X33360Y52086D02*
Y53300D01*
X32760Y53100D02*
Y53300D01*
X33040Y52086D02*
Y53300D01*
X32960Y51949D02*
Y53300D01*
X33438Y51840D02*
X33962D01*
X33200Y49185D02*
Y51655D01*
X33120Y49189D02*
Y51668D01*
X33360Y49064D02*
Y51714D01*
X33280Y49151D02*
Y51668D01*
X33040Y49167D02*
Y51714D01*
X32960Y49106D02*
Y51851D01*
X34000Y47671D02*
Y51758D01*
X34080Y47671D02*
Y51686D01*
X33920Y47671D02*
Y53300D01*
X33840Y47671D02*
Y53300D01*
X33760Y47671D02*
Y53300D01*
X33390Y48960D02*
X34685D01*
X33680Y47671D02*
Y53300D01*
X33600Y47671D02*
Y53300D01*
X33520Y47671D02*
Y53300D01*
X33382Y48880D02*
X34672D01*
X33241Y48720D02*
X34734D01*
X33343Y48800D02*
X34687D01*
X33076Y48320D02*
X41020D01*
X33156Y48240D02*
X41039D01*
X32836Y48560D02*
X41168D01*
X32756Y48640D02*
X34884D01*
X32916Y48480D02*
X41067D01*
X32996Y48400D02*
X41029D01*
X32960Y48436D02*
Y48786D01*
X32880Y48516D02*
Y53300D01*
X33440Y45601D02*
Y51851D01*
X33360Y45638D02*
Y48827D01*
X32640Y48756D02*
Y52914D01*
X32560Y48836D02*
Y52834D01*
X32800Y48596D02*
Y53300D01*
X32720Y48676D02*
Y52994D01*
X33280Y48000D02*
Y48741D01*
X33200Y48196D02*
Y48707D01*
X32676Y48720D02*
X33050D01*
X32596Y48800D02*
X32949D01*
X33120Y48276D02*
Y48702D01*
X33040Y48356D02*
Y48725D01*
X32526Y52800D02*
X38740D01*
X32446Y52720D02*
X38740D01*
X32405Y52640D02*
X38740D01*
X32384Y52560D02*
X38740D01*
X32326Y52480D02*
X38740D01*
X31560Y52400D02*
X38740D01*
X31560Y52320D02*
X38740D01*
X31560Y52240D02*
X38740D01*
X31560Y52160D02*
X38740D01*
X31560Y51680D02*
X33092D01*
X31566Y51280D02*
X38454D01*
X31560Y52080D02*
X33034D01*
X31624Y51200D02*
X38374D01*
X31644Y51120D02*
X38294D01*
X31560Y51600D02*
X38740D01*
X31560Y51520D02*
X38694D01*
X31560Y51440D02*
X38614D01*
X31560Y51360D02*
X38534D01*
X32440Y53166D02*
Y53300D01*
X32400Y53126D02*
Y53300D01*
X32320Y53046D02*
Y53300D01*
X32240Y52966D02*
Y53300D01*
X32160Y52906D02*
Y53300D01*
X31560D02*
X32440D01*
X31560Y53280D02*
X32440D01*
X31560Y53200D02*
X32440D01*
X32179Y52906D02*
X32440Y53166D01*
X31560Y53120D02*
X32394D01*
X31560Y53040D02*
X32314D01*
X31560Y52960D02*
X32234D01*
X32406Y52679D02*
X32713Y52987D01*
X31560Y52000D02*
X32976D01*
X31560Y51920D02*
X32956D01*
X31560Y51760D02*
X32999D01*
X31560Y51840D02*
X32962D01*
X31638Y51040D02*
X38214D01*
X31601Y50960D02*
X38134D01*
X31508Y50880D02*
X38054D01*
X31024Y50800D02*
X37974D01*
X30996Y50400D02*
X37574D01*
X30966Y50720D02*
X37894D01*
X30756Y50640D02*
X37814D01*
X30836Y50560D02*
X37734D01*
X30916Y50480D02*
X37654D01*
X31396Y50000D02*
X37174D01*
X31476Y49920D02*
X37094D01*
X31556Y49840D02*
X37014D01*
X31636Y49760D02*
X36934D01*
X31716Y49680D02*
X36736D01*
X31076Y50320D02*
X37494D01*
X31156Y50240D02*
X37414D01*
X31236Y50160D02*
X37334D01*
X31316Y50080D02*
X37254D01*
X32320Y49076D02*
Y52475D01*
X32240Y49156D02*
Y52429D01*
X32160Y49236D02*
Y52416D01*
X32480Y48916D02*
Y52754D01*
X32400Y48996D02*
Y52606D01*
X31796Y49600D02*
X36669D01*
X31876Y49520D02*
X36643D01*
X30731Y50665D02*
X33198Y48198D01*
X30000Y50174D02*
X32440Y47734D01*
X32276Y49120D02*
X32974D01*
X32356Y49040D02*
X32920D01*
X32436Y48960D02*
X32901D01*
X32516Y48880D02*
X32910D01*
X32036Y49360D02*
X36676D01*
X31956Y49440D02*
X36645D01*
X32116Y49280D02*
X36753D01*
X32196Y49200D02*
X35958D01*
X33268Y48080D02*
X42200D01*
X33280Y48000D02*
X39968D01*
X33280Y47920D02*
X35183D01*
X33483Y47671D02*
X34117D01*
Y47002D02*
Y47671D01*
X33230Y48160D02*
X41094D01*
X33280Y47840D02*
X35103D01*
X33280Y47760D02*
X35071D01*
X33280Y47680D02*
X35068D01*
X34117Y47520D02*
X35158D01*
X34117Y47440D02*
X36483D01*
X34117Y47600D02*
X35093D01*
X34117Y47360D02*
X36483D01*
X34117Y47280D02*
X36483D01*
X34117Y47200D02*
X36483D01*
X33280Y47600D02*
X33483D01*
X33280Y47520D02*
X33483D01*
Y47002D02*
Y47671D01*
X33280Y46555D02*
Y48000D01*
Y46555D02*
Y48000D01*
Y47440D02*
X33483D01*
X33280Y47360D02*
X33483D01*
X33280Y47280D02*
X33483D01*
X33280Y47200D02*
X33483D01*
X33280Y47120D02*
X33483D01*
X33280Y47040D02*
X33483D01*
X33280Y46960D02*
X33483D01*
X33280Y46880D02*
X33483D01*
X33310Y46480D02*
X33483D01*
X33280Y46800D02*
X33483D01*
X33280Y46720D02*
X33483D01*
X33280Y46640D02*
X33483D01*
X33280Y46560D02*
X33483D01*
X34038Y46240D02*
X36562D01*
X34001Y46160D02*
X36599D01*
X34043Y46329D02*
X34117D01*
X33908Y46080D02*
X36692D01*
X33000D02*
X33692D01*
X33212Y46160D02*
X33599D01*
X33006Y45920D02*
X42200D01*
X32926Y46000D02*
X41306D01*
X33442Y45600D02*
X42200D01*
X33514Y45520D02*
X42200D01*
X33542Y45440D02*
X39851D01*
X33542Y45360D02*
X39714D01*
X33514Y45280D02*
X39668D01*
X33086Y45840D02*
X42200D01*
X33166Y45760D02*
X42200D01*
X33246Y45680D02*
X42200D01*
X33442Y45200D02*
X39655D01*
X33320Y46400D02*
X33483D01*
Y46329D02*
X33557D01*
X33483D02*
Y46998D01*
X33310Y46320D02*
X33556D01*
X33520Y45508D02*
Y46329D01*
X33277Y46240D02*
X33562D01*
X33280Y45646D02*
Y46245D01*
X33120Y45806D02*
Y46103D01*
X33040Y45886D02*
Y46083D01*
X33200Y45726D02*
Y46150D01*
X32846Y46080D02*
X33000D01*
X32880Y46046D02*
Y46103D01*
X32960Y45966D02*
Y46083D01*
X32440Y47549D02*
Y47734D01*
X32366Y47680D02*
X32440D01*
X32401Y47360D02*
X32440D01*
X32308Y47280D02*
X32440D01*
X32117Y47200D02*
X32440D01*
X32117Y47120D02*
X32440D01*
X32117Y47040D02*
X32440D01*
X32339Y46800D02*
X32440D01*
X32373Y46720D02*
X32440D01*
X32378Y46640D02*
X32440D01*
X32356Y46560D02*
X32440D01*
X32295Y46480D02*
X32440D01*
X32117Y46960D02*
X32440D01*
X32253Y46880D02*
X32440D01*
X32117Y46400D02*
X32440D01*
X31314Y46320D02*
X32440D01*
X32240Y47742D02*
Y47934D01*
X32320Y47714D02*
Y47854D01*
X32160Y47742D02*
Y48014D01*
X32440Y46100D02*
Y47451D01*
X32400Y47642D02*
Y47774D01*
X30000Y47920D02*
X32254D01*
X30242Y48000D02*
X32174D01*
X31592Y47760D02*
X32414D01*
X31449Y47840D02*
X32334D01*
X32160Y46909D02*
Y47258D01*
X32117Y47002D02*
Y47270D01*
Y46910D02*
Y46998D01*
X32320Y46826D02*
Y47286D01*
X32240Y46887D02*
Y47258D01*
X31342Y46240D02*
X32440D01*
X31342Y46160D02*
X32440D01*
X32760Y46166D02*
X33282Y45644D01*
X31042Y45440D02*
X33034D01*
X31042Y45760D02*
X32714D01*
X31042Y45360D02*
X33058D01*
X32487Y45987D02*
X33056Y45418D01*
X30942Y45600D02*
X32874D01*
X31014Y45680D02*
X32794D01*
X31014Y45280D02*
X33086D01*
X31014Y45520D02*
X32954D01*
X32486Y44960D02*
X39851D01*
X32532Y44880D02*
X40434D01*
X32545Y44800D02*
X39374D01*
X32532Y44720D02*
X39294D01*
X32486Y44640D02*
X39214D01*
X30914Y45120D02*
X39668D01*
X30942Y45200D02*
X33158D01*
X32349Y45040D02*
X39714D01*
X32349Y44560D02*
X39134D01*
X32320Y45044D02*
Y46505D01*
X32480Y44966D02*
Y45994D01*
X32400Y45024D02*
Y47358D01*
X31242Y46000D02*
X32475D01*
X31314Y46080D02*
X32441D01*
X32240Y45117D02*
Y46444D01*
X32160Y45117D02*
Y46422D01*
X32271Y45043D02*
Y45117D01*
Y44483D02*
Y44557D01*
X31042Y45840D02*
X32634D01*
X31014Y45920D02*
X32554D01*
X31602Y45117D02*
X32271D01*
X31602Y44483D02*
X32271D01*
X32080Y52892D02*
Y53300D01*
X32000Y52846D02*
Y53300D01*
X30960D02*
X31240D01*
X31920Y52703D02*
Y53300D01*
X31560Y51286D02*
Y53300D01*
X30960Y53280D02*
X31240D01*
X30960Y53200D02*
X31240D01*
X30960Y53120D02*
X31240D01*
X30960Y53040D02*
X31240D01*
X31560Y52880D02*
X32051D01*
X31560Y52800D02*
X31959D01*
X31560Y52720D02*
X31924D01*
X31560Y52640D02*
X31917D01*
X31560Y52560D02*
X31938D01*
X30960Y52960D02*
X31240D01*
X30960Y52880D02*
X31240D01*
X31560Y52480D02*
X31997D01*
X30960Y52800D02*
X31240D01*
X30960Y52720D02*
X31240D01*
X30960Y52640D02*
X31240D01*
X30960Y52560D02*
X31240D01*
X30960Y52480D02*
X31240D01*
Y51286D02*
Y53300D01*
X30960Y52400D02*
X31240D01*
X30960Y52320D02*
X31240D01*
X30960Y52240D02*
X31240D01*
X30960Y52160D02*
X31240D01*
X30960Y52080D02*
X31240D01*
X30960Y52000D02*
X31240D01*
X30960Y51920D02*
X31240D01*
X30960Y51840D02*
X31240D01*
X30960Y51760D02*
X31240D01*
X30960Y51680D02*
X31240D01*
X30960Y51600D02*
X31240D01*
X30960Y51520D02*
X31240D01*
X30960Y51440D02*
X31240D01*
X31840Y49556D02*
Y53300D01*
X31920Y49476D02*
Y52620D01*
X31760Y49636D02*
Y53300D01*
X32080Y49316D02*
Y52430D01*
X32000Y49396D02*
Y52477D01*
X31600Y51242D02*
Y53300D01*
X31680Y49716D02*
Y53300D01*
X31600Y49796D02*
Y50958D01*
X31680Y47695D02*
Y48494D01*
X31600Y47757D02*
Y48574D01*
X31840Y47671D02*
Y48334D01*
X31760Y47671D02*
Y48414D01*
X31520Y49876D02*
Y50886D01*
X31440Y49956D02*
Y50858D01*
X31520Y47814D02*
Y48654D01*
X31440Y47842D02*
Y48734D01*
X31200Y51242D02*
Y53300D01*
X31120Y50276D02*
Y53300D01*
X31040Y50949D02*
Y53300D01*
X31280Y50116D02*
Y50886D01*
X31200Y50196D02*
Y50958D01*
X30960Y51086D02*
Y53300D01*
Y51086D02*
Y53300D01*
X31038Y50960D02*
X31199D01*
X31001Y51040D02*
X31162D01*
X31360Y50036D02*
Y50858D01*
Y47842D02*
Y48814D01*
X31280Y47814D02*
Y48894D01*
X31200Y47742D02*
Y48974D01*
X31044Y50880D02*
X31292D01*
X31040Y50356D02*
Y50851D01*
X31120Y46444D02*
Y49054D01*
X31040Y46438D02*
Y49134D01*
X30960Y51360D02*
X31240D01*
X30960Y51280D02*
X31234D01*
X30960Y51200D02*
X31176D01*
X30960Y51120D02*
X31156D01*
X30800Y50596D02*
Y50655D01*
X30960Y50436D02*
Y50714D01*
X30880Y50516D02*
Y50668D01*
X30720Y49314D02*
Y49454D01*
X30566Y49360D02*
X30814D01*
X30640Y49342D02*
Y49534D01*
X30766Y49280D02*
X30894D01*
X30800Y49242D02*
Y49374D01*
X30406Y49520D02*
X30654D01*
X30326Y49600D02*
X30574D01*
X30486Y49440D02*
X30734D01*
X30000Y49926D02*
X30582Y49344D01*
X30080Y49846D02*
Y50094D01*
X30086Y49840D02*
X30334D01*
X30000Y49926D02*
Y50174D01*
X30240Y49686D02*
Y49934D01*
X30160Y49766D02*
Y50014D01*
X30000Y50000D02*
X30174D01*
X30000Y50080D02*
X30094D01*
X30006Y49920D02*
X30254D01*
X30000Y49926D02*
Y50174D01*
X30400Y49526D02*
Y49774D01*
X30246Y49680D02*
X30494D01*
X30320Y49606D02*
Y49854D01*
X30560Y49366D02*
Y49614D01*
X30480Y49446D02*
Y49694D01*
X30166Y49760D02*
X30414D01*
X30000Y49440D02*
X30034D01*
X30000Y49280D02*
X30194D01*
X30000Y49360D02*
X30114D01*
X30844Y49120D02*
X31054D01*
X30838Y49040D02*
X31134D01*
X30824Y49200D02*
X30974D01*
X30960Y46401D02*
Y49214D01*
X30880Y46666D02*
Y49294D01*
X30801Y48960D02*
X31214D01*
X30800Y46724D02*
Y48958D01*
X30000Y48800D02*
X31374D01*
X30242Y48400D02*
X31774D01*
X30708Y48880D02*
X31294D01*
X30342Y48240D02*
X31934D01*
X30314Y48320D02*
X31854D01*
X30000Y48640D02*
X31534D01*
X30000Y48720D02*
X31454D01*
X30000Y48480D02*
X31694D01*
X30000Y48560D02*
X31614D01*
X30000Y49474D02*
X30356Y49118D01*
X30160Y48438D02*
Y49314D01*
X30080Y48444D02*
Y49394D01*
X30320Y48308D02*
Y49154D01*
X30240Y48401D02*
Y49234D01*
X30000Y49120D02*
X30354D01*
X30000Y49200D02*
X30274D01*
X30000Y49040D02*
X30362D01*
X30000Y48426D02*
Y49474D01*
X30720Y46744D02*
Y48886D01*
X30640Y46738D02*
Y48858D01*
X30560Y46701D02*
Y48858D01*
X30480Y46608D02*
Y48886D01*
X30000Y48880D02*
X30492D01*
X30000Y48960D02*
X30399D01*
X30400Y46426D02*
Y48958D01*
X32000Y47671D02*
Y48174D01*
X32080Y47714D02*
Y48094D01*
X31920Y47671D02*
Y48254D01*
X31695Y47680D02*
X32034D01*
X31704Y47671D02*
X32025D01*
X31655Y47720D02*
X31704Y47671D01*
X31449Y47360D02*
X31483D01*
Y47002D02*
Y47370D01*
X31242Y46400D02*
X31483D01*
X32117Y46329D02*
Y46421D01*
X31483Y46329D02*
X32117D01*
X30808Y46720D02*
X31483D01*
X30901Y46640D02*
X31483D01*
X30938Y46560D02*
X31483D01*
X30944Y46480D02*
X31483D01*
X31200Y46424D02*
Y47458D01*
X31280Y46366D02*
Y47386D01*
X30924Y46400D02*
X30958D01*
X31483Y46329D02*
Y46998D01*
X30666Y46240D02*
X30858D01*
X30800Y46045D02*
Y46276D01*
X30586Y46160D02*
X30858D01*
X30880Y46032D02*
Y46092D01*
X30720Y46032D02*
Y46256D01*
X31040Y45849D02*
Y45962D01*
X30640Y45986D02*
Y46214D01*
X30506Y46080D02*
X30886D01*
X30426Y46000D02*
X30658D01*
X30360Y45934D02*
X30682Y46256D01*
X30360Y45920D02*
X30586D01*
X32080Y45117D02*
Y46329D01*
X32000Y45117D02*
Y46329D01*
X31920Y45117D02*
Y46329D01*
X31840Y45117D02*
Y46329D01*
X31760Y45117D02*
Y46329D01*
X31680Y45117D02*
Y46329D01*
X31520Y45117D02*
Y46329D01*
X31440Y45117D02*
Y47358D01*
X31360Y45117D02*
Y47358D01*
X31280Y45117D02*
Y46034D01*
X31200Y45117D02*
Y45976D01*
X31120Y45117D02*
Y45956D01*
X30929Y45117D02*
X31598D01*
X30929Y44483D02*
X31598D01*
X30560Y45849D02*
Y46134D01*
Y45486D02*
Y45751D01*
X31040Y45449D02*
Y45751D01*
X30480Y45406D02*
Y46054D01*
X30400Y45326D02*
Y45974D01*
X30360Y45400D02*
Y45934D01*
X31040Y45117D02*
Y45351D01*
X30960Y45117D02*
Y45214D01*
X30929Y44483D02*
Y44912D01*
X30406Y44880D02*
X30486D01*
X30842Y44800D02*
X30929D01*
X30342Y48160D02*
X32014D01*
X30314Y48080D02*
X32094D01*
X30000Y47840D02*
X31351D01*
X30000Y47760D02*
X31214D01*
X30000Y47680D02*
X31168D01*
X30000Y47520D02*
X31168D01*
X30000Y47600D02*
X31155D01*
X30000Y47360D02*
X31351D01*
X30000Y47440D02*
X31214D01*
X30000Y47280D02*
X31483D01*
X30000Y47200D02*
X31483D01*
X30000Y47120D02*
X31483D01*
X30000Y47040D02*
X31483D01*
X30360Y45840D02*
X30558D01*
X30000Y46960D02*
X31483D01*
X30000Y46880D02*
X31483D01*
X30000Y46800D02*
X31483D01*
X30000Y46720D02*
X30592D01*
X30320Y46346D02*
Y48092D01*
X30240Y46266D02*
Y47999D01*
X30160Y46186D02*
Y47962D01*
X30087Y46113D02*
X30456Y46482D01*
X30080Y46106D02*
Y47956D01*
X30000Y46640D02*
X30499D01*
X30000Y46560D02*
X30462D01*
X30000Y46480D02*
X30454D01*
X30000Y46400D02*
X30374D01*
X30000Y46320D02*
X30294D01*
X30000Y46240D02*
X30214D01*
X30000Y46160D02*
X30134D01*
X30000Y46080D02*
X30061D01*
X30000Y46000D02*
X30040D01*
X30000Y45920D02*
X30040D01*
X30360Y45680D02*
X30586D01*
X30360Y45600D02*
X30658D01*
X30360Y45760D02*
X30558D01*
X30360Y45520D02*
X30586D01*
X30360Y45440D02*
X30514D01*
X30355Y45360D02*
X30434D01*
X30000Y44926D02*
X30579Y45505D01*
X30306Y45280D02*
X30354D01*
X30326Y44800D02*
X30558D01*
X30320Y45246D02*
Y45294D01*
X30260Y44720D02*
X30929D01*
X30260Y44734D02*
X30463Y44937D01*
X30000Y44974D02*
X30313Y45287D01*
X30226Y45200D02*
X30274D01*
X30260Y44640D02*
X30929D01*
X30260Y44560D02*
X30929D01*
X30000Y45840D02*
X30040D01*
X30000Y45760D02*
X30040D01*
Y45466D02*
Y46000D01*
X30000Y45426D02*
Y47976D01*
Y45426D02*
Y47976D01*
Y45680D02*
X30040D01*
X30000Y45600D02*
X30040D01*
X30000Y45520D02*
X30040D01*
X30000Y45426D02*
X30040Y45466D01*
X30240Y45166D02*
Y45214D01*
X30146Y45120D02*
X30194D01*
X30160Y45086D02*
Y45134D01*
X30080Y45006D02*
Y45054D01*
X30066Y45040D02*
X30114D01*
X30000Y44960D02*
X30034D01*
X30000Y44926D02*
Y44974D01*
Y44926D02*
Y44974D01*
X32342Y43840D02*
X38740D01*
X32342Y43760D02*
X38740D01*
X32449Y43040D02*
X38740D01*
X32586Y42960D02*
X38714D01*
X32632Y42880D02*
X38668D01*
X32242Y44000D02*
X38740D01*
X32314Y43920D02*
X38740D01*
X32314Y43680D02*
X38740D01*
X32242Y43600D02*
X38740D01*
X32645Y42800D02*
X38655D01*
X32632Y42720D02*
X37392D01*
X32586Y42640D02*
X37299D01*
X32342Y41760D02*
X37940D01*
X32342Y41840D02*
X37914D01*
X32242Y42000D02*
X37855D01*
X32314Y41920D02*
X37868D01*
X32314Y41680D02*
X37940D01*
X32242Y41600D02*
X37940D01*
X32480Y43032D02*
Y44634D01*
X32400Y43045D02*
Y44576D01*
X32320Y43908D02*
Y44556D01*
X32640Y42849D02*
Y45834D01*
X32560Y42986D02*
Y45914D01*
X32240Y44001D02*
Y44483D01*
Y43117D02*
Y43599D01*
X32320Y43032D02*
Y43692D01*
X32271Y43008D02*
Y43117D01*
X32449Y42560D02*
X37262D01*
X32271Y43040D02*
X32351D01*
X32320Y41908D02*
Y42568D01*
X32271Y42560D02*
X32351D01*
X32271Y42483D02*
Y42592D01*
X32240Y42001D02*
Y42483D01*
Y41001D02*
Y41599D01*
X34080Y38714D02*
Y46329D01*
X33840Y38949D02*
Y46058D01*
X33760Y39086D02*
Y46058D01*
X34000Y38642D02*
Y46158D01*
X33920Y38471D02*
Y46086D01*
X32286Y40960D02*
X37940D01*
X33600Y39145D02*
Y46158D01*
X33680Y39132D02*
Y46086D01*
X33520Y39132D02*
Y45292D01*
X32332Y40880D02*
X37940D01*
X32345Y40800D02*
X37940D01*
X32332Y40720D02*
X37940D01*
X32342Y39840D02*
X37899D01*
X32342Y39760D02*
X37862D01*
X32286Y40640D02*
X37940D01*
X32242Y40000D02*
X37940D01*
X32314Y39920D02*
X37940D01*
X32314Y39680D02*
X37856D01*
X33440Y39086D02*
Y45199D01*
X33360Y38949D02*
Y45162D01*
X33280Y37444D02*
Y45156D01*
X33120Y37366D02*
Y45234D01*
X33040Y36300D02*
Y45434D01*
X32800Y37717D02*
Y45674D01*
X32720Y37717D02*
Y45754D01*
X32960Y36300D02*
Y45514D01*
X32880Y36300D02*
Y45594D01*
X32640Y37717D02*
Y42751D01*
X32480Y38966D02*
Y42568D01*
X33200Y37424D02*
Y45176D01*
X32560Y37717D02*
Y42614D01*
X32320Y40908D02*
Y41692D01*
X32240Y40001D02*
Y40599D01*
X32400Y39024D02*
Y42555D01*
X32320Y39908D02*
Y40692D01*
X30260Y44480D02*
X39054D01*
X32071Y44080D02*
X38740D01*
X32071Y43520D02*
X38740D01*
X31001Y43440D02*
X38740D01*
X31038Y43360D02*
X38740D01*
X30260Y44400D02*
X38974D01*
X30260Y44320D02*
X38894D01*
X30260Y44240D02*
X38814D01*
X30260Y44160D02*
X38752D01*
X31044Y43280D02*
X38740D01*
X31092Y43200D02*
X38740D01*
X31172Y43120D02*
X38740D01*
X30942Y42240D02*
X38051D01*
X32071Y42080D02*
X37868D01*
X30260Y42480D02*
X37256D01*
X30842Y42400D02*
X37276D01*
X30942Y42160D02*
X37914D01*
X30914Y42320D02*
X37334D01*
X32160Y44038D02*
Y44483D01*
X32080Y44044D02*
Y44483D01*
X32071Y44043D02*
Y44117D01*
X32160Y43117D02*
Y43562D01*
X31402Y44117D02*
X32071D01*
X32000D02*
Y44483D01*
X32080Y43117D02*
Y43556D01*
X32071Y43483D02*
Y43557D01*
X32000Y43117D02*
Y43483D01*
Y42117D02*
Y42483D01*
X32160Y42038D02*
Y42483D01*
X32080Y42044D02*
Y42483D01*
X31602Y43117D02*
X32271D01*
X31402Y43483D02*
X32071D01*
X31602Y42483D02*
X32271D01*
X31402Y42117D02*
X32071D01*
Y41520D02*
X37940D01*
X30946Y41440D02*
X37940D01*
X32149Y41040D02*
X37940D01*
X30942Y41360D02*
X37940D01*
X30914Y41280D02*
X37940D01*
X30842Y41200D02*
X37940D01*
X30260Y41120D02*
X37940D01*
X32149Y40560D02*
X37940D01*
X30808Y40480D02*
X37940D01*
X32071Y40080D02*
X37940D01*
X30260Y40400D02*
X37940D01*
X30260Y40320D02*
X37940D01*
X30260Y40240D02*
X37940D01*
X30260Y40160D02*
X37940D01*
X32071Y42043D02*
Y42117D01*
X32160Y41038D02*
Y41562D01*
X32071Y41483D02*
Y41557D01*
X32160Y40038D02*
Y40562D01*
X32080Y41044D02*
Y41556D01*
X31402Y41483D02*
X32071D01*
X32000Y41117D02*
Y41483D01*
X31402Y41117D02*
X32071D01*
Y41043D02*
Y41117D01*
X32080Y40044D02*
Y40556D01*
X32071Y40483D02*
Y40557D01*
Y40043D02*
Y40117D01*
X31402Y40483D02*
X32071D01*
X32000Y40117D02*
Y40483D01*
X31402Y40117D02*
X32071D01*
X33801Y39040D02*
X42200D01*
X33838Y38960D02*
X41219D01*
X33844Y38880D02*
X39929D01*
X33824Y38800D02*
X39758D01*
X33708Y39120D02*
X42200D01*
X33766Y38720D02*
X34092D01*
X33760Y38640D02*
X33999D01*
X33760Y38560D02*
X33962D01*
X33760Y38480D02*
X33956D01*
X33883Y38471D02*
X33957D01*
X33760Y38400D02*
X33883D01*
X33760Y38320D02*
X33883D01*
X33760Y38240D02*
X33883D01*
X33760Y38160D02*
X33883D01*
X33760Y38080D02*
X33883D01*
X33760Y38000D02*
X33883D01*
X33760Y37920D02*
X33883D01*
X33760Y37840D02*
X33883D01*
Y37802D02*
Y38471D01*
X33760Y37760D02*
X33883D01*
X33360Y37438D02*
Y38851D01*
X33440Y37401D02*
Y38714D01*
Y37401D02*
Y38714D01*
X33760Y37680D02*
X33883D01*
X33760Y37600D02*
X33883D01*
X33760Y37520D02*
X33883D01*
X33760Y37440D02*
X33883D01*
X33349D02*
X33440D01*
X32871Y37680D02*
X33440D01*
X32871Y37600D02*
X33440D01*
X32871Y37520D02*
X33440D01*
X32871Y37440D02*
X33251D01*
X33883Y37129D02*
X34517D01*
X34080Y36300D02*
Y37129D01*
X33760Y37360D02*
X33883D01*
X34000Y36300D02*
Y37129D01*
X33920Y36300D02*
Y37129D01*
X33760Y37120D02*
X35092D01*
X33760Y37280D02*
X33883D01*
X33760Y37040D02*
X35068D01*
X33760Y36960D02*
X35071D01*
X33760Y36800D02*
X35187D01*
X33760Y36720D02*
X42200D01*
X33760Y36880D02*
X35104D01*
X33760Y36640D02*
X42200D01*
X33760Y36560D02*
X42200D01*
X33760Y36480D02*
X42200D01*
X33760Y36400D02*
X42174D01*
X33760Y36320D02*
X42094D01*
X33760Y36300D02*
X42074D01*
X33883Y37129D02*
Y37798D01*
X33760Y37200D02*
X33883D01*
X33840Y36300D02*
Y38851D01*
X33760Y36300D02*
Y38714D01*
Y36300D02*
Y38714D01*
X32871Y37360D02*
X33114D01*
X32871Y37280D02*
X33068D01*
X32871Y37083D02*
Y37717D01*
X33349Y36960D02*
X33440D01*
Y36300D02*
Y36999D01*
Y36300D02*
Y36999D01*
X33360Y36300D02*
Y36962D01*
X33280Y36300D02*
Y36956D01*
X32871Y37200D02*
X33055D01*
X33200Y36300D02*
Y36976D01*
X33120Y36300D02*
Y37034D01*
X32071Y39520D02*
X37934D01*
X30942Y39440D02*
X42200D01*
X32242Y39600D02*
X37876D01*
X32532Y38720D02*
X33434D01*
X32486Y38640D02*
X33440D01*
X30942Y39360D02*
X42200D01*
X30914Y39280D02*
X42200D01*
X30842Y39200D02*
X42200D01*
X30260Y39120D02*
X33492D01*
X32349Y38560D02*
X33440D01*
X30932Y38480D02*
X33440D01*
X30945Y38400D02*
X33440D01*
X30932Y38320D02*
X33440D01*
X30886Y38240D02*
X33440D01*
X30749Y38160D02*
X33440D01*
X30546Y38080D02*
X33440D01*
X30626Y38000D02*
X33440D01*
X30706Y37920D02*
X33440D01*
X32320Y39044D02*
Y39692D01*
X32240Y39117D02*
Y39599D01*
X32160Y39117D02*
Y39562D01*
X32349Y39040D02*
X33399D01*
X32271Y39043D02*
Y39117D01*
X32071Y39483D02*
Y39557D01*
X31402Y39483D02*
X32071D01*
X31602Y39117D02*
X32271D01*
X32080D02*
Y39556D01*
X32486Y38960D02*
X33362D01*
X32532Y38880D02*
X33356D01*
X32545Y38800D02*
X33376D01*
X32271Y38483D02*
Y38557D01*
X31602Y38483D02*
X32271D01*
X30786Y37840D02*
X33440D01*
X30900Y37760D02*
X33440D01*
X32871Y37120D02*
X33068D01*
X32623Y37083D02*
X32871D01*
X32800Y36300D02*
Y37083D01*
X32720Y36300D02*
Y37083D01*
X32640Y36300D02*
Y37083D01*
X32603Y37040D02*
X33114D01*
X32202Y37717D02*
X32871D01*
X32583Y36960D02*
X33251D01*
X32526Y36880D02*
X33440D01*
X32032Y36800D02*
X33440D01*
X32026Y36400D02*
X33440D01*
X32106Y36320D02*
X33440D01*
X32126Y36300D02*
X33440D01*
X31706Y36720D02*
X33440D01*
X31786Y36640D02*
X33440D01*
X31866Y36560D02*
X33440D01*
X31946Y36480D02*
X33440D01*
X32480Y37717D02*
Y38634D01*
X32400Y37717D02*
Y38576D01*
X32320Y37717D02*
Y38556D01*
X32240Y37717D02*
Y38483D01*
X32160Y37717D02*
Y38483D01*
X31529Y37717D02*
X32198D01*
X32080D02*
Y38483D01*
X31460Y36966D02*
X32126Y36300D01*
X32560D02*
Y36919D01*
X32480Y36300D02*
Y36846D01*
X32400Y36300D02*
Y36817D01*
X32320Y36300D02*
Y36816D01*
X32154Y36880D02*
X32190D01*
X32080Y36346D02*
Y36819D01*
X32240Y36300D02*
Y36844D01*
X32160Y36300D02*
Y36888D01*
X31920Y44117D02*
Y44483D01*
X31840Y44117D02*
Y44483D01*
X31760Y44117D02*
Y44483D01*
X31680Y44117D02*
Y44483D01*
X31520Y44117D02*
Y44483D01*
X31440Y44117D02*
Y44483D01*
X31360Y44117D02*
Y44483D01*
X30814Y44117D02*
X31398D01*
X31280D02*
Y44483D01*
X31920Y43117D02*
Y43483D01*
X31840Y43117D02*
Y43483D01*
X31760Y43117D02*
Y43483D01*
X31680Y43117D02*
Y43483D01*
X31520Y43117D02*
Y43483D01*
X31440Y43117D02*
Y43483D01*
X30963D02*
X31398D01*
X31175Y43117D02*
X31598D01*
X31360D02*
Y43483D01*
X31200Y44117D02*
Y44483D01*
X31120Y44117D02*
Y44483D01*
X31040Y44117D02*
Y44483D01*
X30960Y44117D02*
Y44483D01*
X30880Y44117D02*
Y44834D01*
X30800Y44124D02*
Y44776D01*
X30720Y44144D02*
Y44756D01*
Y43532D02*
Y43656D01*
X30729Y43534D02*
Y43657D01*
X31120Y43172D02*
Y43483D01*
X31040Y43349D02*
Y43483D01*
X31280Y43117D02*
Y43483D01*
X31200Y43117D02*
Y43483D01*
X31040Y43251D02*
X31175Y43117D01*
X30866Y42720D02*
X30929D01*
Y42483D02*
Y42812D01*
X31920Y42117D02*
Y42483D01*
X31840Y42117D02*
Y42483D01*
X31760Y42117D02*
Y42483D01*
X31680Y42117D02*
Y42483D01*
X31520Y42117D02*
Y42483D01*
X30929D02*
X31598D01*
X31440Y42117D02*
Y42483D01*
X30930Y42117D02*
X31398D01*
X31360D02*
Y42483D01*
X31920Y41117D02*
Y41483D01*
X31840Y41117D02*
Y41483D01*
X31760Y41117D02*
Y41483D01*
X31680Y41117D02*
Y41483D01*
X31600Y41117D02*
Y41483D01*
X31520Y41117D02*
Y41483D01*
X30989D02*
X31398D01*
X31440Y41117D02*
Y41483D01*
X31360Y41117D02*
Y41483D01*
X31280Y42117D02*
Y42483D01*
X31200Y42117D02*
Y42483D01*
X31120Y42117D02*
Y42483D01*
X31280Y41117D02*
Y41483D01*
X31040Y42117D02*
Y42483D01*
X30880Y42366D02*
Y42734D01*
X30800Y42424D02*
Y42676D01*
X30960Y42117D02*
Y42483D01*
X31200Y41117D02*
Y41483D01*
X30942Y41437D02*
X30989Y41483D01*
X31120Y41117D02*
Y41483D01*
X31040Y41117D02*
Y41483D01*
X30960Y41117D02*
Y41454D01*
X30880Y41117D02*
Y41234D01*
X30800Y41117D02*
Y41176D01*
X30640Y44138D02*
Y44762D01*
X30560Y44101D02*
Y44799D01*
X30640Y43486D02*
Y43662D01*
X30260Y43680D02*
X30592D01*
X30260Y44080D02*
X30534D01*
X30260Y43600D02*
X30729D01*
X30260Y43520D02*
X30692D01*
X30260Y43440D02*
X30599D01*
X30260Y43360D02*
X30562D01*
X30720Y42444D02*
Y42656D01*
X30640Y42438D02*
Y42662D01*
X30260Y43200D02*
X30576D01*
X30260Y43120D02*
X30592D01*
X30260Y42640D02*
X30929D01*
X30260Y42560D02*
X30929D01*
X30480Y44008D02*
Y44892D01*
X30560Y43349D02*
Y43699D01*
X30260Y44000D02*
X30476D01*
X30560Y43101D02*
Y43251D01*
X30480Y43008D02*
Y43792D01*
X30260Y43920D02*
X30456D01*
X30260Y43840D02*
X30462D01*
X30260Y43280D02*
X30556D01*
X30260Y43760D02*
X30499D01*
X30260Y43040D02*
X30499D01*
X30260Y42960D02*
X30462D01*
X30260Y42880D02*
X30456D01*
X30560Y42401D02*
Y42699D01*
X30480Y42308D02*
Y42792D01*
X30260Y42720D02*
X30534D01*
X30260Y42800D02*
X30476D01*
X30260Y42400D02*
X30558D01*
X30260Y42320D02*
X30486D01*
X30720Y41695D02*
Y41956D01*
X30260Y42000D02*
X30558D01*
X30729Y41704D02*
Y41957D01*
X30640Y41638D02*
Y41962D01*
X30260Y41920D02*
X30729D01*
X30260Y41840D02*
X30729D01*
X30260Y41760D02*
X30729D01*
X30260Y41680D02*
X30705D01*
X30668Y41643D02*
X30729Y41704D01*
Y41117D02*
X31398D01*
X30720Y40944D02*
Y41156D01*
X30729Y40943D02*
Y41117D01*
X30640Y40938D02*
Y41162D01*
X30260Y41040D02*
X30729D01*
X30260Y40960D02*
X30729D01*
X30480Y41508D02*
Y42092D01*
X30560Y41601D02*
Y41999D01*
X30260Y38366D02*
Y44734D01*
X30400Y38226D02*
Y44874D01*
X30320Y38306D02*
Y44794D01*
X30260Y42240D02*
X30458D01*
X30260Y42160D02*
X30458D01*
X30260Y41600D02*
X30558D01*
X30260Y42080D02*
X30486D01*
X30260Y41520D02*
X30486D01*
X30260Y41440D02*
X30458D01*
X30560Y40901D02*
Y41199D01*
X30480Y40808D02*
Y41292D01*
X30260Y41280D02*
X30486D01*
X30260Y41360D02*
X30458D01*
X30260Y41200D02*
X30558D01*
X30260Y40880D02*
X30534D01*
X31920Y40117D02*
Y40483D01*
X31840Y40117D02*
Y40483D01*
X31760Y40117D02*
Y40483D01*
X32000Y39117D02*
Y39483D01*
X31920Y39117D02*
Y39483D01*
X31680Y40117D02*
Y40483D01*
X31600Y40117D02*
Y40483D01*
X31520Y40117D02*
Y40483D01*
X31440Y40117D02*
Y40483D01*
X31840Y39117D02*
Y39483D01*
X31760Y39117D02*
Y39483D01*
X31680Y39117D02*
Y39483D01*
X32000Y37717D02*
Y38483D01*
X31520Y39117D02*
Y39483D01*
X31440Y39117D02*
Y39483D01*
X30930D02*
X31398D01*
X30929Y39117D02*
X31598D01*
X30930Y38483D02*
X31598D01*
X31360Y40117D02*
Y40483D01*
X31280Y40117D02*
Y40483D01*
X31200Y40117D02*
Y40483D01*
X31360Y39117D02*
Y39483D01*
X31120Y40117D02*
Y40483D01*
X31040Y40117D02*
Y40483D01*
X30960Y40117D02*
Y40483D01*
X31280Y39117D02*
Y39483D01*
X31200Y39117D02*
Y39483D01*
X31120Y39117D02*
Y39483D01*
X31040Y39117D02*
Y39483D01*
X30960Y39117D02*
Y39483D01*
X30929Y38960D02*
Y39117D01*
X30960Y37748D02*
Y38483D01*
X30929Y38488D02*
Y38640D01*
X31920Y37717D02*
Y38483D01*
X31840Y37717D02*
Y38483D01*
X31760Y37717D02*
Y38483D01*
X31680Y37717D02*
Y38483D01*
Y36746D02*
Y37083D01*
X31046Y37680D02*
X31529D01*
X31126Y37600D02*
X31529D01*
Y37083D02*
X31724D01*
X31206Y37520D02*
X31529D01*
X31760Y36666D02*
Y36901D01*
X31840Y36586D02*
Y36824D01*
X31600Y36826D02*
Y37083D01*
X32000Y36426D02*
Y36793D01*
X31920Y36506D02*
Y36795D01*
X31460Y37040D02*
X31720D01*
X31466Y36960D02*
X31731D01*
X31626Y36800D02*
X31897D01*
X31546Y36880D02*
X31775D01*
X31440Y37277D02*
Y38483D01*
X31360Y37366D02*
Y38483D01*
X31280Y37446D02*
Y38483D01*
X31529Y37083D02*
Y37717D01*
X31520Y36906D02*
Y38483D01*
X31120Y37606D02*
Y38483D01*
X31040Y37686D02*
Y38483D01*
X31013Y37713D02*
X31413Y37313D01*
X31200Y37526D02*
Y38483D01*
X31439Y37280D02*
X31529D01*
X31460Y37200D02*
X31529D01*
X31460Y37120D02*
X31529D01*
X31460Y36966D02*
Y37200D01*
X31286Y37440D02*
X31529D01*
X31366Y37360D02*
X31529D01*
X30814Y40483D02*
X31398D01*
X30880Y40117D02*
Y40483D01*
X30800Y40117D02*
Y40476D01*
X30729Y40117D02*
X31398D01*
X30720Y39644D02*
Y40456D01*
X30260Y40080D02*
X30729D01*
X30260Y40000D02*
X30729D01*
X30260Y39920D02*
X30729D01*
Y39643D02*
Y40117D01*
X30749Y39040D02*
X30929D01*
X30720Y39044D02*
Y39156D01*
X30880Y38966D02*
Y39234D01*
X30800Y39024D02*
Y39176D01*
X30260Y39840D02*
X30729D01*
X30260Y39760D02*
X30729D01*
X30260Y39680D02*
X30729D01*
X30260Y40800D02*
X30476D01*
X30640Y39638D02*
Y40462D01*
X30260Y40720D02*
X30456D01*
X30560Y39601D02*
Y40499D01*
X30480Y39508D02*
Y40592D01*
X30260Y40560D02*
X30499D01*
X30260Y40640D02*
X30462D01*
X30260Y40480D02*
X30592D01*
X30260Y39600D02*
X30558D01*
X30260Y39520D02*
X30486D01*
X30260Y39440D02*
X30458D01*
X30640Y39038D02*
Y39162D01*
X30560Y39001D02*
Y39199D01*
X30260Y39280D02*
X30486D01*
X30260Y39360D02*
X30458D01*
X30260Y39040D02*
X30651D01*
X30260Y39200D02*
X30558D01*
X30886Y38960D02*
X30929D01*
X30886D02*
X30929D01*
X30886Y38640D02*
X30929D01*
X30886D02*
X30929D01*
X30880Y38566D02*
Y38634D01*
X30886Y38560D02*
X30929D01*
X30880Y37760D02*
Y38234D01*
X30866Y37760D02*
X30900D01*
X30800Y37826D02*
Y38176D01*
X30866Y37760D02*
X30900D01*
X30260Y38366D02*
X30866Y37760D01*
X30480Y38908D02*
Y39292D01*
X30260Y38960D02*
X30514D01*
X30260Y38880D02*
X30468D01*
X30480Y38508D02*
Y38692D01*
X30260Y38800D02*
X30455D01*
X30260Y38640D02*
X30514D01*
X30260Y38720D02*
X30468D01*
X30260Y38560D02*
X30514D01*
X30260Y38480D02*
X30468D01*
X30560Y38066D02*
Y38199D01*
X30480Y38146D02*
Y38292D01*
X30720Y37906D02*
Y38156D01*
X30640Y37986D02*
Y38162D01*
X30306Y38320D02*
X30468D01*
X30260Y38400D02*
X30455D01*
X30466Y38160D02*
X30651D01*
X30386Y38240D02*
X30514D01*
X31935Y42800D02*
X32400D01*
X30800Y43265D02*
X31265Y42800D01*
X30800Y43265D02*
Y43300D01*
X31065Y39800D02*
Y40135D01*
X30800Y40200D02*
X31000D01*
X31065Y40135D01*
X31935Y38800D02*
X32300D01*
X30683D02*
X31065D01*
X30642Y38758D02*
X30683Y38800D01*
X30100Y38300D02*
Y44800D01*
X32400Y35800D02*
X33100D01*
X30900Y37600D02*
X31300Y37200D01*
Y36900D02*
Y37200D01*
Y36900D02*
X32400Y35800D01*
X30700Y45400D02*
X30800D01*
X30100Y38300D02*
X30800Y37600D01*
X30900D01*
X38854Y37154D02*
X38900Y37200D01*
X39500Y44700D02*
X40600D01*
X38900Y42800D02*
Y44100D01*
X38100Y39700D02*
Y42000D01*
X33600Y34500D02*
X33900Y34200D01*
X33600Y34500D02*
Y38900D01*
X38900Y44100D02*
X39500Y44700D01*
X28500Y49700D02*
X30000Y48200D01*
X28600Y37300D02*
Y47500D01*
X26500Y51000D02*
X27800Y49700D01*
X28500D01*
X29500Y37700D02*
Y47200D01*
X36400Y33600D02*
X37400D01*
X29500Y47200D02*
X29523Y47223D01*
X32300Y35500D02*
X32700D01*
X30200Y46000D02*
X30700Y46500D01*
X32400Y35100D02*
X33800Y33700D01*
X32100Y35100D02*
X32400D01*
X33800Y33700D02*
X36300D01*
X36400Y33600D01*
X34600Y33300D02*
X35300D01*
X34200Y32900D02*
X34600Y33300D01*
X34200Y31300D02*
Y32900D01*
X28100Y32100D02*
Y33300D01*
X27800Y36200D02*
Y40800D01*
X24250Y51250D02*
Y51650D01*
X27800Y36200D02*
X28000Y36000D01*
X48300Y37700D02*
X48334Y37666D01*
X51689Y38611D02*
X51700Y38600D01*
X47600Y39900D02*
X49204Y38296D01*
X46900Y41200D02*
X49174Y38926D01*
X47000Y41500D02*
X49259Y39241D01*
X44400Y41500D02*
X47000D01*
X46700Y42200D02*
X49344Y39556D01*
X46400Y43000D02*
X49529Y39871D01*
X43275Y55175D02*
X43315Y55135D01*
X43800D01*
X43225Y54675D02*
X43435Y54465D01*
X43800D01*
X42400Y54265D02*
X43265D01*
X41775Y54925D02*
X42424D01*
X41600Y53335D02*
Y54000D01*
Y53335D02*
X41735Y53200D01*
X41065D02*
Y53835D01*
X40400Y55335D02*
X40915D01*
X41075Y55175D01*
X39200Y54935D02*
X39665D01*
X39675Y54925D01*
X36886Y49486D02*
X38900Y51500D01*
Y53100D01*
X39100Y54200D02*
X39600D01*
X40400Y54665D02*
X41065D01*
X41075Y54675D01*
X43625Y53675D02*
X44600Y52700D01*
X45100D01*
X43200Y56600D02*
X44400Y55400D01*
X43400Y56800D02*
X45400Y54800D01*
X32600Y53100D02*
Y54800D01*
X34400Y56600D02*
X43200D01*
X32161Y52661D02*
X32600Y53100D01*
Y54800D02*
X34400Y56600D01*
X44400Y54700D02*
Y55400D01*
X31400Y51100D02*
Y54900D01*
X33300Y56800D01*
X45400Y54700D02*
Y54800D01*
X33300Y56800D02*
X43400D01*
X30800Y54700D02*
X33900Y57800D01*
X44600D01*
X46400Y56000D01*
X30800Y50900D02*
Y54700D01*
X46400D02*
Y56000D01*
X24250Y49250D02*
X24450D01*
X47635Y31835D02*
X47700Y31900D01*
X30000D02*
X30500Y31400D01*
X29100Y31900D02*
X30000D01*
X28400Y32600D02*
X29100Y31900D01*
X30500Y31400D02*
X30600D01*
X28400Y32600D02*
Y34300D01*
X27900Y42900D02*
Y45800D01*
X24450Y49250D02*
X27900Y45800D01*
X28900Y33100D02*
Y36500D01*
X28300Y37100D02*
X28900Y36500D01*
X28300Y37100D02*
Y46100D01*
X24700Y49700D02*
X28300Y46100D01*
X24200Y49700D02*
X24700D01*
X23600Y50300D02*
X24200Y49700D01*
X23300Y50300D02*
X23600D01*
X23000Y50600D02*
X23300Y50300D01*
X23000Y50600D02*
Y50900D01*
X23500Y51400D01*
Y51750D01*
X28900Y33100D02*
X29600Y32400D01*
X29200Y33900D02*
X30600Y32500D01*
X29200Y33900D02*
Y36700D01*
X28600Y37300D02*
X29200Y36700D01*
X30600Y32400D02*
Y32500D01*
X31000Y34100D02*
X32600Y32500D01*
X30400Y34100D02*
X31000D01*
X29600Y34900D02*
X30400Y34100D01*
X29600Y34900D02*
Y36900D01*
X29000Y37500D02*
X29600Y36900D01*
X29000Y37500D02*
Y47600D01*
X26350Y50250D02*
X29000Y47600D01*
X24250Y50250D02*
X26350D01*
X32600Y32400D02*
Y32500D01*
X25200Y43400D02*
X27800Y40800D01*
X25200Y43400D02*
Y48000D01*
X24400Y48800D02*
X25200Y48000D01*
X24100Y48800D02*
X24400D01*
X23700Y49200D02*
X24100Y48800D01*
X23500Y49200D02*
X23700D01*
X22900Y49800D02*
X23500Y49200D01*
X22600Y49800D02*
X22900D01*
X22300Y50100D02*
X22600Y49800D01*
X22300Y50100D02*
Y50400D01*
X22500Y50600D01*
Y50900D01*
X22300Y51100D02*
X22500Y50900D01*
X22300Y51100D02*
Y51500D01*
X22600Y51800D01*
X22900D01*
X23300Y52200D01*
X23700D01*
X24250Y51650D01*
X29200Y37700D02*
Y47900D01*
Y37700D02*
X32600Y34300D01*
X23500Y50750D02*
X26350D01*
X36700Y32600D02*
X39937D01*
X28700Y30700D02*
X34000D01*
X34800Y31500D01*
X26800Y32600D02*
Y33300D01*
X34800Y31500D02*
Y33000D01*
X26800Y32600D02*
X28700Y30700D01*
X28100Y32100D02*
X29300Y30900D01*
X33800D01*
X34200Y31300D01*
X26350Y50750D02*
X29200Y47900D01*
X40400Y32500D02*
X43700D01*
X39700Y33200D02*
X40400Y32500D01*
X39700Y33200D02*
Y33700D01*
X42900Y36900D02*
Y37323D01*
X43700Y32500D02*
X44500Y31700D01*
X39700Y33700D02*
X42900Y36900D01*
X30100Y44800D02*
X30700Y45400D01*
X30800Y36800D02*
X31000D01*
X29800Y37800D02*
X30800Y36800D01*
X29800Y37800D02*
Y45000D01*
X30200Y45400D01*
Y46000D01*
X31000Y36800D02*
X32300Y35500D01*
X29500Y37700D02*
X32100Y35100D01*
X32600Y46100D02*
Y47800D01*
X29700Y50700D02*
X32600Y47800D01*
Y46100D02*
X33300Y45400D01*
X37500Y42500D02*
X40659D01*
X28700Y51000D02*
X30600Y49100D01*
D13*
X34200Y38135D02*
D03*
Y37465D02*
D03*
X38200Y38135D02*
D03*
Y37465D02*
D03*
X38000Y46665D02*
D03*
Y47335D02*
D03*
X33800Y46665D02*
D03*
Y47335D02*
D03*
X35400Y38135D02*
D03*
Y37465D02*
D03*
X36800Y46665D02*
D03*
Y47335D02*
D03*
X37000Y38135D02*
D03*
Y37465D02*
D03*
X31800Y46665D02*
D03*
Y47335D02*
D03*
X43800Y54465D02*
D03*
Y55135D02*
D03*
X42400Y54265D02*
D03*
Y54935D02*
D03*
X40400Y55335D02*
D03*
Y54665D02*
D03*
X39200Y54265D02*
D03*
Y54935D02*
D03*
D15*
X31735Y40800D02*
D03*
X31065D02*
D03*
X31735Y43800D02*
D03*
X31065D02*
D03*
X40265Y44200D02*
D03*
X40935D02*
D03*
X40265Y41200D02*
D03*
X40935D02*
D03*
X31935Y44800D02*
D03*
X31265D02*
D03*
X31735Y39800D02*
D03*
X31065D02*
D03*
X40265Y40200D02*
D03*
X40935D02*
D03*
X40265Y45200D02*
D03*
X40935D02*
D03*
X40265Y43200D02*
D03*
X40935D02*
D03*
X40265Y46400D02*
D03*
X40935D02*
D03*
X39465Y47400D02*
D03*
X40135D02*
D03*
X31935Y42800D02*
D03*
X31265D02*
D03*
X31735Y41800D02*
D03*
X31065D02*
D03*
X31935Y38800D02*
D03*
X31265D02*
D03*
X32535Y37400D02*
D03*
X31865D02*
D03*
X40935Y37600D02*
D03*
X40265D02*
D03*
X40265Y38600D02*
D03*
X40935D02*
D03*
X41735Y53200D02*
D03*
X41065D02*
D03*
D24*
X62100Y36700D02*
Y35800D01*
X62700D01*
X63150Y36400D02*
X63450D01*
X63600Y36250D01*
Y35800D01*
X63150D01*
X63000Y35950D01*
X63150Y36100D01*
X63600D01*
X63899Y36400D02*
Y35950D01*
X64049Y35800D01*
X64499D01*
Y35650D01*
X64349Y35500D01*
X64199D01*
X64499Y35800D02*
Y36400D01*
X65249Y35800D02*
X64949D01*
X64799Y35950D01*
Y36250D01*
X64949Y36400D01*
X65249D01*
X65399Y36250D01*
Y36100D01*
X64799D01*
X65699Y36400D02*
Y35800D01*
Y36100D01*
X65849Y36250D01*
X65999Y36400D01*
X66149D01*
X67948Y35800D02*
Y36700D01*
X67498Y36250D01*
X68098D01*
D25*
X43100Y45500D02*
X50000Y52400D01*
X43100Y41800D02*
Y45500D01*
D26*
X40935Y45200D02*
X41231D01*
X40935D02*
Y45477D01*
Y44923D02*
Y45200D01*
X38000Y47335D02*
Y47631D01*
Y47335D02*
X38277D01*
X37723D02*
X38000D01*
X40935Y40200D02*
X41231D01*
X40935D02*
Y40477D01*
Y39923D02*
Y40200D01*
X38200Y37465D02*
X38477D01*
X37923D02*
X38200D01*
Y37169D02*
Y37465D01*
X34200D02*
X34477D01*
X34200Y37169D02*
Y37465D01*
X33800Y47335D02*
X34077D01*
X33800D02*
Y47631D01*
X33523Y47335D02*
X33800D01*
X31265Y44800D02*
Y45077D01*
Y44523D02*
Y44800D01*
X30969D02*
X31265D01*
X33923Y37465D02*
X34200D01*
X31065Y39800D02*
Y40077D01*
Y39523D02*
Y39800D01*
X30769D02*
X31065D01*
X35300Y47700D02*
X35311Y47711D01*
X31935Y44800D02*
X32200D01*
X30900Y44400D02*
X31300Y44800D01*
X30700Y44400D02*
X30900D01*
X30700D02*
Y44500D01*
X31400Y47600D02*
X31535D01*
X31800Y47335D01*
Y46665D02*
X32135D01*
X33800Y47400D02*
Y47700D01*
X33736Y47764D02*
X33800Y47700D01*
X36800Y47335D02*
Y47600D01*
X36689Y47711D02*
X36800Y47600D01*
X38000Y47335D02*
Y47600D01*
X37870Y47730D02*
X38000Y47600D01*
X40135Y47400D02*
Y47665D01*
X40035Y47765D02*
X40135Y47665D01*
X39465Y47400D02*
Y47565D01*
X39642Y47742D01*
X41200Y46400D02*
X41361Y46239D01*
X40935Y46400D02*
X41200D01*
X40935Y45200D02*
X41200Y44935D01*
Y44700D02*
Y44935D01*
X40935Y44200D02*
X41300D01*
X40935Y43200D02*
X41000D01*
X41283Y43483D01*
X40935Y41200D02*
X41246Y40889D01*
X40900Y41200D02*
X40917Y41183D01*
X40900Y41200D02*
Y41300D01*
X41246Y40754D02*
Y40889D01*
X40935Y40200D02*
X41135Y40400D01*
X41300D01*
X41000Y38700D02*
X41300D01*
X41358Y38758D01*
X41100Y37600D02*
X41320Y37380D01*
X40935Y37600D02*
X41100D01*
X40265Y37235D02*
Y37600D01*
X38200Y37100D02*
Y37465D01*
Y37100D02*
X38264Y37036D01*
X37000Y37100D02*
Y37465D01*
Y37100D02*
X37083Y37017D01*
X35311Y37011D02*
X35400Y37100D01*
Y37465D01*
X34130Y37030D02*
X34200Y37100D01*
Y37400D01*
X32358Y37058D02*
X32500Y37200D01*
Y37500D01*
X31900Y37100D02*
X31965Y37035D01*
X31900Y37100D02*
Y37500D01*
X30700Y40700D02*
X30965D01*
X31065Y40800D01*
X30700Y41400D02*
Y41435D01*
X31065Y41800D01*
Y43800D02*
X31200D01*
X30965Y43900D02*
X31065Y43800D01*
X30700Y43900D02*
X30965D01*
D27*
X29700Y51300D02*
Y51600D01*
X33000Y46400D02*
Y48000D01*
X29700Y51300D02*
X33000Y48000D01*
D28*
X33800Y46300D02*
Y46665D01*
X36800Y46300D02*
Y46665D01*
X38000Y46300D02*
Y46665D01*
X39900Y46400D02*
X40265D01*
X39900Y45200D02*
X40265D01*
X39900Y44200D02*
X40265D01*
X39900Y43200D02*
X40265D01*
X39900Y41200D02*
X40265D01*
X39900Y40200D02*
X40265D01*
X39900Y38600D02*
X40265D01*
X38200Y38135D02*
Y38500D01*
X37000Y38135D02*
Y38500D01*
X35400Y38135D02*
Y38500D01*
X34200Y38135D02*
Y38500D01*
X31735Y39800D02*
X32100D01*
X31735Y40800D02*
X32100D01*
X31735Y41800D02*
X32100D01*
X31735Y43800D02*
X32100D01*
D30*
X50020Y32391D02*
D03*
D31*
Y57194D02*
D03*
D32*
X33600Y32400D02*
D03*
X45500Y31700D02*
D03*
D33*
X33600Y31400D02*
D03*
X32600Y32400D02*
D03*
Y31400D02*
D03*
X31600Y32400D02*
D03*
Y31400D02*
D03*
X30600Y32400D02*
D03*
Y31400D02*
D03*
X29600Y32400D02*
D03*
Y31400D02*
D03*
X44500Y31700D02*
D03*
X37400Y31200D02*
D03*
Y31987D02*
D03*
X38187Y31200D02*
D03*
Y31987D02*
D03*
X38975Y31200D02*
D03*
Y31987D02*
D03*
X39762Y31200D02*
D03*
Y31987D02*
D03*
X40550Y31200D02*
D03*
Y31987D02*
D03*
X41337Y31200D02*
D03*
Y31987D02*
D03*
X42124Y31200D02*
D03*
Y31987D02*
D03*
D34*
X46400Y58300D02*
D03*
Y57300D02*
D03*
X43400Y58300D02*
D03*
Y57300D02*
D03*
X40600Y58300D02*
D03*
Y57300D02*
D03*
D35*
X45100Y52700D02*
D03*
D36*
Y53200D02*
D03*
Y53700D02*
D03*
D37*
X23125Y55210D02*
D03*
Y34790D02*
D03*
D38*
X24250Y53250D02*
D03*
X23500Y52750D02*
D03*
X24250Y52250D02*
D03*
X23500Y51750D02*
D03*
X24250Y51250D02*
D03*
X23500Y50750D02*
D03*
X24250Y50250D02*
D03*
X23500Y49750D02*
D03*
X24250Y49250D02*
D03*
X23500Y48750D02*
D03*
X24250Y48250D02*
D03*
X23500Y47750D02*
D03*
X24250Y47250D02*
D03*
X23500Y46750D02*
D03*
X24250Y46250D02*
D03*
X23500Y45750D02*
D03*
X24250Y45250D02*
D03*
X23500Y44750D02*
D03*
X24250Y44250D02*
D03*
X23500Y43750D02*
D03*
X24250Y43250D02*
D03*
X23500Y42750D02*
D03*
X24250Y42250D02*
D03*
X23500Y41750D02*
D03*
X24250Y41250D02*
D03*
X23500Y40750D02*
D03*
X24250Y40250D02*
D03*
X23500Y39750D02*
D03*
X24250Y39250D02*
D03*
X23500Y38750D02*
D03*
X24250Y38250D02*
D03*
X23500Y37750D02*
D03*
X24250Y37250D02*
D03*
X23500Y36750D02*
D03*
X22750Y53250D02*
D03*
X22000Y52750D02*
D03*
X22750Y52250D02*
D03*
X22000Y51750D02*
D03*
X22750Y51250D02*
D03*
X22000Y50750D02*
D03*
X22750Y50250D02*
D03*
X22000Y49750D02*
D03*
X22750Y49250D02*
D03*
X22000Y48750D02*
D03*
X22750Y48250D02*
D03*
X22000Y47750D02*
D03*
X22750Y47250D02*
D03*
X22000Y46750D02*
D03*
X22750Y46250D02*
D03*
X22000Y45750D02*
D03*
X22750Y45250D02*
D03*
X22000Y44750D02*
D03*
X22750Y44250D02*
D03*
X22000Y43750D02*
D03*
X22750Y43250D02*
D03*
X22000Y42750D02*
D03*
X22750Y42250D02*
D03*
X22000Y41750D02*
D03*
X22750Y41250D02*
D03*
X22000Y40750D02*
D03*
X22750Y40250D02*
D03*
X22000Y39750D02*
D03*
X22750Y39250D02*
D03*
X22000Y38750D02*
D03*
X22750Y38250D02*
D03*
X22000Y37750D02*
D03*
X22750Y37250D02*
D03*
X22000Y36750D02*
D03*
D39*
X23994Y35856D02*
D03*
D40*
X48980Y54280D02*
D03*
X52280D02*
D03*
X47600Y51000D02*
D03*
X52354Y51446D02*
D03*
X47625Y45225D02*
D03*
X52225D02*
D03*
X52235Y43335D02*
D03*
X52246Y41446D02*
D03*
X49100Y41000D02*
D03*
X52389Y38611D02*
D03*
X47611D02*
D03*
X47666Y37666D02*
D03*
X34700Y30900D02*
D03*
X36100Y49000D02*
D03*
X35311Y47711D02*
D03*
X34917Y48883D02*
D03*
X33146Y48946D02*
D03*
X29500Y47700D02*
D03*
X30700Y45000D02*
D03*
Y42900D02*
D03*
Y42200D02*
D03*
Y39400D02*
D03*
X32300Y38800D02*
D03*
X30700Y38400D02*
D03*
X33300Y37200D02*
D03*
X35705Y35905D02*
D03*
X36689Y35811D02*
D03*
X38854Y37154D02*
D03*
X40600Y44700D02*
D03*
X38900Y42800D02*
D03*
X38100Y42000D02*
D03*
Y39700D02*
D03*
X33600Y38900D02*
D03*
X33900Y34200D02*
D03*
X28700Y51000D02*
D03*
X30600Y49100D02*
D03*
X26500Y51000D02*
D03*
X30100Y48200D02*
D03*
X31100Y46200D02*
D03*
X30800Y45800D02*
D03*
X29523Y47223D02*
D03*
X35300Y33300D02*
D03*
X42600Y47100D02*
D03*
Y45000D02*
D03*
Y43300D02*
D03*
X41417Y41317D02*
D03*
X41300Y39800D02*
D03*
X39800Y37200D02*
D03*
X26865Y38065D02*
D03*
Y37035D02*
D03*
X28000Y36000D02*
D03*
X31400Y47600D02*
D03*
X32135Y46665D02*
D03*
X33736Y47764D02*
D03*
X36689Y47711D02*
D03*
X37870Y47730D02*
D03*
X40035Y47765D02*
D03*
X39642Y47742D02*
D03*
X41361Y46239D02*
D03*
X41200Y44700D02*
D03*
X41300Y44200D02*
D03*
X41283Y43483D02*
D03*
X41246Y40754D02*
D03*
X41300Y40400D02*
D03*
X41358Y38758D02*
D03*
X41320Y37380D02*
D03*
X40265Y37235D02*
D03*
X38264Y37036D02*
D03*
X37083Y37017D02*
D03*
X35311Y37011D02*
D03*
X34130Y37030D02*
D03*
X32358Y37058D02*
D03*
X31965Y37035D02*
D03*
X30980Y37080D02*
D03*
X30700Y38800D02*
D03*
X30800Y40200D02*
D03*
X30700Y40700D02*
D03*
Y41400D02*
D03*
X30800Y43300D02*
D03*
X30700Y43900D02*
D03*
Y44400D02*
D03*
X33800Y46300D02*
D03*
X36800D02*
D03*
X38000D02*
D03*
X39900Y46400D02*
D03*
Y45200D02*
D03*
Y44200D02*
D03*
Y43200D02*
D03*
Y41200D02*
D03*
Y40200D02*
D03*
Y38600D02*
D03*
X38200Y38500D02*
D03*
X37000D02*
D03*
X35400D02*
D03*
X34200D02*
D03*
X32100Y39800D02*
D03*
Y40800D02*
D03*
Y41800D02*
D03*
X32400Y42800D02*
D03*
X32100Y43800D02*
D03*
X32300Y44800D02*
D03*
X50057Y33257D02*
D03*
X40243D02*
D03*
X49728Y33572D02*
D03*
X40620Y33620D02*
D03*
X50013Y33887D02*
D03*
X41100Y33900D02*
D03*
X49702Y34202D02*
D03*
X41698D02*
D03*
X49936Y37036D02*
D03*
X49649Y37351D02*
D03*
X45600Y39600D02*
D03*
X43800D02*
D03*
X49919Y37981D02*
D03*
X49704Y38296D02*
D03*
X46500Y39100D02*
D03*
X44200Y39900D02*
D03*
X49874Y38926D02*
D03*
X43700Y41200D02*
D03*
X50259Y39241D02*
D03*
X44000Y41900D02*
D03*
X49944Y39556D02*
D03*
X44700Y42200D02*
D03*
X50129Y39871D02*
D03*
X43600Y43000D02*
D03*
X50314Y40186D02*
D03*
X43900Y43700D02*
D03*
X49800Y41200D02*
D03*
Y41800D02*
D03*
X43400Y45300D02*
D03*
X49700Y42400D02*
D03*
X46255Y45845D02*
D03*
X43100Y41800D02*
D03*
X41311Y41711D02*
D03*
X43800Y44400D02*
D03*
X50000Y52400D02*
D03*
X38461Y47739D02*
D03*
X50210Y54910D02*
D03*
X47400Y53800D02*
D03*
X33200Y51900D02*
D03*
X33700D02*
D03*
X34200D02*
D03*
X35200D02*
D03*
X36040Y52140D02*
D03*
X36340Y54660D02*
D03*
X37000Y53900D02*
D03*
X37660Y54660D02*
D03*
X37000Y55400D02*
D03*
X34969Y54369D02*
D03*
X34200Y55300D02*
D03*
X33468Y54369D02*
D03*
X34200Y53400D02*
D03*
X30360Y54660D02*
D03*
X32040D02*
D03*
X26600Y52400D02*
D03*
X28732Y54369D02*
D03*
X27232D02*
D03*
X28000Y53400D02*
D03*
Y52900D02*
D03*
X29400Y52400D02*
D03*
X30440Y52140D02*
D03*
X43275Y55175D02*
D03*
X43225Y54675D02*
D03*
X43265Y54265D02*
D03*
X41775Y54925D02*
D03*
X41600Y54000D02*
D03*
X41065Y53835D02*
D03*
X41075Y55175D02*
D03*
Y54675D02*
D03*
X39675Y54925D02*
D03*
X36886Y49486D02*
D03*
X38900Y53100D02*
D03*
X41200Y54300D02*
D03*
X39600Y54200D02*
D03*
X38600Y53800D02*
D03*
Y56200D02*
D03*
X39191Y55591D02*
D03*
X43625Y53675D02*
D03*
X44400Y54700D02*
D03*
X45400D02*
D03*
X46400D02*
D03*
X32200Y47500D02*
D03*
X32161Y52661D02*
D03*
X31400Y51100D02*
D03*
X30800Y50900D02*
D03*
X47635Y31835D02*
D03*
X28400Y34300D02*
D03*
X24600Y32500D02*
D03*
X25948Y34552D02*
D03*
X26800Y35600D02*
D03*
X27900Y42900D02*
D03*
X28600Y47500D02*
D03*
X32600Y34300D02*
D03*
X37135Y34335D02*
D03*
X34800Y33000D02*
D03*
X26800Y33300D02*
D03*
X28100D02*
D03*
X29435Y49735D02*
D03*
X28000Y50200D02*
D03*
X44535Y48035D02*
D03*
X44900Y47800D02*
D03*
X41265Y48335D02*
D03*
X45000Y46400D02*
D03*
X46600D02*
D03*
X42600Y46200D02*
D03*
X43300Y37800D02*
D03*
X43435Y38365D02*
D03*
X41300Y38100D02*
D03*
X46400Y35000D02*
D03*
X45400D02*
D03*
X44300D02*
D03*
X43400Y34800D02*
D03*
X42900Y37323D02*
D03*
X32700Y35500D02*
D03*
X30700Y46500D02*
D03*
X33100Y35800D02*
D03*
X30800Y45400D02*
D03*
X37400Y33600D02*
D03*
X40659Y42500D02*
D03*
X37500D02*
D03*
X33300Y45400D02*
D03*
X29700Y50700D02*
D03*
X26800Y49700D02*
D03*
D41*
X29700Y51600D02*
D03*
X33000Y46400D02*
D03*
M02*
