%FSLAX24Y24*%
%MOIN*%
G70*
G01*
G75*
%ADD10C,0.0080*%
%ADD11R,0.0866X0.0787*%
%ADD12R,0.0728X0.0118*%
%ADD13R,0.0118X0.0728*%
%ADD14R,0.0866X0.0157*%
%ADD15R,0.0866X0.0157*%
%ADD16R,0.0300X0.0600*%
%ADD17R,0.1000X0.1400*%
%ADD18R,0.0945X0.1024*%
%ADD19R,0.0787X0.0197*%
%ADD20R,0.1811X0.1772*%
%ADD21R,0.0394X0.0433*%
%ADD22R,0.0433X0.0394*%
%ADD23R,0.0571X0.0118*%
%ADD24C,0.0100*%
%ADD25C,0.0900*%
%ADD26C,0.0200*%
%ADD27C,0.0160*%
%ADD28C,0.0110*%
%ADD29C,0.0320*%
%ADD30C,0.0120*%
%ADD31C,0.1300*%
%ADD32C,0.0550*%
%ADD33C,0.0394*%
%ADD34R,0.0394X0.0394*%
%ADD35C,0.0787*%
%ADD36C,0.0591*%
%ADD37C,0.0500*%
%ADD38R,0.0591X0.0591*%
%ADD39C,0.0250*%
%ADD40C,0.0400*%
%ADD41C,0.0098*%
%ADD42C,0.0079*%
%ADD43C,0.0060*%
%ADD44C,0.0070*%
%ADD45R,0.0079X0.0197*%
%ADD46C,0.0020*%
%ADD47R,0.0197X0.0079*%
D10*
X44167Y52667D02*
X44100Y52600D01*
Y52467D01*
X44167Y52400D01*
X44233D01*
X44300Y52467D01*
Y52600D01*
X44367Y52667D01*
X44433D01*
X44500Y52600D01*
Y52467D01*
X44433Y52400D01*
X44500Y53000D02*
Y52867D01*
X44433Y52800D01*
X44300D01*
X44233Y52867D01*
Y53000D01*
X44300Y53066D01*
X44367D01*
Y52800D01*
X44233Y53200D02*
X44500D01*
X44367D01*
X44300Y53266D01*
X44233Y53333D01*
Y53400D01*
X44500Y53600D02*
Y53733D01*
Y53666D01*
X44233D01*
Y53600D01*
Y53999D02*
Y54133D01*
X44300Y54199D01*
X44500D01*
Y53999D01*
X44433Y53933D01*
X44367Y53999D01*
Y54199D01*
X44500Y54333D02*
Y54466D01*
Y54399D01*
X44100D01*
Y54333D01*
X29000Y31600D02*
X28833D01*
X28917D01*
Y31100D01*
X29000Y31183D01*
X28583D02*
X28500Y31100D01*
X28334D01*
X28250Y31183D01*
Y31517D01*
X28334Y31600D01*
X28500D01*
X28583Y31517D01*
Y31183D01*
X29000Y32517D02*
X28917Y32600D01*
X28750D01*
X28667Y32517D01*
Y32183D01*
X28750Y32100D01*
X28917D01*
X29000Y32183D01*
Y32267D01*
X28917Y32350D01*
X28667D01*
X34400Y32600D02*
X34233D01*
X34317D01*
Y32100D01*
X34400Y32183D01*
X34267Y31600D02*
X34600D01*
X34267Y31267D01*
Y31183D01*
X34350Y31100D01*
X34517D01*
X34600Y31183D01*
X31600Y56700D02*
X31650D01*
X31700Y56750D01*
Y57000D01*
X31950Y56800D02*
X32050D01*
X32100Y56850D01*
Y56950D01*
X32050Y57000D01*
X31950D01*
X31900Y56950D01*
Y56850D01*
X31950Y56800D01*
X32200D02*
Y57000D01*
X32350D01*
X32400Y56950D01*
Y56800D01*
X32550Y57000D02*
X32650D01*
X32700Y56950D01*
Y56800D01*
X32550D01*
X32500Y56850D01*
X32550Y56900D01*
X32700D01*
X32800Y56800D02*
X32950D01*
X33000Y56850D01*
X32950Y56900D01*
X32850D01*
X32800Y56950D01*
X32850Y57000D01*
X33000D01*
X33249Y56900D02*
Y56950D01*
X33199D01*
Y56900D01*
X33249D01*
X33299Y56950D01*
Y57050D01*
X33249Y57100D01*
X33149D01*
X33100Y57050D01*
Y56850D01*
X33149Y56800D01*
X33299D01*
X33399D02*
X33549D01*
X33599Y56850D01*
X33549Y56900D01*
X33449D01*
X33399Y56950D01*
X33449Y57000D01*
X33599D01*
X33749Y56800D02*
X33849D01*
X33899Y56850D01*
Y56950D01*
X33849Y57000D01*
X33749D01*
X33699Y56950D01*
Y56850D01*
X33749Y56800D01*
X33999D02*
Y57000D01*
X34049D01*
X34099Y56950D01*
Y56800D01*
Y56950D01*
X34149Y57000D01*
X34199Y56950D01*
Y56800D01*
X34349Y57000D02*
X34449D01*
X34499Y56950D01*
Y56800D01*
X34349D01*
X34299Y56850D01*
X34349Y56900D01*
X34499D01*
X34599Y56800D02*
Y56850D01*
X34649D01*
Y56800D01*
X34599D01*
X34849D02*
Y57000D01*
X34899D01*
X34949Y56950D01*
Y56800D01*
Y56950D01*
X34999Y57000D01*
X35049Y56950D01*
Y56800D01*
X35149D02*
X35249D01*
X35199D01*
Y57000D01*
X35149D01*
X35449Y57050D02*
Y57000D01*
X35399D01*
X35499D01*
X35449D01*
Y56850D01*
X35499Y56800D01*
X35649D02*
Y56850D01*
X35699D01*
Y56800D01*
X35649D01*
X36049D02*
X35949D01*
X35899Y56850D01*
Y56950D01*
X35949Y57000D01*
X36049D01*
X36099Y56950D01*
Y56900D01*
X35899D01*
X36398Y57100D02*
Y56800D01*
X36249D01*
X36199Y56850D01*
Y56950D01*
X36249Y57000D01*
X36398D01*
X36498D02*
Y56850D01*
X36548Y56800D01*
X36698D01*
Y57000D01*
D24*
X32800Y53000D02*
X35600D01*
Y54400D01*
X32800D02*
X35600D01*
X32800Y53000D02*
Y54400D01*
X26600Y53000D02*
X29400D01*
Y54400D01*
X26600D02*
X29400D01*
X26600Y53000D02*
Y54400D01*
X55900Y38100D02*
Y38500D01*
Y38300D01*
X56500D01*
X56100Y38700D02*
X56500D01*
X56300D01*
X56200Y38800D01*
X56100Y38900D01*
Y39000D01*
X56500Y39300D02*
Y39500D01*
Y39400D01*
X56100D01*
Y39300D01*
X56000Y39899D02*
X56100D01*
Y39799D01*
Y39999D01*
Y39899D01*
X56400D01*
X56500Y39999D01*
Y40399D02*
Y40599D01*
X56400Y40699D01*
X56200D01*
X56100Y40599D01*
Y40399D01*
X56200Y40299D01*
X56400D01*
X56500Y40399D01*
Y40899D02*
X56100D01*
Y41199D01*
X56200Y41299D01*
X56500D01*
X56200Y41499D02*
Y41899D01*
X55900Y42499D02*
Y42099D01*
X56500D01*
Y42499D01*
X56200Y42099D02*
Y42299D01*
X56000Y43098D02*
X55900Y42998D01*
Y42798D01*
X56000Y42699D01*
X56400D01*
X56500Y42798D01*
Y42998D01*
X56400Y43098D01*
X55900Y43598D02*
Y43398D01*
X56000Y43298D01*
X56400D01*
X56500Y43398D01*
Y43598D01*
X56400Y43698D01*
X56000D01*
X55900Y43598D01*
X56500Y44498D02*
Y44698D01*
Y44598D01*
X55900D01*
X56000Y44498D01*
X56500Y45298D02*
X55900D01*
X56200Y44998D01*
Y45398D01*
X56500Y45897D02*
X55900D01*
X56200Y45598D01*
Y45997D01*
Y46197D02*
Y46597D01*
X56700Y46797D02*
X56100D01*
Y47097D01*
X56200Y47197D01*
X56400D01*
X56500Y47097D01*
Y46797D01*
Y47397D02*
Y47597D01*
Y47497D01*
X56100D01*
Y47397D01*
X56500Y47897D02*
X56100D01*
Y48197D01*
X56200Y48297D01*
X56500D01*
X55900Y49096D02*
X56500D01*
Y49396D01*
X56400Y49496D01*
X56000D01*
X55900Y49396D01*
Y49096D01*
Y49696D02*
Y49896D01*
Y49796D01*
X56500D01*
Y49696D01*
Y49896D01*
Y50196D02*
X55900D01*
X56100Y50396D01*
X55900Y50596D01*
X56500D01*
Y50796D02*
X55900D01*
X56100Y50996D01*
X55900Y51196D01*
X56500D01*
X23650Y57825D02*
X23575Y57900D01*
X23425D01*
X23350Y57825D01*
Y57525D01*
X23425Y57450D01*
X23575D01*
X23650Y57525D01*
X23875Y57450D02*
X24025D01*
X24100Y57525D01*
Y57675D01*
X24025Y57750D01*
X23875D01*
X23800Y57675D01*
Y57525D01*
X23875Y57450D01*
X24250Y57300D02*
Y57750D01*
X24475D01*
X24550Y57675D01*
Y57525D01*
X24475Y57450D01*
X24250D01*
X24700Y57750D02*
Y57525D01*
X24775Y57450D01*
X24999D01*
Y57375D01*
X24924Y57300D01*
X24850D01*
X24999Y57450D02*
Y57750D01*
X25149D02*
Y57450D01*
Y57600D01*
X25224Y57675D01*
X25299Y57750D01*
X25374D01*
X25599Y57450D02*
X25749D01*
X25674D01*
Y57750D01*
X25599D01*
X26124Y57300D02*
X26199D01*
X26274Y57375D01*
Y57750D01*
X26049D01*
X25974Y57675D01*
Y57525D01*
X26049Y57450D01*
X26274D01*
X26424Y57900D02*
Y57450D01*
Y57675D01*
X26499Y57750D01*
X26649D01*
X26724Y57675D01*
Y57450D01*
X26949Y57825D02*
Y57750D01*
X26874D01*
X27024D01*
X26949D01*
Y57525D01*
X27024Y57450D01*
X27998Y57900D02*
X27699D01*
Y57450D01*
X27998D01*
X27699Y57675D02*
X27849D01*
X28148Y57750D02*
Y57450D01*
Y57600D01*
X28223Y57675D01*
X28298Y57750D01*
X28373D01*
X28598Y57450D02*
X28748D01*
X28673D01*
Y57750D01*
X28598D01*
X29273D02*
X29048D01*
X28973Y57675D01*
Y57525D01*
X29048Y57450D01*
X29273D01*
X30173Y57900D02*
X30023D01*
X30098D01*
Y57525D01*
X30023Y57450D01*
X29948D01*
X29873Y57525D01*
X30398Y57450D02*
X30548D01*
X30623Y57525D01*
Y57675D01*
X30548Y57750D01*
X30398D01*
X30323Y57675D01*
Y57525D01*
X30398Y57450D01*
X30773D02*
Y57750D01*
X30998D01*
X31073Y57675D01*
Y57450D01*
X31297Y57750D02*
X31447D01*
X31522Y57675D01*
Y57450D01*
X31297D01*
X31222Y57525D01*
X31297Y57600D01*
X31522D01*
X31672Y57450D02*
X31897D01*
X31972Y57525D01*
X31897Y57600D01*
X31747D01*
X31672Y57675D01*
X31747Y57750D01*
X31972D01*
D30*
X23800Y58800D02*
X23700Y58900D01*
X23500D01*
X23400Y58800D01*
Y58700D01*
X23500Y58600D01*
X23700D01*
X23800Y58500D01*
Y58400D01*
X23700Y58300D01*
X23500D01*
X23400Y58400D01*
X24300Y58900D02*
X24100D01*
X24000Y58800D01*
Y58400D01*
X24100Y58300D01*
X24300D01*
X24400Y58400D01*
Y58800D01*
X24300Y58900D01*
X24600Y58300D02*
Y58900D01*
X24800Y58700D01*
X24999Y58900D01*
Y58300D01*
X25199D02*
Y58700D01*
X25399Y58900D01*
X25599Y58700D01*
Y58300D01*
Y58600D01*
X25199D01*
X26399Y58300D02*
Y58900D01*
X26799Y58300D01*
Y58900D01*
X27299Y58300D02*
X27099D01*
X26999Y58400D01*
Y58600D01*
X27099Y58700D01*
X27299D01*
X27399Y58600D01*
Y58500D01*
X26999D01*
X27599Y58700D02*
Y58400D01*
X27699Y58300D01*
X27999D01*
Y58700D01*
X28198D02*
Y58300D01*
Y58500D01*
X28298Y58600D01*
X28398Y58700D01*
X28498D01*
X28898D02*
X29098D01*
X29198Y58600D01*
Y58300D01*
X28898D01*
X28798Y58400D01*
X28898Y58500D01*
X29198D01*
X29398Y58300D02*
X29598D01*
X29498D01*
Y58900D01*
X29398D01*
X30898D02*
X30498D01*
Y58300D01*
X30898D01*
X30498Y58600D02*
X30698D01*
X31098Y58700D02*
X31297Y58300D01*
X31497Y58700D01*
X31997Y58300D02*
X31797D01*
X31697Y58400D01*
Y58600D01*
X31797Y58700D01*
X31997D01*
X32097Y58600D01*
Y58500D01*
X31697D01*
X32297Y58300D02*
Y58700D01*
X32597D01*
X32697Y58600D01*
Y58300D01*
X32997Y58800D02*
Y58700D01*
X32897D01*
X33097D01*
X32997D01*
Y58400D01*
X33097Y58300D01*
X33997D02*
Y58900D01*
X34296D01*
X34396Y58800D01*
Y58600D01*
X34296Y58500D01*
X33997D01*
X34596Y58700D02*
Y58300D01*
Y58500D01*
X34696Y58600D01*
X34796Y58700D01*
X34896D01*
X35296Y58300D02*
X35496D01*
X35596Y58400D01*
Y58600D01*
X35496Y58700D01*
X35296D01*
X35196Y58600D01*
Y58400D01*
X35296Y58300D01*
X36196Y58700D02*
X35896D01*
X35796Y58600D01*
Y58400D01*
X35896Y58300D01*
X36196D01*
X36696D02*
X36496D01*
X36396Y58400D01*
Y58600D01*
X36496Y58700D01*
X36696D01*
X36796Y58600D01*
Y58500D01*
X36396D01*
X36996Y58300D02*
X37295D01*
X37395Y58400D01*
X37295Y58500D01*
X37096D01*
X36996Y58600D01*
X37096Y58700D01*
X37395D01*
X37595Y58300D02*
X37895D01*
X37995Y58400D01*
X37895Y58500D01*
X37695D01*
X37595Y58600D01*
X37695Y58700D01*
X37995D01*
X38295Y58300D02*
X38495D01*
X38595Y58400D01*
Y58600D01*
X38495Y58700D01*
X38295D01*
X38195Y58600D01*
Y58400D01*
X38295Y58300D01*
X38795Y58700D02*
Y58300D01*
Y58500D01*
X38895Y58600D01*
X38995Y58700D01*
X39095D01*
X35283Y57350D02*
X34950D01*
X35283Y57683D01*
Y57767D01*
X35200Y57850D01*
X35033D01*
X34950Y57767D01*
X35450D02*
X35533Y57850D01*
X35700D01*
X35783Y57767D01*
Y57433D01*
X35700Y57350D01*
X35533D01*
X35450Y57433D01*
Y57767D01*
X35950D02*
X36033Y57850D01*
X36200D01*
X36283Y57767D01*
Y57433D01*
X36200Y57350D01*
X36033D01*
X35950Y57433D01*
Y57767D01*
X36699Y57350D02*
Y57850D01*
X36450Y57600D01*
X36783D01*
D41*
X30754Y36465D02*
G03*
X30754Y36465I-49J0D01*
G01*
X40426Y55470D02*
G03*
X40426Y55470I-49J0D01*
G01*
X27561Y31973D02*
G03*
X27561Y31973I-49J0D01*
G01*
D42*
X41337Y55522D02*
G03*
X41462Y55522I63J0D01*
G01*
X26603Y32101D02*
G03*
X26197Y32101I-203J0D01*
G01*
X38009Y53858D02*
Y55945D01*
X39191Y53858D02*
Y55945D01*
X38009Y53858D02*
X39191D01*
X44746Y54054D02*
X45454D01*
X44746Y52346D02*
Y54054D01*
Y52346D02*
X45454D01*
Y54054D01*
X30587Y47813D02*
X41413D01*
X30587Y36987D02*
X41413D01*
X30587D02*
Y47813D01*
X41413Y36987D02*
Y47813D01*
X40967Y52078D02*
Y55522D01*
Y52078D02*
X41833D01*
Y55522D01*
X41462D02*
X41833D01*
X40967D02*
X41337D01*
X36370Y51471D02*
Y55132D01*
X37630Y51471D02*
Y55132D01*
X36370Y51471D02*
X37630D01*
X30570D02*
Y55132D01*
X31830Y51471D02*
Y55132D01*
X30570Y51471D02*
X31830D01*
X36809Y30609D02*
Y32578D01*
Y30609D02*
X42715D01*
X36809Y32578D02*
X42715D01*
Y30609D02*
Y32578D01*
X44046Y54891D02*
Y55462D01*
X44754Y54891D02*
Y55462D01*
X44046Y54891D02*
X44754D01*
X44046Y56309D02*
X44754D01*
X44046Y55738D02*
Y56309D01*
X44754Y55738D02*
Y56309D01*
X45046Y54891D02*
Y55462D01*
X45754Y54891D02*
Y55462D01*
X45046Y54891D02*
X45754D01*
X45046Y56309D02*
X45754D01*
X45046Y55738D02*
Y56309D01*
X45754Y55738D02*
Y56309D01*
X46046Y54891D02*
Y55462D01*
X46754Y54891D02*
Y55462D01*
X46046Y54891D02*
X46754D01*
X46046Y56309D02*
X46754D01*
X46046Y55738D02*
Y56309D01*
X46754Y55738D02*
Y56309D01*
X44338Y48046D02*
X44909D01*
X44338Y48754D02*
X44909D01*
Y48046D02*
Y48754D01*
X43491Y48046D02*
Y48754D01*
Y48046D02*
X44062D01*
X43491Y48754D02*
X44062D01*
X44338Y47046D02*
X44909D01*
X44338Y47754D02*
X44909D01*
Y47046D02*
Y47754D01*
X43491Y47046D02*
Y47754D01*
Y47046D02*
X44062D01*
X43491Y47754D02*
X44062D01*
X45938Y46046D02*
X46509D01*
X45938Y46754D02*
X46509D01*
Y46046D02*
Y46754D01*
X45091Y46046D02*
Y46754D01*
Y46046D02*
X45662D01*
X45091Y46754D02*
X45662D01*
X28646Y48691D02*
Y49262D01*
X29354Y48691D02*
Y49262D01*
X28646Y48691D02*
X29354D01*
X28646Y50109D02*
X29354D01*
X28646Y49538D02*
Y50109D01*
X29354Y49538D02*
Y50109D01*
X44338Y46046D02*
X44909D01*
X44338Y46754D02*
X44909D01*
Y46046D02*
Y46754D01*
X43491Y46046D02*
Y46754D01*
Y46046D02*
X44062D01*
X43491Y46754D02*
X44062D01*
X27646Y48691D02*
Y49262D01*
X28354Y48691D02*
Y49262D01*
X27646Y48691D02*
X28354D01*
X27646Y50109D02*
X28354D01*
X27646Y49538D02*
Y50109D01*
X28354Y49538D02*
Y50109D01*
X26991Y35954D02*
X27562D01*
X26991Y35246D02*
X27562D01*
X26991D02*
Y35954D01*
X28409Y35246D02*
Y35954D01*
X27838D02*
X28409D01*
X27838Y35246D02*
X28409D01*
X46746Y30791D02*
Y31362D01*
X47454Y30791D02*
Y31362D01*
X46746Y30791D02*
X47454D01*
X46746Y32209D02*
X47454D01*
X46746Y31638D02*
Y32209D01*
X47454Y31638D02*
Y32209D01*
X37154Y34138D02*
Y34709D01*
X36446Y34138D02*
Y34709D01*
X37154D01*
X36446Y33291D02*
X37154D01*
Y33862D01*
X36446Y33291D02*
Y33862D01*
X44000Y31200D02*
Y32200D01*
X46000D01*
Y31200D02*
Y32200D01*
X44000Y31200D02*
X46000D01*
X46046Y35091D02*
Y35662D01*
X46754Y35091D02*
Y35662D01*
X46046Y35091D02*
X46754D01*
X46046Y36509D02*
X46754D01*
X46046Y35938D02*
Y36509D01*
X46754Y35938D02*
Y36509D01*
X35154Y34138D02*
Y34709D01*
X34446Y34138D02*
Y34709D01*
X35154D01*
X34446Y33291D02*
X35154D01*
Y33862D01*
X34446Y33291D02*
Y33862D01*
X35446Y33291D02*
Y33862D01*
X36154Y33291D02*
Y33862D01*
X35446Y33291D02*
X36154D01*
X35446Y34709D02*
X36154D01*
X35446Y34138D02*
Y34709D01*
X36154Y34138D02*
Y34709D01*
X45046Y35091D02*
Y35662D01*
X45754Y35091D02*
Y35662D01*
X45046Y35091D02*
X45754D01*
X45046Y36509D02*
X45754D01*
X45046Y35938D02*
Y36509D01*
X45754Y35938D02*
Y36509D01*
X26491Y37754D02*
X27062D01*
X26491Y37046D02*
X27062D01*
X26491D02*
Y37754D01*
X27909Y37046D02*
Y37754D01*
X27338D02*
X27909D01*
X27338Y37046D02*
X27909D01*
X31154Y34538D02*
Y35109D01*
X30446Y34538D02*
Y35109D01*
X31154D01*
X30446Y33691D02*
X31154D01*
Y34262D01*
X30446Y33691D02*
Y34262D01*
X31646Y33691D02*
Y34262D01*
X32354Y33691D02*
Y34262D01*
X31646Y33691D02*
X32354D01*
X31646Y35109D02*
X32354D01*
X31646Y34538D02*
Y35109D01*
X32354Y34538D02*
Y35109D01*
X26491Y38754D02*
X27062D01*
X26491Y38046D02*
X27062D01*
X26491D02*
Y38754D01*
X27909Y38046D02*
Y38754D01*
X27338D02*
X27909D01*
X27338Y38046D02*
X27909D01*
X44046Y35091D02*
Y35662D01*
X44754Y35091D02*
Y35662D01*
X44046Y35091D02*
X44754D01*
X44046Y36509D02*
X44754D01*
X44046Y35938D02*
Y36509D01*
X44754Y35938D02*
Y36509D01*
X25731Y32101D02*
Y34699D01*
X27069Y32101D02*
Y34699D01*
X25731D02*
X27069D01*
X25731Y32101D02*
X26195D01*
X26605D02*
X27069D01*
X29100Y32900D02*
X34100D01*
X29100Y30900D02*
X34100D01*
Y32900D01*
X29100Y30900D02*
Y32900D01*
X35954Y31738D02*
Y32309D01*
X35246Y31738D02*
Y32309D01*
X35954D01*
X35246Y30891D02*
X35954D01*
Y31462D01*
X35246Y30891D02*
Y31462D01*
X43046Y35091D02*
Y35662D01*
X43754Y35091D02*
Y35662D01*
X43046Y35091D02*
X43754D01*
X43046Y36509D02*
X43754D01*
X43046Y35938D02*
Y36509D01*
X43754Y35938D02*
Y36509D01*
D43*
X40920Y56948D02*
G03*
X40249Y56960I-320J852D01*
G01*
X43720Y56948D02*
G03*
X43049Y56960I-320J852D01*
G01*
X46720Y56948D02*
G03*
X46049Y56960I-320J852D01*
G01*
X40260Y56950D02*
X40921D01*
X43060D02*
X43721D01*
X46060D02*
X46721D01*
D44*
X45000Y54600D02*
X44900D01*
X44950D01*
Y54350D01*
X44900Y54300D01*
X44850D01*
X44800Y54350D01*
X45100Y54300D02*
Y54600D01*
X45250D01*
X45300Y54550D01*
Y54450D01*
X45250Y54400D01*
X45100D01*
X45400Y54300D02*
X45500D01*
X45450D01*
Y54600D01*
X45400Y54550D01*
X39970Y56140D02*
Y55890D01*
X40020Y55840D01*
X40120D01*
X40170Y55890D01*
Y56140D01*
X40470D02*
X40370Y56090D01*
X40270Y55990D01*
Y55890D01*
X40320Y55840D01*
X40420D01*
X40470Y55890D01*
Y55940D01*
X40420Y55990D01*
X40270D01*
X26620Y55680D02*
Y55430D01*
X26670Y55380D01*
X26770D01*
X26820Y55430D01*
Y55680D01*
X27120D02*
X26920D01*
Y55530D01*
X27020Y55580D01*
X27070D01*
X27120Y55530D01*
Y55430D01*
X27070Y55380D01*
X26970D01*
X26920Y55430D01*
X32820Y55680D02*
Y55430D01*
X32870Y55380D01*
X32970D01*
X33020Y55430D01*
Y55680D01*
X33270Y55380D02*
Y55680D01*
X33120Y55530D01*
X33320D01*
X50900Y57900D02*
Y57650D01*
X50950Y57600D01*
X51050D01*
X51100Y57650D01*
Y57900D01*
X51200Y57850D02*
X51250Y57900D01*
X51350D01*
X51400Y57850D01*
Y57800D01*
X51350Y57750D01*
X51300D01*
X51350D01*
X51400Y57700D01*
Y57650D01*
X51350Y57600D01*
X51250D01*
X51200Y57650D01*
X26000Y35200D02*
Y34950D01*
X26050Y34900D01*
X26150D01*
X26200Y34950D01*
Y35200D01*
X26500Y34900D02*
X26300D01*
X26500Y35100D01*
Y35150D01*
X26450Y35200D01*
X26350D01*
X26300Y35150D01*
X29900Y48400D02*
Y48150D01*
X29950Y48100D01*
X30050D01*
X30100Y48150D01*
Y48400D01*
X30200Y48100D02*
X30300D01*
X30250D01*
Y48400D01*
X30200Y48350D01*
X43000Y36700D02*
Y37000D01*
X43150D01*
X43200Y36950D01*
Y36850D01*
X43150Y36800D01*
X43000D01*
X43100D02*
X43200Y36700D01*
X43500D02*
X43300D01*
X43500Y36900D01*
Y36950D01*
X43450Y37000D01*
X43350D01*
X43300Y36950D01*
X43600D02*
X43650Y37000D01*
X43750D01*
X43800Y36950D01*
Y36900D01*
X43750Y36850D01*
X43700D01*
X43750D01*
X43800Y36800D01*
Y36750D01*
X43750Y36700D01*
X43650D01*
X43600Y36750D01*
X44000Y36700D02*
Y37000D01*
X44150D01*
X44200Y36950D01*
Y36850D01*
X44150Y36800D01*
X44000D01*
X44100D02*
X44200Y36700D01*
X44500D02*
X44300D01*
X44500Y36900D01*
Y36950D01*
X44450Y37000D01*
X44350D01*
X44300Y36950D01*
X44800Y36700D02*
X44600D01*
X44800Y36900D01*
Y36950D01*
X44750Y37000D01*
X44650D01*
X44600Y36950D01*
X26400Y38000D02*
X26100D01*
Y38150D01*
X26150Y38200D01*
X26250D01*
X26300Y38150D01*
Y38000D01*
Y38100D02*
X26400Y38200D01*
Y38500D02*
Y38300D01*
X26200Y38500D01*
X26150D01*
X26100Y38450D01*
Y38350D01*
X26150Y38300D01*
X26400Y38600D02*
Y38700D01*
Y38650D01*
X26100D01*
X26150Y38600D01*
X26400Y37000D02*
X26100D01*
Y37150D01*
X26150Y37200D01*
X26250D01*
X26300Y37150D01*
Y37000D01*
Y37100D02*
X26400Y37200D01*
Y37500D02*
Y37300D01*
X26200Y37500D01*
X26150D01*
X26100Y37450D01*
Y37350D01*
X26150Y37300D01*
Y37600D02*
X26100Y37650D01*
Y37750D01*
X26150Y37800D01*
X26350D01*
X26400Y37750D01*
Y37650D01*
X26350Y37600D01*
X26150D01*
X45000Y36700D02*
Y37000D01*
X45150D01*
X45200Y36950D01*
Y36850D01*
X45150Y36800D01*
X45000D01*
X45100D02*
X45200Y36700D01*
X45300D02*
X45400D01*
X45350D01*
Y37000D01*
X45300Y36950D01*
X45550Y36750D02*
X45600Y36700D01*
X45700D01*
X45750Y36750D01*
Y36950D01*
X45700Y37000D01*
X45600D01*
X45550Y36950D01*
Y36900D01*
X45600Y36850D01*
X45750D01*
X46000Y36700D02*
Y37000D01*
X46150D01*
X46200Y36950D01*
Y36850D01*
X46150Y36800D01*
X46000D01*
X46100D02*
X46200Y36700D01*
X46300D02*
X46400D01*
X46350D01*
Y37000D01*
X46300Y36950D01*
X46550D02*
X46600Y37000D01*
X46700D01*
X46750Y36950D01*
Y36900D01*
X46700Y36850D01*
X46750Y36800D01*
Y36750D01*
X46700Y36700D01*
X46600D01*
X46550Y36750D01*
Y36800D01*
X46600Y36850D01*
X46550Y36900D01*
Y36950D01*
X46600Y36850D02*
X46700D01*
X27600Y50420D02*
Y50720D01*
X27750D01*
X27800Y50670D01*
Y50570D01*
X27750Y50520D01*
X27600D01*
X27700D02*
X27800Y50420D01*
X27900D02*
X28000D01*
X27950D01*
Y50720D01*
X27900Y50670D01*
X28150Y50720D02*
X28350D01*
Y50670D01*
X28150Y50470D01*
Y50420D01*
X44800Y45845D02*
Y45545D01*
X44650D01*
X44600Y45595D01*
Y45695D01*
X44650Y45745D01*
X44800D01*
X44700D02*
X44600Y45845D01*
X44500D02*
X44400D01*
X44450D01*
Y45545D01*
X44500Y45595D01*
X44050Y45545D02*
X44150Y45595D01*
X44250Y45695D01*
Y45795D01*
X44200Y45845D01*
X44100D01*
X44050Y45795D01*
Y45745D01*
X44100Y45695D01*
X44250D01*
X28600Y50420D02*
Y50720D01*
X28750D01*
X28800Y50670D01*
Y50570D01*
X28750Y50520D01*
X28600D01*
X28700D02*
X28800Y50420D01*
X28900D02*
X29000D01*
X28950D01*
Y50720D01*
X28900Y50670D01*
X29350Y50720D02*
X29150D01*
Y50570D01*
X29250Y50620D01*
X29300D01*
X29350Y50570D01*
Y50470D01*
X29300Y50420D01*
X29200D01*
X29150Y50470D01*
X46600Y46700D02*
X46900D01*
Y46550D01*
X46850Y46500D01*
X46750D01*
X46700Y46550D01*
Y46700D01*
Y46600D02*
X46600Y46500D01*
Y46400D02*
Y46300D01*
Y46350D01*
X46900D01*
X46850Y46400D01*
X46600Y46000D02*
X46900D01*
X46750Y46150D01*
Y45950D01*
X45000Y47800D02*
X45300D01*
Y47650D01*
X45250Y47600D01*
X45150D01*
X45100Y47650D01*
Y47800D01*
Y47700D02*
X45000Y47600D01*
Y47500D02*
Y47400D01*
Y47450D01*
X45300D01*
X45250Y47500D01*
Y47250D02*
X45300Y47200D01*
Y47100D01*
X45250Y47050D01*
X45200D01*
X45150Y47100D01*
Y47150D01*
Y47100D01*
X45100Y47050D01*
X45050D01*
X45000Y47100D01*
Y47200D01*
X45050Y47250D01*
X45000Y48800D02*
X45300D01*
Y48650D01*
X45250Y48600D01*
X45150D01*
X45100Y48650D01*
Y48800D01*
Y48700D02*
X45000Y48600D01*
Y48500D02*
Y48400D01*
Y48450D01*
X45300D01*
X45250Y48500D01*
X45000Y48050D02*
Y48250D01*
X45200Y48050D01*
X45250D01*
X45300Y48100D01*
Y48200D01*
X45250Y48250D01*
X35300Y32500D02*
Y32800D01*
X35450D01*
X35500Y32750D01*
Y32650D01*
X35450Y32600D01*
X35300D01*
X35400D02*
X35500Y32500D01*
X35600D02*
X35700D01*
X35650D01*
Y32800D01*
X35600Y32750D01*
X35850Y32500D02*
X35950D01*
X35900D01*
Y32800D01*
X35850Y32750D01*
X31600Y35200D02*
Y35500D01*
X31750D01*
X31800Y35450D01*
Y35350D01*
X31750Y35300D01*
X31600D01*
X31700D02*
X31800Y35200D01*
X31900D02*
X32000D01*
X31950D01*
Y35500D01*
X31900Y35450D01*
X32150D02*
X32200Y35500D01*
X32300D01*
X32350Y35450D01*
Y35250D01*
X32300Y35200D01*
X32200D01*
X32150Y35250D01*
Y35450D01*
X30500Y35200D02*
Y35500D01*
X30650D01*
X30700Y35450D01*
Y35350D01*
X30650Y35300D01*
X30500D01*
X30600D02*
X30700Y35200D01*
X30800Y35250D02*
X30850Y35200D01*
X30950D01*
X31000Y35250D01*
Y35450D01*
X30950Y35500D01*
X30850D01*
X30800Y35450D01*
Y35400D01*
X30850Y35350D01*
X31000D01*
X35497Y34803D02*
Y35103D01*
X35647D01*
X35697Y35053D01*
Y34953D01*
X35647Y34903D01*
X35497D01*
X35597D02*
X35697Y34803D01*
X35797Y35053D02*
X35847Y35103D01*
X35947D01*
X35997Y35053D01*
Y35003D01*
X35947Y34953D01*
X35997Y34903D01*
Y34853D01*
X35947Y34803D01*
X35847D01*
X35797Y34853D01*
Y34903D01*
X35847Y34953D01*
X35797Y35003D01*
Y35053D01*
X35847Y34953D02*
X35947D01*
X34600Y34800D02*
Y35100D01*
X34750D01*
X34800Y35050D01*
Y34950D01*
X34750Y34900D01*
X34600D01*
X34700D02*
X34800Y34800D01*
X34900Y35100D02*
X35100D01*
Y35050D01*
X34900Y34850D01*
Y34800D01*
X36500D02*
Y35100D01*
X36650D01*
X36700Y35050D01*
Y34950D01*
X36650Y34900D01*
X36500D01*
X36600D02*
X36700Y34800D01*
X37000Y35100D02*
X36900Y35050D01*
X36800Y34950D01*
Y34850D01*
X36850Y34800D01*
X36950D01*
X37000Y34850D01*
Y34900D01*
X36950Y34950D01*
X36800D01*
X46700Y32520D02*
Y32820D01*
X46850D01*
X46900Y32770D01*
Y32670D01*
X46850Y32620D01*
X46700D01*
X46800D02*
X46900Y32520D01*
X47200Y32820D02*
X47000D01*
Y32670D01*
X47100Y32720D01*
X47150D01*
X47200Y32670D01*
Y32570D01*
X47150Y32520D01*
X47050D01*
X47000Y32570D01*
X28600Y35900D02*
X28900D01*
Y35750D01*
X28850Y35700D01*
X28750D01*
X28700Y35750D01*
Y35900D01*
Y35800D02*
X28600Y35700D01*
Y35450D02*
X28900D01*
X28750Y35600D01*
Y35400D01*
X46100Y56400D02*
Y56700D01*
X46250D01*
X46300Y56650D01*
Y56550D01*
X46250Y56500D01*
X46100D01*
X46200D02*
X46300Y56400D01*
X46400Y56650D02*
X46450Y56700D01*
X46550D01*
X46600Y56650D01*
Y56600D01*
X46550Y56550D01*
X46500D01*
X46550D01*
X46600Y56500D01*
Y56450D01*
X46550Y56400D01*
X46450D01*
X46400Y56450D01*
X45100Y56400D02*
Y56700D01*
X45250D01*
X45300Y56650D01*
Y56550D01*
X45250Y56500D01*
X45100D01*
X45200D02*
X45300Y56400D01*
X45600D02*
X45400D01*
X45600Y56600D01*
Y56650D01*
X45550Y56700D01*
X45450D01*
X45400Y56650D01*
X44200Y56400D02*
Y56700D01*
X44350D01*
X44400Y56650D01*
Y56550D01*
X44350Y56500D01*
X44200D01*
X44300D02*
X44400Y56400D01*
X44500D02*
X44600D01*
X44550D01*
Y56700D01*
X44500Y56650D01*
X33600Y33400D02*
X33500D01*
X33550D01*
Y33150D01*
X33500Y33100D01*
X33450D01*
X33400Y33150D01*
X33900Y33100D02*
X33700D01*
X33900Y33300D01*
Y33350D01*
X33850Y33400D01*
X33750D01*
X33700Y33350D01*
X44230Y32810D02*
X44130D01*
X44180D01*
Y32560D01*
X44130Y32510D01*
X44080D01*
X44030Y32560D01*
X44330Y32510D02*
X44430D01*
X44380D01*
Y32810D01*
X44330Y32760D01*
X36800Y33100D02*
Y32800D01*
Y32950D01*
X37000D01*
Y33100D01*
Y32800D01*
X37100D02*
X37200D01*
X37150D01*
Y33100D01*
X37100Y33050D01*
X45900Y59200D02*
Y58900D01*
X46050D01*
X46100Y58950D01*
Y59150D01*
X46050Y59200D01*
X45900D01*
X46400Y59150D02*
X46350Y59200D01*
X46250D01*
X46200Y59150D01*
Y59100D01*
X46250Y59050D01*
X46350D01*
X46400Y59000D01*
Y58950D01*
X46350Y58900D01*
X46250D01*
X46200Y58950D01*
X46500Y59150D02*
X46550Y59200D01*
X46650D01*
X46700Y59150D01*
Y59100D01*
X46650Y59050D01*
X46600D01*
X46650D01*
X46700Y59000D01*
Y58950D01*
X46650Y58900D01*
X46550D01*
X46500Y58950D01*
X43000Y59200D02*
Y58900D01*
X43150D01*
X43200Y58950D01*
Y59150D01*
X43150Y59200D01*
X43000D01*
X43500Y59150D02*
X43450Y59200D01*
X43350D01*
X43300Y59150D01*
Y59100D01*
X43350Y59050D01*
X43450D01*
X43500Y59000D01*
Y58950D01*
X43450Y58900D01*
X43350D01*
X43300Y58950D01*
X43800Y58900D02*
X43600D01*
X43800Y59100D01*
Y59150D01*
X43750Y59200D01*
X43650D01*
X43600Y59150D01*
X39730Y59310D02*
Y59010D01*
X39880D01*
X39930Y59060D01*
Y59260D01*
X39880Y59310D01*
X39730D01*
X40230Y59260D02*
X40180Y59310D01*
X40080D01*
X40030Y59260D01*
Y59210D01*
X40080Y59160D01*
X40180D01*
X40230Y59110D01*
Y59060D01*
X40180Y59010D01*
X40080D01*
X40030Y59060D01*
X40330Y59010D02*
X40430D01*
X40380D01*
Y59310D01*
X40330Y59260D01*
X38240Y56540D02*
X38190Y56590D01*
X38090D01*
X38040Y56540D01*
Y56340D01*
X38090Y56290D01*
X38190D01*
X38240Y56340D01*
X38340Y56540D02*
X38390Y56590D01*
X38490D01*
X38540Y56540D01*
Y56490D01*
X38490Y56440D01*
X38440D01*
X38490D01*
X38540Y56390D01*
Y56340D01*
X38490Y56290D01*
X38390D01*
X38340Y56340D01*
X38640Y56590D02*
X38840D01*
Y56540D01*
X38640Y56340D01*
Y56290D01*
X30800Y55730D02*
X30750Y55780D01*
X30650D01*
X30600Y55730D01*
Y55530D01*
X30650Y55480D01*
X30750D01*
X30800Y55530D01*
X31050Y55480D02*
Y55780D01*
X30900Y55630D01*
X31100D01*
X36600Y55730D02*
X36550Y55780D01*
X36450D01*
X36400Y55730D01*
Y55530D01*
X36450Y55480D01*
X36550D01*
X36600Y55530D01*
X36900Y55480D02*
X36700D01*
X36900Y55680D01*
Y55730D01*
X36850Y55780D01*
X36750D01*
X36700Y55730D01*
X45900Y53250D02*
X45850Y53300D01*
X45750D01*
X45700Y53250D01*
Y53050D01*
X45750Y53000D01*
X45850D01*
X45900Y53050D01*
Y53150D01*
X45800D01*
X46000Y53000D02*
Y53300D01*
X46200Y53000D01*
Y53300D01*
X46300D02*
Y53000D01*
X46450D01*
X46500Y53050D01*
Y53250D01*
X46450Y53300D01*
X46300D01*
X45700Y52700D02*
X45900D01*
X45800D01*
Y52400D01*
X46000Y52700D02*
X46200Y52400D01*
Y52700D02*
X46000Y52400D01*
X45700Y53600D02*
Y53900D01*
X45850D01*
X45900Y53850D01*
Y53750D01*
X45850Y53700D01*
X45700D01*
X45800D02*
X45900Y53600D01*
X46000Y53900D02*
X46200Y53600D01*
Y53900D02*
X46000Y53600D01*
X23350Y57150D02*
Y56950D01*
X23450Y56850D01*
X23550Y56950D01*
Y57150D01*
X23800Y56850D02*
X23700D01*
X23650Y56900D01*
Y57000D01*
X23700Y57050D01*
X23800D01*
X23850Y57000D01*
Y56950D01*
X23650D01*
X23950Y57050D02*
Y56850D01*
Y56950D01*
X24000Y57000D01*
X24050Y57050D01*
X24100D01*
X24250Y56850D02*
X24400D01*
X24450Y56900D01*
X24400Y56950D01*
X24300D01*
X24250Y57000D01*
X24300Y57050D01*
X24450D01*
X24550Y56850D02*
X24650D01*
X24600D01*
Y57050D01*
X24550D01*
X24850Y56850D02*
X24949D01*
X24999Y56900D01*
Y57000D01*
X24949Y57050D01*
X24850D01*
X24800Y57000D01*
Y56900D01*
X24850Y56850D01*
X25099D02*
Y57050D01*
X25249D01*
X25299Y57000D01*
Y56850D01*
X25699D02*
X25799D01*
X25749D01*
Y57150D01*
X25699Y57100D01*
X25949Y56850D02*
Y56900D01*
X25999D01*
Y56850D01*
X25949D01*
X26199Y57100D02*
X26249Y57150D01*
X26349D01*
X26399Y57100D01*
Y56900D01*
X26349Y56850D01*
X26249D01*
X26199Y56900D01*
Y57100D01*
D45*
X44833Y55935D02*
D03*
X43967D02*
D03*
X45833Y55935D02*
D03*
X44967D02*
D03*
X46833D02*
D03*
X45967D02*
D03*
X29433Y49735D02*
D03*
X28567D02*
D03*
X28433D02*
D03*
X27567D02*
D03*
X47533Y31835D02*
D03*
X46667D02*
D03*
X36367Y33665D02*
D03*
X37233D02*
D03*
X46833Y36135D02*
D03*
X45967D02*
D03*
X34367Y33665D02*
D03*
X35233D02*
D03*
X36233Y34335D02*
D03*
X35367D02*
D03*
X45833Y36135D02*
D03*
X44967D02*
D03*
X30367Y34065D02*
D03*
X31233D02*
D03*
X32433Y34735D02*
D03*
X31567D02*
D03*
X44833Y36135D02*
D03*
X43967D02*
D03*
X35167Y31265D02*
D03*
X36033D02*
D03*
X43833Y36135D02*
D03*
X42967D02*
D03*
D46*
X43777Y48804D02*
Y48863D01*
X43954Y48863D01*
Y48804D01*
X43777Y48804D01*
X43793Y48820D02*
X43793Y48846D01*
X43938D01*
X43938Y48820D01*
X43793D01*
X43810Y48828D02*
X43921Y48838D01*
X43777Y47937D02*
Y47996D01*
X43954Y47996D01*
Y47937D01*
X43777Y47937D01*
X43793Y47954D02*
X43793Y47980D01*
X43938D01*
X43938Y47954D01*
X43793D01*
X43810Y47962D02*
X43921Y47972D01*
X43777Y47804D02*
Y47863D01*
X43954Y47863D01*
Y47804D01*
X43777Y47804D01*
X43793Y47820D02*
X43793Y47846D01*
X43938D01*
X43938Y47820D01*
X43793D01*
X43810Y47828D02*
X43921Y47838D01*
X43777Y46937D02*
Y46996D01*
X43954Y46996D01*
Y46937D01*
X43777Y46937D01*
X43793Y46954D02*
X43793Y46980D01*
X43938D01*
X43938Y46954D01*
X43793D01*
X43810Y46962D02*
X43921Y46972D01*
X45377Y46804D02*
Y46863D01*
X45554Y46863D01*
Y46804D01*
X45377Y46804D01*
X45393Y46820D02*
X45393Y46846D01*
X45538D01*
X45538Y46820D01*
X45393D01*
X45410Y46828D02*
X45521Y46838D01*
X45377Y45937D02*
Y45996D01*
X45554Y45996D01*
Y45937D01*
X45377Y45937D01*
X45393Y45954D02*
X45393Y45980D01*
X45538D01*
X45538Y45954D01*
X45393D01*
X45410Y45962D02*
X45521Y45972D01*
X43777Y46804D02*
Y46863D01*
X43954Y46863D01*
Y46804D01*
X43777Y46804D01*
X43793Y46820D02*
X43793Y46846D01*
X43938D01*
X43938Y46820D01*
X43793D01*
X43810Y46828D02*
X43921Y46838D01*
X43777Y45937D02*
Y45996D01*
X43954Y45996D01*
Y45937D01*
X43777Y45937D01*
X43793Y45954D02*
X43793Y45980D01*
X43938D01*
X43938Y45954D01*
X43793D01*
X43810Y45962D02*
X43921Y45972D01*
X38360Y56960D02*
X38360Y57640D01*
X38540D01*
X38540Y56960D01*
X38360D01*
X38376Y56976D02*
Y57624D01*
X38524D01*
Y56976D01*
X38376D01*
X38393Y56993D02*
X38393Y57607D01*
X38507Y57607D01*
X38507Y56993D01*
X38393Y56993D01*
X38409Y57009D02*
Y57591D01*
X38491D01*
Y57009D01*
X38409D01*
X38425Y57025D02*
X38425Y57575D01*
X38475D01*
X38475Y57025D01*
X38425D01*
X38442Y57042D02*
Y57558D01*
X38458D01*
Y57042D01*
X38442D01*
X38445Y57058D02*
X38455Y57542D01*
X38060Y57760D02*
X38060Y57940D01*
X38240Y57940D01*
X38240Y57760D01*
X38060Y57760D01*
X38076Y57776D02*
Y57924D01*
X38224D01*
Y57776D01*
X38076D01*
X38093Y57793D02*
X38093Y57907D01*
X38207Y57907D01*
X38207Y57793D01*
X38093Y57793D01*
X38109Y57809D02*
Y57891D01*
X38191D01*
Y57809D01*
X38109D01*
X38125Y57825D02*
X38125Y57875D01*
X38175Y57875D01*
X38175Y57825D01*
X38125Y57825D01*
X38142Y57842D02*
Y57858D01*
X38158D01*
Y57842D01*
X38142D01*
X38145Y57845D02*
X38155Y57855D01*
X38060Y56960D02*
X38060Y57640D01*
X38240D01*
X38240Y56960D01*
X38060D01*
X38076Y56976D02*
Y57624D01*
X38224D01*
Y56976D01*
X38076D01*
X38093Y56993D02*
X38093Y57607D01*
X38207Y57607D01*
X38207Y56993D01*
X38093Y56993D01*
X38109Y57009D02*
Y57591D01*
X38191D01*
Y57009D01*
X38109D01*
X38125Y57025D02*
X38125Y57575D01*
X38175D01*
X38175Y57025D01*
X38125D01*
X38142Y57042D02*
Y57558D01*
X38158D01*
Y57042D01*
X38142D01*
X38145Y57058D02*
X38155Y57542D01*
X38360Y57760D02*
X38360Y57940D01*
X38840Y57940D01*
X38840Y57760D01*
X38360Y57760D01*
X38376Y57776D02*
Y57924D01*
X38824D01*
Y57776D01*
X38376D01*
X38393Y57793D02*
Y57907D01*
X38807Y57907D01*
Y57793D01*
X38393Y57793D01*
X38409Y57809D02*
Y57891D01*
X38791D01*
Y57809D01*
X38409D01*
X38425Y57825D02*
X38425Y57875D01*
X38775Y57875D01*
X38775Y57825D01*
X38425Y57825D01*
X38442Y57842D02*
Y57858D01*
X38758D01*
Y57842D01*
X38442D01*
X38458Y57845D02*
X38742Y57855D01*
X37760Y56960D02*
X37760Y57940D01*
X37940Y57940D01*
X37940Y56960D01*
X37760Y56960D01*
X37776Y56976D02*
Y57924D01*
X37924D01*
Y56976D01*
X37776D01*
X37793Y56993D02*
X37793Y57907D01*
X37907D01*
X37907Y56993D01*
X37793D01*
X37809Y57009D02*
Y57891D01*
X37891D01*
Y57009D01*
X37809D01*
X37825Y57025D02*
X37825Y57875D01*
X37875D01*
X37875Y57025D01*
X37825D01*
X37842Y57042D02*
Y57858D01*
X37858D01*
Y57042D01*
X37842D01*
X37845Y57058D02*
X37855Y57842D01*
X37456Y57461D02*
X37464Y57942D01*
X37644Y57939D01*
X37636Y57458D01*
X37456Y57461D01*
X37472Y57478D02*
X37480Y57925D01*
X37628Y57922D01*
X37620Y57475D01*
X37472Y57478D01*
X37489Y57494D02*
X37496Y57908D01*
X37611Y57906D01*
X37604Y57492D01*
X37489Y57494D01*
X37506Y57510D02*
X37512Y57892D01*
X37594Y57890D01*
X37588Y57508D01*
X37506Y57510D01*
X37522Y57526D02*
X37528Y57875D01*
X37578Y57874D01*
X37572Y57525D01*
X37522Y57526D01*
X37539Y57542D02*
X37545Y57858D01*
X37561Y57858D01*
X37555Y57542D01*
X37539Y57542D01*
X37543Y57558D02*
X37557Y57842D01*
X37160Y56960D02*
X37160Y57940D01*
X37340Y57940D01*
X37340Y56960D01*
X37160Y56960D01*
X37176Y56976D02*
Y57924D01*
X37324D01*
Y56976D01*
X37176D01*
X37193Y56993D02*
X37193Y57907D01*
X37307D01*
X37307Y56993D01*
X37193D01*
X37209Y57009D02*
Y57891D01*
X37291D01*
Y57009D01*
X37209D01*
X37225Y57025D02*
X37225Y57875D01*
X37275D01*
X37275Y57025D01*
X37225D01*
X37242Y57042D02*
Y57858D01*
X37258D01*
Y57042D01*
X37242D01*
X37245Y57058D02*
X37255Y57842D01*
D47*
X28035Y35167D02*
D03*
Y36033D02*
D03*
X27535Y36967D02*
D03*
X27534Y37833D02*
D03*
X27535Y37967D02*
D03*
X27535Y38833D02*
D03*
M02*
