%FSLAX24Y24*%
%MOIN*%
G70*
G01*
G75*
G04 Layer_Color=65535*
%ADD10R,0.0807X0.0236*%
%ADD11R,0.0394X0.0433*%
%ADD12R,0.0866X0.0787*%
%ADD13R,0.0669X0.0709*%
%ADD14R,0.0748X0.0748*%
%ADD15R,0.0472X0.1575*%
%ADD16R,0.0433X0.0394*%
%ADD17C,0.0080*%
%ADD18C,0.0090*%
%ADD19C,0.1600*%
%ADD20C,0.0600*%
%ADD21C,0.0630*%
%ADD22C,0.0472*%
%ADD23C,0.0591*%
%ADD24R,0.0591X0.0591*%
%ADD25C,0.0400*%
%ADD26C,0.0098*%
%ADD27C,0.0079*%
%ADD28C,0.0100*%
%ADD29C,0.0070*%
D17*
X28600Y45800D02*
X28433D01*
X28517D01*
Y45300D01*
X28600Y45383D01*
X27850Y45300D02*
X28017Y45383D01*
X28183Y45550D01*
Y45717D01*
X28100Y45800D01*
X27934D01*
X27850Y45717D01*
Y45633D01*
X27934Y45550D01*
X28183D01*
X28600Y46800D02*
X28433D01*
X28517D01*
Y46300D01*
X28600Y46383D01*
X27850Y46300D02*
X28183D01*
Y46550D01*
X28017Y46467D01*
X27934D01*
X27850Y46550D01*
Y46717D01*
X27934Y46800D01*
X28100D01*
X28183Y46717D01*
X37200Y46800D02*
X37033D01*
X37117D01*
Y46300D01*
X37200Y46383D01*
X36867Y45800D02*
X37200D01*
X36867Y45467D01*
Y45383D01*
X36950Y45300D01*
X37117D01*
X37200Y45383D01*
D18*
X21700Y45700D02*
X21800Y45800D01*
Y46000D01*
X21700Y46100D01*
X21600D01*
X21500Y46000D01*
Y45800D01*
X21400Y45700D01*
X21300D01*
X21200Y45800D01*
Y46000D01*
X21300Y46100D01*
X21200Y45400D02*
Y45200D01*
X21300Y45100D01*
X21500D01*
X21600Y45200D01*
Y45400D01*
X21500Y45500D01*
X21300D01*
X21200Y45400D01*
Y44900D02*
X21600D01*
Y44800D01*
X21500Y44700D01*
X21200D01*
X21500D01*
X21600Y44600D01*
X21500Y44501D01*
X21200D01*
X21600Y44201D02*
Y44001D01*
X21500Y43901D01*
X21200D01*
Y44201D01*
X21300Y44301D01*
X21400Y44201D01*
Y43901D01*
X21800Y42701D02*
Y43101D01*
X21500D01*
Y42901D01*
Y43101D01*
X21200D01*
X21600Y42501D02*
X21200D01*
X21400D01*
X21500Y42401D01*
X21600Y42301D01*
Y42201D01*
X21200Y41801D02*
Y41601D01*
X21300Y41501D01*
X21500D01*
X21600Y41601D01*
Y41801D01*
X21500Y41901D01*
X21300D01*
X21200Y41801D01*
Y41302D02*
X21600D01*
Y41002D01*
X21500Y40902D01*
X21200D01*
X21700Y40602D02*
X21600D01*
Y40702D01*
Y40502D01*
Y40602D01*
X21300D01*
X21200Y40502D01*
X21700Y39202D02*
X21800Y39302D01*
Y39502D01*
X21700Y39602D01*
X21300D01*
X21200Y39502D01*
Y39302D01*
X21300Y39202D01*
X21200Y38902D02*
Y38702D01*
X21300Y38602D01*
X21500D01*
X21600Y38702D01*
Y38902D01*
X21500Y39002D01*
X21300D01*
X21200Y38902D01*
Y38402D02*
X21600D01*
Y38103D01*
X21500Y38003D01*
X21200D01*
Y37803D02*
X21600D01*
Y37503D01*
X21500Y37403D01*
X21200D01*
Y36903D02*
Y37103D01*
X21300Y37203D01*
X21500D01*
X21600Y37103D01*
Y36903D01*
X21500Y36803D01*
X21400D01*
Y37203D01*
X21600Y36203D02*
Y36503D01*
X21500Y36603D01*
X21300D01*
X21200Y36503D01*
Y36203D01*
X21700Y35903D02*
X21600D01*
Y36003D01*
Y35803D01*
Y35903D01*
X21300D01*
X21200Y35803D01*
Y35403D02*
Y35204D01*
X21300Y35104D01*
X21500D01*
X21600Y35204D01*
Y35403D01*
X21500Y35503D01*
X21300D01*
X21200Y35403D01*
X21600Y34904D02*
X21200D01*
X21400D01*
X21500Y34804D01*
X21600Y34704D01*
Y34604D01*
X21550Y33950D02*
X21150Y33750D01*
X21550Y33550D01*
X21150Y33350D02*
Y33150D01*
Y33250D01*
X21750D01*
X21650Y33350D01*
X21150Y32850D02*
X21250D01*
Y32750D01*
X21150D01*
Y32850D01*
X21650Y32351D02*
X21750Y32251D01*
Y32051D01*
X21650Y31951D01*
X21250D01*
X21150Y32051D01*
Y32251D01*
X21250Y32351D01*
X21650D01*
D26*
X29796Y39885D02*
G03*
X29796Y39885I-49J0D01*
G01*
X34040Y39863D02*
G03*
X34040Y39863I-49J0D01*
G01*
D27*
X30636Y39784D02*
G03*
X30964Y39784I164J0D01*
G01*
X30308D02*
X30636D01*
X30964D02*
X31292D01*
X30308Y37816D02*
X31292D01*
X30308D02*
Y39784D01*
X31292Y37816D02*
Y39784D01*
X33971Y38997D02*
Y39528D01*
Y38072D02*
X33991D01*
X32829Y38997D02*
Y39528D01*
X32809Y38072D02*
X32829D01*
X33991D02*
Y39528D01*
X32809Y38072D02*
Y39528D01*
X28700Y45100D02*
X36700D01*
X28700Y47100D02*
X36700D01*
Y45100D02*
Y47100D01*
X28700Y45100D02*
Y47100D01*
D28*
X32100Y30700D02*
X32500Y31100D01*
X28500D02*
X28900Y30700D01*
X32500D02*
Y31000D01*
X28500Y30700D02*
X32500D01*
X28500D02*
Y31400D01*
Y34300D02*
Y35400D01*
X32500Y34400D02*
Y35400D01*
X32300D02*
X32500D01*
X32300Y35200D02*
Y35400D01*
X31700Y35200D02*
X32300D01*
X31700D02*
Y35400D01*
X31000D02*
X31700D01*
X31000Y35200D02*
Y35400D01*
X30000Y35200D02*
X31000D01*
X30000D02*
Y35400D01*
X29300D02*
X30000D01*
X29300Y35200D02*
Y35400D01*
X28700Y35200D02*
X29300D01*
X28700D02*
Y35400D01*
X28500D02*
X28700D01*
X32500Y31000D02*
Y34400D01*
X28500Y31000D02*
Y34400D01*
X28100Y30700D02*
X28500Y31100D01*
X24500D02*
X24900Y30700D01*
X28500D02*
Y31000D01*
X24500Y30700D02*
X28500D01*
X24500D02*
Y31400D01*
Y34300D02*
Y35400D01*
X28500Y34400D02*
Y35400D01*
X28300D02*
X28500D01*
X28300Y35200D02*
Y35400D01*
X27700Y35200D02*
X28300D01*
X27700D02*
Y35400D01*
X27000D02*
X27700D01*
X27000Y35200D02*
Y35400D01*
X26000Y35200D02*
X27000D01*
X26000D02*
Y35400D01*
X25300D02*
X26000D01*
X25300Y35200D02*
Y35400D01*
X24700Y35200D02*
X25300D01*
X24700D02*
Y35400D01*
X24500D02*
X24700D01*
X28500Y31000D02*
Y34400D01*
X24500Y31000D02*
Y34400D01*
D29*
X34350Y39300D02*
X34400Y39350D01*
Y39450D01*
X34350Y39500D01*
X34150D01*
X34100Y39450D01*
Y39350D01*
X34150Y39300D01*
X34100Y39000D02*
Y39200D01*
X34300Y39000D01*
X34350D01*
X34400Y39050D01*
Y39150D01*
X34350Y39200D01*
X24695Y36045D02*
X24595D01*
X24545Y35995D01*
Y35795D01*
X24595Y35745D01*
X24695D01*
X24745Y35795D01*
Y35995D01*
X24695Y36045D01*
X24845Y35745D02*
X24945D01*
X24895D01*
Y36045D01*
X24845Y35995D01*
X28695Y36045D02*
X28595D01*
X28545Y35995D01*
Y35795D01*
X28595Y35745D01*
X28695D01*
X28745Y35795D01*
Y35995D01*
X28695Y36045D01*
X29045Y35745D02*
X28845D01*
X29045Y35945D01*
Y35995D01*
X28995Y36045D01*
X28895D01*
X28845Y35995D01*
X27475Y45165D02*
X27175D01*
Y45315D01*
X27225Y45365D01*
X27325D01*
X27375Y45315D01*
Y45165D01*
X27475Y45465D02*
Y45565D01*
Y45515D01*
X27175D01*
X27225Y45465D01*
X37055Y43465D02*
Y43765D01*
X37205D01*
X37255Y43715D01*
Y43615D01*
X37205Y43565D01*
X37055D01*
X37555Y43465D02*
X37355D01*
X37555Y43665D01*
Y43715D01*
X37505Y43765D01*
X37405D01*
X37355Y43715D01*
X27650Y36250D02*
X27350D01*
Y36400D01*
X27400Y36450D01*
X27500D01*
X27550Y36400D01*
Y36250D01*
Y36350D02*
X27650Y36450D01*
Y36550D02*
Y36650D01*
Y36600D01*
X27350D01*
X27400Y36550D01*
X24250Y36300D02*
Y36000D01*
X24100D01*
X24050Y36050D01*
Y36150D01*
X24100Y36200D01*
X24250D01*
X24150D02*
X24050Y36300D01*
X23750D02*
X23950D01*
X23750Y36100D01*
Y36050D01*
X23800Y36000D01*
X23900D01*
X23950Y36050D01*
X31650Y36050D02*
X31350D01*
Y36200D01*
X31400Y36250D01*
X31500D01*
X31550Y36200D01*
Y36050D01*
Y36150D02*
X31650Y36250D01*
X31400Y36350D02*
X31350Y36400D01*
Y36500D01*
X31400Y36550D01*
X31450D01*
X31500Y36500D01*
Y36450D01*
Y36500D01*
X31550Y36550D01*
X31600D01*
X31650Y36500D01*
Y36400D01*
X31600Y36350D01*
X30400Y36050D02*
X30100D01*
Y36200D01*
X30150Y36250D01*
X30250D01*
X30300Y36200D01*
Y36050D01*
Y36150D02*
X30400Y36250D01*
Y36500D02*
X30100D01*
X30250Y36350D01*
Y36550D01*
X30350Y40250D02*
Y40000D01*
X30400Y39950D01*
X30500D01*
X30550Y40000D01*
Y40250D01*
X30650Y39950D02*
X30750D01*
X30700D01*
Y40250D01*
X30650Y40200D01*
M02*
