M48
;Layer_Color=15461320
;FILE_FORMAT=2:4
INCH,LZ
;TYPE=PLATED
T1F00S00C0.0250
T2F00S00C0.0354
T3F00S00C0.0400
T4F00S00C0.0433
T5F00S00C0.0591
T6F00S00C0.1400
%
T01
X0235Y0374
X0305Y03805
X031115Y038865
X029747Y040447
X03265Y03955
X0334Y03755
X031435Y036935
X04045Y04115
X042439Y041161
X0434Y04125
X041455Y043395
X039555Y043395
T02
X0292Y0456
Y0466
X0302
Y0456
X0312
Y0466
X0322
Y0456
X0332
Y0466
X0342
Y0456
X0352
Y0466
X0362
Y0456
T03
X025Y0314
X028
X029
Y0344
X03
X031
X028
X027
X026
X025
X032
Y0314
T04
X048Y041
T05
X037764Y041
T06
X026Y037
Y044
X05
Y037
M30
