%FSLAX24Y24*%
%MOIN*%
G70*
G01*
G75*
G04 Layer_Physical_Order=4*
G04 Layer_Color=16711680*
%ADD10R,0.0807X0.0236*%
%ADD11R,0.0394X0.0433*%
%ADD12R,0.0866X0.0787*%
%ADD13R,0.0669X0.0709*%
%ADD14R,0.0748X0.0748*%
%ADD15R,0.0472X0.1575*%
%ADD16R,0.0433X0.0394*%
%ADD17C,0.0080*%
%ADD18C,0.0090*%
%ADD19C,0.1600*%
%ADD20C,0.0600*%
%ADD21C,0.0630*%
%ADD22C,0.0472*%
%ADD23C,0.0591*%
%ADD24R,0.0591X0.0591*%
%ADD25C,0.0400*%
G36*
X39088Y47285D02*
X39350D01*
Y44122D01*
X33901D01*
X32822Y45201D01*
Y45403D01*
X32871Y45413D01*
X32872Y45411D01*
X32932Y45332D01*
X33011Y45272D01*
X33102Y45234D01*
X33200Y45221D01*
X33298Y45234D01*
X33389Y45272D01*
X33468Y45332D01*
X33528Y45411D01*
X33566Y45502D01*
X33579Y45600D01*
X33566Y45698D01*
X33528Y45789D01*
X33468Y45868D01*
X33389Y45928D01*
X33298Y45966D01*
X33200Y45979D01*
X33102Y45966D01*
X33011Y45928D01*
X32932Y45868D01*
X32872Y45789D01*
X32871Y45787D01*
X32822Y45797D01*
Y45850D01*
X32813Y45897D01*
X32787Y45937D01*
X32587Y46137D01*
X32547Y46163D01*
X32500Y46172D01*
X32209D01*
X32206Y46222D01*
D01*
X32206Y46222D01*
X32298Y46234D01*
X32389Y46272D01*
X32468Y46332D01*
X32528Y46411D01*
X32566Y46502D01*
X32579Y46600D01*
X32566Y46698D01*
X32528Y46789D01*
X32468Y46868D01*
X32389Y46928D01*
X32298Y46966D01*
X32200Y46979D01*
X32102Y46966D01*
X32011Y46928D01*
X31932Y46868D01*
X31872Y46789D01*
X31834Y46698D01*
X31821Y46600D01*
X31834Y46502D01*
X31872Y46411D01*
X31932Y46332D01*
X32011Y46272D01*
X32102Y46234D01*
X32194Y46222D01*
X32193Y46201D01*
X32165Y46172D01*
X31801D01*
X31538Y46435D01*
X31566Y46502D01*
X31579Y46600D01*
X31566Y46698D01*
X31528Y46789D01*
X31468Y46868D01*
X31389Y46928D01*
X31298Y46966D01*
X31200Y46979D01*
X31102Y46966D01*
X31011Y46928D01*
X30932Y46868D01*
X30872Y46789D01*
X30834Y46698D01*
X30821Y46600D01*
X30834Y46502D01*
X30872Y46411D01*
X30932Y46332D01*
X31011Y46272D01*
X31102Y46234D01*
X31200Y46221D01*
X31298Y46234D01*
X31365Y46262D01*
X31663Y45963D01*
X31703Y45937D01*
X31750Y45928D01*
X31933D01*
X31949Y45880D01*
X31932Y45868D01*
X31872Y45789D01*
X31834Y45698D01*
X31821Y45600D01*
X31834Y45502D01*
X31872Y45411D01*
X31932Y45332D01*
X32011Y45272D01*
X32102Y45234D01*
X32200Y45221D01*
X32298Y45234D01*
X32389Y45272D01*
X32468Y45332D01*
X32528Y45411D01*
X32529Y45413D01*
X32578Y45403D01*
Y45150D01*
X32587Y45103D01*
X32613Y45063D01*
X33763Y43913D01*
X33787Y43898D01*
X33803Y43887D01*
X33850Y43878D01*
X39350D01*
Y43588D01*
X39311Y43536D01*
X39303Y43517D01*
X31356D01*
X29822Y45051D01*
Y45403D01*
X29871Y45413D01*
X29872Y45411D01*
X29932Y45332D01*
X30011Y45272D01*
X30102Y45234D01*
X30200Y45221D01*
X30298Y45234D01*
X30389Y45272D01*
X30468Y45332D01*
X30528Y45411D01*
X30566Y45502D01*
X30579Y45600D01*
X30566Y45698D01*
X30528Y45789D01*
X30468Y45868D01*
X30389Y45928D01*
X30298Y45966D01*
X30200Y45979D01*
X30102Y45966D01*
X30011Y45928D01*
X29932Y45868D01*
X29872Y45789D01*
X29871Y45787D01*
X29822Y45797D01*
Y46100D01*
X29813Y46147D01*
X29787Y46187D01*
X29538Y46435D01*
X29566Y46502D01*
X29579Y46600D01*
X29566Y46698D01*
X29528Y46789D01*
X29468Y46868D01*
X29389Y46928D01*
X29298Y46966D01*
X29200Y46979D01*
X29102Y46966D01*
X29011Y46928D01*
X28932Y46868D01*
X28872Y46789D01*
X28834Y46698D01*
X28821Y46600D01*
X28834Y46502D01*
X28872Y46411D01*
X28932Y46332D01*
X29011Y46272D01*
X29102Y46234D01*
X29200Y46221D01*
X29298Y46234D01*
X29365Y46262D01*
X29578Y46049D01*
Y45797D01*
X29529Y45787D01*
X29528Y45789D01*
X29468Y45868D01*
X29389Y45928D01*
X29298Y45966D01*
X29200Y45979D01*
X29102Y45966D01*
X29011Y45928D01*
X28932Y45868D01*
X28872Y45789D01*
X28834Y45698D01*
X28821Y45600D01*
X28834Y45502D01*
X28872Y45411D01*
X28932Y45332D01*
X29011Y45272D01*
X29102Y45234D01*
X29200Y45221D01*
X29298Y45234D01*
X29389Y45272D01*
X29468Y45332D01*
X29528Y45411D01*
X29529Y45413D01*
X29578Y45403D01*
Y45000D01*
X29587Y44953D01*
X29613Y44913D01*
X31219Y43308D01*
X31258Y43282D01*
X31305Y43273D01*
X39303D01*
X39311Y43254D01*
X39350Y43202D01*
Y33150D01*
X26114D01*
Y33339D01*
X26122Y33383D01*
Y34039D01*
X26192Y34068D01*
X26271Y34129D01*
X26332Y34208D01*
X26370Y34301D01*
X26383Y34400D01*
X26370Y34499D01*
X26332Y34592D01*
X26271Y34671D01*
X26192Y34732D01*
X26099Y34770D01*
X26000Y34783D01*
X25901Y34770D01*
X25808Y34732D01*
X25729Y34671D01*
X25668Y34592D01*
X25630Y34499D01*
X25617Y34400D01*
X25630Y34301D01*
X25668Y34208D01*
X25729Y34129D01*
X25808Y34068D01*
X25878Y34039D01*
Y33477D01*
X25521D01*
Y33150D01*
X25444D01*
Y33477D01*
X25270D01*
Y34128D01*
X25271Y34129D01*
X25332Y34208D01*
X25370Y34301D01*
X25383Y34400D01*
X25370Y34499D01*
X25332Y34592D01*
X25271Y34671D01*
X25192Y34732D01*
X25099Y34770D01*
X25000Y34783D01*
X24901Y34770D01*
X24808Y34732D01*
X24729Y34671D01*
X24668Y34592D01*
X24630Y34499D01*
X24617Y34400D01*
X24630Y34301D01*
X24668Y34208D01*
X24729Y34129D01*
X24808Y34068D01*
X24901Y34030D01*
X25000Y34017D01*
X25026Y33994D01*
Y33477D01*
X24851D01*
Y33150D01*
X22050D01*
Y47350D01*
X39001D01*
X39088Y47285D01*
D02*
G37*
%LPC*%
G36*
X31750Y39485D02*
X31523D01*
Y39238D01*
X31750D01*
Y39485D01*
D02*
G37*
G36*
X32077Y39162D02*
X31523D01*
Y38988D01*
X31368D01*
X31360Y39007D01*
X31315Y39065D01*
X31257Y39110D01*
X31188Y39138D01*
X31115Y39148D01*
X31042Y39138D01*
X30974Y39110D01*
X30916Y39065D01*
X30871Y39007D01*
X30843Y38938D01*
X30833Y38865D01*
X30843Y38792D01*
X30871Y38724D01*
X30916Y38666D01*
X30974Y38621D01*
X31042Y38593D01*
X31115Y38583D01*
X31188Y38593D01*
X31257Y38621D01*
X31315Y38666D01*
X31360Y38724D01*
X31368Y38743D01*
X31523D01*
Y38569D01*
X32077D01*
Y39162D01*
D02*
G37*
G36*
X30500Y38332D02*
X30427Y38323D01*
X30359Y38295D01*
X30300Y38250D01*
X30255Y38191D01*
X30227Y38123D01*
X30218Y38050D01*
X30227Y37977D01*
X30255Y37909D01*
X30300Y37850D01*
X30359Y37805D01*
X30427Y37777D01*
X30500Y37768D01*
X30573Y37777D01*
X30641Y37805D01*
X30700Y37850D01*
X30745Y37909D01*
X30773Y37977D01*
X30782Y38050D01*
X30773Y38123D01*
X30745Y38191D01*
X30700Y38250D01*
X30641Y38295D01*
X30573Y38323D01*
X30500Y38332D01*
D02*
G37*
G36*
X31750Y39831D02*
X31523D01*
Y39585D01*
X31750D01*
Y39831D01*
D02*
G37*
G36*
X32077Y39485D02*
X31850D01*
Y39238D01*
X32077D01*
Y39485D01*
D02*
G37*
G36*
Y39831D02*
X31850D01*
Y39585D01*
X32077D01*
Y39831D01*
D02*
G37*
G36*
X33400Y37832D02*
X33327Y37823D01*
X33259Y37795D01*
X33200Y37750D01*
X33155Y37691D01*
X33127Y37623D01*
X33118Y37550D01*
X33127Y37477D01*
X33155Y37409D01*
X33200Y37350D01*
X33259Y37305D01*
X33327Y37277D01*
X33400Y37268D01*
X33473Y37277D01*
X33541Y37305D01*
X33600Y37350D01*
X33645Y37409D01*
X33673Y37477D01*
X33682Y37550D01*
X33673Y37623D01*
X33645Y37691D01*
X33600Y37750D01*
X33541Y37795D01*
X33473Y37823D01*
X33400Y37832D01*
D02*
G37*
G36*
X29000Y34783D02*
X28901Y34770D01*
X28808Y34732D01*
X28729Y34671D01*
X28668Y34592D01*
X28630Y34499D01*
X28617Y34400D01*
X28630Y34301D01*
X28668Y34208D01*
X28729Y34129D01*
X28808Y34068D01*
X28901Y34030D01*
X29000Y34017D01*
X29099Y34030D01*
X29192Y34068D01*
X29271Y34129D01*
X29332Y34208D01*
X29370Y34301D01*
X29383Y34400D01*
X29370Y34499D01*
X29332Y34592D01*
X29271Y34671D01*
X29192Y34732D01*
X29099Y34770D01*
X29000Y34783D01*
D02*
G37*
G36*
X28000D02*
X27901Y34770D01*
X27808Y34732D01*
X27729Y34671D01*
X27668Y34592D01*
X27630Y34499D01*
X27617Y34400D01*
X27630Y34301D01*
X27668Y34208D01*
X27729Y34129D01*
X27808Y34068D01*
X27901Y34030D01*
X28000Y34017D01*
X28099Y34030D01*
X28192Y34068D01*
X28271Y34129D01*
X28332Y34208D01*
X28370Y34301D01*
X28383Y34400D01*
X28370Y34499D01*
X28332Y34592D01*
X28271Y34671D01*
X28192Y34732D01*
X28099Y34770D01*
X28000Y34783D01*
D02*
G37*
G36*
X27000D02*
X26901Y34770D01*
X26808Y34732D01*
X26729Y34671D01*
X26668Y34592D01*
X26630Y34499D01*
X26617Y34400D01*
X26630Y34301D01*
X26668Y34208D01*
X26729Y34129D01*
X26808Y34068D01*
X26901Y34030D01*
X27000Y34017D01*
X27099Y34030D01*
X27192Y34068D01*
X27271Y34129D01*
X27332Y34208D01*
X27370Y34301D01*
X27383Y34400D01*
X27370Y34499D01*
X27332Y34592D01*
X27271Y34671D01*
X27192Y34732D01*
X27099Y34770D01*
X27000Y34783D01*
D02*
G37*
G36*
X30000D02*
X29901Y34770D01*
X29808Y34732D01*
X29729Y34671D01*
X29668Y34592D01*
X29630Y34499D01*
X29617Y34400D01*
X29630Y34301D01*
X29668Y34208D01*
X29729Y34129D01*
X29808Y34068D01*
X29901Y34030D01*
X30000Y34017D01*
X30099Y34030D01*
X30192Y34068D01*
X30271Y34129D01*
X30332Y34208D01*
X30370Y34301D01*
X30383Y34400D01*
X30370Y34499D01*
X30332Y34592D01*
X30271Y34671D01*
X30192Y34732D01*
X30099Y34770D01*
X30000Y34783D01*
D02*
G37*
G36*
X26000Y37884D02*
X25827Y37867D01*
X25662Y37817D01*
X25509Y37735D01*
X25375Y37625D01*
X25265Y37491D01*
X25183Y37338D01*
X25133Y37173D01*
X25116Y37000D01*
X25133Y36827D01*
X25183Y36662D01*
X25265Y36509D01*
X25375Y36375D01*
X25509Y36265D01*
X25662Y36183D01*
X25827Y36133D01*
X26000Y36116D01*
X26173Y36133D01*
X26338Y36183D01*
X26491Y36265D01*
X26625Y36375D01*
X26735Y36509D01*
X26817Y36662D01*
X26867Y36827D01*
X26884Y37000D01*
X26867Y37173D01*
X26817Y37338D01*
X26735Y37491D01*
X26625Y37625D01*
X26491Y37735D01*
X26338Y37817D01*
X26173Y37867D01*
X26000Y37884D01*
D02*
G37*
G36*
X32000Y34783D02*
X31901Y34770D01*
X31808Y34732D01*
X31729Y34671D01*
X31668Y34592D01*
X31630Y34499D01*
X31617Y34400D01*
X31630Y34301D01*
X31668Y34208D01*
X31729Y34129D01*
X31808Y34068D01*
X31901Y34030D01*
X32000Y34017D01*
X32099Y34030D01*
X32192Y34068D01*
X32271Y34129D01*
X32332Y34208D01*
X32370Y34301D01*
X32383Y34400D01*
X32370Y34499D01*
X32332Y34592D01*
X32271Y34671D01*
X32192Y34732D01*
X32099Y34770D01*
X32000Y34783D01*
D02*
G37*
G36*
X31000D02*
X30901Y34770D01*
X30808Y34732D01*
X30729Y34671D01*
X30668Y34592D01*
X30630Y34499D01*
X30617Y34400D01*
X30630Y34301D01*
X30668Y34208D01*
X30729Y34129D01*
X30808Y34068D01*
X30901Y34030D01*
X31000Y34017D01*
X31099Y34030D01*
X31192Y34068D01*
X31271Y34129D01*
X31332Y34208D01*
X31370Y34301D01*
X31383Y34400D01*
X31370Y34499D01*
X31332Y34592D01*
X31271Y34671D01*
X31192Y34732D01*
X31099Y34770D01*
X31000Y34783D01*
D02*
G37*
G36*
X30200Y46979D02*
X30102Y46966D01*
X30011Y46928D01*
X29932Y46868D01*
X29872Y46789D01*
X29834Y46698D01*
X29821Y46600D01*
X29834Y46502D01*
X29872Y46411D01*
X29932Y46332D01*
X30011Y46272D01*
X30102Y46234D01*
X30200Y46221D01*
X30298Y46234D01*
X30389Y46272D01*
X30468Y46332D01*
X30528Y46411D01*
X30566Y46502D01*
X30579Y46600D01*
X30566Y46698D01*
X30528Y46789D01*
X30468Y46868D01*
X30389Y46928D01*
X30298Y46966D01*
X30200Y46979D01*
D02*
G37*
G36*
X36250Y45972D02*
Y45650D01*
X36572D01*
X36566Y45698D01*
X36528Y45789D01*
X36468Y45868D01*
X36389Y45928D01*
X36298Y45966D01*
X36250Y45972D01*
D02*
G37*
G36*
X36150D02*
X36102Y45966D01*
X36011Y45928D01*
X35932Y45868D01*
X35872Y45789D01*
X35834Y45698D01*
X35828Y45650D01*
X36150D01*
Y45972D01*
D02*
G37*
G36*
X33200Y46979D02*
X33102Y46966D01*
X33011Y46928D01*
X32932Y46868D01*
X32872Y46789D01*
X32834Y46698D01*
X32821Y46600D01*
X32834Y46502D01*
X32872Y46411D01*
X32932Y46332D01*
X33011Y46272D01*
X33102Y46234D01*
X33200Y46221D01*
X33298Y46234D01*
X33389Y46272D01*
X33468Y46332D01*
X33528Y46411D01*
X33566Y46502D01*
X33579Y46600D01*
X33566Y46698D01*
X33528Y46789D01*
X33468Y46868D01*
X33389Y46928D01*
X33298Y46966D01*
X33200Y46979D01*
D02*
G37*
G36*
X36575Y46975D02*
X35825D01*
Y46225D01*
X36575D01*
Y46975D01*
D02*
G37*
G36*
X35200Y46979D02*
X35102Y46966D01*
X35011Y46928D01*
X34932Y46868D01*
X34872Y46789D01*
X34834Y46698D01*
X34821Y46600D01*
X34834Y46502D01*
X34872Y46411D01*
X34932Y46332D01*
X35011Y46272D01*
X35102Y46234D01*
X35200Y46221D01*
X35298Y46234D01*
X35389Y46272D01*
X35468Y46332D01*
X35528Y46411D01*
X35566Y46502D01*
X35579Y46600D01*
X35566Y46698D01*
X35528Y46789D01*
X35468Y46868D01*
X35389Y46928D01*
X35298Y46966D01*
X35200Y46979D01*
D02*
G37*
G36*
X34200D02*
X34102Y46966D01*
X34011Y46928D01*
X33932Y46868D01*
X33872Y46789D01*
X33834Y46698D01*
X33821Y46600D01*
X33834Y46502D01*
X33872Y46411D01*
X33932Y46332D01*
X34011Y46272D01*
X34102Y46234D01*
X34200Y46221D01*
X34298Y46234D01*
X34389Y46272D01*
X34468Y46332D01*
X34528Y46411D01*
X34566Y46502D01*
X34579Y46600D01*
X34566Y46698D01*
X34528Y46789D01*
X34468Y46868D01*
X34389Y46928D01*
X34298Y46966D01*
X34200Y46979D01*
D02*
G37*
G36*
X31200Y45979D02*
X31102Y45966D01*
X31011Y45928D01*
X30932Y45868D01*
X30872Y45789D01*
X30834Y45698D01*
X30821Y45600D01*
X30834Y45502D01*
X30872Y45411D01*
X30932Y45332D01*
X31011Y45272D01*
X31102Y45234D01*
X31200Y45221D01*
X31298Y45234D01*
X31389Y45272D01*
X31468Y45332D01*
X31528Y45411D01*
X31566Y45502D01*
X31579Y45600D01*
X31566Y45698D01*
X31528Y45789D01*
X31468Y45868D01*
X31389Y45928D01*
X31298Y45966D01*
X31200Y45979D01*
D02*
G37*
G36*
X26000Y44884D02*
X25827Y44867D01*
X25662Y44817D01*
X25509Y44735D01*
X25375Y44625D01*
X25265Y44491D01*
X25183Y44338D01*
X25133Y44173D01*
X25116Y44000D01*
X25133Y43827D01*
X25183Y43662D01*
X25265Y43509D01*
X25375Y43375D01*
X25509Y43265D01*
X25662Y43183D01*
X25827Y43133D01*
X26000Y43116D01*
X26173Y43133D01*
X26338Y43183D01*
X26491Y43265D01*
X26625Y43375D01*
X26735Y43509D01*
X26817Y43662D01*
X26867Y43827D01*
X26884Y44000D01*
X26867Y44173D01*
X26817Y44338D01*
X26735Y44491D01*
X26625Y44625D01*
X26491Y44735D01*
X26338Y44817D01*
X26173Y44867D01*
X26000Y44884D01*
D02*
G37*
G36*
X37764Y41398D02*
X37661Y41385D01*
X37565Y41345D01*
X37482Y41282D01*
X37419Y41199D01*
X37379Y41103D01*
X37365Y41000D01*
X37379Y40897D01*
X37419Y40801D01*
X37482Y40718D01*
X37565Y40655D01*
X37661Y40615D01*
X37764Y40602D01*
X37867Y40615D01*
X37963Y40655D01*
X38045Y40718D01*
X38109Y40801D01*
X38149Y40897D01*
X38162Y41000D01*
X38149Y41103D01*
X38109Y41199D01*
X38045Y41282D01*
X37963Y41345D01*
X37867Y41385D01*
X37764Y41398D01*
D02*
G37*
G36*
X34200Y45979D02*
X34102Y45966D01*
X34011Y45928D01*
X33932Y45868D01*
X33872Y45789D01*
X33834Y45698D01*
X33821Y45600D01*
X33834Y45502D01*
X33872Y45411D01*
X33932Y45332D01*
X34011Y45272D01*
X34102Y45234D01*
X34200Y45221D01*
X34298Y45234D01*
X34389Y45272D01*
X34468Y45332D01*
X34528Y45411D01*
X34566Y45502D01*
X34579Y45600D01*
X34566Y45698D01*
X34528Y45789D01*
X34468Y45868D01*
X34389Y45928D01*
X34298Y45966D01*
X34200Y45979D01*
D02*
G37*
G36*
X36572Y45550D02*
X36250D01*
Y45228D01*
X36298Y45234D01*
X36389Y45272D01*
X36468Y45332D01*
X36528Y45411D01*
X36566Y45502D01*
X36572Y45550D01*
D02*
G37*
G36*
X36150D02*
X35828D01*
X35834Y45502D01*
X35872Y45411D01*
X35932Y45332D01*
X36011Y45272D01*
X36102Y45234D01*
X36150Y45228D01*
Y45550D01*
D02*
G37*
G36*
X35200Y45979D02*
X35102Y45966D01*
X35011Y45928D01*
X34932Y45868D01*
X34872Y45789D01*
X34834Y45698D01*
X34821Y45600D01*
X34834Y45502D01*
X34872Y45411D01*
X34932Y45332D01*
X35011Y45272D01*
X35102Y45234D01*
X35200Y45221D01*
X35298Y45234D01*
X35389Y45272D01*
X35468Y45332D01*
X35528Y45411D01*
X35566Y45502D01*
X35579Y45600D01*
X35566Y45698D01*
X35528Y45789D01*
X35468Y45868D01*
X35389Y45928D01*
X35298Y45966D01*
X35200Y45979D01*
D02*
G37*
%LPD*%
D11*
X31800Y39535D02*
D03*
Y38865D02*
D03*
D16*
X25817Y33200D02*
D03*
X25148D02*
D03*
D17*
X29200Y46600D02*
X29700Y46100D01*
Y45000D02*
Y46100D01*
Y45000D02*
X31305Y43395D01*
X39555D01*
X33850Y44000D02*
X40850D01*
X32700Y45150D02*
X33850Y44000D01*
X31200Y46600D02*
X31750Y46050D01*
X32500D01*
X32700Y45850D01*
Y45150D02*
Y45850D01*
X26000Y33383D02*
Y34400D01*
X25148Y33200D02*
Y34252D01*
X31800Y39535D02*
X32635D01*
X31115Y38865D02*
X31800D01*
X40850Y44000D02*
X41455Y43395D01*
D18*
X54450Y35500D02*
Y34900D01*
X54850D01*
X55150Y35300D02*
X55350D01*
X55450Y35200D01*
Y34900D01*
X55150D01*
X55050Y35000D01*
X55150Y35100D01*
X55450D01*
X55650Y35300D02*
Y35000D01*
X55750Y34900D01*
X56049D01*
Y34800D01*
X55950Y34700D01*
X55850D01*
X56049Y34900D02*
Y35300D01*
X56549Y34900D02*
X56349D01*
X56249Y35000D01*
Y35200D01*
X56349Y35300D01*
X56549D01*
X56649Y35200D01*
Y35100D01*
X56249D01*
X56849Y35300D02*
Y34900D01*
Y35100D01*
X56949Y35200D01*
X57049Y35300D01*
X57149D01*
X58349Y34900D02*
Y35500D01*
X58049Y35200D01*
X58449D01*
D19*
X26000Y37000D02*
D03*
X50000D02*
D03*
Y44000D02*
D03*
X26000D02*
D03*
D20*
X29000Y31400D02*
D03*
X32000D02*
D03*
X29000Y34400D02*
D03*
X30000D02*
D03*
X32000D02*
D03*
X31000D02*
D03*
X25000Y31400D02*
D03*
X28000D02*
D03*
X25000Y34400D02*
D03*
X26000D02*
D03*
X28000D02*
D03*
X27000D02*
D03*
D21*
X37764Y41000D02*
D03*
D22*
X48000D02*
D03*
D23*
X29200Y45600D02*
D03*
Y46600D02*
D03*
X30200Y45600D02*
D03*
Y46600D02*
D03*
X31200Y45600D02*
D03*
Y46600D02*
D03*
X32200Y45600D02*
D03*
Y46600D02*
D03*
X33200Y45600D02*
D03*
Y46600D02*
D03*
X34200Y45600D02*
D03*
Y46600D02*
D03*
X35200Y45600D02*
D03*
Y46600D02*
D03*
X36200Y45600D02*
D03*
D24*
Y46600D02*
D03*
D25*
X31435Y36935D02*
D03*
X32650Y39550D02*
D03*
X31115Y38865D02*
D03*
X33400Y37550D02*
D03*
X30500Y38050D02*
D03*
X42439Y41161D02*
D03*
X43400Y41250D02*
D03*
X40450Y41150D02*
D03*
X41455Y43395D02*
D03*
X39555Y43395D02*
D03*
X23500Y37400D02*
D03*
X29747Y40447D02*
D03*
M02*
