%FSLAX24Y24*%
%MOIN*%
G70*
G01*
G75*
G04 Layer_Color=16711935*
G04 Layer_Color=16711935*
%ADD10C,0.0400*%
%ADD11R,0.0394X0.0433*%
%ADD12R,0.0433X0.0394*%
%ADD13R,0.0472X0.1575*%
%ADD14R,0.0669X0.0709*%
%ADD15R,0.0748X0.0748*%
%ADD16R,0.0807X0.0236*%
%ADD17R,0.0500X0.1449*%
%ADD18C,0.0080*%
%ADD19C,0.0090*%
%ADD20C,0.1600*%
%ADD21C,0.0600*%
%ADD22C,0.0472*%
%ADD23C,0.0630*%
%ADD24C,0.0200*%
%ADD25C,0.0100*%
%ADD26C,0.0079*%
%ADD27C,0.0098*%
%ADD28C,0.0070*%
%ADD29C,0.1000*%
%ADD30R,0.0474X0.0513*%
%ADD31R,0.0513X0.0474*%
%ADD32R,0.0552X0.1655*%
%ADD33R,0.0749X0.0789*%
%ADD34R,0.0828X0.0828*%
%ADD35R,0.0887X0.0316*%
%ADD36R,0.0580X0.1529*%
%ADD37C,0.2200*%
%ADD38C,0.0680*%
%ADD39C,0.0552*%
%ADD40C,0.0710*%
%ADD41C,0.0480*%
%ADD42C,0.0280*%
D29*
X47000Y45600D02*
D03*
X46400Y31200D02*
D03*
X24600Y37000D02*
D03*
D30*
X31800Y38865D02*
D03*
Y39535D02*
D03*
D31*
X25148Y33200D02*
D03*
X25817D02*
D03*
D37*
X24600Y40200D02*
D03*
X50000Y43000D02*
D03*
Y36000D02*
D03*
D38*
X27000Y34400D02*
D03*
X28000D02*
D03*
X26000D02*
D03*
X25000D02*
D03*
X28000Y31400D02*
D03*
X25000D02*
D03*
X31000Y34400D02*
D03*
X32000D02*
D03*
X30000D02*
D03*
X29000D02*
D03*
X32000Y31400D02*
D03*
X29000D02*
D03*
D39*
X48000Y41000D02*
D03*
D40*
X37764D02*
D03*
D41*
X29747Y40447D02*
D03*
X23500Y37400D02*
D03*
X39555Y43395D02*
D03*
X41455Y43395D02*
D03*
X40450Y41150D02*
D03*
X43400Y41250D02*
D03*
X42439Y41161D02*
D03*
X30500Y38050D02*
D03*
X33400Y37550D02*
D03*
X31115Y38865D02*
D03*
X32650Y39550D02*
D03*
X31435Y36935D02*
D03*
D42*
X33750Y43200D02*
D03*
X34935Y43235D02*
D03*
X29800Y45600D02*
D03*
X30300Y43600D02*
D03*
X31450Y43650D02*
D03*
X32300Y43600D02*
D03*
X33300Y43650D02*
D03*
X38600Y45250D02*
D03*
X36300Y43450D02*
D03*
X37300Y43600D02*
D03*
X35700Y45750D02*
D03*
X37876Y46274D02*
D03*
X32700Y46100D02*
D03*
M02*
