%FSLAX24Y24*%
%MOIN*%
G70*
G01*
G75*
G04 Layer_Physical_Order=3*
G04 Layer_Color=128*
G04 Layer_Color=128*
%ADD10R,0.0807X0.0236*%
%ADD11R,0.0394X0.0433*%
%ADD12R,0.0866X0.0787*%
%ADD13R,0.0669X0.0709*%
%ADD14R,0.0748X0.0748*%
%ADD15R,0.0472X0.1575*%
%ADD16R,0.0433X0.0394*%
%ADD17C,0.0080*%
%ADD18C,0.0090*%
%ADD19C,0.1600*%
%ADD20C,0.0600*%
%ADD21C,0.0630*%
%ADD22C,0.0472*%
%ADD23C,0.0591*%
%ADD24R,0.0591X0.0591*%
%ADD25C,0.0400*%
%ADD26C,0.0098*%
%ADD27C,0.0079*%
%ADD28C,0.0100*%
%ADD29C,0.0070*%
%ADD30R,0.0887X0.0316*%
%ADD31R,0.0474X0.0513*%
%ADD32R,0.0946X0.0867*%
%ADD33R,0.0749X0.0789*%
%ADD34R,0.0828X0.0828*%
%ADD35R,0.0552X0.1655*%
%ADD36R,0.0513X0.0474*%
%ADD37C,0.1680*%
%ADD38C,0.0680*%
%ADD39C,0.0710*%
%ADD40C,0.0552*%
%ADD41C,0.0671*%
%ADD42R,0.0671X0.0671*%
%ADD43C,0.0480*%
%ADD44C,0.0400*%
%ADD45C,0.1800*%
%AMTHD46*
7,0,0,0.1000,0.0800,0.0100,45*
%
%ADD46THD46*%
%ADD47C,0.0800*%
%ADD48C,0.0991*%
%ADD49C,0.0833*%
%AMTHD50*
7,0,0,0.0954,0.0754,0.0100,45*
%
%ADD50THD50*%
%ADD51C,0.0754*%
%ADD52C,0.0650*%
%AMTHD53*
7,0,0,0.0850,0.0650,0.0100,45*
%
%ADD53THD53*%
D18*
X54400Y36850D02*
Y36250D01*
X54800D01*
X55100Y36650D02*
X55300D01*
X55400Y36550D01*
Y36250D01*
X55100D01*
X55000Y36350D01*
X55100Y36450D01*
X55400D01*
X55600Y36650D02*
Y36350D01*
X55700Y36250D01*
X55999D01*
Y36150D01*
X55900Y36050D01*
X55800D01*
X55999Y36250D02*
Y36650D01*
X56499Y36250D02*
X56299D01*
X56199Y36350D01*
Y36550D01*
X56299Y36650D01*
X56499D01*
X56599Y36550D01*
Y36450D01*
X56199D01*
X56799Y36650D02*
Y36250D01*
Y36450D01*
X56899Y36550D01*
X56999Y36650D01*
X57099D01*
X57999Y36750D02*
X58099Y36850D01*
X58299D01*
X58399Y36750D01*
Y36650D01*
X58299Y36550D01*
X58199D01*
X58299D01*
X58399Y36450D01*
Y36350D01*
X58299Y36250D01*
X58099D01*
X57999Y36350D01*
D44*
X20000Y30000D02*
Y48000D01*
X52000D01*
Y30000D02*
Y48000D01*
X20000Y30000D02*
X52000D01*
D45*
X26000Y37000D02*
D03*
X50000D02*
D03*
Y44000D02*
D03*
X26000D02*
D03*
D47*
X29000Y31400D02*
D03*
X32000D02*
D03*
X29000Y34400D02*
D03*
X30000D02*
D03*
X32000D02*
D03*
X31000D02*
D03*
X25000Y31400D02*
D03*
X28000D02*
D03*
X25000Y34400D02*
D03*
X26000D02*
D03*
X28000D02*
D03*
X27000D02*
D03*
D48*
X37764Y41000D02*
D03*
D49*
X48000D02*
D03*
D50*
X36200Y46600D02*
D03*
D51*
X29200Y45600D02*
D03*
Y46600D02*
D03*
X30200Y45600D02*
D03*
Y46600D02*
D03*
X31200Y45600D02*
D03*
Y46600D02*
D03*
X32200Y45600D02*
D03*
Y46600D02*
D03*
X33200Y45600D02*
D03*
Y46600D02*
D03*
X34200Y45600D02*
D03*
Y46600D02*
D03*
X35200Y45600D02*
D03*
Y46600D02*
D03*
X36200Y45600D02*
D03*
D52*
X31435Y36935D02*
D03*
X32650Y39550D02*
D03*
X31115Y38865D02*
D03*
X33400Y37550D02*
D03*
X30500Y38050D02*
D03*
X43400Y41250D02*
D03*
X40450Y41150D02*
D03*
X41455Y43395D02*
D03*
X39555Y43395D02*
D03*
X23500Y37400D02*
D03*
X29747Y40447D02*
D03*
D53*
X42439Y41161D02*
D03*
M02*
