%FSLAX24Y24*%
%MOIN*%
G70*
G01*
G75*
G04 Layer_Physical_Order=1*
G04 Layer_Color=255*
%ADD10C,0.0400*%
%ADD11R,0.0394X0.0433*%
%ADD12R,0.0500X0.1449*%
%ADD13R,0.0807X0.0236*%
%ADD14R,0.0669X0.0709*%
%ADD15R,0.0748X0.0748*%
%ADD16R,0.0472X0.1575*%
%ADD17R,0.0433X0.0394*%
%ADD18C,0.0080*%
%ADD19C,0.0090*%
%ADD20C,0.0600*%
%ADD21C,0.0630*%
%ADD22C,0.0472*%
%ADD23C,0.1600*%
%ADD24C,0.0200*%
D10*
X33400Y31200D02*
D03*
X47000Y45600D02*
D03*
X25000Y44800D02*
D03*
X31435Y36935D02*
D03*
X32650Y39550D02*
D03*
X31115Y38865D02*
D03*
X33400Y37550D02*
D03*
X30500Y38050D02*
D03*
X42439Y41161D02*
D03*
X43400Y41250D02*
D03*
X40450Y41150D02*
D03*
X41455Y43395D02*
D03*
X39555Y43395D02*
D03*
X23500Y37400D02*
D03*
X29747Y40447D02*
D03*
D11*
X33400Y38465D02*
D03*
Y39135D02*
D03*
X30800Y36935D02*
D03*
Y36265D02*
D03*
X32000Y36935D02*
D03*
Y36265D02*
D03*
X28000Y36265D02*
D03*
Y36935D02*
D03*
D12*
X30300Y46274D02*
D03*
Y44526D02*
D03*
X31300Y46274D02*
D03*
Y44526D02*
D03*
X32300Y46274D02*
D03*
Y44526D02*
D03*
X33300Y46274D02*
D03*
Y44526D02*
D03*
X34300Y46274D02*
D03*
Y44526D02*
D03*
X35300Y46274D02*
D03*
Y44526D02*
D03*
X36300Y46274D02*
D03*
Y44526D02*
D03*
X37300Y46274D02*
D03*
Y44526D02*
D03*
D13*
X29747Y39550D02*
D03*
Y39050D02*
D03*
Y38550D02*
D03*
Y38050D02*
D03*
X31853Y39550D02*
D03*
Y39050D02*
D03*
Y38550D02*
D03*
Y38050D02*
D03*
D14*
X37331Y40291D02*
D03*
Y31532D02*
D03*
D15*
X48374D02*
D03*
D16*
X37852Y42339D02*
D03*
X38807D02*
D03*
X39555D02*
D03*
X40470D02*
D03*
X41455D02*
D03*
X42439D02*
D03*
X43423D02*
D03*
X44407D02*
D03*
X45392D02*
D03*
X46376D02*
D03*
D17*
X24135Y36600D02*
D03*
X23465D02*
D03*
D18*
X32300Y46274D02*
X32474Y46100D01*
X32700D01*
X37300Y46274D02*
X37876D01*
X35300Y46200D02*
X35700Y45800D01*
X38600Y45250D02*
X42200D01*
X44407Y43043D01*
X35300Y46200D02*
Y46274D01*
X35700Y45750D02*
Y45800D01*
X37300Y43600D02*
Y44526D01*
X36300Y43450D02*
Y44526D01*
X33300Y43650D02*
Y44526D01*
X32300Y43600D02*
Y44550D01*
X31300Y43800D02*
Y44550D01*
Y43800D02*
X31450Y43650D01*
X30300Y43600D02*
Y44550D01*
X29800Y45600D02*
X30350Y46150D01*
X28000Y36935D02*
Y40300D01*
X30900Y43200D01*
X35300Y43600D02*
Y44526D01*
X34935Y43235D02*
X35300Y43600D01*
X30900Y43200D02*
X33750D01*
X30850Y42350D02*
X33350D01*
X28700Y39250D02*
Y40200D01*
X30850Y42350D01*
X34350Y43350D02*
Y44450D01*
X33350Y42350D02*
X34350Y43350D01*
X36700Y47150D02*
X41550D01*
X36300Y46750D02*
X36700Y47150D01*
X36300Y46274D02*
Y46750D01*
X44407Y42339D02*
Y43043D01*
X41550Y47150D02*
X45392Y43308D01*
X24135Y36265D02*
Y36600D01*
Y36265D02*
X26000Y34400D01*
X28000D02*
Y36265D01*
X32000Y34400D02*
Y36450D01*
X30800Y36935D02*
X32000D01*
X31853Y39550D02*
X32650D01*
X32809Y39391D02*
X33400D01*
X32650Y39550D02*
X32809Y39391D01*
X31431Y38550D02*
X31853D01*
X31115Y38865D02*
X31431Y38550D01*
X31300Y39050D02*
X31853D01*
X31115Y38865D02*
X31300Y39050D01*
X33400Y37550D02*
Y38209D01*
X29747Y38050D02*
X30500D01*
X29050Y37150D02*
X29950Y36250D01*
X29050Y37150D02*
Y38200D01*
X29400Y38550D01*
X29747D01*
X29950Y36250D02*
X30800D01*
X31100Y34350D02*
Y35965D01*
X30800Y36265D02*
X31100Y35965D01*
X28900Y39050D02*
X29747D01*
X28700Y39250D02*
X28900Y39050D01*
X42439Y41161D02*
Y42339D01*
X43400Y41250D02*
Y42300D01*
X40450Y41150D02*
Y42300D01*
X45392Y42339D02*
Y43308D01*
X41455Y42339D02*
Y43395D01*
X39555Y42339D02*
Y43395D01*
X23500Y36800D02*
Y37215D01*
X29747Y39550D02*
Y40447D01*
D19*
X54300Y39500D02*
Y38900D01*
X54700D01*
X55000Y39300D02*
X55200D01*
X55300Y39200D01*
Y38900D01*
X55000D01*
X54900Y39000D01*
X55000Y39100D01*
X55300D01*
X55500Y39300D02*
Y39000D01*
X55600Y38900D01*
X55899D01*
Y38800D01*
X55800Y38700D01*
X55700D01*
X55899Y38900D02*
Y39300D01*
X56399Y38900D02*
X56199D01*
X56099Y39000D01*
Y39200D01*
X56199Y39300D01*
X56399D01*
X56499Y39200D01*
Y39100D01*
X56099D01*
X56699Y39300D02*
Y38900D01*
Y39100D01*
X56799Y39200D01*
X56899Y39300D01*
X56999D01*
X57899Y38900D02*
X58099D01*
X57999D01*
Y39500D01*
X57899Y39400D01*
D20*
X29000Y31400D02*
D03*
X32000D02*
D03*
X29000Y34400D02*
D03*
X30000D02*
D03*
X32000D02*
D03*
X31000D02*
D03*
X25000Y31400D02*
D03*
X28000D02*
D03*
X25000Y34400D02*
D03*
X26000D02*
D03*
X28000D02*
D03*
X27000D02*
D03*
D21*
X37764Y41000D02*
D03*
D22*
X48000D02*
D03*
D23*
X50000Y36000D02*
D03*
Y43000D02*
D03*
X24600Y40200D02*
D03*
D24*
X32700Y46100D02*
D03*
X37876Y46274D02*
D03*
X35700Y45750D02*
D03*
X37300Y43600D02*
D03*
X36300Y43450D02*
D03*
X38600Y45250D02*
D03*
X33300Y43650D02*
D03*
X32300Y43600D02*
D03*
X31450Y43650D02*
D03*
X30300Y43600D02*
D03*
X29800Y45600D02*
D03*
X34935Y43235D02*
D03*
X33750Y43200D02*
D03*
M02*
