%FSLAX24Y24*%
%MOIN*%
G70*
G01*
G75*
G04 Layer_Color=32896*
%ADD10C,0.0400*%
%ADD11R,0.0394X0.0433*%
%ADD12R,0.0500X0.1449*%
%ADD13R,0.0807X0.0236*%
%ADD14R,0.0669X0.0709*%
%ADD15R,0.0748X0.0748*%
%ADD16R,0.0472X0.1575*%
%ADD17R,0.0433X0.0394*%
%ADD18C,0.0080*%
%ADD19C,0.0090*%
%ADD20C,0.0600*%
%ADD21C,0.0630*%
%ADD22C,0.0472*%
%ADD23C,0.1600*%
%ADD24C,0.0200*%
%ADD25C,0.0098*%
%ADD26C,0.0079*%
%ADD27C,0.0100*%
%ADD28C,0.0070*%
D26*
X26152Y33043D02*
Y33357D01*
X31643Y39869D02*
X31957D01*
D27*
X51400Y36000D02*
G03*
X51400Y36000I-1400J0D01*
G01*
Y43000D02*
G03*
X51400Y43000I-1400J0D01*
G01*
X26000Y40200D02*
G03*
X26000Y40200I-1400J0D01*
G01*
X46995Y47005D02*
X47395D01*
Y46705D01*
X47195D01*
X47395D01*
Y46405D01*
X46795Y47005D02*
X46595D01*
X46695D01*
Y46405D01*
X46795D01*
X46595D01*
X46295Y47005D02*
Y46405D01*
X45995D01*
X45895Y46505D01*
Y46905D01*
X45995Y47005D01*
X46295D01*
X45396Y46405D02*
Y47005D01*
X45696Y46705D01*
X45296D01*
X46395Y32605D02*
X46795D01*
Y32305D01*
X46595D01*
X46795D01*
Y32005D01*
X46195Y32605D02*
X45995D01*
X46095D01*
Y32005D01*
X46195D01*
X45995D01*
X45695Y32605D02*
Y32005D01*
X45395D01*
X45295Y32105D01*
Y32505D01*
X45395Y32605D01*
X45695D01*
X44696D02*
X45096D01*
Y32305D01*
X44896Y32405D01*
X44796D01*
X44696Y32305D01*
Y32105D01*
X44796Y32005D01*
X44996D01*
X45096Y32105D01*
X24605Y35595D02*
X24205D01*
Y35895D01*
X24405D01*
X24205D01*
Y36195D01*
X24805Y35595D02*
X25005D01*
X24905D01*
Y36195D01*
X24805D01*
X25005D01*
X25305Y35595D02*
Y36195D01*
X25605D01*
X25705Y36095D01*
Y35695D01*
X25605Y35595D01*
X25305D01*
X26304D02*
X26104Y35695D01*
X25904Y35895D01*
Y36095D01*
X26004Y36195D01*
X26204D01*
X26304Y36095D01*
Y35995D01*
X26204Y35895D01*
X25904D01*
D28*
X25600Y33750D02*
X25650Y33800D01*
X25750D01*
X25800Y33750D01*
Y33550D01*
X25750Y33500D01*
X25650D01*
X25600Y33550D01*
X25500Y33500D02*
X25400D01*
X25450D01*
Y33800D01*
X25500Y33750D01*
X31200Y39418D02*
X31150Y39468D01*
Y39567D01*
X31200Y39617D01*
X31400D01*
X31450Y39567D01*
Y39468D01*
X31400Y39418D01*
X31200Y39318D02*
X31150Y39268D01*
Y39168D01*
X31200Y39118D01*
X31250D01*
X31300Y39168D01*
Y39218D01*
Y39168D01*
X31350Y39118D01*
X31400D01*
X31450Y39168D01*
Y39268D01*
X31400Y39318D01*
M02*
