M48
;Layer_Color=15461320
;FILE_FORMAT=2:4
INCH,LZ
;TYPE=PLATED
T1F00S00C0.0100
T2F00S00C0.0250
T3F00S00C0.0400
T4F00S00C0.0433
T5F00S00C0.0591
T6F00S00C0.1400
%
T01
X0303Y0436
X0298Y0456
X0327Y0461
X0323Y0436
X03145Y04365
X0333
X03375Y0432
X034935Y043235
X0363Y04345
X0373Y0436
X0386Y04525
X037876Y046274
X0357Y04575
T02
X0235Y0374
X0305Y03805
X031115Y038865
X029747Y040447
X03265Y03955
X0334Y03755
X031435Y036935
X04045Y04115
X042439Y041161
X0434Y04125
X041455Y043395
X039555Y043395
T03
X025Y0314
Y0344
X026
X027
X028
X029
X03
X031
X029Y0314
X028
X032
Y0344
T04
X048Y041
T05
X037764Y041
T06
X0246Y0402
X05Y043
Y036
M30
