%FSLAX24Y24*%
%MOIN*%
G70*
G01*
G75*
G04 Layer_Physical_Order=6*
G04 Layer_Color=16711680*
%ADD10C,0.0400*%
%ADD11R,0.0394X0.0433*%
%ADD12R,0.0433X0.0394*%
%ADD13R,0.0472X0.1575*%
%ADD14R,0.0669X0.0709*%
%ADD15R,0.0748X0.0748*%
%ADD16R,0.0807X0.0236*%
%ADD17R,0.0500X0.1449*%
%ADD18C,0.0080*%
%ADD19C,0.0090*%
%ADD20C,0.1600*%
%ADD21C,0.0600*%
%ADD22C,0.0472*%
%ADD23C,0.0630*%
%ADD24C,0.0200*%
G36*
X39104Y47285D02*
X39350D01*
Y44122D01*
X34851D01*
X32882Y46091D01*
X32884Y46100D01*
X32870Y46170D01*
X32830Y46230D01*
X32770Y46270D01*
X32700Y46284D01*
X32630Y46270D01*
X32570Y46230D01*
X32530Y46170D01*
X32516Y46100D01*
X32530Y46030D01*
X32570Y45970D01*
X32630Y45930D01*
X32700Y45916D01*
X32709Y45918D01*
X34713Y43913D01*
X34753Y43887D01*
X34800Y43878D01*
X39350D01*
Y43588D01*
X39311Y43536D01*
X39282Y43468D01*
X39273Y43395D01*
X39273Y43391D01*
X38854Y42972D01*
X33783D01*
X33779Y43019D01*
X33779D01*
X33778Y43022D01*
X33820Y43030D01*
X33880Y43070D01*
X33908Y43113D01*
X34800D01*
X34805Y43105D01*
X34865Y43065D01*
X34935Y43051D01*
X35005Y43065D01*
X35065Y43105D01*
X35104Y43165D01*
X35118Y43235D01*
X35104Y43305D01*
X35065Y43365D01*
X35005Y43404D01*
X34935Y43418D01*
X34865Y43404D01*
X34805Y43365D01*
X34800Y43357D01*
X33839D01*
X33820Y43370D01*
X33750Y43384D01*
X33680Y43370D01*
X33620Y43330D01*
X33580Y43270D01*
X33566Y43200D01*
X33580Y43130D01*
X33620Y43070D01*
X33680Y43030D01*
X33722Y43022D01*
X33717Y42975D01*
X33715Y42972D01*
X31901D01*
X31435Y43438D01*
X31450Y43466D01*
X31520Y43480D01*
X31580Y43520D01*
X31620Y43580D01*
X31634Y43650D01*
X31620Y43720D01*
X31580Y43780D01*
X31520Y43820D01*
X31450Y43834D01*
X31380Y43820D01*
X31320Y43780D01*
X31280Y43720D01*
X31270Y43666D01*
X31222Y43651D01*
X29922Y44951D01*
Y45465D01*
X29930Y45470D01*
X29970Y45530D01*
X29984Y45600D01*
X29970Y45670D01*
X29930Y45730D01*
X29870Y45770D01*
X29800Y45784D01*
X29730Y45770D01*
X29670Y45730D01*
X29630Y45670D01*
X29616Y45600D01*
X29630Y45530D01*
X29670Y45470D01*
X29678Y45465D01*
Y44900D01*
X29687Y44853D01*
X29713Y44813D01*
X31763Y42763D01*
X31803Y42737D01*
X31850Y42728D01*
X38905D01*
X38952Y42737D01*
X38992Y42763D01*
X39304Y43076D01*
X39350Y43057D01*
Y33150D01*
X26114D01*
Y33339D01*
X26122Y33383D01*
Y34039D01*
X26192Y34068D01*
X26271Y34129D01*
X26332Y34208D01*
X26370Y34301D01*
X26383Y34400D01*
X26370Y34499D01*
X26332Y34592D01*
X26271Y34671D01*
X26192Y34732D01*
X26099Y34770D01*
X26000Y34783D01*
X25901Y34770D01*
X25808Y34732D01*
X25729Y34671D01*
X25668Y34592D01*
X25630Y34499D01*
X25617Y34400D01*
X25630Y34301D01*
X25668Y34208D01*
X25729Y34129D01*
X25808Y34068D01*
X25878Y34039D01*
Y33477D01*
X25521D01*
Y33150D01*
X25444D01*
Y33477D01*
X25270D01*
Y34128D01*
X25271Y34129D01*
X25332Y34208D01*
X25370Y34301D01*
X25383Y34400D01*
X25370Y34499D01*
X25332Y34592D01*
X25271Y34671D01*
X25192Y34732D01*
X25099Y34770D01*
X25000Y34783D01*
X24901Y34770D01*
X24808Y34732D01*
X24729Y34671D01*
X24668Y34592D01*
X24630Y34499D01*
X24617Y34400D01*
X24630Y34301D01*
X24668Y34208D01*
X24729Y34129D01*
X24808Y34068D01*
X24901Y34030D01*
X25000Y34017D01*
X25026Y33994D01*
Y33477D01*
X24851D01*
Y33150D01*
X23100D01*
Y47350D01*
X39022D01*
X39104Y47285D01*
D02*
G37*
%LPC*%
G36*
X33400Y37832D02*
X33327Y37823D01*
X33259Y37795D01*
X33200Y37750D01*
X33155Y37691D01*
X33127Y37623D01*
X33118Y37550D01*
X33127Y37477D01*
X33155Y37409D01*
X33200Y37350D01*
X33259Y37305D01*
X33327Y37277D01*
X33400Y37268D01*
X33473Y37277D01*
X33541Y37305D01*
X33600Y37350D01*
X33645Y37409D01*
X33673Y37477D01*
X33682Y37550D01*
X33673Y37623D01*
X33645Y37691D01*
X33600Y37750D01*
X33541Y37795D01*
X33473Y37823D01*
X33400Y37832D01*
D02*
G37*
G36*
X24600Y37282D02*
X24527Y37273D01*
X24459Y37245D01*
X24400Y37200D01*
X24355Y37141D01*
X24327Y37073D01*
X24318Y37000D01*
X24327Y36927D01*
X24355Y36859D01*
X24400Y36800D01*
X24459Y36755D01*
X24527Y36727D01*
X24600Y36718D01*
X24673Y36727D01*
X24741Y36755D01*
X24800Y36800D01*
X24845Y36859D01*
X24873Y36927D01*
X24882Y37000D01*
X24873Y37073D01*
X24845Y37141D01*
X24800Y37200D01*
X24741Y37245D01*
X24673Y37273D01*
X24600Y37282D01*
D02*
G37*
G36*
X30500Y38332D02*
X30427Y38323D01*
X30359Y38295D01*
X30300Y38250D01*
X30255Y38191D01*
X30227Y38123D01*
X30218Y38050D01*
X30227Y37977D01*
X30255Y37909D01*
X30300Y37850D01*
X30359Y37805D01*
X30427Y37777D01*
X30500Y37768D01*
X30573Y37777D01*
X30641Y37805D01*
X30700Y37850D01*
X30745Y37909D01*
X30773Y37977D01*
X30782Y38050D01*
X30773Y38123D01*
X30745Y38191D01*
X30700Y38250D01*
X30641Y38295D01*
X30573Y38323D01*
X30500Y38332D01*
D02*
G37*
G36*
X32077Y39162D02*
X31523D01*
Y38988D01*
X31368D01*
X31360Y39007D01*
X31315Y39065D01*
X31257Y39110D01*
X31188Y39138D01*
X31115Y39148D01*
X31042Y39138D01*
X30974Y39110D01*
X30916Y39065D01*
X30871Y39007D01*
X30843Y38938D01*
X30833Y38865D01*
X30843Y38792D01*
X30871Y38724D01*
X30916Y38666D01*
X30974Y38621D01*
X31042Y38593D01*
X31115Y38583D01*
X31188Y38593D01*
X31257Y38621D01*
X31315Y38666D01*
X31360Y38724D01*
X31368Y38743D01*
X31523D01*
Y38569D01*
X32077D01*
Y39162D01*
D02*
G37*
G36*
X31750Y39485D02*
X31523D01*
Y39238D01*
X31750D01*
Y39485D01*
D02*
G37*
G36*
X32000Y34783D02*
X31901Y34770D01*
X31808Y34732D01*
X31729Y34671D01*
X31668Y34592D01*
X31630Y34499D01*
X31617Y34400D01*
X31630Y34301D01*
X31668Y34208D01*
X31729Y34129D01*
X31808Y34068D01*
X31901Y34030D01*
X32000Y34017D01*
X32099Y34030D01*
X32192Y34068D01*
X32271Y34129D01*
X32332Y34208D01*
X32370Y34301D01*
X32383Y34400D01*
X32370Y34499D01*
X32332Y34592D01*
X32271Y34671D01*
X32192Y34732D01*
X32099Y34770D01*
X32000Y34783D01*
D02*
G37*
G36*
X28000D02*
X27901Y34770D01*
X27808Y34732D01*
X27729Y34671D01*
X27668Y34592D01*
X27630Y34499D01*
X27617Y34400D01*
X27630Y34301D01*
X27668Y34208D01*
X27729Y34129D01*
X27808Y34068D01*
X27901Y34030D01*
X28000Y34017D01*
X28099Y34030D01*
X28192Y34068D01*
X28271Y34129D01*
X28332Y34208D01*
X28370Y34301D01*
X28383Y34400D01*
X28370Y34499D01*
X28332Y34592D01*
X28271Y34671D01*
X28192Y34732D01*
X28099Y34770D01*
X28000Y34783D01*
D02*
G37*
G36*
X27000D02*
X26901Y34770D01*
X26808Y34732D01*
X26729Y34671D01*
X26668Y34592D01*
X26630Y34499D01*
X26617Y34400D01*
X26630Y34301D01*
X26668Y34208D01*
X26729Y34129D01*
X26808Y34068D01*
X26901Y34030D01*
X27000Y34017D01*
X27099Y34030D01*
X27192Y34068D01*
X27271Y34129D01*
X27332Y34208D01*
X27370Y34301D01*
X27383Y34400D01*
X27370Y34499D01*
X27332Y34592D01*
X27271Y34671D01*
X27192Y34732D01*
X27099Y34770D01*
X27000Y34783D01*
D02*
G37*
G36*
X29000D02*
X28901Y34770D01*
X28808Y34732D01*
X28729Y34671D01*
X28668Y34592D01*
X28630Y34499D01*
X28617Y34400D01*
X28630Y34301D01*
X28668Y34208D01*
X28729Y34129D01*
X28808Y34068D01*
X28901Y34030D01*
X29000Y34017D01*
X29099Y34030D01*
X29192Y34068D01*
X29271Y34129D01*
X29332Y34208D01*
X29370Y34301D01*
X29383Y34400D01*
X29370Y34499D01*
X29332Y34592D01*
X29271Y34671D01*
X29192Y34732D01*
X29099Y34770D01*
X29000Y34783D01*
D02*
G37*
G36*
X31000D02*
X30901Y34770D01*
X30808Y34732D01*
X30729Y34671D01*
X30668Y34592D01*
X30630Y34499D01*
X30617Y34400D01*
X30630Y34301D01*
X30668Y34208D01*
X30729Y34129D01*
X30808Y34068D01*
X30901Y34030D01*
X31000Y34017D01*
X31099Y34030D01*
X31192Y34068D01*
X31271Y34129D01*
X31332Y34208D01*
X31370Y34301D01*
X31383Y34400D01*
X31370Y34499D01*
X31332Y34592D01*
X31271Y34671D01*
X31192Y34732D01*
X31099Y34770D01*
X31000Y34783D01*
D02*
G37*
G36*
X30000D02*
X29901Y34770D01*
X29808Y34732D01*
X29729Y34671D01*
X29668Y34592D01*
X29630Y34499D01*
X29617Y34400D01*
X29630Y34301D01*
X29668Y34208D01*
X29729Y34129D01*
X29808Y34068D01*
X29901Y34030D01*
X30000Y34017D01*
X30099Y34030D01*
X30192Y34068D01*
X30271Y34129D01*
X30332Y34208D01*
X30370Y34301D01*
X30383Y34400D01*
X30370Y34499D01*
X30332Y34592D01*
X30271Y34671D01*
X30192Y34732D01*
X30099Y34770D01*
X30000Y34783D01*
D02*
G37*
G36*
X32300Y43784D02*
X32230Y43770D01*
X32170Y43730D01*
X32130Y43670D01*
X32116Y43600D01*
X32130Y43530D01*
X32170Y43470D01*
X32230Y43430D01*
X32300Y43416D01*
X32370Y43430D01*
X32430Y43470D01*
X32470Y43530D01*
X32484Y43600D01*
X32470Y43670D01*
X32430Y43730D01*
X32370Y43770D01*
X32300Y43784D01*
D02*
G37*
G36*
X30300D02*
X30230Y43770D01*
X30170Y43730D01*
X30130Y43670D01*
X30116Y43600D01*
X30130Y43530D01*
X30170Y43470D01*
X30230Y43430D01*
X30300Y43416D01*
X30370Y43430D01*
X30430Y43470D01*
X30470Y43530D01*
X30484Y43600D01*
X30470Y43670D01*
X30430Y43730D01*
X30370Y43770D01*
X30300Y43784D01*
D02*
G37*
G36*
X33300Y43834D02*
X33230Y43820D01*
X33170Y43780D01*
X33130Y43720D01*
X33116Y43650D01*
X33130Y43580D01*
X33170Y43520D01*
X33230Y43480D01*
X33300Y43466D01*
X33370Y43480D01*
X33430Y43520D01*
X33470Y43580D01*
X33484Y43650D01*
X33470Y43720D01*
X33430Y43780D01*
X33370Y43820D01*
X33300Y43834D01*
D02*
G37*
G36*
X37876Y46458D02*
X37806Y46444D01*
X37746Y46404D01*
X37706Y46344D01*
X37692Y46274D01*
X37706Y46204D01*
X37746Y46144D01*
X37806Y46104D01*
X37876Y46090D01*
X37946Y46104D01*
X38006Y46144D01*
X38046Y46204D01*
X38060Y46274D01*
X38046Y46344D01*
X38006Y46404D01*
X37946Y46444D01*
X37876Y46458D01*
D02*
G37*
G36*
X35700Y45934D02*
X35630Y45920D01*
X35570Y45880D01*
X35530Y45820D01*
X35516Y45750D01*
X35530Y45680D01*
X35570Y45620D01*
X35630Y45580D01*
X35700Y45566D01*
X35709Y45568D01*
X36113Y45163D01*
X36153Y45137D01*
X36200Y45128D01*
X38465D01*
X38470Y45120D01*
X38530Y45080D01*
X38600Y45066D01*
X38670Y45080D01*
X38730Y45120D01*
X38770Y45180D01*
X38784Y45250D01*
X38770Y45320D01*
X38730Y45380D01*
X38670Y45420D01*
X38600Y45434D01*
X38530Y45420D01*
X38470Y45380D01*
X38465Y45372D01*
X36251D01*
X35882Y45741D01*
X35884Y45750D01*
X35870Y45820D01*
X35830Y45880D01*
X35770Y45920D01*
X35700Y45934D01*
D02*
G37*
G36*
X36300Y43634D02*
X36230Y43620D01*
X36170Y43580D01*
X36130Y43520D01*
X36116Y43450D01*
X36130Y43380D01*
X36170Y43320D01*
X36230Y43280D01*
X36300Y43266D01*
X36370Y43280D01*
X36430Y43320D01*
X36470Y43380D01*
X36484Y43450D01*
X36470Y43520D01*
X36430Y43580D01*
X36370Y43620D01*
X36300Y43634D01*
D02*
G37*
G36*
X24600Y41084D02*
X24427Y41067D01*
X24262Y41017D01*
X24109Y40935D01*
X23975Y40825D01*
X23865Y40691D01*
X23783Y40538D01*
X23733Y40373D01*
X23716Y40200D01*
X23733Y40027D01*
X23783Y39862D01*
X23865Y39709D01*
X23975Y39575D01*
X24109Y39465D01*
X24262Y39383D01*
X24427Y39333D01*
X24600Y39316D01*
X24773Y39333D01*
X24938Y39383D01*
X25091Y39465D01*
X25225Y39575D01*
X25335Y39709D01*
X25417Y39862D01*
X25467Y40027D01*
X25484Y40200D01*
X25467Y40373D01*
X25417Y40538D01*
X25335Y40691D01*
X25225Y40825D01*
X25091Y40935D01*
X24938Y41017D01*
X24773Y41067D01*
X24600Y41084D01*
D02*
G37*
G36*
X32077Y39485D02*
X31850D01*
Y39238D01*
X32077D01*
Y39485D01*
D02*
G37*
G36*
X31750Y39831D02*
X31523D01*
Y39585D01*
X31750D01*
Y39831D01*
D02*
G37*
G36*
X37764Y41398D02*
X37661Y41385D01*
X37565Y41345D01*
X37482Y41282D01*
X37419Y41199D01*
X37379Y41103D01*
X37365Y41000D01*
X37379Y40897D01*
X37419Y40801D01*
X37482Y40718D01*
X37565Y40655D01*
X37661Y40615D01*
X37764Y40602D01*
X37867Y40615D01*
X37963Y40655D01*
X38045Y40718D01*
X38109Y40801D01*
X38149Y40897D01*
X38162Y41000D01*
X38149Y41103D01*
X38109Y41199D01*
X38045Y41282D01*
X37963Y41345D01*
X37867Y41385D01*
X37764Y41398D01*
D02*
G37*
G36*
X32077Y39831D02*
X31850D01*
Y39585D01*
X32077D01*
Y39831D01*
D02*
G37*
%LPD*%
D10*
X47000Y45600D02*
D03*
X46400Y31200D02*
D03*
X24600Y37000D02*
D03*
X29747Y40447D02*
D03*
X23500Y37400D02*
D03*
X39555Y43395D02*
D03*
X41455Y43395D02*
D03*
X40450Y41150D02*
D03*
X43400Y41250D02*
D03*
X42439Y41161D02*
D03*
X30500Y38050D02*
D03*
X33400Y37550D02*
D03*
X31115Y38865D02*
D03*
X32650Y39550D02*
D03*
X31435Y36935D02*
D03*
D11*
X31800Y38865D02*
D03*
Y39535D02*
D03*
D12*
X25148Y33200D02*
D03*
X25817D02*
D03*
D18*
X40850Y44000D02*
X41455Y43395D01*
X31115Y38865D02*
X31800D01*
Y39535D02*
X32635D01*
X25148Y33200D02*
Y34252D01*
X26000Y33383D02*
Y34400D01*
X33750Y43200D02*
X33785Y43235D01*
X34935D01*
X29800Y44900D02*
Y45600D01*
X36200Y45250D02*
X38600D01*
X35700Y45750D02*
X36200Y45250D01*
X32700Y46100D02*
X34800Y44000D01*
X40850D01*
X31850Y42850D02*
X38905D01*
X39450Y43395D02*
X39555D01*
X38905Y42850D02*
X39450Y43395D01*
X29800Y44900D02*
X31850Y42850D01*
D19*
X54450Y35500D02*
Y34900D01*
X54850D01*
X55150Y35300D02*
X55350D01*
X55450Y35200D01*
Y34900D01*
X55150D01*
X55050Y35000D01*
X55150Y35100D01*
X55450D01*
X55650Y35300D02*
Y35000D01*
X55750Y34900D01*
X56049D01*
Y34800D01*
X55950Y34700D01*
X55850D01*
X56049Y34900D02*
Y35300D01*
X56549Y34900D02*
X56349D01*
X56249Y35000D01*
Y35200D01*
X56349Y35300D01*
X56549D01*
X56649Y35200D01*
Y35100D01*
X56249D01*
X56849Y35300D02*
Y34900D01*
Y35100D01*
X56949Y35200D01*
X57049Y35300D01*
X57149D01*
X58349Y34900D02*
Y35500D01*
X58049Y35200D01*
X58449D01*
D20*
X24600Y40200D02*
D03*
X50000Y43000D02*
D03*
Y36000D02*
D03*
D21*
X27000Y34400D02*
D03*
X28000D02*
D03*
X26000D02*
D03*
X25000D02*
D03*
X28000Y31400D02*
D03*
X25000D02*
D03*
X31000Y34400D02*
D03*
X32000D02*
D03*
X30000D02*
D03*
X29000D02*
D03*
X32000Y31400D02*
D03*
X29000D02*
D03*
D22*
X48000Y41000D02*
D03*
D23*
X37764D02*
D03*
D24*
X33750Y43200D02*
D03*
X34935Y43235D02*
D03*
X29800Y45600D02*
D03*
X30300Y43600D02*
D03*
X31450Y43650D02*
D03*
X32300Y43600D02*
D03*
X33300Y43650D02*
D03*
X38600Y45250D02*
D03*
X36300Y43450D02*
D03*
X37300Y43600D02*
D03*
X35700Y45750D02*
D03*
X37876Y46274D02*
D03*
X32700Y46100D02*
D03*
M02*
