%FSLAX24Y24*%
%MOIN*%
G70*
G01*
G75*
G04 Layer_Color=65535*
%ADD10C,0.0400*%
%ADD11R,0.0394X0.0433*%
%ADD12R,0.0433X0.0394*%
%ADD13R,0.0472X0.1575*%
%ADD14R,0.0669X0.0709*%
%ADD15R,0.0748X0.0748*%
%ADD16R,0.0807X0.0236*%
%ADD17R,0.0500X0.1449*%
%ADD18C,0.0080*%
%ADD19C,0.0090*%
%ADD20C,0.1600*%
%ADD21C,0.0600*%
%ADD22C,0.0472*%
%ADD23C,0.0630*%
%ADD24C,0.0200*%
%ADD25C,0.0100*%
%ADD26C,0.0079*%
%ADD27C,0.0098*%
%ADD28C,0.0070*%
D18*
X36800Y47300D02*
X36850Y47350D01*
X37800D01*
X36800Y47300D02*
X37800D01*
X36850Y47250D02*
X37800D01*
X36800Y47200D02*
X37800D01*
X36800D02*
Y47400D01*
X29800D02*
X37800D01*
X29800Y43400D02*
X37800D01*
Y47400D01*
X29800Y43400D02*
Y47400D01*
D19*
X18750Y34250D02*
X18350Y34050D01*
X18750Y33850D01*
X18350Y33650D02*
Y33450D01*
Y33550D01*
X18950D01*
X18850Y33650D01*
X18350Y33150D02*
X18450D01*
Y33050D01*
X18350D01*
Y33150D01*
X18850Y32651D02*
X18950Y32551D01*
Y32351D01*
X18850Y32251D01*
X18450D01*
X18350Y32351D01*
Y32551D01*
X18450Y32651D01*
X18850D01*
X18350Y32051D02*
X18450D01*
Y31951D01*
X18350D01*
Y32051D01*
Y31151D02*
Y31551D01*
X18750Y31151D01*
X18850D01*
X18950Y31251D01*
Y31451D01*
X18850Y31551D01*
Y46550D02*
X18950Y46650D01*
Y46850D01*
X18850Y46950D01*
X18750D01*
X18650Y46850D01*
Y46650D01*
X18550Y46550D01*
X18450D01*
X18350Y46650D01*
Y46850D01*
X18450Y46950D01*
X18350Y46250D02*
Y46050D01*
X18450Y45950D01*
X18650D01*
X18750Y46050D01*
Y46250D01*
X18650Y46350D01*
X18450D01*
X18350Y46250D01*
Y45750D02*
X18750D01*
Y45650D01*
X18650Y45550D01*
X18350D01*
X18650D01*
X18750Y45450D01*
X18650Y45351D01*
X18350D01*
X18750Y45051D02*
Y44851D01*
X18650Y44751D01*
X18350D01*
Y45051D01*
X18450Y45151D01*
X18550Y45051D01*
Y44751D01*
X18950Y43551D02*
Y43951D01*
X18650D01*
Y43751D01*
Y43951D01*
X18350D01*
X18750Y43351D02*
X18350D01*
X18550D01*
X18650Y43251D01*
X18750Y43151D01*
Y43051D01*
X18350Y42651D02*
Y42451D01*
X18450Y42351D01*
X18650D01*
X18750Y42451D01*
Y42651D01*
X18650Y42751D01*
X18450D01*
X18350Y42651D01*
Y42152D02*
X18750D01*
Y41852D01*
X18650Y41752D01*
X18350D01*
X18850Y41452D02*
X18750D01*
Y41552D01*
Y41352D01*
Y41452D01*
X18450D01*
X18350Y41352D01*
X18850Y40052D02*
X18950Y40152D01*
Y40352D01*
X18850Y40452D01*
X18450D01*
X18350Y40352D01*
Y40152D01*
X18450Y40052D01*
X18350Y39752D02*
Y39552D01*
X18450Y39452D01*
X18650D01*
X18750Y39552D01*
Y39752D01*
X18650Y39852D01*
X18450D01*
X18350Y39752D01*
Y39252D02*
X18750D01*
Y38953D01*
X18650Y38853D01*
X18350D01*
Y38653D02*
X18750D01*
Y38353D01*
X18650Y38253D01*
X18350D01*
Y37753D02*
Y37953D01*
X18450Y38053D01*
X18650D01*
X18750Y37953D01*
Y37753D01*
X18650Y37653D01*
X18550D01*
Y38053D01*
X18750Y37053D02*
Y37353D01*
X18650Y37453D01*
X18450D01*
X18350Y37353D01*
Y37053D01*
X18850Y36753D02*
X18750D01*
Y36853D01*
Y36653D01*
Y36753D01*
X18450D01*
X18350Y36653D01*
Y36253D02*
Y36054D01*
X18450Y35954D01*
X18650D01*
X18750Y36054D01*
Y36253D01*
X18650Y36353D01*
X18450D01*
X18350Y36253D01*
X18750Y35754D02*
X18350D01*
X18550D01*
X18650Y35654D01*
X18750Y35554D01*
Y35454D01*
D25*
X26000Y40200D02*
G03*
X26000Y40200I-1400J0D01*
G01*
X51400Y43000D02*
G03*
X51400Y43000I-1400J0D01*
G01*
Y36000D02*
G03*
X51400Y36000I-1400J0D01*
G01*
X24500Y31000D02*
Y34400D01*
X28500Y31000D02*
Y34400D01*
X24500Y35400D02*
X24700D01*
Y35200D02*
Y35400D01*
Y35200D02*
X25300D01*
Y35400D01*
X26000D01*
Y35200D02*
Y35400D01*
Y35200D02*
X27000D01*
Y35400D01*
X27700D01*
Y35200D02*
Y35400D01*
Y35200D02*
X28300D01*
Y35400D01*
X28500D01*
Y34400D02*
Y35400D01*
X24500Y34300D02*
Y35400D01*
Y30700D02*
Y31400D01*
Y30700D02*
X28500D01*
Y31000D01*
X24500Y31100D02*
X24900Y30700D01*
X28100D02*
X28500Y31100D01*
Y31000D02*
Y34400D01*
X32500Y31000D02*
Y34400D01*
X28500Y35400D02*
X28700D01*
Y35200D02*
Y35400D01*
Y35200D02*
X29300D01*
Y35400D01*
X30000D01*
Y35200D02*
Y35400D01*
Y35200D02*
X31000D01*
Y35400D01*
X31700D01*
Y35200D02*
Y35400D01*
Y35200D02*
X32300D01*
Y35400D01*
X32500D01*
Y34400D02*
Y35400D01*
X28500Y34300D02*
Y35400D01*
Y30700D02*
Y31400D01*
Y30700D02*
X32500D01*
Y31000D01*
X28500Y31100D02*
X28900Y30700D01*
X32100D02*
X32500Y31100D01*
X49045Y38245D02*
X48945Y38345D01*
X48745D01*
X48645Y38245D01*
Y38145D01*
X48745Y38045D01*
X48945D01*
X49045Y37945D01*
Y37845D01*
X48945Y37745D01*
X48745D01*
X48645Y37845D01*
X49245Y38245D02*
X49345Y38345D01*
X49545D01*
X49645Y38245D01*
Y38145D01*
X49545Y38045D01*
X49445D01*
X49545D01*
X49645Y37945D01*
Y37845D01*
X49545Y37745D01*
X49345D01*
X49245Y37845D01*
X49045Y45245D02*
X48945Y45345D01*
X48745D01*
X48645Y45245D01*
Y45145D01*
X48745Y45045D01*
X48945D01*
X49045Y44945D01*
Y44845D01*
X48945Y44745D01*
X48745D01*
X48645Y44845D01*
X49645Y44745D02*
X49245D01*
X49645Y45145D01*
Y45245D01*
X49545Y45345D01*
X49345D01*
X49245Y45245D01*
X23645Y42445D02*
X23545Y42545D01*
X23345D01*
X23245Y42445D01*
Y42345D01*
X23345Y42245D01*
X23545D01*
X23645Y42145D01*
Y42045D01*
X23545Y41945D01*
X23345D01*
X23245Y42045D01*
X23845Y41945D02*
X24045D01*
X23945D01*
Y42545D01*
X23845Y42445D01*
X34405Y33605D02*
X34005D01*
Y33305D01*
X34205D01*
X34005D01*
Y33005D01*
X34605Y33605D02*
X34805D01*
X34705D01*
Y33005D01*
X34605D01*
X34805D01*
X35105Y33605D02*
Y33005D01*
X35405D01*
X35505Y33105D01*
Y33505D01*
X35405Y33605D01*
X35105D01*
X35704Y33505D02*
X35804Y33605D01*
X36004D01*
X36104Y33505D01*
Y33405D01*
X36004Y33305D01*
X35904D01*
X36004D01*
X36104Y33205D01*
Y33105D01*
X36004Y33005D01*
X35804D01*
X35704Y33105D01*
X25005Y46205D02*
X24605D01*
Y45905D01*
X24805D01*
X24605D01*
Y45605D01*
X25205Y46205D02*
X25405D01*
X25305D01*
Y45605D01*
X25205D01*
X25405D01*
X25705Y46205D02*
Y45605D01*
X26005D01*
X26105Y45705D01*
Y46105D01*
X26005Y46205D01*
X25705D01*
X26704Y45605D02*
X26304D01*
X26704Y46005D01*
Y46105D01*
X26604Y46205D01*
X26404D01*
X26304Y46105D01*
X47005Y47005D02*
X46605D01*
Y46705D01*
X46805D01*
X46605D01*
Y46405D01*
X47205Y47005D02*
X47405D01*
X47305D01*
Y46405D01*
X47205D01*
X47405D01*
X47705Y47005D02*
Y46405D01*
X48005D01*
X48105Y46505D01*
Y46905D01*
X48005Y47005D01*
X47705D01*
X48304Y46405D02*
X48504D01*
X48404D01*
Y47005D01*
X48304Y46905D01*
D26*
X30636Y39784D02*
G03*
X30964Y39784I164J0D01*
G01*
X31292Y37816D02*
Y39784D01*
X30308Y37816D02*
Y39784D01*
Y37816D02*
X31292D01*
X30964Y39784D02*
X31292D01*
X30308D02*
X30636D01*
X33243Y39469D02*
X33557D01*
D27*
X29796Y39885D02*
G03*
X29796Y39885I-49J0D01*
G01*
D28*
X30350Y40250D02*
Y40000D01*
X30400Y39950D01*
X30500D01*
X30550Y40000D01*
Y40250D01*
X30650Y39950D02*
X30750D01*
X30700D01*
Y40250D01*
X30650Y40200D01*
X30400Y36050D02*
X30100D01*
Y36200D01*
X30150Y36250D01*
X30250D01*
X30300Y36200D01*
Y36050D01*
Y36150D02*
X30400Y36250D01*
Y36500D02*
X30100D01*
X30250Y36350D01*
Y36550D01*
X31650Y36050D02*
X31350D01*
Y36200D01*
X31400Y36250D01*
X31500D01*
X31550Y36200D01*
Y36050D01*
Y36150D02*
X31650Y36250D01*
X31400Y36350D02*
X31350Y36400D01*
Y36500D01*
X31400Y36550D01*
X31450D01*
X31500Y36500D01*
Y36450D01*
Y36500D01*
X31550Y36550D01*
X31600D01*
X31650Y36500D01*
Y36400D01*
X31600Y36350D01*
X24250Y36300D02*
Y36000D01*
X24100D01*
X24050Y36050D01*
Y36150D01*
X24100Y36200D01*
X24250D01*
X24150D02*
X24050Y36300D01*
X23750D02*
X23950D01*
X23750Y36100D01*
Y36050D01*
X23800Y36000D01*
X23900D01*
X23950Y36050D01*
X27650Y36250D02*
X27350D01*
Y36400D01*
X27400Y36450D01*
X27500D01*
X27550Y36400D01*
Y36250D01*
Y36350D02*
X27650Y36450D01*
Y36550D02*
Y36650D01*
Y36600D01*
X27350D01*
X27400Y36550D01*
X37055Y43465D02*
Y43765D01*
X37205D01*
X37255Y43715D01*
Y43615D01*
X37205Y43565D01*
X37055D01*
X37555Y43465D02*
X37355D01*
X37555Y43665D01*
Y43715D01*
X37505Y43765D01*
X37405D01*
X37355Y43715D01*
X42525Y46835D02*
X42825D01*
Y46685D01*
X42775Y46635D01*
X42675D01*
X42625Y46685D01*
Y46835D01*
X42525Y46535D02*
Y46435D01*
Y46485D01*
X42825D01*
X42775Y46535D01*
X28695Y36045D02*
X28595D01*
X28545Y35995D01*
Y35795D01*
X28595Y35745D01*
X28695D01*
X28745Y35795D01*
Y35995D01*
X28695Y36045D01*
X29045Y35745D02*
X28845D01*
X29045Y35945D01*
Y35995D01*
X28995Y36045D01*
X28895D01*
X28845Y35995D01*
X24695Y36045D02*
X24595D01*
X24545Y35995D01*
Y35795D01*
X24595Y35745D01*
X24695D01*
X24745Y35795D01*
Y35995D01*
X24695Y36045D01*
X24845Y35745D02*
X24945D01*
X24895D01*
Y36045D01*
X24845Y35995D01*
X34350Y39300D02*
X34400Y39350D01*
Y39450D01*
X34350Y39500D01*
X34150D01*
X34100Y39450D01*
Y39350D01*
X34150Y39300D01*
X34100Y39000D02*
Y39200D01*
X34300Y39000D01*
X34350D01*
X34400Y39050D01*
Y39150D01*
X34350Y39200D01*
M02*
