%FSLAX23Y23*%
%MOIN*%
G70*
G01*
G75*
G04 Layer_Physical_Order=2*
G04 Layer_Color=32768*
G04 Layer_Color=32768*
%ADD10R,0.043X0.039*%
%ADD11C,0.016*%
%ADD12R,0.016X0.047*%
%ADD13R,0.101X0.062*%
%ADD14R,0.256X0.036*%
%ADD15R,0.078X0.062*%
%ADD16R,0.102X0.094*%
%ADD17R,0.051X0.059*%
%ADD18R,0.035X0.028*%
%ADD19R,0.020X0.061*%
%ADD20R,0.061X0.020*%
%ADD21R,0.055X0.079*%
%ADD22R,0.041X0.015*%
%ADD23R,0.057X0.022*%
%ADD24R,0.087X0.016*%
%ADD25R,0.087X0.016*%
%ADD26R,0.039X0.043*%
%ADD27R,0.071X0.063*%
%ADD28R,0.036X0.048*%
%ADD29R,0.063X0.071*%
%ADD30R,0.063X0.106*%
%ADD31R,0.061X0.020*%
%ADD32R,0.161X0.102*%
%ADD33O,0.041X0.015*%
%ADD34R,0.106X0.063*%
%ADD35R,0.039X0.193*%
%ADD36R,0.197X0.118*%
%ADD37R,0.015X0.060*%
%ADD38R,0.071X0.016*%
%ADD39R,0.016X0.071*%
%ADD40R,0.102X0.087*%
%ADD41R,0.087X0.102*%
%ADD42C,0.006*%
%ADD43C,0.014*%
%ADD44C,0.016*%
%ADD45C,0.024*%
%ADD46C,0.012*%
%ADD47C,0.018*%
%ADD48C,0.020*%
%ADD49C,0.059*%
%ADD50C,0.055*%
%ADD51C,0.106*%
%ADD52C,0.130*%
%ADD53C,0.160*%
%ADD54C,0.070*%
%ADD55R,0.059X0.059*%
%ADD56C,0.094*%
%ADD57C,0.050*%
%ADD58C,0.030*%
%ADD59C,0.042*%
%ADD60C,0.028*%
%ADD61C,0.024*%
%ADD62C,0.008*%
%ADD63C,0.010*%
%ADD64R,0.028X0.035*%
%ADD65C,0.010*%
%ADD66C,0.008*%
%ADD67C,0.004*%
%ADD68C,0.007*%
%ADD69C,0.004*%
%ADD70C,0.060*%
%ADD71C,0.015*%
%ADD72R,0.051X0.047*%
%ADD73C,0.020*%
%ADD74R,0.024X0.055*%
%ADD75R,0.110X0.102*%
%ADD76R,0.059X0.067*%
%ADD77R,0.043X0.036*%
%ADD78R,0.028X0.069*%
%ADD79R,0.069X0.028*%
%ADD80R,0.063X0.087*%
%ADD81R,0.049X0.023*%
%ADD82R,0.065X0.030*%
%ADD83R,0.095X0.024*%
%ADD84R,0.095X0.024*%
%ADD85R,0.047X0.051*%
%ADD86R,0.079X0.071*%
%ADD87R,0.044X0.056*%
%ADD88R,0.071X0.079*%
%ADD89R,0.071X0.114*%
%ADD90R,0.069X0.028*%
%ADD91R,0.169X0.110*%
%ADD92O,0.049X0.023*%
%ADD93R,0.114X0.071*%
%ADD94R,0.047X0.201*%
%ADD95R,0.205X0.126*%
%ADD96R,0.023X0.068*%
%ADD97R,0.079X0.024*%
%ADD98R,0.024X0.079*%
%ADD99R,0.110X0.095*%
%ADD100R,0.095X0.110*%
%ADD101C,0.067*%
%ADD102C,0.063*%
%ADD103C,0.114*%
%ADD104C,0.138*%
%ADD105C,0.168*%
%ADD106C,0.078*%
%ADD107R,0.067X0.067*%
%ADD108C,0.102*%
%ADD109C,0.058*%
%ADD110C,0.038*%
%ADD111C,0.036*%
%ADD112R,0.036X0.043*%
%ADD113C,0.040*%
%AMTHD114*
7,0,0,0.074,0.054,0.010,45*
%
%ADD114THD114*%
%AMTHD115*
7,0,0,0.078,0.058,0.010,45*
%
%ADD115THD115*%
%ADD116C,0.065*%
%ADD117C,0.061*%
%AMTHD118*
7,0,0,0.095,0.075,0.010,45*
%
%ADD118THD118*%
%ADD119C,0.124*%
%ADD120C,0.136*%
%ADD121C,0.166*%
%AMTHD122*
7,0,0,0.099,0.079,0.010,45*
%
%ADD122THD122*%
%ADD123C,0.072*%
%AMTHD124*
7,0,0,0.106,0.086,0.010,45*
%
%ADD124THD124*%
%ADD125C,0.057*%
%AMTHD126*
7,0,0,0.091,0.071,0.010,45*
%
%ADD126THD126*%
%ADD127C,0.061*%
%AMTHD128*
7,0,0,0.095,0.075,0.010,45*
%
%ADD128THD128*%
%ADD129C,0.097*%
%AMTHD130*
7,0,0,0.131,0.111,0.010,45*
%
%ADD130THD130*%
%AMTHD131*
7,0,0,0.088,0.068,0.010,45*
%
%ADD131THD131*%
%ADD132C,0.054*%
%AMTHD133*
7,0,0,0.075,0.055,0.010,45*
%
%ADD133THD133*%
%AMTHD134*
7,0,0,0.070,0.050,0.010,45*
%
%ADD134THD134*%
%ADD135C,0.041*%
%AMTHD136*
7,0,0,0.084,0.064,0.010,45*
%
%ADD136THD136*%
%AMTHD137*
7,0,0,0.074,0.054,0.010,45*
%
%ADD137THD137*%
%ADD138C,0.040*%
D44*
X17650Y6090D02*
Y5970D01*
X17730D01*
X17790Y6050D02*
X17830D01*
X17850Y6030D01*
Y5970D01*
X17790D01*
X17770Y5990D01*
X17790Y6010D01*
X17850D01*
X17890Y6050D02*
Y5990D01*
X17910Y5970D01*
X17970D01*
Y5950D01*
X17950Y5930D01*
X17930D01*
X17970Y5970D02*
Y6050D01*
X18070Y5970D02*
X18030D01*
X18010Y5990D01*
Y6030D01*
X18030Y6050D01*
X18070D01*
X18090Y6030D01*
Y6010D01*
X18010D01*
X18130Y6050D02*
Y5970D01*
Y6010D01*
X18150Y6030D01*
X18170Y6050D01*
X18190D01*
X18450Y5970D02*
X18370D01*
X18450Y6050D01*
Y6070D01*
X18430Y6090D01*
X18390D01*
X18370Y6070D01*
D57*
X4045Y7185D02*
D03*
X3701Y7274D02*
D03*
D111*
X11510Y3200D02*
D03*
X4449Y4882D02*
D03*
X4262Y4035D02*
D03*
X3533Y4734D02*
D03*
X4508Y5650D02*
D03*
X10423Y7313D02*
D03*
X2972Y4144D02*
D03*
X10108Y7195D02*
D03*
X10236Y7323D02*
D03*
X10472Y6998D02*
D03*
X10482Y7057D02*
D03*
X10217Y7116D02*
D03*
X10384Y6850D02*
D03*
X11329Y6978D02*
D03*
X11339Y7037D02*
D03*
X11358Y7106D02*
D03*
X11407Y7175D02*
D03*
X2739Y4200D02*
D03*
X3701Y5295D02*
D03*
X2726Y4291D02*
D03*
X2667Y4193D02*
D03*
X2687Y4518D02*
D03*
X2717Y4498D02*
D03*
X2743Y4564D02*
D03*
X2844Y4695D02*
D03*
X2894Y4833D02*
D03*
X3091Y4281D02*
D03*
X2844Y4439D02*
D03*
X2765Y4253D02*
D03*
X2790Y4276D02*
D03*
X2995Y4285D02*
D03*
X3091Y4173D02*
D03*
X3120Y4134D02*
D03*
X3140Y3976D02*
D03*
X3550Y4308D02*
D03*
X3655Y4334D02*
D03*
X3307Y4104D02*
D03*
X3740Y5256D02*
D03*
Y5217D02*
D03*
Y5177D02*
D03*
X3740Y5098D02*
D03*
X2505Y4385D02*
D03*
X2746Y4665D02*
D03*
X2655Y4308D02*
D03*
X2631Y4334D02*
D03*
X3701Y5256D02*
D03*
X3701Y5217D02*
D03*
Y5177D02*
D03*
Y5138D02*
D03*
Y5098D02*
D03*
Y5059D02*
D03*
X3661Y5217D02*
D03*
Y5256D02*
D03*
X3622D02*
D03*
Y5217D02*
D03*
X3661Y5177D02*
D03*
X3661Y5138D02*
D03*
X3622D02*
D03*
X3661Y5098D02*
D03*
X3622D02*
D03*
X3661Y5059D02*
D03*
X3622D02*
D03*
X3622Y5020D02*
D03*
X3662D02*
D03*
X3524Y4921D02*
D03*
X2480Y4775D02*
D03*
X2485Y4615D02*
D03*
X2490Y4490D02*
D03*
X2485Y4225D02*
D03*
X2875Y3990D02*
D03*
X3270Y4225D02*
D03*
Y4460D02*
D03*
X3255Y4385D02*
D03*
X3270Y4630D02*
D03*
X3265Y4775D02*
D03*
X2880Y5010D02*
D03*
X2695Y5020D02*
D03*
X3780Y5453D02*
D03*
Y5413D02*
D03*
Y5374D02*
D03*
Y5335D02*
D03*
Y5256D02*
D03*
Y5217D02*
D03*
Y5177D02*
D03*
X3740Y5138D02*
D03*
X3780D02*
D03*
X3740Y5059D02*
D03*
X3780D02*
D03*
X3858D02*
D03*
X3898D02*
D03*
X3937D02*
D03*
X3740Y5020D02*
D03*
X3780D02*
D03*
X3819D02*
D03*
X3858D02*
D03*
X3898D02*
D03*
X3937D02*
D03*
X3780Y5098D02*
D03*
X3819D02*
D03*
Y5059D02*
D03*
X3858Y5098D02*
D03*
X3898D02*
D03*
X3937D02*
D03*
X4134Y5059D02*
D03*
X4016Y5098D02*
D03*
X4055D02*
D03*
X4094D02*
D03*
X4134D02*
D03*
X4173D02*
D03*
X3602Y4843D02*
D03*
X3701Y4941D02*
D03*
X3740D02*
D03*
Y4980D02*
D03*
X3780Y4941D02*
D03*
Y4980D02*
D03*
X3819Y4941D02*
D03*
Y4980D02*
D03*
X3858D02*
D03*
Y4941D02*
D03*
X3937D02*
D03*
X3898Y4980D02*
D03*
X3937D02*
D03*
X3976D02*
D03*
X3642Y4841D02*
D03*
X3760Y4844D02*
D03*
X4173Y5492D02*
D03*
X4134D02*
D03*
X4133Y5531D02*
D03*
X4094Y5492D02*
D03*
X4331Y5138D02*
D03*
X4291Y5217D02*
D03*
X4331D02*
D03*
X4291Y5256D02*
D03*
X4331D02*
D03*
X4291Y5295D02*
D03*
X4331D02*
D03*
X4291Y5335D02*
D03*
X4331D02*
D03*
X4291Y5413D02*
D03*
Y5453D02*
D03*
Y5492D02*
D03*
X4331D02*
D03*
X4290Y5531D02*
D03*
X4331Y5531D02*
D03*
X4291Y5571D02*
D03*
X4331D02*
D03*
X4016Y5492D02*
D03*
X4055D02*
D03*
X4172Y5139D02*
D03*
X4212D02*
D03*
X4173Y5177D02*
D03*
Y5217D02*
D03*
Y5256D02*
D03*
Y5453D02*
D03*
X4213D02*
D03*
X4173Y5413D02*
D03*
Y5374D02*
D03*
Y5335D02*
D03*
X4331Y5453D02*
D03*
X3937Y5492D02*
D03*
X3898D02*
D03*
X3858D02*
D03*
X3819D02*
D03*
X3780D02*
D03*
X3820Y5531D02*
D03*
X5266Y4488D02*
D03*
X8278Y4478D02*
D03*
X9754Y4469D02*
D03*
X11289Y4488D02*
D03*
X12756Y4469D02*
D03*
X14291Y4498D02*
D03*
X15699Y4419D02*
D03*
X4094Y4823D02*
D03*
X4252Y4980D02*
D03*
Y4941D02*
D03*
X4213Y4980D02*
D03*
Y4941D02*
D03*
X4173Y4980D02*
D03*
X4173Y5020D02*
D03*
X4134D02*
D03*
X4173Y5610D02*
D03*
Y5650D02*
D03*
X4252Y5827D02*
D03*
X4281Y5856D02*
D03*
X4134Y5610D02*
D03*
Y5650D02*
D03*
X4281Y5915D02*
D03*
X4311Y5945D02*
D03*
X4016Y5797D02*
D03*
X4094Y5650D02*
D03*
Y5610D02*
D03*
X4439Y6004D02*
D03*
X6663Y4350D02*
D03*
X4134Y5571D02*
D03*
X4055Y5610D02*
D03*
X4154Y5876D02*
D03*
X4016Y5610D02*
D03*
Y5650D02*
D03*
X3533Y5512D02*
D03*
X3622Y5413D02*
D03*
X3819Y5650D02*
D03*
X3750Y5748D02*
D03*
X3740Y5453D02*
D03*
X3661Y4980D02*
D03*
X4439Y4813D02*
D03*
X4439Y4783D02*
D03*
X4173Y4941D02*
D03*
X3976D02*
D03*
X4094Y4980D02*
D03*
X4419Y5079D02*
D03*
X3435Y5374D02*
D03*
X3406Y5354D02*
D03*
X3376Y5335D02*
D03*
X3524Y5069D02*
D03*
X13268Y3967D02*
D03*
X3524Y5669D02*
D03*
X6417Y6998D02*
D03*
X5305Y6535D02*
D03*
X7539Y7146D02*
D03*
X14677Y4530D02*
D03*
X5561Y6624D02*
D03*
X5394Y6555D02*
D03*
X4055Y5020D02*
D03*
X4065Y4852D02*
D03*
X4252Y5020D02*
D03*
X4094Y5531D02*
D03*
X11496Y3868D02*
D03*
X4281Y5748D02*
D03*
X11870Y3533D02*
D03*
X4193Y4852D02*
D03*
X4331Y5610D02*
D03*
X4291D02*
D03*
X3976Y5689D02*
D03*
X3937Y5650D02*
D03*
X3898D02*
D03*
X4242Y5748D02*
D03*
X4213D02*
D03*
X4094Y5059D02*
D03*
Y5020D02*
D03*
X4419Y5512D02*
D03*
X3445Y5709D02*
D03*
X3406Y5699D02*
D03*
X3366Y5640D02*
D03*
X8337Y7254D02*
D03*
X8907D02*
D03*
X9252Y7303D02*
D03*
X4469Y4724D02*
D03*
X6181Y3937D02*
D03*
X4528Y4774D02*
D03*
X6467Y3711D02*
D03*
X11112Y3602D02*
D03*
X12057Y3583D02*
D03*
X12963Y3563D02*
D03*
X11181Y3799D02*
D03*
D113*
X2000Y3000D02*
X17500D01*
Y7750D01*
X2000D02*
X17500D01*
X2000Y3000D02*
Y7750D01*
D114*
X3755Y3650D02*
D03*
Y3690D02*
D03*
X3795Y3650D02*
D03*
Y3690D02*
D03*
X3835Y3650D02*
D03*
Y3690D02*
D03*
X3830Y6410D02*
D03*
X3790D02*
D03*
X3750D02*
D03*
X3830Y6370D02*
D03*
X3790D02*
D03*
X3750D02*
D03*
D115*
X3895Y3630D02*
D03*
Y3710D02*
D03*
X3890Y6350D02*
D03*
Y6430D02*
D03*
X3685Y6350D02*
D03*
Y6430D02*
D03*
D116*
X7750Y7441D02*
D03*
X7671D02*
D03*
X7593D02*
D03*
X7514D02*
D03*
X7435D02*
D03*
X7356D02*
D03*
X7278D02*
D03*
D117*
X17024Y5991D02*
D03*
X17174D02*
D03*
X17024Y5891D02*
D03*
X17174D02*
D03*
Y5791D02*
D03*
Y5691D02*
D03*
X17249Y5941D02*
D03*
Y5741D02*
D03*
X17174Y5591D02*
D03*
Y5491D02*
D03*
Y5391D02*
D03*
X17249Y5541D02*
D03*
X17174Y5291D02*
D03*
X17249Y5341D02*
D03*
X17024Y4691D02*
D03*
X17099Y4641D02*
D03*
X17174Y5191D02*
D03*
Y5091D02*
D03*
Y4991D02*
D03*
X17249Y5241D02*
D03*
Y5141D02*
D03*
Y5041D02*
D03*
Y4941D02*
D03*
X17174Y4891D02*
D03*
Y4791D02*
D03*
X17249Y4841D02*
D03*
Y4741D02*
D03*
X17024Y6291D02*
D03*
Y6191D02*
D03*
X17174Y6291D02*
D03*
X17099Y6241D02*
D03*
Y6141D02*
D03*
X17024Y6091D02*
D03*
X17099Y6041D02*
D03*
X17174Y6191D02*
D03*
X17249Y6141D02*
D03*
X17174Y6091D02*
D03*
X5351Y6041D02*
D03*
X5276Y6091D02*
D03*
X5351Y6141D02*
D03*
X5426Y5991D02*
D03*
X5501Y6041D02*
D03*
X5426Y6091D02*
D03*
Y6191D02*
D03*
X5351Y6241D02*
D03*
X5501Y6141D02*
D03*
Y6241D02*
D03*
X5276Y4691D02*
D03*
Y4791D02*
D03*
X5351Y4741D02*
D03*
Y4841D02*
D03*
X5276Y4891D02*
D03*
Y4991D02*
D03*
Y5091D02*
D03*
Y5191D02*
D03*
X5351Y4941D02*
D03*
Y5041D02*
D03*
Y5141D02*
D03*
X5426Y4591D02*
D03*
Y4691D02*
D03*
Y4791D02*
D03*
X5501Y4641D02*
D03*
Y4841D02*
D03*
X5426Y4891D02*
D03*
Y4991D02*
D03*
Y5091D02*
D03*
Y5191D02*
D03*
X5501Y5041D02*
D03*
X5276Y5291D02*
D03*
X5351Y5241D02*
D03*
X5276Y5491D02*
D03*
X5351Y5341D02*
D03*
Y5441D02*
D03*
Y5541D02*
D03*
X5276Y5691D02*
D03*
Y5891D02*
D03*
X5351Y5641D02*
D03*
Y5741D02*
D03*
Y5841D02*
D03*
X5426Y5291D02*
D03*
X5501Y5241D02*
D03*
X5426Y5391D02*
D03*
Y5491D02*
D03*
X5501Y5441D02*
D03*
X5426Y5591D02*
D03*
Y5691D02*
D03*
X5501Y5641D02*
D03*
Y5741D02*
D03*
Y5841D02*
D03*
X5351Y5941D02*
D03*
X5501D02*
D03*
X6101Y6041D02*
D03*
X6026Y6091D02*
D03*
X6101Y6141D02*
D03*
X6176Y5991D02*
D03*
X6251Y6041D02*
D03*
X6176Y6091D02*
D03*
Y6191D02*
D03*
X6101Y6241D02*
D03*
X6251Y6141D02*
D03*
Y6241D02*
D03*
X6026Y4691D02*
D03*
Y4791D02*
D03*
X6101Y4741D02*
D03*
Y4841D02*
D03*
X6026Y4891D02*
D03*
Y4991D02*
D03*
Y5091D02*
D03*
Y5191D02*
D03*
X6101Y4941D02*
D03*
Y5041D02*
D03*
Y5141D02*
D03*
X6176Y4591D02*
D03*
Y4691D02*
D03*
Y4791D02*
D03*
X6251Y4641D02*
D03*
Y4741D02*
D03*
Y4841D02*
D03*
X6176Y4891D02*
D03*
Y4991D02*
D03*
Y5091D02*
D03*
Y5191D02*
D03*
X6251Y5041D02*
D03*
X6026Y5291D02*
D03*
X6101Y5241D02*
D03*
X6026Y5491D02*
D03*
X6101Y5341D02*
D03*
Y5441D02*
D03*
Y5541D02*
D03*
X6026Y5691D02*
D03*
Y5891D02*
D03*
X6101Y5641D02*
D03*
Y5741D02*
D03*
Y5841D02*
D03*
X6176Y5291D02*
D03*
X6251Y5241D02*
D03*
X6176Y5391D02*
D03*
Y5491D02*
D03*
X6251Y5441D02*
D03*
X6176Y5591D02*
D03*
Y5691D02*
D03*
X6251Y5641D02*
D03*
Y5741D02*
D03*
Y5841D02*
D03*
X6101Y5941D02*
D03*
X6251D02*
D03*
X6851Y6041D02*
D03*
X6776Y6091D02*
D03*
X6851Y6141D02*
D03*
X6926Y5991D02*
D03*
X7001Y6041D02*
D03*
X6926Y6091D02*
D03*
Y6191D02*
D03*
X6851Y6241D02*
D03*
X7001Y6141D02*
D03*
Y6241D02*
D03*
X6776Y4691D02*
D03*
Y4791D02*
D03*
X6851Y4741D02*
D03*
Y4841D02*
D03*
X6776Y4891D02*
D03*
Y4991D02*
D03*
Y5091D02*
D03*
Y5191D02*
D03*
X6851Y4941D02*
D03*
Y5041D02*
D03*
Y5141D02*
D03*
X6926Y4591D02*
D03*
Y4691D02*
D03*
Y4791D02*
D03*
X7001Y4641D02*
D03*
Y4741D02*
D03*
Y4841D02*
D03*
X6926Y4891D02*
D03*
Y4991D02*
D03*
Y5091D02*
D03*
Y5191D02*
D03*
X7001Y5041D02*
D03*
X6776Y5291D02*
D03*
X6851Y5241D02*
D03*
X6776Y5491D02*
D03*
X6851Y5341D02*
D03*
Y5441D02*
D03*
Y5541D02*
D03*
X6776Y5691D02*
D03*
Y5891D02*
D03*
X6851Y5641D02*
D03*
Y5741D02*
D03*
Y5841D02*
D03*
X6926Y5291D02*
D03*
X7001Y5241D02*
D03*
X6926Y5391D02*
D03*
Y5491D02*
D03*
X7001Y5441D02*
D03*
X6926Y5591D02*
D03*
Y5691D02*
D03*
X7001Y5641D02*
D03*
Y5741D02*
D03*
Y5841D02*
D03*
X6851Y5941D02*
D03*
X7001D02*
D03*
X7601Y6041D02*
D03*
X7526Y6091D02*
D03*
X7601Y6141D02*
D03*
X7676Y5991D02*
D03*
X7751Y6041D02*
D03*
X7676Y6091D02*
D03*
Y6191D02*
D03*
X7601Y6241D02*
D03*
X7751Y6141D02*
D03*
Y6241D02*
D03*
X7526Y4691D02*
D03*
Y4791D02*
D03*
X7601Y4741D02*
D03*
Y4841D02*
D03*
X7526Y4891D02*
D03*
Y4991D02*
D03*
Y5091D02*
D03*
Y5191D02*
D03*
X7601Y4941D02*
D03*
Y5041D02*
D03*
Y5141D02*
D03*
X7676Y4591D02*
D03*
Y4691D02*
D03*
Y4791D02*
D03*
X7751Y4641D02*
D03*
Y4741D02*
D03*
Y4841D02*
D03*
X7676Y4891D02*
D03*
Y4991D02*
D03*
Y5091D02*
D03*
Y5191D02*
D03*
X7751Y5041D02*
D03*
X7526Y5291D02*
D03*
X7601Y5241D02*
D03*
X7526Y5491D02*
D03*
X7601Y5341D02*
D03*
Y5441D02*
D03*
Y5541D02*
D03*
X7526Y5691D02*
D03*
Y5891D02*
D03*
X7601Y5641D02*
D03*
Y5741D02*
D03*
Y5841D02*
D03*
X7676Y5291D02*
D03*
X7751Y5241D02*
D03*
X7676Y5391D02*
D03*
Y5491D02*
D03*
X7751Y5441D02*
D03*
X7676Y5591D02*
D03*
Y5691D02*
D03*
X7751Y5641D02*
D03*
Y5741D02*
D03*
Y5841D02*
D03*
X7601Y5941D02*
D03*
X7751D02*
D03*
X8351Y6041D02*
D03*
X8276Y6091D02*
D03*
X8351Y6141D02*
D03*
X8426Y5991D02*
D03*
X8501Y6041D02*
D03*
X8426Y6091D02*
D03*
Y6191D02*
D03*
X8351Y6241D02*
D03*
X8501Y6141D02*
D03*
Y6241D02*
D03*
X8276Y4691D02*
D03*
Y4791D02*
D03*
X8351Y4741D02*
D03*
Y4841D02*
D03*
X8276Y4891D02*
D03*
Y4991D02*
D03*
Y5091D02*
D03*
Y5191D02*
D03*
X8351Y4941D02*
D03*
Y5041D02*
D03*
Y5141D02*
D03*
X8426Y4591D02*
D03*
Y4691D02*
D03*
Y4791D02*
D03*
X8501Y4641D02*
D03*
Y4741D02*
D03*
Y4841D02*
D03*
X8426Y4891D02*
D03*
Y4991D02*
D03*
Y5091D02*
D03*
Y5191D02*
D03*
X8501Y5041D02*
D03*
X8276Y5291D02*
D03*
X8351Y5241D02*
D03*
X8276Y5491D02*
D03*
X8351Y5341D02*
D03*
Y5441D02*
D03*
Y5541D02*
D03*
X8276Y5691D02*
D03*
Y5891D02*
D03*
X8351Y5641D02*
D03*
Y5741D02*
D03*
Y5841D02*
D03*
X8426Y5291D02*
D03*
X8501Y5241D02*
D03*
X8426Y5391D02*
D03*
Y5491D02*
D03*
X8501Y5441D02*
D03*
X8426Y5591D02*
D03*
Y5691D02*
D03*
X8501Y5641D02*
D03*
Y5741D02*
D03*
Y5841D02*
D03*
X8351Y5941D02*
D03*
X8501D02*
D03*
X9101Y6041D02*
D03*
X9026Y6091D02*
D03*
X9101Y6141D02*
D03*
X9176Y5991D02*
D03*
X9251Y6041D02*
D03*
X9176Y6091D02*
D03*
Y6191D02*
D03*
X9101Y6241D02*
D03*
X9251Y6141D02*
D03*
Y6241D02*
D03*
X9026Y4691D02*
D03*
Y4791D02*
D03*
X9101Y4741D02*
D03*
Y4841D02*
D03*
X9026Y4891D02*
D03*
Y4991D02*
D03*
Y5091D02*
D03*
Y5191D02*
D03*
X9101Y4941D02*
D03*
Y5041D02*
D03*
Y5141D02*
D03*
X9176Y4591D02*
D03*
Y4691D02*
D03*
Y4791D02*
D03*
X9251Y4641D02*
D03*
Y4741D02*
D03*
Y4841D02*
D03*
X9176Y4891D02*
D03*
Y4991D02*
D03*
Y5091D02*
D03*
Y5191D02*
D03*
X9251Y5041D02*
D03*
X9026Y5291D02*
D03*
X9101Y5241D02*
D03*
X9026Y5491D02*
D03*
X9101Y5341D02*
D03*
Y5441D02*
D03*
Y5541D02*
D03*
X9026Y5691D02*
D03*
Y5891D02*
D03*
X9101Y5641D02*
D03*
Y5741D02*
D03*
Y5841D02*
D03*
X9176Y5291D02*
D03*
X9251Y5241D02*
D03*
X9176Y5391D02*
D03*
Y5491D02*
D03*
X9251Y5441D02*
D03*
X9176Y5591D02*
D03*
Y5691D02*
D03*
X9251Y5641D02*
D03*
Y5741D02*
D03*
Y5841D02*
D03*
X9101Y5941D02*
D03*
X9251D02*
D03*
X9851Y6041D02*
D03*
X9776Y6091D02*
D03*
X9851Y6141D02*
D03*
X9926Y5991D02*
D03*
X10001Y6041D02*
D03*
X9926Y6091D02*
D03*
Y6191D02*
D03*
X9851Y6241D02*
D03*
X10001Y6141D02*
D03*
Y6241D02*
D03*
X9776Y4691D02*
D03*
Y4791D02*
D03*
X9851Y4741D02*
D03*
Y4841D02*
D03*
X9776Y4891D02*
D03*
Y4991D02*
D03*
Y5091D02*
D03*
Y5191D02*
D03*
X9851Y4941D02*
D03*
Y5041D02*
D03*
Y5141D02*
D03*
X9926Y4591D02*
D03*
Y4691D02*
D03*
Y4791D02*
D03*
X10001Y4641D02*
D03*
Y4741D02*
D03*
Y4841D02*
D03*
X9926Y4891D02*
D03*
Y4991D02*
D03*
Y5091D02*
D03*
Y5191D02*
D03*
X10001Y5041D02*
D03*
X9776Y5291D02*
D03*
X9851Y5241D02*
D03*
X9776Y5491D02*
D03*
X9851Y5341D02*
D03*
Y5441D02*
D03*
Y5541D02*
D03*
X9776Y5691D02*
D03*
Y5891D02*
D03*
X9851Y5641D02*
D03*
Y5741D02*
D03*
Y5841D02*
D03*
X9926Y5291D02*
D03*
X10001Y5241D02*
D03*
X9926Y5391D02*
D03*
Y5491D02*
D03*
X10001Y5441D02*
D03*
X9926Y5591D02*
D03*
Y5691D02*
D03*
X10001Y5641D02*
D03*
Y5741D02*
D03*
Y5841D02*
D03*
X9851Y5941D02*
D03*
X10001D02*
D03*
X10601Y6041D02*
D03*
X10526Y6091D02*
D03*
X10601Y6141D02*
D03*
X10676Y5991D02*
D03*
X10751Y6041D02*
D03*
X10676Y6091D02*
D03*
Y6191D02*
D03*
X10601Y6241D02*
D03*
X10751Y6141D02*
D03*
Y6241D02*
D03*
X10526Y4691D02*
D03*
Y4791D02*
D03*
X10601Y4741D02*
D03*
Y4841D02*
D03*
X10526Y4891D02*
D03*
Y4991D02*
D03*
Y5091D02*
D03*
Y5191D02*
D03*
X10601Y4941D02*
D03*
Y5041D02*
D03*
Y5141D02*
D03*
X10676Y4591D02*
D03*
Y4691D02*
D03*
Y4791D02*
D03*
X10751Y4641D02*
D03*
Y4741D02*
D03*
Y4841D02*
D03*
X10676Y4891D02*
D03*
Y4991D02*
D03*
Y5091D02*
D03*
Y5191D02*
D03*
X10751Y5041D02*
D03*
X10526Y5291D02*
D03*
X10601Y5241D02*
D03*
X10526Y5491D02*
D03*
X10601Y5341D02*
D03*
Y5441D02*
D03*
Y5541D02*
D03*
X10526Y5691D02*
D03*
Y5891D02*
D03*
X10601Y5641D02*
D03*
Y5741D02*
D03*
Y5841D02*
D03*
X10676Y5291D02*
D03*
X10751Y5241D02*
D03*
X10676Y5391D02*
D03*
Y5491D02*
D03*
X10751Y5441D02*
D03*
X10676Y5591D02*
D03*
Y5691D02*
D03*
X10751Y5641D02*
D03*
Y5741D02*
D03*
Y5841D02*
D03*
X10601Y5941D02*
D03*
X10751D02*
D03*
X11351Y6041D02*
D03*
X11276Y6091D02*
D03*
X11351Y6141D02*
D03*
X11426Y5991D02*
D03*
X11501Y6041D02*
D03*
X11426Y6091D02*
D03*
Y6191D02*
D03*
X11351Y6241D02*
D03*
X11501Y6141D02*
D03*
Y6241D02*
D03*
X11276Y4691D02*
D03*
Y4791D02*
D03*
X11351Y4741D02*
D03*
Y4841D02*
D03*
X11276Y4891D02*
D03*
Y4991D02*
D03*
Y5091D02*
D03*
Y5191D02*
D03*
X11351Y4941D02*
D03*
Y5041D02*
D03*
Y5141D02*
D03*
X11426Y4591D02*
D03*
Y4691D02*
D03*
Y4791D02*
D03*
X11501Y4641D02*
D03*
Y4741D02*
D03*
Y4841D02*
D03*
X11426Y4891D02*
D03*
Y4991D02*
D03*
Y5091D02*
D03*
Y5191D02*
D03*
X11501Y5041D02*
D03*
X11276Y5291D02*
D03*
X11351Y5241D02*
D03*
X11276Y5491D02*
D03*
X11351Y5341D02*
D03*
Y5441D02*
D03*
Y5541D02*
D03*
X11276Y5691D02*
D03*
Y5891D02*
D03*
X11351Y5641D02*
D03*
Y5741D02*
D03*
Y5841D02*
D03*
X11426Y5291D02*
D03*
X11501Y5241D02*
D03*
X11426Y5391D02*
D03*
Y5491D02*
D03*
X11501Y5441D02*
D03*
X11426Y5591D02*
D03*
Y5691D02*
D03*
X11501Y5641D02*
D03*
Y5741D02*
D03*
Y5841D02*
D03*
X11351Y5941D02*
D03*
X11501D02*
D03*
X12101Y6041D02*
D03*
X12026Y6091D02*
D03*
X12101Y6141D02*
D03*
X12176Y5991D02*
D03*
X12251Y6041D02*
D03*
X12176Y6091D02*
D03*
Y6191D02*
D03*
X12101Y6241D02*
D03*
X12251Y6141D02*
D03*
Y6241D02*
D03*
X12026Y4691D02*
D03*
Y4791D02*
D03*
X12101Y4741D02*
D03*
Y4841D02*
D03*
X12026Y4891D02*
D03*
Y4991D02*
D03*
Y5091D02*
D03*
Y5191D02*
D03*
X12101Y4941D02*
D03*
Y5041D02*
D03*
Y5141D02*
D03*
X12176Y4591D02*
D03*
Y4691D02*
D03*
Y4791D02*
D03*
X12251Y4641D02*
D03*
Y4741D02*
D03*
Y4841D02*
D03*
X12176Y4891D02*
D03*
Y4991D02*
D03*
Y5091D02*
D03*
Y5191D02*
D03*
X12251Y5041D02*
D03*
X12026Y5291D02*
D03*
X12101Y5241D02*
D03*
X12026Y5491D02*
D03*
X12101Y5341D02*
D03*
Y5441D02*
D03*
Y5541D02*
D03*
X12026Y5691D02*
D03*
Y5891D02*
D03*
X12101Y5641D02*
D03*
Y5741D02*
D03*
Y5841D02*
D03*
X12176Y5291D02*
D03*
X12251Y5241D02*
D03*
X12176Y5391D02*
D03*
Y5491D02*
D03*
X12251Y5441D02*
D03*
X12176Y5591D02*
D03*
Y5691D02*
D03*
X12251Y5641D02*
D03*
Y5741D02*
D03*
Y5841D02*
D03*
X12101Y5941D02*
D03*
X12251D02*
D03*
X12851Y6041D02*
D03*
X12776Y6091D02*
D03*
X12851Y6141D02*
D03*
X12926Y5991D02*
D03*
X13001Y6041D02*
D03*
X12926Y6091D02*
D03*
Y6191D02*
D03*
X12851Y6241D02*
D03*
X13001Y6141D02*
D03*
Y6241D02*
D03*
X12776Y4691D02*
D03*
Y4791D02*
D03*
X12851Y4741D02*
D03*
Y4841D02*
D03*
X12776Y4891D02*
D03*
Y4991D02*
D03*
Y5091D02*
D03*
Y5191D02*
D03*
X12851Y4941D02*
D03*
Y5041D02*
D03*
Y5141D02*
D03*
X12926Y4591D02*
D03*
Y4691D02*
D03*
Y4791D02*
D03*
X13001Y4641D02*
D03*
Y4741D02*
D03*
Y4841D02*
D03*
X12926Y4891D02*
D03*
Y4991D02*
D03*
Y5091D02*
D03*
Y5191D02*
D03*
X13001Y5041D02*
D03*
X12776Y5291D02*
D03*
X12851Y5241D02*
D03*
X12776Y5491D02*
D03*
X12851Y5341D02*
D03*
Y5441D02*
D03*
Y5541D02*
D03*
X12776Y5691D02*
D03*
Y5891D02*
D03*
X12851Y5641D02*
D03*
Y5741D02*
D03*
Y5841D02*
D03*
X12926Y5291D02*
D03*
X13001Y5241D02*
D03*
X12926Y5391D02*
D03*
Y5491D02*
D03*
X13001Y5441D02*
D03*
X12926Y5591D02*
D03*
Y5691D02*
D03*
X13001Y5641D02*
D03*
Y5741D02*
D03*
Y5841D02*
D03*
X12851Y5941D02*
D03*
X13001D02*
D03*
X13601Y6041D02*
D03*
X13526Y6091D02*
D03*
X13601Y6141D02*
D03*
X13676Y5991D02*
D03*
X13751Y6041D02*
D03*
X13676Y6091D02*
D03*
Y6191D02*
D03*
X13601Y6241D02*
D03*
X13751Y6141D02*
D03*
Y6241D02*
D03*
X13526Y4691D02*
D03*
Y4791D02*
D03*
X13601Y4741D02*
D03*
Y4841D02*
D03*
X13526Y4891D02*
D03*
Y4991D02*
D03*
Y5091D02*
D03*
Y5191D02*
D03*
X13601Y4941D02*
D03*
Y5041D02*
D03*
Y5141D02*
D03*
X13676Y4591D02*
D03*
Y4691D02*
D03*
Y4791D02*
D03*
X13751Y4641D02*
D03*
Y4741D02*
D03*
Y4841D02*
D03*
X13676Y4891D02*
D03*
Y4991D02*
D03*
Y5091D02*
D03*
Y5191D02*
D03*
X13751Y5041D02*
D03*
X13526Y5291D02*
D03*
X13601Y5241D02*
D03*
X13526Y5491D02*
D03*
X13601Y5341D02*
D03*
Y5441D02*
D03*
Y5541D02*
D03*
X13526Y5691D02*
D03*
Y5891D02*
D03*
X13601Y5641D02*
D03*
Y5741D02*
D03*
Y5841D02*
D03*
X13676Y5291D02*
D03*
X13751Y5241D02*
D03*
X13676Y5391D02*
D03*
Y5491D02*
D03*
X13751Y5441D02*
D03*
X13676Y5591D02*
D03*
Y5691D02*
D03*
X13751Y5641D02*
D03*
Y5741D02*
D03*
Y5841D02*
D03*
X13601Y5941D02*
D03*
X13751D02*
D03*
X14351Y6041D02*
D03*
X14276Y6091D02*
D03*
X14351Y6141D02*
D03*
X14426Y5991D02*
D03*
X14501Y6041D02*
D03*
X14426Y6091D02*
D03*
Y6191D02*
D03*
X14351Y6241D02*
D03*
X14501Y6141D02*
D03*
Y6241D02*
D03*
X14276Y4691D02*
D03*
Y4791D02*
D03*
X14351Y4741D02*
D03*
Y4841D02*
D03*
X14276Y4891D02*
D03*
Y4991D02*
D03*
Y5091D02*
D03*
Y5191D02*
D03*
X14351Y4941D02*
D03*
Y5041D02*
D03*
Y5141D02*
D03*
X14426Y4591D02*
D03*
Y4691D02*
D03*
Y4791D02*
D03*
X14501Y4641D02*
D03*
Y4741D02*
D03*
Y4841D02*
D03*
X14426Y4891D02*
D03*
Y4991D02*
D03*
Y5091D02*
D03*
Y5191D02*
D03*
X14501Y5041D02*
D03*
X14276Y5291D02*
D03*
X14351Y5241D02*
D03*
X14276Y5491D02*
D03*
X14351Y5341D02*
D03*
Y5441D02*
D03*
Y5541D02*
D03*
X14276Y5691D02*
D03*
Y5891D02*
D03*
X14351Y5641D02*
D03*
Y5741D02*
D03*
Y5841D02*
D03*
X14426Y5291D02*
D03*
X14501Y5241D02*
D03*
X14426Y5391D02*
D03*
Y5491D02*
D03*
X14501Y5441D02*
D03*
X14426Y5591D02*
D03*
Y5691D02*
D03*
X14501Y5641D02*
D03*
Y5741D02*
D03*
Y5841D02*
D03*
X14351Y5941D02*
D03*
X14501D02*
D03*
X15101Y6041D02*
D03*
X15026Y6091D02*
D03*
X15101Y6141D02*
D03*
X15176Y5991D02*
D03*
X15251Y6041D02*
D03*
X15176Y6091D02*
D03*
Y6191D02*
D03*
X15101Y6241D02*
D03*
X15251Y6141D02*
D03*
Y6241D02*
D03*
X15026Y4691D02*
D03*
Y4791D02*
D03*
X15101Y4741D02*
D03*
Y4841D02*
D03*
X15026Y4891D02*
D03*
Y4991D02*
D03*
Y5091D02*
D03*
Y5191D02*
D03*
X15101Y4941D02*
D03*
Y5041D02*
D03*
Y5141D02*
D03*
X15176Y4591D02*
D03*
Y4691D02*
D03*
Y4791D02*
D03*
X15251Y4641D02*
D03*
Y4741D02*
D03*
Y4841D02*
D03*
X15176Y4891D02*
D03*
Y4991D02*
D03*
Y5091D02*
D03*
Y5191D02*
D03*
X15251Y5041D02*
D03*
X15026Y5291D02*
D03*
X15101Y5241D02*
D03*
X15026Y5491D02*
D03*
X15101Y5341D02*
D03*
Y5441D02*
D03*
Y5541D02*
D03*
X15026Y5691D02*
D03*
Y5891D02*
D03*
X15101Y5641D02*
D03*
Y5741D02*
D03*
Y5841D02*
D03*
X15176Y5291D02*
D03*
X15251Y5241D02*
D03*
X15176Y5391D02*
D03*
Y5491D02*
D03*
X15251Y5441D02*
D03*
X15176Y5591D02*
D03*
Y5691D02*
D03*
X15251Y5641D02*
D03*
Y5741D02*
D03*
Y5841D02*
D03*
X15101Y5941D02*
D03*
X15251D02*
D03*
X15851Y6041D02*
D03*
X15776Y6091D02*
D03*
X15851Y6141D02*
D03*
X15926Y5991D02*
D03*
X16001Y6041D02*
D03*
X15926Y6091D02*
D03*
Y6191D02*
D03*
X15851Y6241D02*
D03*
X16001Y6141D02*
D03*
Y6241D02*
D03*
X15776Y4691D02*
D03*
Y4791D02*
D03*
X15851Y4741D02*
D03*
Y4841D02*
D03*
X15776Y4891D02*
D03*
Y4991D02*
D03*
Y5091D02*
D03*
Y5191D02*
D03*
X15851Y4941D02*
D03*
Y5041D02*
D03*
Y5141D02*
D03*
X15926Y4591D02*
D03*
Y4691D02*
D03*
Y4791D02*
D03*
X16001Y4641D02*
D03*
Y4741D02*
D03*
Y4841D02*
D03*
X15926Y4891D02*
D03*
Y4991D02*
D03*
Y5091D02*
D03*
Y5191D02*
D03*
X16001Y5041D02*
D03*
X15776Y5291D02*
D03*
X15851Y5241D02*
D03*
X15776Y5491D02*
D03*
X15851Y5341D02*
D03*
Y5441D02*
D03*
Y5541D02*
D03*
X15776Y5691D02*
D03*
Y5891D02*
D03*
X15851Y5641D02*
D03*
Y5741D02*
D03*
Y5841D02*
D03*
X15926Y5291D02*
D03*
X16001Y5241D02*
D03*
X15926Y5391D02*
D03*
Y5491D02*
D03*
X16001Y5441D02*
D03*
X15926Y5591D02*
D03*
Y5691D02*
D03*
X16001Y5641D02*
D03*
Y5741D02*
D03*
Y5841D02*
D03*
X15851Y5941D02*
D03*
X16001D02*
D03*
X16601Y6041D02*
D03*
X16526Y6091D02*
D03*
X16601Y6141D02*
D03*
X16676Y5991D02*
D03*
X16751Y6041D02*
D03*
X16676Y6091D02*
D03*
Y6191D02*
D03*
X16601Y6241D02*
D03*
X16751Y6141D02*
D03*
Y6241D02*
D03*
X16526Y4691D02*
D03*
Y4791D02*
D03*
X16601Y4741D02*
D03*
Y4841D02*
D03*
X16526Y4891D02*
D03*
Y4991D02*
D03*
Y5091D02*
D03*
Y5191D02*
D03*
X16601Y4941D02*
D03*
Y5041D02*
D03*
Y5141D02*
D03*
X16676Y4591D02*
D03*
Y4691D02*
D03*
Y4791D02*
D03*
X16751Y4641D02*
D03*
Y4741D02*
D03*
Y4841D02*
D03*
X16676Y4891D02*
D03*
Y4991D02*
D03*
Y5091D02*
D03*
Y5191D02*
D03*
X16751Y5041D02*
D03*
X16526Y5291D02*
D03*
X16601Y5241D02*
D03*
X16526Y5491D02*
D03*
X16601Y5341D02*
D03*
Y5441D02*
D03*
Y5541D02*
D03*
X16526Y5691D02*
D03*
Y5891D02*
D03*
X16601Y5641D02*
D03*
Y5741D02*
D03*
Y5841D02*
D03*
X16676Y5291D02*
D03*
X16751Y5241D02*
D03*
X16676Y5391D02*
D03*
Y5491D02*
D03*
X16751Y5441D02*
D03*
X16676Y5591D02*
D03*
Y5691D02*
D03*
X16751Y5641D02*
D03*
Y5741D02*
D03*
Y5841D02*
D03*
X16601Y5941D02*
D03*
X16751D02*
D03*
X6039Y3440D02*
D03*
X6089Y3515D02*
D03*
X6139Y3440D02*
D03*
X6039Y3290D02*
D03*
X6189Y3365D02*
D03*
X6239Y3440D02*
D03*
X6139Y3290D02*
D03*
X6239D02*
D03*
X4689Y3515D02*
D03*
X4789D02*
D03*
X4739Y3440D02*
D03*
X4839D02*
D03*
X4889Y3515D02*
D03*
X4989D02*
D03*
X5089D02*
D03*
X5189D02*
D03*
X4939Y3440D02*
D03*
X5039D02*
D03*
X5139D02*
D03*
X4589Y3365D02*
D03*
X4689D02*
D03*
X4789D02*
D03*
X4639Y3290D02*
D03*
X4739D02*
D03*
X4839D02*
D03*
X4889Y3365D02*
D03*
X4989D02*
D03*
X5089D02*
D03*
X5189D02*
D03*
X5039Y3290D02*
D03*
X5289Y3515D02*
D03*
X5239Y3440D02*
D03*
X5489Y3515D02*
D03*
X5339Y3440D02*
D03*
X5439D02*
D03*
X5539D02*
D03*
X5689Y3515D02*
D03*
X5889D02*
D03*
X5639Y3440D02*
D03*
X5739D02*
D03*
X5839D02*
D03*
X5289Y3365D02*
D03*
X5239Y3290D02*
D03*
X5389Y3365D02*
D03*
X5489D02*
D03*
X5439Y3290D02*
D03*
X5589Y3365D02*
D03*
X5689D02*
D03*
X5639Y3290D02*
D03*
X5739D02*
D03*
X5839D02*
D03*
X5939Y3440D02*
D03*
Y3290D02*
D03*
X12460Y3772D02*
D03*
X12410Y3847D02*
D03*
X12360Y3772D02*
D03*
X12510Y3697D02*
D03*
X12460Y3622D02*
D03*
X12410Y3697D02*
D03*
X12310D02*
D03*
X12260Y3772D02*
D03*
X12360Y3622D02*
D03*
X12260D02*
D03*
X13810Y3847D02*
D03*
X13710D02*
D03*
X13760Y3772D02*
D03*
X13660D02*
D03*
X13610Y3847D02*
D03*
X13510D02*
D03*
X13410D02*
D03*
X13310D02*
D03*
X13560Y3772D02*
D03*
X13460D02*
D03*
X13360D02*
D03*
X13910Y3697D02*
D03*
X13710D02*
D03*
X13860Y3622D02*
D03*
X13760D02*
D03*
X13660D02*
D03*
X13610Y3697D02*
D03*
X13510D02*
D03*
X13410D02*
D03*
X13310D02*
D03*
X13460Y3622D02*
D03*
X13210Y3847D02*
D03*
X13260Y3772D02*
D03*
X13010Y3847D02*
D03*
X13160Y3772D02*
D03*
X13060D02*
D03*
X12960D02*
D03*
X12810Y3847D02*
D03*
X12610D02*
D03*
X12860Y3772D02*
D03*
X12760D02*
D03*
X12660D02*
D03*
X13210Y3697D02*
D03*
X13260Y3622D02*
D03*
X13110Y3697D02*
D03*
X13010D02*
D03*
X13060Y3622D02*
D03*
X12910Y3697D02*
D03*
X12810D02*
D03*
X12860Y3622D02*
D03*
X12760D02*
D03*
X12660D02*
D03*
X12560Y3772D02*
D03*
Y3622D02*
D03*
X5501Y4741D02*
D03*
X5989Y3365D02*
D03*
X6089D02*
D03*
D118*
X17024Y5791D02*
D03*
Y5691D02*
D03*
X17099Y5941D02*
D03*
Y5841D02*
D03*
Y5741D02*
D03*
Y5641D02*
D03*
X17024Y5591D02*
D03*
Y5491D02*
D03*
Y5391D02*
D03*
X17099Y5541D02*
D03*
Y5441D02*
D03*
X17024Y5291D02*
D03*
X17099Y5341D02*
D03*
X17249Y5841D02*
D03*
Y5641D02*
D03*
Y5441D02*
D03*
X17024Y5191D02*
D03*
Y5091D02*
D03*
Y4991D02*
D03*
X17099Y5241D02*
D03*
Y5141D02*
D03*
Y5041D02*
D03*
Y4941D02*
D03*
X17024Y4891D02*
D03*
Y4791D02*
D03*
X17099Y4841D02*
D03*
Y4741D02*
D03*
X17174Y4691D02*
D03*
X17249Y4641D02*
D03*
Y6241D02*
D03*
Y6041D02*
D03*
X5276Y5991D02*
D03*
Y6191D02*
D03*
Y4591D02*
D03*
X5351Y4641D02*
D03*
X5501Y4941D02*
D03*
Y5141D02*
D03*
X5276Y5391D02*
D03*
Y5591D02*
D03*
Y5791D02*
D03*
X5501Y5341D02*
D03*
Y5541D02*
D03*
X5426Y5791D02*
D03*
Y5891D02*
D03*
X6026Y5991D02*
D03*
Y6191D02*
D03*
Y4591D02*
D03*
X6101Y4641D02*
D03*
X6251Y4941D02*
D03*
Y5141D02*
D03*
X6026Y5391D02*
D03*
Y5591D02*
D03*
Y5791D02*
D03*
X6251Y5341D02*
D03*
Y5541D02*
D03*
X6176Y5791D02*
D03*
Y5891D02*
D03*
X6776Y5991D02*
D03*
Y6191D02*
D03*
Y4591D02*
D03*
X6851Y4641D02*
D03*
X7001Y4941D02*
D03*
Y5141D02*
D03*
X6776Y5391D02*
D03*
Y5591D02*
D03*
Y5791D02*
D03*
X7001Y5341D02*
D03*
Y5541D02*
D03*
X6926Y5791D02*
D03*
Y5891D02*
D03*
X7526Y5991D02*
D03*
Y6191D02*
D03*
Y4591D02*
D03*
X7601Y4641D02*
D03*
X7751Y4941D02*
D03*
Y5141D02*
D03*
X7526Y5391D02*
D03*
Y5591D02*
D03*
Y5791D02*
D03*
X7751Y5341D02*
D03*
Y5541D02*
D03*
X7676Y5791D02*
D03*
Y5891D02*
D03*
X8276Y5991D02*
D03*
Y6191D02*
D03*
Y4591D02*
D03*
X8351Y4641D02*
D03*
X8501Y4941D02*
D03*
Y5141D02*
D03*
X8276Y5391D02*
D03*
Y5591D02*
D03*
Y5791D02*
D03*
X8501Y5341D02*
D03*
Y5541D02*
D03*
X8426Y5791D02*
D03*
Y5891D02*
D03*
X9026Y5991D02*
D03*
Y6191D02*
D03*
Y4591D02*
D03*
X9101Y4641D02*
D03*
X9251Y4941D02*
D03*
Y5141D02*
D03*
X9026Y5391D02*
D03*
Y5591D02*
D03*
Y5791D02*
D03*
X9251Y5341D02*
D03*
Y5541D02*
D03*
X9176Y5791D02*
D03*
Y5891D02*
D03*
X9776Y5991D02*
D03*
Y6191D02*
D03*
Y4591D02*
D03*
X9851Y4641D02*
D03*
X10001Y4941D02*
D03*
Y5141D02*
D03*
X9776Y5391D02*
D03*
Y5591D02*
D03*
Y5791D02*
D03*
X10001Y5341D02*
D03*
Y5541D02*
D03*
X9926Y5791D02*
D03*
Y5891D02*
D03*
X10526Y5991D02*
D03*
Y6191D02*
D03*
Y4591D02*
D03*
X10601Y4641D02*
D03*
X10751Y4941D02*
D03*
Y5141D02*
D03*
X10526Y5391D02*
D03*
Y5591D02*
D03*
Y5791D02*
D03*
X10751Y5341D02*
D03*
Y5541D02*
D03*
X10676Y5791D02*
D03*
Y5891D02*
D03*
X11276Y5991D02*
D03*
Y6191D02*
D03*
Y4591D02*
D03*
X11351Y4641D02*
D03*
X11501Y4941D02*
D03*
Y5141D02*
D03*
X11276Y5391D02*
D03*
Y5591D02*
D03*
Y5791D02*
D03*
X11501Y5341D02*
D03*
Y5541D02*
D03*
X11426Y5791D02*
D03*
Y5891D02*
D03*
X12026Y5991D02*
D03*
Y6191D02*
D03*
Y4591D02*
D03*
X12101Y4641D02*
D03*
X12251Y4941D02*
D03*
Y5141D02*
D03*
X12026Y5391D02*
D03*
Y5591D02*
D03*
Y5791D02*
D03*
X12251Y5341D02*
D03*
Y5541D02*
D03*
X12176Y5791D02*
D03*
Y5891D02*
D03*
X12776Y5991D02*
D03*
Y6191D02*
D03*
Y4591D02*
D03*
X12851Y4641D02*
D03*
X13001Y4941D02*
D03*
Y5141D02*
D03*
X12776Y5391D02*
D03*
Y5591D02*
D03*
Y5791D02*
D03*
X13001Y5341D02*
D03*
Y5541D02*
D03*
X12926Y5791D02*
D03*
Y5891D02*
D03*
X13526Y5991D02*
D03*
Y6191D02*
D03*
Y4591D02*
D03*
X13601Y4641D02*
D03*
X13751Y4941D02*
D03*
Y5141D02*
D03*
X13526Y5391D02*
D03*
Y5591D02*
D03*
Y5791D02*
D03*
X13751Y5341D02*
D03*
Y5541D02*
D03*
X13676Y5791D02*
D03*
Y5891D02*
D03*
X14276Y5991D02*
D03*
Y6191D02*
D03*
Y4591D02*
D03*
X14351Y4641D02*
D03*
X14501Y4941D02*
D03*
Y5141D02*
D03*
X14276Y5391D02*
D03*
Y5591D02*
D03*
Y5791D02*
D03*
X14501Y5341D02*
D03*
Y5541D02*
D03*
X14426Y5791D02*
D03*
Y5891D02*
D03*
X15026Y5991D02*
D03*
Y6191D02*
D03*
Y4591D02*
D03*
X15101Y4641D02*
D03*
X15251Y4941D02*
D03*
Y5141D02*
D03*
X15026Y5391D02*
D03*
Y5591D02*
D03*
Y5791D02*
D03*
X15251Y5341D02*
D03*
Y5541D02*
D03*
X15176Y5791D02*
D03*
Y5891D02*
D03*
X15776Y5991D02*
D03*
Y6191D02*
D03*
Y4591D02*
D03*
X15851Y4641D02*
D03*
X16001Y4941D02*
D03*
Y5141D02*
D03*
X15776Y5391D02*
D03*
Y5591D02*
D03*
Y5791D02*
D03*
X16001Y5341D02*
D03*
Y5541D02*
D03*
X15926Y5791D02*
D03*
Y5891D02*
D03*
X16526Y5991D02*
D03*
Y6191D02*
D03*
Y4591D02*
D03*
X16601Y4641D02*
D03*
X16751Y4941D02*
D03*
Y5141D02*
D03*
X16526Y5391D02*
D03*
Y5591D02*
D03*
Y5791D02*
D03*
X16751Y5341D02*
D03*
Y5541D02*
D03*
X16676Y5791D02*
D03*
Y5891D02*
D03*
X5989Y3515D02*
D03*
X6189D02*
D03*
X4589D02*
D03*
X4639Y3440D02*
D03*
X4939Y3290D02*
D03*
X5139D02*
D03*
X5389Y3515D02*
D03*
X5589D02*
D03*
X5789D02*
D03*
X5339Y3290D02*
D03*
X5539D02*
D03*
X5789Y3365D02*
D03*
X5889D02*
D03*
X12510Y3847D02*
D03*
X12310D02*
D03*
X13910D02*
D03*
X13860Y3772D02*
D03*
X13810Y3697D02*
D03*
X13560Y3622D02*
D03*
X13360D02*
D03*
X13110Y3847D02*
D03*
X12910D02*
D03*
X12710D02*
D03*
X13160Y3622D02*
D03*
X12960D02*
D03*
X12710Y3697D02*
D03*
X12610D02*
D03*
D119*
X17050Y4552D02*
D03*
X5475Y4502D02*
D03*
X6225D02*
D03*
X6975D02*
D03*
X7725D02*
D03*
X8475D02*
D03*
X9225D02*
D03*
X9975D02*
D03*
X10725D02*
D03*
X11475D02*
D03*
X12225D02*
D03*
X12975D02*
D03*
X13725D02*
D03*
X14475D02*
D03*
X15225D02*
D03*
X15975D02*
D03*
X16725D02*
D03*
X4500Y3316D02*
D03*
X13999Y3648D02*
D03*
D120*
X17137Y4445D02*
D03*
Y6487D02*
D03*
X5388Y6437D02*
D03*
Y4395D02*
D03*
X6138Y6437D02*
D03*
Y4395D02*
D03*
X6888Y6437D02*
D03*
Y4395D02*
D03*
X7638Y6437D02*
D03*
Y4395D02*
D03*
X8388Y6437D02*
D03*
Y4395D02*
D03*
X9138Y6437D02*
D03*
Y4395D02*
D03*
X9888Y6437D02*
D03*
Y4395D02*
D03*
X10638Y6437D02*
D03*
Y4395D02*
D03*
X11388Y6437D02*
D03*
Y4395D02*
D03*
X12138Y6437D02*
D03*
Y4395D02*
D03*
X12888Y6437D02*
D03*
Y4395D02*
D03*
X13638Y6437D02*
D03*
Y4395D02*
D03*
X14388Y6437D02*
D03*
Y4395D02*
D03*
X15138Y6437D02*
D03*
Y4395D02*
D03*
X15888Y6437D02*
D03*
Y4395D02*
D03*
X16638Y6437D02*
D03*
Y4395D02*
D03*
X6435Y3402D02*
D03*
X4393D02*
D03*
X12064Y3735D02*
D03*
X14106D02*
D03*
D121*
X16000Y3200D02*
D03*
Y7325D02*
D03*
X12000Y3200D02*
D03*
Y7325D02*
D03*
X8000Y3200D02*
D03*
Y7325D02*
D03*
X4000Y3200D02*
D03*
Y7325D02*
D03*
D122*
X7750Y7520D02*
D03*
X7671D02*
D03*
X7593D02*
D03*
X7514D02*
D03*
X7435D02*
D03*
X7356D02*
D03*
X7278D02*
D03*
D123*
X6748Y7440D02*
D03*
D124*
X6472D02*
D03*
X6610D02*
D03*
D125*
X6060Y7500D02*
D03*
X6011Y7579D02*
D03*
X5962Y7500D02*
D03*
X5912Y7579D02*
D03*
X5863Y7500D02*
D03*
X5814Y7579D02*
D03*
X5765Y7500D02*
D03*
X5716Y7579D02*
D03*
X5666Y7500D02*
D03*
X5617Y7579D02*
D03*
X5519D02*
D03*
X5469Y7500D02*
D03*
D126*
X5568D02*
D03*
X5420Y7579D02*
D03*
D127*
X2910Y6980D02*
D03*
D128*
Y7080D02*
D03*
D129*
X2263Y5982D02*
D03*
Y6147D02*
D03*
Y6313D02*
D03*
Y6974D02*
D03*
Y7305D02*
D03*
Y7470D02*
D03*
X2480Y5982D02*
D03*
Y6147D02*
D03*
Y6313D02*
D03*
Y6643D02*
D03*
Y6974D02*
D03*
Y7305D02*
D03*
Y7470D02*
D03*
D130*
X2263Y6478D02*
D03*
Y6643D02*
D03*
Y6809D02*
D03*
Y7139D02*
D03*
X2480Y6478D02*
D03*
Y6809D02*
D03*
Y7139D02*
D03*
D131*
X9430Y7470D02*
D03*
X9020Y7480D02*
D03*
X8640D02*
D03*
D132*
X9330Y7470D02*
D03*
X8920Y7480D02*
D03*
X8540D02*
D03*
D133*
X4415Y5024D02*
D03*
X3760Y4794D02*
D03*
X3620Y5750D02*
D03*
X3460Y5596D02*
D03*
X4134Y4055D02*
D03*
X4166Y3910D02*
D03*
X3414Y4064D02*
D03*
Y3919D02*
D03*
X3625Y3560D02*
D03*
X3788Y3503D02*
D03*
X3839Y3504D02*
D03*
X3983Y3560D02*
D03*
X3917Y4163D02*
D03*
X3629Y3777D02*
D03*
X3983D02*
D03*
X4832Y7440D02*
D03*
X4590Y7326D02*
D03*
X4705Y7559D02*
D03*
X5035Y7377D02*
D03*
X4605Y7128D02*
D03*
X4453Y7052D02*
D03*
X4594Y6903D02*
D03*
X4459Y6762D02*
D03*
Y6663D02*
D03*
X4967Y6628D02*
D03*
X4829Y6778D02*
D03*
X4826Y6903D02*
D03*
X4818Y7052D02*
D03*
X9931Y7283D02*
D03*
X9951Y7362D02*
D03*
X10364Y7274D02*
D03*
X10551Y7382D02*
D03*
X10674Y7170D02*
D03*
X10320Y7122D02*
D03*
X10246Y7382D02*
D03*
X11682Y3926D02*
D03*
X11762Y3848D02*
D03*
X11693Y3563D02*
D03*
X14016Y3376D02*
D03*
X17087Y4183D02*
D03*
X17230Y7042D02*
D03*
X17030Y7035D02*
D03*
X6845Y3508D02*
D03*
X6261Y3820D02*
D03*
X4116Y3718D02*
D03*
X3316Y3820D02*
D03*
X2805Y5295D02*
D03*
X4685Y5994D02*
D03*
X3355Y5778D02*
D03*
X3189Y5778D02*
D03*
X4528Y4990D02*
D03*
X3550Y4682D02*
D03*
D134*
X4252Y5650D02*
D03*
X5204Y7300D02*
D03*
X9047Y6774D02*
D03*
X3622Y5177D02*
D03*
X2970Y4870D02*
D03*
X2820Y4870D02*
D03*
X2630Y4785D02*
D03*
Y4620D02*
D03*
Y4485D02*
D03*
X2614Y4359D02*
D03*
X2617Y4282D02*
D03*
X2630Y4220D02*
D03*
X2637Y4007D02*
D03*
X2880Y4130D02*
D03*
X3132Y4718D02*
D03*
X3125Y4220D02*
D03*
X3130Y4470D02*
D03*
X3135Y4370D02*
D03*
X3142Y4538D02*
D03*
X3125Y4630D02*
D03*
X3130Y4780D02*
D03*
X3021Y4866D02*
D03*
X2875Y4865D02*
D03*
X2700D02*
D03*
X3583Y4902D02*
D03*
X3543Y4862D02*
D03*
X3898Y4941D02*
D03*
X4370Y5689D02*
D03*
X4414Y5733D02*
D03*
X4292Y5178D02*
D03*
X4408Y4863D02*
D03*
X4369Y4903D02*
D03*
X4331Y5413D02*
D03*
X4055Y5650D02*
D03*
X3858D02*
D03*
X3543Y5728D02*
D03*
X3583Y5689D02*
D03*
X3622Y5374D02*
D03*
X4094Y4941D02*
D03*
D135*
X3927Y6520D02*
D03*
X3701Y3514D02*
D03*
X3898Y3504D02*
D03*
X3673Y4165D02*
D03*
X3691Y3843D02*
D03*
X3865Y3845D02*
D03*
X3914Y3875D02*
D03*
X3835Y3980D02*
D03*
X3746Y3990D02*
D03*
X9852Y7402D02*
D03*
X10551Y7274D02*
D03*
X10236Y7195D02*
D03*
X10453Y7175D02*
D03*
X10463Y7372D02*
D03*
X10315Y7480D02*
D03*
X3553Y7392D02*
D03*
X4291Y7185D02*
D03*
X3799Y7283D02*
D03*
X4705Y7175D02*
D03*
Y7323D02*
D03*
X4656Y7510D02*
D03*
X4450Y6977D02*
D03*
X4596Y6722D02*
D03*
X4968Y6552D02*
D03*
X4823Y6702D02*
D03*
X4824Y6977D02*
D03*
X4980Y7146D02*
D03*
X11967Y3630D02*
D03*
X11959Y3848D02*
D03*
X13642Y3376D02*
D03*
X17293Y3996D02*
D03*
X17234Y6683D02*
D03*
X17028Y6663D02*
D03*
X6698Y3312D02*
D03*
X6633Y3820D02*
D03*
X4085Y3514D02*
D03*
X2954Y3820D02*
D03*
X2549Y5167D02*
D03*
X4488Y5689D02*
D03*
X3346Y5582D02*
D03*
X3189Y5581D02*
D03*
X3553Y4488D02*
D03*
X4528Y4843D02*
D03*
X12910Y3176D02*
D03*
D136*
X3376Y6427D02*
D03*
X2992D02*
D03*
X4085Y6762D02*
D03*
X4232D02*
D03*
X3573Y6437D02*
D03*
D137*
X5219Y6831D02*
D03*
X5969D02*
D03*
X16451Y6831D02*
D03*
X15706D02*
D03*
X14956D02*
D03*
X14211D02*
D03*
X13461D02*
D03*
X12691D02*
D03*
X11966D02*
D03*
X11216D02*
D03*
X10426D02*
D03*
X9681D02*
D03*
X8226D02*
D03*
X7476D02*
D03*
X6704D02*
D03*
D138*
X5622Y6831D02*
D03*
X6372D02*
D03*
X16854Y6831D02*
D03*
X16109D02*
D03*
X15359D02*
D03*
X14614D02*
D03*
X13864D02*
D03*
X13094D02*
D03*
X12369D02*
D03*
X11619D02*
D03*
X10829D02*
D03*
X10084D02*
D03*
X9374D02*
D03*
X8629D02*
D03*
X7879D02*
D03*
X7111D02*
D03*
M02*
