%FSLAX24Y24*%
%MOIN*%
G70*
G01*
G75*
G04 Layer_Physical_Order=3*
G04 Layer_Color=128*
%ADD10R,0.0394X0.0433*%
%ADD11R,0.0374X0.0335*%
%ADD12R,0.0374X0.0335*%
%ADD13R,0.0433X0.0394*%
%ADD14R,0.0610X0.0197*%
%ADD15R,0.0945X0.1024*%
%ADD16R,0.0630X0.0709*%
%ADD17C,0.0197*%
%ADD18R,0.0610X0.0197*%
%ADD19R,0.0197X0.0610*%
%ADD20R,0.1024X0.0945*%
%ADD21R,0.3000X0.2900*%
%ADD22R,0.1500X0.0500*%
%ADD23R,0.1102X0.1024*%
%ADD24R,0.0394X0.1496*%
%ADD25R,0.1496X0.0394*%
%ADD26R,0.1575X0.0335*%
%ADD27R,0.0551X0.0787*%
%ADD28R,0.0630X0.0512*%
%ADD29C,0.0130*%
%ADD30R,0.0709X0.0630*%
%ADD31R,0.0571X0.0197*%
%ADD32C,0.0400*%
%ADD33R,0.0276X0.0354*%
%ADD34C,0.0110*%
%ADD35C,0.0080*%
%ADD36C,0.0100*%
%ADD37C,0.0150*%
%ADD38C,0.0060*%
%ADD39C,0.0160*%
%ADD40C,0.0200*%
%ADD41C,0.0300*%
%ADD42C,0.0180*%
%ADD43C,0.0240*%
%ADD44C,0.0120*%
%ADD45R,0.0591X0.0591*%
%ADD46C,0.0591*%
%ADD47C,0.0500*%
%ADD48C,0.1750*%
%ADD49C,0.0669*%
%ADD50C,0.1063*%
%ADD51C,0.0800*%
%ADD52C,0.1300*%
%ADD53C,0.0600*%
%ADD54C,0.0200*%
%ADD55C,0.0300*%
G36*
X63691Y69046D02*
X63672Y69000D01*
X60369D01*
X59863Y69506D01*
X59868Y69532D01*
X59855Y69597D01*
X59819Y69651D01*
X59830Y69687D01*
X63050D01*
X63691Y69046D01*
D02*
G37*
G36*
X112008Y76835D02*
X112001Y69000D01*
X112000Y69000D01*
X112000Y69000D01*
X112000Y69000D01*
X94997D01*
Y69550D01*
X94989Y69587D01*
X94968Y69618D01*
X94247Y70340D01*
Y71683D01*
X94294Y71699D01*
X94311Y71677D01*
X94366Y71635D01*
X94431Y71608D01*
X94500Y71599D01*
X94569Y71608D01*
X94634Y71635D01*
X94689Y71677D01*
X94731Y71733D01*
X94758Y71797D01*
X94767Y71866D01*
X94758Y71935D01*
X94731Y72000D01*
X94689Y72055D01*
X94634Y72098D01*
X94569Y72124D01*
X94500Y72133D01*
X94431Y72124D01*
X94366Y72098D01*
X94311Y72055D01*
X94294Y72033D01*
X94247Y72049D01*
Y72116D01*
X94269Y72131D01*
X94305Y72186D01*
X94318Y72250D01*
X94305Y72314D01*
X94269Y72369D01*
X94214Y72405D01*
X94150Y72418D01*
X94086Y72405D01*
X94031Y72369D01*
X93995Y72314D01*
X93982Y72250D01*
X93995Y72186D01*
X94031Y72131D01*
X94053Y72116D01*
Y70300D01*
X94061Y70263D01*
X94082Y70232D01*
X94803Y69510D01*
Y69000D01*
X89270D01*
Y70766D01*
X89292Y70781D01*
X89329Y70836D01*
X89341Y70900D01*
X89329Y70964D01*
X89292Y71019D01*
X89238Y71055D01*
X89173Y71068D01*
X89109Y71055D01*
X89054Y71019D01*
X89018Y70964D01*
X89005Y70900D01*
X89018Y70836D01*
X89054Y70781D01*
X89076Y70766D01*
Y69000D01*
X69621D01*
X68649Y69972D01*
X68618Y69993D01*
X68581Y70000D01*
X63601D01*
X62562Y71039D01*
X62567Y71065D01*
X62555Y71130D01*
X62518Y71184D01*
X62464Y71221D01*
X62399Y71234D01*
X62335Y71221D01*
X62280Y71184D01*
X62244Y71130D01*
X62231Y71065D01*
X62244Y71001D01*
X62280Y70946D01*
X62335Y70910D01*
X62399Y70897D01*
X62425Y70902D01*
X63493Y69835D01*
X63524Y69814D01*
X63561Y69807D01*
X68541D01*
X69301Y69046D01*
X69282Y69000D01*
X64011D01*
X63159Y69852D01*
X63128Y69873D01*
X63091Y69880D01*
X59194D01*
X58863Y70211D01*
X58868Y70237D01*
X58855Y70301D01*
X58819Y70356D01*
X58764Y70392D01*
X58700Y70405D01*
X58636Y70392D01*
X58581Y70356D01*
X58545Y70301D01*
X58532Y70237D01*
X58545Y70173D01*
X58581Y70118D01*
X58636Y70082D01*
X58700Y70069D01*
X58726Y70074D01*
X59085Y69715D01*
X59116Y69694D01*
X59154Y69687D01*
X59552D01*
X59575Y69643D01*
X59545Y69597D01*
X59532Y69532D01*
X59545Y69468D01*
X59581Y69413D01*
X59636Y69377D01*
X59700Y69364D01*
X59726Y69369D01*
X60049Y69046D01*
X60030Y69000D01*
X34000D01*
Y30617D01*
X20617D01*
Y76870D01*
X79805D01*
X79821Y76823D01*
X79811Y76815D01*
X79769Y76760D01*
X79742Y76695D01*
X79733Y76626D01*
X79742Y76557D01*
X79769Y76492D01*
X79811Y76437D01*
X79866Y76395D01*
X79931Y76368D01*
X80000Y76359D01*
X80069Y76368D01*
X80134Y76395D01*
X80189Y76437D01*
X80231Y76492D01*
X80258Y76557D01*
X80267Y76626D01*
X80258Y76695D01*
X80231Y76760D01*
X80189Y76815D01*
X80134Y76857D01*
X80136Y76870D01*
X80805D01*
X80821Y76823D01*
X80811Y76815D01*
X80769Y76760D01*
X80742Y76695D01*
X80733Y76626D01*
X80742Y76557D01*
X80769Y76492D01*
X80811Y76437D01*
X80866Y76395D01*
X80931Y76368D01*
X81000Y76359D01*
X81069Y76368D01*
X81134Y76395D01*
X81189Y76437D01*
X81231Y76492D01*
X81258Y76557D01*
X81267Y76626D01*
X81258Y76695D01*
X81231Y76760D01*
X81189Y76815D01*
X81134Y76857D01*
X81136Y76870D01*
X81805D01*
X81821Y76823D01*
X81811Y76815D01*
X81769Y76760D01*
X81742Y76695D01*
X81733Y76626D01*
X81742Y76557D01*
X81769Y76492D01*
X81811Y76437D01*
X81866Y76395D01*
X81931Y76368D01*
X82000Y76359D01*
X82069Y76368D01*
X82134Y76395D01*
X82189Y76437D01*
X82231Y76492D01*
X82258Y76557D01*
X82267Y76626D01*
X82258Y76695D01*
X82231Y76760D01*
X82189Y76815D01*
X82134Y76857D01*
X82136Y76870D01*
X82871D01*
X82886Y76822D01*
X82881Y76819D01*
X82845Y76764D01*
X82832Y76700D01*
X82845Y76636D01*
X82881Y76581D01*
X82936Y76545D01*
X83000Y76532D01*
X83064Y76545D01*
X83119Y76581D01*
X83155Y76636D01*
X83168Y76700D01*
X83155Y76764D01*
X83119Y76819D01*
X83114Y76822D01*
X83129Y76870D01*
X83805D01*
X83821Y76823D01*
X83811Y76815D01*
X83769Y76760D01*
X83742Y76695D01*
X83733Y76626D01*
X83742Y76557D01*
X83769Y76492D01*
X83811Y76437D01*
X83866Y76395D01*
X83931Y76368D01*
X84000Y76359D01*
X84069Y76368D01*
X84134Y76395D01*
X84189Y76437D01*
X84231Y76492D01*
X84258Y76557D01*
X84267Y76626D01*
X84258Y76695D01*
X84231Y76760D01*
X84189Y76815D01*
X84134Y76857D01*
X84136Y76870D01*
X84805D01*
X84821Y76823D01*
X84811Y76815D01*
X84769Y76760D01*
X84742Y76695D01*
X84733Y76626D01*
X84742Y76557D01*
X84769Y76492D01*
X84811Y76437D01*
X84866Y76395D01*
X84931Y76368D01*
X85000Y76359D01*
X85069Y76368D01*
X85134Y76395D01*
X85189Y76437D01*
X85231Y76492D01*
X85258Y76557D01*
X85267Y76626D01*
X85258Y76695D01*
X85231Y76760D01*
X85189Y76815D01*
X85134Y76857D01*
X85136Y76870D01*
X85805D01*
X85821Y76823D01*
X85811Y76815D01*
X85769Y76760D01*
X85742Y76695D01*
X85733Y76626D01*
X85742Y76557D01*
X85769Y76492D01*
X85811Y76437D01*
X85866Y76395D01*
X85931Y76368D01*
X86000Y76359D01*
X86069Y76368D01*
X86134Y76395D01*
X86189Y76437D01*
X86231Y76492D01*
X86258Y76557D01*
X86267Y76626D01*
X86258Y76695D01*
X86231Y76760D01*
X86189Y76815D01*
X86134Y76857D01*
X86136Y76870D01*
X86805D01*
X86821Y76823D01*
X86811Y76815D01*
X86769Y76760D01*
X86742Y76695D01*
X86733Y76626D01*
X86742Y76557D01*
X86769Y76492D01*
X86811Y76437D01*
X86866Y76395D01*
X86931Y76368D01*
X87000Y76359D01*
X87069Y76368D01*
X87134Y76395D01*
X87189Y76437D01*
X87231Y76492D01*
X87258Y76557D01*
X87267Y76626D01*
X87258Y76695D01*
X87231Y76760D01*
X87189Y76815D01*
X87134Y76857D01*
X87136Y76870D01*
X90805D01*
X90821Y76823D01*
X90811Y76815D01*
X90769Y76760D01*
X90742Y76695D01*
X90733Y76626D01*
X90742Y76557D01*
X90769Y76492D01*
X90811Y76437D01*
X90866Y76395D01*
X90931Y76368D01*
X91000Y76359D01*
X91069Y76368D01*
X91134Y76395D01*
X91189Y76437D01*
X91231Y76492D01*
X91258Y76557D01*
X91267Y76626D01*
X91258Y76695D01*
X91231Y76760D01*
X91189Y76815D01*
X91134Y76857D01*
X91136Y76870D01*
X91805D01*
X91821Y76823D01*
X91811Y76815D01*
X91769Y76760D01*
X91742Y76695D01*
X91733Y76626D01*
X91742Y76557D01*
X91769Y76492D01*
X91811Y76437D01*
X91866Y76395D01*
X91931Y76368D01*
X92000Y76359D01*
X92069Y76368D01*
X92134Y76395D01*
X92189Y76437D01*
X92231Y76492D01*
X92258Y76557D01*
X92267Y76626D01*
X92258Y76695D01*
X92231Y76760D01*
X92189Y76815D01*
X92134Y76857D01*
X92136Y76870D01*
X92805D01*
X92821Y76823D01*
X92811Y76815D01*
X92769Y76760D01*
X92742Y76695D01*
X92733Y76626D01*
X92742Y76557D01*
X92769Y76492D01*
X92811Y76437D01*
X92866Y76395D01*
X92931Y76368D01*
X93000Y76359D01*
X93069Y76368D01*
X93134Y76395D01*
X93189Y76437D01*
X93231Y76492D01*
X93258Y76557D01*
X93267Y76626D01*
X93258Y76695D01*
X93231Y76760D01*
X93189Y76815D01*
X93134Y76857D01*
X93136Y76870D01*
X93929D01*
X93952Y76826D01*
X93945Y76814D01*
X93932Y76750D01*
X93945Y76686D01*
X93981Y76631D01*
X94036Y76595D01*
X94100Y76582D01*
X94164Y76595D01*
X94219Y76631D01*
X94255Y76686D01*
X94268Y76750D01*
X94255Y76814D01*
X94219Y76869D01*
X94219Y76870D01*
X94805D01*
X94821Y76823D01*
X94811Y76815D01*
X94769Y76760D01*
X94742Y76695D01*
X94733Y76626D01*
X94742Y76557D01*
X94769Y76492D01*
X94811Y76437D01*
X94866Y76395D01*
X94931Y76368D01*
X95000Y76359D01*
X95069Y76368D01*
X95134Y76395D01*
X95189Y76437D01*
X95231Y76492D01*
X95258Y76557D01*
X95267Y76626D01*
X95258Y76695D01*
X95231Y76760D01*
X95189Y76815D01*
X95134Y76857D01*
X95136Y76870D01*
X95805D01*
X95821Y76823D01*
X95811Y76815D01*
X95769Y76760D01*
X95742Y76695D01*
X95733Y76626D01*
X95742Y76557D01*
X95769Y76492D01*
X95811Y76437D01*
X95866Y76395D01*
X95931Y76368D01*
X96000Y76359D01*
X96069Y76368D01*
X96134Y76395D01*
X96189Y76437D01*
X96231Y76492D01*
X96258Y76557D01*
X96267Y76626D01*
X96258Y76695D01*
X96231Y76760D01*
X96189Y76815D01*
X96134Y76857D01*
X96136Y76870D01*
X96805D01*
X96821Y76823D01*
X96811Y76815D01*
X96769Y76760D01*
X96742Y76695D01*
X96733Y76626D01*
X96742Y76557D01*
X96769Y76492D01*
X96811Y76437D01*
X96866Y76395D01*
X96931Y76368D01*
X97000Y76359D01*
X97069Y76368D01*
X97134Y76395D01*
X97189Y76437D01*
X97231Y76492D01*
X97258Y76557D01*
X97267Y76626D01*
X97258Y76695D01*
X97231Y76760D01*
X97189Y76815D01*
X97134Y76857D01*
X97136Y76870D01*
X97805D01*
X97821Y76823D01*
X97811Y76815D01*
X97769Y76760D01*
X97742Y76695D01*
X97733Y76626D01*
X97742Y76557D01*
X97769Y76492D01*
X97811Y76437D01*
X97866Y76395D01*
X97931Y76368D01*
X98000Y76359D01*
X98069Y76368D01*
X98134Y76395D01*
X98189Y76437D01*
X98231Y76492D01*
X98258Y76557D01*
X98267Y76626D01*
X98258Y76695D01*
X98231Y76760D01*
X98189Y76815D01*
X98134Y76857D01*
X98136Y76870D01*
X101805D01*
X101821Y76823D01*
X101811Y76815D01*
X101769Y76760D01*
X101742Y76695D01*
X101733Y76626D01*
X101742Y76557D01*
X101769Y76492D01*
X101811Y76437D01*
X101866Y76395D01*
X101931Y76368D01*
X102000Y76359D01*
X102069Y76368D01*
X102134Y76395D01*
X102189Y76437D01*
X102231Y76492D01*
X102258Y76557D01*
X102267Y76626D01*
X102258Y76695D01*
X102231Y76760D01*
X102189Y76815D01*
X102134Y76857D01*
X102136Y76870D01*
X102805D01*
X102821Y76823D01*
X102811Y76815D01*
X102769Y76760D01*
X102742Y76695D01*
X102733Y76626D01*
X102742Y76557D01*
X102769Y76492D01*
X102811Y76437D01*
X102866Y76395D01*
X102931Y76368D01*
X103000Y76359D01*
X103069Y76368D01*
X103134Y76395D01*
X103189Y76437D01*
X103231Y76492D01*
X103258Y76557D01*
X103267Y76626D01*
X103258Y76695D01*
X103231Y76760D01*
X103189Y76815D01*
X103134Y76857D01*
X103136Y76870D01*
X103805D01*
X103821Y76823D01*
X103811Y76815D01*
X103769Y76760D01*
X103742Y76695D01*
X103733Y76626D01*
X103742Y76557D01*
X103769Y76492D01*
X103811Y76437D01*
X103866Y76395D01*
X103931Y76368D01*
X104000Y76359D01*
X104069Y76368D01*
X104134Y76395D01*
X104189Y76437D01*
X104231Y76492D01*
X104258Y76557D01*
X104267Y76626D01*
X104258Y76695D01*
X104231Y76760D01*
X104189Y76815D01*
X104134Y76857D01*
X104136Y76870D01*
X105805D01*
X105821Y76823D01*
X105811Y76815D01*
X105769Y76760D01*
X105742Y76695D01*
X105733Y76626D01*
X105742Y76557D01*
X105769Y76492D01*
X105811Y76437D01*
X105866Y76395D01*
X105931Y76368D01*
X106000Y76359D01*
X106069Y76368D01*
X106134Y76395D01*
X106189Y76437D01*
X106231Y76492D01*
X106258Y76557D01*
X106267Y76626D01*
X106258Y76695D01*
X106231Y76760D01*
X106189Y76815D01*
X106134Y76857D01*
X106136Y76870D01*
X106805D01*
X106821Y76823D01*
X106811Y76815D01*
X106769Y76760D01*
X106742Y76695D01*
X106733Y76626D01*
X106742Y76557D01*
X106769Y76492D01*
X106811Y76437D01*
X106866Y76395D01*
X106931Y76368D01*
X107000Y76359D01*
X107069Y76368D01*
X107134Y76395D01*
X107189Y76437D01*
X107231Y76492D01*
X107258Y76557D01*
X107267Y76626D01*
X107258Y76695D01*
X107231Y76760D01*
X107189Y76815D01*
X107134Y76857D01*
X107136Y76870D01*
X107805D01*
X107821Y76823D01*
X107811Y76815D01*
X107769Y76760D01*
X107742Y76695D01*
X107733Y76626D01*
X107742Y76557D01*
X107769Y76492D01*
X107811Y76437D01*
X107866Y76395D01*
X107931Y76368D01*
X108000Y76359D01*
X108069Y76368D01*
X108134Y76395D01*
X108189Y76437D01*
X108231Y76492D01*
X108258Y76557D01*
X108267Y76626D01*
X108258Y76695D01*
X108231Y76760D01*
X108189Y76815D01*
X108134Y76857D01*
X108136Y76870D01*
X108805D01*
X108821Y76823D01*
X108811Y76815D01*
X108769Y76760D01*
X108742Y76695D01*
X108733Y76626D01*
X108742Y76557D01*
X108769Y76492D01*
X108811Y76437D01*
X108866Y76395D01*
X108931Y76368D01*
X109000Y76359D01*
X109069Y76368D01*
X109134Y76395D01*
X109189Y76437D01*
X109231Y76492D01*
X109258Y76557D01*
X109267Y76626D01*
X109258Y76695D01*
X109231Y76760D01*
X109189Y76815D01*
X109134Y76857D01*
X109136Y76870D01*
X111973D01*
X112008Y76835D01*
D02*
G37*
%LPC*%
G36*
X32323Y61650D02*
X32201Y61634D01*
X32088Y61587D01*
X31991Y61513D01*
X31917Y61415D01*
X31870Y61302D01*
X31854Y61181D01*
X31870Y61060D01*
X31917Y60946D01*
X31991Y60849D01*
X32088Y60775D01*
X32201Y60728D01*
X32323Y60712D01*
X32444Y60728D01*
X32557Y60775D01*
X32654Y60849D01*
X32729Y60946D01*
X32776Y61060D01*
X32792Y61181D01*
X32776Y61302D01*
X32729Y61415D01*
X32654Y61513D01*
X32557Y61587D01*
X32444Y61634D01*
X32323Y61650D01*
D02*
G37*
G36*
X27323Y62900D02*
X27201Y62884D01*
X27088Y62837D01*
X26991Y62763D01*
X26917Y62665D01*
X26870Y62552D01*
X26854Y62431D01*
X26870Y62310D01*
X26917Y62196D01*
X26991Y62099D01*
X27088Y62025D01*
X27201Y61978D01*
X27323Y61962D01*
X27444Y61978D01*
X27557Y62025D01*
X27654Y62099D01*
X27729Y62196D01*
X27776Y62310D01*
X27792Y62431D01*
X27776Y62552D01*
X27729Y62665D01*
X27654Y62763D01*
X27557Y62837D01*
X27444Y62884D01*
X27323Y62900D01*
D02*
G37*
G36*
Y61650D02*
X27201Y61634D01*
X27088Y61587D01*
X26991Y61513D01*
X26917Y61415D01*
X26870Y61302D01*
X26854Y61181D01*
X26870Y61060D01*
X26917Y60946D01*
X26991Y60849D01*
X27088Y60775D01*
X27201Y60728D01*
X27323Y60712D01*
X27444Y60728D01*
X27557Y60775D01*
X27654Y60849D01*
X27729Y60946D01*
X27776Y61060D01*
X27792Y61181D01*
X27776Y61302D01*
X27729Y61415D01*
X27654Y61513D01*
X27557Y61587D01*
X27444Y61634D01*
X27323Y61650D01*
D02*
G37*
G36*
Y58594D02*
X27254Y58585D01*
X27189Y58558D01*
X27134Y58516D01*
X27091Y58460D01*
X27065Y58396D01*
X27055Y58327D01*
X27065Y58258D01*
X27091Y58193D01*
X27134Y58138D01*
X27189Y58095D01*
X27254Y58069D01*
X27323Y58059D01*
X27392Y58069D01*
X27456Y58095D01*
X27512Y58138D01*
X27554Y58193D01*
X27581Y58258D01*
X27590Y58327D01*
X27581Y58396D01*
X27554Y58460D01*
X27512Y58516D01*
X27456Y58558D01*
X27392Y58585D01*
X27323Y58594D01*
D02*
G37*
G36*
X32373Y57893D02*
Y57481D01*
X32785D01*
X32776Y57552D01*
X32729Y57665D01*
X32654Y57763D01*
X32557Y57837D01*
X32444Y57884D01*
X32373Y57893D01*
D02*
G37*
G36*
X32323Y62900D02*
X32201Y62884D01*
X32088Y62837D01*
X31991Y62763D01*
X31917Y62665D01*
X31870Y62552D01*
X31854Y62431D01*
X31870Y62310D01*
X31917Y62196D01*
X31991Y62099D01*
X32088Y62025D01*
X32201Y61978D01*
X32323Y61962D01*
X32444Y61978D01*
X32557Y62025D01*
X32654Y62099D01*
X32729Y62196D01*
X32776Y62310D01*
X32792Y62431D01*
X32776Y62552D01*
X32729Y62665D01*
X32654Y62763D01*
X32557Y62837D01*
X32444Y62884D01*
X32323Y62900D01*
D02*
G37*
G36*
Y64150D02*
X32201Y64134D01*
X32088Y64087D01*
X31991Y64013D01*
X31917Y63915D01*
X31870Y63802D01*
X31854Y63681D01*
X31870Y63560D01*
X31917Y63446D01*
X31991Y63349D01*
X32088Y63275D01*
X32201Y63228D01*
X32323Y63212D01*
X32444Y63228D01*
X32557Y63275D01*
X32654Y63349D01*
X32729Y63446D01*
X32776Y63560D01*
X32792Y63681D01*
X32776Y63802D01*
X32729Y63915D01*
X32654Y64013D01*
X32557Y64087D01*
X32444Y64134D01*
X32323Y64150D01*
D02*
G37*
G36*
X22480Y67905D02*
X22411Y67896D01*
X22347Y67869D01*
X22291Y67827D01*
X22249Y67772D01*
X22222Y67707D01*
X22213Y67638D01*
X22222Y67569D01*
X22249Y67504D01*
X22291Y67449D01*
X22347Y67406D01*
X22411Y67380D01*
X22480Y67371D01*
X22550Y67380D01*
X22614Y67406D01*
X22669Y67449D01*
X22712Y67504D01*
X22739Y67569D01*
X22748Y67638D01*
X22739Y67707D01*
X22712Y67772D01*
X22669Y67827D01*
X22614Y67869D01*
X22550Y67896D01*
X22480Y67905D01*
D02*
G37*
G36*
X27323Y64150D02*
X27201Y64134D01*
X27088Y64087D01*
X26991Y64013D01*
X26917Y63915D01*
X26870Y63802D01*
X26854Y63681D01*
X26870Y63560D01*
X26917Y63446D01*
X26991Y63349D01*
X27088Y63275D01*
X27201Y63228D01*
X27323Y63212D01*
X27444Y63228D01*
X27557Y63275D01*
X27654Y63349D01*
X27729Y63446D01*
X27776Y63560D01*
X27792Y63681D01*
X27776Y63802D01*
X27729Y63915D01*
X27654Y64013D01*
X27557Y64087D01*
X27444Y64134D01*
X27323Y64150D01*
D02*
G37*
G36*
X22461Y62689D02*
X22392Y62680D01*
X22327Y62653D01*
X22272Y62610D01*
X22229Y62555D01*
X22203Y62491D01*
X22193Y62421D01*
X22203Y62352D01*
X22229Y62288D01*
X22272Y62232D01*
X22327Y62190D01*
X22392Y62163D01*
X22461Y62154D01*
X22530Y62163D01*
X22594Y62190D01*
X22650Y62232D01*
X22692Y62288D01*
X22719Y62352D01*
X22728Y62421D01*
X22719Y62491D01*
X22692Y62555D01*
X22650Y62610D01*
X22594Y62653D01*
X22530Y62680D01*
X22461Y62689D01*
D02*
G37*
G36*
X23740D02*
X23671Y62680D01*
X23607Y62653D01*
X23551Y62610D01*
X23509Y62555D01*
X23482Y62491D01*
X23473Y62421D01*
X23482Y62352D01*
X23509Y62288D01*
X23551Y62232D01*
X23607Y62190D01*
X23671Y62163D01*
X23740Y62154D01*
X23809Y62163D01*
X23874Y62190D01*
X23929Y62232D01*
X23972Y62288D01*
X23998Y62352D01*
X24008Y62421D01*
X23998Y62491D01*
X23972Y62555D01*
X23929Y62610D01*
X23874Y62653D01*
X23809Y62680D01*
X23740Y62689D01*
D02*
G37*
G36*
X27323Y56803D02*
X27254Y56793D01*
X27189Y56767D01*
X27134Y56724D01*
X27091Y56669D01*
X27065Y56604D01*
X27055Y56535D01*
X27065Y56466D01*
X27091Y56402D01*
X27134Y56346D01*
X27189Y56304D01*
X27254Y56277D01*
X27323Y56268D01*
X27392Y56277D01*
X27456Y56304D01*
X27512Y56346D01*
X27554Y56402D01*
X27581Y56466D01*
X27590Y56535D01*
X27581Y56604D01*
X27554Y56669D01*
X27512Y56724D01*
X27456Y56767D01*
X27392Y56793D01*
X27323Y56803D01*
D02*
G37*
G36*
X22480Y57354D02*
X22411Y57345D01*
X22347Y57318D01*
X22291Y57276D01*
X22249Y57220D01*
X22222Y57156D01*
X22213Y57087D01*
X22222Y57018D01*
X22249Y56953D01*
X22291Y56898D01*
X22347Y56855D01*
X22411Y56829D01*
X22480Y56819D01*
X22550Y56829D01*
X22614Y56855D01*
X22669Y56898D01*
X22712Y56953D01*
X22739Y57018D01*
X22748Y57087D01*
X22739Y57156D01*
X22712Y57220D01*
X22669Y57276D01*
X22614Y57318D01*
X22550Y57345D01*
X22480Y57354D01*
D02*
G37*
G36*
X23760D02*
X23691Y57345D01*
X23626Y57318D01*
X23571Y57276D01*
X23528Y57220D01*
X23502Y57156D01*
X23493Y57087D01*
X23502Y57018D01*
X23528Y56953D01*
X23571Y56898D01*
X23626Y56855D01*
X23691Y56829D01*
X23760Y56819D01*
X23829Y56829D01*
X23894Y56855D01*
X23949Y56898D01*
X23991Y56953D01*
X24018Y57018D01*
X24027Y57087D01*
X24018Y57156D01*
X23991Y57220D01*
X23949Y57276D01*
X23894Y57318D01*
X23829Y57345D01*
X23760Y57354D01*
D02*
G37*
G36*
X32323Y54500D02*
X32254Y54490D01*
X32189Y54464D01*
X32134Y54421D01*
X32091Y54366D01*
X32065Y54301D01*
X32055Y54232D01*
X32065Y54163D01*
X32091Y54099D01*
X32134Y54043D01*
X32189Y54001D01*
X32254Y53974D01*
X32323Y53965D01*
X32392Y53974D01*
X32456Y54001D01*
X32512Y54043D01*
X32554Y54099D01*
X32581Y54163D01*
X32590Y54232D01*
X32581Y54301D01*
X32554Y54366D01*
X32512Y54421D01*
X32456Y54464D01*
X32392Y54490D01*
X32323Y54500D01*
D02*
G37*
G36*
X22441Y55385D02*
X22372Y55376D01*
X22307Y55350D01*
X22252Y55307D01*
X22209Y55252D01*
X22183Y55187D01*
X22174Y55118D01*
X22183Y55049D01*
X22209Y54984D01*
X22252Y54929D01*
X22307Y54887D01*
X22372Y54860D01*
X22441Y54851D01*
X22510Y54860D01*
X22575Y54887D01*
X22630Y54929D01*
X22672Y54984D01*
X22699Y55049D01*
X22708Y55118D01*
X22699Y55187D01*
X22672Y55252D01*
X22630Y55307D01*
X22575Y55350D01*
X22510Y55376D01*
X22441Y55385D01*
D02*
G37*
G36*
X23720D02*
X23651Y55376D01*
X23587Y55350D01*
X23531Y55307D01*
X23489Y55252D01*
X23462Y55187D01*
X23453Y55118D01*
X23462Y55049D01*
X23489Y54984D01*
X23531Y54929D01*
X23587Y54887D01*
X23651Y54860D01*
X23720Y54851D01*
X23790Y54860D01*
X23854Y54887D01*
X23909Y54929D01*
X23952Y54984D01*
X23979Y55049D01*
X23988Y55118D01*
X23979Y55187D01*
X23952Y55252D01*
X23909Y55307D01*
X23854Y55350D01*
X23790Y55376D01*
X23720Y55385D01*
D02*
G37*
G36*
X26427Y57698D02*
X26358Y57689D01*
X26293Y57662D01*
X26238Y57620D01*
X26196Y57565D01*
X26169Y57500D01*
X26160Y57431D01*
X26169Y57362D01*
X26196Y57297D01*
X26238Y57242D01*
X26293Y57200D01*
X26358Y57173D01*
X26427Y57164D01*
X26496Y57173D01*
X26561Y57200D01*
X26616Y57242D01*
X26659Y57297D01*
X26685Y57362D01*
X26694Y57431D01*
X26685Y57500D01*
X26659Y57565D01*
X26616Y57620D01*
X26561Y57662D01*
X26496Y57689D01*
X26427Y57698D01*
D02*
G37*
G36*
X28219D02*
X28149Y57689D01*
X28085Y57662D01*
X28030Y57620D01*
X27987Y57565D01*
X27960Y57500D01*
X27951Y57431D01*
X27960Y57362D01*
X27987Y57297D01*
X28030Y57242D01*
X28085Y57200D01*
X28149Y57173D01*
X28219Y57164D01*
X28288Y57173D01*
X28352Y57200D01*
X28408Y57242D01*
X28450Y57297D01*
X28477Y57362D01*
X28486Y57431D01*
X28477Y57500D01*
X28450Y57565D01*
X28408Y57620D01*
X28352Y57662D01*
X28288Y57689D01*
X28219Y57698D01*
D02*
G37*
G36*
X32273Y57893D02*
X32201Y57884D01*
X32088Y57837D01*
X31991Y57763D01*
X31917Y57665D01*
X31870Y57552D01*
X31860Y57481D01*
X32273D01*
Y57893D01*
D02*
G37*
G36*
X27323Y57900D02*
X27201Y57884D01*
X27088Y57837D01*
X26991Y57763D01*
X26917Y57665D01*
X26870Y57552D01*
X26854Y57431D01*
X26870Y57310D01*
X26917Y57196D01*
X26991Y57099D01*
X27088Y57025D01*
X27201Y56978D01*
X27323Y56962D01*
X27444Y56978D01*
X27557Y57025D01*
X27654Y57099D01*
X27729Y57196D01*
X27776Y57310D01*
X27792Y57431D01*
X27776Y57552D01*
X27729Y57665D01*
X27654Y57763D01*
X27557Y57837D01*
X27444Y57884D01*
X27323Y57900D01*
D02*
G37*
G36*
X32273Y57381D02*
X31860D01*
X31870Y57310D01*
X31917Y57196D01*
X31991Y57099D01*
X32088Y57025D01*
X32201Y56978D01*
X32273Y56969D01*
Y57381D01*
D02*
G37*
G36*
X32785D02*
X32373D01*
Y56969D01*
X32444Y56978D01*
X32557Y57025D01*
X32654Y57099D01*
X32729Y57196D01*
X32776Y57310D01*
X32785Y57381D01*
D02*
G37*
G36*
X23760Y67905D02*
X23691Y67896D01*
X23626Y67869D01*
X23571Y67827D01*
X23528Y67772D01*
X23502Y67707D01*
X23493Y67638D01*
X23502Y67569D01*
X23528Y67504D01*
X23571Y67449D01*
X23626Y67406D01*
X23691Y67380D01*
X23760Y67371D01*
X23829Y67380D01*
X23894Y67406D01*
X23949Y67449D01*
X23991Y67504D01*
X24018Y67569D01*
X24027Y67638D01*
X24018Y67707D01*
X23991Y67772D01*
X23949Y67827D01*
X23894Y67869D01*
X23829Y67896D01*
X23760Y67905D01*
D02*
G37*
G36*
X93500Y70368D02*
X93436Y70355D01*
X93381Y70319D01*
X93345Y70264D01*
X93332Y70200D01*
X93345Y70136D01*
X93381Y70081D01*
X93436Y70045D01*
X93500Y70032D01*
X93564Y70045D01*
X93619Y70081D01*
X93655Y70136D01*
X93668Y70200D01*
X93655Y70264D01*
X93619Y70319D01*
X93564Y70355D01*
X93500Y70368D01*
D02*
G37*
G36*
X82500Y70418D02*
X82436Y70405D01*
X82381Y70369D01*
X82345Y70314D01*
X82332Y70250D01*
X82345Y70186D01*
X82381Y70131D01*
X82436Y70095D01*
X82500Y70082D01*
X82564Y70095D01*
X82619Y70131D01*
X82655Y70186D01*
X82668Y70250D01*
X82655Y70314D01*
X82619Y70369D01*
X82564Y70405D01*
X82500Y70418D01*
D02*
G37*
G36*
X84500Y70368D02*
X84436Y70355D01*
X84381Y70319D01*
X84345Y70264D01*
X84332Y70200D01*
X84345Y70136D01*
X84381Y70081D01*
X84436Y70045D01*
X84500Y70032D01*
X84564Y70045D01*
X84619Y70081D01*
X84655Y70136D01*
X84668Y70200D01*
X84655Y70264D01*
X84619Y70319D01*
X84564Y70355D01*
X84500Y70368D01*
D02*
G37*
G36*
X71850Y70247D02*
X71786Y70234D01*
X71731Y70198D01*
X71695Y70143D01*
X71682Y70079D01*
X71695Y70014D01*
X71731Y69960D01*
X71786Y69923D01*
X71850Y69911D01*
X71915Y69923D01*
X71969Y69960D01*
X72006Y70014D01*
X72019Y70079D01*
X72006Y70143D01*
X71969Y70198D01*
X71915Y70234D01*
X71850Y70247D01*
D02*
G37*
G36*
X95500Y70268D02*
X95436Y70255D01*
X95381Y70219D01*
X95345Y70164D01*
X95332Y70100D01*
X95345Y70036D01*
X95381Y69981D01*
X95436Y69945D01*
X95500Y69932D01*
X95564Y69945D01*
X95619Y69981D01*
X95655Y70036D01*
X95668Y70100D01*
X95655Y70164D01*
X95619Y70219D01*
X95564Y70255D01*
X95500Y70268D01*
D02*
G37*
G36*
X83000Y70418D02*
X82936Y70405D01*
X82881Y70369D01*
X82845Y70314D01*
X82832Y70250D01*
X82845Y70186D01*
X82881Y70131D01*
X82936Y70095D01*
X83000Y70082D01*
X83064Y70095D01*
X83119Y70131D01*
X83155Y70186D01*
X83168Y70250D01*
X83155Y70314D01*
X83119Y70369D01*
X83064Y70405D01*
X83000Y70418D01*
D02*
G37*
G36*
X27323Y71094D02*
X27254Y71085D01*
X27189Y71058D01*
X27134Y71016D01*
X27091Y70960D01*
X27065Y70896D01*
X27055Y70827D01*
X27065Y70758D01*
X27091Y70693D01*
X27134Y70638D01*
X27189Y70595D01*
X27254Y70569D01*
X27323Y70559D01*
X27392Y70569D01*
X27456Y70595D01*
X27512Y70638D01*
X27554Y70693D01*
X27581Y70758D01*
X27590Y70827D01*
X27581Y70896D01*
X27554Y70960D01*
X27512Y71016D01*
X27456Y71058D01*
X27392Y71085D01*
X27323Y71094D01*
D02*
G37*
G36*
X32323D02*
X32254Y71085D01*
X32189Y71058D01*
X32134Y71016D01*
X32091Y70960D01*
X32065Y70896D01*
X32055Y70827D01*
X32065Y70758D01*
X32091Y70693D01*
X32134Y70638D01*
X32189Y70595D01*
X32254Y70569D01*
X32323Y70559D01*
X32392Y70569D01*
X32456Y70595D01*
X32512Y70638D01*
X32554Y70693D01*
X32581Y70758D01*
X32590Y70827D01*
X32581Y70896D01*
X32554Y70960D01*
X32512Y71016D01*
X32456Y71058D01*
X32392Y71085D01*
X32323Y71094D01*
D02*
G37*
G36*
X104959Y70527D02*
X104895Y70515D01*
X104840Y70478D01*
X104804Y70424D01*
X104791Y70359D01*
X104804Y70295D01*
X104840Y70240D01*
X104895Y70204D01*
X104959Y70191D01*
X105024Y70204D01*
X105078Y70240D01*
X105115Y70295D01*
X105127Y70359D01*
X105115Y70424D01*
X105078Y70478D01*
X105024Y70515D01*
X104959Y70527D01*
D02*
G37*
G36*
X84000Y70418D02*
X83936Y70405D01*
X83881Y70369D01*
X83845Y70314D01*
X83832Y70250D01*
X83845Y70186D01*
X83881Y70131D01*
X83936Y70095D01*
X84000Y70082D01*
X84064Y70095D01*
X84119Y70131D01*
X84155Y70186D01*
X84168Y70250D01*
X84155Y70314D01*
X84119Y70369D01*
X84064Y70405D01*
X84000Y70418D01*
D02*
G37*
G36*
X106500D02*
X106436Y70405D01*
X106381Y70369D01*
X106345Y70314D01*
X106332Y70250D01*
X106345Y70186D01*
X106381Y70131D01*
X106436Y70095D01*
X106500Y70082D01*
X106564Y70095D01*
X106619Y70131D01*
X106655Y70186D01*
X106668Y70250D01*
X106655Y70314D01*
X106619Y70369D01*
X106564Y70405D01*
X106500Y70418D01*
D02*
G37*
G36*
X104065Y70234D02*
X104001Y70221D01*
X103946Y70184D01*
X103910Y70130D01*
X103897Y70065D01*
X103910Y70001D01*
X103946Y69946D01*
X104001Y69910D01*
X104065Y69897D01*
X104130Y69910D01*
X104184Y69946D01*
X104221Y70001D01*
X104234Y70065D01*
X104221Y70130D01*
X104184Y70184D01*
X104130Y70221D01*
X104065Y70234D01*
D02*
G37*
G36*
X106000Y69668D02*
X105936Y69655D01*
X105881Y69619D01*
X105845Y69564D01*
X105832Y69500D01*
X105845Y69436D01*
X105881Y69381D01*
X105936Y69345D01*
X106000Y69332D01*
X106064Y69345D01*
X106119Y69381D01*
X106155Y69436D01*
X106168Y69500D01*
X106155Y69564D01*
X106119Y69619D01*
X106064Y69655D01*
X106000Y69668D01*
D02*
G37*
G36*
X27323Y70400D02*
X27201Y70384D01*
X27088Y70337D01*
X26991Y70263D01*
X26917Y70165D01*
X26870Y70052D01*
X26854Y69931D01*
X26870Y69810D01*
X26917Y69696D01*
X26991Y69599D01*
X27088Y69525D01*
X27201Y69478D01*
X27323Y69462D01*
X27444Y69478D01*
X27557Y69525D01*
X27654Y69599D01*
X27729Y69696D01*
X27776Y69810D01*
X27792Y69931D01*
X27776Y70052D01*
X27729Y70165D01*
X27654Y70263D01*
X27557Y70337D01*
X27444Y70384D01*
X27323Y70400D01*
D02*
G37*
G36*
X94000Y69418D02*
X93936Y69405D01*
X93881Y69369D01*
X93845Y69314D01*
X93832Y69250D01*
X93845Y69186D01*
X93881Y69131D01*
X93936Y69095D01*
X94000Y69082D01*
X94064Y69095D01*
X94119Y69131D01*
X94155Y69186D01*
X94168Y69250D01*
X94155Y69314D01*
X94119Y69369D01*
X94064Y69405D01*
X94000Y69418D01*
D02*
G37*
G36*
X27323Y69303D02*
X27254Y69293D01*
X27189Y69267D01*
X27134Y69224D01*
X27091Y69169D01*
X27065Y69104D01*
X27055Y69035D01*
X27065Y68966D01*
X27091Y68902D01*
X27134Y68846D01*
X27189Y68804D01*
X27254Y68777D01*
X27323Y68768D01*
X27392Y68777D01*
X27456Y68804D01*
X27512Y68846D01*
X27554Y68902D01*
X27581Y68966D01*
X27590Y69035D01*
X27581Y69104D01*
X27554Y69169D01*
X27512Y69224D01*
X27456Y69267D01*
X27392Y69293D01*
X27323Y69303D01*
D02*
G37*
G36*
X32323D02*
X32254Y69293D01*
X32189Y69267D01*
X32134Y69224D01*
X32091Y69169D01*
X32065Y69104D01*
X32055Y69035D01*
X32065Y68966D01*
X32091Y68902D01*
X32134Y68846D01*
X32189Y68804D01*
X32254Y68777D01*
X32323Y68768D01*
X32392Y68777D01*
X32456Y68804D01*
X32512Y68846D01*
X32554Y68902D01*
X32581Y68966D01*
X32590Y69035D01*
X32581Y69104D01*
X32554Y69169D01*
X32512Y69224D01*
X32456Y69267D01*
X32392Y69293D01*
X32323Y69303D01*
D02*
G37*
G36*
Y70400D02*
X32201Y70384D01*
X32088Y70337D01*
X31991Y70263D01*
X31917Y70165D01*
X31870Y70052D01*
X31854Y69931D01*
X31870Y69810D01*
X31917Y69696D01*
X31991Y69599D01*
X32088Y69525D01*
X32201Y69478D01*
X32323Y69462D01*
X32444Y69478D01*
X32557Y69525D01*
X32654Y69599D01*
X32729Y69696D01*
X32776Y69810D01*
X32792Y69931D01*
X32776Y70052D01*
X32729Y70165D01*
X32654Y70263D01*
X32557Y70337D01*
X32444Y70384D01*
X32323Y70400D01*
D02*
G37*
G36*
X33219Y70198D02*
X33149Y70189D01*
X33085Y70162D01*
X33030Y70120D01*
X32987Y70065D01*
X32960Y70000D01*
X32951Y69931D01*
X32960Y69862D01*
X32987Y69797D01*
X33030Y69742D01*
X33085Y69700D01*
X33149Y69673D01*
X33219Y69664D01*
X33288Y69673D01*
X33352Y69700D01*
X33408Y69742D01*
X33450Y69797D01*
X33477Y69862D01*
X33486Y69931D01*
X33477Y70000D01*
X33450Y70065D01*
X33408Y70120D01*
X33352Y70162D01*
X33288Y70189D01*
X33219Y70198D01*
D02*
G37*
G36*
X95000Y70168D02*
X94936Y70155D01*
X94881Y70119D01*
X94845Y70064D01*
X94832Y70000D01*
X94845Y69936D01*
X94881Y69881D01*
X94936Y69845D01*
X95000Y69832D01*
X95064Y69845D01*
X95119Y69881D01*
X95155Y69936D01*
X95168Y70000D01*
X95155Y70064D01*
X95119Y70119D01*
X95064Y70155D01*
X95000Y70168D01*
D02*
G37*
G36*
X31427Y70198D02*
X31358Y70189D01*
X31293Y70162D01*
X31238Y70120D01*
X31196Y70065D01*
X31169Y70000D01*
X31160Y69931D01*
X31169Y69862D01*
X31196Y69797D01*
X31238Y69742D01*
X31293Y69700D01*
X31358Y69673D01*
X31427Y69664D01*
X31496Y69673D01*
X31561Y69700D01*
X31616Y69742D01*
X31659Y69797D01*
X31685Y69862D01*
X31694Y69931D01*
X31685Y70000D01*
X31659Y70065D01*
X31616Y70120D01*
X31561Y70162D01*
X31496Y70189D01*
X31427Y70198D01*
D02*
G37*
G36*
X26427D02*
X26358Y70189D01*
X26293Y70162D01*
X26238Y70120D01*
X26196Y70065D01*
X26169Y70000D01*
X26160Y69931D01*
X26169Y69862D01*
X26196Y69797D01*
X26238Y69742D01*
X26293Y69700D01*
X26358Y69673D01*
X26427Y69664D01*
X26496Y69673D01*
X26561Y69700D01*
X26616Y69742D01*
X26659Y69797D01*
X26685Y69862D01*
X26694Y69931D01*
X26685Y70000D01*
X26659Y70065D01*
X26616Y70120D01*
X26561Y70162D01*
X26496Y70189D01*
X26427Y70198D01*
D02*
G37*
G36*
X28219D02*
X28149Y70189D01*
X28085Y70162D01*
X28030Y70120D01*
X27987Y70065D01*
X27960Y70000D01*
X27951Y69931D01*
X27960Y69862D01*
X27987Y69797D01*
X28030Y69742D01*
X28085Y69700D01*
X28149Y69673D01*
X28219Y69664D01*
X28288Y69673D01*
X28352Y69700D01*
X28408Y69742D01*
X28450Y69797D01*
X28477Y69862D01*
X28486Y69931D01*
X28477Y70000D01*
X28450Y70065D01*
X28408Y70120D01*
X28352Y70162D01*
X28288Y70189D01*
X28219Y70198D01*
D02*
G37*
G36*
X30460Y37060D02*
X29740D01*
Y36340D01*
X30460D01*
Y37060D01*
D02*
G37*
G36*
X23268Y39106D02*
X23198Y39097D01*
X23134Y39070D01*
X23079Y39028D01*
X23036Y38972D01*
X23009Y38908D01*
X23000Y38839D01*
X23009Y38770D01*
X23036Y38705D01*
X23079Y38650D01*
X23134Y38607D01*
X23198Y38581D01*
X23268Y38571D01*
X23337Y38581D01*
X23401Y38607D01*
X23457Y38650D01*
X23499Y38705D01*
X23526Y38770D01*
X23535Y38839D01*
X23526Y38908D01*
X23499Y38972D01*
X23457Y39028D01*
X23401Y39070D01*
X23337Y39097D01*
X23268Y39106D01*
D02*
G37*
G36*
X32265Y39262D02*
X32200Y39249D01*
X32146Y39213D01*
X32109Y39158D01*
X32096Y39094D01*
X32109Y39029D01*
X32146Y38975D01*
X32200Y38938D01*
X32265Y38925D01*
X32329Y38938D01*
X32384Y38975D01*
X32420Y39029D01*
X32433Y39094D01*
X32420Y39158D01*
X32384Y39213D01*
X32329Y39249D01*
X32265Y39262D01*
D02*
G37*
G36*
X25850Y35432D02*
X25779Y35423D01*
X25665Y35376D01*
X25568Y35302D01*
X25494Y35205D01*
X25447Y35091D01*
X25438Y35020D01*
X25850D01*
Y35432D01*
D02*
G37*
G36*
X25950D02*
Y35020D01*
X26362D01*
X26353Y35091D01*
X26306Y35205D01*
X26232Y35302D01*
X26135Y35376D01*
X26021Y35423D01*
X25950Y35432D01*
D02*
G37*
G36*
X29100Y37063D02*
X29006Y37051D01*
X28918Y37015D01*
X28843Y36957D01*
X28785Y36882D01*
X28749Y36794D01*
X28737Y36700D01*
X28749Y36606D01*
X28785Y36518D01*
X28843Y36443D01*
X28918Y36385D01*
X29006Y36349D01*
X29100Y36337D01*
X29194Y36349D01*
X29282Y36385D01*
X29357Y36443D01*
X29415Y36518D01*
X29451Y36606D01*
X29463Y36700D01*
X29451Y36794D01*
X29415Y36882D01*
X29357Y36957D01*
X29282Y37015D01*
X29194Y37051D01*
X29100Y37063D01*
D02*
G37*
G36*
X27323Y41306D02*
X27201Y41290D01*
X27088Y41243D01*
X26991Y41168D01*
X26917Y41071D01*
X26870Y40958D01*
X26854Y40837D01*
X26870Y40715D01*
X26917Y40602D01*
X26991Y40505D01*
X27088Y40430D01*
X27201Y40383D01*
X27323Y40368D01*
X27444Y40383D01*
X27557Y40430D01*
X27654Y40505D01*
X27729Y40602D01*
X27776Y40715D01*
X27792Y40837D01*
X27776Y40958D01*
X27729Y41071D01*
X27654Y41168D01*
X27557Y41243D01*
X27444Y41290D01*
X27323Y41306D01*
D02*
G37*
G36*
X32273Y40787D02*
X31860D01*
X31870Y40715D01*
X31917Y40602D01*
X31991Y40505D01*
X32088Y40430D01*
X32201Y40383D01*
X32273Y40374D01*
Y40787D01*
D02*
G37*
G36*
X32785D02*
X32373D01*
Y40374D01*
X32444Y40383D01*
X32557Y40430D01*
X32654Y40505D01*
X32729Y40602D01*
X32776Y40715D01*
X32785Y40787D01*
D02*
G37*
G36*
X27323Y40208D02*
X27254Y40199D01*
X27189Y40172D01*
X27134Y40130D01*
X27091Y40074D01*
X27065Y40010D01*
X27055Y39941D01*
X27065Y39872D01*
X27091Y39807D01*
X27134Y39752D01*
X27189Y39709D01*
X27254Y39683D01*
X27323Y39674D01*
X27392Y39683D01*
X27456Y39709D01*
X27512Y39752D01*
X27554Y39807D01*
X27581Y39872D01*
X27590Y39941D01*
X27581Y40010D01*
X27554Y40074D01*
X27512Y40130D01*
X27456Y40172D01*
X27392Y40199D01*
X27323Y40208D01*
D02*
G37*
G36*
X22598Y40267D02*
X22529Y40258D01*
X22465Y40231D01*
X22409Y40189D01*
X22367Y40134D01*
X22340Y40069D01*
X22331Y40000D01*
X22340Y39931D01*
X22367Y39866D01*
X22409Y39811D01*
X22465Y39769D01*
X22529Y39742D01*
X22598Y39733D01*
X22668Y39742D01*
X22732Y39769D01*
X22787Y39811D01*
X22830Y39866D01*
X22857Y39931D01*
X22866Y40000D01*
X22857Y40069D01*
X22830Y40134D01*
X22787Y40189D01*
X22732Y40231D01*
X22668Y40258D01*
X22598Y40267D01*
D02*
G37*
G36*
X23878D02*
X23809Y40258D01*
X23744Y40231D01*
X23689Y40189D01*
X23646Y40134D01*
X23620Y40069D01*
X23611Y40000D01*
X23620Y39931D01*
X23646Y39866D01*
X23689Y39811D01*
X23744Y39769D01*
X23809Y39742D01*
X23878Y39733D01*
X23947Y39742D01*
X24012Y39769D01*
X24067Y39811D01*
X24109Y39866D01*
X24136Y39931D01*
X24145Y40000D01*
X24136Y40069D01*
X24109Y40134D01*
X24067Y40189D01*
X24012Y40231D01*
X23947Y40258D01*
X23878Y40267D01*
D02*
G37*
G36*
X31181Y33870D02*
X31112Y33861D01*
X31047Y33834D01*
X30992Y33791D01*
X30949Y33736D01*
X30923Y33672D01*
X30914Y33602D01*
X30923Y33533D01*
X30949Y33469D01*
X30992Y33413D01*
X31047Y33371D01*
X31112Y33344D01*
X31181Y33335D01*
X31250Y33344D01*
X31314Y33371D01*
X31370Y33413D01*
X31412Y33469D01*
X31439Y33533D01*
X31448Y33602D01*
X31439Y33672D01*
X31412Y33736D01*
X31370Y33791D01*
X31314Y33834D01*
X31250Y33861D01*
X31181Y33870D01*
D02*
G37*
G36*
X22400Y35508D02*
X22260Y35495D01*
X22125Y35454D01*
X22001Y35387D01*
X21892Y35298D01*
X21803Y35189D01*
X21736Y35065D01*
X21695Y34930D01*
X21682Y34790D01*
X21695Y34650D01*
X21736Y34515D01*
X21803Y34391D01*
X21892Y34282D01*
X22001Y34193D01*
X22125Y34126D01*
X22260Y34085D01*
X22400Y34072D01*
X22540Y34085D01*
X22675Y34126D01*
X22799Y34193D01*
X22908Y34282D01*
X22997Y34391D01*
X23064Y34515D01*
X23105Y34650D01*
X23118Y34790D01*
X23105Y34930D01*
X23064Y35065D01*
X22997Y35189D01*
X22908Y35298D01*
X22799Y35387D01*
X22675Y35454D01*
X22540Y35495D01*
X22400Y35508D01*
D02*
G37*
G36*
X27750D02*
X27610Y35495D01*
X27475Y35454D01*
X27351Y35387D01*
X27242Y35298D01*
X27153Y35189D01*
X27086Y35065D01*
X27045Y34930D01*
X27032Y34790D01*
X27045Y34650D01*
X27086Y34515D01*
X27153Y34391D01*
X27242Y34282D01*
X27351Y34193D01*
X27475Y34126D01*
X27610Y34085D01*
X27750Y34072D01*
X27890Y34085D01*
X28025Y34126D01*
X28149Y34193D01*
X28258Y34282D01*
X28347Y34391D01*
X28414Y34515D01*
X28455Y34650D01*
X28468Y34790D01*
X28455Y34930D01*
X28414Y35065D01*
X28347Y35189D01*
X28258Y35298D01*
X28149Y35387D01*
X28025Y35454D01*
X27890Y35495D01*
X27750Y35508D01*
D02*
G37*
G36*
X31181Y32590D02*
X31112Y32581D01*
X31047Y32554D01*
X30992Y32512D01*
X30949Y32457D01*
X30923Y32392D01*
X30914Y32323D01*
X30923Y32254D01*
X30949Y32189D01*
X30992Y32134D01*
X31047Y32091D01*
X31112Y32065D01*
X31181Y32056D01*
X31250Y32065D01*
X31314Y32091D01*
X31370Y32134D01*
X31412Y32189D01*
X31439Y32254D01*
X31448Y32323D01*
X31439Y32392D01*
X31412Y32457D01*
X31370Y32512D01*
X31314Y32554D01*
X31250Y32581D01*
X31181Y32590D01*
D02*
G37*
G36*
X24250Y33269D02*
X24129Y33253D01*
X24015Y33206D01*
X23918Y33132D01*
X23844Y33035D01*
X23797Y32921D01*
X23781Y32800D01*
X23797Y32679D01*
X23844Y32565D01*
X23918Y32468D01*
X24015Y32394D01*
X24129Y32347D01*
X24250Y32331D01*
X24371Y32347D01*
X24485Y32394D01*
X24582Y32468D01*
X24656Y32565D01*
X24703Y32679D01*
X24719Y32800D01*
X24703Y32921D01*
X24656Y33035D01*
X24582Y33132D01*
X24485Y33206D01*
X24371Y33253D01*
X24250Y33269D01*
D02*
G37*
G36*
X25900D02*
X25779Y33253D01*
X25665Y33206D01*
X25568Y33132D01*
X25494Y33035D01*
X25447Y32921D01*
X25431Y32800D01*
X25447Y32679D01*
X25494Y32565D01*
X25568Y32468D01*
X25665Y32394D01*
X25779Y32347D01*
X25900Y32331D01*
X26021Y32347D01*
X26135Y32394D01*
X26232Y32468D01*
X26306Y32565D01*
X26353Y32679D01*
X26369Y32800D01*
X26353Y32921D01*
X26306Y33035D01*
X26232Y33132D01*
X26135Y33206D01*
X26021Y33253D01*
X25900Y33269D01*
D02*
G37*
G36*
X26362Y34920D02*
X25950D01*
Y34508D01*
X26021Y34517D01*
X26135Y34564D01*
X26232Y34638D01*
X26306Y34735D01*
X26353Y34849D01*
X26362Y34920D01*
D02*
G37*
G36*
X24200Y35432D02*
X24129Y35423D01*
X24015Y35376D01*
X23918Y35302D01*
X23844Y35205D01*
X23797Y35091D01*
X23788Y35020D01*
X24200D01*
Y35432D01*
D02*
G37*
G36*
X24300D02*
Y35020D01*
X24712D01*
X24703Y35091D01*
X24656Y35205D01*
X24582Y35302D01*
X24485Y35376D01*
X24371Y35423D01*
X24300Y35432D01*
D02*
G37*
G36*
X24200Y34920D02*
X23788D01*
X23797Y34849D01*
X23844Y34735D01*
X23918Y34638D01*
X24015Y34564D01*
X24129Y34517D01*
X24200Y34508D01*
Y34920D01*
D02*
G37*
G36*
X24712D02*
X24300D01*
Y34508D01*
X24371Y34517D01*
X24485Y34564D01*
X24582Y34638D01*
X24656Y34735D01*
X24703Y34849D01*
X24712Y34920D01*
D02*
G37*
G36*
X25850D02*
X25438D01*
X25447Y34849D01*
X25494Y34735D01*
X25568Y34638D01*
X25665Y34564D01*
X25779Y34517D01*
X25850Y34508D01*
Y34920D01*
D02*
G37*
G36*
X27323Y52708D02*
X27254Y52699D01*
X27189Y52672D01*
X27134Y52630D01*
X27091Y52574D01*
X27065Y52510D01*
X27055Y52441D01*
X27065Y52372D01*
X27091Y52307D01*
X27134Y52252D01*
X27189Y52209D01*
X27254Y52183D01*
X27323Y52174D01*
X27392Y52183D01*
X27456Y52209D01*
X27512Y52252D01*
X27554Y52307D01*
X27581Y52372D01*
X27590Y52441D01*
X27581Y52510D01*
X27554Y52574D01*
X27512Y52630D01*
X27456Y52672D01*
X27392Y52699D01*
X27323Y52708D01*
D02*
G37*
G36*
X32323D02*
X32254Y52699D01*
X32189Y52672D01*
X32134Y52630D01*
X32091Y52574D01*
X32065Y52510D01*
X32055Y52441D01*
X32065Y52372D01*
X32091Y52307D01*
X32134Y52252D01*
X32189Y52209D01*
X32254Y52183D01*
X32323Y52174D01*
X32392Y52183D01*
X32456Y52209D01*
X32512Y52252D01*
X32554Y52307D01*
X32581Y52372D01*
X32590Y52441D01*
X32581Y52510D01*
X32554Y52574D01*
X32512Y52630D01*
X32456Y52672D01*
X32392Y52699D01*
X32323Y52708D01*
D02*
G37*
G36*
X27323Y53806D02*
X27201Y53790D01*
X27088Y53743D01*
X26991Y53668D01*
X26917Y53571D01*
X26870Y53458D01*
X26854Y53337D01*
X26870Y53215D01*
X26917Y53102D01*
X26991Y53005D01*
X27088Y52930D01*
X27201Y52883D01*
X27323Y52868D01*
X27444Y52883D01*
X27557Y52930D01*
X27654Y53005D01*
X27729Y53102D01*
X27776Y53215D01*
X27792Y53337D01*
X27776Y53458D01*
X27729Y53571D01*
X27654Y53668D01*
X27557Y53743D01*
X27444Y53790D01*
X27323Y53806D01*
D02*
G37*
G36*
X23799Y49637D02*
X23730Y49628D01*
X23666Y49602D01*
X23610Y49559D01*
X23568Y49504D01*
X23541Y49439D01*
X23532Y49370D01*
X23541Y49301D01*
X23568Y49236D01*
X23610Y49181D01*
X23666Y49139D01*
X23730Y49112D01*
X23799Y49103D01*
X23868Y49112D01*
X23933Y49139D01*
X23988Y49181D01*
X24031Y49236D01*
X24057Y49301D01*
X24067Y49370D01*
X24057Y49439D01*
X24031Y49504D01*
X23988Y49559D01*
X23933Y49602D01*
X23868Y49628D01*
X23799Y49637D01*
D02*
G37*
G36*
X23228Y50759D02*
X23159Y50750D01*
X23095Y50724D01*
X23039Y50681D01*
X22997Y50626D01*
X22970Y50561D01*
X22961Y50492D01*
X22970Y50423D01*
X22997Y50358D01*
X23039Y50303D01*
X23095Y50261D01*
X23159Y50234D01*
X23228Y50225D01*
X23298Y50234D01*
X23362Y50261D01*
X23417Y50303D01*
X23460Y50358D01*
X23487Y50423D01*
X23496Y50492D01*
X23487Y50561D01*
X23460Y50626D01*
X23417Y50681D01*
X23362Y50724D01*
X23298Y50750D01*
X23228Y50759D01*
D02*
G37*
G36*
X23622Y52236D02*
X23553Y52227D01*
X23488Y52200D01*
X23433Y52158D01*
X23391Y52102D01*
X23364Y52038D01*
X23355Y51968D01*
X23364Y51899D01*
X23391Y51835D01*
X23433Y51779D01*
X23488Y51737D01*
X23553Y51710D01*
X23622Y51701D01*
X23691Y51710D01*
X23756Y51737D01*
X23811Y51779D01*
X23854Y51835D01*
X23880Y51899D01*
X23889Y51968D01*
X23880Y52038D01*
X23854Y52102D01*
X23811Y52158D01*
X23756Y52200D01*
X23691Y52227D01*
X23622Y52236D01*
D02*
G37*
G36*
X31427Y53604D02*
X31358Y53595D01*
X31293Y53568D01*
X31238Y53526D01*
X31196Y53470D01*
X31169Y53406D01*
X31160Y53337D01*
X31169Y53267D01*
X31196Y53203D01*
X31238Y53148D01*
X31293Y53105D01*
X31358Y53078D01*
X31427Y53069D01*
X31496Y53078D01*
X31561Y53105D01*
X31616Y53148D01*
X31659Y53203D01*
X31685Y53267D01*
X31694Y53337D01*
X31685Y53406D01*
X31659Y53470D01*
X31616Y53526D01*
X31561Y53568D01*
X31496Y53595D01*
X31427Y53604D01*
D02*
G37*
G36*
X33219D02*
X33149Y53595D01*
X33085Y53568D01*
X33030Y53526D01*
X32987Y53470D01*
X32960Y53406D01*
X32951Y53337D01*
X32960Y53267D01*
X32987Y53203D01*
X33030Y53148D01*
X33085Y53105D01*
X33149Y53078D01*
X33219Y53069D01*
X33288Y53078D01*
X33352Y53105D01*
X33408Y53148D01*
X33450Y53203D01*
X33477Y53267D01*
X33486Y53337D01*
X33477Y53406D01*
X33450Y53470D01*
X33408Y53526D01*
X33352Y53568D01*
X33288Y53595D01*
X33219Y53604D01*
D02*
G37*
G36*
X27323Y54500D02*
X27254Y54490D01*
X27189Y54464D01*
X27134Y54421D01*
X27091Y54366D01*
X27065Y54301D01*
X27055Y54232D01*
X27065Y54163D01*
X27091Y54099D01*
X27134Y54043D01*
X27189Y54001D01*
X27254Y53974D01*
X27323Y53965D01*
X27392Y53974D01*
X27456Y54001D01*
X27512Y54043D01*
X27554Y54099D01*
X27581Y54163D01*
X27590Y54232D01*
X27581Y54301D01*
X27554Y54366D01*
X27512Y54421D01*
X27456Y54464D01*
X27392Y54490D01*
X27323Y54500D01*
D02*
G37*
G36*
X32323Y53806D02*
X32201Y53790D01*
X32088Y53743D01*
X31991Y53668D01*
X31917Y53571D01*
X31870Y53458D01*
X31854Y53337D01*
X31870Y53215D01*
X31917Y53102D01*
X31991Y53005D01*
X32088Y52930D01*
X32201Y52883D01*
X32323Y52868D01*
X32444Y52883D01*
X32557Y52930D01*
X32654Y53005D01*
X32729Y53102D01*
X32776Y53215D01*
X32792Y53337D01*
X32776Y53458D01*
X32729Y53571D01*
X32654Y53668D01*
X32557Y53743D01*
X32444Y53790D01*
X32323Y53806D01*
D02*
G37*
G36*
X26427Y53604D02*
X26358Y53595D01*
X26293Y53568D01*
X26238Y53526D01*
X26196Y53470D01*
X26169Y53406D01*
X26160Y53337D01*
X26169Y53267D01*
X26196Y53203D01*
X26238Y53148D01*
X26293Y53105D01*
X26358Y53078D01*
X26427Y53069D01*
X26496Y53078D01*
X26561Y53105D01*
X26616Y53148D01*
X26659Y53203D01*
X26685Y53267D01*
X26694Y53337D01*
X26685Y53406D01*
X26659Y53470D01*
X26616Y53526D01*
X26561Y53568D01*
X26496Y53595D01*
X26427Y53604D01*
D02*
G37*
G36*
X28219D02*
X28149Y53595D01*
X28085Y53568D01*
X28030Y53526D01*
X27987Y53470D01*
X27960Y53406D01*
X27951Y53337D01*
X27960Y53267D01*
X27987Y53203D01*
X28030Y53148D01*
X28085Y53105D01*
X28149Y53078D01*
X28219Y53069D01*
X28288Y53078D01*
X28352Y53105D01*
X28408Y53148D01*
X28450Y53203D01*
X28477Y53267D01*
X28486Y53337D01*
X28477Y53406D01*
X28450Y53470D01*
X28408Y53526D01*
X28352Y53568D01*
X28288Y53595D01*
X28219Y53604D01*
D02*
G37*
G36*
X32373Y41299D02*
Y40887D01*
X32785D01*
X32776Y40958D01*
X32729Y41071D01*
X32654Y41168D01*
X32557Y41243D01*
X32444Y41290D01*
X32373Y41299D01*
D02*
G37*
G36*
X27323Y42000D02*
X27254Y41990D01*
X27189Y41964D01*
X27134Y41921D01*
X27091Y41866D01*
X27065Y41801D01*
X27055Y41732D01*
X27065Y41663D01*
X27091Y41599D01*
X27134Y41543D01*
X27189Y41501D01*
X27254Y41474D01*
X27323Y41465D01*
X27392Y41474D01*
X27456Y41501D01*
X27512Y41543D01*
X27554Y41599D01*
X27581Y41663D01*
X27590Y41732D01*
X27581Y41801D01*
X27554Y41866D01*
X27512Y41921D01*
X27456Y41964D01*
X27392Y41990D01*
X27323Y42000D01*
D02*
G37*
G36*
Y45056D02*
X27201Y45040D01*
X27088Y44993D01*
X26991Y44918D01*
X26917Y44821D01*
X26870Y44708D01*
X26854Y44587D01*
X26870Y44465D01*
X26917Y44352D01*
X26991Y44255D01*
X27088Y44180D01*
X27201Y44133D01*
X27323Y44118D01*
X27444Y44133D01*
X27557Y44180D01*
X27654Y44255D01*
X27729Y44352D01*
X27776Y44465D01*
X27792Y44587D01*
X27776Y44708D01*
X27729Y44821D01*
X27654Y44918D01*
X27557Y44993D01*
X27444Y45040D01*
X27323Y45056D01*
D02*
G37*
G36*
X26427Y41104D02*
X26358Y41095D01*
X26293Y41068D01*
X26238Y41026D01*
X26196Y40970D01*
X26169Y40906D01*
X26160Y40837D01*
X26169Y40767D01*
X26196Y40703D01*
X26238Y40648D01*
X26293Y40605D01*
X26358Y40578D01*
X26427Y40569D01*
X26496Y40578D01*
X26561Y40605D01*
X26616Y40648D01*
X26659Y40703D01*
X26685Y40767D01*
X26694Y40837D01*
X26685Y40906D01*
X26659Y40970D01*
X26616Y41026D01*
X26561Y41068D01*
X26496Y41095D01*
X26427Y41104D01*
D02*
G37*
G36*
X28219D02*
X28149Y41095D01*
X28085Y41068D01*
X28030Y41026D01*
X27987Y40970D01*
X27960Y40906D01*
X27951Y40837D01*
X27960Y40767D01*
X27987Y40703D01*
X28030Y40648D01*
X28085Y40605D01*
X28149Y40578D01*
X28219Y40569D01*
X28288Y40578D01*
X28352Y40605D01*
X28408Y40648D01*
X28450Y40703D01*
X28477Y40767D01*
X28486Y40837D01*
X28477Y40906D01*
X28450Y40970D01*
X28408Y41026D01*
X28352Y41068D01*
X28288Y41095D01*
X28219Y41104D01*
D02*
G37*
G36*
X32273Y41299D02*
X32201Y41290D01*
X32088Y41243D01*
X31991Y41168D01*
X31917Y41071D01*
X31870Y40958D01*
X31860Y40887D01*
X32273D01*
Y41299D01*
D02*
G37*
G36*
X27323Y47556D02*
X27201Y47540D01*
X27088Y47493D01*
X26991Y47418D01*
X26917Y47321D01*
X26870Y47208D01*
X26854Y47087D01*
X26870Y46965D01*
X26917Y46852D01*
X26991Y46755D01*
X27088Y46680D01*
X27201Y46633D01*
X27323Y46618D01*
X27444Y46633D01*
X27557Y46680D01*
X27654Y46755D01*
X27729Y46852D01*
X27776Y46965D01*
X27792Y47087D01*
X27776Y47208D01*
X27729Y47321D01*
X27654Y47418D01*
X27557Y47493D01*
X27444Y47540D01*
X27323Y47556D01*
D02*
G37*
G36*
X32323D02*
X32201Y47540D01*
X32088Y47493D01*
X31991Y47418D01*
X31917Y47321D01*
X31870Y47208D01*
X31854Y47087D01*
X31870Y46965D01*
X31917Y46852D01*
X31991Y46755D01*
X32088Y46680D01*
X32201Y46633D01*
X32323Y46618D01*
X32444Y46633D01*
X32557Y46680D01*
X32654Y46755D01*
X32729Y46852D01*
X32776Y46965D01*
X32792Y47087D01*
X32776Y47208D01*
X32729Y47321D01*
X32654Y47418D01*
X32557Y47493D01*
X32444Y47540D01*
X32323Y47556D01*
D02*
G37*
G36*
X22520Y49637D02*
X22451Y49628D01*
X22386Y49602D01*
X22331Y49559D01*
X22288Y49504D01*
X22262Y49439D01*
X22252Y49370D01*
X22262Y49301D01*
X22288Y49236D01*
X22331Y49181D01*
X22386Y49139D01*
X22451Y49112D01*
X22520Y49103D01*
X22589Y49112D01*
X22653Y49139D01*
X22709Y49181D01*
X22751Y49236D01*
X22778Y49301D01*
X22787Y49370D01*
X22778Y49439D01*
X22751Y49504D01*
X22709Y49559D01*
X22653Y49602D01*
X22589Y49628D01*
X22520Y49637D01*
D02*
G37*
G36*
X32323Y45056D02*
X32201Y45040D01*
X32088Y44993D01*
X31991Y44918D01*
X31917Y44821D01*
X31870Y44708D01*
X31854Y44587D01*
X31870Y44465D01*
X31917Y44352D01*
X31991Y44255D01*
X32088Y44180D01*
X32201Y44133D01*
X32323Y44118D01*
X32444Y44133D01*
X32557Y44180D01*
X32654Y44255D01*
X32729Y44352D01*
X32776Y44465D01*
X32792Y44587D01*
X32776Y44708D01*
X32729Y44821D01*
X32654Y44918D01*
X32557Y44993D01*
X32444Y45040D01*
X32323Y45056D01*
D02*
G37*
G36*
X27323Y46306D02*
X27201Y46290D01*
X27088Y46243D01*
X26991Y46168D01*
X26917Y46071D01*
X26870Y45958D01*
X26854Y45837D01*
X26870Y45715D01*
X26917Y45602D01*
X26991Y45505D01*
X27088Y45430D01*
X27201Y45383D01*
X27323Y45368D01*
X27444Y45383D01*
X27557Y45430D01*
X27654Y45505D01*
X27729Y45602D01*
X27776Y45715D01*
X27792Y45837D01*
X27776Y45958D01*
X27729Y46071D01*
X27654Y46168D01*
X27557Y46243D01*
X27444Y46290D01*
X27323Y46306D01*
D02*
G37*
G36*
X32323D02*
X32201Y46290D01*
X32088Y46243D01*
X31991Y46168D01*
X31917Y46071D01*
X31870Y45958D01*
X31854Y45837D01*
X31870Y45715D01*
X31917Y45602D01*
X31991Y45505D01*
X32088Y45430D01*
X32201Y45383D01*
X32323Y45368D01*
X32444Y45383D01*
X32557Y45430D01*
X32654Y45505D01*
X32729Y45602D01*
X32776Y45715D01*
X32792Y45837D01*
X32776Y45958D01*
X32729Y46071D01*
X32654Y46168D01*
X32557Y46243D01*
X32444Y46290D01*
X32323Y46306D01*
D02*
G37*
G36*
X58366Y74086D02*
X58302Y74073D01*
X58247Y74036D01*
X58211Y73982D01*
X58198Y73917D01*
X58211Y73853D01*
X58247Y73798D01*
X58302Y73762D01*
X58366Y73749D01*
X58431Y73762D01*
X58485Y73798D01*
X58522Y73853D01*
X58534Y73917D01*
X58522Y73982D01*
X58485Y74036D01*
X58431Y74073D01*
X58366Y74086D01*
D02*
G37*
G36*
X59646D02*
X59581Y74073D01*
X59527Y74036D01*
X59490Y73982D01*
X59477Y73917D01*
X59490Y73853D01*
X59527Y73798D01*
X59581Y73762D01*
X59646Y73749D01*
X59710Y73762D01*
X59765Y73798D01*
X59801Y73853D01*
X59814Y73917D01*
X59801Y73982D01*
X59765Y74036D01*
X59710Y74073D01*
X59646Y74086D01*
D02*
G37*
G36*
X62303D02*
X62239Y74073D01*
X62184Y74036D01*
X62148Y73982D01*
X62135Y73917D01*
X62148Y73853D01*
X62184Y73798D01*
X62239Y73762D01*
X62303Y73749D01*
X62368Y73762D01*
X62422Y73798D01*
X62459Y73853D01*
X62471Y73917D01*
X62459Y73982D01*
X62422Y74036D01*
X62368Y74073D01*
X62303Y74086D01*
D02*
G37*
G36*
X62969Y74218D02*
X62886Y74207D01*
X62810Y74175D01*
X62744Y74125D01*
X62693Y74059D01*
X62662Y73982D01*
X62651Y73900D01*
X62662Y73818D01*
X62693Y73741D01*
X62744Y73675D01*
X62810Y73625D01*
X62886Y73593D01*
X62969Y73582D01*
X63051Y73593D01*
X63127Y73625D01*
X63193Y73675D01*
X63244Y73741D01*
X63275Y73818D01*
X63286Y73900D01*
X63275Y73982D01*
X63244Y74059D01*
X63193Y74125D01*
X63127Y74175D01*
X63051Y74207D01*
X62969Y74218D01*
D02*
G37*
G36*
X45400Y74363D02*
X45306Y74351D01*
X45218Y74315D01*
X45143Y74257D01*
X45085Y74182D01*
X45049Y74094D01*
X45037Y74000D01*
X45049Y73906D01*
X45085Y73818D01*
X45143Y73743D01*
X45218Y73685D01*
X45306Y73649D01*
X45400Y73637D01*
X45494Y73649D01*
X45582Y73685D01*
X45657Y73743D01*
X45715Y73818D01*
X45751Y73906D01*
X45763Y74000D01*
X45751Y74094D01*
X45715Y74182D01*
X45657Y74257D01*
X45582Y74315D01*
X45494Y74351D01*
X45400Y74363D01*
D02*
G37*
G36*
X74125Y73996D02*
X74061Y73983D01*
X74006Y73947D01*
X73970Y73892D01*
X73957Y73828D01*
X73970Y73763D01*
X74006Y73709D01*
X74061Y73672D01*
X74125Y73659D01*
X74190Y73672D01*
X74244Y73709D01*
X74281Y73763D01*
X74293Y73828D01*
X74281Y73892D01*
X74244Y73947D01*
X74190Y73983D01*
X74125Y73996D01*
D02*
G37*
G36*
X61780Y74117D02*
X61715Y74104D01*
X61661Y74068D01*
X61624Y74013D01*
X61611Y73949D01*
X61624Y73884D01*
X61661Y73830D01*
X61715Y73793D01*
X61780Y73781D01*
X61844Y73793D01*
X61898Y73830D01*
X61935Y73884D01*
X61948Y73949D01*
X61935Y74013D01*
X61898Y74068D01*
X61844Y74104D01*
X61780Y74117D01*
D02*
G37*
G36*
X96827Y74211D02*
X96790Y74204D01*
X96758Y74183D01*
X96737Y74151D01*
X96730Y74114D01*
Y73917D01*
X96737Y73880D01*
X96758Y73849D01*
X96790Y73828D01*
X96827Y73820D01*
X96864Y73828D01*
X96895Y73849D01*
X96916Y73880D01*
X96924Y73917D01*
Y74114D01*
X96916Y74151D01*
X96895Y74183D01*
X96864Y74204D01*
X96827Y74211D01*
D02*
G37*
G36*
X107827D02*
X107790Y74204D01*
X107758Y74183D01*
X107737Y74151D01*
X107730Y74114D01*
Y73917D01*
X107737Y73880D01*
X107758Y73849D01*
X107790Y73828D01*
X107827Y73820D01*
X107864Y73828D01*
X107895Y73849D01*
X107916Y73880D01*
X107924Y73917D01*
Y74114D01*
X107916Y74151D01*
X107895Y74183D01*
X107864Y74204D01*
X107827Y74211D01*
D02*
G37*
G36*
X63681Y74086D02*
X63617Y74073D01*
X63562Y74036D01*
X63526Y73982D01*
X63513Y73917D01*
X63526Y73853D01*
X63562Y73798D01*
X63617Y73762D01*
X63681Y73749D01*
X63745Y73762D01*
X63800Y73798D01*
X63837Y73853D01*
X63849Y73917D01*
X63837Y73982D01*
X63800Y74036D01*
X63745Y74073D01*
X63681Y74086D01*
D02*
G37*
G36*
X60205Y74117D02*
X60140Y74104D01*
X60086Y74068D01*
X60049Y74013D01*
X60036Y73949D01*
X60049Y73884D01*
X60086Y73830D01*
X60140Y73793D01*
X60205Y73781D01*
X60269Y73793D01*
X60324Y73830D01*
X60360Y73884D01*
X60373Y73949D01*
X60360Y74013D01*
X60324Y74068D01*
X60269Y74104D01*
X60205Y74117D01*
D02*
G37*
G36*
X60992D02*
X60928Y74104D01*
X60873Y74068D01*
X60837Y74013D01*
X60824Y73949D01*
X60837Y73884D01*
X60873Y73830D01*
X60928Y73793D01*
X60992Y73781D01*
X61057Y73793D01*
X61111Y73830D01*
X61148Y73884D01*
X61160Y73949D01*
X61148Y74013D01*
X61111Y74068D01*
X61057Y74104D01*
X60992Y74117D01*
D02*
G37*
G36*
X108000Y73017D02*
X107931Y73008D01*
X107866Y72981D01*
X107811Y72939D01*
X107769Y72884D01*
X107742Y72819D01*
X107733Y72750D01*
X107742Y72681D01*
X107769Y72616D01*
X107811Y72561D01*
X107866Y72519D01*
X107931Y72492D01*
X108000Y72483D01*
X108069Y72492D01*
X108134Y72519D01*
X108189Y72561D01*
X108231Y72616D01*
X108258Y72681D01*
X108267Y72750D01*
X108258Y72819D01*
X108231Y72884D01*
X108189Y72939D01*
X108134Y72981D01*
X108069Y73008D01*
X108000Y73017D01*
D02*
G37*
G36*
X109000D02*
X108931Y73008D01*
X108866Y72981D01*
X108811Y72939D01*
X108769Y72884D01*
X108742Y72819D01*
X108733Y72750D01*
X108742Y72681D01*
X108769Y72616D01*
X108811Y72561D01*
X108866Y72519D01*
X108931Y72492D01*
X109000Y72483D01*
X109069Y72492D01*
X109134Y72519D01*
X109189Y72561D01*
X109231Y72616D01*
X109258Y72681D01*
X109267Y72750D01*
X109258Y72819D01*
X109231Y72884D01*
X109189Y72939D01*
X109134Y72981D01*
X109069Y73008D01*
X109000Y73017D01*
D02*
G37*
G36*
X45400Y73363D02*
X45306Y73351D01*
X45218Y73315D01*
X45143Y73257D01*
X45085Y73182D01*
X45049Y73094D01*
X45037Y73000D01*
X45049Y72906D01*
X45085Y72818D01*
X45143Y72743D01*
X45218Y72685D01*
X45306Y72649D01*
X45400Y72637D01*
X45494Y72649D01*
X45582Y72685D01*
X45657Y72743D01*
X45715Y72818D01*
X45751Y72906D01*
X45763Y73000D01*
X45751Y73094D01*
X45715Y73182D01*
X45657Y73257D01*
X45582Y73315D01*
X45494Y73351D01*
X45400Y73363D01*
D02*
G37*
G36*
X104000Y73017D02*
X103931Y73008D01*
X103866Y72981D01*
X103811Y72939D01*
X103769Y72884D01*
X103742Y72819D01*
X103733Y72750D01*
X103742Y72681D01*
X103769Y72616D01*
X103811Y72561D01*
X103866Y72519D01*
X103931Y72492D01*
X104000Y72483D01*
X104069Y72492D01*
X104134Y72519D01*
X104189Y72561D01*
X104231Y72616D01*
X104258Y72681D01*
X104267Y72750D01*
X104258Y72819D01*
X104231Y72884D01*
X104189Y72939D01*
X104134Y72981D01*
X104069Y73008D01*
X104000Y73017D01*
D02*
G37*
G36*
X106000D02*
X105931Y73008D01*
X105866Y72981D01*
X105811Y72939D01*
X105769Y72884D01*
X105742Y72819D01*
X105733Y72750D01*
X105742Y72681D01*
X105769Y72616D01*
X105811Y72561D01*
X105866Y72519D01*
X105931Y72492D01*
X106000Y72483D01*
X106069Y72492D01*
X106134Y72519D01*
X106189Y72561D01*
X106231Y72616D01*
X106258Y72681D01*
X106267Y72750D01*
X106258Y72819D01*
X106231Y72884D01*
X106189Y72939D01*
X106134Y72981D01*
X106069Y73008D01*
X106000Y73017D01*
D02*
G37*
G36*
X107000D02*
X106931Y73008D01*
X106866Y72981D01*
X106811Y72939D01*
X106769Y72884D01*
X106742Y72819D01*
X106733Y72750D01*
X106742Y72681D01*
X106769Y72616D01*
X106811Y72561D01*
X106866Y72519D01*
X106931Y72492D01*
X107000Y72483D01*
X107069Y72492D01*
X107134Y72519D01*
X107189Y72561D01*
X107231Y72616D01*
X107258Y72681D01*
X107267Y72750D01*
X107258Y72819D01*
X107231Y72884D01*
X107189Y72939D01*
X107134Y72981D01*
X107069Y73008D01*
X107000Y73017D01*
D02*
G37*
G36*
X73720Y73692D02*
X73656Y73679D01*
X73602Y73643D01*
X73565Y73588D01*
X73552Y73524D01*
X73565Y73459D01*
X73602Y73405D01*
X73656Y73368D01*
X73720Y73355D01*
X73785Y73368D01*
X73839Y73405D01*
X73876Y73459D01*
X73889Y73524D01*
X73876Y73588D01*
X73839Y73643D01*
X73785Y73679D01*
X73720Y73692D01*
D02*
G37*
G36*
X22260Y74260D02*
X21540D01*
Y73540D01*
X22260D01*
Y74260D01*
D02*
G37*
G36*
X59032Y74218D02*
X58949Y74207D01*
X58873Y74175D01*
X58807Y74125D01*
X58756Y74059D01*
X58725Y73982D01*
X58714Y73900D01*
X58725Y73818D01*
X58756Y73741D01*
X58807Y73675D01*
X58873Y73625D01*
X58949Y73593D01*
X59032Y73582D01*
X59114Y73593D01*
X59190Y73625D01*
X59256Y73675D01*
X59307Y73741D01*
X59338Y73818D01*
X59349Y73900D01*
X59338Y73982D01*
X59307Y74059D01*
X59256Y74125D01*
X59190Y74175D01*
X59114Y74207D01*
X59032Y74218D01*
D02*
G37*
G36*
X72244Y73003D02*
X72180Y72990D01*
X72125Y72954D01*
X72089Y72899D01*
X72076Y72835D01*
X72089Y72770D01*
X72125Y72716D01*
X72180Y72679D01*
X72244Y72666D01*
X72308Y72679D01*
X72363Y72716D01*
X72400Y72770D01*
X72412Y72835D01*
X72400Y72899D01*
X72363Y72954D01*
X72308Y72990D01*
X72244Y73003D01*
D02*
G37*
G36*
X25000Y74945D02*
X24816Y74926D01*
X24639Y74873D01*
X24475Y74785D01*
X24332Y74668D01*
X24215Y74525D01*
X24127Y74361D01*
X24074Y74184D01*
X24055Y74000D01*
X24074Y73816D01*
X24127Y73639D01*
X24215Y73475D01*
X24332Y73332D01*
X24475Y73215D01*
X24639Y73127D01*
X24816Y73074D01*
X25000Y73055D01*
X25184Y73074D01*
X25361Y73127D01*
X25525Y73215D01*
X25668Y73332D01*
X25785Y73475D01*
X25873Y73639D01*
X25926Y73816D01*
X25945Y74000D01*
X25926Y74184D01*
X25873Y74361D01*
X25785Y74525D01*
X25668Y74668D01*
X25525Y74785D01*
X25361Y74873D01*
X25184Y74926D01*
X25000Y74945D01*
D02*
G37*
G36*
X69000D02*
X68816Y74926D01*
X68639Y74873D01*
X68475Y74785D01*
X68332Y74668D01*
X68215Y74525D01*
X68127Y74361D01*
X68074Y74184D01*
X68055Y74000D01*
X68074Y73816D01*
X68127Y73639D01*
X68215Y73475D01*
X68332Y73332D01*
X68475Y73215D01*
X68639Y73127D01*
X68816Y73074D01*
X69000Y73055D01*
X69184Y73074D01*
X69361Y73127D01*
X69525Y73215D01*
X69668Y73332D01*
X69785Y73475D01*
X69873Y73639D01*
X69926Y73816D01*
X69945Y74000D01*
X69926Y74184D01*
X69873Y74361D01*
X69785Y74525D01*
X69668Y74668D01*
X69525Y74785D01*
X69361Y74873D01*
X69184Y74926D01*
X69000Y74945D01*
D02*
G37*
G36*
X71950Y76053D02*
X71886Y76040D01*
X71831Y76004D01*
X71795Y75949D01*
X71782Y75885D01*
X71795Y75820D01*
X71831Y75766D01*
X71886Y75729D01*
X71950Y75716D01*
X72014Y75729D01*
X72069Y75766D01*
X72105Y75820D01*
X72118Y75885D01*
X72105Y75949D01*
X72069Y76004D01*
X72014Y76040D01*
X71950Y76053D01*
D02*
G37*
G36*
X48500Y76267D02*
X48431Y76258D01*
X48366Y76231D01*
X48311Y76189D01*
X48269Y76134D01*
X48242Y76069D01*
X48233Y76000D01*
X48242Y75931D01*
X48269Y75866D01*
X48311Y75811D01*
X48366Y75769D01*
X48431Y75742D01*
X48500Y75733D01*
X48569Y75742D01*
X48634Y75769D01*
X48689Y75811D01*
X48731Y75866D01*
X48758Y75931D01*
X48767Y76000D01*
X48758Y76069D01*
X48731Y76134D01*
X48689Y76189D01*
X48634Y76231D01*
X48569Y76258D01*
X48500Y76267D01*
D02*
G37*
G36*
X51476Y76152D02*
X51412Y76140D01*
X51357Y76103D01*
X51321Y76049D01*
X51308Y75984D01*
X51321Y75920D01*
X51357Y75865D01*
X51412Y75829D01*
X51476Y75816D01*
X51541Y75829D01*
X51595Y75865D01*
X51632Y75920D01*
X51645Y75984D01*
X51632Y76049D01*
X51595Y76103D01*
X51541Y76140D01*
X51476Y76152D01*
D02*
G37*
G36*
X73813Y75175D02*
X73748Y75162D01*
X73694Y75125D01*
X73657Y75071D01*
X73644Y75006D01*
X73657Y74942D01*
X73694Y74887D01*
X73748Y74851D01*
X73813Y74838D01*
X73877Y74851D01*
X73932Y74887D01*
X73968Y74942D01*
X73981Y75006D01*
X73968Y75071D01*
X73932Y75125D01*
X73877Y75162D01*
X73813Y75175D01*
D02*
G37*
G36*
X56496Y75267D02*
X56432Y75254D01*
X56377Y75217D01*
X56341Y75163D01*
X56328Y75098D01*
X56341Y75034D01*
X56377Y74979D01*
X56432Y74943D01*
X56496Y74930D01*
X56560Y74943D01*
X56615Y74979D01*
X56651Y75034D01*
X56664Y75098D01*
X56651Y75163D01*
X56615Y75217D01*
X56560Y75254D01*
X56496Y75267D01*
D02*
G37*
G36*
X71842Y75571D02*
X71777Y75558D01*
X71723Y75521D01*
X71686Y75467D01*
X71673Y75402D01*
X71686Y75338D01*
X71717Y75292D01*
X71689Y75251D01*
X71665Y75256D01*
X71600Y75243D01*
X71546Y75206D01*
X71509Y75152D01*
X71496Y75087D01*
X71509Y75023D01*
X71546Y74968D01*
X71600Y74932D01*
X71665Y74919D01*
X71729Y74932D01*
X71784Y74968D01*
X71820Y75023D01*
X71833Y75087D01*
X71820Y75152D01*
X71789Y75197D01*
X71817Y75239D01*
X71842Y75234D01*
X71906Y75247D01*
X71961Y75283D01*
X71997Y75338D01*
X72010Y75402D01*
X71997Y75467D01*
X71961Y75521D01*
X71906Y75558D01*
X71842Y75571D01*
D02*
G37*
G36*
X52500Y76290D02*
X52436Y76277D01*
X52381Y76241D01*
X52345Y76186D01*
X52332Y76122D01*
X52345Y76058D01*
X52381Y76003D01*
X52436Y75967D01*
X52500Y75954D01*
X52564Y75967D01*
X52619Y76003D01*
X52655Y76058D01*
X52668Y76122D01*
X52655Y76186D01*
X52619Y76241D01*
X52564Y76277D01*
X52500Y76290D01*
D02*
G37*
G36*
X50492Y76349D02*
X50428Y76337D01*
X50373Y76300D01*
X50337Y76245D01*
X50324Y76181D01*
X50337Y76117D01*
X50373Y76062D01*
X50428Y76026D01*
X50492Y76013D01*
X50557Y76026D01*
X50611Y76062D01*
X50648Y76117D01*
X50660Y76181D01*
X50648Y76245D01*
X50611Y76300D01*
X50557Y76337D01*
X50492Y76349D01*
D02*
G37*
G36*
X105050Y76768D02*
X104986Y76755D01*
X104931Y76719D01*
X104895Y76664D01*
X104882Y76600D01*
X104895Y76536D01*
X104931Y76481D01*
X104986Y76445D01*
X105050Y76432D01*
X105114Y76445D01*
X105169Y76481D01*
X105205Y76536D01*
X105218Y76600D01*
X105205Y76664D01*
X105169Y76719D01*
X105114Y76755D01*
X105050Y76768D01*
D02*
G37*
G36*
X53500Y76208D02*
X53436Y76195D01*
X53381Y76158D01*
X53345Y76104D01*
X53332Y76039D01*
X53345Y75975D01*
X53381Y75920D01*
X53436Y75884D01*
X53500Y75871D01*
X53564Y75884D01*
X53619Y75920D01*
X53655Y75975D01*
X53668Y76039D01*
X53655Y76104D01*
X53619Y76158D01*
X53564Y76195D01*
X53500Y76208D01*
D02*
G37*
G36*
X49508Y76251D02*
X49443Y76238D01*
X49389Y76202D01*
X49352Y76147D01*
X49340Y76083D01*
X49352Y76018D01*
X49389Y75964D01*
X49443Y75927D01*
X49508Y75914D01*
X49572Y75927D01*
X49627Y75964D01*
X49663Y76018D01*
X49676Y76083D01*
X49663Y76147D01*
X49627Y76202D01*
X49572Y76238D01*
X49508Y76251D01*
D02*
G37*
G36*
X55020D02*
X54955Y76238D01*
X54901Y76202D01*
X54864Y76147D01*
X54851Y76083D01*
X54864Y76018D01*
X54901Y75964D01*
X54955Y75927D01*
X55020Y75914D01*
X55084Y75927D01*
X55139Y75964D01*
X55175Y76018D01*
X55188Y76083D01*
X55175Y76147D01*
X55139Y76202D01*
X55084Y76238D01*
X55020Y76251D01*
D02*
G37*
G36*
X29700Y75168D02*
X29605Y75156D01*
X29516Y75119D01*
X29440Y75060D01*
X29381Y74984D01*
X29344Y74895D01*
X29332Y74800D01*
X29344Y74705D01*
X29381Y74616D01*
X29440Y74540D01*
X29516Y74481D01*
X29605Y74444D01*
X29700Y74432D01*
X29795Y74444D01*
X29884Y74481D01*
X29960Y74540D01*
X30019Y74616D01*
X30056Y74705D01*
X30068Y74800D01*
X30056Y74895D01*
X30019Y74984D01*
X29960Y75060D01*
X29884Y75119D01*
X29795Y75156D01*
X29700Y75168D01*
D02*
G37*
G36*
X30700D02*
X30605Y75156D01*
X30516Y75119D01*
X30440Y75060D01*
X30381Y74984D01*
X30344Y74895D01*
X30332Y74800D01*
X30344Y74705D01*
X30381Y74616D01*
X30440Y74540D01*
X30516Y74481D01*
X30605Y74444D01*
X30700Y74432D01*
X30795Y74444D01*
X30884Y74481D01*
X30960Y74540D01*
X31019Y74616D01*
X31056Y74705D01*
X31068Y74800D01*
X31056Y74895D01*
X31019Y74984D01*
X30960Y75060D01*
X30884Y75119D01*
X30795Y75156D01*
X30700Y75168D01*
D02*
G37*
G36*
X32800D02*
X32705Y75156D01*
X32616Y75119D01*
X32540Y75060D01*
X32481Y74984D01*
X32444Y74895D01*
X32432Y74800D01*
X32444Y74705D01*
X32481Y74616D01*
X32540Y74540D01*
X32616Y74481D01*
X32705Y74444D01*
X32800Y74432D01*
X32895Y74444D01*
X32984Y74481D01*
X33060Y74540D01*
X33119Y74616D01*
X33156Y74705D01*
X33168Y74800D01*
X33156Y74895D01*
X33119Y74984D01*
X33060Y75060D01*
X32984Y75119D01*
X32895Y75156D01*
X32800Y75168D01*
D02*
G37*
G36*
X75619Y74311D02*
X75555Y74298D01*
X75500Y74261D01*
X75463Y74207D01*
X75451Y74143D01*
X75456Y74116D01*
X75227Y73887D01*
X75206Y73856D01*
X75198Y73819D01*
Y73072D01*
X74932Y72805D01*
X74911Y72773D01*
X74903Y72736D01*
Y70705D01*
X74881Y70690D01*
X74845Y70635D01*
X74832Y70571D01*
X74845Y70506D01*
X74881Y70452D01*
X74936Y70415D01*
X75000Y70403D01*
X75064Y70415D01*
X75119Y70452D01*
X75155Y70506D01*
X75168Y70571D01*
X75155Y70635D01*
X75119Y70690D01*
X75097Y70705D01*
Y72696D01*
X75364Y72963D01*
X75385Y72994D01*
X75392Y73032D01*
Y73339D01*
X75440Y73354D01*
X75472Y73306D01*
X75526Y73270D01*
X75591Y73257D01*
X75617Y73262D01*
X76084Y72795D01*
Y71103D01*
X75813Y70832D01*
X75787Y70838D01*
X75723Y70825D01*
X75668Y70788D01*
X75632Y70734D01*
X75619Y70669D01*
X75632Y70605D01*
X75668Y70550D01*
X75723Y70514D01*
X75787Y70501D01*
X75852Y70514D01*
X75906Y70550D01*
X75943Y70605D01*
X75956Y70669D01*
X75950Y70695D01*
X76250Y70995D01*
X76271Y71026D01*
X76278Y71063D01*
Y72453D01*
X76326Y72468D01*
X76357Y72420D01*
X76412Y72384D01*
X76476Y72371D01*
X76541Y72384D01*
X76595Y72420D01*
X76632Y72475D01*
X76645Y72539D01*
X76632Y72604D01*
X76595Y72658D01*
X76541Y72695D01*
X76476Y72708D01*
X76412Y72695D01*
X76357Y72658D01*
X76326Y72611D01*
X76278Y72626D01*
Y72835D01*
X76271Y72872D01*
X76250Y72903D01*
X75754Y73399D01*
X75759Y73425D01*
X75746Y73490D01*
X75710Y73544D01*
X75655Y73581D01*
X75591Y73593D01*
X75526Y73581D01*
X75472Y73544D01*
X75440Y73497D01*
X75392Y73511D01*
Y73779D01*
X75593Y73979D01*
X75619Y73974D01*
X75683Y73987D01*
X75738Y74024D01*
X75774Y74078D01*
X75787Y74143D01*
X75774Y74207D01*
X75738Y74261D01*
X75683Y74298D01*
X75619Y74311D01*
D02*
G37*
G36*
X75343Y74626D02*
X75279Y74613D01*
X75224Y74576D01*
X75188Y74522D01*
X75175Y74457D01*
X75180Y74431D01*
X74538Y73789D01*
X74517Y73758D01*
X74509Y73720D01*
Y71000D01*
X74487Y70985D01*
X74451Y70931D01*
X74438Y70866D01*
X74451Y70802D01*
X74487Y70747D01*
X74542Y70711D01*
X74606Y70698D01*
X74671Y70711D01*
X74725Y70747D01*
X74762Y70802D01*
X74775Y70866D01*
X74762Y70931D01*
X74725Y70985D01*
X74703Y71000D01*
Y73680D01*
X75317Y74294D01*
X75343Y74289D01*
X75408Y74302D01*
X75462Y74339D01*
X75499Y74393D01*
X75512Y74457D01*
X75499Y74522D01*
X75462Y74576D01*
X75408Y74613D01*
X75343Y74626D01*
D02*
G37*
G36*
X28700Y75168D02*
X28605Y75156D01*
X28516Y75119D01*
X28440Y75060D01*
X28381Y74984D01*
X28344Y74895D01*
X28332Y74800D01*
X28344Y74705D01*
X28381Y74616D01*
X28440Y74540D01*
X28516Y74481D01*
X28605Y74444D01*
X28700Y74432D01*
X28795Y74444D01*
X28884Y74481D01*
X28960Y74540D01*
X29019Y74616D01*
X29056Y74705D01*
X29068Y74800D01*
X29056Y74895D01*
X29019Y74984D01*
X28960Y75060D01*
X28884Y75119D01*
X28795Y75156D01*
X28700Y75168D01*
D02*
G37*
G36*
X74128Y74860D02*
X74063Y74847D01*
X74009Y74810D01*
X73972Y74756D01*
X73959Y74691D01*
X73972Y74627D01*
X74009Y74572D01*
X74063Y74536D01*
X74128Y74523D01*
X74192Y74536D01*
X74247Y74572D01*
X74283Y74627D01*
X74296Y74691D01*
X74283Y74756D01*
X74247Y74810D01*
X74192Y74847D01*
X74128Y74860D01*
D02*
G37*
G36*
X21900Y75263D02*
X21806Y75251D01*
X21718Y75215D01*
X21643Y75157D01*
X21585Y75082D01*
X21549Y74994D01*
X21537Y74900D01*
X21549Y74806D01*
X21585Y74718D01*
X21643Y74643D01*
X21718Y74585D01*
X21806Y74549D01*
X21900Y74537D01*
X21994Y74549D01*
X22082Y74585D01*
X22157Y74643D01*
X22215Y74718D01*
X22251Y74806D01*
X22263Y74900D01*
X22251Y74994D01*
X22215Y75082D01*
X22157Y75157D01*
X22082Y75215D01*
X21994Y75251D01*
X21900Y75263D01*
D02*
G37*
G36*
X45760Y75360D02*
X45040D01*
Y74640D01*
X45760D01*
Y75360D01*
D02*
G37*
G36*
X33800Y75168D02*
X33705Y75156D01*
X33616Y75119D01*
X33540Y75060D01*
X33481Y74984D01*
X33444Y74895D01*
X33432Y74800D01*
X33444Y74705D01*
X33481Y74616D01*
X33540Y74540D01*
X33616Y74481D01*
X33705Y74444D01*
X33800Y74432D01*
X33895Y74444D01*
X33984Y74481D01*
X34060Y74540D01*
X34119Y74616D01*
X34156Y74705D01*
X34168Y74800D01*
X34156Y74895D01*
X34119Y74984D01*
X34060Y75060D01*
X33984Y75119D01*
X33895Y75156D01*
X33800Y75168D01*
D02*
G37*
G36*
X34800D02*
X34705Y75156D01*
X34616Y75119D01*
X34540Y75060D01*
X34481Y74984D01*
X34444Y74895D01*
X34432Y74800D01*
X34444Y74705D01*
X34481Y74616D01*
X34540Y74540D01*
X34616Y74481D01*
X34705Y74444D01*
X34800Y74432D01*
X34895Y74444D01*
X34984Y74481D01*
X35060Y74540D01*
X35119Y74616D01*
X35156Y74705D01*
X35168Y74800D01*
X35156Y74895D01*
X35119Y74984D01*
X35060Y75060D01*
X34984Y75119D01*
X34895Y75156D01*
X34800Y75168D01*
D02*
G37*
G36*
X76870Y74775D02*
X76806Y74762D01*
X76751Y74725D01*
X76715Y74671D01*
X76702Y74606D01*
X76715Y74542D01*
X76751Y74487D01*
X76806Y74451D01*
X76870Y74438D01*
X76934Y74451D01*
X76989Y74487D01*
X77026Y74542D01*
X77038Y74606D01*
X77026Y74671D01*
X76989Y74725D01*
X76934Y74762D01*
X76870Y74775D01*
D02*
G37*
G36*
X107000Y72120D02*
X106931Y72111D01*
X106866Y72084D01*
X106811Y72042D01*
X106769Y71986D01*
X106742Y71922D01*
X106733Y71853D01*
X106742Y71784D01*
X106769Y71719D01*
X106811Y71664D01*
X106866Y71621D01*
X106931Y71595D01*
X107000Y71585D01*
X107069Y71595D01*
X107134Y71621D01*
X107189Y71664D01*
X107231Y71719D01*
X107258Y71784D01*
X107267Y71853D01*
X107258Y71922D01*
X107231Y71986D01*
X107189Y72042D01*
X107134Y72084D01*
X107069Y72111D01*
X107000Y72120D01*
D02*
G37*
G36*
X48500Y72267D02*
X48431Y72258D01*
X48366Y72231D01*
X48311Y72189D01*
X48269Y72134D01*
X48242Y72069D01*
X48233Y72000D01*
X48242Y71931D01*
X48269Y71866D01*
X48311Y71811D01*
X48366Y71769D01*
X48431Y71742D01*
X48500Y71733D01*
X48569Y71742D01*
X48634Y71769D01*
X48689Y71811D01*
X48731Y71866D01*
X48758Y71931D01*
X48767Y72000D01*
X48758Y72069D01*
X48731Y72134D01*
X48689Y72189D01*
X48634Y72231D01*
X48569Y72258D01*
X48500Y72267D01*
D02*
G37*
G36*
X49500D02*
X49431Y72258D01*
X49366Y72231D01*
X49311Y72189D01*
X49269Y72134D01*
X49242Y72069D01*
X49233Y72000D01*
X49242Y71931D01*
X49269Y71866D01*
X49311Y71811D01*
X49366Y71769D01*
X49431Y71742D01*
X49500Y71733D01*
X49569Y71742D01*
X49634Y71769D01*
X49689Y71811D01*
X49731Y71866D01*
X49758Y71931D01*
X49767Y72000D01*
X49758Y72069D01*
X49731Y72134D01*
X49689Y72189D01*
X49634Y72231D01*
X49569Y72258D01*
X49500Y72267D01*
D02*
G37*
G36*
X93008Y72090D02*
X92939Y72081D01*
X92874Y72054D01*
X92819Y72012D01*
X92776Y71956D01*
X92750Y71892D01*
X92741Y71823D01*
X92750Y71754D01*
X92776Y71689D01*
X92819Y71634D01*
X92874Y71591D01*
X92939Y71565D01*
X93008Y71556D01*
X93077Y71565D01*
X93142Y71591D01*
X93197Y71634D01*
X93239Y71689D01*
X93266Y71754D01*
X93275Y71823D01*
X93266Y71892D01*
X93239Y71956D01*
X93197Y72012D01*
X93142Y72054D01*
X93077Y72081D01*
X93008Y72090D01*
D02*
G37*
G36*
X104000Y72092D02*
X103931Y72083D01*
X103866Y72056D01*
X103811Y72013D01*
X103769Y71958D01*
X103742Y71894D01*
X103733Y71824D01*
X103742Y71755D01*
X103769Y71691D01*
X103811Y71635D01*
X103866Y71593D01*
X103931Y71566D01*
X104000Y71557D01*
X104069Y71566D01*
X104134Y71593D01*
X104189Y71635D01*
X104231Y71691D01*
X104258Y71755D01*
X104267Y71824D01*
X104258Y71894D01*
X104231Y71958D01*
X104189Y72013D01*
X104134Y72056D01*
X104069Y72083D01*
X104000Y72092D01*
D02*
G37*
G36*
X96008Y72106D02*
X95939Y72097D01*
X95874Y72070D01*
X95819Y72028D01*
X95776Y71972D01*
X95750Y71908D01*
X95741Y71839D01*
X95750Y71769D01*
X95776Y71705D01*
X95819Y71650D01*
X95874Y71607D01*
X95939Y71580D01*
X96008Y71571D01*
X96077Y71580D01*
X96142Y71607D01*
X96197Y71650D01*
X96239Y71705D01*
X96266Y71769D01*
X96275Y71839D01*
X96266Y71908D01*
X96239Y71972D01*
X96197Y72028D01*
X96142Y72070D01*
X96077Y72097D01*
X96008Y72106D01*
D02*
G37*
G36*
X55500Y72267D02*
X55431Y72258D01*
X55366Y72231D01*
X55311Y72189D01*
X55269Y72134D01*
X55242Y72069D01*
X55233Y72000D01*
X55242Y71931D01*
X55269Y71866D01*
X55311Y71811D01*
X55366Y71769D01*
X55431Y71742D01*
X55500Y71733D01*
X55569Y71742D01*
X55634Y71769D01*
X55689Y71811D01*
X55731Y71866D01*
X55758Y71931D01*
X55767Y72000D01*
X55758Y72069D01*
X55731Y72134D01*
X55689Y72189D01*
X55634Y72231D01*
X55569Y72258D01*
X55500Y72267D01*
D02*
G37*
G36*
X51500Y72118D02*
X51436Y72105D01*
X51381Y72069D01*
X51345Y72014D01*
X51332Y71950D01*
X51345Y71886D01*
X51381Y71831D01*
X51436Y71795D01*
X51500Y71782D01*
X51564Y71795D01*
X51619Y71831D01*
X51655Y71886D01*
X51668Y71950D01*
X51655Y72014D01*
X51619Y72069D01*
X51564Y72105D01*
X51500Y72118D01*
D02*
G37*
G36*
X60532Y72215D02*
X60467Y72203D01*
X60413Y72166D01*
X60376Y72112D01*
X60363Y72047D01*
X60376Y71983D01*
X60413Y71928D01*
X60467Y71892D01*
X60532Y71879D01*
X60596Y71892D01*
X60650Y71928D01*
X60687Y71983D01*
X60700Y72047D01*
X60687Y72112D01*
X60650Y72166D01*
X60596Y72203D01*
X60532Y72215D01*
D02*
G37*
G36*
X52500Y72267D02*
X52431Y72258D01*
X52366Y72231D01*
X52311Y72189D01*
X52269Y72134D01*
X52242Y72069D01*
X52233Y72000D01*
X52242Y71931D01*
X52269Y71866D01*
X52311Y71811D01*
X52366Y71769D01*
X52431Y71742D01*
X52500Y71733D01*
X52569Y71742D01*
X52634Y71769D01*
X52689Y71811D01*
X52731Y71866D01*
X52758Y71931D01*
X52767Y72000D01*
X52758Y72069D01*
X52731Y72134D01*
X52689Y72189D01*
X52634Y72231D01*
X52569Y72258D01*
X52500Y72267D01*
D02*
G37*
G36*
X53500D02*
X53431Y72258D01*
X53366Y72231D01*
X53311Y72189D01*
X53269Y72134D01*
X53242Y72069D01*
X53233Y72000D01*
X53242Y71931D01*
X53269Y71866D01*
X53311Y71811D01*
X53366Y71769D01*
X53431Y71742D01*
X53500Y71733D01*
X53569Y71742D01*
X53634Y71769D01*
X53689Y71811D01*
X53731Y71866D01*
X53758Y71931D01*
X53767Y72000D01*
X53758Y72069D01*
X53731Y72134D01*
X53689Y72189D01*
X53634Y72231D01*
X53569Y72258D01*
X53500Y72267D01*
D02*
G37*
G36*
X54500D02*
X54431Y72258D01*
X54366Y72231D01*
X54311Y72189D01*
X54269Y72134D01*
X54242Y72069D01*
X54233Y72000D01*
X54242Y71931D01*
X54269Y71866D01*
X54311Y71811D01*
X54366Y71769D01*
X54431Y71742D01*
X54500Y71733D01*
X54569Y71742D01*
X54634Y71769D01*
X54689Y71811D01*
X54731Y71866D01*
X54758Y71931D01*
X54767Y72000D01*
X54758Y72069D01*
X54731Y72134D01*
X54689Y72189D01*
X54634Y72231D01*
X54569Y72258D01*
X54500Y72267D01*
D02*
G37*
G36*
X22480Y71212D02*
X22411Y71203D01*
X22347Y71176D01*
X22291Y71134D01*
X22249Y71079D01*
X22222Y71014D01*
X22213Y70945D01*
X22222Y70876D01*
X22249Y70811D01*
X22291Y70756D01*
X22347Y70713D01*
X22411Y70687D01*
X22480Y70678D01*
X22550Y70687D01*
X22614Y70713D01*
X22669Y70756D01*
X22712Y70811D01*
X22739Y70876D01*
X22748Y70945D01*
X22739Y71014D01*
X22712Y71079D01*
X22669Y71134D01*
X22614Y71176D01*
X22550Y71203D01*
X22480Y71212D01*
D02*
G37*
G36*
X23760D02*
X23691Y71203D01*
X23626Y71176D01*
X23571Y71134D01*
X23528Y71079D01*
X23502Y71014D01*
X23493Y70945D01*
X23502Y70876D01*
X23528Y70811D01*
X23571Y70756D01*
X23626Y70713D01*
X23691Y70687D01*
X23760Y70678D01*
X23829Y70687D01*
X23894Y70713D01*
X23949Y70756D01*
X23991Y70811D01*
X24018Y70876D01*
X24027Y70945D01*
X24018Y71014D01*
X23991Y71079D01*
X23949Y71134D01*
X23894Y71176D01*
X23829Y71203D01*
X23760Y71212D01*
D02*
G37*
G36*
X85969Y71797D02*
X85864Y71783D01*
X85767Y71743D01*
X85683Y71679D01*
X85619Y71595D01*
X85579Y71498D01*
X85565Y71394D01*
X85579Y71289D01*
X85619Y71192D01*
X85683Y71109D01*
X85767Y71045D01*
X85864Y71004D01*
X85969Y70991D01*
X86073Y71004D01*
X86170Y71045D01*
X86254Y71109D01*
X86318Y71192D01*
X86358Y71289D01*
X86372Y71394D01*
X86358Y71498D01*
X86318Y71595D01*
X86254Y71679D01*
X86170Y71743D01*
X86073Y71783D01*
X85969Y71797D01*
D02*
G37*
G36*
X80917Y71403D02*
X80813Y71389D01*
X80716Y71349D01*
X80632Y71285D01*
X80568Y71202D01*
X80528Y71104D01*
X80514Y71000D01*
X80528Y70896D01*
X80568Y70798D01*
X80632Y70715D01*
X80716Y70651D01*
X80813Y70611D01*
X80917Y70597D01*
X81022Y70611D01*
X81119Y70651D01*
X81202Y70715D01*
X81266Y70798D01*
X81307Y70896D01*
X81320Y71000D01*
X81307Y71104D01*
X81266Y71202D01*
X81202Y71285D01*
X81119Y71349D01*
X81022Y71389D01*
X80917Y71403D01*
D02*
G37*
G36*
X91917D02*
X91813Y71389D01*
X91716Y71349D01*
X91632Y71285D01*
X91568Y71202D01*
X91528Y71104D01*
X91514Y71000D01*
X91528Y70896D01*
X91568Y70798D01*
X91632Y70715D01*
X91716Y70651D01*
X91813Y70611D01*
X91917Y70597D01*
X92022Y70611D01*
X92119Y70651D01*
X92202Y70715D01*
X92266Y70798D01*
X92307Y70896D01*
X92320Y71000D01*
X92307Y71104D01*
X92266Y71202D01*
X92202Y71285D01*
X92119Y71349D01*
X92022Y71389D01*
X91917Y71403D01*
D02*
G37*
G36*
X102917D02*
X102813Y71389D01*
X102716Y71349D01*
X102632Y71285D01*
X102568Y71202D01*
X102528Y71104D01*
X102514Y71000D01*
X102528Y70896D01*
X102568Y70798D01*
X102632Y70715D01*
X102716Y70651D01*
X102813Y70611D01*
X102917Y70597D01*
X103022Y70611D01*
X103119Y70651D01*
X103202Y70715D01*
X103266Y70798D01*
X103307Y70896D01*
X103320Y71000D01*
X103307Y71104D01*
X103266Y71202D01*
X103202Y71285D01*
X103119Y71349D01*
X103022Y71389D01*
X102917Y71403D01*
D02*
G37*
G36*
X83518Y72051D02*
X83449Y72042D01*
X83384Y72015D01*
X83329Y71972D01*
X83287Y71917D01*
X83260Y71853D01*
X83251Y71783D01*
X83260Y71714D01*
X83287Y71650D01*
X83329Y71594D01*
X83384Y71552D01*
X83449Y71525D01*
X83518Y71516D01*
X83587Y71525D01*
X83652Y71552D01*
X83707Y71594D01*
X83750Y71650D01*
X83776Y71714D01*
X83785Y71783D01*
X83776Y71853D01*
X83750Y71917D01*
X83707Y71972D01*
X83652Y72015D01*
X83587Y72042D01*
X83518Y72051D01*
D02*
G37*
G36*
X85014D02*
X84945Y72042D01*
X84881Y72015D01*
X84825Y71972D01*
X84783Y71917D01*
X84756Y71853D01*
X84747Y71783D01*
X84756Y71714D01*
X84783Y71650D01*
X84825Y71594D01*
X84881Y71552D01*
X84945Y71525D01*
X85014Y71516D01*
X85083Y71525D01*
X85148Y71552D01*
X85203Y71594D01*
X85246Y71650D01*
X85272Y71714D01*
X85281Y71783D01*
X85272Y71853D01*
X85246Y71917D01*
X85203Y71972D01*
X85148Y72015D01*
X85083Y72042D01*
X85014Y72051D01*
D02*
G37*
G36*
X105500Y72056D02*
X105431Y72047D01*
X105366Y72020D01*
X105311Y71978D01*
X105269Y71923D01*
X105242Y71858D01*
X105233Y71789D01*
X105242Y71720D01*
X105269Y71655D01*
X105311Y71600D01*
X105366Y71557D01*
X105431Y71531D01*
X105500Y71522D01*
X105569Y71531D01*
X105634Y71557D01*
X105689Y71600D01*
X105731Y71655D01*
X105758Y71720D01*
X105767Y71789D01*
X105758Y71858D01*
X105731Y71923D01*
X105689Y71978D01*
X105634Y72020D01*
X105569Y72047D01*
X105500Y72056D01*
D02*
G37*
G36*
X96968Y71797D02*
X96864Y71783D01*
X96767Y71743D01*
X96683Y71679D01*
X96619Y71595D01*
X96579Y71498D01*
X96565Y71394D01*
X96579Y71289D01*
X96619Y71192D01*
X96683Y71109D01*
X96767Y71045D01*
X96864Y71004D01*
X96968Y70991D01*
X97073Y71004D01*
X97170Y71045D01*
X97254Y71109D01*
X97318Y71192D01*
X97358Y71289D01*
X97372Y71394D01*
X97358Y71498D01*
X97318Y71595D01*
X97254Y71679D01*
X97170Y71743D01*
X97073Y71783D01*
X96968Y71797D01*
D02*
G37*
G36*
X107969D02*
X107864Y71783D01*
X107767Y71743D01*
X107683Y71679D01*
X107619Y71595D01*
X107579Y71498D01*
X107565Y71394D01*
X107579Y71289D01*
X107619Y71192D01*
X107683Y71109D01*
X107767Y71045D01*
X107864Y71004D01*
X107969Y70991D01*
X108073Y71004D01*
X108170Y71045D01*
X108254Y71109D01*
X108318Y71192D01*
X108358Y71289D01*
X108372Y71394D01*
X108358Y71498D01*
X108318Y71595D01*
X108254Y71679D01*
X108170Y71743D01*
X108073Y71783D01*
X107969Y71797D01*
D02*
G37*
G36*
X82022Y72051D02*
X81953Y72042D01*
X81888Y72015D01*
X81833Y71972D01*
X81791Y71917D01*
X81764Y71853D01*
X81755Y71783D01*
X81764Y71714D01*
X81791Y71650D01*
X81833Y71594D01*
X81888Y71552D01*
X81953Y71525D01*
X82022Y71516D01*
X82091Y71525D01*
X82156Y71552D01*
X82211Y71594D01*
X82254Y71650D01*
X82280Y71714D01*
X82289Y71783D01*
X82280Y71853D01*
X82254Y71917D01*
X82211Y71972D01*
X82156Y72015D01*
X82091Y72042D01*
X82022Y72051D01*
D02*
G37*
G36*
X91000Y73017D02*
X90931Y73008D01*
X90866Y72981D01*
X90811Y72939D01*
X90769Y72884D01*
X90742Y72819D01*
X90733Y72750D01*
X90742Y72681D01*
X90769Y72616D01*
X90811Y72561D01*
X90866Y72519D01*
X90931Y72492D01*
X91000Y72483D01*
X91069Y72492D01*
X91134Y72519D01*
X91189Y72561D01*
X91231Y72616D01*
X91258Y72681D01*
X91267Y72750D01*
X91258Y72819D01*
X91231Y72884D01*
X91189Y72939D01*
X91134Y72981D01*
X91069Y73008D01*
X91000Y73017D01*
D02*
G37*
G36*
X92000D02*
X91931Y73008D01*
X91866Y72981D01*
X91811Y72939D01*
X91769Y72884D01*
X91742Y72819D01*
X91733Y72750D01*
X91742Y72681D01*
X91769Y72616D01*
X91811Y72561D01*
X91866Y72519D01*
X91931Y72492D01*
X92000Y72483D01*
X92069Y72492D01*
X92134Y72519D01*
X92189Y72561D01*
X92231Y72616D01*
X92258Y72681D01*
X92267Y72750D01*
X92258Y72819D01*
X92231Y72884D01*
X92189Y72939D01*
X92134Y72981D01*
X92069Y73008D01*
X92000Y73017D01*
D02*
G37*
G36*
X93000D02*
X92931Y73008D01*
X92866Y72981D01*
X92811Y72939D01*
X92769Y72884D01*
X92742Y72819D01*
X92733Y72750D01*
X92742Y72681D01*
X92769Y72616D01*
X92811Y72561D01*
X92866Y72519D01*
X92931Y72492D01*
X93000Y72483D01*
X93069Y72492D01*
X93134Y72519D01*
X93189Y72561D01*
X93231Y72616D01*
X93258Y72681D01*
X93267Y72750D01*
X93258Y72819D01*
X93231Y72884D01*
X93189Y72939D01*
X93134Y72981D01*
X93069Y73008D01*
X93000Y73017D01*
D02*
G37*
G36*
X85000D02*
X84931Y73008D01*
X84866Y72981D01*
X84811Y72939D01*
X84769Y72884D01*
X84742Y72819D01*
X84733Y72750D01*
X84742Y72681D01*
X84769Y72616D01*
X84811Y72561D01*
X84866Y72519D01*
X84931Y72492D01*
X85000Y72483D01*
X85069Y72492D01*
X85134Y72519D01*
X85189Y72561D01*
X85231Y72616D01*
X85258Y72681D01*
X85267Y72750D01*
X85258Y72819D01*
X85231Y72884D01*
X85189Y72939D01*
X85134Y72981D01*
X85069Y73008D01*
X85000Y73017D01*
D02*
G37*
G36*
X86000D02*
X85931Y73008D01*
X85866Y72981D01*
X85811Y72939D01*
X85769Y72884D01*
X85742Y72819D01*
X85733Y72750D01*
X85742Y72681D01*
X85769Y72616D01*
X85811Y72561D01*
X85866Y72519D01*
X85931Y72492D01*
X86000Y72483D01*
X86069Y72492D01*
X86134Y72519D01*
X86189Y72561D01*
X86231Y72616D01*
X86258Y72681D01*
X86267Y72750D01*
X86258Y72819D01*
X86231Y72884D01*
X86189Y72939D01*
X86134Y72981D01*
X86069Y73008D01*
X86000Y73017D01*
D02*
G37*
G36*
X87000D02*
X86931Y73008D01*
X86866Y72981D01*
X86811Y72939D01*
X86769Y72884D01*
X86742Y72819D01*
X86733Y72750D01*
X86742Y72681D01*
X86769Y72616D01*
X86811Y72561D01*
X86866Y72519D01*
X86931Y72492D01*
X87000Y72483D01*
X87069Y72492D01*
X87134Y72519D01*
X87189Y72561D01*
X87231Y72616D01*
X87258Y72681D01*
X87267Y72750D01*
X87258Y72819D01*
X87231Y72884D01*
X87189Y72939D01*
X87134Y72981D01*
X87069Y73008D01*
X87000Y73017D01*
D02*
G37*
G36*
X98000D02*
X97931Y73008D01*
X97866Y72981D01*
X97811Y72939D01*
X97769Y72884D01*
X97742Y72819D01*
X97733Y72750D01*
X97742Y72681D01*
X97769Y72616D01*
X97811Y72561D01*
X97866Y72519D01*
X97931Y72492D01*
X98000Y72483D01*
X98069Y72492D01*
X98134Y72519D01*
X98189Y72561D01*
X98231Y72616D01*
X98258Y72681D01*
X98267Y72750D01*
X98258Y72819D01*
X98231Y72884D01*
X98189Y72939D01*
X98134Y72981D01*
X98069Y73008D01*
X98000Y73017D01*
D02*
G37*
G36*
X102000D02*
X101931Y73008D01*
X101866Y72981D01*
X101811Y72939D01*
X101769Y72884D01*
X101742Y72819D01*
X101733Y72750D01*
X101742Y72681D01*
X101769Y72616D01*
X101811Y72561D01*
X101866Y72519D01*
X101931Y72492D01*
X102000Y72483D01*
X102069Y72492D01*
X102134Y72519D01*
X102189Y72561D01*
X102231Y72616D01*
X102258Y72681D01*
X102267Y72750D01*
X102258Y72819D01*
X102231Y72884D01*
X102189Y72939D01*
X102134Y72981D01*
X102069Y73008D01*
X102000Y73017D01*
D02*
G37*
G36*
X103000D02*
X102931Y73008D01*
X102866Y72981D01*
X102811Y72939D01*
X102769Y72884D01*
X102742Y72819D01*
X102733Y72750D01*
X102742Y72681D01*
X102769Y72616D01*
X102811Y72561D01*
X102866Y72519D01*
X102931Y72492D01*
X103000Y72483D01*
X103069Y72492D01*
X103134Y72519D01*
X103189Y72561D01*
X103231Y72616D01*
X103258Y72681D01*
X103267Y72750D01*
X103258Y72819D01*
X103231Y72884D01*
X103189Y72939D01*
X103134Y72981D01*
X103069Y73008D01*
X103000Y73017D01*
D02*
G37*
G36*
X95000D02*
X94931Y73008D01*
X94866Y72981D01*
X94811Y72939D01*
X94769Y72884D01*
X94742Y72819D01*
X94733Y72750D01*
X94742Y72681D01*
X94769Y72616D01*
X94811Y72561D01*
X94866Y72519D01*
X94931Y72492D01*
X95000Y72483D01*
X95069Y72492D01*
X95134Y72519D01*
X95189Y72561D01*
X95231Y72616D01*
X95258Y72681D01*
X95267Y72750D01*
X95258Y72819D01*
X95231Y72884D01*
X95189Y72939D01*
X95134Y72981D01*
X95069Y73008D01*
X95000Y73017D01*
D02*
G37*
G36*
X96000D02*
X95931Y73008D01*
X95866Y72981D01*
X95811Y72939D01*
X95769Y72884D01*
X95742Y72819D01*
X95733Y72750D01*
X95742Y72681D01*
X95769Y72616D01*
X95811Y72561D01*
X95866Y72519D01*
X95931Y72492D01*
X96000Y72483D01*
X96069Y72492D01*
X96134Y72519D01*
X96189Y72561D01*
X96231Y72616D01*
X96258Y72681D01*
X96267Y72750D01*
X96258Y72819D01*
X96231Y72884D01*
X96189Y72939D01*
X96134Y72981D01*
X96069Y73008D01*
X96000Y73017D01*
D02*
G37*
G36*
X97000D02*
X96931Y73008D01*
X96866Y72981D01*
X96811Y72939D01*
X96769Y72884D01*
X96742Y72819D01*
X96733Y72750D01*
X96742Y72681D01*
X96769Y72616D01*
X96811Y72561D01*
X96866Y72519D01*
X96931Y72492D01*
X97000Y72483D01*
X97069Y72492D01*
X97134Y72519D01*
X97189Y72561D01*
X97231Y72616D01*
X97258Y72681D01*
X97267Y72750D01*
X97258Y72819D01*
X97231Y72884D01*
X97189Y72939D01*
X97134Y72981D01*
X97069Y73008D01*
X97000Y73017D01*
D02*
G37*
G36*
X60138Y72314D02*
X60073Y72301D01*
X60019Y72265D01*
X59982Y72210D01*
X59970Y72146D01*
X59982Y72081D01*
X60019Y72027D01*
X60073Y71990D01*
X60138Y71977D01*
X60202Y71990D01*
X60257Y72027D01*
X60293Y72081D01*
X60306Y72146D01*
X60293Y72210D01*
X60257Y72265D01*
X60202Y72301D01*
X60138Y72314D01*
D02*
G37*
G36*
X74114D02*
X74050Y72301D01*
X73995Y72265D01*
X73959Y72210D01*
X73946Y72146D01*
X73959Y72081D01*
X73995Y72027D01*
X74050Y71990D01*
X74114Y71977D01*
X74179Y71990D01*
X74233Y72027D01*
X74270Y72081D01*
X74282Y72146D01*
X74270Y72210D01*
X74233Y72265D01*
X74179Y72301D01*
X74114Y72314D01*
D02*
G37*
G36*
X76772D02*
X76707Y72301D01*
X76653Y72265D01*
X76616Y72210D01*
X76603Y72146D01*
X76616Y72081D01*
X76653Y72027D01*
X76707Y71990D01*
X76772Y71977D01*
X76836Y71990D01*
X76891Y72027D01*
X76927Y72081D01*
X76940Y72146D01*
X76927Y72210D01*
X76891Y72265D01*
X76836Y72301D01*
X76772Y72314D01*
D02*
G37*
G36*
X50500Y72268D02*
X50436Y72255D01*
X50381Y72219D01*
X50345Y72164D01*
X50332Y72100D01*
X50345Y72036D01*
X50381Y71981D01*
X50436Y71945D01*
X50500Y71932D01*
X50564Y71945D01*
X50619Y71981D01*
X50655Y72036D01*
X50668Y72100D01*
X50655Y72164D01*
X50619Y72219D01*
X50564Y72255D01*
X50500Y72268D01*
D02*
G37*
G36*
X58661Y72314D02*
X58597Y72301D01*
X58542Y72265D01*
X58506Y72210D01*
X58493Y72146D01*
X58506Y72081D01*
X58542Y72027D01*
X58597Y71990D01*
X58661Y71977D01*
X58726Y71990D01*
X58780Y72027D01*
X58817Y72081D01*
X58830Y72146D01*
X58817Y72210D01*
X58780Y72265D01*
X58726Y72301D01*
X58661Y72314D01*
D02*
G37*
G36*
X59154D02*
X59089Y72301D01*
X59035Y72265D01*
X58998Y72210D01*
X58985Y72146D01*
X58998Y72081D01*
X59035Y72027D01*
X59089Y71990D01*
X59154Y71977D01*
X59218Y71990D01*
X59272Y72027D01*
X59309Y72081D01*
X59322Y72146D01*
X59309Y72210D01*
X59272Y72265D01*
X59218Y72301D01*
X59154Y72314D01*
D02*
G37*
G36*
X81000Y73017D02*
X80931Y73008D01*
X80866Y72981D01*
X80811Y72939D01*
X80769Y72884D01*
X80742Y72819D01*
X80733Y72750D01*
X80742Y72681D01*
X80769Y72616D01*
X80811Y72561D01*
X80866Y72519D01*
X80931Y72492D01*
X81000Y72483D01*
X81069Y72492D01*
X81134Y72519D01*
X81189Y72561D01*
X81231Y72616D01*
X81258Y72681D01*
X81267Y72750D01*
X81258Y72819D01*
X81231Y72884D01*
X81189Y72939D01*
X81134Y72981D01*
X81069Y73008D01*
X81000Y73017D01*
D02*
G37*
G36*
X82000D02*
X81931Y73008D01*
X81866Y72981D01*
X81811Y72939D01*
X81769Y72884D01*
X81742Y72819D01*
X81733Y72750D01*
X81742Y72681D01*
X81769Y72616D01*
X81811Y72561D01*
X81866Y72519D01*
X81931Y72492D01*
X82000Y72483D01*
X82069Y72492D01*
X82134Y72519D01*
X82189Y72561D01*
X82231Y72616D01*
X82258Y72681D01*
X82267Y72750D01*
X82258Y72819D01*
X82231Y72884D01*
X82189Y72939D01*
X82134Y72981D01*
X82069Y73008D01*
X82000Y73017D01*
D02*
G37*
G36*
X84000D02*
X83931Y73008D01*
X83866Y72981D01*
X83811Y72939D01*
X83769Y72884D01*
X83742Y72819D01*
X83733Y72750D01*
X83742Y72681D01*
X83769Y72616D01*
X83811Y72561D01*
X83866Y72519D01*
X83931Y72492D01*
X84000Y72483D01*
X84069Y72492D01*
X84134Y72519D01*
X84189Y72561D01*
X84231Y72616D01*
X84258Y72681D01*
X84267Y72750D01*
X84258Y72819D01*
X84231Y72884D01*
X84189Y72939D01*
X84134Y72981D01*
X84069Y73008D01*
X84000Y73017D01*
D02*
G37*
G36*
X61780Y72444D02*
X61715Y72431D01*
X61661Y72395D01*
X61624Y72340D01*
X61611Y72276D01*
X61624Y72211D01*
X61661Y72157D01*
X61715Y72120D01*
X61780Y72107D01*
X61844Y72120D01*
X61898Y72157D01*
X61935Y72211D01*
X61948Y72276D01*
X61935Y72340D01*
X61898Y72395D01*
X61844Y72431D01*
X61780Y72444D01*
D02*
G37*
G36*
X75689Y72412D02*
X75625Y72400D01*
X75570Y72363D01*
X75566Y72358D01*
X75516D01*
X75513Y72363D01*
X75458Y72400D01*
X75394Y72412D01*
X75329Y72400D01*
X75275Y72363D01*
X75238Y72308D01*
X75225Y72244D01*
X75238Y72180D01*
X75275Y72125D01*
X75329Y72089D01*
X75394Y72076D01*
X75458Y72089D01*
X75513Y72125D01*
X75516Y72131D01*
X75566D01*
X75570Y72125D01*
X75625Y72089D01*
X75689Y72076D01*
X75753Y72089D01*
X75808Y72125D01*
X75844Y72180D01*
X75857Y72244D01*
X75844Y72308D01*
X75808Y72363D01*
X75753Y72400D01*
X75689Y72412D01*
D02*
G37*
G36*
X80000Y73017D02*
X79931Y73008D01*
X79866Y72981D01*
X79811Y72939D01*
X79769Y72884D01*
X79742Y72819D01*
X79733Y72750D01*
X79742Y72681D01*
X79769Y72616D01*
X79811Y72561D01*
X79866Y72519D01*
X79931Y72492D01*
X80000Y72483D01*
X80069Y72492D01*
X80134Y72519D01*
X80189Y72561D01*
X80231Y72616D01*
X80258Y72681D01*
X80267Y72750D01*
X80258Y72819D01*
X80231Y72884D01*
X80189Y72939D01*
X80134Y72981D01*
X80069Y73008D01*
X80000Y73017D01*
D02*
G37*
%LPD*%
D32*
X31427Y40837D02*
D03*
X32323Y41732D02*
D03*
Y39941D02*
D03*
X33219Y40837D02*
D03*
X31427Y57431D02*
D03*
X32323Y58327D02*
D03*
Y56535D02*
D03*
X33219Y57431D02*
D03*
X36083Y65905D02*
D03*
X23878Y43307D02*
D03*
X22598D02*
D03*
X23799Y46063D02*
D03*
X22520D02*
D03*
X23760Y65669D02*
D03*
X22480D02*
D03*
X23760Y60394D02*
D03*
X22480D02*
D03*
X23228Y44783D02*
D03*
X83000Y72724D02*
D03*
X94000D02*
D03*
X105000D02*
D03*
D34*
X95669Y48228D02*
Y48581D01*
X90414Y44625D02*
X90551Y44488D01*
X90000Y44625D02*
X90414D01*
X90354Y45866D02*
X90945Y45276D01*
X90256Y45571D02*
X90945Y44882D01*
X91339D01*
X89370Y45866D02*
X90354D01*
X89665Y45571D02*
X90256D01*
X90251Y42126D02*
X91339D01*
X89875Y41750D02*
X90251Y42126D01*
X98819Y44882D02*
X99076Y44625D01*
X100875D01*
X101625Y45375D01*
X99213Y44882D02*
X100757D01*
X101500Y45625D01*
D38*
X63091Y69783D02*
X65650Y67224D01*
Y59154D02*
Y67224D01*
X59154Y69783D02*
X63091D01*
X68581Y69903D02*
X72146Y66339D01*
X63561Y69903D02*
X68581D01*
X62399Y71065D02*
X63561Y69903D01*
X58700Y70237D02*
X59154Y69783D01*
X62795Y68898D02*
X65157Y66535D01*
Y54232D02*
Y66535D01*
X59700Y69532D02*
X60335Y68898D01*
X62795D01*
X96260Y45866D02*
X96654Y46260D01*
X95472Y45866D02*
X96260D01*
X95276Y45669D02*
X95472Y45866D01*
X74606Y73720D02*
X75343Y74457D01*
X74606Y70866D02*
Y73720D01*
X75000Y70571D02*
Y72736D01*
X75295Y73032D01*
Y73819D01*
X75619Y74143D01*
X75591Y73425D02*
X76181Y72835D01*
Y71063D02*
Y72835D01*
X75787Y70669D02*
X76181Y71063D01*
X72441Y64862D02*
Y66831D01*
X74213Y47343D02*
Y67421D01*
X75000Y68209D01*
X72146Y52264D02*
Y66339D01*
X94291Y40354D02*
X94488Y40157D01*
X93508Y40055D02*
Y46654D01*
X93996Y39567D02*
X94685D01*
X94882Y39370D01*
X93508Y40055D02*
X93996Y39567D01*
X93110Y40256D02*
Y55945D01*
X93996Y39370D02*
X94488D01*
X93110Y40256D02*
X93996Y39370D01*
X94488D02*
X94882Y38976D01*
X100748Y33504D02*
X103898D01*
X97638Y36614D02*
Y38976D01*
Y36614D02*
X100748Y33504D01*
X100736Y33309D02*
X103423D01*
X97441Y36604D02*
Y38780D01*
Y36604D02*
X100736Y33309D01*
X100620Y33189D02*
X102992D01*
X97047Y36762D02*
Y38386D01*
Y36762D02*
X100620Y33189D01*
X101267Y33821D02*
X103348D01*
X100928Y34160D02*
X101267Y33821D01*
X100643Y34160D02*
X100928D01*
X97835Y36969D02*
X100643Y34160D01*
X101772Y40551D02*
X103937Y42717D01*
X100098Y40748D02*
X100295Y40551D01*
X101772D01*
X101535Y40354D02*
X105236Y36654D01*
X100197Y40354D02*
X101535D01*
X100000Y40551D02*
X100197Y40354D01*
X97047Y38386D02*
X97244Y38583D01*
X101772Y41142D02*
X103583Y42953D01*
X101181Y41339D02*
X101237Y41394D01*
X101086Y41637D02*
X102874Y43425D01*
X100984Y41535D02*
X101086Y41637D01*
X97835Y36969D02*
Y38780D01*
X98032Y38976D01*
X102264Y31102D02*
X114468D01*
X102067Y30906D02*
X102264Y31102D01*
X100394Y31693D02*
X110827D01*
X111713Y32579D02*
Y48032D01*
X110827Y31693D02*
X111713Y32579D01*
X94291Y39173D02*
X94488Y38976D01*
X91634Y35630D02*
X93110Y37106D01*
Y38780D01*
X92913Y38976D02*
X93110Y38780D01*
X71654Y37795D02*
X72047Y37402D01*
X68920Y35630D02*
X91634D01*
X70723Y35827D02*
X91437D01*
X92913Y37303D01*
X71526Y36024D02*
X91240D01*
X92520Y38976D02*
X92717Y38780D01*
Y37500D02*
Y38780D01*
X91240Y36024D02*
X92717Y37500D01*
X92126Y38976D02*
X92323Y38780D01*
X72047Y37402D02*
X90945D01*
X91732Y38976D02*
X91929Y38780D01*
Y38386D02*
Y38780D01*
X90945Y37402D02*
X91929Y38386D01*
X91437Y38287D02*
X91732Y38583D01*
X91043Y38287D02*
X91437D01*
X90748Y37992D02*
X91043Y38287D01*
X89665Y37992D02*
X90748D01*
X89370Y38287D02*
X89665Y37992D01*
X89370Y38287D02*
Y38287D01*
X69434Y38484D02*
X91240D01*
X91339Y38583D01*
X68631Y38681D02*
X91043D01*
X91339Y38976D01*
X67828Y38878D02*
X90059D01*
X90157Y38976D02*
X90945D01*
X90059Y38878D02*
X90157Y38976D01*
X90354Y39370D02*
X90945D01*
X67421Y39075D02*
X90059D01*
X90354Y39370D01*
X90945D02*
X91339Y39764D01*
X66634Y39272D02*
X90059D01*
X90748Y39567D02*
X90945Y39764D01*
X90354Y39567D02*
X90748D01*
X90059Y39272D02*
X90354Y39567D01*
X66418Y39469D02*
X89862D01*
X91142Y39961D02*
X91339Y40157D01*
X90354Y39961D02*
X91142D01*
X89862Y39469D02*
X90354Y39961D01*
X65615Y39665D02*
X89665D01*
X90157Y40157D02*
X90945D01*
X89665Y39665D02*
X90157Y40157D01*
X91142Y40354D02*
X91339Y40551D01*
X90059Y40354D02*
X91142D01*
X89567Y39862D02*
X90059Y40354D01*
X65059Y40059D02*
X89468D01*
X89961Y40551D02*
X90945D01*
X89468Y40059D02*
X89961Y40551D01*
X62795Y37795D02*
X65059Y40059D01*
X62750Y36800D02*
X63287Y37337D01*
X63750Y37800D02*
X65615Y39665D01*
X64750Y37800D02*
X66418Y39469D01*
X65256Y37894D02*
X66634Y39272D01*
X65256Y37303D02*
Y37894D01*
X64764Y36811D02*
X65256Y37303D01*
X66240Y37894D02*
X67421Y39075D01*
X66240Y37290D02*
Y37894D01*
X65750Y36800D02*
X66240Y37290D01*
X66750Y37800D02*
X67828Y38878D01*
X67750Y37800D02*
X68631Y38681D01*
X68750Y37800D02*
X69434Y38484D01*
X70237Y38287D02*
X89370D01*
X69750Y37800D02*
X70237Y38287D01*
X66750Y36800D02*
X67155Y37205D01*
X67750Y36800D02*
X68920Y35630D01*
X69750Y36800D02*
X70723Y35827D01*
X70750Y36800D02*
X71526Y36024D01*
X71750Y36800D02*
X72330Y36220D01*
X100492Y42717D02*
X100492Y42717D01*
X95472Y47539D02*
Y48278D01*
X95276Y48474D02*
X95472Y48278D01*
Y47539D02*
X96161Y46850D01*
X96457D01*
X94094Y37697D02*
X95571Y36220D01*
Y35925D02*
Y36220D01*
X89491Y43875D02*
X89665Y43701D01*
X90945D01*
X89635Y44125D02*
X89862Y43898D01*
X90748D01*
X90945Y44094D01*
X65650Y59154D02*
X67224Y57579D01*
X69587D01*
X65157Y54232D02*
X69094Y50295D01*
X74803Y66240D02*
X75492Y65551D01*
Y46654D02*
Y65551D01*
Y46654D02*
X76280Y45866D01*
X72441Y64862D02*
X73622Y63681D01*
Y46063D02*
Y63681D01*
X74213Y47343D02*
X75197Y46358D01*
X96654Y46260D02*
Y47441D01*
X89173Y52362D02*
X91634Y49902D01*
Y48917D02*
Y49902D01*
X95079Y45866D02*
Y47835D01*
X94882Y48032D02*
X95079Y47835D01*
X94882Y48032D02*
Y48524D01*
X94900Y48542D01*
X94882Y45669D02*
X95079Y45866D01*
X94685Y45472D02*
Y63189D01*
X95472Y40354D02*
Y44685D01*
X94685Y45472D02*
X95472Y44685D01*
X92717Y65157D02*
X94685Y63189D01*
X90059Y41240D02*
X90157Y41339D01*
X90551D01*
X90157Y40945D02*
X90551D01*
X90945Y41339D01*
X90000Y41500D02*
X90035Y41535D01*
X91142D01*
X91339Y41732D01*
X95669Y38583D02*
X95866Y38386D01*
X95571Y35925D02*
X100591Y30906D01*
X102067D01*
X114468Y31102D02*
X118799Y35433D01*
Y66634D01*
X96457Y35630D02*
Y38189D01*
Y35630D02*
X100394Y31693D01*
X111713Y48032D02*
X112894Y49213D01*
Y64370D01*
X114862Y66339D01*
X93898Y40354D02*
Y47441D01*
X94094Y47638D01*
Y49016D01*
X96458Y47636D02*
X96654Y47441D01*
X99508Y49409D02*
X99606D01*
X98032Y47933D02*
X99508Y49409D01*
X98032Y47244D02*
Y47933D01*
X99606Y48819D02*
Y49016D01*
X98425Y47638D02*
X99606Y48819D01*
X93898Y47835D02*
Y48622D01*
X93701Y47638D02*
X93898Y47835D01*
X93701Y48032D02*
Y48819D01*
X93504Y47835D02*
X93701Y48032D01*
X93504Y47441D02*
Y47835D01*
Y47441D02*
X93701Y47244D01*
X93898Y49213D02*
Y55984D01*
Y49213D02*
X94094Y49016D01*
X94291Y40354D02*
Y49213D01*
X94094Y49409D02*
X94291Y49213D01*
X94094Y49409D02*
Y56299D01*
X93508Y49016D02*
Y55941D01*
X93307Y46850D02*
X93504Y46654D01*
X93307Y46850D02*
Y48032D01*
X93504Y48228D01*
Y49016D01*
X95669Y48032D02*
X96457Y47244D01*
X95669Y48032D02*
Y48228D01*
X92126Y65157D02*
X92717D01*
X94882Y39764D02*
X95472Y40354D01*
X92402Y57992D02*
X94094Y56299D01*
X92087Y57362D02*
X93508Y55941D01*
X92283Y57598D02*
X93898Y55984D01*
Y40354D02*
X94094Y40157D01*
X91929Y57126D02*
X93110Y55945D01*
X91732Y56929D02*
X92717Y55945D01*
X91299Y56496D02*
X92126Y55669D01*
X91535Y56732D02*
X92323Y55945D01*
X90748Y44291D02*
X90945Y44488D01*
X89961Y44291D02*
X90748D01*
X91339Y47244D02*
Y48898D01*
X91142Y47047D02*
X91339Y46850D01*
X91142Y47047D02*
Y48661D01*
X134449Y53248D02*
Y53642D01*
X134881Y54074D01*
X99213Y44882D02*
X100394D01*
X100000Y43307D02*
X100098Y43406D01*
X99606Y43307D02*
X100000Y42913D01*
X100689D01*
X100886Y43110D01*
X100098Y43406D02*
X100689D01*
X100197Y47835D02*
X100362Y48000D01*
X99409Y47835D02*
X100197D01*
X98819Y46850D02*
Y47244D01*
X99409Y47835D01*
X99213Y47244D02*
X99409Y47441D01*
X100197D01*
Y47441D02*
X100506Y47750D01*
X103228Y43386D02*
Y55472D01*
X102874Y43425D02*
Y55591D01*
X96063Y38976D02*
X96063D01*
X103583Y42953D02*
Y55315D01*
X94685Y38780D02*
X94882Y38583D01*
X103937Y42717D02*
Y55315D01*
X103779Y36220D02*
X103780Y36220D01*
X103149Y36260D02*
X103150Y36260D01*
X95866Y38386D02*
X96260D01*
X103779Y32717D02*
Y32953D01*
X97244Y38976D02*
X97441Y38780D01*
X102992Y33189D02*
X103268Y32913D01*
Y32677D02*
Y32913D01*
X103423Y33309D02*
X103779Y32953D01*
X104409Y32638D02*
Y32992D01*
X103898Y33504D02*
X104409Y32992D01*
X103556Y34094D02*
X103622D01*
X103348Y33821D02*
X103622Y34094D01*
X103189Y34291D02*
X103268Y34213D01*
X98228Y36772D02*
X100709Y34291D01*
X98228Y36772D02*
Y38780D01*
X98425Y38976D01*
X100709Y34291D02*
X103189D01*
X98425Y36811D02*
X100748Y34488D01*
X98425Y36811D02*
Y38583D01*
X101220Y34803D02*
X101693D01*
X99016Y37008D02*
X101220Y34803D01*
X99016Y37008D02*
Y38780D01*
X98819Y38976D02*
X99016Y38780D01*
X102165Y34803D02*
X102283D01*
X101890Y35079D02*
X102165Y34803D01*
X101181Y35079D02*
X101890D01*
X99213Y37047D02*
X101181Y35079D01*
X99213Y37047D02*
Y38583D01*
X101237Y41394D02*
X103228Y43386D01*
X99213Y38976D02*
X99409Y38780D01*
X100630D01*
X103149Y36260D01*
X103425Y36142D02*
Y36417D01*
X100866Y38976D02*
X103425Y36417D01*
X103779Y36220D02*
Y36614D01*
X101220Y39173D02*
X103779Y36614D01*
X99409Y39173D02*
X101220D01*
X99213Y39370D02*
X99409Y39173D01*
X104409Y34685D02*
Y35945D01*
X104094Y36260D02*
X104409Y35945D01*
X104094Y36260D02*
Y36732D01*
X101457Y39370D02*
X104094Y36732D01*
X99606Y39370D02*
X101457D01*
X104409Y36220D02*
Y36772D01*
X101614Y39567D02*
X104409Y36772D01*
X99409Y39567D02*
X101614D01*
X99213Y39764D02*
X99409Y39567D01*
X105000Y36181D02*
Y36575D01*
X101614Y39961D02*
X105000Y36575D01*
X99409Y39961D02*
X101614D01*
X99213Y40157D02*
X99409Y39961D01*
X105236Y36024D02*
Y36654D01*
X99567Y38976D02*
X100866D01*
X102638Y34488D02*
X102913Y34764D01*
X100748Y34488D02*
X102638D01*
X95669Y40157D02*
X95866Y40354D01*
Y42717D01*
X96260Y43110D01*
Y45472D01*
X96654Y45866D01*
X99508D01*
X101181Y47539D01*
Y56299D01*
X96063Y40157D02*
X96260Y40354D01*
Y42717D01*
X96654Y43110D01*
X97343D01*
X98228Y43996D01*
Y44783D01*
X98917Y45472D01*
X99921D01*
X101890Y47441D01*
Y56378D01*
X96457Y40157D02*
X96654Y40354D01*
Y42224D02*
X96752Y42323D01*
X97441D01*
X99016Y43898D01*
X101575D01*
X102244Y44567D01*
X96654Y40354D02*
Y42224D01*
X102244Y44567D02*
Y56063D01*
X98622Y40354D02*
X99016D01*
X99409Y40748D02*
X100098D01*
X99016Y40354D02*
X99409Y40748D01*
X97833Y39565D02*
X98622Y40354D01*
X97411Y39931D02*
X97835Y40354D01*
X98228D01*
X96457Y38976D02*
X97411Y39931D01*
X98228Y40354D02*
X99016Y41142D01*
X101772D01*
X96063Y38976D02*
X98425Y41339D01*
X101181D01*
X95669Y38976D02*
X95965Y39272D01*
X98432Y41542D02*
X99501D01*
X95965Y39272D02*
X96161D01*
X99501Y41535D02*
X100984D01*
X96161Y39272D02*
X98432Y41542D01*
X95669Y39370D02*
X95866Y39567D01*
X96260D01*
X97933Y41240D01*
Y41634D01*
X98622Y42323D01*
X100886D01*
X102559Y43996D01*
Y55630D01*
X91220Y36220D02*
X92520Y37520D01*
X72330Y36220D02*
X91220D01*
X92520Y37520D02*
Y38583D01*
X91040Y36390D02*
X92323Y37673D01*
Y38780D01*
X91531Y37205D02*
X92126Y37800D01*
Y38583D01*
X67155Y37205D02*
X91531D01*
X75750Y36800D02*
X76160Y36390D01*
X91040D01*
X63287Y37987D02*
X65162Y39862D01*
X63287Y37337D02*
Y37987D01*
X65162Y39862D02*
X89567D01*
X96827Y73917D02*
Y74114D01*
X107827Y73917D02*
Y74114D01*
X94150Y70300D02*
X94900Y69550D01*
Y48542D02*
Y69550D01*
X94150Y70300D02*
Y72250D01*
X89173Y52362D02*
Y70900D01*
X70965Y54331D02*
Y66835D01*
X96458Y47636D02*
X100550Y51728D01*
Y66850D01*
X101870Y32480D02*
X102362Y32972D01*
X100591Y32480D02*
X101870D01*
X96654Y36417D02*
X100591Y32480D01*
X96654Y36417D02*
Y37106D01*
X97345Y39176D02*
X97441Y39272D01*
Y39467D01*
X96260Y38386D02*
X97050Y39176D01*
X97345D01*
X97441Y39467D02*
X97539Y39565D01*
X97833D01*
X92717Y40059D02*
X93602Y39173D01*
X92717Y40059D02*
Y55945D01*
X93602Y39173D02*
X94291D01*
X92323Y40256D02*
X93602Y38976D01*
X94094D01*
X92323Y40256D02*
Y55945D01*
X92126Y40256D02*
X93602Y38780D01*
X92126Y40256D02*
Y55669D01*
X93602Y38780D02*
X94685D01*
D39*
X77205Y53071D02*
X77283Y53150D01*
D40*
X36083Y65905D02*
X36122Y65945D01*
D44*
X162480Y46705D02*
Y45905D01*
X163013D01*
X163413Y46439D02*
X163680D01*
X163813Y46305D01*
Y45905D01*
X163413D01*
X163280Y46039D01*
X163413Y46172D01*
X163813D01*
X164079Y46439D02*
Y46039D01*
X164213Y45905D01*
X164613D01*
Y45772D01*
X164479Y45639D01*
X164346D01*
X164613Y45905D02*
Y46439D01*
X165279Y45905D02*
X165012D01*
X164879Y46039D01*
Y46305D01*
X165012Y46439D01*
X165279D01*
X165412Y46305D01*
Y46172D01*
X164879D01*
X165679Y46439D02*
Y45905D01*
Y46172D01*
X165812Y46305D01*
X165946Y46439D01*
X166079D01*
X167278Y46572D02*
X167412Y46705D01*
X167678D01*
X167812Y46572D01*
Y46439D01*
X167678Y46305D01*
X167545D01*
X167678D01*
X167812Y46172D01*
Y46039D01*
X167678Y45905D01*
X167412D01*
X167278Y46039D01*
D47*
X77205Y53071D02*
D03*
D51*
X25900Y34970D02*
D03*
X24250D02*
D03*
X32323Y40837D02*
D03*
Y57431D02*
D03*
D53*
X71750Y37800D02*
D03*
X69750D02*
D03*
X68750D02*
D03*
X67750D02*
D03*
X66750D02*
D03*
X64750D02*
D03*
X63750D02*
D03*
X62750D02*
D03*
X75750Y36800D02*
D03*
X71750D02*
D03*
X70750D02*
D03*
X69750D02*
D03*
X67750D02*
D03*
X66750D02*
D03*
X65750D02*
D03*
X64750D02*
D03*
X62750D02*
D03*
D54*
X32382Y37894D02*
D03*
X62399Y71065D02*
D03*
X58700Y70237D02*
D03*
X59700Y69532D02*
D03*
X75343Y74457D02*
D03*
X74606Y70866D02*
D03*
X75000Y70571D02*
D03*
X75619Y74143D02*
D03*
X75591Y73425D02*
D03*
X75787Y70669D02*
D03*
X72441Y66831D02*
D03*
X75000Y68209D02*
D03*
X72146Y52264D02*
D03*
X94488Y40157D02*
D03*
X100000Y40551D02*
D03*
X92913Y38976D02*
D03*
X92520Y38583D02*
D03*
Y38976D02*
D03*
X92126D02*
D03*
Y38583D02*
D03*
X91732D02*
D03*
X91339D02*
D03*
X91732Y38976D02*
D03*
X91339D02*
D03*
X90945D02*
D03*
X91339Y39764D02*
D03*
X90945D02*
D03*
X91339Y40157D02*
D03*
X90945D02*
D03*
X91339Y40551D02*
D03*
X90945D02*
D03*
X100492Y42717D02*
D03*
X94094Y37697D02*
D03*
X89491Y43875D02*
D03*
X90945Y43701D02*
D03*
X89635Y44125D02*
D03*
X90945Y44094D02*
D03*
X69587Y57579D02*
D03*
X69094Y50295D02*
D03*
X70965Y54331D02*
D03*
X74803Y66240D02*
D03*
X76280Y45866D02*
D03*
X73622Y46063D02*
D03*
X75197Y46358D02*
D03*
X95276Y45669D02*
D03*
X91634Y48917D02*
D03*
X94882Y45669D02*
D03*
X90059Y41240D02*
D03*
X90551Y41339D02*
D03*
X90157Y40945D02*
D03*
X90945Y41339D02*
D03*
X118799Y66634D02*
D03*
X96457Y38189D02*
D03*
X114862Y66339D02*
D03*
X99606Y49409D02*
D03*
X98032Y47244D02*
D03*
X99606Y49016D02*
D03*
X98425Y47638D02*
D03*
X93898Y48622D02*
D03*
X93701Y47638D02*
D03*
Y48819D02*
D03*
Y47244D02*
D03*
X96457Y46850D02*
D03*
Y47244D02*
D03*
X101181Y56299D02*
D03*
X92126Y65157D02*
D03*
X94882Y39764D02*
D03*
X94094Y40157D02*
D03*
X94882Y39370D02*
D03*
X94882Y38976D02*
D03*
X94488D02*
D03*
X94094D02*
D03*
X91339Y41732D02*
D03*
X91339Y42126D02*
D03*
X91299Y56496D02*
D03*
X91535Y56732D02*
D03*
X91732Y56929D02*
D03*
X91929Y57126D02*
D03*
X101890Y56378D02*
D03*
X92087Y57362D02*
D03*
X92283Y57598D02*
D03*
X92402Y57992D02*
D03*
X102244Y56063D02*
D03*
X102559Y55630D02*
D03*
X102874Y55591D02*
D03*
X103228Y55472D02*
D03*
X103583Y55315D02*
D03*
X90551Y44488D02*
D03*
X90945D02*
D03*
X89961Y44291D02*
D03*
X91339Y44882D02*
D03*
X90945Y45276D02*
D03*
X91339Y47244D02*
D03*
Y48898D02*
D03*
Y46850D02*
D03*
X91142Y48661D02*
D03*
X90000Y44625D02*
D03*
X89370Y45866D02*
D03*
X89665Y45571D02*
D03*
X89875Y41750D02*
D03*
X90000Y41500D02*
D03*
X134449Y53248D02*
D03*
X134881Y54074D02*
D03*
X99213Y44882D02*
D03*
X98819D02*
D03*
X101625Y45375D02*
D03*
X101500Y45625D02*
D03*
X100000Y43307D02*
D03*
X99606D02*
D03*
X100886Y43110D02*
D03*
X100591Y43406D02*
D03*
X99213Y47244D02*
D03*
X100506Y47750D02*
D03*
X100362Y48000D02*
D03*
X98819Y46850D02*
D03*
X95669Y48581D02*
D03*
X95276Y48474D02*
D03*
X95669Y38583D02*
D03*
X96457Y38976D02*
D03*
X96063D02*
D03*
X95669D02*
D03*
Y39370D02*
D03*
X96457Y40157D02*
D03*
X96063D02*
D03*
X95669D02*
D03*
X94882Y38583D02*
D03*
X103937Y55315D02*
D03*
X103268Y34213D02*
D03*
Y32677D02*
D03*
X103622Y34094D02*
D03*
X103779Y32717D02*
D03*
X104409Y32638D02*
D03*
X105236Y36024D02*
D03*
X105000Y36181D02*
D03*
X104409Y34685D02*
D03*
X104409Y36220D02*
D03*
X103779Y36220D02*
D03*
X103149Y36260D02*
D03*
X103425Y36142D02*
D03*
X97244Y38583D02*
D03*
Y38976D02*
D03*
X97638D02*
D03*
X98032D02*
D03*
X98425D02*
D03*
Y38583D02*
D03*
X101693Y34803D02*
D03*
X102283D02*
D03*
X98819Y38976D02*
D03*
X99213Y38583D02*
D03*
Y38976D02*
D03*
X99606D02*
D03*
X99213Y39370D02*
D03*
X99606D02*
D03*
X99213Y39764D02*
D03*
Y40157D02*
D03*
X102913Y34764D02*
D03*
X94150Y72250D02*
D03*
X89173Y70900D02*
D03*
X70965Y66835D02*
D03*
X100550Y66850D02*
D03*
X102362Y32972D02*
D03*
X96654Y37106D02*
D03*
X92913Y37303D02*
D03*
X26181Y63484D02*
D03*
M02*
