%FSLAX24Y24*%
%MOIN*%
G70*
G01*
G75*
G04 Layer_Physical_Order=3*
G04 Layer_Color=128*
G36*
X44390Y56391D02*
X43110D01*
X43081Y56385D01*
X43075Y56384D01*
X43045Y56364D01*
X42941Y56260D01*
X42913Y56266D01*
X42851Y56253D01*
X42798Y56218D01*
X42763Y56165D01*
X42750Y56102D01*
X42763Y56040D01*
X42798Y55987D01*
X42851Y55952D01*
X42913Y55939D01*
X42976Y55952D01*
X43029Y55987D01*
X43064Y56040D01*
X43077Y56102D01*
X43076Y56104D01*
X43124Y56140D01*
X43149Y56127D01*
X43144Y56102D01*
X43156Y56040D01*
X43192Y55987D01*
X43245Y55952D01*
X43307Y55939D01*
X43370Y55952D01*
X43422Y55987D01*
X43458Y56040D01*
X43470Y56102D01*
X43458Y56165D01*
X43481Y56207D01*
X44390D01*
Y55800D01*
X43438D01*
X43422Y55824D01*
X43370Y55859D01*
X43307Y55872D01*
X43245Y55859D01*
X43192Y55824D01*
X43156Y55771D01*
X43144Y55709D01*
X43156Y55646D01*
X43192Y55593D01*
X43245Y55558D01*
X43307Y55546D01*
X43370Y55558D01*
X43422Y55593D01*
X43438Y55617D01*
X44390D01*
Y55407D01*
X43438D01*
X43422Y55430D01*
X43370Y55466D01*
X43307Y55478D01*
X43245Y55466D01*
X43192Y55430D01*
X43156Y55377D01*
X43144Y55315D01*
X43156Y55253D01*
X43192Y55200D01*
X43245Y55164D01*
X43307Y55152D01*
X43370Y55164D01*
X43422Y55200D01*
X43438Y55223D01*
X44003D01*
X44041Y55177D01*
X44030Y55118D01*
X44041Y55059D01*
X44003Y55013D01*
X43438D01*
X43422Y55037D01*
X43370Y55072D01*
X43307Y55084D01*
X43245Y55072D01*
X43192Y55037D01*
X43156Y54984D01*
X43144Y54921D01*
X43156Y54859D01*
X43192Y54806D01*
X43245Y54771D01*
X43307Y54758D01*
X43370Y54771D01*
X43422Y54806D01*
X43438Y54830D01*
X44390D01*
Y54422D01*
X43497D01*
X43459Y54469D01*
X43470Y54528D01*
X43458Y54590D01*
X43422Y54643D01*
X43370Y54678D01*
X43307Y54691D01*
X43245Y54678D01*
X43192Y54643D01*
X43156Y54590D01*
X43144Y54528D01*
X43149Y54503D01*
X43124Y54490D01*
X43076Y54526D01*
X43077Y54528D01*
X43064Y54590D01*
X43029Y54643D01*
X42976Y54678D01*
X42913Y54691D01*
X42851Y54678D01*
X42798Y54643D01*
X42763Y54590D01*
X42750Y54528D01*
X42763Y54465D01*
X42798Y54412D01*
X42851Y54377D01*
X42913Y54364D01*
X42915Y54365D01*
X42951Y54317D01*
X42938Y54292D01*
X42913Y54297D01*
X42851Y54285D01*
X42798Y54249D01*
X42763Y54196D01*
X42750Y54134D01*
X42763Y54071D01*
X42798Y54019D01*
X42851Y53983D01*
X42913Y53971D01*
X42976Y53983D01*
X43029Y54019D01*
X43064Y54071D01*
X43077Y54134D01*
X43064Y54196D01*
X43068Y54214D01*
X43126Y54228D01*
X43156Y54193D01*
X43144Y54134D01*
X43156Y54071D01*
X43192Y54019D01*
X43245Y53983D01*
X43307Y53971D01*
X43370Y53983D01*
X43422Y54019D01*
X43458Y54071D01*
X43470Y54134D01*
X43458Y54196D01*
X43481Y54239D01*
X44390D01*
Y53438D01*
X43438D01*
X43422Y53462D01*
X43370Y53497D01*
X43307Y53510D01*
X43245Y53497D01*
X43192Y53462D01*
X43156Y53409D01*
X43144Y53346D01*
X43156Y53284D01*
X43192Y53231D01*
X43245Y53196D01*
X43307Y53183D01*
X43370Y53196D01*
X43422Y53231D01*
X43438Y53255D01*
X44390D01*
Y53045D01*
X43438D01*
X43422Y53068D01*
X43370Y53103D01*
X43307Y53116D01*
X43245Y53103D01*
X43192Y53068D01*
X43156Y53015D01*
X43144Y52953D01*
X43156Y52890D01*
X43192Y52837D01*
X43245Y52802D01*
X43307Y52790D01*
X43370Y52802D01*
X43422Y52837D01*
X43438Y52861D01*
X44390D01*
Y52651D01*
X43438D01*
X43422Y52674D01*
X43370Y52710D01*
X43307Y52722D01*
X43245Y52710D01*
X43192Y52674D01*
X43156Y52621D01*
X43144Y52559D01*
X43156Y52497D01*
X43192Y52444D01*
X43245Y52408D01*
X43307Y52396D01*
X43370Y52408D01*
X43422Y52444D01*
X43438Y52467D01*
X44390D01*
Y52257D01*
X43438D01*
X43422Y52281D01*
X43370Y52316D01*
X43307Y52329D01*
X43245Y52316D01*
X43192Y52281D01*
X43156Y52228D01*
X43144Y52165D01*
X43156Y52103D01*
X43192Y52050D01*
X43245Y52015D01*
X43307Y52002D01*
X43370Y52015D01*
X43422Y52050D01*
X43438Y52074D01*
X44390D01*
Y50884D01*
X44332Y50867D01*
X44308Y50903D01*
X44255Y50938D01*
X44193Y50951D01*
X44130Y50938D01*
X44078Y50903D01*
X44042Y50850D01*
X44030Y50787D01*
X44042Y50725D01*
X44078Y50672D01*
X44130Y50637D01*
X44193Y50624D01*
X44255Y50637D01*
X44308Y50672D01*
X44332Y50708D01*
X44390Y50691D01*
Y48946D01*
X44373Y48934D01*
X44337Y48881D01*
X44325Y48819D01*
X44337Y48756D01*
X44373Y48704D01*
X44390Y48692D01*
Y48293D01*
X44327Y48281D01*
X44274Y48245D01*
X44239Y48192D01*
X44227Y48130D01*
X44239Y48067D01*
X44274Y48015D01*
X44278Y48012D01*
Y47952D01*
X44274Y47950D01*
X44239Y47897D01*
X44227Y47835D01*
X44239Y47772D01*
X44274Y47719D01*
X44327Y47684D01*
X44390Y47672D01*
X44390Y47672D01*
Y47672D01*
X44390Y47672D01*
Y47255D01*
X44334Y47232D01*
X42808Y48758D01*
Y49077D01*
X42810Y49079D01*
X42817Y49114D01*
Y49598D01*
X42810Y49633D01*
X42810Y49633D01*
X42810Y49633D01*
X42794Y49657D01*
X42790Y49663D01*
X42790D01*
X42790Y49663D01*
X42677Y49775D01*
X42683Y49803D01*
X42670Y49866D01*
X42635Y49919D01*
X42582Y49954D01*
X42520Y49966D01*
X42457Y49954D01*
X42404Y49919D01*
X42369Y49866D01*
X42357Y49803D01*
X42361Y49779D01*
X42337Y49766D01*
X42289Y49801D01*
X42289Y49803D01*
X42277Y49866D01*
X42241Y49919D01*
X42188Y49954D01*
X42126Y49966D01*
X42064Y49954D01*
X42011Y49919D01*
X41975Y49866D01*
X41963Y49803D01*
X41968Y49779D01*
X41943Y49766D01*
X41895Y49801D01*
X41895Y49803D01*
X41883Y49866D01*
X41848Y49919D01*
X41795Y49954D01*
X41732Y49966D01*
X41708Y49961D01*
X41695Y49986D01*
X41731Y50034D01*
X41732Y50034D01*
X41795Y50046D01*
X41848Y50082D01*
X41883Y50134D01*
X41895Y50197D01*
X41883Y50259D01*
X41848Y50312D01*
X41795Y50348D01*
X41732Y50360D01*
X41670Y50348D01*
X41617Y50312D01*
X41582Y50259D01*
X41569Y50197D01*
X41569Y50195D01*
X41521Y50159D01*
X41497Y50172D01*
X41502Y50197D01*
X41489Y50259D01*
X41454Y50312D01*
X41401Y50348D01*
X41339Y50360D01*
X41276Y50348D01*
X41223Y50312D01*
X41188Y50259D01*
X41175Y50197D01*
X41188Y50134D01*
X41223Y50082D01*
X41247Y50066D01*
Y48135D01*
X41225Y48126D01*
X41185Y48118D01*
X41102Y48201D01*
X41108Y48228D01*
X41096Y48291D01*
X41060Y48344D01*
X41007Y48379D01*
X40945Y48391D01*
X40882Y48379D01*
X40830Y48344D01*
X40794Y48291D01*
X40782Y48228D01*
X40794Y48166D01*
X40830Y48113D01*
X40882Y48078D01*
X40945Y48065D01*
X40973Y48071D01*
X44390Y44654D01*
Y44381D01*
X44334Y44358D01*
X40052Y48640D01*
Y49606D01*
X40045Y49641D01*
X40026Y49671D01*
X39921Y49775D01*
X39927Y49803D01*
X39915Y49866D01*
X39879Y49919D01*
X39826Y49954D01*
X39764Y49966D01*
X39701Y49954D01*
X39648Y49919D01*
X39613Y49866D01*
X39601Y49803D01*
X39606Y49779D01*
X39581Y49766D01*
X39533Y49801D01*
X39533Y49803D01*
X39521Y49866D01*
X39485Y49919D01*
X39433Y49954D01*
X39370Y49966D01*
X39308Y49954D01*
X39255Y49919D01*
X39219Y49866D01*
X39207Y49803D01*
X39212Y49779D01*
X39187Y49766D01*
X39139Y49801D01*
X39140Y49803D01*
X39127Y49866D01*
X39092Y49919D01*
X39039Y49954D01*
X38976Y49966D01*
X38914Y49954D01*
X38861Y49919D01*
X38826Y49866D01*
X38813Y49803D01*
X38818Y49779D01*
X38794Y49766D01*
X38745Y49801D01*
X38746Y49803D01*
X38733Y49866D01*
X38698Y49919D01*
X38645Y49954D01*
X38583Y49966D01*
X38520Y49954D01*
X38467Y49919D01*
X38432Y49866D01*
X38420Y49803D01*
X38432Y49741D01*
X38467Y49688D01*
X38520Y49652D01*
X38583Y49640D01*
X38584Y49640D01*
X38620Y49592D01*
X38607Y49568D01*
X38583Y49573D01*
X38520Y49560D01*
X38467Y49525D01*
X38432Y49472D01*
X38420Y49409D01*
X38424Y49385D01*
X38400Y49372D01*
X38352Y49408D01*
X38352Y49409D01*
X38340Y49472D01*
X38304Y49525D01*
X38251Y49560D01*
X38189Y49573D01*
X38130Y49561D01*
X38084Y49599D01*
Y49606D01*
X38081Y49622D01*
Y49622D01*
X38081D01*
D01*
D01*
D01*
X38127Y49652D01*
X38189Y49640D01*
X38251Y49652D01*
X38304Y49688D01*
X38340Y49741D01*
X38352Y49803D01*
X38340Y49866D01*
X38304Y49919D01*
X38251Y49954D01*
X38189Y49966D01*
X38127Y49954D01*
X38074Y49919D01*
X38038Y49866D01*
X38026Y49803D01*
X38031Y49779D01*
X38006Y49766D01*
X37958Y49801D01*
X37958Y49803D01*
X37946Y49866D01*
X37911Y49919D01*
X37858Y49954D01*
X37795Y49966D01*
X37733Y49954D01*
X37680Y49919D01*
X37645Y49866D01*
X37632Y49803D01*
X37645Y49741D01*
X37680Y49688D01*
X37733Y49652D01*
X37795Y49640D01*
X37797Y49640D01*
X37833Y49592D01*
X37820Y49568D01*
X37795Y49573D01*
X37733Y49560D01*
X37680Y49525D01*
X37645Y49472D01*
X37632Y49409D01*
X37645Y49347D01*
X37680Y49294D01*
X37704Y49278D01*
Y48625D01*
X37657Y48587D01*
X37598Y48598D01*
X37540Y48587D01*
X37493Y48625D01*
Y49278D01*
X37517Y49294D01*
X37552Y49347D01*
X37565Y49409D01*
X37552Y49472D01*
X37517Y49525D01*
X37464Y49560D01*
X37402Y49573D01*
X37339Y49560D01*
X37286Y49525D01*
X37251Y49472D01*
X37238Y49409D01*
X37251Y49347D01*
X37286Y49294D01*
X37310Y49278D01*
Y47411D01*
X37317Y47376D01*
X37337Y47347D01*
X42733Y41950D01*
Y40533D01*
X42681Y40505D01*
X42618Y40517D01*
X42590Y40512D01*
X37100Y46003D01*
Y49278D01*
X37123Y49294D01*
X37159Y49347D01*
X37171Y49409D01*
X37159Y49472D01*
X37123Y49525D01*
X37070Y49560D01*
X37008Y49573D01*
X36945Y49560D01*
X36893Y49525D01*
X36857Y49472D01*
X36845Y49409D01*
X36857Y49347D01*
X36893Y49294D01*
X36916Y49278D01*
Y45965D01*
X36923Y45929D01*
X36943Y45900D01*
X42461Y40382D01*
X42455Y40354D01*
X42467Y40292D01*
X42503Y40239D01*
X42556Y40204D01*
X42618Y40191D01*
X42681Y40204D01*
X42733Y40176D01*
Y37008D01*
X41361D01*
X41332Y37061D01*
X41360Y37102D01*
X41376Y37184D01*
X41360Y37266D01*
X41314Y37336D01*
X41244Y37382D01*
X41162Y37398D01*
X41080Y37382D01*
X41011Y37336D01*
X40964Y37266D01*
X40948Y37184D01*
X40964Y37102D01*
X40992Y37061D01*
X40964Y37008D01*
X39142D01*
X39104Y37054D01*
X39113Y37100D01*
X39101Y37162D01*
X39065Y37215D01*
X39012Y37251D01*
X38950Y37263D01*
X38888Y37251D01*
X38835Y37215D01*
X38799Y37162D01*
X38787Y37100D01*
X38796Y37054D01*
X38758Y37008D01*
X38470D01*
X38465Y37015D01*
X38412Y37051D01*
X38350Y37063D01*
X38288Y37051D01*
X38235Y37015D01*
X38230Y37008D01*
X38070D01*
X38065Y37015D01*
X38012Y37051D01*
X37950Y37063D01*
X37888Y37051D01*
X37835Y37015D01*
X37830Y37008D01*
X37670D01*
X37665Y37015D01*
X37612Y37051D01*
X37550Y37063D01*
X37488Y37051D01*
X37435Y37015D01*
X37430Y37008D01*
X31496D01*
Y39637D01*
X31513Y39648D01*
X31548Y39701D01*
X31561Y39764D01*
X31548Y39826D01*
X31513Y39879D01*
X31496Y39890D01*
Y43631D01*
X31501Y43638D01*
X31513Y43700D01*
X31501Y43762D01*
X31496Y43769D01*
Y45245D01*
X31531Y45269D01*
X31567Y45321D01*
X31579Y45384D01*
X31567Y45446D01*
X31531Y45499D01*
X31496Y45523D01*
Y46161D01*
X35046Y49711D01*
X35827D01*
X35862Y49718D01*
X35892Y49738D01*
X36062Y49908D01*
X36417D01*
X36452Y49915D01*
Y49915D01*
X36452D01*
D01*
X36463Y49866D01*
X36451Y49803D01*
X36463Y49741D01*
X36499Y49688D01*
X36552Y49652D01*
X36614Y49640D01*
X36677Y49652D01*
X36730Y49688D01*
X36765Y49741D01*
X36777Y49803D01*
X36765Y49866D01*
X36730Y49918D01*
X36677Y49954D01*
X36614Y49966D01*
X36590Y49961D01*
X36574Y49990D01*
X36610Y50038D01*
X36617Y50037D01*
X36680Y50049D01*
X36733Y50085D01*
X36768Y50138D01*
X36780Y50200D01*
X36768Y50262D01*
X36733Y50315D01*
X36680Y50351D01*
X36617Y50363D01*
X36593Y50358D01*
X36565Y50411D01*
X36614Y50427D01*
D01*
X36677Y50440D01*
X36730Y50475D01*
X36765Y50528D01*
X36777Y50591D01*
X36765Y50653D01*
X36730Y50706D01*
X36677Y50741D01*
X36614Y50754D01*
X36590Y50749D01*
X36577Y50773D01*
X36612Y50821D01*
X36614Y50821D01*
X36677Y50834D01*
X36730Y50869D01*
X36765Y50922D01*
X36777Y50984D01*
X36765Y51047D01*
X36774Y51064D01*
X36834Y51070D01*
X36856Y51043D01*
X36845Y50984D01*
X36857Y50922D01*
X36893Y50869D01*
X36945Y50834D01*
X37008Y50821D01*
X37070Y50834D01*
X37123Y50869D01*
X37159Y50922D01*
X37171Y50984D01*
X37166Y51009D01*
X37191Y51022D01*
X37239Y50986D01*
X37238Y50984D01*
X37251Y50922D01*
X37286Y50869D01*
X37339Y50834D01*
X37402Y50821D01*
X37464Y50834D01*
X37517Y50869D01*
X37552Y50922D01*
X37565Y50984D01*
X37552Y51047D01*
X37517Y51100D01*
X37464Y51135D01*
X37402Y51147D01*
X37400Y51147D01*
X37364Y51195D01*
X37377Y51220D01*
X37402Y51215D01*
X37464Y51227D01*
X37517Y51263D01*
X37552Y51316D01*
X37565Y51378D01*
X37552Y51440D01*
X37517Y51493D01*
X37464Y51529D01*
X37402Y51541D01*
X37339Y51529D01*
X37286Y51493D01*
X37251Y51440D01*
X37238Y51378D01*
X37251Y51316D01*
X37247Y51298D01*
X37189Y51284D01*
X37159Y51319D01*
X37171Y51378D01*
X37159Y51440D01*
X37123Y51493D01*
X37070Y51529D01*
X37008Y51541D01*
X37006Y51541D01*
X36970Y51589D01*
X36983Y51613D01*
X37008Y51609D01*
X37070Y51621D01*
X37123Y51656D01*
X37159Y51709D01*
X37171Y51772D01*
X37159Y51834D01*
X37181Y51877D01*
X37205D01*
X37240Y51884D01*
Y51884D01*
X37240D01*
D01*
X37251Y51834D01*
X37238Y51772D01*
X37251Y51709D01*
X37286Y51656D01*
X37339Y51621D01*
X37402Y51609D01*
X37464Y51621D01*
X37517Y51656D01*
X37552Y51709D01*
X37565Y51772D01*
X37552Y51834D01*
X37517Y51887D01*
X37464Y51922D01*
X37402Y51935D01*
X37377Y51930D01*
X37364Y51954D01*
X37400Y52003D01*
X37402Y52002D01*
X37464Y52015D01*
X37517Y52050D01*
X37552Y52103D01*
X37565Y52165D01*
X37552Y52228D01*
X37517Y52281D01*
X37464Y52316D01*
X37402Y52329D01*
X37339Y52316D01*
X37286Y52281D01*
X37251Y52228D01*
X37238Y52165D01*
X37239Y52164D01*
X37191Y52128D01*
X37166Y52141D01*
X37171Y52165D01*
X37159Y52228D01*
X37123Y52281D01*
X37070Y52316D01*
X37008Y52329D01*
X36945Y52316D01*
X36893Y52281D01*
X36857Y52228D01*
X36845Y52165D01*
X36856Y52107D01*
X36841Y52088D01*
X36781D01*
X36766Y52107D01*
X36777Y52165D01*
X36765Y52228D01*
X36730Y52281D01*
X36677Y52316D01*
X36614Y52329D01*
X36552Y52316D01*
X36499Y52281D01*
X36463Y52228D01*
X36451Y52165D01*
X36463Y52107D01*
X36447Y52088D01*
X36387D01*
X36372Y52107D01*
X36384Y52165D01*
X36371Y52228D01*
X36336Y52281D01*
X36283Y52316D01*
X36220Y52329D01*
X36158Y52316D01*
X36105Y52281D01*
X36070Y52228D01*
X36057Y52165D01*
X36069Y52107D01*
X36031Y52060D01*
X35236D01*
Y54927D01*
X35283Y54965D01*
X35335Y54955D01*
X35397Y54967D01*
X35450Y55003D01*
X35485Y55056D01*
X35498Y55118D01*
X35485Y55181D01*
X35450Y55233D01*
X35397Y55269D01*
X35335Y55281D01*
X35283Y55271D01*
X35236Y55309D01*
Y56496D01*
X38026D01*
X38038Y56434D01*
X38074Y56381D01*
X38127Y56345D01*
X38189Y56333D01*
X38251Y56345D01*
X38304Y56381D01*
X38340Y56434D01*
X38352Y56496D01*
X38420D01*
X38432Y56434D01*
X38467Y56381D01*
X38520Y56345D01*
X38583Y56333D01*
X38645Y56345D01*
X38698Y56381D01*
X38733Y56434D01*
X38746Y56496D01*
X38813D01*
X38826Y56434D01*
X38861Y56381D01*
X38914Y56345D01*
X38976Y56333D01*
X39039Y56345D01*
X39092Y56381D01*
X39127Y56434D01*
X39140Y56496D01*
X39207D01*
X39219Y56434D01*
X39255Y56381D01*
X39308Y56345D01*
X39370Y56333D01*
X39433Y56345D01*
X39485Y56381D01*
X39521Y56434D01*
X39533Y56496D01*
X39994D01*
X40007Y56434D01*
X40042Y56381D01*
X40095Y56345D01*
X40157Y56333D01*
X40220Y56345D01*
X40273Y56381D01*
X40308Y56434D01*
X40321Y56496D01*
X40388D01*
X40400Y56434D01*
X40436Y56381D01*
X40489Y56345D01*
X40551Y56333D01*
X40614Y56345D01*
X40667Y56381D01*
X40702Y56434D01*
X40714Y56496D01*
X40782D01*
X40794Y56434D01*
X40830Y56381D01*
X40882Y56345D01*
X40945Y56333D01*
X41007Y56345D01*
X41060Y56381D01*
X41096Y56434D01*
X41108Y56496D01*
X41175D01*
X41188Y56434D01*
X41223Y56381D01*
X41276Y56345D01*
X41339Y56333D01*
X41401Y56345D01*
X41454Y56381D01*
X41489Y56434D01*
X41502Y56496D01*
X41569D01*
X41582Y56434D01*
X41617Y56381D01*
X41670Y56345D01*
X41732Y56333D01*
X41795Y56345D01*
X41848Y56381D01*
X41883Y56434D01*
X41895Y56496D01*
X42357D01*
X42369Y56434D01*
X42404Y56381D01*
X42457Y56345D01*
X42520Y56333D01*
X42582Y56345D01*
X42635Y56381D01*
X42670Y56434D01*
X42683Y56496D01*
D01*
X42683D01*
Y56496D01*
D01*
D01*
X42683Y56496D01*
X44390D01*
Y56391D02*
G37*
%LPC*%
G36*
X40945Y50360D02*
X40882Y50348D01*
X40830Y50312D01*
X40794Y50259D01*
X40782Y50197D01*
X40794Y50134D01*
X40830Y50082D01*
X40882Y50046D01*
X40945Y50034D01*
X41007Y50046D01*
X41060Y50082D01*
X41096Y50134D01*
X41108Y50197D01*
X41096Y50259D01*
X41060Y50312D01*
X41007Y50348D01*
X40945Y50360D02*
G37*
G36*
X40551D02*
X40489Y50348D01*
X40436Y50312D01*
X40400Y50259D01*
X40388Y50197D01*
X40400Y50134D01*
X40436Y50082D01*
X40489Y50046D01*
X40551Y50034D01*
X40614Y50046D01*
X40667Y50082D01*
X40702Y50134D01*
X40714Y50197D01*
X40702Y50259D01*
X40667Y50312D01*
X40614Y50348D01*
X40551Y50360D02*
G37*
G36*
X37402Y49966D02*
X37339Y49954D01*
X37286Y49919D01*
X37251Y49866D01*
X37238Y49803D01*
X37251Y49741D01*
X37286Y49688D01*
X37339Y49652D01*
X37402Y49640D01*
X37464Y49652D01*
X37517Y49688D01*
X37552Y49741D01*
X37565Y49803D01*
X37552Y49866D01*
X37517Y49919D01*
X37464Y49954D01*
X37402Y49966D02*
G37*
G36*
X37795Y50360D02*
X37733Y50348D01*
X37680Y50312D01*
X37645Y50259D01*
X37632Y50197D01*
X37645Y50134D01*
X37680Y50082D01*
X37733Y50046D01*
X37795Y50034D01*
X37858Y50046D01*
X37911Y50082D01*
X37946Y50134D01*
X37958Y50197D01*
X37946Y50259D01*
X37911Y50312D01*
X37858Y50348D01*
X37795Y50360D02*
G37*
G36*
X37402D02*
X37339Y50348D01*
X37286Y50312D01*
X37251Y50259D01*
X37238Y50197D01*
X37251Y50134D01*
X37286Y50082D01*
X37339Y50046D01*
X37402Y50034D01*
X37464Y50046D01*
X37517Y50082D01*
X37552Y50134D01*
X37565Y50197D01*
X37552Y50259D01*
X37517Y50312D01*
X37464Y50348D01*
X37402Y50360D02*
G37*
G36*
X42520Y50360D02*
X42457Y50348D01*
X42404Y50312D01*
X42369Y50259D01*
X42357Y50197D01*
X42369Y50134D01*
X42404Y50082D01*
X42457Y50046D01*
X42520Y50034D01*
X42582Y50046D01*
X42635Y50082D01*
X42670Y50134D01*
X42683Y50197D01*
X42670Y50259D01*
X42635Y50312D01*
X42582Y50348D01*
X42520Y50360D02*
G37*
G36*
X43691Y49189D02*
X43629Y49176D01*
X43576Y49141D01*
X43540Y49088D01*
X43528Y49026D01*
X43540Y48963D01*
X43576Y48910D01*
X43629Y48875D01*
X43691Y48862D01*
X43753Y48875D01*
X43806Y48910D01*
X43842Y48963D01*
X43854Y49026D01*
X43842Y49088D01*
X43806Y49141D01*
X43753Y49176D01*
X43691Y49189D02*
G37*
G36*
X35827Y49179D02*
X35764Y49166D01*
X35711Y49131D01*
X35676Y49078D01*
X35664Y49016D01*
X35676Y48953D01*
X35711Y48900D01*
X35764Y48865D01*
X35827Y48853D01*
X35889Y48865D01*
X35942Y48900D01*
X35977Y48953D01*
X35990Y49016D01*
X35977Y49078D01*
X35942Y49131D01*
X35889Y49166D01*
X35827Y49179D02*
G37*
G36*
X44085Y48795D02*
X44022Y48783D01*
X43969Y48747D01*
X43934Y48694D01*
X43921Y48632D01*
X43934Y48569D01*
X43969Y48517D01*
X44022Y48481D01*
X44085Y48469D01*
X44147Y48481D01*
X44200Y48517D01*
X44235Y48569D01*
X44248Y48632D01*
X44235Y48694D01*
X44200Y48747D01*
X44147Y48783D01*
X44085Y48795D02*
G37*
G36*
X40945Y49966D02*
X40882Y49954D01*
X40830Y49918D01*
X40794Y49866D01*
X40782Y49803D01*
X40794Y49741D01*
X40830Y49688D01*
X40882Y49652D01*
X40945Y49640D01*
X41007Y49652D01*
X41060Y49688D01*
X41096Y49741D01*
X41108Y49803D01*
X41096Y49866D01*
X41060Y49918D01*
X41007Y49954D01*
X40945Y49966D02*
G37*
G36*
Y49573D02*
X40882Y49560D01*
X40830Y49525D01*
X40794Y49472D01*
X40782Y49409D01*
X40794Y49347D01*
X40830Y49294D01*
X40882Y49259D01*
X40945Y49246D01*
X41007Y49259D01*
X41060Y49294D01*
X41096Y49347D01*
X41108Y49409D01*
X41096Y49472D01*
X41060Y49525D01*
X41007Y49560D01*
X40945Y49573D02*
G37*
G36*
X35237Y49376D02*
X35175Y49363D01*
X35122Y49328D01*
X35087Y49275D01*
X35074Y49213D01*
X35087Y49150D01*
X35122Y49097D01*
X35175Y49062D01*
X35237Y49049D01*
X35300Y49062D01*
X35353Y49097D01*
X35388Y49150D01*
X35401Y49213D01*
X35388Y49275D01*
X35353Y49328D01*
X35300Y49363D01*
X35237Y49376D02*
G37*
G36*
X38189Y50360D02*
X38127Y50348D01*
X38074Y50312D01*
X38038Y50259D01*
X38026Y50197D01*
X38038Y50134D01*
X38074Y50082D01*
X38127Y50046D01*
X38189Y50034D01*
X38251Y50046D01*
X38304Y50082D01*
X38340Y50134D01*
X38352Y50197D01*
X38340Y50259D01*
X38304Y50312D01*
X38251Y50348D01*
X38189Y50360D02*
G37*
G36*
Y50754D02*
X38127Y50741D01*
X38074Y50706D01*
X38038Y50653D01*
X38026Y50591D01*
X38038Y50528D01*
X38074Y50475D01*
X38127Y50440D01*
X38189Y50427D01*
X38251Y50440D01*
X38304Y50475D01*
X38340Y50528D01*
X38352Y50591D01*
X38340Y50653D01*
X38304Y50706D01*
X38251Y50741D01*
X38189Y50754D02*
G37*
G36*
X37795D02*
X37733Y50741D01*
X37680Y50706D01*
X37645Y50653D01*
X37632Y50591D01*
X37645Y50528D01*
X37680Y50475D01*
X37733Y50440D01*
X37795Y50427D01*
X37858Y50440D01*
X37911Y50475D01*
X37946Y50528D01*
X37958Y50591D01*
X37946Y50653D01*
X37911Y50706D01*
X37858Y50741D01*
X37795Y50754D02*
G37*
G36*
X37402D02*
X37339Y50741D01*
X37286Y50706D01*
X37251Y50653D01*
X37238Y50591D01*
X37251Y50528D01*
X37286Y50475D01*
X37339Y50440D01*
X37402Y50427D01*
X37464Y50440D01*
X37517Y50475D01*
X37552Y50528D01*
X37565Y50591D01*
X37552Y50653D01*
X37517Y50706D01*
X37464Y50741D01*
X37402Y50754D02*
G37*
G36*
X39370D02*
X39308Y50741D01*
X39255Y50706D01*
X39219Y50653D01*
X39207Y50591D01*
X39219Y50528D01*
X39255Y50475D01*
X39308Y50440D01*
X39370Y50427D01*
X39433Y50440D01*
X39485Y50475D01*
X39521Y50528D01*
X39533Y50591D01*
X39521Y50653D01*
X39485Y50706D01*
X39433Y50741D01*
X39370Y50754D02*
G37*
G36*
X38976D02*
X38914Y50741D01*
X38861Y50706D01*
X38826Y50653D01*
X38813Y50591D01*
X38826Y50528D01*
X38861Y50475D01*
X38914Y50440D01*
X38976Y50427D01*
X39039Y50440D01*
X39092Y50475D01*
X39127Y50528D01*
X39139Y50591D01*
X39127Y50653D01*
X39092Y50706D01*
X39039Y50741D01*
X38976Y50754D02*
G37*
G36*
X38583D02*
X38520Y50741D01*
X38467Y50706D01*
X38432Y50653D01*
X38420Y50591D01*
X38432Y50528D01*
X38467Y50475D01*
X38520Y50440D01*
X38583Y50427D01*
X38645Y50440D01*
X38698Y50475D01*
X38733Y50528D01*
X38746Y50591D01*
X38733Y50653D01*
X38698Y50706D01*
X38645Y50741D01*
X38583Y50754D02*
G37*
G36*
X39370Y50360D02*
X39308Y50348D01*
X39255Y50312D01*
X39219Y50259D01*
X39207Y50197D01*
X39219Y50134D01*
X39255Y50082D01*
X39308Y50046D01*
X39370Y50034D01*
X39433Y50046D01*
X39485Y50082D01*
X39521Y50134D01*
X39533Y50197D01*
X39521Y50259D01*
X39485Y50312D01*
X39433Y50348D01*
X39370Y50360D02*
G37*
G36*
X38976D02*
X38914Y50348D01*
X38861Y50312D01*
X38826Y50259D01*
X38813Y50197D01*
X38826Y50134D01*
X38861Y50082D01*
X38914Y50046D01*
X38976Y50034D01*
X39039Y50046D01*
X39092Y50082D01*
X39127Y50134D01*
X39139Y50197D01*
X39127Y50259D01*
X39092Y50312D01*
X39039Y50348D01*
X38976Y50360D02*
G37*
G36*
X38583D02*
X38520Y50348D01*
X38467Y50312D01*
X38432Y50259D01*
X38420Y50197D01*
X38432Y50134D01*
X38467Y50082D01*
X38520Y50046D01*
X38583Y50034D01*
X38645Y50046D01*
X38698Y50082D01*
X38733Y50134D01*
X38746Y50197D01*
X38733Y50259D01*
X38698Y50312D01*
X38645Y50348D01*
X38583Y50360D02*
G37*
G36*
X37008Y50754D02*
X36945Y50741D01*
X36893Y50706D01*
X36857Y50653D01*
X36845Y50591D01*
X36857Y50528D01*
X36893Y50475D01*
X36945Y50440D01*
X37008Y50427D01*
X37070Y50440D01*
X37123Y50475D01*
X37159Y50528D01*
X37171Y50591D01*
X37159Y50653D01*
X37123Y50706D01*
X37070Y50741D01*
X37008Y50754D02*
G37*
G36*
X40945Y50754D02*
X40882Y50741D01*
X40830Y50706D01*
X40794Y50653D01*
X40782Y50591D01*
X40794Y50528D01*
X40830Y50475D01*
X40882Y50440D01*
X40945Y50427D01*
X41007Y50440D01*
X41060Y50475D01*
X41096Y50528D01*
X41108Y50591D01*
X41096Y50653D01*
X41060Y50706D01*
X41007Y50741D01*
X40945Y50754D02*
G37*
G36*
X44146Y50407D02*
X44083Y50395D01*
X44030Y50359D01*
X43995Y50307D01*
X43983Y50244D01*
X43995Y50182D01*
X44030Y50129D01*
X44083Y50093D01*
X44146Y50081D01*
X44208Y50093D01*
X44261Y50129D01*
X44296Y50182D01*
X44309Y50244D01*
X44296Y50307D01*
X44261Y50359D01*
X44208Y50395D01*
X44146Y50407D02*
G37*
G36*
X34140Y40850D02*
X34058Y40834D01*
X33989Y40788D01*
X33942Y40718D01*
X33926Y40636D01*
X33942Y40554D01*
X33989Y40485D01*
X34058Y40438D01*
X34140Y40422D01*
X34222Y40438D01*
X34292Y40485D01*
X34338Y40554D01*
X34354Y40636D01*
X34338Y40718D01*
X34292Y40788D01*
X34222Y40834D01*
X34140Y40850D02*
G37*
G36*
X41339Y40765D02*
X41257Y40749D01*
X41187Y40703D01*
X41141Y40633D01*
X41124Y40551D01*
X41141Y40469D01*
X41187Y40400D01*
X41257Y40353D01*
X41339Y40337D01*
X41421Y40353D01*
X41490Y40400D01*
X41536Y40469D01*
X41553Y40551D01*
X41536Y40633D01*
X41490Y40703D01*
X41421Y40749D01*
X41339Y40765D02*
G37*
G36*
X37462Y40114D02*
X37380Y40098D01*
X37311Y40051D01*
X37264Y39982D01*
X37248Y39900D01*
X37264Y39818D01*
X37311Y39749D01*
X37380Y39702D01*
X37462Y39686D01*
X37544Y39702D01*
X37614Y39749D01*
X37660Y39818D01*
X37676Y39900D01*
X37660Y39982D01*
X37614Y40051D01*
X37544Y40098D01*
X37462Y40114D02*
G37*
G36*
X36726Y41861D02*
X36644Y41845D01*
X36575Y41799D01*
X36528Y41729D01*
X36512Y41647D01*
X36528Y41565D01*
X36575Y41496D01*
X36644Y41449D01*
X36726Y41433D01*
X36808Y41449D01*
X36877Y41496D01*
X36924Y41565D01*
X36940Y41647D01*
X36924Y41729D01*
X36877Y41799D01*
X36808Y41845D01*
X36726Y41861D02*
G37*
G36*
X39173Y41848D02*
X39091Y41832D01*
X39022Y41785D01*
X38975Y41716D01*
X38959Y41634D01*
X38975Y41552D01*
X39022Y41482D01*
X39091Y41436D01*
X39173Y41420D01*
X39255Y41436D01*
X39325Y41482D01*
X39371Y41552D01*
X39387Y41634D01*
X39371Y41716D01*
X39325Y41785D01*
X39255Y41832D01*
X39173Y41848D02*
G37*
G36*
X33071Y41206D02*
X33008Y41194D01*
X32956Y41159D01*
X32920Y41106D01*
X32908Y41043D01*
X32920Y40981D01*
X32956Y40928D01*
X33008Y40893D01*
X33071Y40880D01*
X33133Y40893D01*
X33186Y40928D01*
X33222Y40981D01*
X33234Y41043D01*
X33222Y41106D01*
X33186Y41159D01*
X33133Y41194D01*
X33071Y41206D02*
G37*
G36*
X33158Y38414D02*
X33076Y38398D01*
X33007Y38351D01*
X32960Y38282D01*
X32944Y38200D01*
X32960Y38118D01*
X33007Y38049D01*
X33076Y38002D01*
X33158Y37986D01*
X33240Y38002D01*
X33310Y38049D01*
X33356Y38118D01*
X33372Y38200D01*
X33356Y38282D01*
X33310Y38351D01*
X33240Y38398D01*
X33158Y38414D02*
G37*
G36*
X39832Y37979D02*
X39750Y37963D01*
X39681Y37917D01*
X39634Y37847D01*
X39618Y37765D01*
X39634Y37683D01*
X39681Y37614D01*
X39750Y37568D01*
X39832Y37551D01*
X39914Y37568D01*
X39984Y37614D01*
X40030Y37683D01*
X40046Y37765D01*
X40030Y37847D01*
X39984Y37917D01*
X39914Y37963D01*
X39832Y37979D02*
G37*
G36*
X36289D02*
X36207Y37963D01*
X36138Y37917D01*
X36091Y37847D01*
X36075Y37765D01*
X36091Y37683D01*
X36138Y37614D01*
X36207Y37568D01*
X36289Y37551D01*
X36371Y37568D01*
X36440Y37614D01*
X36487Y37683D01*
X36503Y37765D01*
X36487Y37847D01*
X36440Y37917D01*
X36371Y37963D01*
X36289Y37979D02*
G37*
G36*
X34140Y39401D02*
X34058Y39384D01*
X33989Y39338D01*
X33942Y39269D01*
X33926Y39187D01*
X33942Y39105D01*
X33989Y39035D01*
X34058Y38989D01*
X34140Y38972D01*
X34222Y38989D01*
X34292Y39035D01*
X34338Y39105D01*
X34354Y39187D01*
X34338Y39269D01*
X34292Y39338D01*
X34222Y39384D01*
X34140Y39401D02*
G37*
G36*
X41660Y39315D02*
X41578Y39299D01*
X41508Y39252D01*
X41462Y39183D01*
X41446Y39101D01*
X41462Y39019D01*
X41508Y38949D01*
X41578Y38903D01*
X41660Y38887D01*
X41742Y38903D01*
X41811Y38949D01*
X41858Y39019D01*
X41874Y39101D01*
X41858Y39183D01*
X41811Y39252D01*
X41742Y39299D01*
X41660Y39315D02*
G37*
G36*
X36909Y38645D02*
X36828Y38629D01*
X36758Y38582D01*
X36712Y38513D01*
X36695Y38431D01*
X36712Y38349D01*
X36758Y38279D01*
X36828Y38233D01*
X36909Y38217D01*
X36991Y38233D01*
X37061Y38279D01*
X37107Y38349D01*
X37124Y38431D01*
X37107Y38513D01*
X37061Y38582D01*
X36991Y38629D01*
X36909Y38645D02*
G37*
G36*
X32700Y42413D02*
X32638Y42401D01*
X32585Y42365D01*
X32549Y42312D01*
X32537Y42250D01*
X32549Y42188D01*
X32585Y42135D01*
X32638Y42099D01*
X32700Y42087D01*
X32762Y42099D01*
X32815Y42135D01*
X32851Y42188D01*
X32863Y42250D01*
X32851Y42312D01*
X32815Y42365D01*
X32762Y42401D01*
X32700Y42413D02*
G37*
G36*
X36417Y48569D02*
X36355Y48556D01*
X36302Y48521D01*
X36267Y48468D01*
X36254Y48405D01*
X36267Y48343D01*
X36302Y48290D01*
X36355Y48255D01*
X36417Y48242D01*
X36480Y48255D01*
X36533Y48290D01*
X36568Y48343D01*
X36580Y48405D01*
X36568Y48468D01*
X36533Y48521D01*
X36480Y48556D01*
X36417Y48569D02*
G37*
G36*
X35335Y47506D02*
X35272Y47493D01*
X35219Y47458D01*
X35184Y47405D01*
X35172Y47343D01*
X35184Y47280D01*
X35219Y47227D01*
X35272Y47192D01*
X35335Y47179D01*
X35397Y47192D01*
X35450Y47227D01*
X35485Y47280D01*
X35498Y47343D01*
X35485Y47405D01*
X35450Y47458D01*
X35397Y47493D01*
X35335Y47506D02*
G37*
G36*
X35500Y47033D02*
X35418Y47017D01*
X35349Y46970D01*
X35302Y46901D01*
X35286Y46819D01*
X35302Y46737D01*
X35349Y46667D01*
X35418Y46621D01*
X35500Y46605D01*
X35582Y46621D01*
X35651Y46667D01*
X35698Y46737D01*
X35714Y46819D01*
X35698Y46901D01*
X35651Y46970D01*
X35582Y47017D01*
X35500Y47033D02*
G37*
G36*
X35433Y48785D02*
X35371Y48773D01*
X35318Y48737D01*
X35282Y48684D01*
X35270Y48622D01*
X35282Y48560D01*
X35318Y48507D01*
X35371Y48471D01*
X35433Y48459D01*
X35496Y48471D01*
X35548Y48507D01*
X35584Y48560D01*
X35596Y48622D01*
X35584Y48684D01*
X35548Y48737D01*
X35496Y48773D01*
X35433Y48785D02*
G37*
G36*
X40650Y48687D02*
X40587Y48674D01*
X40534Y48639D01*
X40499Y48586D01*
X40486Y48524D01*
X40499Y48461D01*
X40534Y48408D01*
X40587Y48373D01*
X40650Y48360D01*
X40712Y48373D01*
X40765Y48408D01*
X40800Y48461D01*
X40813Y48524D01*
X40800Y48586D01*
X40765Y48639D01*
X40712Y48674D01*
X40650Y48687D02*
G37*
G36*
X36024Y48588D02*
X35961Y48576D01*
X35908Y48541D01*
X35873Y48488D01*
X35860Y48425D01*
X35873Y48363D01*
X35908Y48310D01*
X35961Y48274D01*
X36024Y48262D01*
X36086Y48274D01*
X36139Y48310D01*
X36174Y48363D01*
X36187Y48425D01*
X36174Y48488D01*
X36139Y48541D01*
X36086Y48576D01*
X36024Y48588D02*
G37*
G36*
X32548Y44012D02*
X32486Y43999D01*
X32433Y43964D01*
X32398Y43911D01*
X32385Y43848D01*
X32398Y43786D01*
X32433Y43733D01*
X32486Y43698D01*
X32548Y43685D01*
X32611Y43698D01*
X32664Y43733D01*
X32699Y43786D01*
X32712Y43848D01*
X32699Y43911D01*
X32664Y43964D01*
X32611Y43999D01*
X32548Y44012D02*
G37*
G36*
X36545Y43500D02*
X36483Y43487D01*
X36430Y43452D01*
X36395Y43399D01*
X36382Y43337D01*
X36395Y43274D01*
X36430Y43221D01*
X36483Y43186D01*
X36545Y43173D01*
X36608Y43186D01*
X36661Y43221D01*
X36696Y43274D01*
X36708Y43337D01*
X36696Y43399D01*
X36661Y43452D01*
X36608Y43487D01*
X36545Y43500D02*
G37*
G36*
X35502Y43244D02*
X35440Y43231D01*
X35387Y43196D01*
X35351Y43143D01*
X35339Y43081D01*
X35351Y43018D01*
X35387Y42965D01*
X35440Y42930D01*
X35502Y42918D01*
X35564Y42930D01*
X35617Y42965D01*
X35653Y43018D01*
X35665Y43081D01*
X35653Y43143D01*
X35617Y43196D01*
X35564Y43231D01*
X35502Y43244D02*
G37*
G36*
X32700Y46463D02*
X32638Y46451D01*
X32585Y46415D01*
X32549Y46362D01*
X32537Y46300D01*
X32549Y46238D01*
X32585Y46185D01*
X32638Y46149D01*
X32700Y46137D01*
X32762Y46149D01*
X32815Y46185D01*
X32851Y46238D01*
X32863Y46300D01*
X32851Y46362D01*
X32815Y46415D01*
X32762Y46451D01*
X32700Y46463D02*
G37*
G36*
X35531Y45096D02*
X35450Y45080D01*
X35380Y45033D01*
X35334Y44964D01*
X35317Y44882D01*
X35334Y44800D01*
X35380Y44730D01*
X35450Y44684D01*
X35531Y44668D01*
X35613Y44684D01*
X35683Y44730D01*
X35729Y44800D01*
X35746Y44882D01*
X35729Y44964D01*
X35683Y45033D01*
X35613Y45080D01*
X35531Y45096D02*
G37*
G36*
X32700Y44763D02*
X32638Y44751D01*
X32585Y44715D01*
X32549Y44662D01*
X32537Y44600D01*
X32549Y44538D01*
X32585Y44485D01*
X32638Y44449D01*
X32700Y44437D01*
X32762Y44449D01*
X32815Y44485D01*
X32851Y44538D01*
X32863Y44600D01*
X32851Y44662D01*
X32815Y44715D01*
X32762Y44751D01*
X32700Y44763D02*
G37*
G36*
X41339Y50754D02*
X41276Y50741D01*
X41223Y50706D01*
X41188Y50653D01*
X41175Y50591D01*
X41188Y50528D01*
X41223Y50475D01*
X41276Y50440D01*
X41339Y50427D01*
X41401Y50440D01*
X41454Y50475D01*
X41489Y50528D01*
X41502Y50591D01*
X41489Y50653D01*
X41454Y50706D01*
X41401Y50741D01*
X41339Y50754D02*
G37*
G36*
X42126Y54691D02*
X42064Y54678D01*
X42011Y54643D01*
X41975Y54590D01*
X41963Y54528D01*
X41975Y54465D01*
X42011Y54412D01*
X42064Y54377D01*
X42126Y54364D01*
X42188Y54377D01*
X42241Y54412D01*
X42277Y54465D01*
X42289Y54528D01*
X42277Y54590D01*
X42241Y54643D01*
X42188Y54678D01*
X42126Y54691D02*
G37*
G36*
X37402Y54691D02*
X37339Y54678D01*
X37286Y54643D01*
X37251Y54590D01*
X37238Y54528D01*
X37251Y54465D01*
X37286Y54412D01*
X37339Y54377D01*
X37402Y54364D01*
X37464Y54377D01*
X37517Y54412D01*
X37552Y54465D01*
X37565Y54528D01*
X37552Y54590D01*
X37517Y54643D01*
X37464Y54678D01*
X37402Y54691D02*
G37*
G36*
X40945Y54317D02*
X40875Y54303D01*
X40815Y54264D01*
X40778Y54208D01*
X40718D01*
X40681Y54264D01*
X40621Y54303D01*
X40551Y54317D01*
X40481Y54303D01*
X40421Y54264D01*
X40384Y54208D01*
X40324D01*
X40287Y54264D01*
X40228Y54303D01*
X40157Y54317D01*
X40087Y54303D01*
X40028Y54264D01*
X39991Y54208D01*
X39931D01*
X39894Y54264D01*
X39834Y54303D01*
X39764Y54317D01*
X39694Y54303D01*
X39634Y54264D01*
X39597Y54208D01*
X39537D01*
X39500Y54264D01*
X39440Y54303D01*
X39370Y54317D01*
X39300Y54303D01*
X39240Y54264D01*
X39203Y54208D01*
X39143D01*
X39106Y54264D01*
X39047Y54303D01*
X38976Y54317D01*
X38906Y54303D01*
X38847Y54264D01*
X38810Y54208D01*
X38750D01*
X38713Y54264D01*
X38653Y54303D01*
X38583Y54317D01*
X38512Y54303D01*
X38453Y54264D01*
X38413Y54204D01*
X38399Y54134D01*
X38413Y54064D01*
X38453Y54004D01*
X38508Y53967D01*
Y53907D01*
X38453Y53870D01*
X38413Y53810D01*
X38399Y53740D01*
X38413Y53670D01*
X38453Y53610D01*
X38508Y53573D01*
Y53513D01*
X38453Y53476D01*
X38413Y53417D01*
X38399Y53346D01*
X38413Y53276D01*
X38453Y53217D01*
X38508Y53180D01*
Y53120D01*
X38453Y53083D01*
X38413Y53023D01*
X38399Y52953D01*
X38413Y52882D01*
X38453Y52823D01*
X38508Y52786D01*
Y52726D01*
X38453Y52689D01*
X38413Y52629D01*
X38399Y52559D01*
X38413Y52489D01*
X38453Y52429D01*
X38508Y52392D01*
Y52332D01*
X38453Y52295D01*
X38413Y52236D01*
X38399Y52165D01*
X38413Y52095D01*
X38453Y52036D01*
X38508Y51999D01*
Y51939D01*
X38453Y51901D01*
X38413Y51842D01*
X38399Y51772D01*
X38413Y51701D01*
X38453Y51642D01*
X38512Y51602D01*
X38583Y51588D01*
X38653Y51602D01*
X38713Y51642D01*
X38750Y51697D01*
X38810D01*
X38847Y51642D01*
X38906Y51602D01*
X38976Y51588D01*
X39047Y51602D01*
X39106Y51642D01*
X39143Y51697D01*
X39203D01*
X39240Y51642D01*
X39300Y51602D01*
X39370Y51588D01*
X39440Y51602D01*
X39500Y51642D01*
X39537Y51697D01*
X39597D01*
X39634Y51642D01*
X39694Y51602D01*
X39764Y51588D01*
X39834Y51602D01*
X39894Y51642D01*
X39931Y51697D01*
X39991D01*
X40028Y51642D01*
X40087Y51602D01*
X40157Y51588D01*
X40228Y51602D01*
X40287Y51642D01*
X40324Y51697D01*
X40384D01*
X40421Y51642D01*
X40481Y51602D01*
X40551Y51588D01*
X40621Y51602D01*
X40681Y51642D01*
X40718Y51697D01*
X40778D01*
X40815Y51642D01*
X40875Y51602D01*
X40945Y51588D01*
X41015Y51602D01*
X41075Y51642D01*
X41115Y51701D01*
X41128Y51772D01*
X41115Y51842D01*
X41075Y51901D01*
X41019Y51939D01*
Y51999D01*
X41075Y52036D01*
X41115Y52095D01*
X41128Y52165D01*
X41115Y52236D01*
X41075Y52295D01*
X41019Y52332D01*
Y52392D01*
X41075Y52429D01*
X41115Y52489D01*
X41128Y52559D01*
X41115Y52629D01*
X41075Y52689D01*
X41019Y52726D01*
Y52786D01*
X41075Y52823D01*
X41115Y52882D01*
X41128Y52953D01*
X41115Y53023D01*
X41075Y53083D01*
X41019Y53120D01*
Y53180D01*
X41075Y53217D01*
X41115Y53276D01*
X41128Y53346D01*
X41115Y53417D01*
X41075Y53476D01*
X41019Y53513D01*
Y53573D01*
X41075Y53610D01*
X41115Y53670D01*
X41128Y53740D01*
X41115Y53810D01*
X41075Y53870D01*
X41019Y53907D01*
Y53967D01*
X41075Y54004D01*
X41115Y54064D01*
X41128Y54134D01*
X41115Y54204D01*
X41075Y54264D01*
X41015Y54303D01*
X40945Y54317D02*
G37*
G36*
X39370Y55084D02*
X39308Y55072D01*
X39255Y55037D01*
X39219Y54984D01*
X39207Y54921D01*
X39219Y54859D01*
X39255Y54806D01*
X39308Y54771D01*
X39370Y54758D01*
X39433Y54771D01*
X39485Y54806D01*
X39521Y54859D01*
X39533Y54921D01*
X39521Y54984D01*
X39485Y55037D01*
X39433Y55072D01*
X39370Y55084D02*
G37*
G36*
X38976D02*
X38914Y55072D01*
X38861Y55037D01*
X38826Y54984D01*
X38813Y54921D01*
X38826Y54859D01*
X38861Y54806D01*
X38914Y54771D01*
X38976Y54758D01*
X39039Y54771D01*
X39092Y54806D01*
X39127Y54859D01*
X39140Y54921D01*
X39127Y54984D01*
X39092Y55037D01*
X39039Y55072D01*
X38976Y55084D02*
G37*
G36*
X38583D02*
X38520Y55072D01*
X38467Y55037D01*
X38432Y54984D01*
X38420Y54921D01*
X38432Y54859D01*
X38467Y54806D01*
X38520Y54771D01*
X38583Y54758D01*
X38645Y54771D01*
X38698Y54806D01*
X38733Y54859D01*
X38746Y54921D01*
X38733Y54984D01*
X38698Y55037D01*
X38645Y55072D01*
X38583Y55084D02*
G37*
G36*
X41732Y53903D02*
X41670Y53891D01*
X41617Y53856D01*
X41582Y53803D01*
X41569Y53740D01*
X41582Y53678D01*
X41617Y53625D01*
X41670Y53589D01*
X41732Y53577D01*
X41795Y53589D01*
X41848Y53625D01*
X41883Y53678D01*
X41895Y53740D01*
X41883Y53803D01*
X41848Y53856D01*
X41795Y53891D01*
X41732Y53903D02*
G37*
G36*
X36220Y53903D02*
X36158Y53891D01*
X36105Y53856D01*
X36070Y53803D01*
X36057Y53740D01*
X36070Y53678D01*
X36105Y53625D01*
X36158Y53589D01*
X36220Y53577D01*
X36283Y53589D01*
X36336Y53625D01*
X36371Y53678D01*
X36384Y53740D01*
X36371Y53803D01*
X36336Y53856D01*
X36283Y53891D01*
X36220Y53903D02*
G37*
G36*
X37795Y53903D02*
X37733Y53891D01*
X37680Y53855D01*
X37645Y53803D01*
X37632Y53740D01*
X37645Y53678D01*
X37680Y53625D01*
X37733Y53589D01*
X37795Y53577D01*
X37858Y53589D01*
X37911Y53625D01*
X37946Y53678D01*
X37958Y53740D01*
X37946Y53803D01*
X37911Y53855D01*
X37858Y53891D01*
X37795Y53903D02*
G37*
G36*
X41732Y54297D02*
X41670Y54285D01*
X41617Y54249D01*
X41582Y54196D01*
X41569Y54134D01*
X41582Y54071D01*
X41617Y54019D01*
X41670Y53983D01*
X41732Y53971D01*
X41795Y53983D01*
X41848Y54019D01*
X41883Y54071D01*
X41895Y54134D01*
X41883Y54196D01*
X41848Y54249D01*
X41795Y54285D01*
X41732Y54297D02*
G37*
G36*
X36220Y54297D02*
X36158Y54285D01*
X36105Y54249D01*
X36070Y54196D01*
X36057Y54134D01*
X36070Y54071D01*
X36105Y54019D01*
X36158Y53983D01*
X36220Y53971D01*
X36283Y53983D01*
X36336Y54019D01*
X36371Y54071D01*
X36384Y54134D01*
X36371Y54196D01*
X36336Y54249D01*
X36283Y54285D01*
X36220Y54297D02*
G37*
G36*
X37795Y54297D02*
X37733Y54285D01*
X37680Y54249D01*
X37645Y54196D01*
X37632Y54134D01*
X37645Y54071D01*
X37680Y54018D01*
X37733Y53983D01*
X37795Y53971D01*
X37858Y53983D01*
X37911Y54018D01*
X37946Y54071D01*
X37958Y54134D01*
X37946Y54196D01*
X37911Y54249D01*
X37858Y54285D01*
X37795Y54297D02*
G37*
G36*
X40157Y55084D02*
X40095Y55072D01*
X40042Y55037D01*
X40007Y54984D01*
X39994Y54921D01*
X40007Y54859D01*
X40042Y54806D01*
X40095Y54771D01*
X40157Y54758D01*
X40220Y54771D01*
X40273Y54806D01*
X40308Y54859D01*
X40321Y54921D01*
X40308Y54984D01*
X40273Y55037D01*
X40220Y55072D01*
X40157Y55084D02*
G37*
G36*
X40551Y56266D02*
X40489Y56253D01*
X40436Y56218D01*
X40400Y56165D01*
X40388Y56102D01*
X40400Y56040D01*
X40436Y55987D01*
X40489Y55952D01*
X40551Y55939D01*
X40614Y55952D01*
X40667Y55987D01*
X40702Y56040D01*
X40714Y56102D01*
X40702Y56165D01*
X40667Y56218D01*
X40614Y56253D01*
X40551Y56266D02*
G37*
G36*
X40157D02*
X40095Y56253D01*
X40042Y56218D01*
X40007Y56165D01*
X39994Y56102D01*
X40007Y56040D01*
X40042Y55987D01*
X40095Y55952D01*
X40157Y55939D01*
X40220Y55952D01*
X40273Y55987D01*
X40308Y56040D01*
X40321Y56102D01*
X40308Y56165D01*
X40273Y56218D01*
X40220Y56253D01*
X40157Y56266D02*
G37*
G36*
X41339Y55872D02*
X41276Y55859D01*
X41223Y55824D01*
X41188Y55771D01*
X41175Y55709D01*
X41188Y55646D01*
X41223Y55593D01*
X41276Y55558D01*
X41339Y55546D01*
X41401Y55558D01*
X41454Y55593D01*
X41489Y55646D01*
X41502Y55709D01*
X41489Y55771D01*
X41454Y55824D01*
X41401Y55859D01*
X41339Y55872D02*
G37*
G36*
X41732Y56266D02*
X41670Y56253D01*
X41617Y56218D01*
X41582Y56165D01*
X41569Y56102D01*
X41582Y56040D01*
X41617Y55987D01*
X41670Y55952D01*
X41732Y55939D01*
X41795Y55952D01*
X41848Y55987D01*
X41883Y56040D01*
X41895Y56102D01*
X41883Y56165D01*
X41848Y56218D01*
X41795Y56253D01*
X41732Y56266D02*
G37*
G36*
X41339D02*
X41276Y56253D01*
X41223Y56218D01*
X41188Y56165D01*
X41175Y56102D01*
X41188Y56040D01*
X41223Y55987D01*
X41276Y55952D01*
X41339Y55939D01*
X41401Y55952D01*
X41454Y55987D01*
X41489Y56040D01*
X41502Y56102D01*
X41489Y56165D01*
X41454Y56218D01*
X41401Y56253D01*
X41339Y56266D02*
G37*
G36*
X40945D02*
X40882Y56253D01*
X40830Y56218D01*
X40794Y56165D01*
X40782Y56102D01*
X40794Y56040D01*
X40830Y55987D01*
X40882Y55952D01*
X40945Y55939D01*
X41007Y55952D01*
X41060Y55987D01*
X41096Y56040D01*
X41108Y56102D01*
X41096Y56165D01*
X41060Y56218D01*
X41007Y56253D01*
X40945Y56266D02*
G37*
G36*
X42904Y55468D02*
X42841Y55456D01*
X42788Y55420D01*
X42753Y55368D01*
X42740Y55305D01*
X42753Y55243D01*
X42788Y55190D01*
X42841Y55154D01*
X42902Y55142D01*
Y55084D01*
X42902D01*
Y55082D01*
X42851Y55072D01*
X42798Y55037D01*
X42763Y54984D01*
X42750Y54921D01*
X42763Y54859D01*
X42798Y54806D01*
X42851Y54771D01*
X42913Y54758D01*
X42976Y54771D01*
X43029Y54806D01*
X43064Y54859D01*
X43077Y54921D01*
X43064Y54984D01*
X43029Y55037D01*
X42976Y55072D01*
X42915Y55084D01*
Y55142D01*
X42915D01*
Y55144D01*
X42966Y55154D01*
X43019Y55190D01*
X43054Y55243D01*
X43067Y55305D01*
X43054Y55368D01*
X43019Y55420D01*
X42966Y55456D01*
X42904Y55468D02*
G37*
G36*
X40945Y55084D02*
X40882Y55072D01*
X40830Y55037D01*
X40794Y54984D01*
X40782Y54921D01*
X40794Y54859D01*
X40830Y54806D01*
X40882Y54771D01*
X40945Y54758D01*
X41007Y54771D01*
X41060Y54806D01*
X41096Y54859D01*
X41108Y54921D01*
X41096Y54984D01*
X41060Y55037D01*
X41007Y55072D01*
X40945Y55084D02*
G37*
G36*
X40551D02*
X40489Y55072D01*
X40436Y55037D01*
X40400Y54984D01*
X40388Y54921D01*
X40400Y54859D01*
X40436Y54806D01*
X40489Y54771D01*
X40551Y54758D01*
X40614Y54771D01*
X40667Y54806D01*
X40702Y54859D01*
X40714Y54921D01*
X40702Y54984D01*
X40667Y55037D01*
X40614Y55072D01*
X40551Y55084D02*
G37*
G36*
X42913Y55872D02*
X42851Y55859D01*
X42798Y55824D01*
X42763Y55771D01*
X42750Y55709D01*
X42763Y55646D01*
X42798Y55593D01*
X42851Y55558D01*
X42913Y55546D01*
X42976Y55558D01*
X43029Y55593D01*
X43064Y55646D01*
X43077Y55709D01*
X43064Y55771D01*
X43029Y55824D01*
X42976Y55859D01*
X42913Y55872D02*
G37*
G36*
X40945Y55478D02*
X40882Y55466D01*
X40830Y55430D01*
X40794Y55377D01*
X40782Y55315D01*
X40794Y55253D01*
X40830Y55200D01*
X40882Y55164D01*
X40945Y55152D01*
X41007Y55164D01*
X41060Y55200D01*
X41096Y55253D01*
X41106Y55304D01*
X41108D01*
Y55304D01*
X41166D01*
X41178Y55243D01*
X41213Y55190D01*
X41266Y55154D01*
X41329Y55142D01*
X41391Y55154D01*
X41444Y55190D01*
X41479Y55243D01*
X41492Y55305D01*
X41479Y55368D01*
X41444Y55420D01*
X41391Y55456D01*
X41329Y55468D01*
X41266Y55456D01*
X41213Y55420D01*
X41178Y55368D01*
X41168Y55316D01*
X41166D01*
Y55316D01*
X41108D01*
X41096Y55377D01*
X41060Y55430D01*
X41007Y55466D01*
X40945Y55478D02*
G37*
G36*
X38199Y55468D02*
X38136Y55456D01*
X38083Y55420D01*
X38048Y55368D01*
X38036Y55305D01*
X38048Y55243D01*
X38083Y55190D01*
X38136Y55154D01*
X38199Y55142D01*
X38261Y55154D01*
X38314Y55190D01*
X38350Y55243D01*
X38362Y55305D01*
X38350Y55368D01*
X38314Y55420D01*
X38261Y55456D01*
X38199Y55468D02*
G37*
G36*
X37795Y51935D02*
X37733Y51922D01*
X37680Y51887D01*
X37645Y51834D01*
X37632Y51772D01*
X37645Y51709D01*
X37680Y51656D01*
X37733Y51621D01*
X37795Y51609D01*
X37858Y51621D01*
X37911Y51656D01*
X37946Y51709D01*
X37958Y51772D01*
X37946Y51834D01*
X37911Y51887D01*
X37858Y51922D01*
X37795Y51935D02*
G37*
G36*
X42116Y51551D02*
X42054Y51539D01*
X42001Y51503D01*
X41965Y51450D01*
X41953Y51388D01*
X41965Y51325D01*
X42001Y51272D01*
X42054Y51237D01*
X42116Y51225D01*
X42179Y51237D01*
X42231Y51272D01*
X42267Y51325D01*
X42279Y51388D01*
X42267Y51450D01*
X42231Y51503D01*
X42179Y51539D01*
X42116Y51551D02*
G37*
G36*
X43307Y51541D02*
X43245Y51529D01*
X43192Y51493D01*
X43156Y51440D01*
X43144Y51378D01*
X43156Y51316D01*
X43192Y51263D01*
X43245Y51227D01*
X43307Y51215D01*
X43370Y51227D01*
X43422Y51263D01*
X43458Y51316D01*
X43470Y51378D01*
X43458Y51440D01*
X43422Y51493D01*
X43370Y51529D01*
X43307Y51541D02*
G37*
G36*
X37795Y52329D02*
X37733Y52316D01*
X37680Y52281D01*
X37645Y52228D01*
X37632Y52165D01*
X37645Y52103D01*
X37680Y52050D01*
X37733Y52015D01*
X37795Y52002D01*
X37858Y52015D01*
X37911Y52050D01*
X37946Y52103D01*
X37958Y52165D01*
X37946Y52228D01*
X37911Y52281D01*
X37858Y52316D01*
X37795Y52329D02*
G37*
G36*
X42913D02*
X42851Y52316D01*
X42798Y52281D01*
X42763Y52228D01*
X42750Y52165D01*
X42763Y52103D01*
X42798Y52050D01*
X42851Y52015D01*
X42912Y52002D01*
D01*
Y51944D01*
X42912D01*
Y51942D01*
X42861Y51932D01*
X42808Y51897D01*
X42773Y51844D01*
X42760Y51782D01*
X42773Y51719D01*
X42808Y51666D01*
X42861Y51631D01*
X42923Y51618D01*
X42986Y51631D01*
X43039Y51666D01*
X43074Y51719D01*
X43086Y51782D01*
X43074Y51844D01*
X43039Y51897D01*
X42986Y51932D01*
X42924Y51944D01*
D01*
Y52002D01*
X42924D01*
Y52004D01*
X42976Y52015D01*
X43029Y52050D01*
X43064Y52103D01*
X43077Y52165D01*
X43064Y52228D01*
X43029Y52281D01*
X42976Y52316D01*
X42913Y52329D02*
G37*
G36*
X41732Y51935D02*
X41670Y51922D01*
X41617Y51887D01*
X41582Y51834D01*
X41569Y51772D01*
X41582Y51709D01*
X41617Y51656D01*
X41670Y51621D01*
X41732Y51609D01*
X41795Y51621D01*
X41848Y51656D01*
X41883Y51709D01*
X41895Y51772D01*
X41883Y51834D01*
X41848Y51887D01*
X41795Y51922D01*
X41732Y51935D02*
G37*
G36*
X39370Y51147D02*
X39308Y51135D01*
X39255Y51100D01*
X39219Y51047D01*
X39207Y50984D01*
X39219Y50922D01*
X39255Y50869D01*
X39308Y50834D01*
X39370Y50821D01*
X39433Y50834D01*
X39485Y50869D01*
X39521Y50922D01*
X39533Y50984D01*
X39521Y51047D01*
X39485Y51100D01*
X39433Y51135D01*
X39370Y51147D02*
G37*
G36*
X38976D02*
X38914Y51135D01*
X38861Y51100D01*
X38826Y51047D01*
X38813Y50984D01*
X38826Y50922D01*
X38861Y50869D01*
X38914Y50834D01*
X38976Y50821D01*
X39039Y50834D01*
X39092Y50869D01*
X39127Y50922D01*
X39139Y50984D01*
X39127Y51047D01*
X39092Y51100D01*
X39039Y51135D01*
X38976Y51147D02*
G37*
G36*
X38583D02*
X38520Y51135D01*
X38467Y51100D01*
X38432Y51047D01*
X38420Y50984D01*
X38432Y50922D01*
X38467Y50869D01*
X38520Y50834D01*
X38583Y50821D01*
X38645Y50834D01*
X38698Y50869D01*
X38733Y50922D01*
X38746Y50984D01*
X38733Y51047D01*
X38698Y51100D01*
X38645Y51135D01*
X38583Y51147D02*
G37*
G36*
X40945D02*
X40882Y51135D01*
X40830Y51100D01*
X40794Y51047D01*
X40782Y50984D01*
X40794Y50922D01*
X40830Y50869D01*
X40882Y50834D01*
X40945Y50821D01*
X41007Y50834D01*
X41060Y50869D01*
X41096Y50922D01*
X41108Y50984D01*
X41096Y51047D01*
X41060Y51100D01*
X41007Y51135D01*
X40945Y51147D02*
G37*
G36*
X40551D02*
X40489Y51135D01*
X40436Y51100D01*
X40400Y51047D01*
X40388Y50984D01*
X40400Y50922D01*
X40436Y50869D01*
X40489Y50834D01*
X40551Y50821D01*
X40614Y50834D01*
X40667Y50869D01*
X40702Y50922D01*
X40714Y50984D01*
X40702Y51047D01*
X40667Y51100D01*
X40614Y51135D01*
X40551Y51147D02*
G37*
G36*
X40157D02*
X40095Y51135D01*
X40042Y51100D01*
X40007Y51047D01*
X39994Y50984D01*
X40007Y50922D01*
X40042Y50869D01*
X40095Y50834D01*
X40157Y50821D01*
X40220Y50834D01*
X40273Y50869D01*
X40308Y50922D01*
X40321Y50984D01*
X40308Y51047D01*
X40273Y51100D01*
X40220Y51135D01*
X40157Y51147D02*
G37*
G36*
X41732Y52329D02*
X41670Y52316D01*
X41617Y52281D01*
X41582Y52228D01*
X41569Y52165D01*
X41582Y52103D01*
X41617Y52050D01*
X41670Y52015D01*
X41732Y52002D01*
X41795Y52015D01*
X41848Y52050D01*
X41883Y52103D01*
X41895Y52165D01*
X41883Y52228D01*
X41848Y52281D01*
X41795Y52316D01*
X41732Y52329D02*
G37*
G36*
X42913Y53116D02*
X42851Y53103D01*
X42798Y53068D01*
X42763Y53015D01*
X42750Y52953D01*
X42763Y52890D01*
X42798Y52837D01*
X42851Y52802D01*
X42913Y52790D01*
X42976Y52802D01*
X43029Y52837D01*
X43064Y52890D01*
X43077Y52953D01*
X43064Y53015D01*
X43029Y53068D01*
X42976Y53103D01*
X42913Y53116D02*
G37*
G36*
X37008D02*
X36945Y53103D01*
X36893Y53068D01*
X36857Y53015D01*
X36845Y52953D01*
X36857Y52890D01*
X36893Y52837D01*
X36945Y52802D01*
X37008Y52790D01*
X37070Y52802D01*
X37123Y52837D01*
X37159Y52890D01*
X37171Y52953D01*
X37159Y53015D01*
X37123Y53068D01*
X37070Y53103D01*
X37008Y53116D02*
G37*
G36*
X42913Y52722D02*
X42851Y52710D01*
X42798Y52674D01*
X42763Y52621D01*
X42750Y52559D01*
X42763Y52497D01*
X42798Y52444D01*
X42851Y52408D01*
X42913Y52396D01*
X42976Y52408D01*
X43029Y52444D01*
X43064Y52497D01*
X43077Y52559D01*
X43064Y52621D01*
X43029Y52674D01*
X42976Y52710D01*
X42913Y52722D02*
G37*
G36*
Y53510D02*
X42851Y53497D01*
X42798Y53462D01*
X42763Y53409D01*
X42750Y53346D01*
X42763Y53284D01*
X42798Y53231D01*
X42851Y53196D01*
X42913Y53183D01*
X42976Y53196D01*
X43029Y53231D01*
X43064Y53284D01*
X43077Y53346D01*
X43064Y53409D01*
X43029Y53462D01*
X42976Y53497D01*
X42913Y53510D02*
G37*
G36*
X41732D02*
X41670Y53497D01*
X41617Y53462D01*
X41582Y53409D01*
X41569Y53346D01*
X41582Y53284D01*
X41617Y53231D01*
X41670Y53196D01*
X41732Y53183D01*
X41795Y53196D01*
X41848Y53231D01*
X41883Y53284D01*
X41895Y53346D01*
X41883Y53409D01*
X41848Y53462D01*
X41795Y53497D01*
X41732Y53510D02*
G37*
G36*
X37795Y53510D02*
X37733Y53497D01*
X37680Y53462D01*
X37645Y53409D01*
X37632Y53346D01*
X37645Y53284D01*
X37680Y53231D01*
X37733Y53196D01*
X37795Y53183D01*
X37858Y53196D01*
X37911Y53231D01*
X37946Y53284D01*
X37958Y53346D01*
X37946Y53409D01*
X37911Y53462D01*
X37858Y53497D01*
X37795Y53510D02*
G37*
G36*
X37008Y52722D02*
X36945Y52710D01*
X36893Y52674D01*
X36857Y52621D01*
X36845Y52559D01*
X36857Y52497D01*
X36893Y52444D01*
X36945Y52408D01*
X37008Y52396D01*
X37070Y52408D01*
X37123Y52444D01*
X37159Y52497D01*
X37171Y52559D01*
X37159Y52621D01*
X37123Y52674D01*
X37070Y52710D01*
X37008Y52722D02*
G37*
G36*
X36614D02*
X36552Y52710D01*
X36499Y52674D01*
X36463Y52621D01*
X36451Y52559D01*
X36463Y52497D01*
X36499Y52444D01*
X36552Y52408D01*
X36614Y52396D01*
X36677Y52408D01*
X36730Y52444D01*
X36765Y52497D01*
X36777Y52559D01*
X36765Y52621D01*
X36730Y52674D01*
X36677Y52710D01*
X36614Y52722D02*
G37*
G36*
X36220D02*
X36158Y52710D01*
X36105Y52674D01*
X36070Y52621D01*
X36057Y52559D01*
X36070Y52497D01*
X36105Y52444D01*
X36158Y52408D01*
X36220Y52396D01*
X36283Y52408D01*
X36336Y52444D01*
X36371Y52497D01*
X36384Y52559D01*
X36371Y52621D01*
X36336Y52674D01*
X36283Y52710D01*
X36220Y52722D02*
G37*
G36*
X41732D02*
X41670Y52710D01*
X41617Y52674D01*
X41582Y52621D01*
X41569Y52559D01*
X41582Y52497D01*
X41617Y52444D01*
X41670Y52408D01*
X41732Y52396D01*
X41795Y52408D01*
X41848Y52444D01*
X41883Y52497D01*
X41895Y52559D01*
X41883Y52621D01*
X41848Y52674D01*
X41795Y52710D01*
X41732Y52722D02*
G37*
G36*
X37795D02*
X37733Y52710D01*
X37680Y52674D01*
X37645Y52621D01*
X37632Y52559D01*
X37645Y52497D01*
X37680Y52444D01*
X37733Y52408D01*
X37795Y52396D01*
X37858Y52408D01*
X37911Y52444D01*
X37946Y52497D01*
X37958Y52559D01*
X37946Y52621D01*
X37911Y52674D01*
X37858Y52710D01*
X37795Y52722D02*
G37*
G36*
X37402D02*
X37339Y52710D01*
X37286Y52674D01*
X37251Y52621D01*
X37238Y52559D01*
X37251Y52497D01*
X37286Y52444D01*
X37339Y52408D01*
X37402Y52396D01*
X37464Y52408D01*
X37517Y52444D01*
X37552Y52497D01*
X37565Y52559D01*
X37552Y52621D01*
X37517Y52674D01*
X37464Y52710D01*
X37402Y52722D02*
G37*
%LPD*%
%ADD10R,0.0433X0.0394*%
%ADD11R,0.0394X0.0433*%
%ADD12R,0.0866X0.1024*%
%ADD13R,0.1024X0.0866*%
%ADD14C,0.0157*%
%ADD15R,0.0354X0.0276*%
%ADD16R,0.0157X0.0709*%
%ADD17R,0.0709X0.0157*%
%ADD18R,0.0150X0.0600*%
%ADD19R,0.1969X0.1181*%
%ADD20R,0.0394X0.1929*%
%ADD21R,0.1063X0.0630*%
%ADD22O,0.0409X0.0150*%
%ADD23R,0.1614X0.1024*%
%ADD24R,0.0610X0.0197*%
%ADD25R,0.0610X0.0197*%
%ADD26R,0.0197X0.0610*%
%ADD27R,0.0551X0.0787*%
%ADD28R,0.0630X0.1063*%
%ADD29R,0.0709X0.0630*%
%ADD30R,0.0358X0.0480*%
%ADD31R,0.0630X0.0709*%
%ADD32R,0.0512X0.0591*%
%ADD33R,0.0866X0.0157*%
%ADD34R,0.0866X0.0157*%
%ADD35R,0.0571X0.0217*%
%ADD36R,0.1010X0.0620*%
%ADD37R,0.2560X0.0360*%
%ADD38R,0.0775X0.0620*%
%ADD39R,0.0409X0.0150*%
%ADD40R,0.1024X0.0945*%
%ADD41R,0.0157X0.0472*%
%ADD42C,0.0060*%
%ADD43C,0.0180*%
%ADD44C,0.0160*%
%ADD45C,0.0140*%
%ADD46C,0.0240*%
%ADD47C,0.0120*%
%ADD48C,0.0500*%
%ADD49C,0.0550*%
%ADD50C,0.1063*%
%ADD51C,0.1300*%
%ADD52C,0.0945*%
%ADD53C,0.0591*%
%ADD54R,0.0591X0.0591*%
%ADD55C,0.0700*%
%ADD56C,0.1600*%
%ADD57C,0.0200*%
%ADD58C,0.0300*%
%ADD59C,0.0240*%
%ADD60C,0.0280*%
%ADD61C,0.0420*%
D42*
X128104Y36076D02*
Y36974D01*
X127461Y35433D02*
X128104Y36076D01*
X120965Y35433D02*
X127461D01*
X120571Y35827D02*
X120965Y35433D01*
X55620Y36417D02*
X56398Y35640D01*
X46850Y43110D02*
X50394Y39567D01*
X54331Y36417D02*
X55620D01*
X45463Y43100D02*
X46358D01*
X51181Y39567D02*
X54331Y36417D01*
X50394Y39567D02*
X51181D01*
X46358Y43110D02*
X46850D01*
X45246Y42844D02*
X46230D01*
X50689Y38976D02*
X54459Y35207D01*
X46230Y42844D02*
X50098Y38976D01*
X54459Y34941D02*
Y35207D01*
X50098Y38976D02*
X50689D01*
X50394Y38484D02*
X53455Y35423D01*
Y34980D02*
Y35423D01*
X45600Y42490D02*
X49606Y38484D01*
X50394D01*
X45285Y42490D02*
X45600D01*
X50217Y37992D02*
X52382Y35827D01*
Y35030D02*
Y35827D01*
X39173Y48337D02*
X45026Y42484D01*
Y42474D02*
Y42484D01*
X49508Y37992D02*
X50217D01*
X45026Y42474D02*
X49508Y37992D01*
X50413Y35020D02*
Y36693D01*
X38780Y48327D02*
X45177Y41929D01*
Y41929D02*
X50413Y36693D01*
X52815Y55315D02*
X53406Y55906D01*
X43307Y55315D02*
X52815D01*
X43297Y55305D02*
X43307D01*
Y54921D02*
X52087D01*
X53437Y60917D02*
X59529D01*
X42913Y56102D02*
X43110Y56299D01*
X47638D01*
X51772Y60433D01*
X52953D01*
X53437Y60917D01*
X41929Y48917D02*
Y49606D01*
X41732Y48327D02*
X41929Y48130D01*
X41732Y48327D02*
Y48622D01*
X41929Y48819D01*
Y48917D01*
X42126Y48425D02*
Y49409D01*
Y48425D02*
X46161Y44390D01*
X46555Y44390D02*
X50591D01*
X46161Y44390D02*
X46555D01*
X46260Y44587D02*
X50787D01*
X42323Y48524D02*
Y49606D01*
Y48524D02*
X46260Y44587D01*
X42520Y48622D02*
Y49409D01*
Y48622D02*
X46358Y44783D01*
X46850Y44783D02*
X50984D01*
X46358Y44783D02*
X46850D01*
X62500Y47047D02*
Y47441D01*
X42717Y48720D02*
X46457Y44980D01*
X47146D02*
X51280D01*
X42725Y49114D02*
Y49598D01*
X46457Y44980D02*
X47146D01*
X42717Y48720D02*
Y49114D01*
X69922Y58917D02*
X76141D01*
X62343D02*
X68661D01*
X54863D02*
X61181D01*
X52756D02*
X53700D01*
X54134Y59350D01*
X54429D01*
X54863Y58917D01*
X61181D02*
X61614Y59350D01*
X61909D01*
X62343Y58917D01*
X68661D02*
X69094Y59350D01*
X69488D01*
X69922Y58917D01*
X150138D02*
X151141D01*
X76141D02*
X76575Y59350D01*
X76968D01*
X77402Y58917D01*
X82756D01*
X82815Y58858D01*
X83563D01*
X84055Y59350D01*
X84449D01*
X84882Y58917D01*
X90256D01*
X91102D01*
X91535Y59350D01*
X92028D01*
X92461Y58917D01*
X97756D01*
X98681D01*
X99114Y59350D01*
X99409D01*
X99843Y58917D01*
X105256D01*
X106063D01*
X106496Y59350D01*
X106988D01*
X107422Y58917D01*
X112756D01*
X113641D01*
X114075Y59350D01*
X114468D01*
X114961Y58858D01*
X120197D01*
X120256Y58917D01*
X121122D01*
X121555Y59350D01*
X121949D01*
X122382Y58917D01*
X127756D01*
X128602D01*
X129035Y59350D01*
X129429D01*
X129863Y58917D01*
X135256D01*
X136082D01*
X136516Y59350D01*
X136909D01*
X137343Y58917D01*
X142756D01*
X143563D01*
X143996Y59350D01*
X144488D01*
X144922Y58917D01*
X150138D01*
X151141D02*
X151575Y59350D01*
X151968D01*
X152402Y58917D01*
X157756D01*
X114961Y38681D02*
X119488Y34154D01*
X136417D01*
X137604Y35340D01*
Y36224D01*
X53937Y65551D02*
X54626Y66240D01*
X55610D01*
X73425Y69488D02*
X75394Y71457D01*
X60236Y69488D02*
X73425D01*
X56102Y65354D02*
X60236Y69488D01*
X53051Y65354D02*
X56102D01*
X58858Y69980D02*
X64173D01*
X55413Y66535D02*
X58858Y69980D01*
X52657Y66535D02*
X55413D01*
X47146Y61024D02*
X52657Y66535D01*
X42126Y61024D02*
X47146D01*
X38976Y57874D02*
X42126Y61024D01*
X35433Y57874D02*
X38976D01*
X35039Y57480D02*
X35433Y57874D01*
X35039Y56890D02*
Y57480D01*
Y56890D02*
X35236Y56693D01*
X36417Y50787D02*
X36614Y50984D01*
X35531Y50787D02*
X36417D01*
X34843Y50787D02*
X34941Y50886D01*
X32874Y50787D02*
X34843D01*
X34941Y50886D02*
X35433D01*
X35531Y50787D01*
X28937Y48327D02*
X31671Y51061D01*
X35947D02*
X36024Y50984D01*
X31671Y51061D02*
X35947D01*
X36024Y50984D02*
X36220D01*
X35532Y50591D02*
X36220D01*
X32776Y50394D02*
X35335D01*
X35531Y50591D01*
X29035Y46654D02*
X32677Y50295D01*
X32677Y50295D02*
X32776Y50394D01*
X28346Y45669D02*
X32874Y50197D01*
X36122Y50394D02*
X36417D01*
X35433Y50197D02*
X35630Y50394D01*
X32874Y50197D02*
X35433D01*
X35630Y50394D02*
X36122D01*
X35625Y49996D02*
X35830Y50200D01*
X26309Y43337D02*
X32968Y49996D01*
X35625D01*
X35830Y50200D02*
X36224D01*
X36024Y50000D02*
X36417D01*
X33661Y49606D02*
X33858Y49803D01*
X35827D02*
X36024Y50000D01*
X33858Y49803D02*
X35827D01*
X31594Y47539D02*
X33661Y49606D01*
X34449Y30709D02*
X59203D01*
X29921Y53740D02*
X34350D01*
X25492Y49311D02*
X29921Y53740D01*
X25492Y39665D02*
X34449Y30709D01*
X25492Y39665D02*
Y49311D01*
X34646Y30906D02*
X58400D01*
X25689Y39862D02*
X34646Y30906D01*
X30709Y53543D02*
X34055D01*
X25689Y48524D02*
X30709Y53543D01*
X25689Y39862D02*
Y48524D01*
X57597Y31102D02*
X59394Y32899D01*
X34744Y31102D02*
X57597D01*
X25886Y39961D02*
X34744Y31102D01*
X25886Y39961D02*
Y48425D01*
X30807Y53346D01*
X33760D01*
X58400Y30906D02*
X60394Y32899D01*
X59203Y30709D02*
X61394Y32899D01*
X34055Y53543D02*
X34055Y53543D01*
X66634Y43504D02*
X68406Y45276D01*
X152506Y47093D02*
Y47396D01*
X151870Y46457D02*
X152506Y47093D01*
X151673Y46457D02*
X151870D01*
X146654Y41437D02*
X151673Y46457D01*
X52067Y41437D02*
X146654D01*
X49902Y43602D02*
X52067Y41437D01*
X45866Y43602D02*
X49902D01*
X41339Y48130D02*
X45866Y43602D01*
X41339Y48130D02*
Y50197D01*
X137506Y47053D02*
Y47417D01*
X136909Y46457D02*
X137506Y47053D01*
X136614Y46457D02*
X136909D01*
X131890Y41732D02*
X136614Y46457D01*
X52362Y41732D02*
X131890D01*
X50295Y43799D02*
X52362Y41732D01*
X45965Y43799D02*
X50295D01*
X42421Y47343D02*
X45965Y43799D01*
X42421Y47343D02*
X42421D01*
X41535Y48228D02*
X42421Y47343D01*
X41535Y48228D02*
Y50000D01*
X41732Y50197D01*
X60862Y49917D02*
X61756D01*
X68362D02*
X69256D01*
X75862D02*
X76756D01*
X83362D02*
X84256D01*
X90862D02*
X91756D01*
X98362D02*
X99256D01*
X105862D02*
X106756D01*
X113362D02*
X114256D01*
X120862D02*
X121756D01*
X128362D02*
X129256D01*
X135862D02*
X136756D01*
X143362D02*
X144256D01*
X150862D02*
X151756D01*
X158362D02*
X159256D01*
X61721Y49882D02*
X61756Y49917D01*
X62731D01*
X69221Y49882D02*
X69256Y49917D01*
X70231D01*
X76756D02*
X77731D01*
X76721Y49882D02*
X76756Y49917D01*
X84221Y49882D02*
X84256Y49917D01*
X85231D01*
X91756D02*
X92731D01*
X91721Y49882D02*
X91756Y49917D01*
X99221Y49882D02*
X99256Y49917D01*
X100231D01*
X106721Y49882D02*
X106756Y49917D01*
X107731D01*
X114256D02*
X115231D01*
X114221Y49882D02*
X114256Y49917D01*
X121721Y49882D02*
X121756Y49917D01*
X122731D01*
X129256D02*
X130231D01*
X129221Y49882D02*
X129256Y49917D01*
X136721Y49882D02*
X136756Y49917D01*
X144221Y49882D02*
X144256Y49917D01*
X136756D02*
X137731D01*
X144256D02*
X145231D01*
X151721Y49882D02*
X151756Y49917D01*
X152731D01*
X159221Y49882D02*
X159256Y49917D01*
X160231D01*
X60789Y50917D02*
X61756D01*
X68289D02*
X69256D01*
X75789D02*
X76756D01*
X83289D02*
X84256D01*
X90789D02*
X91756D01*
X98289D02*
X99256D01*
X105789D02*
X106756D01*
X113289D02*
X114256D01*
X120789D02*
X121756D01*
X128289D02*
X129256D01*
X135789D02*
X136756D01*
X143289D02*
X144256D01*
X150789D02*
X151756D01*
X158289D02*
X159256D01*
X61754Y50915D02*
X61756Y50917D01*
X62744D01*
X69256D02*
X70244D01*
X69254Y50915D02*
X69256Y50917D01*
X76756D02*
X77744D01*
X76754Y50915D02*
X76756Y50917D01*
X84254Y50915D02*
X84256Y50917D01*
X85244D01*
X91756D02*
X92744D01*
X91754Y50915D02*
X91756Y50917D01*
X99254Y50915D02*
X99256Y50917D01*
X100244D01*
X106756D02*
X107744D01*
X106754Y50915D02*
X106756Y50917D01*
X114256D02*
X115244D01*
X114254Y50915D02*
X114256Y50917D01*
X121754Y50915D02*
X121756Y50917D01*
X122744D01*
X129256D02*
X130244D01*
X129254Y50915D02*
X129256Y50917D01*
X136754Y50915D02*
X136756Y50917D01*
X137744D01*
X144254Y50915D02*
X144256Y50917D01*
X145244D01*
X151756D02*
X152744D01*
X151754Y50915D02*
X151756Y50917D01*
X159254Y50915D02*
X159256Y50917D01*
X160244D01*
X60836Y53917D02*
X61756D01*
X68336D02*
X69256D01*
X75836D02*
X76756D01*
X83336D02*
X84256D01*
X90836D02*
X91756D01*
X98336D02*
X99256D01*
X105836D02*
X106756D01*
X113336D02*
X114256D01*
X120836D02*
X121756D01*
X128336D02*
X129256D01*
X135836D02*
X136756D01*
X143336D02*
X144256D01*
X150836D02*
X151756D01*
X158336D02*
X159256D01*
X61756D02*
X62953D01*
X69256D02*
X70453D01*
X76756D02*
X77953D01*
X84256D02*
X85453D01*
X91756D02*
X92953D01*
X99256D02*
X100453D01*
X106756D02*
X107953D01*
X114256D02*
X115453D01*
X121756D02*
X122953D01*
X129256D02*
X130453D01*
X136756D02*
X137953D01*
X144256D02*
X145453D01*
X151756D02*
X152953D01*
X159256D02*
X160453D01*
X46378Y32854D02*
Y33219D01*
X60862Y59917D02*
X61756D01*
X68362D02*
X69256D01*
X75862D02*
X76756D01*
X83362D02*
X84256D01*
X90862D02*
X91756D01*
X98362D02*
X99256D01*
X105862D02*
X106756D01*
X113362D02*
X114256D01*
X120862D02*
X121756D01*
X128362D02*
X129256D01*
X135862D02*
X136756D01*
X143362D02*
X144256D01*
X150862D02*
X151756D01*
X158362D02*
X159256D01*
X61756D02*
X65979D01*
X69256D02*
X73479D01*
X76756D02*
X80979D01*
X84256D02*
X88479D01*
X91756D02*
X95979D01*
X99256D02*
X103479D01*
X106756D02*
X110979D01*
X114256D02*
X118479D01*
X121756D02*
X125979D01*
X129256D02*
X133479D01*
X136756D02*
X140979D01*
X144256D02*
X148479D01*
X151756D02*
X155979D01*
X159256D02*
X163479D01*
X61630Y60417D02*
X62506D01*
X69130D02*
X70006D01*
X76630D02*
X77506D01*
X84130D02*
X85006D01*
X91630D02*
X92506D01*
X99130D02*
X100006D01*
X106630D02*
X107506D01*
X114130D02*
X115006D01*
X121630D02*
X122506D01*
X129130D02*
X130006D01*
X136630D02*
X137506D01*
X144130D02*
X145006D01*
X151630D02*
X152506D01*
X159130D02*
X160006D01*
X62506D02*
X67858D01*
X70006D02*
X75358D01*
X77506D02*
X82858D01*
X85006D02*
X90358D01*
X92506D02*
X97858D01*
X100006D02*
X105358D01*
X107506D02*
X112858D01*
X115006D02*
X120358D01*
X122506D02*
X127858D01*
X130006D02*
X135358D01*
X137506D02*
X142858D01*
X145006D02*
X150358D01*
X152506D02*
X157858D01*
X160006D02*
X165358D01*
X69075Y61417D02*
X70006D01*
X76644D02*
X77506D01*
X91624D02*
X92506D01*
X99164D02*
X100006D01*
X129183D02*
X130006D01*
X136654D02*
X137506D01*
X144144D02*
X145006D01*
X61713D02*
X67844D01*
X70006D02*
X75374D01*
X77506D02*
X82874D01*
X84144D02*
X90344D01*
X92506D02*
X97884D01*
X100006D02*
X105344D01*
X106644D02*
X112864D01*
X114115D02*
X120384D01*
X121634D02*
X127864D01*
X130006D02*
X135364D01*
X137506D02*
X142893D01*
X145006D02*
X150324D01*
X151615D02*
X157854D01*
X159124D02*
X165374D01*
X167520Y47047D02*
Y47441D01*
X92520Y47146D02*
Y47539D01*
X129895Y47306D02*
X130006Y47417D01*
X129895Y46923D02*
Y47306D01*
X129429Y46457D02*
X129895Y46923D01*
X122441Y46949D02*
Y47343D01*
X121949Y46457D02*
X122441Y46949D01*
X121654Y46457D02*
X121949D01*
X120374Y45177D02*
X121654Y46457D01*
X120374Y44980D02*
Y45177D01*
X117421Y42028D02*
X120374Y44980D01*
X52461Y42028D02*
X117421D01*
X50394Y44094D02*
X52461Y42028D01*
X45965Y44094D02*
X50394D01*
X41929Y48130D02*
X45965Y44094D01*
X41732Y49803D02*
X41929Y49606D01*
X107480Y47047D02*
Y47343D01*
X106890Y46457D02*
X107480Y47047D01*
X106594Y46457D02*
X106890D01*
X102461Y42323D02*
X106594Y46457D01*
X52657Y42323D02*
X102461D01*
X50591Y44390D02*
X52657Y42323D01*
X91831Y46457D02*
X92520Y47146D01*
X91634Y46457D02*
X91831D01*
X87795Y42618D02*
X91634Y46457D01*
X52756Y42618D02*
X87795D01*
X50787Y44587D02*
X52756Y42618D01*
X42126Y49803D02*
X42323Y49606D01*
X52854Y42913D02*
X73032D01*
X77506Y47093D02*
Y47417D01*
X76870Y46457D02*
X77506Y47093D01*
X76575Y46457D02*
X76870D01*
X73032Y42913D02*
X76575Y46457D01*
X50984Y44783D02*
X52854Y42913D01*
X42520Y49803D02*
X42725Y49598D01*
X42520Y49803D02*
Y49803D01*
X61909Y46457D02*
X62500Y47047D01*
X61614Y46457D02*
X61909D01*
X58268Y43110D02*
X61614Y46457D01*
X53150Y43110D02*
X58268D01*
X51280Y44980D02*
X53150Y43110D01*
X166929Y46457D02*
X167520Y47047D01*
X166634Y46457D02*
X166929D01*
X165748Y45571D02*
X166634Y46457D01*
X165748Y44980D02*
Y45571D01*
X161614Y40846D02*
X165748Y44980D01*
X51476Y40846D02*
X161614D01*
X48917Y43406D02*
X51476Y40846D01*
X45768Y43406D02*
X48917D01*
X40945Y48228D02*
X45768Y43406D01*
X160006Y47014D02*
Y47278D01*
X159449Y46457D02*
X160006Y47014D01*
X159154Y46457D02*
X159449D01*
X156988Y44291D02*
X159154Y46457D01*
X156988Y44193D02*
Y44291D01*
X145006Y47073D02*
Y47417D01*
X144390Y46457D02*
X145006Y47073D01*
X144193Y46457D02*
X144390D01*
X142913Y45177D02*
X144193Y46457D01*
X142913Y44980D02*
Y45177D01*
X129232Y46457D02*
X129429D01*
X127559Y44783D02*
X129232Y46457D01*
X127559Y44685D02*
Y44783D01*
X115006Y46994D02*
Y47417D01*
X114468Y46457D02*
X115006Y46994D01*
X114173Y46457D02*
X114468D01*
X112894Y45177D02*
X114173Y46457D01*
X112894Y44882D02*
Y45177D01*
X100006Y47053D02*
Y47337D01*
X99409Y46457D02*
X100006Y47053D01*
X99114Y46457D02*
X99409D01*
X97638Y44980D02*
X99114Y46457D01*
X97539Y44980D02*
X97638D01*
X97539Y44685D02*
Y44980D01*
X85006Y47014D02*
Y47417D01*
X84449Y46457D02*
X85006Y47014D01*
X84154Y46457D02*
X84449D01*
X82776Y45079D02*
X84154Y46457D01*
X82776Y44783D02*
Y45079D01*
X70006Y47073D02*
Y47417D01*
X69390Y46457D02*
X70006Y47073D01*
X69193Y46457D02*
X69390D01*
X68406Y45669D02*
X69193Y46457D01*
X68406Y45276D02*
Y45669D01*
X55020Y47047D02*
Y47403D01*
X54331Y46358D02*
X55020Y47047D01*
X54134Y46358D02*
X54331D01*
X52657Y44882D02*
X54134Y46358D01*
X42913Y54528D02*
X43110Y54331D01*
X53406Y55906D02*
X53652D01*
X54163Y56417D01*
X55006D01*
X52087Y54921D02*
X52549Y54459D01*
X52854D01*
X53313Y54917D01*
X54256D01*
X51457Y54331D02*
X52323Y53465D01*
X52904D01*
X53356Y53917D01*
X54242D01*
X43110Y54331D02*
X51457D01*
X51594Y53346D02*
X52451Y52490D01*
X52963D01*
X53297Y52825D01*
X53671D01*
X54079Y52417D01*
X55006D01*
X43307Y53346D02*
X51594D01*
X43307Y52953D02*
X50591D01*
X52087Y51457D01*
X52884D01*
X53425Y50915D01*
X54254D01*
X54256Y50917D01*
X42913Y51782D02*
X42923D01*
X49902Y52559D02*
X52126Y50335D01*
X52943D01*
X53396Y49882D01*
X54221D01*
X54256Y49917D01*
X43307Y52559D02*
X49902D01*
X47963Y52165D02*
X51703Y48425D01*
X52874D01*
X53327Y48878D01*
X53661D01*
X54122Y48417D01*
X55006D01*
X43307Y52165D02*
X47963D01*
X44144Y57333D02*
Y57343D01*
X51742Y57421D02*
X52933D01*
X53327Y57815D01*
X53671D01*
X54069Y57417D01*
X55006D01*
X61648D02*
X62506D01*
X61191Y57874D02*
X61648Y57417D01*
X60837Y57874D02*
X61191D01*
X60453Y57490D02*
X60837Y57874D01*
X55079Y57490D02*
X60453D01*
X55006Y57417D02*
X55079Y57490D01*
Y56490D02*
X60453D01*
X60837Y56874D01*
X61191D01*
X61648Y56417D01*
X62506D01*
X55079Y52490D02*
X60453D01*
X60837Y52874D01*
X61191D01*
X61648Y52417D01*
X62506D01*
X55079Y48490D02*
X60453D01*
X60837Y48874D01*
X61191D01*
X61648Y48417D01*
X62506D01*
X55006Y61417D02*
X59547D01*
X59656Y61526D01*
X60394D01*
X60758Y61890D01*
X61240D01*
X61713Y61417D01*
X55006Y60417D02*
X60358D01*
X60827Y60886D01*
X61161D01*
X61630Y60417D01*
X59529Y60917D02*
X59902Y61289D01*
X60463D01*
X60746Y61006D01*
X61667D01*
X60433Y49488D02*
X60862Y49917D01*
X55659Y49488D02*
X60433D01*
X55231Y49917D02*
X55659Y49488D01*
X54256Y49917D02*
X55231D01*
X54256Y50917D02*
X55244D01*
X55709Y50453D01*
X60325D01*
X60789Y50917D01*
X60384Y53465D02*
X60836Y53917D01*
X55906Y53465D02*
X60384D01*
X55453Y53917D02*
X55906Y53465D01*
X54256Y53917D02*
X55453D01*
X54256Y59917D02*
X58479D01*
X59094Y59301D01*
X60246D01*
X60862Y59917D01*
X67844Y61417D02*
X68327Y61900D01*
X68593D01*
X69075Y61417D01*
X75374D02*
X75886Y61929D01*
X76132D01*
X76644Y61417D01*
X82874D02*
X83337Y61880D01*
X83681D01*
X84144Y61417D01*
X90344D02*
X90837Y61909D01*
X91132D01*
X91624Y61417D01*
X97884D02*
X98376Y61909D01*
X98671D01*
X99164Y61417D01*
X105344D02*
X105817Y61890D01*
X106171D01*
X106644Y61417D01*
X112864D02*
X113327Y61880D01*
X113652D01*
X114115Y61417D01*
X120384D02*
X120846Y61880D01*
X121171D01*
X121634Y61417D01*
X127864D02*
X128346Y61900D01*
X128701D01*
X129183Y61417D01*
X135364D02*
X135827Y61880D01*
X136191D01*
X136654Y61417D01*
X142893D02*
X143366Y61890D01*
X143671D01*
X144144Y61417D01*
X150324D02*
X150797Y61890D01*
X151142D01*
X151615Y61417D01*
X157854D02*
X158337Y61900D01*
X158642D01*
X159124Y61417D01*
X166644D02*
X167506D01*
X166191Y61870D02*
X166644Y61417D01*
X165827Y61870D02*
X166191D01*
X165374Y61417D02*
X165827Y61870D01*
X67746Y59301D02*
X68362Y59917D01*
X66594Y59301D02*
X67746D01*
X65979Y59917D02*
X66594Y59301D01*
X68246Y61006D02*
X69167D01*
X67963Y61289D02*
X68246Y61006D01*
X67402Y61289D02*
X67963D01*
X67029Y60917D02*
X67402Y61289D01*
X61756Y60917D02*
X67029D01*
X68661Y60886D02*
X69130Y60417D01*
X68327Y60886D02*
X68661D01*
X67858Y60417D02*
X68327Y60886D01*
X69148Y52417D02*
X70006D01*
X68691Y52874D02*
X69148Y52417D01*
X68337Y52874D02*
X68691D01*
X67953Y52490D02*
X68337Y52874D01*
X62579Y52490D02*
X67953D01*
X69148Y56417D02*
X70006D01*
X68691Y56874D02*
X69148Y56417D01*
X68337Y56874D02*
X68691D01*
X67953Y56490D02*
X68337Y56874D01*
X62579Y56490D02*
X67953D01*
X62579Y57490D02*
X67953D01*
X68337Y57874D01*
X68691D01*
X69148Y57417D01*
X70006D01*
X75246Y59301D02*
X75862Y59917D01*
X74094Y59301D02*
X75246D01*
X73479Y59917D02*
X74094Y59301D01*
X75746Y61006D02*
X76667D01*
X75463Y61289D02*
X75746Y61006D01*
X74902Y61289D02*
X75463D01*
X74529Y60917D02*
X74902Y61289D01*
X69256Y60917D02*
X74529D01*
X76161Y60886D02*
X76630Y60417D01*
X75827Y60886D02*
X76161D01*
X75358Y60417D02*
X75827Y60886D01*
X76648Y52417D02*
X77506D01*
X76191Y52874D02*
X76648Y52417D01*
X75837Y52874D02*
X76191D01*
X75453Y52490D02*
X75837Y52874D01*
X70079Y52490D02*
X75453D01*
X76648Y56417D02*
X77506D01*
X76191Y56874D02*
X76648Y56417D01*
X75837Y56874D02*
X76191D01*
X75453Y56490D02*
X75837Y56874D01*
X70079Y56490D02*
X75453D01*
X70079Y57490D02*
X75453D01*
X75837Y57874D01*
X76191D01*
X76648Y57417D01*
X77506D01*
X82746Y59301D02*
X83362Y59917D01*
X81594Y59301D02*
X82746D01*
X80979Y59917D02*
X81594Y59301D01*
X83246Y61006D02*
X84167D01*
X82963Y61289D02*
X83246Y61006D01*
X82402Y61289D02*
X82963D01*
X82029Y60917D02*
X82402Y61289D01*
X76756Y60917D02*
X82029D01*
X83661Y60886D02*
X84130Y60417D01*
X83327Y60886D02*
X83661D01*
X82858Y60417D02*
X83327Y60886D01*
X84148Y52417D02*
X85006D01*
X83691Y52874D02*
X84148Y52417D01*
X83337Y52874D02*
X83691D01*
X82953Y52490D02*
X83337Y52874D01*
X77579Y52490D02*
X82953D01*
X84148Y56417D02*
X85006D01*
X83691Y56874D02*
X84148Y56417D01*
X83337Y56874D02*
X83691D01*
X82953Y56490D02*
X83337Y56874D01*
X77579Y56490D02*
X82953D01*
X77579Y57490D02*
X82953D01*
X83337Y57874D01*
X83691D01*
X84148Y57417D01*
X85006D01*
X90246Y59301D02*
X90862Y59917D01*
X89094Y59301D02*
X90246D01*
X88479Y59917D02*
X89094Y59301D01*
X90746Y61006D02*
X91667D01*
X90463Y61289D02*
X90746Y61006D01*
X89902Y61289D02*
X90463D01*
X89529Y60917D02*
X89902Y61289D01*
X84256Y60917D02*
X89529D01*
X91161Y60886D02*
X91630Y60417D01*
X90827Y60886D02*
X91161D01*
X90358Y60417D02*
X90827Y60886D01*
X91648Y52417D02*
X92506D01*
X91191Y52874D02*
X91648Y52417D01*
X90837Y52874D02*
X91191D01*
X90453Y52490D02*
X90837Y52874D01*
X85079Y52490D02*
X90453D01*
X91648Y56417D02*
X92506D01*
X91191Y56874D02*
X91648Y56417D01*
X90837Y56874D02*
X91191D01*
X90453Y56490D02*
X90837Y56874D01*
X85079Y56490D02*
X90453D01*
X85079Y57490D02*
X90453D01*
X90837Y57874D01*
X91191D01*
X91648Y57417D01*
X92506D01*
X97746Y59301D02*
X98362Y59917D01*
X96594Y59301D02*
X97746D01*
X95979Y59917D02*
X96594Y59301D01*
X98246Y61006D02*
X99167D01*
X97963Y61289D02*
X98246Y61006D01*
X97402Y61289D02*
X97963D01*
X97029Y60917D02*
X97402Y61289D01*
X91756Y60917D02*
X97029D01*
X98661Y60886D02*
X99130Y60417D01*
X98327Y60886D02*
X98661D01*
X97858Y60417D02*
X98327Y60886D01*
X99148Y52417D02*
X100006D01*
X98691Y52874D02*
X99148Y52417D01*
X98337Y52874D02*
X98691D01*
X97953Y52490D02*
X98337Y52874D01*
X92579Y52490D02*
X97953D01*
X99148Y56417D02*
X100006D01*
X98691Y56874D02*
X99148Y56417D01*
X98337Y56874D02*
X98691D01*
X97953Y56490D02*
X98337Y56874D01*
X92579Y56490D02*
X97953D01*
X92579Y57490D02*
X97953D01*
X98337Y57874D01*
X98691D01*
X99148Y57417D01*
X100006D01*
X105246Y59301D02*
X105862Y59917D01*
X104094Y59301D02*
X105246D01*
X103479Y59917D02*
X104094Y59301D01*
X105746Y61006D02*
X106667D01*
X105463Y61289D02*
X105746Y61006D01*
X104902Y61289D02*
X105463D01*
X104529Y60917D02*
X104902Y61289D01*
X99256Y60917D02*
X104529D01*
X106161Y60886D02*
X106630Y60417D01*
X105827Y60886D02*
X106161D01*
X105358Y60417D02*
X105827Y60886D01*
X106648Y52417D02*
X107506D01*
X106191Y52874D02*
X106648Y52417D01*
X105837Y52874D02*
X106191D01*
X105453Y52490D02*
X105837Y52874D01*
X100079Y52490D02*
X105453D01*
X106648Y56417D02*
X107506D01*
X106191Y56874D02*
X106648Y56417D01*
X105837Y56874D02*
X106191D01*
X105453Y56490D02*
X105837Y56874D01*
X100079Y56490D02*
X105453D01*
X100079Y57490D02*
X105453D01*
X105837Y57874D01*
X106191D01*
X106648Y57417D01*
X107506D01*
X112746Y59301D02*
X113362Y59917D01*
X111594Y59301D02*
X112746D01*
X110979Y59917D02*
X111594Y59301D01*
X113246Y61006D02*
X114167D01*
X112963Y61289D02*
X113246Y61006D01*
X112402Y61289D02*
X112963D01*
X112029Y60917D02*
X112402Y61289D01*
X106756Y60917D02*
X112029D01*
X113661Y60886D02*
X114130Y60417D01*
X113327Y60886D02*
X113661D01*
X112858Y60417D02*
X113327Y60886D01*
X114148Y52417D02*
X115006D01*
X113691Y52874D02*
X114148Y52417D01*
X113337Y52874D02*
X113691D01*
X112953Y52490D02*
X113337Y52874D01*
X107579Y52490D02*
X112953D01*
X114148Y56417D02*
X115006D01*
X113691Y56874D02*
X114148Y56417D01*
X113337Y56874D02*
X113691D01*
X112953Y56490D02*
X113337Y56874D01*
X107579Y56490D02*
X112953D01*
X107579Y57490D02*
X112953D01*
X113337Y57874D01*
X113691D01*
X114148Y57417D01*
X115006D01*
X120246Y59301D02*
X120862Y59917D01*
X119094Y59301D02*
X120246D01*
X118479Y59917D02*
X119094Y59301D01*
X120746Y61006D02*
X121667D01*
X120463Y61289D02*
X120746Y61006D01*
X119902Y61289D02*
X120463D01*
X119529Y60917D02*
X119902Y61289D01*
X114256Y60917D02*
X119529D01*
X121161Y60886D02*
X121630Y60417D01*
X120827Y60886D02*
X121161D01*
X120358Y60417D02*
X120827Y60886D01*
X121648Y52417D02*
X122506D01*
X121191Y52874D02*
X121648Y52417D01*
X120837Y52874D02*
X121191D01*
X120453Y52490D02*
X120837Y52874D01*
X115079Y52490D02*
X120453D01*
X121648Y56417D02*
X122506D01*
X121191Y56874D02*
X121648Y56417D01*
X120837Y56874D02*
X121191D01*
X120453Y56490D02*
X120837Y56874D01*
X115079Y56490D02*
X120453D01*
X115079Y57490D02*
X120453D01*
X120837Y57874D01*
X121191D01*
X121648Y57417D01*
X122506D01*
X127746Y59301D02*
X128362Y59917D01*
X126594Y59301D02*
X127746D01*
X125979Y59917D02*
X126594Y59301D01*
X128246Y61006D02*
X129167D01*
X127963Y61289D02*
X128246Y61006D01*
X127402Y61289D02*
X127963D01*
X127029Y60917D02*
X127402Y61289D01*
X121756Y60917D02*
X127029D01*
X128661Y60886D02*
X129130Y60417D01*
X128327Y60886D02*
X128661D01*
X127858Y60417D02*
X128327Y60886D01*
X129148Y52417D02*
X130006D01*
X128691Y52874D02*
X129148Y52417D01*
X128337Y52874D02*
X128691D01*
X127953Y52490D02*
X128337Y52874D01*
X122579Y52490D02*
X127953D01*
X129148Y56417D02*
X130006D01*
X128691Y56874D02*
X129148Y56417D01*
X128337Y56874D02*
X128691D01*
X127953Y56490D02*
X128337Y56874D01*
X122579Y56490D02*
X127953D01*
X122579Y57490D02*
X127953D01*
X128337Y57874D01*
X128691D01*
X129148Y57417D01*
X130006D01*
X135246Y59301D02*
X135862Y59917D01*
X134094Y59301D02*
X135246D01*
X133479Y59917D02*
X134094Y59301D01*
X135746Y61006D02*
X136667D01*
X135463Y61289D02*
X135746Y61006D01*
X134902Y61289D02*
X135463D01*
X134529Y60917D02*
X134902Y61289D01*
X129256Y60917D02*
X134529D01*
X136161Y60886D02*
X136630Y60417D01*
X135827Y60886D02*
X136161D01*
X135358Y60417D02*
X135827Y60886D01*
X136648Y52417D02*
X137506D01*
X136191Y52874D02*
X136648Y52417D01*
X135837Y52874D02*
X136191D01*
X135453Y52490D02*
X135837Y52874D01*
X130079Y52490D02*
X135453D01*
X136648Y56417D02*
X137506D01*
X136191Y56874D02*
X136648Y56417D01*
X135837Y56874D02*
X136191D01*
X135453Y56490D02*
X135837Y56874D01*
X130079Y56490D02*
X135453D01*
X130079Y57490D02*
X135453D01*
X135837Y57874D01*
X136191D01*
X136648Y57417D01*
X137506D01*
X142746Y59301D02*
X143362Y59917D01*
X141594Y59301D02*
X142746D01*
X140979Y59917D02*
X141594Y59301D01*
X143246Y61006D02*
X144167D01*
X142963Y61289D02*
X143246Y61006D01*
X142402Y61289D02*
X142963D01*
X142029Y60917D02*
X142402Y61289D01*
X136756Y60917D02*
X142029D01*
X143661Y60886D02*
X144130Y60417D01*
X143327Y60886D02*
X143661D01*
X142858Y60417D02*
X143327Y60886D01*
X144148Y52417D02*
X145006D01*
X143691Y52874D02*
X144148Y52417D01*
X143337Y52874D02*
X143691D01*
X142953Y52490D02*
X143337Y52874D01*
X137579Y52490D02*
X142953D01*
X144148Y56417D02*
X145006D01*
X143691Y56874D02*
X144148Y56417D01*
X143337Y56874D02*
X143691D01*
X142953Y56490D02*
X143337Y56874D01*
X137579Y56490D02*
X142953D01*
X137579Y57490D02*
X142953D01*
X143337Y57874D01*
X143691D01*
X144148Y57417D01*
X145006D01*
X150246Y59301D02*
X150862Y59917D01*
X149094Y59301D02*
X150246D01*
X148479Y59917D02*
X149094Y59301D01*
X150746Y61006D02*
X151667D01*
X150463Y61289D02*
X150746Y61006D01*
X149902Y61289D02*
X150463D01*
X149529Y60917D02*
X149902Y61289D01*
X144256Y60917D02*
X149529D01*
X151161Y60886D02*
X151630Y60417D01*
X150827Y60886D02*
X151161D01*
X150358Y60417D02*
X150827Y60886D01*
X151648Y52417D02*
X152506D01*
X151191Y52874D02*
X151648Y52417D01*
X150837Y52874D02*
X151191D01*
X150453Y52490D02*
X150837Y52874D01*
X145079Y52490D02*
X150453D01*
X151648Y56417D02*
X152506D01*
X151191Y56874D02*
X151648Y56417D01*
X150837Y56874D02*
X151191D01*
X150453Y56490D02*
X150837Y56874D01*
X145079Y56490D02*
X150453D01*
X145079Y57490D02*
X150453D01*
X150837Y57874D01*
X151191D01*
X151648Y57417D01*
X152506D01*
X157746Y59301D02*
X158362Y59917D01*
X156594Y59301D02*
X157746D01*
X155979Y59917D02*
X156594Y59301D01*
X158246Y61006D02*
X159167D01*
X157963Y61289D02*
X158246Y61006D01*
X157402Y61289D02*
X157963D01*
X157029Y60917D02*
X157402Y61289D01*
X151756Y60917D02*
X157029D01*
X158661Y60886D02*
X159130Y60417D01*
X158327Y60886D02*
X158661D01*
X157858Y60417D02*
X158327Y60886D01*
X159148Y52417D02*
X160006D01*
X158691Y52874D02*
X159148Y52417D01*
X158337Y52874D02*
X158691D01*
X157953Y52490D02*
X158337Y52874D01*
X152579Y52490D02*
X157953D01*
X159148Y56417D02*
X160006D01*
X158691Y56874D02*
X159148Y56417D01*
X158337Y56874D02*
X158691D01*
X157953Y56490D02*
X158337Y56874D01*
X152579Y56490D02*
X157953D01*
X152579Y57490D02*
X157953D01*
X158337Y57874D01*
X158691D01*
X159148Y57417D01*
X160006D01*
X165246Y59301D02*
X165862Y59917D01*
X164094Y59301D02*
X165246D01*
X163479Y59917D02*
X164094Y59301D01*
X165746Y61006D02*
X166667D01*
X165463Y61289D02*
X165746Y61006D01*
X164902Y61289D02*
X165463D01*
X164529Y60917D02*
X164902Y61289D01*
X159256Y60917D02*
X164529D01*
X166630Y60417D02*
X167506D01*
X166161Y60886D02*
X166630Y60417D01*
X165827Y60886D02*
X166161D01*
X165358Y60417D02*
X165827Y60886D01*
X166648Y52417D02*
X167506D01*
X166191Y52874D02*
X166648Y52417D01*
X165837Y52874D02*
X166191D01*
X165453Y52490D02*
X165837Y52874D01*
X160079Y52490D02*
X165453D01*
X166648Y56417D02*
X167506D01*
X166191Y56874D02*
X166648Y56417D01*
X165837Y56874D02*
X166191D01*
X165453Y56490D02*
X165837Y56874D01*
X160079Y56490D02*
X165453D01*
X160079Y57490D02*
X165453D01*
X165837Y57874D01*
X166191D01*
X166648Y57417D01*
X167506D01*
X62953Y53917D02*
X63406Y53465D01*
X67884D01*
X68336Y53917D01*
X67825Y50453D02*
X68289Y50917D01*
X63209Y50453D02*
X67825D01*
X62744Y50917D02*
X63209Y50453D01*
X62731Y49917D02*
X63159Y49488D01*
X67933D01*
X68362Y49917D01*
X69148Y48417D02*
X70006D01*
X68691Y48874D02*
X69148Y48417D01*
X68337Y48874D02*
X68691D01*
X67953Y48490D02*
X68337Y48874D01*
X62579Y48490D02*
X67953D01*
X70453Y53917D02*
X70906Y53465D01*
X75384D01*
X75836Y53917D01*
X75325Y50453D02*
X75789Y50917D01*
X70709Y50453D02*
X75325D01*
X70244Y50917D02*
X70709Y50453D01*
X70231Y49917D02*
X70659Y49488D01*
X75433D01*
X75862Y49917D01*
X76648Y48417D02*
X77506D01*
X76191Y48874D02*
X76648Y48417D01*
X75837Y48874D02*
X76191D01*
X75453Y48490D02*
X75837Y48874D01*
X70079Y48490D02*
X75453D01*
X77953Y53917D02*
X78406Y53465D01*
X82884D01*
X83336Y53917D01*
X82825Y50453D02*
X83289Y50917D01*
X78209Y50453D02*
X82825D01*
X77744Y50917D02*
X78209Y50453D01*
X77731Y49917D02*
X78159Y49488D01*
X82933D01*
X83362Y49917D01*
X84148Y48417D02*
X85006D01*
X83691Y48874D02*
X84148Y48417D01*
X83337Y48874D02*
X83691D01*
X82953Y48490D02*
X83337Y48874D01*
X77579Y48490D02*
X82953D01*
X85453Y53917D02*
X85906Y53465D01*
X90384D01*
X90836Y53917D01*
X90325Y50453D02*
X90789Y50917D01*
X85709Y50453D02*
X90325D01*
X85244Y50917D02*
X85709Y50453D01*
X85231Y49917D02*
X85659Y49488D01*
X90433D01*
X90862Y49917D01*
X91648Y48417D02*
X92506D01*
X91191Y48874D02*
X91648Y48417D01*
X90837Y48874D02*
X91191D01*
X90453Y48490D02*
X90837Y48874D01*
X85079Y48490D02*
X90453D01*
X92953Y53917D02*
X93406Y53465D01*
X97884D01*
X98336Y53917D01*
X97825Y50453D02*
X98289Y50917D01*
X93209Y50453D02*
X97825D01*
X92744Y50917D02*
X93209Y50453D01*
X92731Y49917D02*
X93159Y49488D01*
X97933D01*
X98362Y49917D01*
X99148Y48417D02*
X100006D01*
X98691Y48874D02*
X99148Y48417D01*
X98337Y48874D02*
X98691D01*
X97953Y48490D02*
X98337Y48874D01*
X92579Y48490D02*
X97953D01*
X100453Y53917D02*
X100906Y53465D01*
X105384D01*
X105836Y53917D01*
X105325Y50453D02*
X105789Y50917D01*
X100709Y50453D02*
X105325D01*
X100244Y50917D02*
X100709Y50453D01*
X100231Y49917D02*
X100659Y49488D01*
X105433D01*
X105862Y49917D01*
X106648Y48417D02*
X107506D01*
X106191Y48874D02*
X106648Y48417D01*
X105837Y48874D02*
X106191D01*
X105453Y48490D02*
X105837Y48874D01*
X100079Y48490D02*
X105453D01*
X107953Y53917D02*
X108406Y53465D01*
X112884D01*
X113336Y53917D01*
X112825Y50453D02*
X113289Y50917D01*
X108209Y50453D02*
X112825D01*
X107744Y50917D02*
X108209Y50453D01*
X107731Y49917D02*
X108159Y49488D01*
X112933D01*
X113362Y49917D01*
X114148Y48417D02*
X115006D01*
X113691Y48874D02*
X114148Y48417D01*
X113337Y48874D02*
X113691D01*
X112953Y48490D02*
X113337Y48874D01*
X107579Y48490D02*
X112953D01*
X115453Y53917D02*
X115906Y53465D01*
X120384D01*
X120836Y53917D01*
X120325Y50453D02*
X120789Y50917D01*
X115709Y50453D02*
X120325D01*
X115244Y50917D02*
X115709Y50453D01*
X115231Y49917D02*
X115659Y49488D01*
X120433D01*
X120862Y49917D01*
X121648Y48417D02*
X122506D01*
X121191Y48874D02*
X121648Y48417D01*
X120837Y48874D02*
X121191D01*
X120453Y48490D02*
X120837Y48874D01*
X115079Y48490D02*
X120453D01*
X122953Y53917D02*
X123406Y53465D01*
X127884D01*
X128336Y53917D01*
X127825Y50453D02*
X128289Y50917D01*
X123209Y50453D02*
X127825D01*
X122744Y50917D02*
X123209Y50453D01*
X122731Y49917D02*
X123159Y49488D01*
X127933D01*
X128362Y49917D01*
X129148Y48417D02*
X130006D01*
X128691Y48874D02*
X129148Y48417D01*
X128337Y48874D02*
X128691D01*
X127953Y48490D02*
X128337Y48874D01*
X122579Y48490D02*
X127953D01*
X130453Y53917D02*
X130906Y53465D01*
X135384D01*
X135836Y53917D01*
X135325Y50453D02*
X135789Y50917D01*
X130709Y50453D02*
X135325D01*
X130244Y50917D02*
X130709Y50453D01*
X130231Y49917D02*
X130659Y49488D01*
X135433D01*
X135862Y49917D01*
X136648Y48417D02*
X137506D01*
X136191Y48874D02*
X136648Y48417D01*
X135837Y48874D02*
X136191D01*
X135453Y48490D02*
X135837Y48874D01*
X130079Y48490D02*
X135453D01*
X137953Y53917D02*
X138406Y53465D01*
X142884D01*
X143336Y53917D01*
X142825Y50453D02*
X143289Y50917D01*
X138209Y50453D02*
X142825D01*
X137744Y50917D02*
X138209Y50453D01*
X137731Y49917D02*
X138159Y49488D01*
X142933D01*
X143362Y49917D01*
X144148Y48417D02*
X145006D01*
X143691Y48874D02*
X144148Y48417D01*
X143337Y48874D02*
X143691D01*
X142953Y48490D02*
X143337Y48874D01*
X137579Y48490D02*
X142953D01*
X145453Y53917D02*
X145906Y53465D01*
X150384D01*
X150836Y53917D01*
X150325Y50453D02*
X150789Y50917D01*
X145709Y50453D02*
X150325D01*
X145244Y50917D02*
X145709Y50453D01*
X145231Y49917D02*
X145659Y49488D01*
X150433D01*
X150862Y49917D01*
X151648Y48417D02*
X152506D01*
X151191Y48874D02*
X151648Y48417D01*
X150837Y48874D02*
X151191D01*
X150453Y48490D02*
X150837Y48874D01*
X145079Y48490D02*
X150453D01*
X152953Y53917D02*
X153406Y53465D01*
X157884D01*
X158336Y53917D01*
X157825Y50453D02*
X158289Y50917D01*
X153209Y50453D02*
X157825D01*
X152744Y50917D02*
X153209Y50453D01*
X152731Y49917D02*
X153159Y49488D01*
X157933D01*
X158362Y49917D01*
X159148Y48417D02*
X160006D01*
X158691Y48874D02*
X159148Y48417D01*
X158337Y48874D02*
X158691D01*
X157953Y48490D02*
X158337Y48874D01*
X152579Y48490D02*
X157953D01*
X160453Y53917D02*
X160906Y53465D01*
X165384D01*
X165836Y53917D01*
X166756D01*
X165789Y50917D02*
X166756D01*
X165325Y50453D02*
X165789Y50917D01*
X160709Y50453D02*
X165325D01*
X160244Y50917D02*
X160709Y50453D01*
X160231Y49917D02*
X160659Y49488D01*
X165433D01*
X165862Y49917D01*
X166756D01*
X166648Y48417D02*
X167506D01*
X166191Y48874D02*
X166648Y48417D01*
X165837Y48874D02*
X166191D01*
X165453Y48490D02*
X165837Y48874D01*
X160079Y48490D02*
X165453D01*
X43307Y55709D02*
X50030D01*
X51742Y57421D01*
X39764Y49803D02*
X39961Y49606D01*
Y48602D02*
Y49606D01*
Y48602D02*
X45463Y43100D01*
X56398Y35039D02*
Y35640D01*
Y35039D02*
X56894Y34543D01*
Y33649D02*
Y34543D01*
X39370Y49803D02*
X39567Y49606D01*
Y48524D02*
Y49606D01*
Y48524D02*
X45246Y42844D01*
X54459Y34941D02*
X54894Y34506D01*
Y33649D02*
Y34506D01*
X39370Y48406D02*
Y49409D01*
Y48406D02*
X45285Y42490D01*
X53455Y34980D02*
X53898Y34537D01*
Y34262D02*
Y34537D01*
Y34262D02*
X54394Y33766D01*
Y32899D02*
Y33766D01*
X38976Y49803D02*
X39173Y49606D01*
Y48337D02*
Y49606D01*
X52382Y35030D02*
X52874Y34537D01*
Y34262D02*
Y34537D01*
X52394Y33781D02*
X52874Y34262D01*
X52394Y32899D02*
Y33781D01*
X38583Y49803D02*
X38780Y49606D01*
Y48327D02*
Y49606D01*
X50413Y35020D02*
X50894Y34539D01*
Y33649D02*
Y34539D01*
X38504Y48091D02*
Y49094D01*
X46368Y35030D02*
Y40226D01*
Y35030D02*
X46894Y34504D01*
Y33649D02*
Y34504D01*
X38189Y49409D02*
X38504Y49094D01*
Y48091D02*
X46368Y40226D01*
X37795Y47441D02*
Y49409D01*
Y47441D02*
X45246Y39990D01*
X37402Y47411D02*
Y49409D01*
Y47411D02*
X42825Y41988D01*
Y32736D02*
Y41988D01*
Y32736D02*
X43996Y31565D01*
X51063D01*
X51831Y32333D01*
Y33150D01*
X51378Y33602D02*
X51831Y33150D01*
X51378Y33602D02*
Y33780D01*
X51998Y34399D01*
X52394D01*
X37795Y49803D02*
X37992Y49606D01*
Y47785D02*
Y49606D01*
X46270Y33327D02*
Y33799D01*
X45246Y34823D02*
X46270Y33799D01*
Y33327D02*
X46378Y33219D01*
X45246Y34823D02*
Y39990D01*
X47077Y32874D02*
X47362D01*
X46407Y33543D02*
X47077Y32874D01*
X46407Y33543D02*
Y33848D01*
X45492Y34764D02*
X46407Y33848D01*
X45492Y34764D02*
Y40285D01*
X37992Y47785D02*
X45492Y40285D01*
X36417Y50000D02*
X36617Y50200D01*
X31004Y47539D02*
X31594D01*
X26545Y43081D02*
X31004Y47539D01*
X36417Y50394D02*
X36614Y50591D01*
X29035Y46949D02*
X32874Y50787D01*
X27461Y46654D02*
X29035D01*
X37205Y51181D02*
X37402Y50984D01*
X31201Y51181D02*
X37205D01*
X29331Y49311D02*
X31201Y51181D01*
X29134Y49311D02*
X29331D01*
X28445Y46949D02*
X29035D01*
X27461Y45669D02*
X28346D01*
X27431Y45640D02*
X27461Y45669D01*
X27165Y44980D02*
Y47343D01*
X29134Y49311D01*
X36811Y51575D02*
X37008Y51378D01*
X26870Y45177D02*
Y47736D01*
X159882Y58917D02*
X165256D01*
X159449Y59350D02*
X159882Y58917D01*
X159055Y59350D02*
X159449D01*
X158661Y58957D02*
X159055Y59350D01*
X157796Y58957D02*
X158661D01*
X157756Y58917D02*
X157796Y58957D01*
X171615Y59411D02*
X172494D01*
X171161Y58957D02*
X171615Y59411D01*
X170866Y58957D02*
X171161D01*
X170472Y59350D02*
X170866Y58957D01*
X168209Y59350D02*
X170472D01*
X167815Y58957D02*
X168209Y59350D01*
X167323Y58957D02*
X167815D01*
X166929Y59350D02*
X167323Y58957D01*
X166634Y59350D02*
X166929D01*
X166142Y58858D02*
X166634Y59350D01*
X165315Y58858D02*
X166142D01*
X165256Y58917D02*
X165315Y58858D01*
X45079Y56496D02*
X51772Y63189D01*
X168406D01*
X168996Y63780D01*
X172933D01*
X173720Y62992D01*
Y46260D02*
Y62992D01*
X173130Y45669D02*
X173720Y46260D01*
X171736Y45669D02*
X173130D01*
X170994Y46411D02*
X171736Y45669D01*
X37008Y45965D02*
Y49409D01*
Y45965D02*
X42618Y40354D01*
X30235Y51101D02*
X30512Y51378D01*
X26870Y47736D02*
X30235Y51101D01*
X30512Y51378D02*
X34547D01*
X34744Y51575D01*
X36811D01*
X169367Y60411D02*
X170994D01*
X168874Y59917D02*
X169367Y60411D01*
X165862Y59917D02*
X168874D01*
X168406Y60925D02*
X168891Y61411D01*
X170994D01*
X166732Y60925D02*
X168406D01*
X165851Y54917D02*
X166756D01*
X165453Y55315D02*
X165851Y54917D01*
X164764Y55315D02*
X165453D01*
X164366Y54917D02*
X164764Y55315D01*
X159256Y54917D02*
X164366D01*
X151756D02*
X156866D01*
X157264Y55315D01*
X157953D01*
X158351Y54917D01*
X159256D01*
X144256D02*
X149366D01*
X149764Y55315D01*
X150453D01*
X150851Y54917D01*
X151756D01*
X136756D02*
X141866D01*
X142264Y55315D01*
X142953D01*
X143351Y54917D01*
X144256D01*
X129256D02*
X134366D01*
X134764Y55315D01*
X135453D01*
X135851Y54917D01*
X136756D01*
X121756D02*
X126866D01*
X127264Y55315D01*
X127953D01*
X128351Y54917D01*
X129256D01*
X114256D02*
X119366D01*
X119764Y55315D01*
X120453D01*
X120851Y54917D01*
X121756D01*
X106756D02*
X111866D01*
X112264Y55315D01*
X112953D01*
X113351Y54917D01*
X114256D01*
X99256D02*
X104366D01*
X104764Y55315D01*
X105453D01*
X105851Y54917D01*
X106756D01*
X91756D02*
X96866D01*
X97264Y55315D01*
X97953D01*
X98351Y54917D01*
X99256D01*
X84256D02*
X89366D01*
X89764Y55315D01*
X90453D01*
X90851Y54917D01*
X91756D01*
X76756D02*
X81866D01*
X82264Y55315D01*
X82953D01*
X83351Y54917D01*
X84256D01*
X69256D02*
X74366D01*
X74764Y55315D01*
X75453D01*
X75851Y54917D01*
X76756D01*
X61756D02*
X66866D01*
X67264Y55315D01*
X67953D01*
X68351Y54917D01*
X69256D01*
X54256D02*
X59366D01*
X59764Y55315D01*
X60453D01*
X60851Y54917D01*
X61756D01*
D44*
X106737Y71698D02*
X106791Y71752D01*
X48130Y70571D02*
X48176Y70525D01*
X49670Y66275D02*
X49705Y66310D01*
X37992Y72835D02*
X38091Y72736D01*
X176500Y58900D02*
Y57700D01*
X177300D01*
X177900Y58500D02*
X178299D01*
X178499Y58300D01*
Y57700D01*
X177900D01*
X177700Y57900D01*
X177900Y58100D01*
X178499D01*
X178899Y58500D02*
Y57900D01*
X179099Y57700D01*
X179699D01*
Y57500D01*
X179499Y57300D01*
X179299D01*
X179699Y57700D02*
Y58500D01*
X180699Y57700D02*
X180299D01*
X180099Y57900D01*
Y58300D01*
X180299Y58500D01*
X180699D01*
X180899Y58300D01*
Y58100D01*
X180099D01*
X181298Y58500D02*
Y57700D01*
Y58100D01*
X181498Y58300D01*
X181698Y58500D01*
X181898D01*
X183698Y58700D02*
X183898Y58900D01*
X184297D01*
X184497Y58700D01*
Y58500D01*
X184297Y58300D01*
X184098D01*
X184297D01*
X184497Y58100D01*
Y57900D01*
X184297Y57700D01*
X183898D01*
X183698Y57900D01*
D46*
X45866Y73228D02*
X45900Y73262D01*
D49*
X55006Y47411D02*
D03*
X128101Y36974D02*
D03*
X137601Y36224D02*
D03*
X59394Y32899D02*
D03*
X56894Y33649D02*
D03*
X54394Y32899D02*
D03*
X54894Y33649D02*
D03*
X52394Y32899D02*
D03*
Y34399D02*
D03*
X50894Y33649D02*
D03*
X47394Y32899D02*
D03*
X46394D02*
D03*
X46894Y33649D02*
D03*
X61394Y32899D02*
D03*
X60394D02*
D03*
X167506Y57411D02*
D03*
Y56411D02*
D03*
X166756Y54911D02*
D03*
Y53911D02*
D03*
X167506Y52411D02*
D03*
X165256Y58911D02*
D03*
X166756Y50911D02*
D03*
Y49911D02*
D03*
X167506Y48411D02*
D03*
Y47411D02*
D03*
Y61411D02*
D03*
X166756Y60911D02*
D03*
X167506Y60411D02*
D03*
X166756Y59911D02*
D03*
X160006Y57411D02*
D03*
Y56411D02*
D03*
X159256Y54911D02*
D03*
Y53911D02*
D03*
X160006Y52411D02*
D03*
X157756Y58911D02*
D03*
X159256Y50911D02*
D03*
Y49911D02*
D03*
X160006Y48411D02*
D03*
Y47411D02*
D03*
Y61411D02*
D03*
X159256Y60911D02*
D03*
X160006Y60411D02*
D03*
X159256Y59911D02*
D03*
X152506Y57411D02*
D03*
Y56411D02*
D03*
X151756Y54911D02*
D03*
Y53911D02*
D03*
X152506Y52411D02*
D03*
X150256Y58911D02*
D03*
X151756Y50911D02*
D03*
Y49911D02*
D03*
X152506Y48411D02*
D03*
Y47411D02*
D03*
Y61411D02*
D03*
X151756Y60911D02*
D03*
X152506Y60411D02*
D03*
X151756Y59911D02*
D03*
X145006Y57411D02*
D03*
Y56411D02*
D03*
X144256Y54911D02*
D03*
Y53911D02*
D03*
X145006Y52411D02*
D03*
X142756Y58911D02*
D03*
X144256Y50911D02*
D03*
Y49911D02*
D03*
X145006Y48411D02*
D03*
Y47411D02*
D03*
Y61411D02*
D03*
X144256Y60911D02*
D03*
X145006Y60411D02*
D03*
X144256Y59911D02*
D03*
X137506Y57411D02*
D03*
Y56411D02*
D03*
X136756Y54911D02*
D03*
Y53911D02*
D03*
X137506Y52411D02*
D03*
X135256Y58911D02*
D03*
X136756Y50911D02*
D03*
Y49911D02*
D03*
X137506Y48411D02*
D03*
Y47411D02*
D03*
Y61411D02*
D03*
X136756Y60911D02*
D03*
X137506Y60411D02*
D03*
X136756Y59911D02*
D03*
X130006Y57411D02*
D03*
Y56411D02*
D03*
X129256Y54911D02*
D03*
Y53911D02*
D03*
X130006Y52411D02*
D03*
X127756Y58911D02*
D03*
X129256Y50911D02*
D03*
Y49911D02*
D03*
X130006Y48411D02*
D03*
Y47411D02*
D03*
Y61411D02*
D03*
X129256Y60911D02*
D03*
X130006Y60411D02*
D03*
X129256Y59911D02*
D03*
X122506Y57411D02*
D03*
Y56411D02*
D03*
X121756Y54911D02*
D03*
Y53911D02*
D03*
X122506Y52411D02*
D03*
X120256Y58911D02*
D03*
X121756Y50911D02*
D03*
Y49911D02*
D03*
X122506Y48411D02*
D03*
Y47411D02*
D03*
Y61411D02*
D03*
X121756Y60911D02*
D03*
X122506Y60411D02*
D03*
X121756Y59911D02*
D03*
X115006Y57411D02*
D03*
Y56411D02*
D03*
X114256Y54911D02*
D03*
Y53911D02*
D03*
X115006Y52411D02*
D03*
X112756Y58911D02*
D03*
X114256Y50911D02*
D03*
Y49911D02*
D03*
X115006Y48411D02*
D03*
Y47411D02*
D03*
Y61411D02*
D03*
X114256Y60911D02*
D03*
X115006Y60411D02*
D03*
X114256Y59911D02*
D03*
X107506Y57411D02*
D03*
Y56411D02*
D03*
X106756Y54911D02*
D03*
Y53911D02*
D03*
X107506Y52411D02*
D03*
X105256Y58911D02*
D03*
X106756Y50911D02*
D03*
Y49911D02*
D03*
X107506Y48411D02*
D03*
Y47411D02*
D03*
Y61411D02*
D03*
X106756Y60911D02*
D03*
X107506Y60411D02*
D03*
X106756Y59911D02*
D03*
X100006Y57411D02*
D03*
Y56411D02*
D03*
X99256Y54911D02*
D03*
Y53911D02*
D03*
X100006Y52411D02*
D03*
X97756Y58911D02*
D03*
X99256Y50911D02*
D03*
Y49911D02*
D03*
X100006Y48411D02*
D03*
Y47411D02*
D03*
Y61411D02*
D03*
X99256Y60911D02*
D03*
X100006Y60411D02*
D03*
X99256Y59911D02*
D03*
X92506Y57411D02*
D03*
Y56411D02*
D03*
X91756Y54911D02*
D03*
Y53911D02*
D03*
X92506Y52411D02*
D03*
X90256Y58911D02*
D03*
X91756Y50911D02*
D03*
Y49911D02*
D03*
X92506Y48411D02*
D03*
Y47411D02*
D03*
Y61411D02*
D03*
X91756Y60911D02*
D03*
X92506Y60411D02*
D03*
X91756Y59911D02*
D03*
X85006Y57411D02*
D03*
Y56411D02*
D03*
X84256Y54911D02*
D03*
Y53911D02*
D03*
X85006Y52411D02*
D03*
X82756Y58911D02*
D03*
X84256Y50911D02*
D03*
Y49911D02*
D03*
X85006Y48411D02*
D03*
Y47411D02*
D03*
Y61411D02*
D03*
X84256Y60911D02*
D03*
X85006Y60411D02*
D03*
X84256Y59911D02*
D03*
X77506Y57411D02*
D03*
Y56411D02*
D03*
X76756Y54911D02*
D03*
Y53911D02*
D03*
X77506Y52411D02*
D03*
X75256Y58911D02*
D03*
X76756Y50911D02*
D03*
Y49911D02*
D03*
X77506Y48411D02*
D03*
Y47411D02*
D03*
Y61411D02*
D03*
X76756Y60911D02*
D03*
X77506Y60411D02*
D03*
X76756Y59911D02*
D03*
X70006Y57411D02*
D03*
Y56411D02*
D03*
X69256Y54911D02*
D03*
Y53911D02*
D03*
X70006Y52411D02*
D03*
X67756Y58911D02*
D03*
X69256Y50911D02*
D03*
Y49911D02*
D03*
X70006Y48411D02*
D03*
Y47411D02*
D03*
Y61411D02*
D03*
X69256Y60911D02*
D03*
X70006Y60411D02*
D03*
X69256Y59911D02*
D03*
X62506Y57411D02*
D03*
Y56411D02*
D03*
X61756Y54911D02*
D03*
Y53911D02*
D03*
X62506Y52411D02*
D03*
X60256Y58911D02*
D03*
X61756Y50911D02*
D03*
Y49911D02*
D03*
X62506Y48411D02*
D03*
Y47411D02*
D03*
Y61411D02*
D03*
X61756Y60911D02*
D03*
X62506Y60411D02*
D03*
X61756Y59911D02*
D03*
X55006Y57411D02*
D03*
Y56411D02*
D03*
X54256Y54911D02*
D03*
Y53911D02*
D03*
X55006Y52411D02*
D03*
X52756Y58911D02*
D03*
X54256Y50911D02*
D03*
Y49911D02*
D03*
X55006Y48411D02*
D03*
Y61411D02*
D03*
X54256Y60911D02*
D03*
X55006Y60411D02*
D03*
X54256Y59911D02*
D03*
X170994Y60411D02*
D03*
Y61411D02*
D03*
Y46411D02*
D03*
X172494Y59411D02*
D03*
D57*
X120571Y35827D02*
D03*
X42913Y56102D02*
D03*
X114961Y38681D02*
D03*
X53937Y65551D02*
D03*
X55610Y66240D02*
D03*
X75394Y71457D02*
D03*
X53051Y65354D02*
D03*
X64173Y69980D02*
D03*
X35236Y56693D02*
D03*
X33760Y53346D02*
D03*
X34055Y53543D02*
D03*
X34350Y53740D02*
D03*
X66634Y43504D02*
D03*
X41339Y50197D02*
D03*
X41732D02*
D03*
X41732Y49803D02*
D03*
X42126Y49409D02*
D03*
Y49803D02*
D03*
X42520Y49409D02*
D03*
Y49803D02*
D03*
X40945Y48228D02*
D03*
X156988Y44193D02*
D03*
X142913Y44980D02*
D03*
X127559Y44685D02*
D03*
X112894Y44882D02*
D03*
X97539Y44685D02*
D03*
X82776Y44783D02*
D03*
X52657Y44882D02*
D03*
X43307Y55709D02*
D03*
Y55315D02*
D03*
Y54921D02*
D03*
X42913Y54528D02*
D03*
X43307Y53346D02*
D03*
Y52953D02*
D03*
Y52559D02*
D03*
Y52165D02*
D03*
X42923Y51782D02*
D03*
X44144Y57333D02*
D03*
X39764Y49803D02*
D03*
X39370D02*
D03*
X38976D02*
D03*
X39370Y49409D02*
D03*
X38583Y49803D02*
D03*
X38189Y49409D02*
D03*
X37795Y49803D02*
D03*
Y49409D02*
D03*
X37402D02*
D03*
X37008D02*
D03*
X36617Y50200D02*
D03*
X36224D02*
D03*
X36220Y50591D02*
D03*
X36614D02*
D03*
X36220Y50984D02*
D03*
X36614D02*
D03*
X37008Y51378D02*
D03*
X26309Y43337D02*
D03*
X26545Y43081D02*
D03*
X27461Y46654D02*
D03*
X37402Y50984D02*
D03*
X28937Y48327D02*
D03*
X28445Y46949D02*
D03*
X27431Y45640D02*
D03*
X27165Y44980D02*
D03*
X26870Y45177D02*
D03*
X45079Y56496D02*
D03*
X42618Y40354D02*
D03*
D58*
X106737Y71698D02*
D03*
X48176Y70525D02*
D03*
X49670Y66275D02*
D03*
X45900Y73262D02*
D03*
X37992Y72835D02*
D03*
M02*
