%FSLAX24Y24*%
%MOIN*%
G70*
G01*
G75*
G04 Layer_Physical_Order=7*
G04 Layer_Color=128*
G04 Layer_Color=128*
%ADD10R,0.0433X0.0394*%
%ADD11R,0.0394X0.0433*%
%ADD12R,0.0866X0.1024*%
%ADD13R,0.1024X0.0866*%
%ADD14C,0.0157*%
%ADD15R,0.0354X0.0276*%
%ADD16R,0.0157X0.0709*%
%ADD17R,0.0709X0.0157*%
%ADD18R,0.0150X0.0600*%
%ADD19R,0.1969X0.1181*%
%ADD20R,0.0394X0.1929*%
%ADD21R,0.1063X0.0630*%
%ADD22O,0.0409X0.0150*%
%ADD23R,0.1614X0.1024*%
%ADD24R,0.0610X0.0197*%
%ADD25R,0.0610X0.0197*%
%ADD26R,0.0197X0.0610*%
%ADD27R,0.0551X0.0787*%
%ADD28R,0.0630X0.1063*%
%ADD29R,0.0709X0.0630*%
%ADD30R,0.0358X0.0480*%
%ADD31R,0.0630X0.0709*%
%ADD32R,0.0512X0.0591*%
%ADD33R,0.0866X0.0157*%
%ADD34R,0.0866X0.0157*%
%ADD35R,0.0571X0.0217*%
%ADD36R,0.1010X0.0620*%
%ADD37R,0.2560X0.0360*%
%ADD38R,0.0775X0.0620*%
%ADD39R,0.0409X0.0150*%
%ADD40R,0.1024X0.0945*%
%ADD41R,0.0157X0.0472*%
%ADD42C,0.0060*%
%ADD43C,0.0180*%
%ADD44C,0.0160*%
%ADD45C,0.0140*%
%ADD46C,0.0240*%
%ADD47C,0.0120*%
%ADD48C,0.0500*%
%ADD49C,0.0550*%
%ADD50C,0.1063*%
%ADD51C,0.1300*%
%ADD52C,0.0945*%
%ADD53C,0.0591*%
%ADD54R,0.0591X0.0591*%
%ADD55C,0.0700*%
%ADD56C,0.1600*%
%ADD57C,0.0200*%
%ADD58C,0.0300*%
%ADD59C,0.0240*%
%ADD60C,0.0280*%
%ADD61C,0.0420*%
%ADD62C,0.0080*%
%ADD63C,0.0100*%
%ADD64R,0.0276X0.0354*%
%ADD65C,0.0098*%
%ADD66C,0.0039*%
%ADD67C,0.0079*%
%ADD68C,0.0040*%
%ADD69C,0.0070*%
%ADD70C,0.0150*%
%ADD71C,0.0600*%
%ADD72R,0.0513X0.0474*%
%ADD73R,0.0474X0.0513*%
%ADD74R,0.0946X0.1104*%
%ADD75R,0.1104X0.0946*%
%ADD76C,0.0197*%
%ADD77R,0.0434X0.0356*%
%ADD78R,0.0237X0.0789*%
%ADD79R,0.0789X0.0237*%
%ADD80R,0.0230X0.0680*%
%ADD81R,0.2049X0.1261*%
%ADD82R,0.0474X0.2009*%
%ADD83R,0.1143X0.0710*%
%ADD84O,0.0489X0.0230*%
%ADD85R,0.1694X0.1104*%
%ADD86R,0.0690X0.0277*%
%ADD87R,0.0690X0.0277*%
%ADD88R,0.0277X0.0690*%
%ADD89R,0.0631X0.0867*%
%ADD90R,0.0710X0.1143*%
%ADD91R,0.0789X0.0710*%
%ADD92R,0.0438X0.0560*%
%ADD93R,0.0710X0.0789*%
%ADD94R,0.0592X0.0671*%
%ADD95R,0.0946X0.0237*%
%ADD96R,0.0946X0.0237*%
%ADD97R,0.0651X0.0297*%
%ADD98R,0.0489X0.0230*%
%ADD99R,0.1104X0.1025*%
%ADD100R,0.0237X0.0552*%
%ADD101C,0.0580*%
%ADD102C,0.0630*%
%ADD103C,0.1143*%
%ADD104C,0.1380*%
%ADD105C,0.1025*%
%ADD106C,0.0671*%
%ADD107R,0.0671X0.0671*%
%ADD108C,0.0780*%
%ADD109C,0.1680*%
%ADD110C,0.0380*%
%ADD111C,0.0360*%
%ADD112R,0.0356X0.0434*%
%ADD113C,0.0400*%
%AMTHD114*
7,0,0,0.0600,0.0440,0.0080,45*
%
%ADD114THD114*%
%ADD115C,0.0540*%
%ADD116C,0.0610*%
%AMTHD117*
7,0,0,0.0670,0.0510,0.0080,45*
%
%ADD117THD117*%
%ADD118C,0.1244*%
%ADD119C,0.1360*%
%ADD120C,0.0969*%
%AMTHD121*
7,0,0,0.1029,0.0869,0.0080,45*
%
%ADD121THD121*%
%AMTHD122*
7,0,0,0.0674,0.0514,0.0080,45*
%
%ADD122THD122*%
%ADD123C,0.0614*%
%AMTHD124*
7,0,0,0.0635,0.0475,0.0080,45*
%
%ADD124THD124*%
%ADD125C,0.0575*%
%AMTHD126*
7,0,0,0.0780,0.0620,0.0080,45*
%
%ADD126THD126*%
%ADD127C,0.0720*%
%ADD128C,0.0654*%
%AMTHD129*
7,0,0,0.0714,0.0554,0.0080,45*
%
%ADD129THD129*%
%ADD130C,0.1660*%
%AMTHD131*
7,0,0,0.0500,0.0340,0.0080,45*
%
%ADD131THD131*%
%AMTHD132*
7,0,0,0.0455,0.0295,0.0080,45*
%
%ADD132THD132*%
%ADD133C,0.0410*%
%AMTHD134*
7,0,0,0.0470,0.0310,0.0080,45*
%
%ADD134THD134*%
%AMTHD135*
7,0,0,0.0420,0.0260,0.0080,45*
%
%ADD135THD135*%
%AMTHD136*
7,0,0,0.0460,0.0300,0.0080,45*
%
%ADD136THD136*%
%ADD137C,0.0400*%
%AMTHD138*
7,0,0,0.0560,0.0400,0.0080,45*
%
%ADD138THD138*%
%ADD139C,0.0440*%
%ADD140C,0.0395*%
%ADD141C,0.0378*%
D42*
X169000Y41998D02*
Y76998D01*
X20502D02*
X169000D01*
X20472Y71850D02*
X20502Y76998D01*
X50423Y67205D02*
X50492Y74311D01*
X50423Y41004D02*
Y67205D01*
Y41004D02*
X169000D01*
Y42087D01*
X20502Y72510D02*
Y76998D01*
Y72510D02*
X20866Y72146D01*
X30807D01*
X32776Y74114D01*
X43602D01*
X44882Y75394D01*
X49409D01*
X50492Y74311D01*
D44*
X176500Y52200D02*
Y51000D01*
X177300D01*
X177900Y51800D02*
X178299D01*
X178499Y51600D01*
Y51000D01*
X177900D01*
X177700Y51200D01*
X177900Y51400D01*
X178499D01*
X178899Y51800D02*
Y51200D01*
X179099Y51000D01*
X179699D01*
Y50800D01*
X179499Y50600D01*
X179299D01*
X179699Y51000D02*
Y51800D01*
X180699Y51000D02*
X180299D01*
X180099Y51200D01*
Y51600D01*
X180299Y51800D01*
X180699D01*
X180899Y51600D01*
Y51400D01*
X180099D01*
X181298Y51800D02*
Y51000D01*
Y51400D01*
X181498Y51600D01*
X181698Y51800D01*
X181898D01*
X183698Y52200D02*
X184497D01*
Y52000D01*
X183698Y51200D01*
Y51000D01*
D48*
X35728Y64370D02*
D03*
X42323Y67618D02*
D03*
X40846D02*
D03*
X29921Y64272D02*
D03*
X33760D02*
D03*
D111*
X129626Y35630D02*
D03*
X120571Y35827D02*
D03*
X111122Y36024D02*
D03*
X64665Y37106D02*
D03*
X45276Y47736D02*
D03*
X61811Y39370D02*
D03*
X44685Y47244D02*
D03*
X92520Y73032D02*
D03*
X89075Y72539D02*
D03*
X83366D02*
D03*
X33661Y56398D02*
D03*
X34055Y56988D02*
D03*
X34449Y57087D02*
D03*
X44193Y55118D02*
D03*
X40945Y50197D02*
D03*
Y50591D02*
D03*
X42126Y57480D02*
D03*
X42421D02*
D03*
X38976Y56496D02*
D03*
X39370D02*
D03*
X39764Y56890D02*
D03*
X42913Y56102D02*
D03*
X43307D02*
D03*
X41929Y48524D02*
D03*
X118701Y35335D02*
D03*
X42815Y57480D02*
D03*
X114961Y38681D02*
D03*
X40945Y55315D02*
D03*
X42520Y50197D02*
D03*
X40650Y48524D02*
D03*
X40551Y50197D02*
D03*
X53937Y65551D02*
D03*
X55610Y66240D02*
D03*
X146772Y45295D02*
D03*
X75394Y71457D02*
D03*
X53051Y65354D02*
D03*
X64173Y69980D02*
D03*
X35236Y56693D02*
D03*
X132677Y39665D02*
D03*
X35236Y50689D02*
D03*
X33760Y53346D02*
D03*
X34055Y53543D02*
D03*
X34350Y53740D02*
D03*
X44193Y50787D02*
D03*
X39764Y49409D02*
D03*
X40945D02*
D03*
X41732D02*
D03*
X44390Y47835D02*
D03*
X44390Y48130D02*
D03*
X36614Y49803D02*
D03*
X37500Y57480D02*
D03*
X36220Y53740D02*
D03*
X35335Y55118D02*
D03*
X35827Y56890D02*
D03*
X35433Y57283D02*
D03*
X38583Y56496D02*
D03*
X40157D02*
D03*
Y56102D02*
D03*
X41535Y58760D02*
D03*
X40551Y56102D02*
D03*
X41339Y55709D02*
D03*
X66634Y43504D02*
D03*
X44390Y60039D02*
D03*
X40551Y56496D02*
D03*
X40945Y56102D02*
D03*
X40157Y57972D02*
D03*
X43110Y59449D02*
D03*
X42815Y59154D02*
D03*
X41339Y56496D02*
D03*
Y56102D02*
D03*
X42815Y58563D02*
D03*
X42520Y58268D02*
D03*
X41732Y56496D02*
D03*
Y56102D02*
D03*
X41339Y50197D02*
D03*
X41732D02*
D03*
X41732Y49803D02*
D03*
X42126Y49409D02*
D03*
Y49803D02*
D03*
X42520Y49409D02*
D03*
Y49803D02*
D03*
X40945Y48228D02*
D03*
X156988Y44193D02*
D03*
X142913Y44980D02*
D03*
X127559Y44685D02*
D03*
X112894Y44882D02*
D03*
X97539Y44685D02*
D03*
X82776Y44783D02*
D03*
X52657Y44882D02*
D03*
X37795Y54921D02*
D03*
X38189D02*
D03*
X43307Y54134D02*
D03*
X43691Y49026D02*
D03*
X44085Y48632D02*
D03*
X41732Y54528D02*
D03*
X41722Y51388D02*
D03*
X43307Y55709D02*
D03*
X42913D02*
D03*
X43307Y55315D02*
D03*
X42904Y55305D02*
D03*
X43307Y54921D02*
D03*
X42913D02*
D03*
Y54528D02*
D03*
Y54134D02*
D03*
X43307Y53346D02*
D03*
X42913D02*
D03*
X43307Y52953D02*
D03*
X42913D02*
D03*
X43307Y52559D02*
D03*
X42913D02*
D03*
X43307Y52165D02*
D03*
X42913D02*
D03*
X42923Y51782D02*
D03*
X44144Y57333D02*
D03*
X43701Y56890D02*
D03*
X41339Y54921D02*
D03*
X41732D02*
D03*
X37598Y48435D02*
D03*
X39764Y49803D02*
D03*
X39370D02*
D03*
X38976D02*
D03*
X39370Y49409D02*
D03*
X38976D02*
D03*
X38583Y49803D02*
D03*
X38189D02*
D03*
Y49409D02*
D03*
X37795Y49803D02*
D03*
Y49409D02*
D03*
X37402Y49803D02*
D03*
Y49409D02*
D03*
X37008D02*
D03*
X35433Y48622D02*
D03*
X35827Y49016D02*
D03*
X41732Y50984D02*
D03*
X41339D02*
D03*
X38189D02*
D03*
X37795D02*
D03*
X39370Y50197D02*
D03*
X38976D02*
D03*
X38583D02*
D03*
X38189D02*
D03*
X37795D02*
D03*
X37402D02*
D03*
X39370Y50591D02*
D03*
X38976D02*
D03*
X38583D02*
D03*
X37795D02*
D03*
X37402D02*
D03*
X37795Y51378D02*
D03*
Y54528D02*
D03*
X27000Y48650D02*
D03*
X28750D02*
D03*
X30207Y48657D02*
D03*
X31300Y47800D02*
D03*
X31250Y46300D02*
D03*
X31416Y45384D02*
D03*
X31350Y43700D02*
D03*
X31300Y44700D02*
D03*
X31250Y42200D02*
D03*
X31325Y47175D02*
D03*
X28800Y41300D02*
D03*
X26369Y40069D02*
D03*
X26300Y42200D02*
D03*
X26175Y42825D02*
D03*
X26143Y43593D02*
D03*
X26300Y44850D02*
D03*
Y46200D02*
D03*
Y47850D02*
D03*
X28200Y48700D02*
D03*
X29696Y48704D02*
D03*
X36617Y50200D02*
D03*
X36224D02*
D03*
X36220Y50591D02*
D03*
X36614D02*
D03*
X36220Y50984D02*
D03*
X36614D02*
D03*
Y51378D02*
D03*
X36220Y51772D02*
D03*
X36614D02*
D03*
X36220Y52165D02*
D03*
Y52559D02*
D03*
X36614D02*
D03*
Y52165D02*
D03*
X37008Y50591D02*
D03*
Y50984D02*
D03*
Y51378D02*
D03*
Y51772D02*
D03*
Y52165D02*
D03*
X37008Y52559D02*
D03*
X26309Y43337D02*
D03*
X26545Y43081D02*
D03*
X27461Y46654D02*
D03*
X37402Y50984D02*
D03*
X37402Y51772D02*
D03*
Y52165D02*
D03*
Y52559D02*
D03*
X33071Y41043D02*
D03*
X36545Y43337D02*
D03*
X35502Y43081D02*
D03*
X31398Y39764D02*
D03*
X31201Y41339D02*
D03*
X30906Y41732D02*
D03*
X29952Y42845D02*
D03*
X27904Y42765D02*
D03*
X27648Y42529D02*
D03*
X28445Y44390D02*
D03*
X30906Y42815D02*
D03*
X28937Y48327D02*
D03*
X28445Y46949D02*
D03*
X27431Y45640D02*
D03*
X27165Y44980D02*
D03*
X26870Y45177D02*
D03*
X26673Y41929D02*
D03*
X27264Y42913D02*
D03*
X37008Y52953D02*
D03*
X27393Y41997D02*
D03*
X114075Y71752D02*
D03*
X113583Y71063D02*
D03*
X113386Y70374D02*
D03*
X113287Y69783D02*
D03*
X103839Y68504D02*
D03*
X102165Y71161D02*
D03*
X104823Y70571D02*
D03*
X104724Y69980D02*
D03*
X102362Y73228D02*
D03*
X90472Y67736D02*
D03*
X101083Y71949D02*
D03*
X29724Y41437D02*
D03*
X52035Y73000D02*
D03*
X104232Y73130D02*
D03*
X42520Y56496D02*
D03*
X45079Y56496D02*
D03*
X35335Y47343D02*
D03*
X42618Y40354D02*
D03*
X44488Y48819D02*
D03*
D113*
X20000Y30000D02*
Y77500D01*
X175000D01*
Y30000D02*
Y77500D01*
X20000Y30000D02*
X175000D01*
D115*
X86400Y74800D02*
D03*
X85400D02*
D03*
X89200D02*
D03*
X90200D02*
D03*
X93300Y74700D02*
D03*
X94300D02*
D03*
D116*
X60894Y33649D02*
D03*
X59894D02*
D03*
X55006Y47411D02*
D03*
X125601Y36224D02*
D03*
Y37724D02*
D03*
X126601Y36224D02*
D03*
X127601D02*
D03*
X128601D02*
D03*
X126101Y36974D02*
D03*
X127101D02*
D03*
X128101D02*
D03*
X129101D02*
D03*
X129601Y36224D02*
D03*
X130601D02*
D03*
X131601D02*
D03*
X130101Y36974D02*
D03*
X131101D02*
D03*
X132601Y36224D02*
D03*
X132101Y36974D02*
D03*
X126601Y37724D02*
D03*
X127601D02*
D03*
X128601D02*
D03*
X126101Y38474D02*
D03*
X127101D02*
D03*
X128101D02*
D03*
X129101D02*
D03*
X129601Y37724D02*
D03*
X130601D02*
D03*
X131601D02*
D03*
X130101Y38474D02*
D03*
X131101D02*
D03*
X132601Y37724D02*
D03*
X132101Y38474D02*
D03*
X133601Y36224D02*
D03*
X134601D02*
D03*
X135601D02*
D03*
X133101Y36974D02*
D03*
X134101D02*
D03*
X135101D02*
D03*
X136101D02*
D03*
X136601Y36224D02*
D03*
X137601D02*
D03*
X138601D02*
D03*
X137101Y36974D02*
D03*
X138101D02*
D03*
X139101D02*
D03*
X134601Y37724D02*
D03*
X135601D02*
D03*
X133101Y38474D02*
D03*
X135101D02*
D03*
X136101D02*
D03*
X136601Y37724D02*
D03*
X137601D02*
D03*
X138601D02*
D03*
X137101Y38474D02*
D03*
X138101D02*
D03*
X139101D02*
D03*
X123601Y36224D02*
D03*
X122601Y37724D02*
D03*
X123101Y38474D02*
D03*
X124101Y36974D02*
D03*
X124601Y36224D02*
D03*
X125101Y36974D02*
D03*
X123601Y37724D02*
D03*
X124101Y38474D02*
D03*
X124601Y37724D02*
D03*
X125101Y38474D02*
D03*
X59394Y32899D02*
D03*
Y34399D02*
D03*
X58394Y32899D02*
D03*
X57394D02*
D03*
X56394D02*
D03*
X58894Y33649D02*
D03*
X57894D02*
D03*
X56894D02*
D03*
X55894D02*
D03*
X55394Y32899D02*
D03*
X54394D02*
D03*
X53394D02*
D03*
X54894Y33649D02*
D03*
X53894D02*
D03*
X52394Y32899D02*
D03*
X52894Y33649D02*
D03*
X58394Y34399D02*
D03*
X57394D02*
D03*
X56394D02*
D03*
X58894Y35149D02*
D03*
X57894D02*
D03*
X56894D02*
D03*
X55894D02*
D03*
X55394Y34399D02*
D03*
X54394D02*
D03*
X53394D02*
D03*
X54894Y35149D02*
D03*
X53894D02*
D03*
X52394Y34399D02*
D03*
X52894Y35149D02*
D03*
X51394Y32899D02*
D03*
X50394D02*
D03*
X49394D02*
D03*
X51894Y33649D02*
D03*
X50894D02*
D03*
X49894D02*
D03*
X48894D02*
D03*
X48394Y32899D02*
D03*
X47394D02*
D03*
X46394D02*
D03*
X47894Y33649D02*
D03*
X46894D02*
D03*
X45894D02*
D03*
X50394Y34399D02*
D03*
X49394D02*
D03*
X51894Y35149D02*
D03*
X49894D02*
D03*
X48894D02*
D03*
X48394Y34399D02*
D03*
X47394D02*
D03*
X46394D02*
D03*
X47894Y35149D02*
D03*
X46894D02*
D03*
X45894D02*
D03*
X61394Y32899D02*
D03*
X62394Y34399D02*
D03*
X61894Y35149D02*
D03*
X60394Y32899D02*
D03*
X61394Y34399D02*
D03*
X60894Y35149D02*
D03*
X60394Y34399D02*
D03*
X59894Y35149D02*
D03*
X167506Y59411D02*
D03*
X166006D02*
D03*
X167506Y58411D02*
D03*
Y57411D02*
D03*
Y56411D02*
D03*
X166756Y58911D02*
D03*
Y57911D02*
D03*
Y56911D02*
D03*
Y55911D02*
D03*
X167506Y55411D02*
D03*
Y54411D02*
D03*
Y53411D02*
D03*
X166756Y54911D02*
D03*
Y53911D02*
D03*
X167506Y52411D02*
D03*
X166756Y52911D02*
D03*
X166006Y58411D02*
D03*
Y57411D02*
D03*
Y56411D02*
D03*
X165256Y58911D02*
D03*
Y57911D02*
D03*
Y56911D02*
D03*
Y55911D02*
D03*
X166006Y55411D02*
D03*
Y54411D02*
D03*
Y53411D02*
D03*
X165256Y54911D02*
D03*
Y53911D02*
D03*
X166006Y52411D02*
D03*
X165256Y52911D02*
D03*
X167506Y51411D02*
D03*
Y50411D02*
D03*
Y49411D02*
D03*
X166756Y51911D02*
D03*
Y50911D02*
D03*
Y49911D02*
D03*
Y48911D02*
D03*
X167506Y48411D02*
D03*
Y47411D02*
D03*
Y46411D02*
D03*
X166756Y47911D02*
D03*
Y46911D02*
D03*
Y45911D02*
D03*
X166006Y50411D02*
D03*
Y49411D02*
D03*
X165256Y51911D02*
D03*
Y49911D02*
D03*
Y48911D02*
D03*
X166006Y48411D02*
D03*
Y47411D02*
D03*
Y46411D02*
D03*
X165256Y47911D02*
D03*
Y46911D02*
D03*
Y45911D02*
D03*
X167506Y61411D02*
D03*
X166006Y62411D02*
D03*
X165256Y61911D02*
D03*
X166756Y60911D02*
D03*
X167506Y60411D02*
D03*
X166756Y59911D02*
D03*
X166006Y61411D02*
D03*
X165256Y60911D02*
D03*
X166006Y60411D02*
D03*
X165256Y59911D02*
D03*
X160006Y59411D02*
D03*
X158506D02*
D03*
X160006Y58411D02*
D03*
Y57411D02*
D03*
Y56411D02*
D03*
X159256Y58911D02*
D03*
Y57911D02*
D03*
Y56911D02*
D03*
Y55911D02*
D03*
X160006Y55411D02*
D03*
Y54411D02*
D03*
Y53411D02*
D03*
X159256Y54911D02*
D03*
Y53911D02*
D03*
X160006Y52411D02*
D03*
X159256Y52911D02*
D03*
X158506Y58411D02*
D03*
Y57411D02*
D03*
Y56411D02*
D03*
X157756Y58911D02*
D03*
Y57911D02*
D03*
Y56911D02*
D03*
Y55911D02*
D03*
X158506Y55411D02*
D03*
Y54411D02*
D03*
Y53411D02*
D03*
X157756Y54911D02*
D03*
Y53911D02*
D03*
X158506Y52411D02*
D03*
X157756Y52911D02*
D03*
X160006Y51411D02*
D03*
Y50411D02*
D03*
Y49411D02*
D03*
X159256Y51911D02*
D03*
Y50911D02*
D03*
Y49911D02*
D03*
Y48911D02*
D03*
X160006Y48411D02*
D03*
Y47411D02*
D03*
Y46411D02*
D03*
X159256Y47911D02*
D03*
Y46911D02*
D03*
Y45911D02*
D03*
X158506Y50411D02*
D03*
Y49411D02*
D03*
X157756Y51911D02*
D03*
Y49911D02*
D03*
Y48911D02*
D03*
X158506Y48411D02*
D03*
Y47411D02*
D03*
Y46411D02*
D03*
X157756Y47911D02*
D03*
Y46911D02*
D03*
Y45911D02*
D03*
X160006Y61411D02*
D03*
X158506Y62411D02*
D03*
X157756Y61911D02*
D03*
X159256Y60911D02*
D03*
X160006Y60411D02*
D03*
X159256Y59911D02*
D03*
X158506Y61411D02*
D03*
X157756Y60911D02*
D03*
X158506Y60411D02*
D03*
X157756Y59911D02*
D03*
X152506Y59411D02*
D03*
X151006D02*
D03*
X152506Y58411D02*
D03*
Y57411D02*
D03*
Y56411D02*
D03*
X151756Y58911D02*
D03*
Y57911D02*
D03*
Y56911D02*
D03*
Y55911D02*
D03*
X152506Y55411D02*
D03*
Y54411D02*
D03*
Y53411D02*
D03*
X151756Y54911D02*
D03*
Y53911D02*
D03*
X152506Y52411D02*
D03*
X151756Y52911D02*
D03*
X151006Y58411D02*
D03*
Y57411D02*
D03*
Y56411D02*
D03*
X150256Y58911D02*
D03*
Y57911D02*
D03*
Y56911D02*
D03*
Y55911D02*
D03*
X151006Y55411D02*
D03*
Y54411D02*
D03*
Y53411D02*
D03*
X150256Y54911D02*
D03*
Y53911D02*
D03*
X151006Y52411D02*
D03*
X150256Y52911D02*
D03*
X152506Y51411D02*
D03*
Y50411D02*
D03*
Y49411D02*
D03*
X151756Y51911D02*
D03*
Y50911D02*
D03*
Y49911D02*
D03*
Y48911D02*
D03*
X152506Y48411D02*
D03*
Y47411D02*
D03*
Y46411D02*
D03*
X151756Y47911D02*
D03*
Y46911D02*
D03*
Y45911D02*
D03*
X151006Y50411D02*
D03*
Y49411D02*
D03*
X150256Y51911D02*
D03*
Y49911D02*
D03*
Y48911D02*
D03*
X151006Y48411D02*
D03*
Y47411D02*
D03*
Y46411D02*
D03*
X150256Y47911D02*
D03*
Y46911D02*
D03*
Y45911D02*
D03*
X152506Y61411D02*
D03*
X151006Y62411D02*
D03*
X150256Y61911D02*
D03*
X151756Y60911D02*
D03*
X152506Y60411D02*
D03*
X151756Y59911D02*
D03*
X151006Y61411D02*
D03*
X150256Y60911D02*
D03*
X151006Y60411D02*
D03*
X150256Y59911D02*
D03*
X145006Y59411D02*
D03*
X143506D02*
D03*
X145006Y58411D02*
D03*
Y57411D02*
D03*
Y56411D02*
D03*
X144256Y58911D02*
D03*
Y57911D02*
D03*
Y56911D02*
D03*
Y55911D02*
D03*
X145006Y55411D02*
D03*
Y54411D02*
D03*
Y53411D02*
D03*
X144256Y54911D02*
D03*
Y53911D02*
D03*
X145006Y52411D02*
D03*
X144256Y52911D02*
D03*
X143506Y58411D02*
D03*
Y57411D02*
D03*
Y56411D02*
D03*
X142756Y58911D02*
D03*
Y57911D02*
D03*
Y56911D02*
D03*
Y55911D02*
D03*
X143506Y55411D02*
D03*
Y54411D02*
D03*
Y53411D02*
D03*
X142756Y54911D02*
D03*
Y53911D02*
D03*
X143506Y52411D02*
D03*
X142756Y52911D02*
D03*
X145006Y51411D02*
D03*
Y50411D02*
D03*
Y49411D02*
D03*
X144256Y51911D02*
D03*
Y50911D02*
D03*
Y49911D02*
D03*
Y48911D02*
D03*
X145006Y48411D02*
D03*
Y47411D02*
D03*
Y46411D02*
D03*
X144256Y47911D02*
D03*
Y46911D02*
D03*
Y45911D02*
D03*
X143506Y50411D02*
D03*
Y49411D02*
D03*
X142756Y51911D02*
D03*
Y49911D02*
D03*
Y48911D02*
D03*
X143506Y48411D02*
D03*
Y47411D02*
D03*
Y46411D02*
D03*
X142756Y47911D02*
D03*
Y46911D02*
D03*
Y45911D02*
D03*
X145006Y61411D02*
D03*
X143506Y62411D02*
D03*
X142756Y61911D02*
D03*
X144256Y60911D02*
D03*
X145006Y60411D02*
D03*
X144256Y59911D02*
D03*
X143506Y61411D02*
D03*
X142756Y60911D02*
D03*
X143506Y60411D02*
D03*
X142756Y59911D02*
D03*
X137506Y59411D02*
D03*
X136006D02*
D03*
X137506Y58411D02*
D03*
Y57411D02*
D03*
Y56411D02*
D03*
X136756Y58911D02*
D03*
Y57911D02*
D03*
Y56911D02*
D03*
Y55911D02*
D03*
X137506Y55411D02*
D03*
Y54411D02*
D03*
Y53411D02*
D03*
X136756Y54911D02*
D03*
Y53911D02*
D03*
X137506Y52411D02*
D03*
X136756Y52911D02*
D03*
X136006Y58411D02*
D03*
Y57411D02*
D03*
Y56411D02*
D03*
X135256Y58911D02*
D03*
Y57911D02*
D03*
Y56911D02*
D03*
Y55911D02*
D03*
X136006Y55411D02*
D03*
Y54411D02*
D03*
Y53411D02*
D03*
X135256Y54911D02*
D03*
Y53911D02*
D03*
X136006Y52411D02*
D03*
X135256Y52911D02*
D03*
X137506Y51411D02*
D03*
Y50411D02*
D03*
Y49411D02*
D03*
X136756Y51911D02*
D03*
Y50911D02*
D03*
Y49911D02*
D03*
Y48911D02*
D03*
X137506Y48411D02*
D03*
Y47411D02*
D03*
Y46411D02*
D03*
X136756Y47911D02*
D03*
Y46911D02*
D03*
Y45911D02*
D03*
X136006Y50411D02*
D03*
Y49411D02*
D03*
X135256Y51911D02*
D03*
Y49911D02*
D03*
Y48911D02*
D03*
X136006Y48411D02*
D03*
Y47411D02*
D03*
Y46411D02*
D03*
X135256Y47911D02*
D03*
Y46911D02*
D03*
Y45911D02*
D03*
X137506Y61411D02*
D03*
X136006Y62411D02*
D03*
X135256Y61911D02*
D03*
X136756Y60911D02*
D03*
X137506Y60411D02*
D03*
X136756Y59911D02*
D03*
X136006Y61411D02*
D03*
X135256Y60911D02*
D03*
X136006Y60411D02*
D03*
X135256Y59911D02*
D03*
X130006Y59411D02*
D03*
X128506D02*
D03*
X130006Y58411D02*
D03*
Y57411D02*
D03*
Y56411D02*
D03*
X129256Y58911D02*
D03*
Y57911D02*
D03*
Y56911D02*
D03*
Y55911D02*
D03*
X130006Y55411D02*
D03*
Y54411D02*
D03*
Y53411D02*
D03*
X129256Y54911D02*
D03*
Y53911D02*
D03*
X130006Y52411D02*
D03*
X129256Y52911D02*
D03*
X128506Y58411D02*
D03*
Y57411D02*
D03*
Y56411D02*
D03*
X127756Y58911D02*
D03*
Y57911D02*
D03*
Y56911D02*
D03*
Y55911D02*
D03*
X128506Y55411D02*
D03*
Y54411D02*
D03*
Y53411D02*
D03*
X127756Y54911D02*
D03*
Y53911D02*
D03*
X128506Y52411D02*
D03*
X127756Y52911D02*
D03*
X130006Y51411D02*
D03*
Y50411D02*
D03*
Y49411D02*
D03*
X129256Y51911D02*
D03*
Y50911D02*
D03*
Y49911D02*
D03*
Y48911D02*
D03*
X130006Y48411D02*
D03*
Y47411D02*
D03*
Y46411D02*
D03*
X129256Y47911D02*
D03*
Y46911D02*
D03*
Y45911D02*
D03*
X128506Y50411D02*
D03*
Y49411D02*
D03*
X127756Y51911D02*
D03*
Y49911D02*
D03*
Y48911D02*
D03*
X128506Y48411D02*
D03*
Y47411D02*
D03*
Y46411D02*
D03*
X127756Y47911D02*
D03*
Y46911D02*
D03*
Y45911D02*
D03*
X130006Y61411D02*
D03*
X128506Y62411D02*
D03*
X127756Y61911D02*
D03*
X129256Y60911D02*
D03*
X130006Y60411D02*
D03*
X129256Y59911D02*
D03*
X128506Y61411D02*
D03*
X127756Y60911D02*
D03*
X128506Y60411D02*
D03*
X127756Y59911D02*
D03*
X122506Y59411D02*
D03*
X121006D02*
D03*
X122506Y58411D02*
D03*
Y57411D02*
D03*
Y56411D02*
D03*
X121756Y58911D02*
D03*
Y57911D02*
D03*
Y56911D02*
D03*
Y55911D02*
D03*
X122506Y55411D02*
D03*
Y54411D02*
D03*
Y53411D02*
D03*
X121756Y54911D02*
D03*
Y53911D02*
D03*
X122506Y52411D02*
D03*
X121756Y52911D02*
D03*
X121006Y58411D02*
D03*
Y57411D02*
D03*
Y56411D02*
D03*
X120256Y58911D02*
D03*
Y57911D02*
D03*
Y56911D02*
D03*
Y55911D02*
D03*
X121006Y55411D02*
D03*
Y54411D02*
D03*
Y53411D02*
D03*
X120256Y54911D02*
D03*
Y53911D02*
D03*
X121006Y52411D02*
D03*
X120256Y52911D02*
D03*
X122506Y51411D02*
D03*
Y50411D02*
D03*
Y49411D02*
D03*
X121756Y51911D02*
D03*
Y50911D02*
D03*
Y49911D02*
D03*
Y48911D02*
D03*
X122506Y48411D02*
D03*
Y47411D02*
D03*
Y46411D02*
D03*
X121756Y47911D02*
D03*
Y46911D02*
D03*
Y45911D02*
D03*
X121006Y50411D02*
D03*
Y49411D02*
D03*
X120256Y51911D02*
D03*
Y49911D02*
D03*
Y48911D02*
D03*
X121006Y48411D02*
D03*
Y47411D02*
D03*
Y46411D02*
D03*
X120256Y47911D02*
D03*
Y46911D02*
D03*
Y45911D02*
D03*
X122506Y61411D02*
D03*
X121006Y62411D02*
D03*
X120256Y61911D02*
D03*
X121756Y60911D02*
D03*
X122506Y60411D02*
D03*
X121756Y59911D02*
D03*
X121006Y61411D02*
D03*
X120256Y60911D02*
D03*
X121006Y60411D02*
D03*
X120256Y59911D02*
D03*
X115006Y59411D02*
D03*
X113506D02*
D03*
X115006Y58411D02*
D03*
Y57411D02*
D03*
Y56411D02*
D03*
X114256Y58911D02*
D03*
Y57911D02*
D03*
Y56911D02*
D03*
Y55911D02*
D03*
X115006Y55411D02*
D03*
Y54411D02*
D03*
Y53411D02*
D03*
X114256Y54911D02*
D03*
Y53911D02*
D03*
X115006Y52411D02*
D03*
X114256Y52911D02*
D03*
X113506Y58411D02*
D03*
Y57411D02*
D03*
Y56411D02*
D03*
X112756Y58911D02*
D03*
Y57911D02*
D03*
Y56911D02*
D03*
Y55911D02*
D03*
X113506Y55411D02*
D03*
Y54411D02*
D03*
Y53411D02*
D03*
X112756Y54911D02*
D03*
Y53911D02*
D03*
X113506Y52411D02*
D03*
X112756Y52911D02*
D03*
X115006Y51411D02*
D03*
Y50411D02*
D03*
Y49411D02*
D03*
X114256Y51911D02*
D03*
Y50911D02*
D03*
Y49911D02*
D03*
Y48911D02*
D03*
X115006Y48411D02*
D03*
Y47411D02*
D03*
Y46411D02*
D03*
X114256Y47911D02*
D03*
Y46911D02*
D03*
Y45911D02*
D03*
X113506Y50411D02*
D03*
Y49411D02*
D03*
X112756Y51911D02*
D03*
Y49911D02*
D03*
Y48911D02*
D03*
X113506Y48411D02*
D03*
Y47411D02*
D03*
Y46411D02*
D03*
X112756Y47911D02*
D03*
Y46911D02*
D03*
Y45911D02*
D03*
X115006Y61411D02*
D03*
X113506Y62411D02*
D03*
X112756Y61911D02*
D03*
X114256Y60911D02*
D03*
X115006Y60411D02*
D03*
X114256Y59911D02*
D03*
X113506Y61411D02*
D03*
X112756Y60911D02*
D03*
X113506Y60411D02*
D03*
X112756Y59911D02*
D03*
X107506Y59411D02*
D03*
X106006D02*
D03*
X107506Y58411D02*
D03*
Y57411D02*
D03*
Y56411D02*
D03*
X106756Y58911D02*
D03*
Y57911D02*
D03*
Y56911D02*
D03*
Y55911D02*
D03*
X107506Y55411D02*
D03*
Y54411D02*
D03*
Y53411D02*
D03*
X106756Y54911D02*
D03*
Y53911D02*
D03*
X107506Y52411D02*
D03*
X106756Y52911D02*
D03*
X106006Y58411D02*
D03*
Y57411D02*
D03*
Y56411D02*
D03*
X105256Y58911D02*
D03*
Y57911D02*
D03*
Y56911D02*
D03*
Y55911D02*
D03*
X106006Y55411D02*
D03*
Y54411D02*
D03*
Y53411D02*
D03*
X105256Y54911D02*
D03*
Y53911D02*
D03*
X106006Y52411D02*
D03*
X105256Y52911D02*
D03*
X107506Y51411D02*
D03*
Y50411D02*
D03*
Y49411D02*
D03*
X106756Y51911D02*
D03*
Y50911D02*
D03*
Y49911D02*
D03*
Y48911D02*
D03*
X107506Y48411D02*
D03*
Y47411D02*
D03*
Y46411D02*
D03*
X106756Y47911D02*
D03*
Y46911D02*
D03*
Y45911D02*
D03*
X106006Y50411D02*
D03*
Y49411D02*
D03*
X105256Y51911D02*
D03*
Y49911D02*
D03*
Y48911D02*
D03*
X106006Y48411D02*
D03*
Y47411D02*
D03*
Y46411D02*
D03*
X105256Y47911D02*
D03*
Y46911D02*
D03*
Y45911D02*
D03*
X107506Y61411D02*
D03*
X106006Y62411D02*
D03*
X105256Y61911D02*
D03*
X106756Y60911D02*
D03*
X107506Y60411D02*
D03*
X106756Y59911D02*
D03*
X106006Y61411D02*
D03*
X105256Y60911D02*
D03*
X106006Y60411D02*
D03*
X105256Y59911D02*
D03*
X100006Y59411D02*
D03*
X98506D02*
D03*
X100006Y58411D02*
D03*
Y57411D02*
D03*
Y56411D02*
D03*
X99256Y58911D02*
D03*
Y57911D02*
D03*
Y56911D02*
D03*
Y55911D02*
D03*
X100006Y55411D02*
D03*
Y54411D02*
D03*
Y53411D02*
D03*
X99256Y54911D02*
D03*
Y53911D02*
D03*
X100006Y52411D02*
D03*
X99256Y52911D02*
D03*
X98506Y58411D02*
D03*
Y57411D02*
D03*
Y56411D02*
D03*
X97756Y58911D02*
D03*
Y57911D02*
D03*
Y56911D02*
D03*
Y55911D02*
D03*
X98506Y55411D02*
D03*
Y54411D02*
D03*
Y53411D02*
D03*
X97756Y54911D02*
D03*
Y53911D02*
D03*
X98506Y52411D02*
D03*
X97756Y52911D02*
D03*
X100006Y51411D02*
D03*
Y50411D02*
D03*
Y49411D02*
D03*
X99256Y51911D02*
D03*
Y50911D02*
D03*
Y49911D02*
D03*
Y48911D02*
D03*
X100006Y48411D02*
D03*
Y47411D02*
D03*
Y46411D02*
D03*
X99256Y47911D02*
D03*
Y46911D02*
D03*
Y45911D02*
D03*
X98506Y50411D02*
D03*
Y49411D02*
D03*
X97756Y51911D02*
D03*
Y49911D02*
D03*
Y48911D02*
D03*
X98506Y48411D02*
D03*
Y47411D02*
D03*
Y46411D02*
D03*
X97756Y47911D02*
D03*
Y46911D02*
D03*
Y45911D02*
D03*
X100006Y61411D02*
D03*
X98506Y62411D02*
D03*
X97756Y61911D02*
D03*
X99256Y60911D02*
D03*
X100006Y60411D02*
D03*
X99256Y59911D02*
D03*
X98506Y61411D02*
D03*
X97756Y60911D02*
D03*
X98506Y60411D02*
D03*
X97756Y59911D02*
D03*
X92506Y59411D02*
D03*
X91006D02*
D03*
X92506Y58411D02*
D03*
Y57411D02*
D03*
Y56411D02*
D03*
X91756Y58911D02*
D03*
Y57911D02*
D03*
Y56911D02*
D03*
Y55911D02*
D03*
X92506Y55411D02*
D03*
Y54411D02*
D03*
Y53411D02*
D03*
X91756Y54911D02*
D03*
Y53911D02*
D03*
X92506Y52411D02*
D03*
X91756Y52911D02*
D03*
X91006Y58411D02*
D03*
Y57411D02*
D03*
Y56411D02*
D03*
X90256Y58911D02*
D03*
Y57911D02*
D03*
Y56911D02*
D03*
Y55911D02*
D03*
X91006Y55411D02*
D03*
Y54411D02*
D03*
Y53411D02*
D03*
X90256Y54911D02*
D03*
Y53911D02*
D03*
X91006Y52411D02*
D03*
X90256Y52911D02*
D03*
X92506Y51411D02*
D03*
Y50411D02*
D03*
Y49411D02*
D03*
X91756Y51911D02*
D03*
Y50911D02*
D03*
Y49911D02*
D03*
Y48911D02*
D03*
X92506Y48411D02*
D03*
Y47411D02*
D03*
Y46411D02*
D03*
X91756Y47911D02*
D03*
Y46911D02*
D03*
Y45911D02*
D03*
X91006Y50411D02*
D03*
Y49411D02*
D03*
X90256Y51911D02*
D03*
Y49911D02*
D03*
Y48911D02*
D03*
X91006Y48411D02*
D03*
Y47411D02*
D03*
Y46411D02*
D03*
X90256Y47911D02*
D03*
Y46911D02*
D03*
Y45911D02*
D03*
X92506Y61411D02*
D03*
X91006Y62411D02*
D03*
X90256Y61911D02*
D03*
X91756Y60911D02*
D03*
X92506Y60411D02*
D03*
X91756Y59911D02*
D03*
X91006Y61411D02*
D03*
X90256Y60911D02*
D03*
X91006Y60411D02*
D03*
X90256Y59911D02*
D03*
X85006Y59411D02*
D03*
X83506D02*
D03*
X85006Y58411D02*
D03*
Y57411D02*
D03*
Y56411D02*
D03*
X84256Y58911D02*
D03*
Y57911D02*
D03*
Y56911D02*
D03*
Y55911D02*
D03*
X85006Y55411D02*
D03*
Y54411D02*
D03*
Y53411D02*
D03*
X84256Y54911D02*
D03*
Y53911D02*
D03*
X85006Y52411D02*
D03*
X84256Y52911D02*
D03*
X83506Y58411D02*
D03*
Y57411D02*
D03*
Y56411D02*
D03*
X82756Y58911D02*
D03*
Y57911D02*
D03*
Y56911D02*
D03*
Y55911D02*
D03*
X83506Y55411D02*
D03*
Y54411D02*
D03*
Y53411D02*
D03*
X82756Y54911D02*
D03*
Y53911D02*
D03*
X83506Y52411D02*
D03*
X82756Y52911D02*
D03*
X85006Y51411D02*
D03*
Y50411D02*
D03*
Y49411D02*
D03*
X84256Y51911D02*
D03*
Y50911D02*
D03*
Y49911D02*
D03*
Y48911D02*
D03*
X85006Y48411D02*
D03*
Y47411D02*
D03*
Y46411D02*
D03*
X84256Y47911D02*
D03*
Y46911D02*
D03*
Y45911D02*
D03*
X83506Y50411D02*
D03*
Y49411D02*
D03*
X82756Y51911D02*
D03*
Y49911D02*
D03*
Y48911D02*
D03*
X83506Y48411D02*
D03*
Y47411D02*
D03*
Y46411D02*
D03*
X82756Y47911D02*
D03*
Y46911D02*
D03*
Y45911D02*
D03*
X85006Y61411D02*
D03*
X83506Y62411D02*
D03*
X82756Y61911D02*
D03*
X84256Y60911D02*
D03*
X85006Y60411D02*
D03*
X84256Y59911D02*
D03*
X83506Y61411D02*
D03*
X82756Y60911D02*
D03*
X83506Y60411D02*
D03*
X82756Y59911D02*
D03*
X77506Y59411D02*
D03*
X76006D02*
D03*
X77506Y58411D02*
D03*
Y57411D02*
D03*
Y56411D02*
D03*
X76756Y58911D02*
D03*
Y57911D02*
D03*
Y56911D02*
D03*
Y55911D02*
D03*
X77506Y55411D02*
D03*
Y54411D02*
D03*
Y53411D02*
D03*
X76756Y54911D02*
D03*
Y53911D02*
D03*
X77506Y52411D02*
D03*
X76756Y52911D02*
D03*
X76006Y58411D02*
D03*
Y57411D02*
D03*
Y56411D02*
D03*
X75256Y58911D02*
D03*
Y57911D02*
D03*
Y56911D02*
D03*
Y55911D02*
D03*
X76006Y55411D02*
D03*
Y54411D02*
D03*
Y53411D02*
D03*
X75256Y54911D02*
D03*
Y53911D02*
D03*
X76006Y52411D02*
D03*
X75256Y52911D02*
D03*
X77506Y51411D02*
D03*
Y50411D02*
D03*
Y49411D02*
D03*
X76756Y51911D02*
D03*
Y50911D02*
D03*
Y49911D02*
D03*
Y48911D02*
D03*
X77506Y48411D02*
D03*
Y47411D02*
D03*
Y46411D02*
D03*
X76756Y47911D02*
D03*
Y46911D02*
D03*
Y45911D02*
D03*
X76006Y50411D02*
D03*
Y49411D02*
D03*
X75256Y51911D02*
D03*
Y49911D02*
D03*
Y48911D02*
D03*
X76006Y48411D02*
D03*
Y47411D02*
D03*
Y46411D02*
D03*
X75256Y47911D02*
D03*
Y46911D02*
D03*
Y45911D02*
D03*
X77506Y61411D02*
D03*
X76006Y62411D02*
D03*
X75256Y61911D02*
D03*
X76756Y60911D02*
D03*
X77506Y60411D02*
D03*
X76756Y59911D02*
D03*
X76006Y61411D02*
D03*
X75256Y60911D02*
D03*
X76006Y60411D02*
D03*
X75256Y59911D02*
D03*
X70006Y59411D02*
D03*
X68506D02*
D03*
X70006Y58411D02*
D03*
Y57411D02*
D03*
Y56411D02*
D03*
X69256Y58911D02*
D03*
Y57911D02*
D03*
Y56911D02*
D03*
Y55911D02*
D03*
X70006Y55411D02*
D03*
Y54411D02*
D03*
Y53411D02*
D03*
X69256Y54911D02*
D03*
Y53911D02*
D03*
X70006Y52411D02*
D03*
X69256Y52911D02*
D03*
X68506Y58411D02*
D03*
Y57411D02*
D03*
Y56411D02*
D03*
X67756Y58911D02*
D03*
Y57911D02*
D03*
Y56911D02*
D03*
Y55911D02*
D03*
X68506Y55411D02*
D03*
Y54411D02*
D03*
Y53411D02*
D03*
X67756Y54911D02*
D03*
Y53911D02*
D03*
X68506Y52411D02*
D03*
X67756Y52911D02*
D03*
X70006Y51411D02*
D03*
Y50411D02*
D03*
Y49411D02*
D03*
X69256Y51911D02*
D03*
Y50911D02*
D03*
Y49911D02*
D03*
Y48911D02*
D03*
X70006Y48411D02*
D03*
Y47411D02*
D03*
Y46411D02*
D03*
X69256Y47911D02*
D03*
Y46911D02*
D03*
Y45911D02*
D03*
X68506Y50411D02*
D03*
Y49411D02*
D03*
X67756Y51911D02*
D03*
Y49911D02*
D03*
Y48911D02*
D03*
X68506Y48411D02*
D03*
Y47411D02*
D03*
Y46411D02*
D03*
X67756Y47911D02*
D03*
Y46911D02*
D03*
Y45911D02*
D03*
X70006Y61411D02*
D03*
X68506Y62411D02*
D03*
X67756Y61911D02*
D03*
X69256Y60911D02*
D03*
X70006Y60411D02*
D03*
X69256Y59911D02*
D03*
X68506Y61411D02*
D03*
X67756Y60911D02*
D03*
X68506Y60411D02*
D03*
X67756Y59911D02*
D03*
X62506Y59411D02*
D03*
X61006D02*
D03*
X62506Y58411D02*
D03*
Y57411D02*
D03*
Y56411D02*
D03*
X61756Y58911D02*
D03*
Y57911D02*
D03*
Y56911D02*
D03*
Y55911D02*
D03*
X62506Y55411D02*
D03*
Y54411D02*
D03*
Y53411D02*
D03*
X61756Y54911D02*
D03*
Y53911D02*
D03*
X62506Y52411D02*
D03*
X61756Y52911D02*
D03*
X61006Y58411D02*
D03*
Y57411D02*
D03*
Y56411D02*
D03*
X60256Y58911D02*
D03*
Y57911D02*
D03*
Y56911D02*
D03*
Y55911D02*
D03*
X61006Y55411D02*
D03*
Y54411D02*
D03*
Y53411D02*
D03*
X60256Y54911D02*
D03*
Y53911D02*
D03*
X61006Y52411D02*
D03*
X60256Y52911D02*
D03*
X62506Y51411D02*
D03*
Y50411D02*
D03*
Y49411D02*
D03*
X61756Y51911D02*
D03*
Y50911D02*
D03*
Y49911D02*
D03*
Y48911D02*
D03*
X62506Y48411D02*
D03*
Y47411D02*
D03*
Y46411D02*
D03*
X61756Y47911D02*
D03*
Y46911D02*
D03*
Y45911D02*
D03*
X61006Y50411D02*
D03*
Y49411D02*
D03*
X60256Y51911D02*
D03*
Y49911D02*
D03*
Y48911D02*
D03*
X61006Y48411D02*
D03*
Y47411D02*
D03*
Y46411D02*
D03*
X60256Y47911D02*
D03*
Y46911D02*
D03*
Y45911D02*
D03*
X62506Y61411D02*
D03*
X61006Y62411D02*
D03*
X60256Y61911D02*
D03*
X61756Y60911D02*
D03*
X62506Y60411D02*
D03*
X61756Y59911D02*
D03*
X61006Y61411D02*
D03*
X60256Y60911D02*
D03*
X61006Y60411D02*
D03*
X60256Y59911D02*
D03*
X55006Y59411D02*
D03*
X53506D02*
D03*
X55006Y58411D02*
D03*
Y57411D02*
D03*
Y56411D02*
D03*
X54256Y58911D02*
D03*
Y57911D02*
D03*
Y56911D02*
D03*
Y55911D02*
D03*
X55006Y55411D02*
D03*
Y54411D02*
D03*
Y53411D02*
D03*
X54256Y54911D02*
D03*
Y53911D02*
D03*
X55006Y52411D02*
D03*
X54256Y52911D02*
D03*
X53506Y58411D02*
D03*
Y57411D02*
D03*
Y56411D02*
D03*
X52756Y58911D02*
D03*
Y57911D02*
D03*
Y56911D02*
D03*
Y55911D02*
D03*
X53506Y55411D02*
D03*
Y54411D02*
D03*
Y53411D02*
D03*
X52756Y54911D02*
D03*
Y53911D02*
D03*
X53506Y52411D02*
D03*
X52756Y52911D02*
D03*
X55006Y51411D02*
D03*
Y50411D02*
D03*
Y49411D02*
D03*
X54256Y51911D02*
D03*
Y50911D02*
D03*
Y49911D02*
D03*
Y48911D02*
D03*
X55006Y48411D02*
D03*
Y46411D02*
D03*
X54256Y47911D02*
D03*
Y46911D02*
D03*
Y45911D02*
D03*
X53506Y50411D02*
D03*
Y49411D02*
D03*
X52756Y51911D02*
D03*
Y49911D02*
D03*
Y48911D02*
D03*
X53506Y48411D02*
D03*
Y47411D02*
D03*
Y46411D02*
D03*
X52756Y47911D02*
D03*
Y46911D02*
D03*
Y45911D02*
D03*
X55006Y61411D02*
D03*
X53506Y62411D02*
D03*
X52756Y61911D02*
D03*
X54256Y60911D02*
D03*
X55006Y60411D02*
D03*
X54256Y59911D02*
D03*
X53506Y61411D02*
D03*
X52756Y60911D02*
D03*
X53506Y60411D02*
D03*
X52756Y59911D02*
D03*
X172494Y60411D02*
D03*
X171744Y60911D02*
D03*
X172494Y61411D02*
D03*
X171744Y61911D02*
D03*
X170994Y60411D02*
D03*
X170244Y60911D02*
D03*
X170994Y61411D02*
D03*
X172494Y62411D02*
D03*
X171744Y62911D02*
D03*
X170244Y61911D02*
D03*
X172494Y46411D02*
D03*
Y47411D02*
D03*
Y48411D02*
D03*
X171744Y46911D02*
D03*
Y47911D02*
D03*
Y48911D02*
D03*
X172494Y49411D02*
D03*
Y50411D02*
D03*
Y52411D02*
D03*
X171744Y49911D02*
D03*
Y50911D02*
D03*
X170994Y46411D02*
D03*
Y47411D02*
D03*
Y48411D02*
D03*
X170244Y46911D02*
D03*
Y47911D02*
D03*
Y48911D02*
D03*
X170994Y49411D02*
D03*
Y50411D02*
D03*
Y51411D02*
D03*
Y52411D02*
D03*
X170244Y49911D02*
D03*
Y50911D02*
D03*
Y51911D02*
D03*
X172494Y53411D02*
D03*
X171744Y52911D02*
D03*
X172494Y54411D02*
D03*
Y55411D02*
D03*
X171744Y53911D02*
D03*
Y54911D02*
D03*
Y55911D02*
D03*
X172494Y56411D02*
D03*
Y57411D02*
D03*
Y58411D02*
D03*
Y59411D02*
D03*
X171744Y56911D02*
D03*
Y57911D02*
D03*
Y58911D02*
D03*
X170994Y53411D02*
D03*
X170244Y52911D02*
D03*
X170994Y54411D02*
D03*
Y55411D02*
D03*
X170244Y53911D02*
D03*
Y54911D02*
D03*
Y55911D02*
D03*
X170994Y56411D02*
D03*
Y57411D02*
D03*
Y58411D02*
D03*
Y59411D02*
D03*
X170244Y56911D02*
D03*
Y57911D02*
D03*
Y58911D02*
D03*
X171744Y59911D02*
D03*
X170244D02*
D03*
D117*
X133601Y37724D02*
D03*
X134101Y38474D02*
D03*
X122601Y36224D02*
D03*
X123101Y36974D02*
D03*
X51394Y34399D02*
D03*
X50894Y35149D02*
D03*
X62394Y32899D02*
D03*
X61894Y33649D02*
D03*
X166006Y51411D02*
D03*
X165256Y50911D02*
D03*
X167506Y62411D02*
D03*
X166756Y61911D02*
D03*
X158506Y51411D02*
D03*
X157756Y50911D02*
D03*
X160006Y62411D02*
D03*
X159256Y61911D02*
D03*
X151006Y51411D02*
D03*
X150256Y50911D02*
D03*
X152506Y62411D02*
D03*
X151756Y61911D02*
D03*
X143506Y51411D02*
D03*
X142756Y50911D02*
D03*
X145006Y62411D02*
D03*
X144256Y61911D02*
D03*
X136006Y51411D02*
D03*
X135256Y50911D02*
D03*
X137506Y62411D02*
D03*
X136756Y61911D02*
D03*
X128506Y51411D02*
D03*
X127756Y50911D02*
D03*
X130006Y62411D02*
D03*
X129256Y61911D02*
D03*
X121006Y51411D02*
D03*
X120256Y50911D02*
D03*
X122506Y62411D02*
D03*
X121756Y61911D02*
D03*
X113506Y51411D02*
D03*
X112756Y50911D02*
D03*
X115006Y62411D02*
D03*
X114256Y61911D02*
D03*
X106006Y51411D02*
D03*
X105256Y50911D02*
D03*
X107506Y62411D02*
D03*
X106756Y61911D02*
D03*
X98506Y51411D02*
D03*
X97756Y50911D02*
D03*
X100006Y62411D02*
D03*
X99256Y61911D02*
D03*
X91006Y51411D02*
D03*
X90256Y50911D02*
D03*
X92506Y62411D02*
D03*
X91756Y61911D02*
D03*
X83506Y51411D02*
D03*
X82756Y50911D02*
D03*
X85006Y62411D02*
D03*
X84256Y61911D02*
D03*
X76006Y51411D02*
D03*
X75256Y50911D02*
D03*
X77506Y62411D02*
D03*
X76756Y61911D02*
D03*
X68506Y51411D02*
D03*
X67756Y50911D02*
D03*
X70006Y62411D02*
D03*
X69256Y61911D02*
D03*
X61006Y51411D02*
D03*
X60256Y50911D02*
D03*
X62506Y62411D02*
D03*
X61756Y61911D02*
D03*
X53506Y51411D02*
D03*
X52756Y50911D02*
D03*
X55006Y62411D02*
D03*
X54256Y61911D02*
D03*
X170994Y62411D02*
D03*
X170244Y62911D02*
D03*
X172494Y51411D02*
D03*
X171744Y51911D02*
D03*
D118*
X139995Y36480D02*
D03*
X45000Y33155D02*
D03*
X167250Y45017D02*
D03*
X159750D02*
D03*
X152250D02*
D03*
X144750D02*
D03*
X137250D02*
D03*
X129750D02*
D03*
X122250D02*
D03*
X114750D02*
D03*
X107250D02*
D03*
X99750D02*
D03*
X92250D02*
D03*
X84750D02*
D03*
X77250D02*
D03*
X69750D02*
D03*
X62250D02*
D03*
X54750D02*
D03*
X170500Y45517D02*
D03*
D119*
X141061Y37349D02*
D03*
X120641D02*
D03*
X43934Y34024D02*
D03*
X64354D02*
D03*
X166381Y43951D02*
D03*
Y64371D02*
D03*
X158881Y43951D02*
D03*
Y64371D02*
D03*
X151381Y43951D02*
D03*
Y64371D02*
D03*
X143881Y43951D02*
D03*
Y64371D02*
D03*
X136381Y43951D02*
D03*
Y64371D02*
D03*
X128881Y43951D02*
D03*
Y64371D02*
D03*
X121381Y43951D02*
D03*
Y64371D02*
D03*
X113881Y43951D02*
D03*
Y64371D02*
D03*
X106381Y43951D02*
D03*
Y64371D02*
D03*
X98881Y43951D02*
D03*
Y64371D02*
D03*
X91381Y43951D02*
D03*
Y64371D02*
D03*
X83881Y43951D02*
D03*
Y64371D02*
D03*
X76381Y43951D02*
D03*
Y64371D02*
D03*
X68881Y43951D02*
D03*
Y64371D02*
D03*
X61381Y43951D02*
D03*
Y64371D02*
D03*
X53881Y43951D02*
D03*
Y64371D02*
D03*
X171369Y64871D02*
D03*
Y44451D02*
D03*
D120*
X24800Y71393D02*
D03*
Y69739D02*
D03*
Y68086D02*
D03*
Y66432D02*
D03*
Y64779D02*
D03*
Y63125D02*
D03*
Y61472D02*
D03*
Y59818D02*
D03*
X22635Y73046D02*
D03*
Y71393D02*
D03*
Y69739D02*
D03*
Y68086D02*
D03*
Y66432D02*
D03*
Y64779D02*
D03*
Y63125D02*
D03*
Y61472D02*
D03*
Y59818D02*
D03*
D121*
X24800Y74700D02*
D03*
Y73046D02*
D03*
X22635Y74700D02*
D03*
D123*
X29100Y70800D02*
D03*
Y69800D02*
D03*
D125*
X54202Y75787D02*
D03*
X54694Y75000D02*
D03*
X55187Y75787D02*
D03*
X55679Y75000D02*
D03*
X56171Y75787D02*
D03*
X56663Y75000D02*
D03*
X57155Y75787D02*
D03*
X57647Y75000D02*
D03*
X58139Y75787D02*
D03*
X58632Y75000D02*
D03*
X59124Y75787D02*
D03*
X59616Y75000D02*
D03*
X60108Y75787D02*
D03*
X60600Y75000D02*
D03*
D127*
X66100Y74400D02*
D03*
X64722D02*
D03*
X67478D02*
D03*
D128*
X72776Y74413D02*
D03*
Y75200D02*
D03*
X73563Y74413D02*
D03*
Y75200D02*
D03*
X74350Y74413D02*
D03*
Y75200D02*
D03*
X75138Y74413D02*
D03*
Y75200D02*
D03*
X75925Y74413D02*
D03*
Y75200D02*
D03*
X76713Y74413D02*
D03*
Y75200D02*
D03*
X77500D02*
D03*
D129*
Y74413D02*
D03*
D130*
X40000Y73250D02*
D03*
Y32000D02*
D03*
X80000Y73250D02*
D03*
Y32000D02*
D03*
X120000Y73250D02*
D03*
Y32000D02*
D03*
X160000Y73250D02*
D03*
Y32000D02*
D03*
D133*
X129104Y31761D02*
D03*
X35500Y46819D02*
D03*
X45276Y49902D02*
D03*
X31890Y57776D02*
D03*
X33554Y57784D02*
D03*
X46850Y59941D02*
D03*
X28051Y52953D02*
D03*
X33158Y38200D02*
D03*
X41162Y37184D02*
D03*
X62609Y38200D02*
D03*
X66328D02*
D03*
X68450Y35084D02*
D03*
X170300Y70350D02*
D03*
X172300Y70417D02*
D03*
X172343Y66831D02*
D03*
X170866Y41831D02*
D03*
X140157Y33760D02*
D03*
X116929Y35630D02*
D03*
X117618Y38484D02*
D03*
X116816Y39257D02*
D03*
X119666Y36300D02*
D03*
X102461Y73819D02*
D03*
X103204Y71215D02*
D03*
X106737Y71698D02*
D03*
X105512Y73819D02*
D03*
X103642Y72736D02*
D03*
X99508Y73622D02*
D03*
X99311Y72835D02*
D03*
X48176Y70525D02*
D03*
X48237Y69775D02*
D03*
X48257Y69025D02*
D03*
X48287Y67775D02*
D03*
X48231Y67025D02*
D03*
X49670Y66275D02*
D03*
X44587Y66634D02*
D03*
Y67618D02*
D03*
X45936Y69025D02*
D03*
X44534Y70525D02*
D03*
X46048Y71275D02*
D03*
X50349Y73765D02*
D03*
X47047Y75591D02*
D03*
X45900Y73262D02*
D03*
X48317Y74400D02*
D03*
X37462Y39900D02*
D03*
X38350Y39800D02*
D03*
X39140Y38746D02*
D03*
X38647Y38450D02*
D03*
X39832Y37765D02*
D03*
X36289D02*
D03*
X36909Y38431D02*
D03*
X36726Y41647D02*
D03*
X39173Y41634D02*
D03*
X39832Y35600D02*
D03*
X38386Y35039D02*
D03*
X37880Y35025D02*
D03*
X36250Y35600D02*
D03*
X34140Y39187D02*
D03*
Y40636D02*
D03*
X41660Y39101D02*
D03*
X41339Y40551D02*
D03*
X34598Y55956D02*
D03*
X36201Y57500D02*
D03*
X37597Y47944D02*
D03*
X44146Y50244D02*
D03*
D134*
X45276Y48425D02*
D03*
X35531Y44882D02*
D03*
X31890Y55807D02*
D03*
X33456Y55816D02*
D03*
X44882Y56890D02*
D03*
X25492Y51673D02*
D03*
X29539Y38200D02*
D03*
X40846Y35138D02*
D03*
X66983Y33116D02*
D03*
X170276Y66634D02*
D03*
X172933Y39961D02*
D03*
X136417Y33760D02*
D03*
X119587Y38484D02*
D03*
X49803Y71457D02*
D03*
X49679Y65525D02*
D03*
X45965Y67224D02*
D03*
X44497Y69775D02*
D03*
X46555Y75098D02*
D03*
X47049Y73227D02*
D03*
Y71754D02*
D03*
X37992Y72835D02*
D03*
X42913Y71850D02*
D03*
X35531Y73917D02*
D03*
X103150Y74803D02*
D03*
X104626Y73720D02*
D03*
X104528Y71752D02*
D03*
X102362Y71949D02*
D03*
X105512Y72736D02*
D03*
X98524Y74016D02*
D03*
X38976Y35039D02*
D03*
X37008Y35138D02*
D03*
X39272Y65200D02*
D03*
D135*
X111811Y37992D02*
D03*
X40945Y49803D02*
D03*
X37402Y54528D02*
D03*
X38189Y56496D02*
D03*
X36220Y54134D02*
D03*
X40945Y56496D02*
D03*
X38199Y55305D02*
D03*
X38583Y54921D02*
D03*
X38976D02*
D03*
X39370D02*
D03*
X43307Y54528D02*
D03*
X41732Y53346D02*
D03*
Y53740D02*
D03*
Y54134D02*
D03*
X42126Y54528D02*
D03*
X41732Y52559D02*
D03*
Y52165D02*
D03*
Y51772D02*
D03*
X42116Y51388D02*
D03*
X40551Y54921D02*
D03*
X40157D02*
D03*
X43307Y51378D02*
D03*
X40945Y54921D02*
D03*
X41329Y55305D02*
D03*
X36417Y48405D02*
D03*
X38583Y49409D02*
D03*
X36024Y48425D02*
D03*
X40945Y50984D02*
D03*
X40551D02*
D03*
X40157D02*
D03*
X41339Y50591D02*
D03*
X39370Y50984D02*
D03*
X38976D02*
D03*
X38583D02*
D03*
X38189Y50591D02*
D03*
X37402Y51378D02*
D03*
X37795Y51772D02*
D03*
Y52165D02*
D03*
Y52559D02*
D03*
Y53346D02*
D03*
Y53740D02*
D03*
Y54134D02*
D03*
X26950Y50200D02*
D03*
X28800Y50100D02*
D03*
X32650Y47750D02*
D03*
X32700Y46300D02*
D03*
X32548Y43848D02*
D03*
X32700Y44600D02*
D03*
Y42250D02*
D03*
X28750Y39900D02*
D03*
X24850Y42250D02*
D03*
X24900Y44900D02*
D03*
X24848Y46152D02*
D03*
X24800Y47750D02*
D03*
X35237Y49213D02*
D03*
X36220Y51378D02*
D03*
X25049Y43848D02*
D03*
X115100Y32000D02*
D03*
D136*
X71107Y68307D02*
D03*
X78793D02*
D03*
X86293D02*
D03*
X93743D02*
D03*
X100843D02*
D03*
X108293D02*
D03*
X116193D02*
D03*
X123693D02*
D03*
X130943D02*
D03*
X138643D02*
D03*
X146143D02*
D03*
X153593D02*
D03*
X161093D02*
D03*
X168543D02*
D03*
X63725Y68313D02*
D03*
X56225D02*
D03*
D137*
X67043Y68307D02*
D03*
X74757D02*
D03*
X82257D02*
D03*
X96807D02*
D03*
X104257D02*
D03*
X112157D02*
D03*
X119657D02*
D03*
X126907D02*
D03*
X134607D02*
D03*
X142107D02*
D03*
X149557D02*
D03*
X157057D02*
D03*
X164507D02*
D03*
X59689Y68313D02*
D03*
X52189D02*
D03*
D138*
X37008Y72736D02*
D03*
X40453Y71850D02*
D03*
D139*
X36850Y64300D02*
D03*
Y63500D02*
D03*
X38900Y64300D02*
D03*
Y63500D02*
D03*
X38950Y37100D02*
D03*
Y36300D02*
D03*
D140*
X37500Y63700D02*
D03*
X37900D02*
D03*
X38300D02*
D03*
X37500Y64100D02*
D03*
X37900D02*
D03*
X38300D02*
D03*
X38350Y36900D02*
D03*
Y36500D02*
D03*
X37950Y36900D02*
D03*
Y36500D02*
D03*
X37550Y36900D02*
D03*
Y36500D02*
D03*
D141*
X40551Y52165D02*
D03*
Y52559D02*
D03*
Y53346D02*
D03*
Y52953D02*
D03*
Y54134D02*
D03*
Y53740D02*
D03*
Y51772D02*
D03*
X40945D02*
D03*
Y53740D02*
D03*
Y54134D02*
D03*
Y52953D02*
D03*
Y53346D02*
D03*
Y52559D02*
D03*
Y52165D02*
D03*
X40157Y51772D02*
D03*
Y53740D02*
D03*
Y54134D02*
D03*
Y52953D02*
D03*
Y53346D02*
D03*
Y52559D02*
D03*
Y52165D02*
D03*
X39764Y51772D02*
D03*
Y53740D02*
D03*
Y54134D02*
D03*
Y52953D02*
D03*
Y53346D02*
D03*
Y52559D02*
D03*
Y52165D02*
D03*
X39370Y51772D02*
D03*
Y53740D02*
D03*
Y54134D02*
D03*
Y52953D02*
D03*
Y53346D02*
D03*
Y52559D02*
D03*
Y52165D02*
D03*
X38976Y51772D02*
D03*
Y53740D02*
D03*
Y54134D02*
D03*
Y52953D02*
D03*
Y53346D02*
D03*
Y52559D02*
D03*
Y52165D02*
D03*
X38583Y51772D02*
D03*
Y53740D02*
D03*
Y54134D02*
D03*
Y52953D02*
D03*
Y53346D02*
D03*
Y52559D02*
D03*
Y52165D02*
D03*
M02*
