%FSLAX24Y24*%
%MOIN*%
G70*
G01*
G75*
G04 Layer_Color=16711935*
G04 Layer_Color=16711935*
%ADD10R,0.0866X0.1024*%
%ADD11R,0.1024X0.0866*%
%ADD12C,0.0157*%
%ADD13R,0.0197X0.0748*%
%ADD14R,0.1575X0.0335*%
%ADD15R,0.0709X0.0630*%
%ADD16R,0.0630X0.0709*%
%ADD17R,0.0394X0.0433*%
%ADD18R,0.0787X0.0551*%
%ADD19R,0.0709X0.0157*%
%ADD20R,0.0157X0.0709*%
%ADD21R,0.0433X0.0394*%
%ADD22R,0.0748X0.0197*%
%ADD23R,0.1929X0.0898*%
%ADD24R,0.1929X0.0866*%
%ADD25R,0.3000X0.2900*%
%ADD26R,0.1500X0.0500*%
%ADD27R,0.2900X0.3000*%
%ADD28R,0.0500X0.1500*%
%ADD29R,0.0630X0.0512*%
%ADD30C,0.0200*%
%ADD31C,0.0100*%
%ADD32C,0.0180*%
%ADD33C,0.0060*%
%ADD34C,0.0300*%
%ADD35C,0.0080*%
%ADD36C,0.0090*%
%ADD37C,0.0070*%
%ADD38C,0.0160*%
%ADD39C,0.0140*%
%ADD40C,0.0120*%
%ADD41C,0.0591*%
%ADD42C,0.0700*%
%ADD43C,0.1600*%
%ADD44C,0.0669*%
%ADD45C,0.1063*%
%ADD46R,0.0591X0.0591*%
%ADD47C,0.0550*%
%ADD48C,0.1300*%
%ADD49C,0.0866*%
%ADD50C,0.0200*%
%ADD51C,0.0400*%
%ADD52C,0.0240*%
%ADD53C,0.0500*%
%ADD54C,0.0300*%
%ADD55R,0.0354X0.0276*%
%ADD56R,0.0276X0.0354*%
%ADD57R,0.0354X0.0945*%
%ADD58C,0.0098*%
%ADD59C,0.0079*%
%ADD60C,0.0040*%
%ADD61C,0.0150*%
%ADD62C,0.0600*%
%ADD63R,0.0946X0.1104*%
%ADD64R,0.1104X0.0946*%
%ADD65C,0.0197*%
%ADD66R,0.0277X0.0828*%
%ADD67R,0.1655X0.0415*%
%ADD68R,0.0789X0.0710*%
%ADD69R,0.0710X0.0789*%
%ADD70R,0.0474X0.0513*%
%ADD71R,0.0867X0.0631*%
%ADD72R,0.0789X0.0237*%
%ADD73R,0.0237X0.0789*%
%ADD74R,0.0513X0.0474*%
%ADD75R,0.0828X0.0277*%
%ADD76R,0.2009X0.0978*%
%ADD77R,0.2009X0.0946*%
%ADD78R,0.3080X0.2980*%
%ADD79R,0.1580X0.0580*%
%ADD80R,0.2980X0.3080*%
%ADD81R,0.0580X0.1580*%
%ADD82R,0.0710X0.0592*%
%ADD83C,0.0671*%
%ADD84C,0.0780*%
%ADD85C,0.1680*%
%ADD86C,0.0749*%
%ADD87C,0.1143*%
%ADD88R,0.0671X0.0671*%
%ADD89C,0.0630*%
%ADD90C,0.1380*%
%ADD91C,0.0946*%
%ADD92C,0.0280*%
%ADD93C,0.0480*%
%ADD94C,0.0580*%
%ADD95C,0.0380*%
%ADD96R,0.0434X0.0356*%
%ADD97R,0.0356X0.0434*%
%ADD98R,0.0434X0.1025*%
D52*
X96063Y42913D02*
D03*
X96850Y40945D02*
D03*
Y41339D02*
D03*
Y42126D02*
D03*
Y41732D02*
D03*
Y42913D02*
D03*
Y42520D02*
D03*
Y40551D02*
D03*
X97244D02*
D03*
Y42520D02*
D03*
Y42913D02*
D03*
Y41732D02*
D03*
Y42126D02*
D03*
Y41339D02*
D03*
Y40945D02*
D03*
X96457Y40551D02*
D03*
Y42520D02*
D03*
Y42913D02*
D03*
Y41732D02*
D03*
Y42126D02*
D03*
Y41339D02*
D03*
Y40945D02*
D03*
X96063Y40551D02*
D03*
Y42520D02*
D03*
Y41732D02*
D03*
Y42126D02*
D03*
Y41339D02*
D03*
Y40945D02*
D03*
X95669Y40551D02*
D03*
Y42520D02*
D03*
Y42913D02*
D03*
Y41732D02*
D03*
Y42126D02*
D03*
Y41339D02*
D03*
Y40945D02*
D03*
X95276Y40551D02*
D03*
Y42520D02*
D03*
Y42913D02*
D03*
Y41732D02*
D03*
Y42126D02*
D03*
Y41339D02*
D03*
Y40945D02*
D03*
X94882Y40551D02*
D03*
Y42520D02*
D03*
Y42913D02*
D03*
Y41732D02*
D03*
Y42126D02*
D03*
Y41339D02*
D03*
Y40945D02*
D03*
D83*
X94900Y74100D02*
D03*
X28600Y49000D02*
D03*
X60776Y74713D02*
D03*
Y75500D02*
D03*
X61563Y74713D02*
D03*
Y75500D02*
D03*
X62350Y74713D02*
D03*
Y75500D02*
D03*
X63138Y74713D02*
D03*
Y75500D02*
D03*
X63925Y74713D02*
D03*
Y75500D02*
D03*
X64713Y74713D02*
D03*
Y75500D02*
D03*
X65500Y74713D02*
D03*
Y75500D02*
D03*
X55100Y74550D02*
D03*
Y75550D02*
D03*
X54100Y74550D02*
D03*
Y75550D02*
D03*
X53100Y74550D02*
D03*
Y75550D02*
D03*
X52100Y74550D02*
D03*
Y75550D02*
D03*
X51100Y74550D02*
D03*
Y75550D02*
D03*
X50100Y74550D02*
D03*
Y75550D02*
D03*
X49100Y74550D02*
D03*
Y75550D02*
D03*
X48100Y74550D02*
D03*
X100600Y75150D02*
D03*
Y74150D02*
D03*
X101600Y75150D02*
D03*
Y74150D02*
D03*
X102600Y75150D02*
D03*
Y74150D02*
D03*
X103600Y75150D02*
D03*
Y74150D02*
D03*
X104600Y75150D02*
D03*
Y74150D02*
D03*
X105600Y75150D02*
D03*
Y74150D02*
D03*
X106600Y75150D02*
D03*
Y74150D02*
D03*
X107600Y75150D02*
D03*
X90900Y75100D02*
D03*
Y74100D02*
D03*
X91900Y75100D02*
D03*
Y74100D02*
D03*
X92900Y75100D02*
D03*
Y74100D02*
D03*
X93900Y75100D02*
D03*
Y74100D02*
D03*
X94900Y75100D02*
D03*
X95900D02*
D03*
Y74100D02*
D03*
X96900Y75100D02*
D03*
Y74100D02*
D03*
X97900Y75100D02*
D03*
X81800D02*
D03*
Y74100D02*
D03*
X82800Y75100D02*
D03*
Y74100D02*
D03*
X83800Y75100D02*
D03*
Y74100D02*
D03*
X84800Y75100D02*
D03*
Y74100D02*
D03*
X85800Y75100D02*
D03*
Y74100D02*
D03*
X86800Y75100D02*
D03*
Y74100D02*
D03*
X87800Y75100D02*
D03*
Y74100D02*
D03*
X88800Y75100D02*
D03*
D84*
X135150Y37200D02*
D03*
X136400D02*
D03*
X137650D02*
D03*
X143900D02*
D03*
Y32200D02*
D03*
X137650D02*
D03*
X136400D02*
D03*
X135150D02*
D03*
X131400D02*
D03*
Y37200D02*
D03*
X35600Y37150D02*
D03*
X36850D02*
D03*
X38100D02*
D03*
X44350D02*
D03*
Y32150D02*
D03*
X38100D02*
D03*
X36850D02*
D03*
X35600D02*
D03*
X31850D02*
D03*
Y37150D02*
D03*
X21603Y57492D02*
D03*
X26603D02*
D03*
Y61242D02*
D03*
Y62492D02*
D03*
Y63742D02*
D03*
Y69992D02*
D03*
X21603D02*
D03*
Y63742D02*
D03*
Y62492D02*
D03*
Y61242D02*
D03*
D85*
X156900Y32000D02*
D03*
Y75100D02*
D03*
X112900Y32000D02*
D03*
Y75100D02*
D03*
X68900Y32000D02*
D03*
Y75100D02*
D03*
X24900D02*
D03*
Y32000D02*
D03*
D86*
X96768Y71894D02*
D03*
X91717Y71500D02*
D03*
X106490Y71894D02*
D03*
X101439Y71500D02*
D03*
X87569Y71894D02*
D03*
X82517Y71500D02*
D03*
D87*
X143900Y51700D02*
D03*
Y66948D02*
D03*
X136400Y51700D02*
D03*
Y66948D02*
D03*
X128900Y51700D02*
D03*
Y66948D02*
D03*
X151400Y51700D02*
D03*
Y66948D02*
D03*
X106400Y51700D02*
D03*
Y66948D02*
D03*
X98900Y51700D02*
D03*
Y66948D02*
D03*
X121400Y51700D02*
D03*
Y66948D02*
D03*
X113900Y51700D02*
D03*
Y66948D02*
D03*
X76400Y51700D02*
D03*
Y66948D02*
D03*
X68900Y51700D02*
D03*
Y66948D02*
D03*
X91400Y51700D02*
D03*
Y66948D02*
D03*
X83900Y51700D02*
D03*
Y66948D02*
D03*
X46400Y51700D02*
D03*
Y66948D02*
D03*
X38900Y51700D02*
D03*
Y66948D02*
D03*
X61400Y51700D02*
D03*
Y66948D02*
D03*
X53900Y51700D02*
D03*
Y66948D02*
D03*
X77406Y32206D02*
D03*
D88*
X29600Y49000D02*
D03*
X48100Y75550D02*
D03*
X107600Y74150D02*
D03*
X97900Y74100D02*
D03*
X88800D02*
D03*
D89*
X91800Y31950D02*
D03*
Y33450D02*
D03*
X90800Y31950D02*
D03*
X89800D02*
D03*
X88800D02*
D03*
X91300Y32700D02*
D03*
X90300D02*
D03*
X89300D02*
D03*
X88300D02*
D03*
X87800Y31950D02*
D03*
X86800D02*
D03*
X85800D02*
D03*
X87300Y32700D02*
D03*
X86300D02*
D03*
X84800Y31950D02*
D03*
X85300Y32700D02*
D03*
X90800Y33450D02*
D03*
X89800D02*
D03*
X88800D02*
D03*
X91300Y34200D02*
D03*
X90300D02*
D03*
X89300D02*
D03*
X88300D02*
D03*
X87800Y33450D02*
D03*
X86800D02*
D03*
X85800D02*
D03*
X87300Y34200D02*
D03*
X86300D02*
D03*
X84800Y33450D02*
D03*
X85300Y34200D02*
D03*
X83800Y31950D02*
D03*
X82800D02*
D03*
X81800D02*
D03*
X84300Y32700D02*
D03*
X83300D02*
D03*
X82300D02*
D03*
X81300D02*
D03*
X80800Y31950D02*
D03*
X79800D02*
D03*
X78800D02*
D03*
X80300Y32700D02*
D03*
X79300D02*
D03*
X78300D02*
D03*
X83800Y33450D02*
D03*
X82800D02*
D03*
X81800D02*
D03*
X84300Y34200D02*
D03*
X83300D02*
D03*
X82300D02*
D03*
X81300D02*
D03*
X80800Y33450D02*
D03*
X79800D02*
D03*
X78800D02*
D03*
X80300Y34200D02*
D03*
X79300D02*
D03*
X78300D02*
D03*
X94800Y31950D02*
D03*
X93800D02*
D03*
X94800Y33450D02*
D03*
X94300Y32700D02*
D03*
Y34200D02*
D03*
X93300Y32700D02*
D03*
X92800Y31950D02*
D03*
X92300Y32700D02*
D03*
X93800Y33450D02*
D03*
X93300Y34200D02*
D03*
X92800Y33450D02*
D03*
X92300Y34200D02*
D03*
D90*
X76340Y33075D02*
D03*
X96760D02*
D03*
D91*
X23135Y34711D02*
D03*
Y36365D02*
D03*
Y38018D02*
D03*
Y39672D02*
D03*
Y41325D02*
D03*
Y42979D02*
D03*
Y44632D02*
D03*
Y46286D02*
D03*
Y47939D02*
D03*
Y49593D02*
D03*
Y51246D02*
D03*
Y52900D02*
D03*
X25300Y34711D02*
D03*
Y36365D02*
D03*
Y38018D02*
D03*
Y39672D02*
D03*
Y41325D02*
D03*
Y42979D02*
D03*
Y44632D02*
D03*
Y46286D02*
D03*
Y47939D02*
D03*
Y49593D02*
D03*
Y51246D02*
D03*
Y52900D02*
D03*
D92*
X91732Y37756D02*
D03*
X91732Y38189D02*
D03*
X93898Y37047D02*
D03*
X98819Y42126D02*
D03*
X72756Y73268D02*
D03*
X73780Y73228D02*
D03*
X74409Y73543D02*
D03*
X75161Y73980D02*
D03*
X96850Y46654D02*
D03*
X93307Y46457D02*
D03*
Y45669D02*
D03*
X84100Y70610D02*
D03*
X84600Y70560D02*
D03*
X85600Y70730D02*
D03*
X86100Y70680D02*
D03*
X93330Y70560D02*
D03*
X93780Y70650D02*
D03*
X94770Y70020D02*
D03*
X94799Y70499D02*
D03*
X99199Y39750D02*
D03*
X99212Y38976D02*
D03*
X99606Y44882D02*
D03*
X94094Y44094D02*
D03*
X93307Y41339D02*
D03*
X92927Y39750D02*
D03*
X99606Y43701D02*
D03*
X93898Y46142D02*
D03*
X92126Y45669D02*
D03*
X92520Y45276D02*
D03*
X92913Y42913D02*
D03*
Y42520D02*
D03*
X92913Y40551D02*
D03*
Y40157D02*
D03*
X92126Y39370D02*
D03*
X92126Y37795D02*
D03*
X100394Y37402D02*
D03*
X100000Y37795D02*
D03*
X100354Y39409D02*
D03*
X99213Y40551D02*
D03*
Y40945D02*
D03*
X99213Y42520D02*
D03*
X99213Y43307D02*
D03*
X100394Y44094D02*
D03*
X100315Y45984D02*
D03*
X94882Y44882D02*
D03*
X94488D02*
D03*
X97638Y39370D02*
D03*
X93701Y40157D02*
D03*
X94488Y39370D02*
D03*
X98425Y40157D02*
D03*
X93701Y42913D02*
D03*
X94488Y44094D02*
D03*
X97638D02*
D03*
X98425Y43307D02*
D03*
X97638Y43701D02*
D03*
X97244D02*
D03*
X96850D02*
D03*
X96457D02*
D03*
X95669D02*
D03*
X95276D02*
D03*
X94882D02*
D03*
X94488D02*
D03*
X94094D02*
D03*
X94094Y43307D02*
D03*
Y42913D02*
D03*
Y42520D02*
D03*
Y42126D02*
D03*
Y41339D02*
D03*
Y40945D02*
D03*
Y40551D02*
D03*
Y40157D02*
D03*
X94094Y39764D02*
D03*
X94488D02*
D03*
X94882D02*
D03*
X95276D02*
D03*
X95669D02*
D03*
X96457D02*
D03*
X96850D02*
D03*
X97244D02*
D03*
X97638D02*
D03*
X98032D02*
D03*
Y40157D02*
D03*
Y40551D02*
D03*
X98032Y40945D02*
D03*
X98032Y41732D02*
D03*
Y42126D02*
D03*
Y42520D02*
D03*
Y42913D02*
D03*
Y43307D02*
D03*
Y43701D02*
D03*
X96457Y44488D02*
D03*
X96850Y44882D02*
D03*
X97244Y44488D02*
D03*
X97638D02*
D03*
Y44882D02*
D03*
X99496Y46701D02*
D03*
X99882Y46220D02*
D03*
X98032Y45276D02*
D03*
Y44882D02*
D03*
X98425Y45276D02*
D03*
X98228Y47520D02*
D03*
X98346Y47244D02*
D03*
X91299Y56496D02*
D03*
X91535Y56732D02*
D03*
X91732Y56929D02*
D03*
X91929Y57126D02*
D03*
X98425Y44882D02*
D03*
X98819Y45276D02*
D03*
Y44882D02*
D03*
X99213Y45276D02*
D03*
X101890Y56378D02*
D03*
X92087Y57362D02*
D03*
X92283Y57598D02*
D03*
X92402Y57992D02*
D03*
X92709Y64574D02*
D03*
X102244Y56063D02*
D03*
X98425Y46968D02*
D03*
X102559Y55630D02*
D03*
X98898Y47008D02*
D03*
X102874Y55591D02*
D03*
X99094Y46732D02*
D03*
X103228Y55472D02*
D03*
X103583Y55315D02*
D03*
X103937D02*
D03*
X94094Y39370D02*
D03*
X93701Y38976D02*
D03*
Y39370D02*
D03*
X93307Y38583D02*
D03*
X92913Y38189D02*
D03*
X94094Y38976D02*
D03*
X94488D02*
D03*
X94882D02*
D03*
X95276D02*
D03*
X95669D02*
D03*
X93307Y38189D02*
D03*
X93701Y38583D02*
D03*
X93701Y38189D02*
D03*
X94094Y38583D02*
D03*
Y38189D02*
D03*
X94488Y38583D02*
D03*
X94882D02*
D03*
X94488Y38189D02*
D03*
X94882D02*
D03*
X95276Y38583D02*
D03*
Y38189D02*
D03*
X95669Y38583D02*
D03*
Y38189D02*
D03*
X102582Y37031D02*
D03*
X102953Y37126D02*
D03*
X103425D02*
D03*
X104016D02*
D03*
X104803Y37205D02*
D03*
X105236Y37165D02*
D03*
X109921Y37205D02*
D03*
X109343Y37178D02*
D03*
X108701Y37165D02*
D03*
X107913Y37205D02*
D03*
X107552Y37133D02*
D03*
X107165Y37165D02*
D03*
X105787D02*
D03*
X106535Y37087D02*
D03*
X92913Y38583D02*
D03*
X92520D02*
D03*
X104737Y32862D02*
D03*
X98819Y38583D02*
D03*
Y38189D02*
D03*
X98425Y38583D02*
D03*
X108575Y34378D02*
D03*
X98425Y38189D02*
D03*
X108319Y34200D02*
D03*
X98032Y38583D02*
D03*
X108063Y34023D02*
D03*
X98032Y38189D02*
D03*
X107296Y34240D02*
D03*
X97638Y38583D02*
D03*
X107040Y33984D02*
D03*
X97638Y38976D02*
D03*
X105760Y34122D02*
D03*
X97244Y38583D02*
D03*
X105504Y33826D02*
D03*
X97244Y38976D02*
D03*
X104481Y32567D02*
D03*
X96457Y39370D02*
D03*
X104225Y32389D02*
D03*
X96457Y38583D02*
D03*
X103969Y32252D02*
D03*
X96063Y38189D02*
D03*
X102945Y32173D02*
D03*
X96457Y38976D02*
D03*
X110157Y32165D02*
D03*
X96850Y36181D02*
D03*
X109961Y36772D02*
D03*
X97992Y38976D02*
D03*
X110000Y36457D02*
D03*
X96850Y38976D02*
D03*
X110213Y33960D02*
D03*
X108831Y33910D02*
D03*
X110213Y33448D02*
D03*
X96850Y39370D02*
D03*
Y38583D02*
D03*
X97638Y38189D02*
D03*
X109213Y34685D02*
D03*
X109528Y34331D02*
D03*
X110079Y34213D02*
D03*
X109882Y35315D02*
D03*
X97244Y39370D02*
D03*
X108780Y36024D02*
D03*
X98819Y38976D02*
D03*
X98425D02*
D03*
X111322Y36519D02*
D03*
X111414Y36263D02*
D03*
X111374Y35752D02*
D03*
X111378Y35079D02*
D03*
X111260Y34724D02*
D03*
X111339Y34370D02*
D03*
X111417Y33425D02*
D03*
X110363Y31409D02*
D03*
X109331Y30827D02*
D03*
X109087Y32000D02*
D03*
X107807Y31956D02*
D03*
X107552Y30859D02*
D03*
X106772Y30866D02*
D03*
X106016Y32015D02*
D03*
X106227Y30860D02*
D03*
X105248Y30878D02*
D03*
X105039Y31969D02*
D03*
X103713Y30815D02*
D03*
X103344Y31966D02*
D03*
X102410Y31409D02*
D03*
X102634Y34728D02*
D03*
X101443Y34344D02*
D03*
X99606Y45276D02*
D03*
X99606Y45669D02*
D03*
X64488Y71181D02*
D03*
X100000Y45669D02*
D03*
X64055Y71457D02*
D03*
X100394Y45276D02*
D03*
X63543Y73622D02*
D03*
X92323Y46496D02*
D03*
X73858Y68937D02*
D03*
X92126Y45276D02*
D03*
X100905Y37992D02*
D03*
X77086Y68149D02*
D03*
X99606Y37795D02*
D03*
X75512Y67913D02*
D03*
X72602Y68583D02*
D03*
X74165Y68260D02*
D03*
X75715Y68353D02*
D03*
X96850Y44094D02*
D03*
X98819Y44488D02*
D03*
X98425D02*
D03*
X96457Y38189D02*
D03*
X96850Y38189D02*
D03*
X96063Y38583D02*
D03*
X73622Y67913D02*
D03*
X74094Y72008D02*
D03*
X85039Y66063D02*
D03*
X87244Y44331D02*
D03*
X87480Y43465D02*
D03*
X92913Y39370D02*
D03*
X98425D02*
D03*
X98032D02*
D03*
X96063Y38976D02*
D03*
Y44882D02*
D03*
X92126Y44094D02*
D03*
X92520D02*
D03*
X91220Y44449D02*
D03*
X91181Y44094D02*
D03*
X91339Y37913D02*
D03*
X91063Y37992D02*
D03*
X99213Y44882D02*
D03*
X100000Y45276D02*
D03*
X101457Y44764D02*
D03*
X99213Y38189D02*
D03*
X99606Y38583D02*
D03*
X101299Y38031D02*
D03*
X98425Y40945D02*
D03*
X98228Y37362D02*
D03*
X98543Y36181D02*
D03*
X92520Y38189D02*
D03*
X92126D02*
D03*
X92520Y43307D02*
D03*
X91772Y44055D02*
D03*
X99606Y39764D02*
D03*
Y39370D02*
D03*
X101063Y39252D02*
D03*
X100748Y39449D02*
D03*
X100000Y44094D02*
D03*
X99606Y44094D02*
D03*
X100709Y43937D02*
D03*
X101142Y44094D02*
D03*
X92874Y46102D02*
D03*
X92913Y45276D02*
D03*
X93307D02*
D03*
X92913Y44882D02*
D03*
X89409Y48661D02*
D03*
X95669Y45276D02*
D03*
X86535Y48898D02*
D03*
X89252Y50906D02*
D03*
X98228Y46181D02*
D03*
X97638Y45276D02*
D03*
X96850D02*
D03*
X97008Y47795D02*
D03*
X97244Y47205D02*
D03*
X97047Y46968D02*
D03*
X96614Y65591D02*
D03*
X96890Y64764D02*
D03*
X71220Y68071D02*
D03*
X69764Y71102D02*
D03*
X95669Y39370D02*
D03*
X116378Y68740D02*
D03*
X124488Y68701D02*
D03*
X96456Y45276D02*
D03*
X96457Y45669D02*
D03*
X97126Y53543D02*
D03*
X97086Y60000D02*
D03*
X97126Y53898D02*
D03*
Y59094D02*
D03*
D93*
X102521Y72324D02*
D03*
X104021Y72289D02*
D03*
X105521Y72353D02*
D03*
X92799Y72280D02*
D03*
X94291Y72323D02*
D03*
X95799Y72295D02*
D03*
X86614Y72283D02*
D03*
X85118D02*
D03*
X83622D02*
D03*
X103021Y70589D02*
D03*
X103521Y70581D02*
D03*
X104521Y70591D02*
D03*
X105030Y70650D02*
D03*
X39607Y64074D02*
D03*
X39590Y63074D02*
D03*
X37436Y62574D02*
D03*
X39586Y62047D02*
D03*
X37421Y61575D02*
D03*
X39626Y61063D02*
D03*
X37382Y60551D02*
D03*
X39586Y60079D02*
D03*
X37382Y59567D02*
D03*
X39567Y59074D02*
D03*
X37382Y58583D02*
D03*
X47107Y64074D02*
D03*
X47090Y63074D02*
D03*
X44936Y62574D02*
D03*
X47086Y62047D02*
D03*
X44921Y61575D02*
D03*
X47126Y61063D02*
D03*
X44882Y60551D02*
D03*
X47086Y60079D02*
D03*
X44882Y59567D02*
D03*
X47067Y59074D02*
D03*
X44882Y58583D02*
D03*
X54607Y64074D02*
D03*
X54590Y63074D02*
D03*
X52436Y62574D02*
D03*
X54586Y62047D02*
D03*
X52421Y61575D02*
D03*
X54626Y61063D02*
D03*
X52382Y60551D02*
D03*
X54586Y60079D02*
D03*
X52382Y59567D02*
D03*
X54567Y59074D02*
D03*
X52382Y58583D02*
D03*
X62107Y64074D02*
D03*
X62090Y63074D02*
D03*
X59936Y62574D02*
D03*
X62086Y62047D02*
D03*
X59921Y61575D02*
D03*
X62126Y61063D02*
D03*
X59882Y60551D02*
D03*
X62086Y60079D02*
D03*
X59882Y59567D02*
D03*
X62067Y59074D02*
D03*
X59882Y58583D02*
D03*
X69607Y64074D02*
D03*
X69590Y63074D02*
D03*
X67436Y62574D02*
D03*
X69586Y62047D02*
D03*
X67421Y61575D02*
D03*
X69626Y61063D02*
D03*
X67382Y60551D02*
D03*
X69586Y60079D02*
D03*
X67382Y59567D02*
D03*
X69567Y59074D02*
D03*
X67382Y58583D02*
D03*
X77107Y64074D02*
D03*
X77090Y63074D02*
D03*
X74936Y62574D02*
D03*
X77086Y62047D02*
D03*
X74921Y61575D02*
D03*
X77126Y61063D02*
D03*
X74882Y60551D02*
D03*
X77086Y60079D02*
D03*
X74882Y59567D02*
D03*
X77067Y59074D02*
D03*
X74882Y58583D02*
D03*
X84644Y64016D02*
D03*
X84627Y63016D02*
D03*
X82473Y62516D02*
D03*
X84623Y61989D02*
D03*
X82458Y61516D02*
D03*
X84663Y61004D02*
D03*
X82419Y60493D02*
D03*
X84623Y60020D02*
D03*
X82419Y59508D02*
D03*
X84604Y59016D02*
D03*
X82419Y58524D02*
D03*
X92107Y64074D02*
D03*
X92090Y63074D02*
D03*
X89936Y62574D02*
D03*
X92086Y62047D02*
D03*
X89921Y61575D02*
D03*
X92126Y61063D02*
D03*
X89882Y60551D02*
D03*
X92086Y60079D02*
D03*
X89882Y59567D02*
D03*
X92067Y59074D02*
D03*
X89882Y58583D02*
D03*
X99607Y64074D02*
D03*
X99590Y63074D02*
D03*
X97436Y62574D02*
D03*
X99586Y62047D02*
D03*
X97421Y61575D02*
D03*
X99626Y61063D02*
D03*
X97382Y60551D02*
D03*
X99586Y60079D02*
D03*
X97382Y59567D02*
D03*
X99567Y59074D02*
D03*
X97382Y58583D02*
D03*
X152107Y64074D02*
D03*
X152090Y63074D02*
D03*
X149936Y62574D02*
D03*
X152086Y62047D02*
D03*
X149921Y61575D02*
D03*
X152126Y61063D02*
D03*
X149882Y60551D02*
D03*
X152086Y60079D02*
D03*
X149882Y59567D02*
D03*
X152067Y59074D02*
D03*
X149882Y58583D02*
D03*
X144607Y64074D02*
D03*
X144590Y63074D02*
D03*
X142436Y62574D02*
D03*
X144586Y62047D02*
D03*
X142421Y61575D02*
D03*
X144626Y61063D02*
D03*
X142382Y60551D02*
D03*
X144586Y60079D02*
D03*
X142382Y59567D02*
D03*
X144567Y59074D02*
D03*
X142382Y58583D02*
D03*
X137107Y64074D02*
D03*
X137090Y63074D02*
D03*
X134936Y62574D02*
D03*
X137086Y62047D02*
D03*
X134921Y61575D02*
D03*
X137126Y61063D02*
D03*
X134882Y60551D02*
D03*
X137086Y60079D02*
D03*
X134882Y59567D02*
D03*
X137067Y59074D02*
D03*
X134882Y58583D02*
D03*
X129607Y64074D02*
D03*
X129590Y63074D02*
D03*
X127436Y62574D02*
D03*
X129586Y62047D02*
D03*
X127421Y61575D02*
D03*
X129626Y61063D02*
D03*
X127382Y60551D02*
D03*
X129586Y60079D02*
D03*
X127382Y59567D02*
D03*
X129567Y59074D02*
D03*
X127382Y58583D02*
D03*
X122163Y64055D02*
D03*
X122146Y63055D02*
D03*
X119993Y62555D02*
D03*
X122143Y62028D02*
D03*
X119978Y61556D02*
D03*
X122182Y61044D02*
D03*
X119938Y60532D02*
D03*
X122143Y60060D02*
D03*
X119938Y59548D02*
D03*
X122124Y59055D02*
D03*
X119938Y58564D02*
D03*
X114607Y64074D02*
D03*
X114590Y63074D02*
D03*
X112436Y62574D02*
D03*
X114586Y62047D02*
D03*
X112421Y61575D02*
D03*
X114626Y61063D02*
D03*
X112382Y60551D02*
D03*
X114586Y60079D02*
D03*
X112382Y59567D02*
D03*
X114567Y59074D02*
D03*
X112382Y58583D02*
D03*
X104882D02*
D03*
X107067Y59074D02*
D03*
X104882Y59567D02*
D03*
X107086Y60079D02*
D03*
X104882Y60551D02*
D03*
X107126Y61063D02*
D03*
X104921Y61575D02*
D03*
X107086Y62047D02*
D03*
X104936Y62574D02*
D03*
X107090Y63074D02*
D03*
X107107Y64074D02*
D03*
X36940Y64184D02*
D03*
X43504Y65000D02*
D03*
X49000Y57819D02*
D03*
X49016Y61457D02*
D03*
X56516D02*
D03*
X56500Y57819D02*
D03*
X51004Y65000D02*
D03*
X64016Y61457D02*
D03*
X64000Y57819D02*
D03*
X58504Y65000D02*
D03*
X71516Y61457D02*
D03*
X71500Y57819D02*
D03*
X66004Y65000D02*
D03*
X79016Y61457D02*
D03*
X79000Y57819D02*
D03*
X73504Y65000D02*
D03*
X86516Y61457D02*
D03*
X85748Y58268D02*
D03*
X88504Y65000D02*
D03*
X101535Y61338D02*
D03*
X101456Y62992D02*
D03*
Y64960D02*
D03*
Y57835D02*
D03*
X103464Y57795D02*
D03*
X110964D02*
D03*
X108956Y57835D02*
D03*
Y64960D02*
D03*
Y62992D02*
D03*
X109035Y61338D02*
D03*
X118464Y57795D02*
D03*
X116456Y57835D02*
D03*
Y64960D02*
D03*
Y62992D02*
D03*
X116535Y61338D02*
D03*
X125964Y57795D02*
D03*
X123956Y57835D02*
D03*
Y64960D02*
D03*
Y62992D02*
D03*
X124035Y61338D02*
D03*
X133464Y57795D02*
D03*
X131456Y57835D02*
D03*
Y64960D02*
D03*
Y62992D02*
D03*
X131535Y61338D02*
D03*
X140964Y57795D02*
D03*
X138956Y57835D02*
D03*
Y64960D02*
D03*
Y62992D02*
D03*
X139035Y61338D02*
D03*
X148464Y57795D02*
D03*
X146456Y57835D02*
D03*
Y64960D02*
D03*
Y62992D02*
D03*
X146535Y61338D02*
D03*
X154000Y62977D02*
D03*
Y64984D02*
D03*
X153976Y59803D02*
D03*
X154015Y57795D02*
D03*
X52992Y35827D02*
D03*
X54792D02*
D03*
X55692D02*
D03*
X56592D02*
D03*
X53892D02*
D03*
X56592Y34927D02*
D03*
X55692D02*
D03*
X54792D02*
D03*
X53892D02*
D03*
X52992D02*
D03*
X56592Y34027D02*
D03*
X55692D02*
D03*
X54792D02*
D03*
X53892D02*
D03*
X52992D02*
D03*
X56592Y33127D02*
D03*
X55692D02*
D03*
X54792D02*
D03*
X53892D02*
D03*
X52992D02*
D03*
X56592Y32227D02*
D03*
X55692D02*
D03*
X54792D02*
D03*
X53892D02*
D03*
X52992D02*
D03*
X60550Y32127D02*
D03*
X61654Y33504D02*
D03*
X61693Y34173D02*
D03*
X61725Y34810D02*
D03*
X63340D02*
D03*
X60039Y35984D02*
D03*
X61683Y36250D02*
D03*
X63222Y35951D02*
D03*
X62480Y32126D02*
D03*
X34178Y73230D02*
D03*
X31494Y74089D02*
D03*
Y72475D02*
D03*
X32131Y72442D02*
D03*
X32800Y72403D02*
D03*
X34177Y71299D02*
D03*
X34077Y63741D02*
D03*
Y64641D02*
D03*
Y65541D02*
D03*
Y66441D02*
D03*
Y67341D02*
D03*
X33177Y63741D02*
D03*
Y64641D02*
D03*
Y65541D02*
D03*
Y66441D02*
D03*
Y67341D02*
D03*
X32277Y63741D02*
D03*
Y64641D02*
D03*
Y65541D02*
D03*
Y66441D02*
D03*
Y67341D02*
D03*
X31377Y63741D02*
D03*
Y64641D02*
D03*
Y65541D02*
D03*
Y66441D02*
D03*
Y67341D02*
D03*
X30477Y64641D02*
D03*
Y67341D02*
D03*
Y66441D02*
D03*
Y65541D02*
D03*
Y63741D02*
D03*
X30669Y74331D02*
D03*
X30197Y71378D02*
D03*
X29650Y72603D02*
D03*
X29222Y59163D02*
D03*
X29252Y57441D02*
D03*
X33110Y57480D02*
D03*
X33189Y59094D02*
D03*
X31811Y40945D02*
D03*
X31850Y42638D02*
D03*
X35787Y40866D02*
D03*
Y42717D02*
D03*
X41500Y61382D02*
D03*
X41496Y57795D02*
D03*
X35984Y61339D02*
D03*
Y57756D02*
D03*
X35157Y62205D02*
D03*
X129082Y34500D02*
D03*
X122638Y34527D02*
D03*
X123937Y33661D02*
D03*
X112750Y33588D02*
D03*
X112716Y37244D02*
D03*
X101338Y31260D02*
D03*
X97756Y31339D02*
D03*
X83740Y35984D02*
D03*
X80079D02*
D03*
X83701Y43898D02*
D03*
X87638D02*
D03*
X103189Y43543D02*
D03*
X106732Y43976D02*
D03*
X102323Y45787D02*
D03*
X102480Y49252D02*
D03*
X86102Y45551D02*
D03*
X82598Y45590D02*
D03*
X81023Y65039D02*
D03*
D94*
X152165Y56063D02*
D03*
X149843Y54567D02*
D03*
X149921Y53071D02*
D03*
X142323Y56063D02*
D03*
X142330Y54574D02*
D03*
X142365Y53074D02*
D03*
X137165Y56063D02*
D03*
X134843Y54567D02*
D03*
X134803Y52874D02*
D03*
X129646Y56063D02*
D03*
X127316Y54574D02*
D03*
X127405Y53074D02*
D03*
X122154Y56074D02*
D03*
X119882Y54606D02*
D03*
X119843Y52913D02*
D03*
X114724Y56102D02*
D03*
X112409Y54574D02*
D03*
X112362Y52717D02*
D03*
X99764Y56063D02*
D03*
X97330Y54574D02*
D03*
X99688Y53074D02*
D03*
X89567Y56063D02*
D03*
X89843Y54567D02*
D03*
X90512Y52598D02*
D03*
X84685Y56063D02*
D03*
X82330Y54574D02*
D03*
X84649Y53074D02*
D03*
X77283Y56102D02*
D03*
X74921Y54567D02*
D03*
X77205Y53071D02*
D03*
X69724Y56063D02*
D03*
X67369Y54574D02*
D03*
X67359Y53074D02*
D03*
X62205Y56063D02*
D03*
X59882Y54606D02*
D03*
X62283Y53071D02*
D03*
X54724Y56063D02*
D03*
X52330Y54574D02*
D03*
X54721Y53074D02*
D03*
X47126Y56063D02*
D03*
X44843Y54567D02*
D03*
X47168Y53074D02*
D03*
X39685Y56063D02*
D03*
X37362Y54567D02*
D03*
X39682Y53074D02*
D03*
X107165Y56063D02*
D03*
X104843Y54567D02*
D03*
X105433Y52559D02*
D03*
D95*
X74882Y75079D02*
D03*
X74277Y75054D02*
D03*
X72520Y74252D02*
D03*
X71338Y73976D02*
D03*
X72990Y70392D02*
D03*
X71929Y70748D02*
D03*
X77126Y72716D02*
D03*
X77165Y73622D02*
D03*
X75791Y74295D02*
D03*
X73504Y73897D02*
D03*
X78050Y72617D02*
D03*
X79094Y74212D02*
D03*
X75039Y74331D02*
D03*
X65777Y72115D02*
D03*
X75397Y74925D02*
D03*
X63071Y71496D02*
D03*
D96*
X93988Y41750D02*
D03*
X93477D02*
D03*
X95062Y43300D02*
D03*
X95573D02*
D03*
X91944Y43650D02*
D03*
X92456D02*
D03*
X99023Y43750D02*
D03*
X98512D02*
D03*
X98923Y39750D02*
D03*
X98412D02*
D03*
X100056Y39050D02*
D03*
X99544D02*
D03*
X94973Y45250D02*
D03*
X94462D02*
D03*
X92556Y39700D02*
D03*
X92044D02*
D03*
X96527Y40100D02*
D03*
X97038D02*
D03*
X94944Y40150D02*
D03*
X95456D02*
D03*
X97123Y43300D02*
D03*
X96612D02*
D03*
X103856Y31400D02*
D03*
X103344D02*
D03*
X108862Y37800D02*
D03*
X109373D02*
D03*
X109062Y31400D02*
D03*
X109573D02*
D03*
X106738D02*
D03*
X106227D02*
D03*
X104944D02*
D03*
X105456D02*
D03*
X104056Y37400D02*
D03*
X103544D02*
D03*
X74277Y74750D02*
D03*
X74788D02*
D03*
X72377Y70750D02*
D03*
X72888D02*
D03*
X101056Y44450D02*
D03*
X100544D02*
D03*
X92006Y38500D02*
D03*
X91494D02*
D03*
X93456Y44500D02*
D03*
X92944D02*
D03*
X99756Y44450D02*
D03*
X99244D02*
D03*
X100044Y44900D02*
D03*
X100556D02*
D03*
X100506Y38550D02*
D03*
X99994D02*
D03*
X99644Y38150D02*
D03*
X100156D02*
D03*
X92444Y45700D02*
D03*
X92956D02*
D03*
X61173Y36250D02*
D03*
X60662D02*
D03*
X93738Y39750D02*
D03*
X93227D02*
D03*
X94844Y39350D02*
D03*
X95356D02*
D03*
X106573Y37600D02*
D03*
X106062D02*
D03*
D97*
X93750Y44023D02*
D03*
Y43512D02*
D03*
X98250Y36806D02*
D03*
Y36294D02*
D03*
X99550Y40612D02*
D03*
Y41123D02*
D03*
X97650Y42844D02*
D03*
Y43356D02*
D03*
X98800Y42577D02*
D03*
Y43088D02*
D03*
X93300Y42377D02*
D03*
Y42888D02*
D03*
X92550Y40656D02*
D03*
Y40144D02*
D03*
X97650Y42373D02*
D03*
Y41862D02*
D03*
X94500Y40773D02*
D03*
Y40262D02*
D03*
X97650Y41273D02*
D03*
Y40762D02*
D03*
X96050Y39627D02*
D03*
Y40138D02*
D03*
Y43294D02*
D03*
Y43806D02*
D03*
X102000Y34856D02*
D03*
Y34344D02*
D03*
X110800Y36538D02*
D03*
Y36027D02*
D03*
Y34344D02*
D03*
Y34856D02*
D03*
X76800Y73027D02*
D03*
Y73538D02*
D03*
X71900Y74373D02*
D03*
Y73862D02*
D03*
X92600Y37294D02*
D03*
Y37806D02*
D03*
X93700Y45244D02*
D03*
Y45756D02*
D03*
X92700Y46444D02*
D03*
Y46956D02*
D03*
X29650Y72123D02*
D03*
Y71612D02*
D03*
X94500Y43138D02*
D03*
Y42627D02*
D03*
D98*
X95799Y71500D02*
D03*
X95299D02*
D03*
X94799D02*
D03*
X94299D02*
D03*
X93799D02*
D03*
X93299D02*
D03*
X92799D02*
D03*
X105521D02*
D03*
X105021D02*
D03*
X104521D02*
D03*
X104021D02*
D03*
X103521D02*
D03*
X103021D02*
D03*
X102521D02*
D03*
X86600D02*
D03*
X86100D02*
D03*
X85600D02*
D03*
X85100D02*
D03*
X84600D02*
D03*
X84100D02*
D03*
X83600D02*
D03*
M02*
