%FSLAX23Y23*%
%MOIN*%
G70*
G01*
G75*
G04 Layer_Physical_Order=8*
G04 Layer_Color=16711680*
G36*
X4086Y5998D02*
X3931Y5843D01*
X3929Y5840D01*
X3928Y5837D01*
Y5663D01*
X3925Y5661D01*
X3922Y5656D01*
X3921Y5650D01*
X3922Y5643D01*
X3925Y5638D01*
X3931Y5635D01*
X3937Y5633D01*
X3943Y5635D01*
X3949Y5638D01*
X3952Y5643D01*
X3953Y5650D01*
X3952Y5656D01*
X3949Y5661D01*
X3946Y5663D01*
Y5833D01*
X3952Y5838D01*
X3957Y5836D01*
Y5748D01*
X3958Y5745D01*
X3960Y5742D01*
X3967Y5734D01*
Y5702D01*
X3965Y5701D01*
X3961Y5695D01*
X3960Y5689D01*
X3961Y5683D01*
X3965Y5677D01*
X3970Y5674D01*
X3976Y5673D01*
X3983Y5674D01*
X3988Y5677D01*
X3991Y5683D01*
X3993Y5689D01*
X3991Y5695D01*
X3988Y5701D01*
X3986Y5702D01*
Y5738D01*
X3985Y5741D01*
X3985Y5742D01*
X3983Y5745D01*
X3976Y5752D01*
Y5777D01*
X3981Y5779D01*
X4007Y5754D01*
Y5663D01*
X4004Y5661D01*
X4001Y5656D01*
X3999Y5650D01*
X4001Y5643D01*
X4004Y5638D01*
X4010Y5635D01*
X4016Y5633D01*
X4018Y5634D01*
X4020Y5631D01*
X4016Y5627D01*
X4016Y5627D01*
X4010Y5625D01*
X4004Y5622D01*
X4001Y5616D01*
X3999Y5610D01*
X4001Y5604D01*
X4004Y5599D01*
X4010Y5595D01*
X4016Y5594D01*
X4022Y5595D01*
X4027Y5599D01*
X4031Y5604D01*
X4032Y5610D01*
X4032Y5610D01*
X4037Y5614D01*
X4039Y5613D01*
X4039Y5610D01*
X4040Y5604D01*
X4044Y5599D01*
X4049Y5595D01*
X4055Y5594D01*
X4061Y5595D01*
X4067Y5599D01*
X4070Y5604D01*
X4071Y5610D01*
X4071Y5610D01*
X4076Y5614D01*
X4079Y5613D01*
X4078Y5610D01*
X4079Y5604D01*
X4083Y5599D01*
X4088Y5595D01*
X4094Y5594D01*
X4101Y5595D01*
X4106Y5599D01*
X4110Y5604D01*
X4111Y5610D01*
X4110Y5616D01*
X4106Y5622D01*
X4101Y5625D01*
X4094Y5627D01*
X4088Y5625D01*
X4083Y5626D01*
X4083D01*
X4083Y5626D01*
X4084Y5630D01*
Y5631D01*
X4089Y5634D01*
X4094Y5633D01*
X4101Y5635D01*
X4106Y5638D01*
X4110Y5643D01*
X4111Y5650D01*
X4110Y5656D01*
X4106Y5661D01*
X4101Y5665D01*
X4094Y5666D01*
X4089Y5665D01*
X4084Y5669D01*
Y5734D01*
X4138Y5788D01*
X4183D01*
X4185Y5783D01*
X4147Y5745D01*
X4145Y5742D01*
X4144Y5738D01*
Y5669D01*
X4140Y5665D01*
X4134Y5666D01*
X4128Y5665D01*
X4122Y5661D01*
X4119Y5656D01*
X4118Y5650D01*
X4119Y5643D01*
X4122Y5638D01*
X4128Y5635D01*
X4134Y5633D01*
X4140Y5634D01*
X4142Y5633D01*
Y5627D01*
X4140Y5625D01*
X4134Y5627D01*
X4128Y5625D01*
X4122Y5622D01*
X4119Y5616D01*
X4118Y5610D01*
X4119Y5604D01*
X4122Y5599D01*
X4128Y5595D01*
X4134Y5594D01*
X4136Y5594D01*
X4138Y5592D01*
X4134Y5587D01*
X4134Y5587D01*
X4128Y5586D01*
X4122Y5582D01*
X4119Y5577D01*
X4118Y5571D01*
X4119Y5565D01*
X4122Y5559D01*
X4128Y5556D01*
X4134Y5555D01*
X4140Y5556D01*
X4145Y5559D01*
X4149Y5565D01*
X4150Y5571D01*
X4150Y5574D01*
X4160Y5584D01*
X4162Y5587D01*
X4163Y5591D01*
Y5591D01*
X4167Y5595D01*
X4173Y5594D01*
X4179Y5595D01*
X4185Y5599D01*
X4188Y5604D01*
X4190Y5610D01*
X4188Y5616D01*
X4185Y5622D01*
X4179Y5625D01*
X4173Y5627D01*
X4167Y5625D01*
X4163Y5629D01*
Y5631D01*
X4167Y5634D01*
X4173Y5633D01*
X4179Y5635D01*
X4185Y5638D01*
X4188Y5643D01*
X4190Y5650D01*
X4188Y5656D01*
X4185Y5661D01*
X4179Y5665D01*
X4173Y5666D01*
X4167Y5665D01*
X4163Y5669D01*
Y5734D01*
X4197Y5768D01*
X4233D01*
X4235Y5763D01*
X4231Y5760D01*
X4227Y5754D01*
X4226Y5748D01*
X4227Y5742D01*
X4231Y5736D01*
X4236Y5733D01*
X4242Y5732D01*
X4248Y5733D01*
X4254Y5736D01*
X4257Y5742D01*
X4258Y5748D01*
X4257Y5754D01*
X4254Y5760D01*
X4249Y5763D01*
X4251Y5768D01*
X4273D01*
X4275Y5763D01*
X4270Y5760D01*
X4266Y5754D01*
X4265Y5748D01*
X4266Y5742D01*
X4270Y5736D01*
X4275Y5733D01*
X4281Y5732D01*
X4288Y5733D01*
X4293Y5736D01*
X4295Y5739D01*
X4356D01*
X4459Y5636D01*
Y4901D01*
X4455Y4897D01*
X4449Y4898D01*
X4443Y4897D01*
X4437Y4893D01*
X4434Y4888D01*
X4433Y4882D01*
X4434Y4876D01*
X4437Y4870D01*
X4440Y4869D01*
Y4852D01*
X4440Y4849D01*
X4442Y4846D01*
X4479Y4809D01*
Y4743D01*
X4474Y4740D01*
X4469Y4741D01*
X4462Y4739D01*
X4457Y4736D01*
X4453Y4731D01*
X4452Y4724D01*
X4453Y4718D01*
X4457Y4713D01*
X4462Y4709D01*
X4469Y4708D01*
X4474Y4709D01*
X4479Y4705D01*
Y4656D01*
X4480Y4652D01*
X4482Y4649D01*
X4902Y4229D01*
Y4204D01*
X4896Y4202D01*
X4291Y4807D01*
Y4980D01*
X4290Y4984D01*
X4288Y4987D01*
X4265Y5010D01*
X4267Y5013D01*
X4268Y5020D01*
X4267Y5026D01*
X4264Y5031D01*
X4258Y5035D01*
X4252Y5036D01*
X4246Y5035D01*
X4240Y5031D01*
X4237Y5026D01*
X4236Y5020D01*
X4237Y5013D01*
X4240Y5008D01*
X4244Y5006D01*
X4245Y5003D01*
X4245Y5003D01*
X4248Y5001D01*
X4246Y4995D01*
X4246Y4995D01*
X4240Y4992D01*
X4237Y4987D01*
X4236Y4980D01*
X4237Y4974D01*
X4240Y4969D01*
X4246Y4965D01*
X4252Y4964D01*
X4258Y4965D01*
X4264Y4969D01*
X4267Y4973D01*
X4272Y4972D01*
Y4950D01*
X4267Y4948D01*
X4264Y4952D01*
X4258Y4956D01*
X4252Y4957D01*
X4246Y4956D01*
X4240Y4952D01*
X4237Y4947D01*
X4236Y4941D01*
X4237Y4935D01*
X4240Y4929D01*
X4246Y4926D01*
X4252Y4925D01*
X4258Y4926D01*
X4264Y4929D01*
X4267Y4934D01*
X4272Y4932D01*
Y4803D01*
X4273Y4800D01*
X4275Y4797D01*
X4902Y4170D01*
Y4165D01*
X4896Y4162D01*
X4258Y4800D01*
X4255Y4802D01*
X4252Y4802D01*
X4167D01*
X4111Y4859D01*
X4108Y4861D01*
X4104Y4862D01*
X4078D01*
X4076Y4864D01*
X4071Y4867D01*
X4065Y4869D01*
X4059Y4867D01*
X4053Y4864D01*
X4050Y4859D01*
X4045Y4861D01*
Y4996D01*
X4052Y5004D01*
X4055Y5003D01*
X4061Y5005D01*
X4067Y5008D01*
X4070Y5013D01*
X4071Y5020D01*
X4070Y5026D01*
X4067Y5031D01*
X4061Y5035D01*
X4055Y5036D01*
X4049Y5035D01*
X4044Y5031D01*
X4040Y5026D01*
X4039Y5020D01*
X4039Y5017D01*
X4029Y5006D01*
X4027Y5004D01*
X4026Y5000D01*
Y4833D01*
X4027Y4829D01*
X4029Y4826D01*
X4088Y4767D01*
X4091Y4765D01*
X4092Y4765D01*
X4094Y4764D01*
X4238D01*
X4902Y4101D01*
Y3789D01*
X4610D01*
X3986Y4413D01*
Y4928D01*
X3988Y4929D01*
X3991Y4935D01*
X3993Y4941D01*
X3991Y4947D01*
X3988Y4952D01*
X3983Y4956D01*
X3976Y4957D01*
X3970Y4956D01*
X3965Y4952D01*
X3961Y4947D01*
X3960Y4941D01*
X3961Y4935D01*
X3965Y4929D01*
X3967Y4928D01*
Y4409D01*
X3968Y4406D01*
X3970Y4403D01*
X4600Y3773D01*
X4603Y3771D01*
X4606Y3770D01*
X4902D01*
Y3671D01*
X4640D01*
X4278Y4033D01*
X4278Y4035D01*
X4277Y4042D01*
X4273Y4047D01*
X4268Y4051D01*
X4262Y4052D01*
X4256Y4051D01*
X4250Y4047D01*
X4247Y4042D01*
X4245Y4035D01*
X4247Y4029D01*
X4250Y4024D01*
X4256Y4020D01*
X4262Y4019D01*
X4265Y4020D01*
X4629Y3655D01*
X4632Y3653D01*
X4636Y3652D01*
X4902D01*
Y3553D01*
X4008D01*
X4004Y3558D01*
X4005Y3560D01*
X4003Y3568D01*
X3998Y3575D01*
X3991Y3580D01*
X3983Y3581D01*
X3975Y3580D01*
X3968Y3575D01*
X3963Y3568D01*
X3962Y3560D01*
X3962Y3558D01*
X3958Y3553D01*
X3650D01*
X3646Y3558D01*
X3646Y3560D01*
X3645Y3568D01*
X3640Y3575D01*
X3633Y3580D01*
X3625Y3581D01*
X3617Y3580D01*
X3610Y3575D01*
X3605Y3568D01*
X3604Y3560D01*
X3604Y3558D01*
X3600Y3553D01*
X2382D01*
Y6004D01*
X2426D01*
X2429Y5999D01*
X2428Y5996D01*
X2426Y5982D01*
X2428Y5968D01*
X2433Y5955D01*
X2442Y5944D01*
X2453Y5935D01*
X2466Y5930D01*
X2480Y5928D01*
X2494Y5930D01*
X2507Y5935D01*
X2518Y5944D01*
X2527Y5955D01*
X2532Y5968D01*
X2534Y5982D01*
X2532Y5996D01*
X2531Y5999D01*
X2534Y6004D01*
X4015D01*
X4017Y5998D01*
X3891Y5873D01*
X3889Y5870D01*
X3888Y5866D01*
Y5663D01*
X3886Y5661D01*
X3883Y5656D01*
X3881Y5650D01*
X3883Y5643D01*
X3886Y5638D01*
X3890Y5636D01*
X3890Y5635D01*
D01*
X3890Y5635D01*
D01*
X3890Y5635D01*
X3888Y5630D01*
D01*
D01*
X3888Y5630D01*
X3872D01*
Y5641D01*
X3873Y5643D01*
X3875Y5650D01*
X3873Y5656D01*
X3870Y5661D01*
X3865Y5665D01*
X3858Y5666D01*
X3852Y5665D01*
X3847Y5661D01*
X3843Y5656D01*
X3842Y5650D01*
X3843Y5643D01*
X3845Y5641D01*
Y5630D01*
X3842Y5630D01*
X3842D01*
D01*
D01*
D01*
X3842D01*
X3842D01*
X3840D01*
X3838D01*
X3838Y5630D01*
X3838Y5630D01*
Y5630D01*
X3832D01*
Y5641D01*
X3834Y5643D01*
X3835Y5650D01*
X3834Y5656D01*
X3830Y5661D01*
X3825Y5665D01*
X3819Y5666D01*
X3813Y5665D01*
X3807Y5661D01*
X3804Y5656D01*
X3803Y5650D01*
X3804Y5643D01*
X3806Y5641D01*
Y5630D01*
X3791D01*
Y5590D01*
X3838D01*
Y5590D01*
X3842D01*
X3842Y5590D01*
Y5590D01*
X3842D01*
X3842D01*
Y5590D01*
X3889D01*
Y5629D01*
X3889D01*
Y5630D01*
D01*
D01*
X3889D01*
Y5630D01*
D01*
X3890Y5632D01*
X3894Y5634D01*
X3898Y5633D01*
X3904Y5635D01*
X3909Y5638D01*
X3913Y5643D01*
X3914Y5650D01*
X3913Y5656D01*
X3909Y5661D01*
X3907Y5663D01*
Y5862D01*
X4048Y6004D01*
X4084D01*
X4086Y5998D02*
G37*
%LPC*%
G36*
X2621Y4806D02*
X2566D01*
Y4754D01*
X2621D01*
Y4766D01*
X2626Y4770D01*
X2630Y4769D01*
X2636Y4770D01*
X2642Y4773D01*
X2645Y4779D01*
X2646Y4785D01*
X2645Y4791D01*
X2642Y4797D01*
X2636Y4800D01*
X2630Y4801D01*
X2626Y4800D01*
X2621Y4804D01*
Y4806D02*
G37*
G36*
X2554D02*
X2499D01*
Y4788D01*
X2489D01*
X2486Y4790D01*
X2480Y4791D01*
X2474Y4790D01*
X2468Y4787D01*
X2465Y4781D01*
X2464Y4775D01*
X2465Y4769D01*
X2468Y4763D01*
X2474Y4760D01*
X2480Y4759D01*
X2486Y4760D01*
X2489Y4762D01*
X2499D01*
Y4754D01*
X2554D01*
Y4806D02*
G37*
G36*
X4439Y4829D02*
X4433Y4828D01*
X4427Y4825D01*
X4424Y4819D01*
X4423Y4813D01*
X4424Y4807D01*
X4427Y4801D01*
X4428Y4801D01*
Y4795D01*
X4427Y4795D01*
X4424Y4790D01*
X4423Y4783D01*
X4424Y4777D01*
X4427Y4772D01*
X4433Y4768D01*
X4439Y4767D01*
X4445Y4768D01*
X4451Y4772D01*
X4454Y4777D01*
X4455Y4783D01*
X4454Y4790D01*
X4451Y4795D01*
X4450Y4795D01*
Y4801D01*
X4451Y4801D01*
X4454Y4807D01*
X4455Y4813D01*
X4454Y4819D01*
X4451Y4825D01*
X4445Y4828D01*
X4439Y4829D02*
G37*
G36*
X3261Y4806D02*
X3206D01*
Y4754D01*
X3261D01*
Y4755D01*
X3265Y4759D01*
X3271Y4760D01*
X3277Y4763D01*
X3280Y4769D01*
X3281Y4775D01*
X3280Y4781D01*
X3277Y4787D01*
X3271Y4790D01*
X3267Y4791D01*
X3265Y4792D01*
X3261Y4793D01*
Y4806D02*
G37*
G36*
X3132Y4734D02*
X3126Y4733D01*
X3121Y4729D01*
X3117Y4724D01*
X3116Y4718D01*
X3117Y4711D01*
X3121Y4706D01*
X3126Y4702D01*
X3132Y4701D01*
X3139Y4702D01*
X3144Y4706D01*
X3148Y4711D01*
X3149Y4718D01*
X3148Y4724D01*
X3144Y4729D01*
X3139Y4733D01*
X3132Y4734D02*
G37*
G36*
X3642Y4857D02*
X3635Y4856D01*
X3630Y4852D01*
X3627Y4847D01*
X3625Y4841D01*
X3627Y4834D01*
X3630Y4829D01*
X3635Y4825D01*
X3642Y4824D01*
X3648Y4825D01*
X3653Y4829D01*
X3657Y4834D01*
X3658Y4841D01*
X3657Y4847D01*
X3653Y4852D01*
X3648Y4856D01*
X3642Y4857D02*
G37*
G36*
X3602Y4859D02*
X3596Y4858D01*
X3591Y4854D01*
X3587Y4849D01*
X3586Y4843D01*
X3587Y4836D01*
X3591Y4831D01*
X3596Y4827D01*
X3602Y4826D01*
X3609Y4827D01*
X3614Y4831D01*
X3617Y4836D01*
X3619Y4843D01*
X3617Y4849D01*
X3614Y4854D01*
X3609Y4858D01*
X3602Y4859D02*
G37*
G36*
X4408Y4880D02*
X4402Y4878D01*
X4397Y4875D01*
X4393Y4869D01*
X4392Y4863D01*
X4393Y4857D01*
X4397Y4852D01*
X4402Y4848D01*
X4408Y4847D01*
X4415Y4848D01*
X4420Y4852D01*
X4424Y4857D01*
X4425Y4863D01*
X4424Y4869D01*
X4420Y4875D01*
X4415Y4878D01*
X4408Y4880D02*
G37*
G36*
X3194Y4806D02*
X3139D01*
Y4799D01*
X3134Y4795D01*
X3130Y4796D01*
X3124Y4795D01*
X3118Y4792D01*
X3115Y4786D01*
X3114Y4780D01*
X3115Y4774D01*
X3118Y4768D01*
X3124Y4765D01*
X3130Y4764D01*
X3134Y4765D01*
X3139Y4761D01*
Y4754D01*
X3194D01*
Y4806D02*
G37*
G36*
X2906Y4934D02*
X2854D01*
Y4879D01*
X2859D01*
X2861Y4874D01*
X2860Y4871D01*
X2859Y4865D01*
X2860Y4859D01*
X2863Y4853D01*
X2869Y4850D01*
X2875Y4849D01*
X2879Y4849D01*
X2882Y4844D01*
X2879Y4839D01*
X2877Y4833D01*
X2879Y4826D01*
X2882Y4821D01*
X2887Y4818D01*
X2894Y4816D01*
X2900Y4818D01*
X2905Y4821D01*
X2909Y4826D01*
X2910Y4833D01*
X2909Y4839D01*
X2905Y4844D01*
X2900Y4848D01*
X2894Y4849D01*
X2890Y4848D01*
X2887Y4853D01*
X2890Y4859D01*
X2891Y4863D01*
X2892Y4865D01*
X2893Y4870D01*
Y4879D01*
X2906D01*
Y4934D02*
G37*
G36*
X3750Y4841D02*
X3710D01*
Y4822D01*
D01*
D01*
D01*
X3710D01*
X3710D01*
X3710Y4822D01*
Y4818D01*
X3710Y4818D01*
X3710Y4818D01*
Y4818D01*
D01*
Y4771D01*
X3750D01*
Y4775D01*
X3754Y4779D01*
X3760Y4778D01*
X3766Y4779D01*
X3771Y4783D01*
X3775Y4788D01*
X3776Y4794D01*
X3775Y4801D01*
X3771Y4806D01*
X3766Y4809D01*
X3760Y4811D01*
X3754Y4810D01*
X3750Y4813D01*
Y4818D01*
X3750Y4818D01*
D01*
D01*
D01*
D01*
D01*
D01*
D01*
D01*
X3750Y4818D01*
Y4819D01*
Y4820D01*
Y4821D01*
Y4822D01*
X3750Y4822D01*
X3750Y4822D01*
X3750D01*
D01*
D01*
X3750D01*
Y4822D01*
Y4841D02*
G37*
G36*
X3142Y4555D02*
X3135Y4553D01*
X3130Y4550D01*
X3127Y4545D01*
X3125Y4538D01*
X3127Y4532D01*
X3130Y4527D01*
X3135Y4523D01*
X3142Y4522D01*
X3148Y4523D01*
X3153Y4527D01*
X3157Y4532D01*
X3158Y4538D01*
X3157Y4545D01*
X3153Y4550D01*
X3148Y4553D01*
X3142Y4555D02*
G37*
G36*
X2743Y4580D02*
X2737Y4579D01*
X2732Y4576D01*
X2728Y4570D01*
X2727Y4564D01*
X2728Y4558D01*
X2732Y4552D01*
X2737Y4549D01*
X2743Y4548D01*
X2749Y4549D01*
X2755Y4552D01*
X2758Y4558D01*
X2759Y4564D01*
X2758Y4570D01*
X2755Y4576D01*
X2749Y4579D01*
X2743Y4580D02*
G37*
G36*
X2554Y4646D02*
X2499D01*
Y4633D01*
X2490D01*
X2485Y4632D01*
X2483Y4631D01*
X2479Y4630D01*
X2473Y4627D01*
X2470Y4621D01*
X2469Y4615D01*
X2470Y4609D01*
X2473Y4604D01*
X2479Y4600D01*
X2485Y4599D01*
X2491Y4600D01*
X2494Y4602D01*
X2499Y4599D01*
Y4594D01*
X2554D01*
Y4646D02*
G37*
G36*
X2490Y4506D02*
X2484Y4505D01*
X2478Y4502D01*
X2475Y4496D01*
X2474Y4490D01*
X2475Y4484D01*
X2478Y4478D01*
X2484Y4475D01*
X2490Y4474D01*
X2496Y4475D01*
X2502Y4478D01*
X2505Y4484D01*
X2506Y4490D01*
X2505Y4496D01*
X2502Y4502D01*
X2496Y4505D01*
X2490Y4506D02*
G37*
G36*
X2687Y4534D02*
X2681Y4533D01*
X2675Y4529D01*
X2672Y4524D01*
X2671Y4518D01*
X2672Y4511D01*
X2675Y4506D01*
X2681Y4503D01*
X2687Y4501D01*
X2693Y4503D01*
X2696Y4504D01*
X2701Y4501D01*
X2700Y4498D01*
X2701Y4492D01*
X2705Y4486D01*
X2710Y4483D01*
X2717Y4482D01*
X2723Y4483D01*
X2728Y4486D01*
X2732Y4492D01*
X2733Y4498D01*
X2732Y4504D01*
X2728Y4510D01*
X2723Y4513D01*
X2717Y4514D01*
X2710Y4513D01*
X2708Y4511D01*
X2703Y4515D01*
X2703Y4518D01*
X2702Y4524D01*
X2699Y4529D01*
X2693Y4533D01*
X2687Y4534D02*
G37*
G36*
X3194Y4496D02*
X3139D01*
Y4489D01*
X3134Y4485D01*
X3130Y4486D01*
X3124Y4485D01*
X3118Y4482D01*
X3115Y4476D01*
X3114Y4470D01*
X3115Y4464D01*
X3118Y4458D01*
X3124Y4455D01*
X3130Y4454D01*
X3134Y4455D01*
X3139Y4451D01*
Y4444D01*
X3194D01*
Y4496D02*
G37*
G36*
X2746Y4682D02*
X2740Y4680D01*
X2735Y4677D01*
X2731Y4672D01*
X2730Y4665D01*
X2731Y4659D01*
X2735Y4654D01*
X2740Y4650D01*
X2746Y4649D01*
X2752Y4650D01*
X2758Y4654D01*
X2761Y4659D01*
X2762Y4665D01*
X2761Y4672D01*
X2758Y4677D01*
X2752Y4680D01*
X2746Y4682D02*
G37*
G36*
X3550Y4703D02*
X3542Y4702D01*
X3535Y4697D01*
X3530Y4690D01*
X3529Y4682D01*
X3530Y4674D01*
X3535Y4667D01*
X3542Y4662D01*
X3550Y4660D01*
X3558Y4662D01*
X3565Y4667D01*
X3570Y4674D01*
X3571Y4682D01*
X3570Y4690D01*
X3565Y4697D01*
X3558Y4702D01*
X3550Y4703D02*
G37*
G36*
X2844Y4711D02*
X2838Y4710D01*
X2833Y4706D01*
X2829Y4701D01*
X2828Y4695D01*
X2829Y4689D01*
X2833Y4683D01*
X2838Y4680D01*
X2844Y4679D01*
X2851Y4680D01*
X2856Y4683D01*
X2860Y4689D01*
X2861Y4695D01*
X2860Y4701D01*
X2856Y4706D01*
X2851Y4710D01*
X2844Y4711D02*
G37*
G36*
X2621Y4646D02*
X2566D01*
Y4594D01*
X2621D01*
Y4601D01*
X2626Y4605D01*
X2630Y4604D01*
X2636Y4605D01*
X2642Y4608D01*
X2645Y4614D01*
X2646Y4620D01*
X2645Y4626D01*
X2642Y4632D01*
X2636Y4635D01*
X2630Y4636D01*
X2626Y4635D01*
X2621Y4639D01*
Y4646D02*
G37*
G36*
X3261Y4656D02*
X3206D01*
Y4604D01*
X3261D01*
Y4611D01*
X3266Y4615D01*
X3270Y4614D01*
X3276Y4615D01*
X3282Y4618D01*
X3285Y4624D01*
X3286Y4630D01*
X3285Y4636D01*
X3282Y4642D01*
X3276Y4645D01*
X3270Y4646D01*
X3266Y4645D01*
X3261Y4649D01*
Y4656D02*
G37*
G36*
X3194D02*
X3139D01*
Y4646D01*
X3134Y4644D01*
X3131Y4645D01*
X3125Y4646D01*
X3119Y4645D01*
X3113Y4642D01*
X3110Y4636D01*
X3109Y4630D01*
X3110Y4624D01*
X3113Y4618D01*
X3119Y4615D01*
X3123Y4614D01*
X3125Y4613D01*
X3130Y4612D01*
X3139D01*
Y4604D01*
X3194D01*
Y4656D02*
G37*
G36*
X2726Y4934D02*
X2674D01*
Y4879D01*
X2684D01*
X2686Y4874D01*
X2685Y4871D01*
X2684Y4865D01*
X2685Y4859D01*
X2688Y4853D01*
X2694Y4850D01*
X2700Y4849D01*
X2706Y4850D01*
X2712Y4853D01*
X2715Y4859D01*
X2716Y4865D01*
X2715Y4871D01*
X2713Y4875D01*
X2712Y4877D01*
X2713Y4879D01*
X2726D01*
Y4934D02*
G37*
G36*
X3661Y4997D02*
X3655Y4995D01*
X3650Y4992D01*
X3646Y4987D01*
X3645Y4980D01*
X3646Y4978D01*
X3628Y4960D01*
X3593D01*
X3589Y4959D01*
X3586Y4957D01*
X3545Y4916D01*
X3540Y4919D01*
X3540Y4921D01*
X3539Y4928D01*
X3535Y4933D01*
X3530Y4936D01*
X3524Y4938D01*
X3517Y4936D01*
X3512Y4933D01*
X3509Y4928D01*
X3507Y4921D01*
X3509Y4915D01*
X3512Y4910D01*
X3517Y4906D01*
X3524Y4905D01*
X3526Y4905D01*
X3529Y4900D01*
X3509Y4881D01*
X3507Y4878D01*
X3507Y4874D01*
Y4752D01*
X3507Y4748D01*
X3509Y4745D01*
X3518Y4737D01*
X3517Y4734D01*
X3518Y4728D01*
X3522Y4723D01*
X3527Y4719D01*
X3533Y4718D01*
X3540Y4719D01*
X3545Y4723D01*
X3549Y4728D01*
X3550Y4734D01*
X3549Y4740D01*
X3545Y4746D01*
X3540Y4749D01*
X3533Y4751D01*
X3531Y4750D01*
X3525Y4756D01*
Y4850D01*
X3531Y4852D01*
X3532Y4851D01*
X3537Y4847D01*
X3543Y4846D01*
X3550Y4847D01*
X3555Y4851D01*
X3558Y4856D01*
X3560Y4862D01*
X3558Y4868D01*
X3555Y4874D01*
X3550Y4877D01*
X3543Y4879D01*
X3541Y4878D01*
X3538Y4883D01*
X3562Y4907D01*
X3567Y4904D01*
X3566Y4902D01*
X3568Y4895D01*
X3571Y4890D01*
X3576Y4887D01*
X3583Y4885D01*
X3589Y4887D01*
X3594Y4890D01*
X3598Y4895D01*
X3599Y4902D01*
X3598Y4908D01*
X3594Y4913D01*
X3589Y4917D01*
X3583Y4918D01*
X3580Y4917D01*
X3577Y4923D01*
X3596Y4942D01*
X3632D01*
X3635Y4942D01*
X3638Y4944D01*
X3659Y4965D01*
X3661Y4964D01*
X3668Y4965D01*
X3673Y4969D01*
X3676Y4974D01*
X3678Y4980D01*
X3676Y4987D01*
X3673Y4992D01*
X3668Y4995D01*
X3661Y4997D02*
G37*
G36*
X3740Y4997D02*
X3734Y4995D01*
X3729Y4992D01*
X3725Y4987D01*
X3724Y4980D01*
X3725Y4974D01*
X3729Y4969D01*
X3734Y4965D01*
X3740Y4964D01*
X3746Y4965D01*
X3752Y4969D01*
X3755Y4974D01*
X3756Y4980D01*
X3755Y4987D01*
X3752Y4992D01*
X3746Y4995D01*
X3740Y4997D02*
G37*
G36*
X2880Y5026D02*
X2874Y5025D01*
X2868Y5022D01*
X2865Y5016D01*
X2864Y5010D01*
X2865Y5006D01*
X2861Y5001D01*
X2854D01*
Y4946D01*
X2906D01*
Y5001D01*
X2899D01*
X2895Y5006D01*
X2896Y5010D01*
X2895Y5016D01*
X2892Y5022D01*
X2886Y5025D01*
X2880Y5026D02*
G37*
G36*
X3937Y4957D02*
X3931Y4956D01*
X3925Y4952D01*
X3922Y4947D01*
X3921Y4943D01*
X3915Y4942D01*
X3915Y4942D01*
X3913Y4944D01*
X3913Y4947D01*
X3909Y4952D01*
X3904Y4956D01*
X3898Y4957D01*
X3891Y4956D01*
X3886Y4952D01*
X3883Y4947D01*
X3881Y4941D01*
X3883Y4935D01*
X3886Y4929D01*
X3891Y4926D01*
X3892Y4926D01*
X3891Y4920D01*
X3882D01*
X3882Y4920D01*
X3882Y4920D01*
X3882Y4920D01*
X3880D01*
X3878D01*
X3878Y4920D01*
Y4920D01*
Y4920D01*
D01*
D01*
D01*
X3872D01*
Y4932D01*
X3873Y4935D01*
X3875Y4941D01*
X3873Y4947D01*
X3870Y4952D01*
X3865Y4956D01*
X3858Y4957D01*
X3852Y4956D01*
X3847Y4952D01*
X3843Y4947D01*
X3842Y4941D01*
X3843Y4935D01*
X3845Y4932D01*
Y4920D01*
X3831D01*
Y4880D01*
X3878D01*
Y4880D01*
X3882D01*
X3882Y4880D01*
Y4880D01*
X3882D01*
D01*
D01*
X3882Y4880D01*
D01*
X3929D01*
Y4920D01*
X3919D01*
Y4929D01*
X3925Y4931D01*
X3925Y4929D01*
X3931Y4926D01*
X3937Y4925D01*
X3943Y4926D01*
X3949Y4929D01*
X3952Y4935D01*
X3953Y4941D01*
X3952Y4947D01*
X3949Y4952D01*
X3943Y4956D01*
X3937Y4957D02*
G37*
G36*
X2695Y5036D02*
X2689Y5035D01*
X2683Y5032D01*
X2680Y5026D01*
X2679Y5020D01*
X2680Y5014D01*
X2683Y5008D01*
X2686Y5007D01*
X2684Y5001D01*
X2674D01*
Y4946D01*
X2726D01*
Y5001D01*
X2709D01*
Y5012D01*
X2710Y5014D01*
X2711Y5020D01*
X2710Y5026D01*
X2707Y5032D01*
X2701Y5035D01*
X2695Y5036D02*
G37*
G36*
X3780Y4997D02*
X3773Y4995D01*
X3768Y4992D01*
X3764Y4987D01*
X3763Y4980D01*
X3764Y4974D01*
X3768Y4969D01*
X3773Y4965D01*
X3780Y4964D01*
X3786Y4965D01*
X3791Y4969D01*
X3795Y4974D01*
X3796Y4980D01*
X3795Y4987D01*
X3791Y4992D01*
X3786Y4995D01*
X3780Y4997D02*
G37*
G36*
X3937D02*
X3931Y4995D01*
X3925Y4992D01*
X3922Y4987D01*
X3921Y4980D01*
X3922Y4974D01*
X3925Y4969D01*
X3931Y4965D01*
X3937Y4964D01*
X3943Y4965D01*
X3949Y4969D01*
X3952Y4974D01*
X3953Y4980D01*
X3952Y4987D01*
X3949Y4992D01*
X3943Y4995D01*
X3937Y4997D02*
G37*
G36*
X3976D02*
X3970Y4995D01*
X3965Y4992D01*
X3961Y4987D01*
X3960Y4980D01*
X3961Y4974D01*
X3965Y4969D01*
X3970Y4965D01*
X3976Y4964D01*
X3983Y4965D01*
X3988Y4969D01*
X3991Y4974D01*
X3993Y4980D01*
X3991Y4987D01*
X3988Y4992D01*
X3983Y4995D01*
X3976Y4997D02*
G37*
G36*
X3898D02*
X3891Y4995D01*
X3886Y4992D01*
X3883Y4987D01*
X3881Y4980D01*
X3883Y4974D01*
X3886Y4969D01*
X3891Y4965D01*
X3898Y4964D01*
X3904Y4965D01*
X3909Y4969D01*
X3913Y4974D01*
X3914Y4980D01*
X3913Y4987D01*
X3909Y4992D01*
X3904Y4995D01*
X3898Y4997D02*
G37*
G36*
X3819D02*
X3813Y4995D01*
X3807Y4992D01*
X3804Y4987D01*
X3803Y4980D01*
X3804Y4974D01*
X3807Y4969D01*
X3813Y4965D01*
X3819Y4964D01*
X3825Y4965D01*
X3830Y4969D01*
X3834Y4974D01*
X3835Y4980D01*
X3834Y4987D01*
X3830Y4992D01*
X3825Y4995D01*
X3819Y4997D02*
G37*
G36*
X3858D02*
X3852Y4995D01*
X3847Y4992D01*
X3843Y4987D01*
X3842Y4980D01*
X3843Y4974D01*
X3847Y4969D01*
X3852Y4965D01*
X3858Y4964D01*
X3865Y4965D01*
X3870Y4969D01*
X3873Y4974D01*
X3875Y4980D01*
X3873Y4987D01*
X3870Y4992D01*
X3865Y4995D01*
X3858Y4997D02*
G37*
G36*
X4173Y4957D02*
X4167Y4956D01*
X4162Y4952D01*
X4158Y4947D01*
X4157Y4941D01*
X4158Y4935D01*
X4162Y4929D01*
X4167Y4926D01*
X4173Y4925D01*
X4179Y4926D01*
X4185Y4929D01*
X4188Y4935D01*
X4190Y4941D01*
X4188Y4947D01*
X4185Y4952D01*
X4179Y4956D01*
X4173Y4957D02*
G37*
G36*
X2820Y4886D02*
X2814Y4885D01*
X2808Y4882D01*
X2805Y4876D01*
X2804Y4870D01*
X2805Y4864D01*
X2808Y4858D01*
X2814Y4855D01*
X2820Y4854D01*
X2826Y4855D01*
X2832Y4858D01*
X2835Y4864D01*
X2836Y4870D01*
X2835Y4876D01*
X2832Y4882D01*
X2826Y4885D01*
X2820Y4886D02*
G37*
G36*
X2970Y4887D02*
X2963Y4886D01*
X2958Y4882D01*
X2954Y4877D01*
X2953Y4870D01*
X2954Y4864D01*
X2958Y4859D01*
X2963Y4855D01*
X2970Y4854D01*
X2976Y4855D01*
X2981Y4859D01*
X2985Y4864D01*
X2986Y4870D01*
X2985Y4877D01*
X2981Y4882D01*
X2976Y4886D01*
X2970Y4887D02*
G37*
G36*
X3750Y4869D02*
X3735D01*
Y4851D01*
X3750D01*
Y4869D02*
G37*
G36*
X3021Y4882D02*
X3015Y4881D01*
X3009Y4877D01*
X3006Y4872D01*
X3004Y4866D01*
X3006Y4860D01*
X3009Y4854D01*
X3015Y4851D01*
X3021Y4849D01*
X3027Y4851D01*
X3032Y4854D01*
X3036Y4860D01*
X3037Y4866D01*
X3036Y4872D01*
X3032Y4877D01*
X3027Y4881D01*
X3021Y4882D02*
G37*
G36*
X3725Y4869D02*
X3710D01*
Y4851D01*
X3725D01*
Y4869D02*
G37*
G36*
X4369Y4919D02*
X4363Y4918D01*
X4358Y4914D01*
X4354Y4909D01*
X4353Y4903D01*
X4354Y4896D01*
X4358Y4891D01*
X4363Y4887D01*
X4369Y4886D01*
X4375Y4887D01*
X4381Y4891D01*
X4384Y4896D01*
X4385Y4903D01*
X4384Y4909D01*
X4381Y4914D01*
X4375Y4918D01*
X4369Y4919D02*
G37*
G36*
X3819Y4957D02*
X3813Y4956D01*
X3807Y4952D01*
X3804Y4947D01*
X3803Y4941D01*
X3804Y4935D01*
X3807Y4929D01*
X3813Y4926D01*
X3819Y4925D01*
X3825Y4926D01*
X3830Y4929D01*
X3834Y4935D01*
X3835Y4941D01*
X3834Y4947D01*
X3830Y4952D01*
X3825Y4956D01*
X3819Y4957D02*
G37*
G36*
X4213D02*
X4206Y4956D01*
X4201Y4952D01*
X4198Y4947D01*
X4196Y4941D01*
X4198Y4935D01*
X4201Y4929D01*
X4206Y4926D01*
X4213Y4925D01*
X4219Y4926D01*
X4224Y4929D01*
X4228Y4935D01*
X4229Y4941D01*
X4228Y4947D01*
X4224Y4952D01*
X4219Y4956D01*
X4213Y4957D02*
G37*
G36*
X3780D02*
X3773Y4956D01*
X3768Y4952D01*
X3764Y4947D01*
X3763Y4941D01*
X3764Y4935D01*
X3768Y4929D01*
X3773Y4926D01*
X3780Y4925D01*
X3786Y4926D01*
X3791Y4929D01*
X3795Y4935D01*
X3796Y4941D01*
X3795Y4947D01*
X3791Y4952D01*
X3786Y4956D01*
X3780Y4957D02*
G37*
G36*
X3701D02*
X3695Y4956D01*
X3689Y4952D01*
X3686Y4947D01*
X3684Y4941D01*
X3686Y4935D01*
X3689Y4929D01*
X3695Y4926D01*
X3701Y4925D01*
X3707Y4926D01*
X3712Y4929D01*
X3716Y4935D01*
X3717Y4941D01*
X3716Y4947D01*
X3712Y4952D01*
X3707Y4956D01*
X3701Y4957D02*
G37*
G36*
X3740D02*
X3734Y4956D01*
X3729Y4952D01*
X3725Y4947D01*
X3724Y4941D01*
X3725Y4935D01*
X3729Y4929D01*
X3734Y4926D01*
X3740Y4925D01*
X3746Y4926D01*
X3752Y4929D01*
X3755Y4935D01*
X3756Y4941D01*
X3755Y4947D01*
X3752Y4952D01*
X3746Y4956D01*
X3740Y4957D02*
G37*
G36*
X2630Y4501D02*
X2624Y4500D01*
X2618Y4497D01*
X2618Y4496D01*
X2616Y4494D01*
X2615Y4493D01*
X2593D01*
X2588Y4492D01*
X2584Y4489D01*
X2581Y4485D01*
X2580Y4480D01*
X2581Y4475D01*
X2584Y4471D01*
X2588Y4468D01*
X2593Y4467D01*
X2620D01*
X2625Y4468D01*
X2627Y4469D01*
X2630Y4469D01*
X2636Y4470D01*
X2642Y4473D01*
X2645Y4479D01*
X2646Y4485D01*
X2645Y4491D01*
X2642Y4497D01*
X2636Y4500D01*
X2630Y4501D02*
G37*
G36*
X4166Y3931D02*
X4158Y3930D01*
X4151Y3925D01*
X4146Y3918D01*
X4145Y3910D01*
X4146Y3902D01*
X4151Y3895D01*
X4158Y3890D01*
X4166Y3889D01*
X4174Y3890D01*
X4181Y3895D01*
X4186Y3902D01*
X4187Y3910D01*
X4186Y3918D01*
X4181Y3925D01*
X4174Y3930D01*
X4166Y3931D02*
G37*
G36*
X3414Y3940D02*
X3406Y3938D01*
X3399Y3934D01*
X3394Y3927D01*
X3393Y3919D01*
X3394Y3910D01*
X3399Y3904D01*
X3406Y3899D01*
X3414Y3897D01*
X3422Y3899D01*
X3429Y3904D01*
X3434Y3910D01*
X3435Y3919D01*
X3434Y3927D01*
X3429Y3934D01*
X3422Y3938D01*
X3414Y3940D02*
G37*
G36*
X3914Y3896D02*
X3906Y3894D01*
X3899Y3890D01*
X3894Y3883D01*
X3893Y3875D01*
X3894Y3866D01*
X3899Y3860D01*
X3906Y3855D01*
X3914Y3853D01*
X3922Y3855D01*
X3929Y3860D01*
X3934Y3866D01*
X3935Y3875D01*
X3934Y3883D01*
X3929Y3890D01*
X3922Y3894D01*
X3914Y3896D02*
G37*
G36*
X3316Y3841D02*
X3308Y3840D01*
X3301Y3835D01*
X3296Y3828D01*
X3294Y3820D01*
X3296Y3812D01*
X3301Y3805D01*
X3308Y3800D01*
X3316Y3799D01*
X3324Y3800D01*
X3331Y3805D01*
X3336Y3812D01*
X3337Y3820D01*
X3336Y3828D01*
X3331Y3835D01*
X3324Y3840D01*
X3316Y3841D02*
G37*
G36*
X3865Y3866D02*
X3857Y3865D01*
X3850Y3860D01*
X3845Y3853D01*
X3843Y3845D01*
X3845Y3837D01*
X3850Y3830D01*
X3857Y3825D01*
X3865Y3824D01*
X3873Y3825D01*
X3880Y3830D01*
X3885Y3837D01*
X3886Y3845D01*
X3885Y3853D01*
X3880Y3860D01*
X3873Y3865D01*
X3865Y3866D02*
G37*
G36*
X3835Y4001D02*
X3827Y4000D01*
X3820Y3995D01*
X3815Y3988D01*
X3814Y3980D01*
X3815Y3972D01*
X3820Y3965D01*
X3827Y3960D01*
X3835Y3959D01*
X3843Y3960D01*
X3850Y3965D01*
X3855Y3972D01*
X3856Y3980D01*
X3855Y3988D01*
X3850Y3995D01*
X3843Y4000D01*
X3835Y4001D02*
G37*
G36*
X4134Y4077D02*
X4126Y4075D01*
X4119Y4070D01*
X4114Y4063D01*
X4112Y4055D01*
X4114Y4047D01*
X4119Y4040D01*
X4126Y4035D01*
X4134Y4034D01*
X4142Y4035D01*
X4149Y4040D01*
X4154Y4047D01*
X4155Y4055D01*
X4154Y4063D01*
X4149Y4070D01*
X4142Y4075D01*
X4134Y4077D02*
G37*
G36*
X3414Y4085D02*
X3406Y4083D01*
X3399Y4079D01*
X3394Y4072D01*
X3393Y4064D01*
X3394Y4055D01*
X3399Y4048D01*
X3406Y4044D01*
X3414Y4042D01*
X3422Y4044D01*
X3429Y4048D01*
X3434Y4055D01*
X3435Y4064D01*
X3434Y4072D01*
X3429Y4079D01*
X3422Y4083D01*
X3414Y4085D02*
G37*
G36*
X2637Y4023D02*
X2631Y4022D01*
X2625Y4018D01*
X2622Y4013D01*
X2621Y4007D01*
X2622Y4001D01*
X2625Y3995D01*
X2631Y3992D01*
X2637Y3991D01*
X2643Y3992D01*
X2648Y3995D01*
X2652Y4001D01*
X2653Y4007D01*
X2652Y4013D01*
X2648Y4018D01*
X2643Y4022D01*
X2637Y4023D02*
G37*
G36*
X3140Y3993D02*
X3134Y3991D01*
X3128Y3988D01*
X3125Y3983D01*
X3123Y3976D01*
X3125Y3970D01*
X3128Y3965D01*
X3134Y3961D01*
X3140Y3960D01*
X3146Y3961D01*
X3151Y3965D01*
X3155Y3970D01*
X3156Y3976D01*
X3155Y3983D01*
X3151Y3988D01*
X3146Y3991D01*
X3140Y3993D02*
G37*
G36*
X2906Y4054D02*
X2854D01*
Y3999D01*
X2856D01*
X2860Y3994D01*
X2859Y3990D01*
X2860Y3984D01*
X2863Y3978D01*
X2869Y3975D01*
X2875Y3974D01*
X2881Y3975D01*
X2887Y3978D01*
X2890Y3984D01*
X2891Y3988D01*
X2892Y3990D01*
X2893Y3995D01*
Y3999D01*
X2906D01*
Y4054D02*
G37*
G36*
X2954Y3841D02*
X2946Y3840D01*
X2939Y3835D01*
X2934Y3828D01*
X2932Y3820D01*
X2934Y3812D01*
X2939Y3805D01*
X2946Y3800D01*
X2954Y3799D01*
X2962Y3800D01*
X2969Y3805D01*
X2974Y3812D01*
X2975Y3820D01*
X2974Y3828D01*
X2969Y3835D01*
X2962Y3840D01*
X2954Y3841D02*
G37*
G36*
X3835Y3666D02*
X3829Y3665D01*
X3823Y3662D01*
X3820Y3656D01*
X3819Y3650D01*
X3820Y3644D01*
X3823Y3638D01*
X3829Y3635D01*
X3835Y3634D01*
X3841Y3635D01*
X3847Y3638D01*
X3850Y3644D01*
X3851Y3650D01*
X3850Y3656D01*
X3847Y3662D01*
X3841Y3665D01*
X3835Y3666D02*
G37*
G36*
X3755Y3706D02*
X3749Y3705D01*
X3743Y3702D01*
X3740Y3696D01*
X3739Y3690D01*
X3740Y3684D01*
X3743Y3678D01*
X3749Y3675D01*
X3755Y3674D01*
X3761Y3675D01*
X3767Y3678D01*
X3770Y3684D01*
X3771Y3690D01*
X3770Y3696D01*
X3767Y3702D01*
X3761Y3705D01*
X3755Y3706D02*
G37*
G36*
X3795Y3666D02*
X3789Y3665D01*
X3783Y3662D01*
X3780Y3656D01*
X3779Y3650D01*
X3780Y3644D01*
X3783Y3638D01*
X3789Y3635D01*
X3795Y3634D01*
X3801Y3635D01*
X3807Y3638D01*
X3810Y3644D01*
X3811Y3650D01*
X3810Y3656D01*
X3807Y3662D01*
X3801Y3665D01*
X3795Y3666D02*
G37*
G36*
X3895Y3646D02*
X3889Y3645D01*
X3883Y3642D01*
X3880Y3636D01*
X3879Y3630D01*
X3880Y3624D01*
X3883Y3618D01*
X3889Y3615D01*
X3895Y3614D01*
X3901Y3615D01*
X3907Y3618D01*
X3910Y3624D01*
X3911Y3630D01*
X3910Y3636D01*
X3907Y3642D01*
X3901Y3645D01*
X3895Y3646D02*
G37*
G36*
X3755Y3666D02*
X3749Y3665D01*
X3743Y3662D01*
X3740Y3656D01*
X3739Y3650D01*
X3740Y3644D01*
X3743Y3638D01*
X3749Y3635D01*
X3755Y3634D01*
X3761Y3635D01*
X3767Y3638D01*
X3770Y3644D01*
X3771Y3650D01*
X3770Y3656D01*
X3767Y3662D01*
X3761Y3665D01*
X3755Y3666D02*
G37*
G36*
X3795Y3706D02*
X3789Y3705D01*
X3783Y3702D01*
X3780Y3696D01*
X3779Y3690D01*
X3780Y3684D01*
X3783Y3678D01*
X3789Y3675D01*
X3795Y3674D01*
X3801Y3675D01*
X3807Y3678D01*
X3810Y3684D01*
X3811Y3690D01*
X3810Y3696D01*
X3807Y3702D01*
X3801Y3705D01*
X3795Y3706D02*
G37*
G36*
X3629Y3798D02*
X3621Y3796D01*
X3614Y3792D01*
X3609Y3785D01*
X3607Y3777D01*
X3609Y3768D01*
X3614Y3761D01*
X3621Y3757D01*
X3629Y3755D01*
X3637Y3757D01*
X3644Y3761D01*
X3649Y3768D01*
X3650Y3777D01*
X3649Y3785D01*
X3644Y3792D01*
X3637Y3796D01*
X3629Y3798D02*
G37*
G36*
X3983D02*
X3975Y3796D01*
X3968Y3792D01*
X3963Y3785D01*
X3962Y3777D01*
X3963Y3768D01*
X3968Y3761D01*
X3975Y3757D01*
X3983Y3755D01*
X3991Y3757D01*
X3998Y3761D01*
X4003Y3768D01*
X4005Y3777D01*
X4003Y3785D01*
X3998Y3792D01*
X3991Y3796D01*
X3983Y3798D02*
G37*
G36*
X4116Y3740D02*
X4108Y3738D01*
X4101Y3734D01*
X4096Y3727D01*
X4095Y3718D01*
X4096Y3710D01*
X4101Y3703D01*
X4108Y3699D01*
X4116Y3697D01*
X4124Y3699D01*
X4131Y3703D01*
X4136Y3710D01*
X4138Y3718D01*
X4136Y3727D01*
X4131Y3734D01*
X4124Y3738D01*
X4116Y3740D02*
G37*
G36*
X3835Y3706D02*
X3829Y3705D01*
X3823Y3702D01*
X3820Y3696D01*
X3819Y3690D01*
X3820Y3684D01*
X3823Y3678D01*
X3829Y3675D01*
X3835Y3674D01*
X3841Y3675D01*
X3847Y3678D01*
X3850Y3684D01*
X3851Y3690D01*
X3850Y3696D01*
X3847Y3702D01*
X3841Y3705D01*
X3835Y3706D02*
G37*
G36*
X3895Y3726D02*
X3889Y3725D01*
X3883Y3722D01*
X3880Y3716D01*
X3879Y3710D01*
X3880Y3704D01*
X3883Y3698D01*
X3889Y3695D01*
X3895Y3694D01*
X3901Y3695D01*
X3907Y3698D01*
X3910Y3704D01*
X3911Y3710D01*
X3910Y3716D01*
X3907Y3722D01*
X3901Y3725D01*
X3895Y3726D02*
G37*
G36*
X2880Y4146D02*
X2874Y4145D01*
X2868Y4142D01*
X2865Y4136D01*
X2864Y4130D01*
X2865Y4126D01*
X2861Y4121D01*
X2854D01*
Y4066D01*
X2906D01*
Y4121D01*
X2899D01*
X2895Y4126D01*
X2896Y4130D01*
X2895Y4136D01*
X2892Y4142D01*
X2886Y4145D01*
X2880Y4146D02*
G37*
G36*
X3550Y4324D02*
X3544Y4323D01*
X3539Y4320D01*
X3535Y4314D01*
X3534Y4308D01*
X3535Y4302D01*
X3539Y4297D01*
X3544Y4293D01*
X3550Y4292D01*
X3556Y4293D01*
X3562Y4297D01*
X3565Y4302D01*
X3567Y4308D01*
X3565Y4314D01*
X3562Y4320D01*
X3556Y4323D01*
X3550Y4324D02*
G37*
G36*
X3655Y4350D02*
X3648Y4349D01*
X3643Y4345D01*
X3639Y4340D01*
X3638Y4334D01*
X3639Y4327D01*
X3643Y4322D01*
X3648Y4319D01*
X3655Y4317D01*
X3661Y4319D01*
X3666Y4322D01*
X3670Y4327D01*
X3671Y4334D01*
X3670Y4340D01*
X3666Y4345D01*
X3661Y4349D01*
X3655Y4350D02*
G37*
G36*
X2614Y4376D02*
X2608Y4374D01*
X2603Y4371D01*
X2599Y4365D01*
X2598Y4359D01*
X2599Y4353D01*
X2603Y4348D01*
X2608Y4344D01*
X2614Y4343D01*
X2616Y4340D01*
X2616Y4340D01*
X2615Y4334D01*
X2616Y4327D01*
X2619Y4322D01*
X2625Y4319D01*
X2631Y4317D01*
X2634Y4318D01*
X2638Y4315D01*
X2639Y4314D01*
X2638Y4308D01*
X2639Y4302D01*
X2643Y4297D01*
X2648Y4293D01*
X2655Y4292D01*
X2661Y4293D01*
X2666Y4297D01*
X2670Y4302D01*
X2671Y4308D01*
X2670Y4314D01*
X2666Y4320D01*
X2661Y4323D01*
X2655Y4324D01*
X2651Y4324D01*
X2647Y4327D01*
X2646Y4328D01*
X2647Y4334D01*
X2646Y4340D01*
X2642Y4345D01*
X2637Y4349D01*
X2631Y4350D01*
X2629Y4353D01*
X2629Y4353D01*
X2631Y4359D01*
X2629Y4365D01*
X2626Y4371D01*
X2620Y4374D01*
X2614Y4376D02*
G37*
G36*
X2790Y4293D02*
X2784Y4292D01*
X2779Y4288D01*
X2775Y4283D01*
X2774Y4276D01*
X2775Y4273D01*
X2772Y4269D01*
X2771Y4268D01*
X2765Y4269D01*
X2759Y4268D01*
X2753Y4264D01*
X2750Y4259D01*
X2749Y4253D01*
X2750Y4247D01*
X2753Y4241D01*
X2759Y4238D01*
X2765Y4237D01*
X2771Y4238D01*
X2776Y4241D01*
X2780Y4247D01*
X2781Y4253D01*
X2781Y4256D01*
X2783Y4260D01*
X2785Y4261D01*
X2790Y4260D01*
X2797Y4261D01*
X2802Y4265D01*
X2806Y4270D01*
X2807Y4276D01*
X2806Y4283D01*
X2802Y4288D01*
X2797Y4292D01*
X2790Y4293D02*
G37*
G36*
X2726Y4308D02*
X2720Y4306D01*
X2715Y4303D01*
X2711Y4298D01*
X2710Y4291D01*
X2711Y4285D01*
X2715Y4280D01*
X2720Y4276D01*
X2726Y4275D01*
X2733Y4276D01*
X2738Y4280D01*
X2741Y4285D01*
X2743Y4291D01*
X2741Y4298D01*
X2738Y4303D01*
X2733Y4306D01*
X2726Y4308D02*
G37*
G36*
X3135Y4386D02*
X3129Y4385D01*
X3123Y4382D01*
X3120Y4376D01*
X3119Y4370D01*
X3120Y4364D01*
X3123Y4358D01*
X3129Y4355D01*
X3135Y4354D01*
X3141Y4355D01*
X3147Y4358D01*
X3150Y4364D01*
X3151Y4370D01*
X3150Y4376D01*
X3147Y4382D01*
X3141Y4385D01*
X3135Y4386D02*
G37*
G36*
X3261Y4496D02*
X3206D01*
Y4444D01*
X3261D01*
Y4444D01*
X3263Y4445D01*
X3264Y4445D01*
X3270Y4444D01*
X3276Y4445D01*
X3282Y4448D01*
X3285Y4454D01*
X3286Y4460D01*
X3285Y4466D01*
X3282Y4472D01*
X3276Y4475D01*
X3273Y4476D01*
X3269Y4479D01*
X3265Y4482D01*
X3261Y4483D01*
Y4496D02*
G37*
G36*
X3553Y4510D02*
X3545Y4508D01*
X3538Y4503D01*
X3533Y4496D01*
X3532Y4488D01*
X3533Y4480D01*
X3538Y4473D01*
X3545Y4468D01*
X3553Y4467D01*
X3561Y4468D01*
X3568Y4473D01*
X3573Y4480D01*
X3575Y4488D01*
X3573Y4496D01*
X3568Y4503D01*
X3561Y4508D01*
X3553Y4510D02*
G37*
G36*
X2844Y4455D02*
X2838Y4454D01*
X2833Y4451D01*
X2829Y4445D01*
X2828Y4439D01*
X2829Y4433D01*
X2833Y4427D01*
X2838Y4424D01*
X2844Y4423D01*
X2851Y4424D01*
X2856Y4427D01*
X2860Y4433D01*
X2861Y4439D01*
X2860Y4445D01*
X2856Y4451D01*
X2851Y4454D01*
X2844Y4455D02*
G37*
G36*
X2505Y4401D02*
X2499Y4400D01*
X2493Y4396D01*
X2490Y4391D01*
X2489Y4385D01*
X2490Y4379D01*
X2493Y4373D01*
X2499Y4370D01*
X2505Y4369D01*
X2511Y4370D01*
X2516Y4373D01*
X2520Y4379D01*
X2521Y4385D01*
X2520Y4391D01*
X2516Y4396D01*
X2511Y4400D01*
X2505Y4401D02*
G37*
G36*
X3255D02*
X3249Y4400D01*
X3243Y4396D01*
X3240Y4391D01*
X3239Y4385D01*
X3240Y4379D01*
X3243Y4373D01*
X3249Y4370D01*
X3255Y4369D01*
X3261Y4370D01*
X3266Y4373D01*
X3270Y4379D01*
X3271Y4385D01*
X3270Y4391D01*
X3266Y4396D01*
X3261Y4400D01*
X3255Y4401D02*
G37*
G36*
X2617Y4299D02*
X2611Y4298D01*
X2606Y4294D01*
X2602Y4289D01*
X2601Y4282D01*
X2602Y4276D01*
X2606Y4271D01*
X2611Y4267D01*
X2617Y4266D01*
X2624Y4267D01*
X2629Y4271D01*
X2633Y4276D01*
X2634Y4282D01*
X2633Y4289D01*
X2629Y4294D01*
X2624Y4298D01*
X2617Y4299D02*
G37*
G36*
X3091Y4190D02*
X3084Y4188D01*
X3079Y4185D01*
X3075Y4179D01*
X3074Y4173D01*
X3075Y4167D01*
X3079Y4162D01*
X3084Y4158D01*
X3091Y4157D01*
X3097Y4158D01*
X3102Y4162D01*
X3106Y4167D01*
X3107Y4173D01*
X3106Y4179D01*
X3102Y4185D01*
X3097Y4188D01*
X3091Y4190D02*
G37*
G36*
X2667Y4209D02*
X2661Y4208D01*
X2656Y4204D01*
X2652Y4199D01*
X2651Y4193D01*
X2652Y4187D01*
X2656Y4181D01*
X2661Y4178D01*
X2667Y4177D01*
X2674Y4178D01*
X2679Y4181D01*
X2682Y4187D01*
X2684Y4193D01*
X2682Y4199D01*
X2679Y4204D01*
X2674Y4208D01*
X2667Y4209D02*
G37*
G36*
X3917Y4185D02*
X3909Y4183D01*
X3902Y4179D01*
X3898Y4172D01*
X3896Y4163D01*
X3898Y4155D01*
X3902Y4148D01*
X3909Y4144D01*
X3917Y4142D01*
X3926Y4144D01*
X3932Y4148D01*
X3937Y4155D01*
X3939Y4163D01*
X3937Y4172D01*
X3932Y4179D01*
X3926Y4183D01*
X3917Y4185D02*
G37*
G36*
X3307Y4121D02*
X3301Y4119D01*
X3296Y4116D01*
X3292Y4111D01*
X3291Y4104D01*
X3292Y4098D01*
X3296Y4093D01*
X3301Y4089D01*
X3307Y4088D01*
X3313Y4089D01*
X3319Y4093D01*
X3322Y4098D01*
X3323Y4104D01*
X3322Y4111D01*
X3319Y4116D01*
X3313Y4119D01*
X3307Y4121D02*
G37*
G36*
X3120Y4150D02*
X3114Y4149D01*
X3109Y4145D01*
X3105Y4140D01*
X3104Y4134D01*
X3105Y4128D01*
X3109Y4122D01*
X3114Y4119D01*
X3120Y4118D01*
X3126Y4119D01*
X3132Y4122D01*
X3135Y4128D01*
X3136Y4134D01*
X3135Y4140D01*
X3132Y4145D01*
X3126Y4149D01*
X3120Y4150D02*
G37*
G36*
X2739Y4216D02*
X2733Y4215D01*
X2728Y4211D01*
X2724Y4206D01*
X2723Y4200D01*
X2724Y4193D01*
X2728Y4188D01*
X2733Y4185D01*
X2739Y4183D01*
X2745Y4185D01*
X2751Y4188D01*
X2754Y4193D01*
X2756Y4200D01*
X2754Y4206D01*
X2751Y4211D01*
X2745Y4215D01*
X2739Y4216D02*
G37*
G36*
X2554Y4246D02*
X2499D01*
Y4241D01*
X2494Y4239D01*
X2491Y4240D01*
X2485Y4241D01*
X2479Y4240D01*
X2473Y4237D01*
X2470Y4231D01*
X2469Y4225D01*
X2470Y4219D01*
X2473Y4213D01*
X2479Y4210D01*
X2483Y4209D01*
X2485Y4208D01*
X2490Y4207D01*
X2499D01*
Y4194D01*
X2554D01*
Y4246D02*
G37*
G36*
X3091Y4298D02*
X3084Y4297D01*
X3079Y4293D01*
X3075Y4288D01*
X3074Y4281D01*
X3075Y4275D01*
X3079Y4270D01*
X3084Y4266D01*
X3091Y4265D01*
X3097Y4266D01*
X3102Y4270D01*
X3106Y4275D01*
X3107Y4281D01*
X3106Y4288D01*
X3102Y4293D01*
X3097Y4297D01*
X3091Y4298D02*
G37*
G36*
X3194Y4246D02*
X3139D01*
Y4236D01*
X3134Y4234D01*
X3131Y4235D01*
X3125Y4236D01*
X3119Y4235D01*
X3113Y4232D01*
X3110Y4226D01*
X3109Y4220D01*
X3110Y4214D01*
X3113Y4208D01*
X3119Y4205D01*
X3125Y4204D01*
X3131Y4205D01*
X3134Y4206D01*
X3139Y4204D01*
Y4194D01*
X3194D01*
Y4246D02*
G37*
G36*
X3261D02*
X3206D01*
Y4194D01*
X3261D01*
Y4207D01*
X3265D01*
X3270Y4208D01*
X3272Y4209D01*
X3276Y4210D01*
X3282Y4213D01*
X3285Y4219D01*
X3286Y4225D01*
X3285Y4231D01*
X3282Y4237D01*
X3276Y4240D01*
X3270Y4241D01*
X3266Y4240D01*
X3261Y4244D01*
Y4246D02*
G37*
G36*
X2621D02*
X2566D01*
Y4194D01*
X2621D01*
Y4201D01*
X2626Y4205D01*
X2630Y4204D01*
X2636Y4205D01*
X2642Y4208D01*
X2645Y4214D01*
X2646Y4220D01*
X2645Y4226D01*
X2642Y4232D01*
X2636Y4235D01*
X2630Y4236D01*
X2626Y4235D01*
X2621Y4239D01*
Y4246D02*
G37*
G36*
X4173Y4997D02*
X4167Y4995D01*
X4162Y4992D01*
X4158Y4987D01*
X4157Y4980D01*
X4158Y4974D01*
X4162Y4969D01*
X4167Y4965D01*
X4173Y4964D01*
X4179Y4965D01*
X4185Y4969D01*
X4188Y4974D01*
X4190Y4980D01*
X4188Y4987D01*
X4185Y4992D01*
X4179Y4995D01*
X4173Y4997D02*
G37*
G36*
X4415Y5479D02*
X4400D01*
Y5461D01*
X4415D01*
Y5479D02*
G37*
G36*
X4440D02*
X4425D01*
Y5461D01*
X4440D01*
Y5479D02*
G37*
G36*
X4291Y5469D02*
X4285Y5468D01*
X4280Y5464D01*
X4276Y5459D01*
X4275Y5453D01*
X4276Y5447D01*
X4280Y5441D01*
X4285Y5438D01*
X4291Y5436D01*
X4298Y5438D01*
X4303Y5441D01*
X4306Y5447D01*
X4308Y5453D01*
X4306Y5459D01*
X4303Y5464D01*
X4298Y5468D01*
X4291Y5469D02*
G37*
G36*
X3780D02*
X3773Y5468D01*
X3768Y5464D01*
X3764Y5459D01*
X3763Y5453D01*
X3764Y5447D01*
X3768Y5441D01*
X3773Y5438D01*
X3780Y5436D01*
X3786Y5438D01*
X3791Y5441D01*
X3795Y5447D01*
X3796Y5453D01*
X3795Y5459D01*
X3791Y5464D01*
X3786Y5468D01*
X3780Y5469D02*
G37*
G36*
X4213D02*
X4206Y5468D01*
X4201Y5464D01*
X4198Y5459D01*
X4196Y5453D01*
X4198Y5447D01*
X4201Y5441D01*
X4206Y5438D01*
X4213Y5436D01*
X4219Y5438D01*
X4224Y5441D01*
X4228Y5447D01*
X4229Y5453D01*
X4228Y5459D01*
X4224Y5464D01*
X4219Y5468D01*
X4213Y5469D02*
G37*
G36*
X4390Y5479D02*
X4350D01*
Y5466D01*
X4340D01*
X4337Y5468D01*
X4331Y5469D01*
X4324Y5468D01*
X4319Y5464D01*
X4316Y5459D01*
X4314Y5453D01*
X4316Y5447D01*
X4319Y5441D01*
X4324Y5438D01*
X4331Y5436D01*
X4337Y5438D01*
X4340Y5440D01*
X4350D01*
Y5432D01*
D01*
D01*
D01*
X4350D01*
X4350D01*
X4350Y5432D01*
D01*
Y5427D01*
X4340D01*
X4337Y5428D01*
X4331Y5430D01*
X4324Y5428D01*
X4319Y5425D01*
X4316Y5420D01*
X4314Y5413D01*
X4316Y5407D01*
X4319Y5402D01*
X4324Y5398D01*
X4331Y5397D01*
X4337Y5398D01*
X4340Y5400D01*
X4350D01*
Y5381D01*
X4390D01*
Y5395D01*
X4400D01*
Y5381D01*
X4440D01*
Y5428D01*
X4440Y5428D01*
D01*
D01*
D01*
D01*
D01*
D01*
D01*
D01*
X4440Y5428D01*
Y5429D01*
Y5430D01*
Y5431D01*
Y5432D01*
X4440Y5432D01*
X4440Y5432D01*
X4440D01*
D01*
D01*
X4440D01*
Y5432D01*
Y5451D01*
X4400D01*
Y5432D01*
D01*
D01*
D01*
X4400D01*
X4400D01*
X4400Y5432D01*
Y5428D01*
X4400Y5428D01*
X4400Y5428D01*
Y5428D01*
D01*
Y5414D01*
X4390D01*
Y5428D01*
X4390Y5428D01*
D01*
D01*
D01*
D01*
D01*
X4390Y5428D01*
Y5429D01*
Y5430D01*
Y5431D01*
Y5432D01*
X4390Y5432D01*
X4390Y5432D01*
X4390D01*
D01*
D01*
X4390D01*
Y5432D01*
Y5479D02*
G37*
G36*
X4094Y5548D02*
X4088Y5547D01*
X4083Y5543D01*
X4079Y5538D01*
X4078Y5531D01*
X4079Y5525D01*
X4083Y5520D01*
X4088Y5516D01*
X4094Y5515D01*
X4101Y5516D01*
X4106Y5520D01*
X4110Y5525D01*
X4111Y5530D01*
X4111D01*
Y5530D01*
X4117D01*
X4118Y5524D01*
X4121Y5519D01*
X4127Y5515D01*
X4133Y5514D01*
Y5508D01*
X4133D01*
Y5508D01*
X4128Y5507D01*
X4122Y5504D01*
X4119Y5498D01*
X4118Y5492D01*
X4119Y5486D01*
X4119Y5485D01*
X4117Y5481D01*
X4111D01*
X4109Y5485D01*
X4110Y5486D01*
X4111Y5492D01*
X4110Y5498D01*
X4106Y5504D01*
X4101Y5507D01*
X4094Y5508D01*
X4088Y5507D01*
X4083Y5504D01*
X4079Y5498D01*
X4078Y5492D01*
X4079Y5486D01*
X4080Y5485D01*
X4078Y5481D01*
X4072D01*
X4070Y5485D01*
X4070Y5486D01*
X4071Y5492D01*
X4070Y5498D01*
X4067Y5504D01*
X4061Y5507D01*
X4055Y5508D01*
X4049Y5507D01*
X4044Y5504D01*
X4040Y5498D01*
X4039Y5492D01*
X4040Y5486D01*
X4044Y5481D01*
X4049Y5477D01*
X4051Y5477D01*
Y5440D01*
X4055D01*
X4057Y5437D01*
X4054Y5432D01*
X4048Y5430D01*
X4042Y5426D01*
X4038Y5421D01*
X4032D01*
X4029Y5426D01*
X4023Y5430D01*
X4019Y5431D01*
Y5440D01*
X4029D01*
Y5480D01*
D01*
X4029D01*
Y5480D01*
X4029D01*
X4029D01*
X4029Y5484D01*
X4031Y5486D01*
X4032Y5492D01*
X4031Y5498D01*
X4027Y5504D01*
X4022Y5507D01*
X4016Y5508D01*
X4010Y5507D01*
X4004Y5504D01*
X4001Y5498D01*
X3999Y5492D01*
X4001Y5486D01*
X4001Y5485D01*
X3998Y5480D01*
X3982D01*
X3982Y5480D01*
D01*
D01*
D01*
X3982Y5480D01*
X3982Y5480D01*
X3980D01*
X3978D01*
X3978Y5480D01*
Y5480D01*
Y5480D01*
D01*
D01*
D01*
X3967D01*
X3967Y5480D01*
X3964Y5484D01*
X3953Y5495D01*
X3952Y5498D01*
X3949Y5504D01*
X3943Y5507D01*
X3937Y5508D01*
X3931Y5507D01*
X3925Y5504D01*
X3922Y5498D01*
X3921Y5492D01*
X3922Y5486D01*
X3925Y5481D01*
X3931Y5477D01*
Y5440D01*
X3978D01*
D01*
X3978Y5440D01*
X3978Y5440D01*
Y5440D01*
X3978D01*
X3982D01*
X3982Y5440D01*
Y5440D01*
X3982D01*
D01*
D01*
X3982Y5440D01*
D01*
X3992D01*
Y5431D01*
X3987Y5428D01*
X3983Y5430D01*
X3976Y5432D01*
X3969Y5430D01*
X3963Y5426D01*
X3960Y5421D01*
X3954D01*
X3950Y5426D01*
X3944Y5430D01*
X3937Y5432D01*
X3930Y5430D01*
X3924Y5426D01*
X3920Y5421D01*
X3914D01*
X3911Y5426D01*
X3905Y5430D01*
X3899Y5432D01*
Y5440D01*
X3909D01*
Y5480D01*
D01*
X3909D01*
Y5480D01*
Y5480D01*
Y5480D01*
X3909Y5481D01*
X3909Y5481D01*
X3913Y5486D01*
X3914Y5492D01*
X3913Y5498D01*
X3909Y5504D01*
X3904Y5507D01*
X3898Y5508D01*
X3891Y5507D01*
X3886Y5504D01*
X3883Y5498D01*
X3881Y5492D01*
X3883Y5486D01*
X3883Y5485D01*
X3881Y5481D01*
X3875D01*
X3873Y5485D01*
X3873Y5486D01*
X3875Y5492D01*
X3873Y5498D01*
X3870Y5504D01*
X3865Y5507D01*
X3858Y5508D01*
X3852Y5507D01*
X3847Y5504D01*
X3843Y5498D01*
X3842Y5495D01*
X3839Y5494D01*
X3834Y5497D01*
X3834Y5498D01*
X3830Y5504D01*
X3825Y5507D01*
X3820Y5508D01*
Y5508D01*
X3820D01*
Y5514D01*
X3826Y5515D01*
X3831Y5519D01*
X3835Y5524D01*
X3836Y5531D01*
X3835Y5537D01*
X3831Y5542D01*
X3826Y5546D01*
X3820Y5547D01*
X3814Y5546D01*
X3808Y5542D01*
X3805Y5537D01*
X3804Y5531D01*
X3805Y5524D01*
X3808Y5519D01*
X3814Y5515D01*
X3819Y5514D01*
Y5514D01*
X3819D01*
Y5508D01*
X3813Y5507D01*
X3807Y5504D01*
X3804Y5498D01*
X3803Y5492D01*
X3804Y5486D01*
X3807Y5481D01*
X3811Y5478D01*
Y5440D01*
X3858D01*
D01*
Y5440D01*
X3858D01*
X3858Y5440D01*
X3862D01*
Y5440D01*
X3872D01*
Y5432D01*
X3867Y5429D01*
X3865Y5430D01*
X3858Y5432D01*
X3851Y5430D01*
X3845Y5426D01*
X3841Y5420D01*
X3841Y5419D01*
X3840D01*
X3840D01*
X3836Y5419D01*
Y5419D01*
D01*
D01*
D01*
X3836D01*
Y5419D01*
X3800D01*
D01*
Y5419D01*
X3800D01*
Y5419D01*
Y5419D01*
X3795D01*
X3795Y5420D01*
X3791Y5425D01*
X3786Y5428D01*
X3780Y5430D01*
X3773Y5428D01*
X3768Y5425D01*
X3764Y5420D01*
X3763Y5413D01*
X3764Y5407D01*
X3768Y5402D01*
X3773Y5398D01*
X3775Y5398D01*
X3778Y5393D01*
X3777Y5390D01*
X3773Y5389D01*
X3768Y5386D01*
X3764Y5380D01*
X3763Y5374D01*
X3764Y5368D01*
X3768Y5362D01*
X3773Y5359D01*
X3780Y5358D01*
X3786Y5359D01*
X3791Y5362D01*
X3794Y5368D01*
X3800Y5366D01*
Y5343D01*
X3794Y5341D01*
X3791Y5346D01*
X3786Y5350D01*
X3780Y5351D01*
X3773Y5350D01*
X3768Y5346D01*
X3764Y5341D01*
X3763Y5335D01*
X3764Y5328D01*
X3768Y5323D01*
X3773Y5320D01*
X3780Y5318D01*
X3786Y5320D01*
X3791Y5323D01*
X3794Y5328D01*
X3800Y5326D01*
Y5321D01*
X3840D01*
Y5321D01*
X3841Y5328D01*
X3845Y5322D01*
X3851Y5318D01*
Y5312D01*
X3845Y5308D01*
X3841Y5302D01*
X3840Y5295D01*
X3841Y5288D01*
X3845Y5282D01*
X3851Y5279D01*
Y5273D01*
X3845Y5269D01*
X3840Y5273D01*
Y5279D01*
X3800D01*
Y5264D01*
X3794Y5262D01*
X3791Y5267D01*
X3786Y5271D01*
X3780Y5272D01*
X3773Y5271D01*
X3768Y5267D01*
X3764Y5262D01*
X3763Y5256D01*
X3764Y5250D01*
X3768Y5244D01*
X3773Y5241D01*
X3780Y5240D01*
X3786Y5241D01*
X3791Y5244D01*
X3794Y5249D01*
X3800Y5248D01*
Y5232D01*
D01*
D01*
D01*
X3800D01*
X3800D01*
X3800Y5232D01*
Y5228D01*
X3800Y5228D01*
X3800Y5228D01*
Y5228D01*
D01*
Y5225D01*
X3794Y5223D01*
X3791Y5228D01*
X3786Y5232D01*
X3780Y5233D01*
X3773Y5232D01*
X3768Y5228D01*
X3764Y5223D01*
X3763Y5217D01*
X3764Y5210D01*
X3768Y5205D01*
X3773Y5201D01*
X3777Y5201D01*
X3778Y5198D01*
X3775Y5193D01*
X3773Y5192D01*
X3768Y5189D01*
X3764Y5183D01*
X3763Y5177D01*
X3764Y5171D01*
X3768Y5166D01*
X3773Y5162D01*
X3780Y5161D01*
X3786Y5162D01*
X3791Y5166D01*
X3795Y5171D01*
X3795Y5174D01*
X3802Y5181D01*
X3822D01*
X3840Y5177D01*
X3840Y5177D01*
X3841Y5170D01*
X3845Y5165D01*
X3842Y5160D01*
X3801D01*
Y5153D01*
X3784D01*
X3780Y5154D01*
X3773Y5153D01*
X3768Y5149D01*
X3764Y5144D01*
X3763Y5138D01*
X3764Y5132D01*
X3768Y5126D01*
X3773Y5123D01*
X3780Y5121D01*
X3786Y5123D01*
X3791Y5126D01*
X3791Y5127D01*
X3801D01*
Y5120D01*
X3816D01*
X3816Y5120D01*
X3816D01*
X3816Y5114D01*
X3813Y5113D01*
X3807Y5110D01*
X3804Y5105D01*
X3803Y5098D01*
X3804Y5092D01*
X3807Y5087D01*
X3813Y5083D01*
X3819Y5082D01*
X3825Y5083D01*
X3830Y5087D01*
X3834Y5092D01*
X3835Y5098D01*
X3834Y5105D01*
X3830Y5110D01*
X3825Y5113D01*
X3821Y5114D01*
X3822Y5120D01*
X3822D01*
X3822Y5120D01*
X3848D01*
Y5120D01*
X3852D01*
X3852Y5120D01*
Y5120D01*
X3852D01*
D01*
D01*
X3852Y5120D01*
D01*
X3855D01*
X3855Y5120D01*
X3855D01*
X3856Y5114D01*
X3852Y5113D01*
X3847Y5110D01*
X3843Y5105D01*
X3842Y5098D01*
X3843Y5092D01*
X3847Y5087D01*
X3852Y5083D01*
X3858Y5082D01*
X3865Y5083D01*
X3870Y5087D01*
X3873Y5092D01*
X3875Y5098D01*
X3873Y5105D01*
X3870Y5110D01*
X3865Y5113D01*
X3861Y5114D01*
X3861Y5120D01*
X3861D01*
X3861Y5120D01*
X3895D01*
X3895Y5120D01*
D01*
X3895Y5114D01*
X3891Y5113D01*
X3886Y5110D01*
X3883Y5105D01*
X3881Y5098D01*
X3883Y5092D01*
X3886Y5087D01*
X3891Y5083D01*
X3898Y5082D01*
X3904Y5083D01*
X3909Y5087D01*
X3913Y5092D01*
X3914Y5098D01*
X3913Y5105D01*
X3909Y5110D01*
X3904Y5113D01*
X3899Y5114D01*
Y5120D01*
X3899D01*
Y5121D01*
X3899D01*
Y5159D01*
X3905Y5160D01*
X3911Y5164D01*
X3914Y5170D01*
X3920D01*
X3924Y5164D01*
X3930Y5160D01*
X3931Y5160D01*
X3931Y5160D01*
X3931Y5160D01*
X3931Y5160D01*
Y5160D01*
X3931D01*
D01*
Y5120D01*
X3932D01*
X3935Y5115D01*
X3931Y5113D01*
X3931D01*
X3925Y5110D01*
X3922Y5105D01*
X3921Y5098D01*
X3922Y5092D01*
X3925Y5087D01*
X3931Y5083D01*
X3937Y5082D01*
X3943Y5083D01*
X3949Y5087D01*
X3952Y5092D01*
X3953Y5095D01*
X3964Y5106D01*
X3967Y5111D01*
X3968Y5116D01*
Y5120D01*
X3978D01*
D01*
Y5120D01*
X3978D01*
X3978Y5120D01*
X3982D01*
Y5120D01*
X4013D01*
X4013Y5120D01*
X4013D01*
X4013Y5114D01*
X4010Y5113D01*
X4004Y5110D01*
X4001Y5105D01*
X3999Y5098D01*
X4001Y5092D01*
X4004Y5087D01*
X4010Y5083D01*
X4016Y5082D01*
X4022Y5083D01*
X4027Y5087D01*
X4031Y5092D01*
X4032Y5098D01*
X4031Y5105D01*
X4027Y5110D01*
X4022Y5113D01*
X4018Y5114D01*
X4019Y5120D01*
X4019D01*
X4019Y5120D01*
X4029D01*
Y5160D01*
X4029D01*
X4023Y5160D01*
X4029Y5164D01*
X4032Y5170D01*
X4038D01*
X4042Y5164D01*
X4048Y5160D01*
X4051Y5160D01*
Y5120D01*
X4052D01*
X4052Y5120D01*
X4052D01*
X4053Y5114D01*
X4049Y5113D01*
X4044Y5110D01*
X4040Y5105D01*
X4039Y5098D01*
X4040Y5092D01*
X4044Y5087D01*
X4049Y5083D01*
X4055Y5082D01*
X4061Y5083D01*
X4067Y5087D01*
X4070Y5092D01*
X4071Y5098D01*
X4070Y5105D01*
X4067Y5110D01*
X4061Y5113D01*
X4058Y5114D01*
X4058Y5120D01*
X4058D01*
X4058Y5120D01*
X4091D01*
X4092Y5114D01*
X4088Y5113D01*
X4083Y5110D01*
X4079Y5105D01*
X4078Y5098D01*
X4079Y5092D01*
X4083Y5087D01*
X4088Y5083D01*
X4094Y5082D01*
X4101Y5083D01*
X4106Y5087D01*
X4110Y5092D01*
X4110Y5096D01*
X4113Y5097D01*
X4118Y5094D01*
X4119Y5092D01*
X4122Y5087D01*
X4128Y5083D01*
X4134Y5082D01*
X4140Y5083D01*
X4145Y5087D01*
X4149Y5092D01*
X4150Y5098D01*
X4149Y5105D01*
X4145Y5110D01*
X4140Y5113D01*
X4137Y5114D01*
Y5120D01*
X4149D01*
Y5160D01*
X4129D01*
X4129Y5160D01*
X4124Y5161D01*
X4119Y5160D01*
X4119Y5160D01*
X4111D01*
X4108Y5165D01*
X4111Y5170D01*
X4113Y5177D01*
X4116Y5181D01*
X4150D01*
Y5228D01*
X4150Y5228D01*
D01*
D01*
D01*
D01*
D01*
X4150Y5228D01*
Y5229D01*
Y5230D01*
Y5231D01*
Y5232D01*
X4150Y5232D01*
X4150Y5232D01*
X4150D01*
X4150Y5232D01*
Y5242D01*
X4165D01*
X4167Y5241D01*
X4173Y5240D01*
X4179Y5241D01*
X4185Y5244D01*
X4188Y5250D01*
X4190Y5256D01*
X4188Y5262D01*
X4185Y5267D01*
X4179Y5271D01*
X4173Y5272D01*
X4167Y5271D01*
X4164Y5269D01*
X4150D01*
Y5279D01*
X4112D01*
X4109Y5285D01*
X4111Y5288D01*
X4113Y5295D01*
X4111Y5302D01*
X4107Y5308D01*
X4102Y5312D01*
Y5318D01*
X4107Y5322D01*
X4110Y5321D01*
Y5321D01*
X4150D01*
Y5368D01*
D01*
Y5368D01*
X4150Y5368D01*
Y5372D01*
X4150D01*
Y5378D01*
X4155Y5380D01*
X4156Y5380D01*
X4157Y5374D01*
X4157Y5374D01*
X4158Y5368D01*
X4162Y5362D01*
X4167Y5359D01*
X4173Y5358D01*
X4179Y5359D01*
X4185Y5362D01*
X4188Y5368D01*
X4190Y5374D01*
X4188Y5380D01*
X4185Y5386D01*
X4179Y5389D01*
X4173Y5390D01*
X4172Y5393D01*
X4176Y5398D01*
X4179Y5398D01*
X4185Y5402D01*
X4188Y5407D01*
X4190Y5413D01*
X4188Y5420D01*
X4185Y5425D01*
X4179Y5428D01*
X4173Y5430D01*
X4167Y5428D01*
X4162Y5425D01*
X4158Y5420D01*
X4158Y5418D01*
X4153Y5415D01*
X4150Y5417D01*
Y5419D01*
X4112D01*
X4111Y5420D01*
X4107Y5426D01*
X4102Y5430D01*
X4094Y5432D01*
X4093Y5432D01*
X4092Y5432D01*
X4088Y5435D01*
Y5440D01*
X4098D01*
D01*
Y5440D01*
X4098D01*
X4098Y5440D01*
X4102D01*
Y5440D01*
X4149D01*
Y5447D01*
X4158D01*
X4158Y5447D01*
X4162Y5441D01*
X4167Y5438D01*
X4173Y5436D01*
X4179Y5438D01*
X4185Y5441D01*
X4188Y5447D01*
X4190Y5453D01*
X4188Y5459D01*
X4185Y5464D01*
X4179Y5468D01*
X4176Y5468D01*
X4175Y5469D01*
X4172Y5471D01*
X4173Y5476D01*
X4179Y5477D01*
X4185Y5481D01*
X4188Y5486D01*
X4190Y5492D01*
X4188Y5498D01*
X4185Y5504D01*
X4179Y5507D01*
X4173Y5508D01*
X4167Y5507D01*
X4162Y5504D01*
X4158Y5498D01*
X4157Y5492D01*
X4158Y5486D01*
X4162Y5481D01*
X4164Y5479D01*
X4162Y5473D01*
X4149D01*
Y5480D01*
X4149D01*
X4145Y5481D01*
X4145D01*
X4145Y5481D01*
X4149Y5486D01*
X4150Y5492D01*
X4149Y5498D01*
X4145Y5504D01*
X4140Y5507D01*
X4134Y5508D01*
Y5514D01*
X4134D01*
Y5514D01*
X4139Y5515D01*
X4144Y5519D01*
X4148Y5524D01*
X4149Y5531D01*
X4148Y5537D01*
X4144Y5542D01*
X4139Y5546D01*
X4133Y5547D01*
X4127Y5546D01*
X4121Y5542D01*
X4118Y5537D01*
X4117Y5532D01*
X4117D01*
Y5532D01*
X4111D01*
X4110Y5538D01*
X4106Y5543D01*
X4101Y5547D01*
X4094Y5548D02*
G37*
G36*
X4331Y5548D02*
X4324Y5547D01*
X4319Y5543D01*
X4316Y5538D01*
X4314Y5531D01*
X4316Y5525D01*
X4319Y5520D01*
X4324Y5516D01*
X4331Y5515D01*
X4337Y5516D01*
X4342Y5520D01*
X4346Y5525D01*
X4347Y5531D01*
X4346Y5538D01*
X4342Y5543D01*
X4337Y5547D01*
X4331Y5548D02*
G37*
G36*
Y5508D02*
X4324Y5507D01*
X4319Y5504D01*
X4316Y5498D01*
X4314Y5492D01*
X4316Y5486D01*
X4319Y5481D01*
X4324Y5477D01*
X4331Y5476D01*
X4337Y5477D01*
X4342Y5481D01*
X4346Y5486D01*
X4347Y5492D01*
X4346Y5498D01*
X4342Y5504D01*
X4337Y5507D01*
X4331Y5508D02*
G37*
G36*
X3780D02*
X3773Y5507D01*
X3768Y5504D01*
X3764Y5498D01*
X3763Y5492D01*
X3764Y5486D01*
X3768Y5481D01*
X3773Y5477D01*
X3780Y5476D01*
X3786Y5477D01*
X3791Y5481D01*
X3795Y5486D01*
X3796Y5492D01*
X3795Y5498D01*
X3791Y5504D01*
X3786Y5507D01*
X3780Y5508D02*
G37*
G36*
X4290Y5547D02*
X4284Y5546D01*
X4279Y5542D01*
X4275Y5537D01*
X4274Y5531D01*
X4275Y5524D01*
X4279Y5519D01*
X4284Y5515D01*
X4290Y5514D01*
Y5508D01*
X4290D01*
Y5508D01*
X4285Y5507D01*
X4280Y5504D01*
X4276Y5498D01*
X4275Y5492D01*
X4276Y5486D01*
X4280Y5481D01*
X4285Y5477D01*
X4291Y5476D01*
X4298Y5477D01*
X4303Y5481D01*
X4306Y5486D01*
X4308Y5492D01*
X4306Y5498D01*
X4303Y5504D01*
X4298Y5507D01*
X4291Y5508D01*
Y5514D01*
X4291D01*
Y5514D01*
X4297Y5515D01*
X4302Y5519D01*
X4305Y5524D01*
X4307Y5531D01*
X4305Y5537D01*
X4302Y5542D01*
X4297Y5546D01*
X4290Y5547D02*
G37*
G36*
X3740Y5469D02*
X3734Y5468D01*
X3729Y5464D01*
X3725Y5459D01*
X3724Y5453D01*
X3725Y5447D01*
X3729Y5441D01*
X3734Y5438D01*
X3740Y5436D01*
X3746Y5438D01*
X3752Y5441D01*
X3755Y5447D01*
X3756Y5453D01*
X3755Y5459D01*
X3752Y5464D01*
X3746Y5468D01*
X3740Y5469D02*
G37*
G36*
X4291Y5312D02*
X4285Y5310D01*
X4280Y5307D01*
X4276Y5302D01*
X4275Y5295D01*
X4276Y5289D01*
X4280Y5284D01*
X4285Y5280D01*
X4291Y5279D01*
X4298Y5280D01*
X4303Y5284D01*
X4306Y5289D01*
X4308Y5295D01*
X4306Y5302D01*
X4303Y5307D01*
X4298Y5310D01*
X4291Y5312D02*
G37*
G36*
X4331D02*
X4324Y5310D01*
X4319Y5307D01*
X4316Y5302D01*
X4314Y5295D01*
X4316Y5289D01*
X4319Y5284D01*
X4324Y5280D01*
X4331Y5279D01*
X4337Y5280D01*
X4342Y5284D01*
X4346Y5289D01*
X4347Y5295D01*
X4346Y5302D01*
X4342Y5307D01*
X4337Y5310D01*
X4331Y5312D02*
G37*
G36*
X3701D02*
X3695Y5310D01*
X3689Y5307D01*
X3686Y5302D01*
X3684Y5295D01*
X3686Y5289D01*
X3689Y5284D01*
X3695Y5280D01*
X3701Y5279D01*
X3707Y5280D01*
X3712Y5284D01*
X3716Y5289D01*
X3717Y5295D01*
X3716Y5302D01*
X3712Y5307D01*
X3707Y5310D01*
X3701Y5312D02*
G37*
G36*
X4331Y5272D02*
X4324Y5271D01*
X4319Y5267D01*
X4316Y5262D01*
X4314Y5256D01*
X4316Y5250D01*
X4319Y5244D01*
X4324Y5241D01*
X4331Y5240D01*
X4337Y5241D01*
X4342Y5244D01*
X4346Y5250D01*
X4347Y5256D01*
X4346Y5262D01*
X4342Y5267D01*
X4337Y5271D01*
X4331Y5272D02*
G37*
G36*
X2805Y5317D02*
X2797Y5315D01*
X2790Y5310D01*
X2785Y5303D01*
X2784Y5295D01*
X2785Y5287D01*
X2790Y5280D01*
X2797Y5275D01*
X2805Y5274D01*
X2813Y5275D01*
X2820Y5280D01*
X2825Y5287D01*
X2827Y5295D01*
X2825Y5303D01*
X2820Y5310D01*
X2813Y5315D01*
X2805Y5317D02*
G37*
G36*
X4173Y5351D02*
X4167Y5350D01*
X4162Y5346D01*
X4158Y5341D01*
X4157Y5335D01*
X4158Y5328D01*
X4162Y5323D01*
X4167Y5320D01*
X4173Y5318D01*
X4179Y5320D01*
X4185Y5323D01*
X4188Y5328D01*
X4190Y5335D01*
X4188Y5341D01*
X4185Y5346D01*
X4179Y5350D01*
X4173Y5351D02*
G37*
G36*
X3600Y5439D02*
X3560D01*
Y5392D01*
D01*
D01*
D01*
X3560D01*
X3560D01*
X3560Y5392D01*
Y5388D01*
X3560Y5388D01*
X3560Y5388D01*
Y5388D01*
D01*
Y5341D01*
X3600D01*
Y5351D01*
X3612D01*
X3618Y5352D01*
X3622Y5355D01*
X3625Y5358D01*
X3628Y5359D01*
X3634Y5362D01*
X3637Y5368D01*
X3638Y5374D01*
X3637Y5380D01*
X3634Y5386D01*
X3628Y5389D01*
X3622Y5390D01*
X3616Y5389D01*
X3611Y5386D01*
X3607Y5380D01*
X3606Y5378D01*
X3600D01*
Y5388D01*
X3600Y5388D01*
D01*
D01*
D01*
D01*
D01*
D01*
D01*
D01*
X3600Y5388D01*
Y5389D01*
Y5390D01*
Y5391D01*
Y5392D01*
X3600Y5392D01*
X3600Y5392D01*
X3600D01*
D01*
D01*
X3600D01*
Y5392D01*
Y5402D01*
X3610D01*
X3611Y5402D01*
X3616Y5398D01*
X3622Y5397D01*
X3628Y5398D01*
X3634Y5402D01*
X3637Y5407D01*
X3638Y5413D01*
X3637Y5420D01*
X3634Y5425D01*
X3628Y5428D01*
X3622Y5430D01*
X3618Y5429D01*
X3600D01*
Y5439D02*
G37*
G36*
X4291Y5430D02*
X4285Y5428D01*
X4280Y5425D01*
X4276Y5420D01*
X4275Y5413D01*
X4276Y5407D01*
X4280Y5402D01*
X4285Y5398D01*
X4291Y5397D01*
X4298Y5398D01*
X4303Y5402D01*
X4306Y5407D01*
X4308Y5413D01*
X4306Y5420D01*
X4303Y5425D01*
X4298Y5428D01*
X4291Y5430D02*
G37*
G36*
X3435Y5390D02*
X3429Y5389D01*
X3424Y5386D01*
X3420Y5380D01*
X3419Y5374D01*
X3419Y5371D01*
X3414Y5368D01*
X3412Y5369D01*
X3406Y5371D01*
X3399Y5369D01*
X3394Y5366D01*
X3390Y5361D01*
X3389Y5354D01*
X3390Y5351D01*
X3385Y5348D01*
X3382Y5350D01*
X3376Y5351D01*
X3370Y5350D01*
X3364Y5346D01*
X3361Y5341D01*
X3360Y5335D01*
X3361Y5328D01*
X3364Y5323D01*
X3370Y5320D01*
X3376Y5318D01*
X3382Y5320D01*
X3388Y5323D01*
X3391Y5328D01*
X3392Y5335D01*
X3392Y5338D01*
X3397Y5341D01*
X3399Y5339D01*
X3406Y5338D01*
X3412Y5339D01*
X3417Y5343D01*
X3421Y5348D01*
X3422Y5354D01*
X3421Y5357D01*
X3426Y5361D01*
X3429Y5359D01*
X3435Y5358D01*
X3441Y5359D01*
X3447Y5362D01*
X3450Y5368D01*
X3451Y5374D01*
X3450Y5380D01*
X3447Y5386D01*
X3441Y5389D01*
X3435Y5390D02*
G37*
G36*
X4291Y5351D02*
X4285Y5350D01*
X4280Y5346D01*
X4276Y5341D01*
X4275Y5335D01*
X4276Y5328D01*
X4280Y5323D01*
X4285Y5320D01*
X4291Y5318D01*
X4298Y5320D01*
X4303Y5323D01*
X4306Y5328D01*
X4308Y5335D01*
X4306Y5341D01*
X4303Y5346D01*
X4298Y5350D01*
X4291Y5351D02*
G37*
G36*
X4331D02*
X4324Y5350D01*
X4319Y5346D01*
X4316Y5341D01*
X4314Y5335D01*
X4316Y5328D01*
X4319Y5323D01*
X4324Y5320D01*
X4331Y5318D01*
X4337Y5320D01*
X4342Y5323D01*
X4346Y5328D01*
X4347Y5335D01*
X4346Y5341D01*
X4342Y5346D01*
X4337Y5350D01*
X4331Y5351D02*
G37*
G36*
X3495Y5539D02*
X3480D01*
Y5521D01*
X3495D01*
Y5539D02*
G37*
G36*
X4199Y5710D02*
X4181D01*
Y5695D01*
X4199D01*
Y5710D02*
G37*
G36*
X4232Y5710D02*
D01*
X4232Y5710D01*
X4232Y5710D01*
X4230D01*
X4228D01*
X4228Y5710D01*
Y5710D01*
Y5710D01*
D01*
D01*
D01*
X4209D01*
Y5690D01*
Y5670D01*
X4228D01*
D01*
X4228Y5670D01*
X4228Y5670D01*
Y5670D01*
X4228D01*
X4232D01*
X4232Y5670D01*
Y5670D01*
X4232D01*
D01*
D01*
X4232Y5670D01*
D01*
X4242D01*
Y5662D01*
X4240Y5661D01*
X4237Y5656D01*
X4236Y5650D01*
X4237Y5643D01*
X4240Y5638D01*
X4246Y5635D01*
X4252Y5633D01*
X4258Y5635D01*
X4264Y5638D01*
X4267Y5643D01*
X4268Y5650D01*
X4268Y5650D01*
X4269Y5653D01*
Y5670D01*
X4279D01*
Y5710D01*
X4232D01*
X4232Y5710D01*
D01*
D02*
G37*
G36*
X3445Y5725D02*
X3439Y5724D01*
X3433Y5720D01*
X3430Y5715D01*
X3429Y5709D01*
X3430Y5702D01*
X3433Y5697D01*
X3439Y5694D01*
X3445Y5692D01*
X3451Y5694D01*
X3456Y5697D01*
X3460Y5702D01*
X3461Y5709D01*
X3460Y5715D01*
X3456Y5720D01*
X3451Y5724D01*
X3445Y5725D02*
G37*
G36*
X3583Y5705D02*
X3576Y5704D01*
X3571Y5701D01*
X3568Y5695D01*
X3566Y5689D01*
X3568Y5683D01*
X3571Y5677D01*
X3576Y5674D01*
X3583Y5673D01*
X3589Y5674D01*
X3594Y5677D01*
X3598Y5683D01*
X3599Y5689D01*
X3598Y5695D01*
X3594Y5701D01*
X3589Y5704D01*
X3583Y5705D02*
G37*
G36*
X3406Y5715D02*
X3399Y5714D01*
X3394Y5710D01*
X3390Y5705D01*
X3389Y5699D01*
X3390Y5693D01*
X3394Y5687D01*
X3399Y5684D01*
X3406Y5683D01*
X3412Y5684D01*
X3417Y5687D01*
X3421Y5693D01*
X3422Y5699D01*
X3421Y5705D01*
X3417Y5710D01*
X3412Y5714D01*
X3406Y5715D02*
G37*
G36*
X3543Y5745D02*
X3537Y5743D01*
X3532Y5740D01*
X3528Y5735D01*
X3527Y5728D01*
X3528Y5722D01*
X3532Y5717D01*
X3537Y5713D01*
X3543Y5712D01*
X3550Y5713D01*
X3555Y5717D01*
X3558Y5722D01*
X3560Y5728D01*
X3558Y5735D01*
X3555Y5740D01*
X3550Y5743D01*
X3543Y5745D02*
G37*
G36*
X3189Y5799D02*
X3181Y5797D01*
X3174Y5793D01*
X3169Y5786D01*
X3168Y5778D01*
X3169Y5769D01*
X3174Y5762D01*
X3181Y5758D01*
X3189Y5756D01*
X3197Y5758D01*
X3204Y5762D01*
X3209Y5769D01*
X3210Y5778D01*
X3209Y5786D01*
X3204Y5793D01*
X3197Y5797D01*
X3189Y5799D02*
G37*
G36*
X3355Y5800D02*
X3347Y5798D01*
X3340Y5794D01*
X3336Y5787D01*
X3334Y5778D01*
X3336Y5770D01*
X3340Y5763D01*
X3347Y5759D01*
X3355Y5757D01*
X3364Y5759D01*
X3371Y5763D01*
X3375Y5770D01*
X3377Y5778D01*
X3375Y5787D01*
X3371Y5794D01*
X3364Y5798D01*
X3355Y5800D02*
G37*
G36*
X3739Y5770D02*
X3721D01*
Y5755D01*
X3739D01*
Y5770D02*
G37*
G36*
X3620Y5771D02*
X3612Y5770D01*
X3605Y5765D01*
X3600Y5758D01*
X3599Y5750D01*
X3600Y5742D01*
X3605Y5735D01*
X3612Y5730D01*
X3620Y5729D01*
X3628Y5730D01*
X3635Y5735D01*
X3641Y5731D01*
Y5730D01*
X3688D01*
Y5730D01*
X3692D01*
X3692Y5730D01*
Y5730D01*
X3692D01*
D01*
D01*
X3692Y5730D01*
D01*
X3711D01*
Y5750D01*
Y5770D01*
X3692D01*
X3692Y5770D01*
D01*
D01*
D01*
X3692Y5770D01*
X3692Y5770D01*
X3690D01*
X3688D01*
X3688Y5770D01*
Y5770D01*
Y5770D01*
D01*
D01*
D01*
X3641D01*
Y5769D01*
X3635Y5765D01*
X3628Y5770D01*
X3620Y5771D02*
G37*
G36*
X3739Y5745D02*
X3721D01*
Y5730D01*
X3739D01*
Y5745D02*
G37*
G36*
X4370Y5705D02*
X4364Y5704D01*
X4359Y5701D01*
X4355Y5695D01*
X4354Y5689D01*
X4355Y5683D01*
X4359Y5677D01*
X4364Y5674D01*
X4370Y5673D01*
X4376Y5674D01*
X4382Y5677D01*
X4385Y5683D01*
X4386Y5689D01*
X4385Y5695D01*
X4382Y5701D01*
X4376Y5704D01*
X4370Y5705D02*
G37*
G36*
X3189Y5602D02*
X3181Y5600D01*
X3174Y5596D01*
X3169Y5589D01*
X3168Y5581D01*
X3169Y5573D01*
X3174Y5566D01*
X3181Y5561D01*
X3189Y5559D01*
X3197Y5561D01*
X3204Y5566D01*
X3209Y5573D01*
X3210Y5581D01*
X3209Y5589D01*
X3204Y5596D01*
X3197Y5600D01*
X3189Y5602D02*
G37*
G36*
X3346Y5603D02*
X3337Y5601D01*
X3330Y5597D01*
X3326Y5590D01*
X3324Y5582D01*
X3326Y5573D01*
X3330Y5566D01*
X3337Y5562D01*
X3346Y5560D01*
X3354Y5562D01*
X3361Y5566D01*
X3365Y5573D01*
X3367Y5582D01*
X3365Y5590D01*
X3361Y5597D01*
X3354Y5601D01*
X3346Y5603D02*
G37*
G36*
X4331Y5587D02*
X4324Y5586D01*
X4319Y5582D01*
X4316Y5577D01*
X4314Y5571D01*
X4316Y5565D01*
X4319Y5559D01*
X4324Y5556D01*
X4331Y5555D01*
X4337Y5556D01*
X4342Y5559D01*
X4346Y5565D01*
X4347Y5571D01*
X4346Y5577D01*
X4342Y5582D01*
X4337Y5586D01*
X4331Y5587D02*
G37*
G36*
X3520Y5539D02*
X3505D01*
Y5521D01*
X3520D01*
Y5539D02*
G37*
G36*
X4291Y5587D02*
X4285Y5586D01*
X4280Y5582D01*
X4276Y5577D01*
X4275Y5571D01*
X4276Y5565D01*
X4280Y5559D01*
X4285Y5556D01*
X4291Y5555D01*
X4298Y5556D01*
X4303Y5559D01*
X4306Y5565D01*
X4308Y5571D01*
X4306Y5577D01*
X4303Y5582D01*
X4298Y5586D01*
X4291Y5587D02*
G37*
G36*
X4291Y5627D02*
X4285Y5625D01*
X4280Y5622D01*
X4276Y5616D01*
X4275Y5610D01*
X4276Y5604D01*
X4280Y5599D01*
X4285Y5595D01*
X4291Y5594D01*
X4298Y5595D01*
X4303Y5599D01*
X4306Y5604D01*
X4308Y5610D01*
X4306Y5616D01*
X4303Y5622D01*
X4298Y5625D01*
X4291Y5627D02*
G37*
G36*
X3524Y5686D02*
X3517Y5684D01*
X3512Y5681D01*
X3509Y5676D01*
X3507Y5669D01*
X3509Y5663D01*
X3512Y5658D01*
X3517Y5654D01*
X3524Y5653D01*
X3530Y5654D01*
X3535Y5658D01*
X3539Y5663D01*
X3540Y5669D01*
X3539Y5676D01*
X3535Y5681D01*
X3530Y5684D01*
X3524Y5686D02*
G37*
G36*
X4199Y5685D02*
X4181D01*
Y5670D01*
X4199D01*
Y5685D02*
G37*
G36*
X3366Y5656D02*
X3360Y5655D01*
X3355Y5651D01*
X3351Y5646D01*
X3350Y5640D01*
X3351Y5634D01*
X3355Y5628D01*
X3360Y5625D01*
X3366Y5623D01*
X3372Y5625D01*
X3378Y5628D01*
X3381Y5634D01*
X3382Y5640D01*
X3381Y5646D01*
X3378Y5651D01*
X3372Y5655D01*
X3366Y5656D02*
G37*
G36*
X4331Y5627D02*
X4324Y5625D01*
X4319Y5622D01*
X4316Y5616D01*
X4314Y5610D01*
X4316Y5604D01*
X4319Y5599D01*
X4324Y5595D01*
X4331Y5594D01*
X4337Y5595D01*
X4342Y5599D01*
X4346Y5604D01*
X4347Y5610D01*
X4346Y5616D01*
X4342Y5622D01*
X4337Y5625D01*
X4331Y5627D02*
G37*
G36*
X3520Y5619D02*
X3480D01*
Y5614D01*
X3475Y5611D01*
X3468Y5615D01*
X3460Y5617D01*
X3452Y5615D01*
X3445Y5611D01*
X3440Y5604D01*
X3438Y5596D01*
X3440Y5587D01*
X3445Y5580D01*
X3452Y5576D01*
X3460Y5574D01*
X3468Y5576D01*
X3475Y5580D01*
X3480Y5577D01*
Y5572D01*
D01*
D01*
D01*
X3480D01*
X3480D01*
X3480Y5572D01*
Y5568D01*
X3480Y5568D01*
X3480Y5568D01*
Y5568D01*
D01*
Y5549D01*
X3520D01*
Y5568D01*
X3520Y5568D01*
D01*
D01*
D01*
D01*
D01*
D01*
D01*
D01*
X3520Y5568D01*
Y5569D01*
Y5570D01*
Y5571D01*
Y5572D01*
X3520Y5572D01*
X3520Y5572D01*
X3520D01*
D01*
D01*
X3520D01*
Y5572D01*
Y5619D02*
G37*
G36*
X4291Y5272D02*
X4285Y5271D01*
X4280Y5267D01*
X4276Y5262D01*
X4275Y5256D01*
X4276Y5250D01*
X4280Y5244D01*
X4285Y5241D01*
X4291Y5240D01*
X4298Y5241D01*
X4303Y5244D01*
X4306Y5250D01*
X4308Y5256D01*
X4306Y5262D01*
X4303Y5267D01*
X4298Y5271D01*
X4291Y5272D02*
G37*
G36*
X3701Y5075D02*
X3695Y5074D01*
X3689Y5071D01*
X3686Y5065D01*
X3684Y5059D01*
X3686Y5053D01*
X3689Y5048D01*
X3695Y5044D01*
X3701Y5043D01*
X3707Y5044D01*
X3712Y5048D01*
X3716Y5053D01*
X3717Y5059D01*
X3716Y5065D01*
X3712Y5071D01*
X3707Y5074D01*
X3701Y5075D02*
G37*
G36*
X3740D02*
X3734Y5074D01*
X3729Y5071D01*
X3725Y5065D01*
X3724Y5059D01*
X3725Y5053D01*
X3729Y5048D01*
X3734Y5044D01*
X3740Y5043D01*
X3746Y5044D01*
X3752Y5048D01*
X3755Y5053D01*
X3756Y5059D01*
X3755Y5065D01*
X3752Y5071D01*
X3746Y5074D01*
X3740Y5075D02*
G37*
G36*
X3661D02*
X3655Y5074D01*
X3650Y5071D01*
X3646Y5065D01*
X3645Y5059D01*
X3646Y5053D01*
X3650Y5048D01*
X3655Y5044D01*
X3661Y5043D01*
X3668Y5044D01*
X3673Y5048D01*
X3676Y5053D01*
X3678Y5059D01*
X3676Y5065D01*
X3673Y5071D01*
X3668Y5074D01*
X3661Y5075D02*
G37*
G36*
X4094Y5075D02*
X4088Y5074D01*
X4083Y5071D01*
X4079Y5065D01*
X4078Y5059D01*
X4079Y5053D01*
X4083Y5048D01*
X4088Y5044D01*
X4094Y5043D01*
X4101Y5044D01*
X4106Y5048D01*
X4110Y5053D01*
X4111Y5059D01*
X4110Y5065D01*
X4106Y5071D01*
X4101Y5074D01*
X4094Y5075D02*
G37*
G36*
X3622Y5075D02*
X3616Y5074D01*
X3611Y5071D01*
X3607Y5065D01*
X3606Y5059D01*
X3607Y5053D01*
X3611Y5048D01*
X3616Y5044D01*
X3622Y5043D01*
X3628Y5044D01*
X3634Y5048D01*
X3637Y5053D01*
X3638Y5059D01*
X3637Y5065D01*
X3634Y5071D01*
X3628Y5074D01*
X3622Y5075D02*
G37*
G36*
X3780D02*
X3773Y5074D01*
X3768Y5071D01*
X3764Y5065D01*
X3763Y5059D01*
X3764Y5053D01*
X3768Y5048D01*
X3773Y5044D01*
X3780Y5043D01*
X3786Y5044D01*
X3791Y5048D01*
X3795Y5053D01*
X3796Y5059D01*
X3795Y5065D01*
X3791Y5071D01*
X3786Y5074D01*
X3780Y5075D02*
G37*
G36*
X3937D02*
X3931Y5074D01*
X3925Y5071D01*
X3922Y5065D01*
X3921Y5059D01*
X3922Y5053D01*
X3925Y5048D01*
X3931Y5044D01*
X3937Y5043D01*
X3943Y5044D01*
X3949Y5048D01*
X3952Y5053D01*
X3953Y5059D01*
X3952Y5065D01*
X3949Y5071D01*
X3943Y5074D01*
X3937Y5075D02*
G37*
G36*
X4134D02*
X4128Y5074D01*
X4122Y5071D01*
X4119Y5065D01*
X4118Y5059D01*
X4119Y5053D01*
X4122Y5048D01*
X4128Y5044D01*
X4134Y5043D01*
X4140Y5044D01*
X4145Y5048D01*
X4149Y5053D01*
X4150Y5059D01*
X4149Y5065D01*
X4145Y5071D01*
X4140Y5074D01*
X4134Y5075D02*
G37*
G36*
X3898D02*
X3891Y5074D01*
X3886Y5071D01*
X3883Y5065D01*
X3881Y5059D01*
X3883Y5053D01*
X3886Y5048D01*
X3891Y5044D01*
X3898Y5043D01*
X3904Y5044D01*
X3909Y5048D01*
X3913Y5053D01*
X3914Y5059D01*
X3913Y5065D01*
X3909Y5071D01*
X3904Y5074D01*
X3898Y5075D02*
G37*
G36*
X3819D02*
X3813Y5074D01*
X3807Y5071D01*
X3804Y5065D01*
X3803Y5059D01*
X3804Y5053D01*
X3807Y5048D01*
X3813Y5044D01*
X3819Y5043D01*
X3825Y5044D01*
X3830Y5048D01*
X3834Y5053D01*
X3835Y5059D01*
X3834Y5065D01*
X3830Y5071D01*
X3825Y5074D01*
X3819Y5075D02*
G37*
G36*
X3858D02*
X3852Y5074D01*
X3847Y5071D01*
X3843Y5065D01*
X3842Y5059D01*
X3843Y5053D01*
X3847Y5048D01*
X3852Y5044D01*
X3858Y5043D01*
X3865Y5044D01*
X3870Y5048D01*
X3873Y5053D01*
X3875Y5059D01*
X3873Y5065D01*
X3870Y5071D01*
X3865Y5074D01*
X3858Y5075D02*
G37*
G36*
X3662Y5036D02*
X3655Y5035D01*
X3650Y5032D01*
X3647Y5026D01*
X3645Y5020D01*
X3647Y5014D01*
X3650Y5008D01*
X3655Y5005D01*
X3662Y5004D01*
X3668Y5005D01*
X3673Y5008D01*
X3677Y5014D01*
X3678Y5020D01*
X3677Y5026D01*
X3673Y5032D01*
X3668Y5035D01*
X3662Y5036D02*
G37*
G36*
X4173Y5036D02*
X4167Y5035D01*
X4162Y5031D01*
X4158Y5026D01*
X4157Y5020D01*
X4158Y5013D01*
X4162Y5008D01*
X4167Y5005D01*
X4173Y5003D01*
X4179Y5005D01*
X4185Y5008D01*
X4188Y5013D01*
X4190Y5020D01*
X4188Y5026D01*
X4185Y5031D01*
X4179Y5035D01*
X4173Y5036D02*
G37*
G36*
X3740Y5036D02*
X3734Y5035D01*
X3729Y5031D01*
X3725Y5026D01*
X3724Y5020D01*
X3725Y5013D01*
X3729Y5008D01*
X3734Y5005D01*
X3740Y5003D01*
X3746Y5005D01*
X3752Y5008D01*
X3755Y5013D01*
X3756Y5020D01*
X3755Y5026D01*
X3752Y5031D01*
X3746Y5035D01*
X3740Y5036D02*
G37*
G36*
X4094Y5036D02*
X4088Y5035D01*
X4083Y5031D01*
X4079Y5026D01*
X4078Y5020D01*
X4079Y5013D01*
X4083Y5008D01*
X4088Y5005D01*
X4094Y5003D01*
X4101Y5005D01*
X4106Y5008D01*
X4110Y5013D01*
X4111Y5020D01*
X4110Y5026D01*
X4106Y5031D01*
X4101Y5035D01*
X4094Y5036D02*
G37*
G36*
X4213Y4997D02*
X4206Y4995D01*
X4201Y4992D01*
X4198Y4987D01*
X4196Y4980D01*
X4198Y4974D01*
X4201Y4969D01*
X4206Y4965D01*
X4213Y4964D01*
X4219Y4965D01*
X4224Y4969D01*
X4228Y4974D01*
X4229Y4980D01*
X4228Y4987D01*
X4224Y4992D01*
X4219Y4995D01*
X4213Y4997D02*
G37*
G36*
X4134Y5036D02*
X4128Y5035D01*
X4122Y5031D01*
X4119Y5026D01*
X4118Y5020D01*
X4119Y5013D01*
X4122Y5008D01*
X4127Y5005D01*
X4125Y4999D01*
X4110D01*
Y4994D01*
X4103D01*
X4101Y4995D01*
X4094Y4997D01*
X4088Y4995D01*
X4083Y4992D01*
X4079Y4987D01*
X4078Y4980D01*
X4079Y4974D01*
X4083Y4969D01*
X4088Y4965D01*
X4094Y4964D01*
X4101Y4965D01*
X4103Y4967D01*
X4110D01*
Y4954D01*
X4103D01*
X4101Y4956D01*
X4094Y4957D01*
X4088Y4956D01*
X4083Y4952D01*
X4079Y4947D01*
X4078Y4941D01*
X4079Y4935D01*
X4083Y4929D01*
X4088Y4926D01*
X4094Y4925D01*
X4101Y4926D01*
X4103Y4928D01*
X4108D01*
X4110Y4925D01*
Y4901D01*
X4150D01*
Y4948D01*
D01*
Y4948D01*
X4150Y4948D01*
Y4952D01*
X4150D01*
Y4999D01*
X4142D01*
X4141Y5005D01*
X4145Y5008D01*
X4149Y5013D01*
X4150Y5020D01*
X4149Y5026D01*
X4145Y5031D01*
X4140Y5035D01*
X4134Y5036D02*
G37*
G36*
X3780Y5036D02*
X3773Y5035D01*
X3768Y5031D01*
X3764Y5026D01*
X3763Y5020D01*
X3764Y5013D01*
X3768Y5008D01*
X3773Y5005D01*
X3780Y5003D01*
X3786Y5005D01*
X3791Y5008D01*
X3795Y5013D01*
X3796Y5020D01*
X3795Y5026D01*
X3791Y5031D01*
X3786Y5035D01*
X3780Y5036D02*
G37*
G36*
X3937D02*
X3931Y5035D01*
X3925Y5031D01*
X3922Y5026D01*
X3921Y5020D01*
X3922Y5013D01*
X3925Y5008D01*
X3931Y5005D01*
X3937Y5003D01*
X3943Y5005D01*
X3949Y5008D01*
X3952Y5013D01*
X3953Y5020D01*
X3952Y5026D01*
X3949Y5031D01*
X3943Y5035D01*
X3937Y5036D02*
G37*
G36*
X3622Y5036D02*
X3616Y5035D01*
X3611Y5032D01*
X3607Y5026D01*
X3606Y5020D01*
X3607Y5014D01*
X3611Y5008D01*
X3616Y5005D01*
X3622Y5004D01*
X3629Y5005D01*
X3634Y5008D01*
X3637Y5014D01*
X3639Y5020D01*
X3637Y5026D01*
X3634Y5032D01*
X3629Y5035D01*
X3622Y5036D02*
G37*
G36*
X3898Y5036D02*
X3891Y5035D01*
X3886Y5031D01*
X3883Y5026D01*
X3881Y5020D01*
X3883Y5013D01*
X3886Y5008D01*
X3891Y5005D01*
X3898Y5003D01*
X3904Y5005D01*
X3909Y5008D01*
X3913Y5013D01*
X3914Y5020D01*
X3913Y5026D01*
X3909Y5031D01*
X3904Y5035D01*
X3898Y5036D02*
G37*
G36*
X3819D02*
X3813Y5035D01*
X3807Y5031D01*
X3804Y5026D01*
X3803Y5020D01*
X3804Y5013D01*
X3807Y5008D01*
X3813Y5005D01*
X3819Y5003D01*
X3825Y5005D01*
X3830Y5008D01*
X3834Y5013D01*
X3835Y5020D01*
X3834Y5026D01*
X3830Y5031D01*
X3825Y5035D01*
X3819Y5036D02*
G37*
G36*
X3858D02*
X3852Y5035D01*
X3847Y5031D01*
X3843Y5026D01*
X3842Y5020D01*
X3843Y5013D01*
X3847Y5008D01*
X3852Y5005D01*
X3858Y5003D01*
X3865Y5005D01*
X3870Y5008D01*
X3873Y5013D01*
X3875Y5020D01*
X3873Y5026D01*
X3870Y5031D01*
X3865Y5035D01*
X3858Y5036D02*
G37*
G36*
X4400Y5071D02*
X4360D01*
Y5052D01*
D01*
D01*
D01*
X4360D01*
X4360D01*
X4360Y5052D01*
Y5048D01*
X4360Y5048D01*
X4360Y5048D01*
Y5048D01*
D01*
Y5001D01*
X4400D01*
Y5009D01*
X4405Y5012D01*
X4408Y5009D01*
X4415Y5008D01*
X4421Y5009D01*
X4426Y5013D01*
X4430Y5018D01*
X4431Y5024D01*
X4430Y5031D01*
X4426Y5036D01*
X4421Y5039D01*
X4415Y5041D01*
X4408Y5039D01*
X4405Y5037D01*
X4400Y5040D01*
Y5048D01*
X4400Y5048D01*
D01*
D01*
D01*
D01*
D01*
X4400Y5048D01*
Y5049D01*
Y5050D01*
Y5051D01*
Y5052D01*
X4400Y5052D01*
X4400Y5052D01*
X4400D01*
D01*
D01*
X4400D01*
Y5052D01*
Y5071D02*
G37*
G36*
X4291Y5233D02*
X4285Y5232D01*
X4280Y5228D01*
X4276Y5223D01*
X4275Y5217D01*
X4276Y5210D01*
X4280Y5205D01*
X4285Y5201D01*
X4291Y5200D01*
D01*
Y5194D01*
X4291D01*
Y5194D01*
X4286Y5193D01*
X4283Y5191D01*
X4270D01*
Y5209D01*
X4230D01*
Y5162D01*
D01*
D01*
D01*
X4230D01*
X4230D01*
X4230Y5162D01*
Y5158D01*
X4230Y5158D01*
X4230Y5158D01*
Y5158D01*
D01*
Y5152D01*
X4221D01*
X4218Y5154D01*
X4212Y5155D01*
X4205Y5154D01*
X4200Y5150D01*
X4197Y5145D01*
X4195Y5139D01*
X4197Y5133D01*
X4200Y5127D01*
X4205Y5124D01*
X4212Y5122D01*
X4218Y5124D01*
X4221Y5126D01*
X4230D01*
Y5111D01*
X4270D01*
Y5158D01*
X4270Y5158D01*
D01*
D01*
D01*
D01*
D01*
D01*
D01*
D01*
X4270Y5158D01*
Y5159D01*
Y5160D01*
Y5161D01*
Y5162D01*
X4270Y5162D01*
X4270Y5162D01*
X4270D01*
D01*
D01*
D01*
X4270Y5165D01*
X4283D01*
X4286Y5163D01*
X4292Y5162D01*
X4299Y5163D01*
X4304Y5167D01*
X4307Y5172D01*
X4309Y5178D01*
X4307Y5184D01*
X4304Y5190D01*
X4299Y5193D01*
X4292Y5194D01*
D01*
Y5200D01*
X4292D01*
Y5200D01*
X4298Y5201D01*
X4303Y5205D01*
X4306Y5210D01*
X4308Y5217D01*
X4306Y5223D01*
X4303Y5228D01*
X4298Y5232D01*
X4291Y5233D02*
G37*
G36*
X4173D02*
X4167Y5232D01*
X4162Y5228D01*
X4158Y5223D01*
X4157Y5217D01*
X4158Y5210D01*
X4162Y5205D01*
X4167Y5201D01*
X4173Y5200D01*
X4179Y5201D01*
X4185Y5205D01*
X4188Y5210D01*
X4190Y5217D01*
X4188Y5223D01*
X4185Y5228D01*
X4179Y5232D01*
X4173Y5233D02*
G37*
G36*
X2549Y5189D02*
X2541Y5187D01*
X2534Y5182D01*
X2529Y5176D01*
X2528Y5167D01*
X2529Y5159D01*
X2534Y5152D01*
X2541Y5148D01*
X2549Y5146D01*
X2557Y5148D01*
X2564Y5152D01*
X2569Y5159D01*
X2571Y5167D01*
X2569Y5176D01*
X2564Y5182D01*
X2557Y5187D01*
X2549Y5189D02*
G37*
G36*
X4331Y5154D02*
X4324Y5153D01*
X4319Y5149D01*
X4316Y5144D01*
X4314Y5138D01*
X4316Y5132D01*
X4319Y5126D01*
X4324Y5123D01*
X4331Y5121D01*
X4337Y5123D01*
X4342Y5126D01*
X4346Y5132D01*
X4347Y5138D01*
X4346Y5144D01*
X4342Y5149D01*
X4337Y5153D01*
X4331Y5154D02*
G37*
G36*
X4173Y5193D02*
X4167Y5192D01*
X4162Y5189D01*
X4158Y5183D01*
X4157Y5177D01*
X4158Y5171D01*
X4162Y5166D01*
X4167Y5162D01*
X4172Y5161D01*
Y5161D01*
X4172D01*
Y5155D01*
X4166Y5154D01*
X4161Y5150D01*
X4157Y5145D01*
X4156Y5139D01*
X4157Y5133D01*
X4161Y5127D01*
X4166Y5124D01*
X4172Y5122D01*
X4178Y5124D01*
X4184Y5127D01*
X4187Y5133D01*
X4189Y5139D01*
X4187Y5145D01*
X4184Y5150D01*
X4178Y5154D01*
X4173Y5155D01*
Y5155D01*
X4173D01*
Y5161D01*
X4179Y5162D01*
X4185Y5166D01*
X4188Y5171D01*
X4190Y5177D01*
X4188Y5183D01*
X4185Y5189D01*
X4179Y5192D01*
X4173Y5193D02*
G37*
G36*
X4331Y5233D02*
X4324Y5232D01*
X4319Y5228D01*
X4316Y5223D01*
X4314Y5217D01*
X4316Y5210D01*
X4319Y5205D01*
X4324Y5201D01*
X4331Y5200D01*
X4337Y5201D01*
X4342Y5205D01*
X4346Y5210D01*
X4347Y5217D01*
X4346Y5223D01*
X4342Y5228D01*
X4337Y5232D01*
X4331Y5233D02*
G37*
G36*
X3701Y5272D02*
X3695Y5271D01*
X3689Y5267D01*
X3686Y5262D01*
X3684Y5256D01*
X3686Y5250D01*
X3689Y5244D01*
X3695Y5241D01*
X3701Y5240D01*
X3707Y5241D01*
X3712Y5244D01*
X3716Y5250D01*
X3717Y5256D01*
X3716Y5262D01*
X3712Y5267D01*
X3707Y5271D01*
X3701Y5272D02*
G37*
G36*
X3740D02*
X3734Y5271D01*
X3729Y5267D01*
X3725Y5262D01*
X3724Y5256D01*
X3725Y5250D01*
X3729Y5244D01*
X3734Y5241D01*
X3740Y5240D01*
X3746Y5241D01*
X3752Y5244D01*
X3755Y5250D01*
X3756Y5256D01*
X3755Y5262D01*
X3752Y5267D01*
X3746Y5271D01*
X3740Y5272D02*
G37*
G36*
X3661D02*
X3655Y5271D01*
X3650Y5267D01*
X3646Y5262D01*
X3645Y5256D01*
X3646Y5250D01*
X3650Y5244D01*
X3655Y5241D01*
X3661Y5240D01*
X3668Y5241D01*
X3673Y5244D01*
X3676Y5250D01*
X3678Y5256D01*
X3676Y5262D01*
X3673Y5267D01*
X3668Y5271D01*
X3661Y5272D02*
G37*
G36*
X3740Y5233D02*
X3734Y5232D01*
X3729Y5228D01*
X3725Y5223D01*
X3724Y5217D01*
X3724Y5216D01*
X3719Y5213D01*
X3717Y5214D01*
X3717Y5217D01*
X3716Y5223D01*
X3712Y5228D01*
X3707Y5232D01*
X3701Y5233D01*
X3695Y5232D01*
X3689Y5228D01*
X3686Y5223D01*
X3684Y5217D01*
X3686Y5211D01*
X3684Y5209D01*
X3678D01*
X3677Y5211D01*
X3678Y5217D01*
X3676Y5223D01*
X3673Y5228D01*
X3668Y5232D01*
X3661Y5233D01*
X3655Y5232D01*
X3650Y5228D01*
X3646Y5223D01*
X3645Y5217D01*
X3646Y5211D01*
X3645Y5209D01*
X3639D01*
X3637Y5211D01*
X3638Y5217D01*
X3637Y5223D01*
X3634Y5228D01*
X3628Y5232D01*
X3622Y5233D01*
X3616Y5232D01*
X3611Y5228D01*
X3607Y5223D01*
X3606Y5217D01*
X3607Y5211D01*
X3603Y5206D01*
X3455D01*
X3451Y5205D01*
X3448Y5203D01*
X2966Y4721D01*
X2964Y4718D01*
X2963Y4715D01*
Y4157D01*
X2961Y4155D01*
X2957Y4150D01*
X2956Y4144D01*
X2957Y4137D01*
X2961Y4132D01*
X2966Y4129D01*
X2972Y4127D01*
X2979Y4129D01*
X2984Y4132D01*
X2988Y4137D01*
X2989Y4144D01*
X2988Y4150D01*
X2984Y4155D01*
X2982Y4157D01*
Y4268D01*
X2987Y4271D01*
X2989Y4269D01*
X2995Y4268D01*
X3001Y4269D01*
X3007Y4273D01*
X3010Y4278D01*
X3011Y4285D01*
X3010Y4291D01*
X3007Y4296D01*
X3001Y4300D01*
X2995Y4301D01*
X2989Y4300D01*
X2987Y4298D01*
X2982Y4301D01*
Y4711D01*
X3459Y5188D01*
X3510D01*
Y5142D01*
D01*
D01*
D01*
X3510D01*
X3510D01*
X3510Y5142D01*
Y5138D01*
X3510Y5138D01*
X3510Y5138D01*
Y5138D01*
D01*
Y5119D01*
X3550D01*
Y5138D01*
X3550Y5138D01*
D01*
D01*
D01*
D01*
D01*
D01*
D01*
D01*
X3550Y5138D01*
Y5139D01*
Y5140D01*
Y5141D01*
Y5142D01*
X3550Y5142D01*
X3550Y5142D01*
X3550D01*
D01*
D01*
X3550D01*
Y5142D01*
Y5152D01*
X3560D01*
Y5142D01*
D01*
D01*
D01*
X3560D01*
X3560D01*
X3560Y5142D01*
Y5138D01*
X3560Y5138D01*
X3560Y5138D01*
Y5138D01*
D01*
Y5091D01*
X3600D01*
Y5098D01*
X3606Y5098D01*
X3606Y5098D01*
X3607Y5092D01*
X3611Y5087D01*
X3616Y5083D01*
X3622Y5082D01*
X3628Y5083D01*
X3634Y5087D01*
X3637Y5092D01*
X3638Y5098D01*
X3637Y5105D01*
X3634Y5110D01*
X3628Y5113D01*
X3622Y5115D01*
X3621Y5118D01*
X3625Y5122D01*
X3628Y5123D01*
X3634Y5126D01*
X3637Y5132D01*
X3638Y5138D01*
X3637Y5144D01*
X3634Y5149D01*
X3628Y5153D01*
X3625Y5154D01*
X3623Y5159D01*
X3625Y5161D01*
X3628Y5162D01*
X3634Y5166D01*
X3637Y5171D01*
X3638Y5177D01*
X3637Y5183D01*
X3638Y5185D01*
X3644Y5186D01*
X3646Y5183D01*
X3645Y5177D01*
X3646Y5171D01*
X3650Y5166D01*
X3655Y5162D01*
X3661Y5161D01*
X3668Y5162D01*
X3673Y5166D01*
X3676Y5171D01*
X3678Y5177D01*
X3676Y5183D01*
X3677Y5185D01*
X3683Y5186D01*
X3686Y5183D01*
X3684Y5177D01*
X3686Y5171D01*
X3689Y5166D01*
X3695Y5162D01*
X3701Y5161D01*
X3707Y5162D01*
X3712Y5166D01*
X3716Y5171D01*
X3717Y5177D01*
X3716Y5183D01*
X3718Y5188D01*
X3720D01*
X3724Y5188D01*
Y5188D01*
X3724D01*
X3725Y5183D01*
X3724Y5177D01*
X3725Y5171D01*
X3729Y5166D01*
X3734Y5162D01*
X3740Y5161D01*
X3746Y5162D01*
X3752Y5166D01*
X3755Y5171D01*
X3756Y5177D01*
X3755Y5183D01*
X3752Y5189D01*
X3746Y5192D01*
X3740Y5193D01*
X3738Y5193D01*
X3736Y5195D01*
X3740Y5200D01*
X3740Y5200D01*
X3746Y5201D01*
X3752Y5205D01*
X3755Y5210D01*
X3756Y5217D01*
X3755Y5223D01*
X3752Y5228D01*
X3746Y5232D01*
X3740Y5233D02*
G37*
G36*
X3622Y5272D02*
X3616Y5271D01*
X3611Y5267D01*
X3607Y5262D01*
X3606Y5256D01*
X3607Y5250D01*
X3611Y5244D01*
X3616Y5241D01*
X3622Y5240D01*
X3628Y5241D01*
X3634Y5244D01*
X3637Y5250D01*
X3638Y5256D01*
X3637Y5262D01*
X3634Y5267D01*
X3628Y5271D01*
X3622Y5272D02*
G37*
G36*
X3740Y5154D02*
X3734Y5153D01*
X3729Y5149D01*
X3725Y5144D01*
X3724Y5138D01*
X3725Y5132D01*
X3729Y5126D01*
X3734Y5123D01*
X3740Y5121D01*
X3746Y5123D01*
X3752Y5126D01*
X3755Y5132D01*
X3756Y5138D01*
X3755Y5144D01*
X3752Y5149D01*
X3746Y5153D01*
X3740Y5154D02*
G37*
G36*
X3701Y5115D02*
X3695Y5113D01*
X3689Y5110D01*
X3686Y5105D01*
X3684Y5098D01*
X3686Y5092D01*
X3689Y5087D01*
X3695Y5083D01*
X3701Y5082D01*
X3707Y5083D01*
X3712Y5087D01*
X3716Y5092D01*
X3717Y5098D01*
X3716Y5105D01*
X3712Y5110D01*
X3707Y5113D01*
X3701Y5115D02*
G37*
G36*
X3740D02*
X3734Y5113D01*
X3729Y5110D01*
X3725Y5105D01*
X3724Y5098D01*
X3725Y5092D01*
X3729Y5087D01*
X3734Y5083D01*
X3740Y5082D01*
X3746Y5083D01*
X3752Y5087D01*
X3755Y5092D01*
X3756Y5098D01*
X3755Y5105D01*
X3752Y5110D01*
X3746Y5113D01*
X3740Y5115D02*
G37*
G36*
X3661D02*
X3655Y5113D01*
X3650Y5110D01*
X3646Y5105D01*
X3645Y5098D01*
X3646Y5092D01*
X3650Y5087D01*
X3655Y5083D01*
X3661Y5082D01*
X3668Y5083D01*
X3673Y5087D01*
X3676Y5092D01*
X3678Y5098D01*
X3676Y5105D01*
X3673Y5110D01*
X3668Y5113D01*
X3661Y5115D02*
G37*
G36*
X4375Y5099D02*
X4360D01*
Y5081D01*
X4375D01*
Y5099D02*
G37*
G36*
X4400D02*
X4385D01*
Y5081D01*
X4400D01*
Y5099D02*
G37*
G36*
X3780Y5115D02*
X3773Y5113D01*
X3768Y5110D01*
X3764Y5105D01*
X3763Y5098D01*
X3764Y5092D01*
X3768Y5087D01*
X3773Y5083D01*
X3780Y5082D01*
X3786Y5083D01*
X3791Y5087D01*
X3795Y5092D01*
X3796Y5098D01*
X3795Y5105D01*
X3791Y5110D01*
X3786Y5113D01*
X3780Y5115D02*
G37*
G36*
X3661Y5154D02*
X3655Y5153D01*
X3650Y5149D01*
X3646Y5144D01*
X3645Y5138D01*
X3646Y5132D01*
X3650Y5126D01*
X3655Y5123D01*
X3661Y5121D01*
X3668Y5123D01*
X3673Y5126D01*
X3676Y5132D01*
X3678Y5138D01*
X3676Y5144D01*
X3673Y5149D01*
X3668Y5153D01*
X3661Y5154D02*
G37*
G36*
X3701D02*
X3695Y5153D01*
X3689Y5149D01*
X3686Y5144D01*
X3684Y5138D01*
X3686Y5132D01*
X3689Y5126D01*
X3695Y5123D01*
X3701Y5121D01*
X3707Y5123D01*
X3712Y5126D01*
X3716Y5132D01*
X3717Y5138D01*
X3716Y5144D01*
X3712Y5149D01*
X3707Y5153D01*
X3701Y5154D02*
G37*
G36*
X3550Y5109D02*
X3535D01*
Y5091D01*
X3550D01*
Y5109D02*
G37*
G36*
X4173Y5115D02*
X4167Y5113D01*
X4162Y5110D01*
X4158Y5105D01*
X4157Y5098D01*
X4158Y5092D01*
X4162Y5087D01*
X4167Y5083D01*
X4173Y5082D01*
X4179Y5083D01*
X4185Y5087D01*
X4188Y5092D01*
X4190Y5098D01*
X4188Y5105D01*
X4185Y5110D01*
X4179Y5113D01*
X4173Y5115D02*
G37*
G36*
X3525Y5109D02*
X3510D01*
Y5091D01*
X3525D01*
Y5109D02*
G37*
%LPD*%
%ADD10R,0.043X0.039*%
%ADD11C,0.016*%
%ADD12R,0.016X0.047*%
%ADD13R,0.101X0.062*%
%ADD14R,0.256X0.036*%
%ADD15R,0.078X0.062*%
%ADD16R,0.102X0.094*%
%ADD17R,0.051X0.059*%
%ADD18R,0.035X0.028*%
%ADD19R,0.020X0.061*%
%ADD20R,0.061X0.020*%
%ADD21R,0.055X0.079*%
%ADD22R,0.041X0.015*%
%ADD23R,0.057X0.022*%
%ADD24R,0.087X0.016*%
%ADD25R,0.087X0.016*%
%ADD26R,0.039X0.043*%
%ADD27R,0.071X0.063*%
%ADD28R,0.036X0.048*%
%ADD29R,0.063X0.071*%
%ADD30R,0.063X0.106*%
%ADD31R,0.061X0.020*%
%ADD32R,0.161X0.102*%
%ADD33O,0.041X0.015*%
%ADD34R,0.106X0.063*%
%ADD35R,0.039X0.193*%
%ADD36R,0.197X0.118*%
%ADD37R,0.015X0.060*%
%ADD38R,0.071X0.016*%
%ADD39R,0.016X0.071*%
%ADD40R,0.102X0.087*%
%ADD41R,0.087X0.102*%
%ADD42C,0.006*%
%ADD43C,0.014*%
%ADD44C,0.016*%
%ADD45C,0.024*%
%ADD46C,0.012*%
%ADD47C,0.018*%
%ADD48C,0.020*%
%ADD49C,0.059*%
%ADD50C,0.055*%
%ADD51C,0.106*%
%ADD52C,0.130*%
%ADD53C,0.160*%
%ADD54C,0.070*%
%ADD55R,0.059X0.059*%
%ADD56C,0.094*%
%ADD57C,0.050*%
%ADD58C,0.030*%
%ADD59C,0.042*%
%ADD60C,0.028*%
%ADD61C,0.024*%
%ADD62C,0.008*%
%ADD63C,0.010*%
%ADD64R,0.028X0.035*%
D10*
X3233Y4470D02*
D03*
X3167D02*
D03*
X3233Y4220D02*
D03*
X3167D02*
D03*
X3233Y4630D02*
D03*
X3167D02*
D03*
X3233Y4780D02*
D03*
X3167D02*
D03*
X2527Y4220D02*
D03*
X2593D02*
D03*
X2527Y4620D02*
D03*
X2593D02*
D03*
X2527Y4780D02*
D03*
X2593D02*
D03*
D18*
X3954Y5460D02*
D03*
X4006D02*
D03*
X3954Y5140D02*
D03*
X4006D02*
D03*
X3814Y5610D02*
D03*
X3866D02*
D03*
X3854Y4900D02*
D03*
X3906D02*
D03*
X4126Y5140D02*
D03*
X4074D02*
D03*
X3824D02*
D03*
X3876D02*
D03*
X4126Y5460D02*
D03*
X4074D02*
D03*
X3834D02*
D03*
X3886D02*
D03*
X3716Y5750D02*
D03*
X3664D02*
D03*
X4204Y5690D02*
D03*
X4256D02*
D03*
X10483Y7440D02*
D03*
X10447Y7120D02*
D03*
X9853Y7360D02*
D03*
X9904D02*
D03*
X10396Y7120D02*
D03*
X10534Y7440D02*
D03*
D26*
X2880Y4973D02*
D03*
Y4907D02*
D03*
Y4027D02*
D03*
Y4093D02*
D03*
X2700Y4973D02*
D03*
Y4907D02*
D03*
D42*
X4449Y4852D02*
Y4882D01*
X4126Y5460D02*
X4134Y5468D01*
Y5492D01*
X4636Y3661D02*
X5043D01*
X4262Y4035D02*
X4636Y3661D01*
X5043D02*
X5189Y3515D01*
X3516Y4874D02*
X3593Y4951D01*
X3516Y4752D02*
Y4874D01*
Y4752D02*
X3533Y4734D01*
X3898Y5650D02*
Y5866D01*
X4183Y6152D01*
X5295D01*
X5335Y6191D01*
X5364D01*
X5413Y6142D01*
X5501D01*
X5415Y6042D02*
X5501D01*
X5374Y6083D02*
X5415Y6042D01*
X5325Y6083D02*
X5374D01*
X5276Y6033D02*
X5325Y6083D01*
X5207Y6033D02*
X5276D01*
X5187Y6053D02*
X5207Y6033D01*
X4154Y6053D02*
X5187D01*
X3937Y5837D02*
X4154Y6053D01*
X3937Y5650D02*
Y5837D01*
X3976Y5689D02*
Y5738D01*
X3967Y5748D02*
X3976Y5738D01*
X3967Y5748D02*
Y5846D01*
X4144Y6024D01*
X4744D01*
X4833Y5935D01*
X5295D01*
X5335Y5896D01*
X5364D01*
X5410Y5942D01*
X5501D01*
X14426Y5992D02*
X14540D01*
X14744Y5787D01*
Y4242D02*
Y5787D01*
X14547Y4045D02*
X14744Y4242D01*
X13996Y4045D02*
X14547D01*
X13858Y3907D02*
X13996Y4045D01*
X13858Y3839D02*
Y3907D01*
X13809Y3789D02*
X13858Y3839D01*
X13809Y3760D02*
Y3789D01*
X13747Y3697D02*
X13809Y3760D01*
X13710Y3697D02*
X13747D01*
X4508Y4653D02*
X5096Y4065D01*
X11526Y3878D02*
X11870Y3533D01*
X11526Y3878D02*
Y3957D01*
X11417Y4065D02*
X11526Y3957D01*
X5096Y4065D02*
X11417D01*
X11329Y4035D02*
X11496Y3868D01*
X4488Y4656D02*
X5108Y4035D01*
X11329D01*
X4508Y4653D02*
Y4823D01*
X4469Y4862D02*
X4508Y4823D01*
X4469Y4862D02*
Y5640D01*
X4360Y5748D02*
X4469Y5640D01*
X4281Y5748D02*
X4360D01*
X12746Y3504D02*
X12864Y3622D01*
X11703Y3504D02*
X12746D01*
X4281Y4803D02*
X5069Y4016D01*
X11191D02*
X11703Y3504D01*
X5069Y4016D02*
X11191D01*
X11683Y3474D02*
X13209D01*
X4252Y4793D02*
X5059Y3986D01*
X11171D01*
X11683Y3474D01*
X11594Y3435D02*
X13406D01*
X4242Y4774D02*
X5059Y3957D01*
X11073D02*
X11594Y3435D01*
X5059Y3957D02*
X11073D01*
X4488Y4656D02*
Y4813D01*
X4449Y4852D02*
X4488Y4813D01*
X12864Y3770D02*
Y3799D01*
X12844Y3671D02*
X12874D01*
X13012Y3632D02*
X13061D01*
X12402Y3691D02*
X12451D01*
X12175Y6093D02*
X12352D01*
X12864Y3671D02*
Y3701D01*
X12352Y6093D02*
X12421Y6024D01*
Y4291D02*
Y6024D01*
Y4291D02*
X12848Y3864D01*
Y3823D02*
Y3864D01*
X12815Y3789D02*
X12848Y3823D01*
X12815Y3750D02*
Y3789D01*
Y3750D02*
X12864Y3701D01*
X12874Y3671D02*
X12894Y3652D01*
X12835Y3661D02*
X12844Y3671D01*
X12835Y3661D02*
X12835D01*
X11725Y4375D02*
X12311Y3789D01*
X12343D01*
X12360Y3772D01*
X12451Y3691D02*
X12490Y3652D01*
X12520D01*
X12539Y3671D01*
X12569D01*
X12589Y3652D01*
X12628D01*
X12638Y3661D01*
X12677D01*
X12687Y3652D01*
X12717D01*
X12726Y3661D01*
X12776D01*
X12795Y3642D01*
X12815D01*
X12835Y3661D01*
X12894Y3652D02*
X12923D01*
X12933Y3661D01*
X12982D01*
X13012Y3632D01*
X13510Y3540D02*
Y3697D01*
X13406Y3435D02*
X13510Y3540D01*
X4094Y4774D02*
X4242D01*
X4035Y4833D02*
X4094Y4774D01*
X4035Y4833D02*
Y5000D01*
X4055Y5020D01*
X13310Y3576D02*
Y3697D01*
X13209Y3474D02*
X13310Y3576D01*
X4163Y4793D02*
X4252D01*
X4104Y4852D02*
X4163Y4793D01*
X4065Y4852D02*
X4104D01*
X4281Y4803D02*
Y4980D01*
X4252Y5010D02*
X4281Y4980D01*
X4252Y5010D02*
Y5020D01*
X3976Y4409D02*
Y4941D01*
Y4409D02*
X4606Y3780D01*
X5010D01*
X5236Y3553D01*
Y3504D02*
Y3553D01*
X5187Y3455D02*
X5236Y3504D01*
X5187Y3425D02*
Y3455D01*
X5157Y3396D02*
X5187Y3425D01*
X5118Y3396D02*
X5157D01*
X5098Y3415D02*
X5118Y3396D01*
X5079Y3415D02*
X5098D01*
X5059Y3396D02*
X5079Y3415D01*
X5020Y3396D02*
X5059D01*
X4975Y3440D02*
X5020Y3396D01*
X4939Y3440D02*
X4975D01*
X13268Y3967D02*
Y5059D01*
X13500Y5292D01*
X13526D01*
X3593Y4951D02*
X3632D01*
X3661Y4980D01*
Y4980D01*
X5263Y4429D02*
X5426Y4592D01*
X4970Y4429D02*
X5263D01*
X4705Y4695D02*
X4970Y4429D01*
X4705Y4695D02*
Y5738D01*
X4478Y5965D02*
X4705Y5738D01*
X4144Y5965D02*
X4478D01*
X3986Y5807D02*
X4144Y5965D01*
X3986Y5787D02*
Y5807D01*
Y5787D02*
X4016Y5758D01*
Y5650D02*
Y5758D01*
X5816Y4232D02*
X6176Y4592D01*
X5128Y4232D02*
X5816D01*
X4685Y4675D02*
X5128Y4232D01*
X4685Y4675D02*
Y5659D01*
X4449Y5896D02*
X4685Y5659D01*
X4134Y5896D02*
X4449D01*
X4035Y5797D02*
X4134Y5896D01*
X4035Y5630D02*
Y5797D01*
X4016Y5610D02*
X4035Y5630D01*
X4154Y5876D02*
X4439D01*
X4665Y5650D01*
Y4656D02*
Y5650D01*
Y4656D02*
X5128Y4193D01*
X6555D01*
X6742Y4380D01*
Y4408D01*
X6926Y4592D01*
X4075Y5738D02*
X4134Y5797D01*
X4075Y5630D02*
Y5738D01*
X4055Y5610D02*
X4075Y5630D01*
X4134Y5797D02*
X4478D01*
X4606Y5669D01*
Y4636D02*
Y5669D01*
Y4636D02*
X5089Y4154D01*
X7237D01*
X7676Y4592D01*
X7952Y4119D02*
X7953D01*
X8426Y4592D01*
X7921Y4087D02*
X7952Y4119D01*
X5096Y4087D02*
X7921D01*
X4567Y4616D02*
X5096Y4087D01*
X4567Y4616D02*
Y5679D01*
X4469Y5778D02*
X4567Y5679D01*
X4193Y5778D02*
X4469D01*
X4154Y5738D02*
X4193Y5778D01*
X4154Y5591D02*
Y5738D01*
X4134Y5571D02*
X4154Y5591D01*
X11725Y4375D02*
Y5895D01*
X11972Y6142D01*
X12101D01*
X11760Y4390D02*
X12240Y3910D01*
X12315D01*
X12378Y3847D01*
X12410D01*
X12460Y3772D02*
Y3875D01*
X12385Y3950D02*
X12460Y3875D01*
X12250Y3950D02*
X12385D01*
X11800Y4400D02*
X12250Y3950D01*
X11800Y4400D02*
Y5830D01*
X12012Y6042D01*
X12101D01*
X11760Y5840D02*
X12012Y6092D01*
X12026D01*
X11760Y4390D02*
Y5840D01*
X11952Y5942D02*
X12101D01*
X11825Y5815D02*
X11952Y5942D01*
X11825Y4415D02*
Y5815D01*
Y4415D02*
X12260Y3980D01*
X12435D01*
X12560Y3855D01*
Y3772D02*
Y3855D01*
X12610Y3847D02*
Y3870D01*
X12465Y4015D02*
X12610Y3870D01*
X12275Y4015D02*
X12465D01*
X11860Y4430D02*
X12275Y4015D01*
X11860Y4430D02*
Y5770D01*
X11982Y5892D01*
X12026D01*
X11987Y5842D02*
X12101D01*
X11895Y5750D02*
X11987Y5842D01*
X11895Y4440D02*
Y5750D01*
Y4440D02*
X12285Y4050D01*
X12490D01*
X12660Y3880D01*
Y3772D02*
Y3880D01*
X12760Y3772D02*
Y3865D01*
X12540Y4085D02*
X12760Y3865D01*
X12305Y4085D02*
X12540D01*
X11930Y4460D02*
X12305Y4085D01*
X11930Y4460D02*
Y5690D01*
X11982Y5742D01*
X12101D01*
X11965Y5631D02*
X12026Y5692D01*
X11965Y4460D02*
Y5631D01*
Y4460D02*
X12310Y4115D01*
X12565D01*
X12810Y3870D01*
Y3847D02*
Y3870D01*
X12860Y3772D02*
Y3905D01*
X12440Y4325D02*
X12860Y3905D01*
X12440Y4325D02*
Y5435D01*
X12647Y5642D01*
X12851D01*
X13010Y3847D02*
Y3890D01*
X12520Y4380D02*
X13010Y3890D01*
X12520Y4380D02*
Y5380D01*
X12632Y5492D01*
X12776D01*
X12662Y5442D02*
X12851D01*
X12560Y5340D02*
X12662Y5442D01*
X12560Y4405D02*
Y5340D01*
Y4405D02*
X13060Y3905D01*
Y3772D02*
Y3905D01*
X12960Y3772D02*
Y3885D01*
X12480Y4365D02*
Y5407D01*
X12615Y5542D01*
X12851D01*
X12480Y4365D02*
X12960Y3885D01*
X13160Y3780D02*
Y3895D01*
X12610Y4445D02*
X13160Y3895D01*
X12610Y4445D02*
Y5280D01*
X12672Y5342D01*
X12851D01*
X12737Y5242D02*
X12851D01*
X12645Y5150D02*
X12737Y5242D01*
X12645Y4480D02*
Y5150D01*
Y4480D02*
X13260Y3865D01*
Y3772D02*
Y3865D01*
X13310Y3847D02*
Y4976D01*
X13526Y5192D01*
X13460Y3772D02*
Y4080D01*
X13360Y4180D02*
X13460Y4080D01*
X13360Y4180D02*
Y4955D01*
X13447Y5042D01*
X13601D01*
X13472Y4992D02*
X13526D01*
X13395Y4915D02*
X13472Y4992D01*
X13395Y4200D02*
Y4915D01*
Y4200D02*
X13510Y4085D01*
Y3847D02*
Y4085D01*
X13560Y3772D02*
Y4100D01*
X13430Y4230D02*
X13560Y4100D01*
X13430Y4230D02*
Y4875D01*
X13497Y4942D01*
X13601D01*
X13465Y4831D02*
X13526Y4892D01*
X13465Y4250D02*
Y4831D01*
Y4250D02*
X13610Y4105D01*
Y3847D02*
Y4105D01*
X13655Y3780D02*
Y4220D01*
X13925Y4490D01*
Y4640D01*
X14127Y4842D01*
X14351D01*
X14147Y4792D02*
X14276D01*
X13965Y4610D02*
X14147Y4792D01*
X13965Y4455D02*
Y4610D01*
X13710Y4200D02*
X13965Y4455D01*
X13710Y3847D02*
Y4200D01*
X13760Y3772D02*
Y4160D01*
X14055Y4455D01*
Y4590D01*
X14207Y4742D01*
X14351D01*
X14227Y4692D02*
X14276D01*
X14105Y4570D02*
X14227Y4692D01*
X14105Y4425D02*
Y4570D01*
X13810Y4130D02*
X14105Y4425D01*
X13810Y3847D02*
Y4130D01*
X3720Y5197D02*
X3740Y5217D01*
X3455Y5197D02*
X3720D01*
X2972Y4715D02*
X3455Y5197D01*
X2972Y4144D02*
Y4715D01*
X2700Y4973D02*
Y5015D01*
X4370Y5404D02*
X4420D01*
X2700Y4865D02*
Y4907D01*
D43*
X3524Y5069D02*
X3530Y5075D01*
Y5114D01*
Y5166D02*
X3610D01*
X3501Y5544D02*
X3533Y5512D01*
X3500Y5544D02*
X3501D01*
X3748Y5750D02*
X3750Y5748D01*
X3716Y5750D02*
X3748D01*
X3620D02*
X3664D01*
X4204Y5740D02*
X4213Y5748D01*
X4204Y5690D02*
Y5740D01*
X4252Y5650D02*
X4256Y5653D01*
Y5690D01*
X3460Y5596D02*
X3500D01*
X3814Y5610D02*
X3819Y5614D01*
Y5650D01*
X3858Y5617D02*
Y5650D01*
X4361Y5413D02*
X4370Y5404D01*
X4331Y5413D02*
X4361D01*
X4367Y5453D02*
X4370Y5456D01*
X4331Y5453D02*
X4367D01*
X4246Y5139D02*
X4250Y5134D01*
X4212Y5139D02*
X4246D01*
X4250Y5186D02*
X4257Y5178D01*
X4292D01*
X4113Y4941D02*
X4130Y4924D01*
X4094Y4941D02*
X4113D01*
X4125Y4980D02*
X4130Y4976D01*
X4094Y4980D02*
X4125D01*
X3848Y4902D02*
X3858Y4911D01*
Y4941D01*
X3898D02*
X3906Y4933D01*
Y4900D02*
Y4933D01*
X3599Y5114D02*
X3622Y5138D01*
X3580Y5114D02*
X3599D01*
X3610Y5166D02*
X3622Y5177D01*
X3612Y5364D02*
X3622Y5374D01*
X3580Y5364D02*
X3612D01*
X3620Y5416D02*
X3622Y5413D01*
X3580Y5416D02*
X3620D01*
X3819Y5492D02*
X3834Y5477D01*
Y5460D02*
Y5477D01*
X3886Y5425D02*
X3898Y5413D01*
X3886Y5425D02*
Y5460D01*
X3937Y5492D02*
X3954Y5475D01*
Y5460D02*
Y5475D01*
X4006Y5424D02*
X4016Y5413D01*
X4006Y5424D02*
Y5460D01*
X4055Y5413D02*
X4074Y5433D01*
Y5460D01*
X4166D02*
X4173Y5453D01*
X4126Y5460D02*
X4166D01*
X4155Y5396D02*
X4173Y5413D01*
X4130Y5396D02*
X4155D01*
X4094Y5335D02*
X4104Y5344D01*
X4130D01*
Y5256D02*
X4173D01*
X4094Y5217D02*
X4107Y5204D01*
X4130D01*
X4124Y5108D02*
Y5148D01*
Y5108D02*
X4134Y5098D01*
X4055Y5177D02*
X4074Y5158D01*
Y5140D02*
Y5158D01*
X4006Y5167D02*
X4016Y5177D01*
X4006Y5140D02*
Y5167D01*
X3937Y5098D02*
X3954Y5116D01*
Y5140D01*
X3876Y5155D02*
X3898Y5177D01*
X3876Y5140D02*
Y5155D01*
X3782Y5140D02*
X3824D01*
X3780Y5177D02*
X3807Y5204D01*
X3820D01*
Y5256D02*
X3858D01*
X3849Y5344D02*
X3858Y5335D01*
X3820Y5344D02*
X3849D01*
X3780Y5413D02*
X3797Y5396D01*
X3820D01*
X2522Y4775D02*
X2527Y4780D01*
X2480Y4775D02*
X2522D01*
X2593Y4780D02*
X2598Y4785D01*
X2630D01*
X2593Y4620D02*
X2630D01*
X2490D02*
X2527D01*
X2620Y4480D02*
X2625Y4485D01*
X2593Y4480D02*
X2620D01*
X2485Y4225D02*
X2490Y4220D01*
X2527D01*
X2593D02*
X2630D01*
X2875Y3990D02*
X2880Y3995D01*
Y4027D01*
Y4093D02*
Y4130D01*
X3233Y4220D02*
X3265D01*
X3125D02*
X3167D01*
X3130Y4470D02*
X3167D01*
X3260D02*
X3270Y4460D01*
X3233Y4470D02*
X3260D01*
X3130Y4625D02*
X3165D01*
X3233Y4630D02*
X3270D01*
X3233Y4780D02*
X3260D01*
X3130D02*
X3167D01*
X2880Y4973D02*
Y5010D01*
X2875Y4865D02*
X2880Y4870D01*
Y4907D01*
X2700Y4865D02*
Y4872D01*
D44*
X9852Y7360D02*
X9853Y7360D01*
X9852Y7360D02*
Y7402D01*
X10561Y7264D02*
X10620D01*
X10551Y7274D02*
X10561Y7264D01*
X10279Y7195D02*
X10300Y7216D01*
X10236Y7195D02*
X10279D01*
X10447Y7120D02*
X10453Y7125D01*
Y7175D01*
X10463Y7372D02*
X10483Y7392D01*
Y7440D01*
X10290Y7455D02*
X10315Y7480D01*
X10290Y7447D02*
Y7455D01*
X4835Y6714D02*
X4900D01*
X4823Y6702D02*
X4835Y6714D01*
X4839Y6766D02*
X4900D01*
X4823Y6781D02*
X4839Y6766D01*
X4838Y6914D02*
X4900D01*
X4836Y6966D02*
X4900D01*
X4470Y7036D02*
X4530D01*
X4453Y7052D02*
X4470Y7036D01*
X4457Y6984D02*
X4530D01*
X4450Y6977D02*
X4457Y6984D01*
X4528Y6713D02*
X4587D01*
X4460Y6664D02*
X4530D01*
X9902Y7362D02*
X9951D01*
X10260Y7396D02*
X10290D01*
X10246Y7382D02*
X10260Y7396D01*
X10534Y7399D02*
Y7440D01*
Y7399D02*
X10551Y7382D01*
X10620Y7216D02*
X10627D01*
X10674Y7170D01*
X10322Y7120D02*
X10396D01*
X10320Y7122D02*
X10322Y7120D01*
X10300Y7267D02*
X10358D01*
X10364Y7274D01*
X17650Y5040D02*
Y4920D01*
X17730D01*
X17790Y5000D02*
X17830D01*
X17850Y4980D01*
Y4920D01*
X17790D01*
X17770Y4940D01*
X17790Y4960D01*
X17850D01*
X17890Y5000D02*
Y4940D01*
X17910Y4920D01*
X17970D01*
Y4900D01*
X17950Y4880D01*
X17930D01*
X17970Y4920D02*
Y5000D01*
X18070Y4920D02*
X18030D01*
X18010Y4940D01*
Y4980D01*
X18030Y5000D01*
X18070D01*
X18090Y4980D01*
Y4960D01*
X18010D01*
X18130Y5000D02*
Y4920D01*
Y4960D01*
X18150Y4980D01*
X18170Y5000D01*
X18190D01*
X18370Y5020D02*
X18390Y5040D01*
X18430D01*
X18450Y5020D01*
Y5000D01*
X18430Y4980D01*
X18450Y4960D01*
Y4940D01*
X18430Y4920D01*
X18390D01*
X18370Y4940D01*
Y4960D01*
X18390Y4980D01*
X18370Y5000D01*
Y5020D01*
X18390Y4980D02*
X18430D01*
D47*
X10423Y7313D02*
X10689D01*
X10423Y7313D02*
X10423Y7313D01*
X12581Y3543D02*
X12660Y3622D01*
X11919Y3543D02*
X12581D01*
X11604Y3858D02*
X11919Y3543D01*
X11604Y3858D02*
Y6378D01*
X11407Y6575D02*
X11604Y6378D01*
X11191Y6575D02*
X11407D01*
X11171Y6594D02*
X11191Y6575D01*
X11171Y6594D02*
Y6998D01*
X11161Y7008D02*
X11171Y6998D01*
X11142Y7008D02*
X11161D01*
X11132Y6998D02*
X11142Y7008D01*
X11132Y6594D02*
Y6998D01*
X11112Y6575D02*
X11132Y6594D01*
X11093Y6575D02*
X11112D01*
X11073Y6594D02*
X11093Y6575D01*
X11073Y6594D02*
Y6998D01*
X11063Y7008D02*
X11073Y6998D01*
X11043Y7008D02*
X11063D01*
X11033Y6998D02*
X11043Y7008D01*
X11033Y6594D02*
Y6998D01*
X11014Y6575D02*
X11033Y6594D01*
X11004Y6575D02*
X11014D01*
X10984Y6594D02*
X11004Y6575D01*
X10984Y6594D02*
Y7018D01*
X10689Y7313D02*
X10984Y7018D01*
D48*
X3755Y3650D02*
D03*
Y3690D02*
D03*
X3795Y3650D02*
D03*
Y3690D02*
D03*
X3835Y3650D02*
D03*
Y3690D02*
D03*
X3895Y3630D02*
D03*
Y3710D02*
D03*
X3830Y6410D02*
D03*
X3790D02*
D03*
X3750D02*
D03*
X3830Y6370D02*
D03*
X3790D02*
D03*
X3750D02*
D03*
X3890Y6350D02*
D03*
Y6430D02*
D03*
X3685Y6350D02*
D03*
Y6430D02*
D03*
X11510Y3200D02*
D03*
X4449Y4882D02*
D03*
X4262Y4035D02*
D03*
X3533Y4734D02*
D03*
X4508Y5650D02*
D03*
X4415Y5024D02*
D03*
X3760Y4794D02*
D03*
X4252Y5650D02*
D03*
X10423Y7313D02*
D03*
X5204Y7300D02*
D03*
X2972Y4144D02*
D03*
X10108Y7195D02*
D03*
X9047Y6774D02*
D03*
X10236Y7323D02*
D03*
X10472Y6998D02*
D03*
X10482Y7057D02*
D03*
X10217Y7116D02*
D03*
X10384Y6850D02*
D03*
X11329Y6978D02*
D03*
X11339Y7037D02*
D03*
X11358Y7106D02*
D03*
X11407Y7175D02*
D03*
X2739Y4200D02*
D03*
X3701Y5295D02*
D03*
X2726Y4291D02*
D03*
X2667Y4193D02*
D03*
X2687Y4518D02*
D03*
X2717Y4498D02*
D03*
X2743Y4564D02*
D03*
X2844Y4695D02*
D03*
X2894Y4833D02*
D03*
X3091Y4281D02*
D03*
X2844Y4439D02*
D03*
X2765Y4253D02*
D03*
X2790Y4276D02*
D03*
X2995Y4285D02*
D03*
X3091Y4173D02*
D03*
X3120Y4134D02*
D03*
X3140Y3976D02*
D03*
X3550Y4308D02*
D03*
X3655Y4334D02*
D03*
X3307Y4104D02*
D03*
X3740Y5256D02*
D03*
Y5217D02*
D03*
Y5177D02*
D03*
X3740Y5098D02*
D03*
X2505Y4385D02*
D03*
X2746Y4665D02*
D03*
X2655Y4308D02*
D03*
X2631Y4334D02*
D03*
X3701Y5256D02*
D03*
X3701Y5217D02*
D03*
Y5177D02*
D03*
Y5138D02*
D03*
Y5098D02*
D03*
Y5059D02*
D03*
X3661Y5217D02*
D03*
Y5256D02*
D03*
X3622D02*
D03*
Y5217D02*
D03*
X3661Y5177D02*
D03*
X3622D02*
D03*
X3661Y5138D02*
D03*
X3622D02*
D03*
X3661Y5098D02*
D03*
X3622D02*
D03*
X3661Y5059D02*
D03*
X3622D02*
D03*
X3622Y5020D02*
D03*
X3662D02*
D03*
X3524Y4921D02*
D03*
X2970Y4870D02*
D03*
X2820Y4870D02*
D03*
X2480Y4775D02*
D03*
X2630Y4785D02*
D03*
Y4620D02*
D03*
X2485Y4615D02*
D03*
X2490Y4490D02*
D03*
X2630Y4485D02*
D03*
X2614Y4359D02*
D03*
X2617Y4282D02*
D03*
X2485Y4225D02*
D03*
X2630Y4220D02*
D03*
X2637Y4007D02*
D03*
X2875Y3990D02*
D03*
X2880Y4130D02*
D03*
X3132Y4718D02*
D03*
X3125Y4220D02*
D03*
X3270Y4225D02*
D03*
Y4460D02*
D03*
X3130Y4470D02*
D03*
X3135Y4370D02*
D03*
X3255Y4385D02*
D03*
X3142Y4538D02*
D03*
X3125Y4630D02*
D03*
X3270D02*
D03*
X3265Y4775D02*
D03*
X3130Y4780D02*
D03*
X3021Y4866D02*
D03*
X2880Y5010D02*
D03*
X2875Y4865D02*
D03*
X2700D02*
D03*
X2695Y5020D02*
D03*
X3780Y5453D02*
D03*
Y5413D02*
D03*
Y5374D02*
D03*
Y5335D02*
D03*
Y5256D02*
D03*
Y5217D02*
D03*
Y5177D02*
D03*
X3740Y5138D02*
D03*
X3780D02*
D03*
X3740Y5059D02*
D03*
X3780D02*
D03*
X3858D02*
D03*
X3898D02*
D03*
X3937D02*
D03*
X3740Y5020D02*
D03*
X3780D02*
D03*
X3819D02*
D03*
X3858D02*
D03*
X3898D02*
D03*
X3937D02*
D03*
X3780Y5098D02*
D03*
X3819D02*
D03*
Y5059D02*
D03*
X3858Y5098D02*
D03*
X3898D02*
D03*
X3937D02*
D03*
X4134Y5059D02*
D03*
X4016Y5098D02*
D03*
X4055D02*
D03*
X4094D02*
D03*
X4134D02*
D03*
X4173D02*
D03*
X3583Y4902D02*
D03*
X3543Y4862D02*
D03*
X3602Y4843D02*
D03*
X3701Y4941D02*
D03*
X3740D02*
D03*
Y4980D02*
D03*
X3780Y4941D02*
D03*
Y4980D02*
D03*
X3819Y4941D02*
D03*
Y4980D02*
D03*
X3858D02*
D03*
Y4941D02*
D03*
X3898D02*
D03*
X3937D02*
D03*
X3898Y4980D02*
D03*
X3937D02*
D03*
X3976D02*
D03*
X3642Y4841D02*
D03*
X3760Y4844D02*
D03*
X4173Y5492D02*
D03*
X4134D02*
D03*
X4133Y5531D02*
D03*
X4094Y5492D02*
D03*
X4370Y5689D02*
D03*
X4414Y5733D02*
D03*
X4331Y5138D02*
D03*
X4292Y5178D02*
D03*
X4291Y5217D02*
D03*
X4331D02*
D03*
X4291Y5256D02*
D03*
X4331D02*
D03*
X4291Y5295D02*
D03*
X4331D02*
D03*
X4291Y5335D02*
D03*
X4331D02*
D03*
X4291Y5413D02*
D03*
Y5453D02*
D03*
Y5492D02*
D03*
X4331D02*
D03*
X4290Y5531D02*
D03*
X4331Y5531D02*
D03*
X4291Y5571D02*
D03*
X4331D02*
D03*
X4016Y5492D02*
D03*
X4055D02*
D03*
X4172Y5139D02*
D03*
X4212D02*
D03*
X4173Y5177D02*
D03*
Y5217D02*
D03*
Y5256D02*
D03*
Y5453D02*
D03*
X4213D02*
D03*
X4173Y5413D02*
D03*
Y5374D02*
D03*
Y5335D02*
D03*
X4408Y4863D02*
D03*
X4369Y4903D02*
D03*
X4331Y5413D02*
D03*
Y5453D02*
D03*
X3937Y5492D02*
D03*
X3898D02*
D03*
X3858D02*
D03*
X3819D02*
D03*
X3780D02*
D03*
X3820Y5531D02*
D03*
X5266Y4488D02*
D03*
X8278Y4478D02*
D03*
X9754Y4469D02*
D03*
X11289Y4488D02*
D03*
X12756Y4469D02*
D03*
X14291Y4498D02*
D03*
X15699Y4419D02*
D03*
X4094Y4823D02*
D03*
X4252Y4980D02*
D03*
Y4941D02*
D03*
X4213Y4980D02*
D03*
Y4941D02*
D03*
X4173Y4980D02*
D03*
X4173Y5020D02*
D03*
X4134D02*
D03*
X4173Y5610D02*
D03*
Y5650D02*
D03*
X4252Y5827D02*
D03*
X4281Y5856D02*
D03*
X4134Y5610D02*
D03*
Y5650D02*
D03*
X4281Y5915D02*
D03*
X4311Y5945D02*
D03*
X4016Y5797D02*
D03*
X4094Y5650D02*
D03*
Y5610D02*
D03*
X4055Y5650D02*
D03*
X4439Y6004D02*
D03*
X6663Y4350D02*
D03*
X4134Y5571D02*
D03*
X4055Y5610D02*
D03*
X4154Y5876D02*
D03*
X4016Y5610D02*
D03*
Y5650D02*
D03*
X3858D02*
D03*
X3543Y5728D02*
D03*
X3583Y5689D02*
D03*
X3533Y5512D02*
D03*
X3622Y5413D02*
D03*
Y5374D02*
D03*
X3819Y5650D02*
D03*
X3750Y5748D02*
D03*
X3740Y5453D02*
D03*
X3661Y4980D02*
D03*
X4439Y4813D02*
D03*
X4439Y4783D02*
D03*
X4173Y4941D02*
D03*
X4094D02*
D03*
X3976D02*
D03*
X4094Y4980D02*
D03*
X4419Y5079D02*
D03*
X3435Y5374D02*
D03*
X3406Y5354D02*
D03*
X3376Y5335D02*
D03*
X3524Y5069D02*
D03*
X13268Y3967D02*
D03*
X3524Y5669D02*
D03*
X6417Y6998D02*
D03*
X5305Y6535D02*
D03*
X7539Y7146D02*
D03*
X14677Y4530D02*
D03*
X5561Y6624D02*
D03*
X5394Y6555D02*
D03*
X4055Y5020D02*
D03*
X4065Y4852D02*
D03*
X4252Y5020D02*
D03*
X4094Y5531D02*
D03*
X11496Y3868D02*
D03*
X4281Y5748D02*
D03*
X11870Y3533D02*
D03*
X4193Y4852D02*
D03*
X4331Y5610D02*
D03*
X4291D02*
D03*
X3976Y5689D02*
D03*
X3937Y5650D02*
D03*
X3898D02*
D03*
X4242Y5748D02*
D03*
X4213D02*
D03*
X4094Y5059D02*
D03*
Y5020D02*
D03*
X4419Y5512D02*
D03*
X3445Y5709D02*
D03*
X3406Y5699D02*
D03*
X3366Y5640D02*
D03*
X8337Y7254D02*
D03*
X8907D02*
D03*
X9252Y7303D02*
D03*
X4469Y4724D02*
D03*
X6181Y3937D02*
D03*
X4528Y4774D02*
D03*
X6467Y3711D02*
D03*
X11112Y3602D02*
D03*
X12057Y3583D02*
D03*
X12963Y3563D02*
D03*
X11181Y3799D02*
D03*
D49*
X7750Y7441D02*
D03*
Y7520D02*
D03*
X7671D02*
D03*
Y7441D02*
D03*
X7593Y7520D02*
D03*
Y7441D02*
D03*
X7514Y7520D02*
D03*
Y7441D02*
D03*
X7435Y7520D02*
D03*
Y7441D02*
D03*
X7356Y7520D02*
D03*
Y7441D02*
D03*
X7278Y7520D02*
D03*
Y7441D02*
D03*
X6060Y7500D02*
D03*
X6011Y7579D02*
D03*
X5962Y7500D02*
D03*
X5912Y7579D02*
D03*
X5863Y7500D02*
D03*
X5814Y7579D02*
D03*
X5765Y7500D02*
D03*
X5716Y7579D02*
D03*
X5666Y7500D02*
D03*
X5617Y7579D02*
D03*
X5568Y7500D02*
D03*
X5519Y7579D02*
D03*
X5469Y7500D02*
D03*
X5420Y7579D02*
D03*
X2910Y7080D02*
D03*
D50*
X17024Y5991D02*
D03*
X17174D02*
D03*
X17024Y5891D02*
D03*
Y5791D02*
D03*
Y5691D02*
D03*
X17099Y5941D02*
D03*
Y5841D02*
D03*
Y5741D02*
D03*
Y5641D02*
D03*
X17024Y5591D02*
D03*
Y5491D02*
D03*
Y5391D02*
D03*
X17099Y5541D02*
D03*
Y5441D02*
D03*
X17024Y5291D02*
D03*
X17099Y5341D02*
D03*
X17174Y5891D02*
D03*
Y5791D02*
D03*
Y5691D02*
D03*
X17249Y5941D02*
D03*
Y5841D02*
D03*
Y5741D02*
D03*
Y5641D02*
D03*
X17174Y5591D02*
D03*
Y5491D02*
D03*
Y5391D02*
D03*
X17249Y5541D02*
D03*
Y5441D02*
D03*
X17174Y5291D02*
D03*
X17249Y5341D02*
D03*
X17024Y5191D02*
D03*
Y5091D02*
D03*
Y4991D02*
D03*
X17099Y5241D02*
D03*
Y5141D02*
D03*
Y5041D02*
D03*
Y4941D02*
D03*
X17024Y4891D02*
D03*
Y4791D02*
D03*
Y4691D02*
D03*
X17099Y4841D02*
D03*
Y4741D02*
D03*
Y4641D02*
D03*
X17174Y5191D02*
D03*
Y5091D02*
D03*
Y4991D02*
D03*
X17249Y5241D02*
D03*
Y5141D02*
D03*
Y5041D02*
D03*
Y4941D02*
D03*
X17174Y4891D02*
D03*
Y4791D02*
D03*
Y4691D02*
D03*
X17249Y4841D02*
D03*
Y4741D02*
D03*
Y4641D02*
D03*
X17024Y6291D02*
D03*
Y6191D02*
D03*
X17174Y6291D02*
D03*
X17099Y6241D02*
D03*
X17249D02*
D03*
X17099Y6141D02*
D03*
X17024Y6091D02*
D03*
X17099Y6041D02*
D03*
X17174Y6191D02*
D03*
X17249Y6141D02*
D03*
X17174Y6091D02*
D03*
X17249Y6041D02*
D03*
X5276Y5991D02*
D03*
X5351Y6041D02*
D03*
X5276Y6091D02*
D03*
X5351Y6141D02*
D03*
X5426Y5991D02*
D03*
X5501Y6041D02*
D03*
X5426Y6091D02*
D03*
X5276Y6191D02*
D03*
X5426D02*
D03*
X5351Y6241D02*
D03*
X5501Y6141D02*
D03*
Y6241D02*
D03*
X5276Y4591D02*
D03*
Y4691D02*
D03*
Y4791D02*
D03*
X5351Y4641D02*
D03*
Y4741D02*
D03*
Y4841D02*
D03*
X5276Y4891D02*
D03*
Y4991D02*
D03*
Y5091D02*
D03*
Y5191D02*
D03*
X5351Y4941D02*
D03*
Y5041D02*
D03*
Y5141D02*
D03*
X5426Y4591D02*
D03*
Y4691D02*
D03*
Y4791D02*
D03*
X5501Y4641D02*
D03*
Y4841D02*
D03*
X5426Y4891D02*
D03*
Y4991D02*
D03*
Y5091D02*
D03*
Y5191D02*
D03*
X5501Y4941D02*
D03*
Y5041D02*
D03*
Y5141D02*
D03*
X5276Y5291D02*
D03*
X5351Y5241D02*
D03*
X5276Y5391D02*
D03*
Y5491D02*
D03*
X5351Y5341D02*
D03*
Y5441D02*
D03*
Y5541D02*
D03*
X5276Y5591D02*
D03*
Y5691D02*
D03*
Y5791D02*
D03*
Y5891D02*
D03*
X5351Y5641D02*
D03*
Y5741D02*
D03*
Y5841D02*
D03*
X5426Y5291D02*
D03*
X5501Y5241D02*
D03*
X5426Y5391D02*
D03*
Y5491D02*
D03*
X5501Y5341D02*
D03*
Y5441D02*
D03*
Y5541D02*
D03*
X5426Y5591D02*
D03*
Y5691D02*
D03*
Y5791D02*
D03*
Y5891D02*
D03*
X5501Y5641D02*
D03*
Y5741D02*
D03*
Y5841D02*
D03*
X5351Y5941D02*
D03*
X5501D02*
D03*
X6026Y5991D02*
D03*
X6101Y6041D02*
D03*
X6026Y6091D02*
D03*
X6101Y6141D02*
D03*
X6176Y5991D02*
D03*
X6251Y6041D02*
D03*
X6176Y6091D02*
D03*
X6026Y6191D02*
D03*
X6176D02*
D03*
X6101Y6241D02*
D03*
X6251Y6141D02*
D03*
Y6241D02*
D03*
X6026Y4591D02*
D03*
Y4691D02*
D03*
Y4791D02*
D03*
X6101Y4641D02*
D03*
Y4741D02*
D03*
Y4841D02*
D03*
X6026Y4891D02*
D03*
Y4991D02*
D03*
Y5091D02*
D03*
Y5191D02*
D03*
X6101Y4941D02*
D03*
Y5041D02*
D03*
Y5141D02*
D03*
X6176Y4591D02*
D03*
Y4691D02*
D03*
Y4791D02*
D03*
X6251Y4641D02*
D03*
Y4741D02*
D03*
Y4841D02*
D03*
X6176Y4891D02*
D03*
Y4991D02*
D03*
Y5091D02*
D03*
Y5191D02*
D03*
X6251Y4941D02*
D03*
Y5041D02*
D03*
Y5141D02*
D03*
X6026Y5291D02*
D03*
X6101Y5241D02*
D03*
X6026Y5391D02*
D03*
Y5491D02*
D03*
X6101Y5341D02*
D03*
Y5441D02*
D03*
Y5541D02*
D03*
X6026Y5591D02*
D03*
Y5691D02*
D03*
Y5791D02*
D03*
Y5891D02*
D03*
X6101Y5641D02*
D03*
Y5741D02*
D03*
Y5841D02*
D03*
X6176Y5291D02*
D03*
X6251Y5241D02*
D03*
X6176Y5391D02*
D03*
Y5491D02*
D03*
X6251Y5341D02*
D03*
Y5441D02*
D03*
Y5541D02*
D03*
X6176Y5591D02*
D03*
Y5691D02*
D03*
Y5791D02*
D03*
Y5891D02*
D03*
X6251Y5641D02*
D03*
Y5741D02*
D03*
Y5841D02*
D03*
X6101Y5941D02*
D03*
X6251D02*
D03*
X6776Y5991D02*
D03*
X6851Y6041D02*
D03*
X6776Y6091D02*
D03*
X6851Y6141D02*
D03*
X6926Y5991D02*
D03*
X7001Y6041D02*
D03*
X6926Y6091D02*
D03*
X6776Y6191D02*
D03*
X6926D02*
D03*
X6851Y6241D02*
D03*
X7001Y6141D02*
D03*
Y6241D02*
D03*
X6776Y4591D02*
D03*
Y4691D02*
D03*
Y4791D02*
D03*
X6851Y4641D02*
D03*
Y4741D02*
D03*
Y4841D02*
D03*
X6776Y4891D02*
D03*
Y4991D02*
D03*
Y5091D02*
D03*
Y5191D02*
D03*
X6851Y4941D02*
D03*
Y5041D02*
D03*
Y5141D02*
D03*
X6926Y4591D02*
D03*
Y4691D02*
D03*
Y4791D02*
D03*
X7001Y4641D02*
D03*
Y4741D02*
D03*
Y4841D02*
D03*
X6926Y4891D02*
D03*
Y4991D02*
D03*
Y5091D02*
D03*
Y5191D02*
D03*
X7001Y4941D02*
D03*
Y5041D02*
D03*
Y5141D02*
D03*
X6776Y5291D02*
D03*
X6851Y5241D02*
D03*
X6776Y5391D02*
D03*
Y5491D02*
D03*
X6851Y5341D02*
D03*
Y5441D02*
D03*
Y5541D02*
D03*
X6776Y5591D02*
D03*
Y5691D02*
D03*
Y5791D02*
D03*
Y5891D02*
D03*
X6851Y5641D02*
D03*
Y5741D02*
D03*
Y5841D02*
D03*
X6926Y5291D02*
D03*
X7001Y5241D02*
D03*
X6926Y5391D02*
D03*
Y5491D02*
D03*
X7001Y5341D02*
D03*
Y5441D02*
D03*
Y5541D02*
D03*
X6926Y5591D02*
D03*
Y5691D02*
D03*
Y5791D02*
D03*
Y5891D02*
D03*
X7001Y5641D02*
D03*
Y5741D02*
D03*
Y5841D02*
D03*
X6851Y5941D02*
D03*
X7001D02*
D03*
X7526Y5991D02*
D03*
X7601Y6041D02*
D03*
X7526Y6091D02*
D03*
X7601Y6141D02*
D03*
X7676Y5991D02*
D03*
X7751Y6041D02*
D03*
X7676Y6091D02*
D03*
X7526Y6191D02*
D03*
X7676D02*
D03*
X7601Y6241D02*
D03*
X7751Y6141D02*
D03*
Y6241D02*
D03*
X7526Y4591D02*
D03*
Y4691D02*
D03*
Y4791D02*
D03*
X7601Y4641D02*
D03*
Y4741D02*
D03*
Y4841D02*
D03*
X7526Y4891D02*
D03*
Y4991D02*
D03*
Y5091D02*
D03*
Y5191D02*
D03*
X7601Y4941D02*
D03*
Y5041D02*
D03*
Y5141D02*
D03*
X7676Y4591D02*
D03*
Y4691D02*
D03*
Y4791D02*
D03*
X7751Y4641D02*
D03*
Y4741D02*
D03*
Y4841D02*
D03*
X7676Y4891D02*
D03*
Y4991D02*
D03*
Y5091D02*
D03*
Y5191D02*
D03*
X7751Y4941D02*
D03*
Y5041D02*
D03*
Y5141D02*
D03*
X7526Y5291D02*
D03*
X7601Y5241D02*
D03*
X7526Y5391D02*
D03*
Y5491D02*
D03*
X7601Y5341D02*
D03*
Y5441D02*
D03*
Y5541D02*
D03*
X7526Y5591D02*
D03*
Y5691D02*
D03*
Y5791D02*
D03*
Y5891D02*
D03*
X7601Y5641D02*
D03*
Y5741D02*
D03*
Y5841D02*
D03*
X7676Y5291D02*
D03*
X7751Y5241D02*
D03*
X7676Y5391D02*
D03*
Y5491D02*
D03*
X7751Y5341D02*
D03*
Y5441D02*
D03*
Y5541D02*
D03*
X7676Y5591D02*
D03*
Y5691D02*
D03*
Y5791D02*
D03*
Y5891D02*
D03*
X7751Y5641D02*
D03*
Y5741D02*
D03*
Y5841D02*
D03*
X7601Y5941D02*
D03*
X7751D02*
D03*
X8276Y5991D02*
D03*
X8351Y6041D02*
D03*
X8276Y6091D02*
D03*
X8351Y6141D02*
D03*
X8426Y5991D02*
D03*
X8501Y6041D02*
D03*
X8426Y6091D02*
D03*
X8276Y6191D02*
D03*
X8426D02*
D03*
X8351Y6241D02*
D03*
X8501Y6141D02*
D03*
Y6241D02*
D03*
X8276Y4591D02*
D03*
Y4691D02*
D03*
Y4791D02*
D03*
X8351Y4641D02*
D03*
Y4741D02*
D03*
Y4841D02*
D03*
X8276Y4891D02*
D03*
Y4991D02*
D03*
Y5091D02*
D03*
Y5191D02*
D03*
X8351Y4941D02*
D03*
Y5041D02*
D03*
Y5141D02*
D03*
X8426Y4591D02*
D03*
Y4691D02*
D03*
Y4791D02*
D03*
X8501Y4641D02*
D03*
Y4741D02*
D03*
Y4841D02*
D03*
X8426Y4891D02*
D03*
Y4991D02*
D03*
Y5091D02*
D03*
Y5191D02*
D03*
X8501Y4941D02*
D03*
Y5041D02*
D03*
Y5141D02*
D03*
X8276Y5291D02*
D03*
X8351Y5241D02*
D03*
X8276Y5391D02*
D03*
Y5491D02*
D03*
X8351Y5341D02*
D03*
Y5441D02*
D03*
Y5541D02*
D03*
X8276Y5591D02*
D03*
Y5691D02*
D03*
Y5791D02*
D03*
Y5891D02*
D03*
X8351Y5641D02*
D03*
Y5741D02*
D03*
Y5841D02*
D03*
X8426Y5291D02*
D03*
X8501Y5241D02*
D03*
X8426Y5391D02*
D03*
Y5491D02*
D03*
X8501Y5341D02*
D03*
Y5441D02*
D03*
Y5541D02*
D03*
X8426Y5591D02*
D03*
Y5691D02*
D03*
Y5791D02*
D03*
Y5891D02*
D03*
X8501Y5641D02*
D03*
Y5741D02*
D03*
Y5841D02*
D03*
X8351Y5941D02*
D03*
X8501D02*
D03*
X9026Y5991D02*
D03*
X9101Y6041D02*
D03*
X9026Y6091D02*
D03*
X9101Y6141D02*
D03*
X9176Y5991D02*
D03*
X9251Y6041D02*
D03*
X9176Y6091D02*
D03*
X9026Y6191D02*
D03*
X9176D02*
D03*
X9101Y6241D02*
D03*
X9251Y6141D02*
D03*
Y6241D02*
D03*
X9026Y4591D02*
D03*
Y4691D02*
D03*
Y4791D02*
D03*
X9101Y4641D02*
D03*
Y4741D02*
D03*
Y4841D02*
D03*
X9026Y4891D02*
D03*
Y4991D02*
D03*
Y5091D02*
D03*
Y5191D02*
D03*
X9101Y4941D02*
D03*
Y5041D02*
D03*
Y5141D02*
D03*
X9176Y4591D02*
D03*
Y4691D02*
D03*
Y4791D02*
D03*
X9251Y4641D02*
D03*
Y4741D02*
D03*
Y4841D02*
D03*
X9176Y4891D02*
D03*
Y4991D02*
D03*
Y5091D02*
D03*
Y5191D02*
D03*
X9251Y4941D02*
D03*
Y5041D02*
D03*
Y5141D02*
D03*
X9026Y5291D02*
D03*
X9101Y5241D02*
D03*
X9026Y5391D02*
D03*
Y5491D02*
D03*
X9101Y5341D02*
D03*
Y5441D02*
D03*
Y5541D02*
D03*
X9026Y5591D02*
D03*
Y5691D02*
D03*
Y5791D02*
D03*
Y5891D02*
D03*
X9101Y5641D02*
D03*
Y5741D02*
D03*
Y5841D02*
D03*
X9176Y5291D02*
D03*
X9251Y5241D02*
D03*
X9176Y5391D02*
D03*
Y5491D02*
D03*
X9251Y5341D02*
D03*
Y5441D02*
D03*
Y5541D02*
D03*
X9176Y5591D02*
D03*
Y5691D02*
D03*
Y5791D02*
D03*
Y5891D02*
D03*
X9251Y5641D02*
D03*
Y5741D02*
D03*
Y5841D02*
D03*
X9101Y5941D02*
D03*
X9251D02*
D03*
X9776Y5991D02*
D03*
X9851Y6041D02*
D03*
X9776Y6091D02*
D03*
X9851Y6141D02*
D03*
X9926Y5991D02*
D03*
X10001Y6041D02*
D03*
X9926Y6091D02*
D03*
X9776Y6191D02*
D03*
X9926D02*
D03*
X9851Y6241D02*
D03*
X10001Y6141D02*
D03*
Y6241D02*
D03*
X9776Y4591D02*
D03*
Y4691D02*
D03*
Y4791D02*
D03*
X9851Y4641D02*
D03*
Y4741D02*
D03*
Y4841D02*
D03*
X9776Y4891D02*
D03*
Y4991D02*
D03*
Y5091D02*
D03*
Y5191D02*
D03*
X9851Y4941D02*
D03*
Y5041D02*
D03*
Y5141D02*
D03*
X9926Y4591D02*
D03*
Y4691D02*
D03*
Y4791D02*
D03*
X10001Y4641D02*
D03*
Y4741D02*
D03*
Y4841D02*
D03*
X9926Y4891D02*
D03*
Y4991D02*
D03*
Y5091D02*
D03*
Y5191D02*
D03*
X10001Y4941D02*
D03*
Y5041D02*
D03*
Y5141D02*
D03*
X9776Y5291D02*
D03*
X9851Y5241D02*
D03*
X9776Y5391D02*
D03*
Y5491D02*
D03*
X9851Y5341D02*
D03*
Y5441D02*
D03*
Y5541D02*
D03*
X9776Y5591D02*
D03*
Y5691D02*
D03*
Y5791D02*
D03*
Y5891D02*
D03*
X9851Y5641D02*
D03*
Y5741D02*
D03*
Y5841D02*
D03*
X9926Y5291D02*
D03*
X10001Y5241D02*
D03*
X9926Y5391D02*
D03*
Y5491D02*
D03*
X10001Y5341D02*
D03*
Y5441D02*
D03*
Y5541D02*
D03*
X9926Y5591D02*
D03*
Y5691D02*
D03*
Y5791D02*
D03*
Y5891D02*
D03*
X10001Y5641D02*
D03*
Y5741D02*
D03*
Y5841D02*
D03*
X9851Y5941D02*
D03*
X10001D02*
D03*
X10526Y5991D02*
D03*
X10601Y6041D02*
D03*
X10526Y6091D02*
D03*
X10601Y6141D02*
D03*
X10676Y5991D02*
D03*
X10751Y6041D02*
D03*
X10676Y6091D02*
D03*
X10526Y6191D02*
D03*
X10676D02*
D03*
X10601Y6241D02*
D03*
X10751Y6141D02*
D03*
Y6241D02*
D03*
X10526Y4591D02*
D03*
Y4691D02*
D03*
Y4791D02*
D03*
X10601Y4641D02*
D03*
Y4741D02*
D03*
Y4841D02*
D03*
X10526Y4891D02*
D03*
Y4991D02*
D03*
Y5091D02*
D03*
Y5191D02*
D03*
X10601Y4941D02*
D03*
Y5041D02*
D03*
Y5141D02*
D03*
X10676Y4591D02*
D03*
Y4691D02*
D03*
Y4791D02*
D03*
X10751Y4641D02*
D03*
Y4741D02*
D03*
Y4841D02*
D03*
X10676Y4891D02*
D03*
Y4991D02*
D03*
Y5091D02*
D03*
Y5191D02*
D03*
X10751Y4941D02*
D03*
Y5041D02*
D03*
Y5141D02*
D03*
X10526Y5291D02*
D03*
X10601Y5241D02*
D03*
X10526Y5391D02*
D03*
Y5491D02*
D03*
X10601Y5341D02*
D03*
Y5441D02*
D03*
Y5541D02*
D03*
X10526Y5591D02*
D03*
Y5691D02*
D03*
Y5791D02*
D03*
Y5891D02*
D03*
X10601Y5641D02*
D03*
Y5741D02*
D03*
Y5841D02*
D03*
X10676Y5291D02*
D03*
X10751Y5241D02*
D03*
X10676Y5391D02*
D03*
Y5491D02*
D03*
X10751Y5341D02*
D03*
Y5441D02*
D03*
Y5541D02*
D03*
X10676Y5591D02*
D03*
Y5691D02*
D03*
Y5791D02*
D03*
Y5891D02*
D03*
X10751Y5641D02*
D03*
Y5741D02*
D03*
Y5841D02*
D03*
X10601Y5941D02*
D03*
X10751D02*
D03*
X11276Y5991D02*
D03*
X11351Y6041D02*
D03*
X11276Y6091D02*
D03*
X11351Y6141D02*
D03*
X11426Y5991D02*
D03*
X11501Y6041D02*
D03*
X11426Y6091D02*
D03*
X11276Y6191D02*
D03*
X11426D02*
D03*
X11351Y6241D02*
D03*
X11501Y6141D02*
D03*
Y6241D02*
D03*
X11276Y4591D02*
D03*
Y4691D02*
D03*
Y4791D02*
D03*
X11351Y4641D02*
D03*
Y4741D02*
D03*
Y4841D02*
D03*
X11276Y4891D02*
D03*
Y4991D02*
D03*
Y5091D02*
D03*
Y5191D02*
D03*
X11351Y4941D02*
D03*
Y5041D02*
D03*
Y5141D02*
D03*
X11426Y4591D02*
D03*
Y4691D02*
D03*
Y4791D02*
D03*
X11501Y4641D02*
D03*
Y4741D02*
D03*
Y4841D02*
D03*
X11426Y4891D02*
D03*
Y4991D02*
D03*
Y5091D02*
D03*
Y5191D02*
D03*
X11501Y4941D02*
D03*
Y5041D02*
D03*
Y5141D02*
D03*
X11276Y5291D02*
D03*
X11351Y5241D02*
D03*
X11276Y5391D02*
D03*
Y5491D02*
D03*
X11351Y5341D02*
D03*
Y5441D02*
D03*
Y5541D02*
D03*
X11276Y5591D02*
D03*
Y5691D02*
D03*
Y5791D02*
D03*
Y5891D02*
D03*
X11351Y5641D02*
D03*
Y5741D02*
D03*
Y5841D02*
D03*
X11426Y5291D02*
D03*
X11501Y5241D02*
D03*
X11426Y5391D02*
D03*
Y5491D02*
D03*
X11501Y5341D02*
D03*
Y5441D02*
D03*
Y5541D02*
D03*
X11426Y5591D02*
D03*
Y5691D02*
D03*
Y5791D02*
D03*
Y5891D02*
D03*
X11501Y5641D02*
D03*
Y5741D02*
D03*
Y5841D02*
D03*
X11351Y5941D02*
D03*
X11501D02*
D03*
X12026Y5991D02*
D03*
X12101Y6041D02*
D03*
X12026Y6091D02*
D03*
X12101Y6141D02*
D03*
X12176Y5991D02*
D03*
X12251Y6041D02*
D03*
X12176Y6091D02*
D03*
X12026Y6191D02*
D03*
X12176D02*
D03*
X12101Y6241D02*
D03*
X12251Y6141D02*
D03*
Y6241D02*
D03*
X12026Y4591D02*
D03*
Y4691D02*
D03*
Y4791D02*
D03*
X12101Y4641D02*
D03*
Y4741D02*
D03*
Y4841D02*
D03*
X12026Y4891D02*
D03*
Y4991D02*
D03*
Y5091D02*
D03*
Y5191D02*
D03*
X12101Y4941D02*
D03*
Y5041D02*
D03*
Y5141D02*
D03*
X12176Y4591D02*
D03*
Y4691D02*
D03*
Y4791D02*
D03*
X12251Y4641D02*
D03*
Y4741D02*
D03*
Y4841D02*
D03*
X12176Y4891D02*
D03*
Y4991D02*
D03*
Y5091D02*
D03*
Y5191D02*
D03*
X12251Y4941D02*
D03*
Y5041D02*
D03*
Y5141D02*
D03*
X12026Y5291D02*
D03*
X12101Y5241D02*
D03*
X12026Y5391D02*
D03*
Y5491D02*
D03*
X12101Y5341D02*
D03*
Y5441D02*
D03*
Y5541D02*
D03*
X12026Y5591D02*
D03*
Y5691D02*
D03*
Y5791D02*
D03*
Y5891D02*
D03*
X12101Y5641D02*
D03*
Y5741D02*
D03*
Y5841D02*
D03*
X12176Y5291D02*
D03*
X12251Y5241D02*
D03*
X12176Y5391D02*
D03*
Y5491D02*
D03*
X12251Y5341D02*
D03*
Y5441D02*
D03*
Y5541D02*
D03*
X12176Y5591D02*
D03*
Y5691D02*
D03*
Y5791D02*
D03*
Y5891D02*
D03*
X12251Y5641D02*
D03*
Y5741D02*
D03*
Y5841D02*
D03*
X12101Y5941D02*
D03*
X12251D02*
D03*
X12776Y5991D02*
D03*
X12851Y6041D02*
D03*
X12776Y6091D02*
D03*
X12851Y6141D02*
D03*
X12926Y5991D02*
D03*
X13001Y6041D02*
D03*
X12926Y6091D02*
D03*
X12776Y6191D02*
D03*
X12926D02*
D03*
X12851Y6241D02*
D03*
X13001Y6141D02*
D03*
Y6241D02*
D03*
X12776Y4591D02*
D03*
Y4691D02*
D03*
Y4791D02*
D03*
X12851Y4641D02*
D03*
Y4741D02*
D03*
Y4841D02*
D03*
X12776Y4891D02*
D03*
Y4991D02*
D03*
Y5091D02*
D03*
Y5191D02*
D03*
X12851Y4941D02*
D03*
Y5041D02*
D03*
Y5141D02*
D03*
X12926Y4591D02*
D03*
Y4691D02*
D03*
Y4791D02*
D03*
X13001Y4641D02*
D03*
Y4741D02*
D03*
Y4841D02*
D03*
X12926Y4891D02*
D03*
Y4991D02*
D03*
Y5091D02*
D03*
Y5191D02*
D03*
X13001Y4941D02*
D03*
Y5041D02*
D03*
Y5141D02*
D03*
X12776Y5291D02*
D03*
X12851Y5241D02*
D03*
X12776Y5391D02*
D03*
Y5491D02*
D03*
X12851Y5341D02*
D03*
Y5441D02*
D03*
Y5541D02*
D03*
X12776Y5591D02*
D03*
Y5691D02*
D03*
Y5791D02*
D03*
Y5891D02*
D03*
X12851Y5641D02*
D03*
Y5741D02*
D03*
Y5841D02*
D03*
X12926Y5291D02*
D03*
X13001Y5241D02*
D03*
X12926Y5391D02*
D03*
Y5491D02*
D03*
X13001Y5341D02*
D03*
Y5441D02*
D03*
Y5541D02*
D03*
X12926Y5591D02*
D03*
Y5691D02*
D03*
Y5791D02*
D03*
Y5891D02*
D03*
X13001Y5641D02*
D03*
Y5741D02*
D03*
Y5841D02*
D03*
X12851Y5941D02*
D03*
X13001D02*
D03*
X13526Y5991D02*
D03*
X13601Y6041D02*
D03*
X13526Y6091D02*
D03*
X13601Y6141D02*
D03*
X13676Y5991D02*
D03*
X13751Y6041D02*
D03*
X13676Y6091D02*
D03*
X13526Y6191D02*
D03*
X13676D02*
D03*
X13601Y6241D02*
D03*
X13751Y6141D02*
D03*
Y6241D02*
D03*
X13526Y4591D02*
D03*
Y4691D02*
D03*
Y4791D02*
D03*
X13601Y4641D02*
D03*
Y4741D02*
D03*
Y4841D02*
D03*
X13526Y4891D02*
D03*
Y4991D02*
D03*
Y5091D02*
D03*
Y5191D02*
D03*
X13601Y4941D02*
D03*
Y5041D02*
D03*
Y5141D02*
D03*
X13676Y4591D02*
D03*
Y4691D02*
D03*
Y4791D02*
D03*
X13751Y4641D02*
D03*
Y4741D02*
D03*
Y4841D02*
D03*
X13676Y4891D02*
D03*
Y4991D02*
D03*
Y5091D02*
D03*
Y5191D02*
D03*
X13751Y4941D02*
D03*
Y5041D02*
D03*
Y5141D02*
D03*
X13526Y5291D02*
D03*
X13601Y5241D02*
D03*
X13526Y5391D02*
D03*
Y5491D02*
D03*
X13601Y5341D02*
D03*
Y5441D02*
D03*
Y5541D02*
D03*
X13526Y5591D02*
D03*
Y5691D02*
D03*
Y5791D02*
D03*
Y5891D02*
D03*
X13601Y5641D02*
D03*
Y5741D02*
D03*
Y5841D02*
D03*
X13676Y5291D02*
D03*
X13751Y5241D02*
D03*
X13676Y5391D02*
D03*
Y5491D02*
D03*
X13751Y5341D02*
D03*
Y5441D02*
D03*
Y5541D02*
D03*
X13676Y5591D02*
D03*
Y5691D02*
D03*
Y5791D02*
D03*
Y5891D02*
D03*
X13751Y5641D02*
D03*
Y5741D02*
D03*
Y5841D02*
D03*
X13601Y5941D02*
D03*
X13751D02*
D03*
X14276Y5991D02*
D03*
X14351Y6041D02*
D03*
X14276Y6091D02*
D03*
X14351Y6141D02*
D03*
X14426Y5991D02*
D03*
X14501Y6041D02*
D03*
X14426Y6091D02*
D03*
X14276Y6191D02*
D03*
X14426D02*
D03*
X14351Y6241D02*
D03*
X14501Y6141D02*
D03*
Y6241D02*
D03*
X14276Y4591D02*
D03*
Y4691D02*
D03*
Y4791D02*
D03*
X14351Y4641D02*
D03*
Y4741D02*
D03*
Y4841D02*
D03*
X14276Y4891D02*
D03*
Y4991D02*
D03*
Y5091D02*
D03*
Y5191D02*
D03*
X14351Y4941D02*
D03*
Y5041D02*
D03*
Y5141D02*
D03*
X14426Y4591D02*
D03*
Y4691D02*
D03*
Y4791D02*
D03*
X14501Y4641D02*
D03*
Y4741D02*
D03*
Y4841D02*
D03*
X14426Y4891D02*
D03*
Y4991D02*
D03*
Y5091D02*
D03*
Y5191D02*
D03*
X14501Y4941D02*
D03*
Y5041D02*
D03*
Y5141D02*
D03*
X14276Y5291D02*
D03*
X14351Y5241D02*
D03*
X14276Y5391D02*
D03*
Y5491D02*
D03*
X14351Y5341D02*
D03*
Y5441D02*
D03*
Y5541D02*
D03*
X14276Y5591D02*
D03*
Y5691D02*
D03*
Y5791D02*
D03*
Y5891D02*
D03*
X14351Y5641D02*
D03*
Y5741D02*
D03*
Y5841D02*
D03*
X14426Y5291D02*
D03*
X14501Y5241D02*
D03*
X14426Y5391D02*
D03*
Y5491D02*
D03*
X14501Y5341D02*
D03*
Y5441D02*
D03*
Y5541D02*
D03*
X14426Y5591D02*
D03*
Y5691D02*
D03*
Y5791D02*
D03*
Y5891D02*
D03*
X14501Y5641D02*
D03*
Y5741D02*
D03*
Y5841D02*
D03*
X14351Y5941D02*
D03*
X14501D02*
D03*
X15026Y5991D02*
D03*
X15101Y6041D02*
D03*
X15026Y6091D02*
D03*
X15101Y6141D02*
D03*
X15176Y5991D02*
D03*
X15251Y6041D02*
D03*
X15176Y6091D02*
D03*
X15026Y6191D02*
D03*
X15176D02*
D03*
X15101Y6241D02*
D03*
X15251Y6141D02*
D03*
Y6241D02*
D03*
X15026Y4591D02*
D03*
Y4691D02*
D03*
Y4791D02*
D03*
X15101Y4641D02*
D03*
Y4741D02*
D03*
Y4841D02*
D03*
X15026Y4891D02*
D03*
Y4991D02*
D03*
Y5091D02*
D03*
Y5191D02*
D03*
X15101Y4941D02*
D03*
Y5041D02*
D03*
Y5141D02*
D03*
X15176Y4591D02*
D03*
Y4691D02*
D03*
Y4791D02*
D03*
X15251Y4641D02*
D03*
Y4741D02*
D03*
Y4841D02*
D03*
X15176Y4891D02*
D03*
Y4991D02*
D03*
Y5091D02*
D03*
Y5191D02*
D03*
X15251Y4941D02*
D03*
Y5041D02*
D03*
Y5141D02*
D03*
X15026Y5291D02*
D03*
X15101Y5241D02*
D03*
X15026Y5391D02*
D03*
Y5491D02*
D03*
X15101Y5341D02*
D03*
Y5441D02*
D03*
Y5541D02*
D03*
X15026Y5591D02*
D03*
Y5691D02*
D03*
Y5791D02*
D03*
Y5891D02*
D03*
X15101Y5641D02*
D03*
Y5741D02*
D03*
Y5841D02*
D03*
X15176Y5291D02*
D03*
X15251Y5241D02*
D03*
X15176Y5391D02*
D03*
Y5491D02*
D03*
X15251Y5341D02*
D03*
Y5441D02*
D03*
Y5541D02*
D03*
X15176Y5591D02*
D03*
Y5691D02*
D03*
Y5791D02*
D03*
Y5891D02*
D03*
X15251Y5641D02*
D03*
Y5741D02*
D03*
Y5841D02*
D03*
X15101Y5941D02*
D03*
X15251D02*
D03*
X15776Y5991D02*
D03*
X15851Y6041D02*
D03*
X15776Y6091D02*
D03*
X15851Y6141D02*
D03*
X15926Y5991D02*
D03*
X16001Y6041D02*
D03*
X15926Y6091D02*
D03*
X15776Y6191D02*
D03*
X15926D02*
D03*
X15851Y6241D02*
D03*
X16001Y6141D02*
D03*
Y6241D02*
D03*
X15776Y4591D02*
D03*
Y4691D02*
D03*
Y4791D02*
D03*
X15851Y4641D02*
D03*
Y4741D02*
D03*
Y4841D02*
D03*
X15776Y4891D02*
D03*
Y4991D02*
D03*
Y5091D02*
D03*
Y5191D02*
D03*
X15851Y4941D02*
D03*
Y5041D02*
D03*
Y5141D02*
D03*
X15926Y4591D02*
D03*
Y4691D02*
D03*
Y4791D02*
D03*
X16001Y4641D02*
D03*
Y4741D02*
D03*
Y4841D02*
D03*
X15926Y4891D02*
D03*
Y4991D02*
D03*
Y5091D02*
D03*
Y5191D02*
D03*
X16001Y4941D02*
D03*
Y5041D02*
D03*
Y5141D02*
D03*
X15776Y5291D02*
D03*
X15851Y5241D02*
D03*
X15776Y5391D02*
D03*
Y5491D02*
D03*
X15851Y5341D02*
D03*
Y5441D02*
D03*
Y5541D02*
D03*
X15776Y5591D02*
D03*
Y5691D02*
D03*
Y5791D02*
D03*
Y5891D02*
D03*
X15851Y5641D02*
D03*
Y5741D02*
D03*
Y5841D02*
D03*
X15926Y5291D02*
D03*
X16001Y5241D02*
D03*
X15926Y5391D02*
D03*
Y5491D02*
D03*
X16001Y5341D02*
D03*
Y5441D02*
D03*
Y5541D02*
D03*
X15926Y5591D02*
D03*
Y5691D02*
D03*
Y5791D02*
D03*
Y5891D02*
D03*
X16001Y5641D02*
D03*
Y5741D02*
D03*
Y5841D02*
D03*
X15851Y5941D02*
D03*
X16001D02*
D03*
X16526Y5991D02*
D03*
X16601Y6041D02*
D03*
X16526Y6091D02*
D03*
X16601Y6141D02*
D03*
X16676Y5991D02*
D03*
X16751Y6041D02*
D03*
X16676Y6091D02*
D03*
X16526Y6191D02*
D03*
X16676D02*
D03*
X16601Y6241D02*
D03*
X16751Y6141D02*
D03*
Y6241D02*
D03*
X16526Y4591D02*
D03*
Y4691D02*
D03*
Y4791D02*
D03*
X16601Y4641D02*
D03*
Y4741D02*
D03*
Y4841D02*
D03*
X16526Y4891D02*
D03*
Y4991D02*
D03*
Y5091D02*
D03*
Y5191D02*
D03*
X16601Y4941D02*
D03*
Y5041D02*
D03*
Y5141D02*
D03*
X16676Y4591D02*
D03*
Y4691D02*
D03*
Y4791D02*
D03*
X16751Y4641D02*
D03*
Y4741D02*
D03*
Y4841D02*
D03*
X16676Y4891D02*
D03*
Y4991D02*
D03*
Y5091D02*
D03*
Y5191D02*
D03*
X16751Y4941D02*
D03*
Y5041D02*
D03*
Y5141D02*
D03*
X16526Y5291D02*
D03*
X16601Y5241D02*
D03*
X16526Y5391D02*
D03*
Y5491D02*
D03*
X16601Y5341D02*
D03*
Y5441D02*
D03*
Y5541D02*
D03*
X16526Y5591D02*
D03*
Y5691D02*
D03*
Y5791D02*
D03*
Y5891D02*
D03*
X16601Y5641D02*
D03*
Y5741D02*
D03*
Y5841D02*
D03*
X16676Y5291D02*
D03*
X16751Y5241D02*
D03*
X16676Y5391D02*
D03*
Y5491D02*
D03*
X16751Y5341D02*
D03*
Y5441D02*
D03*
Y5541D02*
D03*
X16676Y5591D02*
D03*
Y5691D02*
D03*
Y5791D02*
D03*
Y5891D02*
D03*
X16751Y5641D02*
D03*
Y5741D02*
D03*
Y5841D02*
D03*
X16601Y5941D02*
D03*
X16751D02*
D03*
X5989Y3515D02*
D03*
X6039Y3440D02*
D03*
X6089Y3515D02*
D03*
X6139Y3440D02*
D03*
X6039Y3290D02*
D03*
X6189Y3515D02*
D03*
Y3365D02*
D03*
X6239Y3440D02*
D03*
X6139Y3290D02*
D03*
X6239D02*
D03*
X4589Y3515D02*
D03*
X4689D02*
D03*
X4789D02*
D03*
X4639Y3440D02*
D03*
X4739D02*
D03*
X4839D02*
D03*
X4889Y3515D02*
D03*
X4989D02*
D03*
X5089D02*
D03*
X5189D02*
D03*
X4939Y3440D02*
D03*
X5039D02*
D03*
X5139D02*
D03*
X4589Y3365D02*
D03*
X4689D02*
D03*
X4789D02*
D03*
X4639Y3290D02*
D03*
X4739D02*
D03*
X4839D02*
D03*
X4889Y3365D02*
D03*
X4989D02*
D03*
X5089D02*
D03*
X5189D02*
D03*
X4939Y3290D02*
D03*
X5039D02*
D03*
X5139D02*
D03*
X5289Y3515D02*
D03*
X5239Y3440D02*
D03*
X5389Y3515D02*
D03*
X5489D02*
D03*
X5339Y3440D02*
D03*
X5439D02*
D03*
X5539D02*
D03*
X5589Y3515D02*
D03*
X5689D02*
D03*
X5789D02*
D03*
X5889D02*
D03*
X5639Y3440D02*
D03*
X5739D02*
D03*
X5839D02*
D03*
X5289Y3365D02*
D03*
X5239Y3290D02*
D03*
X5389Y3365D02*
D03*
X5489D02*
D03*
X5339Y3290D02*
D03*
X5439D02*
D03*
X5539D02*
D03*
X5589Y3365D02*
D03*
X5689D02*
D03*
X5789D02*
D03*
X5889D02*
D03*
X5639Y3290D02*
D03*
X5739D02*
D03*
X5839D02*
D03*
X5939Y3440D02*
D03*
Y3290D02*
D03*
X12510Y3847D02*
D03*
X12460Y3772D02*
D03*
X12410Y3847D02*
D03*
X12360Y3772D02*
D03*
X12510Y3697D02*
D03*
X12460Y3622D02*
D03*
X12410Y3697D02*
D03*
X12310Y3847D02*
D03*
Y3697D02*
D03*
X12260Y3772D02*
D03*
X12360Y3622D02*
D03*
X12260D02*
D03*
X13910Y3847D02*
D03*
X13810D02*
D03*
X13710D02*
D03*
X13860Y3772D02*
D03*
X13760D02*
D03*
X13660D02*
D03*
X13610Y3847D02*
D03*
X13510D02*
D03*
X13410D02*
D03*
X13310D02*
D03*
X13560Y3772D02*
D03*
X13460D02*
D03*
X13360D02*
D03*
X13910Y3697D02*
D03*
X13810D02*
D03*
X13710D02*
D03*
X13860Y3622D02*
D03*
X13760D02*
D03*
X13660D02*
D03*
X13610Y3697D02*
D03*
X13510D02*
D03*
X13410D02*
D03*
X13310D02*
D03*
X13560Y3622D02*
D03*
X13460D02*
D03*
X13360D02*
D03*
X13210Y3847D02*
D03*
X13260Y3772D02*
D03*
X13110Y3847D02*
D03*
X13010D02*
D03*
X13160Y3772D02*
D03*
X13060D02*
D03*
X12960D02*
D03*
X12910Y3847D02*
D03*
X12810D02*
D03*
X12710D02*
D03*
X12610D02*
D03*
X12860Y3772D02*
D03*
X12760D02*
D03*
X12660D02*
D03*
X13210Y3697D02*
D03*
X13260Y3622D02*
D03*
X13110Y3697D02*
D03*
X13010D02*
D03*
X13160Y3622D02*
D03*
X13060D02*
D03*
X12960D02*
D03*
X12910Y3697D02*
D03*
X12810D02*
D03*
X12710D02*
D03*
X12610D02*
D03*
X12860Y3622D02*
D03*
X12760D02*
D03*
X12660D02*
D03*
X12560Y3772D02*
D03*
Y3622D02*
D03*
X5501Y4741D02*
D03*
X5989Y3365D02*
D03*
X6089D02*
D03*
D51*
X17050Y4552D02*
D03*
X5475Y4502D02*
D03*
X6225D02*
D03*
X6975D02*
D03*
X7725D02*
D03*
X8475D02*
D03*
X9225D02*
D03*
X9975D02*
D03*
X10725D02*
D03*
X11475D02*
D03*
X12225D02*
D03*
X12975D02*
D03*
X13725D02*
D03*
X14475D02*
D03*
X15225D02*
D03*
X15975D02*
D03*
X16725D02*
D03*
X4500Y3316D02*
D03*
X13999Y3648D02*
D03*
D52*
X17137Y4445D02*
D03*
Y6487D02*
D03*
X5388Y6437D02*
D03*
Y4395D02*
D03*
X6138Y6437D02*
D03*
Y4395D02*
D03*
X6888Y6437D02*
D03*
Y4395D02*
D03*
X7638Y6437D02*
D03*
Y4395D02*
D03*
X8388Y6437D02*
D03*
Y4395D02*
D03*
X9138Y6437D02*
D03*
Y4395D02*
D03*
X9888Y6437D02*
D03*
Y4395D02*
D03*
X10638Y6437D02*
D03*
Y4395D02*
D03*
X11388Y6437D02*
D03*
Y4395D02*
D03*
X12138Y6437D02*
D03*
Y4395D02*
D03*
X12888Y6437D02*
D03*
Y4395D02*
D03*
X13638Y6437D02*
D03*
Y4395D02*
D03*
X14388Y6437D02*
D03*
Y4395D02*
D03*
X15138Y6437D02*
D03*
Y4395D02*
D03*
X15888Y6437D02*
D03*
Y4395D02*
D03*
X16638Y6437D02*
D03*
Y4395D02*
D03*
X6435Y3402D02*
D03*
X4393D02*
D03*
X12064Y3735D02*
D03*
X14106D02*
D03*
D53*
X16000Y3200D02*
D03*
Y7325D02*
D03*
X12000Y3200D02*
D03*
Y7325D02*
D03*
X8000Y3200D02*
D03*
Y7325D02*
D03*
X4000Y3200D02*
D03*
Y7325D02*
D03*
D54*
X6748Y7440D02*
D03*
X6472D02*
D03*
X6610D02*
D03*
D55*
X2910Y6980D02*
D03*
D56*
X2263Y5982D02*
D03*
Y6147D02*
D03*
Y6313D02*
D03*
Y6478D02*
D03*
Y6643D02*
D03*
Y6809D02*
D03*
Y6974D02*
D03*
Y7139D02*
D03*
Y7305D02*
D03*
Y7470D02*
D03*
X2480Y5982D02*
D03*
Y6147D02*
D03*
Y6313D02*
D03*
Y6478D02*
D03*
Y6643D02*
D03*
Y6809D02*
D03*
Y6974D02*
D03*
Y7139D02*
D03*
Y7305D02*
D03*
Y7470D02*
D03*
D57*
X9430D02*
D03*
X9330D02*
D03*
X9020Y7480D02*
D03*
X8920D02*
D03*
X8540D02*
D03*
X8640D02*
D03*
D58*
X3620Y5750D02*
D03*
X3460Y5596D02*
D03*
X3927Y6520D02*
D03*
X4134Y4055D02*
D03*
X4166Y3910D02*
D03*
X3414Y4064D02*
D03*
Y3919D02*
D03*
X3625Y3560D02*
D03*
X3701Y3514D02*
D03*
X3788Y3503D02*
D03*
X3839Y3504D02*
D03*
X3898D02*
D03*
X3983Y3560D02*
D03*
X3917Y4163D02*
D03*
X3673Y4165D02*
D03*
X3691Y3843D02*
D03*
X3629Y3777D02*
D03*
X3983D02*
D03*
X3865Y3845D02*
D03*
X3914Y3875D02*
D03*
X3835Y3980D02*
D03*
X3746Y3990D02*
D03*
X9852Y7402D02*
D03*
X10551Y7274D02*
D03*
X10236Y7195D02*
D03*
X10453Y7175D02*
D03*
X10463Y7372D02*
D03*
X10315Y7480D02*
D03*
X3553Y7392D02*
D03*
X4291Y7185D02*
D03*
X3799Y7283D02*
D03*
X4705Y7175D02*
D03*
Y7323D02*
D03*
X4832Y7440D02*
D03*
X4590Y7326D02*
D03*
X4656Y7510D02*
D03*
X4705Y7559D02*
D03*
X5035Y7377D02*
D03*
X4605Y7128D02*
D03*
X4453Y7052D02*
D03*
X4450Y6977D02*
D03*
X4594Y6903D02*
D03*
X4459Y6762D02*
D03*
X4596Y6722D02*
D03*
X4459Y6663D02*
D03*
X4968Y6552D02*
D03*
X4967Y6628D02*
D03*
X4823Y6702D02*
D03*
X4829Y6778D02*
D03*
X4826Y6903D02*
D03*
X4824Y6977D02*
D03*
X4818Y7052D02*
D03*
X4980Y7146D02*
D03*
X9931Y7283D02*
D03*
X9951Y7362D02*
D03*
X10364Y7274D02*
D03*
X10551Y7382D02*
D03*
X10674Y7170D02*
D03*
X10320Y7122D02*
D03*
X10246Y7382D02*
D03*
X11967Y3630D02*
D03*
X11959Y3848D02*
D03*
X11682Y3926D02*
D03*
X11762Y3848D02*
D03*
X11693Y3563D02*
D03*
X14016Y3376D02*
D03*
X13642D02*
D03*
X17293Y3996D02*
D03*
X17087Y4183D02*
D03*
X17234Y6683D02*
D03*
X17028Y6663D02*
D03*
X17230Y7042D02*
D03*
X17030Y7035D02*
D03*
X6698Y3312D02*
D03*
X6845Y3508D02*
D03*
X6633Y3820D02*
D03*
X6261D02*
D03*
X4085Y3514D02*
D03*
X4116Y3718D02*
D03*
X2954Y3820D02*
D03*
X3316D02*
D03*
X2805Y5295D02*
D03*
X2549Y5167D02*
D03*
X4685Y5994D02*
D03*
X4488Y5689D02*
D03*
X3355Y5778D02*
D03*
X3346Y5582D02*
D03*
X3189Y5581D02*
D03*
Y5778D02*
D03*
X4528Y4990D02*
D03*
X3550Y4682D02*
D03*
X3553Y4488D02*
D03*
X4528Y4843D02*
D03*
X12910Y3176D02*
D03*
D59*
X3376Y6427D02*
D03*
X2992D02*
D03*
X4085Y6762D02*
D03*
X4232D02*
D03*
X3573Y6437D02*
D03*
X4045Y7185D02*
D03*
X3701Y7274D02*
D03*
D60*
X5219Y6831D02*
D03*
X5622D02*
D03*
X5969D02*
D03*
X6372D02*
D03*
X16451Y6831D02*
D03*
X16854D02*
D03*
X15706D02*
D03*
X16109D02*
D03*
X14956D02*
D03*
X15359D02*
D03*
X14211D02*
D03*
X14614D02*
D03*
X13461D02*
D03*
X13864D02*
D03*
X12691D02*
D03*
X13094D02*
D03*
X11966D02*
D03*
X12369D02*
D03*
X11216D02*
D03*
X11619D02*
D03*
X10426D02*
D03*
X10829D02*
D03*
X9681D02*
D03*
X10084D02*
D03*
X9374D02*
D03*
X8226D02*
D03*
X8629D02*
D03*
X7879D02*
D03*
X7476D02*
D03*
X7111D02*
D03*
X6704D02*
D03*
D61*
X3858Y5217D02*
D03*
Y5256D02*
D03*
Y5335D02*
D03*
Y5295D02*
D03*
Y5413D02*
D03*
Y5374D02*
D03*
Y5177D02*
D03*
X3898Y5217D02*
D03*
Y5256D02*
D03*
Y5335D02*
D03*
Y5295D02*
D03*
Y5413D02*
D03*
Y5374D02*
D03*
Y5177D02*
D03*
X3937Y5217D02*
D03*
Y5256D02*
D03*
Y5335D02*
D03*
Y5295D02*
D03*
Y5413D02*
D03*
Y5374D02*
D03*
Y5177D02*
D03*
X3976Y5217D02*
D03*
Y5256D02*
D03*
Y5335D02*
D03*
Y5295D02*
D03*
Y5413D02*
D03*
Y5374D02*
D03*
Y5177D02*
D03*
X4016Y5217D02*
D03*
Y5256D02*
D03*
Y5335D02*
D03*
Y5295D02*
D03*
Y5413D02*
D03*
Y5374D02*
D03*
Y5177D02*
D03*
X4094Y5217D02*
D03*
Y5256D02*
D03*
Y5335D02*
D03*
Y5295D02*
D03*
Y5413D02*
D03*
Y5374D02*
D03*
Y5177D02*
D03*
X4055D02*
D03*
Y5374D02*
D03*
Y5413D02*
D03*
Y5295D02*
D03*
Y5335D02*
D03*
Y5256D02*
D03*
Y5217D02*
D03*
D63*
X4380Y5024D02*
X4415D01*
X4380Y5076D02*
X4416D01*
X3758Y4846D02*
X3760Y4844D01*
X3730Y4846D02*
X3758D01*
X3730Y4794D02*
X3759D01*
D64*
X3580Y5416D02*
D03*
Y5364D02*
D03*
X4250Y5134D02*
D03*
Y5186D02*
D03*
X4370Y5456D02*
D03*
Y5404D02*
D03*
X4130Y5256D02*
D03*
Y5204D02*
D03*
Y5396D02*
D03*
Y5344D02*
D03*
X3820Y5204D02*
D03*
Y5256D02*
D03*
Y5396D02*
D03*
Y5344D02*
D03*
X3580Y5114D02*
D03*
Y5166D02*
D03*
X4130Y4976D02*
D03*
Y4924D02*
D03*
X4380Y5076D02*
D03*
Y5024D02*
D03*
X3730Y4846D02*
D03*
Y4794D02*
D03*
X3530Y5114D02*
D03*
Y5166D02*
D03*
X3500Y5544D02*
D03*
Y5596D02*
D03*
X10290Y7447D02*
D03*
X10620Y7267D02*
D03*
X10300Y7216D02*
D03*
X4900Y6766D02*
D03*
Y6714D02*
D03*
Y6914D02*
D03*
Y6966D02*
D03*
X4530Y7036D02*
D03*
Y6984D02*
D03*
Y6664D02*
D03*
Y6716D02*
D03*
X10300Y7267D02*
D03*
X10620Y7216D02*
D03*
X10290Y7396D02*
D03*
X4420Y5404D02*
D03*
Y5456D02*
D03*
M02*
