M48
;Layer_Color=15461320
;FILE_FORMAT=2:4
INCH,LZ
;TYPE=PLATED
T1F00S00C0.0100
T2F00S00C0.0200
T3F00S00C0.0250
T4F00S00C0.0350
T5F00S00C0.0354
T6F00S00C0.0394
T7F00S00C0.0531
T8F00S00C0.0550
T9F00S00C0.0709
T10F00S00C0.0906
T11F00S00C0.0984
T12F00S00C0.1100
T13F00S00C0.1400
%
T01
X103201Y0308
X103713Y030815
X105248Y030878
X106227Y03086
X106772Y030866
X107552Y030859
X109331Y030827
X07628Y045866
X075197Y046358
X073622Y046063
X080512Y03878
X083465Y038878
X083858Y039567
X084449Y039961
X084646Y040354
X082283
X083465Y037008
X078839Y03622
X079331Y035433
X090512Y037756
X090551Y038189
X090157
X090945Y038583
X091339
X091732Y038583
X092126
X09252
X092913
Y038976
X09252
X092126
X091732Y038976
X091339
X090945
Y03937
X091339
X091732
X092126Y03937
X09252
X092126Y039764
X091732
X091339
X090945
X090551
X091339Y040157
X091732
X091339Y040551
X090945
Y040945
X090945Y041339
X090551
Y041732
X089875Y04175
X09Y0415
X090059Y04124
X090157Y040945
X091339Y041339
Y041732
X091732
Y041339
X09252
X092913
X093307
Y041732
X093701
Y041339
Y040945
Y040551
X093307
X092913
Y040945
X093307Y042126
X093701
Y04252
X093307
Y043307
Y043701
X093701
Y043307
Y044094
X093307
Y044488
X093701
Y044882
Y045276
X093307
X092913Y044882
Y044488
X09252Y043701
Y042913
X091732Y043701
X090945
X090945Y044094
Y044488
X090551
Y044094
X089961Y044291
X09Y044625
X089635Y044125
X089491Y043875
X090059Y04311
X090079Y042717
X091339Y042126
X091339Y044488
X091339Y044882
X090945Y045276
X090551Y046063
X091732
X09252
X092913Y046457
X093701Y04685
X091339Y04685
X08937Y045866
X089665Y045571
X093307Y039764
Y038583
X093701
X091732Y037697
X094094
X093898Y037205
X094291Y036811
X094685Y036811
X095079Y037697
X095472Y037697
X095669Y038583
X096063
Y038976
X095669
Y03937
Y039764
Y040157
X096063
Y039764
X096457Y040157
Y040945
X096063
X095669
X095276
X094882
Y041339
Y041732
Y042126
X094488
Y041732
Y041339
X094094
Y041732
Y042126
Y04252
X094488
X094882
X095669
Y042126
X096063
Y041732
Y041339
X095669
Y041732
X095276Y041339
Y040551
X095669Y040551
X095276Y040157
X094882Y040157
Y039764
Y03937
X094882Y038976
X094488
X094094
X094882Y038583
X094488Y038189
Y039764
Y040157
X094094
Y040551
Y040945
X094488Y040551
X09685
X097244
X09685Y040945
Y041339
X097244
Y041732
X09685
X096457
Y041339
Y042126
X09685
X097244
Y04252
X09685
Y042913
X097244
Y043307
X09685
Y043701
Y044094
X097244
Y044488
X09685
Y044882
Y045276
X097244
Y045669
X097638Y045276
Y044882
Y044488
X098425
X098819Y044094
X099213
X099213Y044882
X098819
X098819Y046063
X098425
Y046457
X098819Y04685
X099606Y04685
X1Y046063
X1015Y045625
X101625Y045375
X100591Y043406
X100492Y04311
X100886
X100492Y042717
X1Y043307
X099606
X1Y043701
X099606Y042126
X098819
X098425Y041732
X097638Y041339
X098032Y040551
X097638Y040157
Y039764
Y03937
X097638Y038976
X097244Y038976
Y038583
X09685
X096457Y038976
Y038189
X098032Y038583
X098425
X098819
X099213Y038583
Y038976
X098819
X098425
X098032
Y03937
X098425
Y039764
X098819
Y03937
X099213
X099606Y038976
Y038583
X1Y038189
Y037795
X100394Y038189
X1Y038976
Y039764
X099606Y040945
X098425Y042913
X096457Y043307
Y043701
Y044094
X096063
Y043701
Y043307
X095669
Y043701
Y044094
Y044488
X095276
X094882
Y044094
Y043701
Y043307
X094488
Y043701
X094094
Y043307
Y044094
X094488
Y044488
Y044882
X094094
Y045276
X094488Y045669
X094882
Y046063
Y046457
X094488
Y046063
X094094Y046063
Y04685
X094488
X095276
Y046063
X095669Y046063
X096063Y046063
X096457Y046457
Y04685
X097244
X097638Y046457
X096457Y045276
Y044882
Y044488
X096063
X095669Y044882
Y045276
X095276Y045669
X094882Y044882
X094094Y044488
X096063Y04252
X096457
X098819Y037697
X102028Y037264
X102465Y037791
X102945Y037212
X103445Y037146
X104016Y037126
X10437Y036969
X104803Y037205
X105236Y037165
X105787
X105512Y03685
X105Y036811
X106181Y036693
X106535Y037087
X10689Y03689
X107165Y037165
X107552Y037133
X107913Y037205
X108701Y037165
X109343Y037178
X106496Y038681
X104606Y03878
X104843Y039094
X105157Y03937
X103701Y038583
X102634Y034728
X10128Y034646
X100433Y032165
X102945Y032252
X103344Y031966
X103969Y032252
X104225Y032389
X104481Y032567
X104737Y032862
X105512Y032953
X10576Y033216
X106016Y032015
X105039Y031969
X10704Y03237
X107283Y032559
X107807Y031956
X108063Y032173
X108319Y032311
X108583Y032323
X108831Y032429
X109087Y032
X10241Y031409
X094094Y035039
Y035827
X109921Y037205
X111322Y036519
X111414Y036263
X111374Y035752
X111378Y035079
X11126Y034724
X111339Y03437
X111417Y033425
X109855Y032232
X109599Y032094
X110363Y031409
X134449Y053248
X134881Y054074
X103937Y055315
X103583
X103228Y055472
X102874Y055591
X102559Y05563
X102244Y056063
X10189Y056378
X101181Y056299
X099606Y049409
Y049016
Y048327
X099952
X1Y048032
X100362Y048
X100506Y04775
X1Y047638
X099606Y047244
X099213
X098819Y047638
X098425
X098032Y047244
X097638Y047638
X096458Y047636
X096457Y047244
X096063
X095276Y047638
X095079Y048228
X095276Y048474
X095669Y048581
X093898Y048622
X094094Y047244
X102559Y048524
X093701Y048819
Y047638
Y047244
X092913
X091732Y047638
X091339Y047244
X090945Y047244
X090551Y047638
Y048032
X090118Y047677
X091142Y048661
X091339Y048898
X091634Y048917
X091535Y056732
X091732Y056929
X091929Y057126
X092087Y057362
X092283Y057598
X092402Y057992
X091299Y056496
X070965Y054331
X072146Y052264
X069094Y050295
X069587Y057579
X07122Y068071
X072146Y068602
X072441Y068799
X073622Y067913
X074016Y067028
X074803Y06624
X075512Y067913
X074094Y072008
X07378Y073228
X074409Y073543
X075161Y07398
X072756Y073268
X069764Y071102
X06378Y071555
X063543Y073622
X064468Y069587
X065157Y068898
X0841Y070275
X0846Y070124
X0856Y070601
X086122Y070503
X093406Y070866
X092709Y064574
X092126Y065157
X093799Y070079
X094685Y070669
X09525Y070644
X102854Y070374
X103302Y070625
X104528Y070276
X104975Y070625
X116378Y06874
X114862Y066339
X118799Y066634
X124488Y068701
T02
X031811Y040945
X03185Y042638
X035787Y042717
Y040866
X052992Y035827
X053892
X054792
X055692
X056592
Y034927
X055692
X054792
X053892
Y034027
X054792
X055692
X056592
Y033127
X055692
Y032227
X056592
X054792
Y033127
X053892
Y032227
X052992
Y033127
Y034027
Y034927
X060039Y035984
X061683Y03625
X061725Y03481
X061693Y034173
X061654Y033504
X06248Y032126
X06055Y032127
X06334Y03481
X063222Y035951
X074311Y036083
X077972
X097756Y031339
X101338Y03126
X102264Y040354
X105768Y040394
X112716Y037244
X11275Y033588
X122638Y034527
X123937Y033661
X129082Y0345
X140964Y057795
X142382Y058583
Y059567
Y060551
X142421Y061575
X144586Y062047
X144626Y061063
X144586Y060079
X144567Y059074
X146456Y057835
X148464Y057795
X149882Y058583
Y059567
Y060551
X149921Y061575
X152086Y062047
X152126Y061063
X152086Y060079
X152067Y059074
X153976Y059803
X154015Y057795
X146535Y061338
X139035
X137126Y061063
X137086Y062047
Y060079
X137067Y059074
X134882Y058583
Y059567
Y060551
X134921Y061575
X131535Y061338
X129626Y061063
X129586Y062047
Y060079
X129567Y059074
X127382Y058583
Y059567
Y060551
X127421Y061575
X125964Y057795
X131456Y057835
X133464Y057795
X138956Y057835
X123956
X122124Y059055
X122143Y06006
X122182Y061044
X122143Y062028
X124035Y061338
X119978Y061556
X119938Y060532
Y059548
Y058564
X118464Y057795
X116456Y057835
X114567Y059074
X114586Y060079
X114626Y061063
X114586Y062047
X112421Y061575
X112382Y060551
Y059567
Y058583
X110964Y057795
X116535Y061338
X109035
X107126Y061063
X107086Y062047
Y060079
X107067Y059074
X104882Y058583
Y059567
Y060551
X104921Y061575
X101535Y061338
X099626Y061063
X099586Y062047
Y060079
X099567Y059074
X097382Y058583
Y059567
Y060551
X097421Y061575
X101456Y057835
X103464Y057795
X108956Y057835
X105118Y049803
X101575Y049409
X088976Y048425
X086024Y049016
X085748Y058268
X084604Y059016
X084623Y06002
X084663Y061004
X084623Y061989
X086516Y061457
X089921Y061575
X089882Y060551
Y059567
Y058583
X092067Y059074
X092086Y060079
X092126Y061063
X092086Y062047
X082458Y061516
X082419Y060493
Y059508
Y058524
X079Y057819
X079016Y061457
X077126Y061063
X077086Y062047
Y060079
X077067Y059074
X074882Y058583
Y059567
Y060551
X074921Y061575
X071516Y061457
X069626Y061063
X069586Y062047
Y060079
X069567Y059074
X067382Y058583
Y059567
Y060551
X067421Y061575
X064016Y061457
X064Y057819
X0715
X062067Y059074
X062086Y060079
X062126Y061063
X062086Y062047
X059921Y061575
X059882Y060551
Y059567
Y058583
X0565Y057819
X054567Y059074
X054586Y060079
X054626Y061063
X054586Y062047
X056516Y061457
X052421Y061575
X052382Y060551
Y059567
Y058583
X049Y057819
X047067Y059074
X047086Y060079
X047126Y061063
X047086Y062047
X049016Y061457
X044921Y061575
X044882Y060551
Y059567
Y058583
X041496Y057795
X039567Y059074
X039586Y060079
X039626Y061063
X039586Y062047
X0415Y061382
X037421Y061575
X037382Y060551
Y059567
Y058583
X035984Y057756
X03311Y05748
X033189Y059094
X035984Y061339
X035157Y062205
X029222Y059163
X029252Y057441
X030477Y063741
Y064641
Y065541
Y066441
Y067341
X030197Y071378
X02965Y072603
X030669Y074331
X031494Y074089
Y072475
X032131Y072442
X0328Y072403
X034178Y07323
X034177Y071299
X034077Y067341
Y066441
Y065541
Y064641
X033177
Y065541
Y066441
Y067341
X032277
X031377
Y066441
X032277
Y065541
Y064641
X031377
Y065541
Y063741
X032277
X033177
X034077
X03694Y064184
X037436Y062574
X03959Y063074
X039607Y064074
X043504Y065
X044936Y062574
X04709Y063074
X047107Y064074
X051004Y065
X052436Y062574
X05459Y063074
X054607Y064074
X058504Y065
X059936Y062574
X06209Y063074
X062107Y064074
X066004Y065
X067436Y062574
X06959Y063074
X069607Y064074
X073504Y065
X074936Y062574
X07709Y063074
X077107Y064074
X077126Y072716
X077165Y073622
X07805Y072617
X075791Y074295
X075039Y074331
X074882Y075079
X074277Y075054
X075397Y074925
X073504Y073897
X07252Y074252
X071338Y073976
X071929Y070748
X07299Y070392
X065777Y072115
X063071Y071496
X079094Y074212
X083622Y072283
X085118
X086614
X092799Y07228
X092107Y064074
X09209Y063074
X089936Y062574
X088504Y065
X084644Y064016
X084627Y063016
X082473Y062516
X081023Y065039
X097436Y062574
X09959Y063074
X099607Y064074
X101456Y06496
Y062992
X104936Y062574
X10709Y063074
X107107Y064074
X108956Y06496
Y062992
X105521Y072353
X104021Y072289
X102521Y072324
X095799Y072295
X094291Y072323
X112436Y062574
X11459Y063074
X114607Y064074
X116456Y06496
Y062992
X119993Y062555
X122146Y063055
X122163Y064055
X123956Y06496
Y062992
X127436Y062574
X12959Y063074
X129607Y064074
X131456Y06496
Y062992
X134936Y062574
X13709Y063074
X137107Y064074
X138956Y06496
Y062992
X142436Y062574
X14459Y063074
X144607Y064074
X146456Y06496
Y062992
X149936Y062574
X15209Y063074
X152107Y064074
X154Y064984
Y062977
T03
X142365Y053074
X14233Y054574
X142323Y056063
X149843Y054567
X152165Y056063
X15225Y053
X134803Y052874
X134843Y054567
X137165Y056063
X129646
X127316Y054574
X127405Y053074
X119843Y052913
X119882Y054606
X122154Y056074
X114724Y056102
X112409Y054574
X112362Y052717
X105433Y052559
X104843Y054567
X107165Y056063
X099764
X099803Y054626
X099688Y053074
X090512Y052598
X089843Y054567
X089567Y056063
X084685
X084649Y053074
X08233Y054574
X077283Y056102
X077205Y053071
X074921Y054567
X069724Y056063
X067369Y054574
X067359Y053074
X062283Y053071
X062205Y056063
X059882Y054606
X054724Y056063
X054721Y053074
X05233Y054574
X047168Y053074
X047126Y056063
X044843Y054567
X039685Y056063
X039682Y053074
X037362Y054567
T04
X0788Y03195
X0798
X0808
X0818
X0828
X0838
X0848
X0858
X0868
X0878
X0888
X0898
X0908
X0918
X0928
X0923Y0327
X0933
X0928Y03345
X0918
X0908
X0898
X0888
X0878
X0868
X0858
X0848
X0838
X0828
X0818
X0808
X0798
X0788
X0783Y0342
X0793
X0803
X0813
X0823
X0833
X0843
X0853
X0863
X0873
X0883
X0893
X0903
X0913
X0923
X0933
X0913Y0327
X0903
X0893
X0883
X0873
X0863
X0853
X0843
X0833
X0823
X0813
X0803
X0793
X0783
X0943
X0938Y03345
X0948
X0943Y0342
X0938Y03195
X0948
T05
X0286Y049
X0296
X0481Y07455
Y07555
X0491
Y07455
X0501
Y07555
X0511
Y07455
X0521
Y07555
X0531
Y07455
X0541
Y07555
X0551
Y07455
X0818Y0741
X0828
X0838
X0848
X0858
X0868
X0878
X0888
Y0751
X0878
X0868
X0858
X0848
X0838
X0828
X0818
X0909
X0919
X0929
Y0741
X0919
X0909
X0939
Y0751
X0949
X0959
X0969
X0979
Y0741
X0969
X0959
X0949
X1006Y07415
X1016
X1026
X1036
X1046
X1056
X1066
X1076
Y07515
X1066
X1056
X1046
X1036
X1026
X1016
X1006
T06
X060776Y074713
X061563
X06235
Y0755
X061563
X060776
X063138
X063925
X064713
X0655
Y074713
X064713
X063925
X063138
T07
X082517Y0715
X087569Y071894
X091717Y0715
X096768Y071894
X101439Y0715
X10649Y071894
T08
X03185Y03215
X0356
X03685
X0381
Y03715
X03685
X0356
X03185
X04435
Y03215
X1314Y0322
X13515
X1364
X13765
Y0372
X1364
X13515
X1314
X1439
Y0322
X026603Y057492
Y061242
Y062492
X021603
Y061242
Y057492
Y063742
X026603
Y069992
X021603
T09
X023135Y034711
Y036365
Y038018
Y039672
Y041325
Y042979
Y044632
Y046286
X0253
Y044632
Y042979
Y041325
Y039672
Y038018
Y036365
Y034711
Y047939
Y049593
Y051246
Y0529
X023135
Y051246
Y049593
Y047939
T10
X1439Y0517
X1514
X1364
X1289
X1214
X1139
X1064
X0989
X0914
X0839
X0764
X0689
X0614
X0539
X0464
X0389
Y066948
X0464
X0539
X0614
X0689
X0764
X0839
X0914
X0989
X1064
X1139
X1214
X1289
X1364
X1439
X1514
T11
X077406Y032206
T12
X07634Y033075
X09676
T13
X0249Y032
X0689
X1129
X1569
X0249Y0751
X0689
X1129
X1569
M30
