%FSLAX24Y24*%
%MOIN*%
G70*
G01*
G75*
G04 Layer_Color=32896*
%ADD10R,0.0394X0.0433*%
%ADD11R,0.0374X0.0335*%
%ADD12R,0.0374X0.0335*%
%ADD13R,0.0433X0.0394*%
%ADD14R,0.0610X0.0197*%
%ADD15R,0.0945X0.1024*%
%ADD16R,0.0630X0.0709*%
%ADD17C,0.0197*%
%ADD18R,0.0610X0.0197*%
%ADD19R,0.0197X0.0610*%
%ADD20R,0.1024X0.0945*%
%ADD21R,0.3000X0.2900*%
%ADD22R,0.1500X0.0500*%
%ADD23R,0.1102X0.1024*%
%ADD24R,0.0394X0.1496*%
%ADD25R,0.1496X0.0394*%
%ADD26R,0.1575X0.0335*%
%ADD27R,0.0551X0.0787*%
%ADD28R,0.0630X0.0512*%
%ADD29C,0.0130*%
%ADD30R,0.0709X0.0630*%
%ADD31R,0.0571X0.0197*%
%ADD32C,0.0400*%
%ADD33R,0.0276X0.0354*%
%ADD34C,0.0110*%
%ADD35C,0.0080*%
%ADD36C,0.0100*%
%ADD37C,0.0150*%
%ADD38C,0.0060*%
%ADD39C,0.0160*%
%ADD40C,0.0200*%
%ADD41C,0.0300*%
%ADD42C,0.0180*%
%ADD43C,0.0240*%
%ADD44C,0.0120*%
%ADD45R,0.0591X0.0591*%
%ADD46C,0.0591*%
%ADD47C,0.0500*%
%ADD48C,0.1750*%
%ADD49C,0.0669*%
%ADD50C,0.1063*%
%ADD51C,0.0800*%
%ADD52C,0.1300*%
%ADD53C,0.0600*%
%ADD54C,0.0200*%
%ADD55C,0.0300*%
%ADD56O,0.0394X0.1083*%
%ADD57R,0.0394X0.1083*%
%ADD58R,0.0354X0.0276*%
%ADD59R,0.0500X0.1449*%
%ADD60R,0.0354X0.0945*%
%ADD61C,0.0098*%
%ADD62C,0.0039*%
%ADD63C,0.0079*%
%ADD64C,0.0040*%
%ADD65C,0.0070*%
%ADD66C,0.0600*%
%ADD67C,0.0090*%
%ADD68R,0.1575X0.0098*%
D35*
X57850Y75475D02*
X64150D01*
X57850Y72325D02*
Y75475D01*
Y72325D02*
X64150D01*
Y75475D01*
X60213D02*
X60311Y75376D01*
X60213D02*
Y75475D01*
Y75376D02*
X61787D01*
Y75475D01*
X61689Y75376D02*
X61787Y75475D01*
X48950Y75950D02*
X49000Y75900D01*
X48000Y75950D02*
X48950D01*
X48000Y75900D02*
X49000D01*
X48000Y75850D02*
X48950D01*
X48000Y75800D02*
X49000D01*
Y76000D01*
X48000D02*
X56000D01*
X48000Y72000D02*
X56000D01*
X48000D02*
Y76000D01*
X56000Y72000D02*
Y76000D01*
X80450Y76700D02*
X80500Y76650D01*
X79500Y76700D02*
X80450D01*
X79500Y76650D02*
X80500D01*
X79500Y76600D02*
X80450D01*
X79500Y76550D02*
X80500D01*
Y76750D01*
X79500D02*
X87500D01*
X79500Y72750D02*
X87500D01*
X79500D02*
Y76750D01*
X87500Y72750D02*
Y76750D01*
X91450Y76700D02*
X91500Y76650D01*
X90500Y76700D02*
X91450D01*
X90500Y76650D02*
X91500D01*
X90500Y76600D02*
X91450D01*
X90500Y76550D02*
X91500D01*
Y76750D01*
X90500D02*
X98500D01*
X90500Y72750D02*
X98500D01*
X90500D02*
Y76750D01*
X98500Y72750D02*
Y76750D01*
X102450Y76700D02*
X102500Y76650D01*
X101500Y76700D02*
X102450D01*
X101500Y76650D02*
X102500D01*
X101500Y76600D02*
X102450D01*
X101500Y76550D02*
X102500D01*
Y76750D01*
X101500D02*
X109500D01*
X101500Y72750D02*
X109500D01*
X101500D02*
Y76750D01*
X109500Y72750D02*
Y76750D01*
D36*
X26400Y74000D02*
G03*
X26400Y74000I-1400J0D01*
G01*
X70400D02*
G03*
X70400Y74000I-1400J0D01*
G01*
X115900D02*
G03*
X115900Y74000I-1400J0D01*
G01*
X158400D02*
G03*
X158400Y74000I-1400J0D01*
G01*
X37400Y47500D02*
G03*
X37400Y47500I-1400J0D01*
G01*
X67400D02*
G03*
X67400Y47500I-1400J0D01*
G01*
X125400D02*
G03*
X125400Y47500I-1400J0D01*
G01*
X158400D02*
G03*
X158400Y47500I-1400J0D01*
G01*
X62986Y76584D02*
X63186D01*
X63086D01*
Y76084D01*
X63186Y75984D01*
X63286D01*
X63386Y76084D01*
X62786Y76584D02*
X62386D01*
X62586D01*
Y75984D01*
X62186D02*
Y76384D01*
X61986Y76584D01*
X61786Y76384D01*
Y75984D01*
Y76284D01*
X62186D01*
X61187Y76484D02*
X61287Y76584D01*
X61486D01*
X61586Y76484D01*
Y76084D01*
X61486Y75984D01*
X61287D01*
X61187Y76084D01*
Y76284D01*
X61386D01*
D44*
X55864Y71174D02*
X56398D01*
Y70774D01*
X56131D01*
X56398D01*
Y70374D01*
X55598D02*
Y71174D01*
X55198D01*
X55065Y71040D01*
Y70774D01*
X55198Y70641D01*
X55598D01*
X55331D02*
X55065Y70374D01*
X54398Y71174D02*
X54665D01*
X54798Y71040D01*
Y70507D01*
X54665Y70374D01*
X54398D01*
X54265Y70507D01*
Y71040D01*
X54398Y71174D01*
X53998Y70374D02*
Y71174D01*
X53465Y70374D01*
Y71174D01*
X53199D02*
X52666D01*
X52932D01*
Y70374D01*
X51599D02*
Y71174D01*
X51199D01*
X51066Y71040D01*
Y70774D01*
X51199Y70641D01*
X51599D01*
X50799Y70374D02*
Y70907D01*
X50533Y71174D01*
X50266Y70907D01*
Y70374D01*
Y70774D01*
X50799D01*
X50000Y70374D02*
Y71174D01*
X49467Y70374D01*
Y71174D01*
X48667D02*
X49200D01*
Y70374D01*
X48667D01*
X49200Y70774D02*
X48933D01*
X48400Y71174D02*
Y70374D01*
X47867D01*
X85217Y69066D02*
X85350Y69200D01*
X85617D01*
X85750Y69066D01*
Y68933D01*
X85617Y68800D01*
X85350D01*
X85217Y68667D01*
Y68533D01*
X85350Y68400D01*
X85617D01*
X85750Y68533D01*
X84950Y69200D02*
Y69066D01*
X84684Y68800D01*
X84417Y69066D01*
Y69200D01*
X84684Y68800D02*
Y68400D01*
X83617Y69066D02*
X83751Y69200D01*
X84017D01*
X84151Y69066D01*
Y68933D01*
X84017Y68800D01*
X83751D01*
X83617Y68667D01*
Y68533D01*
X83751Y68400D01*
X84017D01*
X84151Y68533D01*
X82551Y69200D02*
X82284D01*
X82418D01*
Y68400D01*
X82551D01*
X82284D01*
X81485Y69200D02*
X81751D01*
X81885Y69066D01*
Y68533D01*
X81751Y68400D01*
X81485D01*
X81351Y68533D01*
Y69066D01*
X81485Y69200D01*
X108000Y68400D02*
Y68933D01*
X107733Y69200D01*
X107467Y68933D01*
Y68400D01*
Y68800D01*
X108000D01*
X107200Y69200D02*
Y68400D01*
X106800D01*
X106667Y68533D01*
Y69066D01*
X106800Y69200D01*
X107200D01*
X106401D02*
X106134D01*
X106267D01*
Y68400D01*
X106401D01*
X106134D01*
X105334Y69200D02*
X105601D01*
X105734Y69066D01*
Y68533D01*
X105601Y68400D01*
X105334D01*
X105201Y68533D01*
Y69066D01*
X105334Y69200D01*
X104135D02*
X103868D01*
X104001D01*
Y68400D01*
X104135D01*
X103868D01*
X103068Y69200D02*
X103335D01*
X103468Y69066D01*
Y68533D01*
X103335Y68400D01*
X103068D01*
X102935Y68533D01*
Y69066D01*
X103068Y69200D01*
X96800Y68400D02*
Y69200D01*
X96267Y68400D01*
Y69200D01*
X95467D02*
X96000D01*
Y68400D01*
X95467D01*
X96000Y68800D02*
X95734D01*
X95201Y68400D02*
Y69200D01*
X94801D01*
X94667Y69066D01*
Y68800D01*
X94801Y68667D01*
X95201D01*
X93601Y69200D02*
X93334D01*
X93468D01*
Y68400D01*
X93601D01*
X93334D01*
X92535Y69200D02*
X92801D01*
X92935Y69066D01*
Y68533D01*
X92801Y68400D01*
X92535D01*
X92401Y68533D01*
Y69066D01*
X92535Y69200D01*
D63*
X45900Y72500D02*
Y75500D01*
X44900Y72500D02*
X45900D01*
X44900D02*
Y75500D01*
X45900D01*
X75049Y71802D02*
Y71998D01*
X28802Y40544D02*
Y41056D01*
X102205Y36260D02*
X102519D01*
X102283Y33189D02*
X102598D01*
X97480Y38464D02*
X97795D01*
X98268Y40039D02*
X98582D01*
X91968Y47598D02*
X92283D01*
X91732Y45787D02*
X92047D01*
X96339Y46299D02*
Y46614D01*
X91614Y37165D02*
Y37480D01*
X92795Y32835D02*
Y33150D01*
X93032Y42205D02*
Y42520D01*
X99606Y45866D02*
X99921D01*
X97874Y47362D02*
X98189D01*
X90827Y42835D02*
Y43150D01*
X104960Y33524D02*
Y33720D01*
X105019Y35905D02*
X105216D01*
X99842Y40846D02*
Y41043D01*
X99370Y39744D02*
Y39941D01*
X96771Y40059D02*
Y40256D01*
X90374Y41890D02*
X90571D01*
X91240Y43386D02*
X91437D01*
X90768Y46063D02*
X90965D01*
X97440Y41870D02*
Y42067D01*
X92677Y40925D02*
Y41122D01*
X93150Y41634D02*
Y41831D01*
X93209Y47757D02*
X93406D01*
X97480Y43996D02*
Y44193D01*
X97362Y43209D02*
Y43406D01*
X97519Y45571D02*
Y45768D01*
X90217Y39568D02*
X90413D01*
X96260Y38012D02*
Y38209D01*
X96338Y45965D02*
Y46161D01*
X93349Y37902D02*
Y38098D01*
X99272Y42047D02*
X99468D01*
X94149Y45202D02*
Y45398D01*
X93111Y40059D02*
Y40256D01*
X93150Y43996D02*
Y44193D01*
X93208Y39764D02*
X93405D01*
X95965Y44842D02*
X96161D01*
X97146Y48071D02*
X97343D01*
X93505Y45571D02*
Y45768D01*
X100472Y43996D02*
Y44193D01*
X97480Y46752D02*
Y46949D01*
X136771Y37461D02*
Y37657D01*
X126810Y37539D02*
Y37736D01*
X42044Y33702D02*
X42556D01*
X24533Y62544D02*
Y63056D01*
D65*
X91079Y72181D02*
X98165D01*
X91079D02*
X98165D01*
X91079Y69819D02*
Y72181D01*
X98165Y69819D02*
Y72181D01*
X91079Y69819D02*
X98165D01*
X102079Y72181D02*
X109165D01*
X102079D02*
X109165D01*
X102079Y69819D02*
Y72181D01*
X109165Y69819D02*
Y72181D01*
X102079Y69819D02*
X109165D01*
X80079D02*
X87165D01*
Y72181D01*
X80079Y69819D02*
Y72181D01*
X87165D01*
X80079D02*
X87165D01*
X45870Y75810D02*
Y76110D01*
X45720D01*
X45670Y76060D01*
Y75960D01*
X45720Y75910D01*
X45870D01*
X45370Y76110D02*
X45470Y76060D01*
X45570Y75960D01*
Y75860D01*
X45520Y75810D01*
X45420D01*
X45370Y75860D01*
Y75910D01*
X45420Y75960D01*
X45570D01*
X57250Y73050D02*
Y73150D01*
Y73100D01*
X57500D01*
X57550Y73150D01*
Y73200D01*
X57500Y73250D01*
X57550Y72950D02*
X57250D01*
Y72800D01*
X57300Y72750D01*
X57400D01*
X57450Y72800D01*
Y72950D01*
X57550Y72450D02*
Y72650D01*
X57350Y72450D01*
X57300D01*
X57250Y72500D01*
Y72600D01*
X57300Y72650D01*
X26986Y62705D02*
X27036Y62655D01*
Y62555D01*
X26986Y62505D01*
X26786D01*
X26736Y62555D01*
Y62655D01*
X26786Y62705D01*
X26736Y62805D02*
Y62905D01*
Y62855D01*
X27036D01*
X26986Y62805D01*
X26736Y63255D02*
Y63055D01*
X26936Y63255D01*
X26986D01*
X27036Y63205D01*
Y63105D01*
X26986Y63055D01*
X27036Y63555D02*
Y63355D01*
X26886D01*
X26936Y63455D01*
Y63505D01*
X26886Y63555D01*
X26786D01*
X26736Y63505D01*
Y63405D01*
X26786Y63355D01*
X42395Y36155D02*
X42445Y36205D01*
X42545D01*
X42595Y36155D01*
Y35955D01*
X42545Y35905D01*
X42445D01*
X42395Y35955D01*
X42295Y35905D02*
X42195D01*
X42245D01*
Y36205D01*
X42295Y36155D01*
X41845Y35905D02*
X42045D01*
X41845Y36105D01*
Y36155D01*
X41895Y36205D01*
X41995D01*
X42045Y36155D01*
X41745Y35905D02*
X41645D01*
X41695D01*
Y36205D01*
X41745Y36155D01*
X101650Y36000D02*
X101600Y36050D01*
Y36150D01*
X101650Y36200D01*
X101850D01*
X101900Y36150D01*
Y36050D01*
X101850Y36000D01*
X101900Y35900D02*
Y35800D01*
Y35850D01*
X101600D01*
X101650Y35900D01*
Y35650D02*
X101600Y35600D01*
Y35500D01*
X101650Y35450D01*
X101700D01*
X101750Y35500D01*
Y35550D01*
Y35500D01*
X101800Y35450D01*
X101850D01*
X101900Y35500D01*
Y35600D01*
X101850Y35650D01*
Y35350D02*
X101900Y35300D01*
Y35200D01*
X101850Y35150D01*
X101650D01*
X101600Y35200D01*
Y35300D01*
X101650Y35350D01*
X101700D01*
X101750Y35300D01*
Y35150D01*
X105200Y33300D02*
X105250Y33350D01*
X105350D01*
X105400Y33300D01*
Y33100D01*
X105350Y33050D01*
X105250D01*
X105200Y33100D01*
X105100Y33050D02*
X105000D01*
X105050D01*
Y33350D01*
X105100Y33300D01*
X104850D02*
X104800Y33350D01*
X104700D01*
X104650Y33300D01*
Y33250D01*
X104700Y33200D01*
X104750D01*
X104700D01*
X104650Y33150D01*
Y33100D01*
X104700Y33050D01*
X104800D01*
X104850Y33100D01*
X104550Y33300D02*
X104500Y33350D01*
X104400D01*
X104350Y33300D01*
Y33250D01*
X104400Y33200D01*
X104350Y33150D01*
Y33100D01*
X104400Y33050D01*
X104500D01*
X104550Y33100D01*
Y33150D01*
X104500Y33200D01*
X104550Y33250D01*
Y33300D01*
X104500Y33200D02*
X104400D01*
X101750Y34050D02*
X101700Y34100D01*
Y34200D01*
X101750Y34250D01*
X101950D01*
X102000Y34200D01*
Y34100D01*
X101950Y34050D01*
X102000Y33950D02*
Y33850D01*
Y33900D01*
X101700D01*
X101750Y33950D01*
Y33700D02*
X101700Y33650D01*
Y33550D01*
X101750Y33500D01*
X101800D01*
X101850Y33550D01*
Y33600D01*
Y33550D01*
X101900Y33500D01*
X101950D01*
X102000Y33550D01*
Y33650D01*
X101950Y33700D01*
X101700Y33400D02*
Y33200D01*
X101750D01*
X101950Y33400D01*
X102000D01*
X104650Y35200D02*
X104700Y35250D01*
X104800D01*
X104850Y35200D01*
Y35000D01*
X104800Y34950D01*
X104700D01*
X104650Y35000D01*
X104550Y34950D02*
X104450D01*
X104500D01*
Y35250D01*
X104550Y35200D01*
X104300D02*
X104250Y35250D01*
X104150D01*
X104100Y35200D01*
Y35150D01*
X104150Y35100D01*
X104200D01*
X104150D01*
X104100Y35050D01*
Y35000D01*
X104150Y34950D01*
X104250D01*
X104300Y35000D01*
X103800Y35250D02*
X103900Y35200D01*
X104000Y35100D01*
Y35000D01*
X103950Y34950D01*
X103850D01*
X103800Y35000D01*
Y35050D01*
X103850Y35100D01*
X104000D01*
X101200Y41450D02*
X101250Y41500D01*
X101350D01*
X101400Y41450D01*
Y41250D01*
X101350Y41200D01*
X101250D01*
X101200Y41250D01*
X101100Y41200D02*
X101000D01*
X101050D01*
Y41500D01*
X101100Y41450D01*
X100850D02*
X100800Y41500D01*
X100700D01*
X100650Y41450D01*
Y41400D01*
X100700Y41350D01*
X100750D01*
X100700D01*
X100650Y41300D01*
Y41250D01*
X100700Y41200D01*
X100800D01*
X100850Y41250D01*
X100350Y41200D02*
X100550D01*
X100350Y41400D01*
Y41450D01*
X100400Y41500D01*
X100500D01*
X100550Y41450D01*
X98350Y37300D02*
X98400Y37250D01*
Y37150D01*
X98350Y37100D01*
X98150D01*
X98100Y37150D01*
Y37250D01*
X98150Y37300D01*
X98100Y37400D02*
Y37500D01*
Y37450D01*
X98400D01*
X98350Y37400D01*
Y37650D02*
X98400Y37700D01*
Y37800D01*
X98350Y37850D01*
X98300D01*
X98250Y37800D01*
Y37750D01*
Y37800D01*
X98200Y37850D01*
X98150D01*
X98100Y37800D01*
Y37700D01*
X98150Y37650D01*
X98100Y37950D02*
Y38050D01*
Y38000D01*
X98400D01*
X98350Y37950D01*
X100120Y40540D02*
X100170Y40590D01*
X100270D01*
X100320Y40540D01*
Y40340D01*
X100270Y40290D01*
X100170D01*
X100120Y40340D01*
X100020Y40290D02*
X99920D01*
X99970D01*
Y40590D01*
X100020Y40540D01*
X99770D02*
X99720Y40590D01*
X99620D01*
X99570Y40540D01*
Y40490D01*
X99620Y40440D01*
X99670D01*
X99620D01*
X99570Y40390D01*
Y40340D01*
X99620Y40290D01*
X99720D01*
X99770Y40340D01*
X99470Y40540D02*
X99420Y40590D01*
X99320D01*
X99270Y40540D01*
Y40340D01*
X99320Y40290D01*
X99420D01*
X99470Y40340D01*
Y40540D01*
X99000Y40600D02*
X99050Y40550D01*
Y40450D01*
X99000Y40400D01*
X98800D01*
X98750Y40450D01*
Y40550D01*
X98800Y40600D01*
X98750Y40700D02*
Y40800D01*
Y40750D01*
X99050D01*
X99000Y40700D01*
X98750Y41150D02*
Y40950D01*
X98950Y41150D01*
X99000D01*
X99050Y41100D01*
Y41000D01*
X99000Y40950D01*
X98800Y41250D02*
X98750Y41300D01*
Y41400D01*
X98800Y41450D01*
X99000D01*
X99050Y41400D01*
Y41300D01*
X99000Y41250D01*
X98950D01*
X98900Y41300D01*
Y41450D01*
X97530Y40860D02*
X97580Y40910D01*
X97680D01*
X97730Y40860D01*
Y40660D01*
X97680Y40610D01*
X97580D01*
X97530Y40660D01*
X97430Y40610D02*
X97330D01*
X97380D01*
Y40910D01*
X97430Y40860D01*
X96980Y40610D02*
X97180D01*
X96980Y40810D01*
Y40860D01*
X97030Y40910D01*
X97130D01*
X97180Y40860D01*
X96880D02*
X96830Y40910D01*
X96730D01*
X96680Y40860D01*
Y40810D01*
X96730Y40760D01*
X96680Y40710D01*
Y40660D01*
X96730Y40610D01*
X96830D01*
X96880Y40660D01*
Y40710D01*
X96830Y40760D01*
X96880Y40810D01*
Y40860D01*
X96830Y40760D02*
X96730D01*
X127560Y38340D02*
X127610Y38390D01*
X127710D01*
X127760Y38340D01*
Y38140D01*
X127710Y38090D01*
X127610D01*
X127560Y38140D01*
X127260Y38390D02*
X127360Y38340D01*
X127460Y38240D01*
Y38140D01*
X127410Y38090D01*
X127310D01*
X127260Y38140D01*
Y38190D01*
X127310Y38240D01*
X127460D01*
X127160Y38090D02*
X127060D01*
X127110D01*
Y38390D01*
X127160Y38340D01*
X92671Y46657D02*
X92721Y46607D01*
Y46507D01*
X92671Y46457D01*
X92471D01*
X92421Y46507D01*
Y46607D01*
X92471Y46657D01*
X92421Y46757D02*
Y46857D01*
Y46807D01*
X92721D01*
X92671Y46757D01*
X92421Y47007D02*
Y47106D01*
Y47056D01*
X92721D01*
X92671Y47007D01*
X92721Y47456D02*
Y47256D01*
X92571D01*
X92621Y47356D01*
Y47406D01*
X92571Y47456D01*
X92471D01*
X92421Y47406D01*
Y47306D01*
X92471Y47256D01*
X91187Y45469D02*
X91137Y45519D01*
Y45619D01*
X91187Y45669D01*
X91387D01*
X91437Y45619D01*
Y45519D01*
X91387Y45469D01*
X91437Y45369D02*
Y45269D01*
Y45319D01*
X91137D01*
X91187Y45369D01*
X91437Y45119D02*
Y45019D01*
Y45069D01*
X91137D01*
X91187Y45119D01*
X91437Y44720D02*
X91137D01*
X91287Y44870D01*
Y44670D01*
X95961Y47002D02*
X96011Y47052D01*
X96111D01*
X96161Y47002D01*
Y46802D01*
X96111Y46752D01*
X96011D01*
X95961Y46802D01*
X95862Y46752D02*
X95762D01*
X95812D01*
Y47052D01*
X95862Y47002D01*
X95612Y46752D02*
X95512D01*
X95562D01*
Y47052D01*
X95612Y47002D01*
X95362D02*
X95312Y47052D01*
X95212D01*
X95162Y47002D01*
Y46802D01*
X95212Y46752D01*
X95312D01*
X95362Y46802D01*
Y47002D01*
X90653Y36758D02*
X90603Y36708D01*
X90503D01*
X90453Y36758D01*
Y36958D01*
X90503Y37008D01*
X90603D01*
X90653Y36958D01*
X90753Y37008D02*
X90853D01*
X90803D01*
Y36708D01*
X90753Y36758D01*
X91003D02*
X91053Y36708D01*
X91153D01*
X91203Y36758D01*
Y36958D01*
X91153Y37008D01*
X91053D01*
X91003Y36958D01*
Y36758D01*
X91302Y36958D02*
X91352Y37008D01*
X91452D01*
X91502Y36958D01*
Y36758D01*
X91452Y36708D01*
X91352D01*
X91302Y36758D01*
Y36808D01*
X91352Y36858D01*
X91502D01*
X93737Y33537D02*
X93787Y33587D01*
X93887D01*
X93937Y33537D01*
Y33337D01*
X93887Y33287D01*
X93787D01*
X93737Y33337D01*
X93637Y33287D02*
X93537D01*
X93587D01*
Y33587D01*
X93637Y33537D01*
X93387D02*
X93337Y33587D01*
X93237D01*
X93187Y33537D01*
Y33337D01*
X93237Y33287D01*
X93337D01*
X93387Y33337D01*
Y33537D01*
X93087D02*
X93037Y33587D01*
X92937D01*
X92887Y33537D01*
Y33487D01*
X92937Y33437D01*
X92887Y33387D01*
Y33337D01*
X92937Y33287D01*
X93037D01*
X93087Y33337D01*
Y33387D01*
X93037Y33437D01*
X93087Y33487D01*
Y33537D01*
X93037Y33437D02*
X92937D01*
X91217Y42297D02*
X91167Y42347D01*
Y42447D01*
X91217Y42497D01*
X91417D01*
X91467Y42447D01*
Y42347D01*
X91417Y42297D01*
X91467Y42197D02*
Y42097D01*
Y42147D01*
X91167D01*
X91217Y42197D01*
Y41947D02*
X91167Y41897D01*
Y41797D01*
X91217Y41747D01*
X91417D01*
X91467Y41797D01*
Y41897D01*
X91417Y41947D01*
X91217D01*
X91167Y41647D02*
Y41448D01*
X91217D01*
X91417Y41647D01*
X91467D01*
X100447Y44983D02*
X100497Y44933D01*
Y44833D01*
X100447Y44783D01*
X100247D01*
X100197Y44833D01*
Y44933D01*
X100247Y44983D01*
X100197Y45083D02*
Y45183D01*
Y45133D01*
X100497D01*
X100447Y45083D01*
Y45333D02*
X100497Y45383D01*
Y45483D01*
X100447Y45533D01*
X100247D01*
X100197Y45483D01*
Y45383D01*
X100247Y45333D01*
X100447D01*
X100497Y45833D02*
X100447Y45733D01*
X100347Y45633D01*
X100247D01*
X100197Y45683D01*
Y45783D01*
X100247Y45833D01*
X100297D01*
X100347Y45783D01*
Y45633D01*
X98577Y48035D02*
X98627Y47985D01*
Y47885D01*
X98577Y47835D01*
X98377D01*
X98327Y47885D01*
Y47985D01*
X98377Y48035D01*
X98327Y48135D02*
Y48235D01*
Y48185D01*
X98627D01*
X98577Y48135D01*
Y48384D02*
X98627Y48434D01*
Y48534D01*
X98577Y48584D01*
X98377D01*
X98327Y48534D01*
Y48434D01*
X98377Y48384D01*
X98577D01*
X98627Y48884D02*
Y48684D01*
X98477D01*
X98527Y48784D01*
Y48834D01*
X98477Y48884D01*
X98377D01*
X98327Y48834D01*
Y48734D01*
X98377Y48684D01*
X92474Y42916D02*
X92524Y42866D01*
Y42767D01*
X92474Y42717D01*
X92274D01*
X92224Y42767D01*
Y42866D01*
X92274Y42916D01*
X92224Y43016D02*
Y43116D01*
Y43066D01*
X92524D01*
X92474Y43016D01*
Y43266D02*
X92524Y43316D01*
Y43416D01*
X92474Y43466D01*
X92274D01*
X92224Y43416D01*
Y43316D01*
X92274Y43266D01*
X92474D01*
X92224Y43716D02*
X92524D01*
X92374Y43566D01*
Y43766D01*
X98687Y76466D02*
Y76766D01*
X98537D01*
X98487Y76716D01*
Y76616D01*
X98537Y76566D01*
X98687D01*
X98187Y76766D02*
X98387D01*
Y76616D01*
X98287Y76666D01*
X98237D01*
X98187Y76616D01*
Y76516D01*
X98237Y76466D01*
X98337D01*
X98387Y76516D01*
X87623Y76477D02*
Y76777D01*
X87473D01*
X87424Y76727D01*
Y76627D01*
X87473Y76577D01*
X87623D01*
X87174Y76477D02*
Y76777D01*
X87324Y76627D01*
X87124D01*
X76629Y76477D02*
Y76777D01*
X76479D01*
X76429Y76727D01*
Y76627D01*
X76479Y76577D01*
X76629D01*
X76329Y76727D02*
X76279Y76777D01*
X76179D01*
X76129Y76727D01*
Y76677D01*
X76179Y76627D01*
X76229D01*
X76179D01*
X76129Y76577D01*
Y76527D01*
X76179Y76477D01*
X76279D01*
X76329Y76527D01*
X45079Y72146D02*
Y71846D01*
X45229D01*
X45279Y71896D01*
Y71996D01*
X45229Y72046D01*
X45079D01*
X45579Y72146D02*
X45379D01*
X45579Y71946D01*
Y71896D01*
X45529Y71846D01*
X45429D01*
X45379Y71896D01*
X109613Y70133D02*
Y70033D01*
Y70083D01*
X109363D01*
X109313Y70033D01*
Y69983D01*
X109363Y69933D01*
X109563Y70233D02*
X109613Y70283D01*
Y70383D01*
X109563Y70433D01*
X109513D01*
X109463Y70383D01*
Y70333D01*
Y70383D01*
X109413Y70433D01*
X109363D01*
X109313Y70383D01*
Y70283D01*
X109363Y70233D01*
X98650Y70133D02*
Y70033D01*
Y70083D01*
X98400D01*
X98350Y70033D01*
Y69983D01*
X98400Y69933D01*
X98350Y70433D02*
Y70233D01*
X98550Y70433D01*
X98600D01*
X98650Y70383D01*
Y70283D01*
X98600Y70233D01*
X87805Y70085D02*
Y69985D01*
Y70035D01*
X87555D01*
X87505Y69985D01*
Y69935D01*
X87555Y69885D01*
X87505Y70185D02*
Y70285D01*
Y70235D01*
X87805D01*
X87755Y70185D01*
X75996Y72451D02*
X76046Y72501D01*
X76146D01*
X76196Y72451D01*
Y72251D01*
X76146Y72201D01*
X76046D01*
X75996Y72251D01*
X75696Y72501D02*
X75796Y72451D01*
X75896Y72351D01*
Y72251D01*
X75846Y72201D01*
X75746D01*
X75696Y72251D01*
Y72301D01*
X75746Y72351D01*
X75896D01*
X75396Y72501D02*
X75596D01*
Y72351D01*
X75496Y72401D01*
X75446D01*
X75396Y72351D01*
Y72251D01*
X75446Y72201D01*
X75546D01*
X75596Y72251D01*
X137465Y38134D02*
X137515Y38184D01*
X137615D01*
X137665Y38134D01*
Y37934D01*
X137615Y37884D01*
X137515D01*
X137465Y37934D01*
X137165Y38184D02*
X137265Y38134D01*
X137365Y38034D01*
Y37934D01*
X137315Y37884D01*
X137215D01*
X137165Y37934D01*
Y37984D01*
X137215Y38034D01*
X137365D01*
X136865Y37884D02*
X137065D01*
X136865Y38084D01*
Y38134D01*
X136915Y38184D01*
X137015D01*
X137065Y38134D01*
X90998Y41932D02*
X91048Y41882D01*
Y41782D01*
X90998Y41732D01*
X90798D01*
X90748Y41782D01*
Y41882D01*
X90798Y41932D01*
Y42032D02*
X90748Y42082D01*
Y42182D01*
X90798Y42232D01*
X90998D01*
X91048Y42182D01*
Y42082D01*
X90998Y42032D01*
X90948D01*
X90898Y42082D01*
Y42232D01*
X90998Y42332D02*
X91048Y42382D01*
Y42482D01*
X90998Y42532D01*
X90948D01*
X90898Y42482D01*
Y42432D01*
Y42482D01*
X90848Y42532D01*
X90798D01*
X90748Y42482D01*
Y42382D01*
X90798Y42332D01*
X91884Y43704D02*
X91934Y43654D01*
Y43554D01*
X91884Y43504D01*
X91684D01*
X91634Y43554D01*
Y43654D01*
X91684Y43704D01*
Y43804D02*
X91634Y43854D01*
Y43954D01*
X91684Y44004D01*
X91884D01*
X91934Y43954D01*
Y43854D01*
X91884Y43804D01*
X91834D01*
X91784Y43854D01*
Y44004D01*
X91634Y44304D02*
Y44104D01*
X91834Y44304D01*
X91884D01*
X91934Y44254D01*
Y44154D01*
X91884Y44104D01*
X90301Y46749D02*
X90251Y46799D01*
Y46899D01*
X90301Y46949D01*
X90501D01*
X90551Y46899D01*
Y46799D01*
X90501Y46749D01*
Y46649D02*
X90551Y46599D01*
Y46499D01*
X90501Y46449D01*
X90301D01*
X90251Y46499D01*
Y46599D01*
X90301Y46649D01*
X90351D01*
X90401Y46599D01*
Y46449D01*
X90551Y46349D02*
Y46249D01*
Y46299D01*
X90251D01*
X90301Y46349D01*
X98225Y42474D02*
X98275Y42524D01*
X98375D01*
X98425Y42474D01*
Y42274D01*
X98375Y42224D01*
X98275D01*
X98225Y42274D01*
X98125D02*
X98075Y42224D01*
X97975D01*
X97925Y42274D01*
Y42474D01*
X97975Y42524D01*
X98075D01*
X98125Y42474D01*
Y42424D01*
X98075Y42374D01*
X97925D01*
X97825Y42474D02*
X97775Y42524D01*
X97675D01*
X97625Y42474D01*
Y42274D01*
X97675Y42224D01*
X97775D01*
X97825Y42274D01*
Y42474D01*
X91344Y41119D02*
X91294Y41169D01*
Y41269D01*
X91344Y41319D01*
X91544D01*
X91594Y41269D01*
Y41169D01*
X91544Y41119D01*
X91344Y41019D02*
X91294Y40969D01*
Y40869D01*
X91344Y40819D01*
X91394D01*
X91444Y40869D01*
X91494Y40819D01*
X91544D01*
X91594Y40869D01*
Y40969D01*
X91544Y41019D01*
X91494D01*
X91444Y40969D01*
X91394Y41019D01*
X91344D01*
X91444Y40969D02*
Y40869D01*
X91544Y40719D02*
X91594Y40669D01*
Y40569D01*
X91544Y40519D01*
X91344D01*
X91294Y40569D01*
Y40669D01*
X91344Y40719D01*
X91394D01*
X91444Y40669D01*
Y40519D01*
X93459Y41539D02*
X93509Y41489D01*
Y41389D01*
X93459Y41339D01*
X93259D01*
X93209Y41389D01*
Y41489D01*
X93259Y41539D01*
X93459Y41638D02*
X93509Y41688D01*
Y41788D01*
X93459Y41838D01*
X93409D01*
X93359Y41788D01*
X93309Y41838D01*
X93259D01*
X93209Y41788D01*
Y41688D01*
X93259Y41638D01*
X93309D01*
X93359Y41688D01*
X93409Y41638D01*
X93459D01*
X93359Y41688D02*
Y41788D01*
X93459Y41938D02*
X93509Y41988D01*
Y42088D01*
X93459Y42138D01*
X93409D01*
X93359Y42088D01*
X93309Y42138D01*
X93259D01*
X93209Y42088D01*
Y41988D01*
X93259Y41938D01*
X93309D01*
X93359Y41988D01*
X93409Y41938D01*
X93459D01*
X93359Y41988D02*
Y42088D01*
X93599Y48183D02*
X93649Y48233D01*
X93749D01*
X93799Y48183D01*
Y47983D01*
X93749Y47933D01*
X93649D01*
X93599Y47983D01*
X93499Y48183D02*
X93449Y48233D01*
X93349D01*
X93299Y48183D01*
Y48133D01*
X93349Y48083D01*
X93299Y48033D01*
Y47983D01*
X93349Y47933D01*
X93449D01*
X93499Y47983D01*
Y48033D01*
X93449Y48083D01*
X93499Y48133D01*
Y48183D01*
X93449Y48083D02*
X93349D01*
X93199Y48233D02*
X92999D01*
Y48183D01*
X93199Y47983D01*
Y47933D01*
X98225Y44640D02*
X98275Y44690D01*
X98375D01*
X98425Y44640D01*
Y44440D01*
X98375Y44390D01*
X98275D01*
X98225Y44440D01*
X98125Y44640D02*
X98075Y44690D01*
X97975D01*
X97925Y44640D01*
Y44590D01*
X97975Y44540D01*
X97925Y44490D01*
Y44440D01*
X97975Y44390D01*
X98075D01*
X98125Y44440D01*
Y44490D01*
X98075Y44540D01*
X98125Y44590D01*
Y44640D01*
X98075Y44540D02*
X97975D01*
X97625Y44690D02*
X97725Y44640D01*
X97825Y44540D01*
Y44440D01*
X97775Y44390D01*
X97675D01*
X97625Y44440D01*
Y44490D01*
X97675Y44540D01*
X97825D01*
X99111Y43459D02*
X99161Y43509D01*
X99261D01*
X99311Y43459D01*
Y43259D01*
X99261Y43209D01*
X99161D01*
X99111Y43259D01*
X99011Y43459D02*
X98961Y43509D01*
X98861D01*
X98811Y43459D01*
Y43409D01*
X98861Y43359D01*
X98811Y43309D01*
Y43259D01*
X98861Y43209D01*
X98961D01*
X99011Y43259D01*
Y43309D01*
X98961Y43359D01*
X99011Y43409D01*
Y43459D01*
X98961Y43359D02*
X98861D01*
X98511Y43509D02*
X98711D01*
Y43359D01*
X98611Y43409D01*
X98561D01*
X98511Y43359D01*
Y43259D01*
X98561Y43209D01*
X98661D01*
X98711Y43259D01*
X98133Y45124D02*
X98083Y45074D01*
X97983D01*
X97933Y45124D01*
Y45324D01*
X97983Y45374D01*
X98083D01*
X98133Y45324D01*
X98233Y45124D02*
X98283Y45074D01*
X98383D01*
X98433Y45124D01*
Y45174D01*
X98383Y45224D01*
X98433Y45274D01*
Y45324D01*
X98383Y45374D01*
X98283D01*
X98233Y45324D01*
Y45274D01*
X98283Y45224D01*
X98233Y45174D01*
Y45124D01*
X98283Y45224D02*
X98383D01*
X98683Y45374D02*
Y45074D01*
X98533Y45224D01*
X98733D01*
X89809Y39170D02*
X89759Y39220D01*
Y39320D01*
X89809Y39370D01*
X90009D01*
X90059Y39320D01*
Y39220D01*
X90009Y39170D01*
X89809Y39070D02*
X89759Y39020D01*
Y38920D01*
X89809Y38870D01*
X89859D01*
X89909Y38920D01*
X89959Y38870D01*
X90009D01*
X90059Y38920D01*
Y39020D01*
X90009Y39070D01*
X89959D01*
X89909Y39020D01*
X89859Y39070D01*
X89809D01*
X89909Y39020D02*
Y38920D01*
X89809Y38770D02*
X89759Y38720D01*
Y38620D01*
X89809Y38570D01*
X89859D01*
X89909Y38620D01*
Y38670D01*
Y38620D01*
X89959Y38570D01*
X90009D01*
X90059Y38620D01*
Y38720D01*
X90009Y38770D01*
X95476Y37545D02*
X95426Y37495D01*
X95326D01*
X95276Y37545D01*
Y37745D01*
X95326Y37795D01*
X95426D01*
X95476Y37745D01*
X95575Y37545D02*
X95625Y37495D01*
X95725D01*
X95775Y37545D01*
Y37595D01*
X95725Y37645D01*
X95775Y37695D01*
Y37745D01*
X95725Y37795D01*
X95625D01*
X95575Y37745D01*
Y37695D01*
X95625Y37645D01*
X95575Y37595D01*
Y37545D01*
X95625Y37645D02*
X95725D01*
X96075Y37795D02*
X95875D01*
X96075Y37595D01*
Y37545D01*
X96025Y37495D01*
X95925D01*
X95875Y37545D01*
X97182Y46511D02*
X97232Y46561D01*
X97332D01*
X97382Y46511D01*
Y46311D01*
X97332Y46261D01*
X97232D01*
X97182Y46311D01*
X97082Y46511D02*
X97032Y46561D01*
X96932D01*
X96882Y46511D01*
Y46461D01*
X96932Y46411D01*
X96882Y46361D01*
Y46311D01*
X96932Y46261D01*
X97032D01*
X97082Y46311D01*
Y46361D01*
X97032Y46411D01*
X97082Y46461D01*
Y46511D01*
X97032Y46411D02*
X96932D01*
X96782Y46261D02*
X96682D01*
X96732D01*
Y46561D01*
X96782Y46511D01*
X93707Y37534D02*
X93657Y37484D01*
X93557D01*
X93507Y37534D01*
Y37733D01*
X93557Y37783D01*
X93657D01*
X93707Y37733D01*
X93807Y37534D02*
X93857Y37484D01*
X93957D01*
X94007Y37534D01*
Y37584D01*
X93957Y37634D01*
X94007Y37683D01*
Y37733D01*
X93957Y37783D01*
X93857D01*
X93807Y37733D01*
Y37683D01*
X93857Y37634D01*
X93807Y37584D01*
Y37534D01*
X93857Y37634D02*
X93957D01*
X94107Y37534D02*
X94157Y37484D01*
X94257D01*
X94307Y37534D01*
Y37733D01*
X94257Y37783D01*
X94157D01*
X94107Y37733D01*
Y37534D01*
X99800Y42400D02*
X99850Y42450D01*
X99950D01*
X100000Y42400D01*
Y42200D01*
X99950Y42150D01*
X99850D01*
X99800Y42200D01*
X99700Y42450D02*
X99500D01*
Y42400D01*
X99700Y42200D01*
Y42150D01*
X99400Y42200D02*
X99350Y42150D01*
X99250D01*
X99200Y42200D01*
Y42400D01*
X99250Y42450D01*
X99350D01*
X99400Y42400D01*
Y42350D01*
X99350Y42300D01*
X99200D01*
X94796Y45826D02*
X94846Y45875D01*
X94946D01*
X94996Y45826D01*
Y45626D01*
X94946Y45576D01*
X94846D01*
X94796Y45626D01*
X94696Y45875D02*
X94496D01*
Y45826D01*
X94696Y45626D01*
Y45576D01*
X94396Y45826D02*
X94346Y45875D01*
X94246D01*
X94196Y45826D01*
Y45776D01*
X94246Y45726D01*
X94196Y45676D01*
Y45626D01*
X94246Y45576D01*
X94346D01*
X94396Y45626D01*
Y45676D01*
X94346Y45726D01*
X94396Y45776D01*
Y45826D01*
X94346Y45726D02*
X94246D01*
X92424Y39711D02*
X92374Y39661D01*
X92274D01*
X92224Y39711D01*
Y39911D01*
X92274Y39961D01*
X92374D01*
X92424Y39911D01*
X92524Y39661D02*
X92724D01*
Y39711D01*
X92524Y39911D01*
Y39961D01*
X92824Y39661D02*
X93024D01*
Y39711D01*
X92824Y39911D01*
Y39961D01*
X92910Y44738D02*
X92960Y44788D01*
X93060D01*
X93110Y44738D01*
Y44538D01*
X93060Y44488D01*
X92960D01*
X92910Y44538D01*
X92810Y44788D02*
X92610D01*
Y44738D01*
X92810Y44538D01*
Y44488D01*
X92310Y44788D02*
X92410Y44738D01*
X92510Y44638D01*
Y44538D01*
X92460Y44488D01*
X92360D01*
X92310Y44538D01*
Y44588D01*
X92360Y44638D01*
X92510D01*
X93852Y39038D02*
X93902Y38988D01*
Y38888D01*
X93852Y38838D01*
X93652D01*
X93602Y38888D01*
Y38988D01*
X93652Y39038D01*
X93902Y39138D02*
Y39338D01*
X93852D01*
X93652Y39138D01*
X93602D01*
X93902Y39638D02*
Y39438D01*
X93752D01*
X93802Y39538D01*
Y39588D01*
X93752Y39638D01*
X93652D01*
X93602Y39588D01*
Y39488D01*
X93652Y39438D01*
X96608Y45082D02*
X96658Y45032D01*
Y44932D01*
X96608Y44882D01*
X96408D01*
X96358Y44932D01*
Y45032D01*
X96408Y45082D01*
X96658Y45182D02*
Y45382D01*
X96608D01*
X96408Y45182D01*
X96358D01*
X96608Y45482D02*
X96658Y45532D01*
Y45632D01*
X96608Y45682D01*
X96558D01*
X96508Y45632D01*
Y45582D01*
Y45632D01*
X96458Y45682D01*
X96408D01*
X96358Y45632D01*
Y45532D01*
X96408Y45482D01*
X96699Y47733D02*
X96649Y47783D01*
Y47883D01*
X96699Y47933D01*
X96899D01*
X96949Y47883D01*
Y47783D01*
X96899Y47733D01*
X96649Y47633D02*
Y47433D01*
X96699D01*
X96899Y47633D01*
X96949D01*
Y47133D02*
Y47333D01*
X96749Y47133D01*
X96699D01*
X96649Y47183D01*
Y47283D01*
X96699Y47333D01*
X93304Y46214D02*
X93354Y46264D01*
X93454D01*
X93504Y46214D01*
Y46015D01*
X93454Y45965D01*
X93354D01*
X93304Y46015D01*
X93004Y46264D02*
X93104Y46214D01*
X93204Y46115D01*
Y46015D01*
X93154Y45965D01*
X93054D01*
X93004Y46015D01*
Y46065D01*
X93054Y46115D01*
X93204D01*
X92904Y46015D02*
X92854Y45965D01*
X92754D01*
X92704Y46015D01*
Y46214D01*
X92754Y46264D01*
X92854D01*
X92904Y46214D01*
Y46164D01*
X92854Y46115D01*
X92704D01*
X100981Y44541D02*
X101031Y44591D01*
X101131D01*
X101181Y44541D01*
Y44341D01*
X101131Y44291D01*
X101031D01*
X100981Y44341D01*
X100681Y44591D02*
X100781Y44541D01*
X100881Y44441D01*
Y44341D01*
X100831Y44291D01*
X100731D01*
X100681Y44341D01*
Y44391D01*
X100731Y44441D01*
X100881D01*
X100581Y44541D02*
X100531Y44591D01*
X100431D01*
X100381Y44541D01*
Y44491D01*
X100431Y44441D01*
X100381Y44391D01*
Y44341D01*
X100431Y44291D01*
X100531D01*
X100581Y44341D01*
Y44391D01*
X100531Y44441D01*
X100581Y44491D01*
Y44541D01*
X100531Y44441D02*
X100431D01*
X99210Y47002D02*
X99260Y47052D01*
X99359D01*
X99409Y47002D01*
Y46802D01*
X99359Y46752D01*
X99260D01*
X99210Y46802D01*
X98910Y47052D02*
X99010Y47002D01*
X99110Y46902D01*
Y46802D01*
X99060Y46752D01*
X98960D01*
X98910Y46802D01*
Y46852D01*
X98960Y46902D01*
X99110D01*
X98810Y47052D02*
X98610D01*
Y47002D01*
X98810Y46802D01*
Y46752D01*
X152800Y71300D02*
X153000D01*
Y71150D01*
X152900D01*
X153000D01*
Y71000D01*
X152700Y71300D02*
X152600D01*
X152650D01*
Y71000D01*
X152700D01*
X152600D01*
X152450Y71300D02*
Y71000D01*
X152300D01*
X152250Y71050D01*
Y71250D01*
X152300Y71300D01*
X152450D01*
X152150D02*
X151950D01*
Y71250D01*
X152150Y71050D01*
Y71000D01*
X153800Y37300D02*
X154000D01*
Y37150D01*
X153900D01*
X154000D01*
Y37000D01*
X153700Y37300D02*
X153600D01*
X153650D01*
Y37000D01*
X153700D01*
X153600D01*
X153450Y37300D02*
Y37000D01*
X153300D01*
X153250Y37050D01*
Y37250D01*
X153300Y37300D01*
X153450D01*
X153150Y37250D02*
X153100Y37300D01*
X153000D01*
X152950Y37250D01*
Y37200D01*
X153000Y37150D01*
X152950Y37100D01*
Y37050D01*
X153000Y37000D01*
X153100D01*
X153150Y37050D01*
Y37100D01*
X153100Y37150D01*
X153150Y37200D01*
Y37250D01*
X153100Y37150D02*
X153000D01*
X31195Y47105D02*
X31395D01*
Y46955D01*
X31295D01*
X31395D01*
Y46805D01*
X31095Y47105D02*
X30995D01*
X31045D01*
Y46805D01*
X31095D01*
X30995D01*
X30845Y47105D02*
Y46805D01*
X30695D01*
X30645Y46855D01*
Y47055D01*
X30695Y47105D01*
X30845D01*
X30545Y46805D02*
X30445D01*
X30495D01*
Y47105D01*
X30545Y47055D01*
X30295D02*
X30245Y47105D01*
X30145D01*
X30095Y47055D01*
Y46855D01*
X30145Y46805D01*
X30245D01*
X30295Y46855D01*
Y47055D01*
X88195Y38105D02*
X88395D01*
Y37955D01*
X88295D01*
X88395D01*
Y37805D01*
X88095Y38105D02*
X87995D01*
X88045D01*
Y37805D01*
X88095D01*
X87995D01*
X87845Y38105D02*
Y37805D01*
X87695D01*
X87645Y37855D01*
Y38055D01*
X87695Y38105D01*
X87845D01*
X87545Y37805D02*
X87445D01*
X87495D01*
Y38105D01*
X87545Y38055D01*
X87295Y37805D02*
X87195D01*
X87245D01*
Y38105D01*
X87295Y38055D01*
X103800Y50300D02*
X104000D01*
Y50150D01*
X103900D01*
X104000D01*
Y50000D01*
X103700Y50300D02*
X103600D01*
X103650D01*
Y50000D01*
X103700D01*
X103600D01*
X103450Y50300D02*
Y50000D01*
X103300D01*
X103250Y50050D01*
Y50250D01*
X103300Y50300D01*
X103450D01*
X103150Y50000D02*
X103050D01*
X103100D01*
Y50300D01*
X103150Y50250D01*
X102700Y50000D02*
X102900D01*
X102700Y50200D01*
Y50250D01*
X102750Y50300D01*
X102850D01*
X102900Y50250D01*
X30312Y41687D02*
X30362Y41737D01*
X30462D01*
X30512Y41687D01*
Y41487D01*
X30462Y41437D01*
X30362D01*
X30312Y41487D01*
X30212Y41437D02*
X30112D01*
X30162D01*
Y41737D01*
X30212Y41687D01*
X29762Y41437D02*
X29962D01*
X29762Y41637D01*
Y41687D01*
X29812Y41737D01*
X29912D01*
X29962Y41687D01*
X29462Y41437D02*
X29662D01*
X29462Y41637D01*
Y41687D01*
X29512Y41737D01*
X29612D01*
X29662Y41687D01*
D68*
X61000Y75426D02*
D03*
M02*
