%FSLAX23Y23*%
%MOIN*%
G70*
G01*
G75*
G04 Layer_Color=65535*
%ADD10R,0.043X0.039*%
%ADD11C,0.016*%
%ADD12R,0.016X0.047*%
%ADD13R,0.101X0.062*%
%ADD14R,0.256X0.036*%
%ADD15R,0.078X0.062*%
%ADD16R,0.102X0.094*%
%ADD17R,0.051X0.059*%
%ADD18R,0.035X0.028*%
%ADD19R,0.020X0.061*%
%ADD20R,0.061X0.020*%
%ADD21R,0.055X0.079*%
%ADD22R,0.041X0.015*%
%ADD23R,0.057X0.022*%
%ADD24R,0.087X0.016*%
%ADD25R,0.087X0.016*%
%ADD26R,0.039X0.043*%
%ADD27R,0.071X0.063*%
%ADD28R,0.036X0.048*%
%ADD29R,0.063X0.071*%
%ADD30R,0.063X0.106*%
%ADD31R,0.061X0.020*%
%ADD32R,0.161X0.102*%
%ADD33O,0.041X0.015*%
%ADD34R,0.106X0.063*%
%ADD35R,0.039X0.193*%
%ADD36R,0.197X0.118*%
%ADD37R,0.015X0.060*%
%ADD38R,0.071X0.016*%
%ADD39R,0.016X0.071*%
%ADD40R,0.102X0.087*%
%ADD41R,0.087X0.102*%
%ADD42C,0.006*%
%ADD43C,0.014*%
%ADD44C,0.016*%
%ADD45C,0.024*%
%ADD46C,0.012*%
%ADD47C,0.018*%
%ADD48C,0.020*%
%ADD49C,0.059*%
%ADD50C,0.055*%
%ADD51C,0.106*%
%ADD52C,0.130*%
%ADD53C,0.160*%
%ADD54C,0.070*%
%ADD55R,0.059X0.059*%
%ADD56C,0.094*%
%ADD57C,0.050*%
%ADD58C,0.030*%
%ADD59C,0.042*%
%ADD60C,0.028*%
%ADD61C,0.024*%
%ADD62C,0.008*%
%ADD63C,0.010*%
%ADD64R,0.028X0.035*%
%ADD65C,0.010*%
%ADD66C,0.008*%
%ADD67C,0.004*%
%ADD68C,0.007*%
%ADD69C,0.004*%
%ADD70C,0.060*%
%ADD71C,0.015*%
D42*
X9465Y7502D02*
G03*
X9464Y7435I-85J-32D01*
G01*
X9055Y7512D02*
G03*
X9054Y7445I-85J-32D01*
G01*
X8675Y7512D02*
G03*
X8674Y7445I-85J-32D01*
G01*
X2825Y5935D02*
Y7480D01*
Y5935D02*
X4281D01*
Y7549D01*
X2825D02*
X4281D01*
X2825Y7480D02*
Y7549D01*
X4380Y6329D02*
Y7677D01*
Y6329D02*
X5128D01*
Y6949D01*
X7018Y6959D01*
Y7687D01*
X6319D02*
X7018D01*
X4380D02*
X6319D01*
X4380Y7677D02*
Y7687D01*
X9465Y7436D02*
Y7502D01*
X9055Y7446D02*
Y7512D01*
X8675Y7446D02*
Y7512D01*
D44*
X13760Y7562D02*
Y7402D01*
X13840D01*
X13866Y7428D01*
Y7455D01*
X13840Y7482D01*
X13760D01*
X13840D01*
X13866Y7508D01*
Y7535D01*
X13840Y7562D01*
X13760D01*
X13946Y7508D02*
X14000D01*
X14026Y7482D01*
Y7402D01*
X13946D01*
X13920Y7428D01*
X13946Y7455D01*
X14026D01*
X14186Y7508D02*
X14106D01*
X14080Y7482D01*
Y7428D01*
X14106Y7402D01*
X14186D01*
X14240D02*
Y7562D01*
Y7455D02*
X14320Y7508D01*
X14240Y7455D02*
X14320Y7402D01*
X14400Y7348D02*
Y7508D01*
X14480D01*
X14506Y7482D01*
Y7428D01*
X14480Y7402D01*
X14400D01*
X14560D02*
X14613D01*
X14586D01*
Y7562D01*
X14560D01*
X14720Y7508D02*
X14773D01*
X14800Y7482D01*
Y7402D01*
X14720D01*
X14693Y7428D01*
X14720Y7455D01*
X14800D01*
X14853Y7402D02*
Y7508D01*
X14933D01*
X14959Y7482D01*
Y7402D01*
X15093D02*
X15039D01*
X15013Y7428D01*
Y7482D01*
X15039Y7508D01*
X15093D01*
X15119Y7482D01*
Y7455D01*
X15013D01*
D62*
X5211Y4331D02*
Y6502D01*
X5638Y4331D02*
Y6501D01*
X5216Y4330D02*
X5636D01*
X5213Y6501D02*
X5636D01*
X5961Y4331D02*
Y6502D01*
X6388Y4331D02*
Y6501D01*
X5966Y4330D02*
X6386D01*
X5963Y6501D02*
X6386D01*
X6711Y4331D02*
Y6502D01*
X7138Y4331D02*
Y6501D01*
X6716Y4330D02*
X7136D01*
X6713Y6501D02*
X7136D01*
X7461Y4331D02*
Y6502D01*
X7888Y4331D02*
Y6501D01*
X7466Y4330D02*
X7886D01*
X7463Y6501D02*
X7886D01*
X8211Y4331D02*
Y6502D01*
X8638Y4331D02*
Y6501D01*
X8216Y4330D02*
X8636D01*
X8213Y6501D02*
X8636D01*
X8961Y4331D02*
Y6502D01*
X9388Y4331D02*
Y6501D01*
X8966Y4330D02*
X9386D01*
X8963Y6501D02*
X9386D01*
X9711Y4331D02*
Y6502D01*
X10138Y4331D02*
Y6501D01*
X9716Y4330D02*
X10136D01*
X9713Y6501D02*
X10136D01*
X10461Y4331D02*
Y6502D01*
X10888Y4331D02*
Y6501D01*
X10466Y4330D02*
X10886D01*
X10463Y6501D02*
X10886D01*
X11211Y4331D02*
Y6502D01*
X11638Y4331D02*
Y6501D01*
X11216Y4330D02*
X11636D01*
X11213Y6501D02*
X11636D01*
X11961Y4331D02*
Y6502D01*
X12388Y4331D02*
Y6501D01*
X11966Y4330D02*
X12386D01*
X11963Y6501D02*
X12386D01*
X12711Y4331D02*
Y6502D01*
X13138Y4331D02*
Y6501D01*
X12716Y4330D02*
X13136D01*
X12713Y6501D02*
X13136D01*
X13461Y4331D02*
Y6502D01*
X13888Y4331D02*
Y6501D01*
X13466Y4330D02*
X13886D01*
X13463Y6501D02*
X13886D01*
X14211Y4331D02*
Y6502D01*
X14638Y4331D02*
Y6501D01*
X14216Y4330D02*
X14636D01*
X14213Y6501D02*
X14636D01*
X14961Y4331D02*
Y6502D01*
X15388Y4331D02*
Y6501D01*
X14966Y4330D02*
X15386D01*
X14963Y6501D02*
X15386D01*
X15711Y4331D02*
Y6502D01*
X16138Y4331D02*
Y6501D01*
X15716Y4330D02*
X16136D01*
X15713Y6501D02*
X16136D01*
X16461Y4331D02*
Y6502D01*
X16888Y4331D02*
Y6501D01*
X16466Y4330D02*
X16886D01*
X16463Y6501D02*
X16886D01*
X4330Y3580D02*
X6500D01*
X4330Y3153D02*
X6499D01*
X4328Y3155D02*
Y3575D01*
X6499Y3155D02*
Y3577D01*
D63*
X9606Y7648D02*
Y7677D01*
X10876D01*
Y6978D02*
Y7677D01*
X9606Y6978D02*
X10876D01*
X9606D02*
Y7657D01*
X5190Y7262D02*
Y7338D01*
X5003Y7262D02*
X5190D01*
X5003Y7338D02*
X5190D01*
X5000Y7503D02*
Y7577D01*
X5188D01*
X5000Y7503D02*
X5188D01*
X6374Y7617D02*
X6846D01*
X6374Y7263D02*
Y7440D01*
Y7617D01*
Y7263D02*
X6846D01*
Y7617D01*
X5323Y7400D02*
X6148D01*
X5323D02*
Y7662D01*
X6160D01*
Y7400D02*
Y7662D01*
X6148Y7400D02*
X6160D01*
X9701Y7250D02*
X9741Y7211D01*
X9701Y7506D02*
X10075D01*
Y7211D02*
Y7506D01*
X9701Y7211D02*
X10075D01*
X9701D02*
Y7506D01*
X2043Y6670D02*
X2086D01*
X2043D02*
Y6795D01*
X2086D01*
Y5820D02*
X2677D01*
X2086D02*
Y7627D01*
X2677D01*
Y5820D02*
Y7627D01*
X2958Y6612D02*
X3191D01*
X2958Y6112D02*
Y6612D01*
X3502Y6102D02*
Y6612D01*
X3269D02*
X3502D01*
X2958Y6112D02*
Y6128D01*
Y6112D02*
X3005Y6065D01*
X3193D01*
X3267D02*
X3464D01*
X3502Y6102D01*
X3213Y7347D02*
X3338D01*
X3213Y6872D02*
Y7347D01*
Y6872D02*
X3338D01*
X3562Y7347D02*
X3700D01*
Y6872D02*
Y7347D01*
X3562Y6872D02*
X3700D01*
X4591Y6103D02*
X4581Y6113D01*
X4561D01*
X4551Y6103D01*
Y6063D01*
X4561Y6054D01*
X4581D01*
X4591Y6063D01*
X4611Y6103D02*
X4621Y6113D01*
X4641D01*
X4651Y6103D01*
Y6093D01*
X4641Y6083D01*
X4651Y6073D01*
Y6063D01*
X4641Y6054D01*
X4621D01*
X4611Y6063D01*
Y6073D01*
X4621Y6083D01*
X4611Y6093D01*
Y6103D01*
X4621Y6083D02*
X4641D01*
X4671Y6063D02*
X4681Y6054D01*
X4701D01*
X4711Y6063D01*
Y6103D01*
X4701Y6113D01*
X4681D01*
X4671Y6103D01*
Y6093D01*
X4681Y6083D01*
X4711D01*
X3521Y4743D02*
X3511Y4753D01*
X3491D01*
X3481Y4743D01*
Y4703D01*
X3491Y4694D01*
X3511D01*
X3521Y4703D01*
X3541D02*
X3551Y4694D01*
X3571D01*
X3581Y4703D01*
Y4743D01*
X3571Y4753D01*
X3551D01*
X3541Y4743D01*
Y4733D01*
X3551Y4723D01*
X3581D01*
X3601Y4703D02*
X3611Y4694D01*
X3631D01*
X3641Y4703D01*
Y4743D01*
X3631Y4753D01*
X3611D01*
X3601Y4743D01*
Y4733D01*
X3611Y4723D01*
X3641D01*
X3241Y5913D02*
X3231Y5923D01*
X3211D01*
X3201Y5913D01*
Y5873D01*
X3211Y5864D01*
X3231D01*
X3241Y5873D01*
X3261Y5864D02*
X3281D01*
X3271D01*
Y5923D01*
X3261Y5913D01*
X3311D02*
X3321Y5923D01*
X3341D01*
X3351Y5913D01*
Y5873D01*
X3341Y5864D01*
X3321D01*
X3311Y5873D01*
Y5913D01*
X3371D02*
X3381Y5923D01*
X3401D01*
X3411Y5913D01*
Y5873D01*
X3401Y5864D01*
X3381D01*
X3371Y5873D01*
Y5913D01*
X4591Y5103D02*
X4581Y5113D01*
X4561D01*
X4551Y5103D01*
Y5063D01*
X4561Y5054D01*
X4581D01*
X4591Y5063D01*
X4611Y5054D02*
X4631D01*
X4621D01*
Y5113D01*
X4611Y5103D01*
X4661D02*
X4671Y5113D01*
X4691D01*
X4701Y5103D01*
Y5063D01*
X4691Y5054D01*
X4671D01*
X4661Y5063D01*
Y5103D01*
X4721Y5054D02*
X4741D01*
X4731D01*
Y5113D01*
X4721Y5103D01*
X9853Y7629D02*
X9843Y7639D01*
X9823D01*
X9813Y7629D01*
Y7589D01*
X9823Y7579D01*
X9843D01*
X9853Y7589D01*
X9873Y7579D02*
X9893D01*
X9883D01*
Y7639D01*
X9873D01*
X9933Y7579D02*
X9953D01*
X9963Y7589D01*
Y7609D01*
X9953Y7619D01*
X9933D01*
X9923Y7609D01*
Y7589D01*
X9933Y7579D01*
X10023Y7619D02*
X9993D01*
X9983Y7609D01*
Y7589D01*
X9993Y7579D01*
X10023D01*
X10043D02*
Y7639D01*
Y7599D02*
X10073Y7619D01*
X10043Y7599D02*
X10073Y7579D01*
X10203Y7629D02*
X10193Y7639D01*
X10173D01*
X10163Y7629D01*
Y7589D01*
X10173Y7579D01*
X10193D01*
X10203Y7589D01*
Y7609D01*
X10183D01*
X10253Y7579D02*
X10233D01*
X10223Y7589D01*
Y7609D01*
X10233Y7619D01*
X10253D01*
X10263Y7609D01*
Y7599D01*
X10223D01*
X10283Y7579D02*
Y7619D01*
X10313D01*
X10323Y7609D01*
Y7579D01*
X10373D02*
X10353D01*
X10343Y7589D01*
Y7609D01*
X10353Y7619D01*
X10373D01*
X10383Y7609D01*
Y7599D01*
X10343D01*
X10403Y7619D02*
Y7579D01*
Y7599D01*
X10413Y7609D01*
X10423Y7619D01*
X10433D01*
X10473D02*
X10493D01*
X10503Y7609D01*
Y7579D01*
X10473D01*
X10463Y7589D01*
X10473Y7599D01*
X10503D01*
X10533Y7629D02*
Y7619D01*
X10523D01*
X10543D01*
X10533D01*
Y7589D01*
X10543Y7579D01*
X10573D02*
X10593D01*
X10583D01*
Y7619D01*
X10573D01*
X10633Y7579D02*
X10653D01*
X10663Y7589D01*
Y7609D01*
X10653Y7619D01*
X10633D01*
X10623Y7609D01*
Y7589D01*
X10633Y7579D01*
X10683D02*
Y7619D01*
X10713D01*
X10723Y7609D01*
Y7579D01*
X2865Y7521D02*
X2845D01*
X2835Y7511D01*
Y7471D01*
X2845Y7461D01*
X2865D01*
X2875Y7471D01*
Y7511D01*
X2865Y7521D01*
X2895Y7461D02*
Y7501D01*
X2925D01*
X2935Y7491D01*
Y7461D01*
X2955Y7491D02*
X2995D01*
X3015Y7521D02*
Y7461D01*
X3045D01*
X3055Y7471D01*
Y7481D01*
X3045Y7491D01*
X3015D01*
X3045D01*
X3055Y7501D01*
Y7511D01*
X3045Y7521D01*
X3015D01*
X3085Y7461D02*
X3105D01*
X3115Y7471D01*
Y7491D01*
X3105Y7501D01*
X3085D01*
X3075Y7491D01*
Y7471D01*
X3085Y7461D01*
X3145Y7501D02*
X3165D01*
X3175Y7491D01*
Y7461D01*
X3145D01*
X3135Y7471D01*
X3145Y7481D01*
X3175D01*
X3195Y7501D02*
Y7461D01*
Y7481D01*
X3205Y7491D01*
X3215Y7501D01*
X3225D01*
X3294Y7521D02*
Y7461D01*
X3265D01*
X3255Y7471D01*
Y7491D01*
X3265Y7501D01*
X3294D01*
X3374Y7511D02*
X3384Y7521D01*
X3404D01*
X3414Y7511D01*
Y7501D01*
X3404Y7491D01*
X3394D01*
X3404D01*
X3414Y7481D01*
Y7471D01*
X3404Y7461D01*
X3384D01*
X3374Y7471D01*
X3434Y7461D02*
Y7471D01*
X3444D01*
Y7461D01*
X3434D01*
X3484Y7511D02*
X3494Y7521D01*
X3514D01*
X3524Y7511D01*
Y7501D01*
X3514Y7491D01*
X3504D01*
X3514D01*
X3524Y7481D01*
Y7471D01*
X3514Y7461D01*
X3494D01*
X3484Y7471D01*
X3544Y7521D02*
Y7481D01*
X3564Y7461D01*
X3584Y7481D01*
Y7521D01*
X3704Y7511D02*
X3694Y7521D01*
X3674D01*
X3664Y7511D01*
Y7471D01*
X3674Y7461D01*
X3694D01*
X3704Y7471D01*
X3734Y7461D02*
X3754D01*
X3764Y7471D01*
Y7491D01*
X3754Y7501D01*
X3734D01*
X3724Y7491D01*
Y7471D01*
X3734Y7461D01*
X3784D02*
Y7501D01*
X3814D01*
X3824Y7491D01*
Y7461D01*
X3844Y7501D02*
X3864Y7461D01*
X3884Y7501D01*
X3934Y7461D02*
X3914D01*
X3904Y7471D01*
Y7491D01*
X3914Y7501D01*
X3934D01*
X3944Y7491D01*
Y7481D01*
X3904D01*
X3964Y7501D02*
Y7461D01*
Y7481D01*
X3974Y7491D01*
X3984Y7501D01*
X3994D01*
X4024Y7461D02*
X4054D01*
X4064Y7471D01*
X4054Y7481D01*
X4034D01*
X4024Y7491D01*
X4034Y7501D01*
X4064D01*
X4084Y7461D02*
X4104D01*
X4094D01*
Y7501D01*
X4084D01*
X4144Y7461D02*
X4164D01*
X4174Y7471D01*
Y7491D01*
X4164Y7501D01*
X4144D01*
X4134Y7491D01*
Y7471D01*
X4144Y7461D01*
X4194D02*
Y7501D01*
X4224D01*
X4234Y7491D01*
Y7461D01*
X5837Y7343D02*
Y7283D01*
X5877D01*
X5937Y7333D02*
X5927Y7343D01*
X5907D01*
X5897Y7333D01*
Y7293D01*
X5907Y7283D01*
X5927D01*
X5937Y7293D01*
X5957Y7343D02*
Y7283D01*
X5987D01*
X5997Y7293D01*
Y7333D01*
X5987Y7343D01*
X5957D01*
X6077D02*
X6097D01*
X6087D01*
Y7283D01*
X6077D01*
X6097D01*
X6157Y7343D02*
X6137D01*
X6127Y7333D01*
Y7293D01*
X6137Y7283D01*
X6157D01*
X6167Y7293D01*
Y7333D01*
X6157Y7343D01*
X13790Y7304D02*
X13780Y7314D01*
X13760D01*
X13750Y7304D01*
Y7264D01*
X13760Y7254D01*
X13780D01*
X13790Y7264D01*
X13820Y7254D02*
X13840D01*
X13850Y7264D01*
Y7284D01*
X13840Y7294D01*
X13820D01*
X13810Y7284D01*
Y7264D01*
X13820Y7254D01*
X13870Y7234D02*
Y7294D01*
X13900D01*
X13910Y7284D01*
Y7264D01*
X13900Y7254D01*
X13870D01*
X13930Y7294D02*
Y7264D01*
X13940Y7254D01*
X13970D01*
Y7244D01*
X13960Y7234D01*
X13950D01*
X13970Y7254D02*
Y7294D01*
X13990D02*
Y7254D01*
Y7274D01*
X14000Y7284D01*
X14010Y7294D01*
X14020D01*
X14050Y7254D02*
X14070D01*
X14060D01*
Y7294D01*
X14050D01*
X14120Y7234D02*
X14130D01*
X14140Y7244D01*
Y7294D01*
X14110D01*
X14100Y7284D01*
Y7264D01*
X14110Y7254D01*
X14140D01*
X14160Y7314D02*
Y7254D01*
Y7284D01*
X14170Y7294D01*
X14190D01*
X14200Y7284D01*
Y7254D01*
X14230Y7304D02*
Y7294D01*
X14220D01*
X14240D01*
X14230D01*
Y7264D01*
X14240Y7254D01*
X14370Y7314D02*
X14330D01*
Y7254D01*
X14370D01*
X14330Y7284D02*
X14350D01*
X14390Y7294D02*
Y7254D01*
Y7274D01*
X14400Y7284D01*
X14410Y7294D01*
X14420D01*
X14450Y7254D02*
X14470D01*
X14460D01*
Y7294D01*
X14450D01*
X14540D02*
X14510D01*
X14500Y7284D01*
Y7264D01*
X14510Y7254D01*
X14540D01*
X14660Y7314D02*
X14640D01*
X14650D01*
Y7264D01*
X14640Y7254D01*
X14630D01*
X14620Y7264D01*
X14690Y7254D02*
X14710D01*
X14720Y7264D01*
Y7284D01*
X14710Y7294D01*
X14690D01*
X14680Y7284D01*
Y7264D01*
X14690Y7254D01*
X14740D02*
Y7294D01*
X14770D01*
X14780Y7284D01*
Y7254D01*
X14810Y7294D02*
X14830D01*
X14840Y7284D01*
Y7254D01*
X14810D01*
X14800Y7264D01*
X14810Y7274D01*
X14840D01*
X14860Y7254D02*
X14890D01*
X14900Y7264D01*
X14890Y7274D01*
X14870D01*
X14860Y7284D01*
X14870Y7294D01*
X14900D01*
X13750Y7206D02*
X13790D01*
X13770D01*
Y7146D01*
X13810Y7206D02*
Y7146D01*
Y7176D01*
X13820Y7186D01*
X13840D01*
X13850Y7176D01*
Y7146D01*
X13900D02*
X13880D01*
X13870Y7156D01*
Y7176D01*
X13880Y7186D01*
X13900D01*
X13910Y7176D01*
Y7166D01*
X13870D01*
X13990Y7206D02*
Y7146D01*
X14010Y7166D01*
X14030Y7146D01*
Y7206D01*
X14050Y7146D02*
X14070D01*
X14060D01*
Y7186D01*
X14050D01*
X14100Y7146D02*
X14120D01*
X14110D01*
Y7206D01*
X14100D01*
X14150Y7146D02*
X14180D01*
X14190Y7156D01*
X14180Y7166D01*
X14160D01*
X14150Y7176D01*
X14160Y7186D01*
X14190D01*
X14220Y7146D02*
X14240D01*
X14250Y7156D01*
Y7176D01*
X14240Y7186D01*
X14220D01*
X14210Y7176D01*
Y7156D01*
X14220Y7146D01*
X14270D02*
Y7186D01*
X14300D01*
X14310Y7176D01*
Y7146D01*
X14390Y7206D02*
Y7146D01*
X14430D01*
X14460Y7186D02*
X14480D01*
X14490Y7176D01*
Y7146D01*
X14460D01*
X14450Y7156D01*
X14460Y7166D01*
X14490D01*
X14510Y7206D02*
Y7146D01*
X14540D01*
X14550Y7156D01*
Y7166D01*
Y7176D01*
X14540Y7186D01*
X14510D01*
X14580Y7136D02*
X14590Y7146D01*
Y7156D01*
X14580D01*
Y7146D01*
X14590D01*
X14580Y7136D01*
X14570Y7126D01*
X14690Y7146D02*
Y7206D01*
X14720D01*
X14730Y7196D01*
Y7176D01*
X14720Y7166D01*
X14690D01*
X14790Y7196D02*
X14780Y7206D01*
X14760D01*
X14750Y7196D01*
Y7156D01*
X14760Y7146D01*
X14780D01*
X14790Y7156D01*
X14810Y7206D02*
Y7146D01*
X14850D01*
X14870D02*
Y7206D01*
X14890Y7186D01*
X14910Y7206D01*
Y7146D01*
D65*
X3503Y5709D02*
G03*
X3503Y5709I-5J0D01*
G01*
X3720Y3899D02*
G03*
X3720Y3899I-5J0D01*
G01*
X3870Y4071D02*
G03*
X3870Y4071I-5J0D01*
G01*
X4818Y7379D02*
G03*
X4818Y7379I-5J0D01*
G01*
X4900Y6523D02*
G03*
X4900Y6523I-5J0D01*
G01*
X10607Y7437D02*
G03*
X10607Y7437I-5J0D01*
G01*
X4299Y7165D02*
G03*
X4299Y7165I-5J0D01*
G01*
X2566Y4901D02*
G03*
X2566Y4901I-5J0D01*
G01*
X11572Y6762D02*
G03*
X11572Y6762I-5J0D01*
G01*
X10784D02*
G03*
X10784Y6762I-5J0D01*
G01*
X10036D02*
G03*
X10036Y6762I-5J0D01*
G01*
X9328D02*
G03*
X9328Y6762I-5J0D01*
G01*
X8580D02*
G03*
X8580Y6762I-5J0D01*
G01*
X7832D02*
G03*
X7832Y6762I-5J0D01*
G01*
X7064D02*
G03*
X7064Y6762I-5J0D01*
G01*
X6324D02*
G03*
X6324Y6762I-5J0D01*
G01*
X5576D02*
G03*
X5576Y6762I-5J0D01*
G01*
X16808D02*
G03*
X16808Y6762I-5J0D01*
G01*
X16060D02*
G03*
X16060Y6762I-5J0D01*
G01*
X15312D02*
G03*
X15312Y6762I-5J0D01*
G01*
X14564D02*
G03*
X14564Y6762I-5J0D01*
G01*
X13816D02*
G03*
X13816Y6762I-5J0D01*
G01*
X13048D02*
G03*
X13048Y6762I-5J0D01*
G01*
X12320D02*
G03*
X12320Y6762I-5J0D01*
G01*
X2558Y5301D02*
G03*
X2558Y5301I-5J0D01*
G01*
X16966Y6700D02*
G03*
X16966Y6700I-5J0D01*
G01*
X17345Y4021D02*
G03*
X17345Y4021I-5J0D01*
G01*
X17166Y6710D02*
G03*
X17166Y6710I-5J0D01*
G01*
X6706Y3260D02*
G03*
X6706Y3260I-5J0D01*
G01*
X4116Y3470D02*
G03*
X4116Y3470I-5J0D01*
G01*
X6605Y3751D02*
G03*
X6605Y3751I-5J0D01*
G01*
X13685Y3449D02*
G03*
X13685Y3449I-5J0D01*
G01*
X11935Y3781D02*
G03*
X11935Y3781I-5J0D01*
G01*
X11945Y3561D02*
G03*
X11945Y3561I-5J0D01*
G01*
X2985Y3889D02*
G03*
X2985Y3889I-5J0D01*
G01*
X3486Y4360D02*
G03*
X3486Y4360I-5J0D01*
G01*
X3206Y5530D02*
G03*
X3206Y5530I-5J0D01*
G01*
X4556Y4720D02*
G03*
X4556Y4720I-5J0D01*
G01*
Y5720D02*
G03*
X4556Y5720I-5J0D01*
G01*
D66*
X3647Y3662D02*
G03*
X3647Y3675I0J6D01*
G01*
X4735Y6525D02*
G03*
X4685Y6525I-25J0D01*
G01*
X11413Y3224D02*
Y3256D01*
X4390Y5748D02*
X4429Y5709D01*
Y5709D02*
Y5709D01*
X4390Y4843D02*
X4429Y4882D01*
X4390Y4843D02*
X4390D01*
X3524Y4882D02*
X3563Y4843D01*
X3524Y5748D02*
X4390D01*
X4429Y4882D02*
Y5709D01*
X3563Y4843D02*
X4390D01*
X3524Y4882D02*
Y5748D01*
X3647Y3613D02*
X3954D01*
Y3724D01*
X3647D02*
X3954D01*
X3647Y3675D02*
Y3724D01*
Y3613D02*
Y3662D01*
X3390Y3899D02*
Y3901D01*
Y4079D02*
Y4081D01*
X3690D01*
X3390Y3899D02*
X3690D01*
Y4079D02*
Y4081D01*
Y3899D02*
Y3901D01*
X3599Y3899D02*
Y4081D01*
X4190Y4069D02*
Y4071D01*
Y3889D02*
Y3891D01*
X3890Y3889D02*
X4190D01*
X3890Y4071D02*
X4190D01*
X3890Y3889D02*
Y3891D01*
Y4069D02*
Y4071D01*
X3981Y3889D02*
Y4071D01*
X3635Y4194D02*
Y4246D01*
X3805Y4194D02*
Y4246D01*
X3775Y3460D02*
Y3480D01*
X4695Y7501D02*
X4765D01*
X4695Y7379D02*
X4765D01*
X4695D02*
Y7381D01*
X4765Y7379D02*
Y7381D01*
X4695Y7499D02*
Y7501D01*
X4765Y7499D02*
Y7501D01*
X4584Y6525D02*
Y7155D01*
X4836Y6525D02*
Y7155D01*
X4584D02*
X4836D01*
X4584Y6525D02*
X4685D01*
X4735D02*
X4836D01*
X7744Y7257D02*
X7776D01*
X7394Y7247D02*
X7426D01*
X7219Y7382D02*
Y7579D01*
Y7382D02*
X7809D01*
X7219Y7579D02*
X7809D01*
Y7382D02*
Y7579D01*
X3955Y6510D02*
Y6530D01*
X4665Y7584D02*
Y7636D01*
X4559Y7428D02*
Y7452D01*
X4621Y7428D02*
Y7452D01*
X4559Y7428D02*
X4621D01*
X4559Y7436D02*
X4621D01*
X4845Y7584D02*
Y7636D01*
X5078Y7461D02*
X5102D01*
X5078Y7399D02*
X5102D01*
X5078D02*
Y7461D01*
X5086Y7399D02*
Y7461D01*
X4961Y7288D02*
Y7312D01*
X4899Y7288D02*
Y7312D01*
X4961D01*
X4899Y7304D02*
X4961D01*
X4748Y7299D02*
X4772D01*
X4748Y7201D02*
X4772D01*
X4748D02*
Y7299D01*
X4756Y7201D02*
Y7299D01*
X10348Y7168D02*
Y7392D01*
X10572Y7168D02*
Y7392D01*
X10348D02*
X10572D01*
X10348Y7168D02*
X10572D01*
X2860Y7130D02*
X2960D01*
Y6930D02*
Y7130D01*
X2860Y6930D02*
X2960D01*
X2860D02*
Y7130D01*
X3733Y6014D02*
Y6046D01*
X3754Y6073D02*
X3786D01*
X4046Y6840D02*
X4048D01*
X4046Y7140D02*
X4048D01*
X4292Y6840D02*
X4294D01*
X4292Y7140D02*
X4294D01*
Y6840D02*
Y7140D01*
X4046Y6840D02*
Y7140D01*
Y7049D02*
X4294D01*
X3823Y6604D02*
Y6636D01*
X2801Y6348D02*
Y6372D01*
X2899Y6348D02*
Y6372D01*
X2801Y6348D02*
X2899D01*
X2801Y6356D02*
X2899D01*
X3643Y6604D02*
Y6636D01*
X7574Y7247D02*
X7606D01*
X3148Y4114D02*
Y4886D01*
X2612Y4114D02*
Y4886D01*
Y4114D02*
X3148D01*
X2612Y4886D02*
X3148D01*
X3965Y3460D02*
Y3480D01*
X9427Y7134D02*
Y7166D01*
X9097Y7134D02*
Y7166D01*
X8647Y7134D02*
Y7166D01*
X11541Y6898D02*
Y6900D01*
Y6762D02*
Y6764D01*
X11449Y6762D02*
Y6900D01*
X11293Y6898D02*
Y6900D01*
Y6762D02*
Y6764D01*
Y6762D02*
X11541D01*
X11293Y6900D02*
X11541D01*
X10506D02*
X10754D01*
X10506Y6762D02*
X10754D01*
X10506D02*
Y6764D01*
Y6898D02*
Y6900D01*
X10661Y6762D02*
Y6900D01*
X10754Y6762D02*
Y6764D01*
Y6898D02*
Y6900D01*
X10006Y6898D02*
Y6900D01*
Y6762D02*
Y6764D01*
X9913Y6762D02*
Y6900D01*
X9758Y6898D02*
Y6900D01*
Y6762D02*
Y6764D01*
Y6762D02*
X10006D01*
X9758Y6900D02*
X10006D01*
X9049D02*
X9297D01*
X9049Y6762D02*
X9297D01*
X9049D02*
Y6764D01*
Y6898D02*
Y6900D01*
X9205Y6762D02*
Y6900D01*
X9297Y6762D02*
Y6764D01*
Y6898D02*
Y6900D01*
X8549Y6898D02*
Y6900D01*
Y6762D02*
Y6764D01*
X8457Y6762D02*
Y6900D01*
X8301Y6898D02*
Y6900D01*
Y6762D02*
Y6764D01*
Y6762D02*
X8549D01*
X8301Y6900D02*
X8549D01*
X7553D02*
X7801D01*
X7553Y6762D02*
X7801D01*
X7553D02*
Y6764D01*
Y6898D02*
Y6900D01*
X7709Y6762D02*
Y6900D01*
X7801Y6762D02*
Y6764D01*
Y6898D02*
Y6900D01*
X7033Y6898D02*
Y6900D01*
Y6762D02*
Y6764D01*
X6941Y6762D02*
Y6900D01*
X6785Y6898D02*
Y6900D01*
Y6762D02*
Y6764D01*
Y6762D02*
X7033D01*
X6785Y6900D02*
X7033D01*
X6045D02*
X6293D01*
X6045Y6762D02*
X6293D01*
X6045D02*
Y6764D01*
Y6898D02*
Y6900D01*
X6201Y6762D02*
Y6900D01*
X6293Y6762D02*
Y6764D01*
Y6898D02*
Y6900D01*
X5545Y6898D02*
Y6900D01*
Y6762D02*
Y6764D01*
X5453Y6762D02*
Y6900D01*
X5297Y6898D02*
Y6900D01*
Y6762D02*
Y6764D01*
Y6762D02*
X5545D01*
X5297Y6900D02*
X5545D01*
X16530D02*
X16778D01*
X16530Y6762D02*
X16778D01*
X16530D02*
Y6764D01*
Y6898D02*
Y6900D01*
X16685Y6762D02*
Y6900D01*
X16778Y6762D02*
Y6764D01*
Y6898D02*
Y6900D01*
X16030Y6898D02*
Y6900D01*
Y6762D02*
Y6764D01*
X15937Y6762D02*
Y6900D01*
X15781Y6898D02*
Y6900D01*
Y6762D02*
Y6764D01*
Y6762D02*
X16030D01*
X15781Y6900D02*
X16030D01*
X15033D02*
X15281D01*
X15033Y6762D02*
X15281D01*
X15033D02*
Y6764D01*
Y6898D02*
Y6900D01*
X15189Y6762D02*
Y6900D01*
X15281Y6762D02*
Y6764D01*
Y6898D02*
Y6900D01*
X14533Y6898D02*
Y6900D01*
Y6762D02*
Y6764D01*
X14441Y6762D02*
Y6900D01*
X14285Y6898D02*
Y6900D01*
Y6762D02*
Y6764D01*
Y6762D02*
X14533D01*
X14285Y6900D02*
X14533D01*
X13537D02*
X13785D01*
X13537Y6762D02*
X13785D01*
X13537D02*
Y6764D01*
Y6898D02*
Y6900D01*
X13693Y6762D02*
Y6900D01*
X13785Y6762D02*
Y6764D01*
Y6898D02*
Y6900D01*
X13018Y6898D02*
Y6900D01*
Y6762D02*
Y6764D01*
X12925Y6762D02*
Y6900D01*
X12770Y6898D02*
Y6900D01*
Y6762D02*
Y6764D01*
Y6762D02*
X13018D01*
X12770Y6900D02*
X13018D01*
X12041D02*
X12289D01*
X12041Y6762D02*
X12289D01*
X12041D02*
Y6764D01*
Y6898D02*
Y6900D01*
X12197Y6762D02*
Y6900D01*
X12289Y6762D02*
Y6764D01*
Y6898D02*
Y6900D01*
X2579Y5164D02*
Y5166D01*
Y5299D02*
Y5301D01*
X2672Y5164D02*
Y5301D01*
X2827Y5164D02*
Y5166D01*
Y5299D02*
Y5301D01*
X2579D02*
X2827D01*
X2579Y5164D02*
X2827D01*
X17097Y6726D02*
X17099D01*
X16961D02*
X16963D01*
X16961Y6819D02*
X17099D01*
X17097Y6974D02*
X17099D01*
X16961D02*
X16963D01*
X16961Y6726D02*
Y6974D01*
X17099Y6726D02*
Y6974D01*
X17066Y4159D02*
X17314D01*
X17066Y4021D02*
X17314D01*
X17066D02*
Y4023D01*
Y4157D02*
Y4159D01*
X17221Y4021D02*
Y4159D01*
X17314Y4021D02*
Y4023D01*
Y4157D02*
Y4159D01*
X17297Y6736D02*
X17299D01*
X17161D02*
X17163D01*
X17161Y6829D02*
X17299D01*
X17297Y6984D02*
X17299D01*
X17161D02*
X17163D01*
X17161Y6736D02*
Y6984D01*
X17299Y6736D02*
Y6984D01*
X6839Y3286D02*
Y3534D01*
X6701Y3286D02*
Y3534D01*
X6703D01*
X6837D02*
X6839D01*
X6701Y3379D02*
X6839D01*
X6701Y3286D02*
X6703D01*
X6837D02*
X6839D01*
X4247Y3496D02*
X4249D01*
X4111D02*
X4113D01*
X4111Y3589D02*
X4249D01*
X4247Y3744D02*
X4249D01*
X4111D02*
X4113D01*
X4111Y3496D02*
Y3744D01*
X4249Y3496D02*
Y3744D01*
X6326Y3889D02*
X6574D01*
X6326Y3751D02*
X6574D01*
X6326D02*
Y3753D01*
Y3887D02*
Y3889D01*
X6481Y3751D02*
Y3889D01*
X6574Y3751D02*
Y3753D01*
Y3887D02*
Y3889D01*
X13706Y3311D02*
Y3313D01*
Y3447D02*
Y3449D01*
X13799Y3311D02*
Y3449D01*
X13954Y3311D02*
Y3313D01*
Y3447D02*
Y3449D01*
X13706D02*
X13954D01*
X13706Y3311D02*
X13954D01*
X11656Y3919D02*
X11904D01*
X11656Y3781D02*
X11904D01*
X11656D02*
Y3783D01*
Y3917D02*
Y3919D01*
X11811Y3781D02*
Y3919D01*
X11904Y3781D02*
Y3783D01*
Y3917D02*
Y3919D01*
X11914Y3697D02*
Y3699D01*
Y3561D02*
Y3563D01*
X11821Y3561D02*
Y3699D01*
X11666Y3697D02*
Y3699D01*
Y3561D02*
Y3563D01*
Y3561D02*
X11914D01*
X11666Y3699D02*
X11914D01*
X3006Y3751D02*
Y3753D01*
Y3887D02*
Y3889D01*
X3099Y3751D02*
Y3889D01*
X3254Y3751D02*
Y3753D01*
Y3887D02*
Y3889D01*
X3006D02*
X3254D01*
X3006Y3751D02*
X3254D01*
X3619Y4386D02*
Y4634D01*
X3481Y4386D02*
Y4634D01*
X3483D01*
X3617D02*
X3619D01*
X3481Y4479D02*
X3619D01*
X3481Y4386D02*
X3483D01*
X3617D02*
X3619D01*
X3337Y5556D02*
X3339D01*
X3201D02*
X3203D01*
X3201Y5649D02*
X3339D01*
X3337Y5804D02*
X3339D01*
X3201D02*
X3203D01*
X3201Y5556D02*
Y5804D01*
X3339Y5556D02*
Y5804D01*
X4689Y4746D02*
Y4994D01*
X4551Y4746D02*
Y4994D01*
X4553D01*
X4687D02*
X4689D01*
X4551Y4839D02*
X4689D01*
X4551Y4746D02*
X4553D01*
X4687D02*
X4689D01*
X4687Y5746D02*
X4689D01*
X4551D02*
X4553D01*
X4551Y5839D02*
X4689D01*
X4687Y5994D02*
X4689D01*
X4551D02*
X4553D01*
X4551Y5746D02*
Y5994D01*
X4689Y5746D02*
Y5994D01*
X11164Y3997D02*
X11196D01*
X11263Y3144D02*
Y3176D01*
X10633Y3744D02*
Y3776D01*
D67*
X3843Y6697D02*
G03*
X3830Y6697I-6J0D01*
G01*
X3843Y6697D02*
X3871D01*
X3802D02*
X3830D01*
X3802D02*
Y6800D01*
X3871D01*
Y6697D02*
Y6800D01*
D68*
X3665Y3665D02*
Y3675D01*
X3650Y6405D02*
Y6465D01*
Y6315D02*
Y6380D01*
Y6400D02*
Y6405D01*
Y6400D02*
X3660Y6395D01*
Y6385D02*
Y6395D01*
X3650Y6380D02*
X3660Y6385D01*
X3650Y6465D02*
X3930D01*
Y6315D02*
Y6465D01*
X3650Y6315D02*
X3930D01*
X11569Y3253D02*
X11599D01*
Y3239D01*
X11594Y3234D01*
X11584D01*
X11579Y3239D01*
Y3253D01*
Y3244D02*
X11569Y3234D01*
Y3224D02*
Y3214D01*
Y3219D01*
X11599D01*
X11594Y3224D01*
X11599Y3179D02*
Y3199D01*
X11584D01*
X11589Y3189D01*
Y3184D01*
X11584Y3179D01*
X11574D01*
X11569Y3184D01*
Y3194D01*
X11574Y3199D01*
X3602Y3622D02*
X3627D01*
X3632Y3627D01*
Y3637D01*
X3627Y3642D01*
X3602D01*
Y3652D02*
Y3672D01*
X3607D01*
X3627Y3652D01*
X3632D01*
X3799Y4262D02*
Y4292D01*
X3814D01*
X3819Y4287D01*
Y4277D01*
X3814Y4272D01*
X3799D01*
X3809D02*
X3819Y4262D01*
X3829Y4287D02*
X3834Y4292D01*
X3844D01*
X3849Y4287D01*
Y4282D01*
X3844Y4277D01*
X3849Y4272D01*
Y4267D01*
X3844Y4262D01*
X3834D01*
X3829Y4267D01*
Y4272D01*
X3834Y4277D01*
X3829Y4282D01*
Y4287D01*
X3834Y4277D02*
X3844D01*
X3632Y4262D02*
Y4292D01*
X3647D01*
X3652Y4287D01*
Y4277D01*
X3647Y4272D01*
X3632D01*
X3642D02*
X3652Y4262D01*
X3662Y4292D02*
X3682D01*
Y4287D01*
X3662Y4267D01*
Y4262D01*
X3701Y3519D02*
X3696Y3524D01*
X3686D01*
X3681Y3519D01*
Y3499D01*
X3686Y3494D01*
X3696D01*
X3701Y3499D01*
X3711Y3519D02*
X3716Y3524D01*
X3726D01*
X3731Y3519D01*
Y3514D01*
X3726Y3509D01*
X3731Y3504D01*
Y3499D01*
X3726Y3494D01*
X3716D01*
X3711Y3499D01*
Y3504D01*
X3716Y3509D01*
X3711Y3514D01*
Y3519D01*
X3716Y3509D02*
X3726D01*
X3761Y3524D02*
X3751Y3519D01*
X3741Y3509D01*
Y3499D01*
X3746Y3494D01*
X3756D01*
X3761Y3499D01*
Y3504D01*
X3756Y3509D01*
X3741D01*
X3908Y4119D02*
X3903Y4124D01*
X3893D01*
X3888Y4119D01*
Y4099D01*
X3893Y4094D01*
X3903D01*
X3908Y4099D01*
X3918Y4119D02*
X3923Y4124D01*
X3933D01*
X3938Y4119D01*
Y4114D01*
X3933Y4109D01*
X3938Y4104D01*
Y4099D01*
X3933Y4094D01*
X3923D01*
X3918Y4099D01*
Y4104D01*
X3923Y4109D01*
X3918Y4114D01*
Y4119D01*
X3923Y4109D02*
X3933D01*
X3968Y4124D02*
X3948D01*
Y4109D01*
X3958Y4114D01*
X3963D01*
X3968Y4109D01*
Y4099D01*
X3963Y4094D01*
X3953D01*
X3948Y4099D01*
X3888Y3519D02*
X3883Y3524D01*
X3873D01*
X3868Y3519D01*
Y3499D01*
X3873Y3494D01*
X3883D01*
X3888Y3499D01*
X3898Y3519D02*
X3903Y3524D01*
X3913D01*
X3918Y3519D01*
Y3514D01*
X3913Y3509D01*
X3918Y3504D01*
Y3499D01*
X3913Y3494D01*
X3903D01*
X3898Y3499D01*
Y3504D01*
X3903Y3509D01*
X3898Y3514D01*
Y3519D01*
X3903Y3509D02*
X3913D01*
X3943Y3494D02*
Y3524D01*
X3928Y3509D01*
X3948D01*
X3416Y4119D02*
X3411Y4124D01*
X3401D01*
X3396Y4119D01*
Y4099D01*
X3401Y4094D01*
X3411D01*
X3416Y4099D01*
X3426Y4119D02*
X3431Y4124D01*
X3441D01*
X3446Y4119D01*
Y4114D01*
X3441Y4109D01*
X3446Y4104D01*
Y4099D01*
X3441Y4094D01*
X3431D01*
X3426Y4099D01*
Y4104D01*
X3431Y4109D01*
X3426Y4114D01*
Y4119D01*
X3431Y4109D02*
X3441D01*
X3456Y4119D02*
X3461Y4124D01*
X3471D01*
X3476Y4119D01*
Y4114D01*
X3471Y4109D01*
X3466D01*
X3471D01*
X3476Y4104D01*
Y4099D01*
X3471Y4094D01*
X3461D01*
X3456Y4099D01*
X11285Y6965D02*
X11280Y6970D01*
X11270D01*
X11265Y6965D01*
Y6945D01*
X11270Y6940D01*
X11280D01*
X11285Y6945D01*
X11295Y6970D02*
X11315D01*
Y6965D01*
X11295Y6945D01*
Y6940D01*
X11345D02*
X11325D01*
X11345Y6960D01*
Y6965D01*
X11340Y6970D01*
X11330D01*
X11325Y6965D01*
X10495Y6960D02*
X10490Y6965D01*
X10480D01*
X10475Y6960D01*
Y6940D01*
X10480Y6935D01*
X10490D01*
X10495Y6940D01*
X10505Y6965D02*
X10525D01*
Y6960D01*
X10505Y6940D01*
Y6935D01*
X10535D02*
X10545D01*
X10540D01*
Y6965D01*
X10535Y6960D01*
X9745D02*
X9740Y6965D01*
X9730D01*
X9725Y6960D01*
Y6940D01*
X9730Y6935D01*
X9740D01*
X9745Y6940D01*
X9755Y6965D02*
X9775D01*
Y6960D01*
X9755Y6940D01*
Y6935D01*
X9785Y6960D02*
X9790Y6965D01*
X9800D01*
X9805Y6960D01*
Y6940D01*
X9800Y6935D01*
X9790D01*
X9785Y6940D01*
Y6960D01*
X9040D02*
X9035Y6965D01*
X9025D01*
X9020Y6960D01*
Y6940D01*
X9025Y6935D01*
X9035D01*
X9040Y6940D01*
X9070Y6965D02*
X9060Y6960D01*
X9050Y6950D01*
Y6940D01*
X9055Y6935D01*
X9065D01*
X9070Y6940D01*
Y6945D01*
X9065Y6950D01*
X9050D01*
X9080Y6940D02*
X9085Y6935D01*
X9095D01*
X9100Y6940D01*
Y6960D01*
X9095Y6965D01*
X9085D01*
X9080Y6960D01*
Y6955D01*
X9085Y6950D01*
X9100D01*
X8290Y6960D02*
X8285Y6965D01*
X8275D01*
X8270Y6960D01*
Y6940D01*
X8275Y6935D01*
X8285D01*
X8290Y6940D01*
X8320Y6965D02*
X8310Y6960D01*
X8300Y6950D01*
Y6940D01*
X8305Y6935D01*
X8315D01*
X8320Y6940D01*
Y6945D01*
X8315Y6950D01*
X8300D01*
X8330Y6960D02*
X8335Y6965D01*
X8345D01*
X8350Y6960D01*
Y6955D01*
X8345Y6950D01*
X8350Y6945D01*
Y6940D01*
X8345Y6935D01*
X8335D01*
X8330Y6940D01*
Y6945D01*
X8335Y6950D01*
X8330Y6955D01*
Y6960D01*
X8335Y6950D02*
X8345D01*
X7540Y6960D02*
X7535Y6965D01*
X7525D01*
X7520Y6960D01*
Y6940D01*
X7525Y6935D01*
X7535D01*
X7540Y6940D01*
X7570Y6965D02*
X7560Y6960D01*
X7550Y6950D01*
Y6940D01*
X7555Y6935D01*
X7565D01*
X7570Y6940D01*
Y6945D01*
X7565Y6950D01*
X7550D01*
X7580Y6965D02*
X7600D01*
Y6960D01*
X7580Y6940D01*
Y6935D01*
X6775Y6960D02*
X6770Y6965D01*
X6760D01*
X6755Y6960D01*
Y6940D01*
X6760Y6935D01*
X6770D01*
X6775Y6940D01*
X6805Y6965D02*
X6795Y6960D01*
X6785Y6950D01*
Y6940D01*
X6790Y6935D01*
X6800D01*
X6805Y6940D01*
Y6945D01*
X6800Y6950D01*
X6785D01*
X6835Y6965D02*
X6825Y6960D01*
X6815Y6950D01*
Y6940D01*
X6820Y6935D01*
X6830D01*
X6835Y6940D01*
Y6945D01*
X6830Y6950D01*
X6815D01*
X5933Y6760D02*
X5928Y6755D01*
Y6745D01*
X5933Y6740D01*
X5953D01*
X5958Y6745D01*
Y6755D01*
X5953Y6760D01*
X5928Y6790D02*
X5933Y6780D01*
X5943Y6770D01*
X5953D01*
X5958Y6775D01*
Y6785D01*
X5953Y6790D01*
X5948D01*
X5943Y6785D01*
Y6770D01*
X5928Y6820D02*
Y6800D01*
X5943D01*
X5938Y6810D01*
Y6815D01*
X5943Y6820D01*
X5953D01*
X5958Y6815D01*
Y6805D01*
X5953Y6800D01*
X5185Y6760D02*
X5180Y6755D01*
Y6745D01*
X5185Y6740D01*
X5205D01*
X5210Y6745D01*
Y6755D01*
X5205Y6760D01*
X5180Y6790D02*
X5185Y6780D01*
X5195Y6770D01*
X5205D01*
X5210Y6775D01*
Y6785D01*
X5205Y6790D01*
X5200D01*
X5195Y6785D01*
Y6770D01*
X5210Y6815D02*
X5180D01*
X5195Y6800D01*
Y6820D01*
X16525Y6960D02*
X16520Y6965D01*
X16510D01*
X16505Y6960D01*
Y6940D01*
X16510Y6935D01*
X16520D01*
X16525Y6940D01*
X16555Y6965D02*
X16545Y6960D01*
X16535Y6950D01*
Y6940D01*
X16540Y6935D01*
X16550D01*
X16555Y6940D01*
Y6945D01*
X16550Y6950D01*
X16535D01*
X16565Y6960D02*
X16570Y6965D01*
X16580D01*
X16585Y6960D01*
Y6955D01*
X16580Y6950D01*
X16575D01*
X16580D01*
X16585Y6945D01*
Y6940D01*
X16580Y6935D01*
X16570D01*
X16565Y6940D01*
X15775Y6960D02*
X15770Y6965D01*
X15760D01*
X15755Y6960D01*
Y6940D01*
X15760Y6935D01*
X15770D01*
X15775Y6940D01*
X15805Y6965D02*
X15795Y6960D01*
X15785Y6950D01*
Y6940D01*
X15790Y6935D01*
X15800D01*
X15805Y6940D01*
Y6945D01*
X15800Y6950D01*
X15785D01*
X15835Y6935D02*
X15815D01*
X15835Y6955D01*
Y6960D01*
X15830Y6965D01*
X15820D01*
X15815Y6960D01*
X15025D02*
X15020Y6965D01*
X15010D01*
X15005Y6960D01*
Y6940D01*
X15010Y6935D01*
X15020D01*
X15025Y6940D01*
X15055Y6965D02*
X15045Y6960D01*
X15035Y6950D01*
Y6940D01*
X15040Y6935D01*
X15050D01*
X15055Y6940D01*
Y6945D01*
X15050Y6950D01*
X15035D01*
X15065Y6935D02*
X15075D01*
X15070D01*
Y6965D01*
X15065Y6960D01*
X14275Y6965D02*
X14270Y6970D01*
X14260D01*
X14255Y6965D01*
Y6945D01*
X14260Y6940D01*
X14270D01*
X14275Y6945D01*
X14305Y6970D02*
X14295Y6965D01*
X14285Y6955D01*
Y6945D01*
X14290Y6940D01*
X14300D01*
X14305Y6945D01*
Y6950D01*
X14300Y6955D01*
X14285D01*
X14315Y6965D02*
X14320Y6970D01*
X14330D01*
X14335Y6965D01*
Y6945D01*
X14330Y6940D01*
X14320D01*
X14315Y6945D01*
Y6965D01*
X13525Y6960D02*
X13520Y6965D01*
X13510D01*
X13505Y6960D01*
Y6940D01*
X13510Y6935D01*
X13520D01*
X13525Y6940D01*
X13555Y6965D02*
X13535D01*
Y6950D01*
X13545Y6955D01*
X13550D01*
X13555Y6950D01*
Y6940D01*
X13550Y6935D01*
X13540D01*
X13535Y6940D01*
X13565D02*
X13570Y6935D01*
X13580D01*
X13585Y6940D01*
Y6960D01*
X13580Y6965D01*
X13570D01*
X13565Y6960D01*
Y6955D01*
X13570Y6950D01*
X13585D01*
X12755Y6960D02*
X12750Y6965D01*
X12740D01*
X12735Y6960D01*
Y6940D01*
X12740Y6935D01*
X12750D01*
X12755Y6940D01*
X12785Y6965D02*
X12765D01*
Y6950D01*
X12775Y6955D01*
X12780D01*
X12785Y6950D01*
Y6940D01*
X12780Y6935D01*
X12770D01*
X12765Y6940D01*
X12795Y6960D02*
X12800Y6965D01*
X12810D01*
X12815Y6960D01*
Y6955D01*
X12810Y6950D01*
X12815Y6945D01*
Y6940D01*
X12810Y6935D01*
X12800D01*
X12795Y6940D01*
Y6945D01*
X12800Y6950D01*
X12795Y6955D01*
Y6960D01*
X12800Y6950D02*
X12810D01*
X12030Y6960D02*
X12025Y6965D01*
X12015D01*
X12010Y6960D01*
Y6940D01*
X12015Y6935D01*
X12025D01*
X12030Y6940D01*
X12060Y6965D02*
X12040D01*
Y6950D01*
X12050Y6955D01*
X12055D01*
X12060Y6950D01*
Y6940D01*
X12055Y6935D01*
X12045D01*
X12040Y6940D01*
X12070Y6965D02*
X12090D01*
Y6960D01*
X12070Y6940D01*
Y6935D01*
X4921Y7170D02*
X4926Y7165D01*
X4936D01*
X4941Y7170D01*
Y7190D01*
X4936Y7195D01*
X4926D01*
X4921Y7190D01*
X4911Y7195D02*
X4901D01*
X4906D01*
Y7165D01*
X4911Y7170D01*
X5212Y7441D02*
X5217Y7446D01*
Y7456D01*
X5212Y7461D01*
X5192D01*
X5187Y7456D01*
Y7446D01*
X5192Y7441D01*
X5187Y7411D02*
Y7431D01*
X5207Y7411D01*
X5212D01*
X5217Y7416D01*
Y7426D01*
X5212Y7431D01*
X4577Y7564D02*
X4572Y7569D01*
X4562D01*
X4557Y7564D01*
Y7544D01*
X4562Y7539D01*
X4572D01*
X4577Y7544D01*
X4587Y7564D02*
X4592Y7569D01*
X4602D01*
X4607Y7564D01*
Y7559D01*
X4602Y7554D01*
X4597D01*
X4602D01*
X4607Y7549D01*
Y7544D01*
X4602Y7539D01*
X4592D01*
X4587Y7544D01*
X3662Y6679D02*
X3657Y6684D01*
X3647D01*
X3642Y6679D01*
Y6659D01*
X3647Y6654D01*
X3657D01*
X3662Y6659D01*
X3672Y6654D02*
X3682D01*
X3677D01*
Y6684D01*
X3672Y6679D01*
X3717Y6684D02*
X3697D01*
Y6669D01*
X3707Y6674D01*
X3712D01*
X3717Y6669D01*
Y6659D01*
X3712Y6654D01*
X3702D01*
X3697Y6659D01*
X3561Y6588D02*
X3566Y6593D01*
Y6603D01*
X3561Y6608D01*
X3541D01*
X3536Y6603D01*
Y6593D01*
X3541Y6588D01*
X3536Y6578D02*
Y6568D01*
Y6573D01*
X3566D01*
X3561Y6578D01*
X3566Y6533D02*
X3561Y6543D01*
X3551Y6553D01*
X3541D01*
X3536Y6548D01*
Y6538D01*
X3541Y6533D01*
X3546D01*
X3551Y6538D01*
Y6553D01*
X2738Y6299D02*
X2733Y6294D01*
Y6284D01*
X2738Y6280D01*
X2758D01*
X2763Y6284D01*
Y6294D01*
X2758Y6299D01*
X2763Y6309D02*
Y6319D01*
Y6314D01*
X2733D01*
X2738Y6309D01*
X2733Y6334D02*
Y6354D01*
X2738D01*
X2758Y6334D01*
X2763D01*
X4004Y6614D02*
X4009Y6619D01*
Y6629D01*
X4004Y6634D01*
X3984D01*
X3980Y6629D01*
Y6619D01*
X3984Y6614D01*
X3980Y6604D02*
Y6594D01*
Y6599D01*
X4009D01*
X4004Y6604D01*
Y6579D02*
X4009Y6574D01*
Y6564D01*
X4004Y6559D01*
X3999D01*
X3994Y6564D01*
X3989Y6559D01*
X3984D01*
X3980Y6564D01*
Y6574D01*
X3984Y6579D01*
X3989D01*
X3994Y6574D01*
X3999Y6579D01*
X4004D01*
X3994Y6574D02*
Y6564D01*
X4366Y6998D02*
X4371Y7003D01*
Y7013D01*
X4366Y7018D01*
X4346D01*
X4341Y7013D01*
Y7003D01*
X4346Y6998D01*
X4341Y6988D02*
Y6978D01*
Y6983D01*
X4371D01*
X4366Y6988D01*
X4346Y6963D02*
X4341Y6958D01*
Y6948D01*
X4346Y6943D01*
X4366D01*
X4371Y6948D01*
Y6958D01*
X4366Y6963D01*
X4361D01*
X4356Y6958D01*
Y6943D01*
X3914Y6024D02*
X3919Y6029D01*
Y6039D01*
X3914Y6043D01*
X3894D01*
X3889Y6039D01*
Y6029D01*
X3894Y6024D01*
X3889Y5994D02*
Y6014D01*
X3909Y5994D01*
X3914D01*
X3919Y5999D01*
Y6009D01*
X3914Y6014D01*
Y5984D02*
X3919Y5979D01*
Y5969D01*
X3914Y5964D01*
X3894D01*
X3889Y5969D01*
Y5979D01*
X3894Y5984D01*
X3914D01*
X3987Y6581D02*
X3982Y6586D01*
X3972D01*
X3967Y6581D01*
Y6561D01*
X3972Y6556D01*
X3982D01*
X3987Y6561D01*
X4012Y6556D02*
Y6586D01*
X3997Y6571D01*
X4017D01*
X4047Y6586D02*
X4037Y6581D01*
X4027Y6571D01*
Y6561D01*
X4032Y6556D01*
X4042D01*
X4047Y6561D01*
Y6566D01*
X4042Y6571D01*
X4027D01*
X5165Y6374D02*
X5160Y6369D01*
Y6359D01*
X5165Y6354D01*
X5185D01*
X5190Y6359D01*
Y6369D01*
X5185Y6374D01*
X5160Y6399D02*
Y6389D01*
X5165Y6384D01*
X5185D01*
X5190Y6389D01*
Y6399D01*
X5185Y6404D01*
X5165D01*
X5160Y6399D01*
X5190Y6414D02*
X5160D01*
X5190Y6434D01*
X5160D01*
X5190Y6444D02*
X5160D01*
X5190Y6464D01*
X5160D01*
X5190Y6474D02*
Y6484D01*
Y6479D01*
X5160D01*
X5165Y6474D01*
X5920Y6364D02*
X5915Y6359D01*
Y6349D01*
X5920Y6344D01*
X5940D01*
X5945Y6349D01*
Y6359D01*
X5940Y6364D01*
X5915Y6389D02*
Y6379D01*
X5920Y6374D01*
X5940D01*
X5945Y6379D01*
Y6389D01*
X5940Y6394D01*
X5920D01*
X5915Y6389D01*
X5945Y6404D02*
X5915D01*
X5945Y6424D01*
X5915D01*
X5945Y6434D02*
X5915D01*
X5945Y6454D01*
X5915D01*
X5945Y6484D02*
Y6464D01*
X5925Y6484D01*
X5920D01*
X5915Y6479D01*
Y6469D01*
X5920Y6464D01*
X6670Y6364D02*
X6665Y6359D01*
Y6349D01*
X6670Y6344D01*
X6690D01*
X6695Y6349D01*
Y6359D01*
X6690Y6364D01*
X6665Y6389D02*
Y6379D01*
X6670Y6374D01*
X6690D01*
X6695Y6379D01*
Y6389D01*
X6690Y6394D01*
X6670D01*
X6665Y6389D01*
X6695Y6404D02*
X6665D01*
X6695Y6424D01*
X6665D01*
X6695Y6434D02*
X6665D01*
X6695Y6454D01*
X6665D01*
X6670Y6464D02*
X6665Y6469D01*
Y6479D01*
X6670Y6484D01*
X6675D01*
X6680Y6479D01*
Y6474D01*
Y6479D01*
X6685Y6484D01*
X6690D01*
X6695Y6479D01*
Y6469D01*
X6690Y6464D01*
X7420Y6364D02*
X7415Y6359D01*
Y6349D01*
X7420Y6344D01*
X7440D01*
X7445Y6349D01*
Y6359D01*
X7440Y6364D01*
X7415Y6389D02*
Y6379D01*
X7420Y6374D01*
X7440D01*
X7445Y6379D01*
Y6389D01*
X7440Y6394D01*
X7420D01*
X7415Y6389D01*
X7445Y6404D02*
X7415D01*
X7445Y6424D01*
X7415D01*
X7445Y6434D02*
X7415D01*
X7445Y6454D01*
X7415D01*
X7445Y6479D02*
X7415D01*
X7430Y6464D01*
Y6484D01*
X8170Y6364D02*
X8165Y6359D01*
Y6349D01*
X8170Y6344D01*
X8190D01*
X8195Y6349D01*
Y6359D01*
X8190Y6364D01*
X8165Y6389D02*
Y6379D01*
X8170Y6374D01*
X8190D01*
X8195Y6379D01*
Y6389D01*
X8190Y6394D01*
X8170D01*
X8165Y6389D01*
X8195Y6404D02*
X8165D01*
X8195Y6424D01*
X8165D01*
X8195Y6434D02*
X8165D01*
X8195Y6454D01*
X8165D01*
Y6484D02*
Y6464D01*
X8180D01*
X8175Y6474D01*
Y6479D01*
X8180Y6484D01*
X8190D01*
X8195Y6479D01*
Y6469D01*
X8190Y6464D01*
X8920Y6364D02*
X8915Y6359D01*
Y6349D01*
X8920Y6344D01*
X8940D01*
X8945Y6349D01*
Y6359D01*
X8940Y6364D01*
X8915Y6389D02*
Y6379D01*
X8920Y6374D01*
X8940D01*
X8945Y6379D01*
Y6389D01*
X8940Y6394D01*
X8920D01*
X8915Y6389D01*
X8945Y6404D02*
X8915D01*
X8945Y6424D01*
X8915D01*
X8945Y6434D02*
X8915D01*
X8945Y6454D01*
X8915D01*
Y6484D02*
X8920Y6474D01*
X8930Y6464D01*
X8940D01*
X8945Y6469D01*
Y6479D01*
X8940Y6484D01*
X8935D01*
X8930Y6479D01*
Y6464D01*
X9670Y6364D02*
X9665Y6359D01*
Y6349D01*
X9670Y6344D01*
X9690D01*
X9695Y6349D01*
Y6359D01*
X9690Y6364D01*
X9665Y6389D02*
Y6379D01*
X9670Y6374D01*
X9690D01*
X9695Y6379D01*
Y6389D01*
X9690Y6394D01*
X9670D01*
X9665Y6389D01*
X9695Y6404D02*
X9665D01*
X9695Y6424D01*
X9665D01*
X9695Y6434D02*
X9665D01*
X9695Y6454D01*
X9665D01*
Y6464D02*
Y6484D01*
X9670D01*
X9690Y6464D01*
X9695D01*
X10420Y6364D02*
X10415Y6359D01*
Y6349D01*
X10420Y6344D01*
X10440D01*
X10445Y6349D01*
Y6359D01*
X10440Y6364D01*
X10415Y6389D02*
Y6379D01*
X10420Y6374D01*
X10440D01*
X10445Y6379D01*
Y6389D01*
X10440Y6394D01*
X10420D01*
X10415Y6389D01*
X10445Y6404D02*
X10415D01*
X10445Y6424D01*
X10415D01*
X10445Y6434D02*
X10415D01*
X10445Y6454D01*
X10415D01*
X10420Y6464D02*
X10415Y6469D01*
Y6479D01*
X10420Y6484D01*
X10425D01*
X10430Y6479D01*
X10435Y6484D01*
X10440D01*
X10445Y6479D01*
Y6469D01*
X10440Y6464D01*
X10435D01*
X10430Y6469D01*
X10425Y6464D01*
X10420D01*
X10430Y6469D02*
Y6479D01*
X11170Y6364D02*
X11165Y6359D01*
Y6349D01*
X11170Y6344D01*
X11190D01*
X11195Y6349D01*
Y6359D01*
X11190Y6364D01*
X11165Y6389D02*
Y6379D01*
X11170Y6374D01*
X11190D01*
X11195Y6379D01*
Y6389D01*
X11190Y6394D01*
X11170D01*
X11165Y6389D01*
X11195Y6404D02*
X11165D01*
X11195Y6424D01*
X11165D01*
X11195Y6434D02*
X11165D01*
X11195Y6454D01*
X11165D01*
X11190Y6464D02*
X11195Y6469D01*
Y6479D01*
X11190Y6484D01*
X11170D01*
X11165Y6479D01*
Y6469D01*
X11170Y6464D01*
X11175D01*
X11180Y6469D01*
Y6484D01*
X11920Y6339D02*
X11915Y6334D01*
Y6324D01*
X11920Y6319D01*
X11940D01*
X11945Y6324D01*
Y6334D01*
X11940Y6339D01*
X11915Y6364D02*
Y6354D01*
X11920Y6349D01*
X11940D01*
X11945Y6354D01*
Y6364D01*
X11940Y6369D01*
X11920D01*
X11915Y6364D01*
X11945Y6379D02*
X11915D01*
X11945Y6399D01*
X11915D01*
X11945Y6409D02*
X11915D01*
X11945Y6429D01*
X11915D01*
X11945Y6439D02*
Y6449D01*
Y6444D01*
X11915D01*
X11920Y6439D01*
Y6464D02*
X11915Y6469D01*
Y6479D01*
X11920Y6484D01*
X11940D01*
X11945Y6479D01*
Y6469D01*
X11940Y6464D01*
X11920D01*
X12665Y6349D02*
X12660Y6344D01*
Y6334D01*
X12665Y6329D01*
X12685D01*
X12690Y6334D01*
Y6344D01*
X12685Y6349D01*
X12660Y6374D02*
Y6364D01*
X12665Y6359D01*
X12685D01*
X12690Y6364D01*
Y6374D01*
X12685Y6379D01*
X12665D01*
X12660Y6374D01*
X12690Y6389D02*
X12660D01*
X12690Y6409D01*
X12660D01*
X12690Y6419D02*
X12660D01*
X12690Y6439D01*
X12660D01*
X12690Y6449D02*
Y6459D01*
Y6454D01*
X12660D01*
X12665Y6449D01*
X12690Y6474D02*
Y6484D01*
Y6479D01*
X12660D01*
X12665Y6474D01*
X13420Y6339D02*
X13415Y6334D01*
Y6324D01*
X13420Y6319D01*
X13440D01*
X13445Y6324D01*
Y6334D01*
X13440Y6339D01*
X13415Y6364D02*
Y6354D01*
X13420Y6349D01*
X13440D01*
X13445Y6354D01*
Y6364D01*
X13440Y6369D01*
X13420D01*
X13415Y6364D01*
X13445Y6379D02*
X13415D01*
X13445Y6399D01*
X13415D01*
X13445Y6409D02*
X13415D01*
X13445Y6429D01*
X13415D01*
X13445Y6439D02*
Y6449D01*
Y6444D01*
X13415D01*
X13420Y6439D01*
X13445Y6484D02*
Y6464D01*
X13425Y6484D01*
X13420D01*
X13415Y6479D01*
Y6469D01*
X13420Y6464D01*
X14165Y6339D02*
X14160Y6334D01*
Y6324D01*
X14165Y6319D01*
X14185D01*
X14190Y6324D01*
Y6334D01*
X14185Y6339D01*
X14160Y6364D02*
Y6354D01*
X14165Y6349D01*
X14185D01*
X14190Y6354D01*
Y6364D01*
X14185Y6369D01*
X14165D01*
X14160Y6364D01*
X14190Y6379D02*
X14160D01*
X14190Y6399D01*
X14160D01*
X14190Y6409D02*
X14160D01*
X14190Y6429D01*
X14160D01*
X14190Y6439D02*
Y6449D01*
Y6444D01*
X14160D01*
X14165Y6439D01*
Y6464D02*
X14160Y6469D01*
Y6479D01*
X14165Y6484D01*
X14170D01*
X14175Y6479D01*
Y6474D01*
Y6479D01*
X14180Y6484D01*
X14185D01*
X14190Y6479D01*
Y6469D01*
X14185Y6464D01*
X14920Y6339D02*
X14915Y6334D01*
Y6324D01*
X14920Y6319D01*
X14940D01*
X14945Y6324D01*
Y6334D01*
X14940Y6339D01*
X14915Y6364D02*
Y6354D01*
X14920Y6349D01*
X14940D01*
X14945Y6354D01*
Y6364D01*
X14940Y6369D01*
X14920D01*
X14915Y6364D01*
X14945Y6379D02*
X14915D01*
X14945Y6399D01*
X14915D01*
X14945Y6409D02*
X14915D01*
X14945Y6429D01*
X14915D01*
X14945Y6439D02*
Y6449D01*
Y6444D01*
X14915D01*
X14920Y6439D01*
X14945Y6479D02*
X14915D01*
X14930Y6464D01*
Y6484D01*
X15665Y6339D02*
X15660Y6334D01*
Y6324D01*
X15665Y6319D01*
X15685D01*
X15690Y6324D01*
Y6334D01*
X15685Y6339D01*
X15660Y6364D02*
Y6354D01*
X15665Y6349D01*
X15685D01*
X15690Y6354D01*
Y6364D01*
X15685Y6369D01*
X15665D01*
X15660Y6364D01*
X15690Y6379D02*
X15660D01*
X15690Y6399D01*
X15660D01*
X15690Y6409D02*
X15660D01*
X15690Y6429D01*
X15660D01*
X15690Y6439D02*
Y6449D01*
Y6444D01*
X15660D01*
X15665Y6439D01*
X15660Y6484D02*
Y6464D01*
X15675D01*
X15670Y6474D01*
Y6479D01*
X15675Y6484D01*
X15685D01*
X15690Y6479D01*
Y6469D01*
X15685Y6464D01*
X16415Y6339D02*
X16410Y6334D01*
Y6324D01*
X16415Y6319D01*
X16435D01*
X16440Y6324D01*
Y6334D01*
X16435Y6339D01*
X16410Y6364D02*
Y6354D01*
X16415Y6349D01*
X16435D01*
X16440Y6354D01*
Y6364D01*
X16435Y6369D01*
X16415D01*
X16410Y6364D01*
X16440Y6379D02*
X16410D01*
X16440Y6399D01*
X16410D01*
X16440Y6409D02*
X16410D01*
X16440Y6429D01*
X16410D01*
X16440Y6439D02*
Y6449D01*
Y6444D01*
X16410D01*
X16415Y6439D01*
X16410Y6484D02*
X16415Y6474D01*
X16425Y6464D01*
X16435D01*
X16440Y6469D01*
Y6479D01*
X16435Y6484D01*
X16430D01*
X16425Y6479D01*
Y6464D01*
X6565Y3554D02*
X6570Y3559D01*
Y3569D01*
X6565Y3574D01*
X6545D01*
X6540Y3569D01*
Y3559D01*
X6545Y3554D01*
X6570Y3529D02*
Y3539D01*
X6565Y3544D01*
X6545D01*
X6540Y3539D01*
Y3529D01*
X6545Y3524D01*
X6565D01*
X6570Y3529D01*
X6540Y3514D02*
X6570D01*
X6540Y3494D01*
X6570D01*
X6540Y3484D02*
X6570D01*
X6540Y3464D01*
X6570D01*
X6540Y3454D02*
Y3444D01*
Y3449D01*
X6570D01*
X6565Y3454D01*
Y3429D02*
X6570Y3424D01*
Y3414D01*
X6565Y3409D01*
X6560D01*
X6555Y3414D01*
X6550Y3409D01*
X6545D01*
X6540Y3414D01*
Y3424D01*
X6545Y3429D01*
X6550D01*
X6555Y3424D01*
X6560Y3429D01*
X6565D01*
X6555Y3424D02*
Y3414D01*
X4936Y7508D02*
X4965D01*
Y7522D01*
X4961Y7527D01*
X4941D01*
X4936Y7522D01*
Y7508D01*
X4965Y7537D02*
Y7547D01*
Y7542D01*
X4936D01*
X4941Y7537D01*
X5254Y7332D02*
X5225D01*
Y7318D01*
X5229Y7313D01*
X5249D01*
X5254Y7318D01*
Y7332D01*
X5225Y7283D02*
Y7303D01*
X5244Y7283D01*
X5249D01*
X5254Y7288D01*
Y7298D01*
X5249Y7303D01*
X5384Y7352D02*
X5394D01*
X5389D01*
Y7377D01*
X5394Y7382D01*
X5399D01*
X5404Y7377D01*
X5374Y7382D02*
Y7352D01*
X5359D01*
X5354Y7357D01*
Y7367D01*
X5359Y7372D01*
X5374D01*
X5344Y7382D02*
X5334D01*
X5339D01*
Y7352D01*
X5344Y7357D01*
X6309Y7287D02*
Y7277D01*
Y7282D01*
X6334D01*
X6339Y7277D01*
Y7272D01*
X6334Y7267D01*
X6339Y7297D02*
X6309D01*
Y7312D01*
X6314Y7317D01*
X6324D01*
X6329Y7312D01*
Y7297D01*
X6314Y7327D02*
X6309Y7332D01*
Y7342D01*
X6314Y7347D01*
X6319D01*
X6324Y7342D01*
Y7337D01*
Y7342D01*
X6329Y7347D01*
X6334D01*
X6339Y7342D01*
Y7332D01*
X6334Y7327D01*
X2652Y5756D02*
X2662D01*
X2657D01*
Y5781D01*
X2662Y5786D01*
X2667D01*
X2671Y5781D01*
X2642Y5786D02*
Y5756D01*
X2627D01*
X2622Y5761D01*
Y5771D01*
X2627Y5776D01*
X2642D01*
X2597Y5786D02*
Y5756D01*
X2612Y5771D01*
X2592D01*
X2886Y7193D02*
X2876D01*
X2881D01*
Y7168D01*
X2876Y7163D01*
X2871D01*
X2866Y7168D01*
X2896Y7163D02*
Y7193D01*
X2911D01*
X2916Y7188D01*
Y7178D01*
X2911Y7173D01*
X2896D01*
X2946Y7193D02*
X2926D01*
Y7178D01*
X2936Y7183D01*
X2941D01*
X2946Y7178D01*
Y7168D01*
X2941Y7163D01*
X2931D01*
X2926Y7168D01*
X7155Y7408D02*
Y7398D01*
Y7403D01*
X7180D01*
X7185Y7398D01*
Y7393D01*
X7180Y7389D01*
X7185Y7418D02*
X7155D01*
Y7433D01*
X7160Y7438D01*
X7170D01*
X7175Y7433D01*
Y7418D01*
X7155Y7468D02*
X7160Y7458D01*
X7170Y7448D01*
X7180D01*
X7185Y7453D01*
Y7463D01*
X7180Y7468D01*
X7175D01*
X7170Y7463D01*
Y7448D01*
X4626Y7205D02*
X4656D01*
Y7225D01*
Y7235D02*
Y7245D01*
Y7240D01*
X4626D01*
X4631Y7235D01*
X3226Y7394D02*
Y7364D01*
X3246D01*
X3276D02*
X3256D01*
X3276Y7384D01*
Y7389D01*
X3271Y7394D01*
X3261D01*
X3256Y7389D01*
X9721Y7571D02*
X9711D01*
X9707Y7566D01*
Y7546D01*
X9711Y7542D01*
X9721D01*
X9726Y7546D01*
Y7566D01*
X9721Y7571D01*
X9736Y7542D02*
X9746D01*
X9741D01*
Y7571D01*
X9736Y7566D01*
X3829Y6816D02*
Y6836D01*
X3824Y6841D01*
X3814D01*
X3809Y6836D01*
Y6816D01*
X3814Y6811D01*
X3824D01*
X3819Y6821D02*
X3829Y6811D01*
X3824D02*
X3829Y6816D01*
X3839Y6811D02*
X3849D01*
X3844D01*
Y6841D01*
X3839Y6836D01*
X5000Y7638D02*
X5030D01*
Y7623D01*
X5025Y7618D01*
X5015D01*
X5010Y7623D01*
Y7638D01*
Y7628D02*
X5000Y7618D01*
Y7608D02*
Y7598D01*
Y7603D01*
X5030D01*
X5025Y7608D01*
X4656Y7589D02*
X4626D01*
Y7604D01*
X4631Y7609D01*
X4641D01*
X4646Y7604D01*
Y7589D01*
Y7599D02*
X4656Y7609D01*
Y7639D02*
Y7619D01*
X4636Y7639D01*
X4631D01*
X4626Y7634D01*
Y7624D01*
X4631Y7619D01*
X3717Y6080D02*
X3687D01*
Y6094D01*
X3692Y6099D01*
X3702D01*
X3707Y6094D01*
Y6080D01*
Y6089D02*
X3717Y6099D01*
X3692Y6109D02*
X3687Y6114D01*
Y6124D01*
X3692Y6129D01*
X3697D01*
X3702Y6124D01*
Y6119D01*
Y6124D01*
X3707Y6129D01*
X3712D01*
X3717Y6124D01*
Y6114D01*
X3712Y6109D01*
X7559Y7263D02*
Y7293D01*
X7574D01*
X7579Y7288D01*
Y7278D01*
X7574Y7273D01*
X7559D01*
X7569D02*
X7579Y7263D01*
X7604D02*
Y7293D01*
X7589Y7278D01*
X7609D01*
X7382Y7264D02*
Y7294D01*
X7397D01*
X7402Y7289D01*
Y7279D01*
X7397Y7274D01*
X7382D01*
X7392D02*
X7402Y7264D01*
X7432Y7294D02*
X7412D01*
Y7279D01*
X7422Y7284D01*
X7427D01*
X7432Y7279D01*
Y7269D01*
X7427Y7264D01*
X7417D01*
X7412Y7269D01*
X7728Y7273D02*
Y7303D01*
X7743D01*
X7748Y7298D01*
Y7288D01*
X7743Y7283D01*
X7728D01*
X7738D02*
X7748Y7273D01*
X7778Y7303D02*
X7768Y7298D01*
X7758Y7288D01*
Y7278D01*
X7763Y7273D01*
X7773D01*
X7778Y7278D01*
Y7283D01*
X7773Y7288D01*
X7758D01*
X3498Y5812D02*
Y5787D01*
X3503Y5782D01*
X3513D01*
X3518Y5787D01*
Y5812D01*
X3528Y5782D02*
X3538D01*
X3533D01*
Y5812D01*
X3528Y5807D01*
X4575Y7096D02*
Y7071D01*
X4579Y7067D01*
X4589D01*
X4594Y7071D01*
Y7096D01*
X4624Y7067D02*
X4604D01*
X4624Y7086D01*
Y7091D01*
X4619Y7096D01*
X4609D01*
X4604Y7091D01*
X4763Y7333D02*
Y7358D01*
X4758Y7363D01*
X4748D01*
X4743Y7358D01*
Y7333D01*
X4733Y7338D02*
X4728Y7333D01*
X4718D01*
X4713Y7338D01*
Y7343D01*
X4718Y7348D01*
X4723D01*
X4718D01*
X4713Y7353D01*
Y7358D01*
X4718Y7363D01*
X4728D01*
X4733Y7358D01*
X3225Y4035D02*
Y4060D01*
X3220Y4065D01*
X3210D01*
X3205Y4060D01*
Y4035D01*
X3180Y4065D02*
Y4035D01*
X3195Y4050D01*
X3175D01*
X3587Y6251D02*
X3612D01*
X3616Y6255D01*
Y6265D01*
X3612Y6270D01*
X3587D01*
Y6300D02*
Y6280D01*
X3602D01*
X3597Y6290D01*
Y6295D01*
X3602Y6300D01*
X3612D01*
X3616Y6295D01*
Y6285D01*
X3612Y6280D01*
X10712Y7463D02*
X10687D01*
X10682Y7458D01*
Y7448D01*
X10687Y7443D01*
X10712D01*
Y7413D02*
X10707Y7423D01*
X10697Y7433D01*
X10687D01*
X10682Y7428D01*
Y7418D01*
X10687Y7413D01*
X10692D01*
X10697Y7418D01*
Y7433D01*
X9090Y7096D02*
Y7067D01*
X9076D01*
X9071Y7072D01*
Y7082D01*
X9076Y7087D01*
X9090D01*
X9081D02*
X9071Y7096D01*
X9061Y7092D02*
X9056Y7096D01*
X9046D01*
X9041Y7092D01*
Y7072D01*
X9046Y7067D01*
X9056D01*
X9061Y7072D01*
Y7077D01*
X9056Y7082D01*
X9041D01*
X8491Y7136D02*
X8461D01*
Y7151D01*
X8466Y7156D01*
X8476D01*
X8481Y7151D01*
Y7136D01*
Y7146D02*
X8491Y7156D01*
Y7166D02*
Y7176D01*
Y7171D01*
X8461D01*
X8466Y7166D01*
Y7191D02*
X8461Y7196D01*
Y7206D01*
X8466Y7211D01*
X8486D01*
X8491Y7206D01*
Y7196D01*
X8486Y7191D01*
X8466D01*
X9271Y7136D02*
X9241D01*
Y7151D01*
X9246Y7156D01*
X9256D01*
X9261Y7151D01*
Y7136D01*
Y7146D02*
X9271Y7156D01*
Y7166D02*
Y7176D01*
Y7171D01*
X9241D01*
X9246Y7166D01*
X9271Y7191D02*
Y7201D01*
Y7196D01*
X9241D01*
X9246Y7191D01*
X8885Y7634D02*
Y7604D01*
X8900D01*
X8905Y7609D01*
Y7629D01*
X8900Y7634D01*
X8885D01*
X8935Y7629D02*
X8930Y7634D01*
X8920D01*
X8915Y7629D01*
Y7624D01*
X8920Y7619D01*
X8930D01*
X8935Y7614D01*
Y7609D01*
X8930Y7604D01*
X8920D01*
X8915Y7609D01*
X8945Y7604D02*
X8955D01*
X8950D01*
Y7634D01*
X8945Y7629D01*
X8505Y7634D02*
Y7604D01*
X8520D01*
X8525Y7609D01*
Y7629D01*
X8520Y7634D01*
X8505D01*
X8555Y7629D02*
X8550Y7634D01*
X8540D01*
X8535Y7629D01*
Y7624D01*
X8540Y7619D01*
X8550D01*
X8555Y7614D01*
Y7609D01*
X8550Y7604D01*
X8540D01*
X8535Y7609D01*
X8585Y7604D02*
X8565D01*
X8585Y7624D01*
Y7629D01*
X8580Y7634D01*
X8570D01*
X8565Y7629D01*
X9295Y7624D02*
Y7595D01*
X9310D01*
X9315Y7599D01*
Y7619D01*
X9310Y7624D01*
X9295D01*
X9345Y7619D02*
X9340Y7624D01*
X9330D01*
X9325Y7619D01*
Y7614D01*
X9330Y7609D01*
X9340D01*
X9345Y7604D01*
Y7599D01*
X9340Y7595D01*
X9330D01*
X9325Y7599D01*
X9355Y7619D02*
X9360Y7624D01*
X9370D01*
X9375Y7619D01*
Y7614D01*
X9370Y7609D01*
X9365D01*
X9370D01*
X9375Y7604D01*
Y7599D01*
X9370Y7595D01*
X9360D01*
X9355Y7599D01*
X2672Y4352D02*
X2667Y4357D01*
X2657D01*
X2652Y4352D01*
Y4332D01*
X2657Y4327D01*
X2667D01*
X2672Y4332D01*
X2682Y4352D02*
X2687Y4357D01*
X2697D01*
X2702Y4352D01*
Y4347D01*
X2697Y4342D01*
X2702Y4337D01*
Y4332D01*
X2697Y4327D01*
X2687D01*
X2682Y4332D01*
Y4337D01*
X2687Y4342D01*
X2682Y4347D01*
Y4352D01*
X2687Y4342D02*
X2697D01*
X2712Y4357D02*
X2732D01*
Y4352D01*
X2712Y4332D01*
Y4327D01*
X2599Y5340D02*
X2594Y5345D01*
X2584D01*
X2579Y5340D01*
Y5320D01*
X2584Y5315D01*
X2594D01*
X2599Y5320D01*
X2609Y5340D02*
X2614Y5345D01*
X2624D01*
X2629Y5340D01*
Y5335D01*
X2624Y5330D01*
X2629Y5325D01*
Y5320D01*
X2624Y5315D01*
X2614D01*
X2609Y5320D01*
Y5325D01*
X2614Y5330D01*
X2609Y5335D01*
Y5340D01*
X2614Y5330D02*
X2624D01*
X2639Y5340D02*
X2644Y5345D01*
X2654D01*
X2659Y5340D01*
Y5335D01*
X2654Y5330D01*
X2659Y5325D01*
Y5320D01*
X2654Y5315D01*
X2644D01*
X2639Y5320D01*
Y5325D01*
X2644Y5330D01*
X2639Y5335D01*
Y5340D01*
X2644Y5330D02*
X2654D01*
X16981Y7058D02*
X16976Y7063D01*
X16966D01*
X16962Y7058D01*
Y7038D01*
X16966Y7034D01*
X16976D01*
X16981Y7038D01*
X16991D02*
X16996Y7034D01*
X17006D01*
X17011Y7038D01*
Y7058D01*
X17006Y7063D01*
X16996D01*
X16991Y7058D01*
Y7053D01*
X16996Y7048D01*
X17011D01*
X17021Y7058D02*
X17026Y7063D01*
X17036D01*
X17041Y7058D01*
Y7038D01*
X17036Y7034D01*
X17026D01*
X17021Y7038D01*
Y7058D01*
X16982Y4041D02*
X16977Y4036D01*
Y4026D01*
X16982Y4022D01*
X17002D01*
X17007Y4026D01*
Y4036D01*
X17002Y4041D01*
Y4051D02*
X17007Y4056D01*
Y4066D01*
X17002Y4071D01*
X16982D01*
X16977Y4066D01*
Y4056D01*
X16982Y4051D01*
X16987D01*
X16992Y4056D01*
Y4071D01*
X17007Y4081D02*
Y4091D01*
Y4086D01*
X16977D01*
X16982Y4081D01*
X17181Y7068D02*
X17176Y7073D01*
X17166D01*
X17162Y7068D01*
Y7048D01*
X17166Y7043D01*
X17176D01*
X17181Y7048D01*
X17191D02*
X17196Y7043D01*
X17206D01*
X17211Y7048D01*
Y7068D01*
X17206Y7073D01*
X17196D01*
X17191Y7068D01*
Y7063D01*
X17196Y7058D01*
X17211D01*
X17241Y7043D02*
X17221D01*
X17241Y7063D01*
Y7068D01*
X17236Y7073D01*
X17226D01*
X17221Y7068D01*
X6721Y3618D02*
X6716Y3623D01*
X6706D01*
X6701Y3618D01*
Y3598D01*
X6706Y3593D01*
X6716D01*
X6721Y3598D01*
X6731D02*
X6736Y3593D01*
X6746D01*
X6751Y3598D01*
Y3618D01*
X6746Y3623D01*
X6736D01*
X6731Y3618D01*
Y3613D01*
X6736Y3608D01*
X6751D01*
X6761Y3618D02*
X6766Y3623D01*
X6776D01*
X6781Y3618D01*
Y3613D01*
X6776Y3608D01*
X6771D01*
X6776D01*
X6781Y3603D01*
Y3598D01*
X6776Y3593D01*
X6766D01*
X6761Y3598D01*
X4131Y3828D02*
X4126Y3833D01*
X4116D01*
X4111Y3828D01*
Y3808D01*
X4116Y3803D01*
X4126D01*
X4131Y3808D01*
X4141D02*
X4146Y3803D01*
X4156D01*
X4161Y3808D01*
Y3828D01*
X4156Y3833D01*
X4146D01*
X4141Y3828D01*
Y3823D01*
X4146Y3818D01*
X4161D01*
X4186Y3803D02*
Y3833D01*
X4171Y3818D01*
X4191D01*
X6242Y3771D02*
X6237Y3766D01*
Y3756D01*
X6242Y3751D01*
X6262D01*
X6266Y3756D01*
Y3766D01*
X6262Y3771D01*
Y3781D02*
X6266Y3786D01*
Y3796D01*
X6262Y3801D01*
X6242D01*
X6237Y3796D01*
Y3786D01*
X6242Y3781D01*
X6247D01*
X6252Y3786D01*
Y3801D01*
X6237Y3831D02*
Y3811D01*
X6252D01*
X6247Y3821D01*
Y3826D01*
X6252Y3831D01*
X6262D01*
X6266Y3826D01*
Y3816D01*
X6262Y3811D01*
X14038Y3429D02*
X14043Y3434D01*
Y3444D01*
X14038Y3448D01*
X14018D01*
X14014Y3444D01*
Y3434D01*
X14018Y3429D01*
Y3419D02*
X14014Y3414D01*
Y3404D01*
X14018Y3399D01*
X14038D01*
X14043Y3404D01*
Y3414D01*
X14038Y3419D01*
X14033D01*
X14028Y3414D01*
Y3399D01*
X14043Y3369D02*
X14038Y3379D01*
X14028Y3389D01*
X14018D01*
X14014Y3384D01*
Y3374D01*
X14018Y3369D01*
X14023D01*
X14028Y3374D01*
Y3389D01*
X11572Y3801D02*
X11567Y3796D01*
Y3786D01*
X11572Y3782D01*
X11592D01*
X11597Y3786D01*
Y3796D01*
X11592Y3801D01*
Y3811D02*
X11597Y3816D01*
Y3826D01*
X11592Y3831D01*
X11572D01*
X11567Y3826D01*
Y3816D01*
X11572Y3811D01*
X11577D01*
X11582Y3816D01*
Y3831D01*
X11567Y3841D02*
Y3861D01*
X11572D01*
X11592Y3841D01*
X11597D01*
X11582Y3581D02*
X11577Y3576D01*
Y3566D01*
X11582Y3562D01*
X11602D01*
X11606Y3566D01*
Y3576D01*
X11602Y3581D01*
Y3591D02*
X11606Y3596D01*
Y3606D01*
X11602Y3611D01*
X11582D01*
X11577Y3606D01*
Y3596D01*
X11582Y3591D01*
X11587D01*
X11592Y3596D01*
Y3611D01*
X11582Y3621D02*
X11577Y3626D01*
Y3636D01*
X11582Y3641D01*
X11587D01*
X11592Y3636D01*
X11597Y3641D01*
X11602D01*
X11606Y3636D01*
Y3626D01*
X11602Y3621D01*
X11597D01*
X11592Y3626D01*
X11587Y3621D01*
X11582D01*
X11592Y3626D02*
Y3636D01*
X10630Y3789D02*
Y3819D01*
X10645D01*
X10650Y3814D01*
Y3804D01*
X10645Y3799D01*
X10630D01*
X10640D02*
X10650Y3789D01*
X10660D02*
X10670D01*
X10665D01*
Y3819D01*
X10660Y3814D01*
X10705Y3789D02*
X10685D01*
X10705Y3809D01*
Y3814D01*
X10700Y3819D01*
X10690D01*
X10685Y3814D01*
X11260Y3189D02*
Y3219D01*
X11275D01*
X11280Y3214D01*
Y3204D01*
X11275Y3199D01*
X11260D01*
X11270D02*
X11280Y3189D01*
X11290D02*
X11300D01*
X11295D01*
Y3219D01*
X11290Y3214D01*
X11315D02*
X11320Y3219D01*
X11330D01*
X11335Y3214D01*
Y3209D01*
X11330Y3204D01*
X11325D01*
X11330D01*
X11335Y3199D01*
Y3194D01*
X11330Y3189D01*
X11320D01*
X11315Y3194D01*
X11220Y3976D02*
Y4006D01*
X11235D01*
X11240Y4001D01*
Y3991D01*
X11235Y3986D01*
X11220D01*
X11230D02*
X11240Y3976D01*
X11250D02*
X11260D01*
X11255D01*
Y4006D01*
X11250Y4001D01*
X11290Y3976D02*
Y4006D01*
X11275Y3991D01*
X11295D01*
X13330Y7540D02*
X13340Y7520D01*
X13350Y7540D01*
X13375Y7520D02*
X13365D01*
X13360Y7525D01*
Y7535D01*
X13365Y7540D01*
X13375D01*
X13380Y7535D01*
Y7530D01*
X13360D01*
X13390Y7540D02*
Y7520D01*
Y7530D01*
X13395Y7535D01*
X13400Y7540D01*
X13405D01*
X13420Y7520D02*
X13435D01*
X13440Y7525D01*
X13435Y7530D01*
X13425D01*
X13420Y7535D01*
X13425Y7540D01*
X13440D01*
X13450Y7520D02*
X13460D01*
X13455D01*
Y7540D01*
X13450D01*
X13480Y7520D02*
X13490D01*
X13495Y7525D01*
Y7535D01*
X13490Y7540D01*
X13480D01*
X13475Y7535D01*
Y7525D01*
X13480Y7520D01*
X13505D02*
Y7540D01*
X13520D01*
X13525Y7535D01*
Y7520D01*
X13565D02*
X13575D01*
X13570D01*
Y7550D01*
X13565Y7545D01*
X13590Y7520D02*
Y7525D01*
X13595D01*
Y7520D01*
X13590D01*
X13615Y7545D02*
X13620Y7550D01*
X13630D01*
X13635Y7545D01*
Y7525D01*
X13630Y7520D01*
X13620D01*
X13615Y7525D01*
Y7545D01*
D69*
X15746Y7274D02*
X15810D01*
X15642D02*
X15706D01*
X15538D02*
X15602D01*
X15330D02*
X15394D01*
X15746Y7278D02*
X15810D01*
X15642D02*
X15706D01*
X15538D02*
X15602D01*
X15330D02*
X15394D01*
X15746Y7282D02*
X15810D01*
X15642D02*
X15706D01*
X15538D02*
X15602D01*
X15330D02*
X15394D01*
X15746Y7286D02*
X15810D01*
X15642D02*
X15706D01*
X15538D02*
X15602D01*
X15330D02*
X15394D01*
X15746Y7290D02*
X15810D01*
X15642D02*
X15706D01*
X15538D02*
X15602D01*
X15330D02*
X15394D01*
X15746Y7294D02*
X15810D01*
X15642D02*
X15706D01*
X15538D02*
X15602D01*
X15330D02*
X15394D01*
X15746Y7298D02*
X15810D01*
X15642D02*
X15706D01*
X15538D02*
X15602D01*
X15330D02*
X15394D01*
X15746Y7302D02*
X15810D01*
X15642D02*
X15706D01*
X15538D02*
X15602D01*
X15330D02*
X15394D01*
X15746Y7306D02*
X15810D01*
X15642D02*
X15706D01*
X15538D02*
X15602D01*
X15330D02*
X15394D01*
X15746Y7310D02*
X15810D01*
X15642D02*
X15706D01*
X15538D02*
X15602D01*
X15330D02*
X15394D01*
X15746Y7314D02*
X15810D01*
X15642D02*
X15706D01*
X15538D02*
X15602D01*
X15330D02*
X15394D01*
X15746Y7318D02*
X15810D01*
X15642D02*
X15706D01*
X15538D02*
X15602D01*
X15330D02*
X15394D01*
X15746Y7322D02*
X15810D01*
X15642D02*
X15706D01*
X15538D02*
X15602D01*
X15330D02*
X15394D01*
X15746Y7326D02*
X15810D01*
X15642D02*
X15706D01*
X15538D02*
X15602D01*
X15330D02*
X15394D01*
X15746Y7330D02*
X15810D01*
X15642D02*
X15706D01*
X15538D02*
X15602D01*
X15330D02*
X15394D01*
X15746Y7334D02*
X15810D01*
X15642D02*
X15706D01*
X15538D02*
X15602D01*
X15330D02*
X15394D01*
X15746Y7338D02*
X15810D01*
X15642D02*
X15706D01*
X15538D02*
X15602D01*
X15330D02*
X15394D01*
X15746Y7342D02*
X15810D01*
X15642D02*
X15706D01*
X15538D02*
X15602D01*
X15330D02*
X15394D01*
X15746Y7346D02*
X15810D01*
X15642D02*
X15706D01*
X15538D02*
X15602D01*
X15330D02*
X15394D01*
X15746Y7350D02*
X15810D01*
X15642D02*
X15706D01*
X15538D02*
X15602D01*
X15330D02*
X15394D01*
X15746Y7354D02*
X15810D01*
X15642D02*
X15706D01*
X15538D02*
X15602D01*
X15330D02*
X15394D01*
X15746Y7358D02*
X15810D01*
X15642D02*
X15706D01*
X15538D02*
X15602D01*
X15330D02*
X15394D01*
X15746Y7362D02*
X15810D01*
X15642D02*
X15706D01*
X15538D02*
X15602D01*
X15330D02*
X15394D01*
X15746Y7366D02*
X15810D01*
X15642D02*
X15706D01*
X15538D02*
X15602D01*
X15330D02*
X15394D01*
X15746Y7370D02*
X15810D01*
X15642D02*
X15706D01*
X15538D02*
X15602D01*
X15434D02*
X15498D01*
X15330D02*
X15394D01*
X15746Y7374D02*
X15810D01*
X15642D02*
X15706D01*
X15538D02*
X15602D01*
X15434D02*
X15498D01*
X15330D02*
X15394D01*
X15746Y7378D02*
X15810D01*
X15642D02*
X15706D01*
X15538D02*
X15602D01*
X15434D02*
X15498D01*
X15330D02*
X15394D01*
X15746Y7382D02*
X15810D01*
X15642D02*
X15706D01*
X15538D02*
X15602D01*
X15434D02*
X15498D01*
X15330D02*
X15394D01*
X15746Y7386D02*
X15810D01*
X15642D02*
X15706D01*
X15538D02*
X15602D01*
X15434D02*
X15498D01*
X15330D02*
X15394D01*
X15746Y7390D02*
X15810D01*
X15642D02*
X15706D01*
X15538D02*
X15602D01*
X15434D02*
X15498D01*
X15330D02*
X15394D01*
X15746Y7394D02*
X15810D01*
X15642D02*
X15706D01*
X15538D02*
X15602D01*
X15434D02*
X15498D01*
X15330D02*
X15394D01*
X15746Y7398D02*
X15810D01*
X15642D02*
X15706D01*
X15538D02*
X15602D01*
X15434D02*
X15498D01*
X15330D02*
X15394D01*
X15746Y7402D02*
X15810D01*
X15642D02*
X15706D01*
X15538D02*
X15602D01*
X15434D02*
X15498D01*
X15330D02*
X15394D01*
X15746Y7406D02*
X15810D01*
X15642D02*
X15706D01*
X15538D02*
X15602D01*
X15434D02*
X15498D01*
X15330D02*
X15394D01*
X15746Y7410D02*
X15810D01*
X15642D02*
X15706D01*
X15538D02*
X15602D01*
X15434D02*
X15498D01*
X15330D02*
X15394D01*
X15746Y7414D02*
X15810D01*
X15642D02*
X15706D01*
X15538D02*
X15602D01*
X15434D02*
X15498D01*
X15330D02*
X15394D01*
X15746Y7418D02*
X15810D01*
X15642D02*
X15706D01*
X15538D02*
X15602D01*
X15434D02*
X15498D01*
X15330D02*
X15394D01*
X15746Y7422D02*
X15810D01*
X15642D02*
X15706D01*
X15538D02*
X15602D01*
X15434D02*
X15498D01*
X15330D02*
X15394D01*
X15746Y7426D02*
X15810D01*
X15642D02*
X15706D01*
X15538D02*
X15602D01*
X15434D02*
X15498D01*
X15330D02*
X15394D01*
X15746Y7430D02*
X15810D01*
X15642D02*
X15706D01*
X15538D02*
X15602D01*
X15434D02*
X15498D01*
X15330D02*
X15394D01*
X15746Y7434D02*
X15810D01*
X15642D02*
X15706D01*
X15538D02*
X15602D01*
X15434D02*
X15498D01*
X15330D02*
X15394D01*
X15746Y7438D02*
X15810D01*
X15642D02*
X15706D01*
X15538D02*
X15602D01*
X15434D02*
X15498D01*
X15330D02*
X15394D01*
X15746Y7442D02*
X15810D01*
X15642D02*
X15706D01*
X15538D02*
X15602D01*
X15434D02*
X15498D01*
X15330D02*
X15394D01*
X15746Y7446D02*
X15810D01*
X15642D02*
X15706D01*
X15538D02*
X15602D01*
X15434D02*
X15498D01*
X15330D02*
X15394D01*
X15746Y7450D02*
X15810D01*
X15642D02*
X15706D01*
X15538D02*
X15602D01*
X15434D02*
X15498D01*
X15330D02*
X15394D01*
X15746Y7454D02*
X15810D01*
X15642D02*
X15706D01*
X15538D02*
X15602D01*
X15434D02*
X15498D01*
X15330D02*
X15394D01*
X15746Y7458D02*
X15810D01*
X15642D02*
X15706D01*
X15538D02*
X15602D01*
X15434D02*
X15498D01*
X15330D02*
X15394D01*
X15746Y7462D02*
X15810D01*
X15642D02*
X15706D01*
X15538D02*
X15602D01*
X15434D02*
X15498D01*
X15330D02*
X15394D01*
X15746Y7466D02*
X15810D01*
X15642D02*
X15706D01*
X15538D02*
X15602D01*
X15434D02*
X15498D01*
X15330D02*
X15394D01*
X15746Y7470D02*
X15810D01*
X15642D02*
X15706D01*
X15538D02*
X15602D01*
X15434D02*
X15498D01*
X15330D02*
X15394D01*
X15538Y7474D02*
X15602D01*
X15434D02*
X15498D01*
X15330D02*
X15394D01*
X15538Y7478D02*
X15602D01*
X15434D02*
X15498D01*
X15330D02*
X15394D01*
X15538Y7482D02*
X15602D01*
X15434D02*
X15498D01*
X15330D02*
X15394D01*
X15538Y7486D02*
X15602D01*
X15434D02*
X15498D01*
X15330D02*
X15394D01*
X15538Y7490D02*
X15602D01*
X15434D02*
X15498D01*
X15330D02*
X15394D01*
X15538Y7494D02*
X15602D01*
X15434D02*
X15498D01*
X15330D02*
X15394D01*
X15538Y7498D02*
X15602D01*
X15434D02*
X15498D01*
X15330D02*
X15394D01*
X15538Y7502D02*
X15602D01*
X15434D02*
X15498D01*
X15330D02*
X15394D01*
X15538Y7506D02*
X15602D01*
X15434D02*
X15498D01*
X15330D02*
X15394D01*
X15538Y7510D02*
X15602D01*
X15434D02*
X15498D01*
X15330D02*
X15394D01*
X15746Y7514D02*
X15914D01*
X15642D02*
X15706D01*
X15538D02*
X15602D01*
X15434D02*
X15498D01*
X15330D02*
X15394D01*
X15746Y7518D02*
X15914D01*
X15642D02*
X15706D01*
X15538D02*
X15602D01*
X15434D02*
X15498D01*
X15330D02*
X15394D01*
X15746Y7522D02*
X15914D01*
X15642D02*
X15706D01*
X15538D02*
X15602D01*
X15434D02*
X15498D01*
X15330D02*
X15394D01*
X15746Y7526D02*
X15914D01*
X15642D02*
X15706D01*
X15538D02*
X15602D01*
X15434D02*
X15498D01*
X15330D02*
X15394D01*
X15746Y7530D02*
X15914D01*
X15642D02*
X15706D01*
X15538D02*
X15602D01*
X15434D02*
X15498D01*
X15330D02*
X15394D01*
X15746Y7534D02*
X15914D01*
X15642D02*
X15706D01*
X15538D02*
X15602D01*
X15434D02*
X15498D01*
X15330D02*
X15394D01*
X15746Y7538D02*
X15914D01*
X15642D02*
X15706D01*
X15538D02*
X15602D01*
X15434D02*
X15498D01*
X15330D02*
X15394D01*
X15746Y7542D02*
X15914D01*
X15642D02*
X15706D01*
X15538D02*
X15602D01*
X15434D02*
X15498D01*
X15330D02*
X15394D01*
X15746Y7546D02*
X15914D01*
X15642D02*
X15706D01*
X15538D02*
X15602D01*
X15434D02*
X15498D01*
X15330D02*
X15394D01*
X15746Y7550D02*
X15914D01*
X15642D02*
X15706D01*
X15538D02*
X15602D01*
X15434D02*
X15498D01*
X15330D02*
X15394D01*
X15746Y7554D02*
X15914D01*
X15642D02*
X15706D01*
X15538D02*
X15602D01*
X15434D02*
X15498D01*
X15330D02*
X15394D01*
X15746Y7558D02*
X15914D01*
X15642D02*
X15706D01*
X15538D02*
X15602D01*
X15434D02*
X15498D01*
X15330D02*
X15394D01*
X15746Y7562D02*
X15914D01*
X15642D02*
X15706D01*
X15538D02*
X15602D01*
X15434D02*
X15498D01*
X15330D02*
X15394D01*
X15746Y7566D02*
X15914D01*
X15642D02*
X15706D01*
X15538D02*
X15602D01*
X15434D02*
X15498D01*
X15330D02*
X15394D01*
X15746Y7570D02*
X15914D01*
X15642D02*
X15706D01*
X15538D02*
X15602D01*
X15434D02*
X15498D01*
X15330D02*
X15394D01*
X15746Y7574D02*
X15914D01*
X15642D02*
X15706D01*
X15538D02*
X15602D01*
X15434D02*
X15498D01*
X15330D02*
X15394D01*
D70*
X12422Y7508D02*
X12384Y7546D01*
X12327Y7565D01*
X12251D01*
X12194Y7546D01*
X12156Y7508D01*
Y7470D01*
X12175Y7432D01*
X12194Y7413D01*
X12232Y7394D01*
X12346Y7356D01*
X12384Y7337D01*
X12403Y7318D01*
X12422Y7280D01*
Y7222D01*
X12384Y7184D01*
X12327Y7165D01*
X12251D01*
X12194Y7184D01*
X12156Y7222D01*
X12607Y7432D02*
X12569Y7413D01*
X12531Y7375D01*
X12512Y7318D01*
Y7280D01*
X12531Y7222D01*
X12569Y7184D01*
X12607Y7165D01*
X12664D01*
X12702Y7184D01*
X12740Y7222D01*
X12759Y7280D01*
Y7318D01*
X12740Y7375D01*
X12702Y7413D01*
X12664Y7432D01*
X12607D01*
X12847D02*
Y7165D01*
Y7356D02*
X12904Y7413D01*
X12942Y7432D01*
X12999D01*
X13037Y7413D01*
X13056Y7356D01*
Y7165D01*
Y7356D02*
X13113Y7413D01*
X13151Y7432D01*
X13209D01*
X13247Y7413D01*
X13266Y7356D01*
Y7165D01*
X13620Y7432D02*
Y7165D01*
Y7375D02*
X13582Y7413D01*
X13544Y7432D01*
X13487D01*
X13449Y7413D01*
X13410Y7375D01*
X13391Y7318D01*
Y7280D01*
X13410Y7222D01*
X13449Y7184D01*
X13487Y7165D01*
X13544D01*
X13582Y7184D01*
X13620Y7222D01*
D71*
X5984Y3612D02*
Y3692D01*
X6038Y3612D01*
Y3692D01*
X6104Y3612D02*
X6078D01*
X6064Y3626D01*
Y3652D01*
X6078Y3666D01*
X6104D01*
X6118Y3652D01*
Y3639D01*
X6064D01*
X6158Y3679D02*
Y3666D01*
X6144D01*
X6171D01*
X6158D01*
Y3626D01*
X6171Y3612D01*
X6211Y3666D02*
Y3626D01*
X6224Y3612D01*
X6238Y3626D01*
X6251Y3612D01*
X6264Y3626D01*
Y3666D01*
X6304Y3612D02*
X6331D01*
X6344Y3626D01*
Y3652D01*
X6331Y3666D01*
X6304D01*
X6291Y3652D01*
Y3626D01*
X6304Y3612D01*
X6371Y3666D02*
Y3612D01*
Y3639D01*
X6384Y3652D01*
X6397Y3666D01*
X6411D01*
X6451Y3612D02*
Y3692D01*
Y3639D02*
X6491Y3666D01*
X6451Y3639D02*
X6491Y3612D01*
X13317Y3957D02*
Y4037D01*
X13357D01*
X13370Y4023D01*
Y3997D01*
X13357Y3983D01*
X13317D01*
X13437Y3957D02*
X13410D01*
X13397Y3970D01*
Y3997D01*
X13410Y4010D01*
X13437D01*
X13450Y3997D01*
Y3983D01*
X13397D01*
X13477Y4010D02*
Y3957D01*
Y3983D01*
X13490Y3997D01*
X13504Y4010D01*
X13517D01*
X13557Y3957D02*
X13584D01*
X13570D01*
Y4010D01*
X13557D01*
X13623Y3930D02*
Y4010D01*
X13663D01*
X13677Y3997D01*
Y3970D01*
X13663Y3957D01*
X13623D01*
X13703Y4037D02*
Y3957D01*
Y3997D01*
X13717Y4010D01*
X13743D01*
X13757Y3997D01*
Y3957D01*
X13823D02*
X13797D01*
X13783Y3970D01*
Y3997D01*
X13797Y4010D01*
X13823D01*
X13837Y3997D01*
Y3983D01*
X13783D01*
X13863Y4010D02*
Y3957D01*
Y3983D01*
X13877Y3997D01*
X13890Y4010D01*
X13903D01*
X13957D02*
X13983D01*
X13997Y3997D01*
Y3957D01*
X13957D01*
X13943Y3970D01*
X13957Y3983D01*
X13997D01*
X14023Y3957D02*
X14050D01*
X14037D01*
Y4037D01*
X14023D01*
X14090Y3957D02*
X14130D01*
X14143Y3970D01*
X14130Y3983D01*
X14103D01*
X14090Y3997D01*
X14103Y4010D01*
X14143D01*
X17067Y4232D02*
Y4312D01*
X17120Y4232D01*
Y4312D01*
X17200D02*
X17147D01*
Y4232D01*
X17200D01*
X17147Y4272D02*
X17174D01*
X17227Y4232D02*
Y4312D01*
X17267D01*
X17280Y4299D01*
Y4272D01*
X17267Y4259D01*
X17227D01*
X5217Y4204D02*
Y4124D01*
X5257D01*
X5270Y4137D01*
Y4191D01*
X5257Y4204D01*
X5217D01*
X5350Y4191D02*
X5336Y4204D01*
X5310D01*
X5297Y4191D01*
Y4177D01*
X5310Y4164D01*
X5336D01*
X5350Y4151D01*
Y4137D01*
X5336Y4124D01*
X5310D01*
X5297Y4137D01*
X5376Y4124D02*
Y4204D01*
X5416D01*
X5430Y4191D01*
Y4164D01*
X5416Y4151D01*
X5376D01*
X5536Y4191D02*
X5550Y4204D01*
X5576D01*
X5590Y4191D01*
Y4137D01*
X5576Y4124D01*
X5550D01*
X5536Y4137D01*
Y4191D01*
X5955Y4204D02*
Y4124D01*
X5995D01*
X6008Y4137D01*
Y4191D01*
X5995Y4204D01*
X5955D01*
X6088Y4191D02*
X6075Y4204D01*
X6048D01*
X6035Y4191D01*
Y4177D01*
X6048Y4164D01*
X6075D01*
X6088Y4151D01*
Y4137D01*
X6075Y4124D01*
X6048D01*
X6035Y4137D01*
X6115Y4124D02*
Y4204D01*
X6155D01*
X6168Y4191D01*
Y4164D01*
X6155Y4151D01*
X6115D01*
X6275Y4124D02*
X6301D01*
X6288D01*
Y4204D01*
X6275Y4191D01*
X6713Y4204D02*
Y4124D01*
X6753D01*
X6766Y4137D01*
Y4191D01*
X6753Y4204D01*
X6713D01*
X6846Y4191D02*
X6833Y4204D01*
X6806D01*
X6793Y4191D01*
Y4177D01*
X6806Y4164D01*
X6833D01*
X6846Y4151D01*
Y4137D01*
X6833Y4124D01*
X6806D01*
X6793Y4137D01*
X6873Y4124D02*
Y4204D01*
X6913D01*
X6926Y4191D01*
Y4164D01*
X6913Y4151D01*
X6873D01*
X7086Y4124D02*
X7032D01*
X7086Y4177D01*
Y4191D01*
X7072Y4204D01*
X7046D01*
X7032Y4191D01*
X7461Y4204D02*
Y4124D01*
X7501D01*
X7514Y4137D01*
Y4191D01*
X7501Y4204D01*
X7461D01*
X7594Y4191D02*
X7581Y4204D01*
X7554D01*
X7541Y4191D01*
Y4177D01*
X7554Y4164D01*
X7581D01*
X7594Y4151D01*
Y4137D01*
X7581Y4124D01*
X7554D01*
X7541Y4137D01*
X7621Y4124D02*
Y4204D01*
X7661D01*
X7674Y4191D01*
Y4164D01*
X7661Y4151D01*
X7621D01*
X7781Y4191D02*
X7794Y4204D01*
X7821D01*
X7834Y4191D01*
Y4177D01*
X7821Y4164D01*
X7807D01*
X7821D01*
X7834Y4151D01*
Y4137D01*
X7821Y4124D01*
X7794D01*
X7781Y4137D01*
X8209Y4204D02*
Y4124D01*
X8249D01*
X8262Y4137D01*
Y4191D01*
X8249Y4204D01*
X8209D01*
X8342Y4191D02*
X8329Y4204D01*
X8302D01*
X8289Y4191D01*
Y4177D01*
X8302Y4164D01*
X8329D01*
X8342Y4151D01*
Y4137D01*
X8329Y4124D01*
X8302D01*
X8289Y4137D01*
X8369Y4124D02*
Y4204D01*
X8409D01*
X8422Y4191D01*
Y4164D01*
X8409Y4151D01*
X8369D01*
X8569Y4124D02*
Y4204D01*
X8529Y4164D01*
X8582D01*
X8957Y4204D02*
Y4124D01*
X8997D01*
X9010Y4137D01*
Y4191D01*
X8997Y4204D01*
X8957D01*
X9090Y4191D02*
X9077Y4204D01*
X9050D01*
X9037Y4191D01*
Y4177D01*
X9050Y4164D01*
X9077D01*
X9090Y4151D01*
Y4137D01*
X9077Y4124D01*
X9050D01*
X9037Y4137D01*
X9117Y4124D02*
Y4204D01*
X9157D01*
X9170Y4191D01*
Y4164D01*
X9157Y4151D01*
X9117D01*
X9330Y4204D02*
X9277D01*
Y4164D01*
X9303Y4177D01*
X9317D01*
X9330Y4164D01*
Y4137D01*
X9317Y4124D01*
X9290D01*
X9277Y4137D01*
X9715Y4204D02*
Y4124D01*
X9755D01*
X9768Y4137D01*
Y4191D01*
X9755Y4204D01*
X9715D01*
X9848Y4191D02*
X9835Y4204D01*
X9808D01*
X9795Y4191D01*
Y4177D01*
X9808Y4164D01*
X9835D01*
X9848Y4151D01*
Y4137D01*
X9835Y4124D01*
X9808D01*
X9795Y4137D01*
X9875Y4124D02*
Y4204D01*
X9915D01*
X9928Y4191D01*
Y4164D01*
X9915Y4151D01*
X9875D01*
X10088Y4204D02*
X10061Y4191D01*
X10034Y4164D01*
Y4137D01*
X10048Y4124D01*
X10074D01*
X10088Y4137D01*
Y4151D01*
X10074Y4164D01*
X10034D01*
X10463Y4204D02*
Y4124D01*
X10503D01*
X10516Y4137D01*
Y4191D01*
X10503Y4204D01*
X10463D01*
X10596Y4191D02*
X10583Y4204D01*
X10556D01*
X10543Y4191D01*
Y4177D01*
X10556Y4164D01*
X10583D01*
X10596Y4151D01*
Y4137D01*
X10583Y4124D01*
X10556D01*
X10543Y4137D01*
X10623Y4124D02*
Y4204D01*
X10663D01*
X10676Y4191D01*
Y4164D01*
X10663Y4151D01*
X10623D01*
X10782Y4204D02*
X10836D01*
Y4191D01*
X10782Y4137D01*
Y4124D01*
X11211Y4204D02*
Y4124D01*
X11251D01*
X11264Y4137D01*
Y4191D01*
X11251Y4204D01*
X11211D01*
X11344Y4191D02*
X11331Y4204D01*
X11304D01*
X11291Y4191D01*
Y4177D01*
X11304Y4164D01*
X11331D01*
X11344Y4151D01*
Y4137D01*
X11331Y4124D01*
X11304D01*
X11291Y4137D01*
X11371Y4124D02*
Y4204D01*
X11411D01*
X11424Y4191D01*
Y4164D01*
X11411Y4151D01*
X11371D01*
X11531Y4191D02*
X11544Y4204D01*
X11571D01*
X11584Y4191D01*
Y4177D01*
X11571Y4164D01*
X11584Y4151D01*
Y4137D01*
X11571Y4124D01*
X11544D01*
X11531Y4137D01*
Y4151D01*
X11544Y4164D01*
X11531Y4177D01*
Y4191D01*
X11544Y4164D02*
X11571D01*
X11959Y4204D02*
Y4124D01*
X11999D01*
X12012Y4137D01*
Y4191D01*
X11999Y4204D01*
X11959D01*
X12092Y4191D02*
X12079Y4204D01*
X12052D01*
X12039Y4191D01*
Y4177D01*
X12052Y4164D01*
X12079D01*
X12092Y4151D01*
Y4137D01*
X12079Y4124D01*
X12052D01*
X12039Y4137D01*
X12119Y4124D02*
Y4204D01*
X12159D01*
X12172Y4191D01*
Y4164D01*
X12159Y4151D01*
X12119D01*
X12279Y4137D02*
X12292Y4124D01*
X12319D01*
X12332Y4137D01*
Y4191D01*
X12319Y4204D01*
X12292D01*
X12279Y4191D01*
Y4177D01*
X12292Y4164D01*
X12332D01*
X12707Y4204D02*
Y4124D01*
X12747D01*
X12760Y4137D01*
Y4191D01*
X12747Y4204D01*
X12707D01*
X12840Y4191D02*
X12827Y4204D01*
X12800D01*
X12787Y4191D01*
Y4177D01*
X12800Y4164D01*
X12827D01*
X12840Y4151D01*
Y4137D01*
X12827Y4124D01*
X12800D01*
X12787Y4137D01*
X12867Y4124D02*
Y4204D01*
X12907D01*
X12920Y4191D01*
Y4164D01*
X12907Y4151D01*
X12867D01*
X13027Y4124D02*
X13053D01*
X13040D01*
Y4204D01*
X13027Y4191D01*
X13093D02*
X13107Y4204D01*
X13133D01*
X13147Y4191D01*
Y4137D01*
X13133Y4124D01*
X13107D01*
X13093Y4137D01*
Y4191D01*
X13455Y4204D02*
Y4124D01*
X13495D01*
X13508Y4137D01*
Y4191D01*
X13495Y4204D01*
X13455D01*
X13588Y4191D02*
X13575Y4204D01*
X13548D01*
X13535Y4191D01*
Y4177D01*
X13548Y4164D01*
X13575D01*
X13588Y4151D01*
Y4137D01*
X13575Y4124D01*
X13548D01*
X13535Y4137D01*
X13615Y4124D02*
Y4204D01*
X13655D01*
X13668Y4191D01*
Y4164D01*
X13655Y4151D01*
X13615D01*
X13775Y4124D02*
X13801D01*
X13788D01*
Y4204D01*
X13775Y4191D01*
X13841Y4124D02*
X13868D01*
X13855D01*
Y4204D01*
X13841Y4191D01*
X14203Y4204D02*
Y4124D01*
X14243D01*
X14256Y4137D01*
Y4191D01*
X14243Y4204D01*
X14203D01*
X14336Y4191D02*
X14323Y4204D01*
X14296D01*
X14283Y4191D01*
Y4177D01*
X14296Y4164D01*
X14323D01*
X14336Y4151D01*
Y4137D01*
X14323Y4124D01*
X14296D01*
X14283Y4137D01*
X14363Y4124D02*
Y4204D01*
X14403D01*
X14416Y4191D01*
Y4164D01*
X14403Y4151D01*
X14363D01*
X14523Y4124D02*
X14549D01*
X14536D01*
Y4204D01*
X14523Y4191D01*
X14643Y4124D02*
X14589D01*
X14643Y4177D01*
Y4191D01*
X14629Y4204D01*
X14603D01*
X14589Y4191D01*
X14961Y4204D02*
Y4124D01*
X15001D01*
X15014Y4137D01*
Y4191D01*
X15001Y4204D01*
X14961D01*
X15094Y4191D02*
X15081Y4204D01*
X15054D01*
X15041Y4191D01*
Y4177D01*
X15054Y4164D01*
X15081D01*
X15094Y4151D01*
Y4137D01*
X15081Y4124D01*
X15054D01*
X15041Y4137D01*
X15121Y4124D02*
Y4204D01*
X15161D01*
X15174Y4191D01*
Y4164D01*
X15161Y4151D01*
X15121D01*
X15281Y4124D02*
X15307D01*
X15294D01*
Y4204D01*
X15281Y4191D01*
X15347D02*
X15361Y4204D01*
X15387D01*
X15400Y4191D01*
Y4177D01*
X15387Y4164D01*
X15374D01*
X15387D01*
X15400Y4151D01*
Y4137D01*
X15387Y4124D01*
X15361D01*
X15347Y4137D01*
X15709Y4204D02*
Y4124D01*
X15749D01*
X15762Y4137D01*
Y4191D01*
X15749Y4204D01*
X15709D01*
X15842Y4191D02*
X15829Y4204D01*
X15802D01*
X15789Y4191D01*
Y4177D01*
X15802Y4164D01*
X15829D01*
X15842Y4151D01*
Y4137D01*
X15829Y4124D01*
X15802D01*
X15789Y4137D01*
X15869Y4124D02*
Y4204D01*
X15909D01*
X15922Y4191D01*
Y4164D01*
X15909Y4151D01*
X15869D01*
X16029Y4124D02*
X16055D01*
X16042D01*
Y4204D01*
X16029Y4191D01*
X16135Y4124D02*
Y4204D01*
X16095Y4164D01*
X16149D01*
X16457Y4204D02*
Y4124D01*
X16497D01*
X16510Y4137D01*
Y4191D01*
X16497Y4204D01*
X16457D01*
X16590Y4191D02*
X16577Y4204D01*
X16550D01*
X16537Y4191D01*
Y4177D01*
X16550Y4164D01*
X16577D01*
X16590Y4151D01*
Y4137D01*
X16577Y4124D01*
X16550D01*
X16537Y4137D01*
X16617Y4124D02*
Y4204D01*
X16657D01*
X16670Y4191D01*
Y4164D01*
X16657Y4151D01*
X16617D01*
X16777Y4124D02*
X16803D01*
X16790D01*
Y4204D01*
X16777Y4191D01*
X16897Y4204D02*
X16843D01*
Y4164D01*
X16870Y4177D01*
X16883D01*
X16897Y4164D01*
Y4137D01*
X16883Y4124D01*
X16857D01*
X16843Y4137D01*
X15034Y7264D02*
X14980D01*
X15034Y7317D01*
Y7330D01*
X15020Y7344D01*
X14994D01*
X14980Y7330D01*
X15060D02*
X15074Y7344D01*
X15100D01*
X15114Y7330D01*
Y7277D01*
X15100Y7264D01*
X15074D01*
X15060Y7277D01*
Y7330D01*
X15140D02*
X15154Y7344D01*
X15180D01*
X15194Y7330D01*
Y7277D01*
X15180Y7264D01*
X15154D01*
X15140Y7277D01*
Y7330D01*
X15274Y7344D02*
X15220D01*
Y7304D01*
X15247Y7317D01*
X15260D01*
X15274Y7304D01*
Y7277D01*
X15260Y7264D01*
X15234D01*
X15220Y7277D01*
X14990Y7146D02*
X15030D01*
X15043Y7159D01*
X15030Y7172D01*
X15003D01*
X14990Y7186D01*
X15003Y7199D01*
X15043D01*
X15083Y7146D02*
X15110D01*
X15123Y7159D01*
Y7186D01*
X15110Y7199D01*
X15083D01*
X15070Y7186D01*
Y7159D01*
X15083Y7146D01*
X15150D02*
Y7199D01*
X15163D01*
X15177Y7186D01*
Y7146D01*
Y7186D01*
X15190Y7199D01*
X15203Y7186D01*
Y7146D01*
X15243Y7199D02*
X15270D01*
X15283Y7186D01*
Y7146D01*
X15243D01*
X15230Y7159D01*
X15243Y7172D01*
X15283D01*
X15310Y7146D02*
Y7159D01*
X15323D01*
Y7146D01*
X15310D01*
X15377D02*
Y7199D01*
X15390D01*
X15403Y7186D01*
Y7146D01*
Y7186D01*
X15417Y7199D01*
X15430Y7186D01*
Y7146D01*
X15457D02*
X15483D01*
X15470D01*
Y7199D01*
X15457D01*
X15537Y7212D02*
Y7199D01*
X15523D01*
X15550D01*
X15537D01*
Y7159D01*
X15550Y7146D01*
X15590D02*
Y7159D01*
X15603D01*
Y7146D01*
X15590D01*
X15697D02*
X15670D01*
X15657Y7159D01*
Y7186D01*
X15670Y7199D01*
X15697D01*
X15710Y7186D01*
Y7172D01*
X15657D01*
X15790Y7226D02*
Y7146D01*
X15750D01*
X15737Y7159D01*
Y7186D01*
X15750Y7199D01*
X15790D01*
X15817D02*
Y7159D01*
X15830Y7146D01*
X15870D01*
Y7199D01*
X3041Y6811D02*
X2981D01*
Y6841D01*
X2991Y6851D01*
X3011D01*
X3021Y6841D01*
Y6811D01*
X2981Y6901D02*
Y6881D01*
X2991Y6871D01*
X3031D01*
X3041Y6881D01*
Y6901D01*
X3031Y6911D01*
X2991D01*
X2981Y6901D01*
Y6931D02*
X3041D01*
X3021Y6951D01*
X3041Y6971D01*
X2981D01*
Y7031D02*
Y6991D01*
X3041D01*
Y7031D01*
X3011Y6991D02*
Y7011D01*
X3041Y7051D02*
X2981D01*
Y7081D01*
X2991Y7091D01*
X3011D01*
X3021Y7081D01*
Y7051D01*
Y7071D02*
X3041Y7091D01*
X2991Y7211D02*
X2981Y7201D01*
Y7181D01*
X2991Y7171D01*
X3001D01*
X3011Y7181D01*
Y7201D01*
X3021Y7211D01*
X3031D01*
X3041Y7201D01*
Y7181D01*
X3031Y7171D01*
X2981Y7231D02*
X3041D01*
X3021Y7251D01*
X3041Y7271D01*
X2981D01*
X6368Y7225D02*
Y7165D01*
X6408D01*
X6468Y7215D02*
X6458Y7225D01*
X6438D01*
X6428Y7215D01*
Y7175D01*
X6438Y7165D01*
X6458D01*
X6468Y7175D01*
X6488Y7225D02*
Y7165D01*
X6518D01*
X6528Y7175D01*
Y7215D01*
X6518Y7225D01*
X6488D01*
X6608Y7165D02*
Y7225D01*
X6638D01*
X6648Y7215D01*
Y7195D01*
X6638Y7185D01*
X6608D01*
X6698Y7225D02*
X6678D01*
X6668Y7215D01*
Y7175D01*
X6678Y7165D01*
X6698D01*
X6708Y7175D01*
Y7215D01*
X6698Y7225D01*
X6728D02*
Y7165D01*
X6748Y7185D01*
X6768Y7165D01*
Y7225D01*
X6828D02*
X6788D01*
Y7165D01*
X6828D01*
X6788Y7195D02*
X6808D01*
X6848Y7165D02*
Y7225D01*
X6878D01*
X6888Y7215D01*
Y7195D01*
X6878Y7185D01*
X6848D01*
X6868D02*
X6888Y7165D01*
X6909Y7352D02*
Y7392D01*
X6889Y7372D02*
X6929D01*
X6879Y7452D02*
Y7412D01*
X6909D01*
X6899Y7432D01*
Y7442D01*
X6909Y7452D01*
X6929D01*
X6939Y7442D01*
Y7422D01*
X6929Y7412D01*
X6879Y7472D02*
X6919D01*
X6939Y7492D01*
X6919Y7512D01*
X6879D01*
X7255Y7668D02*
X7215D01*
Y7638D01*
X7235D01*
X7215D01*
Y7608D01*
X7275D02*
Y7668D01*
X7305D01*
X7315Y7658D01*
Y7638D01*
X7305Y7628D01*
X7275D01*
X7375Y7658D02*
X7365Y7668D01*
X7345D01*
X7335Y7658D01*
Y7618D01*
X7345Y7608D01*
X7365D01*
X7375Y7618D01*
Y7638D01*
X7355D01*
X7395Y7608D02*
Y7648D01*
X7415Y7668D01*
X7434Y7648D01*
Y7608D01*
Y7638D01*
X7395D01*
X7554Y7668D02*
X7534D01*
X7544D01*
Y7618D01*
X7534Y7608D01*
X7524D01*
X7514Y7618D01*
X7574Y7668D02*
X7614D01*
X7594D01*
Y7608D01*
X7634D02*
Y7648D01*
X7654Y7668D01*
X7674Y7648D01*
Y7608D01*
Y7638D01*
X7634D01*
X7734Y7658D02*
X7724Y7668D01*
X7704D01*
X7694Y7658D01*
Y7618D01*
X7704Y7608D01*
X7724D01*
X7734Y7618D01*
Y7638D01*
X7714D01*
X8465Y7283D02*
Y7343D01*
X8495D01*
X8505Y7333D01*
Y7313D01*
X8495Y7303D01*
X8465D01*
X8555Y7343D02*
X8535D01*
X8525Y7333D01*
Y7293D01*
X8535Y7283D01*
X8555D01*
X8565Y7293D01*
Y7333D01*
X8555Y7343D01*
X8585D02*
Y7283D01*
X8605Y7303D01*
X8625Y7283D01*
Y7343D01*
X8684D02*
X8645D01*
Y7283D01*
X8684D01*
X8645Y7313D02*
X8665D01*
X8704Y7283D02*
Y7343D01*
X8734D01*
X8744Y7333D01*
Y7313D01*
X8734Y7303D01*
X8704D01*
X8724D02*
X8744Y7283D01*
X8888Y7343D02*
X8848D01*
Y7283D01*
X8888D01*
X8848Y7313D02*
X8868D01*
X8908Y7343D02*
Y7303D01*
X8928Y7283D01*
X8948Y7303D01*
Y7343D01*
X9008D02*
X8968D01*
Y7283D01*
X9008D01*
X8968Y7313D02*
X8988D01*
X9028Y7283D02*
Y7343D01*
X9068Y7283D01*
Y7343D01*
X9088D02*
X9128D01*
X9108D01*
Y7283D01*
X9272Y7343D02*
Y7283D01*
X9302D01*
X9312Y7293D01*
Y7333D01*
X9302Y7343D01*
X9272D01*
X9332Y7283D02*
Y7323D01*
X9352Y7343D01*
X9372Y7323D01*
Y7283D01*
Y7313D01*
X9332D01*
X9392Y7343D02*
X9432D01*
X9412D01*
Y7283D01*
X9452D02*
Y7323D01*
X9472Y7343D01*
X9492Y7323D01*
Y7283D01*
Y7313D01*
X9452D01*
M02*
