%FSLAX24Y24*%
%MOIN*%
G70*
G01*
G75*
G04 Layer_Physical_Order=3*
G04 Layer_Color=128*
%ADD10R,0.0866X0.1024*%
%ADD11R,0.1024X0.0866*%
%ADD12R,0.0394X0.0433*%
%ADD13R,0.0630X0.0512*%
%ADD14C,0.0157*%
%ADD15R,0.1929X0.0866*%
%ADD16R,0.1929X0.0898*%
%ADD17R,0.0500X0.1500*%
%ADD18R,0.2900X0.3000*%
%ADD19R,0.0709X0.0630*%
%ADD20R,0.0630X0.0709*%
%ADD21R,0.1500X0.0500*%
%ADD22R,0.3000X0.2900*%
%ADD23R,0.0709X0.0157*%
%ADD24R,0.0433X0.0394*%
%ADD25R,0.0197X0.0748*%
%ADD26R,0.0748X0.0197*%
%ADD27R,0.0157X0.0709*%
%ADD28R,0.1575X0.0335*%
%ADD29R,0.0787X0.0551*%
%ADD30C,0.0060*%
%ADD31C,0.0300*%
%ADD32C,0.0080*%
%ADD33C,0.0100*%
%ADD34C,0.0200*%
%ADD35C,0.0090*%
%ADD36C,0.0070*%
%ADD37C,0.0180*%
%ADD38C,0.0160*%
%ADD39C,0.0140*%
%ADD40C,0.0120*%
%ADD41C,0.0866*%
%ADD42C,0.0700*%
%ADD43R,0.0591X0.0591*%
%ADD44C,0.0591*%
%ADD45C,0.0550*%
%ADD46C,0.1300*%
%ADD47C,0.1063*%
%ADD48C,0.1600*%
%ADD49C,0.0669*%
%ADD50C,0.0200*%
%ADD51C,0.0400*%
%ADD52C,0.0300*%
%ADD53C,0.0500*%
%ADD54C,0.0240*%
G36*
X91865Y45013D02*
X91895Y44993D01*
X91930Y44986D01*
X92285D01*
X92650Y44620D01*
X92680Y44600D01*
X92715Y44593D01*
X96283D01*
X96306Y44551D01*
X96294Y44488D01*
X96306Y44426D01*
X96283Y44383D01*
X92763D01*
X92388Y44759D01*
X92358Y44778D01*
X92323Y44785D01*
X91958D01*
X88680Y48064D01*
X88699Y48110D01*
X88768D01*
X91865Y45013D01*
D02*
G37*
G36*
X104034Y32451D02*
X104010Y32406D01*
X103969Y32415D01*
X103941Y32409D01*
X103687Y32663D01*
X103657Y32683D01*
X103622Y32690D01*
X99523D01*
X99495Y32732D01*
X99499Y32743D01*
X103742D01*
X104034Y32451D01*
D02*
G37*
G36*
X99187Y34856D02*
X99217Y34836D01*
X99223Y34835D01*
X99252Y34829D01*
X102463D01*
X102484Y34790D01*
X102471Y34728D01*
X102484Y34666D01*
X102519Y34613D01*
X102572Y34577D01*
X102634Y34565D01*
X102697Y34577D01*
X102750Y34613D01*
X102785Y34666D01*
X102797Y34728D01*
X102785Y34790D01*
X102806Y34829D01*
X104803D01*
Y34462D01*
X102164D01*
X101915Y34711D01*
X101886Y34730D01*
X101850Y34737D01*
X99172D01*
X97336Y36573D01*
Y36641D01*
X97343Y36645D01*
X97382Y36661D01*
X99187Y34856D01*
D02*
G37*
G36*
X99409Y38294D02*
X99765D01*
X100065Y37994D01*
X100041Y37950D01*
X100000Y37958D01*
X99938Y37946D01*
X99885Y37911D01*
X99849Y37858D01*
X99837Y37795D01*
X99849Y37733D01*
X99885Y37680D01*
X99938Y37645D01*
X100000Y37632D01*
X100062Y37645D01*
X100115Y37680D01*
X100151Y37733D01*
X100163Y37795D01*
X100155Y37837D01*
X100199Y37860D01*
X100459Y37601D01*
X100435Y37556D01*
X100394Y37565D01*
X100331Y37552D01*
X100278Y37517D01*
X100243Y37464D01*
X100231Y37402D01*
X100243Y37339D01*
X100278Y37286D01*
X100331Y37251D01*
X100394Y37238D01*
X100456Y37251D01*
X100509Y37286D01*
X100544Y37339D01*
X100557Y37402D01*
X100549Y37443D01*
X100593Y37466D01*
X101352Y36707D01*
X101382Y36687D01*
X101388Y36686D01*
X101417Y36680D01*
X104803D01*
Y36627D01*
X100510D01*
X99541Y37596D01*
X99565Y37641D01*
X99606Y37632D01*
X99669Y37645D01*
X99721Y37680D01*
X99757Y37733D01*
X99769Y37795D01*
X99757Y37858D01*
X99721Y37911D01*
X99669Y37946D01*
X99606Y37959D01*
X99544Y37946D01*
X99491Y37911D01*
X99455Y37858D01*
X99443Y37795D01*
X99451Y37754D01*
X99407Y37731D01*
X99148Y37990D01*
X99171Y38034D01*
X99213Y38026D01*
X99275Y38038D01*
X99328Y38074D01*
X99363Y38127D01*
X99376Y38189D01*
X99363Y38251D01*
X99360Y38257D01*
X99387Y38298D01*
X99409Y38294D01*
D02*
G37*
G36*
X104803Y35013D02*
X99290D01*
X99205Y35098D01*
X99224Y35144D01*
X104803D01*
Y35013D01*
D02*
G37*
G36*
X98138Y37710D02*
X98144Y37681D01*
X98163Y37652D01*
X98239Y37577D01*
X98230Y37532D01*
X98228Y37525D01*
X98166Y37513D01*
X98113Y37478D01*
X98078Y37425D01*
X98065Y37362D01*
X98078Y37300D01*
X98113Y37247D01*
X98166Y37211D01*
X98228Y37199D01*
X98291Y37211D01*
X98344Y37247D01*
X98379Y37300D01*
X98391Y37361D01*
X98399Y37364D01*
X98443Y37372D01*
X100171Y35644D01*
X100201Y35624D01*
X100236Y35617D01*
X104803D01*
Y35525D01*
X99644D01*
X97926Y37243D01*
Y37560D01*
X98090Y37724D01*
X98138Y37710D01*
D02*
G37*
G36*
X91975Y37858D02*
X91963Y37795D01*
X91975Y37733D01*
X92011Y37680D01*
X92064Y37645D01*
X92092Y37639D01*
X92107Y37591D01*
X91773Y37257D01*
X91153D01*
X91134Y37303D01*
X91537Y37707D01*
X91581Y37693D01*
X91617Y37640D01*
X91670Y37605D01*
X91732Y37593D01*
X91795Y37605D01*
X91847Y37640D01*
X91883Y37693D01*
X91895Y37756D01*
X91883Y37818D01*
X91847Y37871D01*
X91856Y37900D01*
X91953D01*
X91975Y37858D01*
D02*
G37*
G36*
X93208Y37905D02*
X93215Y37900D01*
Y37833D01*
X92482Y37100D01*
X91940D01*
X91921Y37146D01*
X92282Y37507D01*
X92716D01*
X92751Y37514D01*
X92781Y37533D01*
X93169Y37921D01*
X93208Y37905D01*
D02*
G37*
G36*
X91386Y35216D02*
X90762Y34592D01*
X90742Y34563D01*
X90735Y34528D01*
Y34132D01*
X90654Y34052D01*
X90613Y34080D01*
X90626Y34113D01*
X90638Y34200D01*
X90626Y34287D01*
X90593Y34369D01*
X90539Y34439D01*
X90469Y34493D01*
X90387Y34526D01*
X90300Y34538D01*
X90213Y34526D01*
X90131Y34493D01*
X90061Y34439D01*
X90007Y34369D01*
X89974Y34287D01*
X89962Y34200D01*
X89974Y34113D01*
X90007Y34031D01*
X90061Y33961D01*
X90131Y33907D01*
X90213Y33874D01*
X90300Y33862D01*
X90387Y33874D01*
X90420Y33887D01*
X90448Y33846D01*
X90250Y33648D01*
X90230Y33618D01*
X90223Y33583D01*
Y33384D01*
X90164Y33325D01*
X90122Y33353D01*
X90126Y33363D01*
X90138Y33450D01*
X90126Y33537D01*
X90093Y33619D01*
X90039Y33689D01*
X89969Y33743D01*
X89887Y33776D01*
X89800Y33788D01*
X89722Y33778D01*
X89700Y33823D01*
X89868Y33990D01*
X89888Y34020D01*
X89895Y34055D01*
Y34450D01*
X90707Y35263D01*
X91367D01*
X91386Y35216D01*
D02*
G37*
G36*
X84378Y37185D02*
X81746Y34553D01*
X81726Y34523D01*
X81719Y34488D01*
Y34132D01*
X81665Y34079D01*
X81624Y34106D01*
X81626Y34113D01*
X81638Y34200D01*
X81626Y34287D01*
X81593Y34369D01*
X81539Y34439D01*
X81469Y34493D01*
X81387Y34526D01*
X81300Y34538D01*
X81213Y34526D01*
X81131Y34493D01*
X81061Y34439D01*
X81007Y34369D01*
X80974Y34287D01*
X80968Y34248D01*
X80919Y34251D01*
Y34490D01*
X83660Y37231D01*
X84359D01*
X84378Y37185D01*
D02*
G37*
G36*
X94488Y38026D02*
X94551Y38038D01*
X94593Y38015D01*
Y36495D01*
X93978Y35879D01*
X89016D01*
X88981Y35872D01*
X88951Y35852D01*
X87730Y34632D01*
X87711Y34602D01*
X87704Y34567D01*
Y34093D01*
X87649Y34038D01*
X87607Y34066D01*
X87626Y34113D01*
X87638Y34200D01*
X87626Y34287D01*
X87593Y34369D01*
X87539Y34439D01*
X87469Y34493D01*
X87387Y34526D01*
X87300Y34538D01*
X87213Y34526D01*
X87131Y34493D01*
X87061Y34439D01*
X87007Y34369D01*
X86991Y34330D01*
X86942Y34340D01*
Y34529D01*
X88345Y35932D01*
X93740D01*
X93775Y35939D01*
X93805Y35959D01*
X94356Y36510D01*
X94376Y36540D01*
X94383Y36575D01*
Y38015D01*
X94426Y38038D01*
X94488Y38026D01*
D02*
G37*
G36*
X83480Y35964D02*
X83487Y35916D01*
X83513Y35853D01*
X83555Y35799D01*
X83609Y35757D01*
X83672Y35731D01*
X83720Y35725D01*
X83736Y35677D01*
X82730Y34671D01*
X82711Y34641D01*
X82704Y34606D01*
Y34093D01*
X82649Y34038D01*
X82607Y34066D01*
X82626Y34113D01*
X82638Y34200D01*
X82626Y34287D01*
X82593Y34369D01*
X82539Y34439D01*
X82469Y34493D01*
X82387Y34526D01*
X82300Y34538D01*
X82213Y34526D01*
X82131Y34493D01*
X82061Y34439D01*
X82007Y34369D01*
X81974Y34287D01*
X81962Y34200D01*
X81974Y34113D01*
X82007Y34031D01*
X82061Y33961D01*
X82131Y33907D01*
X82213Y33874D01*
X82300Y33862D01*
X82387Y33874D01*
X82434Y33893D01*
X82462Y33851D01*
X82235Y33625D01*
X82215Y33595D01*
X82208Y33560D01*
Y33025D01*
X82131Y32993D01*
X82061Y32939D01*
X82007Y32869D01*
X81974Y32787D01*
X81962Y32700D01*
X81974Y32613D01*
X81986Y32584D01*
X81944Y32556D01*
X81892Y32608D01*
Y33125D01*
X81969Y33157D01*
X82039Y33211D01*
X82093Y33281D01*
X82126Y33363D01*
X82138Y33450D01*
X82126Y33537D01*
X82093Y33619D01*
X82039Y33689D01*
X81969Y33743D01*
X81887Y33776D01*
X81800Y33788D01*
X81713Y33776D01*
X81678Y33762D01*
X81650Y33803D01*
X81876Y34030D01*
X81896Y34059D01*
X81903Y34094D01*
Y34450D01*
X83433Y35980D01*
X83480Y35964D01*
D02*
G37*
G36*
X99069Y34581D02*
X99099Y34561D01*
X99105Y34560D01*
X99134Y34554D01*
X101423D01*
X101428Y34504D01*
X101381Y34495D01*
X101328Y34459D01*
X101293Y34407D01*
X101280Y34344D01*
X101293Y34282D01*
X101327Y34230D01*
X101318Y34214D01*
X101300Y34186D01*
X99290D01*
X97139Y36337D01*
Y36444D01*
X97146Y36448D01*
X97185Y36465D01*
X99069Y34581D01*
D02*
G37*
G36*
X102061Y34305D02*
X102091Y34285D01*
X102126Y34278D01*
X104803D01*
Y34186D01*
X101587D01*
X101568Y34214D01*
X101560Y34230D01*
X101594Y34282D01*
X101606Y34344D01*
X101594Y34407D01*
X101559Y34459D01*
X101506Y34495D01*
X101459Y34504D01*
X101464Y34554D01*
X101812D01*
X102061Y34305D01*
D02*
G37*
G36*
X88220Y36122D02*
X88236Y36083D01*
X86786Y34632D01*
X86766Y34602D01*
X86759Y34567D01*
Y34172D01*
X86665Y34079D01*
X86624Y34106D01*
X86626Y34113D01*
X86638Y34200D01*
X86626Y34287D01*
X86593Y34369D01*
X86539Y34439D01*
X86469Y34493D01*
X86387Y34526D01*
X86300Y34538D01*
X86213Y34526D01*
X86131Y34493D01*
X86061Y34439D01*
X86007Y34369D01*
X85974Y34287D01*
X85968Y34248D01*
X85919Y34251D01*
Y34568D01*
X87479Y36129D01*
X88215D01*
X88220Y36122D01*
D02*
G37*
G36*
X95571Y35818D02*
X95578Y35814D01*
Y35668D01*
X94962Y35052D01*
X92283D01*
X92254Y35047D01*
X92248Y35045D01*
X92219Y35026D01*
X91746Y34553D01*
X91726Y34523D01*
X91719Y34488D01*
Y34132D01*
X91665Y34079D01*
X91624Y34106D01*
X91626Y34113D01*
X91638Y34200D01*
X91626Y34287D01*
X91593Y34369D01*
X91539Y34439D01*
X91469Y34493D01*
X91387Y34526D01*
X91300Y34538D01*
X91213Y34526D01*
X91131Y34493D01*
X91061Y34439D01*
X91007Y34369D01*
X90974Y34287D01*
X90968Y34248D01*
X90919Y34251D01*
Y34490D01*
X91534Y35105D01*
X94764D01*
X94799Y35112D01*
X94829Y35132D01*
X95531Y35835D01*
X95571Y35818D01*
D02*
G37*
G36*
X96850Y38026D02*
X96913Y38038D01*
X96955Y38015D01*
Y36355D01*
X96913Y36332D01*
X96850Y36344D01*
X96788Y36332D01*
X96745Y36355D01*
Y38015D01*
X96788Y38038D01*
X96850Y38026D01*
D02*
G37*
G36*
X85087Y37027D02*
X84047Y35988D01*
X84000Y36004D01*
X83993Y36052D01*
X83967Y36115D01*
X83925Y36170D01*
X83871Y36211D01*
X83808Y36237D01*
X83740Y36246D01*
X83726Y36274D01*
X84526Y37074D01*
X85067D01*
X85087Y37027D01*
D02*
G37*
G36*
X98530Y46222D02*
Y45449D01*
X98488Y45426D01*
X98425Y45439D01*
X98363Y45426D01*
X98320Y45449D01*
Y45866D01*
X98313Y45901D01*
X98293Y45931D01*
X98221Y46004D01*
X98228Y46018D01*
X98291Y46030D01*
X98344Y46066D01*
X98379Y46119D01*
X98391Y46181D01*
X98379Y46244D01*
X98344Y46296D01*
X98291Y46332D01*
X98228Y46344D01*
X98166Y46332D01*
X98113Y46296D01*
X98078Y46244D01*
X98072Y46215D01*
X98024Y46200D01*
X97926Y46298D01*
Y46761D01*
X97972Y46780D01*
X98530Y46222D01*
D02*
G37*
G36*
X104803Y37368D02*
X104741Y37355D01*
X104688Y37320D01*
X104652Y37267D01*
X104640Y37205D01*
X104652Y37142D01*
X104688Y37089D01*
X104741Y37054D01*
X104803Y37042D01*
Y36863D01*
X102705D01*
X102691Y36911D01*
X102698Y36916D01*
X102733Y36969D01*
X102745Y37031D01*
X102733Y37094D01*
X102698Y37146D01*
X102645Y37182D01*
X102582Y37194D01*
X102520Y37182D01*
X102467Y37146D01*
X102432Y37094D01*
X102419Y37031D01*
X102432Y36969D01*
X102467Y36916D01*
X102474Y36911D01*
X102459Y36863D01*
X101455D01*
X99868Y38451D01*
X99838Y38471D01*
X99803Y38478D01*
X99780D01*
X99757Y38520D01*
X99769Y38583D01*
X99757Y38645D01*
X99722Y38698D01*
X99669Y38733D01*
X99606Y38746D01*
X99544Y38733D01*
X99491Y38698D01*
X99456Y38645D01*
X99443Y38583D01*
X99451Y38541D01*
X99407Y38518D01*
X99148Y38777D01*
X99171Y38821D01*
X99212Y38813D01*
X99275Y38826D01*
X99328Y38861D01*
X99363Y38914D01*
X99376Y38976D01*
X99363Y39039D01*
X99328Y39092D01*
X99275Y39127D01*
X99212Y39139D01*
X99150Y39127D01*
X99097Y39092D01*
X99062Y39039D01*
X99049Y38976D01*
X99062Y38914D01*
X99065Y38909D01*
X99040Y38871D01*
X99041Y38872D01*
X98991Y38874D01*
X98970Y38914D01*
X98982Y38976D01*
X98970Y39039D01*
X98934Y39092D01*
X98881Y39127D01*
X98819Y39140D01*
X98756Y39127D01*
X98704Y39092D01*
X98668Y39039D01*
X98656Y38976D01*
X98668Y38914D01*
X98647Y38874D01*
X98597D01*
X98576Y38914D01*
X98588Y38976D01*
X98576Y39039D01*
X98541Y39092D01*
X98488Y39127D01*
X98425Y39140D01*
X98363Y39127D01*
X98310Y39092D01*
X98274Y39039D01*
X98262Y38976D01*
X98274Y38914D01*
X98263Y38892D01*
X98213Y38885D01*
X98150Y38949D01*
X98155Y38976D01*
X98143Y39039D01*
X98107Y39092D01*
X98055Y39127D01*
X97992Y39140D01*
X97930Y39127D01*
X97877Y39092D01*
X97841Y39039D01*
X97840Y39032D01*
X97790D01*
X97789Y39039D01*
X97753Y39092D01*
X97700Y39127D01*
X97638Y39140D01*
X97575Y39127D01*
X97522Y39092D01*
X97487Y39039D01*
X97475Y38976D01*
X97480Y38949D01*
X97443Y38911D01*
X97399Y38935D01*
X97407Y38976D01*
X97395Y39039D01*
X97359Y39092D01*
X97307Y39127D01*
X97244Y39140D01*
X97182Y39127D01*
X97129Y39092D01*
X97093Y39039D01*
X97081Y38976D01*
X97086Y38949D01*
X97049Y38911D01*
X97005Y38935D01*
X97014Y38976D01*
X97001Y39039D01*
X96966Y39092D01*
X96913Y39127D01*
X96850Y39140D01*
X96788Y39127D01*
X96745Y39150D01*
Y39173D01*
X96741Y39195D01*
X96783Y39223D01*
X96788Y39219D01*
X96850Y39207D01*
X96913Y39219D01*
X96966Y39255D01*
X97001Y39308D01*
X97014Y39370D01*
X97001Y39433D01*
X96966Y39485D01*
X96913Y39521D01*
X96850Y39533D01*
X96788Y39521D01*
X96735Y39485D01*
X96700Y39433D01*
X96687Y39370D01*
X96695Y39329D01*
X96651Y39305D01*
X96614Y39342D01*
X96620Y39370D01*
X96607Y39433D01*
X96572Y39485D01*
X96519Y39521D01*
X96457Y39533D01*
X96394Y39521D01*
X96341Y39485D01*
X96306Y39433D01*
X96294Y39370D01*
X96306Y39308D01*
X96341Y39255D01*
X96394Y39219D01*
X96457Y39207D01*
X96485Y39212D01*
X96522Y39175D01*
X96498Y39131D01*
X96457Y39140D01*
X96394Y39127D01*
X96341Y39092D01*
X96306Y39039D01*
X96294Y38976D01*
X96306Y38914D01*
X96341Y38861D01*
X96394Y38826D01*
X96457Y38813D01*
X96519Y38826D01*
X96559Y38805D01*
Y38755D01*
X96519Y38733D01*
X96457Y38746D01*
X96394Y38733D01*
X96341Y38698D01*
X96306Y38645D01*
X96294Y38583D01*
X96299Y38555D01*
X96262Y38518D01*
X96218Y38541D01*
X96226Y38583D01*
X96214Y38645D01*
X96178Y38698D01*
X96125Y38733D01*
X96063Y38746D01*
X96022Y38738D01*
X95998Y38782D01*
X96035Y38819D01*
X96063Y38813D01*
X96125Y38826D01*
X96178Y38861D01*
X96214Y38914D01*
X96226Y38976D01*
X96214Y39039D01*
X96178Y39092D01*
X96125Y39127D01*
X96063Y39140D01*
X96001Y39127D01*
X95948Y39092D01*
X95912Y39039D01*
X95900Y38976D01*
X95905Y38949D01*
X95868Y38911D01*
X95824Y38935D01*
X95832Y38976D01*
X95820Y39039D01*
X95785Y39092D01*
X95732Y39127D01*
X95669Y39140D01*
X95607Y39127D01*
X95554Y39092D01*
X95519Y39039D01*
X95506Y38976D01*
X95519Y38914D01*
X95554Y38861D01*
X95607Y38826D01*
X95669Y38813D01*
X95732Y38826D01*
X95737Y38829D01*
X95774Y38805D01*
X95772Y38755D01*
X95732Y38733D01*
X95669Y38746D01*
X95607Y38733D01*
X95554Y38698D01*
X95519Y38645D01*
X95506Y38583D01*
X95512Y38555D01*
X95475Y38518D01*
X95430Y38541D01*
X95439Y38583D01*
X95426Y38645D01*
X95391Y38698D01*
X95338Y38733D01*
X95276Y38746D01*
X95213Y38733D01*
X95160Y38698D01*
X95125Y38645D01*
X95112Y38583D01*
X95118Y38555D01*
X95081Y38518D01*
X95037Y38541D01*
X95045Y38583D01*
X95033Y38645D01*
X94997Y38698D01*
X94944Y38733D01*
X94882Y38746D01*
X94819Y38733D01*
X94767Y38698D01*
X94731Y38645D01*
X94719Y38583D01*
X94724Y38555D01*
X94687Y38518D01*
X94643Y38541D01*
X94651Y38583D01*
X94639Y38645D01*
X94604Y38698D01*
X94551Y38733D01*
X94488Y38746D01*
X94426Y38733D01*
X94373Y38698D01*
X94337Y38645D01*
X94325Y38583D01*
X94331Y38555D01*
X94293Y38518D01*
X94249Y38541D01*
X94258Y38583D01*
X94245Y38645D01*
X94210Y38698D01*
X94157Y38733D01*
X94094Y38746D01*
X94032Y38733D01*
X93979Y38698D01*
X93944Y38645D01*
X93931Y38583D01*
X93937Y38555D01*
X93900Y38518D01*
X93856Y38541D01*
X93864Y38583D01*
X93851Y38645D01*
X93816Y38698D01*
X93763Y38733D01*
X93701Y38746D01*
X93638Y38733D01*
X93585Y38698D01*
X93550Y38645D01*
X93538Y38583D01*
X93543Y38555D01*
X93506Y38518D01*
X93462Y38541D01*
X93470Y38583D01*
X93464Y38616D01*
X93471Y38626D01*
X93478Y38661D01*
X93471Y38697D01*
X93451Y38726D01*
X93421Y38746D01*
X93386Y38753D01*
X93351Y38746D01*
X93340Y38739D01*
X93307Y38746D01*
X93245Y38733D01*
X93192Y38698D01*
X93156Y38645D01*
X93144Y38583D01*
X93149Y38555D01*
X93112Y38518D01*
X93068Y38541D01*
X93077Y38583D01*
X93064Y38645D01*
X93029Y38698D01*
X92976Y38733D01*
X92913Y38746D01*
X92851Y38733D01*
X92798Y38698D01*
X92763Y38645D01*
X92750Y38583D01*
X92755Y38561D01*
X92720Y38527D01*
X92676Y38550D01*
X92683Y38583D01*
X92670Y38645D01*
X92635Y38698D01*
X92582Y38733D01*
X92520Y38746D01*
X92457Y38733D01*
X92404Y38698D01*
X92392Y38680D01*
X91575D01*
X91538Y38672D01*
X91506Y38651D01*
X90995Y38139D01*
X90994Y38138D01*
X90948Y38107D01*
X90912Y38055D01*
X90900Y37992D01*
X90912Y37930D01*
X90948Y37877D01*
X91001Y37841D01*
X91063Y37829D01*
X91125Y37841D01*
X91178Y37877D01*
Y37877D01*
X91178Y37877D01*
X91188Y37851D01*
Y37851D01*
X91188Y37851D01*
X91223Y37798D01*
X91276Y37763D01*
X91290Y37719D01*
X90986Y37415D01*
X83622D01*
X83587Y37408D01*
X83557Y37388D01*
X80762Y34592D01*
X80742Y34563D01*
X80735Y34528D01*
Y34132D01*
X80654Y34052D01*
X80613Y34080D01*
X80626Y34113D01*
X80638Y34200D01*
X80626Y34287D01*
X80593Y34369D01*
X80539Y34439D01*
X80469Y34493D01*
X80387Y34526D01*
X80300Y34538D01*
X80213Y34526D01*
X80131Y34493D01*
X80061Y34439D01*
X80007Y34369D01*
X79974Y34287D01*
X79962Y34200D01*
X79974Y34113D01*
X80007Y34031D01*
X80061Y33961D01*
X80131Y33907D01*
X80213Y33874D01*
X80300Y33862D01*
X80387Y33874D01*
X80420Y33887D01*
X80448Y33846D01*
X80250Y33648D01*
X80230Y33618D01*
X80223Y33583D01*
Y33384D01*
X80164Y33325D01*
X80122Y33353D01*
X80126Y33363D01*
X80138Y33450D01*
X80126Y33537D01*
X80093Y33619D01*
X80039Y33689D01*
X79969Y33743D01*
X79887Y33776D01*
X79800Y33788D01*
X79713Y33776D01*
X79631Y33743D01*
X79561Y33689D01*
X79507Y33619D01*
X79474Y33537D01*
X79462Y33450D01*
X79474Y33363D01*
X79507Y33281D01*
X79561Y33211D01*
X79631Y33157D01*
X79713Y33124D01*
X79800Y33112D01*
X79887Y33124D01*
X79897Y33128D01*
X79925Y33086D01*
X79735Y32896D01*
X79715Y32867D01*
X79708Y32831D01*
Y32275D01*
X79631Y32243D01*
X79561Y32189D01*
X79507Y32119D01*
X79474Y32037D01*
X79462Y31950D01*
X79474Y31863D01*
X79507Y31781D01*
X79561Y31711D01*
X79631Y31657D01*
X79713Y31624D01*
X79800Y31612D01*
X79887Y31624D01*
X79969Y31657D01*
X80039Y31711D01*
X80093Y31781D01*
X80126Y31863D01*
X80138Y31950D01*
X80126Y32037D01*
X80093Y32119D01*
X80039Y32189D01*
X79969Y32243D01*
X79892Y32275D01*
Y32793D01*
X79945Y32847D01*
X79987Y32819D01*
X79974Y32787D01*
X79962Y32700D01*
X79974Y32613D01*
X80007Y32531D01*
X80061Y32461D01*
X80131Y32407D01*
X80213Y32374D01*
X80300Y32362D01*
X80387Y32374D01*
X80469Y32407D01*
X80539Y32461D01*
X80593Y32531D01*
X80626Y32613D01*
X80638Y32700D01*
X80626Y32787D01*
X80593Y32869D01*
X80539Y32939D01*
X80469Y32993D01*
X80387Y33026D01*
X80300Y33038D01*
X80213Y33026D01*
X80181Y33013D01*
X80153Y33055D01*
X80380Y33282D01*
X80400Y33311D01*
X80407Y33346D01*
Y33540D01*
X80451Y33563D01*
X80477Y33546D01*
X80474Y33537D01*
X80462Y33450D01*
X80474Y33363D01*
X80507Y33281D01*
X80561Y33211D01*
X80631Y33157D01*
X80713Y33124D01*
X80800Y33112D01*
X80887Y33124D01*
X80937Y33144D01*
X80965Y33103D01*
X80735Y32873D01*
X80715Y32843D01*
X80708Y32808D01*
Y32275D01*
X80631Y32243D01*
X80561Y32189D01*
X80507Y32119D01*
X80474Y32037D01*
X80462Y31950D01*
X80474Y31863D01*
X80507Y31781D01*
X80561Y31711D01*
X80631Y31657D01*
X80713Y31624D01*
X80800Y31612D01*
X80887Y31624D01*
X80969Y31657D01*
X81039Y31711D01*
X81093Y31781D01*
X81126Y31863D01*
X81138Y31950D01*
X81126Y32037D01*
X81093Y32119D01*
X81039Y32189D01*
X80969Y32243D01*
X80892Y32275D01*
Y32770D01*
X80928Y32806D01*
X80932Y32805D01*
X80973Y32784D01*
X80962Y32700D01*
X80974Y32613D01*
X81007Y32531D01*
X81061Y32461D01*
X81131Y32407D01*
X81213Y32374D01*
X81300Y32362D01*
X81387Y32374D01*
X81469Y32407D01*
X81539Y32461D01*
X81593Y32531D01*
X81626Y32613D01*
X81638Y32700D01*
X81626Y32787D01*
X81593Y32869D01*
X81539Y32939D01*
X81469Y32993D01*
X81387Y33026D01*
X81300Y33038D01*
X81216Y33027D01*
X81195Y33068D01*
X81194Y33072D01*
X81364Y33242D01*
X81384Y33272D01*
X81391Y33307D01*
Y33545D01*
X81447Y33600D01*
X81488Y33572D01*
X81474Y33537D01*
X81462Y33450D01*
X81474Y33363D01*
X81507Y33281D01*
X81561Y33211D01*
X81631Y33157D01*
X81708Y33125D01*
Y32570D01*
X81715Y32535D01*
X81735Y32505D01*
X81927Y32313D01*
X81900Y32271D01*
X81887Y32276D01*
X81800Y32288D01*
X81713Y32276D01*
X81631Y32243D01*
X81561Y32189D01*
X81507Y32119D01*
X81474Y32037D01*
X81462Y31950D01*
X81474Y31863D01*
X81507Y31781D01*
X81561Y31711D01*
X81631Y31657D01*
X81713Y31624D01*
X81800Y31612D01*
X81887Y31624D01*
X81969Y31657D01*
X82039Y31711D01*
X82093Y31781D01*
X82126Y31863D01*
X82138Y31950D01*
X82126Y32037D01*
X82121Y32050D01*
X82163Y32077D01*
X82231Y32009D01*
Y31732D01*
X82238Y31697D01*
X82258Y31667D01*
X82730Y31195D01*
X82760Y31175D01*
X82766Y31174D01*
X82795Y31168D01*
X94803D01*
X94838Y31175D01*
X94868Y31195D01*
X95931Y32258D01*
X95951Y32288D01*
X95958Y32323D01*
Y35893D01*
X95965Y35897D01*
X96004Y35913D01*
X96195Y35723D01*
X96195Y35723D01*
X99384Y32534D01*
X99414Y32514D01*
X99449Y32507D01*
X103584D01*
X103811Y32279D01*
X103806Y32252D01*
X103818Y32189D01*
X103854Y32136D01*
X103906Y32101D01*
X103969Y32088D01*
X104031Y32101D01*
X104084Y32136D01*
X104120Y32189D01*
X104126Y32219D01*
X104162Y32239D01*
D01*
D01*
X104162Y32239D01*
D01*
X104225Y32226D01*
X104287Y32239D01*
X104340Y32274D01*
X104376Y32327D01*
X104387Y32386D01*
X104429Y32414D01*
X104481Y32403D01*
X104543Y32416D01*
X104596Y32451D01*
X104631Y32504D01*
X104644Y32567D01*
X104631Y32629D01*
X104596Y32682D01*
X104543Y32717D01*
X104481Y32730D01*
X104453Y32724D01*
X104002Y33175D01*
X103972Y33195D01*
X103937Y33202D01*
X99670D01*
X99644Y33245D01*
X99653Y33261D01*
X99656Y33261D01*
X99685Y33255D01*
X104214D01*
X104579Y32890D01*
X104573Y32862D01*
X104586Y32799D01*
X104621Y32746D01*
X104674Y32711D01*
X104737Y32699D01*
X104764Y32704D01*
X104803Y32672D01*
Y30612D01*
X103771D01*
X103766Y30662D01*
X103775Y30664D01*
X103828Y30699D01*
X103864Y30752D01*
X103876Y30815D01*
X103864Y30877D01*
X103828Y30930D01*
X103775Y30965D01*
X103713Y30978D01*
X103651Y30965D01*
X103598Y30930D01*
X103562Y30877D01*
X103550Y30815D01*
X103562Y30752D01*
X103598Y30699D01*
X103651Y30664D01*
X103660Y30662D01*
X103655Y30612D01*
X30512D01*
Y48110D01*
X82705D01*
X87323Y43492D01*
X87317Y43465D01*
X87330Y43402D01*
X87365Y43349D01*
X87418Y43314D01*
X87480Y43301D01*
X87543Y43314D01*
X87596Y43349D01*
X87631Y43402D01*
X87643Y43465D01*
X87631Y43527D01*
X87596Y43580D01*
X87574Y43595D01*
X87591Y43641D01*
X87638Y43635D01*
X87705Y43644D01*
X87769Y43670D01*
X87823Y43712D01*
X87865Y43766D01*
X87891Y43830D01*
X87900Y43898D01*
X87891Y43965D01*
X87865Y44029D01*
X87823Y44083D01*
X87769Y44125D01*
X87705Y44151D01*
X87638Y44160D01*
X87570Y44151D01*
X87507Y44125D01*
X87452Y44083D01*
X87411Y44029D01*
X87384Y43965D01*
X87375Y43898D01*
X87384Y43830D01*
X87411Y43766D01*
X87452Y43712D01*
X87503Y43673D01*
X87490Y43643D01*
X87441Y43634D01*
X83011Y48064D01*
X83030Y48110D01*
X87152D01*
Y44462D01*
X87129Y44446D01*
X87093Y44393D01*
X87081Y44331D01*
X87093Y44268D01*
X87129Y44215D01*
X87182Y44180D01*
X87244Y44168D01*
X87307Y44180D01*
X87359Y44215D01*
X87395Y44268D01*
X87407Y44331D01*
X87395Y44393D01*
X87359Y44446D01*
X87336Y44462D01*
Y48110D01*
X88374D01*
X91855Y44629D01*
X91885Y44609D01*
X91920Y44602D01*
X92285D01*
X92595Y44291D01*
X92572Y44247D01*
X92520Y44258D01*
X92492Y44252D01*
X92230Y44514D01*
X92200Y44534D01*
X92165Y44541D01*
X91352D01*
X91336Y44564D01*
X91283Y44600D01*
X91220Y44612D01*
X91158Y44600D01*
X91105Y44564D01*
X91070Y44511D01*
X91057Y44449D01*
X91070Y44386D01*
X91105Y44333D01*
X91156Y44300D01*
X91146Y44251D01*
X91119Y44245D01*
X91066Y44210D01*
X91030Y44157D01*
X91018Y44094D01*
X91030Y44032D01*
X91066Y43979D01*
X91119Y43944D01*
X91181Y43931D01*
X91244Y43944D01*
X91296Y43979D01*
X91332Y44032D01*
X91344Y44094D01*
X91339Y44122D01*
X91416Y44200D01*
X91623D01*
X91646Y44155D01*
X91621Y44118D01*
X91609Y44055D01*
X91621Y43993D01*
X91656Y43940D01*
X91709Y43904D01*
X91772Y43892D01*
X91834Y43904D01*
X91887Y43940D01*
X91922Y43993D01*
X91928Y44020D01*
X91977Y44030D01*
X92011Y43979D01*
X92064Y43944D01*
X92126Y43931D01*
X92188Y43944D01*
X92241Y43979D01*
X92277Y44032D01*
X92289Y44094D01*
X92281Y44136D01*
X92325Y44159D01*
X92362Y44122D01*
X92357Y44094D01*
X92369Y44032D01*
X92404Y43979D01*
X92457Y43944D01*
X92520Y43931D01*
X92582Y43944D01*
X92635Y43979D01*
X92670Y44032D01*
X92683Y44094D01*
X92670Y44157D01*
X92665Y44164D01*
X92693Y44206D01*
X92725Y44199D01*
X93921D01*
X93944Y44157D01*
X93931Y44094D01*
X93944Y44032D01*
X93979Y43979D01*
X94032Y43944D01*
X94094Y43931D01*
X94157Y43944D01*
X94210Y43979D01*
X94245Y44032D01*
X94257Y44094D01*
X94245Y44157D01*
X94266Y44197D01*
X94316D01*
X94337Y44157D01*
X94325Y44094D01*
X94337Y44032D01*
X94373Y43979D01*
X94426Y43944D01*
X94488Y43931D01*
X94551Y43944D01*
X94604Y43979D01*
X94639Y44032D01*
X94651Y44094D01*
X94639Y44157D01*
X94662Y44199D01*
X96677D01*
X96700Y44157D01*
X96687Y44094D01*
X96700Y44032D01*
X96735Y43979D01*
X96788Y43944D01*
X96850Y43931D01*
X96913Y43944D01*
X96966Y43979D01*
X97001Y44032D01*
X97014Y44094D01*
X97001Y44157D01*
X97024Y44199D01*
X97464D01*
X97487Y44157D01*
X97475Y44094D01*
X97487Y44032D01*
X97522Y43979D01*
X97575Y43944D01*
X97638Y43931D01*
X97700Y43944D01*
X97753Y43979D01*
X97789Y44032D01*
X97801Y44094D01*
X97808Y44096D01*
X97852Y44105D01*
X98435Y43521D01*
X98427Y43477D01*
X98424Y43470D01*
X98363Y43458D01*
X98310Y43422D01*
X98274Y43370D01*
X98262Y43307D01*
X98274Y43245D01*
X98310Y43192D01*
X98363Y43156D01*
X98425Y43144D01*
X98488Y43156D01*
X98530Y43134D01*
Y41180D01*
X98453Y41102D01*
X98425Y41108D01*
X98363Y41096D01*
X98310Y41060D01*
X98274Y41007D01*
X98262Y40945D01*
X98274Y40882D01*
X98310Y40830D01*
X98363Y40794D01*
X98425Y40782D01*
X98488Y40794D01*
X98541Y40830D01*
X98576Y40882D01*
X98588Y40945D01*
X98583Y40973D01*
X98687Y41077D01*
X98707Y41106D01*
X98708Y41112D01*
X98714Y41142D01*
Y41952D01*
X98756Y41975D01*
X98819Y41963D01*
X98881Y41975D01*
X98934Y42011D01*
X98969Y42063D01*
X98982Y42126D01*
X98969Y42188D01*
X98934Y42241D01*
X98910Y42257D01*
Y43701D01*
X98905Y43730D01*
X98903Y43736D01*
X98884Y43766D01*
X98683Y43966D01*
X98683Y43966D01*
X98618Y44031D01*
X98618Y44031D01*
X98360Y44289D01*
X98384Y44333D01*
X98425Y44325D01*
X98488Y44337D01*
X98541Y44373D01*
X98576Y44426D01*
X98588Y44488D01*
X98580Y44530D01*
X98624Y44553D01*
X98661Y44516D01*
X98656Y44488D01*
X98668Y44426D01*
X98704Y44373D01*
X98756Y44337D01*
X98819Y44325D01*
X98881Y44337D01*
X98934Y44373D01*
X98970Y44426D01*
X98982Y44488D01*
X98970Y44551D01*
X98934Y44604D01*
X98881Y44639D01*
X98819Y44651D01*
X98791Y44646D01*
X98754Y44683D01*
X98778Y44727D01*
X98819Y44719D01*
X98881Y44731D01*
X98934Y44767D01*
X98970Y44819D01*
X98982Y44882D01*
X98970Y44944D01*
X98934Y44997D01*
X98881Y45033D01*
X98819Y45045D01*
X98756Y45033D01*
X98714Y45055D01*
Y45102D01*
X98756Y45125D01*
X98819Y45112D01*
X98881Y45125D01*
X98934Y45160D01*
X98970Y45213D01*
X98982Y45276D01*
X98970Y45338D01*
X98934Y45391D01*
X98881Y45426D01*
X98819Y45439D01*
X98756Y45426D01*
X98714Y45449D01*
Y46260D01*
X98707Y46295D01*
X98687Y46325D01*
X98084Y46928D01*
Y47371D01*
X98128Y47394D01*
X98166Y47369D01*
X98185Y47365D01*
X98204Y47319D01*
X98196Y47307D01*
X98183Y47244D01*
X98196Y47182D01*
X98231Y47129D01*
X98284Y47093D01*
D01*
X98284D01*
X98284Y47093D01*
X98284D01*
X98284D01*
X98295Y47061D01*
X98274Y47031D01*
X98262Y46968D01*
X98274Y46906D01*
X98310Y46853D01*
X98363Y46818D01*
X98425Y46805D01*
X98488Y46818D01*
X98541Y46853D01*
X98576Y46906D01*
X98588Y46968D01*
X98583Y46996D01*
X99697Y48110D01*
X99805D01*
X99824Y48064D01*
X98925Y47165D01*
X98898Y47171D01*
X98835Y47159D01*
X98782Y47123D01*
X98747Y47070D01*
X98735Y47008D01*
X98747Y46945D01*
X98782Y46893D01*
X98835Y46857D01*
X98898Y46845D01*
X98925Y46850D01*
X98953Y46809D01*
X98944Y46795D01*
X98931Y46732D01*
X98944Y46670D01*
X98979Y46617D01*
X99032Y46582D01*
X99094Y46569D01*
X99157Y46582D01*
X99210Y46617D01*
X99245Y46670D01*
X99258Y46732D01*
X99252Y46760D01*
X100602Y48110D01*
X100710D01*
X100729Y48064D01*
X99524Y46858D01*
X99496Y46864D01*
X99433Y46851D01*
X99380Y46816D01*
X99345Y46763D01*
X99333Y46701D01*
X99345Y46638D01*
X99380Y46585D01*
X99433Y46550D01*
X99496Y46537D01*
X99558Y46550D01*
X99611Y46585D01*
X99647Y46638D01*
X99659Y46701D01*
X99653Y46728D01*
X101035Y48110D01*
X101576D01*
X101596Y48064D01*
X99910Y46378D01*
X99882Y46384D01*
X99819Y46371D01*
X99767Y46336D01*
X99731Y46283D01*
X99719Y46220D01*
X99731Y46158D01*
X99767Y46105D01*
X99819Y46070D01*
X99881Y46058D01*
X99883Y46049D01*
X99892Y46006D01*
X99691Y45805D01*
X99669Y45820D01*
X99606Y45832D01*
X99544Y45820D01*
X99491Y45785D01*
X99456Y45732D01*
X99443Y45669D01*
X99456Y45607D01*
X99491Y45554D01*
X99544Y45518D01*
X99606Y45506D01*
X99669Y45518D01*
X99722Y45554D01*
X99757Y45607D01*
X99758Y45613D01*
X99796Y45650D01*
X99844Y45636D01*
X99849Y45607D01*
X99885Y45554D01*
X99938Y45518D01*
X100000Y45506D01*
X100063Y45518D01*
X100115Y45554D01*
X100131Y45577D01*
X100315D01*
X100350Y45584D01*
X100380Y45604D01*
X102885Y48110D01*
X103033D01*
X103052Y48064D01*
X100422Y45433D01*
X100394Y45439D01*
X100331Y45426D01*
X100278Y45391D01*
X100243Y45338D01*
X100231Y45276D01*
X100243Y45213D01*
X100278Y45160D01*
X100331Y45125D01*
X100394Y45112D01*
X100456Y45125D01*
X100509Y45160D01*
X100545Y45213D01*
X100557Y45276D01*
X100551Y45303D01*
X103358Y48110D01*
X104803D01*
Y37368D01*
D02*
G37*
G36*
X94882Y38026D02*
X94944Y38038D01*
X94987Y38015D01*
Y36495D01*
X94135Y35643D01*
X89921D01*
X89892Y35637D01*
X89886Y35636D01*
X89856Y35616D01*
X88754Y34514D01*
X88734Y34484D01*
X88727Y34449D01*
Y34132D01*
X88660Y34065D01*
X88618Y34093D01*
X88626Y34113D01*
X88638Y34200D01*
X88626Y34287D01*
X88593Y34369D01*
X88539Y34439D01*
X88469Y34493D01*
X88387Y34526D01*
X88300Y34538D01*
X88213Y34526D01*
X88131Y34493D01*
X88061Y34439D01*
X88007Y34369D01*
X87974Y34287D01*
X87962Y34200D01*
X87974Y34113D01*
X88007Y34031D01*
X88061Y33961D01*
X88131Y33907D01*
X88213Y33874D01*
X88300Y33862D01*
X88387Y33874D01*
X88407Y33882D01*
X88435Y33840D01*
X88235Y33640D01*
X88215Y33611D01*
X88208Y33576D01*
Y33025D01*
X88131Y32993D01*
X88061Y32939D01*
X88007Y32869D01*
X87974Y32787D01*
X87962Y32700D01*
X87974Y32613D01*
X88007Y32531D01*
X88061Y32461D01*
X88131Y32407D01*
X88213Y32374D01*
X88300Y32362D01*
X88387Y32374D01*
X88469Y32407D01*
X88539Y32461D01*
X88593Y32531D01*
X88626Y32613D01*
X88638Y32700D01*
X88626Y32787D01*
X88593Y32869D01*
X88539Y32939D01*
X88469Y32993D01*
X88392Y33025D01*
Y33538D01*
X88441Y33587D01*
X88483Y33559D01*
X88474Y33537D01*
X88462Y33450D01*
X88474Y33363D01*
X88507Y33281D01*
X88561Y33211D01*
X88631Y33157D01*
X88713Y33124D01*
X88800Y33112D01*
X88887Y33124D01*
X88969Y33157D01*
X89039Y33211D01*
X89093Y33281D01*
X89126Y33363D01*
X89138Y33450D01*
X89126Y33537D01*
X89093Y33619D01*
X89039Y33689D01*
X88969Y33743D01*
X88887Y33776D01*
X88800Y33788D01*
X88713Y33776D01*
X88691Y33767D01*
X88663Y33809D01*
X88884Y34030D01*
X88904Y34059D01*
X88911Y34094D01*
Y34411D01*
X89959Y35459D01*
X90578D01*
X90582Y35453D01*
X90598Y35413D01*
X89738Y34553D01*
X89718Y34523D01*
X89711Y34488D01*
Y34093D01*
X89643Y34025D01*
X89602Y34053D01*
X89626Y34113D01*
X89638Y34200D01*
X89626Y34287D01*
X89593Y34369D01*
X89539Y34439D01*
X89469Y34493D01*
X89387Y34526D01*
X89300Y34538D01*
X89213Y34526D01*
X89131Y34493D01*
X89061Y34439D01*
X89007Y34369D01*
X88974Y34287D01*
X88962Y34200D01*
X88974Y34113D01*
X89007Y34031D01*
X89061Y33961D01*
X89131Y33907D01*
X89213Y33874D01*
X89300Y33862D01*
X89387Y33874D01*
X89447Y33898D01*
X89475Y33857D01*
X89235Y33617D01*
X89215Y33587D01*
X89208Y33552D01*
Y33025D01*
X89131Y32993D01*
X89061Y32939D01*
X89007Y32869D01*
X88974Y32787D01*
X88962Y32700D01*
X88974Y32613D01*
X89007Y32531D01*
X89061Y32461D01*
X89131Y32407D01*
X89213Y32374D01*
X89300Y32362D01*
X89387Y32374D01*
X89469Y32407D01*
X89539Y32461D01*
X89593Y32531D01*
X89626Y32613D01*
X89638Y32700D01*
X89626Y32787D01*
X89593Y32869D01*
X89539Y32939D01*
X89469Y32993D01*
X89392Y33025D01*
Y33514D01*
X89427Y33550D01*
X89472Y33528D01*
X89462Y33450D01*
X89474Y33363D01*
X89507Y33281D01*
X89561Y33211D01*
X89631Y33157D01*
X89713Y33124D01*
X89800Y33112D01*
X89887Y33124D01*
X89897Y33128D01*
X89925Y33086D01*
X89735Y32896D01*
X89715Y32867D01*
X89708Y32831D01*
Y32275D01*
X89631Y32243D01*
X89561Y32189D01*
X89507Y32119D01*
X89474Y32037D01*
X89462Y31950D01*
X89474Y31863D01*
X89507Y31781D01*
X89561Y31711D01*
X89631Y31657D01*
X89713Y31624D01*
X89800Y31612D01*
X89887Y31624D01*
X89969Y31657D01*
X90039Y31711D01*
X90093Y31781D01*
X90126Y31863D01*
X90138Y31950D01*
X90126Y32037D01*
X90093Y32119D01*
X90039Y32189D01*
X89969Y32243D01*
X89892Y32275D01*
Y32793D01*
X89945Y32847D01*
X89987Y32819D01*
X89974Y32787D01*
X89962Y32700D01*
X89974Y32613D01*
X90007Y32531D01*
X90061Y32461D01*
X90131Y32407D01*
X90213Y32374D01*
X90300Y32362D01*
X90387Y32374D01*
X90469Y32407D01*
X90539Y32461D01*
X90593Y32531D01*
X90626Y32613D01*
X90638Y32700D01*
X90626Y32787D01*
X90593Y32869D01*
X90539Y32939D01*
X90469Y32993D01*
X90387Y33026D01*
X90300Y33038D01*
X90213Y33026D01*
X90181Y33013D01*
X90153Y33055D01*
X90380Y33282D01*
X90400Y33311D01*
X90407Y33346D01*
Y33540D01*
X90451Y33563D01*
X90477Y33546D01*
X90474Y33537D01*
X90462Y33450D01*
X90474Y33363D01*
X90507Y33281D01*
X90561Y33211D01*
X90631Y33157D01*
X90713Y33124D01*
X90800Y33112D01*
X90887Y33124D01*
X90937Y33144D01*
X90965Y33103D01*
X90735Y32873D01*
X90715Y32843D01*
X90708Y32808D01*
Y32275D01*
X90631Y32243D01*
X90561Y32189D01*
X90507Y32119D01*
X90474Y32037D01*
X90462Y31950D01*
X90474Y31863D01*
X90507Y31781D01*
X90561Y31711D01*
X90631Y31657D01*
X90713Y31624D01*
X90800Y31612D01*
X90887Y31624D01*
X90969Y31657D01*
X91039Y31711D01*
X91093Y31781D01*
X91126Y31863D01*
X91138Y31950D01*
X91126Y32037D01*
X91093Y32119D01*
X91039Y32189D01*
X90969Y32243D01*
X90892Y32275D01*
Y32770D01*
X90928Y32806D01*
X90932Y32805D01*
X90973Y32784D01*
X90962Y32700D01*
X90974Y32613D01*
X91007Y32531D01*
X91061Y32461D01*
X91131Y32407D01*
X91213Y32374D01*
X91300Y32362D01*
X91387Y32374D01*
X91469Y32407D01*
X91539Y32461D01*
X91593Y32531D01*
X91626Y32613D01*
X91638Y32700D01*
X91626Y32787D01*
X91593Y32869D01*
X91539Y32939D01*
X91469Y32993D01*
X91387Y33026D01*
X91300Y33038D01*
X91216Y33027D01*
X91195Y33068D01*
X91194Y33072D01*
X91364Y33242D01*
X91384Y33272D01*
X91391Y33307D01*
Y33545D01*
X91447Y33600D01*
X91488Y33572D01*
X91474Y33537D01*
X91462Y33450D01*
X91474Y33363D01*
X91507Y33281D01*
X91561Y33211D01*
X91631Y33157D01*
X91713Y33124D01*
X91800Y33112D01*
X91887Y33124D01*
X91969Y33157D01*
X92039Y33211D01*
X92093Y33281D01*
X92126Y33363D01*
X92138Y33450D01*
X92126Y33537D01*
X92093Y33619D01*
X92039Y33689D01*
X91969Y33743D01*
X91887Y33776D01*
X91800Y33788D01*
X91713Y33776D01*
X91678Y33762D01*
X91650Y33803D01*
X91876Y34030D01*
X91896Y34059D01*
X91903Y34094D01*
Y34450D01*
X92321Y34869D01*
X95000D01*
X95035Y34876D01*
X95065Y34896D01*
X95728Y35559D01*
X95768Y35543D01*
X95774Y35538D01*
Y32361D01*
X94765Y31352D01*
X82833D01*
X82415Y31770D01*
Y31929D01*
X82464Y31932D01*
X82464Y31932D01*
D01*
X82474Y31863D01*
X82507Y31781D01*
X82561Y31711D01*
X82631Y31657D01*
X82713Y31624D01*
X82800Y31612D01*
X82887Y31624D01*
X82969Y31657D01*
X83039Y31711D01*
X83093Y31781D01*
X83126Y31863D01*
X83138Y31950D01*
X83126Y32037D01*
X83093Y32119D01*
X83039Y32189D01*
X82969Y32243D01*
X82887Y32276D01*
X82800Y32288D01*
X82713Y32276D01*
X82631Y32243D01*
X82561Y32189D01*
X82507Y32119D01*
X82474Y32037D01*
X82464Y31968D01*
X82415Y31971D01*
Y32047D01*
X82409Y32077D01*
X82408Y32082D01*
X82388Y32112D01*
X82156Y32344D01*
X82184Y32386D01*
X82213Y32374D01*
X82300Y32362D01*
X82387Y32374D01*
X82469Y32407D01*
X82539Y32461D01*
X82593Y32531D01*
X82626Y32613D01*
X82638Y32700D01*
X82626Y32787D01*
X82593Y32869D01*
X82539Y32939D01*
X82469Y32993D01*
X82392Y33025D01*
Y33522D01*
X82427Y33557D01*
X82462Y33542D01*
X82474Y33537D01*
X82462Y33450D01*
X82474Y33363D01*
X82507Y33281D01*
X82561Y33211D01*
X82631Y33157D01*
X82713Y33124D01*
X82800Y33112D01*
X82887Y33124D01*
X82969Y33157D01*
X83039Y33211D01*
X83093Y33281D01*
X83126Y33363D01*
X83138Y33450D01*
X83126Y33537D01*
X83093Y33619D01*
X83039Y33689D01*
X82969Y33743D01*
X82887Y33776D01*
X82800Y33788D01*
X82713Y33776D01*
X82708Y33788D01*
X82693Y33823D01*
X82860Y33990D01*
X82880Y34020D01*
X82887Y34055D01*
Y34568D01*
X85235Y36916D01*
X86089D01*
X86094Y36909D01*
X86110Y36870D01*
X83715Y34474D01*
X83695Y34445D01*
X83688Y34409D01*
Y34203D01*
X83638Y34200D01*
X83626Y34287D01*
X83593Y34369D01*
X83539Y34439D01*
X83469Y34493D01*
X83387Y34526D01*
X83300Y34538D01*
X83213Y34526D01*
X83131Y34493D01*
X83061Y34439D01*
X83007Y34369D01*
X82974Y34287D01*
X82962Y34200D01*
X82974Y34113D01*
X83007Y34031D01*
X83061Y33961D01*
X83131Y33907D01*
X83213Y33874D01*
X83300Y33862D01*
X83387Y33874D01*
X83407Y33882D01*
X83435Y33840D01*
X83235Y33640D01*
X83215Y33611D01*
X83208Y33576D01*
Y33025D01*
X83131Y32993D01*
X83061Y32939D01*
X83007Y32869D01*
X82974Y32787D01*
X82962Y32700D01*
X82974Y32613D01*
X83007Y32531D01*
X83061Y32461D01*
X83131Y32407D01*
X83213Y32374D01*
X83300Y32362D01*
X83387Y32374D01*
X83469Y32407D01*
X83539Y32461D01*
X83593Y32531D01*
X83626Y32613D01*
X83638Y32700D01*
X83626Y32787D01*
X83593Y32869D01*
X83539Y32939D01*
X83469Y32993D01*
X83392Y33025D01*
Y33538D01*
X83441Y33587D01*
X83483Y33559D01*
X83474Y33537D01*
X83462Y33450D01*
X83474Y33363D01*
X83507Y33281D01*
X83561Y33211D01*
X83631Y33157D01*
X83713Y33124D01*
X83800Y33112D01*
X83887Y33124D01*
X83969Y33157D01*
X84039Y33211D01*
X84093Y33281D01*
X84126Y33363D01*
X84138Y33450D01*
X84126Y33537D01*
X84093Y33619D01*
X84039Y33689D01*
X83969Y33743D01*
X83887Y33776D01*
X83800Y33788D01*
X83713Y33776D01*
X83691Y33767D01*
X83663Y33809D01*
X83844Y33990D01*
X83864Y34020D01*
X83871Y34055D01*
Y34371D01*
X86219Y36719D01*
X92716D01*
X92748Y36726D01*
X92757Y36709D01*
X92731Y36667D01*
X86535D01*
X86500Y36660D01*
X86471Y36640D01*
X84361Y34530D01*
X84300Y34538D01*
X84213Y34526D01*
X84131Y34493D01*
X84061Y34439D01*
X84007Y34369D01*
X83974Y34287D01*
X83962Y34200D01*
X83974Y34113D01*
X84007Y34031D01*
X84061Y33961D01*
X84131Y33907D01*
X84213Y33874D01*
X84300Y33862D01*
X84387Y33874D01*
X84469Y33907D01*
X84539Y33961D01*
X84593Y34031D01*
X84626Y34113D01*
X84638Y34200D01*
X84626Y34287D01*
X84593Y34369D01*
X84539Y34439D01*
X84538Y34448D01*
X86488Y36397D01*
X86591Y36466D01*
X86611Y36462D01*
X86622Y36437D01*
X84735Y34550D01*
X84715Y34520D01*
X84708Y34485D01*
Y33775D01*
X84631Y33743D01*
X84561Y33689D01*
X84507Y33619D01*
X84474Y33537D01*
X84462Y33450D01*
X84474Y33363D01*
X84507Y33281D01*
X84561Y33211D01*
X84631Y33157D01*
X84713Y33124D01*
X84800Y33112D01*
X84887Y33124D01*
X84969Y33157D01*
X85039Y33211D01*
X85093Y33281D01*
X85126Y33363D01*
X85138Y33450D01*
X85126Y33537D01*
X85093Y33619D01*
X85039Y33689D01*
X84969Y33743D01*
X84892Y33775D01*
Y34447D01*
X86731Y36286D01*
X87312D01*
X87331Y36240D01*
X85762Y34671D01*
X85742Y34641D01*
X85735Y34606D01*
Y34132D01*
X85654Y34052D01*
X85613Y34080D01*
X85626Y34113D01*
X85638Y34200D01*
X85626Y34287D01*
X85593Y34369D01*
X85539Y34439D01*
X85469Y34493D01*
X85387Y34526D01*
X85300Y34538D01*
X85213Y34526D01*
X85131Y34493D01*
X85061Y34439D01*
X85007Y34369D01*
X84974Y34287D01*
X84962Y34200D01*
X84974Y34113D01*
X85007Y34031D01*
X85061Y33961D01*
X85131Y33907D01*
X85213Y33874D01*
X85300Y33862D01*
X85387Y33874D01*
X85420Y33887D01*
X85448Y33846D01*
X85235Y33633D01*
X85215Y33603D01*
X85208Y33568D01*
Y33025D01*
X85131Y32993D01*
X85061Y32939D01*
X85007Y32869D01*
X84974Y32787D01*
X84962Y32700D01*
X84974Y32613D01*
X85007Y32531D01*
X85061Y32461D01*
X85131Y32407D01*
X85213Y32374D01*
X85300Y32362D01*
X85387Y32374D01*
X85469Y32407D01*
X85539Y32461D01*
X85593Y32531D01*
X85626Y32613D01*
X85638Y32700D01*
X85626Y32787D01*
X85593Y32869D01*
X85539Y32939D01*
X85469Y32993D01*
X85392Y33025D01*
Y33530D01*
X85435Y33573D01*
X85477Y33546D01*
X85474Y33537D01*
X85462Y33450D01*
X85474Y33363D01*
X85507Y33281D01*
X85561Y33211D01*
X85631Y33157D01*
X85713Y33124D01*
X85800Y33112D01*
X85887Y33124D01*
X85969Y33157D01*
X86039Y33211D01*
X86093Y33281D01*
X86126Y33363D01*
X86138Y33450D01*
X86126Y33537D01*
X86093Y33619D01*
X86039Y33689D01*
X85969Y33743D01*
X85887Y33776D01*
X85800Y33788D01*
X85713Y33776D01*
X85704Y33773D01*
X85677Y33815D01*
X85892Y34030D01*
X85912Y34059D01*
X85919Y34094D01*
Y34149D01*
X85968Y34152D01*
X85974Y34113D01*
X86007Y34031D01*
X86061Y33961D01*
X86131Y33907D01*
X86213Y33874D01*
X86300Y33862D01*
X86387Y33874D01*
X86394Y33876D01*
X86421Y33835D01*
X86235Y33648D01*
X86215Y33619D01*
X86208Y33583D01*
Y33025D01*
X86131Y32993D01*
X86061Y32939D01*
X86007Y32869D01*
X85974Y32787D01*
X85962Y32700D01*
X85974Y32613D01*
X86007Y32531D01*
X86061Y32461D01*
X86131Y32407D01*
X86213Y32374D01*
X86300Y32362D01*
X86387Y32374D01*
X86469Y32407D01*
X86539Y32461D01*
X86593Y32531D01*
X86626Y32613D01*
X86638Y32700D01*
X86626Y32787D01*
X86593Y32869D01*
X86539Y32939D01*
X86469Y32993D01*
X86392Y33025D01*
Y33545D01*
X86447Y33600D01*
X86488Y33572D01*
X86474Y33537D01*
X86462Y33450D01*
X86474Y33363D01*
X86507Y33281D01*
X86561Y33211D01*
X86631Y33157D01*
X86713Y33124D01*
X86800Y33112D01*
X86887Y33124D01*
X86969Y33157D01*
X87039Y33211D01*
X87093Y33281D01*
X87126Y33363D01*
X87138Y33450D01*
X87126Y33537D01*
X87093Y33619D01*
X87039Y33689D01*
X86969Y33743D01*
X86887Y33776D01*
X86800Y33788D01*
X86713Y33776D01*
X86678Y33762D01*
X86650Y33803D01*
X86915Y34069D01*
X86933Y34095D01*
X86970Y34092D01*
X86983Y34089D01*
X87007Y34031D01*
X87061Y33961D01*
X87131Y33907D01*
X87213Y33874D01*
X87300Y33862D01*
X87387Y33874D01*
X87434Y33893D01*
X87462Y33851D01*
X87235Y33625D01*
X87215Y33595D01*
X87208Y33560D01*
Y33025D01*
X87131Y32993D01*
X87061Y32939D01*
X87007Y32869D01*
X86974Y32787D01*
X86962Y32700D01*
X86974Y32613D01*
X87007Y32531D01*
X87061Y32461D01*
X87131Y32407D01*
X87213Y32374D01*
X87300Y32362D01*
X87387Y32374D01*
X87469Y32407D01*
X87539Y32461D01*
X87593Y32531D01*
X87626Y32613D01*
X87638Y32700D01*
X87626Y32787D01*
X87593Y32869D01*
X87539Y32939D01*
X87469Y32993D01*
X87392Y33025D01*
Y33522D01*
X87427Y33557D01*
X87462Y33542D01*
X87474Y33537D01*
X87462Y33450D01*
X87474Y33363D01*
X87507Y33281D01*
X87561Y33211D01*
X87631Y33157D01*
X87713Y33124D01*
X87800Y33112D01*
X87887Y33124D01*
X87969Y33157D01*
X88039Y33211D01*
X88093Y33281D01*
X88126Y33363D01*
X88138Y33450D01*
X88126Y33537D01*
X88093Y33619D01*
X88039Y33689D01*
X87969Y33743D01*
X87887Y33776D01*
X87800Y33788D01*
X87713Y33776D01*
X87708Y33788D01*
X87693Y33823D01*
X87860Y33990D01*
X87880Y34020D01*
X87887Y34055D01*
Y34529D01*
X89054Y35696D01*
X94016D01*
Y35696D01*
X94016Y35696D01*
X94016D01*
D01*
Y35696D01*
X94016D01*
D01*
D01*
D01*
D01*
X94051Y35703D01*
X94081Y35723D01*
X94750Y36392D01*
X94770Y36422D01*
X94777Y36457D01*
D01*
D01*
X94777D01*
X94777D01*
X94777Y36457D01*
X94777D01*
Y36457D01*
D01*
D01*
D01*
D01*
D01*
D01*
Y36457D01*
X94777D01*
D01*
D01*
D01*
D01*
X94777D01*
D01*
Y36457D01*
Y38015D01*
X94819Y38038D01*
X94882Y38026D01*
D02*
G37*
G36*
X92231Y46143D02*
Y45843D01*
X92188Y45820D01*
X92126Y45832D01*
X92064Y45820D01*
X92011Y45785D01*
X91975Y45732D01*
X91963Y45669D01*
X91975Y45607D01*
X92011Y45554D01*
X92064Y45519D01*
X92126Y45506D01*
X92168Y45514D01*
X92191Y45470D01*
X92154Y45433D01*
X92126Y45439D01*
X92064Y45426D01*
X92011Y45391D01*
X91975Y45338D01*
X91963Y45276D01*
X91971Y45234D01*
X91927Y45210D01*
X89073Y48064D01*
X89093Y48110D01*
X90264D01*
X92231Y46143D01*
D02*
G37*
G36*
X102580Y48064D02*
X100519Y46003D01*
X100471Y46018D01*
X100466Y46047D01*
X100430Y46100D01*
X100377Y46135D01*
X100315Y46147D01*
X100307Y46162D01*
X102256Y48110D01*
X102561D01*
X102580Y48064D01*
D02*
G37*
G36*
X104803Y30000D02*
X30512D01*
Y30388D01*
X104803D01*
Y30000D01*
D02*
G37*
G36*
X96457Y38026D02*
X96519Y38038D01*
X96562Y38015D01*
Y36063D01*
X96569Y36028D01*
X96589Y35998D01*
X99541Y33045D01*
X99571Y33025D01*
X99606Y33018D01*
X103899D01*
X104308Y32610D01*
X104303Y32560D01*
X104277Y32542D01*
X104225Y32553D01*
X104197Y32547D01*
X103844Y32900D01*
X103815Y32919D01*
X103780Y32926D01*
X99526D01*
X96352Y36101D01*
Y38015D01*
X96394Y38038D01*
X96457Y38026D01*
D02*
G37*
G36*
X99252Y34003D02*
X104803D01*
Y33051D01*
X104764Y33019D01*
X104737Y33025D01*
X104709Y33019D01*
X104317Y33411D01*
X104287Y33431D01*
X104252Y33438D01*
X99723D01*
X99196Y33965D01*
X99220Y34009D01*
X99252Y34003D01*
D02*
G37*
G36*
X97428Y47304D02*
X97380Y47290D01*
X97359Y47320D01*
X97307Y47355D01*
X97244Y47368D01*
X97182Y47355D01*
X97129Y47320D01*
X97093Y47267D01*
X97081Y47205D01*
X97089Y47166D01*
X97053Y47130D01*
X97047Y47132D01*
X96985Y47119D01*
X96932Y47084D01*
X96897Y47031D01*
X96884Y46968D01*
X96897Y46906D01*
X96932Y46853D01*
X96985Y46818D01*
X97047Y46805D01*
X97110Y46818D01*
X97163Y46853D01*
X97198Y46906D01*
X97210Y46968D01*
X97203Y47007D01*
X97238Y47043D01*
X97244Y47042D01*
X97307Y47054D01*
X97359Y47089D01*
X97380Y47120D01*
X97428Y47105D01*
Y46455D01*
X96930Y45958D01*
X96653D01*
X96618Y45951D01*
X96589Y45931D01*
X96484Y45827D01*
X96457Y45832D01*
X96394Y45820D01*
X96341Y45785D01*
X96306Y45732D01*
X96293Y45669D01*
X96306Y45607D01*
X96341Y45554D01*
X96394Y45518D01*
X96457Y45506D01*
X96498Y45514D01*
X96521Y45470D01*
X96484Y45433D01*
X96456Y45439D01*
X96394Y45426D01*
X96341Y45391D01*
X96306Y45338D01*
X96293Y45276D01*
X96306Y45213D01*
X96341Y45160D01*
X96394Y45125D01*
X96456Y45112D01*
X96519Y45125D01*
X96572Y45160D01*
X96607Y45213D01*
X96620Y45276D01*
X96614Y45303D01*
X96651Y45341D01*
X96696Y45317D01*
X96687Y45276D01*
X96700Y45213D01*
X96735Y45160D01*
X96788Y45125D01*
X96850Y45112D01*
X96913Y45125D01*
X96966Y45160D01*
X97001Y45213D01*
X97014Y45276D01*
X97001Y45338D01*
X97024Y45381D01*
X97047D01*
X97082Y45388D01*
X97112Y45407D01*
X97740Y46036D01*
X97760Y46065D01*
X97767Y46101D01*
Y46132D01*
X97813Y46151D01*
X98137Y45828D01*
Y45449D01*
X98094Y45426D01*
X98032Y45439D01*
X97969Y45426D01*
X97916Y45391D01*
X97881Y45338D01*
X97868Y45276D01*
X97881Y45213D01*
X97916Y45160D01*
X97969Y45125D01*
X98032Y45112D01*
X98094Y45125D01*
X98133Y45104D01*
Y45054D01*
X98094Y45033D01*
X98032Y45045D01*
X97969Y45033D01*
X97916Y44997D01*
X97881Y44944D01*
X97868Y44882D01*
X97881Y44819D01*
X97885Y44814D01*
X97860Y44777D01*
X97810Y44779D01*
X97789Y44819D01*
X97801Y44882D01*
X97789Y44944D01*
X97753Y44997D01*
X97700Y45033D01*
X97638Y45045D01*
X97575Y45033D01*
X97522Y44997D01*
X97487Y44944D01*
X97475Y44882D01*
X97487Y44819D01*
X97464Y44777D01*
X97024D01*
X97001Y44819D01*
X97014Y44882D01*
X97001Y44944D01*
X96966Y44997D01*
X96913Y45033D01*
X96850Y45045D01*
X96788Y45033D01*
X96735Y44997D01*
X96700Y44944D01*
X96687Y44882D01*
X96700Y44819D01*
X96677Y44777D01*
X96237D01*
X96214Y44819D01*
X96226Y44882D01*
X96214Y44944D01*
X96178Y44997D01*
X96125Y45033D01*
X96063Y45045D01*
X96001Y45033D01*
X95948Y44997D01*
X95912Y44944D01*
X95900Y44882D01*
X95912Y44819D01*
X95889Y44777D01*
X95055D01*
X95033Y44819D01*
X95045Y44882D01*
X95033Y44944D01*
X94997Y44997D01*
X94944Y45033D01*
X94882Y45045D01*
X94819Y45033D01*
X94767Y44997D01*
X94731Y44944D01*
X94719Y44882D01*
X94731Y44819D01*
X94710Y44780D01*
X94660D01*
X94639Y44819D01*
X94651Y44882D01*
X94639Y44944D01*
X94604Y44997D01*
X94551Y45033D01*
X94488Y45045D01*
X94426Y45033D01*
X94373Y44997D01*
X94337Y44944D01*
X94325Y44882D01*
X94337Y44819D01*
X94315Y44777D01*
X93087D01*
X93064Y44819D01*
X93077Y44882D01*
X93064Y44944D01*
X93029Y44997D01*
X92976Y45033D01*
X92913Y45045D01*
X92851Y45033D01*
X92798Y44997D01*
X92763Y44944D01*
X92750Y44882D01*
X92759Y44839D01*
X92715Y44815D01*
X92453Y45077D01*
X92477Y45121D01*
X92520Y45112D01*
X92582Y45125D01*
X92635Y45160D01*
X92670Y45213D01*
X92683Y45276D01*
X92670Y45338D01*
X92635Y45391D01*
X92582Y45426D01*
X92520Y45439D01*
X92457Y45426D01*
X92452Y45423D01*
X92410Y45450D01*
X92414Y45472D01*
Y46181D01*
X92407Y46216D01*
X92388Y46246D01*
X92315Y46318D01*
X92323Y46333D01*
X92385Y46345D01*
X92438Y46380D01*
X92474Y46433D01*
X92486Y46496D01*
X92474Y46558D01*
X92438Y46611D01*
X92385Y46646D01*
X92323Y46659D01*
X92307Y46656D01*
X90899Y48064D01*
X90918Y48110D01*
X97428D01*
Y47304D01*
D02*
G37*
%LPC*%
G36*
X93300Y34538D02*
X93213Y34526D01*
X93131Y34493D01*
X93061Y34439D01*
X93007Y34369D01*
X92974Y34287D01*
X92962Y34200D01*
X92974Y34113D01*
X93007Y34031D01*
X93061Y33961D01*
X93131Y33907D01*
X93213Y33874D01*
X93300Y33862D01*
X93387Y33874D01*
X93469Y33907D01*
X93539Y33961D01*
X93593Y34031D01*
X93626Y34113D01*
X93638Y34200D01*
X93626Y34287D01*
X93593Y34369D01*
X93539Y34439D01*
X93469Y34493D01*
X93387Y34526D01*
X93300Y34538D01*
D02*
G37*
G36*
X92300D02*
X92213Y34526D01*
X92131Y34493D01*
X92061Y34439D01*
X92007Y34369D01*
X91974Y34287D01*
X91962Y34200D01*
X91974Y34113D01*
X92007Y34031D01*
X92061Y33961D01*
X92131Y33907D01*
X92213Y33874D01*
X92300Y33862D01*
X92387Y33874D01*
X92469Y33907D01*
X92539Y33961D01*
X92593Y34031D01*
X92626Y34113D01*
X92638Y34200D01*
X92626Y34287D01*
X92593Y34369D01*
X92539Y34439D01*
X92469Y34493D01*
X92387Y34526D01*
X92300Y34538D01*
D02*
G37*
G36*
X93800Y33788D02*
X93713Y33776D01*
X93631Y33743D01*
X93561Y33689D01*
X93507Y33619D01*
X93474Y33537D01*
X93462Y33450D01*
X93474Y33363D01*
X93507Y33281D01*
X93561Y33211D01*
X93631Y33157D01*
X93713Y33124D01*
X93800Y33112D01*
X93887Y33124D01*
X93969Y33157D01*
X94039Y33211D01*
X94093Y33281D01*
X94126Y33363D01*
X94138Y33450D01*
X94126Y33537D01*
X94093Y33619D01*
X94039Y33689D01*
X93969Y33743D01*
X93887Y33776D01*
X93800Y33788D01*
D02*
G37*
G36*
X92800D02*
X92713Y33776D01*
X92631Y33743D01*
X92561Y33689D01*
X92507Y33619D01*
X92474Y33537D01*
X92462Y33450D01*
X92474Y33363D01*
X92507Y33281D01*
X92561Y33211D01*
X92631Y33157D01*
X92713Y33124D01*
X92800Y33112D01*
X92887Y33124D01*
X92969Y33157D01*
X93039Y33211D01*
X93093Y33281D01*
X93126Y33363D01*
X93138Y33450D01*
X93126Y33537D01*
X93093Y33619D01*
X93039Y33689D01*
X92969Y33743D01*
X92887Y33776D01*
X92800Y33788D01*
D02*
G37*
G36*
X94800D02*
X94713Y33776D01*
X94631Y33743D01*
X94561Y33689D01*
X94507Y33619D01*
X94474Y33537D01*
X94462Y33450D01*
X94474Y33363D01*
X94507Y33281D01*
X94561Y33211D01*
X94631Y33157D01*
X94713Y33124D01*
X94800Y33112D01*
X94887Y33124D01*
X94969Y33157D01*
X95039Y33211D01*
X95093Y33281D01*
X95126Y33363D01*
X95138Y33450D01*
X95126Y33537D01*
X95093Y33619D01*
X95039Y33689D01*
X94969Y33743D01*
X94887Y33776D01*
X94800Y33788D01*
D02*
G37*
G36*
X52992Y34289D02*
X52924Y34280D01*
X52861Y34254D01*
X52807Y34212D01*
X52765Y34158D01*
X52739Y34095D01*
X52730Y34027D01*
X52739Y33959D01*
X52765Y33896D01*
X52807Y33841D01*
X52861Y33800D01*
X52924Y33773D01*
X52992Y33765D01*
X53060Y33773D01*
X53123Y33800D01*
X53178Y33841D01*
X53219Y33896D01*
X53245Y33959D01*
X53254Y34027D01*
X53245Y34095D01*
X53219Y34158D01*
X53178Y34212D01*
X53123Y34254D01*
X53060Y34280D01*
X52992Y34289D01*
D02*
G37*
G36*
X61654Y33766D02*
X61586Y33757D01*
X61522Y33731D01*
X61468Y33689D01*
X61426Y33635D01*
X61400Y33572D01*
X61391Y33504D01*
X61400Y33436D01*
X61426Y33373D01*
X61468Y33319D01*
X61522Y33277D01*
X61586Y33251D01*
X61654Y33242D01*
X61721Y33251D01*
X61785Y33277D01*
X61839Y33319D01*
X61881Y33373D01*
X61907Y33436D01*
X61916Y33504D01*
X61907Y33572D01*
X61881Y33635D01*
X61839Y33689D01*
X61785Y33731D01*
X61721Y33757D01*
X61654Y33766D01*
D02*
G37*
G36*
X53892Y34289D02*
X53824Y34280D01*
X53761Y34254D01*
X53707Y34212D01*
X53665Y34158D01*
X53639Y34095D01*
X53630Y34027D01*
X53639Y33959D01*
X53665Y33896D01*
X53707Y33841D01*
X53761Y33800D01*
X53824Y33773D01*
X53892Y33765D01*
X53960Y33773D01*
X54023Y33800D01*
X54078Y33841D01*
X54119Y33896D01*
X54145Y33959D01*
X54154Y34027D01*
X54145Y34095D01*
X54119Y34158D01*
X54078Y34212D01*
X54023Y34254D01*
X53960Y34280D01*
X53892Y34289D01*
D02*
G37*
G36*
X78300Y34538D02*
X78213Y34526D01*
X78131Y34493D01*
X78061Y34439D01*
X78007Y34369D01*
X77974Y34287D01*
X77962Y34200D01*
X77974Y34113D01*
X78007Y34031D01*
X78061Y33961D01*
X78131Y33907D01*
X78213Y33874D01*
X78300Y33862D01*
X78387Y33874D01*
X78469Y33907D01*
X78539Y33961D01*
X78593Y34031D01*
X78626Y34113D01*
X78638Y34200D01*
X78626Y34287D01*
X78593Y34369D01*
X78539Y34439D01*
X78469Y34493D01*
X78387Y34526D01*
X78300Y34538D01*
D02*
G37*
G36*
X79300D02*
X79213Y34526D01*
X79131Y34493D01*
X79061Y34439D01*
X79007Y34369D01*
X78974Y34287D01*
X78962Y34200D01*
X78974Y34113D01*
X79007Y34031D01*
X79061Y33961D01*
X79131Y33907D01*
X79213Y33874D01*
X79300Y33862D01*
X79387Y33874D01*
X79469Y33907D01*
X79539Y33961D01*
X79593Y34031D01*
X79626Y34113D01*
X79638Y34200D01*
X79626Y34287D01*
X79593Y34369D01*
X79539Y34439D01*
X79469Y34493D01*
X79387Y34526D01*
X79300Y34538D01*
D02*
G37*
G36*
X56592Y34289D02*
X56524Y34280D01*
X56461Y34254D01*
X56407Y34212D01*
X56365Y34158D01*
X56339Y34095D01*
X56330Y34027D01*
X56339Y33959D01*
X56365Y33896D01*
X56407Y33841D01*
X56461Y33800D01*
X56524Y33773D01*
X56592Y33765D01*
X56660Y33773D01*
X56723Y33800D01*
X56778Y33841D01*
X56819Y33896D01*
X56845Y33959D01*
X56854Y34027D01*
X56845Y34095D01*
X56819Y34158D01*
X56778Y34212D01*
X56723Y34254D01*
X56660Y34280D01*
X56592Y34289D01*
D02*
G37*
G36*
X54792D02*
X54724Y34280D01*
X54661Y34254D01*
X54607Y34212D01*
X54565Y34158D01*
X54539Y34095D01*
X54530Y34027D01*
X54539Y33959D01*
X54565Y33896D01*
X54607Y33841D01*
X54661Y33800D01*
X54724Y33773D01*
X54792Y33765D01*
X54860Y33773D01*
X54923Y33800D01*
X54978Y33841D01*
X55019Y33896D01*
X55045Y33959D01*
X55054Y34027D01*
X55045Y34095D01*
X55019Y34158D01*
X54978Y34212D01*
X54923Y34254D01*
X54860Y34280D01*
X54792Y34289D01*
D02*
G37*
G36*
X55692D02*
X55624Y34280D01*
X55561Y34254D01*
X55507Y34212D01*
X55465Y34158D01*
X55439Y34095D01*
X55430Y34027D01*
X55439Y33959D01*
X55465Y33896D01*
X55507Y33841D01*
X55561Y33800D01*
X55624Y33773D01*
X55692Y33765D01*
X55760Y33773D01*
X55823Y33800D01*
X55878Y33841D01*
X55919Y33896D01*
X55945Y33959D01*
X55954Y34027D01*
X55945Y34095D01*
X55919Y34158D01*
X55878Y34212D01*
X55823Y34254D01*
X55760Y34280D01*
X55692Y34289D01*
D02*
G37*
G36*
X53892Y36089D02*
X53824Y36080D01*
X53761Y36054D01*
X53707Y36012D01*
X53665Y35958D01*
X53639Y35895D01*
X53630Y35827D01*
X53639Y35759D01*
X53665Y35696D01*
X53707Y35641D01*
X53761Y35600D01*
X53824Y35573D01*
X53892Y35565D01*
X53960Y35573D01*
X54023Y35600D01*
X54078Y35641D01*
X54119Y35696D01*
X54145Y35759D01*
X54154Y35827D01*
X54145Y35895D01*
X54119Y35958D01*
X54078Y36012D01*
X54023Y36054D01*
X53960Y36080D01*
X53892Y36089D01*
D02*
G37*
G36*
X54792D02*
X54724Y36080D01*
X54661Y36054D01*
X54607Y36012D01*
X54565Y35958D01*
X54539Y35895D01*
X54530Y35827D01*
X54539Y35759D01*
X54565Y35696D01*
X54607Y35641D01*
X54661Y35600D01*
X54724Y35573D01*
X54792Y35565D01*
X54860Y35573D01*
X54923Y35600D01*
X54978Y35641D01*
X55019Y35696D01*
X55045Y35759D01*
X55054Y35827D01*
X55045Y35895D01*
X55019Y35958D01*
X54978Y36012D01*
X54923Y36054D01*
X54860Y36080D01*
X54792Y36089D01*
D02*
G37*
G36*
X56592Y35189D02*
X56524Y35180D01*
X56461Y35154D01*
X56407Y35112D01*
X56365Y35058D01*
X56339Y34995D01*
X56330Y34927D01*
X56339Y34859D01*
X56365Y34796D01*
X56407Y34741D01*
X56461Y34700D01*
X56524Y34673D01*
X56592Y34665D01*
X56660Y34673D01*
X56723Y34700D01*
X56778Y34741D01*
X56819Y34796D01*
X56845Y34859D01*
X56854Y34927D01*
X56845Y34995D01*
X56819Y35058D01*
X56778Y35112D01*
X56723Y35154D01*
X56660Y35180D01*
X56592Y35189D01*
D02*
G37*
G36*
X52992Y36089D02*
X52924Y36080D01*
X52861Y36054D01*
X52807Y36012D01*
X52765Y35958D01*
X52739Y35895D01*
X52730Y35827D01*
X52739Y35759D01*
X52765Y35696D01*
X52807Y35641D01*
X52861Y35600D01*
X52924Y35573D01*
X52992Y35565D01*
X53060Y35573D01*
X53123Y35600D01*
X53178Y35641D01*
X53219Y35696D01*
X53245Y35759D01*
X53254Y35827D01*
X53245Y35895D01*
X53219Y35958D01*
X53178Y36012D01*
X53123Y36054D01*
X53060Y36080D01*
X52992Y36089D01*
D02*
G37*
G36*
X63222Y36213D02*
X63154Y36204D01*
X63091Y36178D01*
X63037Y36137D01*
X62995Y36082D01*
X62969Y36019D01*
X62960Y35951D01*
X62969Y35883D01*
X62995Y35820D01*
X63037Y35766D01*
X63091Y35724D01*
X63154Y35698D01*
X63222Y35689D01*
X63290Y35698D01*
X63353Y35724D01*
X63407Y35766D01*
X63449Y35820D01*
X63475Y35883D01*
X63484Y35951D01*
X63475Y36019D01*
X63449Y36082D01*
X63407Y36137D01*
X63353Y36178D01*
X63290Y36204D01*
X63222Y36213D01*
D02*
G37*
G36*
X80079Y36246D02*
X80011Y36237D01*
X79947Y36211D01*
X79893Y36170D01*
X79851Y36115D01*
X79825Y36052D01*
X79816Y35984D01*
X79825Y35916D01*
X79851Y35853D01*
X79893Y35799D01*
X79947Y35757D01*
X80011Y35731D01*
X80079Y35722D01*
X80146Y35731D01*
X80210Y35757D01*
X80264Y35799D01*
X80306Y35853D01*
X80332Y35916D01*
X80341Y35984D01*
X80332Y36052D01*
X80306Y36115D01*
X80264Y36170D01*
X80210Y36211D01*
X80146Y36237D01*
X80079Y36246D01*
D02*
G37*
G36*
X55692Y36089D02*
X55624Y36080D01*
X55561Y36054D01*
X55507Y36012D01*
X55465Y35958D01*
X55439Y35895D01*
X55430Y35827D01*
X55439Y35759D01*
X55465Y35696D01*
X55507Y35641D01*
X55561Y35600D01*
X55624Y35573D01*
X55692Y35565D01*
X55760Y35573D01*
X55823Y35600D01*
X55878Y35641D01*
X55919Y35696D01*
X55945Y35759D01*
X55954Y35827D01*
X55945Y35895D01*
X55919Y35958D01*
X55878Y36012D01*
X55823Y36054D01*
X55760Y36080D01*
X55692Y36089D01*
D02*
G37*
G36*
X56592D02*
X56524Y36080D01*
X56461Y36054D01*
X56407Y36012D01*
X56365Y35958D01*
X56339Y35895D01*
X56330Y35827D01*
X56339Y35759D01*
X56365Y35696D01*
X56407Y35641D01*
X56461Y35600D01*
X56524Y35573D01*
X56592Y35565D01*
X56660Y35573D01*
X56723Y35600D01*
X56778Y35641D01*
X56819Y35696D01*
X56845Y35759D01*
X56854Y35827D01*
X56845Y35895D01*
X56819Y35958D01*
X56778Y36012D01*
X56723Y36054D01*
X56660Y36080D01*
X56592Y36089D01*
D02*
G37*
G36*
X61725Y35072D02*
X61658Y35063D01*
X61594Y35037D01*
X61540Y34995D01*
X61498Y34941D01*
X61472Y34878D01*
X61463Y34810D01*
X61472Y34742D01*
X61498Y34679D01*
X61540Y34625D01*
X61594Y34583D01*
X61658Y34557D01*
X61725Y34548D01*
X61793Y34557D01*
X61857Y34583D01*
X61911Y34625D01*
X61953Y34679D01*
X61979Y34742D01*
X61988Y34810D01*
X61979Y34878D01*
X61953Y34941D01*
X61911Y34995D01*
X61857Y35037D01*
X61793Y35063D01*
X61725Y35072D01*
D02*
G37*
G36*
X63340D02*
X63272Y35063D01*
X63208Y35037D01*
X63154Y34995D01*
X63113Y34941D01*
X63086Y34878D01*
X63077Y34810D01*
X63086Y34742D01*
X63113Y34679D01*
X63154Y34625D01*
X63208Y34583D01*
X63272Y34557D01*
X63340Y34548D01*
X63407Y34557D01*
X63471Y34583D01*
X63525Y34625D01*
X63567Y34679D01*
X63593Y34742D01*
X63602Y34810D01*
X63593Y34878D01*
X63567Y34941D01*
X63525Y34995D01*
X63471Y35037D01*
X63407Y35063D01*
X63340Y35072D01*
D02*
G37*
G36*
X94300Y34538D02*
X94213Y34526D01*
X94131Y34493D01*
X94061Y34439D01*
X94007Y34369D01*
X93974Y34287D01*
X93962Y34200D01*
X93974Y34113D01*
X94007Y34031D01*
X94061Y33961D01*
X94131Y33907D01*
X94213Y33874D01*
X94300Y33862D01*
X94387Y33874D01*
X94469Y33907D01*
X94539Y33961D01*
X94593Y34031D01*
X94626Y34113D01*
X94638Y34200D01*
X94626Y34287D01*
X94593Y34369D01*
X94539Y34439D01*
X94469Y34493D01*
X94387Y34526D01*
X94300Y34538D01*
D02*
G37*
G36*
X61693Y34435D02*
X61625Y34427D01*
X61562Y34400D01*
X61507Y34359D01*
X61466Y34304D01*
X61440Y34241D01*
X61431Y34173D01*
X61440Y34105D01*
X61466Y34042D01*
X61507Y33988D01*
X61562Y33946D01*
X61625Y33920D01*
X61693Y33911D01*
X61761Y33920D01*
X61824Y33946D01*
X61878Y33988D01*
X61920Y34042D01*
X61946Y34105D01*
X61955Y34173D01*
X61946Y34241D01*
X61920Y34304D01*
X61878Y34359D01*
X61824Y34400D01*
X61761Y34427D01*
X61693Y34435D01*
D02*
G37*
G36*
X54792Y35189D02*
X54724Y35180D01*
X54661Y35154D01*
X54607Y35112D01*
X54565Y35058D01*
X54539Y34995D01*
X54530Y34927D01*
X54539Y34859D01*
X54565Y34796D01*
X54607Y34741D01*
X54661Y34700D01*
X54724Y34673D01*
X54792Y34665D01*
X54860Y34673D01*
X54923Y34700D01*
X54978Y34741D01*
X55019Y34796D01*
X55045Y34859D01*
X55054Y34927D01*
X55045Y34995D01*
X55019Y35058D01*
X54978Y35112D01*
X54923Y35154D01*
X54860Y35180D01*
X54792Y35189D01*
D02*
G37*
G36*
X55692D02*
X55624Y35180D01*
X55561Y35154D01*
X55507Y35112D01*
X55465Y35058D01*
X55439Y34995D01*
X55430Y34927D01*
X55439Y34859D01*
X55465Y34796D01*
X55507Y34741D01*
X55561Y34700D01*
X55624Y34673D01*
X55692Y34665D01*
X55760Y34673D01*
X55823Y34700D01*
X55878Y34741D01*
X55919Y34796D01*
X55945Y34859D01*
X55954Y34927D01*
X55945Y34995D01*
X55919Y35058D01*
X55878Y35112D01*
X55823Y35154D01*
X55760Y35180D01*
X55692Y35189D01*
D02*
G37*
G36*
X52992D02*
X52924Y35180D01*
X52861Y35154D01*
X52807Y35112D01*
X52765Y35058D01*
X52739Y34995D01*
X52730Y34927D01*
X52739Y34859D01*
X52765Y34796D01*
X52807Y34741D01*
X52861Y34700D01*
X52924Y34673D01*
X52992Y34665D01*
X53060Y34673D01*
X53123Y34700D01*
X53178Y34741D01*
X53219Y34796D01*
X53245Y34859D01*
X53254Y34927D01*
X53245Y34995D01*
X53219Y35058D01*
X53178Y35112D01*
X53123Y35154D01*
X53060Y35180D01*
X52992Y35189D01*
D02*
G37*
G36*
X53892D02*
X53824Y35180D01*
X53761Y35154D01*
X53707Y35112D01*
X53665Y35058D01*
X53639Y34995D01*
X53630Y34927D01*
X53639Y34859D01*
X53665Y34796D01*
X53707Y34741D01*
X53761Y34700D01*
X53824Y34673D01*
X53892Y34665D01*
X53960Y34673D01*
X54023Y34700D01*
X54078Y34741D01*
X54119Y34796D01*
X54145Y34859D01*
X54154Y34927D01*
X54145Y34995D01*
X54119Y35058D01*
X54078Y35112D01*
X54023Y35154D01*
X53960Y35180D01*
X53892Y35189D01*
D02*
G37*
G36*
X78800Y33788D02*
X78713Y33776D01*
X78631Y33743D01*
X78561Y33689D01*
X78507Y33619D01*
X78474Y33537D01*
X78462Y33450D01*
X78474Y33363D01*
X78507Y33281D01*
X78561Y33211D01*
X78631Y33157D01*
X78713Y33124D01*
X78800Y33112D01*
X78887Y33124D01*
X78969Y33157D01*
X79039Y33211D01*
X79093Y33281D01*
X79126Y33363D01*
X79138Y33450D01*
X79126Y33537D01*
X79093Y33619D01*
X79039Y33689D01*
X78969Y33743D01*
X78887Y33776D01*
X78800Y33788D01*
D02*
G37*
G36*
X94800Y32288D02*
X94713Y32276D01*
X94631Y32243D01*
X94561Y32189D01*
X94507Y32119D01*
X94474Y32037D01*
X94462Y31950D01*
X94474Y31863D01*
X94507Y31781D01*
X94561Y31711D01*
X94631Y31657D01*
X94713Y31624D01*
X94800Y31612D01*
X94887Y31624D01*
X94969Y31657D01*
X95039Y31711D01*
X95093Y31781D01*
X95126Y31863D01*
X95138Y31950D01*
X95126Y32037D01*
X95093Y32119D01*
X95039Y32189D01*
X94969Y32243D01*
X94887Y32276D01*
X94800Y32288D01*
D02*
G37*
G36*
X31850Y32564D02*
X31743Y32549D01*
X31643Y32508D01*
X31558Y32442D01*
X31492Y32357D01*
X31451Y32257D01*
X31436Y32150D01*
X31451Y32043D01*
X31492Y31943D01*
X31558Y31858D01*
X31643Y31792D01*
X31743Y31751D01*
X31850Y31736D01*
X31957Y31751D01*
X32057Y31792D01*
X32142Y31858D01*
X32208Y31943D01*
X32249Y32043D01*
X32264Y32150D01*
X32249Y32257D01*
X32208Y32357D01*
X32142Y32442D01*
X32057Y32508D01*
X31957Y32549D01*
X31850Y32564D01*
D02*
G37*
G36*
X93800Y32288D02*
X93713Y32276D01*
X93631Y32243D01*
X93561Y32189D01*
X93507Y32119D01*
X93474Y32037D01*
X93462Y31950D01*
X93474Y31863D01*
X93507Y31781D01*
X93561Y31711D01*
X93631Y31657D01*
X93713Y31624D01*
X93800Y31612D01*
X93887Y31624D01*
X93969Y31657D01*
X94039Y31711D01*
X94093Y31781D01*
X94126Y31863D01*
X94138Y31950D01*
X94126Y32037D01*
X94093Y32119D01*
X94039Y32189D01*
X93969Y32243D01*
X93887Y32276D01*
X93800Y32288D01*
D02*
G37*
G36*
X91800D02*
X91713Y32276D01*
X91631Y32243D01*
X91561Y32189D01*
X91507Y32119D01*
X91474Y32037D01*
X91462Y31950D01*
X91474Y31863D01*
X91507Y31781D01*
X91561Y31711D01*
X91631Y31657D01*
X91713Y31624D01*
X91800Y31612D01*
X91887Y31624D01*
X91969Y31657D01*
X92039Y31711D01*
X92093Y31781D01*
X92126Y31863D01*
X92138Y31950D01*
X92126Y32037D01*
X92093Y32119D01*
X92039Y32189D01*
X91969Y32243D01*
X91887Y32276D01*
X91800Y32288D01*
D02*
G37*
G36*
X92800D02*
X92713Y32276D01*
X92631Y32243D01*
X92561Y32189D01*
X92507Y32119D01*
X92474Y32037D01*
X92462Y31950D01*
X92474Y31863D01*
X92507Y31781D01*
X92561Y31711D01*
X92631Y31657D01*
X92713Y31624D01*
X92800Y31612D01*
X92887Y31624D01*
X92969Y31657D01*
X93039Y31711D01*
X93093Y31781D01*
X93126Y31863D01*
X93138Y31950D01*
X93126Y32037D01*
X93093Y32119D01*
X93039Y32189D01*
X92969Y32243D01*
X92887Y32276D01*
X92800Y32288D01*
D02*
G37*
G36*
X35600Y32564D02*
X35493Y32549D01*
X35393Y32508D01*
X35308Y32442D01*
X35242Y32357D01*
X35201Y32257D01*
X35186Y32150D01*
X35201Y32043D01*
X35242Y31943D01*
X35308Y31858D01*
X35393Y31792D01*
X35493Y31751D01*
X35600Y31736D01*
X35707Y31751D01*
X35807Y31792D01*
X35892Y31858D01*
X35958Y31943D01*
X35999Y32043D01*
X36014Y32150D01*
X35999Y32257D01*
X35958Y32357D01*
X35892Y32442D01*
X35807Y32508D01*
X35707Y32549D01*
X35600Y32564D01*
D02*
G37*
G36*
X44757Y32100D02*
X44400D01*
Y31743D01*
X44457Y31751D01*
X44557Y31792D01*
X44642Y31858D01*
X44708Y31943D01*
X44749Y32043D01*
X44757Y32100D01*
D02*
G37*
G36*
X103344Y32129D02*
X103282Y32117D01*
X103229Y32081D01*
X103193Y32029D01*
X103181Y31966D01*
X103193Y31904D01*
X103229Y31851D01*
X103282Y31815D01*
X103344Y31803D01*
X103407Y31815D01*
X103459Y31851D01*
X103495Y31904D01*
X103507Y31966D01*
X103495Y32029D01*
X103459Y32081D01*
X103407Y32117D01*
X103344Y32129D01*
D02*
G37*
G36*
X44300Y32100D02*
X43943D01*
X43951Y32043D01*
X43992Y31943D01*
X44058Y31858D01*
X44143Y31792D01*
X44243Y31751D01*
X44300Y31743D01*
Y32100D01*
D02*
G37*
G36*
X36850Y32564D02*
X36743Y32549D01*
X36643Y32508D01*
X36558Y32442D01*
X36492Y32357D01*
X36451Y32257D01*
X36436Y32150D01*
X36451Y32043D01*
X36492Y31943D01*
X36558Y31858D01*
X36643Y31792D01*
X36743Y31751D01*
X36850Y31736D01*
X36957Y31751D01*
X37057Y31792D01*
X37142Y31858D01*
X37208Y31943D01*
X37249Y32043D01*
X37264Y32150D01*
X37249Y32257D01*
X37208Y32357D01*
X37142Y32442D01*
X37057Y32508D01*
X36957Y32549D01*
X36850Y32564D01*
D02*
G37*
G36*
X38100D02*
X37993Y32549D01*
X37893Y32508D01*
X37808Y32442D01*
X37742Y32357D01*
X37701Y32257D01*
X37686Y32150D01*
X37701Y32043D01*
X37742Y31943D01*
X37808Y31858D01*
X37893Y31792D01*
X37993Y31751D01*
X38100Y31736D01*
X38207Y31751D01*
X38307Y31792D01*
X38392Y31858D01*
X38458Y31943D01*
X38499Y32043D01*
X38514Y32150D01*
X38499Y32257D01*
X38458Y32357D01*
X38392Y32442D01*
X38307Y32508D01*
X38207Y32549D01*
X38100Y32564D01*
D02*
G37*
G36*
X88800Y32288D02*
X88713Y32276D01*
X88631Y32243D01*
X88561Y32189D01*
X88507Y32119D01*
X88474Y32037D01*
X88462Y31950D01*
X88474Y31863D01*
X88507Y31781D01*
X88561Y31711D01*
X88631Y31657D01*
X88713Y31624D01*
X88800Y31612D01*
X88887Y31624D01*
X88969Y31657D01*
X89039Y31711D01*
X89093Y31781D01*
X89126Y31863D01*
X89138Y31950D01*
X89126Y32037D01*
X89093Y32119D01*
X89039Y32189D01*
X88969Y32243D01*
X88887Y32276D01*
X88800Y32288D01*
D02*
G37*
G36*
X102410Y31572D02*
X102347Y31560D01*
X102294Y31524D01*
X102259Y31471D01*
X102247Y31409D01*
X102259Y31347D01*
X102294Y31294D01*
X102347Y31258D01*
X102410Y31246D01*
X102472Y31258D01*
X102525Y31294D01*
X102561Y31347D01*
X102573Y31409D01*
X102561Y31471D01*
X102525Y31524D01*
X102472Y31560D01*
X102410Y31572D01*
D02*
G37*
G36*
X77406Y32800D02*
X77290Y32789D01*
X77179Y32755D01*
X77076Y32700D01*
X76986Y32626D01*
X76912Y32536D01*
X76857Y32433D01*
X76823Y32322D01*
X76812Y32206D01*
X76823Y32090D01*
X76857Y31978D01*
X76912Y31876D01*
X76986Y31786D01*
X77076Y31712D01*
X77179Y31657D01*
X77290Y31623D01*
X77406Y31612D01*
X77522Y31623D01*
X77634Y31657D01*
X77737Y31712D01*
X77827Y31786D01*
X77900Y31876D01*
X77955Y31978D01*
X77989Y32090D01*
X78001Y32206D01*
X77989Y32322D01*
X77955Y32433D01*
X77900Y32536D01*
X77827Y32626D01*
X77737Y32700D01*
X77634Y32755D01*
X77522Y32789D01*
X77406Y32800D01*
D02*
G37*
G36*
X68900Y32864D02*
X68731Y32848D01*
X68569Y32798D01*
X68420Y32719D01*
X68289Y32611D01*
X68181Y32480D01*
X68102Y32331D01*
X68052Y32169D01*
X68036Y32000D01*
X68052Y31831D01*
X68102Y31669D01*
X68181Y31520D01*
X68289Y31389D01*
X68420Y31281D01*
X68569Y31202D01*
X68731Y31152D01*
X68900Y31136D01*
X69069Y31152D01*
X69231Y31202D01*
X69380Y31281D01*
X69511Y31389D01*
X69619Y31520D01*
X69698Y31669D01*
X69748Y31831D01*
X69764Y32000D01*
X69748Y32169D01*
X69698Y32331D01*
X69619Y32480D01*
X69511Y32611D01*
X69380Y32719D01*
X69231Y32798D01*
X69069Y32848D01*
X68900Y32864D01*
D02*
G37*
G36*
X101338Y31522D02*
X101271Y31513D01*
X101207Y31487D01*
X101153Y31445D01*
X101111Y31391D01*
X101085Y31328D01*
X101076Y31260D01*
X101085Y31192D01*
X101111Y31129D01*
X101153Y31074D01*
X101207Y31033D01*
X101271Y31006D01*
X101338Y30998D01*
X101406Y31006D01*
X101469Y31033D01*
X101524Y31074D01*
X101565Y31129D01*
X101592Y31192D01*
X101601Y31260D01*
X101592Y31328D01*
X101565Y31391D01*
X101524Y31445D01*
X101469Y31487D01*
X101406Y31513D01*
X101338Y31522D01*
D02*
G37*
G36*
X97756Y31601D02*
X97688Y31592D01*
X97625Y31566D01*
X97570Y31524D01*
X97529Y31470D01*
X97502Y31406D01*
X97493Y31339D01*
X97502Y31271D01*
X97529Y31207D01*
X97570Y31153D01*
X97625Y31111D01*
X97688Y31085D01*
X97756Y31076D01*
X97824Y31085D01*
X97887Y31111D01*
X97941Y31153D01*
X97983Y31207D01*
X98009Y31271D01*
X98018Y31339D01*
X98009Y31406D01*
X97983Y31470D01*
X97941Y31524D01*
X97887Y31566D01*
X97824Y31592D01*
X97756Y31601D01*
D02*
G37*
G36*
X78800Y32288D02*
X78713Y32276D01*
X78631Y32243D01*
X78561Y32189D01*
X78507Y32119D01*
X78474Y32037D01*
X78462Y31950D01*
X78474Y31863D01*
X78507Y31781D01*
X78561Y31711D01*
X78631Y31657D01*
X78713Y31624D01*
X78800Y31612D01*
X78887Y31624D01*
X78969Y31657D01*
X79039Y31711D01*
X79093Y31781D01*
X79126Y31863D01*
X79138Y31950D01*
X79126Y32037D01*
X79093Y32119D01*
X79039Y32189D01*
X78969Y32243D01*
X78887Y32276D01*
X78800Y32288D01*
D02*
G37*
G36*
X86800D02*
X86713Y32276D01*
X86631Y32243D01*
X86561Y32189D01*
X86507Y32119D01*
X86474Y32037D01*
X86462Y31950D01*
X86474Y31863D01*
X86507Y31781D01*
X86561Y31711D01*
X86631Y31657D01*
X86713Y31624D01*
X86800Y31612D01*
X86887Y31624D01*
X86969Y31657D01*
X87039Y31711D01*
X87093Y31781D01*
X87126Y31863D01*
X87138Y31950D01*
X87126Y32037D01*
X87093Y32119D01*
X87039Y32189D01*
X86969Y32243D01*
X86887Y32276D01*
X86800Y32288D01*
D02*
G37*
G36*
X87800D02*
X87713Y32276D01*
X87631Y32243D01*
X87561Y32189D01*
X87507Y32119D01*
X87474Y32037D01*
X87462Y31950D01*
X87474Y31863D01*
X87507Y31781D01*
X87561Y31711D01*
X87631Y31657D01*
X87713Y31624D01*
X87800Y31612D01*
X87887Y31624D01*
X87969Y31657D01*
X88039Y31711D01*
X88093Y31781D01*
X88126Y31863D01*
X88138Y31950D01*
X88126Y32037D01*
X88093Y32119D01*
X88039Y32189D01*
X87969Y32243D01*
X87887Y32276D01*
X87800Y32288D01*
D02*
G37*
G36*
X85800D02*
X85713Y32276D01*
X85631Y32243D01*
X85561Y32189D01*
X85507Y32119D01*
X85474Y32037D01*
X85462Y31950D01*
X85474Y31863D01*
X85507Y31781D01*
X85561Y31711D01*
X85631Y31657D01*
X85713Y31624D01*
X85800Y31612D01*
X85887Y31624D01*
X85969Y31657D01*
X86039Y31711D01*
X86093Y31781D01*
X86126Y31863D01*
X86138Y31950D01*
X86126Y32037D01*
X86093Y32119D01*
X86039Y32189D01*
X85969Y32243D01*
X85887Y32276D01*
X85800Y32288D01*
D02*
G37*
G36*
X83800D02*
X83713Y32276D01*
X83631Y32243D01*
X83561Y32189D01*
X83507Y32119D01*
X83474Y32037D01*
X83462Y31950D01*
X83474Y31863D01*
X83507Y31781D01*
X83561Y31711D01*
X83631Y31657D01*
X83713Y31624D01*
X83800Y31612D01*
X83887Y31624D01*
X83969Y31657D01*
X84039Y31711D01*
X84093Y31781D01*
X84126Y31863D01*
X84138Y31950D01*
X84126Y32037D01*
X84093Y32119D01*
X84039Y32189D01*
X83969Y32243D01*
X83887Y32276D01*
X83800Y32288D01*
D02*
G37*
G36*
X84800D02*
X84713Y32276D01*
X84631Y32243D01*
X84561Y32189D01*
X84507Y32119D01*
X84474Y32037D01*
X84462Y31950D01*
X84474Y31863D01*
X84507Y31781D01*
X84561Y31711D01*
X84631Y31657D01*
X84713Y31624D01*
X84800Y31612D01*
X84887Y31624D01*
X84969Y31657D01*
X85039Y31711D01*
X85093Y31781D01*
X85126Y31863D01*
X85138Y31950D01*
X85126Y32037D01*
X85093Y32119D01*
X85039Y32189D01*
X84969Y32243D01*
X84887Y32276D01*
X84800Y32288D01*
D02*
G37*
G36*
X92300Y33038D02*
X92213Y33026D01*
X92131Y32993D01*
X92061Y32939D01*
X92007Y32869D01*
X91974Y32787D01*
X91962Y32700D01*
X91974Y32613D01*
X92007Y32531D01*
X92061Y32461D01*
X92131Y32407D01*
X92213Y32374D01*
X92300Y32362D01*
X92387Y32374D01*
X92469Y32407D01*
X92539Y32461D01*
X92593Y32531D01*
X92626Y32613D01*
X92638Y32700D01*
X92626Y32787D01*
X92593Y32869D01*
X92539Y32939D01*
X92469Y32993D01*
X92387Y33026D01*
X92300Y33038D01*
D02*
G37*
G36*
X93300D02*
X93213Y33026D01*
X93131Y32993D01*
X93061Y32939D01*
X93007Y32869D01*
X92974Y32787D01*
X92962Y32700D01*
X92974Y32613D01*
X93007Y32531D01*
X93061Y32461D01*
X93131Y32407D01*
X93213Y32374D01*
X93300Y32362D01*
X93387Y32374D01*
X93469Y32407D01*
X93539Y32461D01*
X93593Y32531D01*
X93626Y32613D01*
X93638Y32700D01*
X93626Y32787D01*
X93593Y32869D01*
X93539Y32939D01*
X93469Y32993D01*
X93387Y33026D01*
X93300Y33038D01*
D02*
G37*
G36*
X84300D02*
X84213Y33026D01*
X84131Y32993D01*
X84061Y32939D01*
X84007Y32869D01*
X83974Y32787D01*
X83962Y32700D01*
X83974Y32613D01*
X84007Y32531D01*
X84061Y32461D01*
X84131Y32407D01*
X84213Y32374D01*
X84300Y32362D01*
X84387Y32374D01*
X84469Y32407D01*
X84539Y32461D01*
X84593Y32531D01*
X84626Y32613D01*
X84638Y32700D01*
X84626Y32787D01*
X84593Y32869D01*
X84539Y32939D01*
X84469Y32993D01*
X84387Y33026D01*
X84300Y33038D01*
D02*
G37*
G36*
X78300D02*
X78213Y33026D01*
X78131Y32993D01*
X78061Y32939D01*
X78007Y32869D01*
X77974Y32787D01*
X77962Y32700D01*
X77974Y32613D01*
X78007Y32531D01*
X78061Y32461D01*
X78131Y32407D01*
X78213Y32374D01*
X78300Y32362D01*
X78387Y32374D01*
X78469Y32407D01*
X78539Y32461D01*
X78593Y32531D01*
X78626Y32613D01*
X78638Y32700D01*
X78626Y32787D01*
X78593Y32869D01*
X78539Y32939D01*
X78469Y32993D01*
X78387Y33026D01*
X78300Y33038D01*
D02*
G37*
G36*
X79300D02*
X79213Y33026D01*
X79131Y32993D01*
X79061Y32939D01*
X79007Y32869D01*
X78974Y32787D01*
X78962Y32700D01*
X78974Y32613D01*
X79007Y32531D01*
X79061Y32461D01*
X79131Y32407D01*
X79213Y32374D01*
X79300Y32362D01*
X79387Y32374D01*
X79469Y32407D01*
X79539Y32461D01*
X79593Y32531D01*
X79626Y32613D01*
X79638Y32700D01*
X79626Y32787D01*
X79593Y32869D01*
X79539Y32939D01*
X79469Y32993D01*
X79387Y33026D01*
X79300Y33038D01*
D02*
G37*
G36*
X94300D02*
X94213Y33026D01*
X94131Y32993D01*
X94061Y32939D01*
X94007Y32869D01*
X93974Y32787D01*
X93962Y32700D01*
X93974Y32613D01*
X94007Y32531D01*
X94061Y32461D01*
X94131Y32407D01*
X94213Y32374D01*
X94300Y32362D01*
X94387Y32374D01*
X94469Y32407D01*
X94539Y32461D01*
X94593Y32531D01*
X94626Y32613D01*
X94638Y32700D01*
X94626Y32787D01*
X94593Y32869D01*
X94539Y32939D01*
X94469Y32993D01*
X94387Y33026D01*
X94300Y33038D01*
D02*
G37*
G36*
X55692Y33389D02*
X55624Y33380D01*
X55561Y33354D01*
X55507Y33312D01*
X55465Y33258D01*
X55439Y33195D01*
X55430Y33127D01*
X55439Y33059D01*
X55465Y32996D01*
X55507Y32941D01*
X55561Y32900D01*
X55624Y32873D01*
X55692Y32865D01*
X55760Y32873D01*
X55823Y32900D01*
X55878Y32941D01*
X55919Y32996D01*
X55945Y33059D01*
X55954Y33127D01*
X55945Y33195D01*
X55919Y33258D01*
X55878Y33312D01*
X55823Y33354D01*
X55760Y33380D01*
X55692Y33389D01*
D02*
G37*
G36*
X56592D02*
X56524Y33380D01*
X56461Y33354D01*
X56407Y33312D01*
X56365Y33258D01*
X56339Y33195D01*
X56330Y33127D01*
X56339Y33059D01*
X56365Y32996D01*
X56407Y32941D01*
X56461Y32900D01*
X56524Y32873D01*
X56592Y32865D01*
X56660Y32873D01*
X56723Y32900D01*
X56778Y32941D01*
X56819Y32996D01*
X56845Y33059D01*
X56854Y33127D01*
X56845Y33195D01*
X56819Y33258D01*
X56778Y33312D01*
X56723Y33354D01*
X56660Y33380D01*
X56592Y33389D01*
D02*
G37*
G36*
X54792D02*
X54724Y33380D01*
X54661Y33354D01*
X54607Y33312D01*
X54565Y33258D01*
X54539Y33195D01*
X54530Y33127D01*
X54539Y33059D01*
X54565Y32996D01*
X54607Y32941D01*
X54661Y32900D01*
X54724Y32873D01*
X54792Y32865D01*
X54860Y32873D01*
X54923Y32900D01*
X54978Y32941D01*
X55019Y32996D01*
X55045Y33059D01*
X55054Y33127D01*
X55045Y33195D01*
X55019Y33258D01*
X54978Y33312D01*
X54923Y33354D01*
X54860Y33380D01*
X54792Y33389D01*
D02*
G37*
G36*
X52992D02*
X52924Y33380D01*
X52861Y33354D01*
X52807Y33312D01*
X52765Y33258D01*
X52739Y33195D01*
X52730Y33127D01*
X52739Y33059D01*
X52765Y32996D01*
X52807Y32941D01*
X52861Y32900D01*
X52924Y32873D01*
X52992Y32865D01*
X53060Y32873D01*
X53123Y32900D01*
X53178Y32941D01*
X53219Y32996D01*
X53245Y33059D01*
X53254Y33127D01*
X53245Y33195D01*
X53219Y33258D01*
X53178Y33312D01*
X53123Y33354D01*
X53060Y33380D01*
X52992Y33389D01*
D02*
G37*
G36*
X53892D02*
X53824Y33380D01*
X53761Y33354D01*
X53707Y33312D01*
X53665Y33258D01*
X53639Y33195D01*
X53630Y33127D01*
X53639Y33059D01*
X53665Y32996D01*
X53707Y32941D01*
X53761Y32900D01*
X53824Y32873D01*
X53892Y32865D01*
X53960Y32873D01*
X54023Y32900D01*
X54078Y32941D01*
X54119Y32996D01*
X54145Y33059D01*
X54154Y33127D01*
X54145Y33195D01*
X54119Y33258D01*
X54078Y33312D01*
X54023Y33354D01*
X53960Y33380D01*
X53892Y33389D01*
D02*
G37*
G36*
X96760Y33788D02*
X96621Y33775D01*
X96487Y33734D01*
X96364Y33668D01*
X96256Y33579D01*
X96167Y33471D01*
X96101Y33348D01*
X96060Y33214D01*
X96047Y33075D01*
X96060Y32936D01*
X96101Y32802D01*
X96167Y32679D01*
X96256Y32571D01*
X96364Y32482D01*
X96487Y32416D01*
X96621Y32375D01*
X96760Y32362D01*
X96899Y32375D01*
X97033Y32416D01*
X97156Y32482D01*
X97264Y32571D01*
X97353Y32679D01*
X97419Y32802D01*
X97460Y32936D01*
X97473Y33075D01*
X97460Y33214D01*
X97419Y33348D01*
X97353Y33471D01*
X97264Y33579D01*
X97156Y33668D01*
X97033Y33734D01*
X96899Y33775D01*
X96760Y33788D01*
D02*
G37*
G36*
X53892Y32489D02*
X53824Y32480D01*
X53761Y32454D01*
X53707Y32412D01*
X53665Y32358D01*
X53639Y32295D01*
X53630Y32227D01*
X53639Y32159D01*
X53665Y32096D01*
X53707Y32041D01*
X53761Y32000D01*
X53824Y31973D01*
X53892Y31965D01*
X53960Y31973D01*
X54023Y32000D01*
X54078Y32041D01*
X54119Y32096D01*
X54145Y32159D01*
X54154Y32227D01*
X54145Y32295D01*
X54119Y32358D01*
X54078Y32412D01*
X54023Y32454D01*
X53960Y32480D01*
X53892Y32489D01*
D02*
G37*
G36*
X54792D02*
X54724Y32480D01*
X54661Y32454D01*
X54607Y32412D01*
X54565Y32358D01*
X54539Y32295D01*
X54530Y32227D01*
X54539Y32159D01*
X54565Y32096D01*
X54607Y32041D01*
X54661Y32000D01*
X54724Y31973D01*
X54792Y31965D01*
X54860Y31973D01*
X54923Y32000D01*
X54978Y32041D01*
X55019Y32096D01*
X55045Y32159D01*
X55054Y32227D01*
X55045Y32295D01*
X55019Y32358D01*
X54978Y32412D01*
X54923Y32454D01*
X54860Y32480D01*
X54792Y32489D01*
D02*
G37*
G36*
X52992D02*
X52924Y32480D01*
X52861Y32454D01*
X52807Y32412D01*
X52765Y32358D01*
X52739Y32295D01*
X52730Y32227D01*
X52739Y32159D01*
X52765Y32096D01*
X52807Y32041D01*
X52861Y32000D01*
X52924Y31973D01*
X52992Y31965D01*
X53060Y31973D01*
X53123Y32000D01*
X53178Y32041D01*
X53219Y32096D01*
X53245Y32159D01*
X53254Y32227D01*
X53245Y32295D01*
X53219Y32358D01*
X53178Y32412D01*
X53123Y32454D01*
X53060Y32480D01*
X52992Y32489D01*
D02*
G37*
G36*
X62480Y32388D02*
X62412Y32379D01*
X62349Y32353D01*
X62295Y32311D01*
X62253Y32257D01*
X62227Y32194D01*
X62218Y32126D01*
X62227Y32058D01*
X62253Y31995D01*
X62295Y31941D01*
X62349Y31899D01*
X62412Y31873D01*
X62480Y31864D01*
X62548Y31873D01*
X62611Y31899D01*
X62666Y31941D01*
X62707Y31995D01*
X62734Y32058D01*
X62743Y32126D01*
X62734Y32194D01*
X62707Y32257D01*
X62666Y32311D01*
X62611Y32353D01*
X62548Y32379D01*
X62480Y32388D01*
D02*
G37*
G36*
X60550Y32389D02*
X60482Y32380D01*
X60419Y32354D01*
X60365Y32313D01*
X60323Y32258D01*
X60297Y32195D01*
X60288Y32127D01*
X60297Y32059D01*
X60323Y31996D01*
X60365Y31942D01*
X60419Y31900D01*
X60482Y31874D01*
X60550Y31865D01*
X60618Y31874D01*
X60681Y31900D01*
X60735Y31942D01*
X60777Y31996D01*
X60803Y32059D01*
X60812Y32127D01*
X60803Y32195D01*
X60777Y32258D01*
X60735Y32313D01*
X60681Y32354D01*
X60618Y32380D01*
X60550Y32389D01*
D02*
G37*
G36*
X55692Y32489D02*
X55624Y32480D01*
X55561Y32454D01*
X55507Y32412D01*
X55465Y32358D01*
X55439Y32295D01*
X55430Y32227D01*
X55439Y32159D01*
X55465Y32096D01*
X55507Y32041D01*
X55561Y32000D01*
X55624Y31973D01*
X55692Y31965D01*
X55760Y31973D01*
X55823Y32000D01*
X55878Y32041D01*
X55919Y32096D01*
X55945Y32159D01*
X55954Y32227D01*
X55945Y32295D01*
X55919Y32358D01*
X55878Y32412D01*
X55823Y32454D01*
X55760Y32480D01*
X55692Y32489D01*
D02*
G37*
G36*
X44400Y32557D02*
Y32200D01*
X44757D01*
X44749Y32257D01*
X44708Y32357D01*
X44642Y32442D01*
X44557Y32508D01*
X44457Y32549D01*
X44400Y32557D01*
D02*
G37*
G36*
X76340Y33788D02*
X76201Y33775D01*
X76067Y33734D01*
X75944Y33668D01*
X75836Y33579D01*
X75747Y33471D01*
X75681Y33348D01*
X75640Y33214D01*
X75627Y33075D01*
X75640Y32936D01*
X75681Y32802D01*
X75747Y32679D01*
X75836Y32571D01*
X75944Y32482D01*
X76067Y32416D01*
X76201Y32375D01*
X76340Y32362D01*
X76479Y32375D01*
X76613Y32416D01*
X76736Y32482D01*
X76844Y32571D01*
X76933Y32679D01*
X76999Y32802D01*
X77040Y32936D01*
X77053Y33075D01*
X77040Y33214D01*
X76999Y33348D01*
X76933Y33471D01*
X76844Y33579D01*
X76736Y33668D01*
X76613Y33734D01*
X76479Y33775D01*
X76340Y33788D01*
D02*
G37*
G36*
X44300Y32557D02*
X44243Y32549D01*
X44143Y32508D01*
X44058Y32442D01*
X43992Y32357D01*
X43951Y32257D01*
X43943Y32200D01*
X44300D01*
Y32557D01*
D02*
G37*
G36*
X56592Y32489D02*
X56524Y32480D01*
X56461Y32454D01*
X56407Y32412D01*
X56365Y32358D01*
X56339Y32295D01*
X56330Y32227D01*
X56339Y32159D01*
X56365Y32096D01*
X56407Y32041D01*
X56461Y32000D01*
X56524Y31973D01*
X56592Y31965D01*
X56660Y31973D01*
X56723Y32000D01*
X56778Y32041D01*
X56819Y32096D01*
X56845Y32159D01*
X56854Y32227D01*
X56845Y32295D01*
X56819Y32358D01*
X56778Y32412D01*
X56723Y32454D01*
X56660Y32480D01*
X56592Y32489D01*
D02*
G37*
G36*
X102945Y32336D02*
X102883Y32324D01*
X102830Y32288D01*
X102795Y32235D01*
X102782Y32173D01*
X102795Y32110D01*
X102830Y32057D01*
X102883Y32022D01*
X102945Y32010D01*
X103008Y32022D01*
X103061Y32057D01*
X103096Y32110D01*
X103108Y32173D01*
X103096Y32235D01*
X103061Y32288D01*
X103008Y32324D01*
X102945Y32336D01*
D02*
G37*
G36*
X60039Y36247D02*
X59971Y36238D01*
X59908Y36211D01*
X59854Y36170D01*
X59812Y36115D01*
X59786Y36052D01*
X59777Y35984D01*
X59786Y35916D01*
X59812Y35853D01*
X59854Y35799D01*
X59908Y35757D01*
X59971Y35731D01*
X60039Y35722D01*
X60107Y35731D01*
X60170Y35757D01*
X60225Y35799D01*
X60266Y35853D01*
X60293Y35916D01*
X60302Y35984D01*
X60293Y36052D01*
X60266Y36115D01*
X60225Y36170D01*
X60170Y36211D01*
X60107Y36238D01*
X60039Y36247D01*
D02*
G37*
G36*
X94094Y43077D02*
X94032Y43064D01*
X93979Y43029D01*
X93944Y42976D01*
X93931Y42913D01*
X93944Y42851D01*
X93979Y42798D01*
X94032Y42763D01*
X94094Y42750D01*
X94157Y42763D01*
X94210Y42798D01*
X94245Y42851D01*
X94258Y42913D01*
X94245Y42976D01*
X94210Y43029D01*
X94157Y43064D01*
X94094Y43077D01*
D02*
G37*
G36*
X93701Y43077D02*
X93638Y43064D01*
X93585Y43029D01*
X93550Y42976D01*
X93538Y42913D01*
X93550Y42851D01*
X93585Y42798D01*
X93638Y42763D01*
X93701Y42750D01*
X93763Y42763D01*
X93816Y42798D01*
X93851Y42851D01*
X93864Y42913D01*
X93851Y42976D01*
X93816Y43029D01*
X93763Y43064D01*
X93701Y43077D01*
D02*
G37*
G36*
X92913Y43077D02*
X92851Y43064D01*
X92798Y43029D01*
X92763Y42976D01*
X92750Y42913D01*
X92763Y42851D01*
X92798Y42798D01*
X92851Y42763D01*
X92913Y42750D01*
X92976Y42763D01*
X93029Y42798D01*
X93064Y42851D01*
X93077Y42913D01*
X93064Y42976D01*
X93029Y43029D01*
X92976Y43064D01*
X92913Y43077D01*
D02*
G37*
G36*
X35787Y42979D02*
X35720Y42970D01*
X35656Y42944D01*
X35602Y42902D01*
X35560Y42848D01*
X35534Y42784D01*
X35525Y42717D01*
X35534Y42649D01*
X35560Y42585D01*
X35602Y42531D01*
X35656Y42489D01*
X35720Y42463D01*
X35787Y42454D01*
X35855Y42463D01*
X35919Y42489D01*
X35973Y42531D01*
X36015Y42585D01*
X36041Y42649D01*
X36050Y42717D01*
X36041Y42784D01*
X36015Y42848D01*
X35973Y42902D01*
X35919Y42944D01*
X35855Y42970D01*
X35787Y42979D01*
D02*
G37*
G36*
X98032Y43077D02*
X97969Y43064D01*
X97916Y43029D01*
X97881Y42976D01*
X97868Y42913D01*
X97881Y42851D01*
X97916Y42798D01*
X97969Y42763D01*
X98032Y42750D01*
X98094Y42763D01*
X98147Y42798D01*
X98182Y42851D01*
X98195Y42913D01*
X98182Y42976D01*
X98147Y43029D01*
X98094Y43064D01*
X98032Y43077D01*
D02*
G37*
G36*
X97244Y43097D02*
X97174Y43083D01*
X97114Y43043D01*
X97074Y42984D01*
X97072Y42972D01*
X97022D01*
X97020Y42984D01*
X96980Y43043D01*
X96921Y43083D01*
X96850Y43097D01*
X96780Y43083D01*
X96721Y43043D01*
X96681Y42984D01*
X96679Y42972D01*
X96629D01*
X96626Y42984D01*
X96587Y43043D01*
X96527Y43083D01*
X96457Y43097D01*
X96386Y43083D01*
X96327Y43043D01*
X96287Y42984D01*
X96285Y42972D01*
X96235D01*
X96233Y42984D01*
X96193Y43043D01*
X96133Y43083D01*
X96063Y43097D01*
X95993Y43083D01*
X95933Y43043D01*
X95893Y42984D01*
X95891Y42972D01*
X95841D01*
X95839Y42984D01*
X95799Y43043D01*
X95740Y43083D01*
X95669Y43097D01*
X95599Y43083D01*
X95539Y43043D01*
X95500Y42984D01*
X95497Y42972D01*
X95447D01*
X95445Y42984D01*
X95405Y43043D01*
X95346Y43083D01*
X95276Y43097D01*
X95205Y43083D01*
X95146Y43043D01*
X95106Y42984D01*
X95104Y42972D01*
X95054D01*
X95052Y42984D01*
X95012Y43043D01*
X94952Y43083D01*
X94882Y43097D01*
X94812Y43083D01*
X94752Y43043D01*
X94712Y42984D01*
X94698Y42913D01*
X94712Y42843D01*
X94752Y42784D01*
X94812Y42744D01*
X94823Y42742D01*
Y42692D01*
X94812Y42689D01*
X94752Y42650D01*
X94712Y42590D01*
X94698Y42520D01*
X94712Y42449D01*
X94752Y42390D01*
X94812Y42350D01*
X94823Y42348D01*
Y42298D01*
X94812Y42296D01*
X94752Y42256D01*
X94712Y42196D01*
X94698Y42126D01*
X94712Y42056D01*
X94752Y41996D01*
X94812Y41956D01*
X94823Y41954D01*
Y41904D01*
X94812Y41902D01*
X94752Y41862D01*
X94712Y41803D01*
X94698Y41732D01*
X94712Y41662D01*
X94752Y41602D01*
X94812Y41563D01*
X94823Y41560D01*
Y41510D01*
X94812Y41508D01*
X94752Y41468D01*
X94712Y41409D01*
X94698Y41339D01*
X94712Y41268D01*
X94752Y41209D01*
X94812Y41169D01*
X94823Y41167D01*
Y41117D01*
X94812Y41115D01*
X94752Y41075D01*
X94712Y41015D01*
X94698Y40945D01*
X94712Y40875D01*
X94752Y40815D01*
X94812Y40775D01*
X94823Y40773D01*
Y40723D01*
X94812Y40721D01*
X94752Y40681D01*
X94712Y40621D01*
X94698Y40551D01*
X94712Y40481D01*
X94752Y40421D01*
X94812Y40382D01*
X94882Y40368D01*
X94952Y40382D01*
X95012Y40421D01*
X95052Y40481D01*
X95054Y40492D01*
X95104D01*
X95106Y40481D01*
X95146Y40421D01*
X95205Y40382D01*
X95276Y40368D01*
X95346Y40382D01*
X95405Y40421D01*
X95445Y40481D01*
X95447Y40492D01*
X95497D01*
X95500Y40481D01*
X95539Y40421D01*
X95599Y40382D01*
X95669Y40368D01*
X95740Y40382D01*
X95799Y40421D01*
X95839Y40481D01*
X95841Y40492D01*
X95891D01*
X95893Y40481D01*
X95933Y40421D01*
X95993Y40382D01*
X96063Y40368D01*
X96133Y40382D01*
X96193Y40421D01*
X96233Y40481D01*
X96235Y40492D01*
X96285D01*
X96287Y40481D01*
X96327Y40421D01*
X96386Y40382D01*
X96457Y40368D01*
X96527Y40382D01*
X96587Y40421D01*
X96626Y40481D01*
X96629Y40492D01*
X96679D01*
X96681Y40481D01*
X96721Y40421D01*
X96780Y40382D01*
X96850Y40368D01*
X96921Y40382D01*
X96980Y40421D01*
X97020Y40481D01*
X97022Y40492D01*
X97072D01*
X97074Y40481D01*
X97114Y40421D01*
X97174Y40382D01*
X97244Y40368D01*
X97314Y40382D01*
X97374Y40421D01*
X97414Y40481D01*
X97428Y40551D01*
X97414Y40621D01*
X97374Y40681D01*
X97314Y40721D01*
X97303Y40723D01*
Y40773D01*
X97314Y40775D01*
X97374Y40815D01*
X97414Y40875D01*
X97428Y40945D01*
X97414Y41015D01*
X97374Y41075D01*
X97314Y41115D01*
X97303Y41117D01*
Y41167D01*
X97314Y41169D01*
X97374Y41209D01*
X97414Y41268D01*
X97428Y41339D01*
X97414Y41409D01*
X97374Y41468D01*
X97314Y41508D01*
X97303Y41510D01*
Y41560D01*
X97314Y41563D01*
X97374Y41602D01*
X97414Y41662D01*
X97428Y41732D01*
X97414Y41803D01*
X97374Y41862D01*
X97314Y41902D01*
X97303Y41904D01*
Y41954D01*
X97314Y41956D01*
X97374Y41996D01*
X97414Y42056D01*
X97428Y42126D01*
X97414Y42196D01*
X97374Y42256D01*
X97314Y42296D01*
X97303Y42298D01*
Y42348D01*
X97314Y42350D01*
X97374Y42390D01*
X97414Y42449D01*
X97428Y42520D01*
X97414Y42590D01*
X97374Y42650D01*
X97314Y42689D01*
X97303Y42692D01*
Y42742D01*
X97314Y42744D01*
X97374Y42784D01*
X97414Y42843D01*
X97428Y42913D01*
X97414Y42984D01*
X97374Y43043D01*
X97314Y43083D01*
X97244Y43097D01*
D02*
G37*
G36*
X99606Y43864D02*
X99544Y43851D01*
X99491Y43816D01*
X99455Y43763D01*
X99443Y43701D01*
X99455Y43638D01*
X99491Y43585D01*
X99544Y43550D01*
X99606Y43538D01*
X99669Y43550D01*
X99721Y43585D01*
X99757Y43638D01*
X99769Y43701D01*
X99757Y43763D01*
X99721Y43816D01*
X99669Y43851D01*
X99606Y43864D01*
D02*
G37*
G36*
X94882Y43864D02*
X94819Y43851D01*
X94767Y43816D01*
X94731Y43763D01*
X94719Y43701D01*
X94731Y43638D01*
X94767Y43585D01*
X94819Y43550D01*
X94882Y43538D01*
X94944Y43550D01*
X94997Y43585D01*
X95033Y43638D01*
X95045Y43701D01*
X95033Y43763D01*
X94997Y43816D01*
X94944Y43851D01*
X94882Y43864D01*
D02*
G37*
G36*
X103189Y43805D02*
X103121Y43797D01*
X103058Y43770D01*
X103003Y43729D01*
X102962Y43674D01*
X102935Y43611D01*
X102927Y43543D01*
X102935Y43475D01*
X102962Y43412D01*
X103003Y43358D01*
X103058Y43316D01*
X103121Y43290D01*
X103189Y43281D01*
X103257Y43290D01*
X103320Y43316D01*
X103374Y43358D01*
X103416Y43412D01*
X103442Y43475D01*
X103451Y43543D01*
X103442Y43611D01*
X103416Y43674D01*
X103374Y43729D01*
X103320Y43770D01*
X103257Y43797D01*
X103189Y43805D01*
D02*
G37*
G36*
X92520Y43470D02*
X92457Y43458D01*
X92404Y43422D01*
X92369Y43370D01*
X92357Y43307D01*
X92369Y43245D01*
X92404Y43192D01*
X92457Y43156D01*
X92520Y43144D01*
X92582Y43156D01*
X92635Y43192D01*
X92670Y43245D01*
X92683Y43307D01*
X92670Y43370D01*
X92635Y43422D01*
X92582Y43458D01*
X92520Y43470D01*
D02*
G37*
G36*
X99213D02*
X99150Y43458D01*
X99097Y43422D01*
X99062Y43370D01*
X99049Y43307D01*
X99062Y43245D01*
X99097Y43192D01*
X99150Y43156D01*
X99213Y43144D01*
X99275Y43156D01*
X99328Y43192D01*
X99363Y43245D01*
X99376Y43307D01*
X99363Y43370D01*
X99328Y43422D01*
X99275Y43458D01*
X99213Y43470D01*
D02*
G37*
G36*
X98032Y41895D02*
X97969Y41883D01*
X97916Y41848D01*
X97881Y41795D01*
X97868Y41732D01*
X97881Y41670D01*
X97916Y41617D01*
X97969Y41582D01*
X98032Y41569D01*
X98094Y41582D01*
X98147Y41617D01*
X98182Y41670D01*
X98195Y41732D01*
X98182Y41795D01*
X98147Y41848D01*
X98094Y41883D01*
X98032Y41895D01*
D02*
G37*
G36*
Y42289D02*
X97969Y42277D01*
X97916Y42241D01*
X97881Y42188D01*
X97868Y42126D01*
X97881Y42064D01*
X97916Y42011D01*
X97969Y41975D01*
X98032Y41963D01*
X98094Y41975D01*
X98147Y42011D01*
X98182Y42064D01*
X98195Y42126D01*
X98182Y42188D01*
X98147Y42241D01*
X98094Y42277D01*
X98032Y42289D01*
D02*
G37*
G36*
X94094Y41502D02*
X94032Y41489D01*
X93979Y41454D01*
X93944Y41401D01*
X93931Y41339D01*
X93944Y41276D01*
X93979Y41223D01*
X94032Y41188D01*
X94094Y41175D01*
X94157Y41188D01*
X94210Y41223D01*
X94245Y41276D01*
X94258Y41339D01*
X94245Y41401D01*
X94210Y41454D01*
X94157Y41489D01*
X94094Y41502D01*
D02*
G37*
G36*
X99213Y41108D02*
X99150Y41096D01*
X99097Y41060D01*
X99062Y41007D01*
X99049Y40945D01*
X99062Y40882D01*
X99097Y40830D01*
X99150Y40794D01*
X99213Y40782D01*
X99275Y40794D01*
X99328Y40830D01*
X99363Y40882D01*
X99376Y40945D01*
X99363Y41007D01*
X99328Y41060D01*
X99275Y41096D01*
X99213Y41108D01*
D02*
G37*
G36*
X93307Y41502D02*
X93244Y41489D01*
X93192Y41454D01*
X93156Y41401D01*
X93144Y41339D01*
X93156Y41276D01*
X93192Y41223D01*
X93244Y41188D01*
X93307Y41175D01*
X93369Y41188D01*
X93422Y41223D01*
X93458Y41276D01*
X93470Y41339D01*
X93458Y41401D01*
X93422Y41454D01*
X93369Y41489D01*
X93307Y41502D01*
D02*
G37*
G36*
X94094Y42289D02*
X94032Y42277D01*
X93979Y42241D01*
X93944Y42188D01*
X93931Y42126D01*
X93944Y42064D01*
X93979Y42011D01*
X94032Y41975D01*
X94094Y41963D01*
X94157Y41975D01*
X94210Y42011D01*
X94245Y42064D01*
X94258Y42126D01*
X94245Y42188D01*
X94210Y42241D01*
X94157Y42277D01*
X94094Y42289D01*
D02*
G37*
G36*
Y42683D02*
X94032Y42670D01*
X93979Y42635D01*
X93944Y42582D01*
X93931Y42520D01*
X93944Y42457D01*
X93979Y42404D01*
X94032Y42369D01*
X94094Y42357D01*
X94157Y42369D01*
X94210Y42404D01*
X94245Y42457D01*
X94258Y42520D01*
X94245Y42582D01*
X94210Y42635D01*
X94157Y42670D01*
X94094Y42683D01*
D02*
G37*
G36*
X31850Y42900D02*
X31783Y42891D01*
X31719Y42865D01*
X31665Y42823D01*
X31623Y42769D01*
X31597Y42706D01*
X31588Y42638D01*
X31597Y42570D01*
X31623Y42507D01*
X31665Y42452D01*
X31719Y42411D01*
X31783Y42384D01*
X31850Y42376D01*
X31918Y42384D01*
X31982Y42411D01*
X32036Y42452D01*
X32078Y42507D01*
X32104Y42570D01*
X32113Y42638D01*
X32104Y42706D01*
X32078Y42769D01*
X32036Y42823D01*
X31982Y42865D01*
X31918Y42891D01*
X31850Y42900D01*
D02*
G37*
G36*
X92913Y42683D02*
X92851Y42670D01*
X92798Y42635D01*
X92763Y42582D01*
X92750Y42520D01*
X92763Y42457D01*
X92798Y42404D01*
X92851Y42369D01*
X92913Y42357D01*
X92976Y42369D01*
X93029Y42404D01*
X93064Y42457D01*
X93077Y42520D01*
X93064Y42582D01*
X93029Y42635D01*
X92976Y42670D01*
X92913Y42683D01*
D02*
G37*
G36*
X99213Y42683D02*
X99150Y42670D01*
X99097Y42635D01*
X99062Y42582D01*
X99049Y42520D01*
X99062Y42457D01*
X99097Y42404D01*
X99150Y42369D01*
X99213Y42357D01*
X99275Y42369D01*
X99328Y42404D01*
X99363Y42457D01*
X99376Y42520D01*
X99363Y42582D01*
X99328Y42635D01*
X99275Y42670D01*
X99213Y42683D01*
D02*
G37*
G36*
X98032Y42683D02*
X97969Y42670D01*
X97916Y42635D01*
X97881Y42582D01*
X97868Y42520D01*
X97881Y42457D01*
X97916Y42404D01*
X97969Y42369D01*
X98032Y42357D01*
X98094Y42369D01*
X98147Y42404D01*
X98182Y42457D01*
X98195Y42520D01*
X98182Y42582D01*
X98147Y42635D01*
X98094Y42670D01*
X98032Y42683D01*
D02*
G37*
G36*
X95276Y43864D02*
X95213Y43851D01*
X95160Y43816D01*
X95125Y43763D01*
X95112Y43701D01*
X95125Y43638D01*
X95160Y43585D01*
X95213Y43550D01*
X95276Y43538D01*
X95338Y43550D01*
X95391Y43585D01*
X95426Y43638D01*
X95439Y43701D01*
X95426Y43763D01*
X95391Y43816D01*
X95338Y43851D01*
X95276Y43864D01*
D02*
G37*
G36*
X97638Y45439D02*
X97575Y45426D01*
X97522Y45391D01*
X97487Y45338D01*
X97475Y45276D01*
X97487Y45213D01*
X97522Y45160D01*
X97575Y45125D01*
X97638Y45112D01*
X97700Y45125D01*
X97753Y45160D01*
X97789Y45213D01*
X97801Y45276D01*
X97789Y45338D01*
X97753Y45391D01*
X97700Y45426D01*
X97638Y45439D01*
D02*
G37*
G36*
X100000D02*
X99938Y45426D01*
X99885Y45391D01*
X99849Y45338D01*
X99837Y45276D01*
X99849Y45213D01*
X99885Y45160D01*
X99938Y45125D01*
X100000Y45112D01*
X100062Y45125D01*
X100115Y45160D01*
X100151Y45213D01*
X100163Y45276D01*
X100151Y45338D01*
X100115Y45391D01*
X100062Y45426D01*
X100000Y45439D01*
D02*
G37*
G36*
X95669D02*
X95607Y45426D01*
X95554Y45391D01*
X95519Y45338D01*
X95506Y45276D01*
X95519Y45213D01*
X95554Y45160D01*
X95607Y45125D01*
X95669Y45112D01*
X95732Y45125D01*
X95785Y45160D01*
X95820Y45213D01*
X95832Y45276D01*
X95820Y45338D01*
X95785Y45391D01*
X95732Y45426D01*
X95669Y45439D01*
D02*
G37*
G36*
X92913D02*
X92851Y45426D01*
X92798Y45391D01*
X92763Y45338D01*
X92750Y45276D01*
X92763Y45213D01*
X92798Y45160D01*
X92851Y45125D01*
X92913Y45112D01*
X92976Y45125D01*
X93029Y45160D01*
X93064Y45213D01*
X93077Y45276D01*
X93064Y45338D01*
X93029Y45391D01*
X92976Y45426D01*
X92913Y45439D01*
D02*
G37*
G36*
X93307D02*
X93245Y45426D01*
X93192Y45391D01*
X93156Y45338D01*
X93144Y45276D01*
X93156Y45213D01*
X93192Y45160D01*
X93245Y45125D01*
X93307Y45112D01*
X93370Y45125D01*
X93422Y45160D01*
X93458Y45213D01*
X93470Y45276D01*
X93458Y45338D01*
X93422Y45391D01*
X93370Y45426D01*
X93307Y45439D01*
D02*
G37*
G36*
X82598Y45853D02*
X82530Y45844D01*
X82467Y45818D01*
X82413Y45776D01*
X82371Y45722D01*
X82345Y45658D01*
X82336Y45590D01*
X82345Y45523D01*
X82371Y45459D01*
X82413Y45405D01*
X82467Y45363D01*
X82530Y45337D01*
X82598Y45328D01*
X82666Y45337D01*
X82729Y45363D01*
X82784Y45405D01*
X82825Y45459D01*
X82852Y45523D01*
X82860Y45590D01*
X82852Y45658D01*
X82825Y45722D01*
X82784Y45776D01*
X82729Y45818D01*
X82666Y45844D01*
X82598Y45853D01*
D02*
G37*
G36*
X96693Y46903D02*
X96658Y46896D01*
X96628Y46876D01*
X96608Y46846D01*
X96601Y46811D01*
X96608Y46776D01*
X96628Y46746D01*
X96693Y46681D01*
X96687Y46654D01*
X96700Y46591D01*
X96735Y46538D01*
X96788Y46503D01*
X96850Y46490D01*
X96913Y46503D01*
X96966Y46538D01*
X97001Y46591D01*
X97014Y46654D01*
X97001Y46716D01*
X96966Y46769D01*
X96913Y46804D01*
X96850Y46817D01*
X96823Y46811D01*
X96758Y46876D01*
X96728Y46896D01*
X96693Y46903D01*
D02*
G37*
G36*
X97008Y47958D02*
X96945Y47946D01*
X96893Y47911D01*
X96857Y47858D01*
X96845Y47795D01*
X96857Y47733D01*
X96893Y47680D01*
X96945Y47645D01*
X97008Y47632D01*
X97070Y47645D01*
X97123Y47680D01*
X97159Y47733D01*
X97171Y47795D01*
X97159Y47858D01*
X97123Y47911D01*
X97070Y47946D01*
X97008Y47958D01*
D02*
G37*
G36*
X93898Y46305D02*
X93835Y46292D01*
X93782Y46257D01*
X93747Y46204D01*
X93735Y46142D01*
X93747Y46079D01*
X93782Y46026D01*
X93835Y45991D01*
X93898Y45979D01*
X93960Y45991D01*
X94013Y46026D01*
X94048Y46079D01*
X94061Y46142D01*
X94048Y46204D01*
X94013Y46257D01*
X93960Y46292D01*
X93898Y46305D01*
D02*
G37*
G36*
X93307Y46620D02*
X93245Y46607D01*
X93192Y46572D01*
X93156Y46519D01*
X93144Y46457D01*
X93156Y46394D01*
X93192Y46341D01*
X93215Y46326D01*
Y45800D01*
X93192Y45785D01*
X93156Y45732D01*
X93144Y45669D01*
X93156Y45607D01*
X93192Y45554D01*
X93245Y45519D01*
X93307Y45506D01*
X93370Y45519D01*
X93422Y45554D01*
X93458Y45607D01*
X93470Y45669D01*
X93458Y45732D01*
X93422Y45785D01*
X93399Y45800D01*
Y46326D01*
X93422Y46341D01*
X93458Y46394D01*
X93470Y46457D01*
X93458Y46519D01*
X93422Y46572D01*
X93370Y46607D01*
X93307Y46620D01*
D02*
G37*
G36*
X92874Y46266D02*
X92812Y46253D01*
X92759Y46218D01*
X92723Y46165D01*
X92711Y46102D01*
X92723Y46040D01*
X92759Y45987D01*
X92812Y45952D01*
X92874Y45939D01*
X92936Y45952D01*
X92989Y45987D01*
X93025Y46040D01*
X93037Y46102D01*
X93025Y46165D01*
X92989Y46218D01*
X92936Y46253D01*
X92874Y46266D01*
D02*
G37*
G36*
X97244Y43864D02*
X97182Y43851D01*
X97129Y43816D01*
X97093Y43763D01*
X97081Y43701D01*
X97093Y43638D01*
X97129Y43585D01*
X97182Y43550D01*
X97244Y43538D01*
X97307Y43550D01*
X97359Y43585D01*
X97395Y43638D01*
X97407Y43701D01*
X97395Y43763D01*
X97359Y43816D01*
X97307Y43851D01*
X97244Y43864D01*
D02*
G37*
G36*
X83701Y44160D02*
X83633Y44151D01*
X83569Y44125D01*
X83515Y44083D01*
X83474Y44029D01*
X83447Y43965D01*
X83438Y43898D01*
X83447Y43830D01*
X83474Y43766D01*
X83515Y43712D01*
X83569Y43670D01*
X83633Y43644D01*
X83701Y43635D01*
X83768Y43644D01*
X83832Y43670D01*
X83886Y43712D01*
X83928Y43766D01*
X83954Y43830D01*
X83963Y43898D01*
X83954Y43965D01*
X83928Y44029D01*
X83886Y44083D01*
X83832Y44125D01*
X83768Y44151D01*
X83701Y44160D01*
D02*
G37*
G36*
X96850Y43864D02*
X96788Y43851D01*
X96735Y43816D01*
X96700Y43763D01*
X96687Y43701D01*
X96700Y43638D01*
X96735Y43585D01*
X96788Y43550D01*
X96850Y43538D01*
X96913Y43550D01*
X96966Y43585D01*
X97001Y43638D01*
X97014Y43701D01*
X97001Y43763D01*
X96966Y43816D01*
X96913Y43851D01*
X96850Y43864D01*
D02*
G37*
G36*
X95669D02*
X95607Y43851D01*
X95554Y43816D01*
X95519Y43763D01*
X95506Y43701D01*
X95519Y43638D01*
X95554Y43585D01*
X95607Y43550D01*
X95669Y43538D01*
X95732Y43550D01*
X95785Y43585D01*
X95820Y43638D01*
X95832Y43701D01*
X95820Y43763D01*
X95785Y43816D01*
X95732Y43851D01*
X95669Y43864D01*
D02*
G37*
G36*
X96457D02*
X96394Y43851D01*
X96341Y43816D01*
X96306Y43763D01*
X96294Y43701D01*
X96306Y43638D01*
X96341Y43585D01*
X96394Y43550D01*
X96457Y43538D01*
X96519Y43550D01*
X96572Y43585D01*
X96607Y43638D01*
X96620Y43701D01*
X96607Y43763D01*
X96572Y43816D01*
X96519Y43851D01*
X96457Y43864D01*
D02*
G37*
G36*
X100945Y44383D02*
X99803D01*
X99768Y44376D01*
X99738Y44356D01*
X99634Y44252D01*
X99606Y44258D01*
X99544Y44245D01*
X99491Y44210D01*
X99456Y44157D01*
X99443Y44094D01*
X99456Y44032D01*
X99491Y43979D01*
X99544Y43944D01*
X99606Y43931D01*
X99669Y43944D01*
X99722Y43979D01*
X99757Y44032D01*
X99769Y44094D01*
X99764Y44122D01*
X99801Y44159D01*
X99845Y44136D01*
X99837Y44094D01*
X99849Y44032D01*
X99885Y43979D01*
X99938Y43944D01*
X100000Y43931D01*
X100028Y43937D01*
X100171Y43793D01*
X100201Y43773D01*
X100236Y43766D01*
X100630D01*
X100665Y43773D01*
X100675Y43780D01*
X100709Y43774D01*
X100771Y43786D01*
X100824Y43822D01*
X100859Y43875D01*
X100872Y43937D01*
X100859Y43999D01*
X100824Y44052D01*
X100771Y44088D01*
X100709Y44100D01*
X100646Y44088D01*
X100596Y44054D01*
X100554Y44082D01*
X100557Y44094D01*
X100544Y44157D01*
X100567Y44200D01*
X100907D01*
X100984Y44122D01*
X100979Y44094D01*
X100991Y44032D01*
X101026Y43979D01*
X101079Y43944D01*
X101142Y43931D01*
X101204Y43944D01*
X101257Y43979D01*
X101292Y44032D01*
X101305Y44094D01*
X101292Y44157D01*
X101257Y44210D01*
X101204Y44245D01*
X101142Y44258D01*
X101114Y44252D01*
X101010Y44356D01*
X100980Y44376D01*
X100945Y44383D01*
D02*
G37*
G36*
X99606Y45439D02*
X99544Y45426D01*
X99491Y45391D01*
X99455Y45338D01*
X99443Y45276D01*
X99455Y45213D01*
X99491Y45160D01*
X99544Y45125D01*
X99606Y45112D01*
X99669Y45125D01*
X99722Y45160D01*
X99757Y45213D01*
X99769Y45276D01*
X99757Y45338D01*
X99722Y45391D01*
X99669Y45426D01*
X99606Y45439D01*
D02*
G37*
G36*
X99213Y45439D02*
X99150Y45426D01*
X99097Y45391D01*
X99062Y45338D01*
X99049Y45276D01*
X99062Y45213D01*
X99097Y45160D01*
X99150Y45125D01*
X99213Y45112D01*
X99275Y45125D01*
X99328Y45160D01*
X99363Y45213D01*
X99376Y45276D01*
X99363Y45338D01*
X99328Y45391D01*
X99275Y45426D01*
X99213Y45439D01*
D02*
G37*
G36*
Y45045D02*
X99150Y45033D01*
X99097Y44997D01*
X99062Y44944D01*
X99049Y44882D01*
X99062Y44819D01*
X99097Y44767D01*
X99150Y44731D01*
X99213Y44719D01*
X99275Y44731D01*
X99328Y44767D01*
X99363Y44819D01*
X99376Y44882D01*
X99363Y44944D01*
X99328Y44997D01*
X99275Y45033D01*
X99213Y45045D01*
D02*
G37*
G36*
X101457Y44927D02*
X101394Y44914D01*
X101341Y44879D01*
X101306Y44826D01*
X101294Y44764D01*
X101306Y44701D01*
X101341Y44648D01*
X101394Y44613D01*
X101457Y44601D01*
X101519Y44613D01*
X101572Y44648D01*
X101607Y44701D01*
X101620Y44764D01*
X101607Y44826D01*
X101572Y44879D01*
X101519Y44914D01*
X101457Y44927D01*
D02*
G37*
G36*
X99606Y45045D02*
X99544Y45033D01*
X99491Y44997D01*
X99455Y44944D01*
X99443Y44882D01*
X99455Y44819D01*
X99491Y44766D01*
X99544Y44731D01*
X99606Y44719D01*
X99669Y44731D01*
X99721Y44766D01*
X99757Y44819D01*
X99769Y44882D01*
X99757Y44944D01*
X99721Y44997D01*
X99669Y45033D01*
X99606Y45045D01*
D02*
G37*
G36*
X98032Y41108D02*
X97969Y41096D01*
X97916Y41060D01*
X97881Y41007D01*
X97868Y40945D01*
X97881Y40882D01*
X97916Y40830D01*
X97969Y40794D01*
X98032Y40782D01*
X98094Y40794D01*
X98147Y40830D01*
X98182Y40882D01*
X98195Y40945D01*
X98182Y41007D01*
X98147Y41060D01*
X98094Y41096D01*
X98032Y41108D01*
D02*
G37*
G36*
X94882Y39140D02*
X94819Y39127D01*
X94767Y39092D01*
X94731Y39039D01*
X94719Y38976D01*
X94731Y38914D01*
X94767Y38861D01*
X94819Y38826D01*
X94882Y38813D01*
X94944Y38826D01*
X94997Y38861D01*
X95033Y38914D01*
X95045Y38976D01*
X95033Y39039D01*
X94997Y39092D01*
X94944Y39127D01*
X94882Y39140D01*
D02*
G37*
G36*
X95276D02*
X95213Y39127D01*
X95160Y39092D01*
X95125Y39039D01*
X95112Y38976D01*
X95125Y38914D01*
X95160Y38861D01*
X95213Y38826D01*
X95276Y38813D01*
X95338Y38826D01*
X95391Y38861D01*
X95426Y38914D01*
X95439Y38976D01*
X95426Y39039D01*
X95391Y39092D01*
X95338Y39127D01*
X95276Y39140D01*
D02*
G37*
G36*
X94488D02*
X94426Y39127D01*
X94373Y39092D01*
X94337Y39039D01*
X94325Y38976D01*
X94337Y38914D01*
X94373Y38861D01*
X94426Y38826D01*
X94488Y38813D01*
X94551Y38826D01*
X94604Y38861D01*
X94639Y38914D01*
X94651Y38976D01*
X94639Y39039D01*
X94604Y39092D01*
X94551Y39127D01*
X94488Y39140D01*
D02*
G37*
G36*
X93701D02*
X93638Y39127D01*
X93585Y39092D01*
X93550Y39039D01*
X93538Y38976D01*
X93550Y38914D01*
X93585Y38861D01*
X93638Y38826D01*
X93701Y38813D01*
X93763Y38826D01*
X93816Y38861D01*
X93851Y38914D01*
X93864Y38976D01*
X93851Y39039D01*
X93816Y39092D01*
X93763Y39127D01*
X93701Y39140D01*
D02*
G37*
G36*
X94094D02*
X94032Y39127D01*
X93979Y39092D01*
X93944Y39039D01*
X93931Y38976D01*
X93944Y38914D01*
X93979Y38861D01*
X94032Y38826D01*
X94094Y38813D01*
X94157Y38826D01*
X94210Y38861D01*
X94245Y38914D01*
X94258Y38976D01*
X94245Y39039D01*
X94210Y39092D01*
X94157Y39127D01*
X94094Y39140D01*
D02*
G37*
G36*
X94488Y39533D02*
X94426Y39521D01*
X94373Y39485D01*
X94337Y39433D01*
X94325Y39370D01*
X94337Y39308D01*
X94373Y39255D01*
X94426Y39219D01*
X94488Y39207D01*
X94551Y39219D01*
X94604Y39255D01*
X94639Y39308D01*
X94651Y39370D01*
X94639Y39433D01*
X94604Y39485D01*
X94551Y39521D01*
X94488Y39533D01*
D02*
G37*
G36*
X94094Y39533D02*
X94032Y39521D01*
X93979Y39485D01*
X93944Y39433D01*
X93931Y39370D01*
X93944Y39308D01*
X93979Y39255D01*
X94032Y39219D01*
X94094Y39207D01*
X94157Y39219D01*
X94210Y39255D01*
X94245Y39308D01*
X94258Y39370D01*
X94245Y39433D01*
X94210Y39485D01*
X94157Y39521D01*
X94094Y39533D01*
D02*
G37*
G36*
X95669D02*
X95607Y39521D01*
X95554Y39485D01*
X95519Y39433D01*
X95506Y39370D01*
X95519Y39308D01*
X95554Y39255D01*
X95607Y39219D01*
X95669Y39207D01*
X95732Y39219D01*
X95785Y39255D01*
X95820Y39308D01*
X95832Y39370D01*
X95820Y39433D01*
X95785Y39485D01*
X95732Y39521D01*
X95669Y39533D01*
D02*
G37*
G36*
X93701D02*
X93638Y39521D01*
X93585Y39485D01*
X93550Y39433D01*
X93538Y39370D01*
X93550Y39308D01*
X93585Y39255D01*
X93638Y39219D01*
X93701Y39207D01*
X93763Y39219D01*
X93816Y39255D01*
X93851Y39308D01*
X93864Y39370D01*
X93851Y39433D01*
X93816Y39485D01*
X93763Y39521D01*
X93701Y39533D01*
D02*
G37*
G36*
X92126D02*
X92064Y39521D01*
X92011Y39485D01*
X91975Y39433D01*
X91963Y39370D01*
X91975Y39308D01*
X92011Y39255D01*
X92064Y39219D01*
X92126Y39207D01*
X92188Y39219D01*
X92241Y39255D01*
X92277Y39308D01*
X92289Y39370D01*
X92277Y39433D01*
X92241Y39485D01*
X92188Y39521D01*
X92126Y39533D01*
D02*
G37*
G36*
X92913D02*
X92851Y39521D01*
X92798Y39485D01*
X92763Y39433D01*
X92750Y39370D01*
X92763Y39308D01*
X92798Y39255D01*
X92851Y39219D01*
X92913Y39207D01*
X92976Y39219D01*
X93029Y39255D01*
X93064Y39308D01*
X93077Y39370D01*
X93064Y39433D01*
X93029Y39485D01*
X92976Y39521D01*
X92913Y39533D01*
D02*
G37*
G36*
X36850Y37564D02*
X36743Y37549D01*
X36643Y37508D01*
X36558Y37442D01*
X36492Y37357D01*
X36451Y37257D01*
X36436Y37150D01*
X36451Y37043D01*
X36492Y36943D01*
X36558Y36858D01*
X36643Y36792D01*
X36743Y36751D01*
X36850Y36736D01*
X36957Y36751D01*
X37057Y36792D01*
X37142Y36858D01*
X37208Y36943D01*
X37249Y37043D01*
X37264Y37150D01*
X37249Y37257D01*
X37208Y37357D01*
X37142Y37442D01*
X37057Y37508D01*
X36957Y37549D01*
X36850Y37564D01*
D02*
G37*
G36*
X38100D02*
X37993Y37549D01*
X37893Y37508D01*
X37808Y37442D01*
X37742Y37357D01*
X37701Y37257D01*
X37686Y37150D01*
X37701Y37043D01*
X37742Y36943D01*
X37808Y36858D01*
X37893Y36792D01*
X37993Y36751D01*
X38100Y36736D01*
X38207Y36751D01*
X38307Y36792D01*
X38392Y36858D01*
X38458Y36943D01*
X38499Y37043D01*
X38514Y37150D01*
X38499Y37257D01*
X38458Y37357D01*
X38392Y37442D01*
X38307Y37508D01*
X38207Y37549D01*
X38100Y37564D01*
D02*
G37*
G36*
X35600D02*
X35493Y37549D01*
X35393Y37508D01*
X35308Y37442D01*
X35242Y37357D01*
X35201Y37257D01*
X35186Y37150D01*
X35201Y37043D01*
X35242Y36943D01*
X35308Y36858D01*
X35393Y36792D01*
X35493Y36751D01*
X35600Y36736D01*
X35707Y36751D01*
X35807Y36792D01*
X35892Y36858D01*
X35958Y36943D01*
X35999Y37043D01*
X36014Y37150D01*
X35999Y37257D01*
X35958Y37357D01*
X35892Y37442D01*
X35807Y37508D01*
X35707Y37549D01*
X35600Y37564D01*
D02*
G37*
G36*
X61683Y36512D02*
X61615Y36503D01*
X61552Y36477D01*
X61498Y36435D01*
X61456Y36381D01*
X61430Y36318D01*
X61421Y36250D01*
X61430Y36182D01*
X61456Y36119D01*
X61498Y36065D01*
X61552Y36023D01*
X61615Y35997D01*
X61683Y35988D01*
X61751Y35997D01*
X61814Y36023D01*
X61869Y36065D01*
X61910Y36119D01*
X61936Y36182D01*
X61945Y36250D01*
X61936Y36318D01*
X61910Y36381D01*
X61869Y36435D01*
X61814Y36477D01*
X61751Y36503D01*
X61683Y36512D01*
D02*
G37*
G36*
X31850Y37564D02*
X31743Y37549D01*
X31643Y37508D01*
X31558Y37442D01*
X31492Y37357D01*
X31451Y37257D01*
X31436Y37150D01*
X31451Y37043D01*
X31492Y36943D01*
X31558Y36858D01*
X31643Y36792D01*
X31743Y36751D01*
X31850Y36736D01*
X31957Y36751D01*
X32057Y36792D01*
X32142Y36858D01*
X32208Y36943D01*
X32249Y37043D01*
X32264Y37150D01*
X32249Y37257D01*
X32208Y37357D01*
X32142Y37442D01*
X32057Y37508D01*
X31957Y37549D01*
X31850Y37564D01*
D02*
G37*
G36*
X44350D02*
X44243Y37549D01*
X44143Y37508D01*
X44058Y37442D01*
X43992Y37357D01*
X43951Y37257D01*
X43936Y37150D01*
X43951Y37043D01*
X43992Y36943D01*
X44058Y36858D01*
X44143Y36792D01*
X44243Y36751D01*
X44350Y36736D01*
X44457Y36751D01*
X44557Y36792D01*
X44642Y36858D01*
X44708Y36943D01*
X44749Y37043D01*
X44764Y37150D01*
X44749Y37257D01*
X44708Y37357D01*
X44642Y37442D01*
X44557Y37508D01*
X44457Y37549D01*
X44350Y37564D01*
D02*
G37*
G36*
X100905Y38155D02*
X100843Y38143D01*
X100790Y38107D01*
X100755Y38055D01*
X100742Y37992D01*
X100755Y37930D01*
X100790Y37877D01*
X100843Y37841D01*
X100905Y37829D01*
X100968Y37841D01*
X101021Y37877D01*
X101056Y37930D01*
X101069Y37992D01*
X101056Y38055D01*
X101021Y38107D01*
X100968Y38143D01*
X100905Y38155D01*
D02*
G37*
G36*
X101299Y38195D02*
X101237Y38182D01*
X101184Y38147D01*
X101149Y38094D01*
X101136Y38031D01*
X101149Y37969D01*
X101184Y37916D01*
X101237Y37881D01*
X101299Y37868D01*
X101362Y37881D01*
X101415Y37916D01*
X101450Y37969D01*
X101462Y38031D01*
X101450Y38094D01*
X101415Y38147D01*
X101362Y38182D01*
X101299Y38195D01*
D02*
G37*
G36*
X104016Y37289D02*
X103953Y37277D01*
X103900Y37241D01*
X103865Y37188D01*
X103853Y37126D01*
X103865Y37064D01*
X103900Y37011D01*
X103953Y36975D01*
X104016Y36963D01*
X104078Y36975D01*
X104131Y37011D01*
X104166Y37064D01*
X104179Y37126D01*
X104166Y37188D01*
X104131Y37241D01*
X104078Y37277D01*
X104016Y37289D01*
D02*
G37*
G36*
X102953D02*
X102890Y37277D01*
X102837Y37241D01*
X102802Y37188D01*
X102790Y37126D01*
X102802Y37064D01*
X102837Y37011D01*
X102890Y36975D01*
X102953Y36963D01*
X103015Y36975D01*
X103068Y37011D01*
X103103Y37064D01*
X103116Y37126D01*
X103103Y37188D01*
X103068Y37241D01*
X103015Y37277D01*
X102953Y37289D01*
D02*
G37*
G36*
X103425D02*
X103363Y37277D01*
X103310Y37241D01*
X103274Y37188D01*
X103262Y37126D01*
X103274Y37064D01*
X103310Y37011D01*
X103363Y36975D01*
X103425Y36963D01*
X103488Y36975D01*
X103541Y37011D01*
X103576Y37064D01*
X103588Y37126D01*
X103576Y37188D01*
X103541Y37241D01*
X103488Y37277D01*
X103425Y37289D01*
D02*
G37*
G36*
X97244Y39533D02*
X97182Y39521D01*
X97129Y39485D01*
X97093Y39433D01*
X97081Y39370D01*
X97093Y39308D01*
X97129Y39255D01*
X97182Y39219D01*
X97244Y39207D01*
X97307Y39219D01*
X97359Y39255D01*
X97395Y39308D01*
X97407Y39370D01*
X97395Y39433D01*
X97359Y39485D01*
X97307Y39521D01*
X97244Y39533D01*
D02*
G37*
G36*
X98425Y40321D02*
X98363Y40308D01*
X98310Y40273D01*
X98274Y40220D01*
X98262Y40157D01*
X98274Y40095D01*
X98310Y40042D01*
X98363Y40007D01*
X98425Y39994D01*
X98488Y40007D01*
X98541Y40042D01*
X98576Y40095D01*
X98588Y40157D01*
X98576Y40220D01*
X98541Y40273D01*
X98488Y40308D01*
X98425Y40321D01*
D02*
G37*
G36*
X92913Y40714D02*
X92851Y40702D01*
X92798Y40667D01*
X92763Y40614D01*
X92750Y40551D01*
X92763Y40489D01*
X92798Y40436D01*
X92851Y40400D01*
X92913Y40388D01*
X92976Y40400D01*
X93029Y40436D01*
X93064Y40489D01*
X93077Y40551D01*
X93064Y40614D01*
X93029Y40667D01*
X92976Y40702D01*
X92913Y40714D01*
D02*
G37*
G36*
X93701Y40321D02*
X93638Y40308D01*
X93585Y40273D01*
X93550Y40220D01*
X93538Y40157D01*
X93550Y40095D01*
X93585Y40042D01*
X93638Y40007D01*
X93701Y39994D01*
X93763Y40007D01*
X93816Y40042D01*
X93851Y40095D01*
X93864Y40157D01*
X93851Y40220D01*
X93816Y40273D01*
X93763Y40308D01*
X93701Y40321D01*
D02*
G37*
G36*
X97244Y39927D02*
X97182Y39915D01*
X97129Y39879D01*
X97093Y39826D01*
X97081Y39764D01*
X97093Y39701D01*
X97129Y39648D01*
X97182Y39613D01*
X97244Y39601D01*
X97307Y39613D01*
X97359Y39648D01*
X97395Y39701D01*
X97407Y39764D01*
X97395Y39826D01*
X97359Y39879D01*
X97307Y39915D01*
X97244Y39927D01*
D02*
G37*
G36*
X92913Y40321D02*
X92851Y40308D01*
X92798Y40273D01*
X92763Y40220D01*
X92750Y40157D01*
X92763Y40095D01*
X92798Y40042D01*
X92851Y40007D01*
X92913Y39994D01*
X92976Y40007D01*
X93029Y40042D01*
X93064Y40095D01*
X93077Y40157D01*
X93064Y40220D01*
X93029Y40273D01*
X92976Y40308D01*
X92913Y40321D01*
D02*
G37*
G36*
X94094Y40714D02*
X94032Y40702D01*
X93979Y40667D01*
X93944Y40614D01*
X93931Y40551D01*
X93944Y40489D01*
X93979Y40436D01*
X94032Y40400D01*
X94094Y40388D01*
X94157Y40400D01*
X94210Y40436D01*
X94245Y40489D01*
X94258Y40551D01*
X94245Y40614D01*
X94210Y40667D01*
X94157Y40702D01*
X94094Y40714D01*
D02*
G37*
G36*
X31811Y41207D02*
X31743Y41198D01*
X31680Y41172D01*
X31626Y41130D01*
X31584Y41076D01*
X31558Y41013D01*
X31549Y40945D01*
X31558Y40877D01*
X31584Y40814D01*
X31626Y40759D01*
X31680Y40718D01*
X31743Y40692D01*
X31811Y40683D01*
X31879Y40692D01*
X31942Y40718D01*
X31996Y40759D01*
X32038Y40814D01*
X32064Y40877D01*
X32073Y40945D01*
X32064Y41013D01*
X32038Y41076D01*
X31996Y41130D01*
X31942Y41172D01*
X31879Y41198D01*
X31811Y41207D01*
D02*
G37*
G36*
X94094Y41108D02*
X94032Y41096D01*
X93979Y41060D01*
X93944Y41007D01*
X93931Y40945D01*
X93944Y40882D01*
X93979Y40830D01*
X94032Y40794D01*
X94094Y40782D01*
X94157Y40794D01*
X94210Y40830D01*
X94245Y40882D01*
X94258Y40945D01*
X94245Y41007D01*
X94210Y41060D01*
X94157Y41096D01*
X94094Y41108D01*
D02*
G37*
G36*
X35787Y41128D02*
X35720Y41119D01*
X35656Y41093D01*
X35602Y41052D01*
X35560Y40997D01*
X35534Y40934D01*
X35525Y40866D01*
X35534Y40798D01*
X35560Y40735D01*
X35602Y40681D01*
X35656Y40639D01*
X35720Y40613D01*
X35787Y40604D01*
X35855Y40613D01*
X35919Y40639D01*
X35973Y40681D01*
X36015Y40735D01*
X36041Y40798D01*
X36050Y40866D01*
X36041Y40934D01*
X36015Y40997D01*
X35973Y41052D01*
X35919Y41093D01*
X35855Y41119D01*
X35787Y41128D01*
D02*
G37*
G36*
X99213Y40714D02*
X99150Y40702D01*
X99097Y40667D01*
X99062Y40614D01*
X99049Y40551D01*
X99062Y40489D01*
X99097Y40436D01*
X99150Y40400D01*
X99213Y40388D01*
X99275Y40400D01*
X99328Y40436D01*
X99363Y40489D01*
X99376Y40551D01*
X99363Y40614D01*
X99328Y40667D01*
X99275Y40702D01*
X99213Y40714D01*
D02*
G37*
G36*
X98032Y40714D02*
X97969Y40702D01*
X97916Y40667D01*
X97881Y40614D01*
X97868Y40551D01*
X97881Y40489D01*
X97916Y40436D01*
X97969Y40400D01*
X98032Y40388D01*
X98094Y40400D01*
X98147Y40436D01*
X98182Y40489D01*
X98195Y40551D01*
X98182Y40614D01*
X98147Y40667D01*
X98094Y40702D01*
X98032Y40714D01*
D02*
G37*
G36*
X99606Y39927D02*
X99544Y39915D01*
X99491Y39879D01*
X99456Y39826D01*
X99443Y39764D01*
X99456Y39701D01*
X99491Y39648D01*
X99544Y39613D01*
X99606Y39601D01*
X99669Y39613D01*
X99722Y39648D01*
X99737Y39672D01*
X100395D01*
X100590Y39477D01*
X100585Y39449D01*
X100597Y39386D01*
X100633Y39333D01*
X100664Y39313D01*
X100649Y39265D01*
X100503D01*
X100480Y39309D01*
X100505Y39347D01*
X100517Y39409D01*
X100505Y39472D01*
X100470Y39525D01*
X100417Y39560D01*
X100354Y39573D01*
X100292Y39560D01*
X100239Y39525D01*
X100204Y39472D01*
X100191Y39409D01*
X100199Y39368D01*
X100155Y39345D01*
X100065Y39435D01*
X100035Y39455D01*
X100000Y39462D01*
X99737D01*
X99722Y39485D01*
X99669Y39521D01*
X99606Y39533D01*
X99544Y39521D01*
X99491Y39485D01*
X99456Y39433D01*
X99443Y39370D01*
X99456Y39308D01*
X99491Y39255D01*
X99544Y39219D01*
X99606Y39207D01*
X99669Y39219D01*
X99722Y39255D01*
X99737Y39278D01*
X99962D01*
X100132Y39108D01*
X100162Y39088D01*
X100168Y39087D01*
X100197Y39081D01*
X100984D01*
X101019Y39088D01*
X101030Y39095D01*
X101063Y39089D01*
X101125Y39101D01*
X101178Y39137D01*
X101214Y39190D01*
X101226Y39252D01*
X101214Y39314D01*
X101178Y39367D01*
X101125Y39403D01*
X101063Y39415D01*
X101001Y39403D01*
X100948Y39367D01*
X100912Y39314D01*
X100902Y39265D01*
X100847D01*
X100833Y39313D01*
X100863Y39333D01*
X100899Y39386D01*
X100911Y39449D01*
X100899Y39511D01*
X100863Y39564D01*
X100810Y39600D01*
X100748Y39612D01*
X100720Y39606D01*
X100498Y39829D01*
X100468Y39849D01*
X100433Y39856D01*
X99737D01*
X99722Y39879D01*
X99669Y39915D01*
X99606Y39927D01*
D02*
G37*
G36*
X92927Y39913D02*
X92864Y39901D01*
X92812Y39865D01*
X92776Y39812D01*
X92764Y39750D01*
X92776Y39688D01*
X92812Y39635D01*
X92864Y39599D01*
X92927Y39587D01*
X92989Y39599D01*
X93042Y39635D01*
X93078Y39688D01*
X93090Y39750D01*
X93078Y39812D01*
X93042Y39865D01*
X92989Y39901D01*
X92927Y39913D01*
D02*
G37*
G36*
X98425Y39533D02*
X98363Y39521D01*
X98310Y39485D01*
X98274Y39433D01*
X98262Y39370D01*
X98274Y39308D01*
X98310Y39255D01*
X98363Y39219D01*
X98425Y39207D01*
X98488Y39219D01*
X98541Y39255D01*
X98576Y39308D01*
X98588Y39370D01*
X98576Y39433D01*
X98541Y39485D01*
X98488Y39521D01*
X98425Y39533D01*
D02*
G37*
G36*
X97638D02*
X97575Y39521D01*
X97522Y39485D01*
X97487Y39433D01*
X97475Y39370D01*
X97487Y39308D01*
X97522Y39255D01*
X97575Y39219D01*
X97638Y39207D01*
X97700Y39219D01*
X97753Y39255D01*
X97789Y39308D01*
X97801Y39370D01*
X97789Y39433D01*
X97753Y39485D01*
X97700Y39521D01*
X97638Y39533D01*
D02*
G37*
G36*
X98032D02*
X97969Y39521D01*
X97916Y39485D01*
X97881Y39433D01*
X97868Y39370D01*
X97881Y39308D01*
X97916Y39255D01*
X97969Y39219D01*
X98032Y39207D01*
X98094Y39219D01*
X98147Y39255D01*
X98182Y39308D01*
X98195Y39370D01*
X98182Y39433D01*
X98147Y39485D01*
X98094Y39521D01*
X98032Y39533D01*
D02*
G37*
G36*
X99199Y39913D02*
X99136Y39901D01*
X99083Y39865D01*
X99048Y39812D01*
X99036Y39750D01*
X99048Y39688D01*
X99083Y39635D01*
X99136Y39599D01*
X99199Y39587D01*
X99261Y39599D01*
X99314Y39635D01*
X99349Y39688D01*
X99362Y39750D01*
X99349Y39812D01*
X99314Y39865D01*
X99261Y39901D01*
X99199Y39913D01*
D02*
G37*
G36*
X96457Y39927D02*
X96394Y39915D01*
X96341Y39879D01*
X96306Y39826D01*
X96294Y39764D01*
X96306Y39701D01*
X96341Y39648D01*
X96394Y39613D01*
X96457Y39601D01*
X96519Y39613D01*
X96572Y39648D01*
X96607Y39701D01*
X96620Y39764D01*
X96607Y39826D01*
X96572Y39879D01*
X96519Y39915D01*
X96457Y39927D01*
D02*
G37*
G36*
X96850D02*
X96788Y39915D01*
X96735Y39879D01*
X96700Y39826D01*
X96687Y39764D01*
X96700Y39701D01*
X96735Y39648D01*
X96788Y39613D01*
X96850Y39601D01*
X96913Y39613D01*
X96966Y39648D01*
X97001Y39701D01*
X97014Y39764D01*
X97001Y39826D01*
X96966Y39879D01*
X96913Y39915D01*
X96850Y39927D01*
D02*
G37*
G36*
X95669D02*
X95607Y39915D01*
X95554Y39879D01*
X95519Y39826D01*
X95506Y39764D01*
X95519Y39701D01*
X95554Y39648D01*
X95607Y39613D01*
X95669Y39601D01*
X95732Y39613D01*
X95785Y39648D01*
X95820Y39701D01*
X95832Y39764D01*
X95820Y39826D01*
X95785Y39879D01*
X95732Y39915D01*
X95669Y39927D01*
D02*
G37*
G36*
X94882D02*
X94819Y39915D01*
X94767Y39879D01*
X94731Y39826D01*
X94719Y39764D01*
X94731Y39701D01*
X94767Y39648D01*
X94819Y39613D01*
X94882Y39601D01*
X94944Y39613D01*
X94997Y39648D01*
X95033Y39701D01*
X95045Y39764D01*
X95033Y39826D01*
X94997Y39879D01*
X94944Y39915D01*
X94882Y39927D01*
D02*
G37*
G36*
X95276D02*
X95213Y39915D01*
X95160Y39879D01*
X95125Y39826D01*
X95112Y39764D01*
X95125Y39701D01*
X95160Y39648D01*
X95213Y39613D01*
X95276Y39601D01*
X95338Y39613D01*
X95391Y39648D01*
X95426Y39701D01*
X95439Y39764D01*
X95426Y39826D01*
X95391Y39879D01*
X95338Y39915D01*
X95276Y39927D01*
D02*
G37*
%LPD*%
D30*
X97834Y46260D02*
Y53504D01*
X91693Y58346D02*
X92992D01*
X97834Y53504D01*
X97675Y46101D02*
Y53348D01*
X97126Y53898D02*
X97675Y53348D01*
X97126Y49291D02*
X97519Y48898D01*
X96653Y45866D02*
X96968D01*
X97519Y46417D02*
Y48898D01*
X96968Y45866D02*
X97519Y46417D01*
X98228Y44685D02*
Y45866D01*
X97834Y46260D02*
X98228Y45866D01*
X97047Y45472D02*
X97675Y46101D01*
X97126Y49291D02*
Y53543D01*
X96457Y45669D02*
X96653Y45866D01*
X96653Y45472D02*
X97047D01*
X96456Y45276D02*
X96653Y45472D01*
X92715Y44685D02*
X97835D01*
X92323Y45077D02*
X92715Y44685D01*
X91930Y45077D02*
X92323D01*
X92725Y44291D02*
X97795D01*
X91920Y44694D02*
X92323D01*
X92725Y44291D01*
X100945Y44291D02*
X101142Y44094D01*
X99803Y44291D02*
X100945D01*
X99606Y44094D02*
X99803Y44291D01*
X100630Y43858D02*
X100709Y43937D01*
X100236Y43858D02*
X100630D01*
X100000Y44094D02*
X100236Y43858D01*
X100433Y39764D02*
X100748Y39449D01*
X99606Y39764D02*
X100433D01*
X100984Y39173D02*
X101063Y39252D01*
X100197Y39173D02*
X100984D01*
X100000Y39370D02*
X100197Y39173D01*
X99606Y39370D02*
X100000D01*
X91181Y44094D02*
X91378Y44291D01*
X91929D01*
X92126Y44094D01*
X92165Y44449D02*
X92520Y44094D01*
X91220Y44449D02*
X92165D01*
X100236Y35709D02*
X106811D01*
X98228Y37717D02*
Y38386D01*
Y37717D02*
X100236Y35709D01*
X100354Y35906D02*
X107047D01*
X98425Y37835D02*
X100354Y35906D01*
X98425Y37835D02*
Y38189D01*
X100394Y36142D02*
X107283D01*
X98622Y37913D02*
X100394Y36142D01*
X98622Y37913D02*
Y38386D01*
X100394Y36378D02*
X107520D01*
X98819Y37953D02*
X100394Y36378D01*
X98819Y37953D02*
Y38189D01*
X100472Y36535D02*
X107717D01*
X99016Y37992D02*
X100472Y36535D01*
X99016Y37992D02*
Y38386D01*
X101417Y36772D02*
X109961D01*
X99803Y38386D02*
X101417Y36772D01*
X99409Y38386D02*
X99803D01*
X97835Y37598D02*
X98032Y37795D01*
X97835Y37205D02*
X99606Y35433D01*
X97835Y37205D02*
Y37598D01*
X97638Y36811D02*
Y37795D01*
Y36811D02*
X97980Y36469D01*
X97980D02*
X99213Y35236D01*
X98032Y37795D02*
Y38189D01*
X97835Y37992D02*
Y38386D01*
X97638Y37795D02*
X97835Y37992D01*
X99213Y35236D02*
X106299D01*
X99252Y34921D02*
X106102D01*
X97441Y36732D02*
Y38780D01*
Y36732D02*
X99252Y34921D01*
X99134Y34646D02*
X101850D01*
X97244Y36535D02*
Y38583D01*
Y36535D02*
X99134Y34646D01*
X99252Y34094D02*
X105236D01*
X97047Y36299D02*
Y38780D01*
Y36299D02*
X99252Y34094D01*
X99016Y38780D02*
X99409Y38386D01*
X98189Y38780D02*
X99016D01*
X87834Y48779D02*
X91920Y44694D01*
X88031Y48976D02*
X91930Y45077D01*
X81800Y32570D02*
Y33414D01*
Y32570D02*
X82323Y32047D01*
Y31732D02*
Y32047D01*
Y31732D02*
X82795Y31260D01*
X94803D01*
X95866Y32323D01*
Y38780D01*
X96063Y38976D01*
X76063Y54882D02*
X87480Y43465D01*
X87244Y44331D02*
Y63858D01*
X85039Y66063D02*
X87244Y63858D01*
X73622Y67913D02*
X76063Y65472D01*
Y54882D02*
Y65472D01*
X90472Y59567D02*
Y67677D01*
X85800Y72350D02*
X90472Y67677D01*
X85800Y72350D02*
Y74100D01*
X90472Y59567D02*
X91693Y58346D01*
X97992Y46890D02*
Y69134D01*
X94900Y72187D02*
X95728Y71358D01*
X95748Y71378D02*
X97992Y69134D01*
X98228Y44685D02*
X98425Y44488D01*
X97835Y44685D02*
X98553Y43966D01*
X94900Y72187D02*
Y74100D01*
X97992Y46890D02*
X98622Y46260D01*
Y44685D02*
Y46260D01*
Y44685D02*
X98819Y44488D01*
X75709Y68346D02*
X75715Y68353D01*
X74134Y68228D02*
X74165Y68260D01*
X72602Y68583D02*
X84252D01*
X75512Y67913D02*
X84055D01*
X87834Y64134D01*
Y48779D02*
Y64134D01*
X77086Y68149D02*
X84094D01*
X88031Y64212D01*
Y48976D02*
Y64212D01*
X84252Y68583D02*
X88386Y64449D01*
Y50118D02*
Y64449D01*
Y50118D02*
X92323Y46181D01*
Y45472D02*
Y46181D01*
X92126Y45276D02*
X92323Y45472D01*
X64291Y72283D02*
X66693Y69882D01*
X76299D01*
X77677Y71260D01*
Y74646D01*
X79891Y76860D01*
X98022D01*
X99212Y75669D01*
Y71023D02*
Y75669D01*
Y71023D02*
X105984Y64252D01*
Y52520D02*
Y64252D01*
X105393Y51929D02*
X105984Y52520D01*
X105393Y50275D02*
Y51929D01*
X100394Y45276D02*
X105393Y50275D01*
X64055Y71457D02*
X64606D01*
X66457Y69606D01*
X76457D01*
X78543Y71693D01*
Y74764D01*
X80394Y76614D01*
X97834D01*
X98858Y75590D01*
Y70866D02*
Y75590D01*
Y70866D02*
X104409Y65315D01*
Y49764D02*
Y65315D01*
X100315Y45669D02*
X104409Y49764D01*
X100000Y45669D02*
X100315D01*
X64488Y71181D02*
X66299Y69370D01*
X76457D01*
X78740Y71653D01*
Y74724D01*
X80394Y76378D01*
X97834D01*
X98661Y75551D01*
Y70748D02*
Y75551D01*
Y70748D02*
X104173Y65236D01*
Y50157D02*
Y65236D01*
X99685Y45669D02*
X104173Y50157D01*
X99606Y45669D02*
X99685D01*
X101850Y34646D02*
X102126Y34370D01*
X105512D01*
X105760Y34122D01*
X105236Y34094D02*
X105504Y33826D01*
X102634Y34728D02*
X102638Y34724D01*
X107717Y36535D02*
X109528Y34724D01*
Y34331D02*
Y34724D01*
X107520Y36378D02*
X109213Y34685D01*
X107283Y36142D02*
X108701Y34724D01*
Y34724D02*
X108831Y34594D01*
Y33910D02*
Y34594D01*
X96260Y36063D02*
X99488Y32835D01*
X96260Y36063D02*
Y38386D01*
X96457Y38583D01*
X96063Y35984D02*
X96260Y35787D01*
X96063Y35984D02*
Y38189D01*
X97992Y38976D02*
X98189Y38780D01*
X99449Y32598D02*
X103622D01*
X96260Y35787D02*
X99449Y32598D01*
X103622D02*
X103969Y32252D01*
X99488Y32835D02*
X103780D01*
X104225Y32389D01*
X96457Y39370D02*
X96654Y39173D01*
Y36063D02*
Y39173D01*
Y36063D02*
X99606Y33110D01*
X103937D01*
X99685Y33346D02*
X104252D01*
X96850Y36181D02*
X99685Y33346D01*
X103937Y33110D02*
X104481Y32567D01*
X97047Y38780D02*
X97244Y38976D01*
X97441Y38780D02*
X97638Y38976D01*
X106102Y34921D02*
X107040Y33984D01*
X97638Y38583D02*
X97835Y38386D01*
X106299Y35236D02*
X107296Y34240D01*
X99606Y35433D02*
X106654D01*
X108063Y34023D01*
X98032Y38583D02*
X98228Y38386D01*
X106811Y35709D02*
X108319Y34200D01*
X107047Y35906D02*
X108575Y34378D01*
X98425Y38583D02*
X98622Y38386D01*
X98819Y38583D02*
X99016Y38386D01*
X104252Y33346D02*
X104737Y32862D01*
X91299Y33307D02*
Y33583D01*
X91811Y34094D01*
Y34488D01*
X92283Y34961D01*
X95000D01*
X95669Y35630D01*
X89800Y31950D02*
Y32831D01*
X90315Y33346D01*
Y33583D01*
X90827Y34094D01*
Y34528D01*
X91496Y35197D01*
X94764D01*
X95472Y35906D01*
X95669Y35630D02*
Y38189D01*
X95472Y38386D02*
X95669Y38583D01*
X95472Y35906D02*
Y38386D01*
X90800Y31950D02*
Y32808D01*
X91299Y33307D01*
X89300Y32700D02*
Y33552D01*
X89803Y34055D01*
Y34488D01*
X90669Y35354D01*
X94449D01*
X95276Y36181D01*
X88300Y32700D02*
Y33576D01*
X88819Y34094D01*
Y34449D01*
X89921Y35551D01*
X94173D01*
X95079Y36457D01*
X95276Y36181D02*
Y38189D01*
X95079Y38386D02*
X95276Y38583D01*
X95079Y36457D02*
Y38386D01*
X87300Y32700D02*
Y33560D01*
X87795Y34055D01*
Y34567D01*
X89016Y35787D01*
X86300Y32700D02*
Y33583D01*
X86850Y34134D01*
Y34567D01*
X88307Y36024D01*
X94016Y35787D02*
X94685Y36457D01*
X89016Y35787D02*
X94016D01*
X93740Y36024D02*
X94291Y36575D01*
X88307Y36024D02*
X93740D01*
X94685Y38386D02*
X94882Y38583D01*
X94685Y36457D02*
Y38386D01*
X94291Y38386D02*
X94488Y38583D01*
X94291Y36575D02*
Y38386D01*
X85300Y32700D02*
Y33568D01*
X85827Y34094D01*
Y34606D01*
X87441Y36220D01*
X93346D01*
X94094Y36969D01*
X84800Y33450D02*
Y34485D01*
X86693Y36378D01*
X84300Y34200D02*
Y34339D01*
X86535Y36575D01*
X83300Y32700D02*
Y33576D01*
X83780Y34055D01*
Y34409D01*
X86181Y36811D01*
X93504Y38386D02*
X93701Y38583D01*
X82300Y32700D02*
Y33560D01*
X82795Y34055D01*
Y34606D01*
X85197Y37008D01*
X94094Y36969D02*
Y38189D01*
X93898Y38386D02*
X94094Y38583D01*
X93701D02*
X93701D01*
X80800Y31950D02*
Y32808D01*
X81299Y33307D01*
Y33583D01*
X81811Y34094D01*
Y34488D01*
X84488Y37165D01*
X79800Y31950D02*
Y32831D01*
X80315Y33346D01*
Y33583D01*
X80827Y34094D01*
Y34528D01*
X83622Y37323D01*
X103583Y50787D02*
Y55315D01*
X103228Y50866D02*
Y55472D01*
X99094Y46732D02*
X103228Y50866D01*
X102874Y50984D02*
Y55591D01*
X98898Y47008D02*
X102874Y50984D01*
X102559Y51102D02*
Y55630D01*
X98425Y46968D02*
X102559Y51102D01*
X102244Y51142D02*
Y56063D01*
X101890Y51181D02*
Y56378D01*
X98346Y47244D02*
X102244Y51142D01*
X98228Y47520D02*
X101890Y51181D01*
X99882Y46220D02*
X103937Y50276D01*
Y55315D01*
X99496Y46701D02*
X103583Y50787D01*
X93307Y45669D02*
Y46457D01*
X96693Y46811D02*
X96850Y46654D01*
X74019Y73980D02*
X75161D01*
X73671Y74328D02*
X74019Y73980D01*
X98425Y40945D02*
X98622Y41142D01*
X97795Y44291D02*
X98602Y43484D01*
X98622Y41142D02*
Y43504D01*
X98819Y42126D02*
Y43701D01*
X98618Y43901D02*
X98819Y43701D01*
X98553Y43966D02*
X98618Y43901D01*
X85197Y37008D02*
X92520D01*
X93307Y37795D01*
Y38189D01*
X92716Y36811D02*
X93504Y37599D01*
X86181Y36811D02*
X92716D01*
X93504Y37599D02*
Y38386D01*
X86535Y36575D02*
X92795D01*
X93701Y37480D01*
Y38189D01*
X92913Y36378D02*
X93898Y37362D01*
X86693Y36378D02*
X92913D01*
X93898Y37362D02*
Y38386D01*
X91339Y38071D02*
X91655Y38387D01*
X91339Y37913D02*
Y38071D01*
X91655Y38387D02*
X92718D01*
X92716Y37992D02*
X92913Y38189D01*
X91024Y37323D02*
X91693Y37992D01*
X92716D01*
X83622Y37323D02*
X91024D01*
X92716Y37598D02*
X93110Y37992D01*
X84488Y37165D02*
X91811D01*
X92244Y37598D01*
X92716D01*
X93110Y37992D02*
Y38386D01*
X93386Y38661D01*
D31*
X29122Y57492D02*
X29173Y57441D01*
D32*
X71929Y73268D02*
X72756D01*
X69764Y71102D02*
X71929Y73268D01*
X71220Y68071D02*
X71299D01*
X88661Y50157D02*
Y59606D01*
X73858Y68937D02*
X85315D01*
X88661Y59606D02*
X89055Y60000D01*
Y65197D01*
X85315Y68937D02*
X89055Y65197D01*
X88661Y50157D02*
X92323Y46496D01*
X63138Y73437D02*
Y74713D01*
Y73437D02*
X64291Y72283D01*
X50100Y75550D02*
X50572Y75079D01*
X52401D01*
X52598Y75275D01*
Y75787D01*
X52953Y76142D01*
X71260D01*
X73504Y73897D01*
X71496Y76457D02*
X73346Y74606D01*
X51100Y75550D02*
X52007Y76457D01*
X71496D01*
X73346Y74606D02*
X73393D01*
X73671Y74328D01*
X74134Y73622D02*
X74291Y73780D01*
X75276Y73780D02*
X75791Y74295D01*
X74291Y73780D02*
X75276D01*
X63543Y73622D02*
X74134D01*
D36*
X92718Y38387D02*
X92913Y38583D01*
X91063Y38071D02*
X91575Y38583D01*
X91063Y37992D02*
Y38071D01*
X91575Y38583D02*
X92520D01*
D38*
X111339Y35039D02*
X111378Y35079D01*
X77205Y53071D02*
X77283Y53150D01*
D40*
X162480Y46705D02*
Y45905D01*
X163013D01*
X163413Y46439D02*
X163680D01*
X163813Y46305D01*
Y45905D01*
X163413D01*
X163280Y46039D01*
X163413Y46172D01*
X163813D01*
X164079Y46439D02*
Y46039D01*
X164213Y45905D01*
X164613D01*
Y45772D01*
X164479Y45639D01*
X164346D01*
X164613Y45905D02*
Y46439D01*
X165279Y45905D02*
X165012D01*
X164879Y46039D01*
Y46305D01*
X165012Y46439D01*
X165279D01*
X165412Y46305D01*
Y46172D01*
X164879D01*
X165679Y46439D02*
Y45905D01*
Y46172D01*
X165812Y46305D01*
X165946Y46439D01*
X166079D01*
X167278Y46572D02*
X167412Y46705D01*
X167678D01*
X167812Y46572D01*
Y46439D01*
X167678Y46305D01*
X167545D01*
X167678D01*
X167812Y46172D01*
Y46039D01*
X167678Y45905D01*
X167412D01*
X167278Y46039D01*
D42*
X44350Y32150D02*
D03*
D44*
X85800Y74100D02*
D03*
X50100Y75550D02*
D03*
X51100D02*
D03*
X63138Y74713D02*
D03*
X94900Y74100D02*
D03*
D45*
X84300Y34200D02*
D03*
X81800Y33450D02*
D03*
X79800Y31950D02*
D03*
X80800D02*
D03*
X82300Y32700D02*
D03*
X83300D02*
D03*
X84800Y33450D02*
D03*
X85300Y32700D02*
D03*
X86300D02*
D03*
X87300D02*
D03*
X88300D02*
D03*
X89300D02*
D03*
X89800Y31950D02*
D03*
X90800D02*
D03*
D50*
X97126Y53898D02*
D03*
Y53543D02*
D03*
X96457Y45669D02*
D03*
X96456Y45276D02*
D03*
X69764Y71102D02*
D03*
X71220Y68071D02*
D03*
X101142Y44094D02*
D03*
X100709Y43937D02*
D03*
X99606Y44094D02*
D03*
X100000Y44094D02*
D03*
X100748Y39449D02*
D03*
X101063Y39252D02*
D03*
X99606Y39370D02*
D03*
Y39764D02*
D03*
X98425Y40945D02*
D03*
X91063Y37992D02*
D03*
X91339Y37913D02*
D03*
X91181Y44094D02*
D03*
X91220Y44449D02*
D03*
X92520Y44094D02*
D03*
X92126D02*
D03*
X96063Y38976D02*
D03*
X87480Y43465D02*
D03*
X87244Y44331D02*
D03*
X85039Y66063D02*
D03*
X73622Y67913D02*
D03*
X98425Y44488D02*
D03*
X98819D02*
D03*
X75715Y68353D02*
D03*
X74165Y68260D02*
D03*
X72602Y68583D02*
D03*
X75512Y67913D02*
D03*
X77086Y68149D02*
D03*
X92126Y45276D02*
D03*
X73858Y68937D02*
D03*
X92323Y46496D02*
D03*
X63543Y73622D02*
D03*
X100394Y45276D02*
D03*
X64055Y71457D02*
D03*
X100000Y45669D02*
D03*
X64488Y71181D02*
D03*
X99606Y45669D02*
D03*
X102634Y34728D02*
D03*
X111378Y35079D02*
D03*
X109528Y34331D02*
D03*
X109213Y34685D02*
D03*
X108831Y33910D02*
D03*
X97992Y38976D02*
D03*
X109961Y36772D02*
D03*
X96850Y36181D02*
D03*
X96063Y38189D02*
D03*
X103969Y32252D02*
D03*
X96457Y38583D02*
D03*
X104225Y32389D02*
D03*
X96457Y39370D02*
D03*
X104481Y32567D02*
D03*
X97244Y38976D02*
D03*
X105504Y33826D02*
D03*
X97244Y38583D02*
D03*
X105760Y34122D02*
D03*
X97638Y38976D02*
D03*
X107040Y33984D02*
D03*
X97638Y38583D02*
D03*
X107296Y34240D02*
D03*
X98032Y38189D02*
D03*
X108063Y34023D02*
D03*
X98032Y38583D02*
D03*
X108319Y34200D02*
D03*
X98425Y38189D02*
D03*
X108575Y34378D02*
D03*
X98425Y38583D02*
D03*
X98819Y38189D02*
D03*
Y38583D02*
D03*
X104737Y32862D02*
D03*
X92520Y38583D02*
D03*
X92913D02*
D03*
X95669Y38189D02*
D03*
Y38583D02*
D03*
X95276Y38189D02*
D03*
Y38583D02*
D03*
X94882D02*
D03*
X94488D02*
D03*
X94094Y38189D02*
D03*
Y38583D02*
D03*
X93701Y38189D02*
D03*
X93701Y38583D02*
D03*
X93307Y38189D02*
D03*
X92913Y38189D02*
D03*
X93307Y38583D02*
D03*
X103937Y55315D02*
D03*
X103583D02*
D03*
X103228Y55472D02*
D03*
X99094Y46732D02*
D03*
X102874Y55591D02*
D03*
X98898Y47008D02*
D03*
X102559Y55630D02*
D03*
X98425Y46968D02*
D03*
X102244Y56063D02*
D03*
X101890Y56378D02*
D03*
X98346Y47244D02*
D03*
X98228Y47520D02*
D03*
X99882Y46220D02*
D03*
X99496Y46701D02*
D03*
X98032Y43701D02*
D03*
Y43307D02*
D03*
Y40157D02*
D03*
Y39764D02*
D03*
X97638D02*
D03*
X94488D02*
D03*
X94094D02*
D03*
X94094Y40157D02*
D03*
Y43307D02*
D03*
X94094Y43701D02*
D03*
X94488D02*
D03*
X97638D02*
D03*
X93307Y45669D02*
D03*
Y46457D02*
D03*
X96850Y46654D02*
D03*
X75161Y73980D02*
D03*
X72756Y73268D02*
D03*
X98819Y42126D02*
D03*
D51*
X86102Y45551D02*
D03*
X102323Y45787D02*
D03*
X29252Y57441D02*
D03*
D52*
X73504Y73897D02*
D03*
X75791Y74295D02*
D03*
D53*
X77205Y53071D02*
D03*
M02*
