%FSLAX23Y23*%
%MOIN*%
G70*
G01*
G75*
G04 Layer_Physical_Order=3*
G04 Layer_Color=128*
G36*
X4439Y5639D02*
X4311D01*
X4308Y5639D01*
X4308Y5638D01*
X4305Y5636D01*
X4294Y5626D01*
X4291Y5627D01*
X4285Y5625D01*
X4280Y5622D01*
X4276Y5616D01*
X4275Y5610D01*
X4276Y5604D01*
X4280Y5599D01*
X4285Y5595D01*
X4291Y5594D01*
X4298Y5595D01*
X4303Y5599D01*
X4306Y5604D01*
X4308Y5610D01*
X4308Y5610D01*
X4312Y5614D01*
X4315Y5613D01*
X4314Y5610D01*
X4316Y5604D01*
X4319Y5599D01*
X4324Y5595D01*
X4331Y5594D01*
X4337Y5595D01*
X4342Y5599D01*
X4346Y5604D01*
X4347Y5610D01*
X4346Y5616D01*
X4348Y5621D01*
X4439D01*
Y5580D01*
X4344D01*
X4342Y5582D01*
X4337Y5586D01*
X4331Y5587D01*
X4324Y5586D01*
X4319Y5582D01*
X4316Y5577D01*
X4314Y5571D01*
X4316Y5565D01*
X4319Y5559D01*
X4324Y5556D01*
X4331Y5555D01*
X4337Y5556D01*
X4342Y5559D01*
X4344Y5562D01*
X4439D01*
Y5541D01*
X4344D01*
X4342Y5543D01*
X4337Y5547D01*
X4331Y5548D01*
X4324Y5547D01*
X4319Y5543D01*
X4316Y5538D01*
X4314Y5531D01*
X4316Y5525D01*
X4319Y5520D01*
X4324Y5516D01*
X4331Y5515D01*
X4337Y5516D01*
X4342Y5520D01*
X4344Y5522D01*
X4400D01*
X4404Y5518D01*
X4403Y5512D01*
X4404Y5506D01*
X4400Y5501D01*
X4344D01*
X4342Y5504D01*
X4337Y5507D01*
X4331Y5508D01*
X4324Y5507D01*
X4319Y5504D01*
X4316Y5498D01*
X4314Y5492D01*
X4316Y5486D01*
X4319Y5481D01*
X4324Y5477D01*
X4331Y5476D01*
X4337Y5477D01*
X4342Y5481D01*
X4344Y5483D01*
X4439D01*
Y5442D01*
X4350D01*
X4346Y5447D01*
X4347Y5453D01*
X4346Y5459D01*
X4342Y5464D01*
X4337Y5468D01*
X4331Y5469D01*
X4324Y5468D01*
X4319Y5464D01*
X4316Y5459D01*
X4314Y5453D01*
X4315Y5450D01*
X4312Y5449D01*
X4308Y5453D01*
X4308Y5453D01*
X4306Y5459D01*
X4303Y5464D01*
X4298Y5468D01*
X4291Y5469D01*
X4285Y5468D01*
X4280Y5464D01*
X4276Y5459D01*
X4275Y5453D01*
X4276Y5447D01*
X4280Y5441D01*
X4285Y5438D01*
X4291Y5436D01*
X4292Y5436D01*
X4295Y5432D01*
X4294Y5429D01*
X4291Y5430D01*
X4285Y5428D01*
X4280Y5425D01*
X4276Y5420D01*
X4275Y5413D01*
X4276Y5407D01*
X4280Y5402D01*
X4285Y5398D01*
X4291Y5397D01*
X4298Y5398D01*
X4303Y5402D01*
X4306Y5407D01*
X4308Y5413D01*
X4306Y5420D01*
X4307Y5421D01*
X4313Y5423D01*
X4316Y5419D01*
X4314Y5413D01*
X4316Y5407D01*
X4319Y5402D01*
X4324Y5398D01*
X4331Y5397D01*
X4337Y5398D01*
X4342Y5402D01*
X4346Y5407D01*
X4347Y5413D01*
X4346Y5420D01*
X4348Y5424D01*
X4439D01*
Y5344D01*
X4344D01*
X4342Y5346D01*
X4337Y5350D01*
X4331Y5351D01*
X4324Y5350D01*
X4319Y5346D01*
X4316Y5341D01*
X4314Y5335D01*
X4316Y5328D01*
X4319Y5323D01*
X4324Y5320D01*
X4331Y5318D01*
X4337Y5320D01*
X4342Y5323D01*
X4344Y5325D01*
X4439D01*
Y5304D01*
X4344D01*
X4342Y5307D01*
X4337Y5310D01*
X4331Y5312D01*
X4324Y5310D01*
X4319Y5307D01*
X4316Y5302D01*
X4314Y5295D01*
X4316Y5289D01*
X4319Y5284D01*
X4324Y5280D01*
X4331Y5279D01*
X4337Y5280D01*
X4342Y5284D01*
X4344Y5286D01*
X4439D01*
Y5265D01*
X4344D01*
X4342Y5267D01*
X4337Y5271D01*
X4331Y5272D01*
X4324Y5271D01*
X4319Y5267D01*
X4316Y5262D01*
X4314Y5256D01*
X4316Y5250D01*
X4319Y5244D01*
X4324Y5241D01*
X4331Y5240D01*
X4337Y5241D01*
X4342Y5244D01*
X4344Y5247D01*
X4439D01*
Y5226D01*
X4344D01*
X4342Y5228D01*
X4337Y5232D01*
X4331Y5233D01*
X4324Y5232D01*
X4319Y5228D01*
X4316Y5223D01*
X4314Y5217D01*
X4316Y5210D01*
X4319Y5205D01*
X4324Y5201D01*
X4331Y5200D01*
X4337Y5201D01*
X4342Y5205D01*
X4344Y5207D01*
X4439D01*
Y5088D01*
X4433Y5087D01*
X4431Y5090D01*
X4426Y5094D01*
X4419Y5095D01*
X4413Y5094D01*
X4408Y5090D01*
X4404Y5085D01*
X4403Y5079D01*
X4404Y5072D01*
X4408Y5067D01*
X4413Y5064D01*
X4419Y5062D01*
X4426Y5064D01*
X4431Y5067D01*
X4433Y5071D01*
X4439Y5069D01*
Y4895D01*
X4437Y4893D01*
X4434Y4888D01*
X4433Y4882D01*
X4434Y4876D01*
X4437Y4870D01*
X4439Y4869D01*
Y4829D01*
X4433Y4828D01*
X4427Y4825D01*
X4424Y4819D01*
X4423Y4813D01*
X4424Y4807D01*
X4427Y4801D01*
X4428Y4801D01*
Y4795D01*
X4427Y4795D01*
X4424Y4790D01*
X4423Y4783D01*
X4424Y4777D01*
X4427Y4772D01*
X4433Y4768D01*
X4439Y4767D01*
X4439Y4767D01*
Y4767D01*
X4439Y4767D01*
Y4726D01*
X4433Y4723D01*
X4281Y4876D01*
Y4908D01*
X4281Y4908D01*
X4282Y4911D01*
Y4960D01*
X4281Y4963D01*
X4281Y4963D01*
X4281Y4963D01*
X4279Y4966D01*
X4279Y4966D01*
X4279D01*
X4279Y4966D01*
X4268Y4978D01*
X4268Y4980D01*
X4267Y4987D01*
X4264Y4992D01*
X4258Y4995D01*
X4252Y4997D01*
X4246Y4995D01*
X4240Y4992D01*
X4237Y4987D01*
X4236Y4980D01*
X4236Y4978D01*
X4234Y4977D01*
X4229Y4980D01*
X4229Y4980D01*
X4228Y4987D01*
X4224Y4992D01*
X4219Y4995D01*
X4213Y4997D01*
X4206Y4995D01*
X4201Y4992D01*
X4198Y4987D01*
X4196Y4980D01*
X4197Y4978D01*
X4194Y4977D01*
X4190Y4980D01*
X4190Y4980D01*
X4188Y4987D01*
X4185Y4992D01*
X4179Y4995D01*
X4173Y4997D01*
X4171Y4996D01*
X4169Y4999D01*
X4173Y5003D01*
X4173Y5003D01*
X4179Y5005D01*
X4185Y5008D01*
X4188Y5013D01*
X4190Y5020D01*
X4188Y5026D01*
X4185Y5031D01*
X4179Y5035D01*
X4173Y5036D01*
X4167Y5035D01*
X4162Y5031D01*
X4158Y5026D01*
X4157Y5020D01*
X4157Y5020D01*
X4152Y5016D01*
X4150Y5017D01*
X4150Y5020D01*
X4149Y5026D01*
X4145Y5031D01*
X4140Y5035D01*
X4134Y5036D01*
X4128Y5035D01*
X4122Y5031D01*
X4119Y5026D01*
X4118Y5020D01*
X4119Y5013D01*
X4122Y5008D01*
X4125Y5007D01*
Y4813D01*
X4123Y4813D01*
X4119Y4812D01*
X4110Y4820D01*
X4111Y4823D01*
X4110Y4829D01*
X4106Y4834D01*
X4101Y4838D01*
X4094Y4839D01*
X4088Y4838D01*
X4083Y4834D01*
X4079Y4829D01*
X4078Y4823D01*
X4079Y4817D01*
X4083Y4811D01*
X4088Y4808D01*
X4094Y4807D01*
X4097Y4807D01*
X4439Y4465D01*
Y4438D01*
X4433Y4436D01*
X4005Y4864D01*
Y4961D01*
X4005Y4964D01*
X4003Y4967D01*
X3992Y4978D01*
X3993Y4980D01*
X3991Y4987D01*
X3988Y4992D01*
X3983Y4995D01*
X3976Y4997D01*
X3970Y4995D01*
X3965Y4992D01*
X3961Y4987D01*
X3960Y4980D01*
X3961Y4978D01*
X3958Y4977D01*
X3953Y4980D01*
X3953Y4980D01*
X3952Y4987D01*
X3949Y4992D01*
X3943Y4995D01*
X3937Y4997D01*
X3931Y4995D01*
X3925Y4992D01*
X3922Y4987D01*
X3921Y4980D01*
X3921Y4978D01*
X3919Y4977D01*
X3914Y4980D01*
X3914Y4980D01*
X3913Y4987D01*
X3909Y4992D01*
X3904Y4995D01*
X3898Y4997D01*
X3891Y4995D01*
X3886Y4992D01*
X3883Y4987D01*
X3881Y4980D01*
X3882Y4978D01*
X3879Y4977D01*
X3875Y4980D01*
X3875Y4980D01*
X3873Y4987D01*
X3870Y4992D01*
X3865Y4995D01*
X3858Y4997D01*
X3852Y4995D01*
X3847Y4992D01*
X3843Y4987D01*
X3842Y4980D01*
X3843Y4974D01*
X3847Y4969D01*
X3852Y4965D01*
X3858Y4964D01*
X3858Y4964D01*
X3862Y4959D01*
X3861Y4957D01*
X3858Y4957D01*
X3852Y4956D01*
X3847Y4952D01*
X3843Y4947D01*
X3842Y4941D01*
X3842Y4938D01*
X3840Y4937D01*
X3835Y4941D01*
X3835Y4941D01*
X3834Y4947D01*
X3830Y4952D01*
X3825Y4956D01*
X3819Y4957D01*
X3813Y4956D01*
X3808Y4960D01*
Y4961D01*
X3808Y4962D01*
Y4962D01*
X3808D01*
D01*
D01*
D01*
X3813Y4965D01*
X3819Y4964D01*
X3825Y4965D01*
X3830Y4969D01*
X3834Y4974D01*
X3835Y4980D01*
X3834Y4987D01*
X3830Y4992D01*
X3825Y4995D01*
X3819Y4997D01*
X3813Y4995D01*
X3807Y4992D01*
X3804Y4987D01*
X3803Y4980D01*
X3803Y4978D01*
X3801Y4977D01*
X3796Y4980D01*
X3796Y4980D01*
X3795Y4987D01*
X3791Y4992D01*
X3786Y4995D01*
X3780Y4997D01*
X3773Y4995D01*
X3768Y4992D01*
X3764Y4987D01*
X3763Y4980D01*
X3764Y4974D01*
X3768Y4969D01*
X3773Y4965D01*
X3780Y4964D01*
X3780Y4964D01*
X3783Y4959D01*
X3782Y4957D01*
X3780Y4957D01*
X3773Y4956D01*
X3768Y4952D01*
X3764Y4947D01*
X3763Y4941D01*
X3764Y4935D01*
X3768Y4929D01*
X3770Y4928D01*
Y4862D01*
X3766Y4859D01*
X3760Y4860D01*
X3754Y4859D01*
X3749Y4862D01*
Y4928D01*
X3752Y4929D01*
X3755Y4935D01*
X3756Y4941D01*
X3755Y4947D01*
X3752Y4952D01*
X3746Y4956D01*
X3740Y4957D01*
X3734Y4956D01*
X3729Y4952D01*
X3725Y4947D01*
X3724Y4941D01*
X3725Y4935D01*
X3729Y4929D01*
X3731Y4928D01*
Y4741D01*
X3732Y4738D01*
X3734Y4735D01*
X4273Y4195D01*
Y4053D01*
X4268Y4051D01*
X4262Y4052D01*
X4259Y4051D01*
X3710Y4600D01*
Y4928D01*
X3712Y4929D01*
X3716Y4935D01*
X3717Y4941D01*
X3716Y4947D01*
X3712Y4952D01*
X3707Y4956D01*
X3701Y4957D01*
X3695Y4956D01*
X3689Y4952D01*
X3686Y4947D01*
X3684Y4941D01*
X3686Y4935D01*
X3689Y4929D01*
X3692Y4928D01*
Y4596D01*
X3692Y4593D01*
X3694Y4590D01*
X4246Y4038D01*
X4245Y4035D01*
X4247Y4029D01*
X4250Y4024D01*
X4256Y4020D01*
X4262Y4019D01*
X4268Y4020D01*
X4273Y4018D01*
Y3701D01*
X4136D01*
X4133Y3706D01*
X4136Y3710D01*
X4138Y3718D01*
X4136Y3727D01*
X4131Y3734D01*
X4124Y3738D01*
X4116Y3740D01*
X4108Y3738D01*
X4101Y3734D01*
X4096Y3727D01*
X4095Y3718D01*
X4096Y3710D01*
X4099Y3706D01*
X4096Y3701D01*
X3914D01*
X3910Y3705D01*
X3911Y3710D01*
X3910Y3716D01*
X3907Y3722D01*
X3901Y3725D01*
X3895Y3726D01*
X3889Y3725D01*
X3883Y3722D01*
X3880Y3716D01*
X3879Y3710D01*
X3880Y3705D01*
X3876Y3701D01*
X3847D01*
X3847Y3702D01*
X3841Y3705D01*
X3835Y3706D01*
X3829Y3705D01*
X3823Y3702D01*
X3823Y3701D01*
X3807D01*
X3807Y3702D01*
X3801Y3705D01*
X3795Y3706D01*
X3789Y3705D01*
X3783Y3702D01*
X3783Y3701D01*
X3767D01*
X3767Y3702D01*
X3761Y3705D01*
X3755Y3706D01*
X3749Y3705D01*
X3743Y3702D01*
X3743Y3701D01*
X3150D01*
Y3964D01*
X3151Y3965D01*
X3155Y3970D01*
X3156Y3976D01*
X3155Y3983D01*
X3151Y3988D01*
X3150Y3989D01*
Y4363D01*
X3150Y4364D01*
X3151Y4370D01*
X3150Y4376D01*
X3150Y4377D01*
Y4524D01*
X3153Y4527D01*
X3157Y4532D01*
X3158Y4538D01*
X3157Y4545D01*
X3153Y4550D01*
X3150Y4552D01*
Y4616D01*
X3505Y4971D01*
X3583D01*
X3586Y4972D01*
X3589Y4974D01*
X3606Y4991D01*
X3642D01*
X3645Y4992D01*
Y4992D01*
X3645D01*
D01*
X3646Y4987D01*
X3645Y4980D01*
X3646Y4974D01*
X3650Y4969D01*
X3655Y4965D01*
X3661Y4964D01*
X3668Y4965D01*
X3673Y4969D01*
X3676Y4974D01*
X3678Y4980D01*
X3676Y4987D01*
X3673Y4992D01*
X3668Y4995D01*
X3661Y4997D01*
X3659Y4996D01*
X3657Y4999D01*
X3661Y5004D01*
X3662Y5004D01*
X3668Y5005D01*
X3673Y5008D01*
X3677Y5014D01*
X3678Y5020D01*
X3677Y5026D01*
X3673Y5032D01*
X3668Y5035D01*
X3662Y5036D01*
X3659Y5036D01*
X3656Y5041D01*
X3661Y5043D01*
D01*
X3668Y5044D01*
X3673Y5048D01*
X3676Y5053D01*
X3678Y5059D01*
X3676Y5065D01*
X3673Y5071D01*
X3668Y5074D01*
X3661Y5075D01*
X3659Y5075D01*
X3658Y5077D01*
X3661Y5082D01*
X3661Y5082D01*
X3668Y5083D01*
X3673Y5087D01*
X3676Y5092D01*
X3678Y5098D01*
X3676Y5105D01*
X3677Y5106D01*
X3683Y5107D01*
X3686Y5104D01*
X3684Y5098D01*
X3686Y5092D01*
X3689Y5087D01*
X3695Y5083D01*
X3701Y5082D01*
X3707Y5083D01*
X3712Y5087D01*
X3716Y5092D01*
X3717Y5098D01*
X3717Y5101D01*
X3719Y5102D01*
X3724Y5099D01*
X3724Y5098D01*
X3725Y5092D01*
X3729Y5087D01*
X3734Y5083D01*
X3740Y5082D01*
X3746Y5083D01*
X3752Y5087D01*
X3755Y5092D01*
X3756Y5098D01*
X3755Y5105D01*
X3752Y5110D01*
X3746Y5113D01*
X3740Y5115D01*
X3740Y5115D01*
X3736Y5120D01*
X3738Y5122D01*
X3740Y5121D01*
X3746Y5123D01*
X3752Y5126D01*
X3755Y5132D01*
X3756Y5138D01*
X3755Y5144D01*
X3752Y5149D01*
X3746Y5153D01*
X3740Y5154D01*
X3734Y5153D01*
X3729Y5149D01*
X3725Y5144D01*
X3724Y5138D01*
X3725Y5132D01*
X3725Y5130D01*
X3719Y5128D01*
X3716Y5132D01*
X3717Y5138D01*
X3716Y5144D01*
X3712Y5149D01*
X3707Y5153D01*
X3701Y5154D01*
X3701Y5154D01*
X3697Y5159D01*
X3698Y5161D01*
X3701Y5161D01*
X3707Y5162D01*
X3712Y5166D01*
X3716Y5171D01*
X3717Y5177D01*
X3716Y5183D01*
X3718Y5188D01*
X3720D01*
X3724Y5188D01*
Y5188D01*
X3724D01*
D01*
X3725Y5183D01*
X3724Y5177D01*
X3725Y5171D01*
X3729Y5166D01*
X3734Y5162D01*
X3740Y5161D01*
X3746Y5162D01*
X3752Y5166D01*
X3755Y5171D01*
X3756Y5177D01*
X3755Y5183D01*
X3752Y5189D01*
X3746Y5192D01*
X3740Y5193D01*
X3738Y5193D01*
X3736Y5195D01*
X3740Y5200D01*
X3740Y5200D01*
X3746Y5201D01*
X3752Y5205D01*
X3755Y5210D01*
X3756Y5217D01*
X3755Y5223D01*
X3752Y5228D01*
X3746Y5232D01*
X3740Y5233D01*
X3734Y5232D01*
X3729Y5228D01*
X3725Y5223D01*
X3724Y5217D01*
X3724Y5216D01*
X3719Y5213D01*
X3717Y5214D01*
X3717Y5217D01*
X3716Y5223D01*
X3712Y5228D01*
X3707Y5232D01*
X3701Y5233D01*
X3695Y5232D01*
X3689Y5228D01*
X3686Y5223D01*
X3684Y5217D01*
X3686Y5211D01*
X3684Y5209D01*
X3678D01*
X3677Y5211D01*
X3678Y5217D01*
X3676Y5223D01*
X3673Y5228D01*
X3668Y5232D01*
X3661Y5233D01*
X3655Y5232D01*
X3650Y5228D01*
X3646Y5223D01*
X3645Y5217D01*
X3646Y5211D01*
X3645Y5209D01*
X3639D01*
X3637Y5211D01*
X3638Y5217D01*
X3637Y5223D01*
X3634Y5228D01*
X3628Y5232D01*
X3622Y5233D01*
X3616Y5232D01*
X3611Y5228D01*
X3607Y5223D01*
X3606Y5217D01*
X3607Y5211D01*
X3603Y5206D01*
X3524D01*
Y5493D01*
X3528Y5497D01*
X3533Y5495D01*
X3540Y5497D01*
X3545Y5500D01*
X3549Y5506D01*
X3550Y5512D01*
X3549Y5518D01*
X3545Y5523D01*
X3540Y5527D01*
X3533Y5528D01*
X3528Y5527D01*
X3524Y5531D01*
Y5650D01*
X3803D01*
X3804Y5643D01*
X3807Y5638D01*
X3813Y5635D01*
X3819Y5633D01*
X3825Y5635D01*
X3830Y5638D01*
X3834Y5643D01*
X3835Y5650D01*
X3842D01*
X3843Y5643D01*
X3847Y5638D01*
X3852Y5635D01*
X3858Y5633D01*
X3865Y5635D01*
X3870Y5638D01*
X3873Y5643D01*
X3875Y5650D01*
X3881D01*
X3883Y5643D01*
X3886Y5638D01*
X3891Y5635D01*
X3898Y5633D01*
X3904Y5635D01*
X3909Y5638D01*
X3913Y5643D01*
X3914Y5650D01*
X3921D01*
X3922Y5643D01*
X3925Y5638D01*
X3931Y5635D01*
X3937Y5633D01*
X3943Y5635D01*
X3949Y5638D01*
X3952Y5643D01*
X3953Y5650D01*
X3999D01*
X4001Y5643D01*
X4004Y5638D01*
X4010Y5635D01*
X4016Y5633D01*
X4022Y5635D01*
X4027Y5638D01*
X4031Y5643D01*
X4032Y5650D01*
X4039D01*
X4040Y5643D01*
X4044Y5638D01*
X4049Y5635D01*
X4055Y5633D01*
X4061Y5635D01*
X4067Y5638D01*
X4070Y5643D01*
X4071Y5650D01*
X4078D01*
X4079Y5643D01*
X4083Y5638D01*
X4088Y5635D01*
X4094Y5633D01*
X4101Y5635D01*
X4106Y5638D01*
X4110Y5643D01*
X4111Y5650D01*
X4118D01*
X4119Y5643D01*
X4122Y5638D01*
X4128Y5635D01*
X4134Y5633D01*
X4140Y5635D01*
X4145Y5638D01*
X4149Y5643D01*
X4150Y5650D01*
X4157D01*
X4158Y5643D01*
X4162Y5638D01*
X4167Y5635D01*
X4173Y5633D01*
X4179Y5635D01*
X4185Y5638D01*
X4188Y5643D01*
X4190Y5650D01*
X4236D01*
X4237Y5643D01*
X4240Y5638D01*
X4246Y5635D01*
X4252Y5633D01*
X4258Y5635D01*
X4264Y5638D01*
X4267Y5643D01*
X4268Y5650D01*
D01*
X4268D01*
Y5650D01*
D01*
D01*
X4268Y5650D01*
X4439D01*
Y5639D02*
G37*
%LPC*%
G36*
X4094Y5036D02*
X4088Y5035D01*
X4083Y5031D01*
X4079Y5026D01*
X4078Y5020D01*
X4079Y5013D01*
X4083Y5008D01*
X4088Y5005D01*
X4094Y5003D01*
X4101Y5005D01*
X4106Y5008D01*
X4110Y5013D01*
X4111Y5020D01*
X4110Y5026D01*
X4106Y5031D01*
X4101Y5035D01*
X4094Y5036D02*
G37*
G36*
X4055D02*
X4049Y5035D01*
X4044Y5031D01*
X4040Y5026D01*
X4039Y5020D01*
X4040Y5013D01*
X4044Y5008D01*
X4049Y5005D01*
X4055Y5003D01*
X4061Y5005D01*
X4067Y5008D01*
X4070Y5013D01*
X4071Y5020D01*
X4070Y5026D01*
X4067Y5031D01*
X4061Y5035D01*
X4055Y5036D02*
G37*
G36*
X3740Y4997D02*
X3734Y4995D01*
X3729Y4992D01*
X3725Y4987D01*
X3724Y4980D01*
X3725Y4974D01*
X3729Y4969D01*
X3734Y4965D01*
X3740Y4964D01*
X3746Y4965D01*
X3752Y4969D01*
X3755Y4974D01*
X3756Y4980D01*
X3755Y4987D01*
X3752Y4992D01*
X3746Y4995D01*
X3740Y4997D02*
G37*
G36*
X3780Y5036D02*
X3773Y5035D01*
X3768Y5031D01*
X3764Y5026D01*
X3763Y5020D01*
X3764Y5013D01*
X3768Y5008D01*
X3773Y5005D01*
X3780Y5003D01*
X3786Y5005D01*
X3791Y5008D01*
X3795Y5013D01*
X3796Y5020D01*
X3795Y5026D01*
X3791Y5031D01*
X3786Y5035D01*
X3780Y5036D02*
G37*
G36*
X3740D02*
X3734Y5035D01*
X3729Y5031D01*
X3725Y5026D01*
X3724Y5020D01*
X3725Y5013D01*
X3729Y5008D01*
X3734Y5005D01*
X3740Y5003D01*
X3746Y5005D01*
X3752Y5008D01*
X3755Y5013D01*
X3756Y5020D01*
X3755Y5026D01*
X3752Y5031D01*
X3746Y5035D01*
X3740Y5036D02*
G37*
G36*
X4252Y5036D02*
X4246Y5035D01*
X4240Y5031D01*
X4237Y5026D01*
X4236Y5020D01*
X4237Y5013D01*
X4240Y5008D01*
X4246Y5005D01*
X4252Y5003D01*
X4258Y5005D01*
X4264Y5008D01*
X4267Y5013D01*
X4268Y5020D01*
X4267Y5026D01*
X4264Y5031D01*
X4258Y5035D01*
X4252Y5036D02*
G37*
G36*
X4369Y4919D02*
X4363Y4918D01*
X4358Y4914D01*
X4354Y4909D01*
X4353Y4903D01*
X4354Y4896D01*
X4358Y4891D01*
X4363Y4887D01*
X4369Y4886D01*
X4375Y4887D01*
X4381Y4891D01*
X4384Y4896D01*
X4385Y4903D01*
X4384Y4909D01*
X4381Y4914D01*
X4375Y4918D01*
X4369Y4919D02*
G37*
G36*
X3583Y4918D02*
X3576Y4917D01*
X3571Y4913D01*
X3568Y4908D01*
X3566Y4902D01*
X3568Y4895D01*
X3571Y4890D01*
X3576Y4887D01*
X3583Y4885D01*
X3589Y4887D01*
X3594Y4890D01*
X3598Y4895D01*
X3599Y4902D01*
X3598Y4908D01*
X3594Y4913D01*
X3589Y4917D01*
X3583Y4918D02*
G37*
G36*
X4408Y4880D02*
X4402Y4878D01*
X4397Y4875D01*
X4393Y4869D01*
X4392Y4863D01*
X4393Y4857D01*
X4397Y4852D01*
X4402Y4848D01*
X4408Y4847D01*
X4415Y4848D01*
X4420Y4852D01*
X4424Y4857D01*
X4425Y4863D01*
X4424Y4869D01*
X4420Y4875D01*
X4415Y4878D01*
X4408Y4880D02*
G37*
G36*
X4094Y4997D02*
X4088Y4995D01*
X4083Y4992D01*
X4079Y4987D01*
X4078Y4980D01*
X4079Y4974D01*
X4083Y4969D01*
X4088Y4965D01*
X4094Y4964D01*
X4101Y4965D01*
X4106Y4969D01*
X4110Y4974D01*
X4111Y4980D01*
X4110Y4987D01*
X4106Y4992D01*
X4101Y4995D01*
X4094Y4997D02*
G37*
G36*
Y4957D02*
X4088Y4956D01*
X4083Y4952D01*
X4079Y4947D01*
X4078Y4941D01*
X4079Y4935D01*
X4083Y4929D01*
X4088Y4926D01*
X4094Y4925D01*
X4101Y4926D01*
X4106Y4929D01*
X4110Y4935D01*
X4111Y4941D01*
X4110Y4947D01*
X4106Y4952D01*
X4101Y4956D01*
X4094Y4957D02*
G37*
G36*
X3524Y4938D02*
X3517Y4936D01*
X3512Y4933D01*
X3509Y4928D01*
X3507Y4921D01*
X3509Y4915D01*
X3512Y4910D01*
X3517Y4906D01*
X3524Y4905D01*
X3530Y4906D01*
X3535Y4910D01*
X3539Y4915D01*
X3540Y4921D01*
X3539Y4928D01*
X3535Y4933D01*
X3530Y4936D01*
X3524Y4938D02*
G37*
G36*
X3819Y5036D02*
X3813Y5035D01*
X3807Y5031D01*
X3804Y5026D01*
X3803Y5020D01*
X3804Y5013D01*
X3807Y5008D01*
X3813Y5005D01*
X3819Y5003D01*
X3825Y5005D01*
X3830Y5008D01*
X3834Y5013D01*
X3835Y5020D01*
X3834Y5026D01*
X3830Y5031D01*
X3825Y5035D01*
X3819Y5036D02*
G37*
G36*
Y5075D02*
X3813Y5074D01*
X3807Y5071D01*
X3804Y5065D01*
X3803Y5059D01*
X3804Y5053D01*
X3807Y5048D01*
X3813Y5044D01*
X3819Y5043D01*
X3825Y5044D01*
X3830Y5048D01*
X3834Y5053D01*
X3835Y5059D01*
X3834Y5065D01*
X3830Y5071D01*
X3825Y5074D01*
X3819Y5075D02*
G37*
G36*
X3780D02*
X3773Y5074D01*
X3768Y5071D01*
X3764Y5065D01*
X3763Y5059D01*
X3764Y5053D01*
X3768Y5048D01*
X3773Y5044D01*
X3780Y5043D01*
X3786Y5044D01*
X3791Y5048D01*
X3795Y5053D01*
X3796Y5059D01*
X3795Y5065D01*
X3791Y5071D01*
X3786Y5074D01*
X3780Y5075D02*
G37*
G36*
X3740D02*
X3734Y5074D01*
X3729Y5071D01*
X3725Y5065D01*
X3724Y5059D01*
X3725Y5053D01*
X3729Y5048D01*
X3734Y5044D01*
X3740Y5043D01*
X3746Y5044D01*
X3752Y5048D01*
X3755Y5053D01*
X3756Y5059D01*
X3755Y5065D01*
X3752Y5071D01*
X3746Y5074D01*
X3740Y5075D02*
G37*
G36*
X3937D02*
X3931Y5074D01*
X3925Y5071D01*
X3922Y5065D01*
X3921Y5059D01*
X3922Y5053D01*
X3925Y5048D01*
X3931Y5044D01*
X3937Y5043D01*
X3943Y5044D01*
X3949Y5048D01*
X3952Y5053D01*
X3953Y5059D01*
X3952Y5065D01*
X3949Y5071D01*
X3943Y5074D01*
X3937Y5075D02*
G37*
G36*
X3898D02*
X3891Y5074D01*
X3886Y5071D01*
X3883Y5065D01*
X3881Y5059D01*
X3883Y5053D01*
X3886Y5048D01*
X3891Y5044D01*
X3898Y5043D01*
X3904Y5044D01*
X3909Y5048D01*
X3913Y5053D01*
X3914Y5059D01*
X3913Y5065D01*
X3909Y5071D01*
X3904Y5074D01*
X3898Y5075D02*
G37*
G36*
X3858D02*
X3852Y5074D01*
X3847Y5071D01*
X3843Y5065D01*
X3842Y5059D01*
X3843Y5053D01*
X3847Y5048D01*
X3852Y5044D01*
X3858Y5043D01*
X3865Y5044D01*
X3870Y5048D01*
X3873Y5053D01*
X3875Y5059D01*
X3873Y5065D01*
X3870Y5071D01*
X3865Y5074D01*
X3858Y5075D02*
G37*
G36*
X3937Y5036D02*
X3931Y5035D01*
X3925Y5031D01*
X3922Y5026D01*
X3921Y5020D01*
X3922Y5013D01*
X3925Y5008D01*
X3931Y5005D01*
X3937Y5003D01*
X3943Y5005D01*
X3949Y5008D01*
X3952Y5013D01*
X3953Y5020D01*
X3952Y5026D01*
X3949Y5031D01*
X3943Y5035D01*
X3937Y5036D02*
G37*
G36*
X3898D02*
X3891Y5035D01*
X3886Y5031D01*
X3883Y5026D01*
X3881Y5020D01*
X3883Y5013D01*
X3886Y5008D01*
X3891Y5005D01*
X3898Y5003D01*
X3904Y5005D01*
X3909Y5008D01*
X3913Y5013D01*
X3914Y5020D01*
X3913Y5026D01*
X3909Y5031D01*
X3904Y5035D01*
X3898Y5036D02*
G37*
G36*
X3858D02*
X3852Y5035D01*
X3847Y5031D01*
X3843Y5026D01*
X3842Y5020D01*
X3843Y5013D01*
X3847Y5008D01*
X3852Y5005D01*
X3858Y5003D01*
X3865Y5005D01*
X3870Y5008D01*
X3873Y5013D01*
X3875Y5020D01*
X3873Y5026D01*
X3870Y5031D01*
X3865Y5035D01*
X3858Y5036D02*
G37*
G36*
X3701Y5075D02*
X3695Y5074D01*
X3689Y5071D01*
X3686Y5065D01*
X3684Y5059D01*
X3686Y5053D01*
X3689Y5048D01*
X3695Y5044D01*
X3701Y5043D01*
X3707Y5044D01*
X3712Y5048D01*
X3716Y5053D01*
X3717Y5059D01*
X3716Y5065D01*
X3712Y5071D01*
X3707Y5074D01*
X3701Y5075D02*
G37*
G36*
X4094Y5075D02*
X4088Y5074D01*
X4083Y5071D01*
X4079Y5065D01*
X4078Y5059D01*
X4079Y5053D01*
X4083Y5048D01*
X4088Y5044D01*
X4094Y5043D01*
X4101Y5044D01*
X4106Y5048D01*
X4110Y5053D01*
X4111Y5059D01*
X4110Y5065D01*
X4106Y5071D01*
X4101Y5074D01*
X4094Y5075D02*
G37*
G36*
X4415Y5041D02*
X4408Y5039D01*
X4403Y5036D01*
X4399Y5031D01*
X4398Y5024D01*
X4399Y5018D01*
X4403Y5013D01*
X4408Y5009D01*
X4415Y5008D01*
X4421Y5009D01*
X4426Y5013D01*
X4430Y5018D01*
X4431Y5024D01*
X4430Y5031D01*
X4426Y5036D01*
X4421Y5039D01*
X4415Y5041D02*
G37*
G36*
X3414Y4085D02*
X3406Y4083D01*
X3399Y4079D01*
X3394Y4072D01*
X3393Y4064D01*
X3394Y4055D01*
X3399Y4048D01*
X3406Y4044D01*
X3414Y4042D01*
X3422Y4044D01*
X3429Y4048D01*
X3434Y4055D01*
X3435Y4064D01*
X3434Y4072D01*
X3429Y4079D01*
X3422Y4083D01*
X3414Y4085D02*
G37*
G36*
X4134Y4077D02*
X4126Y4075D01*
X4119Y4070D01*
X4114Y4063D01*
X4112Y4055D01*
X4114Y4047D01*
X4119Y4040D01*
X4126Y4035D01*
X4134Y4034D01*
X4142Y4035D01*
X4149Y4040D01*
X4154Y4047D01*
X4155Y4055D01*
X4154Y4063D01*
X4149Y4070D01*
X4142Y4075D01*
X4134Y4077D02*
G37*
G36*
X3746Y4011D02*
X3738Y4010D01*
X3731Y4005D01*
X3726Y3998D01*
X3725Y3990D01*
X3726Y3982D01*
X3731Y3975D01*
X3738Y3970D01*
X3746Y3969D01*
X3754Y3970D01*
X3761Y3975D01*
X3766Y3982D01*
X3768Y3990D01*
X3766Y3998D01*
X3761Y4005D01*
X3754Y4010D01*
X3746Y4011D02*
G37*
G36*
X3673Y4186D02*
X3664Y4185D01*
X3657Y4180D01*
X3653Y4173D01*
X3651Y4165D01*
X3653Y4157D01*
X3657Y4150D01*
X3664Y4145D01*
X3673Y4143D01*
X3681Y4145D01*
X3688Y4150D01*
X3692Y4157D01*
X3694Y4165D01*
X3692Y4173D01*
X3688Y4180D01*
X3681Y4185D01*
X3673Y4186D02*
G37*
G36*
X3917Y4185D02*
X3909Y4183D01*
X3902Y4179D01*
X3898Y4172D01*
X3896Y4163D01*
X3898Y4155D01*
X3902Y4148D01*
X3909Y4144D01*
X3917Y4142D01*
X3926Y4144D01*
X3932Y4148D01*
X3937Y4155D01*
X3939Y4163D01*
X3937Y4172D01*
X3932Y4179D01*
X3926Y4183D01*
X3917Y4185D02*
G37*
G36*
X3307Y4121D02*
X3301Y4119D01*
X3296Y4116D01*
X3292Y4111D01*
X3291Y4104D01*
X3292Y4098D01*
X3296Y4093D01*
X3301Y4089D01*
X3307Y4088D01*
X3313Y4089D01*
X3319Y4093D01*
X3322Y4098D01*
X3323Y4104D01*
X3322Y4111D01*
X3319Y4116D01*
X3313Y4119D01*
X3307Y4121D02*
G37*
G36*
X3316Y3841D02*
X3308Y3840D01*
X3301Y3835D01*
X3296Y3828D01*
X3294Y3820D01*
X3296Y3812D01*
X3301Y3805D01*
X3308Y3800D01*
X3316Y3799D01*
X3324Y3800D01*
X3331Y3805D01*
X3336Y3812D01*
X3337Y3820D01*
X3336Y3828D01*
X3331Y3835D01*
X3324Y3840D01*
X3316Y3841D02*
G37*
G36*
X3983Y3798D02*
X3975Y3796D01*
X3968Y3792D01*
X3963Y3785D01*
X3962Y3777D01*
X3963Y3768D01*
X3968Y3761D01*
X3975Y3757D01*
X3983Y3755D01*
X3991Y3757D01*
X3998Y3761D01*
X4003Y3768D01*
X4005Y3777D01*
X4003Y3785D01*
X3998Y3792D01*
X3991Y3796D01*
X3983Y3798D02*
G37*
G36*
X3629D02*
X3621Y3796D01*
X3614Y3792D01*
X3609Y3785D01*
X3607Y3777D01*
X3609Y3768D01*
X3614Y3761D01*
X3621Y3757D01*
X3629Y3755D01*
X3637Y3757D01*
X3644Y3761D01*
X3649Y3768D01*
X3650Y3777D01*
X3649Y3785D01*
X3644Y3792D01*
X3637Y3796D01*
X3629Y3798D02*
G37*
G36*
X3414Y3940D02*
X3406Y3938D01*
X3399Y3934D01*
X3394Y3927D01*
X3393Y3919D01*
X3394Y3910D01*
X3399Y3904D01*
X3406Y3899D01*
X3414Y3897D01*
X3422Y3899D01*
X3429Y3904D01*
X3434Y3910D01*
X3435Y3919D01*
X3434Y3927D01*
X3429Y3934D01*
X3422Y3938D01*
X3414Y3940D02*
G37*
G36*
X4166Y3931D02*
X4158Y3930D01*
X4151Y3925D01*
X4146Y3918D01*
X4145Y3910D01*
X4146Y3902D01*
X4151Y3895D01*
X4158Y3890D01*
X4166Y3889D01*
X4174Y3890D01*
X4181Y3895D01*
X4186Y3902D01*
X4187Y3910D01*
X4186Y3918D01*
X4181Y3925D01*
X4174Y3930D01*
X4166Y3931D02*
G37*
G36*
X3691Y3864D02*
X3683Y3863D01*
X3676Y3858D01*
X3671Y3851D01*
X3670Y3843D01*
X3671Y3835D01*
X3676Y3828D01*
X3683Y3823D01*
X3691Y3822D01*
X3699Y3823D01*
X3706Y3828D01*
X3711Y3835D01*
X3712Y3843D01*
X3711Y3851D01*
X3706Y3858D01*
X3699Y3863D01*
X3691Y3864D02*
G37*
G36*
X3270Y4241D02*
X3264Y4240D01*
X3258Y4237D01*
X3255Y4231D01*
X3254Y4225D01*
X3255Y4219D01*
X3258Y4213D01*
X3264Y4210D01*
X3270Y4209D01*
X3276Y4210D01*
X3282Y4213D01*
X3285Y4219D01*
X3286Y4225D01*
X3285Y4231D01*
X3282Y4237D01*
X3276Y4240D01*
X3270Y4241D02*
G37*
G36*
X3642Y4857D02*
X3635Y4856D01*
X3630Y4852D01*
X3627Y4847D01*
X3625Y4841D01*
X3627Y4834D01*
X3630Y4829D01*
X3635Y4825D01*
X3642Y4824D01*
X3648Y4825D01*
X3653Y4829D01*
X3657Y4834D01*
X3658Y4841D01*
X3657Y4847D01*
X3653Y4852D01*
X3648Y4856D01*
X3642Y4857D02*
G37*
G36*
X3533Y4751D02*
X3527Y4749D01*
X3522Y4746D01*
X3518Y4740D01*
X3517Y4734D01*
X3518Y4728D01*
X3522Y4723D01*
X3527Y4719D01*
X3533Y4718D01*
X3540Y4719D01*
X3545Y4723D01*
X3549Y4728D01*
X3550Y4734D01*
X3549Y4740D01*
X3545Y4746D01*
X3540Y4749D01*
X3533Y4751D02*
G37*
G36*
X3550Y4703D02*
X3542Y4702D01*
X3535Y4697D01*
X3530Y4690D01*
X3529Y4682D01*
X3530Y4674D01*
X3535Y4667D01*
X3542Y4662D01*
X3550Y4660D01*
X3558Y4662D01*
X3565Y4667D01*
X3570Y4674D01*
X3571Y4682D01*
X3570Y4690D01*
X3565Y4697D01*
X3558Y4702D01*
X3550Y4703D02*
G37*
G36*
X3543Y4879D02*
X3537Y4877D01*
X3532Y4874D01*
X3528Y4868D01*
X3527Y4862D01*
X3528Y4856D01*
X3532Y4851D01*
X3537Y4847D01*
X3543Y4846D01*
X3550Y4847D01*
X3555Y4851D01*
X3558Y4856D01*
X3560Y4862D01*
X3558Y4868D01*
X3555Y4874D01*
X3550Y4877D01*
X3543Y4879D02*
G37*
G36*
X4065Y4869D02*
X4059Y4867D01*
X4053Y4864D01*
X4050Y4859D01*
X4049Y4852D01*
X4050Y4846D01*
X4053Y4841D01*
X4059Y4837D01*
X4065Y4836D01*
X4071Y4837D01*
X4076Y4841D01*
X4080Y4846D01*
X4081Y4852D01*
X4080Y4859D01*
X4076Y4864D01*
X4071Y4867D01*
X4065Y4869D02*
G37*
G36*
X3602Y4859D02*
X3596Y4858D01*
X3591Y4854D01*
X3587Y4849D01*
X3586Y4843D01*
X3587Y4836D01*
X3591Y4831D01*
X3596Y4827D01*
X3602Y4826D01*
X3609Y4827D01*
X3614Y4831D01*
X3617Y4836D01*
X3619Y4843D01*
X3617Y4849D01*
X3614Y4854D01*
X3609Y4858D01*
X3602Y4859D02*
G37*
G36*
X3255Y4401D02*
X3249Y4400D01*
X3243Y4396D01*
X3240Y4391D01*
X3239Y4385D01*
X3240Y4379D01*
X3243Y4373D01*
X3249Y4370D01*
X3255Y4369D01*
X3261Y4370D01*
X3266Y4373D01*
X3270Y4379D01*
X3271Y4385D01*
X3270Y4391D01*
X3266Y4396D01*
X3261Y4400D01*
X3255Y4401D02*
G37*
G36*
X3655Y4350D02*
X3648Y4349D01*
X3643Y4345D01*
X3639Y4340D01*
X3638Y4334D01*
X3639Y4327D01*
X3643Y4322D01*
X3648Y4319D01*
X3655Y4317D01*
X3661Y4319D01*
X3666Y4322D01*
X3670Y4327D01*
X3671Y4334D01*
X3670Y4340D01*
X3666Y4345D01*
X3661Y4349D01*
X3655Y4350D02*
G37*
G36*
X3550Y4324D02*
X3544Y4323D01*
X3539Y4320D01*
X3535Y4314D01*
X3534Y4308D01*
X3535Y4302D01*
X3539Y4297D01*
X3544Y4293D01*
X3550Y4292D01*
X3556Y4293D01*
X3562Y4297D01*
X3565Y4302D01*
X3567Y4308D01*
X3565Y4314D01*
X3562Y4320D01*
X3556Y4323D01*
X3550Y4324D02*
G37*
G36*
X3270Y4646D02*
X3264Y4645D01*
X3258Y4642D01*
X3255Y4636D01*
X3254Y4630D01*
X3255Y4624D01*
X3258Y4618D01*
X3264Y4615D01*
X3270Y4614D01*
X3276Y4615D01*
X3282Y4618D01*
X3285Y4624D01*
X3286Y4630D01*
X3285Y4636D01*
X3282Y4642D01*
X3276Y4645D01*
X3270Y4646D02*
G37*
G36*
X3553Y4510D02*
X3545Y4508D01*
X3538Y4503D01*
X3533Y4496D01*
X3532Y4488D01*
X3533Y4480D01*
X3538Y4473D01*
X3545Y4468D01*
X3553Y4467D01*
X3561Y4468D01*
X3568Y4473D01*
X3573Y4480D01*
X3575Y4488D01*
X3573Y4496D01*
X3568Y4503D01*
X3561Y4508D01*
X3553Y4510D02*
G37*
G36*
X3270Y4476D02*
X3264Y4475D01*
X3258Y4472D01*
X3255Y4466D01*
X3254Y4460D01*
X3255Y4454D01*
X3258Y4448D01*
X3264Y4445D01*
X3270Y4444D01*
X3276Y4445D01*
X3282Y4448D01*
X3285Y4454D01*
X3286Y4460D01*
X3285Y4466D01*
X3282Y4472D01*
X3276Y4475D01*
X3270Y4476D02*
G37*
G36*
X4134Y5075D02*
X4128Y5074D01*
X4122Y5071D01*
X4119Y5065D01*
X4118Y5059D01*
X4119Y5053D01*
X4122Y5048D01*
X4128Y5044D01*
X4134Y5043D01*
X4140Y5044D01*
X4145Y5048D01*
X4149Y5053D01*
X4150Y5059D01*
X4149Y5065D01*
X4145Y5071D01*
X4140Y5074D01*
X4134Y5075D02*
G37*
G36*
X4213Y5469D02*
X4206Y5468D01*
X4201Y5464D01*
X4198Y5459D01*
X4196Y5453D01*
X4198Y5447D01*
X4201Y5441D01*
X4206Y5438D01*
X4213Y5436D01*
X4219Y5438D01*
X4224Y5441D01*
X4228Y5447D01*
X4229Y5453D01*
X4228Y5459D01*
X4224Y5464D01*
X4219Y5468D01*
X4213Y5469D02*
G37*
G36*
X3740Y5469D02*
X3734Y5468D01*
X3729Y5464D01*
X3725Y5459D01*
X3724Y5453D01*
X3725Y5447D01*
X3729Y5441D01*
X3734Y5438D01*
X3740Y5436D01*
X3746Y5438D01*
X3752Y5441D01*
X3755Y5447D01*
X3756Y5453D01*
X3755Y5459D01*
X3752Y5464D01*
X3746Y5468D01*
X3740Y5469D02*
G37*
G36*
X4094Y5432D02*
X4087Y5430D01*
X4082Y5426D01*
X4078Y5421D01*
X4072D01*
X4068Y5426D01*
X4062Y5430D01*
X4055Y5432D01*
X4048Y5430D01*
X4042Y5426D01*
X4038Y5421D01*
X4032D01*
X4029Y5426D01*
X4023Y5430D01*
X4016Y5432D01*
X4009Y5430D01*
X4003Y5426D01*
X3999Y5421D01*
X3993D01*
X3989Y5426D01*
X3983Y5430D01*
X3976Y5432D01*
X3969Y5430D01*
X3963Y5426D01*
X3960Y5421D01*
X3954D01*
X3950Y5426D01*
X3944Y5430D01*
X3937Y5432D01*
X3930Y5430D01*
X3924Y5426D01*
X3920Y5421D01*
X3914D01*
X3911Y5426D01*
X3905Y5430D01*
X3898Y5432D01*
X3891Y5430D01*
X3885Y5426D01*
X3881Y5421D01*
X3875D01*
X3871Y5426D01*
X3865Y5430D01*
X3858Y5432D01*
X3851Y5430D01*
X3845Y5426D01*
X3841Y5420D01*
X3840Y5413D01*
X3841Y5406D01*
X3845Y5400D01*
X3851Y5397D01*
Y5391D01*
X3845Y5387D01*
X3841Y5381D01*
X3840Y5374D01*
X3841Y5367D01*
X3845Y5361D01*
X3851Y5357D01*
Y5351D01*
X3845Y5348D01*
X3841Y5342D01*
X3840Y5335D01*
X3841Y5328D01*
X3845Y5322D01*
X3851Y5318D01*
Y5312D01*
X3845Y5308D01*
X3841Y5302D01*
X3840Y5295D01*
X3841Y5288D01*
X3845Y5282D01*
X3851Y5279D01*
Y5273D01*
X3845Y5269D01*
X3841Y5263D01*
X3840Y5256D01*
X3841Y5249D01*
X3845Y5243D01*
X3851Y5239D01*
Y5233D01*
X3845Y5230D01*
X3841Y5224D01*
X3840Y5217D01*
X3841Y5210D01*
X3845Y5204D01*
X3851Y5200D01*
Y5194D01*
X3845Y5190D01*
X3841Y5184D01*
X3840Y5177D01*
X3841Y5170D01*
X3845Y5164D01*
X3851Y5160D01*
X3858Y5159D01*
X3865Y5160D01*
X3871Y5164D01*
X3875Y5170D01*
X3881D01*
X3885Y5164D01*
X3891Y5160D01*
X3898Y5159D01*
X3905Y5160D01*
X3911Y5164D01*
X3914Y5170D01*
X3920D01*
X3924Y5164D01*
X3930Y5160D01*
X3937Y5159D01*
X3944Y5160D01*
X3950Y5164D01*
X3954Y5170D01*
X3960D01*
X3963Y5164D01*
X3969Y5160D01*
X3976Y5159D01*
X3983Y5160D01*
X3989Y5164D01*
X3993Y5170D01*
X3999D01*
X4003Y5164D01*
X4009Y5160D01*
X4016Y5159D01*
X4023Y5160D01*
X4029Y5164D01*
X4032Y5170D01*
X4038D01*
X4042Y5164D01*
X4048Y5160D01*
X4055Y5159D01*
X4062Y5160D01*
X4068Y5164D01*
X4072Y5170D01*
X4078D01*
X4082Y5164D01*
X4087Y5160D01*
X4094Y5159D01*
X4102Y5160D01*
X4107Y5164D01*
X4111Y5170D01*
X4113Y5177D01*
X4111Y5184D01*
X4107Y5190D01*
X4102Y5194D01*
Y5200D01*
X4107Y5204D01*
X4111Y5210D01*
X4113Y5217D01*
X4111Y5224D01*
X4107Y5230D01*
X4102Y5233D01*
Y5239D01*
X4107Y5243D01*
X4111Y5249D01*
X4113Y5256D01*
X4111Y5263D01*
X4107Y5269D01*
X4102Y5273D01*
Y5279D01*
X4107Y5282D01*
X4111Y5288D01*
X4113Y5295D01*
X4111Y5302D01*
X4107Y5308D01*
X4102Y5312D01*
Y5318D01*
X4107Y5322D01*
X4111Y5328D01*
X4113Y5335D01*
X4111Y5342D01*
X4107Y5348D01*
X4102Y5351D01*
Y5357D01*
X4107Y5361D01*
X4111Y5367D01*
X4113Y5374D01*
X4111Y5381D01*
X4107Y5387D01*
X4102Y5391D01*
Y5397D01*
X4107Y5400D01*
X4111Y5406D01*
X4113Y5413D01*
X4111Y5420D01*
X4107Y5426D01*
X4102Y5430D01*
X4094Y5432D02*
G37*
G36*
X3937Y5508D02*
X3931Y5507D01*
X3925Y5504D01*
X3922Y5498D01*
X3921Y5492D01*
X3922Y5486D01*
X3925Y5481D01*
X3931Y5477D01*
X3937Y5476D01*
X3943Y5477D01*
X3949Y5481D01*
X3952Y5486D01*
X3953Y5492D01*
X3952Y5498D01*
X3949Y5504D01*
X3943Y5507D01*
X3937Y5508D02*
G37*
G36*
X3898D02*
X3891Y5507D01*
X3886Y5504D01*
X3883Y5498D01*
X3881Y5492D01*
X3883Y5486D01*
X3886Y5481D01*
X3891Y5477D01*
X3898Y5476D01*
X3904Y5477D01*
X3909Y5481D01*
X3913Y5486D01*
X3914Y5492D01*
X3913Y5498D01*
X3909Y5504D01*
X3904Y5507D01*
X3898Y5508D02*
G37*
G36*
X3858D02*
X3852Y5507D01*
X3847Y5504D01*
X3843Y5498D01*
X3842Y5492D01*
X3843Y5486D01*
X3847Y5481D01*
X3852Y5477D01*
X3858Y5476D01*
X3865Y5477D01*
X3870Y5481D01*
X3873Y5486D01*
X3875Y5492D01*
X3873Y5498D01*
X3870Y5504D01*
X3865Y5507D01*
X3858Y5508D02*
G37*
G36*
X4173Y5390D02*
X4167Y5389D01*
X4162Y5386D01*
X4158Y5380D01*
X4157Y5374D01*
X4158Y5368D01*
X4162Y5362D01*
X4167Y5359D01*
X4173Y5358D01*
X4179Y5359D01*
X4185Y5362D01*
X4188Y5368D01*
X4190Y5374D01*
X4188Y5380D01*
X4185Y5386D01*
X4179Y5389D01*
X4173Y5390D02*
G37*
G36*
X3622Y5390D02*
X3616Y5389D01*
X3611Y5386D01*
X3607Y5380D01*
X3606Y5374D01*
X3607Y5368D01*
X3611Y5362D01*
X3616Y5359D01*
X3622Y5358D01*
X3628Y5359D01*
X3634Y5362D01*
X3637Y5368D01*
X3638Y5374D01*
X3637Y5380D01*
X3634Y5386D01*
X3628Y5389D01*
X3622Y5390D02*
G37*
G36*
X3780Y5390D02*
X3773Y5389D01*
X3768Y5386D01*
X3764Y5380D01*
X3763Y5374D01*
X3764Y5368D01*
X3768Y5362D01*
X3773Y5359D01*
X3780Y5358D01*
X3786Y5359D01*
X3791Y5362D01*
X3795Y5368D01*
X3796Y5374D01*
X3795Y5380D01*
X3791Y5386D01*
X3786Y5389D01*
X3780Y5390D02*
G37*
G36*
X4173Y5430D02*
X4167Y5428D01*
X4162Y5425D01*
X4158Y5420D01*
X4157Y5413D01*
X4158Y5407D01*
X4162Y5402D01*
X4167Y5398D01*
X4173Y5397D01*
X4179Y5398D01*
X4185Y5402D01*
X4188Y5407D01*
X4190Y5413D01*
X4188Y5420D01*
X4185Y5425D01*
X4179Y5428D01*
X4173Y5430D02*
G37*
G36*
X3622Y5430D02*
X3616Y5428D01*
X3611Y5425D01*
X3607Y5420D01*
X3606Y5413D01*
X3607Y5407D01*
X3611Y5402D01*
X3616Y5398D01*
X3622Y5397D01*
X3628Y5398D01*
X3634Y5402D01*
X3637Y5407D01*
X3638Y5413D01*
X3637Y5420D01*
X3634Y5425D01*
X3628Y5428D01*
X3622Y5430D02*
G37*
G36*
X3780Y5430D02*
X3773Y5428D01*
X3768Y5425D01*
X3764Y5420D01*
X3763Y5413D01*
X3764Y5407D01*
X3768Y5402D01*
X3773Y5398D01*
X3780Y5397D01*
X3786Y5398D01*
X3791Y5402D01*
X3795Y5407D01*
X3796Y5413D01*
X3795Y5420D01*
X3791Y5425D01*
X3786Y5428D01*
X3780Y5430D02*
G37*
G36*
X4016Y5508D02*
X4010Y5507D01*
X4004Y5504D01*
X4001Y5498D01*
X3999Y5492D01*
X4001Y5486D01*
X4004Y5481D01*
X4010Y5477D01*
X4016Y5476D01*
X4022Y5477D01*
X4027Y5481D01*
X4031Y5486D01*
X4032Y5492D01*
X4031Y5498D01*
X4027Y5504D01*
X4022Y5507D01*
X4016Y5508D02*
G37*
G36*
X4055Y5627D02*
X4049Y5625D01*
X4044Y5622D01*
X4040Y5616D01*
X4039Y5610D01*
X4040Y5604D01*
X4044Y5599D01*
X4049Y5595D01*
X4055Y5594D01*
X4061Y5595D01*
X4067Y5599D01*
X4070Y5604D01*
X4071Y5610D01*
X4070Y5616D01*
X4067Y5622D01*
X4061Y5625D01*
X4055Y5627D02*
G37*
G36*
X4016D02*
X4010Y5625D01*
X4004Y5622D01*
X4001Y5616D01*
X3999Y5610D01*
X4001Y5604D01*
X4004Y5599D01*
X4010Y5595D01*
X4016Y5594D01*
X4022Y5595D01*
X4027Y5599D01*
X4031Y5604D01*
X4032Y5610D01*
X4031Y5616D01*
X4027Y5622D01*
X4022Y5625D01*
X4016Y5627D02*
G37*
G36*
X4134Y5587D02*
X4128Y5586D01*
X4122Y5582D01*
X4119Y5577D01*
X4118Y5571D01*
X4119Y5565D01*
X4122Y5559D01*
X4128Y5556D01*
X4134Y5555D01*
X4140Y5556D01*
X4145Y5559D01*
X4149Y5565D01*
X4150Y5571D01*
X4149Y5577D01*
X4145Y5582D01*
X4140Y5586D01*
X4134Y5587D02*
G37*
G36*
X4173Y5627D02*
X4167Y5625D01*
X4162Y5622D01*
X4158Y5616D01*
X4157Y5610D01*
X4158Y5604D01*
X4162Y5599D01*
X4167Y5595D01*
X4173Y5594D01*
X4179Y5595D01*
X4185Y5599D01*
X4188Y5604D01*
X4190Y5610D01*
X4188Y5616D01*
X4185Y5622D01*
X4179Y5625D01*
X4173Y5627D02*
G37*
G36*
X4134D02*
X4128Y5625D01*
X4122Y5622D01*
X4119Y5616D01*
X4118Y5610D01*
X4119Y5604D01*
X4122Y5599D01*
X4128Y5595D01*
X4134Y5594D01*
X4140Y5595D01*
X4145Y5599D01*
X4149Y5604D01*
X4150Y5610D01*
X4149Y5616D01*
X4145Y5622D01*
X4140Y5625D01*
X4134Y5627D02*
G37*
G36*
X4094D02*
X4088Y5625D01*
X4083Y5622D01*
X4079Y5616D01*
X4078Y5610D01*
X4079Y5604D01*
X4083Y5599D01*
X4088Y5595D01*
X4094Y5594D01*
X4101Y5595D01*
X4106Y5599D01*
X4110Y5604D01*
X4111Y5610D01*
X4110Y5616D01*
X4106Y5622D01*
X4101Y5625D01*
X4094Y5627D02*
G37*
G36*
X4290Y5547D02*
X4284Y5546D01*
X4279Y5542D01*
X4275Y5537D01*
X4274Y5531D01*
X4275Y5524D01*
X4279Y5519D01*
X4284Y5515D01*
X4290Y5514D01*
Y5508D01*
X4290D01*
Y5508D01*
X4285Y5507D01*
X4280Y5504D01*
X4276Y5498D01*
X4275Y5492D01*
X4276Y5486D01*
X4280Y5481D01*
X4285Y5477D01*
X4291Y5476D01*
X4298Y5477D01*
X4303Y5481D01*
X4306Y5486D01*
X4308Y5492D01*
X4306Y5498D01*
X4303Y5504D01*
X4298Y5507D01*
X4291Y5508D01*
Y5514D01*
X4291D01*
Y5514D01*
X4297Y5515D01*
X4302Y5519D01*
X4305Y5524D01*
X4307Y5531D01*
X4305Y5537D01*
X4302Y5542D01*
X4297Y5546D01*
X4290Y5547D02*
G37*
G36*
X4094Y5508D02*
X4088Y5507D01*
X4083Y5504D01*
X4079Y5498D01*
X4078Y5492D01*
X4079Y5486D01*
X4083Y5481D01*
X4088Y5477D01*
X4094Y5476D01*
X4101Y5477D01*
X4106Y5481D01*
X4110Y5486D01*
X4111Y5492D01*
X4110Y5498D01*
X4106Y5504D01*
X4101Y5507D01*
X4094Y5508D02*
G37*
G36*
X4055D02*
X4049Y5507D01*
X4044Y5504D01*
X4040Y5498D01*
X4039Y5492D01*
X4040Y5486D01*
X4044Y5481D01*
X4049Y5477D01*
X4055Y5476D01*
X4061Y5477D01*
X4067Y5481D01*
X4070Y5486D01*
X4071Y5492D01*
X4070Y5498D01*
X4067Y5504D01*
X4061Y5507D01*
X4055Y5508D02*
G37*
G36*
X4291Y5587D02*
X4285Y5586D01*
X4280Y5582D01*
X4276Y5577D01*
X4275Y5571D01*
X4276Y5565D01*
X4280Y5559D01*
X4285Y5556D01*
X4291Y5555D01*
X4298Y5556D01*
X4303Y5559D01*
X4306Y5565D01*
X4308Y5571D01*
X4306Y5577D01*
X4303Y5582D01*
X4298Y5586D01*
X4291Y5587D02*
G37*
G36*
X4094Y5548D02*
X4088Y5547D01*
X4083Y5543D01*
X4079Y5538D01*
X4078Y5531D01*
X4079Y5525D01*
X4083Y5520D01*
X4088Y5516D01*
X4094Y5515D01*
X4101Y5516D01*
X4106Y5520D01*
X4110Y5525D01*
X4111Y5530D01*
X4111D01*
Y5530D01*
X4117D01*
X4118Y5524D01*
X4121Y5519D01*
X4127Y5515D01*
X4133Y5514D01*
X4139Y5515D01*
X4144Y5519D01*
X4148Y5524D01*
X4149Y5531D01*
X4148Y5537D01*
X4144Y5542D01*
X4139Y5546D01*
X4133Y5547D01*
X4127Y5546D01*
X4121Y5542D01*
X4118Y5537D01*
X4117Y5532D01*
X4117D01*
Y5532D01*
X4111D01*
X4110Y5538D01*
X4106Y5543D01*
X4101Y5547D01*
X4094Y5548D02*
G37*
G36*
X3820Y5547D02*
X3814Y5546D01*
X3808Y5542D01*
X3805Y5537D01*
X3804Y5531D01*
X3805Y5524D01*
X3808Y5519D01*
X3814Y5515D01*
X3820Y5514D01*
X3826Y5515D01*
X3831Y5519D01*
X3835Y5524D01*
X3836Y5531D01*
X3835Y5537D01*
X3831Y5542D01*
X3826Y5546D01*
X3820Y5547D02*
G37*
G36*
X3780Y5193D02*
X3773Y5192D01*
X3768Y5189D01*
X3764Y5183D01*
X3763Y5177D01*
X3764Y5171D01*
X3768Y5166D01*
X3773Y5162D01*
X3780Y5161D01*
X3786Y5162D01*
X3791Y5166D01*
X3795Y5171D01*
X3796Y5177D01*
X3795Y5183D01*
X3791Y5189D01*
X3786Y5192D01*
X3780Y5193D02*
G37*
G36*
X4212Y5155D02*
X4205Y5154D01*
X4200Y5150D01*
X4197Y5145D01*
X4195Y5139D01*
X4197Y5133D01*
X4200Y5127D01*
X4205Y5124D01*
X4212Y5122D01*
X4218Y5124D01*
X4223Y5127D01*
X4227Y5133D01*
X4228Y5139D01*
X4227Y5145D01*
X4223Y5150D01*
X4218Y5154D01*
X4212Y5155D02*
G37*
G36*
X4331Y5154D02*
X4324Y5153D01*
X4319Y5149D01*
X4316Y5144D01*
X4314Y5138D01*
X4316Y5132D01*
X4319Y5126D01*
X4324Y5123D01*
X4331Y5121D01*
X4337Y5123D01*
X4342Y5126D01*
X4346Y5132D01*
X4347Y5138D01*
X4346Y5144D01*
X4342Y5149D01*
X4337Y5153D01*
X4331Y5154D02*
G37*
G36*
X3780Y5233D02*
X3773Y5232D01*
X3768Y5228D01*
X3764Y5223D01*
X3763Y5217D01*
X3764Y5210D01*
X3768Y5205D01*
X3773Y5201D01*
X3780Y5200D01*
X3786Y5201D01*
X3791Y5205D01*
X3795Y5210D01*
X3796Y5217D01*
X3795Y5223D01*
X3791Y5228D01*
X3786Y5232D01*
X3780Y5233D02*
G37*
G36*
X4291D02*
X4285Y5232D01*
X4280Y5228D01*
X4276Y5223D01*
X4275Y5217D01*
X4276Y5210D01*
X4280Y5205D01*
X4285Y5201D01*
X4291Y5200D01*
D01*
Y5194D01*
X4291D01*
Y5194D01*
X4286Y5193D01*
X4281Y5190D01*
X4277Y5184D01*
X4276Y5178D01*
X4277Y5172D01*
X4281Y5167D01*
X4286Y5163D01*
X4292Y5162D01*
X4299Y5163D01*
X4304Y5167D01*
X4307Y5172D01*
X4309Y5178D01*
X4307Y5184D01*
X4304Y5190D01*
X4299Y5193D01*
X4292Y5194D01*
D01*
Y5200D01*
X4292D01*
Y5200D01*
X4298Y5201D01*
X4303Y5205D01*
X4306Y5210D01*
X4308Y5217D01*
X4306Y5223D01*
X4303Y5228D01*
X4298Y5232D01*
X4291Y5233D02*
G37*
G36*
X4173Y5193D02*
X4167Y5192D01*
X4162Y5189D01*
X4158Y5183D01*
X4157Y5177D01*
X4158Y5171D01*
X4162Y5166D01*
X4167Y5162D01*
X4173Y5161D01*
X4179Y5162D01*
X4185Y5166D01*
X4188Y5171D01*
X4190Y5177D01*
X4188Y5183D01*
X4185Y5189D01*
X4179Y5192D01*
X4173Y5193D02*
G37*
G36*
X3937Y5115D02*
X3931Y5113D01*
X3925Y5110D01*
X3922Y5105D01*
X3921Y5098D01*
X3922Y5092D01*
X3925Y5087D01*
X3931Y5083D01*
X3937Y5082D01*
X3943Y5083D01*
X3949Y5087D01*
X3952Y5092D01*
X3953Y5098D01*
X3952Y5105D01*
X3949Y5110D01*
X3943Y5113D01*
X3937Y5115D02*
G37*
G36*
X3898D02*
X3891Y5113D01*
X3886Y5110D01*
X3883Y5105D01*
X3881Y5098D01*
X3883Y5092D01*
X3886Y5087D01*
X3891Y5083D01*
X3898Y5082D01*
X3904Y5083D01*
X3909Y5087D01*
X3913Y5092D01*
X3914Y5098D01*
X3913Y5105D01*
X3909Y5110D01*
X3904Y5113D01*
X3898Y5115D02*
G37*
G36*
X3858D02*
X3852Y5113D01*
X3847Y5110D01*
X3843Y5105D01*
X3842Y5098D01*
X3843Y5092D01*
X3847Y5087D01*
X3852Y5083D01*
X3858Y5082D01*
X3865Y5083D01*
X3870Y5087D01*
X3873Y5092D01*
X3875Y5098D01*
X3873Y5105D01*
X3870Y5110D01*
X3865Y5113D01*
X3858Y5115D02*
G37*
G36*
X4094D02*
X4088Y5113D01*
X4083Y5110D01*
X4079Y5105D01*
X4078Y5098D01*
X4079Y5092D01*
X4083Y5087D01*
X4088Y5083D01*
X4094Y5082D01*
X4101Y5083D01*
X4106Y5087D01*
X4110Y5092D01*
X4111Y5098D01*
X4110Y5105D01*
X4106Y5110D01*
X4101Y5113D01*
X4094Y5115D02*
G37*
G36*
X4055D02*
X4049Y5113D01*
X4044Y5110D01*
X4040Y5105D01*
X4039Y5098D01*
X4040Y5092D01*
X4044Y5087D01*
X4049Y5083D01*
X4055Y5082D01*
X4061Y5083D01*
X4067Y5087D01*
X4070Y5092D01*
X4071Y5098D01*
X4070Y5105D01*
X4067Y5110D01*
X4061Y5113D01*
X4055Y5115D02*
G37*
G36*
X4016D02*
X4010Y5113D01*
X4004Y5110D01*
X4001Y5105D01*
X3999Y5098D01*
X4001Y5092D01*
X4004Y5087D01*
X4010Y5083D01*
X4016Y5082D01*
X4022Y5083D01*
X4027Y5087D01*
X4031Y5092D01*
X4032Y5098D01*
X4031Y5105D01*
X4027Y5110D01*
X4022Y5113D01*
X4016Y5115D02*
G37*
G36*
X4173Y5233D02*
X4167Y5232D01*
X4162Y5228D01*
X4158Y5223D01*
X4157Y5217D01*
X4158Y5210D01*
X4162Y5205D01*
X4167Y5201D01*
X4173Y5200D01*
X4179Y5201D01*
X4185Y5205D01*
X4188Y5210D01*
X4190Y5217D01*
X4188Y5223D01*
X4185Y5228D01*
X4179Y5232D01*
X4173Y5233D02*
G37*
G36*
X4291Y5312D02*
X4285Y5310D01*
X4280Y5307D01*
X4276Y5302D01*
X4275Y5295D01*
X4276Y5289D01*
X4280Y5284D01*
X4285Y5280D01*
X4291Y5279D01*
X4298Y5280D01*
X4303Y5284D01*
X4306Y5289D01*
X4308Y5295D01*
X4306Y5302D01*
X4303Y5307D01*
X4298Y5310D01*
X4291Y5312D02*
G37*
G36*
X3701D02*
X3695Y5310D01*
X3689Y5307D01*
X3686Y5302D01*
X3684Y5295D01*
X3686Y5289D01*
X3689Y5284D01*
X3695Y5280D01*
X3701Y5279D01*
X3707Y5280D01*
X3712Y5284D01*
X3716Y5289D01*
X3717Y5295D01*
X3716Y5302D01*
X3712Y5307D01*
X3707Y5310D01*
X3701Y5312D02*
G37*
G36*
X4291Y5272D02*
X4285Y5271D01*
X4280Y5267D01*
X4276Y5262D01*
X4275Y5256D01*
X4276Y5250D01*
X4280Y5244D01*
X4285Y5241D01*
X4291Y5240D01*
X4298Y5241D01*
X4303Y5244D01*
X4306Y5250D01*
X4308Y5256D01*
X4306Y5262D01*
X4303Y5267D01*
X4298Y5271D01*
X4291Y5272D02*
G37*
G36*
Y5351D02*
X4285Y5350D01*
X4280Y5346D01*
X4276Y5341D01*
X4275Y5335D01*
X4276Y5328D01*
X4280Y5323D01*
X4285Y5320D01*
X4291Y5318D01*
X4298Y5320D01*
X4303Y5323D01*
X4306Y5328D01*
X4308Y5335D01*
X4306Y5341D01*
X4303Y5346D01*
X4298Y5350D01*
X4291Y5351D02*
G37*
G36*
X4173D02*
X4167Y5350D01*
X4162Y5346D01*
X4158Y5341D01*
X4157Y5335D01*
X4158Y5328D01*
X4162Y5323D01*
X4167Y5320D01*
X4173Y5318D01*
X4179Y5320D01*
X4185Y5323D01*
X4188Y5328D01*
X4190Y5335D01*
X4188Y5341D01*
X4185Y5346D01*
X4179Y5350D01*
X4173Y5351D02*
G37*
G36*
X3780Y5351D02*
X3773Y5350D01*
X3768Y5346D01*
X3764Y5341D01*
X3763Y5335D01*
X3764Y5328D01*
X3768Y5323D01*
X3773Y5320D01*
X3780Y5318D01*
X3786Y5320D01*
X3791Y5323D01*
X3795Y5328D01*
X3796Y5335D01*
X3795Y5341D01*
X3791Y5346D01*
X3786Y5350D01*
X3780Y5351D02*
G37*
G36*
X3701Y5272D02*
X3695Y5271D01*
X3689Y5267D01*
X3686Y5262D01*
X3684Y5256D01*
X3686Y5250D01*
X3689Y5244D01*
X3695Y5241D01*
X3701Y5240D01*
X3707Y5241D01*
X3712Y5244D01*
X3716Y5250D01*
X3717Y5256D01*
X3716Y5262D01*
X3712Y5267D01*
X3707Y5271D01*
X3701Y5272D02*
G37*
G36*
X3661D02*
X3655Y5271D01*
X3650Y5267D01*
X3646Y5262D01*
X3645Y5256D01*
X3646Y5250D01*
X3650Y5244D01*
X3655Y5241D01*
X3661Y5240D01*
X3668Y5241D01*
X3673Y5244D01*
X3676Y5250D01*
X3678Y5256D01*
X3676Y5262D01*
X3673Y5267D01*
X3668Y5271D01*
X3661Y5272D02*
G37*
G36*
X3622D02*
X3616Y5271D01*
X3611Y5267D01*
X3607Y5262D01*
X3606Y5256D01*
X3607Y5250D01*
X3611Y5244D01*
X3616Y5241D01*
X3622Y5240D01*
X3628Y5241D01*
X3634Y5244D01*
X3637Y5250D01*
X3638Y5256D01*
X3637Y5262D01*
X3634Y5267D01*
X3628Y5271D01*
X3622Y5272D02*
G37*
G36*
X4173D02*
X4167Y5271D01*
X4162Y5267D01*
X4158Y5262D01*
X4157Y5256D01*
X4158Y5250D01*
X4162Y5244D01*
X4167Y5241D01*
X4173Y5240D01*
X4179Y5241D01*
X4185Y5244D01*
X4188Y5250D01*
X4190Y5256D01*
X4188Y5262D01*
X4185Y5267D01*
X4179Y5271D01*
X4173Y5272D02*
G37*
G36*
X3780D02*
X3773Y5271D01*
X3768Y5267D01*
X3764Y5262D01*
X3763Y5256D01*
X3764Y5250D01*
X3768Y5244D01*
X3773Y5241D01*
X3780Y5240D01*
X3786Y5241D01*
X3791Y5244D01*
X3795Y5250D01*
X3796Y5256D01*
X3795Y5262D01*
X3791Y5267D01*
X3786Y5271D01*
X3780Y5272D02*
G37*
G36*
X3740D02*
X3734Y5271D01*
X3729Y5267D01*
X3725Y5262D01*
X3724Y5256D01*
X3725Y5250D01*
X3729Y5244D01*
X3734Y5241D01*
X3740Y5240D01*
X3746Y5241D01*
X3752Y5244D01*
X3755Y5250D01*
X3756Y5256D01*
X3755Y5262D01*
X3752Y5267D01*
X3746Y5271D01*
X3740Y5272D02*
G37*
%LPD*%
%ADD10R,0.043X0.039*%
%ADD11C,0.016*%
%ADD12R,0.016X0.047*%
%ADD13R,0.101X0.062*%
%ADD14R,0.256X0.036*%
%ADD15R,0.078X0.062*%
%ADD16R,0.102X0.094*%
%ADD17R,0.051X0.059*%
%ADD18R,0.035X0.028*%
%ADD19R,0.020X0.061*%
%ADD20R,0.061X0.020*%
%ADD21R,0.055X0.079*%
%ADD22R,0.041X0.015*%
%ADD23R,0.057X0.022*%
%ADD24R,0.087X0.016*%
%ADD25R,0.087X0.016*%
%ADD26R,0.039X0.043*%
%ADD27R,0.071X0.063*%
%ADD28R,0.036X0.048*%
%ADD29R,0.063X0.071*%
%ADD30R,0.063X0.106*%
%ADD31R,0.061X0.020*%
%ADD32R,0.161X0.102*%
%ADD33O,0.041X0.015*%
%ADD34R,0.106X0.063*%
%ADD35R,0.039X0.193*%
%ADD36R,0.197X0.118*%
%ADD37R,0.015X0.060*%
%ADD38R,0.071X0.016*%
%ADD39R,0.016X0.071*%
%ADD40R,0.102X0.087*%
%ADD41R,0.087X0.102*%
%ADD42C,0.006*%
%ADD43C,0.014*%
%ADD44C,0.016*%
%ADD45C,0.024*%
%ADD46C,0.012*%
%ADD47C,0.018*%
%ADD48C,0.020*%
%ADD49C,0.059*%
%ADD50C,0.055*%
%ADD51C,0.106*%
%ADD52C,0.130*%
%ADD53C,0.160*%
%ADD54C,0.070*%
%ADD55R,0.059X0.059*%
%ADD56C,0.094*%
%ADD57C,0.050*%
%ADD58C,0.030*%
%ADD59C,0.042*%
%ADD60C,0.028*%
%ADD61C,0.024*%
D42*
X6085Y5492D02*
X6176D01*
X6045Y5531D02*
X6085Y5492D01*
X5976Y5531D02*
X6045D01*
X5937Y5492D02*
X5976Y5531D01*
X5426Y5492D02*
X5937D01*
X6835D02*
X6926D01*
X6795Y5531D02*
X6835Y5492D01*
X6726Y5531D02*
X6795D01*
X6687Y5492D02*
X6726Y5531D01*
X6176Y5492D02*
X6687D01*
X7585D02*
X7676D01*
X7545Y5531D02*
X7585Y5492D01*
X7476Y5531D02*
X7545D01*
X7437Y5492D02*
X7476Y5531D01*
X6926Y5492D02*
X7437D01*
X8335D02*
X8426D01*
X8295Y5531D02*
X8335Y5492D01*
X8226Y5531D02*
X8295D01*
X8187Y5492D02*
X8226Y5531D01*
X7676Y5492D02*
X8187D01*
X9085D02*
X9176D01*
X9045Y5531D02*
X9085Y5492D01*
X8976Y5531D02*
X9045D01*
X8937Y5492D02*
X8976Y5531D01*
X8426Y5492D02*
X8937D01*
X9835D02*
X9926D01*
X9795Y5531D02*
X9835Y5492D01*
X9726Y5531D02*
X9795D01*
X9687Y5492D02*
X9726Y5531D01*
X9176Y5492D02*
X9687D01*
X10585D02*
X10676D01*
X10545Y5531D02*
X10585Y5492D01*
X10476Y5531D02*
X10545D01*
X10437Y5492D02*
X10476Y5531D01*
X9926Y5492D02*
X10437D01*
X11335D02*
X11426D01*
X11295Y5531D02*
X11335Y5492D01*
X11226Y5531D02*
X11295D01*
X11187Y5492D02*
X11226Y5531D01*
X10676Y5492D02*
X11187D01*
X12085D02*
X12176D01*
X12045Y5531D02*
X12085Y5492D01*
X11976Y5531D02*
X12045D01*
X11937Y5492D02*
X11976Y5531D01*
X11426Y5492D02*
X11937D01*
X12835D02*
X12926D01*
X12795Y5531D02*
X12835Y5492D01*
X12726Y5531D02*
X12795D01*
X12687Y5492D02*
X12726Y5531D01*
X12176Y5492D02*
X12687D01*
X13585D02*
X13676D01*
X13545Y5531D02*
X13585Y5492D01*
X13476Y5531D02*
X13545D01*
X13437Y5492D02*
X13476Y5531D01*
X12926Y5492D02*
X13437D01*
X14335D02*
X14426D01*
X14295Y5531D02*
X14335Y5492D01*
X14226Y5531D02*
X14295D01*
X14187Y5492D02*
X14226Y5531D01*
X13676Y5492D02*
X14187D01*
X15085D02*
X15176D01*
X15045Y5531D02*
X15085Y5492D01*
X14976Y5531D02*
X15045D01*
X14937Y5492D02*
X14976Y5531D01*
X14426Y5492D02*
X14937D01*
X15835D02*
X15926D01*
X15795Y5531D02*
X15835Y5492D01*
X15726Y5531D02*
X15795D01*
X15687Y5492D02*
X15726Y5531D01*
X15176Y5492D02*
X15687D01*
X15926D02*
X16437D01*
X16476Y5531D01*
X16545D01*
X16585Y5492D01*
X16676D01*
X16673Y6093D02*
X16841D01*
X16889Y6141D02*
X17099D01*
X16841Y6093D02*
X16889Y6141D01*
X16586Y5992D02*
X16887D01*
X16937Y6041D01*
X17099D01*
X3504Y5197D02*
X3720D01*
X3474Y5157D02*
X3681D01*
X3455Y5138D02*
X3474Y5157D01*
X3051Y5138D02*
X3455D01*
X2687Y4774D02*
X3023Y5110D01*
X3023Y5110D02*
X3051Y5138D01*
X3720Y5197D02*
X3740Y5217D01*
X3701Y4596D02*
X4262Y4035D01*
X3701Y4596D02*
Y4941D01*
X17099Y4641D02*
X17174Y4567D01*
X17313D01*
X17372Y4626D01*
Y6299D01*
X17293Y6378D02*
X17372Y6299D01*
X16900Y6378D02*
X17293D01*
X16841Y6319D02*
X16900Y6378D01*
X5177Y6319D02*
X16841D01*
X4508Y5650D02*
X5177Y6319D01*
X16526Y5892D02*
X16531Y5886D01*
X16614D01*
X16663Y5935D01*
X16693D01*
X16732Y5896D01*
X16781D01*
X16821Y5935D01*
X17047D01*
X17087Y5896D01*
X17116D01*
X17162Y5941D01*
X17249D01*
X15776Y5892D02*
X15780Y5896D01*
X15866D01*
X15906Y5935D01*
X15945D01*
X15988Y5892D01*
X16526D01*
X2687Y4518D02*
Y4774D01*
X3681Y5157D02*
X3701Y5138D01*
X2717Y4734D02*
X2913Y4931D01*
X2717Y4498D02*
Y4734D01*
X2743Y4564D02*
X2746Y4567D01*
X2835D01*
X2844Y4695D02*
X2904D01*
X2913Y4931D02*
X2933D01*
X3120Y5118D01*
X3720D01*
X3740Y5098D01*
X2746Y4665D02*
X2904D01*
Y4695D02*
X3287Y5079D01*
X3642Y5039D02*
X3661Y5059D01*
X2655Y4308D02*
X3100Y4754D01*
X3159D01*
X3642Y5000D02*
X3662Y5020D01*
X3799Y4779D02*
X4549Y4029D01*
Y3476D02*
Y4029D01*
Y3476D02*
X4641Y3385D01*
Y3354D02*
Y3385D01*
Y3354D02*
X4708Y3287D01*
X4736D01*
X4525Y3482D02*
Y3999D01*
X4627Y3333D02*
X4638Y3322D01*
X4525Y3482D02*
X4627Y3380D01*
Y3333D02*
Y3380D01*
X3799Y4779D02*
Y4961D01*
X3780Y4980D02*
X3799Y4961D01*
X5200Y3440D02*
X5239D01*
X5138Y3378D02*
X5200Y3440D01*
X5138Y3360D02*
Y3378D01*
Y3360D02*
X5183Y3315D01*
Y3233D02*
Y3315D01*
X5106Y3156D02*
X5183Y3233D01*
X4400Y3156D02*
X5106D01*
X4282Y3274D02*
X4400Y3156D01*
X4282Y3274D02*
Y4199D01*
X3740Y4741D02*
X4282Y4199D01*
X3740Y4741D02*
Y4941D01*
X3780Y4744D02*
X4525Y3999D01*
X3780Y4744D02*
Y4941D01*
X3850Y4809D02*
X4637Y4023D01*
X3819Y4941D02*
X3850Y4909D01*
X4689Y3365D02*
Y3450D01*
X4637Y3503D02*
X4689Y3450D01*
X4637Y3503D02*
Y4023D01*
X3850Y4809D02*
Y4909D01*
X5089Y3365D02*
Y3454D01*
X5041Y3502D02*
X5089Y3454D01*
X3878Y4833D02*
Y4961D01*
X3858Y4980D02*
X3878Y4961D01*
X5239Y3290D02*
Y3378D01*
X5287Y3426D01*
Y3454D01*
X5238Y3503D02*
X5287Y3454D01*
X3917Y4834D02*
Y4961D01*
X3898Y4980D02*
X3917Y4961D01*
X5439Y3290D02*
Y3377D01*
X5390Y3426D02*
X5439Y3377D01*
X5390Y3426D02*
Y3454D01*
X5345Y3498D02*
X5390Y3454D01*
X3937Y4841D02*
X4529Y4249D01*
X3937Y4841D02*
Y4941D01*
X5489Y3365D02*
Y3451D01*
X5446Y3494D02*
X5489Y3451D01*
X3957Y4852D02*
X4525Y4284D01*
X3957Y4852D02*
Y4961D01*
X3937Y4980D02*
X3957Y4961D01*
X5689Y3365D02*
Y3454D01*
X5640Y3504D02*
X5689Y3454D01*
X5640Y3504D02*
Y3564D01*
X3996Y4860D02*
X4546Y4310D01*
X3996Y4860D02*
Y4961D01*
X3976Y4980D02*
X3996Y4961D01*
X5003Y5571D02*
X5174Y5742D01*
X4331Y5571D02*
X5003D01*
X16008Y4849D02*
X16545D01*
X16584Y4887D01*
X16619D01*
X16665Y4842D01*
X16751D01*
X16586Y4992D02*
X16676D01*
X16543Y4949D02*
X16586Y4992D01*
X16066Y4949D02*
X16543D01*
X16023Y4992D02*
X16066Y4949D01*
X16024Y5092D02*
X16071Y5045D01*
X16532D01*
X16579Y5092D01*
X16676D01*
X16584Y5392D02*
X16676D01*
X16538Y5346D02*
X16584Y5392D01*
X16091Y5346D02*
X16538D01*
X16045Y5392D02*
X16091Y5346D01*
X15258Y4849D02*
X15795D01*
X15834Y4887D01*
X15869D01*
X15915Y4842D01*
X16001D01*
X15793Y4949D02*
X15836Y4992D01*
X15316Y4949D02*
X15793D01*
X15273Y4992D02*
X15316Y4949D01*
X15274Y5092D02*
X15321Y5045D01*
X15782D01*
X15829Y5092D01*
X15788Y5346D02*
X15834Y5392D01*
X15341Y5346D02*
X15788D01*
X15295Y5392D02*
X15341Y5346D01*
X14508Y4849D02*
X15045D01*
X15084Y4887D01*
X15119D01*
X15165Y4842D01*
X15251D01*
X15043Y4949D02*
X15086Y4992D01*
X14566Y4949D02*
X15043D01*
X14523Y4992D02*
X14566Y4949D01*
X14524Y5092D02*
X14571Y5045D01*
X15032D01*
X15079Y5092D01*
X15038Y5346D02*
X15084Y5392D01*
X14591Y5346D02*
X15038D01*
X14545Y5392D02*
X14591Y5346D01*
X13758Y4849D02*
X14295D01*
X14334Y4887D01*
X14369D01*
X14415Y4842D01*
X14501D01*
X14293Y4949D02*
X14336Y4992D01*
X13816Y4949D02*
X14293D01*
X13773Y4992D02*
X13816Y4949D01*
X13774Y5092D02*
X13821Y5045D01*
X14282D01*
X14329Y5092D01*
X14288Y5346D02*
X14334Y5392D01*
X13841Y5346D02*
X14288D01*
X13795Y5392D02*
X13841Y5346D01*
X13008Y4849D02*
X13545D01*
X13584Y4887D01*
X13619D01*
X13665Y4842D01*
X13751D01*
X13543Y4949D02*
X13586Y4992D01*
X13066Y4949D02*
X13543D01*
X13023Y4992D02*
X13066Y4949D01*
X13024Y5092D02*
X13071Y5045D01*
X13532D01*
X13579Y5092D01*
X13538Y5346D02*
X13584Y5392D01*
X13091Y5346D02*
X13538D01*
X13045Y5392D02*
X13091Y5346D01*
X12258Y4849D02*
X12795D01*
X12834Y4887D01*
X12869D01*
X12915Y4842D01*
X13001D01*
X12793Y4949D02*
X12836Y4992D01*
X12316Y4949D02*
X12793D01*
X12273Y4992D02*
X12316Y4949D01*
X12274Y5092D02*
X12321Y5045D01*
X12782D01*
X12829Y5092D01*
X12788Y5346D02*
X12834Y5392D01*
X12341Y5346D02*
X12788D01*
X12295Y5392D02*
X12341Y5346D01*
X11508Y4849D02*
X12045D01*
X12084Y4887D01*
X12119D01*
X12165Y4842D01*
X12251D01*
X12043Y4949D02*
X12086Y4992D01*
X11566Y4949D02*
X12043D01*
X11523Y4992D02*
X11566Y4949D01*
X11524Y5092D02*
X11571Y5045D01*
X12032D01*
X12079Y5092D01*
X12038Y5346D02*
X12084Y5392D01*
X11591Y5346D02*
X12038D01*
X11545Y5392D02*
X11591Y5346D01*
X10758Y4849D02*
X11295D01*
X11334Y4887D01*
X11369D01*
X11415Y4842D01*
X11501D01*
X11293Y4949D02*
X11336Y4992D01*
X10816Y4949D02*
X11293D01*
X10773Y4992D02*
X10816Y4949D01*
X10774Y5092D02*
X10821Y5045D01*
X11282D01*
X11329Y5092D01*
X11288Y5346D02*
X11334Y5392D01*
X10841Y5346D02*
X11288D01*
X10795Y5392D02*
X10841Y5346D01*
X10008Y4849D02*
X10545D01*
X10584Y4887D01*
X10619D01*
X10665Y4842D01*
X10751D01*
X10543Y4949D02*
X10586Y4992D01*
X10066Y4949D02*
X10543D01*
X10023Y4992D02*
X10066Y4949D01*
X10024Y5092D02*
X10071Y5045D01*
X10532D01*
X10579Y5092D01*
X10538Y5346D02*
X10584Y5392D01*
X10091Y5346D02*
X10538D01*
X10045Y5392D02*
X10091Y5346D01*
X9258Y4849D02*
X9795D01*
X9834Y4887D01*
X9869D01*
X9915Y4842D01*
X10001D01*
X9793Y4949D02*
X9836Y4992D01*
X9316Y4949D02*
X9793D01*
X9273Y4992D02*
X9316Y4949D01*
X9274Y5092D02*
X9321Y5045D01*
X9782D01*
X9829Y5092D01*
X9788Y5346D02*
X9834Y5392D01*
X9341Y5346D02*
X9788D01*
X9295Y5392D02*
X9341Y5346D01*
X8508Y4849D02*
X9045D01*
X9084Y4887D01*
X9119D01*
X9165Y4842D01*
X9251D01*
X9043Y4949D02*
X9086Y4992D01*
X8566Y4949D02*
X9043D01*
X8523Y4992D02*
X8566Y4949D01*
X8524Y5092D02*
X8571Y5045D01*
X9032D01*
X9079Y5092D01*
X9038Y5346D02*
X9084Y5392D01*
X8591Y5346D02*
X9038D01*
X8545Y5392D02*
X8591Y5346D01*
X7758Y4849D02*
X8295D01*
X8334Y4887D01*
X8369D01*
X8415Y4842D01*
X8501D01*
X8293Y4949D02*
X8336Y4992D01*
X7816Y4949D02*
X8293D01*
X7773Y4992D02*
X7816Y4949D01*
X7774Y5092D02*
X7821Y5045D01*
X8282D01*
X8329Y5092D01*
X8288Y5346D02*
X8334Y5392D01*
X7841Y5346D02*
X8288D01*
X7795Y5392D02*
X7841Y5346D01*
X7008Y4849D02*
X7545D01*
X7584Y4887D01*
X7619D01*
X7665Y4842D01*
X7751D01*
X7543Y4949D02*
X7586Y4992D01*
X7066Y4949D02*
X7543D01*
X7023Y4992D02*
X7066Y4949D01*
X7024Y5092D02*
X7071Y5045D01*
X7532D01*
X7579Y5092D01*
X7538Y5346D02*
X7584Y5392D01*
X7091Y5346D02*
X7538D01*
X7045Y5392D02*
X7091Y5346D01*
X6258Y4849D02*
X6795D01*
X6834Y4887D01*
X6869D01*
X6915Y4842D01*
X7001D01*
X6793Y4949D02*
X6836Y4992D01*
X6316Y4949D02*
X6793D01*
X6273Y4992D02*
X6316Y4949D01*
X6274Y5092D02*
X6321Y5045D01*
X6782D01*
X6829Y5092D01*
X6788Y5346D02*
X6834Y5392D01*
X6341Y5346D02*
X6788D01*
X6295Y5392D02*
X6341Y5346D01*
X16665Y5742D02*
X16751D01*
X16619Y5787D02*
X16665Y5742D01*
X16584Y5787D02*
X16619D01*
X16545Y5749D02*
X16584Y5787D01*
X16008Y5749D02*
X16545D01*
X16008Y5649D02*
X16545D01*
X16584Y5687D01*
X16619D01*
X16665Y5642D01*
X16751D01*
X16008Y5249D02*
X16545D01*
X16584Y5287D01*
X16619D01*
X16665Y5242D01*
X16751D01*
X16536Y6042D02*
X16583Y6089D01*
X16616D01*
X16663Y6042D01*
X16751D01*
X15926Y6092D02*
X16453D01*
X16490Y6129D01*
X16546D01*
X16575Y6101D01*
X16667D01*
X16348Y5992D02*
X16409Y5930D01*
X16525D01*
X16586Y5992D01*
X15915Y5742D02*
X16001D01*
X15869Y5787D02*
X15915Y5742D01*
X15834Y5787D02*
X15869D01*
X15795Y5749D02*
X15834Y5787D01*
X15258Y5749D02*
X15795D01*
X15258Y5649D02*
X15795D01*
X15834Y5687D01*
X15869D01*
X15915Y5642D01*
X16001D01*
X15258Y5249D02*
X15795D01*
X15834Y5287D01*
X15869D01*
X15915Y5242D01*
X16001D01*
X15786Y6042D02*
X15833Y6089D01*
X15866D01*
X15913Y6042D01*
X15176Y6092D02*
X15703D01*
X15740Y6129D01*
X15796D01*
X15825Y6101D01*
X15917D01*
X15598Y5992D02*
X15659Y5930D01*
X15775D01*
X15836Y5992D01*
X15165Y5742D02*
X15251D01*
X15119Y5787D02*
X15165Y5742D01*
X15084Y5787D02*
X15119D01*
X15045Y5749D02*
X15084Y5787D01*
X14508Y5749D02*
X15045D01*
X14508Y5649D02*
X15045D01*
X15084Y5687D01*
X15119D01*
X15165Y5642D01*
X15251D01*
X14508Y5249D02*
X15045D01*
X15084Y5287D01*
X15119D01*
X15165Y5242D01*
X15251D01*
X15036Y6042D02*
X15083Y6089D01*
X15116D01*
X15163Y6042D01*
X14426Y6092D02*
X14953D01*
X14990Y6129D01*
X15046D01*
X15075Y6101D01*
X15167D01*
X14848Y5992D02*
X14909Y5930D01*
X15025D01*
X15086Y5992D01*
X14415Y5742D02*
X14501D01*
X14369Y5787D02*
X14415Y5742D01*
X14334Y5787D02*
X14369D01*
X14295Y5749D02*
X14334Y5787D01*
X13758Y5749D02*
X14295D01*
X13758Y5649D02*
X14295D01*
X14334Y5687D01*
X14369D01*
X14415Y5642D01*
X14501D01*
X13758Y5249D02*
X14295D01*
X14334Y5287D01*
X14369D01*
X14415Y5242D01*
X14501D01*
X14286Y6042D02*
X14333Y6089D01*
X14366D01*
X14413Y6042D01*
X13676Y6092D02*
X14203D01*
X14240Y6129D01*
X14296D01*
X14325Y6101D01*
X14417D01*
X14098Y5992D02*
X14159Y5930D01*
X14275D01*
X14336Y5992D01*
X13665Y5742D02*
X13751D01*
X13619Y5787D02*
X13665Y5742D01*
X13584Y5787D02*
X13619D01*
X13545Y5749D02*
X13584Y5787D01*
X13008Y5749D02*
X13545D01*
X13008Y5649D02*
X13545D01*
X13584Y5687D01*
X13619D01*
X13665Y5642D01*
X13751D01*
X13008Y5249D02*
X13545D01*
X13584Y5287D01*
X13619D01*
X13665Y5242D01*
X13751D01*
X13536Y6042D02*
X13583Y6089D01*
X13616D01*
X13663Y6042D01*
X12926Y6092D02*
X13453D01*
X13490Y6129D01*
X13546D01*
X13575Y6101D01*
X13667D01*
X13348Y5992D02*
X13409Y5930D01*
X13525D01*
X13586Y5992D01*
X12915Y5742D02*
X13001D01*
X12869Y5787D02*
X12915Y5742D01*
X12834Y5787D02*
X12869D01*
X12795Y5749D02*
X12834Y5787D01*
X12258Y5749D02*
X12795D01*
X12258Y5649D02*
X12795D01*
X12834Y5687D01*
X12869D01*
X12915Y5642D01*
X13001D01*
X12258Y5249D02*
X12795D01*
X12834Y5287D01*
X12869D01*
X12915Y5242D01*
X13001D01*
X12786Y6042D02*
X12833Y6089D01*
X12866D01*
X12913Y6042D01*
X12176Y6092D02*
X12703D01*
X12740Y6129D01*
X12796D01*
X12825Y6101D01*
X12917D01*
X12598Y5992D02*
X12659Y5930D01*
X12775D01*
X12836Y5992D01*
X12165Y5742D02*
X12251D01*
X12119Y5787D02*
X12165Y5742D01*
X12084Y5787D02*
X12119D01*
X12045Y5749D02*
X12084Y5787D01*
X11508Y5749D02*
X12045D01*
X11508Y5649D02*
X12045D01*
X12084Y5687D01*
X12119D01*
X12165Y5642D01*
X12251D01*
X11508Y5249D02*
X12045D01*
X12084Y5287D01*
X12119D01*
X12165Y5242D01*
X12251D01*
X12036Y6042D02*
X12083Y6089D01*
X12116D01*
X12163Y6042D01*
X11426Y6092D02*
X11953D01*
X11990Y6129D01*
X12046D01*
X12075Y6101D01*
X12167D01*
X11848Y5992D02*
X11909Y5930D01*
X12025D01*
X12086Y5992D01*
X11415Y5742D02*
X11501D01*
X11369Y5787D02*
X11415Y5742D01*
X11334Y5787D02*
X11369D01*
X11295Y5749D02*
X11334Y5787D01*
X10758Y5749D02*
X11295D01*
X10758Y5649D02*
X11295D01*
X11334Y5687D01*
X11369D01*
X11415Y5642D01*
X11501D01*
X10758Y5249D02*
X11295D01*
X11334Y5287D01*
X11369D01*
X11415Y5242D01*
X11501D01*
X11286Y6042D02*
X11333Y6089D01*
X11366D01*
X11413Y6042D01*
X10676Y6092D02*
X11203D01*
X11240Y6129D01*
X11296D01*
X11325Y6101D01*
X11417D01*
X11098Y5992D02*
X11159Y5930D01*
X11275D01*
X11336Y5992D01*
X10665Y5742D02*
X10751D01*
X10619Y5787D02*
X10665Y5742D01*
X10584Y5787D02*
X10619D01*
X10545Y5749D02*
X10584Y5787D01*
X10008Y5749D02*
X10545D01*
X10008Y5649D02*
X10545D01*
X10584Y5687D01*
X10619D01*
X10665Y5642D01*
X10751D01*
X10008Y5249D02*
X10545D01*
X10584Y5287D01*
X10619D01*
X10665Y5242D01*
X10751D01*
X10536Y6042D02*
X10583Y6089D01*
X10616D01*
X10663Y6042D01*
X9926Y6092D02*
X10453D01*
X10490Y6129D01*
X10546D01*
X10575Y6101D01*
X10667D01*
X10348Y5992D02*
X10409Y5930D01*
X10525D01*
X10586Y5992D01*
X9915Y5742D02*
X10001D01*
X9869Y5787D02*
X9915Y5742D01*
X9834Y5787D02*
X9869D01*
X9795Y5749D02*
X9834Y5787D01*
X9258Y5749D02*
X9795D01*
X9258Y5649D02*
X9795D01*
X9834Y5687D01*
X9869D01*
X9915Y5642D01*
X10001D01*
X9258Y5249D02*
X9795D01*
X9834Y5287D01*
X9869D01*
X9915Y5242D01*
X10001D01*
X9786Y6042D02*
X9833Y6089D01*
X9866D01*
X9913Y6042D01*
X9176Y6092D02*
X9703D01*
X9740Y6129D01*
X9796D01*
X9825Y6101D01*
X9917D01*
X9598Y5992D02*
X9659Y5930D01*
X9775D01*
X9836Y5992D01*
X9165Y5742D02*
X9251D01*
X9119Y5787D02*
X9165Y5742D01*
X9084Y5787D02*
X9119D01*
X9045Y5749D02*
X9084Y5787D01*
X8508Y5749D02*
X9045D01*
X8508Y5649D02*
X9045D01*
X9084Y5687D01*
X9119D01*
X9165Y5642D01*
X9251D01*
X8508Y5249D02*
X9045D01*
X9084Y5287D01*
X9119D01*
X9165Y5242D01*
X9251D01*
X9036Y6042D02*
X9083Y6089D01*
X9116D01*
X9163Y6042D01*
X8426Y6092D02*
X8953D01*
X8990Y6129D01*
X9046D01*
X9075Y6101D01*
X9167D01*
X8848Y5992D02*
X8909Y5930D01*
X9025D01*
X9086Y5992D01*
X8415Y5742D02*
X8501D01*
X8369Y5787D02*
X8415Y5742D01*
X8334Y5787D02*
X8369D01*
X8295Y5749D02*
X8334Y5787D01*
X7758Y5749D02*
X8295D01*
X7758Y5649D02*
X8295D01*
X8334Y5687D01*
X8369D01*
X8415Y5642D01*
X8501D01*
X7758Y5249D02*
X8295D01*
X8334Y5287D01*
X8369D01*
X8415Y5242D01*
X8501D01*
X8286Y6042D02*
X8333Y6089D01*
X8366D01*
X8413Y6042D01*
X7676Y6092D02*
X8203D01*
X8240Y6129D01*
X8296D01*
X8325Y6101D01*
X8417D01*
X8098Y5992D02*
X8159Y5930D01*
X8275D01*
X8336Y5992D01*
X7665Y5742D02*
X7751D01*
X7619Y5787D02*
X7665Y5742D01*
X7584Y5787D02*
X7619D01*
X7545Y5749D02*
X7584Y5787D01*
X7008Y5749D02*
X7545D01*
X7008Y5649D02*
X7545D01*
X7584Y5687D01*
X7619D01*
X7665Y5642D01*
X7751D01*
X7008Y5249D02*
X7545D01*
X7584Y5287D01*
X7619D01*
X7665Y5242D01*
X7751D01*
X7536Y6042D02*
X7583Y6089D01*
X7616D01*
X7663Y6042D01*
X6926Y6092D02*
X7453D01*
X7490Y6129D01*
X7546D01*
X7575Y6101D01*
X7667D01*
X7348Y5992D02*
X7409Y5930D01*
X7525D01*
X7586Y5992D01*
X6915Y5742D02*
X7001D01*
X6869Y5787D02*
X6915Y5742D01*
X6834Y5787D02*
X6869D01*
X6795Y5749D02*
X6834Y5787D01*
X6258Y5749D02*
X6795D01*
X6258Y5649D02*
X6795D01*
X6834Y5687D01*
X6869D01*
X6915Y5642D01*
X7001D01*
X6258Y5249D02*
X6795D01*
X6834Y5287D01*
X6869D01*
X6915Y5242D01*
X7001D01*
X6786Y6042D02*
X6833Y6089D01*
X6866D01*
X6913Y6042D01*
X6176Y6092D02*
X6703D01*
X6740Y6129D01*
X6796D01*
X6825Y6101D01*
X6917D01*
X6598Y5992D02*
X6659Y5930D01*
X6775D01*
X6836Y5992D01*
X16537Y6142D02*
X16583Y6187D01*
X16619D01*
X16664Y6142D01*
X16751D01*
X15864Y6190D02*
X15912Y6142D01*
X15834Y6190D02*
X15864D01*
X15785Y6142D02*
X15834Y6190D01*
X15114Y6189D02*
X15161Y6142D01*
X15080Y6189D02*
X15114D01*
X15032Y6142D02*
X15080Y6189D01*
X14367D02*
X14414Y6142D01*
X14337Y6189D02*
X14367D01*
X14289Y6142D02*
X14337Y6189D01*
X13619Y6188D02*
X13665Y6142D01*
X13583Y6188D02*
X13619D01*
X13536Y6142D02*
X13583Y6188D01*
X12870Y6190D02*
X12918Y6142D01*
X12835Y6190D02*
X12870D01*
X12786Y6142D02*
X12835Y6190D01*
X12117Y6188D02*
X12163Y6142D01*
X12085Y6188D02*
X12117D01*
X12038Y6142D02*
X12085Y6188D01*
X11365D02*
X11411Y6142D01*
X11333Y6188D02*
X11365D01*
X11286Y6142D02*
X11333Y6188D01*
X10617Y6189D02*
X10664Y6142D01*
X10582Y6189D02*
X10617D01*
X10534Y6142D02*
X10582Y6189D01*
X9867Y6191D02*
X9916Y6142D01*
X9838Y6191D02*
X9867D01*
X9788Y6142D02*
X9838Y6191D01*
X9113D02*
X9162Y6142D01*
X9084Y6191D02*
X9113D01*
X9034Y6142D02*
X9084Y6191D01*
X8368Y6188D02*
X8414Y6142D01*
X8334Y6188D02*
X8368D01*
X8287Y6142D02*
X8334Y6188D01*
X7613Y6193D02*
X7664Y6142D01*
X7589Y6193D02*
X7613D01*
X7537Y6142D02*
X7589Y6193D01*
X6859Y6190D02*
X6908Y6142D01*
X6833Y6190D02*
X6859D01*
X6784Y6142D02*
X6833Y6190D01*
X6025Y5930D02*
X6086Y5992D01*
X5909Y5930D02*
X6025D01*
X5848Y5992D02*
X5909Y5930D01*
X5426Y5992D02*
X5848D01*
X5426Y5392D02*
X5545D01*
X5591Y5346D01*
X6038D01*
X6084Y5392D01*
X6032Y5045D02*
X6079Y5092D01*
X5571Y5045D02*
X6032D01*
X5524Y5092D02*
X5571Y5045D01*
X5426Y5092D02*
X5524D01*
X5426Y4992D02*
X5523D01*
X5566Y4949D01*
X6043D01*
X6086Y4992D01*
X6075Y6101D02*
X6167D01*
X6046Y6129D02*
X6075Y6101D01*
X5990Y6129D02*
X6046D01*
X5953Y6092D02*
X5990Y6129D01*
X6116Y6089D02*
X6163Y6042D01*
X6083Y6089D02*
X6116D01*
X6036Y6042D02*
X6083Y6089D01*
X5501Y6042D02*
X6036D01*
X6124Y6189D02*
X6171Y6142D01*
X6076Y6189D02*
X6124D01*
X6039Y6153D02*
X6076Y6189D01*
X5966Y6153D02*
X6039D01*
X5955Y6142D02*
X5966Y6153D01*
X5501Y6142D02*
X5955D01*
X6165Y4842D02*
X6251D01*
X6119Y4887D02*
X6165Y4842D01*
X6084Y4887D02*
X6119D01*
X6045Y4849D02*
X6084Y4887D01*
X5508Y4849D02*
X6045D01*
X6165Y5242D02*
X6251D01*
X6119Y5287D02*
X6165Y5242D01*
X6084Y5287D02*
X6119D01*
X6045Y5249D02*
X6084Y5287D01*
X5508Y5249D02*
X6045D01*
X6165Y5642D02*
X6251D01*
X6119Y5687D02*
X6165Y5642D01*
X6084Y5687D02*
X6119D01*
X6045Y5649D02*
X6084Y5687D01*
X5508Y5649D02*
X6045D01*
X5501Y5742D02*
X5508Y5749D01*
X6045D01*
X6084Y5787D01*
X6119D01*
X6165Y5742D01*
X6251D01*
X5407D02*
X5501D01*
X5367Y5781D02*
X5407Y5742D01*
X5333Y5781D02*
X5367D01*
X5293Y5742D02*
X5333Y5781D01*
X5174Y5742D02*
X5293D01*
X4414Y5733D02*
Y5734D01*
X4331Y5217D02*
X4796D01*
X5412Y4842D02*
X5501D01*
X5366Y4888D02*
X5412Y4842D01*
X5333Y4888D02*
X5366D01*
X5287Y4843D02*
X5333Y4888D01*
X5170Y4843D02*
X5287D01*
X4796Y5217D02*
X5170Y4843D01*
X4331Y5256D02*
X4990D01*
X5422Y4988D02*
X5426Y4992D01*
X5340Y4988D02*
X5422D01*
X5294Y5033D02*
X5340Y4988D01*
X5213Y5033D02*
X5294D01*
X4990Y5256D02*
X5213Y5033D01*
X4291Y5178D02*
X4292D01*
X5425Y5092D02*
X5426Y5092D01*
X5343Y5092D02*
X5425D01*
X5288Y5146D02*
X5343Y5092D01*
X5209Y5146D02*
X5288D01*
X5059Y5295D02*
X5209Y5146D01*
X4331Y5295D02*
X5059D01*
X4331Y5335D02*
X5159D01*
X5408Y5242D02*
X5501D01*
X5367Y5282D02*
X5408Y5242D01*
X5330Y5282D02*
X5367D01*
X5296Y5249D02*
X5330Y5282D01*
X5245Y5249D02*
X5296D01*
X5159Y5335D02*
X5245Y5249D01*
X4311Y5433D02*
X5146D01*
X5336Y5392D02*
X5424D01*
X5290Y5346D02*
X5336Y5392D01*
X5232Y5346D02*
X5290D01*
X5146Y5433D02*
X5232Y5346D01*
X5331Y5492D02*
X5426D01*
X5285Y5446D02*
X5331Y5492D01*
X5255Y5446D02*
X5285D01*
X5209Y5492D02*
X5255Y5446D01*
X5416Y5642D02*
X5501D01*
X5365Y5591D02*
X5416Y5642D01*
X5341Y5591D02*
X5365D01*
X4291Y5453D02*
X4311Y5433D01*
X5266Y4488D02*
X5413Y4636D01*
X5433D01*
X5502Y4705D01*
Y4740D01*
X6841Y4528D02*
Y4567D01*
X6919Y4646D01*
X6939D01*
X7001Y4707D01*
Y4742D01*
X8278Y4478D02*
Y4508D01*
X8415Y4646D01*
X8445D01*
X8501Y4701D01*
Y4742D01*
X9754Y4469D02*
Y4498D01*
X9764D01*
X9911Y4646D01*
X9941D01*
X10001Y4705D01*
Y4734D01*
X11289Y4488D02*
Y4518D01*
X11417Y4646D01*
X11447D01*
X11501Y4699D01*
Y4742D01*
X12756Y4469D02*
Y4478D01*
X12923Y4646D01*
X12943D01*
X14291Y4498D02*
Y4518D01*
X14419Y4646D01*
X14439D01*
X14501Y4707D01*
Y4742D01*
X15699Y4419D02*
Y4429D01*
X15915Y4646D01*
X15945D01*
X16001Y4701D01*
Y4728D01*
X4094Y4823D02*
X4577Y4341D01*
X4892D01*
X5148Y4085D01*
X16161D01*
X16575Y4498D01*
Y4557D01*
X16663Y4646D01*
X16693D01*
X16752Y4705D01*
X5128Y4498D02*
X5315Y4311D01*
X5827D01*
X6161Y4646D01*
X6191D01*
X6250Y4705D01*
X4252Y4980D02*
Y4980D01*
Y4980D02*
X4273Y4960D01*
X5098Y4478D02*
X5285Y4291D01*
X7303D02*
X7657Y4646D01*
X7687D01*
X7751Y4709D01*
Y4742D01*
X5285Y4291D02*
X7303D01*
X4213Y4980D02*
X4232Y4961D01*
X5079Y4459D02*
X5276Y4262D01*
X8780D01*
X9163Y4646D01*
X9183D01*
X9252Y4715D01*
X5059Y4439D02*
X5266Y4232D01*
X10246D01*
X10659Y4646D01*
X10689D01*
X10748Y4705D01*
Y4734D01*
X4173Y4980D02*
X4193Y4961D01*
Y4813D02*
X4596Y4409D01*
X5039D01*
X5246Y4203D01*
X11742D01*
X12037Y4498D01*
Y4518D01*
X12165Y4646D01*
X12195D01*
X12244Y4695D01*
Y4734D01*
X12943Y4646D02*
X12990Y4692D01*
Y4731D01*
X13001Y4742D01*
X9252Y4715D02*
Y4754D01*
X16752Y4705D02*
Y4744D01*
X15912Y6142D02*
X16537D01*
X15161D02*
X15785D01*
X14501D02*
X15032D01*
X13751D02*
X14289D01*
X13001D02*
X13536D01*
X12163D02*
X12786D01*
X11411D02*
X12038D01*
X10664D02*
X11286D01*
X10001D02*
X10534D01*
X9251D02*
X9788D01*
X8414D02*
X9034D01*
X7751D02*
X8287D01*
X7001D02*
X7537D01*
X6171D02*
X6784D01*
X14414D02*
X14501D01*
X13665D02*
X13751D01*
X12918D02*
X13001D01*
X9916D02*
X10001D01*
X9162D02*
X9251D01*
X7664D02*
X7751D01*
X6908D02*
X7001D01*
X16001Y6042D02*
X16536D01*
X15251D02*
X15786D01*
X14501D02*
X15036D01*
X13751D02*
X14286D01*
X13001D02*
X13536D01*
X12251D02*
X12786D01*
X11501D02*
X12036D01*
X10751D02*
X11286D01*
X10001D02*
X10536D01*
X9251D02*
X9786D01*
X8501D02*
X9036D01*
X7751D02*
X8286D01*
X7001D02*
X7536D01*
X6251D02*
X6786D01*
X15913D02*
X16001D01*
X15163D02*
X15251D01*
X14413D02*
X14501D01*
X13663D02*
X13751D01*
X12913D02*
X13001D01*
X12163D02*
X12251D01*
X11413D02*
X11501D01*
X10663D02*
X10751D01*
X9913D02*
X10001D01*
X9163D02*
X9251D01*
X8413D02*
X8501D01*
X7663D02*
X7751D01*
X6913D02*
X7001D01*
X6163D02*
X6251D01*
X15926Y5992D02*
X16348D01*
X15176D02*
X15598D01*
X14426D02*
X14848D01*
X13676D02*
X14098D01*
X12926D02*
X13348D01*
X12176D02*
X12598D01*
X11426D02*
X11848D01*
X10676D02*
X11098D01*
X9926D02*
X10348D01*
X9176D02*
X9598D01*
X8426D02*
X8848D01*
X7676D02*
X8098D01*
X6926D02*
X7348D01*
X6176D02*
X6598D01*
X15836D02*
X15926D01*
X15086D02*
X15176D01*
X14336D02*
X14426D01*
X13586D02*
X13676D01*
X12836D02*
X12926D01*
X12086D02*
X12176D01*
X11336D02*
X11426D01*
X10586D02*
X10676D01*
X9836D02*
X9926D01*
X9086D02*
X9176D01*
X8336D02*
X8426D01*
X7586D02*
X7676D01*
X6836D02*
X6926D01*
X6086D02*
X6176D01*
X4638Y3285D02*
Y3322D01*
X15926Y5392D02*
X16045D01*
X15176D02*
X15295D01*
X14426D02*
X14545D01*
X13676D02*
X13795D01*
X12926D02*
X13045D01*
X12176D02*
X12295D01*
X11426D02*
X11545D01*
X10676D02*
X10795D01*
X9926D02*
X10045D01*
X9176D02*
X9295D01*
X8426D02*
X8545D01*
X7676D02*
X7795D01*
X6926D02*
X7045D01*
X6176D02*
X6295D01*
X15834D02*
X15926D01*
X15084D02*
X15176D01*
X14334D02*
X14426D01*
X13584D02*
X13676D01*
X12834D02*
X12926D01*
X12084D02*
X12176D01*
X11334D02*
X11426D01*
X10584D02*
X10676D01*
X9834D02*
X9926D01*
X9084D02*
X9176D01*
X8334D02*
X8426D01*
X7584D02*
X7676D01*
X6834D02*
X6926D01*
X6084D02*
X6176D01*
X15926Y5092D02*
X16024D01*
X15925Y5092D02*
X15926Y5092D01*
X15175Y5092D02*
X15176Y5092D01*
X15274D01*
X14426D02*
X14524D01*
X14425Y5092D02*
X14426Y5092D01*
X13676D02*
X13774D01*
X13675Y5092D02*
X13676Y5092D01*
X12925Y5092D02*
X12926Y5092D01*
X13024D01*
X12176D02*
X12274D01*
X12175Y5092D02*
X12176Y5092D01*
X11425Y5092D02*
X11426Y5092D01*
X11524D01*
X10675Y5092D02*
X10676Y5092D01*
X10774D01*
X9926D02*
X10024D01*
X9925Y5092D02*
X9926Y5092D01*
X9175Y5092D02*
X9176Y5092D01*
X9274D01*
X8426D02*
X8524D01*
X8425Y5092D02*
X8426Y5092D01*
X7675Y5092D02*
X7676Y5092D01*
X7774D01*
X6925Y5092D02*
X6926Y5092D01*
X7024D01*
X6176D02*
X6274D01*
X6175Y5092D02*
X6176Y5092D01*
X15829D02*
X15926D01*
X15079D02*
X15176D01*
X14329D02*
X14426D01*
X13579D02*
X13676D01*
X12829D02*
X12926D01*
X12079D02*
X12176D01*
X11329D02*
X11426D01*
X10579D02*
X10676D01*
X9829D02*
X9926D01*
X9079D02*
X9176D01*
X8329D02*
X8426D01*
X7579D02*
X7676D01*
X6829D02*
X6926D01*
X6079D02*
X6176D01*
X15926Y4992D02*
X16023D01*
X15922Y4988D02*
X15926Y4992D01*
X15176D02*
X15273D01*
X15172Y4988D02*
X15176Y4992D01*
X14426D02*
X14523D01*
X13676D02*
X13773D01*
X14422Y4988D02*
X14426Y4992D01*
X13672Y4988D02*
X13676Y4992D01*
X12922Y4988D02*
X12926Y4992D01*
X13023D01*
X12176D02*
X12273D01*
X12172Y4988D02*
X12176Y4992D01*
X11422Y4988D02*
X11426Y4992D01*
X11523D01*
X10676D02*
X10773D01*
X10672Y4988D02*
X10676Y4992D01*
X9926D02*
X10023D01*
X9922Y4988D02*
X9926Y4992D01*
X9172Y4988D02*
X9176Y4992D01*
X9273D01*
X8426D02*
X8523D01*
X8422Y4988D02*
X8426Y4992D01*
X7672Y4988D02*
X7676Y4992D01*
X7773D01*
X6926D02*
X7023D01*
X6922Y4988D02*
X6926Y4992D01*
X6176D02*
X6273D01*
X6172Y4988D02*
X6176Y4992D01*
X15836D02*
X15926D01*
X15086D02*
X15176D01*
X14336D02*
X14426D01*
X13586D02*
X13676D01*
X12836D02*
X12926D01*
X12086D02*
X12176D01*
X11336D02*
X11426D01*
X10586D02*
X10676D01*
X9836D02*
X9926D01*
X9086D02*
X9176D01*
X8336D02*
X8426D01*
X7586D02*
X7676D01*
X6836D02*
X6926D01*
X6086D02*
X6176D01*
X4154Y5000D02*
X4173Y5020D01*
X4154Y4823D02*
Y5000D01*
Y4823D02*
X4242Y4734D01*
X4242D01*
X4596Y4380D01*
X5030D01*
X5236Y4173D01*
X13189D01*
X13661Y4646D01*
X13691D01*
X13751Y4705D01*
Y4742D01*
X4134Y4813D02*
Y5020D01*
Y4813D02*
X4587Y4360D01*
X4990D01*
X5207Y4144D01*
X14665D01*
X15167Y4646D01*
X15187D01*
X15251Y4709D01*
Y4740D01*
X6663Y4350D02*
X6841Y4528D01*
X3406Y5354D02*
X3406Y5354D01*
X5920Y3071D02*
X6139Y3290D01*
X5840Y3091D02*
X6039Y3290D01*
X3081Y5335D02*
X3376D01*
X2589Y4843D02*
X3081Y5335D01*
X2589Y3996D02*
Y4843D01*
Y3996D02*
X3474Y3110D01*
X5760D01*
X5939Y3290D01*
X2569Y3986D02*
Y4852D01*
X3071Y5354D01*
X3406D01*
X2569Y3986D02*
X3465Y3091D01*
X5840D01*
X2549Y3967D02*
Y4931D01*
Y3967D02*
X3445Y3071D01*
X2549Y4931D02*
X2992Y5374D01*
X3435D01*
X3445Y3071D02*
X5920D01*
X3159Y4754D02*
X3366Y4961D01*
X3386Y4980D02*
X3583D01*
X3602Y5000D01*
X3366Y4961D02*
X3386Y4980D01*
X3602Y5000D02*
X3642D01*
X3583Y5020D02*
X3622D01*
X3297Y5000D02*
X3563D01*
X2631Y4334D02*
X3297Y5000D01*
X3563D02*
X3583Y5020D01*
X3563Y5039D02*
X3612D01*
X3287Y5020D02*
X3543D01*
X3563Y5039D01*
X3612D02*
X3642D01*
X2835Y4567D02*
X3287Y5020D01*
X3268Y5030D02*
X3278Y5039D01*
X2904Y4665D02*
X3268Y5030D01*
X3533Y5039D02*
X3553Y5059D01*
X3278Y5039D02*
X3533D01*
X3553Y5059D02*
X3622D01*
X3602Y5098D02*
X3622D01*
X3167Y5106D02*
X3595D01*
X3602Y5098D01*
X2894Y4833D02*
X3167Y5106D01*
X3543Y5089D02*
X3553Y5079D01*
X3494Y5089D02*
X3543D01*
X3287Y5079D02*
X3484D01*
X3494Y5089D01*
X3553Y5079D02*
X3642D01*
X3661Y5098D01*
X3504Y5689D02*
X3524Y5669D01*
X3504Y5689D02*
Y5748D01*
X3543Y5787D01*
X3898D01*
X4213Y6102D01*
X4715D01*
X5266Y6654D01*
X5541D01*
X5886Y6998D01*
X6417D01*
X5305Y6535D02*
X5610D01*
X6024Y6949D01*
X7343D01*
X7539Y7146D01*
X5463Y6624D02*
X5561D01*
X5394Y6555D02*
X5463Y6624D01*
X13760Y3534D02*
Y3622D01*
X13642Y3415D02*
X13760Y3534D01*
X11949Y3415D02*
X13642D01*
X11496Y3868D02*
X11949Y3415D01*
X15240Y5892D02*
X15776D01*
X15197Y5935D02*
X15240Y5892D01*
X15157Y5935D02*
X15197D01*
X15114Y5892D02*
X15157Y5935D01*
X14492Y5892D02*
X15014D01*
X14449Y5935D02*
X14492Y5892D01*
X14400Y5935D02*
X14449D01*
X14356Y5892D02*
X14400Y5935D01*
X14276Y5892D02*
X14356D01*
X13734D02*
X14276D01*
X13691Y5935D02*
X13734Y5892D01*
X13652Y5935D02*
X13691D01*
X13608Y5892D02*
X13652Y5935D01*
X13526Y5892D02*
X13608D01*
X12986D02*
X13526D01*
X12943Y5935D02*
X12986Y5892D01*
X12904Y5935D02*
X12943D01*
X12860Y5892D02*
X12904Y5935D01*
X12776Y5892D02*
X12860D01*
X12238D02*
X12776D01*
X12195Y5935D02*
X12238Y5892D01*
X12156Y5935D02*
X12195D01*
X12112Y5892D02*
X12156Y5935D01*
X12026Y5892D02*
X12112D01*
X12020Y5886D02*
X12026Y5892D01*
X11496Y5886D02*
X12020D01*
X11447Y5935D02*
X11496Y5886D01*
X11407Y5935D02*
X11447D01*
X11364Y5892D02*
X11407Y5935D01*
X11276Y5892D02*
X11364D01*
X10742D02*
X11276D01*
X10699Y5935D02*
X10742Y5892D01*
X10650Y5935D02*
X10699D01*
X10606Y5892D02*
X10650Y5935D01*
X10526Y5892D02*
X10606D01*
X9984D02*
X10526D01*
X9941Y5935D02*
X9984Y5892D01*
X9911Y5935D02*
X9941D01*
X9868Y5892D02*
X9911Y5935D01*
X9776Y5892D02*
X9868D01*
X9246D02*
X9776D01*
X9203Y5935D02*
X9246Y5892D01*
X9154Y5935D02*
X9203D01*
X9110Y5892D02*
X9154Y5935D01*
X9026Y5892D02*
X9110D01*
X8488D02*
X9026D01*
X8445Y5935D02*
X8488Y5892D01*
X8406Y5935D02*
X8445D01*
X8356Y5886D02*
X8406Y5935D01*
X8281Y5886D02*
X8356D01*
X8276Y5892D02*
X8281Y5886D01*
X7740Y5892D02*
X8276D01*
X7697Y5935D02*
X7740Y5892D01*
X7657Y5935D02*
X7697D01*
X7614Y5892D02*
X7657Y5935D01*
X15014Y5892D02*
X15114D01*
X6949Y5935D02*
X6992Y5892D01*
X6909Y5935D02*
X6949D01*
X6866Y5892D02*
X6909Y5935D01*
X6191D02*
X6234Y5892D01*
X6161Y5935D02*
X6191D01*
X6118Y5892D02*
X6161Y5935D01*
X5443D02*
X5486Y5892D01*
X5413Y5935D02*
X5443D01*
X5370Y5892D02*
X5413Y5935D01*
X5276Y5892D02*
X5370D01*
X5486D02*
X6118D01*
X6234D02*
X6866D01*
X6992D02*
X7614D01*
X4272Y4872D02*
Y4911D01*
X4646Y4498D02*
X4715D01*
X4273Y4911D02*
Y4960D01*
X4715Y4498D02*
X5128D01*
X4272Y4872D02*
X4646Y4498D01*
X6250Y4705D02*
Y4744D01*
X4636Y4478D02*
X4685D01*
Y4478D02*
X5098D01*
X4252Y4862D02*
X4636Y4478D01*
X4252Y4862D02*
Y4941D01*
X4232Y4852D02*
X4626Y4459D01*
X4232Y4852D02*
Y4961D01*
X4626Y4459D02*
X5079D01*
X4616Y4439D02*
X4656D01*
Y4439D02*
X5059D01*
X4213Y4843D02*
X4616Y4439D01*
X4213Y4843D02*
Y4941D01*
X4193Y4882D02*
Y4892D01*
X4173Y4862D02*
X4193Y4882D01*
X4173Y4833D02*
Y4862D01*
Y4833D02*
X4193Y4813D01*
Y4892D02*
Y4961D01*
X5295Y6043D02*
X5344Y6092D01*
X5177Y6043D02*
X5295D01*
X4764Y5630D02*
X5177Y6043D01*
X4311Y5630D02*
X4764D01*
X4291Y5610D02*
X4311Y5630D01*
X5344Y6092D02*
X5953D01*
X4331Y5492D02*
X5209D01*
X4330Y5531D02*
X4331D01*
Y5531D02*
X5281D01*
X5341Y5591D01*
X4518Y4193D02*
X5041Y3669D01*
X3878Y4833D02*
X4518Y4193D01*
X5041Y3502D02*
Y3669D01*
X4503Y4247D02*
X4951Y3799D01*
X5022D01*
X4503Y4247D02*
Y4248D01*
X3917Y4834D02*
X4503Y4248D01*
X5238Y3503D02*
Y3583D01*
X5022Y3799D02*
X5238Y3583D01*
X4529Y4249D02*
X4560D01*
X4961Y3848D02*
X5039D01*
X4560Y4249D02*
X4961Y3848D01*
X5345Y3498D02*
Y3542D01*
X5039Y3848D02*
X5345Y3542D01*
X5010Y3898D02*
X5069D01*
X5446Y3494D02*
Y3521D01*
X4623Y4284D02*
X5010Y3898D01*
X5069D02*
X5446Y3521D01*
X4525Y4284D02*
X4623D01*
X4636Y4311D02*
X4685D01*
X5039Y3957D02*
X5118D01*
X5433Y3642D01*
X4546Y4310D02*
X4636D01*
X5433Y3642D02*
X5562D01*
X4685Y4311D02*
X5039Y3957D01*
X5562Y3642D02*
X5640Y3564D01*
X12057Y3583D02*
X12096Y3543D01*
X12746D01*
X12810Y3608D01*
Y3697D01*
D44*
X3799Y7283D02*
X3809Y7274D01*
X4967Y6628D02*
X4970Y6631D01*
X4813Y7057D02*
X4818Y7052D01*
X10674Y7170D02*
X10679Y7175D01*
X17650Y5890D02*
Y5770D01*
X17730D01*
X17790Y5850D02*
X17830D01*
X17850Y5830D01*
Y5770D01*
X17790D01*
X17770Y5790D01*
X17790Y5810D01*
X17850D01*
X17890Y5850D02*
Y5790D01*
X17910Y5770D01*
X17970D01*
Y5750D01*
X17950Y5730D01*
X17930D01*
X17970Y5770D02*
Y5850D01*
X18070Y5770D02*
X18030D01*
X18010Y5790D01*
Y5830D01*
X18030Y5850D01*
X18070D01*
X18090Y5830D01*
Y5810D01*
X18010D01*
X18130Y5850D02*
Y5770D01*
Y5810D01*
X18150Y5830D01*
X18170Y5850D01*
X18190D01*
X18370Y5870D02*
X18390Y5890D01*
X18430D01*
X18450Y5870D01*
Y5850D01*
X18430Y5830D01*
X18410D01*
X18430D01*
X18450Y5810D01*
Y5790D01*
X18430Y5770D01*
X18390D01*
X18370Y5790D01*
D45*
X4587Y7323D02*
X4590Y7326D01*
D48*
X4262Y4035D02*
D03*
X4508Y5650D02*
D03*
X2687Y4518D02*
D03*
X2717Y4498D02*
D03*
X2743Y4564D02*
D03*
X2844Y4695D02*
D03*
X2894Y4833D02*
D03*
X3740Y5217D02*
D03*
X3740Y5098D02*
D03*
X2746Y4665D02*
D03*
X2655Y4308D02*
D03*
X2631Y4334D02*
D03*
X3701Y5138D02*
D03*
X3661Y5098D02*
D03*
X3622D02*
D03*
X3661Y5059D02*
D03*
X3622D02*
D03*
X3622Y5020D02*
D03*
X3662D02*
D03*
X3701Y4941D02*
D03*
X3740D02*
D03*
X3780D02*
D03*
Y4980D02*
D03*
X3819Y4941D02*
D03*
X3858Y4980D02*
D03*
X3937Y4941D02*
D03*
X3898Y4980D02*
D03*
X3937D02*
D03*
X3976D02*
D03*
X4414Y5733D02*
D03*
X4292Y5178D02*
D03*
X4331Y5217D02*
D03*
Y5256D02*
D03*
Y5295D02*
D03*
Y5335D02*
D03*
X4291Y5453D02*
D03*
X4331Y5492D02*
D03*
Y5531D02*
D03*
Y5571D02*
D03*
X5266Y4488D02*
D03*
X8278Y4478D02*
D03*
X9754Y4469D02*
D03*
X11289Y4488D02*
D03*
X12756Y4469D02*
D03*
X14291Y4498D02*
D03*
X15699Y4419D02*
D03*
X4094Y4823D02*
D03*
X4252Y4980D02*
D03*
Y4941D02*
D03*
X4213Y4980D02*
D03*
Y4941D02*
D03*
X4173Y4980D02*
D03*
X4173Y5020D02*
D03*
X4134D02*
D03*
X6663Y4350D02*
D03*
X3435Y5374D02*
D03*
X3406Y5354D02*
D03*
X3376Y5335D02*
D03*
X3524Y5669D02*
D03*
X6417Y6998D02*
D03*
X5305Y6535D02*
D03*
X7539Y7146D02*
D03*
X5561Y6624D02*
D03*
X5394Y6555D02*
D03*
X11496Y3868D02*
D03*
X4291Y5610D02*
D03*
X12057Y3583D02*
D03*
D50*
X17249Y5941D02*
D03*
X17099Y4641D02*
D03*
Y6141D02*
D03*
Y6041D02*
D03*
X5426Y5991D02*
D03*
X5501Y6041D02*
D03*
X5426Y6091D02*
D03*
X5501Y6141D02*
D03*
Y4841D02*
D03*
X5426Y4991D02*
D03*
Y5091D02*
D03*
X5276Y5891D02*
D03*
X5501Y5241D02*
D03*
X5426Y5391D02*
D03*
Y5491D02*
D03*
X5501Y5641D02*
D03*
Y5741D02*
D03*
X6176Y5991D02*
D03*
X6251Y6041D02*
D03*
X6176Y6091D02*
D03*
X6251Y6141D02*
D03*
Y4741D02*
D03*
Y4841D02*
D03*
X6176Y4991D02*
D03*
Y5091D02*
D03*
X6026Y5891D02*
D03*
X6251Y5241D02*
D03*
X6176Y5391D02*
D03*
Y5491D02*
D03*
X6251Y5641D02*
D03*
Y5741D02*
D03*
X6926Y5991D02*
D03*
X7001Y6041D02*
D03*
X6926Y6091D02*
D03*
X7001Y6141D02*
D03*
Y4741D02*
D03*
Y4841D02*
D03*
X6926Y4991D02*
D03*
Y5091D02*
D03*
X6776Y5891D02*
D03*
X7001Y5241D02*
D03*
X6926Y5391D02*
D03*
Y5491D02*
D03*
X7001Y5641D02*
D03*
Y5741D02*
D03*
X7676Y5991D02*
D03*
X7751Y6041D02*
D03*
X7676Y6091D02*
D03*
X7751Y6141D02*
D03*
Y4741D02*
D03*
Y4841D02*
D03*
X7676Y4991D02*
D03*
Y5091D02*
D03*
X7526Y5891D02*
D03*
X7751Y5241D02*
D03*
X7676Y5391D02*
D03*
Y5491D02*
D03*
X7751Y5641D02*
D03*
Y5741D02*
D03*
X8426Y5991D02*
D03*
X8501Y6041D02*
D03*
X8426Y6091D02*
D03*
X8501Y6141D02*
D03*
Y4741D02*
D03*
Y4841D02*
D03*
X8426Y4991D02*
D03*
Y5091D02*
D03*
X8276Y5891D02*
D03*
X8501Y5241D02*
D03*
X8426Y5391D02*
D03*
Y5491D02*
D03*
X8501Y5641D02*
D03*
Y5741D02*
D03*
X9176Y5991D02*
D03*
X9251Y6041D02*
D03*
X9176Y6091D02*
D03*
X9251Y6141D02*
D03*
Y4741D02*
D03*
Y4841D02*
D03*
X9176Y4991D02*
D03*
Y5091D02*
D03*
X9026Y5891D02*
D03*
X9251Y5241D02*
D03*
X9176Y5391D02*
D03*
Y5491D02*
D03*
X9251Y5641D02*
D03*
Y5741D02*
D03*
X9926Y5991D02*
D03*
X10001Y6041D02*
D03*
X9926Y6091D02*
D03*
X10001Y6141D02*
D03*
Y4741D02*
D03*
Y4841D02*
D03*
X9926Y4991D02*
D03*
Y5091D02*
D03*
X9776Y5891D02*
D03*
X10001Y5241D02*
D03*
X9926Y5391D02*
D03*
Y5491D02*
D03*
X10001Y5641D02*
D03*
Y5741D02*
D03*
X10676Y5991D02*
D03*
X10751Y6041D02*
D03*
X10676Y6091D02*
D03*
X10751Y6141D02*
D03*
Y4741D02*
D03*
Y4841D02*
D03*
X10676Y4991D02*
D03*
Y5091D02*
D03*
X10526Y5891D02*
D03*
X10751Y5241D02*
D03*
X10676Y5391D02*
D03*
Y5491D02*
D03*
X10751Y5641D02*
D03*
Y5741D02*
D03*
X11426Y5991D02*
D03*
X11501Y6041D02*
D03*
X11426Y6091D02*
D03*
X11501Y6141D02*
D03*
Y4741D02*
D03*
Y4841D02*
D03*
X11426Y4991D02*
D03*
Y5091D02*
D03*
X11276Y5891D02*
D03*
X11501Y5241D02*
D03*
X11426Y5391D02*
D03*
Y5491D02*
D03*
X11501Y5641D02*
D03*
Y5741D02*
D03*
X12176Y5991D02*
D03*
X12251Y6041D02*
D03*
X12176Y6091D02*
D03*
X12251Y6141D02*
D03*
Y4741D02*
D03*
Y4841D02*
D03*
X12176Y4991D02*
D03*
Y5091D02*
D03*
X12026Y5891D02*
D03*
X12251Y5241D02*
D03*
X12176Y5391D02*
D03*
Y5491D02*
D03*
X12251Y5641D02*
D03*
Y5741D02*
D03*
X12926Y5991D02*
D03*
X13001Y6041D02*
D03*
X12926Y6091D02*
D03*
X13001Y6141D02*
D03*
Y4741D02*
D03*
Y4841D02*
D03*
X12926Y4991D02*
D03*
Y5091D02*
D03*
X12776Y5891D02*
D03*
X13001Y5241D02*
D03*
X12926Y5391D02*
D03*
Y5491D02*
D03*
X13001Y5641D02*
D03*
Y5741D02*
D03*
X13676Y5991D02*
D03*
X13751Y6041D02*
D03*
X13676Y6091D02*
D03*
X13751Y6141D02*
D03*
Y4741D02*
D03*
Y4841D02*
D03*
X13676Y4991D02*
D03*
Y5091D02*
D03*
X13526Y5891D02*
D03*
X13751Y5241D02*
D03*
X13676Y5391D02*
D03*
Y5491D02*
D03*
X13751Y5641D02*
D03*
Y5741D02*
D03*
X14426Y5991D02*
D03*
X14501Y6041D02*
D03*
X14426Y6091D02*
D03*
X14501Y6141D02*
D03*
Y4741D02*
D03*
Y4841D02*
D03*
X14426Y4991D02*
D03*
Y5091D02*
D03*
X14276Y5891D02*
D03*
X14501Y5241D02*
D03*
X14426Y5391D02*
D03*
Y5491D02*
D03*
X14501Y5641D02*
D03*
Y5741D02*
D03*
X15176Y5991D02*
D03*
X15251Y6041D02*
D03*
X15176Y6091D02*
D03*
X15251Y6141D02*
D03*
Y4741D02*
D03*
Y4841D02*
D03*
X15176Y4991D02*
D03*
Y5091D02*
D03*
X15026Y5891D02*
D03*
X15251Y5241D02*
D03*
X15176Y5391D02*
D03*
Y5491D02*
D03*
X15251Y5641D02*
D03*
Y5741D02*
D03*
X15926Y5991D02*
D03*
X16001Y6041D02*
D03*
X15926Y6091D02*
D03*
X16001Y6141D02*
D03*
Y4741D02*
D03*
Y4841D02*
D03*
X15926Y4991D02*
D03*
Y5091D02*
D03*
X15776Y5891D02*
D03*
X16001Y5241D02*
D03*
X15926Y5391D02*
D03*
Y5491D02*
D03*
X16001Y5641D02*
D03*
Y5741D02*
D03*
X16676Y5991D02*
D03*
X16751Y6041D02*
D03*
X16676Y6091D02*
D03*
X16751Y6141D02*
D03*
Y4741D02*
D03*
Y4841D02*
D03*
X16676Y4991D02*
D03*
Y5091D02*
D03*
X16526Y5891D02*
D03*
X16751Y5241D02*
D03*
X16676Y5391D02*
D03*
Y5491D02*
D03*
X16751Y5641D02*
D03*
Y5741D02*
D03*
X6039Y3290D02*
D03*
X6139D02*
D03*
X4689Y3365D02*
D03*
X4639Y3290D02*
D03*
X4739D02*
D03*
X5089Y3365D02*
D03*
X5239Y3440D02*
D03*
Y3290D02*
D03*
X5489Y3365D02*
D03*
X5439Y3290D02*
D03*
X5689Y3365D02*
D03*
X5939Y3290D02*
D03*
X13760Y3622D02*
D03*
X12810Y3697D02*
D03*
X5501Y4741D02*
D03*
D58*
X3799Y7283D02*
D03*
X4590Y7326D02*
D03*
X4967Y6628D02*
D03*
X4818Y7052D02*
D03*
X10674Y7170D02*
D03*
M02*
