%FSLAX24Y24*%
%MOIN*%
G70*
G01*
G75*
G04 Layer_Color=32896*
%ADD10C,0.0197*%
%ADD11R,0.0276X0.0354*%
%ADD12C,0.0130*%
%ADD13R,0.0394X0.0433*%
%ADD14R,0.0945X0.1024*%
%ADD15C,0.0400*%
%ADD16R,0.3000X0.2900*%
%ADD17R,0.1500X0.0500*%
%ADD18R,0.0630X0.0709*%
%ADD19R,0.0709X0.0630*%
%ADD20R,0.0571X0.0197*%
%ADD21R,0.1575X0.0335*%
%ADD22R,0.0630X0.0512*%
%ADD23R,0.0551X0.0787*%
%ADD24R,0.1496X0.0394*%
%ADD25R,0.0394X0.1496*%
%ADD26R,0.1024X0.0945*%
%ADD27R,0.1102X0.1024*%
%ADD28R,0.0394X0.1083*%
%ADD29R,0.0197X0.0610*%
%ADD30R,0.0610X0.0197*%
%ADD31R,0.0610X0.0197*%
%ADD32R,0.0374X0.0335*%
%ADD33R,0.0374X0.0335*%
%ADD34C,0.0060*%
%ADD35C,0.0080*%
%ADD36C,0.0110*%
%ADD37C,0.0120*%
%ADD38C,0.0200*%
%ADD39C,0.0160*%
%ADD40C,0.0300*%
%ADD41C,0.0180*%
%ADD42C,0.0100*%
%ADD43C,0.0240*%
%ADD44C,0.0800*%
%ADD45C,0.0600*%
%ADD46C,0.0669*%
%ADD47C,0.1300*%
%ADD48C,0.0591*%
%ADD49R,0.0591X0.0591*%
%ADD50C,0.1063*%
%ADD51C,0.0433*%
%ADD52C,0.1750*%
%ADD53C,0.0200*%
%ADD54C,0.0500*%
%ADD55C,0.0300*%
%ADD56R,0.0354X0.0945*%
%ADD57R,0.0500X0.1449*%
%ADD58R,0.0354X0.0276*%
%ADD59R,0.0433X0.0394*%
%ADD60C,0.0039*%
%ADD61C,0.0098*%
%ADD62C,0.0079*%
%ADD63C,0.0070*%
%ADD64C,0.0040*%
%ADD65C,0.0090*%
%ADD66C,0.0600*%
%ADD67C,0.0150*%
%ADD68C,0.0025*%
D35*
X109500Y72750D02*
Y76750D01*
X101500Y72750D02*
Y76750D01*
Y72750D02*
X109500D01*
X101500Y76750D02*
X109500D01*
X102500Y76550D02*
Y76750D01*
X101500Y76550D02*
X102500D01*
X101500Y76600D02*
X102450D01*
X101500Y76650D02*
X102500D01*
X101500Y76700D02*
X102450D01*
X102500Y76650D01*
X98500Y72750D02*
Y76750D01*
X90500Y72750D02*
Y76750D01*
Y72750D02*
X98500D01*
X90500Y76750D02*
X98500D01*
X91500Y76550D02*
Y76750D01*
X90500Y76550D02*
X91500D01*
X90500Y76600D02*
X91450D01*
X90500Y76650D02*
X91500D01*
X90500Y76700D02*
X91450D01*
X91500Y76650D01*
X87500Y72750D02*
Y76750D01*
X79500Y72750D02*
Y76750D01*
Y72750D02*
X87500D01*
X79500Y76750D02*
X87500D01*
X80500Y76550D02*
Y76750D01*
X79500Y76550D02*
X80500D01*
X79500Y76600D02*
X80450D01*
X79500Y76650D02*
X80500D01*
X79500Y76700D02*
X80450D01*
X80500Y76650D01*
X56000Y72000D02*
Y76000D01*
X48000Y72000D02*
Y76000D01*
Y72000D02*
X56000D01*
X48000Y76000D02*
X56000D01*
X49000Y75800D02*
Y76000D01*
X48000Y75800D02*
X49000D01*
X48000Y75850D02*
X48950D01*
X48000Y75900D02*
X49000D01*
X48000Y75950D02*
X48950D01*
X49000Y75900D01*
D37*
X96800Y68400D02*
Y69200D01*
X96267Y68400D01*
Y69200D01*
X95467D02*
X96000D01*
Y68400D01*
X95467D01*
X96000Y68800D02*
X95734D01*
X95201Y68400D02*
Y69200D01*
X94801D01*
X94667Y69066D01*
Y68800D01*
X94801Y68667D01*
X95201D01*
X93601Y69200D02*
X93334D01*
X93468D01*
Y68400D01*
X93601D01*
X93334D01*
X92535Y69200D02*
X92801D01*
X92935Y69066D01*
Y68533D01*
X92801Y68400D01*
X92535D01*
X92401Y68533D01*
Y69066D01*
X92535Y69200D01*
X108000Y68400D02*
Y68933D01*
X107733Y69200D01*
X107467Y68933D01*
Y68400D01*
Y68800D01*
X108000D01*
X107200Y69200D02*
Y68400D01*
X106800D01*
X106667Y68533D01*
Y69066D01*
X106800Y69200D01*
X107200D01*
X106401D02*
X106134D01*
X106267D01*
Y68400D01*
X106401D01*
X106134D01*
X105334Y69200D02*
X105601D01*
X105734Y69066D01*
Y68533D01*
X105601Y68400D01*
X105334D01*
X105201Y68533D01*
Y69066D01*
X105334Y69200D01*
X104135D02*
X103868D01*
X104001D01*
Y68400D01*
X104135D01*
X103868D01*
X103068Y69200D02*
X103335D01*
X103468Y69066D01*
Y68533D01*
X103335Y68400D01*
X103068D01*
X102935Y68533D01*
Y69066D01*
X103068Y69200D01*
X85217Y69066D02*
X85350Y69200D01*
X85617D01*
X85750Y69066D01*
Y68933D01*
X85617Y68800D01*
X85350D01*
X85217Y68667D01*
Y68533D01*
X85350Y68400D01*
X85617D01*
X85750Y68533D01*
X84950Y69200D02*
Y69066D01*
X84684Y68800D01*
X84417Y69066D01*
Y69200D01*
X84684Y68800D02*
Y68400D01*
X83617Y69066D02*
X83751Y69200D01*
X84017D01*
X84151Y69066D01*
Y68933D01*
X84017Y68800D01*
X83751D01*
X83617Y68667D01*
Y68533D01*
X83751Y68400D01*
X84017D01*
X84151Y68533D01*
X82551Y69200D02*
X82284D01*
X82418D01*
Y68400D01*
X82551D01*
X82284D01*
X81485Y69200D02*
X81751D01*
X81885Y69066D01*
Y68533D01*
X81751Y68400D01*
X81485D01*
X81351Y68533D01*
Y69066D01*
X81485Y69200D01*
X55864Y71174D02*
X56398D01*
Y70774D01*
X56131D01*
X56398D01*
Y70374D01*
X55598D02*
Y71174D01*
X55198D01*
X55065Y71040D01*
Y70774D01*
X55198Y70641D01*
X55598D01*
X55331D02*
X55065Y70374D01*
X54398Y71174D02*
X54665D01*
X54798Y71040D01*
Y70507D01*
X54665Y70374D01*
X54398D01*
X54265Y70507D01*
Y71040D01*
X54398Y71174D01*
X53998Y70374D02*
Y71174D01*
X53465Y70374D01*
Y71174D01*
X53199D02*
X52666D01*
X52932D01*
Y70374D01*
X51599D02*
Y71174D01*
X51199D01*
X51066Y71040D01*
Y70774D01*
X51199Y70641D01*
X51599D01*
X50799Y70374D02*
Y70907D01*
X50533Y71174D01*
X50266Y70907D01*
Y70374D01*
Y70774D01*
X50799D01*
X50000Y70374D02*
Y71174D01*
X49467Y70374D01*
Y71174D01*
X48667D02*
X49200D01*
Y70374D01*
X48667D01*
X49200Y70774D02*
X48933D01*
X48400Y71174D02*
Y70374D01*
X47867D01*
D42*
X158400Y47500D02*
G03*
X158400Y47500I-1400J0D01*
G01*
X125400D02*
G03*
X125400Y47500I-1400J0D01*
G01*
X67400D02*
G03*
X67400Y47500I-1400J0D01*
G01*
X37400D02*
G03*
X37400Y47500I-1400J0D01*
G01*
X158400Y74000D02*
G03*
X158400Y74000I-1400J0D01*
G01*
X114400D02*
G03*
X114400Y74000I-1400J0D01*
G01*
X70400D02*
G03*
X70400Y74000I-1400J0D01*
G01*
X26400D02*
G03*
X26400Y74000I-1400J0D01*
G01*
D62*
X24533Y62544D02*
Y63056D01*
X42044Y33702D02*
X42556D01*
X126810Y37539D02*
Y37736D01*
X136771Y37461D02*
Y37657D01*
X97480Y46752D02*
Y46949D01*
X100472Y43996D02*
Y44193D01*
X93505Y45571D02*
Y45768D01*
X97146Y48071D02*
X97343D01*
X95965Y44842D02*
X96161D01*
X93208Y39764D02*
X93405D01*
X93150Y43996D02*
Y44193D01*
X93111Y40059D02*
Y40256D01*
X94133Y45098D02*
Y45295D01*
X99272Y42047D02*
X99468D01*
X93349Y37902D02*
Y38098D01*
X96338Y45965D02*
Y46161D01*
X96260Y38012D02*
Y38209D01*
X90217Y39568D02*
X90413D01*
X97519Y45571D02*
Y45768D01*
X97362Y43209D02*
Y43406D01*
X97480Y43996D02*
Y44193D01*
X93209Y47757D02*
X93406D01*
X93150Y41634D02*
Y41831D01*
X92677Y40925D02*
Y41122D01*
X97440Y41870D02*
Y42067D01*
X90768Y46063D02*
X90965D01*
X91240Y43386D02*
X91437D01*
X90374Y41890D02*
X90571D01*
X96771Y40059D02*
Y40256D01*
X99370Y39744D02*
Y39941D01*
X99842Y40846D02*
Y41043D01*
X105019Y35905D02*
X105216D01*
X104960Y33524D02*
Y33720D01*
X90827Y42835D02*
Y43150D01*
X97874Y47362D02*
X98189D01*
X99606Y45866D02*
X99921D01*
X93032Y42205D02*
Y42520D01*
X92795Y32835D02*
Y33150D01*
X91614Y37165D02*
Y37480D01*
X96339Y46299D02*
Y46614D01*
X91732Y45787D02*
X92047D01*
X91968Y47598D02*
X92283D01*
X98268Y40039D02*
X98582D01*
X97480Y38464D02*
X97795D01*
X102283Y33189D02*
X102598D01*
X102205Y36260D02*
X102519D01*
X28802Y40544D02*
Y41056D01*
X75049Y71802D02*
Y71998D01*
D63*
X80079Y72181D02*
X87165D01*
X80079D02*
X87165D01*
X80079Y69819D02*
Y72181D01*
X87165Y69819D02*
Y72181D01*
X80079Y69819D02*
X87165D01*
X102079D02*
X109165D01*
Y72181D01*
X102079Y69819D02*
Y72181D01*
X109165D01*
X102079D02*
X109165D01*
X91079Y69819D02*
X98165D01*
Y72181D01*
X91079Y69819D02*
Y72181D01*
X98165D01*
X91079D02*
X98165D01*
X26986Y62305D02*
X27036Y62355D01*
Y62455D01*
X26986Y62505D01*
X26786D01*
X26736Y62455D01*
Y62355D01*
X26786Y62305D01*
X26736Y62205D02*
Y62105D01*
Y62155D01*
X27036D01*
X26986Y62205D01*
X26736Y61755D02*
Y61955D01*
X26936Y61755D01*
X26986D01*
X27036Y61805D01*
Y61905D01*
X26986Y61955D01*
X27036Y61455D02*
Y61655D01*
X26886D01*
X26936Y61555D01*
Y61505D01*
X26886Y61455D01*
X26786D01*
X26736Y61505D01*
Y61605D01*
X26786Y61655D01*
X31255Y40305D02*
X31305Y40355D01*
Y40455D01*
X31255Y40505D01*
X31055D01*
X31005Y40455D01*
Y40355D01*
X31055Y40305D01*
X31005Y40205D02*
Y40105D01*
Y40155D01*
X31305D01*
X31255Y40205D01*
X31005Y39755D02*
Y39955D01*
X31205Y39755D01*
X31255D01*
X31305Y39805D01*
Y39905D01*
X31255Y39955D01*
X31005Y39455D02*
Y39655D01*
X31205Y39455D01*
X31255D01*
X31305Y39505D01*
Y39605D01*
X31255Y39655D01*
X104200Y50300D02*
X104000D01*
Y50150D01*
X104100D01*
X104000D01*
Y50000D01*
X104300Y50300D02*
X104400D01*
X104350D01*
Y50000D01*
X104300D01*
X104400D01*
X104550Y50300D02*
Y50000D01*
X104700D01*
X104750Y50050D01*
Y50250D01*
X104700Y50300D01*
X104550D01*
X104850Y50000D02*
X104950D01*
X104900D01*
Y50300D01*
X104850Y50250D01*
X105300Y50000D02*
X105100D01*
X105300Y50200D01*
Y50250D01*
X105250Y50300D01*
X105150D01*
X105100Y50250D01*
X88595Y38105D02*
X88395D01*
Y37955D01*
X88495D01*
X88395D01*
Y37805D01*
X88695Y38105D02*
X88795D01*
X88745D01*
Y37805D01*
X88695D01*
X88795D01*
X88945Y38105D02*
Y37805D01*
X89095D01*
X89145Y37855D01*
Y38055D01*
X89095Y38105D01*
X88945D01*
X89245Y37805D02*
X89345D01*
X89295D01*
Y38105D01*
X89245Y38055D01*
X89495Y37805D02*
X89595D01*
X89545D01*
Y38105D01*
X89495Y38055D01*
X31595Y47105D02*
X31395D01*
Y46955D01*
X31495D01*
X31395D01*
Y46805D01*
X31695Y47105D02*
X31795D01*
X31745D01*
Y46805D01*
X31695D01*
X31795D01*
X31945Y47105D02*
Y46805D01*
X32095D01*
X32145Y46855D01*
Y47055D01*
X32095Y47105D01*
X31945D01*
X32245Y46805D02*
X32345D01*
X32295D01*
Y47105D01*
X32245Y47055D01*
X32495D02*
X32545Y47105D01*
X32645D01*
X32695Y47055D01*
Y46855D01*
X32645Y46805D01*
X32545D01*
X32495Y46855D01*
Y47055D01*
X154200Y37300D02*
X154000D01*
Y37150D01*
X154100D01*
X154000D01*
Y37000D01*
X154300Y37300D02*
X154400D01*
X154350D01*
Y37000D01*
X154300D01*
X154400D01*
X154550Y37300D02*
Y37000D01*
X154700D01*
X154750Y37050D01*
Y37250D01*
X154700Y37300D01*
X154550D01*
X154850Y37250D02*
X154900Y37300D01*
X155000D01*
X155050Y37250D01*
Y37200D01*
X155000Y37150D01*
X155050Y37100D01*
Y37050D01*
X155000Y37000D01*
X154900D01*
X154850Y37050D01*
Y37100D01*
X154900Y37150D01*
X154850Y37200D01*
Y37250D01*
X154900Y37150D02*
X155000D01*
X153200Y71300D02*
X153000D01*
Y71150D01*
X153100D01*
X153000D01*
Y71000D01*
X153300Y71300D02*
X153400D01*
X153350D01*
Y71000D01*
X153300D01*
X153400D01*
X153550Y71300D02*
Y71000D01*
X153700D01*
X153750Y71050D01*
Y71250D01*
X153700Y71300D01*
X153550D01*
X153850D02*
X154050D01*
Y71250D01*
X153850Y71050D01*
Y71000D01*
X98872Y46158D02*
X98922Y46208D01*
Y46308D01*
X98872Y46358D01*
X98672D01*
X98622Y46308D01*
Y46208D01*
X98672Y46158D01*
X98922Y45858D02*
X98872Y45958D01*
X98772Y46058D01*
X98672D01*
X98622Y46008D01*
Y45908D01*
X98672Y45858D01*
X98722D01*
X98772Y45908D01*
Y46058D01*
X98922Y45758D02*
Y45559D01*
X98872D01*
X98672Y45758D01*
X98622D01*
X99308Y43549D02*
X99358Y43499D01*
X99458D01*
X99508Y43549D01*
Y43749D01*
X99458Y43799D01*
X99358D01*
X99308Y43749D01*
X99008Y43499D02*
X99108Y43549D01*
X99208Y43649D01*
Y43749D01*
X99158Y43799D01*
X99058D01*
X99008Y43749D01*
Y43699D01*
X99058Y43649D01*
X99208D01*
X98908Y43549D02*
X98858Y43499D01*
X98758D01*
X98708Y43549D01*
Y43599D01*
X98758Y43649D01*
X98708Y43699D01*
Y43749D01*
X98758Y43799D01*
X98858D01*
X98908Y43749D01*
Y43699D01*
X98858Y43649D01*
X98908Y43599D01*
Y43549D01*
X98858Y43649D02*
X98758D01*
X93704Y46214D02*
X93654Y46264D01*
X93554D01*
X93504Y46214D01*
Y46015D01*
X93554Y45965D01*
X93654D01*
X93704Y46015D01*
X94004Y46264D02*
X93904Y46214D01*
X93804Y46115D01*
Y46015D01*
X93854Y45965D01*
X93954D01*
X94004Y46015D01*
Y46065D01*
X93954Y46115D01*
X93804D01*
X94104Y46015D02*
X94154Y45965D01*
X94254D01*
X94304Y46015D01*
Y46214D01*
X94254Y46264D01*
X94154D01*
X94104Y46214D01*
Y46164D01*
X94154Y46115D01*
X94304D01*
X96700Y48150D02*
X96650Y48100D01*
Y48000D01*
X96700Y47950D01*
X96900D01*
X96950Y48000D01*
Y48100D01*
X96900Y48150D01*
X96650Y48250D02*
Y48450D01*
X96700D01*
X96900Y48250D01*
X96950D01*
Y48750D02*
Y48550D01*
X96750Y48750D01*
X96700D01*
X96650Y48700D01*
Y48600D01*
X96700Y48550D01*
X96608Y44682D02*
X96658Y44732D01*
Y44832D01*
X96608Y44882D01*
X96408D01*
X96358Y44832D01*
Y44732D01*
X96408Y44682D01*
X96658Y44582D02*
Y44382D01*
X96608D01*
X96408Y44582D01*
X96358D01*
X96608Y44282D02*
X96658Y44232D01*
Y44132D01*
X96608Y44082D01*
X96558D01*
X96508Y44132D01*
Y44182D01*
Y44132D01*
X96458Y44082D01*
X96408D01*
X96358Y44132D01*
Y44232D01*
X96408Y44282D01*
X93852Y38638D02*
X93902Y38688D01*
Y38788D01*
X93852Y38838D01*
X93652D01*
X93602Y38788D01*
Y38688D01*
X93652Y38638D01*
X93902Y38538D02*
Y38338D01*
X93852D01*
X93652Y38538D01*
X93602D01*
X93902Y38038D02*
Y38238D01*
X93752D01*
X93802Y38138D01*
Y38088D01*
X93752Y38038D01*
X93652D01*
X93602Y38088D01*
Y38188D01*
X93652Y38238D01*
X93310Y44738D02*
X93260Y44788D01*
X93160D01*
X93110Y44738D01*
Y44538D01*
X93160Y44488D01*
X93260D01*
X93310Y44538D01*
X93410Y44788D02*
X93610D01*
Y44738D01*
X93410Y44538D01*
Y44488D01*
X93910Y44788D02*
X93810Y44738D01*
X93710Y44638D01*
Y44538D01*
X93760Y44488D01*
X93860D01*
X93910Y44538D01*
Y44588D01*
X93860Y44638D01*
X93710D01*
X92024Y39711D02*
X92074Y39661D01*
X92174D01*
X92224Y39711D01*
Y39911D01*
X92174Y39961D01*
X92074D01*
X92024Y39911D01*
X91925Y39661D02*
X91725D01*
Y39711D01*
X91925Y39911D01*
Y39961D01*
X91625Y39661D02*
X91425D01*
Y39711D01*
X91625Y39911D01*
Y39961D01*
X95180Y45722D02*
X95130Y45772D01*
X95030D01*
X94980Y45722D01*
Y45522D01*
X95030Y45472D01*
X95130D01*
X95180Y45522D01*
X95280Y45772D02*
X95480D01*
Y45722D01*
X95280Y45522D01*
Y45472D01*
X95580Y45722D02*
X95630Y45772D01*
X95730D01*
X95780Y45722D01*
Y45672D01*
X95730Y45622D01*
X95780Y45572D01*
Y45522D01*
X95730Y45472D01*
X95630D01*
X95580Y45522D01*
Y45572D01*
X95630Y45622D01*
X95580Y45672D01*
Y45722D01*
X95630Y45622D02*
X95730D01*
X100200Y42400D02*
X100150Y42450D01*
X100050D01*
X100000Y42400D01*
Y42200D01*
X100050Y42150D01*
X100150D01*
X100200Y42200D01*
X100300Y42450D02*
X100500D01*
Y42400D01*
X100300Y42200D01*
Y42150D01*
X100600Y42200D02*
X100650Y42150D01*
X100750D01*
X100800Y42200D01*
Y42400D01*
X100750Y42450D01*
X100650D01*
X100600Y42400D01*
Y42350D01*
X100650Y42300D01*
X100800D01*
X93307Y37534D02*
X93357Y37484D01*
X93457D01*
X93507Y37534D01*
Y37733D01*
X93457Y37783D01*
X93357D01*
X93307Y37733D01*
X93207Y37534D02*
X93157Y37484D01*
X93057D01*
X93007Y37534D01*
Y37584D01*
X93057Y37634D01*
X93007Y37683D01*
Y37733D01*
X93057Y37783D01*
X93157D01*
X93207Y37733D01*
Y37683D01*
X93157Y37634D01*
X93207Y37584D01*
Y37534D01*
X93157Y37634D02*
X93057D01*
X92907Y37534D02*
X92857Y37484D01*
X92757D01*
X92707Y37534D01*
Y37733D01*
X92757Y37783D01*
X92857D01*
X92907Y37733D01*
Y37534D01*
X97444Y46608D02*
X97394Y46658D01*
X97294D01*
X97244Y46608D01*
Y46408D01*
X97294Y46358D01*
X97394D01*
X97444Y46408D01*
X97544Y46608D02*
X97594Y46658D01*
X97694D01*
X97744Y46608D01*
Y46558D01*
X97694Y46508D01*
X97744Y46458D01*
Y46408D01*
X97694Y46358D01*
X97594D01*
X97544Y46408D01*
Y46458D01*
X97594Y46508D01*
X97544Y46558D01*
Y46608D01*
X97594Y46508D02*
X97694D01*
X97844Y46358D02*
X97944D01*
X97894D01*
Y46658D01*
X97844Y46608D01*
X95076Y37545D02*
X95126Y37495D01*
X95226D01*
X95276Y37545D01*
Y37745D01*
X95226Y37795D01*
X95126D01*
X95076Y37745D01*
X94976Y37545D02*
X94926Y37495D01*
X94826D01*
X94776Y37545D01*
Y37595D01*
X94826Y37645D01*
X94776Y37695D01*
Y37745D01*
X94826Y37795D01*
X94926D01*
X94976Y37745D01*
Y37695D01*
X94926Y37645D01*
X94976Y37595D01*
Y37545D01*
X94926Y37645D02*
X94826D01*
X94476Y37795D02*
X94676D01*
X94476Y37595D01*
Y37545D01*
X94526Y37495D01*
X94626D01*
X94676Y37545D01*
X89809Y39570D02*
X89759Y39520D01*
Y39420D01*
X89809Y39370D01*
X90009D01*
X90059Y39420D01*
Y39520D01*
X90009Y39570D01*
X89809Y39670D02*
X89759Y39720D01*
Y39820D01*
X89809Y39870D01*
X89859D01*
X89909Y39820D01*
X89959Y39870D01*
X90009D01*
X90059Y39820D01*
Y39720D01*
X90009Y39670D01*
X89959D01*
X89909Y39720D01*
X89859Y39670D01*
X89809D01*
X89909Y39720D02*
Y39820D01*
X89809Y39970D02*
X89759Y40020D01*
Y40120D01*
X89809Y40170D01*
X89859D01*
X89909Y40120D01*
Y40070D01*
Y40120D01*
X89959Y40170D01*
X90009D01*
X90059Y40120D01*
Y40020D01*
X90009Y39970D01*
X98724Y46214D02*
X98674Y46264D01*
X98574D01*
X98524Y46214D01*
Y46015D01*
X98574Y45965D01*
X98674D01*
X98724Y46015D01*
X98824Y46214D02*
X98874Y46264D01*
X98973D01*
X99023Y46214D01*
Y46164D01*
X98973Y46115D01*
X99023Y46065D01*
Y46015D01*
X98973Y45965D01*
X98874D01*
X98824Y46015D01*
Y46065D01*
X98874Y46115D01*
X98824Y46164D01*
Y46214D01*
X98874Y46115D02*
X98973D01*
X99273Y45965D02*
Y46264D01*
X99123Y46115D01*
X99323D01*
X97143Y42762D02*
X97193Y42712D01*
X97293D01*
X97343Y42762D01*
Y42962D01*
X97293Y43012D01*
X97193D01*
X97143Y42962D01*
X97043Y42762D02*
X96993Y42712D01*
X96893D01*
X96843Y42762D01*
Y42812D01*
X96893Y42862D01*
X96843Y42912D01*
Y42962D01*
X96893Y43012D01*
X96993D01*
X97043Y42962D01*
Y42912D01*
X96993Y42862D01*
X97043Y42812D01*
Y42762D01*
X96993Y42862D02*
X96893D01*
X96543Y42712D02*
X96743D01*
Y42862D01*
X96643Y42812D01*
X96593D01*
X96543Y42862D01*
Y42962D01*
X96593Y43012D01*
X96693D01*
X96743Y42962D01*
X98625Y44640D02*
X98575Y44690D01*
X98475D01*
X98425Y44640D01*
Y44440D01*
X98475Y44390D01*
X98575D01*
X98625Y44440D01*
X98725Y44640D02*
X98775Y44690D01*
X98875D01*
X98925Y44640D01*
Y44590D01*
X98875Y44540D01*
X98925Y44490D01*
Y44440D01*
X98875Y44390D01*
X98775D01*
X98725Y44440D01*
Y44490D01*
X98775Y44540D01*
X98725Y44590D01*
Y44640D01*
X98775Y44540D02*
X98875D01*
X99225Y44690D02*
X99125Y44640D01*
X99025Y44540D01*
Y44440D01*
X99075Y44390D01*
X99175D01*
X99225Y44440D01*
Y44490D01*
X99175Y44540D01*
X99025D01*
X92762Y47838D02*
X92712Y47788D01*
Y47688D01*
X92762Y47638D01*
X92962D01*
X93012Y47688D01*
Y47788D01*
X92962Y47838D01*
X92762Y47938D02*
X92712Y47988D01*
Y48088D01*
X92762Y48138D01*
X92812D01*
X92862Y48088D01*
X92912Y48138D01*
X92962D01*
X93012Y48088D01*
Y47988D01*
X92962Y47938D01*
X92912D01*
X92862Y47988D01*
X92812Y47938D01*
X92762D01*
X92862Y47988D02*
Y48088D01*
X92712Y48238D02*
Y48438D01*
X92762D01*
X92962Y48238D01*
X93012D01*
X93459Y41139D02*
X93509Y41189D01*
Y41289D01*
X93459Y41339D01*
X93259D01*
X93209Y41289D01*
Y41189D01*
X93259Y41139D01*
X93459Y41039D02*
X93509Y40989D01*
Y40889D01*
X93459Y40839D01*
X93409D01*
X93359Y40889D01*
X93309Y40839D01*
X93259D01*
X93209Y40889D01*
Y40989D01*
X93259Y41039D01*
X93309D01*
X93359Y40989D01*
X93409Y41039D01*
X93459D01*
X93359Y40989D02*
Y40889D01*
X93459Y40739D02*
X93509Y40689D01*
Y40589D01*
X93459Y40539D01*
X93409D01*
X93359Y40589D01*
X93309Y40539D01*
X93259D01*
X93209Y40589D01*
Y40689D01*
X93259Y40739D01*
X93309D01*
X93359Y40689D01*
X93409Y40739D01*
X93459D01*
X93359Y40689D02*
Y40589D01*
X91344Y41519D02*
X91294Y41469D01*
Y41369D01*
X91344Y41319D01*
X91544D01*
X91594Y41369D01*
Y41469D01*
X91544Y41519D01*
X91344Y41619D02*
X91294Y41669D01*
Y41769D01*
X91344Y41819D01*
X91394D01*
X91444Y41769D01*
X91494Y41819D01*
X91544D01*
X91594Y41769D01*
Y41669D01*
X91544Y41619D01*
X91494D01*
X91444Y41669D01*
X91394Y41619D01*
X91344D01*
X91444Y41669D02*
Y41769D01*
X91544Y41919D02*
X91594Y41969D01*
Y42069D01*
X91544Y42119D01*
X91344D01*
X91294Y42069D01*
Y41969D01*
X91344Y41919D01*
X91394D01*
X91444Y41969D01*
Y42119D01*
X98625Y42474D02*
X98575Y42524D01*
X98475D01*
X98425Y42474D01*
Y42274D01*
X98475Y42224D01*
X98575D01*
X98625Y42274D01*
X98725D02*
X98775Y42224D01*
X98875D01*
X98925Y42274D01*
Y42474D01*
X98875Y42524D01*
X98775D01*
X98725Y42474D01*
Y42424D01*
X98775Y42374D01*
X98925D01*
X99025Y42474D02*
X99075Y42524D01*
X99175D01*
X99225Y42474D01*
Y42274D01*
X99175Y42224D01*
X99075D01*
X99025Y42274D01*
Y42474D01*
X90301Y47149D02*
X90251Y47099D01*
Y46999D01*
X90301Y46949D01*
X90501D01*
X90551Y46999D01*
Y47099D01*
X90501Y47149D01*
Y47249D02*
X90551Y47299D01*
Y47399D01*
X90501Y47449D01*
X90301D01*
X90251Y47399D01*
Y47299D01*
X90301Y47249D01*
X90351D01*
X90401Y47299D01*
Y47449D01*
X90551Y47549D02*
Y47649D01*
Y47599D01*
X90251D01*
X90301Y47549D01*
X91884Y43304D02*
X91934Y43354D01*
Y43454D01*
X91884Y43504D01*
X91684D01*
X91634Y43454D01*
Y43354D01*
X91684Y43304D01*
Y43204D02*
X91634Y43154D01*
Y43054D01*
X91684Y43004D01*
X91884D01*
X91934Y43054D01*
Y43154D01*
X91884Y43204D01*
X91834D01*
X91784Y43154D01*
Y43004D01*
X91634Y42704D02*
Y42904D01*
X91834Y42704D01*
X91884D01*
X91934Y42754D01*
Y42854D01*
X91884Y42904D01*
X90998Y41532D02*
X91048Y41582D01*
Y41682D01*
X90998Y41732D01*
X90798D01*
X90748Y41682D01*
Y41582D01*
X90798Y41532D01*
Y41432D02*
X90748Y41382D01*
Y41282D01*
X90798Y41232D01*
X90998D01*
X91048Y41282D01*
Y41382D01*
X90998Y41432D01*
X90948D01*
X90898Y41382D01*
Y41232D01*
X90998Y41132D02*
X91048Y41082D01*
Y40983D01*
X90998Y40933D01*
X90948D01*
X90898Y40983D01*
Y41033D01*
Y40983D01*
X90848Y40933D01*
X90798D01*
X90748Y40983D01*
Y41082D01*
X90798Y41132D01*
X137865Y38134D02*
X137815Y38184D01*
X137715D01*
X137665Y38134D01*
Y37934D01*
X137715Y37884D01*
X137815D01*
X137865Y37934D01*
X138165Y38184D02*
X138065Y38134D01*
X137965Y38034D01*
Y37934D01*
X138015Y37884D01*
X138115D01*
X138165Y37934D01*
Y37984D01*
X138115Y38034D01*
X137965D01*
X138465Y37884D02*
X138265D01*
X138465Y38084D01*
Y38134D01*
X138415Y38184D01*
X138315D01*
X138265Y38134D01*
X76396Y72451D02*
X76346Y72501D01*
X76246D01*
X76196Y72451D01*
Y72251D01*
X76246Y72201D01*
X76346D01*
X76396Y72251D01*
X76695Y72501D02*
X76596Y72451D01*
X76496Y72351D01*
Y72251D01*
X76546Y72201D01*
X76646D01*
X76695Y72251D01*
Y72301D01*
X76646Y72351D01*
X76496D01*
X76995Y72501D02*
X76795D01*
Y72351D01*
X76895Y72401D01*
X76945D01*
X76995Y72351D01*
Y72251D01*
X76945Y72201D01*
X76845D01*
X76795Y72251D01*
X87805Y69685D02*
Y69785D01*
Y69735D01*
X87555D01*
X87505Y69785D01*
Y69835D01*
X87555Y69885D01*
X87505Y69585D02*
Y69485D01*
Y69535D01*
X87805D01*
X87755Y69585D01*
X98650Y69733D02*
Y69833D01*
Y69783D01*
X98400D01*
X98350Y69833D01*
Y69883D01*
X98400Y69933D01*
X98350Y69433D02*
Y69633D01*
X98550Y69433D01*
X98600D01*
X98650Y69483D01*
Y69583D01*
X98600Y69633D01*
X109613Y69733D02*
Y69833D01*
Y69783D01*
X109363D01*
X109313Y69833D01*
Y69883D01*
X109363Y69933D01*
X109563Y69633D02*
X109613Y69583D01*
Y69483D01*
X109563Y69433D01*
X109513D01*
X109463Y69483D01*
Y69533D01*
Y69483D01*
X109413Y69433D01*
X109363D01*
X109313Y69483D01*
Y69583D01*
X109363Y69633D01*
X44707Y73251D02*
Y72951D01*
X44557D01*
X44507Y73001D01*
Y73101D01*
X44557Y73151D01*
X44707D01*
X44207Y73251D02*
X44407D01*
X44207Y73051D01*
Y73001D01*
X44257Y72951D01*
X44357D01*
X44407Y73001D01*
X76629Y76477D02*
Y76777D01*
X76779D01*
X76829Y76727D01*
Y76627D01*
X76779Y76577D01*
X76629D01*
X76929Y76727D02*
X76979Y76777D01*
X77079D01*
X77129Y76727D01*
Y76677D01*
X77079Y76627D01*
X77029D01*
X77079D01*
X77129Y76577D01*
Y76527D01*
X77079Y76477D01*
X76979D01*
X76929Y76527D01*
X87623Y76477D02*
Y76777D01*
X87773D01*
X87823Y76727D01*
Y76627D01*
X87773Y76577D01*
X87623D01*
X88073Y76477D02*
Y76777D01*
X87923Y76627D01*
X88123D01*
X98687Y76466D02*
Y76766D01*
X98837D01*
X98887Y76716D01*
Y76616D01*
X98837Y76566D01*
X98687D01*
X99187Y76766D02*
X98987D01*
Y76616D01*
X99087Y76666D01*
X99137D01*
X99187Y76616D01*
Y76516D01*
X99137Y76466D01*
X99037D01*
X98987Y76516D01*
X92474Y42517D02*
X92524Y42567D01*
Y42667D01*
X92474Y42717D01*
X92274D01*
X92224Y42667D01*
Y42567D01*
X92274Y42517D01*
X92224Y42417D02*
Y42317D01*
Y42367D01*
X92524D01*
X92474Y42417D01*
Y42167D02*
X92524Y42117D01*
Y42017D01*
X92474Y41967D01*
X92274D01*
X92224Y42017D01*
Y42117D01*
X92274Y42167D01*
X92474D01*
X92224Y41717D02*
X92524D01*
X92374Y41867D01*
Y41667D01*
X98577Y47339D02*
X98627Y47389D01*
Y47489D01*
X98577Y47539D01*
X98377D01*
X98327Y47489D01*
Y47389D01*
X98377Y47339D01*
X98327Y47239D02*
Y47140D01*
Y47189D01*
X98627D01*
X98577Y47239D01*
Y46990D02*
X98627Y46940D01*
Y46840D01*
X98577Y46790D01*
X98377D01*
X98327Y46840D01*
Y46940D01*
X98377Y46990D01*
X98577D01*
X98627Y46490D02*
Y46690D01*
X98477D01*
X98527Y46590D01*
Y46540D01*
X98477Y46490D01*
X98377D01*
X98327Y46540D01*
Y46640D01*
X98377Y46690D01*
X100495Y46214D02*
X100445Y46264D01*
X100345D01*
X100295Y46214D01*
Y46015D01*
X100345Y45965D01*
X100445D01*
X100495Y46015D01*
X100595Y45965D02*
X100695D01*
X100645D01*
Y46264D01*
X100595Y46214D01*
X100845D02*
X100895Y46264D01*
X100995D01*
X101045Y46214D01*
Y46015D01*
X100995Y45965D01*
X100895D01*
X100845Y46015D01*
Y46214D01*
X101345Y46264D02*
X101245Y46214D01*
X101145Y46115D01*
Y46015D01*
X101195Y45965D01*
X101295D01*
X101345Y46015D01*
Y46065D01*
X101295Y46115D01*
X101145D01*
X91217Y42697D02*
X91167Y42647D01*
Y42547D01*
X91217Y42497D01*
X91417D01*
X91467Y42547D01*
Y42647D01*
X91417Y42697D01*
X91467Y42797D02*
Y42897D01*
Y42847D01*
X91167D01*
X91217Y42797D01*
Y43047D02*
X91167Y43097D01*
Y43197D01*
X91217Y43247D01*
X91417D01*
X91467Y43197D01*
Y43097D01*
X91417Y43047D01*
X91217D01*
X91167Y43347D02*
Y43547D01*
X91217D01*
X91417Y43347D01*
X91467D01*
X94137Y33537D02*
X94087Y33587D01*
X93987D01*
X93937Y33537D01*
Y33337D01*
X93987Y33287D01*
X94087D01*
X94137Y33337D01*
X94237Y33287D02*
X94337D01*
X94287D01*
Y33587D01*
X94237Y33537D01*
X94487D02*
X94537Y33587D01*
X94637D01*
X94687Y33537D01*
Y33337D01*
X94637Y33287D01*
X94537D01*
X94487Y33337D01*
Y33537D01*
X94787D02*
X94837Y33587D01*
X94937D01*
X94986Y33537D01*
Y33487D01*
X94937Y33437D01*
X94986Y33387D01*
Y33337D01*
X94937Y33287D01*
X94837D01*
X94787Y33337D01*
Y33387D01*
X94837Y33437D01*
X94787Y33487D01*
Y33537D01*
X94837Y33437D02*
X94937D01*
X90253Y36758D02*
X90303Y36708D01*
X90403D01*
X90453Y36758D01*
Y36958D01*
X90403Y37008D01*
X90303D01*
X90253Y36958D01*
X90153Y37008D02*
X90053D01*
X90103D01*
Y36708D01*
X90153Y36758D01*
X89903D02*
X89853Y36708D01*
X89753D01*
X89703Y36758D01*
Y36958D01*
X89753Y37008D01*
X89853D01*
X89903Y36958D01*
Y36758D01*
X89603Y36958D02*
X89553Y37008D01*
X89453D01*
X89403Y36958D01*
Y36758D01*
X89453Y36708D01*
X89553D01*
X89603Y36758D01*
Y36808D01*
X89553Y36858D01*
X89403D01*
X96361Y47100D02*
X96311Y47150D01*
X96211D01*
X96161Y47100D01*
Y46900D01*
X96211Y46850D01*
X96311D01*
X96361Y46900D01*
X96461Y46850D02*
X96561D01*
X96511D01*
Y47150D01*
X96461Y47100D01*
X96711Y46850D02*
X96811D01*
X96761D01*
Y47150D01*
X96711Y47100D01*
X96961D02*
X97011Y47150D01*
X97111D01*
X97161Y47100D01*
Y46900D01*
X97111Y46850D01*
X97011D01*
X96961Y46900D01*
Y47100D01*
X91187Y45869D02*
X91137Y45819D01*
Y45719D01*
X91187Y45669D01*
X91387D01*
X91437Y45719D01*
Y45819D01*
X91387Y45869D01*
X91437Y45969D02*
Y46069D01*
Y46019D01*
X91137D01*
X91187Y45969D01*
X91437Y46219D02*
Y46319D01*
Y46269D01*
X91137D01*
X91187Y46219D01*
X91437Y46619D02*
X91137D01*
X91287Y46469D01*
Y46669D01*
X92818Y47986D02*
X92768Y48036D01*
X92668D01*
X92618Y47986D01*
Y47786D01*
X92668Y47736D01*
X92768D01*
X92818Y47786D01*
X92918Y47736D02*
X93018D01*
X92968D01*
Y48036D01*
X92918Y47986D01*
X93168Y47736D02*
X93268D01*
X93218D01*
Y48036D01*
X93168Y47986D01*
X93618Y48036D02*
X93418D01*
Y47886D01*
X93518Y47936D01*
X93568D01*
X93618Y47886D01*
Y47786D01*
X93568Y47736D01*
X93468D01*
X93418Y47786D01*
X127260Y38340D02*
X127210Y38390D01*
X127110D01*
X127060Y38340D01*
Y38140D01*
X127110Y38090D01*
X127210D01*
X127260Y38140D01*
X127560Y38390D02*
X127460Y38340D01*
X127360Y38240D01*
Y38140D01*
X127410Y38090D01*
X127510D01*
X127560Y38140D01*
Y38190D01*
X127510Y38240D01*
X127360D01*
X127660Y38090D02*
X127760D01*
X127710D01*
Y38390D01*
X127660Y38340D01*
X96880Y40860D02*
X96830Y40910D01*
X96730D01*
X96680Y40860D01*
Y40660D01*
X96730Y40610D01*
X96830D01*
X96880Y40660D01*
X96980Y40610D02*
X97080D01*
X97030D01*
Y40910D01*
X96980Y40860D01*
X97430Y40610D02*
X97230D01*
X97430Y40810D01*
Y40860D01*
X97380Y40910D01*
X97280D01*
X97230Y40860D01*
X97530D02*
X97580Y40910D01*
X97680D01*
X97730Y40860D01*
Y40810D01*
X97680Y40760D01*
X97730Y40710D01*
Y40660D01*
X97680Y40610D01*
X97580D01*
X97530Y40660D01*
Y40710D01*
X97580Y40760D01*
X97530Y40810D01*
Y40860D01*
X97580Y40760D02*
X97680D01*
X99000Y40200D02*
X99050Y40250D01*
Y40350D01*
X99000Y40400D01*
X98800D01*
X98750Y40350D01*
Y40250D01*
X98800Y40200D01*
X98750Y40100D02*
Y40000D01*
Y40050D01*
X99050D01*
X99000Y40100D01*
X98750Y39650D02*
Y39850D01*
X98950Y39650D01*
X99000D01*
X99050Y39700D01*
Y39800D01*
X99000Y39850D01*
X98800Y39550D02*
X98750Y39500D01*
Y39400D01*
X98800Y39350D01*
X99000D01*
X99050Y39400D01*
Y39500D01*
X99000Y39550D01*
X98950D01*
X98900Y39500D01*
Y39350D01*
X99470Y40540D02*
X99420Y40590D01*
X99320D01*
X99270Y40540D01*
Y40340D01*
X99320Y40290D01*
X99420D01*
X99470Y40340D01*
X99570Y40290D02*
X99670D01*
X99620D01*
Y40590D01*
X99570Y40540D01*
X99820D02*
X99870Y40590D01*
X99970D01*
X100020Y40540D01*
Y40490D01*
X99970Y40440D01*
X99920D01*
X99970D01*
X100020Y40390D01*
Y40340D01*
X99970Y40290D01*
X99870D01*
X99820Y40340D01*
X100120Y40540D02*
X100170Y40590D01*
X100270D01*
X100320Y40540D01*
Y40340D01*
X100270Y40290D01*
X100170D01*
X100120Y40340D01*
Y40540D01*
X98350Y36900D02*
X98400Y36950D01*
Y37050D01*
X98350Y37100D01*
X98150D01*
X98100Y37050D01*
Y36950D01*
X98150Y36900D01*
X98100Y36800D02*
Y36700D01*
Y36750D01*
X98400D01*
X98350Y36800D01*
Y36550D02*
X98400Y36500D01*
Y36400D01*
X98350Y36350D01*
X98300D01*
X98250Y36400D01*
Y36450D01*
Y36400D01*
X98200Y36350D01*
X98150D01*
X98100Y36400D01*
Y36500D01*
X98150Y36550D01*
X98100Y36250D02*
Y36150D01*
Y36200D01*
X98400D01*
X98350Y36250D01*
X101600Y41450D02*
X101550Y41500D01*
X101450D01*
X101400Y41450D01*
Y41250D01*
X101450Y41200D01*
X101550D01*
X101600Y41250D01*
X101700Y41200D02*
X101800D01*
X101750D01*
Y41500D01*
X101700Y41450D01*
X101950D02*
X102000Y41500D01*
X102100D01*
X102150Y41450D01*
Y41400D01*
X102100Y41350D01*
X102050D01*
X102100D01*
X102150Y41300D01*
Y41250D01*
X102100Y41200D01*
X102000D01*
X101950Y41250D01*
X102450Y41200D02*
X102250D01*
X102450Y41400D01*
Y41450D01*
X102400Y41500D01*
X102300D01*
X102250Y41450D01*
X105050Y35200D02*
X105000Y35250D01*
X104900D01*
X104850Y35200D01*
Y35000D01*
X104900Y34950D01*
X105000D01*
X105050Y35000D01*
X105150Y34950D02*
X105250D01*
X105200D01*
Y35250D01*
X105150Y35200D01*
X105400D02*
X105450Y35250D01*
X105550D01*
X105600Y35200D01*
Y35150D01*
X105550Y35100D01*
X105500D01*
X105550D01*
X105600Y35050D01*
Y35000D01*
X105550Y34950D01*
X105450D01*
X105400Y35000D01*
X105900Y35250D02*
X105800Y35200D01*
X105700Y35100D01*
Y35000D01*
X105750Y34950D01*
X105850D01*
X105900Y35000D01*
Y35050D01*
X105850Y35100D01*
X105700D01*
X101750Y34450D02*
X101700Y34400D01*
Y34300D01*
X101750Y34250D01*
X101950D01*
X102000Y34300D01*
Y34400D01*
X101950Y34450D01*
X102000Y34550D02*
Y34650D01*
Y34600D01*
X101700D01*
X101750Y34550D01*
Y34800D02*
X101700Y34850D01*
Y34950D01*
X101750Y35000D01*
X101800D01*
X101850Y34950D01*
Y34900D01*
Y34950D01*
X101900Y35000D01*
X101950D01*
X102000Y34950D01*
Y34850D01*
X101950Y34800D01*
X101700Y35100D02*
Y35300D01*
X101750D01*
X101950Y35100D01*
X102000D01*
X105600Y33300D02*
X105550Y33350D01*
X105450D01*
X105400Y33300D01*
Y33100D01*
X105450Y33050D01*
X105550D01*
X105600Y33100D01*
X105700Y33050D02*
X105800D01*
X105750D01*
Y33350D01*
X105700Y33300D01*
X105950D02*
X106000Y33350D01*
X106100D01*
X106150Y33300D01*
Y33250D01*
X106100Y33200D01*
X106050D01*
X106100D01*
X106150Y33150D01*
Y33100D01*
X106100Y33050D01*
X106000D01*
X105950Y33100D01*
X106250Y33300D02*
X106300Y33350D01*
X106400D01*
X106450Y33300D01*
Y33250D01*
X106400Y33200D01*
X106450Y33150D01*
Y33100D01*
X106400Y33050D01*
X106300D01*
X106250Y33100D01*
Y33150D01*
X106300Y33200D01*
X106250Y33250D01*
Y33300D01*
X106300Y33200D02*
X106400D01*
X101650Y36400D02*
X101600Y36350D01*
Y36250D01*
X101650Y36200D01*
X101850D01*
X101900Y36250D01*
Y36350D01*
X101850Y36400D01*
X101900Y36500D02*
Y36600D01*
Y36550D01*
X101600D01*
X101650Y36500D01*
Y36750D02*
X101600Y36800D01*
Y36900D01*
X101650Y36950D01*
X101700D01*
X101750Y36900D01*
Y36850D01*
Y36900D01*
X101800Y36950D01*
X101850D01*
X101900Y36900D01*
Y36800D01*
X101850Y36750D01*
Y37050D02*
X101900Y37100D01*
Y37200D01*
X101850Y37250D01*
X101650D01*
X101600Y37200D01*
Y37100D01*
X101650Y37050D01*
X101700D01*
X101750Y37100D01*
Y37250D01*
X42795Y36155D02*
X42745Y36205D01*
X42645D01*
X42595Y36155D01*
Y35955D01*
X42645Y35905D01*
X42745D01*
X42795Y35955D01*
X42895Y35905D02*
X42995D01*
X42945D01*
Y36205D01*
X42895Y36155D01*
X43345Y35905D02*
X43145D01*
X43345Y36105D01*
Y36155D01*
X43295Y36205D01*
X43195D01*
X43145Y36155D01*
X43445Y35905D02*
X43545D01*
X43495D01*
Y36205D01*
X43445Y36155D01*
M02*
