M48
;Layer_Color=15461320
;FILE_FORMAT=2:4
INCH,LZ
;TYPE=PLATED
T1F00S00C0.0100
T2F00S00C0.0118
T3F00S00C0.0200
T4F00S00C0.0250
T5F00S00C0.0350
T6F00S00C0.0354
T7F00S00C0.0394
T8F00S00C0.0531
T9F00S00C0.0550
T10F00S00C0.0709
T11F00S00C0.0906
T12F00S00C0.0984
T13F00S00C0.1100
T14F00S00C0.1400
%
T01
X103713Y030815
X105248Y030878
X106227Y03086
X106772Y030866
X107552Y030859
X109331Y030827
X093701Y038189
X093307Y038189
Y038583
X093701
X093701Y038976
Y03937
Y040157
X092913
Y040551
X092927Y03975
X092913Y03937
Y038583
Y038189
X09252
Y038583
X092126Y038189
X091732
X091732Y037756
X092126Y037795
X091339Y037913
X091063Y037992
X092126Y03937
X093307Y041339
X092913Y04252
Y042913
X09252Y043307
Y044094
X092126
X091772Y044055
X091181Y044094
X09122Y044449
X092126Y045276
X09252Y045276
X092913
X093307
X093307Y045669
Y046457
X092874Y046102
X092323Y046496
X092126Y045669
X092913Y044882
X093701Y042913
X08748Y043465
X087244Y044331
X094094Y044094
X094094Y043701
X094488
Y044094
X094882Y043701
X095276
X095669
X096457
X09685
X097244
X097638
Y044094
Y044488
X097244
X096457
X09685Y044094
X09685Y044882
X09685Y045276
X096456Y045276
X096457Y045669
X096063Y044882
X095669Y045276
X094882Y044882
X094488
X093898Y046142
X094094Y043307
Y042913
Y04252
Y042126
Y041339
Y040945
Y040551
Y040157
X094094Y039764
X094488
Y03937
Y038976
X094094
Y03937
Y038583
Y038189
X094488Y038189
X094882
Y038583
Y038976
X095276
X095669
Y038583
X095276
Y038189
X095669Y038189
X096063Y038189
Y038583
Y038976
X096457
Y03937
X09685
X097244
X097638
Y039764
X097244
X09685
X096457
X095669
X095276
X094882
X095669Y03937
X09685Y038976
X097244
Y038583
X09685Y038583
Y038189
X096457Y038189
Y038583
X097638Y038583
X098032
X098425
X098819
Y038189
X098425
X098032
X097638
Y038976
X097992
X098425
X098819
X099212Y038976
X099199Y03975
X099606Y039764
Y03937
X100354Y039409
X100748Y039449
X101063Y039252
X100905Y037992
X101299Y038031
X100394Y037402
X1Y037795
X099606Y037795
X099213Y038189
X099606Y038583
X098425Y03937
X098032
Y039764
Y040157
Y040551
X098032Y040945
X098425
X099213
Y040551
X098425Y040157
X098032Y041732
Y042126
Y04252
Y042913
Y043307
Y043701
X098425Y043307
X099213
X099606Y043701
X099606Y044094
X1Y044094
X100394
X100709Y043937
X101142Y044094
X101457Y044764
X100394Y045276
X1Y045276
X1Y045669
X099606
X099606Y045276
X099213Y045276
X098819Y045276
X098425
X098032
Y044882
X097638
Y045276
X098425Y044882
X098819
Y044488
X098425
X099213Y044882
X099606Y044882
X099882Y04622
X100315Y045984
X099496Y046701
X099094Y046732
X098228Y046181
X09685Y046654
X098819Y042126
X099213Y04252
X098228Y037362
X098543Y036181
X09685
X093898Y037047
X094488Y038583
X102582Y037031
X102953Y037126
X103425
X104016
X104803Y037205
X105236Y037165
X105787
X106535Y037087
X107165Y037165
X107552Y037133
X107913Y037205
X108701Y037165
X109343Y037178
X10878Y036024
X109213Y034685
X108575Y034378
X108319Y0342
X108063Y034023
X108831Y03391
X107296Y03424
X10704Y033984
X10576Y034122
X105504Y033826
X104737Y032862
X104481Y032567
X104225Y032389
X103969Y032252
X103344Y031966
X102945Y032173
X10241Y031409
X105039Y031969
X106016Y032015
X107807Y031956
X109087Y032
X102634Y034728
X101443Y034344
X109528Y034331
X110079Y034213
X110213Y03396
X110213Y033448
X111417Y033425
X111339Y03437
X11126Y034724
X111378Y035079
X111374Y035752
X111414Y036263
X111322Y036519
X11Y036457
X109961Y036772
X109921Y037205
X109882Y035315
X110157Y032165
X110363Y031409
X098898Y047008
X098425Y046968
X098346Y047244
X098228Y04752
X097244Y047205
X097047Y046968
X097008Y047795
X097126Y053543
Y053898
Y059094
X097086Y06
X10189Y056378
X102244Y056063
X102559Y05563
X102874Y055591
X103228Y055472
X103583Y055315
X103937
X091535Y056732
X091732Y056929
X091929Y057126
X092087Y057362
X092283Y057598
X092402Y057992
X091299Y056496
X089252Y050906
X089409Y048661
X086535Y048898
X077086Y068149
X075715Y068353
X075512Y067913
X074165Y06826
X073622Y067913
X073858Y068937
X072602Y068583
X07122Y068071
X069764Y071102
X072756Y073268
X07378Y073228
X074409Y073543
X075161Y07398
X074094Y072008
X064488Y071181
X064055Y071457
X063543Y073622
X0841Y07061
X0846Y07056
X0856Y07073
X0861Y07068
X085039Y066063
X092709Y064574
X09333Y07056
X09378Y07065
X094799Y070499
X09477Y07002
X096614Y065591
X09689Y064764
X116378Y06874
X124488Y068701
T02
X094882Y040551
X095276
X095669
X096063
X096457
X09685
Y040945
Y041339
Y041732
Y042126
Y04252
Y042913
X097244
Y04252
Y042126
Y041732
Y041339
Y040945
Y040551
X096457Y040945
Y041339
Y041732
Y042126
Y04252
Y042913
X096063
Y04252
Y042126
Y041732
Y041339
Y040945
X095669
Y041339
Y041732
Y042126
Y04252
Y042913
X095276
Y04252
Y042126
Y041732
Y041339
Y040945
X094882
Y041339
Y041732
Y042126
Y04252
Y042913
T03
X031811Y040945
X03185Y042638
X035787Y042717
Y040866
X052992Y035827
X053892
X054792
X055692
X056592
Y034927
X055692
X054792
X053892
X052992
Y034027
X053892
X054792
X055692
X056592
Y033127
X055692
X054792
X053892
X052992
Y032227
X053892
X054792
X055692
X056592
X06055Y032127
X06248Y032126
X061654Y033504
X061693Y034173
X061725Y03481
X061683Y03625
X060039Y035984
X063222Y035951
X06334Y03481
X080079Y035984
X08374
X083701Y043898
X082598Y04559
X086102Y045551
X087638Y043898
X103189Y043543
X102323Y045787
X106732Y043976
X101338Y03126
X097756Y031339
X11275Y033588
X112716Y037244
X122638Y034527
X123937Y033661
X129082Y0345
X140964Y057795
X142382Y058583
Y059567
Y060551
X142421Y061575
X144586Y062047
X144626Y061063
X144586Y060079
X144567Y059074
X146456Y057835
X148464Y057795
X149882Y058583
Y059567
Y060551
X149921Y061575
X152086Y062047
X152126Y061063
X152086Y060079
X152067Y059074
X153976Y059803
X154015Y057795
X146535Y061338
X139035
X137126Y061063
X137086Y062047
Y060079
X137067Y059074
X134882Y058583
Y059567
Y060551
X134921Y061575
X131535Y061338
X129626Y061063
X129586Y062047
Y060079
X129567Y059074
X127382Y058583
Y059567
Y060551
X127421Y061575
X125964Y057795
X131456Y057835
X133464Y057795
X138956Y057835
X123956
X122124Y059055
X122143Y06006
X122182Y061044
X122143Y062028
X124035Y061338
X119978Y061556
X119938Y060532
Y059548
Y058564
X118464Y057795
X116456Y057835
X114567Y059074
X114586Y060079
X114626Y061063
X114586Y062047
X112421Y061575
X112382Y060551
Y059567
Y058583
X110964Y057795
X116535Y061338
X109035
X107126Y061063
X107086Y060079
X107067Y059074
X104882Y058583
Y059567
Y060551
X104921Y061575
X107086Y062047
X108956Y057835
X103464Y057795
X101456Y057835
X099567Y059074
X099586Y060079
X099626Y061063
X099586Y062047
X097421Y061575
X097382Y060551
Y059567
Y058583
X101535Y061338
X10248Y049252
X092067Y059074
X092086Y060079
X092126Y061063
X092086Y062047
X089921Y061575
X089882Y060551
Y059567
Y058583
X085748Y058268
X084604Y059016
X084623Y06002
X084663Y061004
X084623Y061989
X086516Y061457
X082458Y061516
X082419Y060493
Y059508
Y058524
X079Y057819
X079016Y061457
X077126Y061063
X077086Y062047
Y060079
X077067Y059074
X074882Y058583
Y059567
Y060551
X074921Y061575
X071516Y061457
X069626Y061063
X069586Y062047
Y060079
X069567Y059074
X067382Y058583
Y059567
Y060551
X067421Y061575
X064016Y061457
X064Y057819
X0715
X062067Y059074
X062086Y060079
X062126Y061063
X062086Y062047
X059921Y061575
X059882Y060551
Y059567
Y058583
X0565Y057819
X054567Y059074
X054586Y060079
X054626Y061063
X054586Y062047
X056516Y061457
X052421Y061575
X052382Y060551
Y059567
Y058583
X049Y057819
X047067Y059074
X047086Y060079
X047126Y061063
X047086Y062047
X049016Y061457
X044921Y061575
X044882Y060551
Y059567
Y058583
X041496Y057795
X039567Y059074
X039586Y060079
X039626Y061063
X039586Y062047
X0415Y061382
X037421Y061575
X037382Y060551
Y059567
Y058583
X035984Y057756
X03311Y05748
X033189Y059094
X035984Y061339
X035157Y062205
X029222Y059163
X029252Y057441
X030477Y063741
Y064641
Y065541
Y066441
Y067341
X030197Y071378
X02965Y072603
X030669Y074331
X031494Y074089
Y072475
X032131Y072442
X0328Y072403
X034178Y07323
X034177Y071299
X034077Y067341
Y066441
Y065541
Y064641
Y063741
X033177
Y064641
Y065541
Y066441
Y067341
X032277
Y066441
Y065541
Y064641
Y063741
X031377
Y064641
Y065541
Y066441
Y067341
X03694Y064184
X037436Y062574
X03959Y063074
X039607Y064074
X043504Y065
X044936Y062574
X04709Y063074
X047107Y064074
X051004Y065
X052436Y062574
X05459Y063074
X054607Y064074
X058504Y065
X059936Y062574
X06209Y063074
X062107Y064074
X066004Y065
X067436Y062574
X06959Y063074
X069607Y064074
X073504Y065
X074936Y062574
X07709Y063074
X077107Y064074
X077126Y072716
X077165Y073622
X07805Y072617
X075791Y074295
X075039Y074331
X074882Y075079
X074277Y075054
X075397Y074925
X073504Y073897
X07252Y074252
X071338Y073976
X071929Y070748
X07299Y070392
X065777Y072115
X063071Y071496
X079094Y074212
X083622Y072283
X085118
X086614
X092799Y07228
X092107Y064074
X09209Y063074
X089936Y062574
X088504Y065
X084644Y064016
X084627Y063016
X082473Y062516
X081023Y065039
X097436Y062574
X09959Y063074
X099607Y064074
X101456Y06496
Y062992
X104936Y062574
X10709Y063074
X107107Y064074
X108956Y06496
Y062992
X10503Y07065
X104521Y070591
X103521Y070581
X103021Y070589
X102521Y072324
X104021Y072289
X105521Y072353
X095799Y072295
X094291Y072323
X112436Y062574
X11459Y063074
X114607Y064074
X116456Y06496
Y062992
X119993Y062555
X122146Y063055
X122163Y064055
X123956Y06496
Y062992
X127436Y062574
X12959Y063074
X129607Y064074
X131456Y06496
Y062992
X134936Y062574
X13709Y063074
X137107Y064074
X138956Y06496
Y062992
X142436Y062574
X14459Y063074
X144607Y064074
X146456Y06496
Y062992
X149936Y062574
X15209Y063074
X152107Y064074
X154Y064984
Y062977
T04
X142365Y053074
X14233Y054574
X142323Y056063
X149843Y054567
X149921Y053071
X152165Y056063
X137165
X134843Y054567
X134803Y052874
X127405Y053074
X127316Y054574
X129646Y056063
X122154Y056074
X119882Y054606
X119843Y052913
X112362Y052717
X112409Y054574
X114724Y056102
X107165Y056063
X104843Y054567
X105433Y052559
X099688Y053074
X099764Y056063
X09733Y054574
X089843Y054567
X089567Y056063
X090512Y052598
X084649Y053074
X084685Y056063
X08233Y054574
X077283Y056102
X077205Y053071
X074921Y054567
X069724Y056063
X067369Y054574
X067359Y053074
X062283Y053071
X062205Y056063
X059882Y054606
X054724Y056063
X054721Y053074
X05233Y054574
X047168Y053074
X047126Y056063
X044843Y054567
X039685Y056063
X039682Y053074
X037362Y054567
T05
X0788Y03195
X0798
X0808
X0818
X0828
X0838
X0848
X0858
X0868
X0878
X0888
X0898
X0908
X0918
X0928
X0933Y0327
X0923
X0913
X0903
X0893
X0883
X0873
X0863
X0853
X0843
X0833
X0823
X0813
X0803
X0793
X0783
X0788Y03345
X0798
X0808
X0818
X0828
X0838
X0848
X0858
X0868
X0878
X0888
X0898
X0908
X0918
X0928
X0933Y0342
X0923
X0913
X0903
X0893
X0883
X0873
X0863
X0853
X0843
X0833
X0823
X0813
X0803
X0793
X0783
X0943
X0948Y03345
X0938
X0943Y0327
X0948Y03195
X0938
T06
X0286Y049
X0296
X0481Y07455
X0491
X0501
X0511
X0521
X0531
X0541
X0551
Y07555
X0541
X0531
X0521
X0511
X0501
X0491
X0481
X0818Y0751
Y0741
X0828
Y0751
X0838
Y0741
X0848
Y0751
X0858
Y0741
X0868
Y0751
X0878
Y0741
X0888
Y0751
X0909
Y0741
X0919
Y0751
X0929
Y0741
X0939
X0949
Y0751
X0939
X0959
Y0741
X0969
Y0751
X0979
Y0741
X1006Y07415
Y07515
X1016
Y07415
X1026
Y07515
X1036
Y07415
X1046
Y07515
X1056
Y07415
X1066
Y07515
X1076
Y07415
T07
X060776Y074713
X061563
Y0755
X060776
X06235
Y074713
X063138
Y0755
X063925
X064713
Y074713
X063925
X0655
Y0755
T08
X082517Y0715
X087569Y071894
X091717Y0715
X096768Y071894
X101439Y0715
X10649Y071894
T09
X03185Y03215
X0356
X03685
X0381
Y03715
X03685
X0356
X03185
X04435
Y03215
X1314Y0322
X13515
X1364
X13765
Y0372
X1364
X13515
X1314
X1439
Y0322
X026603Y057492
Y061242
Y062492
X021603
Y061242
Y057492
Y063742
X026603
Y069992
X021603
T10
X023135Y034711
Y036365
Y038018
Y039672
Y041325
Y042979
Y044632
Y046286
X0253
Y044632
Y042979
Y041325
Y039672
Y038018
Y036365
Y034711
Y047939
Y049593
Y051246
Y0529
X023135
Y051246
Y049593
Y047939
T11
X1439Y0517
X1514
X1364
X1289
X1214
X1139
X1064
X0989
X0914
X0839
X0764
X0689
X0614
X0539
X0464
X0389
Y066948
X0464
X0539
X0614
X0689
X0764
X0839
X0914
X0989
X1064
X1139
X1214
X1289
X1364
X1439
X1514
T12
X077406Y032206
T13
X07634Y033075
X09676
T14
X0249Y032
X0689
X1129
X1569
X0249Y0751
X0689
X1129
X1569
M30
