%FSLAX24Y24*%
%MOIN*%
G70*
G01*
G75*
G04 Layer_Color=8388736*
G04 Layer_Color=8388736*
%ADD10R,0.0866X0.1024*%
%ADD11R,0.1024X0.0866*%
%ADD12R,0.0394X0.0433*%
%ADD13R,0.0630X0.0512*%
%ADD14C,0.0157*%
%ADD15R,0.1929X0.0866*%
%ADD16R,0.1929X0.0898*%
%ADD17R,0.0500X0.1500*%
%ADD18R,0.2900X0.3000*%
%ADD19R,0.0709X0.0630*%
%ADD20R,0.0630X0.0709*%
%ADD21R,0.1500X0.0500*%
%ADD22R,0.3000X0.2900*%
%ADD23R,0.0709X0.0157*%
%ADD24R,0.0433X0.0394*%
%ADD25R,0.0197X0.0748*%
%ADD26R,0.0748X0.0197*%
%ADD27R,0.0157X0.0709*%
%ADD28R,0.1575X0.0335*%
%ADD29R,0.0787X0.0551*%
%ADD30C,0.0060*%
%ADD31C,0.0300*%
%ADD32C,0.0080*%
%ADD33C,0.0100*%
%ADD34C,0.0200*%
%ADD35C,0.0090*%
%ADD36C,0.0070*%
%ADD37C,0.0180*%
%ADD38C,0.0160*%
%ADD39C,0.0140*%
%ADD40C,0.0120*%
%ADD41C,0.0866*%
%ADD42C,0.0700*%
%ADD43R,0.0591X0.0591*%
%ADD44C,0.0591*%
%ADD45C,0.0550*%
%ADD46C,0.1300*%
%ADD47C,0.1063*%
%ADD48C,0.1600*%
%ADD49C,0.0669*%
%ADD50C,0.0200*%
%ADD51C,0.0400*%
%ADD52C,0.0300*%
%ADD53C,0.0500*%
%ADD54C,0.0240*%
%ADD55R,0.0354X0.0276*%
%ADD56R,0.0276X0.0354*%
%ADD57R,0.0354X0.0945*%
%ADD58C,0.0098*%
%ADD59C,0.0079*%
%ADD60C,0.0040*%
%ADD61C,0.0600*%
%ADD62C,0.0150*%
%ADD63R,0.0946X0.1104*%
%ADD64R,0.1104X0.0946*%
%ADD65R,0.0474X0.0513*%
%ADD66R,0.0710X0.0592*%
%ADD67C,0.0197*%
%ADD68R,0.2009X0.0946*%
%ADD69R,0.2009X0.0978*%
%ADD70R,0.0580X0.1580*%
%ADD71R,0.2980X0.3080*%
%ADD72R,0.0789X0.0710*%
%ADD73R,0.0710X0.0789*%
%ADD74R,0.1580X0.0580*%
%ADD75R,0.3080X0.2980*%
%ADD76R,0.0789X0.0237*%
%ADD77R,0.0513X0.0474*%
%ADD78R,0.0277X0.0828*%
%ADD79R,0.0828X0.0277*%
%ADD80R,0.0237X0.0789*%
%ADD81R,0.1655X0.0415*%
%ADD82R,0.0867X0.0631*%
%ADD83C,0.0946*%
%ADD84C,0.0780*%
%ADD85R,0.0671X0.0671*%
%ADD86C,0.0671*%
%ADD87C,0.0630*%
%ADD88C,0.1380*%
%ADD89C,0.1143*%
%ADD90C,0.1680*%
%ADD91C,0.0749*%
%ADD92C,0.0280*%
%ADD93C,0.0480*%
%ADD94C,0.0380*%
%ADD95C,0.0580*%
%ADD96R,0.0434X0.0356*%
%ADD97R,0.0356X0.0434*%
%ADD98R,0.0434X0.1025*%
%ADD99C,0.0400*%
%ADD100C,0.1109*%
%AMTHD101*
7,0,0,0.1309,0.1109,0.0100,45*
%
%ADD101THD101*%
%ADD102C,0.0950*%
%AMTHD103*
7,0,0,0.1150,0.0950,0.0100,45*
%
%ADD103THD103*%
%ADD104C,0.0754*%
%AMTHD105*
7,0,0,0.0954,0.0754,0.0100,45*
%
%ADD105THD105*%
%AMTHD106*
7,0,0,0.0994,0.0794,0.0100,45*
%
%ADD106THD106*%
%ADD107C,0.0794*%
%AMTHD108*
7,0,0,0.0950,0.0750,0.0100,45*
%
%ADD108THD108*%
%ADD109C,0.0750*%
%ADD110C,0.1500*%
%ADD111C,0.1384*%
%ADD112C,0.1306*%
%ADD113C,0.1800*%
%ADD114C,0.0932*%
%AMTHD115*
7,0,0,0.0700,0.0500,0.0100,45*
%
%ADD115THD115*%
%AMTHD116*
7,0,0,0.0800,0.0600,0.0100,45*
%
%ADD116THD116*%
%ADD117C,0.0600*%
%AMTHD118*
7,0,0,0.0850,0.0650,0.0100,45*
%
%ADD118THD118*%
%AMTHD119*
7,0,0,0.0718,0.0518,0.0100,45*
%
%ADD119THD119*%
%ADD120C,0.0650*%
%ADD121C,0.0518*%
D100*
X25300Y52900D02*
D03*
Y51246D02*
D03*
Y49593D02*
D03*
Y47939D02*
D03*
Y46286D02*
D03*
Y44632D02*
D03*
Y42979D02*
D03*
Y41325D02*
D03*
Y39672D02*
D03*
Y38018D02*
D03*
Y36365D02*
D03*
Y34711D02*
D03*
X23135Y52900D02*
D03*
Y51246D02*
D03*
Y49593D02*
D03*
Y47939D02*
D03*
Y46286D02*
D03*
Y44632D02*
D03*
Y42979D02*
D03*
Y41325D02*
D03*
Y39672D02*
D03*
Y38018D02*
D03*
Y36365D02*
D03*
Y34711D02*
D03*
D102*
X21603Y61242D02*
D03*
Y62492D02*
D03*
Y63742D02*
D03*
Y69992D02*
D03*
X26603D02*
D03*
Y63742D02*
D03*
Y62492D02*
D03*
Y61242D02*
D03*
Y57492D02*
D03*
X21603D02*
D03*
X31850Y37150D02*
D03*
Y32150D02*
D03*
X35600D02*
D03*
X36850D02*
D03*
X38100D02*
D03*
X44350D02*
D03*
Y37150D02*
D03*
X38100D02*
D03*
X36850D02*
D03*
X35600D02*
D03*
X131400Y37200D02*
D03*
Y32200D02*
D03*
X135150D02*
D03*
X136400D02*
D03*
X137650D02*
D03*
X143900D02*
D03*
Y37200D02*
D03*
X137650D02*
D03*
X136400D02*
D03*
X135150D02*
D03*
D104*
X88800Y74100D02*
D03*
Y75100D02*
D03*
X87800Y74100D02*
D03*
Y75100D02*
D03*
X86800Y74100D02*
D03*
Y75100D02*
D03*
X85800Y74100D02*
D03*
Y75100D02*
D03*
X84800Y74100D02*
D03*
Y75100D02*
D03*
X83800Y74100D02*
D03*
Y75100D02*
D03*
X82800Y74100D02*
D03*
Y75100D02*
D03*
X81800Y74100D02*
D03*
Y75100D02*
D03*
X97900Y74100D02*
D03*
Y75100D02*
D03*
X96900Y74100D02*
D03*
Y75100D02*
D03*
X95900Y74100D02*
D03*
Y75100D02*
D03*
X94900D02*
D03*
X93900Y74100D02*
D03*
Y75100D02*
D03*
X92900Y74100D02*
D03*
Y75100D02*
D03*
X91900Y74100D02*
D03*
Y75100D02*
D03*
X90900Y74100D02*
D03*
Y75100D02*
D03*
X107600Y74150D02*
D03*
Y75150D02*
D03*
X106600Y74150D02*
D03*
Y75150D02*
D03*
X105600Y74150D02*
D03*
Y75150D02*
D03*
X104600Y74150D02*
D03*
Y75150D02*
D03*
X103600Y74150D02*
D03*
Y75150D02*
D03*
X102600Y74150D02*
D03*
Y75150D02*
D03*
X101600Y74150D02*
D03*
Y75150D02*
D03*
X100600Y74150D02*
D03*
Y75150D02*
D03*
X48100Y75550D02*
D03*
Y74550D02*
D03*
X49100Y75550D02*
D03*
Y74550D02*
D03*
X50100Y75550D02*
D03*
Y74550D02*
D03*
X51100Y75550D02*
D03*
Y74550D02*
D03*
X52100Y75550D02*
D03*
Y74550D02*
D03*
X53100Y75550D02*
D03*
Y74550D02*
D03*
X54100Y75550D02*
D03*
Y74550D02*
D03*
X55100Y75550D02*
D03*
Y74550D02*
D03*
X28600Y49000D02*
D03*
X29600D02*
D03*
X94900Y74100D02*
D03*
D107*
X65500Y75500D02*
D03*
Y74713D02*
D03*
X64713Y75500D02*
D03*
Y74713D02*
D03*
X63925Y75500D02*
D03*
Y74713D02*
D03*
X63138Y75500D02*
D03*
Y74713D02*
D03*
X62350Y75500D02*
D03*
Y74713D02*
D03*
X61563Y75500D02*
D03*
Y74713D02*
D03*
X60776Y75500D02*
D03*
Y74713D02*
D03*
D109*
X92300Y34200D02*
D03*
X92800Y33450D02*
D03*
X93300Y34200D02*
D03*
X93800Y33450D02*
D03*
X92300Y32700D02*
D03*
X92800Y31950D02*
D03*
X93300Y32700D02*
D03*
X94300Y34200D02*
D03*
Y32700D02*
D03*
X94800Y33450D02*
D03*
X93800Y31950D02*
D03*
X94800D02*
D03*
X78300Y34200D02*
D03*
X79300D02*
D03*
X80300D02*
D03*
X78800Y33450D02*
D03*
X79800D02*
D03*
X80800D02*
D03*
X81300Y34200D02*
D03*
X82300D02*
D03*
X83300D02*
D03*
X84300D02*
D03*
X81800Y33450D02*
D03*
X82800D02*
D03*
X83800D02*
D03*
X78300Y32700D02*
D03*
X79300D02*
D03*
X80300D02*
D03*
X78800Y31950D02*
D03*
X79800D02*
D03*
X80800D02*
D03*
X81300Y32700D02*
D03*
X82300D02*
D03*
X83300D02*
D03*
X84300D02*
D03*
X81800Y31950D02*
D03*
X82800D02*
D03*
X83800D02*
D03*
X85300Y34200D02*
D03*
X84800Y33450D02*
D03*
X86300Y34200D02*
D03*
X87300D02*
D03*
X85800Y33450D02*
D03*
X86800D02*
D03*
X87800D02*
D03*
X88300Y34200D02*
D03*
X89300D02*
D03*
X90300D02*
D03*
X91300D02*
D03*
X88800Y33450D02*
D03*
X89800D02*
D03*
X90800D02*
D03*
X85300Y32700D02*
D03*
X84800Y31950D02*
D03*
X86300Y32700D02*
D03*
X87300D02*
D03*
X85800Y31950D02*
D03*
X86800D02*
D03*
X87800D02*
D03*
X88300Y32700D02*
D03*
X89300D02*
D03*
X90300D02*
D03*
X91300D02*
D03*
X88800Y31950D02*
D03*
X89800D02*
D03*
X90800D02*
D03*
X91800Y33450D02*
D03*
Y31950D02*
D03*
D110*
X96760Y33075D02*
D03*
X76340D02*
D03*
D111*
X77406Y32206D02*
D03*
D112*
X53900Y66948D02*
D03*
Y51700D02*
D03*
X61400Y66948D02*
D03*
Y51700D02*
D03*
X38900Y66948D02*
D03*
Y51700D02*
D03*
X46400Y66948D02*
D03*
Y51700D02*
D03*
X83900Y66948D02*
D03*
Y51700D02*
D03*
X91400Y66948D02*
D03*
Y51700D02*
D03*
X68900Y66948D02*
D03*
Y51700D02*
D03*
X76400Y66948D02*
D03*
Y51700D02*
D03*
X113900Y66948D02*
D03*
Y51700D02*
D03*
X121400Y66948D02*
D03*
Y51700D02*
D03*
X98900Y66948D02*
D03*
Y51700D02*
D03*
X106400Y66948D02*
D03*
Y51700D02*
D03*
X151400Y66948D02*
D03*
Y51700D02*
D03*
X128900Y66948D02*
D03*
Y51700D02*
D03*
X136400Y66948D02*
D03*
Y51700D02*
D03*
X143900Y66948D02*
D03*
Y51700D02*
D03*
D113*
X24900Y32000D02*
D03*
Y75100D02*
D03*
X68900D02*
D03*
Y32000D02*
D03*
X112900Y75100D02*
D03*
Y32000D02*
D03*
X156900Y75100D02*
D03*
Y32000D02*
D03*
D114*
X82517Y71500D02*
D03*
X87569Y71894D02*
D03*
X101439Y71500D02*
D03*
X106490Y71894D02*
D03*
X91717Y71500D02*
D03*
X96768Y71894D02*
D03*
M02*
