%FSLAX24Y24*%
%MOIN*%
G70*
G01*
G75*
G04 Layer_Physical_Order=3*
G04 Layer_Color=128*
%ADD10R,0.0433X0.0394*%
%ADD11R,0.0394X0.0433*%
%ADD12C,0.0130*%
%ADD13C,0.0197*%
%ADD14R,0.0945X0.1024*%
%ADD15C,0.0400*%
%ADD16R,0.3000X0.2900*%
%ADD17R,0.1500X0.0500*%
%ADD18R,0.0630X0.0709*%
%ADD19R,0.0709X0.0630*%
%ADD20R,0.0571X0.0197*%
%ADD21C,0.0700*%
%ADD22R,0.0197X0.0748*%
%ADD23R,0.0748X0.0197*%
%ADD24R,0.1575X0.0335*%
%ADD25R,0.0630X0.0512*%
%ADD26R,0.0787X0.0551*%
%ADD27R,0.0551X0.0787*%
%ADD28R,0.1496X0.0394*%
%ADD29R,0.0394X0.1496*%
%ADD30R,0.1024X0.0945*%
%ADD31R,0.1102X0.1024*%
%ADD32R,0.0394X0.1083*%
%ADD33C,0.0080*%
%ADD34C,0.0110*%
%ADD35C,0.0060*%
%ADD36C,0.0120*%
%ADD37C,0.0200*%
%ADD38C,0.0160*%
%ADD39C,0.0300*%
%ADD40C,0.0180*%
%ADD41C,0.0100*%
%ADD42C,0.0240*%
%ADD43C,0.0669*%
%ADD44C,0.0600*%
%ADD45C,0.0800*%
%ADD46C,0.1300*%
%ADD47C,0.0591*%
%ADD48R,0.0591X0.0591*%
%ADD49C,0.1063*%
%ADD50C,0.1600*%
%ADD51C,0.0433*%
%ADD52C,0.0200*%
%ADD53C,0.0300*%
%ADD54C,0.0500*%
G36*
X62897Y73000D02*
X62907Y72996D01*
X62913Y72993D01*
X62922Y72992D01*
X62928Y72989D01*
X62931Y72988D01*
X62933Y72989D01*
X62934Y72988D01*
X62935Y72989D01*
X62943Y72985D01*
X65395D01*
X65418Y72941D01*
X65399Y72912D01*
X65387Y72850D01*
X65399Y72788D01*
X65434Y72736D01*
X65427Y72724D01*
X65406Y72692D01*
X62781D01*
X62765Y72715D01*
X62712Y72751D01*
X62650Y72763D01*
X62588Y72751D01*
X62535Y72715D01*
X62499Y72662D01*
X62492Y72623D01*
X62442Y72628D01*
Y72712D01*
X62722Y72992D01*
X62750Y72987D01*
X62812Y72999D01*
X62814Y73000D01*
X62897D01*
X62897Y73000D01*
D02*
G37*
G36*
X70335Y75735D02*
X70388Y75699D01*
X70427Y75692D01*
X70422Y75650D01*
X70415Y75642D01*
X57050D01*
X57021Y75636D01*
X57015Y75635D01*
X56985Y75615D01*
X56643Y75273D01*
X56597Y75292D01*
X56596Y75723D01*
X56632Y75758D01*
X70319D01*
X70335Y75735D01*
D02*
G37*
G36*
X73857Y72998D02*
X73863Y72996D01*
X73868Y72992D01*
X73875Y72992D01*
X73881Y72988D01*
X73892Y72986D01*
X73898Y72987D01*
X73904Y72985D01*
X79801D01*
X79818Y72938D01*
X79815Y72935D01*
X79773Y72881D01*
X79747Y72818D01*
X79738Y72750D01*
X79747Y72682D01*
X79773Y72619D01*
X79815Y72565D01*
X79869Y72523D01*
X79932Y72497D01*
X80000Y72488D01*
X80068Y72497D01*
X80131Y72523D01*
X80185Y72565D01*
X80227Y72619D01*
X80253Y72682D01*
X80262Y72750D01*
X80253Y72818D01*
X80227Y72881D01*
X80185Y72935D01*
X80131Y72977D01*
X80133Y72985D01*
X80801D01*
X80818Y72938D01*
X80815Y72935D01*
X80773Y72881D01*
X80747Y72818D01*
X80738Y72750D01*
X80747Y72682D01*
X80773Y72619D01*
X80815Y72565D01*
X80869Y72523D01*
X80932Y72497D01*
X81000Y72488D01*
X81068Y72497D01*
X81131Y72523D01*
X81185Y72565D01*
X81227Y72619D01*
X81253Y72682D01*
X81262Y72750D01*
X81253Y72818D01*
X81227Y72881D01*
X81185Y72935D01*
X81131Y72977D01*
X81133Y72985D01*
X81801D01*
X81818Y72938D01*
X81815Y72935D01*
X81773Y72881D01*
X81747Y72818D01*
X81738Y72750D01*
X81747Y72682D01*
X81773Y72619D01*
X81815Y72565D01*
X81869Y72523D01*
X81932Y72497D01*
X82000Y72488D01*
X82068Y72497D01*
X82131Y72523D01*
X82185Y72565D01*
X82227Y72619D01*
X82253Y72682D01*
X82262Y72750D01*
X82253Y72818D01*
X82227Y72881D01*
X82185Y72935D01*
X82131Y72977D01*
X82133Y72985D01*
X83801D01*
X83818Y72938D01*
X83815Y72935D01*
X83773Y72881D01*
X83747Y72818D01*
X83738Y72750D01*
X83747Y72682D01*
X83773Y72619D01*
X83815Y72565D01*
X83869Y72523D01*
X83932Y72497D01*
X84000Y72488D01*
X84068Y72497D01*
X84131Y72523D01*
X84185Y72565D01*
X84227Y72619D01*
X84253Y72682D01*
X84262Y72750D01*
X84253Y72818D01*
X84227Y72881D01*
X84185Y72935D01*
X84131Y72977D01*
X84133Y72985D01*
X84801D01*
X84818Y72938D01*
X84815Y72935D01*
X84773Y72881D01*
X84747Y72818D01*
X84738Y72750D01*
X84747Y72682D01*
X84773Y72619D01*
X84815Y72565D01*
X84869Y72523D01*
X84932Y72497D01*
X85000Y72488D01*
X85068Y72497D01*
X85131Y72523D01*
X85185Y72565D01*
X85227Y72619D01*
X85253Y72682D01*
X85262Y72750D01*
X85253Y72818D01*
X85227Y72881D01*
X85185Y72935D01*
X85131Y72977D01*
X85133Y72985D01*
X85801D01*
X85818Y72938D01*
X85815Y72935D01*
X85773Y72881D01*
X85747Y72818D01*
X85738Y72750D01*
X85747Y72682D01*
X85773Y72619D01*
X85815Y72565D01*
X85869Y72523D01*
X85932Y72497D01*
X86000Y72488D01*
X86068Y72497D01*
X86131Y72523D01*
X86185Y72565D01*
X86227Y72619D01*
X86253Y72682D01*
X86262Y72750D01*
X86253Y72818D01*
X86227Y72881D01*
X86185Y72935D01*
X86131Y72977D01*
X86133Y72985D01*
X86801D01*
X86818Y72938D01*
X86815Y72935D01*
X86773Y72881D01*
X86747Y72818D01*
X86738Y72750D01*
X86747Y72682D01*
X86773Y72619D01*
X86815Y72565D01*
X86869Y72523D01*
X86932Y72497D01*
X87000Y72488D01*
X87068Y72497D01*
X87131Y72523D01*
X87185Y72565D01*
X87227Y72619D01*
X87253Y72682D01*
X87262Y72750D01*
X87253Y72818D01*
X87227Y72881D01*
X87185Y72935D01*
X87131Y72977D01*
X87133Y72985D01*
X90801D01*
X90818Y72938D01*
X90815Y72935D01*
X90773Y72881D01*
X90747Y72818D01*
X90738Y72750D01*
X90747Y72682D01*
X90773Y72619D01*
X90815Y72565D01*
X90869Y72523D01*
X90932Y72497D01*
X91000Y72488D01*
X91068Y72497D01*
X91131Y72523D01*
X91185Y72565D01*
X91227Y72619D01*
X91253Y72682D01*
X91262Y72750D01*
X91253Y72818D01*
X91227Y72881D01*
X91185Y72935D01*
X91131Y72977D01*
X91133Y72985D01*
X91801D01*
X91818Y72938D01*
X91815Y72935D01*
X91773Y72881D01*
X91747Y72818D01*
X91738Y72750D01*
X91747Y72682D01*
X91773Y72619D01*
X91815Y72565D01*
X91869Y72523D01*
X91932Y72497D01*
X92000Y72488D01*
X92068Y72497D01*
X92131Y72523D01*
X92185Y72565D01*
X92227Y72619D01*
X92253Y72682D01*
X92262Y72750D01*
X92253Y72818D01*
X92227Y72881D01*
X92185Y72935D01*
X92131Y72977D01*
X92133Y72985D01*
X92801D01*
X92818Y72938D01*
X92815Y72935D01*
X92773Y72881D01*
X92747Y72818D01*
X92738Y72750D01*
X92747Y72682D01*
X92773Y72619D01*
X92815Y72565D01*
X92869Y72523D01*
X92932Y72497D01*
X93000Y72488D01*
X93068Y72497D01*
X93131Y72523D01*
X93185Y72565D01*
X93227Y72619D01*
X93253Y72682D01*
X93262Y72750D01*
X93253Y72818D01*
X93227Y72881D01*
X93185Y72935D01*
X93131Y72977D01*
X93133Y72985D01*
X94801D01*
X94818Y72938D01*
X94815Y72935D01*
X94773Y72881D01*
X94747Y72818D01*
X94738Y72750D01*
X94747Y72682D01*
X94773Y72619D01*
X94815Y72565D01*
X94869Y72523D01*
X94932Y72497D01*
X95000Y72488D01*
X95068Y72497D01*
X95131Y72523D01*
X95185Y72565D01*
X95227Y72619D01*
X95253Y72682D01*
X95262Y72750D01*
X95253Y72818D01*
X95227Y72881D01*
X95185Y72935D01*
X95131Y72977D01*
X95133Y72985D01*
X95801D01*
X95818Y72938D01*
X95815Y72935D01*
X95773Y72881D01*
X95747Y72818D01*
X95738Y72750D01*
X95747Y72682D01*
X95773Y72619D01*
X95815Y72565D01*
X95869Y72523D01*
X95932Y72497D01*
X96000Y72488D01*
X96068Y72497D01*
X96131Y72523D01*
X96185Y72565D01*
X96227Y72619D01*
X96253Y72682D01*
X96262Y72750D01*
X96253Y72818D01*
X96227Y72881D01*
X96185Y72935D01*
X96131Y72977D01*
X96133Y72985D01*
X96801D01*
X96818Y72938D01*
X96815Y72935D01*
X96773Y72881D01*
X96747Y72818D01*
X96738Y72750D01*
X96747Y72682D01*
X96773Y72619D01*
X96815Y72565D01*
X96869Y72523D01*
X96932Y72497D01*
X97000Y72488D01*
X97068Y72497D01*
X97131Y72523D01*
X97185Y72565D01*
X97227Y72619D01*
X97253Y72682D01*
X97262Y72750D01*
X97253Y72818D01*
X97227Y72881D01*
X97185Y72935D01*
X97131Y72977D01*
X97133Y72985D01*
X97801D01*
X97818Y72938D01*
X97815Y72935D01*
X97773Y72881D01*
X97747Y72818D01*
X97738Y72750D01*
X97747Y72682D01*
X97773Y72619D01*
X97815Y72565D01*
X97869Y72523D01*
X97932Y72497D01*
X98000Y72488D01*
X98068Y72497D01*
X98131Y72523D01*
X98185Y72565D01*
X98227Y72619D01*
X98253Y72682D01*
X98262Y72750D01*
X98253Y72818D01*
X98227Y72881D01*
X98185Y72935D01*
X98131Y72977D01*
X98133Y72985D01*
X101801D01*
X101818Y72938D01*
X101815Y72935D01*
X101773Y72881D01*
X101747Y72818D01*
X101738Y72750D01*
X101747Y72682D01*
X101773Y72619D01*
X101815Y72565D01*
X101869Y72523D01*
X101932Y72497D01*
X102000Y72488D01*
X102068Y72497D01*
X102131Y72523D01*
X102185Y72565D01*
X102227Y72619D01*
X102253Y72682D01*
X102262Y72750D01*
X102253Y72818D01*
X102227Y72881D01*
X102185Y72935D01*
X102131Y72977D01*
X102133Y72985D01*
X102801D01*
X102818Y72938D01*
X102815Y72935D01*
X102773Y72881D01*
X102747Y72818D01*
X102738Y72750D01*
X102747Y72682D01*
X102773Y72619D01*
X102815Y72565D01*
X102869Y72523D01*
X102932Y72497D01*
X103000Y72488D01*
X103068Y72497D01*
X103131Y72523D01*
X103185Y72565D01*
X103227Y72619D01*
X103253Y72682D01*
X103262Y72750D01*
X103253Y72818D01*
X103227Y72881D01*
X103185Y72935D01*
X103131Y72977D01*
X103133Y72985D01*
X103801D01*
X103818Y72938D01*
X103815Y72935D01*
X103773Y72881D01*
X103747Y72818D01*
X103738Y72750D01*
X103747Y72682D01*
X103773Y72619D01*
X103815Y72565D01*
X103869Y72523D01*
X103932Y72497D01*
X104000Y72488D01*
X104068Y72497D01*
X104131Y72523D01*
X104185Y72565D01*
X104227Y72619D01*
X104253Y72682D01*
X104262Y72750D01*
X104253Y72818D01*
X104227Y72881D01*
X104185Y72935D01*
X104131Y72977D01*
X104133Y72985D01*
X105801D01*
X105818Y72938D01*
X105815Y72935D01*
X105773Y72881D01*
X105747Y72818D01*
X105738Y72750D01*
X105747Y72682D01*
X105773Y72619D01*
X105815Y72565D01*
X105869Y72523D01*
X105932Y72497D01*
X106000Y72488D01*
X106068Y72497D01*
X106131Y72523D01*
X106185Y72565D01*
X106227Y72619D01*
X106253Y72682D01*
X106262Y72750D01*
X106253Y72818D01*
X106227Y72881D01*
X106185Y72935D01*
X106131Y72977D01*
X106133Y72985D01*
X106801D01*
X106818Y72938D01*
X106815Y72935D01*
X106773Y72881D01*
X106747Y72818D01*
X106738Y72750D01*
X106747Y72682D01*
X106773Y72619D01*
X106815Y72565D01*
X106869Y72523D01*
X106932Y72497D01*
X107000Y72488D01*
X107068Y72497D01*
X107131Y72523D01*
X107185Y72565D01*
X107227Y72619D01*
X107253Y72682D01*
X107262Y72750D01*
X107253Y72818D01*
X107227Y72881D01*
X107185Y72935D01*
X107131Y72977D01*
X107133Y72985D01*
X107801D01*
X107818Y72938D01*
X107815Y72935D01*
X107773Y72881D01*
X107747Y72818D01*
X107738Y72750D01*
X107747Y72682D01*
X107773Y72619D01*
X107815Y72565D01*
X107869Y72523D01*
X107932Y72497D01*
X108000Y72488D01*
X108068Y72497D01*
X108131Y72523D01*
X108185Y72565D01*
X108227Y72619D01*
X108253Y72682D01*
X108262Y72750D01*
X108253Y72818D01*
X108227Y72881D01*
X108185Y72935D01*
X108131Y72977D01*
X108133Y72985D01*
X108801D01*
X108818Y72938D01*
X108815Y72935D01*
X108773Y72881D01*
X108747Y72818D01*
X108738Y72750D01*
X108747Y72682D01*
X108773Y72619D01*
X108815Y72565D01*
X108869Y72523D01*
X108932Y72497D01*
X109000Y72488D01*
X109068Y72497D01*
X109131Y72523D01*
X109185Y72565D01*
X109227Y72619D01*
X109253Y72682D01*
X109262Y72750D01*
X109253Y72818D01*
X109227Y72881D01*
X109185Y72935D01*
X109131Y72977D01*
X109133Y72985D01*
X112000D01*
Y69000D01*
X94992D01*
Y69550D01*
X94985Y69585D01*
X94965Y69615D01*
X94242Y70338D01*
Y71698D01*
X94289Y71714D01*
X94315Y71681D01*
X94369Y71639D01*
X94432Y71613D01*
X94500Y71604D01*
X94568Y71613D01*
X94631Y71639D01*
X94685Y71681D01*
X94727Y71735D01*
X94753Y71798D01*
X94762Y71866D01*
X94753Y71934D01*
X94727Y71997D01*
X94685Y72052D01*
X94631Y72093D01*
X94568Y72119D01*
X94500Y72128D01*
X94432Y72119D01*
X94369Y72093D01*
X94315Y72052D01*
X94289Y72018D01*
X94242Y72034D01*
Y72119D01*
X94265Y72135D01*
X94301Y72188D01*
X94313Y72250D01*
X94301Y72312D01*
X94265Y72365D01*
X94212Y72401D01*
X94150Y72413D01*
X94088Y72401D01*
X94035Y72365D01*
X93999Y72312D01*
X93987Y72250D01*
X93999Y72188D01*
X94035Y72135D01*
X94058Y72119D01*
Y70300D01*
X94065Y70265D01*
X94085Y70235D01*
X94808Y69512D01*
Y69000D01*
X89265D01*
Y70769D01*
X89289Y70785D01*
X89324Y70838D01*
X89336Y70900D01*
X89324Y70962D01*
X89289Y71015D01*
X89236Y71051D01*
X89173Y71063D01*
X89111Y71051D01*
X89058Y71015D01*
X89023Y70962D01*
X89010Y70900D01*
X89023Y70838D01*
X89058Y70785D01*
X89081Y70769D01*
Y69000D01*
X65741D01*
X65736Y69025D01*
X65734Y69031D01*
X65714Y69061D01*
X65124Y69651D01*
X65094Y69671D01*
X65059Y69678D01*
X64600D01*
X64584Y69702D01*
X64531Y69737D01*
X64468Y69750D01*
X64406Y69737D01*
X64353Y69702D01*
X64318Y69649D01*
X64305Y69587D01*
X64318Y69524D01*
X64353Y69471D01*
X64406Y69436D01*
X64468Y69423D01*
X64531Y69436D01*
X64584Y69471D01*
X64600Y69495D01*
X65021D01*
X65470Y69046D01*
X65451Y69000D01*
X65282D01*
X65273Y69013D01*
X65220Y69048D01*
X65157Y69061D01*
X65095Y69048D01*
X65042Y69013D01*
X65033Y69000D01*
X34000D01*
Y30612D01*
X20612D01*
Y73000D01*
X56569D01*
X56570Y72998D01*
X56571Y72998D01*
X56572Y72997D01*
X56572Y72997D01*
X56572Y72997D01*
X56572Y72997D01*
X56573Y72997D01*
X56573Y72997D01*
X56573Y72996D01*
X56573Y72996D01*
X56573Y72996D01*
X56573Y72996D01*
D01*
X56573Y72996D01*
X56573Y72996D01*
X56573Y72996D01*
X56574Y72996D01*
X56575Y72995D01*
X56575Y72995D01*
X56575D01*
D01*
X56576Y72995D01*
X56576D01*
X56576Y72995D01*
X56577Y72995D01*
X56577D01*
X56577Y72995D01*
X56577D01*
X56577Y72995D01*
X56588Y72990D01*
X56598D01*
X56599Y72990D01*
X56599Y72990D01*
X56599Y72990D01*
X56600Y72990D01*
X56601D01*
X56601Y72990D01*
X56601Y72990D01*
X56601D01*
X56613Y72985D01*
X56626Y72985D01*
X56626Y72985D01*
X56626Y72985D01*
Y72985D01*
X56626Y72985D01*
X56626Y72985D01*
X62390D01*
X62409Y72939D01*
X62285Y72815D01*
X62265Y72785D01*
X62258Y72750D01*
Y72050D01*
X62265Y72015D01*
X62285Y71985D01*
X62442Y71828D01*
X62437Y71800D01*
X62449Y71738D01*
X62485Y71685D01*
X62538Y71649D01*
X62600Y71637D01*
X62662Y71649D01*
X62715Y71685D01*
X62751Y71738D01*
X62763Y71800D01*
X62751Y71862D01*
X62715Y71915D01*
X62662Y71951D01*
X62600Y71963D01*
X62572Y71958D01*
X62442Y72088D01*
Y72572D01*
X62492Y72577D01*
X62499Y72538D01*
X62535Y72485D01*
X62588Y72449D01*
X62650Y72437D01*
X62712Y72449D01*
X62765Y72485D01*
X62781Y72508D01*
X70778D01*
X70813Y72515D01*
X70843Y72535D01*
X71308Y73000D01*
X71387D01*
X71389Y72999D01*
X71398Y72990D01*
X71411Y72990D01*
X71423Y72985D01*
X71437D01*
X71456Y72939D01*
X69780Y71262D01*
X69764Y71266D01*
X69701Y71253D01*
X69648Y71218D01*
X69613Y71165D01*
X69601Y71102D01*
X69613Y71040D01*
X69648Y70987D01*
X69701Y70952D01*
X69764Y70939D01*
X69826Y70952D01*
X69879Y70987D01*
X69914Y71040D01*
X69927Y71102D01*
X69924Y71118D01*
X71806Y73000D01*
X71885D01*
X71887Y72999D01*
X71896Y72990D01*
X71909Y72990D01*
X71921Y72985D01*
X73644D01*
X73645Y72985D01*
X73659D01*
X73671Y72990D01*
X73680Y72990D01*
X73693Y72994D01*
X73700Y73000D01*
X73855D01*
X73857Y72998D01*
D02*
G37*
G36*
X73274Y74534D02*
X73307Y74512D01*
X73346Y74504D01*
X73351D01*
X73599Y74256D01*
X73632Y74234D01*
X73636Y74233D01*
X73954Y73915D01*
X73984Y73895D01*
X74019Y73888D01*
X74190D01*
X74210Y73842D01*
X74091Y73724D01*
X73693D01*
X73670Y73768D01*
X73702Y73816D01*
X73718Y73897D01*
X73702Y73979D01*
X73655Y74049D01*
X73586Y74095D01*
X73504Y74112D01*
X73445Y74100D01*
X71332Y76214D01*
X71299Y76236D01*
X71260Y76244D01*
X56596D01*
X56596Y76319D01*
X56631Y76355D01*
X71454D01*
X73274Y74534D01*
D02*
G37*
G36*
X67518Y72990D02*
X67531D01*
X67543Y72985D01*
X70968D01*
X70987Y72939D01*
X70740Y72692D01*
X65694D01*
X65673Y72724D01*
X65666Y72736D01*
X65701Y72788D01*
X65713Y72850D01*
X65701Y72912D01*
X65665Y72965D01*
X65671Y72985D01*
X65807D01*
X65815Y72989D01*
X65816Y72988D01*
X65817Y72989D01*
X65819Y72988D01*
X65822Y72989D01*
X65828Y72992D01*
X65837Y72993D01*
X65843Y72996D01*
X65843D01*
X65853Y73000D01*
X65936D01*
X65938Y72999D01*
X66000Y72987D01*
X66062Y72999D01*
X66063Y73000D01*
X66147D01*
X66147Y73000D01*
X66157Y72996D01*
X66163Y72993D01*
X66172Y72992D01*
X66178Y72989D01*
X66181Y72988D01*
X66183Y72989D01*
X66184Y72988D01*
X66185Y72989D01*
X66193Y72985D01*
X67163D01*
X67171Y72988D01*
X67178Y72987D01*
X67178Y72987D01*
X67178Y72987D01*
X67178Y72987D01*
X67178Y72987D01*
X67178Y72987D01*
X67178Y72987D01*
X67179Y72988D01*
X67179Y72988D01*
X67179Y72988D01*
X67180Y72988D01*
X67180Y72988D01*
X67186Y72992D01*
X67188Y72992D01*
X67188Y72992D01*
X67191Y72994D01*
X67191Y72994D01*
X67192Y72994D01*
X67192Y72995D01*
X67192Y72994D01*
X67193Y72995D01*
X67193Y72995D01*
X67197Y72996D01*
X67198Y72996D01*
X67199Y72996D01*
X67199Y72996D01*
X67201Y72996D01*
X67201Y72997D01*
X67201Y72997D01*
X67201Y72997D01*
X67201Y72997D01*
X67201Y72997D01*
X67203Y72997D01*
X67204Y72998D01*
X67204Y72998D01*
X67205Y72998D01*
X67205Y72998D01*
X67205Y72998D01*
X67205D01*
X67206Y72998D01*
X67206Y72998D01*
X67207Y72999D01*
X67208Y72999D01*
X67208Y72999D01*
X67209Y72999D01*
X67209Y72999D01*
X67209Y72999D01*
X67209Y72999D01*
X67209Y72999D01*
X67209Y72999D01*
X67220Y72999D01*
X67222Y73000D01*
X67494D01*
X67518Y72990D01*
D02*
G37*
G36*
X129134Y67537D02*
X129094Y67507D01*
X129016Y67531D01*
X128900Y67542D01*
X128784Y67531D01*
X128673Y67497D01*
X128570Y67442D01*
X128480Y67368D01*
X128406Y67278D01*
X128351Y67175D01*
X128317Y67064D01*
X128306Y66948D01*
X128317Y66832D01*
X128351Y66721D01*
X128406Y66618D01*
X128480Y66528D01*
X128570Y66454D01*
X128673Y66399D01*
X128784Y66365D01*
X128900Y66354D01*
X129016Y66365D01*
X129094Y66389D01*
X129134Y66359D01*
Y52289D01*
X129094Y52259D01*
X129016Y52283D01*
X128900Y52294D01*
X128784Y52283D01*
X128673Y52249D01*
X128570Y52194D01*
X128480Y52120D01*
X128406Y52030D01*
X128351Y51927D01*
X128317Y51816D01*
X128306Y51700D01*
X128317Y51584D01*
X128351Y51473D01*
X128406Y51370D01*
X128480Y51280D01*
X128570Y51206D01*
X128673Y51151D01*
X128784Y51117D01*
X128900Y51106D01*
X129016Y51117D01*
X129094Y51141D01*
X129134Y51111D01*
Y30709D01*
X119094D01*
Y70866D01*
X116900Y73050D01*
X73904D01*
X73904Y73050D01*
X73893Y73052D01*
X73892Y73052D01*
X73873Y73098D01*
X73895Y73113D01*
X73930Y73166D01*
X73943Y73228D01*
X73930Y73291D01*
X73895Y73344D01*
X73842Y73379D01*
X73780Y73391D01*
X73717Y73379D01*
X73664Y73344D01*
X73629Y73291D01*
X73616Y73228D01*
X73629Y73166D01*
X73664Y73113D01*
X73675Y73106D01*
X73672Y73055D01*
X73660Y73051D01*
X73659Y73050D01*
X73645D01*
X73644Y73050D01*
X71921D01*
X71910Y73077D01*
X71910Y73104D01*
X71971Y73166D01*
X72632D01*
X72641Y73152D01*
X72693Y73117D01*
X72756Y73105D01*
X72818Y73117D01*
X72871Y73152D01*
X72907Y73205D01*
X72919Y73268D01*
X72907Y73330D01*
X72871Y73383D01*
X72818Y73418D01*
X72756Y73431D01*
X72693Y73418D01*
X72641Y73383D01*
X72632Y73370D01*
X71929D01*
X71890Y73362D01*
X71857Y73340D01*
X71567Y73050D01*
X71423D01*
X71412Y73077D01*
X71412Y73104D01*
X72022Y73714D01*
X72149Y73587D01*
X72150Y73583D01*
X72172Y73550D01*
X72205Y73528D01*
X72244Y73520D01*
X74134D01*
X74173Y73528D01*
X74203Y73548D01*
X74211Y73545D01*
X74255Y73501D01*
X74259Y73481D01*
X74294Y73428D01*
X74347Y73393D01*
X74409Y73380D01*
X74472Y73393D01*
X74525Y73428D01*
X74560Y73481D01*
X74573Y73543D01*
X74560Y73606D01*
X74525Y73659D01*
X74531Y73678D01*
X75276D01*
X75315Y73685D01*
X75348Y73707D01*
Y73707D01*
X75348D01*
X75733Y74092D01*
X75791Y74081D01*
X75873Y74097D01*
X75942Y74143D01*
X75989Y74213D01*
X76005Y74295D01*
X75989Y74377D01*
X75942Y74446D01*
X75873Y74493D01*
X75791Y74509D01*
X75709Y74493D01*
X75640Y74446D01*
X75593Y74377D01*
X75577Y74295D01*
X75588Y74237D01*
X75363Y74011D01*
X75315Y74026D01*
X75312Y74042D01*
X75276Y74095D01*
X75223Y74131D01*
X75161Y74143D01*
D01*
D01*
X75191Y74179D01*
X75191Y74179D01*
X75237Y74249D01*
X75253Y74331D01*
X75237Y74412D01*
X75191Y74482D01*
X75121Y74528D01*
X75039Y74545D01*
X74957Y74528D01*
X74888Y74482D01*
X74841Y74412D01*
X74825Y74331D01*
X74841Y74249D01*
X74888Y74179D01*
X74957Y74133D01*
X75013Y74122D01*
X75014Y74120D01*
X75009Y74072D01*
X74057D01*
X73766Y74363D01*
X73765Y74367D01*
X73743Y74400D01*
X73465Y74678D01*
X73432Y74700D01*
X73393Y74708D01*
X73389D01*
X71568Y76529D01*
X71535Y76551D01*
X71496Y76558D01*
X56595D01*
X56595Y76852D01*
X56630Y76888D01*
X79836D01*
X79852Y76841D01*
X79815Y76811D01*
X79773Y76757D01*
X79747Y76694D01*
X79738Y76626D01*
X79747Y76558D01*
X79773Y76495D01*
X79815Y76441D01*
X79869Y76399D01*
X79932Y76373D01*
X80000Y76364D01*
X80068Y76373D01*
X80131Y76399D01*
X80185Y76441D01*
X80227Y76495D01*
X80253Y76558D01*
X80262Y76626D01*
X80253Y76694D01*
X80227Y76757D01*
X80185Y76811D01*
X80131Y76853D01*
X80071Y76878D01*
Y76878D01*
X80071D01*
X80068Y76879D01*
Y76879D01*
X80068Y76888D01*
X80836D01*
X80852Y76841D01*
X80815Y76811D01*
X80773Y76757D01*
X80747Y76694D01*
X80738Y76626D01*
X80747Y76558D01*
X80773Y76495D01*
X80815Y76441D01*
X80869Y76399D01*
X80932Y76373D01*
X81000Y76364D01*
X81068Y76373D01*
X81131Y76399D01*
X81185Y76441D01*
X81227Y76495D01*
X81253Y76558D01*
X81262Y76626D01*
X81253Y76694D01*
X81227Y76757D01*
X81185Y76811D01*
X81131Y76853D01*
X81071Y76878D01*
Y76878D01*
X81071D01*
X81068Y76879D01*
Y76879D01*
X81068Y76888D01*
X81836D01*
X81852Y76841D01*
X81815Y76811D01*
X81773Y76757D01*
X81747Y76694D01*
X81738Y76626D01*
X81747Y76558D01*
X81773Y76495D01*
X81815Y76441D01*
X81869Y76399D01*
X81932Y76373D01*
X82000Y76364D01*
X82068Y76373D01*
X82131Y76399D01*
X82185Y76441D01*
X82227Y76495D01*
X82253Y76558D01*
X82262Y76626D01*
X82253Y76694D01*
X82227Y76757D01*
X82185Y76811D01*
X82131Y76853D01*
X82071Y76878D01*
Y76878D01*
X82071D01*
X82068Y76879D01*
Y76879D01*
X82068Y76888D01*
X82907D01*
X82922Y76840D01*
X82885Y76815D01*
X82849Y76762D01*
X82837Y76700D01*
X82849Y76638D01*
X82885Y76585D01*
X82938Y76549D01*
X83000Y76537D01*
X83062Y76549D01*
X83115Y76585D01*
X83151Y76638D01*
X83163Y76700D01*
X83151Y76762D01*
X83115Y76815D01*
X83078Y76840D01*
X83093Y76888D01*
X83836D01*
X83852Y76841D01*
X83815Y76811D01*
X83773Y76757D01*
X83747Y76694D01*
X83738Y76626D01*
X83747Y76558D01*
X83773Y76495D01*
X83815Y76441D01*
X83869Y76399D01*
X83932Y76373D01*
X84000Y76364D01*
X84068Y76373D01*
X84131Y76399D01*
X84185Y76441D01*
X84227Y76495D01*
X84253Y76558D01*
X84262Y76626D01*
X84253Y76694D01*
X84227Y76757D01*
X84185Y76811D01*
X84131Y76853D01*
X84071Y76878D01*
Y76878D01*
X84071D01*
X84068Y76879D01*
Y76879D01*
X84068Y76888D01*
X84836D01*
X84852Y76841D01*
X84815Y76811D01*
X84773Y76757D01*
X84747Y76694D01*
X84738Y76626D01*
X84747Y76558D01*
X84773Y76495D01*
X84815Y76441D01*
X84869Y76399D01*
X84932Y76373D01*
X85000Y76364D01*
X85068Y76373D01*
X85131Y76399D01*
X85185Y76441D01*
X85227Y76495D01*
X85253Y76558D01*
X85262Y76626D01*
X85253Y76694D01*
X85227Y76757D01*
X85185Y76811D01*
X85131Y76853D01*
X85071Y76878D01*
Y76878D01*
X85071D01*
X85068Y76879D01*
Y76879D01*
X85068Y76888D01*
X85836D01*
X85852Y76841D01*
X85815Y76811D01*
X85773Y76757D01*
X85747Y76694D01*
X85738Y76626D01*
X85747Y76558D01*
X85773Y76495D01*
X85815Y76441D01*
X85869Y76399D01*
X85932Y76373D01*
X86000Y76364D01*
X86068Y76373D01*
X86131Y76399D01*
X86185Y76441D01*
X86227Y76495D01*
X86253Y76558D01*
X86262Y76626D01*
X86253Y76694D01*
X86227Y76757D01*
X86185Y76811D01*
X86131Y76853D01*
X86071Y76878D01*
Y76878D01*
X86071D01*
X86068Y76879D01*
Y76879D01*
X86068Y76888D01*
X86836D01*
X86852Y76841D01*
X86815Y76811D01*
X86773Y76757D01*
X86747Y76694D01*
X86738Y76626D01*
X86747Y76558D01*
X86773Y76495D01*
X86815Y76441D01*
X86869Y76399D01*
X86932Y76373D01*
X87000Y76364D01*
X87068Y76373D01*
X87131Y76399D01*
X87185Y76441D01*
X87227Y76495D01*
X87253Y76558D01*
X87262Y76626D01*
X87253Y76694D01*
X87227Y76757D01*
X87185Y76811D01*
X87131Y76853D01*
X87071Y76878D01*
Y76878D01*
X87071D01*
X87068Y76879D01*
Y76879D01*
X87068Y76888D01*
X90836D01*
X90852Y76841D01*
X90815Y76811D01*
X90773Y76757D01*
X90747Y76694D01*
X90738Y76626D01*
X90747Y76558D01*
X90773Y76495D01*
X90815Y76441D01*
X90869Y76399D01*
X90932Y76373D01*
X91000Y76364D01*
X91068Y76373D01*
X91131Y76399D01*
X91185Y76441D01*
X91227Y76495D01*
X91253Y76558D01*
X91262Y76626D01*
X91253Y76694D01*
X91227Y76757D01*
X91185Y76811D01*
X91131Y76853D01*
X91071Y76878D01*
Y76878D01*
X91071D01*
X91068Y76879D01*
Y76879D01*
X91068Y76888D01*
X91836D01*
X91852Y76841D01*
X91815Y76811D01*
X91773Y76757D01*
X91747Y76694D01*
X91738Y76626D01*
X91747Y76558D01*
X91773Y76495D01*
X91815Y76441D01*
X91869Y76399D01*
X91932Y76373D01*
X92000Y76364D01*
X92068Y76373D01*
X92131Y76399D01*
X92185Y76441D01*
X92227Y76495D01*
X92253Y76558D01*
X92262Y76626D01*
X92253Y76694D01*
X92227Y76757D01*
X92185Y76811D01*
X92131Y76853D01*
X92071Y76878D01*
Y76878D01*
X92071D01*
X92068Y76879D01*
Y76879D01*
X92068Y76888D01*
X92836D01*
X92852Y76841D01*
X92815Y76811D01*
X92773Y76757D01*
X92747Y76694D01*
X92738Y76626D01*
X92747Y76558D01*
X92773Y76495D01*
X92815Y76441D01*
X92869Y76399D01*
X92932Y76373D01*
X93000Y76364D01*
X93068Y76373D01*
X93131Y76399D01*
X93185Y76441D01*
X93227Y76495D01*
X93253Y76558D01*
X93262Y76626D01*
X93253Y76694D01*
X93227Y76757D01*
X93185Y76811D01*
X93131Y76853D01*
X93071Y76878D01*
Y76878D01*
X93071D01*
X93068Y76879D01*
Y76879D01*
X93068Y76888D01*
X93947D01*
X93970Y76844D01*
X93949Y76812D01*
X93937Y76750D01*
X93949Y76688D01*
X93985Y76635D01*
X94038Y76599D01*
X94100Y76587D01*
X94162Y76599D01*
X94215Y76635D01*
X94251Y76688D01*
X94263Y76750D01*
X94251Y76812D01*
X94215Y76865D01*
X94222Y76888D01*
X94836D01*
X94852Y76841D01*
X94815Y76811D01*
X94773Y76757D01*
X94747Y76694D01*
X94738Y76626D01*
X94747Y76558D01*
X94773Y76495D01*
X94815Y76441D01*
X94869Y76399D01*
X94932Y76373D01*
X95000Y76364D01*
X95068Y76373D01*
X95131Y76399D01*
X95185Y76441D01*
X95227Y76495D01*
X95253Y76558D01*
X95262Y76626D01*
X95253Y76694D01*
X95227Y76757D01*
X95185Y76811D01*
X95131Y76853D01*
X95071Y76878D01*
Y76878D01*
X95071D01*
X95068Y76879D01*
Y76879D01*
X95068Y76888D01*
X95836D01*
X95852Y76841D01*
X95815Y76811D01*
X95773Y76757D01*
X95747Y76694D01*
X95738Y76626D01*
X95747Y76558D01*
X95773Y76495D01*
X95815Y76441D01*
X95869Y76399D01*
X95932Y76373D01*
X96000Y76364D01*
X96068Y76373D01*
X96131Y76399D01*
X96185Y76441D01*
X96227Y76495D01*
X96253Y76558D01*
X96262Y76626D01*
X96253Y76694D01*
X96227Y76757D01*
X96185Y76811D01*
X96131Y76853D01*
X96071Y76878D01*
Y76878D01*
X96071D01*
X96068Y76879D01*
Y76879D01*
X96068Y76888D01*
X96836D01*
X96852Y76841D01*
X96815Y76811D01*
X96773Y76757D01*
X96747Y76694D01*
X96738Y76626D01*
X96747Y76558D01*
X96773Y76495D01*
X96815Y76441D01*
X96869Y76399D01*
X96932Y76373D01*
X97000Y76364D01*
X97068Y76373D01*
X97131Y76399D01*
X97185Y76441D01*
X97227Y76495D01*
X97253Y76558D01*
X97262Y76626D01*
X97253Y76694D01*
X97227Y76757D01*
X97185Y76811D01*
X97131Y76853D01*
X97071Y76878D01*
Y76878D01*
X97071D01*
X97068Y76879D01*
Y76879D01*
X97068Y76888D01*
X97836D01*
X97852Y76841D01*
X97815Y76811D01*
X97773Y76757D01*
X97747Y76694D01*
X97738Y76626D01*
X97747Y76558D01*
X97773Y76495D01*
X97815Y76441D01*
X97869Y76399D01*
X97932Y76373D01*
X98000Y76364D01*
X98068Y76373D01*
X98131Y76399D01*
X98185Y76441D01*
X98227Y76495D01*
X98253Y76558D01*
X98262Y76626D01*
X98253Y76694D01*
X98227Y76757D01*
X98185Y76811D01*
X98131Y76853D01*
X98071Y76878D01*
Y76878D01*
X98071D01*
X98068Y76879D01*
Y76879D01*
X98068Y76888D01*
X101836D01*
X101852Y76841D01*
X101815Y76811D01*
X101773Y76757D01*
X101747Y76694D01*
X101738Y76626D01*
X101747Y76558D01*
X101773Y76495D01*
X101815Y76441D01*
X101869Y76399D01*
X101932Y76373D01*
X102000Y76364D01*
X102068Y76373D01*
X102131Y76399D01*
X102185Y76441D01*
X102227Y76495D01*
X102253Y76558D01*
X102262Y76626D01*
X102253Y76694D01*
X102227Y76757D01*
X102185Y76811D01*
X102131Y76853D01*
X102071Y76878D01*
Y76878D01*
X102071D01*
X102068Y76879D01*
Y76879D01*
X102068Y76888D01*
X102836D01*
X102852Y76841D01*
X102815Y76811D01*
X102773Y76757D01*
X102747Y76694D01*
X102738Y76626D01*
X102747Y76558D01*
X102773Y76495D01*
X102815Y76441D01*
X102869Y76399D01*
X102932Y76373D01*
X103000Y76364D01*
X103068Y76373D01*
X103131Y76399D01*
X103185Y76441D01*
X103227Y76495D01*
X103253Y76558D01*
X103262Y76626D01*
X103253Y76694D01*
X103227Y76757D01*
X103185Y76811D01*
X103131Y76853D01*
X103071Y76878D01*
Y76878D01*
X103071D01*
X103068Y76879D01*
Y76879D01*
X103068Y76888D01*
X103836D01*
X103852Y76841D01*
X103815Y76811D01*
X103773Y76757D01*
X103747Y76694D01*
X103738Y76626D01*
X103747Y76558D01*
X103773Y76495D01*
X103815Y76441D01*
X103869Y76399D01*
X103932Y76373D01*
X104000Y76364D01*
X104068Y76373D01*
X104131Y76399D01*
X104185Y76441D01*
X104227Y76495D01*
X104253Y76558D01*
X104262Y76626D01*
X104253Y76694D01*
X104227Y76757D01*
X104185Y76811D01*
X104131Y76853D01*
X104071Y76878D01*
Y76878D01*
X104071D01*
X104068Y76879D01*
Y76879D01*
X104068Y76888D01*
X105836D01*
X105852Y76841D01*
X105815Y76811D01*
X105773Y76757D01*
X105747Y76694D01*
X105738Y76626D01*
X105747Y76558D01*
X105773Y76495D01*
X105815Y76441D01*
X105869Y76399D01*
X105932Y76373D01*
X106000Y76364D01*
X106068Y76373D01*
X106131Y76399D01*
X106185Y76441D01*
X106227Y76495D01*
X106253Y76558D01*
X106262Y76626D01*
X106253Y76694D01*
X106227Y76757D01*
X106185Y76811D01*
X106131Y76853D01*
X106071Y76878D01*
Y76878D01*
X106071D01*
X106068Y76879D01*
Y76879D01*
X106068Y76888D01*
X106836D01*
X106852Y76841D01*
X106815Y76811D01*
X106773Y76757D01*
X106747Y76694D01*
X106738Y76626D01*
X106747Y76558D01*
X106773Y76495D01*
X106815Y76441D01*
X106869Y76399D01*
X106932Y76373D01*
X107000Y76364D01*
X107068Y76373D01*
X107131Y76399D01*
X107185Y76441D01*
X107227Y76495D01*
X107253Y76558D01*
X107262Y76626D01*
X107253Y76694D01*
X107227Y76757D01*
X107185Y76811D01*
X107131Y76853D01*
X107071Y76878D01*
Y76878D01*
X107071D01*
X107068Y76879D01*
Y76879D01*
X107068Y76888D01*
X107836D01*
X107852Y76841D01*
X107815Y76811D01*
X107773Y76757D01*
X107747Y76694D01*
X107738Y76626D01*
X107747Y76558D01*
X107773Y76495D01*
X107815Y76441D01*
X107869Y76399D01*
X107932Y76373D01*
X108000Y76364D01*
X108068Y76373D01*
X108131Y76399D01*
X108185Y76441D01*
X108227Y76495D01*
X108253Y76558D01*
X108262Y76626D01*
X108253Y76694D01*
X108227Y76757D01*
X108185Y76811D01*
X108131Y76853D01*
X108071Y76878D01*
Y76878D01*
X108071D01*
X108068Y76879D01*
Y76879D01*
X108068Y76888D01*
X108836D01*
X108852Y76841D01*
X108815Y76811D01*
X108773Y76757D01*
X108747Y76694D01*
X108738Y76626D01*
X108747Y76558D01*
X108773Y76495D01*
X108815Y76441D01*
X108869Y76399D01*
X108932Y76373D01*
X109000Y76364D01*
X109068Y76373D01*
X109131Y76399D01*
X109185Y76441D01*
X109227Y76495D01*
X109253Y76558D01*
X109262Y76626D01*
X109253Y76694D01*
X109227Y76757D01*
X109185Y76811D01*
X109131Y76853D01*
X109071Y76878D01*
Y76878D01*
X109071D01*
X109068Y76879D01*
Y76879D01*
X109068Y76888D01*
X129134D01*
Y67537D01*
D02*
G37*
G36*
Y77112D02*
X56642D01*
X56623Y77158D01*
X56630Y77165D01*
X129134D01*
Y77112D01*
D02*
G37*
G36*
X73301Y73956D02*
X73290Y73897D01*
X73306Y73816D01*
X73338Y73768D01*
X73314Y73724D01*
X72272D01*
X72087Y73909D01*
X72057Y73929D01*
X72022Y73936D01*
X71987Y73929D01*
X71957Y73909D01*
X71098Y73050D01*
X67543D01*
X67519Y73060D01*
X67506D01*
X67494Y73065D01*
X67222D01*
X67220Y73064D01*
X67207Y73064D01*
X67197Y73060D01*
X67193Y73061D01*
X67193Y73061D01*
X67192Y73061D01*
X67192Y73061D01*
X67192Y73061D01*
X67192Y73061D01*
X67192Y73061D01*
X67192Y73061D01*
X67191Y73061D01*
X67191Y73061D01*
X67191Y73061D01*
X67191Y73061D01*
X67191Y73061D01*
X67191Y73061D01*
X67191Y73061D01*
X67189Y73061D01*
X67189Y73061D01*
X67189Y73061D01*
X67188Y73060D01*
X67188Y73060D01*
X67188Y73060D01*
X67188Y73060D01*
X67187Y73060D01*
D01*
D01*
D01*
D01*
D01*
D01*
D01*
D01*
Y73060D01*
Y73060D01*
D01*
D01*
D01*
D01*
D01*
D01*
D01*
D01*
D01*
X67187D01*
D01*
D01*
X67187Y73060D01*
X67187Y73060D01*
X67187Y73060D01*
D01*
X67187Y73060D01*
X67187Y73060D01*
D01*
X67187D01*
D01*
X67187D01*
D01*
X67187Y73060D01*
X67187Y73060D01*
Y73060D01*
D01*
D01*
D01*
D01*
D01*
X67187D01*
X67186Y73059D01*
X67185Y73059D01*
X67184Y73059D01*
X67184Y73059D01*
X67184Y73059D01*
X67183D01*
X67183Y73059D01*
X67183Y73059D01*
X67183Y73059D01*
X67182D01*
X67180Y73058D01*
X67180Y73058D01*
X67180Y73058D01*
X67180Y73058D01*
X67178Y73058D01*
X67176Y73057D01*
X67176Y73057D01*
X67175Y73056D01*
X67174Y73055D01*
X67173Y73055D01*
X67172Y73055D01*
X67172Y73055D01*
X67172Y73055D01*
X67172Y73055D01*
X67172Y73055D01*
X67168Y73052D01*
X67167Y73051D01*
X67165Y73051D01*
X67165Y73051D01*
X67165Y73051D01*
X67165Y73051D01*
X67165Y73051D01*
X67164Y73050D01*
X67164Y73051D01*
X67164Y73051D01*
X67163Y73050D01*
X66193D01*
X66188Y73053D01*
X66184Y73053D01*
X66182Y73056D01*
X66171Y73060D01*
X66159D01*
X66151Y73088D01*
X66163Y73150D01*
X66151Y73212D01*
X66115Y73265D01*
X66062Y73301D01*
X66000Y73313D01*
X65938Y73301D01*
X65885Y73265D01*
X65849Y73212D01*
X65837Y73150D01*
X65849Y73088D01*
X65841Y73060D01*
X65829D01*
X65818Y73056D01*
X65816Y73053D01*
X65812Y73053D01*
X65807Y73050D01*
X62943D01*
X62938Y73053D01*
X62934Y73053D01*
X62932Y73056D01*
X62921Y73060D01*
X62909D01*
X62901Y73088D01*
X62913Y73150D01*
X62901Y73212D01*
X62865Y73265D01*
X62812Y73301D01*
X62750Y73313D01*
X62688Y73301D01*
X62635Y73265D01*
X62599Y73212D01*
X62587Y73150D01*
X62592Y73122D01*
X62520Y73050D01*
X56626D01*
X56626Y73050D01*
X56626D01*
X56626Y73050D01*
X56613Y73050D01*
X56602Y73055D01*
Y73055D01*
D01*
D01*
D01*
D01*
D01*
D01*
D01*
D01*
D01*
D01*
D01*
Y73055D01*
D01*
D01*
D01*
D01*
X56602D01*
D01*
D01*
D01*
D01*
D01*
X56602Y73055D01*
D01*
D01*
D01*
D01*
D01*
D01*
X56602Y73055D01*
X56602Y73055D01*
X56601Y73055D01*
D01*
D01*
D01*
X56601Y73055D01*
X56601Y73055D01*
X56600Y73055D01*
X56600Y73055D01*
Y73055D01*
X56600D01*
D01*
D01*
D01*
D01*
X56600Y73055D01*
X56600Y73055D01*
X56598Y74873D01*
X56615Y74885D01*
X56651Y74938D01*
X56663Y75000D01*
X56658Y75028D01*
X57088Y75458D01*
X70869D01*
X70885Y75435D01*
X70938Y75399D01*
X71000Y75387D01*
X71062Y75399D01*
X71115Y75435D01*
X71151Y75488D01*
X71163Y75550D01*
X71151Y75612D01*
X71115Y75665D01*
X71062Y75701D01*
X71000Y75713D01*
X70938Y75701D01*
X70885Y75665D01*
X70869Y75642D01*
X70478D01*
X70473Y75692D01*
X70512Y75699D01*
X70565Y75735D01*
X70601Y75788D01*
X70613Y75850D01*
X70601Y75912D01*
X70565Y75965D01*
X70512Y76001D01*
X70450Y76013D01*
X70476Y76040D01*
X71217D01*
X73301Y73956D01*
D02*
G37*
G36*
X70374Y75992D02*
X70335Y75965D01*
X70319Y75942D01*
X56596D01*
X56596Y76004D01*
X56631Y76040D01*
X70360D01*
X70374Y75992D01*
D02*
G37*
%LPC*%
G36*
X27323Y54495D02*
X27255Y54486D01*
X27192Y54459D01*
X27137Y54418D01*
X27096Y54363D01*
X27069Y54300D01*
X27061Y54232D01*
X27069Y54164D01*
X27096Y54101D01*
X27137Y54047D01*
X27192Y54005D01*
X27255Y53979D01*
X27323Y53970D01*
X27391Y53979D01*
X27454Y54005D01*
X27508Y54047D01*
X27550Y54101D01*
X27576Y54164D01*
X27585Y54232D01*
X27576Y54300D01*
X27550Y54363D01*
X27508Y54418D01*
X27454Y54459D01*
X27391Y54486D01*
X27323Y54495D01*
D02*
G37*
G36*
X33219Y53599D02*
X33151Y53590D01*
X33087Y53564D01*
X33033Y53522D01*
X32991Y53468D01*
X32965Y53404D01*
X32956Y53337D01*
X32965Y53269D01*
X32991Y53205D01*
X33033Y53151D01*
X33087Y53109D01*
X33151Y53083D01*
X33219Y53074D01*
X33286Y53083D01*
X33350Y53109D01*
X33404Y53151D01*
X33446Y53205D01*
X33472Y53269D01*
X33481Y53337D01*
X33472Y53404D01*
X33446Y53468D01*
X33404Y53522D01*
X33350Y53564D01*
X33286Y53590D01*
X33219Y53599D01*
D02*
G37*
G36*
X28219D02*
X28151Y53590D01*
X28087Y53564D01*
X28033Y53522D01*
X27991Y53468D01*
X27965Y53404D01*
X27956Y53337D01*
X27965Y53269D01*
X27991Y53205D01*
X28033Y53151D01*
X28087Y53109D01*
X28151Y53083D01*
X28219Y53074D01*
X28286Y53083D01*
X28350Y53109D01*
X28404Y53151D01*
X28446Y53205D01*
X28472Y53269D01*
X28481Y53337D01*
X28472Y53404D01*
X28446Y53468D01*
X28404Y53522D01*
X28350Y53564D01*
X28286Y53590D01*
X28219Y53599D01*
D02*
G37*
G36*
X31427D02*
X31359Y53590D01*
X31296Y53564D01*
X31242Y53522D01*
X31200Y53468D01*
X31174Y53404D01*
X31165Y53337D01*
X31174Y53269D01*
X31200Y53205D01*
X31242Y53151D01*
X31296Y53109D01*
X31359Y53083D01*
X31427Y53074D01*
X31495Y53083D01*
X31558Y53109D01*
X31612Y53151D01*
X31654Y53205D01*
X31680Y53269D01*
X31689Y53337D01*
X31680Y53404D01*
X31654Y53468D01*
X31612Y53522D01*
X31558Y53564D01*
X31495Y53590D01*
X31427Y53599D01*
D02*
G37*
G36*
X119882Y54919D02*
X119801Y54908D01*
X119726Y54877D01*
X119661Y54827D01*
X119611Y54763D01*
X119580Y54687D01*
X119569Y54606D01*
X119580Y54525D01*
X119611Y54450D01*
X119661Y54385D01*
X119726Y54336D01*
X119801Y54304D01*
X119882Y54294D01*
X119963Y54304D01*
X120038Y54336D01*
X120103Y54385D01*
X120153Y54450D01*
X120184Y54525D01*
X120195Y54606D01*
X120184Y54687D01*
X120153Y54763D01*
X120103Y54827D01*
X120038Y54877D01*
X119963Y54908D01*
X119882Y54919D01*
D02*
G37*
G36*
X22441Y55380D02*
X22373Y55371D01*
X22310Y55345D01*
X22256Y55304D01*
X22214Y55249D01*
X22188Y55186D01*
X22179Y55118D01*
X22188Y55050D01*
X22214Y54987D01*
X22256Y54933D01*
X22310Y54891D01*
X22373Y54865D01*
X22441Y54856D01*
X22509Y54865D01*
X22572Y54891D01*
X22626Y54933D01*
X22668Y54987D01*
X22694Y55050D01*
X22703Y55118D01*
X22694Y55186D01*
X22668Y55249D01*
X22626Y55304D01*
X22572Y55345D01*
X22509Y55371D01*
X22441Y55380D01*
D02*
G37*
G36*
X32323Y54495D02*
X32255Y54486D01*
X32192Y54459D01*
X32137Y54418D01*
X32096Y54363D01*
X32069Y54300D01*
X32061Y54232D01*
X32069Y54164D01*
X32096Y54101D01*
X32137Y54047D01*
X32192Y54005D01*
X32255Y53979D01*
X32323Y53970D01*
X32391Y53979D01*
X32454Y54005D01*
X32508Y54047D01*
X32550Y54101D01*
X32576Y54164D01*
X32585Y54232D01*
X32576Y54300D01*
X32550Y54363D01*
X32508Y54418D01*
X32454Y54459D01*
X32391Y54486D01*
X32323Y54495D01*
D02*
G37*
G36*
X127316Y54887D02*
X127235Y54876D01*
X127159Y54845D01*
X127095Y54795D01*
X127045Y54730D01*
X127014Y54655D01*
X127003Y54574D01*
X127014Y54493D01*
X127045Y54418D01*
X127095Y54353D01*
X127159Y54303D01*
X127235Y54272D01*
X127316Y54261D01*
X127397Y54272D01*
X127472Y54303D01*
X127537Y54353D01*
X127587Y54418D01*
X127618Y54493D01*
X127628Y54574D01*
X127618Y54655D01*
X127587Y54730D01*
X127537Y54795D01*
X127472Y54845D01*
X127397Y54876D01*
X127316Y54887D01*
D02*
G37*
G36*
X26427Y53599D02*
X26359Y53590D01*
X26296Y53564D01*
X26242Y53522D01*
X26200Y53468D01*
X26174Y53404D01*
X26165Y53337D01*
X26174Y53269D01*
X26200Y53205D01*
X26242Y53151D01*
X26296Y53109D01*
X26359Y53083D01*
X26427Y53074D01*
X26495Y53083D01*
X26558Y53109D01*
X26612Y53151D01*
X26654Y53205D01*
X26680Y53269D01*
X26689Y53337D01*
X26680Y53404D01*
X26654Y53468D01*
X26612Y53522D01*
X26558Y53564D01*
X26495Y53590D01*
X26427Y53599D01*
D02*
G37*
G36*
X22520Y49632D02*
X22452Y49623D01*
X22389Y49597D01*
X22334Y49556D01*
X22293Y49501D01*
X22266Y49438D01*
X22257Y49370D01*
X22266Y49302D01*
X22293Y49239D01*
X22334Y49185D01*
X22389Y49143D01*
X22452Y49117D01*
X22520Y49108D01*
X22588Y49117D01*
X22651Y49143D01*
X22705Y49185D01*
X22747Y49239D01*
X22773Y49302D01*
X22782Y49370D01*
X22773Y49438D01*
X22747Y49501D01*
X22705Y49556D01*
X22651Y49597D01*
X22588Y49623D01*
X22520Y49632D01*
D02*
G37*
G36*
X23799D02*
X23731Y49623D01*
X23668Y49597D01*
X23614Y49556D01*
X23572Y49501D01*
X23546Y49438D01*
X23537Y49370D01*
X23546Y49302D01*
X23572Y49239D01*
X23614Y49185D01*
X23668Y49143D01*
X23731Y49117D01*
X23799Y49108D01*
X23867Y49117D01*
X23930Y49143D01*
X23985Y49185D01*
X24026Y49239D01*
X24053Y49302D01*
X24061Y49370D01*
X24053Y49438D01*
X24026Y49501D01*
X23985Y49556D01*
X23930Y49597D01*
X23867Y49623D01*
X23799Y49632D01*
D02*
G37*
G36*
X23228Y50754D02*
X23160Y50745D01*
X23097Y50719D01*
X23043Y50678D01*
X23001Y50623D01*
X22975Y50560D01*
X22966Y50492D01*
X22975Y50424D01*
X23001Y50361D01*
X23043Y50307D01*
X23097Y50265D01*
X23160Y50239D01*
X23228Y50230D01*
X23296Y50239D01*
X23359Y50265D01*
X23414Y50307D01*
X23455Y50361D01*
X23482Y50424D01*
X23491Y50492D01*
X23482Y50560D01*
X23455Y50623D01*
X23414Y50678D01*
X23359Y50719D01*
X23296Y50745D01*
X23228Y50754D01*
D02*
G37*
G36*
X28219Y41099D02*
X28151Y41090D01*
X28087Y41064D01*
X28033Y41022D01*
X27991Y40968D01*
X27965Y40904D01*
X27956Y40837D01*
X27965Y40769D01*
X27991Y40705D01*
X28033Y40651D01*
X28087Y40609D01*
X28151Y40583D01*
X28219Y40574D01*
X28286Y40583D01*
X28350Y40609D01*
X28404Y40651D01*
X28446Y40705D01*
X28472Y40769D01*
X28481Y40837D01*
X28472Y40904D01*
X28446Y40968D01*
X28404Y41022D01*
X28350Y41064D01*
X28286Y41090D01*
X28219Y41099D01*
D02*
G37*
G36*
X27323Y41995D02*
X27255Y41986D01*
X27192Y41959D01*
X27137Y41918D01*
X27096Y41863D01*
X27069Y41800D01*
X27061Y41732D01*
X27069Y41664D01*
X27096Y41601D01*
X27137Y41547D01*
X27192Y41505D01*
X27255Y41479D01*
X27323Y41470D01*
X27391Y41479D01*
X27454Y41505D01*
X27508Y41547D01*
X27550Y41601D01*
X27576Y41664D01*
X27585Y41732D01*
X27576Y41800D01*
X27550Y41863D01*
X27508Y41918D01*
X27454Y41959D01*
X27391Y41986D01*
X27323Y41995D01*
D02*
G37*
G36*
X124000Y48364D02*
X123831Y48348D01*
X123669Y48298D01*
X123520Y48219D01*
X123389Y48111D01*
X123281Y47980D01*
X123202Y47831D01*
X123152Y47669D01*
X123136Y47500D01*
X123152Y47331D01*
X123202Y47169D01*
X123281Y47020D01*
X123389Y46889D01*
X123520Y46781D01*
X123669Y46702D01*
X123831Y46652D01*
X124000Y46636D01*
X124169Y46652D01*
X124331Y46702D01*
X124480Y46781D01*
X124611Y46889D01*
X124719Y47020D01*
X124798Y47169D01*
X124848Y47331D01*
X124864Y47500D01*
X124848Y47669D01*
X124798Y47831D01*
X124719Y47980D01*
X124611Y48111D01*
X124480Y48219D01*
X124331Y48298D01*
X124169Y48348D01*
X124000Y48364D01*
D02*
G37*
G36*
X32323Y52703D02*
X32255Y52694D01*
X32192Y52668D01*
X32137Y52626D01*
X32096Y52572D01*
X32069Y52509D01*
X32061Y52441D01*
X32069Y52373D01*
X32096Y52310D01*
X32137Y52255D01*
X32192Y52214D01*
X32255Y52187D01*
X32323Y52179D01*
X32391Y52187D01*
X32454Y52214D01*
X32508Y52255D01*
X32550Y52310D01*
X32576Y52373D01*
X32585Y52441D01*
X32576Y52509D01*
X32550Y52572D01*
X32508Y52626D01*
X32454Y52668D01*
X32391Y52694D01*
X32323Y52703D01*
D02*
G37*
G36*
X119843Y53226D02*
X119762Y53215D01*
X119686Y53184D01*
X119621Y53134D01*
X119572Y53070D01*
X119541Y52994D01*
X119530Y52913D01*
X119541Y52832D01*
X119572Y52757D01*
X119621Y52692D01*
X119686Y52643D01*
X119762Y52611D01*
X119843Y52601D01*
X119923Y52611D01*
X119999Y52643D01*
X120064Y52692D01*
X120113Y52757D01*
X120145Y52832D01*
X120155Y52913D01*
X120145Y52994D01*
X120113Y53070D01*
X120064Y53134D01*
X119999Y53184D01*
X119923Y53215D01*
X119843Y53226D01*
D02*
G37*
G36*
X127405Y53387D02*
X127324Y53376D01*
X127248Y53345D01*
X127184Y53295D01*
X127134Y53230D01*
X127103Y53155D01*
X127092Y53074D01*
X127103Y52993D01*
X127134Y52918D01*
X127184Y52853D01*
X127248Y52803D01*
X127324Y52772D01*
X127405Y52761D01*
X127486Y52772D01*
X127561Y52803D01*
X127626Y52853D01*
X127676Y52918D01*
X127707Y52993D01*
X127717Y53074D01*
X127707Y53155D01*
X127676Y53230D01*
X127626Y53295D01*
X127561Y53345D01*
X127486Y53376D01*
X127405Y53387D01*
D02*
G37*
G36*
X121400Y52294D02*
X121284Y52283D01*
X121173Y52249D01*
X121070Y52194D01*
X120980Y52120D01*
X120906Y52030D01*
X120851Y51927D01*
X120817Y51816D01*
X120806Y51700D01*
X120817Y51584D01*
X120851Y51473D01*
X120906Y51370D01*
X120980Y51280D01*
X121070Y51206D01*
X121173Y51151D01*
X121284Y51117D01*
X121400Y51106D01*
X121516Y51117D01*
X121627Y51151D01*
X121730Y51206D01*
X121820Y51280D01*
X121894Y51370D01*
X121949Y51473D01*
X121983Y51584D01*
X121994Y51700D01*
X121983Y51816D01*
X121949Y51927D01*
X121894Y52030D01*
X121820Y52120D01*
X121730Y52194D01*
X121627Y52249D01*
X121516Y52283D01*
X121400Y52294D01*
D02*
G37*
G36*
X23622Y52231D02*
X23554Y52222D01*
X23491Y52196D01*
X23437Y52154D01*
X23395Y52100D01*
X23369Y52036D01*
X23360Y51968D01*
X23369Y51901D01*
X23395Y51837D01*
X23437Y51783D01*
X23491Y51741D01*
X23554Y51715D01*
X23622Y51706D01*
X23690Y51715D01*
X23753Y51741D01*
X23807Y51783D01*
X23849Y51837D01*
X23875Y51901D01*
X23884Y51968D01*
X23875Y52036D01*
X23849Y52100D01*
X23807Y52154D01*
X23753Y52196D01*
X23690Y52222D01*
X23622Y52231D01*
D02*
G37*
G36*
X27323Y52703D02*
X27255Y52694D01*
X27192Y52668D01*
X27137Y52626D01*
X27096Y52572D01*
X27069Y52509D01*
X27061Y52441D01*
X27069Y52373D01*
X27096Y52310D01*
X27137Y52255D01*
X27192Y52214D01*
X27255Y52187D01*
X27323Y52179D01*
X27391Y52187D01*
X27454Y52214D01*
X27508Y52255D01*
X27550Y52310D01*
X27576Y52373D01*
X27585Y52441D01*
X27576Y52509D01*
X27550Y52572D01*
X27508Y52626D01*
X27454Y52668D01*
X27391Y52694D01*
X27323Y52703D01*
D02*
G37*
G36*
X127382Y59829D02*
X127314Y59820D01*
X127251Y59794D01*
X127196Y59752D01*
X127155Y59698D01*
X127128Y59635D01*
X127119Y59567D01*
X127128Y59499D01*
X127155Y59436D01*
X127196Y59381D01*
X127251Y59340D01*
X127314Y59314D01*
X127382Y59305D01*
X127450Y59314D01*
X127513Y59340D01*
X127567Y59381D01*
X127609Y59436D01*
X127635Y59499D01*
X127644Y59567D01*
X127635Y59635D01*
X127609Y59698D01*
X127567Y59752D01*
X127513Y59794D01*
X127450Y59820D01*
X127382Y59829D01*
D02*
G37*
G36*
X122143Y60322D02*
X122075Y60313D01*
X122012Y60287D01*
X121957Y60245D01*
X121916Y60191D01*
X121890Y60127D01*
X121881Y60060D01*
X121890Y59992D01*
X121916Y59928D01*
X121957Y59874D01*
X122012Y59832D01*
X122075Y59806D01*
X122143Y59797D01*
X122211Y59806D01*
X122274Y59832D01*
X122328Y59874D01*
X122370Y59928D01*
X122396Y59992D01*
X122405Y60060D01*
X122396Y60127D01*
X122370Y60191D01*
X122328Y60245D01*
X122274Y60287D01*
X122211Y60313D01*
X122143Y60322D01*
D02*
G37*
G36*
X119938Y59810D02*
X119870Y59801D01*
X119807Y59775D01*
X119753Y59733D01*
X119711Y59679D01*
X119685Y59616D01*
X119676Y59548D01*
X119685Y59480D01*
X119711Y59417D01*
X119753Y59362D01*
X119807Y59321D01*
X119870Y59294D01*
X119938Y59286D01*
X120006Y59294D01*
X120069Y59321D01*
X120124Y59362D01*
X120165Y59417D01*
X120191Y59480D01*
X120200Y59548D01*
X120191Y59616D01*
X120165Y59679D01*
X120124Y59733D01*
X120069Y59775D01*
X120006Y59801D01*
X119938Y59810D01*
D02*
G37*
G36*
X127382Y58845D02*
X127314Y58836D01*
X127251Y58810D01*
X127196Y58768D01*
X127155Y58714D01*
X127128Y58650D01*
X127119Y58583D01*
X127128Y58515D01*
X127155Y58451D01*
X127196Y58397D01*
X127251Y58355D01*
X127314Y58329D01*
X127382Y58320D01*
X127450Y58329D01*
X127513Y58355D01*
X127567Y58397D01*
X127609Y58451D01*
X127635Y58515D01*
X127644Y58583D01*
X127635Y58650D01*
X127609Y58714D01*
X127567Y58768D01*
X127513Y58810D01*
X127450Y58836D01*
X127382Y58845D01*
D02*
G37*
G36*
X122124Y59317D02*
X122056Y59308D01*
X121993Y59282D01*
X121938Y59240D01*
X121897Y59186D01*
X121871Y59123D01*
X121862Y59055D01*
X121871Y58987D01*
X121897Y58924D01*
X121938Y58870D01*
X121993Y58828D01*
X122056Y58802D01*
X122124Y58793D01*
X122192Y58802D01*
X122255Y58828D01*
X122309Y58870D01*
X122351Y58924D01*
X122377Y58987D01*
X122386Y59055D01*
X122377Y59123D01*
X122351Y59186D01*
X122309Y59240D01*
X122255Y59282D01*
X122192Y59308D01*
X122124Y59317D01*
D02*
G37*
G36*
X124035Y61601D02*
X123967Y61592D01*
X123904Y61566D01*
X123850Y61524D01*
X123808Y61470D01*
X123782Y61406D01*
X123773Y61338D01*
X123782Y61271D01*
X123808Y61207D01*
X123850Y61153D01*
X123904Y61111D01*
X123967Y61085D01*
X124035Y61076D01*
X124103Y61085D01*
X124166Y61111D01*
X124221Y61153D01*
X124262Y61207D01*
X124289Y61271D01*
X124297Y61338D01*
X124289Y61406D01*
X124262Y61470D01*
X124221Y61524D01*
X124166Y61566D01*
X124103Y61592D01*
X124035Y61601D01*
D02*
G37*
G36*
X119978Y61818D02*
X119910Y61809D01*
X119846Y61783D01*
X119792Y61741D01*
X119750Y61687D01*
X119724Y61624D01*
X119715Y61556D01*
X119724Y61488D01*
X119750Y61425D01*
X119792Y61370D01*
X119846Y61329D01*
X119910Y61302D01*
X119978Y61293D01*
X120045Y61302D01*
X120109Y61329D01*
X120163Y61370D01*
X120205Y61425D01*
X120231Y61488D01*
X120240Y61556D01*
X120231Y61624D01*
X120205Y61687D01*
X120163Y61741D01*
X120109Y61783D01*
X120045Y61809D01*
X119978Y61818D01*
D02*
G37*
G36*
X122182Y61306D02*
X122114Y61297D01*
X122051Y61271D01*
X121997Y61229D01*
X121955Y61175D01*
X121929Y61112D01*
X121920Y61044D01*
X121929Y60976D01*
X121955Y60913D01*
X121997Y60858D01*
X122051Y60817D01*
X122114Y60791D01*
X122182Y60782D01*
X122250Y60791D01*
X122313Y60817D01*
X122368Y60858D01*
X122409Y60913D01*
X122436Y60976D01*
X122444Y61044D01*
X122436Y61112D01*
X122409Y61175D01*
X122368Y61229D01*
X122313Y61271D01*
X122250Y61297D01*
X122182Y61306D01*
D02*
G37*
G36*
X119938Y60794D02*
X119870Y60785D01*
X119807Y60759D01*
X119753Y60717D01*
X119711Y60663D01*
X119685Y60600D01*
X119676Y60532D01*
X119685Y60464D01*
X119711Y60401D01*
X119753Y60347D01*
X119807Y60305D01*
X119870Y60279D01*
X119938Y60270D01*
X120006Y60279D01*
X120069Y60305D01*
X120124Y60347D01*
X120165Y60401D01*
X120191Y60464D01*
X120200Y60532D01*
X120191Y60600D01*
X120165Y60663D01*
X120124Y60717D01*
X120069Y60759D01*
X120006Y60785D01*
X119938Y60794D01*
D02*
G37*
G36*
X127382Y60813D02*
X127314Y60804D01*
X127251Y60778D01*
X127196Y60736D01*
X127155Y60682D01*
X127128Y60619D01*
X127119Y60551D01*
X127128Y60483D01*
X127155Y60420D01*
X127196Y60366D01*
X127251Y60324D01*
X127314Y60298D01*
X127382Y60289D01*
X127450Y60298D01*
X127513Y60324D01*
X127567Y60366D01*
X127609Y60420D01*
X127635Y60483D01*
X127644Y60551D01*
X127635Y60619D01*
X127609Y60682D01*
X127567Y60736D01*
X127513Y60778D01*
X127450Y60804D01*
X127382Y60813D01*
D02*
G37*
G36*
X119938Y58826D02*
X119870Y58817D01*
X119807Y58791D01*
X119753Y58749D01*
X119711Y58695D01*
X119685Y58631D01*
X119676Y58564D01*
X119685Y58496D01*
X119711Y58432D01*
X119753Y58378D01*
X119807Y58336D01*
X119870Y58310D01*
X119938Y58301D01*
X120006Y58310D01*
X120069Y58336D01*
X120124Y58378D01*
X120165Y58432D01*
X120191Y58496D01*
X120200Y58564D01*
X120191Y58631D01*
X120165Y58695D01*
X120124Y58749D01*
X120069Y58791D01*
X120006Y58817D01*
X119938Y58826D01*
D02*
G37*
G36*
X22480Y57349D02*
X22412Y57340D01*
X22349Y57314D01*
X22295Y57272D01*
X22253Y57218D01*
X22227Y57155D01*
X22218Y57087D01*
X22227Y57019D01*
X22253Y56956D01*
X22295Y56901D01*
X22349Y56860D01*
X22412Y56833D01*
X22480Y56824D01*
X22548Y56833D01*
X22611Y56860D01*
X22666Y56901D01*
X22707Y56956D01*
X22734Y57019D01*
X22743Y57087D01*
X22734Y57155D01*
X22707Y57218D01*
X22666Y57272D01*
X22611Y57314D01*
X22548Y57340D01*
X22480Y57349D01*
D02*
G37*
G36*
X23760D02*
X23692Y57340D01*
X23629Y57314D01*
X23574Y57272D01*
X23533Y57218D01*
X23507Y57155D01*
X23498Y57087D01*
X23507Y57019D01*
X23533Y56956D01*
X23574Y56901D01*
X23629Y56860D01*
X23692Y56833D01*
X23760Y56824D01*
X23828Y56833D01*
X23891Y56860D01*
X23945Y56901D01*
X23987Y56956D01*
X24013Y57019D01*
X24022Y57087D01*
X24013Y57155D01*
X23987Y57218D01*
X23945Y57272D01*
X23891Y57314D01*
X23828Y57340D01*
X23760Y57349D01*
D02*
G37*
G36*
X27323Y56797D02*
X27255Y56789D01*
X27192Y56762D01*
X27137Y56721D01*
X27096Y56666D01*
X27069Y56603D01*
X27061Y56535D01*
X27069Y56467D01*
X27096Y56404D01*
X27137Y56350D01*
X27192Y56308D01*
X27255Y56282D01*
X27323Y56273D01*
X27391Y56282D01*
X27454Y56308D01*
X27508Y56350D01*
X27550Y56404D01*
X27576Y56467D01*
X27585Y56535D01*
X27576Y56603D01*
X27550Y56666D01*
X27508Y56721D01*
X27454Y56762D01*
X27391Y56789D01*
X27323Y56797D01*
D02*
G37*
G36*
X23720Y55380D02*
X23653Y55371D01*
X23589Y55345D01*
X23535Y55304D01*
X23493Y55249D01*
X23467Y55186D01*
X23458Y55118D01*
X23467Y55050D01*
X23493Y54987D01*
X23535Y54933D01*
X23589Y54891D01*
X23653Y54865D01*
X23720Y54856D01*
X23788Y54865D01*
X23852Y54891D01*
X23906Y54933D01*
X23948Y54987D01*
X23974Y55050D01*
X23983Y55118D01*
X23974Y55186D01*
X23948Y55249D01*
X23906Y55304D01*
X23852Y55345D01*
X23788Y55371D01*
X23720Y55380D01*
D02*
G37*
G36*
X122154Y56387D02*
X122073Y56376D01*
X121998Y56345D01*
X121933Y56295D01*
X121884Y56230D01*
X121852Y56155D01*
X121842Y56074D01*
X121852Y55993D01*
X121884Y55918D01*
X121933Y55853D01*
X121998Y55803D01*
X122073Y55772D01*
X122154Y55761D01*
X122235Y55772D01*
X122311Y55803D01*
X122375Y55853D01*
X122425Y55918D01*
X122456Y55993D01*
X122467Y56074D01*
X122456Y56155D01*
X122425Y56230D01*
X122375Y56295D01*
X122311Y56345D01*
X122235Y56376D01*
X122154Y56387D01*
D02*
G37*
G36*
X123956Y58097D02*
X123889Y58088D01*
X123825Y58062D01*
X123771Y58020D01*
X123729Y57966D01*
X123703Y57902D01*
X123694Y57835D01*
X123703Y57767D01*
X123729Y57703D01*
X123771Y57649D01*
X123825Y57607D01*
X123889Y57581D01*
X123956Y57572D01*
X124024Y57581D01*
X124088Y57607D01*
X124142Y57649D01*
X124184Y57703D01*
X124210Y57767D01*
X124219Y57835D01*
X124210Y57902D01*
X124184Y57966D01*
X124142Y58020D01*
X124088Y58062D01*
X124024Y58088D01*
X123956Y58097D01*
D02*
G37*
G36*
X27323Y58589D02*
X27255Y58580D01*
X27192Y58554D01*
X27137Y58512D01*
X27096Y58458D01*
X27069Y58395D01*
X27061Y58327D01*
X27069Y58259D01*
X27096Y58196D01*
X27137Y58141D01*
X27192Y58100D01*
X27255Y58073D01*
X27323Y58064D01*
X27391Y58073D01*
X27454Y58100D01*
X27508Y58141D01*
X27550Y58196D01*
X27576Y58259D01*
X27585Y58327D01*
X27576Y58395D01*
X27550Y58458D01*
X27508Y58512D01*
X27454Y58554D01*
X27391Y58580D01*
X27323Y58589D01*
D02*
G37*
G36*
X125964Y58057D02*
X125896Y58048D01*
X125833Y58022D01*
X125779Y57981D01*
X125737Y57926D01*
X125711Y57863D01*
X125702Y57795D01*
X125711Y57727D01*
X125737Y57664D01*
X125779Y57610D01*
X125833Y57568D01*
X125896Y57542D01*
X125964Y57533D01*
X126032Y57542D01*
X126095Y57568D01*
X126150Y57610D01*
X126191Y57664D01*
X126218Y57727D01*
X126227Y57795D01*
X126218Y57863D01*
X126191Y57926D01*
X126150Y57981D01*
X126095Y58022D01*
X126032Y58048D01*
X125964Y58057D01*
D02*
G37*
G36*
X26427Y57693D02*
X26359Y57684D01*
X26296Y57658D01*
X26242Y57616D01*
X26200Y57562D01*
X26174Y57499D01*
X26165Y57431D01*
X26174Y57363D01*
X26200Y57300D01*
X26242Y57246D01*
X26296Y57204D01*
X26359Y57178D01*
X26427Y57169D01*
X26495Y57178D01*
X26558Y57204D01*
X26612Y57246D01*
X26654Y57300D01*
X26680Y57363D01*
X26689Y57431D01*
X26680Y57499D01*
X26654Y57562D01*
X26612Y57616D01*
X26558Y57658D01*
X26495Y57684D01*
X26427Y57693D01*
D02*
G37*
G36*
X28219D02*
X28151Y57684D01*
X28087Y57658D01*
X28033Y57616D01*
X27991Y57562D01*
X27965Y57499D01*
X27956Y57431D01*
X27965Y57363D01*
X27991Y57300D01*
X28033Y57246D01*
X28087Y57204D01*
X28151Y57178D01*
X28219Y57169D01*
X28286Y57178D01*
X28350Y57204D01*
X28404Y57246D01*
X28446Y57300D01*
X28472Y57363D01*
X28481Y57431D01*
X28472Y57499D01*
X28446Y57562D01*
X28404Y57616D01*
X28350Y57658D01*
X28286Y57684D01*
X28219Y57693D01*
D02*
G37*
G36*
X26427Y41099D02*
X26359Y41090D01*
X26296Y41064D01*
X26242Y41022D01*
X26200Y40968D01*
X26174Y40904D01*
X26165Y40837D01*
X26174Y40769D01*
X26200Y40705D01*
X26242Y40651D01*
X26296Y40609D01*
X26359Y40583D01*
X26427Y40574D01*
X26495Y40583D01*
X26558Y40609D01*
X26612Y40651D01*
X26654Y40705D01*
X26680Y40769D01*
X26689Y40837D01*
X26680Y40904D01*
X26654Y40968D01*
X26612Y41022D01*
X26558Y41064D01*
X26495Y41090D01*
X26427Y41099D01*
D02*
G37*
G36*
X122547Y34082D02*
X122479Y34073D01*
X122416Y34047D01*
X122362Y34006D01*
X122320Y33951D01*
X122294Y33888D01*
X122285Y33820D01*
X122294Y33752D01*
X122320Y33689D01*
X122362Y33635D01*
X122416Y33593D01*
X122479Y33567D01*
X122547Y33558D01*
X122615Y33567D01*
X122678Y33593D01*
X122733Y33635D01*
X122774Y33689D01*
X122801Y33752D01*
X122809Y33820D01*
X122801Y33888D01*
X122774Y33951D01*
X122733Y34006D01*
X122678Y34047D01*
X122615Y34073D01*
X122547Y34082D01*
D02*
G37*
G36*
X123447D02*
X123379Y34073D01*
X123316Y34047D01*
X123262Y34006D01*
X123220Y33951D01*
X123194Y33888D01*
X123185Y33820D01*
X123194Y33752D01*
X123220Y33689D01*
X123262Y33635D01*
X123316Y33593D01*
X123379Y33567D01*
X123447Y33558D01*
X123515Y33567D01*
X123578Y33593D01*
X123633Y33635D01*
X123674Y33689D01*
X123701Y33752D01*
X123709Y33820D01*
X123701Y33888D01*
X123674Y33951D01*
X123633Y34006D01*
X123578Y34047D01*
X123515Y34073D01*
X123447Y34082D01*
D02*
G37*
G36*
X121647D02*
X121579Y34073D01*
X121516Y34047D01*
X121462Y34006D01*
X121420Y33951D01*
X121394Y33888D01*
X121385Y33820D01*
X121394Y33752D01*
X121420Y33689D01*
X121462Y33635D01*
X121516Y33593D01*
X121579Y33567D01*
X121647Y33558D01*
X121715Y33567D01*
X121778Y33593D01*
X121833Y33635D01*
X121874Y33689D01*
X121901Y33752D01*
X121909Y33820D01*
X121901Y33888D01*
X121874Y33951D01*
X121833Y34006D01*
X121778Y34047D01*
X121715Y34073D01*
X121647Y34082D01*
D02*
G37*
G36*
X119847D02*
X119779Y34073D01*
X119716Y34047D01*
X119662Y34006D01*
X119620Y33951D01*
X119594Y33888D01*
X119585Y33820D01*
X119594Y33752D01*
X119620Y33689D01*
X119662Y33635D01*
X119716Y33593D01*
X119779Y33567D01*
X119847Y33558D01*
X119915Y33567D01*
X119978Y33593D01*
X120033Y33635D01*
X120074Y33689D01*
X120101Y33752D01*
X120109Y33820D01*
X120101Y33888D01*
X120074Y33951D01*
X120033Y34006D01*
X119978Y34047D01*
X119915Y34073D01*
X119847Y34082D01*
D02*
G37*
G36*
X120747D02*
X120679Y34073D01*
X120616Y34047D01*
X120562Y34006D01*
X120520Y33951D01*
X120494Y33888D01*
X120485Y33820D01*
X120494Y33752D01*
X120520Y33689D01*
X120562Y33635D01*
X120616Y33593D01*
X120679Y33567D01*
X120747Y33558D01*
X120815Y33567D01*
X120878Y33593D01*
X120933Y33635D01*
X120974Y33689D01*
X121001Y33752D01*
X121009Y33820D01*
X121001Y33888D01*
X120974Y33951D01*
X120933Y34006D01*
X120878Y34047D01*
X120815Y34073D01*
X120747Y34082D01*
D02*
G37*
G36*
X26031Y34035D02*
Y33628D01*
X26438D01*
X26429Y33698D01*
X26382Y33810D01*
X26309Y33906D01*
X26213Y33980D01*
X26101Y34026D01*
X26031Y34035D01*
D02*
G37*
G36*
X127756Y34613D02*
X127688Y34604D01*
X127625Y34578D01*
X127570Y34536D01*
X127529Y34482D01*
X127503Y34418D01*
X127494Y34350D01*
X127503Y34283D01*
X127529Y34219D01*
X127570Y34165D01*
X127625Y34123D01*
X127688Y34097D01*
X127756Y34088D01*
X127824Y34097D01*
X127887Y34123D01*
X127941Y34165D01*
X127983Y34219D01*
X128009Y34283D01*
X128018Y34350D01*
X128009Y34418D01*
X127983Y34482D01*
X127941Y34536D01*
X127887Y34578D01*
X127824Y34604D01*
X127756Y34613D01*
D02*
G37*
G36*
X25931Y34035D02*
X25861Y34026D01*
X25749Y33980D01*
X25653Y33906D01*
X25579Y33810D01*
X25533Y33698D01*
X25523Y33628D01*
X25931D01*
Y34035D01*
D02*
G37*
G36*
X24281D02*
X24211Y34026D01*
X24099Y33980D01*
X24003Y33906D01*
X23929Y33810D01*
X23883Y33698D01*
X23873Y33628D01*
X24281D01*
Y34035D01*
D02*
G37*
G36*
X24381D02*
Y33628D01*
X24788D01*
X24779Y33698D01*
X24732Y33810D01*
X24659Y33906D01*
X24563Y33980D01*
X24451Y34026D01*
X24381Y34035D01*
D02*
G37*
G36*
X31181Y33865D02*
X31113Y33856D01*
X31050Y33830D01*
X30995Y33788D01*
X30954Y33734D01*
X30928Y33670D01*
X30919Y33602D01*
X30928Y33535D01*
X30954Y33471D01*
X30995Y33417D01*
X31050Y33375D01*
X31113Y33349D01*
X31181Y33340D01*
X31249Y33349D01*
X31312Y33375D01*
X31366Y33417D01*
X31408Y33471D01*
X31434Y33535D01*
X31443Y33602D01*
X31434Y33670D01*
X31408Y33734D01*
X31366Y33788D01*
X31312Y33830D01*
X31249Y33856D01*
X31181Y33865D01*
D02*
G37*
G36*
X124803Y33038D02*
X124735Y33029D01*
X124672Y33003D01*
X124618Y32961D01*
X124576Y32907D01*
X124550Y32843D01*
X124541Y32776D01*
X124550Y32708D01*
X124576Y32644D01*
X124618Y32590D01*
X124672Y32548D01*
X124735Y32522D01*
X124803Y32513D01*
X124871Y32522D01*
X124934Y32548D01*
X124989Y32590D01*
X125030Y32644D01*
X125057Y32708D01*
X125065Y32776D01*
X125057Y32843D01*
X125030Y32907D01*
X124989Y32961D01*
X124934Y33003D01*
X124871Y33029D01*
X124803Y33038D01*
D02*
G37*
G36*
X22481Y34471D02*
X22341Y34458D01*
X22208Y34417D01*
X22084Y34351D01*
X21976Y34262D01*
X21887Y34154D01*
X21822Y34031D01*
X21781Y33897D01*
X21767Y33758D01*
X21781Y33619D01*
X21822Y33485D01*
X21887Y33362D01*
X21976Y33253D01*
X22084Y33165D01*
X22208Y33099D01*
X22341Y33058D01*
X22481Y33045D01*
X22620Y33058D01*
X22754Y33099D01*
X22877Y33165D01*
X22985Y33253D01*
X23074Y33362D01*
X23140Y33485D01*
X23180Y33619D01*
X23194Y33758D01*
X23180Y33897D01*
X23140Y34031D01*
X23074Y34154D01*
X22985Y34262D01*
X22877Y34351D01*
X22754Y34417D01*
X22620Y34458D01*
X22481Y34471D01*
D02*
G37*
G36*
X126555Y32861D02*
X126487Y32852D01*
X126424Y32825D01*
X126370Y32784D01*
X126328Y32729D01*
X126302Y32666D01*
X126293Y32598D01*
X126302Y32530D01*
X126328Y32467D01*
X126370Y32413D01*
X126424Y32371D01*
X126487Y32345D01*
X126555Y32336D01*
X126623Y32345D01*
X126686Y32371D01*
X126741Y32413D01*
X126782Y32467D01*
X126808Y32530D01*
X126817Y32598D01*
X126808Y32666D01*
X126782Y32729D01*
X126741Y32784D01*
X126686Y32825D01*
X126623Y32852D01*
X126555Y32861D01*
D02*
G37*
G36*
X31181Y32585D02*
X31113Y32576D01*
X31050Y32550D01*
X30995Y32508D01*
X30954Y32454D01*
X30928Y32391D01*
X30919Y32323D01*
X30928Y32255D01*
X30954Y32192D01*
X30995Y32137D01*
X31050Y32096D01*
X31113Y32070D01*
X31181Y32061D01*
X31249Y32070D01*
X31312Y32096D01*
X31366Y32137D01*
X31408Y32192D01*
X31434Y32255D01*
X31443Y32323D01*
X31434Y32391D01*
X31408Y32454D01*
X31366Y32508D01*
X31312Y32550D01*
X31249Y32576D01*
X31181Y32585D01*
D02*
G37*
G36*
X123622Y32841D02*
X123554Y32832D01*
X123491Y32806D01*
X123437Y32764D01*
X123395Y32710D01*
X123369Y32647D01*
X123360Y32579D01*
X123369Y32511D01*
X123395Y32448D01*
X123437Y32393D01*
X123491Y32352D01*
X123554Y32325D01*
X123622Y32317D01*
X123690Y32325D01*
X123753Y32352D01*
X123807Y32393D01*
X123849Y32448D01*
X123875Y32511D01*
X123884Y32579D01*
X123875Y32647D01*
X123849Y32710D01*
X123807Y32764D01*
X123753Y32806D01*
X123690Y32832D01*
X123622Y32841D01*
D02*
G37*
G36*
X25931Y33528D02*
X25523D01*
X25533Y33458D01*
X25579Y33346D01*
X25653Y33250D01*
X25749Y33176D01*
X25861Y33130D01*
X25931Y33121D01*
Y33528D01*
D02*
G37*
G36*
X26438D02*
X26031D01*
Y33121D01*
X26101Y33130D01*
X26213Y33176D01*
X26309Y33250D01*
X26382Y33346D01*
X26429Y33458D01*
X26438Y33528D01*
D02*
G37*
G36*
X24788D02*
X24381D01*
Y33121D01*
X24451Y33130D01*
X24563Y33176D01*
X24659Y33250D01*
X24732Y33346D01*
X24779Y33458D01*
X24788Y33528D01*
D02*
G37*
G36*
X27831Y34471D02*
X27691Y34458D01*
X27558Y34417D01*
X27434Y34351D01*
X27326Y34262D01*
X27237Y34154D01*
X27172Y34031D01*
X27131Y33897D01*
X27117Y33758D01*
X27131Y33619D01*
X27172Y33485D01*
X27237Y33362D01*
X27326Y33253D01*
X27434Y33165D01*
X27558Y33099D01*
X27691Y33058D01*
X27831Y33045D01*
X27970Y33058D01*
X28104Y33099D01*
X28227Y33165D01*
X28335Y33253D01*
X28424Y33362D01*
X28490Y33485D01*
X28530Y33619D01*
X28544Y33758D01*
X28530Y33897D01*
X28490Y34031D01*
X28424Y34154D01*
X28335Y34262D01*
X28227Y34351D01*
X28104Y34417D01*
X27970Y34458D01*
X27831Y34471D01*
D02*
G37*
G36*
X24281Y33528D02*
X23873D01*
X23883Y33458D01*
X23929Y33346D01*
X24003Y33250D01*
X24099Y33176D01*
X24211Y33130D01*
X24281Y33121D01*
Y33528D01*
D02*
G37*
G36*
X123447Y37682D02*
X123379Y37673D01*
X123316Y37647D01*
X123262Y37606D01*
X123220Y37551D01*
X123194Y37488D01*
X123185Y37420D01*
X123194Y37352D01*
X123220Y37289D01*
X123262Y37235D01*
X123316Y37193D01*
X123379Y37167D01*
X123447Y37158D01*
X123515Y37167D01*
X123578Y37193D01*
X123633Y37235D01*
X123674Y37289D01*
X123701Y37352D01*
X123709Y37420D01*
X123701Y37488D01*
X123674Y37551D01*
X123633Y37606D01*
X123578Y37647D01*
X123515Y37673D01*
X123447Y37682D01*
D02*
G37*
G36*
X126575Y37861D02*
X126507Y37852D01*
X126444Y37826D01*
X126389Y37784D01*
X126348Y37730D01*
X126321Y37666D01*
X126313Y37598D01*
X126321Y37531D01*
X126348Y37467D01*
X126389Y37413D01*
X126444Y37371D01*
X126507Y37345D01*
X126575Y37336D01*
X126643Y37345D01*
X126706Y37371D01*
X126760Y37413D01*
X126802Y37467D01*
X126828Y37531D01*
X126837Y37598D01*
X126828Y37666D01*
X126802Y37730D01*
X126760Y37784D01*
X126706Y37826D01*
X126643Y37852D01*
X126575Y37861D01*
D02*
G37*
G36*
X122547Y37682D02*
X122479Y37673D01*
X122416Y37647D01*
X122362Y37606D01*
X122320Y37551D01*
X122294Y37488D01*
X122285Y37420D01*
X122294Y37352D01*
X122320Y37289D01*
X122362Y37235D01*
X122416Y37193D01*
X122479Y37167D01*
X122547Y37158D01*
X122615Y37167D01*
X122678Y37193D01*
X122733Y37235D01*
X122774Y37289D01*
X122801Y37352D01*
X122809Y37420D01*
X122801Y37488D01*
X122774Y37551D01*
X122733Y37606D01*
X122678Y37647D01*
X122615Y37673D01*
X122547Y37682D01*
D02*
G37*
G36*
X120747D02*
X120679Y37673D01*
X120616Y37647D01*
X120562Y37606D01*
X120520Y37551D01*
X120494Y37488D01*
X120485Y37420D01*
X120494Y37352D01*
X120520Y37289D01*
X120562Y37235D01*
X120616Y37193D01*
X120679Y37167D01*
X120747Y37158D01*
X120815Y37167D01*
X120878Y37193D01*
X120933Y37235D01*
X120974Y37289D01*
X121001Y37352D01*
X121009Y37420D01*
X121001Y37488D01*
X120974Y37551D01*
X120933Y37606D01*
X120878Y37647D01*
X120815Y37673D01*
X120747Y37682D01*
D02*
G37*
G36*
X121647D02*
X121579Y37673D01*
X121516Y37647D01*
X121462Y37606D01*
X121420Y37551D01*
X121394Y37488D01*
X121385Y37420D01*
X121394Y37352D01*
X121420Y37289D01*
X121462Y37235D01*
X121516Y37193D01*
X121579Y37167D01*
X121647Y37158D01*
X121715Y37167D01*
X121778Y37193D01*
X121833Y37235D01*
X121874Y37289D01*
X121901Y37352D01*
X121909Y37420D01*
X121901Y37488D01*
X121874Y37551D01*
X121833Y37606D01*
X121778Y37647D01*
X121715Y37673D01*
X121647Y37682D01*
D02*
G37*
G36*
X22598Y40262D02*
X22531Y40253D01*
X22467Y40227D01*
X22413Y40185D01*
X22371Y40131D01*
X22345Y40068D01*
X22336Y40000D01*
X22345Y39932D01*
X22371Y39869D01*
X22413Y39815D01*
X22467Y39773D01*
X22531Y39747D01*
X22598Y39738D01*
X22666Y39747D01*
X22730Y39773D01*
X22784Y39815D01*
X22826Y39869D01*
X22852Y39932D01*
X22861Y40000D01*
X22852Y40068D01*
X22826Y40131D01*
X22784Y40185D01*
X22730Y40227D01*
X22666Y40253D01*
X22598Y40262D01*
D02*
G37*
G36*
X23878D02*
X23810Y40253D01*
X23747Y40227D01*
X23693Y40185D01*
X23651Y40131D01*
X23625Y40068D01*
X23616Y40000D01*
X23625Y39932D01*
X23651Y39869D01*
X23693Y39815D01*
X23747Y39773D01*
X23810Y39747D01*
X23878Y39738D01*
X23946Y39747D01*
X24009Y39773D01*
X24063Y39815D01*
X24105Y39869D01*
X24131Y39932D01*
X24140Y40000D01*
X24131Y40068D01*
X24105Y40131D01*
X24063Y40185D01*
X24009Y40227D01*
X23946Y40253D01*
X23878Y40262D01*
D02*
G37*
G36*
X27323Y40203D02*
X27255Y40194D01*
X27192Y40168D01*
X27137Y40126D01*
X27096Y40072D01*
X27069Y40009D01*
X27061Y39941D01*
X27069Y39873D01*
X27096Y39810D01*
X27137Y39755D01*
X27192Y39714D01*
X27255Y39687D01*
X27323Y39679D01*
X27391Y39687D01*
X27454Y39714D01*
X27508Y39755D01*
X27550Y39810D01*
X27576Y39873D01*
X27585Y39941D01*
X27576Y40009D01*
X27550Y40072D01*
X27508Y40126D01*
X27454Y40168D01*
X27391Y40194D01*
X27323Y40203D01*
D02*
G37*
G36*
X127657Y38451D02*
X127590Y38442D01*
X127526Y38416D01*
X127472Y38374D01*
X127430Y38320D01*
X127404Y38257D01*
X127395Y38189D01*
X127404Y38121D01*
X127430Y38058D01*
X127472Y38004D01*
X127526Y37962D01*
X127590Y37936D01*
X127657Y37927D01*
X127725Y37936D01*
X127789Y37962D01*
X127843Y38004D01*
X127885Y38058D01*
X127911Y38121D01*
X127920Y38189D01*
X127911Y38257D01*
X127885Y38320D01*
X127843Y38374D01*
X127789Y38416D01*
X127725Y38442D01*
X127657Y38451D01*
D02*
G37*
G36*
X23268Y39101D02*
X23200Y39092D01*
X23136Y39066D01*
X23082Y39024D01*
X23041Y38970D01*
X23014Y38907D01*
X23005Y38839D01*
X23014Y38771D01*
X23041Y38708D01*
X23082Y38653D01*
X23136Y38612D01*
X23200Y38585D01*
X23268Y38576D01*
X23335Y38585D01*
X23399Y38612D01*
X23453Y38653D01*
X23495Y38708D01*
X23521Y38771D01*
X23530Y38839D01*
X23521Y38907D01*
X23495Y38970D01*
X23453Y39024D01*
X23399Y39066D01*
X23335Y39092D01*
X23268Y39101D01*
D02*
G37*
G36*
X119847Y37682D02*
X119779Y37673D01*
X119716Y37647D01*
X119662Y37606D01*
X119620Y37551D01*
X119594Y37488D01*
X119585Y37420D01*
X119594Y37352D01*
X119620Y37289D01*
X119662Y37235D01*
X119716Y37193D01*
X119779Y37167D01*
X119847Y37158D01*
X119915Y37167D01*
X119978Y37193D01*
X120033Y37235D01*
X120074Y37289D01*
X120101Y37352D01*
X120109Y37420D01*
X120101Y37488D01*
X120074Y37551D01*
X120033Y37606D01*
X119978Y37647D01*
X119915Y37673D01*
X119847Y37682D01*
D02*
G37*
G36*
X24331Y36212D02*
X24211Y36196D01*
X24099Y36150D01*
X24003Y36076D01*
X23929Y35980D01*
X23883Y35868D01*
X23867Y35748D01*
X23883Y35628D01*
X23929Y35516D01*
X24003Y35420D01*
X24099Y35346D01*
X24211Y35300D01*
X24331Y35284D01*
X24451Y35300D01*
X24563Y35346D01*
X24659Y35420D01*
X24732Y35516D01*
X24779Y35628D01*
X24795Y35748D01*
X24779Y35868D01*
X24732Y35980D01*
X24659Y36076D01*
X24563Y36150D01*
X24451Y36196D01*
X24331Y36212D01*
D02*
G37*
G36*
X25981D02*
X25861Y36196D01*
X25749Y36150D01*
X25653Y36076D01*
X25579Y35980D01*
X25533Y35868D01*
X25517Y35748D01*
X25533Y35628D01*
X25579Y35516D01*
X25653Y35420D01*
X25749Y35346D01*
X25861Y35300D01*
X25981Y35284D01*
X26101Y35300D01*
X26213Y35346D01*
X26309Y35420D01*
X26382Y35516D01*
X26429Y35628D01*
X26445Y35748D01*
X26429Y35868D01*
X26382Y35980D01*
X26309Y36076D01*
X26213Y36150D01*
X26101Y36196D01*
X25981Y36212D01*
D02*
G37*
G36*
X127698Y35261D02*
X127630Y35253D01*
X127567Y35226D01*
X127512Y35185D01*
X127471Y35130D01*
X127444Y35067D01*
X127435Y34999D01*
X127444Y34931D01*
X127471Y34868D01*
X127512Y34814D01*
X127567Y34772D01*
X127630Y34746D01*
X127698Y34737D01*
X127766Y34746D01*
X127829Y34772D01*
X127883Y34814D01*
X127925Y34868D01*
X127951Y34931D01*
X127960Y34999D01*
X127951Y35067D01*
X127925Y35130D01*
X127883Y35185D01*
X127829Y35226D01*
X127766Y35253D01*
X127698Y35261D01*
D02*
G37*
G36*
X119847Y34982D02*
X119779Y34973D01*
X119716Y34947D01*
X119662Y34906D01*
X119620Y34851D01*
X119594Y34788D01*
X119585Y34720D01*
X119594Y34652D01*
X119620Y34589D01*
X119662Y34535D01*
X119716Y34493D01*
X119779Y34467D01*
X119847Y34458D01*
X119915Y34467D01*
X119978Y34493D01*
X120033Y34535D01*
X120074Y34589D01*
X120101Y34652D01*
X120109Y34720D01*
X120101Y34788D01*
X120074Y34851D01*
X120033Y34906D01*
X119978Y34947D01*
X119915Y34973D01*
X119847Y34982D01*
D02*
G37*
G36*
X123447D02*
X123379Y34973D01*
X123316Y34947D01*
X123262Y34906D01*
X123220Y34851D01*
X123194Y34788D01*
X123185Y34720D01*
X123194Y34652D01*
X123220Y34589D01*
X123262Y34535D01*
X123316Y34493D01*
X123379Y34467D01*
X123447Y34458D01*
X123515Y34467D01*
X123578Y34493D01*
X123633Y34535D01*
X123674Y34589D01*
X123701Y34652D01*
X123709Y34720D01*
X123701Y34788D01*
X123674Y34851D01*
X123633Y34906D01*
X123578Y34947D01*
X123515Y34973D01*
X123447Y34982D01*
D02*
G37*
G36*
X119847Y36782D02*
X119779Y36773D01*
X119716Y36747D01*
X119662Y36706D01*
X119620Y36651D01*
X119594Y36588D01*
X119585Y36520D01*
X119594Y36452D01*
X119620Y36389D01*
X119662Y36335D01*
X119716Y36293D01*
X119779Y36267D01*
X119847Y36258D01*
X119915Y36267D01*
X119978Y36293D01*
X120033Y36335D01*
X120074Y36389D01*
X120101Y36452D01*
X120109Y36520D01*
X120101Y36588D01*
X120074Y36651D01*
X120033Y36706D01*
X119978Y36747D01*
X119915Y36773D01*
X119847Y36782D01*
D02*
G37*
G36*
X123447D02*
X123379Y36773D01*
X123316Y36747D01*
X123262Y36706D01*
X123220Y36651D01*
X123194Y36588D01*
X123185Y36520D01*
X123194Y36452D01*
X123220Y36389D01*
X123262Y36335D01*
X123316Y36293D01*
X123379Y36267D01*
X123447Y36258D01*
X123515Y36267D01*
X123578Y36293D01*
X123633Y36335D01*
X123674Y36389D01*
X123701Y36452D01*
X123709Y36520D01*
X123701Y36588D01*
X123674Y36651D01*
X123633Y36706D01*
X123578Y36747D01*
X123515Y36773D01*
X123447Y36782D01*
D02*
G37*
G36*
X127756Y35892D02*
X127688Y35883D01*
X127625Y35857D01*
X127570Y35815D01*
X127529Y35761D01*
X127503Y35698D01*
X127494Y35630D01*
X127503Y35562D01*
X127529Y35499D01*
X127570Y35444D01*
X127625Y35403D01*
X127688Y35377D01*
X127756Y35368D01*
X127824Y35377D01*
X127887Y35403D01*
X127941Y35444D01*
X127983Y35499D01*
X128009Y35562D01*
X128018Y35630D01*
X128009Y35698D01*
X127983Y35761D01*
X127941Y35815D01*
X127887Y35857D01*
X127824Y35883D01*
X127756Y35892D01*
D02*
G37*
G36*
X119847Y35882D02*
X119779Y35873D01*
X119716Y35847D01*
X119662Y35806D01*
X119620Y35751D01*
X119594Y35688D01*
X119585Y35620D01*
X119594Y35552D01*
X119620Y35489D01*
X119662Y35435D01*
X119716Y35393D01*
X119779Y35367D01*
X119847Y35358D01*
X119915Y35367D01*
X119978Y35393D01*
X120033Y35435D01*
X120074Y35489D01*
X120101Y35552D01*
X120109Y35620D01*
X120101Y35688D01*
X120074Y35751D01*
X120033Y35806D01*
X119978Y35847D01*
X119915Y35873D01*
X119847Y35882D01*
D02*
G37*
G36*
X123447D02*
X123379Y35873D01*
X123316Y35847D01*
X123262Y35806D01*
X123220Y35751D01*
X123194Y35688D01*
X123185Y35620D01*
X123194Y35552D01*
X123220Y35489D01*
X123262Y35435D01*
X123316Y35393D01*
X123379Y35367D01*
X123447Y35358D01*
X123515Y35367D01*
X123578Y35393D01*
X123633Y35435D01*
X123674Y35489D01*
X123701Y35552D01*
X123709Y35620D01*
X123701Y35688D01*
X123674Y35751D01*
X123633Y35806D01*
X123578Y35847D01*
X123515Y35873D01*
X123447Y35882D01*
D02*
G37*
G36*
X127421Y61837D02*
X127353Y61828D01*
X127290Y61802D01*
X127236Y61760D01*
X127194Y61706D01*
X127168Y61643D01*
X127159Y61575D01*
X127168Y61507D01*
X127194Y61444D01*
X127236Y61389D01*
X127290Y61348D01*
X127353Y61321D01*
X127421Y61312D01*
X127489Y61321D01*
X127552Y61348D01*
X127606Y61389D01*
X127648Y61444D01*
X127674Y61507D01*
X127683Y61575D01*
X127674Y61643D01*
X127648Y61706D01*
X127606Y61760D01*
X127552Y61802D01*
X127489Y61828D01*
X127421Y61837D01*
D02*
G37*
G36*
X54500Y72262D02*
X54432Y72253D01*
X54369Y72227D01*
X54315Y72185D01*
X54273Y72131D01*
X54247Y72068D01*
X54238Y72000D01*
X54247Y71932D01*
X54273Y71869D01*
X54315Y71815D01*
X54369Y71773D01*
X54432Y71747D01*
X54500Y71738D01*
X54568Y71747D01*
X54631Y71773D01*
X54685Y71815D01*
X54727Y71869D01*
X54753Y71932D01*
X54762Y72000D01*
X54753Y72068D01*
X54727Y72131D01*
X54685Y72185D01*
X54631Y72227D01*
X54568Y72253D01*
X54500Y72262D01*
D02*
G37*
G36*
X55500D02*
X55432Y72253D01*
X55369Y72227D01*
X55315Y72185D01*
X55273Y72131D01*
X55247Y72068D01*
X55238Y72000D01*
X55247Y71932D01*
X55273Y71869D01*
X55315Y71815D01*
X55369Y71773D01*
X55432Y71747D01*
X55500Y71738D01*
X55568Y71747D01*
X55631Y71773D01*
X55685Y71815D01*
X55727Y71869D01*
X55753Y71932D01*
X55762Y72000D01*
X55753Y72068D01*
X55727Y72131D01*
X55685Y72185D01*
X55631Y72227D01*
X55568Y72253D01*
X55500Y72262D01*
D02*
G37*
G36*
X53500D02*
X53432Y72253D01*
X53369Y72227D01*
X53315Y72185D01*
X53273Y72131D01*
X53247Y72068D01*
X53238Y72000D01*
X53247Y71932D01*
X53273Y71869D01*
X53315Y71815D01*
X53369Y71773D01*
X53432Y71747D01*
X53500Y71738D01*
X53568Y71747D01*
X53631Y71773D01*
X53685Y71815D01*
X53727Y71869D01*
X53753Y71932D01*
X53762Y72000D01*
X53753Y72068D01*
X53727Y72131D01*
X53685Y72185D01*
X53631Y72227D01*
X53568Y72253D01*
X53500Y72262D01*
D02*
G37*
G36*
X49500D02*
X49432Y72253D01*
X49369Y72227D01*
X49315Y72185D01*
X49273Y72131D01*
X49247Y72068D01*
X49238Y72000D01*
X49247Y71932D01*
X49273Y71869D01*
X49315Y71815D01*
X49369Y71773D01*
X49432Y71747D01*
X49500Y71738D01*
X49568Y71747D01*
X49631Y71773D01*
X49685Y71815D01*
X49727Y71869D01*
X49753Y71932D01*
X49762Y72000D01*
X49753Y72068D01*
X49727Y72131D01*
X49685Y72185D01*
X49631Y72227D01*
X49568Y72253D01*
X49500Y72262D01*
D02*
G37*
G36*
X52500D02*
X52432Y72253D01*
X52369Y72227D01*
X52315Y72185D01*
X52273Y72131D01*
X52247Y72068D01*
X52238Y72000D01*
X52247Y71932D01*
X52273Y71869D01*
X52315Y71815D01*
X52369Y71773D01*
X52432Y71747D01*
X52500Y71738D01*
X52568Y71747D01*
X52631Y71773D01*
X52685Y71815D01*
X52727Y71869D01*
X52753Y71932D01*
X52762Y72000D01*
X52753Y72068D01*
X52727Y72131D01*
X52685Y72185D01*
X52631Y72227D01*
X52568Y72253D01*
X52500Y72262D01*
D02*
G37*
G36*
X50500Y72263D02*
X50438Y72251D01*
X50385Y72215D01*
X50349Y72162D01*
X50337Y72100D01*
X50349Y72038D01*
X50385Y71985D01*
X50438Y71949D01*
X50500Y71937D01*
X50562Y71949D01*
X50615Y71985D01*
X50651Y72038D01*
X50663Y72100D01*
X50651Y72162D01*
X50615Y72215D01*
X50562Y72251D01*
X50500Y72263D01*
D02*
G37*
G36*
X78050Y72831D02*
X77968Y72815D01*
X77899Y72768D01*
X77852Y72699D01*
X77836Y72617D01*
X77852Y72535D01*
X77899Y72466D01*
X77968Y72419D01*
X78050Y72403D01*
X78132Y72419D01*
X78201Y72466D01*
X78248Y72535D01*
X78264Y72617D01*
X78248Y72699D01*
X78201Y72768D01*
X78132Y72815D01*
X78050Y72831D01*
D02*
G37*
G36*
X65777Y72329D02*
X65695Y72313D01*
X65625Y72267D01*
X65579Y72197D01*
X65563Y72115D01*
X65579Y72033D01*
X65625Y71964D01*
X65695Y71918D01*
X65777Y71901D01*
X65859Y71918D01*
X65928Y71964D01*
X65975Y72033D01*
X65991Y72115D01*
X65975Y72197D01*
X65928Y72267D01*
X65859Y72313D01*
X65777Y72329D01*
D02*
G37*
G36*
X51500Y72113D02*
X51438Y72101D01*
X51385Y72065D01*
X51349Y72012D01*
X51337Y71950D01*
X51349Y71888D01*
X51385Y71835D01*
X51438Y71799D01*
X51500Y71787D01*
X51562Y71799D01*
X51615Y71835D01*
X51651Y71888D01*
X51663Y71950D01*
X51651Y72012D01*
X51615Y72065D01*
X51562Y72101D01*
X51500Y72113D01*
D02*
G37*
G36*
X74094Y72171D02*
X74032Y72159D01*
X73979Y72123D01*
X73944Y72070D01*
X73931Y72008D01*
X73944Y71945D01*
X73979Y71893D01*
X74032Y71857D01*
X74094Y71845D01*
X74157Y71857D01*
X74210Y71893D01*
X74245Y71945D01*
X74258Y72008D01*
X74245Y72070D01*
X74210Y72123D01*
X74157Y72159D01*
X74094Y72171D01*
D02*
G37*
G36*
X48500Y72262D02*
X48432Y72253D01*
X48369Y72227D01*
X48315Y72185D01*
X48273Y72131D01*
X48247Y72068D01*
X48238Y72000D01*
X48247Y71932D01*
X48273Y71869D01*
X48315Y71815D01*
X48369Y71773D01*
X48432Y71747D01*
X48500Y71738D01*
X48568Y71747D01*
X48631Y71773D01*
X48685Y71815D01*
X48727Y71869D01*
X48753Y71932D01*
X48762Y72000D01*
X48753Y72068D01*
X48727Y72131D01*
X48685Y72185D01*
X48631Y72227D01*
X48568Y72253D01*
X48500Y72262D01*
D02*
G37*
G36*
X83518Y72046D02*
X83450Y72037D01*
X83387Y72011D01*
X83333Y71969D01*
X83291Y71915D01*
X83265Y71851D01*
X83256Y71783D01*
X83265Y71716D01*
X83291Y71652D01*
X83333Y71598D01*
X83387Y71556D01*
X83450Y71530D01*
X83518Y71521D01*
X83586Y71530D01*
X83649Y71556D01*
X83704Y71598D01*
X83745Y71652D01*
X83771Y71716D01*
X83780Y71783D01*
X83771Y71851D01*
X83745Y71915D01*
X83704Y71969D01*
X83649Y72011D01*
X83586Y72037D01*
X83518Y72046D01*
D02*
G37*
G36*
X85014D02*
X84946Y72037D01*
X84883Y72011D01*
X84829Y71969D01*
X84787Y71915D01*
X84761Y71851D01*
X84752Y71783D01*
X84761Y71716D01*
X84787Y71652D01*
X84829Y71598D01*
X84883Y71556D01*
X84946Y71530D01*
X85014Y71521D01*
X85082Y71530D01*
X85145Y71556D01*
X85200Y71598D01*
X85241Y71652D01*
X85267Y71716D01*
X85276Y71783D01*
X85267Y71851D01*
X85241Y71915D01*
X85200Y71969D01*
X85145Y72011D01*
X85082Y72037D01*
X85014Y72046D01*
D02*
G37*
G36*
X82022D02*
X81954Y72037D01*
X81891Y72011D01*
X81837Y71969D01*
X81795Y71915D01*
X81769Y71851D01*
X81760Y71783D01*
X81769Y71716D01*
X81795Y71652D01*
X81837Y71598D01*
X81891Y71556D01*
X81954Y71530D01*
X82022Y71521D01*
X82090Y71530D01*
X82153Y71556D01*
X82207Y71598D01*
X82249Y71652D01*
X82275Y71716D01*
X82284Y71783D01*
X82275Y71851D01*
X82249Y71915D01*
X82207Y71969D01*
X82153Y72011D01*
X82090Y72037D01*
X82022Y72046D01*
D02*
G37*
G36*
X63071Y71710D02*
X62989Y71694D01*
X62919Y71647D01*
X62873Y71578D01*
X62857Y71496D01*
X62873Y71414D01*
X62919Y71345D01*
X62989Y71298D01*
X63071Y71282D01*
X63153Y71298D01*
X63222Y71345D01*
X63269Y71414D01*
X63285Y71496D01*
X63269Y71578D01*
X63222Y71647D01*
X63153Y71694D01*
X63071Y71710D01*
D02*
G37*
G36*
X63780Y71718D02*
X63717Y71706D01*
X63664Y71670D01*
X63629Y71618D01*
X63616Y71555D01*
X63629Y71493D01*
X63664Y71440D01*
X63717Y71404D01*
X63780Y71392D01*
X63842Y71404D01*
X63895Y71440D01*
X63930Y71493D01*
X63943Y71555D01*
X63930Y71618D01*
X63895Y71670D01*
X63842Y71706D01*
X63780Y71718D01*
D02*
G37*
G36*
X96008Y72101D02*
X95940Y72092D01*
X95877Y72066D01*
X95822Y72024D01*
X95781Y71970D01*
X95755Y71906D01*
X95746Y71839D01*
X95755Y71771D01*
X95781Y71707D01*
X95822Y71653D01*
X95877Y71611D01*
X95940Y71585D01*
X96008Y71576D01*
X96076Y71585D01*
X96139Y71611D01*
X96193Y71653D01*
X96235Y71707D01*
X96261Y71771D01*
X96270Y71839D01*
X96261Y71906D01*
X96235Y71970D01*
X96193Y72024D01*
X96139Y72066D01*
X96076Y72092D01*
X96008Y72101D01*
D02*
G37*
G36*
X107000Y72115D02*
X106932Y72106D01*
X106869Y72080D01*
X106815Y72038D01*
X106773Y71984D01*
X106747Y71921D01*
X106738Y71853D01*
X106747Y71785D01*
X106773Y71722D01*
X106815Y71667D01*
X106869Y71626D01*
X106932Y71599D01*
X107000Y71591D01*
X107068Y71599D01*
X107131Y71626D01*
X107185Y71667D01*
X107227Y71722D01*
X107253Y71785D01*
X107262Y71853D01*
X107253Y71921D01*
X107227Y71984D01*
X107185Y72038D01*
X107131Y72080D01*
X107068Y72106D01*
X107000Y72115D01*
D02*
G37*
G36*
X104000Y72087D02*
X103932Y72078D01*
X103869Y72052D01*
X103815Y72010D01*
X103773Y71956D01*
X103747Y71892D01*
X103738Y71824D01*
X103747Y71757D01*
X103773Y71693D01*
X103815Y71639D01*
X103869Y71597D01*
X103932Y71571D01*
X104000Y71562D01*
X104068Y71571D01*
X104131Y71597D01*
X104185Y71639D01*
X104227Y71693D01*
X104253Y71757D01*
X104262Y71824D01*
X104253Y71892D01*
X104227Y71956D01*
X104185Y72010D01*
X104131Y72052D01*
X104068Y72078D01*
X104000Y72087D01*
D02*
G37*
G36*
X105500Y72051D02*
X105432Y72042D01*
X105369Y72016D01*
X105315Y71974D01*
X105273Y71920D01*
X105247Y71857D01*
X105238Y71789D01*
X105247Y71721D01*
X105273Y71658D01*
X105315Y71604D01*
X105369Y71562D01*
X105432Y71536D01*
X105500Y71527D01*
X105568Y71536D01*
X105631Y71562D01*
X105685Y71604D01*
X105727Y71658D01*
X105753Y71721D01*
X105762Y71789D01*
X105753Y71857D01*
X105727Y71920D01*
X105685Y71974D01*
X105631Y72016D01*
X105568Y72042D01*
X105500Y72051D01*
D02*
G37*
G36*
X93008Y72085D02*
X92940Y72076D01*
X92877Y72050D01*
X92822Y72008D01*
X92781Y71954D01*
X92755Y71891D01*
X92746Y71823D01*
X92755Y71755D01*
X92781Y71692D01*
X92822Y71637D01*
X92877Y71596D01*
X92940Y71570D01*
X93008Y71561D01*
X93076Y71570D01*
X93139Y71596D01*
X93193Y71637D01*
X93235Y71692D01*
X93261Y71755D01*
X93270Y71823D01*
X93261Y71891D01*
X93235Y71954D01*
X93193Y72008D01*
X93139Y72050D01*
X93076Y72076D01*
X93008Y72085D01*
D02*
G37*
G36*
X62500Y75063D02*
X62438Y75051D01*
X62385Y75015D01*
X62349Y74962D01*
X62337Y74900D01*
X62349Y74838D01*
X62385Y74785D01*
X62438Y74749D01*
X62500Y74737D01*
X62562Y74749D01*
X62615Y74785D01*
X62651Y74838D01*
X62663Y74900D01*
X62651Y74962D01*
X62615Y75015D01*
X62562Y75051D01*
X62500Y75063D01*
D02*
G37*
G36*
X63300D02*
X63238Y75051D01*
X63185Y75015D01*
X63149Y74962D01*
X63137Y74900D01*
X63149Y74838D01*
X63185Y74785D01*
X63238Y74749D01*
X63300Y74737D01*
X63362Y74749D01*
X63415Y74785D01*
X63451Y74838D01*
X63463Y74900D01*
X63451Y74962D01*
X63415Y75015D01*
X63362Y75051D01*
X63300Y75063D01*
D02*
G37*
G36*
X75397Y75139D02*
X75315Y75123D01*
X75246Y75076D01*
X75199Y75007D01*
X75183Y74925D01*
X75199Y74843D01*
X75246Y74773D01*
X75315Y74727D01*
X75397Y74711D01*
X75479Y74727D01*
X75549Y74773D01*
X75595Y74843D01*
X75611Y74925D01*
X75595Y75007D01*
X75549Y75076D01*
X75479Y75123D01*
X75397Y75139D01*
D02*
G37*
G36*
X61850Y74963D02*
X61788Y74951D01*
X61735Y74915D01*
X61699Y74862D01*
X61687Y74800D01*
X61699Y74738D01*
X61735Y74685D01*
X61788Y74649D01*
X61850Y74637D01*
X61912Y74649D01*
X61965Y74685D01*
X62001Y74738D01*
X62013Y74800D01*
X62001Y74862D01*
X61965Y74915D01*
X61912Y74951D01*
X61850Y74963D01*
D02*
G37*
G36*
X60600Y75013D02*
X60538Y75001D01*
X60485Y74965D01*
X60449Y74912D01*
X60437Y74850D01*
X60449Y74788D01*
X60485Y74735D01*
X60538Y74699D01*
X60600Y74687D01*
X60662Y74699D01*
X60715Y74735D01*
X60751Y74788D01*
X60763Y74850D01*
X60751Y74912D01*
X60715Y74965D01*
X60662Y75001D01*
X60600Y75013D01*
D02*
G37*
G36*
X74277Y75268D02*
X74195Y75252D01*
X74125Y75205D01*
X74079Y75136D01*
X74062Y75054D01*
X74079Y74972D01*
X74125Y74902D01*
X74195Y74856D01*
X74277Y74840D01*
X74359Y74856D01*
X74428Y74902D01*
X74474Y74972D01*
X74491Y75054D01*
X74474Y75136D01*
X74428Y75205D01*
X74359Y75252D01*
X74277Y75268D01*
D02*
G37*
G36*
X105050Y76763D02*
X104988Y76751D01*
X104935Y76715D01*
X104899Y76662D01*
X104887Y76600D01*
X104899Y76538D01*
X104935Y76485D01*
X104988Y76449D01*
X105050Y76437D01*
X105112Y76449D01*
X105165Y76485D01*
X105201Y76538D01*
X105213Y76600D01*
X105201Y76662D01*
X105165Y76715D01*
X105112Y76751D01*
X105050Y76763D01*
D02*
G37*
G36*
X65800Y75113D02*
X65738Y75101D01*
X65685Y75065D01*
X65649Y75012D01*
X65637Y74950D01*
X65649Y74888D01*
X65685Y74835D01*
X65738Y74799D01*
X65800Y74787D01*
X65862Y74799D01*
X65915Y74835D01*
X65951Y74888D01*
X65963Y74950D01*
X65951Y75012D01*
X65915Y75065D01*
X65862Y75101D01*
X65800Y75113D01*
D02*
G37*
G36*
X64100Y75063D02*
X64038Y75051D01*
X63985Y75015D01*
X63949Y74962D01*
X63937Y74900D01*
X63949Y74838D01*
X63985Y74785D01*
X64038Y74749D01*
X64100Y74737D01*
X64162Y74749D01*
X64215Y74785D01*
X64251Y74838D01*
X64263Y74900D01*
X64251Y74962D01*
X64215Y75015D01*
X64162Y75051D01*
X64100Y75063D01*
D02*
G37*
G36*
X64750D02*
X64688Y75051D01*
X64635Y75015D01*
X64599Y74962D01*
X64587Y74900D01*
X64599Y74838D01*
X64635Y74785D01*
X64688Y74749D01*
X64750Y74737D01*
X64812Y74749D01*
X64865Y74785D01*
X64901Y74838D01*
X64913Y74900D01*
X64901Y74962D01*
X64865Y75015D01*
X64812Y75051D01*
X64750Y75063D01*
D02*
G37*
G36*
X65269Y75079D02*
X65196Y75069D01*
X65129Y75042D01*
X65071Y74997D01*
X65027Y74939D01*
X64999Y74872D01*
X64990Y74800D01*
X64999Y74728D01*
X65027Y74661D01*
X65071Y74603D01*
X65129Y74558D01*
X65196Y74531D01*
X65269Y74521D01*
X65341Y74531D01*
X65408Y74558D01*
X65466Y74603D01*
X65510Y74661D01*
X65538Y74728D01*
X65547Y74800D01*
X65538Y74872D01*
X65510Y74939D01*
X65466Y74997D01*
X65408Y75042D01*
X65341Y75069D01*
X65269Y75079D01*
D02*
G37*
G36*
X77165Y73836D02*
X77083Y73820D01*
X77014Y73773D01*
X76967Y73704D01*
X76951Y73622D01*
X76967Y73540D01*
X77014Y73471D01*
X77083Y73424D01*
X77165Y73408D01*
X77247Y73424D01*
X77317Y73471D01*
X77363Y73540D01*
X77379Y73622D01*
X77363Y73704D01*
X77317Y73773D01*
X77247Y73820D01*
X77165Y73836D01*
D02*
G37*
G36*
X71338Y74190D02*
X71256Y74174D01*
X71187Y74128D01*
X71141Y74058D01*
X71124Y73976D01*
X71141Y73894D01*
X71187Y73825D01*
X71256Y73778D01*
X71338Y73762D01*
X71420Y73778D01*
X71490Y73825D01*
X71536Y73894D01*
X71553Y73976D01*
X71536Y74058D01*
X71490Y74128D01*
X71420Y74174D01*
X71338Y74190D01*
D02*
G37*
G36*
X113000Y74864D02*
X112831Y74848D01*
X112669Y74798D01*
X112520Y74719D01*
X112389Y74611D01*
X112281Y74480D01*
X112202Y74331D01*
X112152Y74169D01*
X112136Y74000D01*
X112152Y73831D01*
X112202Y73669D01*
X112281Y73520D01*
X112389Y73389D01*
X112520Y73281D01*
X112669Y73202D01*
X112831Y73152D01*
X113000Y73136D01*
X113169Y73152D01*
X113331Y73202D01*
X113480Y73281D01*
X113611Y73389D01*
X113719Y73520D01*
X113798Y73669D01*
X113848Y73831D01*
X113864Y74000D01*
X113848Y74169D01*
X113798Y74331D01*
X113719Y74480D01*
X113611Y74611D01*
X113480Y74719D01*
X113331Y74798D01*
X113169Y74848D01*
X113000Y74864D01*
D02*
G37*
G36*
X77126Y72930D02*
X77044Y72914D01*
X76974Y72868D01*
X76928Y72798D01*
X76912Y72716D01*
X76928Y72634D01*
X76974Y72565D01*
X77044Y72519D01*
X77126Y72502D01*
X77208Y72519D01*
X77277Y72565D01*
X77324Y72634D01*
X77340Y72716D01*
X77324Y72798D01*
X77277Y72868D01*
X77208Y72914D01*
X77126Y72930D01*
D02*
G37*
G36*
X69000Y74864D02*
X68831Y74848D01*
X68669Y74798D01*
X68520Y74719D01*
X68389Y74611D01*
X68281Y74480D01*
X68202Y74331D01*
X68152Y74169D01*
X68136Y74000D01*
X68152Y73831D01*
X68202Y73669D01*
X68281Y73520D01*
X68389Y73389D01*
X68520Y73281D01*
X68669Y73202D01*
X68831Y73152D01*
X69000Y73136D01*
X69169Y73152D01*
X69331Y73202D01*
X69480Y73281D01*
X69611Y73389D01*
X69719Y73520D01*
X69798Y73669D01*
X69848Y73831D01*
X69864Y74000D01*
X69848Y74169D01*
X69798Y74331D01*
X69719Y74480D01*
X69611Y74611D01*
X69480Y74719D01*
X69331Y74798D01*
X69169Y74848D01*
X69000Y74864D01*
D02*
G37*
G36*
X72520Y74466D02*
X72438Y74450D01*
X72368Y74403D01*
X72322Y74334D01*
X72305Y74252D01*
X72322Y74170D01*
X72368Y74100D01*
X72438Y74054D01*
X72520Y74038D01*
X72601Y74054D01*
X72671Y74100D01*
X72717Y74170D01*
X72734Y74252D01*
X72717Y74334D01*
X72671Y74403D01*
X72601Y74450D01*
X72520Y74466D01*
D02*
G37*
G36*
X61332Y75079D02*
X61259Y75069D01*
X61192Y75042D01*
X61134Y74997D01*
X61090Y74939D01*
X61062Y74872D01*
X61053Y74800D01*
X61062Y74728D01*
X61090Y74661D01*
X61134Y74603D01*
X61192Y74558D01*
X61259Y74531D01*
X61332Y74521D01*
X61404Y74531D01*
X61471Y74558D01*
X61529Y74603D01*
X61573Y74661D01*
X61601Y74728D01*
X61610Y74800D01*
X61601Y74872D01*
X61573Y74939D01*
X61529Y74997D01*
X61471Y75042D01*
X61404Y75069D01*
X61332Y75079D01*
D02*
G37*
G36*
X79094Y74427D02*
X79012Y74410D01*
X78943Y74364D01*
X78897Y74294D01*
X78880Y74212D01*
X78897Y74131D01*
X78943Y74061D01*
X79012Y74015D01*
X79094Y73998D01*
X79176Y74015D01*
X79246Y74061D01*
X79292Y74131D01*
X79308Y74212D01*
X79292Y74294D01*
X79246Y74364D01*
X79176Y74410D01*
X79094Y74427D01*
D02*
G37*
G36*
X96827Y74206D02*
X96792Y74199D01*
X96762Y74179D01*
X96742Y74149D01*
X96735Y74114D01*
Y73917D01*
X96742Y73882D01*
X96762Y73852D01*
X96792Y73833D01*
X96827Y73826D01*
X96862Y73833D01*
X96892Y73852D01*
X96912Y73882D01*
X96919Y73917D01*
Y74114D01*
X96912Y74149D01*
X96892Y74179D01*
X96862Y74199D01*
X96827Y74206D01*
D02*
G37*
G36*
X107827D02*
X107792Y74199D01*
X107762Y74179D01*
X107742Y74149D01*
X107735Y74114D01*
Y73917D01*
X107742Y73882D01*
X107762Y73852D01*
X107792Y73833D01*
X107827Y73826D01*
X107862Y73833D01*
X107892Y73852D01*
X107912Y73882D01*
X107919Y73917D01*
Y74114D01*
X107912Y74149D01*
X107892Y74179D01*
X107862Y74199D01*
X107827Y74206D01*
D02*
G37*
G36*
X107969Y71792D02*
X107865Y71778D01*
X107769Y71738D01*
X107687Y71675D01*
X107624Y71593D01*
X107584Y71497D01*
X107570Y71394D01*
X107584Y71291D01*
X107624Y71195D01*
X107687Y71112D01*
X107769Y71049D01*
X107865Y71009D01*
X107969Y70996D01*
X108072Y71009D01*
X108168Y71049D01*
X108250Y71112D01*
X108313Y71195D01*
X108353Y71291D01*
X108367Y71394D01*
X108353Y71497D01*
X108313Y71593D01*
X108250Y71675D01*
X108168Y71738D01*
X108072Y71778D01*
X107969Y71792D01*
D02*
G37*
G36*
X32323Y69297D02*
X32255Y69289D01*
X32192Y69262D01*
X32137Y69221D01*
X32096Y69166D01*
X32069Y69103D01*
X32061Y69035D01*
X32069Y68967D01*
X32096Y68904D01*
X32137Y68850D01*
X32192Y68808D01*
X32255Y68782D01*
X32323Y68773D01*
X32391Y68782D01*
X32454Y68808D01*
X32508Y68850D01*
X32550Y68904D01*
X32576Y68967D01*
X32585Y69035D01*
X32576Y69103D01*
X32550Y69166D01*
X32508Y69221D01*
X32454Y69262D01*
X32391Y69289D01*
X32323Y69297D01*
D02*
G37*
G36*
X94000Y69413D02*
X93938Y69401D01*
X93885Y69365D01*
X93849Y69312D01*
X93837Y69250D01*
X93849Y69188D01*
X93885Y69135D01*
X93938Y69099D01*
X94000Y69087D01*
X94062Y69099D01*
X94115Y69135D01*
X94151Y69188D01*
X94163Y69250D01*
X94151Y69312D01*
X94115Y69365D01*
X94062Y69401D01*
X94000Y69413D01*
D02*
G37*
G36*
X27323Y69297D02*
X27255Y69289D01*
X27192Y69262D01*
X27137Y69221D01*
X27096Y69166D01*
X27069Y69103D01*
X27061Y69035D01*
X27069Y68967D01*
X27096Y68904D01*
X27137Y68850D01*
X27192Y68808D01*
X27255Y68782D01*
X27323Y68773D01*
X27391Y68782D01*
X27454Y68808D01*
X27508Y68850D01*
X27550Y68904D01*
X27576Y68967D01*
X27585Y69035D01*
X27576Y69103D01*
X27550Y69166D01*
X27508Y69221D01*
X27454Y69262D01*
X27391Y69289D01*
X27323Y69297D01*
D02*
G37*
G36*
X23760Y67900D02*
X23692Y67891D01*
X23629Y67865D01*
X23574Y67823D01*
X23533Y67769D01*
X23507Y67706D01*
X23498Y67638D01*
X23507Y67570D01*
X23533Y67507D01*
X23574Y67452D01*
X23629Y67411D01*
X23692Y67385D01*
X23760Y67376D01*
X23828Y67385D01*
X23891Y67411D01*
X23945Y67452D01*
X23987Y67507D01*
X24013Y67570D01*
X24022Y67638D01*
X24013Y67706D01*
X23987Y67769D01*
X23945Y67823D01*
X23891Y67865D01*
X23828Y67891D01*
X23760Y67900D01*
D02*
G37*
G36*
X124488Y68864D02*
X124426Y68851D01*
X124373Y68816D01*
X124337Y68763D01*
X124325Y68701D01*
X124337Y68638D01*
X124373Y68585D01*
X124426Y68550D01*
X124488Y68538D01*
X124550Y68550D01*
X124603Y68585D01*
X124639Y68638D01*
X124651Y68701D01*
X124639Y68763D01*
X124603Y68816D01*
X124550Y68851D01*
X124488Y68864D01*
D02*
G37*
G36*
X31427Y70193D02*
X31359Y70184D01*
X31296Y70158D01*
X31242Y70116D01*
X31200Y70062D01*
X31174Y69999D01*
X31165Y69931D01*
X31174Y69863D01*
X31200Y69800D01*
X31242Y69746D01*
X31296Y69704D01*
X31359Y69678D01*
X31427Y69669D01*
X31495Y69678D01*
X31558Y69704D01*
X31612Y69746D01*
X31654Y69800D01*
X31680Y69863D01*
X31689Y69931D01*
X31680Y69999D01*
X31654Y70062D01*
X31612Y70116D01*
X31558Y70158D01*
X31495Y70184D01*
X31427Y70193D01*
D02*
G37*
G36*
X33219D02*
X33151Y70184D01*
X33087Y70158D01*
X33033Y70116D01*
X32991Y70062D01*
X32965Y69999D01*
X32956Y69931D01*
X32965Y69863D01*
X32991Y69800D01*
X33033Y69746D01*
X33087Y69704D01*
X33151Y69678D01*
X33219Y69669D01*
X33286Y69678D01*
X33350Y69704D01*
X33404Y69746D01*
X33446Y69800D01*
X33472Y69863D01*
X33481Y69931D01*
X33472Y69999D01*
X33446Y70062D01*
X33404Y70116D01*
X33350Y70158D01*
X33286Y70184D01*
X33219Y70193D01*
D02*
G37*
G36*
X28219D02*
X28151Y70184D01*
X28087Y70158D01*
X28033Y70116D01*
X27991Y70062D01*
X27965Y69999D01*
X27956Y69931D01*
X27965Y69863D01*
X27991Y69800D01*
X28033Y69746D01*
X28087Y69704D01*
X28151Y69678D01*
X28219Y69669D01*
X28286Y69678D01*
X28350Y69704D01*
X28404Y69746D01*
X28446Y69800D01*
X28472Y69863D01*
X28481Y69931D01*
X28472Y69999D01*
X28446Y70062D01*
X28404Y70116D01*
X28350Y70158D01*
X28286Y70184D01*
X28219Y70193D01*
D02*
G37*
G36*
X106000Y69663D02*
X105938Y69651D01*
X105885Y69615D01*
X105849Y69562D01*
X105837Y69500D01*
X105849Y69438D01*
X105885Y69385D01*
X105938Y69349D01*
X106000Y69337D01*
X106062Y69349D01*
X106115Y69385D01*
X106151Y69438D01*
X106163Y69500D01*
X106151Y69562D01*
X106115Y69615D01*
X106062Y69651D01*
X106000Y69663D01*
D02*
G37*
G36*
X26427Y70193D02*
X26359Y70184D01*
X26296Y70158D01*
X26242Y70116D01*
X26200Y70062D01*
X26174Y69999D01*
X26165Y69931D01*
X26174Y69863D01*
X26200Y69800D01*
X26242Y69746D01*
X26296Y69704D01*
X26359Y69678D01*
X26427Y69669D01*
X26495Y69678D01*
X26558Y69704D01*
X26612Y69746D01*
X26654Y69800D01*
X26680Y69863D01*
X26689Y69931D01*
X26680Y69999D01*
X26654Y70062D01*
X26612Y70116D01*
X26558Y70158D01*
X26495Y70184D01*
X26427Y70193D01*
D02*
G37*
G36*
X22480Y67900D02*
X22412Y67891D01*
X22349Y67865D01*
X22295Y67823D01*
X22253Y67769D01*
X22227Y67706D01*
X22218Y67638D01*
X22227Y67570D01*
X22253Y67507D01*
X22295Y67452D01*
X22349Y67411D01*
X22412Y67385D01*
X22480Y67376D01*
X22548Y67385D01*
X22611Y67411D01*
X22666Y67452D01*
X22707Y67507D01*
X22734Y67570D01*
X22743Y67638D01*
X22734Y67706D01*
X22707Y67769D01*
X22666Y67823D01*
X22611Y67865D01*
X22548Y67891D01*
X22480Y67900D01*
D02*
G37*
G36*
X119993Y62817D02*
X119925Y62808D01*
X119861Y62782D01*
X119807Y62740D01*
X119765Y62686D01*
X119739Y62623D01*
X119730Y62555D01*
X119739Y62487D01*
X119765Y62424D01*
X119807Y62370D01*
X119861Y62328D01*
X119925Y62302D01*
X119993Y62293D01*
X120060Y62302D01*
X120124Y62328D01*
X120178Y62370D01*
X120220Y62424D01*
X120246Y62487D01*
X120255Y62555D01*
X120246Y62623D01*
X120220Y62686D01*
X120178Y62740D01*
X120124Y62782D01*
X120060Y62808D01*
X119993Y62817D01*
D02*
G37*
G36*
X127436Y62836D02*
X127368Y62827D01*
X127305Y62801D01*
X127251Y62759D01*
X127209Y62705D01*
X127183Y62642D01*
X127174Y62574D01*
X127183Y62506D01*
X127209Y62443D01*
X127251Y62389D01*
X127305Y62347D01*
X127368Y62321D01*
X127436Y62312D01*
X127504Y62321D01*
X127567Y62347D01*
X127622Y62389D01*
X127663Y62443D01*
X127689Y62506D01*
X127698Y62574D01*
X127689Y62642D01*
X127663Y62705D01*
X127622Y62759D01*
X127567Y62801D01*
X127504Y62827D01*
X127436Y62836D01*
D02*
G37*
G36*
X23740Y62684D02*
X23672Y62675D01*
X23609Y62649D01*
X23555Y62607D01*
X23513Y62553D01*
X23487Y62489D01*
X23478Y62421D01*
X23487Y62354D01*
X23513Y62290D01*
X23555Y62236D01*
X23609Y62194D01*
X23672Y62168D01*
X23740Y62159D01*
X23808Y62168D01*
X23871Y62194D01*
X23926Y62236D01*
X23967Y62290D01*
X23994Y62354D01*
X24002Y62421D01*
X23994Y62489D01*
X23967Y62553D01*
X23926Y62607D01*
X23871Y62649D01*
X23808Y62675D01*
X23740Y62684D01*
D02*
G37*
G36*
X122143Y62290D02*
X122075Y62281D01*
X122012Y62255D01*
X121957Y62214D01*
X121916Y62159D01*
X121890Y62096D01*
X121881Y62028D01*
X121890Y61960D01*
X121916Y61897D01*
X121957Y61843D01*
X122012Y61801D01*
X122075Y61775D01*
X122143Y61766D01*
X122211Y61775D01*
X122274Y61801D01*
X122328Y61843D01*
X122370Y61897D01*
X122396Y61960D01*
X122405Y62028D01*
X122396Y62096D01*
X122370Y62159D01*
X122328Y62214D01*
X122274Y62255D01*
X122211Y62281D01*
X122143Y62290D01*
D02*
G37*
G36*
X22461Y62684D02*
X22393Y62675D01*
X22330Y62649D01*
X22275Y62607D01*
X22234Y62553D01*
X22207Y62489D01*
X22198Y62421D01*
X22207Y62354D01*
X22234Y62290D01*
X22275Y62236D01*
X22330Y62194D01*
X22393Y62168D01*
X22461Y62159D01*
X22529Y62168D01*
X22592Y62194D01*
X22646Y62236D01*
X22688Y62290D01*
X22714Y62354D01*
X22723Y62421D01*
X22714Y62489D01*
X22688Y62553D01*
X22646Y62607D01*
X22592Y62649D01*
X22529Y62675D01*
X22461Y62684D01*
D02*
G37*
G36*
X123956Y65223D02*
X123889Y65214D01*
X123825Y65188D01*
X123771Y65146D01*
X123729Y65092D01*
X123703Y65028D01*
X123694Y64960D01*
X123703Y64893D01*
X123729Y64829D01*
X123771Y64775D01*
X123825Y64733D01*
X123889Y64707D01*
X123956Y64698D01*
X124024Y64707D01*
X124088Y64733D01*
X124142Y64775D01*
X124184Y64829D01*
X124210Y64893D01*
X124219Y64960D01*
X124210Y65028D01*
X124184Y65092D01*
X124142Y65146D01*
X124088Y65188D01*
X124024Y65214D01*
X123956Y65223D01*
D02*
G37*
G36*
X121400Y67542D02*
X121284Y67531D01*
X121173Y67497D01*
X121070Y67442D01*
X120980Y67368D01*
X120906Y67278D01*
X120851Y67175D01*
X120817Y67064D01*
X120806Y66948D01*
X120817Y66832D01*
X120851Y66721D01*
X120906Y66618D01*
X120980Y66528D01*
X121070Y66454D01*
X121173Y66399D01*
X121284Y66365D01*
X121400Y66354D01*
X121516Y66365D01*
X121627Y66399D01*
X121730Y66454D01*
X121820Y66528D01*
X121894Y66618D01*
X121949Y66721D01*
X121983Y66832D01*
X121994Y66948D01*
X121983Y67064D01*
X121949Y67175D01*
X121894Y67278D01*
X121820Y67368D01*
X121730Y67442D01*
X121627Y67497D01*
X121516Y67531D01*
X121400Y67542D01*
D02*
G37*
G36*
X122163Y64317D02*
X122095Y64308D01*
X122032Y64282D01*
X121978Y64240D01*
X121936Y64186D01*
X121910Y64123D01*
X121901Y64055D01*
X121910Y63987D01*
X121936Y63924D01*
X121978Y63870D01*
X122032Y63828D01*
X122095Y63802D01*
X122163Y63793D01*
X122231Y63802D01*
X122294Y63828D01*
X122349Y63870D01*
X122390Y63924D01*
X122416Y63987D01*
X122425Y64055D01*
X122416Y64123D01*
X122390Y64186D01*
X122349Y64240D01*
X122294Y64282D01*
X122231Y64308D01*
X122163Y64317D01*
D02*
G37*
G36*
X123956Y63254D02*
X123889Y63245D01*
X123825Y63219D01*
X123771Y63177D01*
X123729Y63123D01*
X123703Y63060D01*
X123694Y62992D01*
X123703Y62924D01*
X123729Y62861D01*
X123771Y62807D01*
X123825Y62765D01*
X123889Y62739D01*
X123956Y62730D01*
X124024Y62739D01*
X124088Y62765D01*
X124142Y62807D01*
X124184Y62861D01*
X124210Y62924D01*
X124219Y62992D01*
X124210Y63060D01*
X124184Y63123D01*
X124142Y63177D01*
X124088Y63219D01*
X124024Y63245D01*
X123956Y63254D01*
D02*
G37*
G36*
X122146Y63317D02*
X122078Y63308D01*
X122015Y63282D01*
X121961Y63240D01*
X121919Y63186D01*
X121893Y63123D01*
X121884Y63055D01*
X121893Y62987D01*
X121919Y62924D01*
X121961Y62870D01*
X122015Y62828D01*
X122078Y62802D01*
X122146Y62793D01*
X122214Y62802D01*
X122277Y62828D01*
X122332Y62870D01*
X122373Y62924D01*
X122399Y62987D01*
X122408Y63055D01*
X122399Y63123D01*
X122373Y63186D01*
X122332Y63240D01*
X122277Y63282D01*
X122214Y63308D01*
X122146Y63317D01*
D02*
G37*
G36*
X80917Y71398D02*
X80814Y71384D01*
X80718Y71345D01*
X80636Y71281D01*
X80573Y71199D01*
X80533Y71103D01*
X80519Y71000D01*
X80533Y70897D01*
X80573Y70801D01*
X80636Y70719D01*
X80718Y70655D01*
X80814Y70616D01*
X80917Y70602D01*
X81020Y70616D01*
X81116Y70655D01*
X81199Y70719D01*
X81262Y70801D01*
X81302Y70897D01*
X81315Y71000D01*
X81302Y71103D01*
X81262Y71199D01*
X81199Y71281D01*
X81116Y71345D01*
X81020Y71384D01*
X80917Y71398D01*
D02*
G37*
G36*
X91917D02*
X91814Y71384D01*
X91718Y71345D01*
X91636Y71281D01*
X91573Y71199D01*
X91533Y71103D01*
X91519Y71000D01*
X91533Y70897D01*
X91573Y70801D01*
X91636Y70719D01*
X91718Y70655D01*
X91814Y70616D01*
X91917Y70602D01*
X92020Y70616D01*
X92116Y70655D01*
X92199Y70719D01*
X92262Y70801D01*
X92302Y70897D01*
X92315Y71000D01*
X92302Y71103D01*
X92262Y71199D01*
X92199Y71281D01*
X92116Y71345D01*
X92020Y71384D01*
X91917Y71398D01*
D02*
G37*
G36*
X32323Y71089D02*
X32255Y71080D01*
X32192Y71054D01*
X32137Y71012D01*
X32096Y70958D01*
X32069Y70895D01*
X32061Y70827D01*
X32069Y70759D01*
X32096Y70696D01*
X32137Y70641D01*
X32192Y70600D01*
X32255Y70573D01*
X32323Y70564D01*
X32391Y70573D01*
X32454Y70600D01*
X32508Y70641D01*
X32550Y70696D01*
X32576Y70759D01*
X32585Y70827D01*
X32576Y70895D01*
X32550Y70958D01*
X32508Y71012D01*
X32454Y71054D01*
X32391Y71080D01*
X32323Y71089D01*
D02*
G37*
G36*
X71929Y70962D02*
X71847Y70946D01*
X71778Y70899D01*
X71731Y70830D01*
X71715Y70748D01*
X71731Y70666D01*
X71778Y70596D01*
X71847Y70550D01*
X71929Y70534D01*
X72011Y70550D01*
X72080Y70596D01*
X72127Y70666D01*
X72143Y70748D01*
X72127Y70830D01*
X72080Y70899D01*
X72011Y70946D01*
X71929Y70962D01*
D02*
G37*
G36*
X27323Y71089D02*
X27255Y71080D01*
X27192Y71054D01*
X27137Y71012D01*
X27096Y70958D01*
X27069Y70895D01*
X27061Y70827D01*
X27069Y70759D01*
X27096Y70696D01*
X27137Y70641D01*
X27192Y70600D01*
X27255Y70573D01*
X27323Y70564D01*
X27391Y70573D01*
X27454Y70600D01*
X27508Y70641D01*
X27550Y70696D01*
X27576Y70759D01*
X27585Y70827D01*
X27576Y70895D01*
X27550Y70958D01*
X27508Y71012D01*
X27454Y71054D01*
X27391Y71080D01*
X27323Y71089D01*
D02*
G37*
G36*
X85969Y71792D02*
X85865Y71778D01*
X85769Y71738D01*
X85687Y71675D01*
X85624Y71593D01*
X85584Y71497D01*
X85570Y71394D01*
X85584Y71291D01*
X85624Y71195D01*
X85687Y71112D01*
X85769Y71049D01*
X85865Y71009D01*
X85969Y70996D01*
X86072Y71009D01*
X86168Y71049D01*
X86250Y71112D01*
X86313Y71195D01*
X86353Y71291D01*
X86367Y71394D01*
X86353Y71497D01*
X86313Y71593D01*
X86250Y71675D01*
X86168Y71738D01*
X86072Y71778D01*
X85969Y71792D01*
D02*
G37*
G36*
X96968D02*
X96865Y71778D01*
X96769Y71738D01*
X96687Y71675D01*
X96624Y71593D01*
X96584Y71497D01*
X96570Y71394D01*
X96584Y71291D01*
X96624Y71195D01*
X96687Y71112D01*
X96769Y71049D01*
X96865Y71009D01*
X96968Y70996D01*
X97072Y71009D01*
X97168Y71049D01*
X97250Y71112D01*
X97313Y71195D01*
X97353Y71291D01*
X97367Y71394D01*
X97353Y71497D01*
X97313Y71593D01*
X97250Y71675D01*
X97168Y71738D01*
X97072Y71778D01*
X96968Y71792D01*
D02*
G37*
G36*
X23760Y71207D02*
X23692Y71198D01*
X23629Y71172D01*
X23574Y71130D01*
X23533Y71076D01*
X23507Y71013D01*
X23498Y70945D01*
X23507Y70877D01*
X23533Y70814D01*
X23574Y70760D01*
X23629Y70718D01*
X23692Y70692D01*
X23760Y70683D01*
X23828Y70692D01*
X23891Y70718D01*
X23945Y70760D01*
X23987Y70814D01*
X24013Y70877D01*
X24022Y70945D01*
X24013Y71013D01*
X23987Y71076D01*
X23945Y71130D01*
X23891Y71172D01*
X23828Y71198D01*
X23760Y71207D01*
D02*
G37*
G36*
X102917Y71398D02*
X102814Y71384D01*
X102718Y71345D01*
X102636Y71281D01*
X102573Y71199D01*
X102533Y71103D01*
X102519Y71000D01*
X102533Y70897D01*
X102573Y70801D01*
X102636Y70719D01*
X102718Y70655D01*
X102814Y70616D01*
X102917Y70602D01*
X103020Y70616D01*
X103116Y70655D01*
X103199Y70719D01*
X103262Y70801D01*
X103302Y70897D01*
X103315Y71000D01*
X103302Y71103D01*
X103262Y71199D01*
X103199Y71281D01*
X103116Y71345D01*
X103020Y71384D01*
X102917Y71398D01*
D02*
G37*
G36*
X22480Y71207D02*
X22412Y71198D01*
X22349Y71172D01*
X22295Y71130D01*
X22253Y71076D01*
X22227Y71013D01*
X22218Y70945D01*
X22227Y70877D01*
X22253Y70814D01*
X22295Y70760D01*
X22349Y70718D01*
X22412Y70692D01*
X22480Y70683D01*
X22548Y70692D01*
X22611Y70718D01*
X22666Y70760D01*
X22707Y70814D01*
X22734Y70877D01*
X22743Y70945D01*
X22734Y71013D01*
X22707Y71076D01*
X22666Y71130D01*
X22611Y71172D01*
X22548Y71198D01*
X22480Y71207D01*
D02*
G37*
G36*
X104959Y70522D02*
X104897Y70510D01*
X104844Y70475D01*
X104809Y70422D01*
X104796Y70359D01*
X104809Y70297D01*
X104844Y70244D01*
X104897Y70209D01*
X104959Y70196D01*
X105022Y70209D01*
X105075Y70244D01*
X105110Y70297D01*
X105122Y70359D01*
X105110Y70422D01*
X105075Y70475D01*
X105022Y70510D01*
X104959Y70522D01*
D02*
G37*
G36*
X84500Y70363D02*
X84438Y70351D01*
X84385Y70315D01*
X84349Y70262D01*
X84337Y70200D01*
X84349Y70138D01*
X84385Y70085D01*
X84438Y70049D01*
X84500Y70037D01*
X84562Y70049D01*
X84615Y70085D01*
X84651Y70138D01*
X84663Y70200D01*
X84651Y70262D01*
X84615Y70315D01*
X84562Y70351D01*
X84500Y70363D01*
D02*
G37*
G36*
X93500D02*
X93438Y70351D01*
X93385Y70315D01*
X93349Y70262D01*
X93337Y70200D01*
X93349Y70138D01*
X93385Y70085D01*
X93438Y70049D01*
X93500Y70037D01*
X93562Y70049D01*
X93615Y70085D01*
X93651Y70138D01*
X93663Y70200D01*
X93651Y70262D01*
X93615Y70315D01*
X93562Y70351D01*
X93500Y70363D01*
D02*
G37*
G36*
X95500Y70263D02*
X95438Y70251D01*
X95385Y70215D01*
X95349Y70162D01*
X95337Y70100D01*
X95349Y70038D01*
X95385Y69985D01*
X95438Y69949D01*
X95500Y69937D01*
X95562Y69949D01*
X95615Y69985D01*
X95651Y70038D01*
X95663Y70100D01*
X95651Y70162D01*
X95615Y70215D01*
X95562Y70251D01*
X95500Y70263D01*
D02*
G37*
G36*
X95000Y70163D02*
X94938Y70151D01*
X94885Y70115D01*
X94849Y70062D01*
X94837Y70000D01*
X94849Y69938D01*
X94885Y69885D01*
X94938Y69849D01*
X95000Y69837D01*
X95062Y69849D01*
X95115Y69885D01*
X95151Y69938D01*
X95163Y70000D01*
X95151Y70062D01*
X95115Y70115D01*
X95062Y70151D01*
X95000Y70163D01*
D02*
G37*
G36*
X104065Y70229D02*
X104003Y70216D01*
X103950Y70181D01*
X103915Y70128D01*
X103902Y70065D01*
X103915Y70003D01*
X103950Y69950D01*
X104003Y69915D01*
X104065Y69902D01*
X104128Y69915D01*
X104181Y69950D01*
X104216Y70003D01*
X104229Y70065D01*
X104216Y70128D01*
X104181Y70181D01*
X104128Y70216D01*
X104065Y70229D01*
D02*
G37*
G36*
X106500Y70413D02*
X106438Y70401D01*
X106385Y70365D01*
X106349Y70312D01*
X106337Y70250D01*
X106349Y70188D01*
X106385Y70135D01*
X106438Y70099D01*
X106500Y70087D01*
X106562Y70099D01*
X106615Y70135D01*
X106651Y70188D01*
X106663Y70250D01*
X106651Y70312D01*
X106615Y70365D01*
X106562Y70401D01*
X106500Y70413D01*
D02*
G37*
G36*
X72990Y70606D02*
X72908Y70590D01*
X72839Y70543D01*
X72792Y70474D01*
X72776Y70392D01*
X72792Y70310D01*
X72839Y70240D01*
X72908Y70194D01*
X72990Y70178D01*
X73072Y70194D01*
X73142Y70240D01*
X73188Y70310D01*
X73204Y70392D01*
X73188Y70474D01*
X73142Y70543D01*
X73072Y70590D01*
X72990Y70606D01*
D02*
G37*
G36*
X84000Y70413D02*
X83938Y70401D01*
X83885Y70365D01*
X83849Y70312D01*
X83837Y70250D01*
X83849Y70188D01*
X83885Y70135D01*
X83938Y70099D01*
X84000Y70087D01*
X84062Y70099D01*
X84115Y70135D01*
X84151Y70188D01*
X84163Y70250D01*
X84151Y70312D01*
X84115Y70365D01*
X84062Y70401D01*
X84000Y70413D01*
D02*
G37*
G36*
X82500D02*
X82438Y70401D01*
X82385Y70365D01*
X82349Y70312D01*
X82337Y70250D01*
X82349Y70188D01*
X82385Y70135D01*
X82438Y70099D01*
X82500Y70087D01*
X82562Y70099D01*
X82615Y70135D01*
X82651Y70188D01*
X82663Y70250D01*
X82651Y70312D01*
X82615Y70365D01*
X82562Y70401D01*
X82500Y70413D01*
D02*
G37*
G36*
X83000D02*
X82938Y70401D01*
X82885Y70365D01*
X82849Y70312D01*
X82837Y70250D01*
X82849Y70188D01*
X82885Y70135D01*
X82938Y70099D01*
X83000Y70087D01*
X83062Y70099D01*
X83115Y70135D01*
X83151Y70188D01*
X83163Y70250D01*
X83151Y70312D01*
X83115Y70365D01*
X83062Y70401D01*
X83000Y70413D01*
D02*
G37*
%LPD*%
D15*
X105000Y72724D02*
D03*
X94000D02*
D03*
X83000D02*
D03*
X127854Y36319D02*
D03*
X23228Y44783D02*
D03*
X22480Y60394D02*
D03*
X23760D02*
D03*
X22480Y65669D02*
D03*
X23760D02*
D03*
X22520Y46063D02*
D03*
X23799D02*
D03*
X22598Y43307D02*
D03*
X23878D02*
D03*
X36083Y65905D02*
D03*
X33219Y57431D02*
D03*
X32323Y56535D02*
D03*
Y58327D02*
D03*
X31427Y57431D02*
D03*
X33219Y40837D02*
D03*
X32323Y39941D02*
D03*
Y41732D02*
D03*
X31427Y40837D02*
D03*
X26427Y47087D02*
D03*
X27323Y47982D02*
D03*
X28219Y47087D02*
D03*
X26427Y63681D02*
D03*
X27323Y64577D02*
D03*
X28219Y63681D02*
D03*
D33*
X52542Y76142D02*
X71260D01*
X51000Y75900D02*
X51400Y75500D01*
X51900D01*
X52542Y76142D01*
X52307Y76457D02*
X71496D01*
X51850Y76000D02*
X52307Y76457D01*
X71929Y73268D02*
X72756D01*
X69764Y71102D02*
X71929Y73268D01*
X71220Y68071D02*
X71299D01*
X71260Y76142D02*
X73504Y73897D01*
X71496Y76457D02*
X73346Y74606D01*
X73393D01*
X73671Y74328D01*
X74134Y73622D02*
X74291Y73780D01*
X75276Y73780D02*
X75791Y74295D01*
X74291Y73780D02*
X75276D01*
X72244Y73622D02*
X74134D01*
D34*
X100757Y44882D02*
X101500Y45625D01*
X99213Y44882D02*
X100757D01*
X100875Y44625D02*
X101625Y45375D01*
X99076Y44625D02*
X100875D01*
X98819Y44882D02*
X99076Y44625D01*
X89875Y41750D02*
X90251Y42126D01*
X91339D01*
X89665Y45571D02*
X90256D01*
X89370Y45866D02*
X90354D01*
X90945Y44882D02*
X91339D01*
X90256Y45571D02*
X90945Y44882D01*
X90354Y45866D02*
X90945Y45276D01*
X90000Y44625D02*
X90414D01*
X90551Y44488D01*
X95669Y48228D02*
Y48581D01*
D35*
X100550Y51728D02*
Y66850D01*
X96458Y47636D02*
X100550Y51728D01*
X70965Y54331D02*
Y66835D01*
X89173Y52362D02*
Y70900D01*
X94150Y70300D02*
Y72250D01*
X94900Y48542D02*
Y69550D01*
X94150Y70300D02*
X94900Y69550D01*
X107827Y73917D02*
Y74114D01*
X96827Y73917D02*
Y74114D01*
X65162Y39862D02*
X89567D01*
X63287Y37337D02*
Y37987D01*
X65162Y39862D01*
X76160Y36390D02*
X91040D01*
X75750Y36800D02*
X76160Y36390D01*
X67155Y37205D02*
X91531D01*
X92126Y37800D02*
Y38583D01*
X91531Y37205D02*
X92126Y37800D01*
X92323Y37673D02*
Y38780D01*
X91040Y36390D02*
X92323Y37673D01*
X92520Y37520D02*
Y38583D01*
X72330Y36220D02*
X91220D01*
X92520Y37520D01*
X102559Y43996D02*
Y55630D01*
X100886Y42323D02*
X102559Y43996D01*
X98622Y42323D02*
X100886D01*
X97933Y41634D02*
X98622Y42323D01*
X97933Y41240D02*
Y41634D01*
X96260Y39567D02*
X97933Y41240D01*
X95866Y39567D02*
X96260D01*
X95669Y39370D02*
X95866Y39567D01*
X96161Y39272D02*
X98432Y41542D01*
X99501Y41535D02*
X100984D01*
X95965Y39272D02*
X96161D01*
X98432Y41542D02*
X99501D01*
X95669Y38976D02*
X95965Y39272D01*
X98425Y41339D02*
X101181D01*
X96063Y38976D02*
X98425Y41339D01*
X99016Y41142D02*
X101772D01*
X98228Y40354D02*
X99016Y41142D01*
X96457Y38976D02*
X97411Y39931D01*
X97835Y40354D02*
X98228D01*
X97411Y39931D02*
X97835Y40354D01*
X97833Y39565D02*
X98622Y40354D01*
X99016D02*
X99409Y40748D01*
X100098D01*
X98622Y40354D02*
X99016D01*
X102244Y44567D02*
Y56063D01*
X96654Y40354D02*
Y42224D01*
X101575Y43898D02*
X102244Y44567D01*
X99016Y43898D02*
X101575D01*
X97441Y42323D02*
X99016Y43898D01*
X96752Y42323D02*
X97441D01*
X96654Y42224D02*
X96752Y42323D01*
X96457Y40157D02*
X96654Y40354D01*
X101890Y47441D02*
Y56378D01*
X99921Y45472D02*
X101890Y47441D01*
X98917Y45472D02*
X99921D01*
X98228Y44783D02*
X98917Y45472D01*
X98228Y43996D02*
Y44783D01*
X97343Y43110D02*
X98228Y43996D01*
X96654Y43110D02*
X97343D01*
X96260Y42717D02*
X96654Y43110D01*
X96260Y40354D02*
Y42717D01*
X96063Y40157D02*
X96260Y40354D01*
X101181Y47539D02*
Y56299D01*
X99508Y45866D02*
X101181Y47539D01*
X96654Y45866D02*
X99508D01*
X96260Y45472D02*
X96654Y45866D01*
X96260Y43110D02*
Y45472D01*
X95866Y42717D02*
X96260Y43110D01*
X95866Y40354D02*
Y42717D01*
X95669Y40157D02*
X95866Y40354D01*
X100748Y34488D02*
X102638D01*
X102913Y34764D01*
X96260Y38386D02*
X97439Y39565D01*
X97833D01*
X99567Y38976D02*
X100866D01*
X105236Y36024D02*
Y36654D01*
X99213Y40157D02*
X99409Y39961D01*
X101614D01*
X105000Y36575D01*
Y36181D02*
Y36575D01*
X99213Y39764D02*
X99409Y39567D01*
X101614D01*
X104409Y36772D01*
Y36220D02*
Y36772D01*
X99606Y39370D02*
X101457D01*
X104094Y36732D01*
Y36260D02*
Y36732D01*
Y36260D02*
X104409Y35945D01*
Y34685D02*
Y35945D01*
X99213Y39370D02*
X99409Y39173D01*
X101220D01*
X103779Y36614D01*
Y36220D02*
Y36614D01*
X100866Y38976D02*
X103425Y36417D01*
Y36142D02*
Y36417D01*
X100630Y38780D02*
X103149Y36260D01*
X99409Y38780D02*
X100630D01*
X99213Y38976D02*
X99409Y38780D01*
X101237Y41394D02*
X103228Y43386D01*
X99213Y37047D02*
Y38583D01*
Y37047D02*
X101181Y35079D01*
X101890D01*
X102165Y34803D01*
X102283D01*
X98819Y38976D02*
X99016Y38780D01*
Y37008D02*
Y38780D01*
Y37008D02*
X101220Y34803D01*
X101693D01*
X98425Y36811D02*
Y38583D01*
Y36811D02*
X100748Y34488D01*
X100709Y34291D02*
X103189D01*
X98228Y38780D02*
X98425Y38976D01*
X98228Y36772D02*
Y38780D01*
Y36772D02*
X100709Y34291D01*
X103189D02*
X103268Y34213D01*
X103348Y33821D02*
X103622Y34094D01*
X103556D02*
X103622D01*
X103898Y33504D02*
X104409Y32992D01*
Y32638D02*
Y32992D01*
X103423Y33309D02*
X103779Y32953D01*
X103268Y32677D02*
Y32913D01*
X102992Y33189D02*
X103268Y32913D01*
X97244Y38976D02*
X97441Y38780D01*
X103779Y32717D02*
Y32953D01*
X95866Y38386D02*
X96260D01*
X103149Y36260D02*
X103150Y36260D01*
X103779Y36220D02*
X103780Y36220D01*
X103937Y42717D02*
Y55315D01*
X93504Y38780D02*
X94685D01*
X94882Y38583D01*
X103583Y42953D02*
Y55315D01*
X96063Y38976D02*
X96063D01*
X102874Y43425D02*
Y55591D01*
X103228Y43386D02*
Y55472D01*
X100197Y47441D02*
X100506Y47750D01*
X99409Y47441D02*
X100197D01*
X99213Y47244D02*
X99409Y47441D01*
X98819Y47244D02*
X99409Y47835D01*
X98819Y46850D02*
Y47244D01*
X99409Y47835D02*
X100197D01*
X100362Y48000D01*
X100098Y43406D02*
X100689D01*
X100689Y42913D02*
X100886Y43110D01*
X100000Y42913D02*
X100689D01*
X99606Y43307D02*
X100000Y42913D01*
Y43307D02*
X100098Y43406D01*
X99213Y44882D02*
X100394D01*
X134449Y53642D02*
X134881Y54074D01*
X134449Y53248D02*
Y53642D01*
X91142Y47047D02*
Y48661D01*
Y47047D02*
X91339Y46850D01*
Y47244D02*
Y48898D01*
X89961Y44291D02*
X90748D01*
X90945Y44488D01*
X74019Y73980D02*
X75161D01*
X73671Y74328D02*
X74019Y73980D01*
X91535Y56732D02*
X92323Y55945D01*
X92126Y40157D02*
Y55669D01*
X91299Y56496D02*
X92126Y55669D01*
Y40157D02*
X93504Y38780D01*
X91732Y56929D02*
X92717Y55945D01*
X91929Y57126D02*
X93110Y55945D01*
X93898Y40354D02*
X94094Y40157D01*
X92283Y57598D02*
X93898Y55984D01*
X92087Y57362D02*
X93508Y55941D01*
X92402Y57992D02*
X94094Y56299D01*
X94882Y39764D02*
X95472Y40354D01*
X92126Y65157D02*
X92717D01*
X95669Y48032D02*
Y48228D01*
Y48032D02*
X96457Y47244D01*
X93504Y48228D02*
Y49016D01*
X93307Y48032D02*
X93504Y48228D01*
X93307Y46850D02*
Y48032D01*
Y46850D02*
X93504Y46654D01*
X93508Y49016D02*
Y55941D01*
X94094Y49409D02*
Y56299D01*
Y49409D02*
X94291Y49213D01*
Y40354D02*
Y49213D01*
X93898D02*
X94094Y49016D01*
X93898Y49213D02*
Y55984D01*
X93504Y47441D02*
X93701Y47244D01*
X93504Y47441D02*
Y47835D01*
X93701Y48032D01*
Y48819D01*
Y47638D02*
X93898Y47835D01*
Y48622D01*
X98425Y47638D02*
X99606Y48819D01*
Y49016D01*
X98032Y47244D02*
Y47933D01*
X99508Y49409D01*
X99606D01*
X96458Y47636D02*
X96654Y47441D01*
X94094Y47638D02*
Y49016D01*
X93898Y47441D02*
X94094Y47638D01*
X93898Y40354D02*
Y47441D01*
X112894Y64370D02*
X114862Y66339D01*
X112894Y49213D02*
Y64370D01*
X111713Y48032D02*
X112894Y49213D01*
X96457Y35630D02*
X100394Y31693D01*
X96457Y35630D02*
Y38189D01*
X118799Y35433D02*
Y66634D01*
X114468Y31102D02*
X118799Y35433D01*
X100591Y30906D02*
X102067D01*
X95571Y35925D02*
X100591Y30906D01*
X95669Y38583D02*
X95866Y38386D01*
X91142Y41535D02*
X91339Y41732D01*
X90035Y41535D02*
X91142D01*
X90000Y41500D02*
X90035Y41535D01*
X90551Y40945D02*
X90945Y41339D01*
X90157Y40945D02*
X90551D01*
X90157Y41339D02*
X90551D01*
X90059Y41240D02*
X90157Y41339D01*
X92717Y65157D02*
X94685Y63189D01*
Y45472D02*
X95472Y44685D01*
Y40354D02*
Y44685D01*
X94685Y45472D02*
Y63189D01*
X94882Y45669D02*
X95079Y45866D01*
X94882Y48524D02*
X94900Y48542D01*
X94882Y48032D02*
Y48524D01*
Y48032D02*
X95079Y47835D01*
Y45866D02*
Y47835D01*
X91634Y48917D02*
Y49902D01*
X89173Y52362D02*
X91634Y49902D01*
X95276Y45669D02*
X96063D01*
X96654Y46260D01*
Y47441D01*
X74213Y47343D02*
X75197Y46358D01*
X74213Y47343D02*
Y66831D01*
X74016Y67028D02*
X74213Y66831D01*
X73622Y46063D02*
Y63681D01*
X72441Y64862D02*
X73622Y63681D01*
X72441Y64862D02*
Y68799D01*
X75492Y46654D02*
X76280Y45866D01*
X75492Y46654D02*
Y65551D01*
X74803Y66240D02*
X75492Y65551D01*
X65157Y54232D02*
X69094Y50295D01*
X65157Y54232D02*
Y68898D01*
X67224Y57579D02*
X69587D01*
X65650Y59154D02*
X67224Y57579D01*
X65650Y59154D02*
Y68996D01*
X65059Y69587D02*
X65650Y68996D01*
X64468Y69587D02*
X65059D01*
X72146Y52264D02*
Y68602D01*
X90748Y43898D02*
X90945Y44094D01*
X89862Y43898D02*
X90748D01*
X89635Y44125D02*
X89862Y43898D01*
X89665Y43701D02*
X90945D01*
X89491Y43875D02*
X89665Y43701D01*
X95571Y35925D02*
Y36220D01*
X94094Y37697D02*
X95571Y36220D01*
X96161Y46850D02*
X96457D01*
X95472Y47539D02*
X96161Y46850D01*
X95276Y48474D02*
X95472Y48278D01*
Y47539D02*
Y48278D01*
X100492Y42717D02*
X100492Y42717D01*
X71750Y36800D02*
X72330Y36220D01*
X70750Y36800D02*
X71526Y36024D01*
X69750Y36800D02*
X70723Y35827D01*
X67750Y36800D02*
X68920Y35630D01*
X66750Y36800D02*
X67155Y37205D01*
X69750Y37800D02*
X70237Y38287D01*
X89370D01*
X68750Y37800D02*
X69434Y38484D01*
X67750Y37800D02*
X68631Y38681D01*
X66750Y37800D02*
X67828Y38878D01*
X65750Y36800D02*
X66240Y37290D01*
Y37894D01*
X67421Y39075D01*
X64764Y36811D02*
X65256Y37303D01*
Y37894D01*
X66634Y39272D01*
X64750Y37800D02*
X66418Y39469D01*
X63750Y37800D02*
X65615Y39665D01*
X62750Y36800D02*
X63287Y37337D01*
X62795Y37795D02*
X65059Y40059D01*
X89468D02*
X89961Y40551D01*
X90945D01*
X65059Y40059D02*
X89468D01*
X89567Y39862D02*
X90059Y40354D01*
X91142D01*
X91339Y40551D01*
X89665Y39665D02*
X90157Y40157D01*
X90945D01*
X65615Y39665D02*
X89665D01*
X89862Y39469D02*
X90354Y39961D01*
X91142D01*
X91339Y40157D01*
X66418Y39469D02*
X89862D01*
X90059Y39272D02*
X90354Y39567D01*
X90748D01*
X90945Y39764D01*
X66634Y39272D02*
X90059D01*
X90945Y39370D02*
X91339Y39764D01*
X90059Y39075D02*
X90354Y39370D01*
X67421Y39075D02*
X90059D01*
X90354Y39370D02*
X90945D01*
X90059Y38878D02*
X90157Y38976D01*
X90945D01*
X67828Y38878D02*
X90059D01*
X91043Y38681D02*
X91339Y38976D01*
X68631Y38681D02*
X91043D01*
X91240Y38484D02*
X91339Y38583D01*
X69434Y38484D02*
X91240D01*
X89370Y38287D02*
Y38287D01*
Y38287D02*
X89665Y37992D01*
X90748D01*
X91043Y38287D01*
X91437D01*
X91732Y38583D01*
X90945Y37402D02*
X91929Y38386D01*
Y38780D01*
X91732Y38976D02*
X91929Y38780D01*
X72047Y37402D02*
X90945D01*
X92126Y38976D02*
X92323Y38780D01*
X91240Y36024D02*
X92717Y37500D01*
Y38780D01*
X92520Y38976D02*
X92717Y38780D01*
X71526Y36024D02*
X91240D01*
X91437Y35827D02*
X92913Y37303D01*
Y38583D01*
X70723Y35827D02*
X91437D01*
X68920Y35630D02*
X91634D01*
X71654Y37795D02*
X72047Y37402D01*
X92913Y38976D02*
X93110Y38780D01*
Y37106D02*
Y38780D01*
X91634Y35630D02*
X93110Y37106D01*
X92323Y40157D02*
X93504Y38976D01*
X94094D01*
X92323Y40157D02*
Y55945D01*
X94291Y39173D02*
X94488Y38976D01*
X92717Y39961D02*
X93504Y39173D01*
X92717Y39961D02*
Y55945D01*
X93504Y39173D02*
X94291D01*
X110827Y31693D02*
X111713Y32579D01*
Y48032D01*
X100394Y31693D02*
X110827D01*
X102067Y30906D02*
X102264Y31102D01*
X114468D01*
X97835Y38780D02*
X98032Y38976D01*
X97835Y36969D02*
Y38780D01*
X100984Y41535D02*
X101086Y41637D01*
X101086D02*
X102874Y43425D01*
X101181Y41339D02*
X101237Y41394D01*
X101772Y41142D02*
X103583Y42953D01*
X97047Y38386D02*
X97244Y38583D01*
X100000Y40551D02*
X100197Y40354D01*
X101535D01*
X105236Y36654D01*
X100295Y40551D02*
X101772D01*
X100098Y40748D02*
X100295Y40551D01*
X101772D02*
X103937Y42717D01*
X97835Y36969D02*
X100643Y34160D01*
X100643Y34160D02*
X100928D01*
X101267Y33821D01*
X103348D01*
X97047Y36762D02*
X100620Y33189D01*
X97047Y36762D02*
Y38386D01*
X100620Y33189D02*
X102992D01*
X97441Y36604D02*
X100736Y33309D01*
X97441Y36604D02*
Y38780D01*
X100736Y33309D02*
X103423D01*
X97638Y36614D02*
X100748Y33504D01*
X97638Y36614D02*
Y38976D01*
X100748Y33504D02*
X103898D01*
X70778Y72600D02*
X72022Y73844D01*
X72244Y73622D01*
X62650Y72600D02*
X70778D01*
X62350Y72050D02*
X62600Y71800D01*
X62350Y72050D02*
Y72750D01*
X62750Y73150D01*
X57050Y75550D02*
X71000D01*
X56500Y75000D02*
X57050Y75550D01*
X56300Y75750D02*
X56400Y75850D01*
X70450D01*
X94488Y39370D02*
X94882Y38976D01*
X93110Y40256D02*
X93996Y39370D01*
X94488D01*
X93110Y40256D02*
Y55945D01*
X93508Y40055D02*
X93996Y39567D01*
X94685D02*
X94882Y39370D01*
X93996Y39567D02*
X94685D01*
X93508Y40055D02*
Y46654D01*
X94291Y40354D02*
X94488Y40157D01*
D36*
X162480Y46705D02*
Y45905D01*
X163013D01*
X163413Y46439D02*
X163680D01*
X163813Y46305D01*
Y45905D01*
X163413D01*
X163280Y46039D01*
X163413Y46172D01*
X163813D01*
X164079Y46439D02*
Y46039D01*
X164213Y45905D01*
X164613D01*
Y45772D01*
X164479Y45639D01*
X164346D01*
X164613Y45905D02*
Y46439D01*
X165279Y45905D02*
X165012D01*
X164879Y46039D01*
Y46305D01*
X165012Y46439D01*
X165279D01*
X165412Y46305D01*
Y46172D01*
X164879D01*
X165679Y46439D02*
Y45905D01*
Y46172D01*
X165812Y46305D01*
X165946Y46439D01*
X166079D01*
X167278Y46572D02*
X167412Y46705D01*
X167678D01*
X167812Y46572D01*
Y46439D01*
X167678Y46305D01*
X167545D01*
X167678D01*
X167812Y46172D01*
Y46039D01*
X167678Y45905D01*
X167412D01*
X167278Y46039D01*
D37*
X36083Y65905D02*
X36122Y65945D01*
D38*
X77205Y53071D02*
X77283Y53150D01*
D44*
X62750Y36800D02*
D03*
X64750D02*
D03*
X65750D02*
D03*
X66750D02*
D03*
X67750D02*
D03*
X69750D02*
D03*
X70750D02*
D03*
X71750D02*
D03*
X75750D02*
D03*
X62750Y37800D02*
D03*
X63750D02*
D03*
X64750D02*
D03*
X66750D02*
D03*
X67750D02*
D03*
X68750D02*
D03*
X69750D02*
D03*
X71750D02*
D03*
D45*
X25981Y33578D02*
D03*
X24331D02*
D03*
D52*
X100550Y66850D02*
D03*
X62600Y71800D02*
D03*
X70965Y66835D02*
D03*
X89173Y70900D02*
D03*
X94150Y72250D02*
D03*
X51000Y75900D02*
D03*
X51850Y76000D02*
D03*
X56300Y75750D02*
D03*
X102913Y34764D02*
D03*
X99213Y40157D02*
D03*
Y39764D02*
D03*
X99606Y39370D02*
D03*
X99213D02*
D03*
X99606Y38976D02*
D03*
X99213D02*
D03*
Y38583D02*
D03*
X98819Y38976D02*
D03*
X102283Y34803D02*
D03*
X101693D02*
D03*
X98425Y38583D02*
D03*
Y38976D02*
D03*
X98032D02*
D03*
X97638D02*
D03*
X97244D02*
D03*
Y38583D02*
D03*
X103425Y36142D02*
D03*
X103149Y36260D02*
D03*
X103779Y36220D02*
D03*
X104409Y36220D02*
D03*
X104409Y34685D02*
D03*
X105000Y36181D02*
D03*
X105236Y36024D02*
D03*
X104409Y32638D02*
D03*
X103779Y32717D02*
D03*
X103622Y34094D02*
D03*
X103268Y32677D02*
D03*
Y34213D02*
D03*
X103937Y55315D02*
D03*
X94882Y38583D02*
D03*
X95669Y40157D02*
D03*
X96063D02*
D03*
X96457D02*
D03*
X95669Y39370D02*
D03*
Y38976D02*
D03*
X96063D02*
D03*
X96457D02*
D03*
X95669Y38583D02*
D03*
X95276Y48474D02*
D03*
X95669Y48581D02*
D03*
X98819Y46850D02*
D03*
X100362Y48000D02*
D03*
X100506Y47750D02*
D03*
X99213Y47244D02*
D03*
X100591Y43406D02*
D03*
X100886Y43110D02*
D03*
X99606Y43307D02*
D03*
X100000D02*
D03*
X101500Y45625D02*
D03*
X101625Y45375D02*
D03*
X98819Y44882D02*
D03*
X99213D02*
D03*
X134881Y54074D02*
D03*
X134449Y53248D02*
D03*
X90000Y41500D02*
D03*
X89875Y41750D02*
D03*
X89665Y45571D02*
D03*
X89370Y45866D02*
D03*
X90000Y44625D02*
D03*
X91142Y48661D02*
D03*
X91339Y46850D02*
D03*
Y48898D02*
D03*
Y47244D02*
D03*
X90945Y45276D02*
D03*
X91339Y44882D02*
D03*
X89961Y44291D02*
D03*
X90945Y44488D02*
D03*
X90551D02*
D03*
X69764Y71102D02*
D03*
X71220Y68071D02*
D03*
X103583Y55315D02*
D03*
X103228Y55472D02*
D03*
X102874Y55591D02*
D03*
X102559Y55630D02*
D03*
X102244Y56063D02*
D03*
X92402Y57992D02*
D03*
X92283Y57598D02*
D03*
X92087Y57362D02*
D03*
X101890Y56378D02*
D03*
X91929Y57126D02*
D03*
X91732Y56929D02*
D03*
X91535Y56732D02*
D03*
X91299Y56496D02*
D03*
X75161Y73980D02*
D03*
X72756Y73268D02*
D03*
X91339Y42126D02*
D03*
X91339Y41732D02*
D03*
X94094Y38976D02*
D03*
X94488D02*
D03*
X94882D02*
D03*
X94882Y39370D02*
D03*
X94094Y40157D02*
D03*
X94882Y39764D02*
D03*
X92126Y65157D02*
D03*
X101181Y56299D02*
D03*
X96457Y47244D02*
D03*
Y46850D02*
D03*
X93701Y47244D02*
D03*
Y48819D02*
D03*
Y47638D02*
D03*
X93898Y48622D02*
D03*
X98425Y47638D02*
D03*
X99606Y49016D02*
D03*
X98032Y47244D02*
D03*
X99606Y49409D02*
D03*
X114862Y66339D02*
D03*
X96457Y38189D02*
D03*
X118799Y66634D02*
D03*
X90945Y41339D02*
D03*
X90157Y40945D02*
D03*
X90551Y41339D02*
D03*
X90059Y41240D02*
D03*
X94882Y45669D02*
D03*
X91634Y48917D02*
D03*
X95276Y45669D02*
D03*
X75197Y46358D02*
D03*
X74016Y67028D02*
D03*
X73622Y46063D02*
D03*
X72441Y68799D02*
D03*
X76280Y45866D02*
D03*
X74803Y66240D02*
D03*
X72146Y52264D02*
D03*
X70965Y54331D02*
D03*
X69094Y50295D02*
D03*
X65157Y68898D02*
D03*
X69587Y57579D02*
D03*
X64468Y69587D02*
D03*
X72146Y68602D02*
D03*
X90945Y44094D02*
D03*
X89635Y44125D02*
D03*
X90945Y43701D02*
D03*
X89491Y43875D02*
D03*
X94094Y37697D02*
D03*
X100492Y42717D02*
D03*
X90945Y40551D02*
D03*
X91339D02*
D03*
X90945Y40157D02*
D03*
X91339D02*
D03*
X90945Y39764D02*
D03*
X91339D02*
D03*
X90945Y38976D02*
D03*
X91339D02*
D03*
X91732D02*
D03*
X91339Y38583D02*
D03*
X91732D02*
D03*
X92126D02*
D03*
Y38976D02*
D03*
X92520D02*
D03*
Y38583D02*
D03*
X92913D02*
D03*
Y38976D02*
D03*
X100000Y40551D02*
D03*
X62650Y72600D02*
D03*
X62750Y73150D02*
D03*
X71000Y75550D02*
D03*
X56500Y75000D02*
D03*
X70450Y75850D02*
D03*
X94488Y40157D02*
D03*
D53*
X73504Y73897D02*
D03*
X75791Y74295D02*
D03*
X74882Y75079D02*
D03*
D54*
X77205Y53071D02*
D03*
M02*
