%FSLAX24Y24*%
%MOIN*%
G70*
G01*
G75*
G04 Layer_Physical_Order=6*
G04 Layer_Color=65280*
G36*
X38976Y49246D02*
X39035Y49258D01*
X39081Y49220D01*
Y48711D01*
X39088Y48676D01*
X39108Y48646D01*
X44390Y43364D01*
Y43033D01*
X44334Y43010D01*
X38871Y48473D01*
Y49220D01*
X38918Y49258D01*
X38976Y49246D02*
G37*
G36*
X44390Y41652D02*
Y40553D01*
X44334Y40530D01*
X37936Y46928D01*
Y48027D01*
X37992Y48050D01*
X44390Y41652D02*
G37*
G36*
X37402Y49246D02*
X37460Y49258D01*
X37507Y49220D01*
Y48858D01*
X37514Y48823D01*
X37534Y48793D01*
X37688Y48639D01*
X37660Y48586D01*
X37598Y48598D01*
X37536Y48586D01*
X37483Y48550D01*
X37448Y48497D01*
X37435Y48435D01*
X37448Y48373D01*
X37483Y48320D01*
X37536Y48284D01*
X37598Y48272D01*
X37661Y48284D01*
X37700Y48310D01*
X37753Y48282D01*
Y48096D01*
X37700Y48068D01*
X37660Y48095D01*
X37597Y48107D01*
X37535Y48095D01*
X37482Y48059D01*
X37447Y48007D01*
X37434Y47944D01*
X37447Y47882D01*
X37482Y47829D01*
X37535Y47793D01*
X37597Y47781D01*
X37660Y47793D01*
X37700Y47820D01*
X37753Y47792D01*
Y46890D01*
X37760Y46855D01*
X37780Y46825D01*
X44390Y40215D01*
Y39470D01*
X44334Y39447D01*
X37296Y46485D01*
Y49220D01*
X37343Y49258D01*
X37402Y49246D02*
G37*
G36*
X38583D02*
X38641Y49258D01*
X38688Y49220D01*
Y48435D01*
X38695Y48400D01*
X38715Y48370D01*
X44390Y42695D01*
Y42620D01*
X44334Y42597D01*
X38478Y48453D01*
Y49220D01*
X38524Y49258D01*
X38583Y49246D02*
G37*
G36*
X42652Y47967D02*
X42681Y47947D01*
X42717Y47940D01*
X43564D01*
X44390Y47114D01*
Y45976D01*
X44334Y45953D01*
X41928Y48359D01*
X41929Y48360D01*
X41992Y48373D01*
X42044Y48408D01*
X42080Y48461D01*
X42080Y48463D01*
X42138Y48481D01*
X42652Y47967D02*
G37*
G36*
X42334Y59197D02*
X41077Y57939D01*
X41057Y57909D01*
X41050Y57874D01*
Y56686D01*
X41004Y56648D01*
X40945Y56659D01*
X40882Y56647D01*
X40830Y56611D01*
X40794Y56558D01*
X40782Y56496D01*
X40794Y56434D01*
X40830Y56381D01*
X40882Y56345D01*
X40945Y56333D01*
X40969Y56338D01*
X40982Y56313D01*
X40947Y56265D01*
X40945Y56266D01*
X40882Y56253D01*
X40830Y56218D01*
X40794Y56165D01*
X40782Y56102D01*
X40794Y56040D01*
X40830Y55987D01*
X40882Y55952D01*
X40945Y55939D01*
X41007Y55952D01*
X41060Y55987D01*
X41096Y56040D01*
X41108Y56102D01*
X41108Y56104D01*
X41156Y56140D01*
X41180Y56127D01*
X41175Y56102D01*
X41188Y56040D01*
X41223Y55987D01*
X41276Y55952D01*
X41339Y55939D01*
X41401Y55952D01*
X41454Y55987D01*
X41489Y56040D01*
X41502Y56102D01*
X41501Y56104D01*
X41550Y56140D01*
X41574Y56127D01*
X41569Y56102D01*
X41582Y56040D01*
X41617Y55987D01*
X41670Y55952D01*
X41732Y55939D01*
X41795Y55952D01*
X41848Y55987D01*
X41883Y56040D01*
X41895Y56102D01*
X41890Y56130D01*
X41994Y56234D01*
X42014Y56264D01*
X42015Y56270D01*
X42021Y56299D01*
Y57291D01*
X42067Y57329D01*
X42126Y57317D01*
X42188Y57330D01*
X42241Y57365D01*
X42244Y57368D01*
X42304D01*
X42306Y57365D01*
X42359Y57330D01*
X42421Y57317D01*
X42484Y57330D01*
X42537Y57365D01*
X42572Y57418D01*
X42584Y57480D01*
X42584Y57482D01*
X42632Y57518D01*
X42657Y57505D01*
X42652Y57480D01*
X42664Y57418D01*
X42700Y57365D01*
X42753Y57330D01*
X42815Y57317D01*
X42877Y57330D01*
X42930Y57365D01*
X42966Y57418D01*
X42978Y57480D01*
X42966Y57543D01*
X42988Y57585D01*
X44390D01*
Y55523D01*
X44334Y55500D01*
X44258Y55577D01*
X44228Y55597D01*
X44193Y55604D01*
X43497D01*
X43459Y55650D01*
X43470Y55709D01*
X43458Y55771D01*
X43422Y55824D01*
X43370Y55859D01*
X43307Y55872D01*
X43245Y55859D01*
X43192Y55824D01*
X43156Y55771D01*
X43144Y55709D01*
X43156Y55650D01*
X43140Y55631D01*
X43080D01*
X43065Y55650D01*
X43077Y55709D01*
X43064Y55771D01*
X43029Y55824D01*
X42976Y55859D01*
X42913Y55872D01*
X42851Y55859D01*
X42798Y55824D01*
X42763Y55771D01*
X42750Y55709D01*
X42762Y55650D01*
X42724Y55604D01*
X41528D01*
X41490Y55650D01*
X41502Y55709D01*
X41489Y55771D01*
X41454Y55824D01*
X41401Y55859D01*
X41339Y55872D01*
X41276Y55859D01*
X41223Y55824D01*
X41188Y55771D01*
X41175Y55709D01*
X41187Y55650D01*
X41149Y55604D01*
X41142D01*
X41107Y55597D01*
X41077Y55577D01*
X40973Y55473D01*
X40945Y55478D01*
X40882Y55466D01*
X40830Y55430D01*
X40794Y55377D01*
X40782Y55315D01*
X40794Y55253D01*
X40830Y55200D01*
X40882Y55164D01*
X40945Y55152D01*
X41007Y55164D01*
X41060Y55200D01*
X41096Y55253D01*
X41106Y55304D01*
X41166D01*
X41178Y55243D01*
X41213Y55190D01*
X41266Y55154D01*
X41328Y55142D01*
Y55084D01*
X41328D01*
Y55082D01*
X41276Y55072D01*
X41223Y55037D01*
X41188Y54984D01*
X41175Y54921D01*
X41188Y54859D01*
X41223Y54806D01*
X41276Y54771D01*
X41339Y54758D01*
X41401Y54771D01*
X41454Y54806D01*
X41489Y54859D01*
X41502Y54921D01*
X41489Y54984D01*
X41454Y55037D01*
X41401Y55072D01*
X41340Y55084D01*
Y55142D01*
X41340D01*
Y55144D01*
X41391Y55154D01*
X41444Y55190D01*
X41479Y55243D01*
X41492Y55305D01*
X41479Y55368D01*
X41508Y55420D01*
X42725D01*
X42753Y55368D01*
X42740Y55305D01*
X42753Y55243D01*
X42788Y55190D01*
X42841Y55154D01*
X42902Y55142D01*
Y55084D01*
X42902D01*
Y55082D01*
X42851Y55072D01*
X42798Y55037D01*
X42763Y54984D01*
X42750Y54921D01*
X42763Y54859D01*
X42798Y54806D01*
X42851Y54771D01*
X42913Y54758D01*
X42976Y54771D01*
X43029Y54806D01*
X43064Y54859D01*
X43077Y54921D01*
X43064Y54984D01*
X43029Y55037D01*
X42976Y55072D01*
X42915Y55084D01*
Y55142D01*
X42915D01*
Y55144D01*
X42966Y55154D01*
X43019Y55190D01*
X43054Y55243D01*
X43067Y55305D01*
X43054Y55368D01*
X43071Y55398D01*
X43130Y55404D01*
X43156Y55374D01*
X43144Y55315D01*
X43156Y55253D01*
X43192Y55200D01*
X43245Y55164D01*
X43307Y55152D01*
X43370Y55164D01*
X43422Y55200D01*
X43458Y55253D01*
X43470Y55315D01*
X43458Y55377D01*
X43481Y55420D01*
X44155D01*
X44246Y55329D01*
X44217Y55276D01*
X44193Y55281D01*
X44130Y55269D01*
X44078Y55233D01*
X44042Y55181D01*
X44030Y55118D01*
X44042Y55056D01*
X44078Y55003D01*
X44130Y54967D01*
X44193Y54955D01*
X44255Y54967D01*
X44292Y54992D01*
X44345Y54964D01*
X44375Y50906D01*
X44318Y50888D01*
X44308Y50903D01*
X44255Y50938D01*
X44193Y50951D01*
X44130Y50938D01*
X44078Y50903D01*
X44042Y50850D01*
X44030Y50787D01*
X44042Y50725D01*
X44078Y50672D01*
X44130Y50637D01*
X44193Y50624D01*
X44255Y50637D01*
X44308Y50672D01*
X44320Y50689D01*
X44377Y50672D01*
X44390Y48946D01*
X44373Y48934D01*
X44337Y48881D01*
X44325Y48819D01*
X44337Y48756D01*
X44373Y48704D01*
X44390Y48692D01*
Y48293D01*
X44327Y48281D01*
X44274Y48245D01*
X44239Y48192D01*
X44227Y48130D01*
X44239Y48067D01*
X44274Y48015D01*
X44278Y48012D01*
Y47952D01*
X44274Y47950D01*
X44239Y47897D01*
X44227Y47835D01*
X44239Y47772D01*
X44274Y47719D01*
X44327Y47684D01*
X44390Y47672D01*
X44390Y47672D01*
Y47672D01*
X44390Y47672D01*
Y47452D01*
X44334Y47429D01*
X43667Y48096D01*
X43637Y48116D01*
X43602Y48123D01*
X42755D01*
X41824Y49054D01*
Y49278D01*
X41848Y49294D01*
X41883Y49347D01*
X41895Y49409D01*
X41883Y49472D01*
X41848Y49525D01*
X41795Y49560D01*
X41732Y49573D01*
X41670Y49560D01*
X41617Y49525D01*
X41582Y49472D01*
X41569Y49409D01*
X41582Y49347D01*
X41617Y49294D01*
X41641Y49278D01*
Y49016D01*
X41648Y48981D01*
X41667Y48951D01*
X41886Y48732D01*
X41869Y48675D01*
X41867Y48674D01*
X41814Y48639D01*
X41778Y48586D01*
X41778Y48584D01*
X41721Y48567D01*
X41234Y49054D01*
Y50000D01*
X41227Y50035D01*
X41276Y50046D01*
X41339Y50034D01*
X41401Y50046D01*
X41454Y50082D01*
X41489Y50134D01*
X41502Y50197D01*
X41489Y50259D01*
X41454Y50312D01*
X41401Y50348D01*
X41339Y50360D01*
X41276Y50348D01*
X41223Y50312D01*
X41188Y50259D01*
X41175Y50197D01*
X41180Y50172D01*
X41156Y50159D01*
X41108Y50195D01*
X41108Y50197D01*
X41096Y50259D01*
X41060Y50312D01*
X41007Y50348D01*
X40945Y50360D01*
X40920Y50355D01*
X40907Y50380D01*
X40943Y50428D01*
X40945Y50427D01*
X41007Y50440D01*
X41060Y50475D01*
X41096Y50528D01*
X41108Y50591D01*
X41096Y50653D01*
X41060Y50706D01*
X41007Y50741D01*
X40945Y50754D01*
X40882Y50741D01*
X40830Y50706D01*
X40794Y50653D01*
X40782Y50591D01*
X40787Y50563D01*
X40683Y50459D01*
X40663Y50429D01*
X40656Y50394D01*
Y50386D01*
X40610Y50348D01*
X40551Y50360D01*
X40489Y50348D01*
X40436Y50312D01*
X40400Y50259D01*
X40388Y50197D01*
X40400Y50134D01*
X40436Y50082D01*
X40489Y50046D01*
X40551Y50034D01*
X40610Y50045D01*
X40656Y50007D01*
Y49016D01*
X40663Y48981D01*
X40683Y48951D01*
X44390Y45244D01*
Y43702D01*
X44334Y43679D01*
X39265Y48749D01*
Y49220D01*
X39311Y49258D01*
X39370Y49246D01*
X39433Y49259D01*
X39485Y49294D01*
X39521Y49347D01*
X39533Y49409D01*
X39521Y49472D01*
X39485Y49525D01*
X39433Y49560D01*
X39370Y49573D01*
X39311Y49561D01*
X39265Y49599D01*
Y49614D01*
X39311Y49652D01*
X39370Y49640D01*
X39433Y49652D01*
X39485Y49688D01*
X39521Y49741D01*
X39533Y49803D01*
X39521Y49866D01*
X39485Y49919D01*
X39433Y49954D01*
X39370Y49966D01*
X39311Y49955D01*
X39265Y49993D01*
Y50007D01*
X39311Y50045D01*
X39370Y50034D01*
X39433Y50046D01*
X39485Y50082D01*
X39521Y50134D01*
X39533Y50197D01*
X39521Y50259D01*
X39485Y50312D01*
X39433Y50348D01*
X39370Y50360D01*
X39311Y50348D01*
X39265Y50386D01*
Y50394D01*
X39258Y50429D01*
X39308Y50440D01*
X39370Y50427D01*
X39433Y50440D01*
X39485Y50475D01*
X39521Y50528D01*
X39533Y50591D01*
X39521Y50653D01*
X39485Y50706D01*
X39433Y50741D01*
X39370Y50754D01*
X39308Y50741D01*
X39255Y50706D01*
X39219Y50653D01*
X39207Y50591D01*
X39212Y50566D01*
X39187Y50553D01*
X39139Y50589D01*
X39139Y50591D01*
X39127Y50653D01*
X39092Y50706D01*
X39039Y50741D01*
X38976Y50754D01*
X38914Y50741D01*
X38861Y50706D01*
X38826Y50653D01*
X38813Y50591D01*
X38818Y50566D01*
X38794Y50553D01*
X38745Y50589D01*
X38746Y50591D01*
X38733Y50653D01*
X38698Y50706D01*
X38645Y50741D01*
X38583Y50754D01*
X38520Y50741D01*
X38467Y50706D01*
X38432Y50653D01*
X38420Y50591D01*
X38432Y50528D01*
X38467Y50475D01*
X38520Y50440D01*
X38583Y50427D01*
X38584Y50428D01*
X38620Y50380D01*
X38607Y50355D01*
X38583Y50360D01*
X38520Y50348D01*
X38467Y50312D01*
X38432Y50259D01*
X38420Y50197D01*
X38424Y50172D01*
X38400Y50159D01*
X38352Y50195D01*
X38352Y50197D01*
X38340Y50259D01*
X38304Y50312D01*
X38251Y50348D01*
X38189Y50360D01*
X38130Y50348D01*
X38084Y50386D01*
Y50394D01*
X38077Y50429D01*
X38127Y50440D01*
X38189Y50427D01*
X38251Y50440D01*
X38304Y50475D01*
X38340Y50528D01*
X38352Y50591D01*
X38340Y50653D01*
X38304Y50706D01*
X38251Y50741D01*
X38189Y50754D01*
X38127Y50741D01*
X38074Y50706D01*
X38038Y50653D01*
X38026Y50591D01*
X38031Y50566D01*
X38006Y50553D01*
X37958Y50589D01*
X37958Y50591D01*
X37946Y50653D01*
X37911Y50706D01*
X37858Y50741D01*
X37795Y50754D01*
X37733Y50741D01*
X37680Y50706D01*
X37645Y50653D01*
X37632Y50591D01*
X37637Y50566D01*
X37613Y50553D01*
X37564Y50589D01*
X37565Y50591D01*
X37552Y50653D01*
X37517Y50706D01*
X37464Y50741D01*
X37402Y50754D01*
X37339Y50741D01*
X37286Y50706D01*
X37251Y50653D01*
X37238Y50591D01*
X37251Y50528D01*
X37286Y50475D01*
X37339Y50440D01*
X37402Y50427D01*
X37403Y50428D01*
X37439Y50380D01*
X37426Y50355D01*
X37402Y50360D01*
X37339Y50348D01*
X37286Y50312D01*
X37251Y50259D01*
X37238Y50197D01*
X37244Y50169D01*
X37140Y50065D01*
X37125Y50043D01*
X37120Y50035D01*
Y50035D01*
X37120Y50035D01*
X37116Y50016D01*
X37113Y50000D01*
Y49599D01*
X37067Y49561D01*
X37008Y49573D01*
X36945Y49560D01*
X36893Y49525D01*
X36857Y49472D01*
X36845Y49409D01*
X36857Y49347D01*
X36893Y49294D01*
X36945Y49259D01*
X37008Y49246D01*
X37067Y49258D01*
X37113Y49220D01*
Y46447D01*
X37120Y46412D01*
X37140Y46382D01*
X44390Y39132D01*
Y37008D01*
X41361D01*
X41332Y37061D01*
X41360Y37102D01*
X41376Y37184D01*
X41360Y37266D01*
X41314Y37336D01*
X41244Y37382D01*
X41162Y37398D01*
X41080Y37382D01*
X41011Y37336D01*
X40964Y37266D01*
X40948Y37184D01*
X40964Y37102D01*
X40992Y37061D01*
X40964Y37008D01*
X39142D01*
X39104Y37054D01*
X39113Y37100D01*
X39101Y37162D01*
X39065Y37215D01*
X39012Y37251D01*
X38950Y37263D01*
X38888Y37251D01*
X38835Y37215D01*
X38799Y37162D01*
X38787Y37100D01*
X38796Y37054D01*
X38758Y37008D01*
X38470D01*
X38465Y37015D01*
X38412Y37051D01*
X38350Y37063D01*
X38288Y37051D01*
X38235Y37015D01*
X38230Y37008D01*
X38070D01*
X38065Y37015D01*
X38012Y37051D01*
X37950Y37063D01*
X37888Y37051D01*
X37835Y37015D01*
X37830Y37008D01*
X37670D01*
X37665Y37015D01*
X37612Y37051D01*
X37550Y37063D01*
X37488Y37051D01*
X37435Y37015D01*
X37430Y37008D01*
X24016D01*
Y47456D01*
X24615Y47889D01*
X24675Y47879D01*
X24685Y47865D01*
X24685Y47865D01*
X24649Y47812D01*
X24637Y47750D01*
X24649Y47688D01*
X24685Y47635D01*
X24738Y47599D01*
X24800Y47587D01*
X24862Y47599D01*
X24915Y47635D01*
X24951Y47688D01*
X24963Y47750D01*
X24951Y47812D01*
X24915Y47865D01*
X24862Y47901D01*
X24800Y47913D01*
X24738Y47901D01*
X24691Y47869D01*
X24691Y47869D01*
X24691Y47869D01*
X24666Y47904D01*
X24656Y47919D01*
X29926Y51725D01*
Y59252D01*
X34930D01*
X34953Y59197D01*
X33941Y58184D01*
X33941Y58184D01*
X33793Y58037D01*
X33773Y58008D01*
X33767Y57972D01*
Y57948D01*
X33709Y57931D01*
X33706Y57936D01*
X33636Y57982D01*
X33554Y57998D01*
X33472Y57982D01*
X33403Y57936D01*
X33357Y57866D01*
X33340Y57784D01*
X33357Y57702D01*
X33403Y57633D01*
X33472Y57586D01*
X33554Y57570D01*
X33636Y57586D01*
X33706Y57633D01*
X33709Y57638D01*
X33767Y57620D01*
Y57518D01*
X33597Y57348D01*
X33577Y57319D01*
X33570Y57283D01*
Y56529D01*
X33546Y56513D01*
X33511Y56460D01*
X33498Y56398D01*
X33511Y56335D01*
X33546Y56282D01*
X33599Y56247D01*
X33661Y56234D01*
X33724Y56247D01*
X33777Y56282D01*
X33812Y56335D01*
X33825Y56398D01*
X33812Y56460D01*
X33777Y56513D01*
X33753Y56529D01*
Y57245D01*
X33908Y57400D01*
X33963Y57377D01*
Y57119D01*
X33940Y57104D01*
X33904Y57051D01*
X33892Y56988D01*
X33904Y56926D01*
X33940Y56873D01*
X33993Y56837D01*
X34055Y56825D01*
X34118Y56837D01*
X34170Y56873D01*
X34206Y56926D01*
X34218Y56988D01*
X34206Y57051D01*
X34170Y57104D01*
X34147Y57119D01*
Y57541D01*
X35858Y59252D01*
X36012D01*
X36035Y59197D01*
X34384Y57545D01*
X34364Y57515D01*
X34357Y57480D01*
Y57218D01*
X34333Y57202D01*
X34298Y57149D01*
X34286Y57087D01*
X34298Y57024D01*
X34333Y56971D01*
X34386Y56936D01*
X34449Y56923D01*
X34511Y56936D01*
X34564Y56971D01*
X34600Y57024D01*
X34612Y57087D01*
X34600Y57149D01*
X34564Y57202D01*
X34541Y57218D01*
Y57442D01*
X36350Y59252D01*
X41157D01*
X41180Y59197D01*
X40109Y58126D01*
X40095Y58123D01*
X40042Y58088D01*
X40007Y58035D01*
X39994Y57972D01*
X40007Y57910D01*
X40042Y57857D01*
X40095Y57822D01*
X40157Y57809D01*
X40220Y57822D01*
X40273Y57857D01*
X40308Y57910D01*
X40311Y57924D01*
X41639Y59252D01*
X42312D01*
X42334Y59197D02*
G37*
G36*
X38189Y49246D02*
X38248Y49258D01*
X38294Y49220D01*
Y48415D01*
X38301Y48380D01*
X38321Y48350D01*
X44390Y42282D01*
Y41990D01*
X44334Y41967D01*
X38084Y48217D01*
Y49220D01*
X38130Y49258D01*
X38189Y49246D02*
G37*
G36*
X40945Y49246D02*
X41004Y49258D01*
X41050Y49220D01*
Y49016D01*
X41057Y48981D01*
X41077Y48951D01*
X44390Y45638D01*
Y45582D01*
X44334Y45559D01*
X40840Y49054D01*
Y49220D01*
X40886Y49258D01*
X40945Y49246D02*
G37*
G36*
X35543Y59197D02*
X34005Y57659D01*
X33950Y57682D01*
Y57934D01*
X34070Y58055D01*
X34070Y58055D01*
X35268Y59252D01*
X35520D01*
X35543Y59197D02*
G37*
%LPC*%
G36*
X26300Y48013D02*
X26238Y48001D01*
X26185Y47965D01*
X26149Y47912D01*
X26137Y47850D01*
X26149Y47788D01*
X26185Y47735D01*
X26238Y47699D01*
X26300Y47687D01*
X26362Y47699D01*
X26415Y47735D01*
X26451Y47788D01*
X26463Y47850D01*
X26451Y47912D01*
X26415Y47965D01*
X26362Y48001D01*
X26300Y48013D02*
G37*
G36*
X40945Y48391D02*
X40882Y48379D01*
X40830Y48344D01*
X40794Y48291D01*
X40782Y48228D01*
X40794Y48166D01*
X40830Y48113D01*
X40882Y48078D01*
X40945Y48065D01*
X41007Y48078D01*
X41060Y48113D01*
X41096Y48166D01*
X41108Y48228D01*
X41096Y48291D01*
X41060Y48344D01*
X41007Y48379D01*
X40945Y48391D02*
G37*
G36*
X36024Y48588D02*
X35961Y48576D01*
X35908Y48541D01*
X35873Y48488D01*
X35860Y48425D01*
X35873Y48363D01*
X35908Y48310D01*
X35961Y48274D01*
X36024Y48262D01*
X36086Y48274D01*
X36139Y48310D01*
X36174Y48363D01*
X36187Y48425D01*
X36174Y48488D01*
X36139Y48541D01*
X36086Y48576D01*
X36024Y48588D02*
G37*
G36*
X40650Y48687D02*
X40587Y48674D01*
X40534Y48639D01*
X40499Y48586D01*
X40486Y48524D01*
X40499Y48461D01*
X40534Y48408D01*
X40587Y48373D01*
X40650Y48360D01*
X40712Y48373D01*
X40765Y48408D01*
X40800Y48461D01*
X40813Y48524D01*
X40800Y48586D01*
X40765Y48639D01*
X40712Y48674D01*
X40650Y48687D02*
G37*
G36*
X28750Y48813D02*
X28688Y48801D01*
X28635Y48765D01*
X28599Y48712D01*
X28587Y48650D01*
X28599Y48588D01*
X28635Y48535D01*
X28688Y48499D01*
X28750Y48487D01*
X28787Y48494D01*
X28822Y48442D01*
X28786Y48389D01*
X28774Y48327D01*
X28786Y48264D01*
X28822Y48211D01*
X28875Y48176D01*
X28937Y48164D01*
X28999Y48176D01*
X29052Y48211D01*
X29088Y48264D01*
X29100Y48327D01*
X29088Y48389D01*
X29052Y48442D01*
X28999Y48478D01*
X28937Y48490D01*
X28900Y48483D01*
X28865Y48535D01*
X28901Y48588D01*
X28913Y48650D01*
X28901Y48712D01*
X28865Y48765D01*
X28812Y48801D01*
X28750Y48813D02*
G37*
G36*
X36417Y48569D02*
X36355Y48556D01*
X36302Y48521D01*
X36267Y48468D01*
X36254Y48405D01*
X36267Y48343D01*
X36302Y48290D01*
X36355Y48255D01*
X36417Y48242D01*
X36480Y48255D01*
X36533Y48290D01*
X36568Y48343D01*
X36580Y48405D01*
X36568Y48468D01*
X36533Y48521D01*
X36480Y48556D01*
X36417Y48569D02*
G37*
G36*
X31300Y47963D02*
X31238Y47951D01*
X31185Y47915D01*
X31149Y47862D01*
X31137Y47800D01*
X31149Y47738D01*
X31185Y47685D01*
X31238Y47649D01*
X31300Y47637D01*
X31362Y47649D01*
X31415Y47685D01*
X31451Y47738D01*
X31463Y47800D01*
X31451Y47862D01*
X31415Y47915D01*
X31362Y47951D01*
X31300Y47963D02*
G37*
G36*
X31250Y46463D02*
X31188Y46451D01*
X31135Y46415D01*
X31099Y46362D01*
X31087Y46300D01*
X31099Y46238D01*
X31135Y46185D01*
X31188Y46149D01*
X31250Y46137D01*
X31312Y46149D01*
X31365Y46185D01*
X31401Y46238D01*
X31413Y46300D01*
X31401Y46362D01*
X31365Y46415D01*
X31312Y46451D01*
X31250Y46463D02*
G37*
G36*
X32700D02*
X32638Y46451D01*
X32585Y46415D01*
X32549Y46362D01*
X32537Y46300D01*
X32549Y46238D01*
X32585Y46185D01*
X32638Y46149D01*
X32700Y46137D01*
X32762Y46149D01*
X32815Y46185D01*
X32851Y46238D01*
X32863Y46300D01*
X32851Y46362D01*
X32815Y46415D01*
X32762Y46451D01*
X32700Y46463D02*
G37*
G36*
X26300Y46363D02*
X26238Y46351D01*
X26185Y46315D01*
X26149Y46262D01*
X26137Y46200D01*
X26149Y46138D01*
X26185Y46085D01*
X26238Y46049D01*
X26300Y46037D01*
X26362Y46049D01*
X26415Y46085D01*
X26451Y46138D01*
X26463Y46200D01*
X26451Y46262D01*
X26415Y46315D01*
X26362Y46351D01*
X26300Y46363D02*
G37*
G36*
X27431Y45803D02*
X27369Y45790D01*
X27316Y45755D01*
X27280Y45702D01*
X27268Y45640D01*
X27280Y45577D01*
X27316Y45524D01*
X27369Y45489D01*
X27431Y45477D01*
X27494Y45489D01*
X27546Y45524D01*
X27582Y45577D01*
X27594Y45640D01*
X27582Y45702D01*
X27546Y45755D01*
X27494Y45790D01*
X27431Y45803D02*
G37*
G36*
X24848Y46315D02*
X24786Y46302D01*
X24733Y46267D01*
X24698Y46214D01*
X24685Y46152D01*
X24698Y46089D01*
X24733Y46036D01*
X24786Y46001D01*
X24848Y45988D01*
X24911Y46001D01*
X24964Y46036D01*
X24999Y46089D01*
X25012Y46152D01*
X24999Y46214D01*
X24964Y46267D01*
X24911Y46302D01*
X24848Y46315D02*
G37*
G36*
X35335Y47506D02*
X35272Y47493D01*
X35219Y47458D01*
X35184Y47405D01*
X35172Y47343D01*
X35184Y47280D01*
X35219Y47227D01*
X35272Y47192D01*
X35335Y47179D01*
X35397Y47192D01*
X35450Y47227D01*
X35485Y47280D01*
X35498Y47343D01*
X35485Y47405D01*
X35450Y47458D01*
X35397Y47493D01*
X35335Y47506D02*
G37*
G36*
X32650Y47913D02*
X32588Y47901D01*
X32535Y47865D01*
X32499Y47812D01*
X32487Y47750D01*
X32499Y47688D01*
X32535Y47635D01*
X32588Y47599D01*
X32650Y47587D01*
X32712Y47599D01*
X32765Y47635D01*
X32801Y47688D01*
X32813Y47750D01*
X32801Y47812D01*
X32765Y47865D01*
X32712Y47901D01*
X32650Y47913D02*
G37*
G36*
X31325Y47338D02*
X31262Y47326D01*
X31209Y47291D01*
X31174Y47238D01*
X31162Y47175D01*
X31174Y47113D01*
X31209Y47060D01*
X31262Y47024D01*
X31325Y47012D01*
X31387Y47024D01*
X31440Y47060D01*
X31476Y47113D01*
X31488Y47175D01*
X31476Y47238D01*
X31440Y47291D01*
X31387Y47326D01*
X31325Y47338D02*
G37*
G36*
X27461Y46817D02*
X27398Y46804D01*
X27345Y46769D01*
X27310Y46716D01*
X27298Y46654D01*
X27310Y46591D01*
X27345Y46538D01*
X27398Y46503D01*
X27461Y46490D01*
X27523Y46503D01*
X27576Y46538D01*
X27611Y46591D01*
X27624Y46654D01*
X27611Y46716D01*
X27576Y46769D01*
X27523Y46804D01*
X27461Y46817D02*
G37*
G36*
X35500Y47033D02*
X35418Y47017D01*
X35349Y46970D01*
X35302Y46901D01*
X35286Y46819D01*
X35302Y46737D01*
X35349Y46667D01*
X35418Y46621D01*
X35500Y46605D01*
X35582Y46621D01*
X35651Y46667D01*
X35698Y46737D01*
X35714Y46819D01*
X35698Y46901D01*
X35651Y46970D01*
X35582Y47017D01*
X35500Y47033D02*
G37*
G36*
X35433Y48785D02*
X35371Y48773D01*
X35318Y48737D01*
X35282Y48684D01*
X35270Y48622D01*
X35282Y48560D01*
X35318Y48507D01*
X35371Y48471D01*
X35433Y48459D01*
X35496Y48471D01*
X35548Y48507D01*
X35584Y48560D01*
X35596Y48622D01*
X35584Y48684D01*
X35548Y48737D01*
X35496Y48773D01*
X35433Y48785D02*
G37*
G36*
X42520Y49966D02*
X42457Y49954D01*
X42404Y49919D01*
X42369Y49866D01*
X42357Y49803D01*
X42369Y49741D01*
X42404Y49688D01*
X42457Y49652D01*
X42520Y49640D01*
X42582Y49652D01*
X42635Y49688D01*
X42670Y49741D01*
X42683Y49803D01*
X42670Y49866D01*
X42635Y49919D01*
X42582Y49954D01*
X42520Y49966D02*
G37*
G36*
X28800Y50263D02*
X28738Y50251D01*
X28685Y50215D01*
X28649Y50162D01*
X28637Y50100D01*
X28649Y50038D01*
X28685Y49985D01*
X28738Y49949D01*
X28800Y49937D01*
X28862Y49949D01*
X28915Y49985D01*
X28951Y50038D01*
X28963Y50100D01*
X28951Y50162D01*
X28915Y50215D01*
X28862Y50251D01*
X28800Y50263D02*
G37*
G36*
X42126Y49966D02*
X42064Y49954D01*
X42011Y49919D01*
X41975Y49866D01*
X41963Y49803D01*
X41975Y49741D01*
X42011Y49688D01*
X42064Y49652D01*
X42126Y49640D01*
X42188Y49652D01*
X42241Y49688D01*
X42277Y49741D01*
X42289Y49803D01*
X42277Y49866D01*
X42241Y49919D01*
X42188Y49954D01*
X42126Y49966D02*
G37*
G36*
X39764D02*
X39701Y49954D01*
X39648Y49919D01*
X39613Y49866D01*
X39601Y49803D01*
X39613Y49741D01*
X39648Y49688D01*
X39701Y49652D01*
X39764Y49640D01*
X39826Y49652D01*
X39879Y49688D01*
X39915Y49741D01*
X39927Y49803D01*
X39915Y49866D01*
X39879Y49919D01*
X39826Y49954D01*
X39764Y49966D02*
G37*
G36*
X41732D02*
X41670Y49954D01*
X41617Y49919D01*
X41582Y49866D01*
X41569Y49803D01*
X41582Y49741D01*
X41617Y49688D01*
X41670Y49652D01*
X41732Y49640D01*
X41795Y49652D01*
X41848Y49688D01*
X41883Y49741D01*
X41895Y49803D01*
X41883Y49866D01*
X41848Y49919D01*
X41795Y49954D01*
X41732Y49966D02*
G37*
G36*
X41732Y50360D02*
X41670Y50348D01*
X41617Y50312D01*
X41582Y50259D01*
X41569Y50197D01*
X41582Y50134D01*
X41617Y50082D01*
X41670Y50046D01*
X41732Y50034D01*
X41795Y50046D01*
X41848Y50082D01*
X41883Y50134D01*
X41895Y50197D01*
X41883Y50259D01*
X41848Y50312D01*
X41795Y50348D01*
X41732Y50360D02*
G37*
G36*
X44146Y50407D02*
X44083Y50395D01*
X44030Y50359D01*
X43995Y50307D01*
X43983Y50244D01*
X43995Y50182D01*
X44030Y50129D01*
X44083Y50093D01*
X44146Y50081D01*
X44208Y50093D01*
X44261Y50129D01*
X44296Y50182D01*
X44309Y50244D01*
X44296Y50307D01*
X44261Y50359D01*
X44208Y50395D01*
X44146Y50407D02*
G37*
G36*
X36220Y50754D02*
X36158Y50741D01*
X36105Y50706D01*
X36070Y50653D01*
X36057Y50591D01*
X36070Y50528D01*
X36105Y50475D01*
X36158Y50440D01*
X36220Y50427D01*
X36283Y50440D01*
X36336Y50475D01*
X36371Y50528D01*
X36384Y50591D01*
X36371Y50653D01*
X36336Y50706D01*
X36283Y50741D01*
X36220Y50754D02*
G37*
G36*
X36617Y50363D02*
X36555Y50351D01*
X36502Y50315D01*
X36467Y50262D01*
X36454Y50200D01*
X36467Y50138D01*
X36502Y50085D01*
X36555Y50049D01*
X36617Y50037D01*
X36680Y50049D01*
X36733Y50085D01*
X36768Y50138D01*
X36780Y50200D01*
X36768Y50262D01*
X36733Y50315D01*
X36680Y50351D01*
X36617Y50363D02*
G37*
G36*
X42520Y50360D02*
X42457Y50348D01*
X42404Y50312D01*
X42369Y50259D01*
X42357Y50197D01*
X42369Y50134D01*
X42404Y50082D01*
X42457Y50046D01*
X42520Y50034D01*
X42582Y50046D01*
X42635Y50082D01*
X42670Y50134D01*
X42683Y50197D01*
X42670Y50259D01*
X42635Y50312D01*
X42582Y50348D01*
X42520Y50360D02*
G37*
G36*
X36224Y50363D02*
X36161Y50351D01*
X36108Y50315D01*
X36073Y50262D01*
X36060Y50200D01*
X36073Y50138D01*
X36108Y50085D01*
X36161Y50049D01*
X36224Y50037D01*
X36286Y50049D01*
X36339Y50085D01*
X36374Y50138D01*
X36387Y50200D01*
X36374Y50262D01*
X36339Y50315D01*
X36286Y50351D01*
X36224Y50363D02*
G37*
G36*
X29696Y48867D02*
X29633Y48855D01*
X29580Y48820D01*
X29545Y48767D01*
X29533Y48704D01*
X29545Y48642D01*
X29580Y48589D01*
X29633Y48554D01*
X29696Y48541D01*
X29758Y48554D01*
X29811Y48589D01*
X29846Y48642D01*
X29859Y48704D01*
X29846Y48767D01*
X29811Y48820D01*
X29758Y48855D01*
X29696Y48867D02*
G37*
G36*
X35827Y49179D02*
X35764Y49166D01*
X35711Y49131D01*
X35676Y49078D01*
X35664Y49016D01*
X35676Y48953D01*
X35711Y48900D01*
X35764Y48865D01*
X35827Y48853D01*
X35889Y48865D01*
X35942Y48900D01*
X35977Y48953D01*
X35990Y49016D01*
X35977Y49078D01*
X35942Y49131D01*
X35889Y49166D01*
X35827Y49179D02*
G37*
G36*
X28200Y48863D02*
X28138Y48851D01*
X28085Y48815D01*
X28049Y48762D01*
X28037Y48700D01*
X28049Y48638D01*
X28085Y48585D01*
X28138Y48549D01*
X28200Y48537D01*
X28262Y48549D01*
X28315Y48585D01*
X28351Y48638D01*
X28363Y48700D01*
X28351Y48762D01*
X28315Y48815D01*
X28262Y48851D01*
X28200Y48863D02*
G37*
G36*
X44085Y48795D02*
X44022Y48783D01*
X43969Y48747D01*
X43934Y48694D01*
X43921Y48632D01*
X43934Y48569D01*
X43969Y48517D01*
X44022Y48481D01*
X44085Y48469D01*
X44147Y48481D01*
X44200Y48517D01*
X44235Y48569D01*
X44248Y48632D01*
X44235Y48694D01*
X44200Y48747D01*
X44147Y48783D01*
X44085Y48795D02*
G37*
G36*
X27000Y48813D02*
X26938Y48801D01*
X26885Y48765D01*
X26849Y48712D01*
X26837Y48650D01*
X26849Y48588D01*
X26885Y48535D01*
X26938Y48499D01*
X27000Y48487D01*
X27062Y48499D01*
X27115Y48535D01*
X27151Y48588D01*
X27163Y48650D01*
X27151Y48712D01*
X27115Y48765D01*
X27062Y48801D01*
X27000Y48813D02*
G37*
G36*
X43691Y49189D02*
X43629Y49176D01*
X43576Y49141D01*
X43540Y49088D01*
X43528Y49026D01*
X43540Y48963D01*
X43576Y48910D01*
X43629Y48875D01*
X43691Y48862D01*
X43753Y48875D01*
X43806Y48910D01*
X43842Y48963D01*
X43854Y49026D01*
X43842Y49088D01*
X43806Y49141D01*
X43753Y49176D01*
X43691Y49189D02*
G37*
G36*
X39764Y49573D02*
X39701Y49560D01*
X39648Y49525D01*
X39613Y49472D01*
X39601Y49409D01*
X39613Y49347D01*
X39648Y49294D01*
X39701Y49259D01*
X39764Y49246D01*
X39826Y49259D01*
X39879Y49294D01*
X39915Y49347D01*
X39927Y49409D01*
X39915Y49472D01*
X39879Y49525D01*
X39826Y49560D01*
X39764Y49573D02*
G37*
G36*
X36614Y49966D02*
X36552Y49954D01*
X36499Y49918D01*
X36463Y49866D01*
X36451Y49803D01*
X36463Y49741D01*
X36499Y49688D01*
X36552Y49652D01*
X36614Y49640D01*
X36677Y49652D01*
X36730Y49688D01*
X36765Y49741D01*
X36777Y49803D01*
X36765Y49866D01*
X36730Y49918D01*
X36677Y49954D01*
X36614Y49966D02*
G37*
G36*
X42520Y49573D02*
X42457Y49560D01*
X42404Y49525D01*
X42369Y49472D01*
X42357Y49409D01*
X42369Y49347D01*
X42404Y49294D01*
X42457Y49259D01*
X42520Y49246D01*
X42582Y49259D01*
X42635Y49294D01*
X42670Y49347D01*
X42683Y49409D01*
X42670Y49472D01*
X42635Y49525D01*
X42582Y49560D01*
X42520Y49573D02*
G37*
G36*
X35237Y49376D02*
X35175Y49363D01*
X35122Y49328D01*
X35087Y49275D01*
X35074Y49213D01*
X35087Y49150D01*
X35122Y49097D01*
X35175Y49062D01*
X35237Y49049D01*
X35300Y49062D01*
X35353Y49097D01*
X35388Y49150D01*
X35401Y49213D01*
X35388Y49275D01*
X35353Y49328D01*
X35300Y49363D01*
X35237Y49376D02*
G37*
G36*
X42126Y49573D02*
X42064Y49560D01*
X42011Y49525D01*
X41975Y49472D01*
X41963Y49409D01*
X41975Y49347D01*
X42011Y49294D01*
X42064Y49259D01*
X42126Y49246D01*
X42188Y49259D01*
X42241Y49294D01*
X42277Y49347D01*
X42289Y49409D01*
X42277Y49472D01*
X42241Y49525D01*
X42188Y49560D01*
X42126Y49573D02*
G37*
G36*
X42618Y40517D02*
X42556Y40505D01*
X42503Y40470D01*
X42467Y40417D01*
X42455Y40354D01*
X42467Y40292D01*
X42503Y40239D01*
X42556Y40204D01*
X42618Y40191D01*
X42681Y40204D01*
X42733Y40239D01*
X42769Y40292D01*
X42781Y40354D01*
X42769Y40417D01*
X42733Y40470D01*
X42681Y40505D01*
X42618Y40517D02*
G37*
G36*
X41339Y40765D02*
X41257Y40749D01*
X41187Y40703D01*
X41141Y40633D01*
X41124Y40551D01*
X41141Y40469D01*
X41187Y40400D01*
X41257Y40353D01*
X41339Y40337D01*
X41421Y40353D01*
X41490Y40400D01*
X41536Y40469D01*
X41553Y40551D01*
X41536Y40633D01*
X41490Y40703D01*
X41421Y40749D01*
X41339Y40765D02*
G37*
G36*
X26369Y40232D02*
X26306Y40220D01*
X26254Y40184D01*
X26218Y40131D01*
X26206Y40069D01*
X26218Y40006D01*
X26254Y39954D01*
X26306Y39918D01*
X26369Y39906D01*
X26431Y39918D01*
X26484Y39954D01*
X26520Y40006D01*
X26532Y40069D01*
X26520Y40131D01*
X26484Y40184D01*
X26431Y40220D01*
X26369Y40232D02*
G37*
G36*
X37462Y40114D02*
X37380Y40098D01*
X37311Y40051D01*
X37264Y39982D01*
X37248Y39900D01*
X37264Y39818D01*
X37311Y39749D01*
X37380Y39702D01*
X37462Y39686D01*
X37544Y39702D01*
X37614Y39749D01*
X37660Y39818D01*
X37676Y39900D01*
X37660Y39982D01*
X37614Y40051D01*
X37544Y40098D01*
X37462Y40114D02*
G37*
G36*
X28750Y40063D02*
X28688Y40051D01*
X28635Y40015D01*
X28599Y39962D01*
X28587Y39900D01*
X28599Y39838D01*
X28635Y39785D01*
X28688Y39749D01*
X28750Y39737D01*
X28812Y39749D01*
X28865Y39785D01*
X28901Y39838D01*
X28913Y39900D01*
X28901Y39962D01*
X28865Y40015D01*
X28812Y40051D01*
X28750Y40063D02*
G37*
G36*
X29724Y41600D02*
X29662Y41588D01*
X29609Y41552D01*
X29574Y41499D01*
X29561Y41437D01*
X29574Y41375D01*
X29609Y41322D01*
X29662Y41286D01*
X29724Y41274D01*
X29787Y41286D01*
X29840Y41322D01*
X29875Y41375D01*
X29888Y41437D01*
X29875Y41499D01*
X29840Y41552D01*
X29787Y41588D01*
X29724Y41600D02*
G37*
G36*
X39173Y41848D02*
X39091Y41832D01*
X39022Y41785D01*
X38975Y41716D01*
X38959Y41634D01*
X38975Y41552D01*
X39022Y41482D01*
X39091Y41436D01*
X39173Y41420D01*
X39255Y41436D01*
X39325Y41482D01*
X39371Y41552D01*
X39387Y41634D01*
X39371Y41716D01*
X39325Y41785D01*
X39255Y41832D01*
X39173Y41848D02*
G37*
G36*
X28800Y41463D02*
X28738Y41451D01*
X28685Y41415D01*
X28649Y41362D01*
X28637Y41300D01*
X28649Y41238D01*
X28685Y41185D01*
X28738Y41149D01*
X28800Y41137D01*
X28862Y41149D01*
X28915Y41185D01*
X28951Y41238D01*
X28963Y41300D01*
X28951Y41362D01*
X28915Y41415D01*
X28862Y41451D01*
X28800Y41463D02*
G37*
G36*
X34140Y40850D02*
X34058Y40834D01*
X33989Y40788D01*
X33942Y40718D01*
X33926Y40636D01*
X33942Y40554D01*
X33989Y40485D01*
X34058Y40438D01*
X34140Y40422D01*
X34222Y40438D01*
X34292Y40485D01*
X34338Y40554D01*
X34354Y40636D01*
X34338Y40718D01*
X34292Y40788D01*
X34222Y40834D01*
X34140Y40850D02*
G37*
G36*
X33071Y41206D02*
X33008Y41194D01*
X32956Y41159D01*
X32920Y41106D01*
X32908Y41043D01*
X32920Y40981D01*
X32956Y40928D01*
X33008Y40893D01*
X33071Y40880D01*
X33133Y40893D01*
X33186Y40928D01*
X33222Y40981D01*
X33234Y41043D01*
X33222Y41106D01*
X33186Y41159D01*
X33133Y41194D01*
X33071Y41206D02*
G37*
G36*
X31398Y39927D02*
X31335Y39915D01*
X31282Y39879D01*
X31247Y39826D01*
X31235Y39764D01*
X31247Y39701D01*
X31282Y39648D01*
X31335Y39613D01*
X31398Y39601D01*
X31460Y39613D01*
X31513Y39648D01*
X31548Y39701D01*
X31561Y39764D01*
X31548Y39826D01*
X31513Y39879D01*
X31460Y39915D01*
X31398Y39927D02*
G37*
G36*
X33158Y38414D02*
X33076Y38398D01*
X33007Y38351D01*
X32960Y38282D01*
X32944Y38200D01*
X32960Y38118D01*
X33007Y38049D01*
X33076Y38002D01*
X33158Y37986D01*
X33240Y38002D01*
X33310Y38049D01*
X33356Y38118D01*
X33372Y38200D01*
X33356Y38282D01*
X33310Y38351D01*
X33240Y38398D01*
X33158Y38414D02*
G37*
G36*
X36909Y38645D02*
X36828Y38629D01*
X36758Y38582D01*
X36712Y38513D01*
X36695Y38431D01*
X36712Y38349D01*
X36758Y38279D01*
X36828Y38233D01*
X36909Y38217D01*
X36991Y38233D01*
X37061Y38279D01*
X37107Y38349D01*
X37124Y38431D01*
X37107Y38513D01*
X37061Y38582D01*
X36991Y38629D01*
X36909Y38645D02*
G37*
G36*
X29539Y38414D02*
X29457Y38398D01*
X29387Y38351D01*
X29341Y38282D01*
X29324Y38200D01*
X29341Y38118D01*
X29387Y38049D01*
X29457Y38002D01*
X29539Y37986D01*
X29621Y38002D01*
X29690Y38049D01*
X29736Y38118D01*
X29753Y38200D01*
X29736Y38282D01*
X29690Y38351D01*
X29621Y38398D01*
X29539Y38414D02*
G37*
G36*
X36289Y37979D02*
X36207Y37963D01*
X36138Y37917D01*
X36091Y37847D01*
X36075Y37765D01*
X36091Y37683D01*
X36138Y37614D01*
X36207Y37568D01*
X36289Y37551D01*
X36371Y37568D01*
X36440Y37614D01*
X36487Y37683D01*
X36503Y37765D01*
X36487Y37847D01*
X36440Y37917D01*
X36371Y37963D01*
X36289Y37979D02*
G37*
G36*
X39832D02*
X39750Y37963D01*
X39681Y37917D01*
X39634Y37847D01*
X39618Y37765D01*
X39634Y37683D01*
X39681Y37614D01*
X39750Y37568D01*
X39832Y37551D01*
X39914Y37568D01*
X39984Y37614D01*
X40030Y37683D01*
X40046Y37765D01*
X40030Y37847D01*
X39984Y37917D01*
X39914Y37963D01*
X39832Y37979D02*
G37*
G36*
X34140Y39401D02*
X34058Y39384D01*
X33989Y39338D01*
X33942Y39269D01*
X33926Y39187D01*
X33942Y39105D01*
X33989Y39035D01*
X34058Y38989D01*
X34140Y38972D01*
X34222Y38989D01*
X34292Y39035D01*
X34338Y39105D01*
X34354Y39187D01*
X34338Y39269D01*
X34292Y39338D01*
X34222Y39384D01*
X34140Y39401D02*
G37*
G36*
X38350Y40014D02*
X38268Y39998D01*
X38198Y39951D01*
X38152Y39882D01*
X38135Y39800D01*
X38152Y39718D01*
X38198Y39649D01*
X38268Y39602D01*
X38350Y39586D01*
X38432Y39602D01*
X38501Y39649D01*
X38547Y39718D01*
X38564Y39800D01*
X38547Y39882D01*
X38501Y39951D01*
X38432Y39998D01*
X38350Y40014D02*
G37*
G36*
X41660Y39315D02*
X41578Y39299D01*
X41508Y39252D01*
X41462Y39183D01*
X41446Y39101D01*
X41462Y39019D01*
X41508Y38949D01*
X41578Y38903D01*
X41660Y38887D01*
X41742Y38903D01*
X41811Y38949D01*
X41858Y39019D01*
X41874Y39101D01*
X41858Y39183D01*
X41811Y39252D01*
X41742Y39299D01*
X41660Y39315D02*
G37*
G36*
X38647Y38665D02*
X38565Y38648D01*
X38496Y38602D01*
X38449Y38532D01*
X38433Y38450D01*
X38449Y38368D01*
X38496Y38299D01*
X38565Y38253D01*
X38647Y38236D01*
X38729Y38253D01*
X38799Y38299D01*
X38845Y38368D01*
X38861Y38450D01*
X38845Y38532D01*
X38799Y38602D01*
X38729Y38648D01*
X38647Y38665D02*
G37*
G36*
X39140Y38961D02*
X39058Y38944D01*
X38989Y38898D01*
X38942Y38828D01*
X38926Y38746D01*
X38942Y38665D01*
X38989Y38595D01*
X39058Y38549D01*
X39140Y38532D01*
X39222Y38549D01*
X39292Y38595D01*
X39338Y38665D01*
X39354Y38746D01*
X39338Y38828D01*
X39292Y38898D01*
X39222Y38944D01*
X39140Y38961D02*
G37*
G36*
X36726Y41861D02*
X36644Y41845D01*
X36575Y41799D01*
X36528Y41729D01*
X36512Y41647D01*
X36528Y41565D01*
X36575Y41496D01*
X36644Y41449D01*
X36726Y41433D01*
X36808Y41449D01*
X36877Y41496D01*
X36924Y41565D01*
X36940Y41647D01*
X36924Y41729D01*
X36877Y41799D01*
X36808Y41845D01*
X36726Y41861D02*
G37*
G36*
X32700Y44763D02*
X32638Y44751D01*
X32585Y44715D01*
X32549Y44662D01*
X32537Y44600D01*
X32549Y44538D01*
X32585Y44485D01*
X32638Y44449D01*
X32700Y44437D01*
X32762Y44449D01*
X32815Y44485D01*
X32851Y44538D01*
X32863Y44600D01*
X32851Y44662D01*
X32815Y44715D01*
X32762Y44751D01*
X32700Y44763D02*
G37*
G36*
X31300Y44863D02*
X31238Y44851D01*
X31185Y44815D01*
X31149Y44762D01*
X31137Y44700D01*
X31149Y44638D01*
X31185Y44585D01*
X31238Y44549D01*
X31300Y44537D01*
X31362Y44549D01*
X31415Y44585D01*
X31451Y44638D01*
X31463Y44700D01*
X31451Y44762D01*
X31415Y44815D01*
X31362Y44851D01*
X31300Y44863D02*
G37*
G36*
X32548Y44012D02*
X32486Y43999D01*
X32433Y43964D01*
X32398Y43911D01*
X32385Y43848D01*
X32398Y43786D01*
X32433Y43733D01*
X32486Y43698D01*
X32548Y43685D01*
X32611Y43698D01*
X32664Y43733D01*
X32699Y43786D01*
X32712Y43848D01*
X32699Y43911D01*
X32664Y43964D01*
X32611Y43999D01*
X32548Y44012D02*
G37*
G36*
X31350Y43863D02*
X31288Y43851D01*
X31235Y43815D01*
X31199Y43762D01*
X31187Y43700D01*
X31199Y43638D01*
X31235Y43585D01*
X31288Y43549D01*
X31350Y43537D01*
X31412Y43549D01*
X31465Y43585D01*
X31501Y43638D01*
X31513Y43700D01*
X31501Y43762D01*
X31465Y43815D01*
X31412Y43851D01*
X31350Y43863D02*
G37*
G36*
X25049Y44012D02*
X24987Y43999D01*
X24934Y43964D01*
X24898Y43911D01*
X24886Y43848D01*
X24898Y43786D01*
X24934Y43733D01*
X24987Y43698D01*
X25049Y43685D01*
X25112Y43698D01*
X25165Y43733D01*
X25200Y43786D01*
X25212Y43848D01*
X25200Y43911D01*
X25165Y43964D01*
X25112Y43999D01*
X25049Y44012D02*
G37*
G36*
X26870Y45340D02*
X26808Y45328D01*
X26755Y45293D01*
X26719Y45240D01*
X26707Y45177D01*
X26719Y45115D01*
X26755Y45062D01*
X26808Y45026D01*
X26870Y45014D01*
X26933Y45026D01*
X26958Y45044D01*
X27008Y45010D01*
X27002Y44980D01*
X27015Y44918D01*
X27050Y44865D01*
X27103Y44830D01*
X27165Y44817D01*
X27228Y44830D01*
X27281Y44865D01*
X27316Y44918D01*
X27328Y44980D01*
X27316Y45043D01*
X27281Y45096D01*
X27228Y45131D01*
X27165Y45143D01*
X27103Y45131D01*
X27077Y45114D01*
X27027Y45147D01*
X27033Y45177D01*
X27021Y45240D01*
X26985Y45293D01*
X26933Y45328D01*
X26870Y45340D02*
G37*
G36*
X31416Y45547D02*
X31354Y45535D01*
X31301Y45499D01*
X31265Y45446D01*
X31253Y45384D01*
X31265Y45321D01*
X31301Y45269D01*
X31354Y45233D01*
X31416Y45221D01*
X31479Y45233D01*
X31531Y45269D01*
X31567Y45321D01*
X31579Y45384D01*
X31567Y45446D01*
X31531Y45499D01*
X31479Y45535D01*
X31416Y45547D02*
G37*
G36*
X24900Y45063D02*
X24838Y45051D01*
X24785Y45015D01*
X24749Y44962D01*
X24737Y44900D01*
X24749Y44838D01*
X24785Y44785D01*
X24838Y44749D01*
X24900Y44737D01*
X24962Y44749D01*
X25015Y44785D01*
X25051Y44838D01*
X25063Y44900D01*
X25051Y44962D01*
X25015Y45015D01*
X24962Y45051D01*
X24900Y45063D02*
G37*
G36*
X35531Y45096D02*
X35450Y45080D01*
X35380Y45033D01*
X35334Y44964D01*
X35317Y44882D01*
X35334Y44800D01*
X35380Y44730D01*
X35450Y44684D01*
X35531Y44668D01*
X35613Y44684D01*
X35683Y44730D01*
X35729Y44800D01*
X35746Y44882D01*
X35729Y44964D01*
X35683Y45033D01*
X35613Y45080D01*
X35531Y45096D02*
G37*
G36*
X26300Y45013D02*
X26238Y45001D01*
X26185Y44965D01*
X26149Y44912D01*
X26137Y44850D01*
X26149Y44788D01*
X26185Y44735D01*
X26238Y44699D01*
X26300Y44687D01*
X26362Y44699D01*
X26415Y44735D01*
X26451Y44788D01*
X26463Y44850D01*
X26451Y44912D01*
X26415Y44965D01*
X26362Y45001D01*
X26300Y45013D02*
G37*
G36*
X36545Y43500D02*
X36483Y43487D01*
X36430Y43452D01*
X36395Y43399D01*
X36382Y43337D01*
X36395Y43274D01*
X36430Y43221D01*
X36483Y43186D01*
X36545Y43173D01*
X36608Y43186D01*
X36661Y43221D01*
X36696Y43274D01*
X36708Y43337D01*
X36696Y43399D01*
X36661Y43452D01*
X36608Y43487D01*
X36545Y43500D02*
G37*
G36*
X31250Y42363D02*
X31188Y42351D01*
X31135Y42315D01*
X31099Y42262D01*
X31087Y42200D01*
X31099Y42138D01*
X31135Y42085D01*
X31188Y42049D01*
X31250Y42037D01*
X31312Y42049D01*
X31365Y42085D01*
X31401Y42138D01*
X31413Y42200D01*
X31401Y42262D01*
X31365Y42315D01*
X31312Y42351D01*
X31250Y42363D02*
G37*
G36*
X24850Y42413D02*
X24788Y42401D01*
X24735Y42365D01*
X24699Y42312D01*
X24687Y42250D01*
X24699Y42188D01*
X24735Y42135D01*
X24788Y42099D01*
X24850Y42087D01*
X24912Y42099D01*
X24965Y42135D01*
X25001Y42188D01*
X25013Y42250D01*
X25001Y42312D01*
X24965Y42365D01*
X24912Y42401D01*
X24850Y42413D02*
G37*
G36*
X26300Y42363D02*
X26238Y42351D01*
X26185Y42315D01*
X26149Y42262D01*
X26137Y42200D01*
X26149Y42138D01*
X26185Y42085D01*
X26238Y42049D01*
X26300Y42037D01*
X26362Y42049D01*
X26415Y42085D01*
X26451Y42138D01*
X26463Y42200D01*
X26451Y42262D01*
X26415Y42315D01*
X26362Y42351D01*
X26300Y42363D02*
G37*
G36*
X30906Y41895D02*
X30843Y41883D01*
X30790Y41848D01*
X30755Y41795D01*
X30742Y41732D01*
X30755Y41670D01*
X30790Y41617D01*
X30843Y41582D01*
X30906Y41569D01*
X30968Y41582D01*
X31021Y41617D01*
X31056Y41670D01*
X31069Y41732D01*
X31056Y41795D01*
X31021Y41848D01*
X30968Y41883D01*
X30906Y41895D02*
G37*
G36*
X27393Y42160D02*
X27330Y42148D01*
X27277Y42113D01*
X27242Y42060D01*
X27229Y41997D01*
X27242Y41935D01*
X27277Y41882D01*
X27330Y41847D01*
X27393Y41834D01*
X27455Y41847D01*
X27508Y41882D01*
X27543Y41935D01*
X27556Y41997D01*
X27543Y42060D01*
X27508Y42113D01*
X27455Y42148D01*
X27393Y42160D02*
G37*
G36*
X26143Y43756D02*
X26080Y43743D01*
X26027Y43708D01*
X25992Y43655D01*
X25979Y43593D01*
X25992Y43530D01*
X26027Y43477D01*
X26080Y43442D01*
X26143Y43429D01*
X26161Y43402D01*
X26158Y43399D01*
X26146Y43337D01*
X26158Y43274D01*
X26194Y43221D01*
X26247Y43186D01*
X26309Y43173D01*
X26340Y43180D01*
X26381Y43152D01*
X26394Y43139D01*
X26382Y43081D01*
X26395Y43018D01*
X26430Y42965D01*
X26483Y42930D01*
X26545Y42918D01*
X26608Y42930D01*
X26661Y42965D01*
X26696Y43018D01*
X26708Y43081D01*
X26696Y43143D01*
X26661Y43196D01*
X26608Y43231D01*
X26545Y43244D01*
X26514Y43238D01*
X26473Y43265D01*
X26460Y43278D01*
X26472Y43337D01*
X26460Y43399D01*
X26424Y43452D01*
X26371Y43487D01*
X26309Y43500D01*
X26291Y43527D01*
X26293Y43530D01*
X26306Y43593D01*
X26293Y43655D01*
X26258Y43708D01*
X26205Y43743D01*
X26143Y43756D02*
G37*
G36*
X35502Y43244D02*
X35440Y43231D01*
X35387Y43196D01*
X35351Y43143D01*
X35339Y43081D01*
X35351Y43018D01*
X35387Y42965D01*
X35440Y42930D01*
X35502Y42918D01*
X35564Y42930D01*
X35617Y42965D01*
X35653Y43018D01*
X35665Y43081D01*
X35653Y43143D01*
X35617Y43196D01*
X35564Y43231D01*
X35502Y43244D02*
G37*
G36*
X29952Y43008D02*
X29889Y42996D01*
X29836Y42961D01*
X29801Y42908D01*
X29788Y42845D01*
X29801Y42783D01*
X29836Y42730D01*
X29889Y42695D01*
X29952Y42682D01*
X30014Y42695D01*
X30067Y42730D01*
X30102Y42783D01*
X30115Y42845D01*
X30102Y42908D01*
X30067Y42961D01*
X30014Y42996D01*
X29952Y43008D02*
G37*
G36*
X32700Y42413D02*
X32638Y42401D01*
X32585Y42365D01*
X32549Y42312D01*
X32537Y42250D01*
X32549Y42188D01*
X32585Y42135D01*
X32638Y42099D01*
X32700Y42087D01*
X32762Y42099D01*
X32815Y42135D01*
X32851Y42188D01*
X32863Y42250D01*
X32851Y42312D01*
X32815Y42365D01*
X32762Y42401D01*
X32700Y42413D02*
G37*
G36*
X26175Y42988D02*
X26112Y42976D01*
X26059Y42940D01*
X26024Y42887D01*
X26012Y42825D01*
X26024Y42762D01*
X26059Y42709D01*
X26112Y42674D01*
X26175Y42662D01*
X26237Y42674D01*
X26290Y42709D01*
X26326Y42762D01*
X26338Y42825D01*
X26326Y42887D01*
X26290Y42940D01*
X26237Y42976D01*
X26175Y42988D02*
G37*
G36*
X39370Y55084D02*
X39308Y55072D01*
X39255Y55037D01*
X39219Y54984D01*
X39207Y54921D01*
X39219Y54859D01*
X39255Y54806D01*
X39308Y54771D01*
X39370Y54758D01*
X39433Y54771D01*
X39485Y54806D01*
X39521Y54859D01*
X39533Y54921D01*
X39521Y54984D01*
X39485Y55037D01*
X39433Y55072D01*
X39370Y55084D02*
G37*
G36*
X40157D02*
X40095Y55072D01*
X40042Y55037D01*
X40007Y54984D01*
X39994Y54921D01*
X40007Y54859D01*
X40042Y54806D01*
X40095Y54771D01*
X40157Y54758D01*
X40220Y54771D01*
X40273Y54806D01*
X40308Y54859D01*
X40321Y54921D01*
X40308Y54984D01*
X40273Y55037D01*
X40220Y55072D01*
X40157Y55084D02*
G37*
G36*
X38976D02*
X38914Y55072D01*
X38861Y55037D01*
X38826Y54984D01*
X38813Y54921D01*
X38826Y54859D01*
X38861Y54806D01*
X38914Y54771D01*
X38976Y54758D01*
X39039Y54771D01*
X39092Y54806D01*
X39127Y54859D01*
X39140Y54921D01*
X39127Y54984D01*
X39092Y55037D01*
X39039Y55072D01*
X38976Y55084D02*
G37*
G36*
X38199Y55468D02*
X38136Y55456D01*
X38083Y55420D01*
X38048Y55368D01*
X38036Y55305D01*
X38048Y55243D01*
X38083Y55190D01*
X38136Y55154D01*
X38188Y55144D01*
Y55142D01*
X38188D01*
Y55084D01*
X38127Y55072D01*
X38074Y55037D01*
X38038Y54984D01*
X38026Y54921D01*
X38038Y54859D01*
X38074Y54806D01*
X38127Y54771D01*
X38189Y54758D01*
X38251Y54771D01*
X38304Y54806D01*
X38340Y54859D01*
X38352Y54921D01*
X38340Y54984D01*
X38304Y55037D01*
X38251Y55072D01*
X38200Y55082D01*
Y55084D01*
X38200D01*
Y55142D01*
X38261Y55154D01*
X38314Y55190D01*
X38350Y55243D01*
X38362Y55305D01*
X38350Y55368D01*
X38314Y55420D01*
X38261Y55456D01*
X38199Y55468D02*
G37*
G36*
X38583Y55084D02*
X38520Y55072D01*
X38467Y55037D01*
X38432Y54984D01*
X38420Y54921D01*
X38432Y54859D01*
X38467Y54806D01*
X38520Y54771D01*
X38583Y54758D01*
X38645Y54771D01*
X38698Y54806D01*
X38733Y54859D01*
X38746Y54921D01*
X38733Y54984D01*
X38698Y55037D01*
X38645Y55072D01*
X38583Y55084D02*
G37*
G36*
X40551D02*
X40489Y55072D01*
X40436Y55037D01*
X40400Y54984D01*
X40388Y54921D01*
X40400Y54859D01*
X40436Y54806D01*
X40489Y54771D01*
X40551Y54758D01*
X40614Y54771D01*
X40667Y54806D01*
X40702Y54859D01*
X40714Y54921D01*
X40702Y54984D01*
X40667Y55037D01*
X40614Y55072D01*
X40551Y55084D02*
G37*
G36*
X35335Y55281D02*
X35272Y55269D01*
X35219Y55233D01*
X35184Y55181D01*
X35172Y55118D01*
X35184Y55056D01*
X35219Y55003D01*
X35272Y54967D01*
X35335Y54955D01*
X35397Y54967D01*
X35450Y55003D01*
X35485Y55056D01*
X35498Y55118D01*
X35485Y55181D01*
X35450Y55233D01*
X35397Y55269D01*
X35335Y55281D02*
G37*
G36*
X31890Y56021D02*
X31808Y56005D01*
X31738Y55958D01*
X31692Y55889D01*
X31676Y55807D01*
X31692Y55725D01*
X31738Y55656D01*
X31808Y55609D01*
X31890Y55593D01*
X31972Y55609D01*
X32041Y55656D01*
X32088Y55725D01*
X32104Y55807D01*
X32088Y55889D01*
X32041Y55958D01*
X31972Y56005D01*
X31890Y56021D02*
G37*
G36*
X43307Y55084D02*
X43245Y55072D01*
X43192Y55037D01*
X43156Y54984D01*
X43144Y54921D01*
X43156Y54859D01*
X43192Y54806D01*
X43245Y54771D01*
X43307Y54758D01*
X43370Y54771D01*
X43422Y54806D01*
X43458Y54859D01*
X43470Y54921D01*
X43458Y54984D01*
X43422Y55037D01*
X43370Y55072D01*
X43307Y55084D02*
G37*
G36*
X40945D02*
X40882Y55072D01*
X40830Y55037D01*
X40794Y54984D01*
X40782Y54921D01*
X40794Y54859D01*
X40830Y54806D01*
X40882Y54771D01*
X40945Y54758D01*
X41007Y54771D01*
X41060Y54806D01*
X41096Y54859D01*
X41108Y54921D01*
X41096Y54984D01*
X41060Y55037D01*
X41007Y55072D01*
X40945Y55084D02*
G37*
G36*
X41732D02*
X41670Y55072D01*
X41617Y55037D01*
X41582Y54984D01*
X41569Y54921D01*
X41582Y54859D01*
X41617Y54806D01*
X41670Y54771D01*
X41732Y54758D01*
X41795Y54771D01*
X41848Y54806D01*
X41883Y54859D01*
X41895Y54921D01*
X41883Y54984D01*
X41848Y55037D01*
X41795Y55072D01*
X41732Y55084D02*
G37*
G36*
X40945Y54317D02*
X40875Y54303D01*
X40815Y54264D01*
X40778Y54208D01*
X40718D01*
X40681Y54264D01*
X40621Y54303D01*
X40551Y54317D01*
X40481Y54303D01*
X40421Y54264D01*
X40384Y54208D01*
X40324D01*
X40287Y54264D01*
X40228Y54303D01*
X40157Y54317D01*
X40087Y54303D01*
X40028Y54264D01*
X39991Y54208D01*
X39931D01*
X39894Y54264D01*
X39834Y54303D01*
X39764Y54317D01*
X39694Y54303D01*
X39634Y54264D01*
X39597Y54208D01*
X39537D01*
X39500Y54264D01*
X39440Y54303D01*
X39370Y54317D01*
X39300Y54303D01*
X39240Y54264D01*
X39203Y54208D01*
X39143D01*
X39106Y54264D01*
X39047Y54303D01*
X38976Y54317D01*
X38906Y54303D01*
X38847Y54264D01*
X38810Y54208D01*
X38750D01*
X38713Y54264D01*
X38653Y54303D01*
X38583Y54317D01*
X38512Y54303D01*
X38453Y54264D01*
X38413Y54204D01*
X38399Y54134D01*
X38413Y54064D01*
X38453Y54004D01*
X38508Y53967D01*
Y53907D01*
X38453Y53870D01*
X38413Y53810D01*
X38399Y53740D01*
X38413Y53670D01*
X38453Y53610D01*
X38508Y53573D01*
Y53513D01*
X38453Y53476D01*
X38413Y53417D01*
X38399Y53346D01*
X38413Y53276D01*
X38453Y53217D01*
X38508Y53180D01*
Y53120D01*
X38453Y53083D01*
X38413Y53023D01*
X38399Y52953D01*
X38413Y52882D01*
X38453Y52823D01*
X38508Y52786D01*
Y52726D01*
X38453Y52689D01*
X38413Y52629D01*
X38399Y52559D01*
X38413Y52489D01*
X38453Y52429D01*
X38508Y52392D01*
Y52332D01*
X38453Y52295D01*
X38413Y52236D01*
X38399Y52165D01*
X38413Y52095D01*
X38453Y52036D01*
X38508Y51999D01*
Y51939D01*
X38453Y51901D01*
X38413Y51842D01*
X38399Y51772D01*
X38413Y51701D01*
X38453Y51642D01*
X38512Y51602D01*
X38583Y51588D01*
X38653Y51602D01*
X38713Y51642D01*
X38750Y51697D01*
X38810D01*
X38847Y51642D01*
X38906Y51602D01*
X38976Y51588D01*
X39047Y51602D01*
X39106Y51642D01*
X39143Y51697D01*
X39203D01*
X39240Y51642D01*
X39300Y51602D01*
X39370Y51588D01*
X39440Y51602D01*
X39500Y51642D01*
X39537Y51697D01*
X39597D01*
X39634Y51642D01*
X39694Y51602D01*
X39764Y51588D01*
X39834Y51602D01*
X39894Y51642D01*
X39931Y51697D01*
X39991D01*
X40028Y51642D01*
X40087Y51602D01*
X40157Y51588D01*
X40228Y51602D01*
X40287Y51642D01*
X40324Y51697D01*
X40384D01*
X40421Y51642D01*
X40481Y51602D01*
X40551Y51588D01*
X40621Y51602D01*
X40681Y51642D01*
X40718Y51697D01*
X40778D01*
X40815Y51642D01*
X40875Y51602D01*
X40945Y51588D01*
X41015Y51602D01*
X41075Y51642D01*
X41115Y51701D01*
X41128Y51772D01*
X41115Y51842D01*
X41075Y51901D01*
X41019Y51939D01*
Y51999D01*
X41075Y52036D01*
X41115Y52095D01*
X41128Y52165D01*
X41115Y52236D01*
X41075Y52295D01*
X41019Y52332D01*
Y52392D01*
X41075Y52429D01*
X41115Y52489D01*
X41128Y52559D01*
X41115Y52629D01*
X41075Y52689D01*
X41019Y52726D01*
Y52786D01*
X41075Y52823D01*
X41115Y52882D01*
X41128Y52953D01*
X41115Y53023D01*
X41075Y53083D01*
X41019Y53120D01*
Y53180D01*
X41075Y53217D01*
X41115Y53276D01*
X41128Y53346D01*
X41115Y53417D01*
X41075Y53476D01*
X41019Y53513D01*
Y53573D01*
X41075Y53610D01*
X41115Y53670D01*
X41128Y53740D01*
X41115Y53810D01*
X41075Y53870D01*
X41019Y53907D01*
Y53967D01*
X41075Y54004D01*
X41115Y54064D01*
X41128Y54134D01*
X41115Y54204D01*
X41075Y54264D01*
X41015Y54303D01*
X40945Y54317D02*
G37*
G36*
X37402Y54691D02*
X37339Y54678D01*
X37286Y54643D01*
X37251Y54590D01*
X37238Y54528D01*
X37251Y54465D01*
X37286Y54412D01*
X37339Y54377D01*
X37402Y54364D01*
X37464Y54377D01*
X37517Y54412D01*
X37552Y54465D01*
X37565Y54528D01*
X37552Y54590D01*
X37517Y54643D01*
X37464Y54678D01*
X37402Y54691D02*
G37*
G36*
X43307Y54297D02*
X43245Y54285D01*
X43192Y54249D01*
X43156Y54196D01*
X43144Y54134D01*
X43156Y54071D01*
X43192Y54019D01*
X43245Y53983D01*
X43307Y53971D01*
X43370Y53983D01*
X43422Y54019D01*
X43458Y54071D01*
X43470Y54134D01*
X43458Y54196D01*
X43422Y54249D01*
X43370Y54285D01*
X43307Y54297D02*
G37*
G36*
X41732D02*
X41670Y54285D01*
X41617Y54249D01*
X41582Y54196D01*
X41569Y54134D01*
X41582Y54071D01*
X41617Y54019D01*
X41670Y53983D01*
X41732Y53971D01*
X41795Y53983D01*
X41848Y54019D01*
X41883Y54071D01*
X41895Y54134D01*
X41883Y54196D01*
X41848Y54249D01*
X41795Y54285D01*
X41732Y54297D02*
G37*
G36*
X42913D02*
X42851Y54285D01*
X42798Y54249D01*
X42763Y54196D01*
X42750Y54134D01*
X42763Y54071D01*
X42798Y54019D01*
X42851Y53983D01*
X42913Y53971D01*
X42976Y53983D01*
X43029Y54019D01*
X43064Y54071D01*
X43077Y54134D01*
X43064Y54196D01*
X43029Y54249D01*
X42976Y54285D01*
X42913Y54297D02*
G37*
G36*
X37795Y54691D02*
X37733Y54678D01*
X37680Y54643D01*
X37645Y54590D01*
X37632Y54528D01*
X37645Y54465D01*
X37680Y54412D01*
X37733Y54377D01*
X37795Y54364D01*
X37858Y54377D01*
X37911Y54412D01*
X37946Y54465D01*
X37958Y54528D01*
X37946Y54590D01*
X37911Y54643D01*
X37858Y54678D01*
X37795Y54691D02*
G37*
G36*
X43307D02*
X43245Y54678D01*
X43192Y54643D01*
X43156Y54590D01*
X43144Y54528D01*
X43156Y54465D01*
X43192Y54412D01*
X43245Y54377D01*
X43307Y54364D01*
X43370Y54377D01*
X43422Y54412D01*
X43458Y54465D01*
X43470Y54528D01*
X43458Y54590D01*
X43422Y54643D01*
X43370Y54678D01*
X43307Y54691D02*
G37*
G36*
X37795Y55084D02*
X37733Y55072D01*
X37680Y55037D01*
X37645Y54984D01*
X37632Y54921D01*
X37645Y54859D01*
X37680Y54806D01*
X37733Y54771D01*
X37795Y54758D01*
X37858Y54771D01*
X37911Y54806D01*
X37946Y54859D01*
X37958Y54921D01*
X37946Y54984D01*
X37911Y55037D01*
X37858Y55072D01*
X37795Y55084D02*
G37*
G36*
X42913Y54691D02*
X42851Y54678D01*
X42798Y54643D01*
X42763Y54590D01*
X42750Y54528D01*
X42763Y54465D01*
X42798Y54412D01*
X42851Y54377D01*
X42913Y54364D01*
X42976Y54377D01*
X43029Y54412D01*
X43064Y54465D01*
X43077Y54528D01*
X43064Y54590D01*
X43029Y54643D01*
X42976Y54678D01*
X42913Y54691D02*
G37*
G36*
X41732D02*
X41670Y54678D01*
X41617Y54643D01*
X41582Y54590D01*
X41569Y54528D01*
X41582Y54465D01*
X41617Y54412D01*
X41670Y54377D01*
X41732Y54364D01*
X41795Y54377D01*
X41848Y54412D01*
X41883Y54465D01*
X41895Y54528D01*
X41883Y54590D01*
X41848Y54643D01*
X41795Y54678D01*
X41732Y54691D02*
G37*
G36*
X42126D02*
X42064Y54678D01*
X42011Y54643D01*
X41975Y54590D01*
X41963Y54528D01*
X41975Y54465D01*
X42011Y54412D01*
X42064Y54377D01*
X42126Y54364D01*
X42188Y54377D01*
X42241Y54412D01*
X42277Y54465D01*
X42289Y54528D01*
X42277Y54590D01*
X42241Y54643D01*
X42188Y54678D01*
X42126Y54691D02*
G37*
G36*
X33456Y56030D02*
X33374Y56014D01*
X33305Y55967D01*
X33258Y55898D01*
X33242Y55816D01*
X33258Y55734D01*
X33305Y55664D01*
X33374Y55618D01*
X33456Y55602D01*
X33538Y55618D01*
X33607Y55664D01*
X33654Y55734D01*
X33670Y55816D01*
X33654Y55898D01*
X33607Y55967D01*
X33538Y56014D01*
X33456Y56030D02*
G37*
G36*
X35827Y57053D02*
X35764Y57040D01*
X35711Y57005D01*
X35676Y56952D01*
X35664Y56890D01*
X35676Y56827D01*
X35711Y56774D01*
X35764Y56739D01*
X35827Y56727D01*
X35889Y56739D01*
X35942Y56774D01*
X35977Y56827D01*
X35990Y56890D01*
X35977Y56952D01*
X35942Y57005D01*
X35889Y57040D01*
X35827Y57053D02*
G37*
G36*
X39764D02*
X39701Y57040D01*
X39648Y57005D01*
X39613Y56952D01*
X39601Y56890D01*
X39613Y56827D01*
X39648Y56774D01*
X39701Y56739D01*
X39764Y56727D01*
X39826Y56739D01*
X39879Y56774D01*
X39915Y56827D01*
X39927Y56890D01*
X39915Y56952D01*
X39879Y57005D01*
X39826Y57040D01*
X39764Y57053D02*
G37*
G36*
X43701Y57053D02*
X43638Y57040D01*
X43585Y57005D01*
X43550Y56952D01*
X43538Y56890D01*
X43550Y56827D01*
X43585Y56774D01*
X43638Y56739D01*
X43701Y56727D01*
X43763Y56739D01*
X43816Y56774D01*
X43851Y56827D01*
X43864Y56890D01*
X43851Y56952D01*
X43816Y57005D01*
X43763Y57040D01*
X43701Y57053D02*
G37*
G36*
X40551Y56659D02*
X40489Y56647D01*
X40436Y56611D01*
X40400Y56558D01*
X40388Y56496D01*
X40400Y56434D01*
X40436Y56381D01*
X40489Y56345D01*
X40551Y56333D01*
X40614Y56345D01*
X40667Y56381D01*
X40702Y56434D01*
X40714Y56496D01*
X40702Y56558D01*
X40667Y56611D01*
X40614Y56647D01*
X40551Y56659D02*
G37*
G36*
X35236Y56856D02*
X35174Y56844D01*
X35121Y56808D01*
X35085Y56755D01*
X35073Y56693D01*
X35085Y56630D01*
X35121Y56578D01*
X35174Y56542D01*
X35236Y56530D01*
X35299Y56542D01*
X35352Y56578D01*
X35387Y56630D01*
X35399Y56693D01*
X35387Y56755D01*
X35352Y56808D01*
X35299Y56844D01*
X35236Y56856D02*
G37*
G36*
X35433Y57447D02*
X35371Y57434D01*
X35318Y57399D01*
X35282Y57346D01*
X35270Y57283D01*
X35282Y57221D01*
X35318Y57168D01*
X35371Y57133D01*
X35433Y57120D01*
X35496Y57133D01*
X35548Y57168D01*
X35584Y57221D01*
X35596Y57283D01*
X35584Y57346D01*
X35548Y57399D01*
X35496Y57434D01*
X35433Y57447D02*
G37*
G36*
X31890Y57990D02*
X31808Y57973D01*
X31738Y57927D01*
X31692Y57858D01*
X31676Y57776D01*
X31692Y57694D01*
X31738Y57624D01*
X31808Y57578D01*
X31890Y57561D01*
X31972Y57578D01*
X32041Y57624D01*
X32088Y57694D01*
X32104Y57776D01*
X32088Y57858D01*
X32041Y57927D01*
X31972Y57973D01*
X31890Y57990D02*
G37*
G36*
X41535Y58923D02*
X41473Y58911D01*
X41420Y58875D01*
X41385Y58822D01*
X41372Y58760D01*
X41385Y58697D01*
X41420Y58644D01*
X41473Y58609D01*
X41535Y58597D01*
X41598Y58609D01*
X41651Y58644D01*
X41686Y58697D01*
X41699Y58760D01*
X41686Y58822D01*
X41651Y58875D01*
X41598Y58911D01*
X41535Y58923D02*
G37*
G36*
X37500Y57643D02*
X37438Y57631D01*
X37385Y57596D01*
X37349Y57543D01*
X37337Y57480D01*
X37349Y57418D01*
X37385Y57365D01*
X37438Y57330D01*
X37500Y57317D01*
X37562Y57330D01*
X37615Y57365D01*
X37651Y57418D01*
X37663Y57480D01*
X37651Y57543D01*
X37615Y57596D01*
X37562Y57631D01*
X37500Y57643D02*
G37*
G36*
X44144Y57496D02*
X44081Y57483D01*
X44028Y57448D01*
X43993Y57395D01*
X43981Y57333D01*
X43993Y57270D01*
X44028Y57217D01*
X44081Y57182D01*
X44144Y57170D01*
X44206Y57182D01*
X44259Y57217D01*
X44294Y57270D01*
X44307Y57333D01*
X44294Y57395D01*
X44259Y57448D01*
X44206Y57483D01*
X44144Y57496D02*
G37*
G36*
X36201Y57714D02*
X36119Y57698D01*
X36049Y57651D01*
X36003Y57582D01*
X35987Y57500D01*
X36003Y57418D01*
X36049Y57349D01*
X36119Y57302D01*
X36201Y57286D01*
X36283Y57302D01*
X36352Y57349D01*
X36399Y57418D01*
X36415Y57500D01*
X36399Y57582D01*
X36352Y57651D01*
X36283Y57698D01*
X36201Y57714D02*
G37*
G36*
X42913Y56266D02*
X42851Y56253D01*
X42798Y56218D01*
X42763Y56165D01*
X42750Y56102D01*
X42763Y56040D01*
X42798Y55987D01*
X42851Y55952D01*
X42913Y55939D01*
X42976Y55952D01*
X43029Y55987D01*
X43064Y56040D01*
X43077Y56102D01*
X43064Y56165D01*
X43029Y56218D01*
X42976Y56253D01*
X42913Y56266D02*
G37*
G36*
X43307D02*
X43245Y56253D01*
X43192Y56218D01*
X43156Y56165D01*
X43144Y56102D01*
X43156Y56040D01*
X43192Y55987D01*
X43245Y55952D01*
X43307Y55939D01*
X43370Y55952D01*
X43422Y55987D01*
X43458Y56040D01*
X43470Y56102D01*
X43458Y56165D01*
X43422Y56218D01*
X43370Y56253D01*
X43307Y56266D02*
G37*
G36*
X40551D02*
X40489Y56253D01*
X40436Y56218D01*
X40400Y56165D01*
X40388Y56102D01*
X40400Y56040D01*
X40436Y55987D01*
X40489Y55952D01*
X40551Y55939D01*
X40614Y55952D01*
X40667Y55987D01*
X40702Y56040D01*
X40714Y56102D01*
X40702Y56165D01*
X40667Y56218D01*
X40614Y56253D01*
X40551Y56266D02*
G37*
G36*
X34598Y56170D02*
X34516Y56154D01*
X34446Y56107D01*
X34400Y56038D01*
X34384Y55956D01*
X34400Y55874D01*
X34446Y55805D01*
X34516Y55758D01*
X34598Y55742D01*
X34680Y55758D01*
X34749Y55805D01*
X34795Y55874D01*
X34812Y55956D01*
X34795Y56038D01*
X34749Y56107D01*
X34680Y56154D01*
X34598Y56170D02*
G37*
G36*
X40157Y56266D02*
X40095Y56253D01*
X40042Y56218D01*
X40007Y56165D01*
X39994Y56102D01*
X40007Y56040D01*
X40042Y55987D01*
X40095Y55952D01*
X40157Y55939D01*
X40220Y55952D01*
X40273Y55987D01*
X40308Y56040D01*
X40321Y56102D01*
X40308Y56165D01*
X40273Y56218D01*
X40220Y56253D01*
X40157Y56266D02*
G37*
G36*
X42520Y56659D02*
X42457Y56647D01*
X42404Y56611D01*
X42369Y56558D01*
X42357Y56496D01*
X42369Y56434D01*
X42404Y56381D01*
X42457Y56345D01*
X42520Y56333D01*
X42582Y56345D01*
X42635Y56381D01*
X42670Y56434D01*
X42683Y56496D01*
X42670Y56558D01*
X42635Y56611D01*
X42582Y56647D01*
X42520Y56659D02*
G37*
G36*
X39370Y56659D02*
X39308Y56647D01*
X39255Y56611D01*
X39219Y56558D01*
X39207Y56496D01*
X39219Y56434D01*
X39255Y56381D01*
X39308Y56345D01*
X39370Y56333D01*
X39433Y56345D01*
X39485Y56381D01*
X39521Y56434D01*
X39533Y56496D01*
X39521Y56558D01*
X39485Y56611D01*
X39433Y56647D01*
X39370Y56659D02*
G37*
G36*
X40157D02*
X40095Y56647D01*
X40042Y56611D01*
X40007Y56558D01*
X39994Y56496D01*
X40007Y56434D01*
X40042Y56381D01*
X40095Y56345D01*
X40157Y56333D01*
X40220Y56345D01*
X40273Y56381D01*
X40308Y56434D01*
X40321Y56496D01*
X40308Y56558D01*
X40273Y56611D01*
X40220Y56647D01*
X40157Y56659D02*
G37*
G36*
X38976D02*
X38914Y56647D01*
X38861Y56611D01*
X38826Y56558D01*
X38813Y56496D01*
X38826Y56434D01*
X38861Y56381D01*
X38914Y56345D01*
X38976Y56333D01*
X39039Y56345D01*
X39092Y56381D01*
X39127Y56434D01*
X39140Y56496D01*
X39127Y56558D01*
X39092Y56611D01*
X39039Y56647D01*
X38976Y56659D02*
G37*
G36*
X38189D02*
X38127Y56647D01*
X38074Y56611D01*
X38038Y56558D01*
X38026Y56496D01*
X38038Y56434D01*
X38074Y56381D01*
X38127Y56345D01*
X38189Y56333D01*
X38251Y56345D01*
X38304Y56381D01*
X38340Y56434D01*
X38352Y56496D01*
X38340Y56558D01*
X38304Y56611D01*
X38251Y56647D01*
X38189Y56659D02*
G37*
G36*
X38583D02*
X38520Y56647D01*
X38467Y56611D01*
X38432Y56558D01*
X38420Y56496D01*
X38432Y56434D01*
X38467Y56381D01*
X38520Y56345D01*
X38583Y56333D01*
X38645Y56345D01*
X38698Y56381D01*
X38733Y56434D01*
X38746Y56496D01*
X38733Y56558D01*
X38698Y56611D01*
X38645Y56647D01*
X38583Y56659D02*
G37*
G36*
X40945Y51147D02*
X40882Y51135D01*
X40830Y51100D01*
X40794Y51047D01*
X40782Y50984D01*
X40794Y50922D01*
X40830Y50869D01*
X40882Y50834D01*
X40945Y50821D01*
X41007Y50834D01*
X41060Y50869D01*
X41096Y50922D01*
X41108Y50984D01*
X41096Y51047D01*
X41060Y51100D01*
X41007Y51135D01*
X40945Y51147D02*
G37*
G36*
X41339D02*
X41276Y51135D01*
X41223Y51100D01*
X41188Y51047D01*
X41175Y50984D01*
X41188Y50922D01*
X41223Y50869D01*
X41276Y50834D01*
X41339Y50821D01*
X41401Y50834D01*
X41454Y50869D01*
X41489Y50922D01*
X41502Y50984D01*
X41489Y51047D01*
X41454Y51100D01*
X41401Y51135D01*
X41339Y51147D02*
G37*
G36*
X40551D02*
X40489Y51135D01*
X40436Y51100D01*
X40400Y51047D01*
X40388Y50984D01*
X40400Y50922D01*
X40436Y50869D01*
X40489Y50834D01*
X40551Y50821D01*
X40614Y50834D01*
X40667Y50869D01*
X40702Y50922D01*
X40714Y50984D01*
X40702Y51047D01*
X40667Y51100D01*
X40614Y51135D01*
X40551Y51147D02*
G37*
G36*
X39370D02*
X39308Y51135D01*
X39255Y51100D01*
X39219Y51047D01*
X39207Y50984D01*
X39219Y50922D01*
X39255Y50869D01*
X39308Y50834D01*
X39370Y50821D01*
X39433Y50834D01*
X39485Y50869D01*
X39521Y50922D01*
X39533Y50984D01*
X39521Y51047D01*
X39485Y51100D01*
X39433Y51135D01*
X39370Y51147D02*
G37*
G36*
X40157D02*
X40095Y51135D01*
X40042Y51100D01*
X40007Y51047D01*
X39994Y50984D01*
X40007Y50922D01*
X40042Y50869D01*
X40095Y50834D01*
X40157Y50821D01*
X40220Y50834D01*
X40273Y50869D01*
X40308Y50922D01*
X40321Y50984D01*
X40308Y51047D01*
X40273Y51100D01*
X40220Y51135D01*
X40157Y51147D02*
G37*
G36*
X41732D02*
X41670Y51135D01*
X41617Y51100D01*
X41582Y51047D01*
X41569Y50984D01*
X41582Y50922D01*
X41617Y50869D01*
X41670Y50834D01*
X41732Y50821D01*
X41795Y50834D01*
X41848Y50869D01*
X41883Y50922D01*
X41895Y50984D01*
X41883Y51047D01*
X41848Y51100D01*
X41795Y51135D01*
X41732Y51147D02*
G37*
G36*
X42116Y51551D02*
X42054Y51539D01*
X42001Y51503D01*
X41965Y51450D01*
X41953Y51388D01*
X41965Y51325D01*
X42001Y51272D01*
X42054Y51237D01*
X42116Y51225D01*
X42179Y51237D01*
X42231Y51272D01*
X42267Y51325D01*
X42279Y51388D01*
X42267Y51450D01*
X42231Y51503D01*
X42179Y51539D01*
X42116Y51551D02*
G37*
G36*
X37795Y51935D02*
X37733Y51922D01*
X37680Y51887D01*
X37645Y51834D01*
X37632Y51772D01*
X37645Y51709D01*
X37680Y51656D01*
X37733Y51621D01*
X37795Y51609D01*
X37858Y51621D01*
X37911Y51656D01*
X37946Y51709D01*
X37958Y51772D01*
X37946Y51834D01*
X37911Y51887D01*
X37858Y51922D01*
X37795Y51935D02*
G37*
G36*
X41732D02*
X41670Y51922D01*
X41617Y51887D01*
X41582Y51834D01*
X41569Y51772D01*
X41582Y51709D01*
X41617Y51656D01*
X41670Y51621D01*
X41721Y51611D01*
Y51609D01*
X41721D01*
Y51551D01*
X41660Y51539D01*
X41607Y51503D01*
X41572Y51450D01*
X41559Y51388D01*
X41572Y51325D01*
X41607Y51272D01*
X41660Y51237D01*
X41722Y51225D01*
X41785Y51237D01*
X41838Y51272D01*
X41873Y51325D01*
X41886Y51388D01*
X41873Y51450D01*
X41838Y51503D01*
X41785Y51539D01*
X41733Y51549D01*
Y51551D01*
X41733D01*
Y51609D01*
X41795Y51621D01*
X41848Y51656D01*
X41883Y51709D01*
X41895Y51772D01*
X41883Y51834D01*
X41848Y51887D01*
X41795Y51922D01*
X41732Y51935D02*
G37*
G36*
X37795Y51541D02*
X37733Y51529D01*
X37680Y51493D01*
X37645Y51440D01*
X37632Y51378D01*
X37645Y51316D01*
X37680Y51263D01*
X37733Y51227D01*
X37795Y51215D01*
X37858Y51227D01*
X37911Y51263D01*
X37946Y51316D01*
X37958Y51378D01*
X37946Y51440D01*
X37911Y51493D01*
X37858Y51529D01*
X37795Y51541D02*
G37*
G36*
X43307D02*
X43245Y51529D01*
X43192Y51493D01*
X43156Y51440D01*
X43144Y51378D01*
X43156Y51316D01*
X43192Y51263D01*
X43245Y51227D01*
X43307Y51215D01*
X43370Y51227D01*
X43422Y51263D01*
X43458Y51316D01*
X43470Y51378D01*
X43458Y51440D01*
X43422Y51493D01*
X43370Y51529D01*
X43307Y51541D02*
G37*
G36*
X38976Y51147D02*
X38914Y51135D01*
X38861Y51100D01*
X38826Y51047D01*
X38813Y50984D01*
X38826Y50922D01*
X38861Y50869D01*
X38914Y50834D01*
X38976Y50821D01*
X39039Y50834D01*
X39092Y50869D01*
X39127Y50922D01*
X39139Y50984D01*
X39127Y51047D01*
X39092Y51100D01*
X39039Y51135D01*
X38976Y51147D02*
G37*
G36*
X35236Y50852D02*
X35174Y50840D01*
X35121Y50804D01*
X35085Y50751D01*
X35073Y50689D01*
X35085Y50627D01*
X35121Y50574D01*
X35174Y50538D01*
X35236Y50526D01*
X35299Y50538D01*
X35352Y50574D01*
X35387Y50627D01*
X35399Y50689D01*
X35387Y50751D01*
X35352Y50804D01*
X35299Y50840D01*
X35236Y50852D02*
G37*
G36*
X36220Y51147D02*
X36158Y51135D01*
X36105Y51100D01*
X36070Y51047D01*
X36057Y50984D01*
X36070Y50922D01*
X36105Y50869D01*
X36158Y50834D01*
X36220Y50821D01*
X36283Y50834D01*
X36336Y50869D01*
X36371Y50922D01*
X36384Y50984D01*
X36371Y51047D01*
X36336Y51100D01*
X36283Y51135D01*
X36220Y51147D02*
G37*
G36*
X41339Y50754D02*
X41276Y50741D01*
X41223Y50706D01*
X41188Y50653D01*
X41175Y50591D01*
X41188Y50528D01*
X41223Y50475D01*
X41276Y50440D01*
X41339Y50427D01*
X41401Y50440D01*
X41454Y50475D01*
X41489Y50528D01*
X41502Y50591D01*
X41489Y50653D01*
X41454Y50706D01*
X41401Y50741D01*
X41339Y50754D02*
G37*
G36*
X36614D02*
X36552Y50741D01*
X36499Y50706D01*
X36463Y50653D01*
X36451Y50591D01*
X36463Y50528D01*
X36499Y50475D01*
X36552Y50440D01*
X36614Y50427D01*
X36677Y50440D01*
X36730Y50475D01*
X36765Y50528D01*
X36777Y50591D01*
X36765Y50653D01*
X36730Y50706D01*
X36677Y50741D01*
X36614Y50754D02*
G37*
G36*
X37008D02*
X36945Y50741D01*
X36893Y50706D01*
X36857Y50653D01*
X36845Y50591D01*
X36857Y50528D01*
X36893Y50475D01*
X36945Y50440D01*
X37008Y50427D01*
X37070Y50440D01*
X37123Y50475D01*
X37159Y50528D01*
X37171Y50591D01*
X37159Y50653D01*
X37123Y50706D01*
X37070Y50741D01*
X37008Y50754D02*
G37*
G36*
X36614Y51147D02*
X36552Y51135D01*
X36499Y51100D01*
X36463Y51047D01*
X36451Y50984D01*
X36463Y50922D01*
X36499Y50869D01*
X36552Y50834D01*
X36614Y50821D01*
X36677Y50834D01*
X36730Y50869D01*
X36765Y50922D01*
X36777Y50984D01*
X36765Y51047D01*
X36730Y51100D01*
X36677Y51135D01*
X36614Y51147D02*
G37*
G36*
X38189D02*
X38127Y51135D01*
X38074Y51100D01*
X38038Y51047D01*
X38026Y50984D01*
X38038Y50922D01*
X38074Y50869D01*
X38127Y50834D01*
X38189Y50821D01*
X38251Y50834D01*
X38304Y50869D01*
X38340Y50922D01*
X38352Y50984D01*
X38340Y51047D01*
X38304Y51100D01*
X38251Y51135D01*
X38189Y51147D02*
G37*
G36*
X38583D02*
X38520Y51135D01*
X38467Y51100D01*
X38432Y51047D01*
X38420Y50984D01*
X38432Y50922D01*
X38467Y50869D01*
X38520Y50834D01*
X38583Y50821D01*
X38645Y50834D01*
X38698Y50869D01*
X38733Y50922D01*
X38746Y50984D01*
X38733Y51047D01*
X38698Y51100D01*
X38645Y51135D01*
X38583Y51147D02*
G37*
G36*
X37795D02*
X37733Y51135D01*
X37680Y51100D01*
X37645Y51047D01*
X37632Y50984D01*
X37645Y50922D01*
X37680Y50869D01*
X37733Y50834D01*
X37795Y50821D01*
X37858Y50834D01*
X37911Y50869D01*
X37946Y50922D01*
X37958Y50984D01*
X37946Y51047D01*
X37911Y51100D01*
X37858Y51135D01*
X37795Y51147D02*
G37*
G36*
X37008D02*
X36945Y51135D01*
X36893Y51100D01*
X36857Y51047D01*
X36845Y50984D01*
X36857Y50922D01*
X36893Y50869D01*
X36945Y50834D01*
X37008Y50821D01*
X37070Y50834D01*
X37123Y50869D01*
X37159Y50922D01*
X37171Y50984D01*
X37159Y51047D01*
X37123Y51100D01*
X37070Y51135D01*
X37008Y51147D02*
G37*
G36*
X37402D02*
X37339Y51135D01*
X37286Y51100D01*
X37251Y51047D01*
X37238Y50984D01*
X37251Y50922D01*
X37286Y50869D01*
X37339Y50834D01*
X37402Y50821D01*
X37464Y50834D01*
X37517Y50869D01*
X37552Y50922D01*
X37565Y50984D01*
X37552Y51047D01*
X37517Y51100D01*
X37464Y51135D01*
X37402Y51147D02*
G37*
G36*
X42913Y53510D02*
X42851Y53497D01*
X42798Y53462D01*
X42763Y53409D01*
X42750Y53346D01*
X42763Y53284D01*
X42798Y53231D01*
X42851Y53196D01*
X42913Y53183D01*
X42976Y53196D01*
X43029Y53231D01*
X43064Y53284D01*
X43077Y53346D01*
X43064Y53409D01*
X43029Y53462D01*
X42976Y53497D01*
X42913Y53510D02*
G37*
G36*
X43307D02*
X43245Y53497D01*
X43192Y53462D01*
X43156Y53409D01*
X43144Y53346D01*
X43156Y53284D01*
X43192Y53231D01*
X43245Y53196D01*
X43307Y53183D01*
X43370Y53196D01*
X43422Y53231D01*
X43458Y53284D01*
X43470Y53346D01*
X43458Y53409D01*
X43422Y53462D01*
X43370Y53497D01*
X43307Y53510D02*
G37*
G36*
X41732D02*
X41670Y53497D01*
X41617Y53462D01*
X41582Y53409D01*
X41569Y53346D01*
X41582Y53284D01*
X41617Y53231D01*
X41670Y53196D01*
X41732Y53183D01*
X41795Y53196D01*
X41848Y53231D01*
X41883Y53284D01*
X41895Y53346D01*
X41883Y53409D01*
X41848Y53462D01*
X41795Y53497D01*
X41732Y53510D02*
G37*
G36*
X43307Y53116D02*
X43245Y53103D01*
X43192Y53068D01*
X43156Y53015D01*
X43144Y52953D01*
X43156Y52890D01*
X43192Y52837D01*
X43245Y52802D01*
X43307Y52790D01*
X43370Y52802D01*
X43422Y52837D01*
X43458Y52890D01*
X43470Y52953D01*
X43458Y53015D01*
X43422Y53068D01*
X43370Y53103D01*
X43307Y53116D02*
G37*
G36*
X37795Y53510D02*
X37733Y53497D01*
X37680Y53462D01*
X37645Y53409D01*
X37632Y53346D01*
X37645Y53284D01*
X37680Y53231D01*
X37733Y53196D01*
X37795Y53183D01*
X37858Y53196D01*
X37911Y53231D01*
X37946Y53284D01*
X37958Y53346D01*
X37946Y53409D01*
X37911Y53462D01*
X37858Y53497D01*
X37795Y53510D02*
G37*
G36*
Y53903D02*
X37733Y53891D01*
X37680Y53855D01*
X37645Y53803D01*
X37632Y53740D01*
X37645Y53678D01*
X37680Y53625D01*
X37733Y53589D01*
X37795Y53577D01*
X37858Y53589D01*
X37911Y53625D01*
X37946Y53678D01*
X37958Y53740D01*
X37946Y53803D01*
X37911Y53855D01*
X37858Y53891D01*
X37795Y53903D02*
G37*
G36*
Y54297D02*
X37733Y54285D01*
X37680Y54249D01*
X37645Y54196D01*
X37632Y54134D01*
X37645Y54071D01*
X37680Y54018D01*
X37733Y53983D01*
X37795Y53971D01*
X37858Y53983D01*
X37911Y54018D01*
X37946Y54071D01*
X37958Y54134D01*
X37946Y54196D01*
X37911Y54249D01*
X37858Y54285D01*
X37795Y54297D02*
G37*
G36*
X36220Y54297D02*
X36158Y54285D01*
X36105Y54249D01*
X36070Y54196D01*
X36057Y54134D01*
X36070Y54071D01*
X36105Y54019D01*
X36158Y53983D01*
X36220Y53971D01*
X36283Y53983D01*
X36336Y54019D01*
X36371Y54071D01*
X36384Y54134D01*
X36371Y54196D01*
X36336Y54249D01*
X36283Y54285D01*
X36220Y54297D02*
G37*
G36*
X34350Y53903D02*
X34288Y53891D01*
X34235Y53856D01*
X34200Y53803D01*
X34187Y53740D01*
X34193Y53710D01*
X34143Y53677D01*
X34118Y53694D01*
X34055Y53706D01*
X33993Y53694D01*
X33940Y53659D01*
X33904Y53606D01*
X33892Y53543D01*
X33898Y53513D01*
X33848Y53480D01*
X33822Y53497D01*
X33760Y53510D01*
X33697Y53497D01*
X33644Y53462D01*
X33609Y53409D01*
X33597Y53346D01*
X33609Y53284D01*
X33644Y53231D01*
X33697Y53196D01*
X33760Y53183D01*
X33822Y53196D01*
X33875Y53231D01*
X33911Y53284D01*
X33923Y53346D01*
X33917Y53376D01*
X33967Y53410D01*
X33993Y53393D01*
X34055Y53380D01*
X34118Y53393D01*
X34170Y53428D01*
X34206Y53481D01*
X34218Y53543D01*
X34212Y53573D01*
X34262Y53607D01*
X34288Y53589D01*
X34350Y53577D01*
X34413Y53589D01*
X34466Y53625D01*
X34501Y53678D01*
X34514Y53740D01*
X34501Y53803D01*
X34466Y53856D01*
X34413Y53891D01*
X34350Y53903D02*
G37*
G36*
X36220D02*
X36158Y53891D01*
X36105Y53856D01*
X36070Y53803D01*
X36057Y53740D01*
X36070Y53678D01*
X36105Y53625D01*
X36158Y53589D01*
X36220Y53577D01*
X36283Y53589D01*
X36336Y53625D01*
X36371Y53678D01*
X36384Y53740D01*
X36371Y53803D01*
X36336Y53856D01*
X36283Y53891D01*
X36220Y53903D02*
G37*
G36*
X41732Y53903D02*
X41670Y53891D01*
X41617Y53856D01*
X41582Y53803D01*
X41569Y53740D01*
X41582Y53678D01*
X41617Y53625D01*
X41670Y53589D01*
X41732Y53577D01*
X41795Y53589D01*
X41848Y53625D01*
X41883Y53678D01*
X41895Y53740D01*
X41883Y53803D01*
X41848Y53856D01*
X41795Y53891D01*
X41732Y53903D02*
G37*
G36*
X42913Y53116D02*
X42851Y53103D01*
X42798Y53068D01*
X42763Y53015D01*
X42750Y52953D01*
X42763Y52890D01*
X42798Y52837D01*
X42851Y52802D01*
X42913Y52790D01*
X42976Y52802D01*
X43029Y52837D01*
X43064Y52890D01*
X43077Y52953D01*
X43064Y53015D01*
X43029Y53068D01*
X42976Y53103D01*
X42913Y53116D02*
G37*
G36*
X41732Y52329D02*
X41670Y52316D01*
X41617Y52281D01*
X41582Y52228D01*
X41569Y52165D01*
X41582Y52103D01*
X41617Y52050D01*
X41670Y52015D01*
X41732Y52002D01*
X41795Y52015D01*
X41848Y52050D01*
X41883Y52103D01*
X41895Y52165D01*
X41883Y52228D01*
X41848Y52281D01*
X41795Y52316D01*
X41732Y52329D02*
G37*
G36*
X43307D02*
X43245Y52316D01*
X43192Y52281D01*
X43156Y52228D01*
X43144Y52165D01*
X43156Y52103D01*
X43192Y52050D01*
X43245Y52015D01*
X43307Y52002D01*
X43370Y52015D01*
X43422Y52050D01*
X43458Y52103D01*
X43470Y52165D01*
X43458Y52228D01*
X43422Y52281D01*
X43370Y52316D01*
X43307Y52329D02*
G37*
G36*
X37795D02*
X37733Y52316D01*
X37680Y52281D01*
X37645Y52228D01*
X37632Y52165D01*
X37645Y52103D01*
X37680Y52050D01*
X37733Y52015D01*
X37795Y52002D01*
X37858Y52015D01*
X37911Y52050D01*
X37946Y52103D01*
X37958Y52165D01*
X37946Y52228D01*
X37911Y52281D01*
X37858Y52316D01*
X37795Y52329D02*
G37*
G36*
X42913D02*
X42851Y52316D01*
X42798Y52281D01*
X42763Y52228D01*
X42750Y52165D01*
X42763Y52103D01*
X42798Y52050D01*
X42851Y52015D01*
X42912Y52002D01*
D01*
Y51944D01*
X42912D01*
Y51942D01*
X42861Y51932D01*
X42808Y51897D01*
X42773Y51844D01*
X42760Y51782D01*
X42773Y51719D01*
X42808Y51666D01*
X42861Y51631D01*
X42923Y51618D01*
X42986Y51631D01*
X43039Y51666D01*
X43074Y51719D01*
X43086Y51782D01*
X43074Y51844D01*
X43039Y51897D01*
X42986Y51932D01*
X42924Y51944D01*
D01*
Y52002D01*
X42924D01*
Y52004D01*
X42976Y52015D01*
X43029Y52050D01*
X43064Y52103D01*
X43077Y52165D01*
X43064Y52228D01*
X43029Y52281D01*
X42976Y52316D01*
X42913Y52329D02*
G37*
G36*
X37402D02*
X37339Y52316D01*
X37286Y52281D01*
X37251Y52228D01*
X37238Y52165D01*
X37251Y52103D01*
X37286Y52050D01*
X37339Y52015D01*
X37402Y52002D01*
X37464Y52015D01*
X37517Y52050D01*
X37552Y52103D01*
X37565Y52165D01*
X37552Y52228D01*
X37517Y52281D01*
X37464Y52316D01*
X37402Y52329D02*
G37*
G36*
X37008Y53116D02*
X36945Y53103D01*
X36893Y53068D01*
X36857Y53015D01*
X36845Y52953D01*
X36856Y52894D01*
X36818Y52848D01*
X34646D01*
X34611Y52841D01*
X34581Y52821D01*
X30423Y48663D01*
X30366Y48681D01*
X30358Y48720D01*
X30323Y48773D01*
X30270Y48808D01*
X30207Y48821D01*
X30145Y48808D01*
X30092Y48773D01*
X30057Y48720D01*
X30044Y48657D01*
X30057Y48595D01*
X30092Y48542D01*
X30145Y48507D01*
X30184Y48499D01*
X30202Y48442D01*
X28656Y46896D01*
X28603Y46924D01*
X28608Y46949D01*
X28596Y47011D01*
X28560Y47064D01*
X28507Y47100D01*
X28445Y47112D01*
X28382Y47100D01*
X28330Y47064D01*
X28294Y47011D01*
X28282Y46949D01*
X28294Y46886D01*
X28330Y46833D01*
X28382Y46798D01*
X28445Y46786D01*
X28469Y46791D01*
X28498Y46738D01*
X27691Y45931D01*
X27671Y45901D01*
X27664Y45866D01*
Y43444D01*
X27292Y43071D01*
X27264Y43077D01*
X27201Y43064D01*
X27148Y43029D01*
X27113Y42976D01*
X27101Y42913D01*
X27113Y42851D01*
X27148Y42798D01*
X27201Y42763D01*
X27264Y42750D01*
X27288Y42755D01*
X27317Y42702D01*
X26701Y42087D01*
X26673Y42092D01*
X26611Y42080D01*
X26558Y42044D01*
X26523Y41992D01*
X26510Y41929D01*
X26523Y41867D01*
X26558Y41814D01*
X26611Y41778D01*
X26673Y41766D01*
X26736Y41778D01*
X26789Y41814D01*
X26824Y41867D01*
X26836Y41929D01*
X26831Y41957D01*
X27433Y42559D01*
X27486Y42531D01*
X27485Y42529D01*
X27498Y42466D01*
X27533Y42413D01*
X27586Y42378D01*
X27648Y42366D01*
X27711Y42378D01*
X27764Y42413D01*
X27799Y42466D01*
X27812Y42529D01*
X27805Y42560D01*
X27833Y42601D01*
X27846Y42614D01*
X27904Y42602D01*
X27967Y42614D01*
X28020Y42650D01*
X28055Y42703D01*
X28067Y42765D01*
X28055Y42827D01*
X28020Y42880D01*
X27967Y42916D01*
X27904Y42928D01*
X27878Y42923D01*
X27850Y42976D01*
X28214Y43341D01*
X28234Y43370D01*
X28241Y43406D01*
Y44303D01*
X28299Y44320D01*
X28330Y44274D01*
X28382Y44239D01*
X28445Y44227D01*
X28507Y44239D01*
X28560Y44274D01*
X28596Y44327D01*
X28608Y44390D01*
X28596Y44452D01*
X28560Y44505D01*
X28507Y44540D01*
X28445Y44553D01*
X28382Y44540D01*
X28330Y44505D01*
X28299Y44459D01*
X28241Y44477D01*
Y45927D01*
X34585Y52270D01*
X36031D01*
X36069Y52224D01*
X36057Y52165D01*
X36069Y52107D01*
X36031Y52060D01*
X35433D01*
X35404Y52054D01*
X35398Y52053D01*
X35368Y52033D01*
X34286Y50951D01*
X34266Y50921D01*
X34259Y50886D01*
Y45117D01*
X32049Y42907D01*
X31037D01*
X31021Y42930D01*
X30968Y42966D01*
X30906Y42978D01*
X30843Y42966D01*
X30790Y42930D01*
X30755Y42877D01*
X30742Y42815D01*
X30755Y42753D01*
X30790Y42700D01*
X30843Y42664D01*
X30906Y42652D01*
X30968Y42664D01*
X31021Y42700D01*
X31037Y42723D01*
X32087D01*
X32122Y42730D01*
X32152Y42750D01*
X34415Y45014D01*
X34435Y45044D01*
X34436Y45049D01*
X34442Y45079D01*
Y50848D01*
X35471Y51877D01*
X36031D01*
X36069Y51830D01*
X36057Y51772D01*
X36069Y51713D01*
X36031Y51667D01*
X35531D01*
X35496Y51660D01*
X35467Y51640D01*
X34778Y50951D01*
X34758Y50921D01*
X34751Y50886D01*
Y45018D01*
X31229Y41496D01*
X31201Y41502D01*
X31138Y41489D01*
X31085Y41454D01*
X31050Y41401D01*
X31038Y41339D01*
X31050Y41276D01*
X31085Y41223D01*
X31138Y41188D01*
X31201Y41175D01*
X31263Y41188D01*
X31316Y41223D01*
X31351Y41276D01*
X31364Y41339D01*
X31358Y41366D01*
X34907Y44915D01*
X34927Y44945D01*
X34934Y44980D01*
Y50848D01*
X35570Y51483D01*
X36031D01*
X36069Y51437D01*
X36057Y51378D01*
X36070Y51316D01*
X36105Y51263D01*
X36158Y51227D01*
X36220Y51215D01*
X36283Y51227D01*
X36336Y51263D01*
X36371Y51316D01*
X36384Y51378D01*
X36371Y51440D01*
X36381Y51458D01*
X36440Y51464D01*
X36463Y51437D01*
X36451Y51378D01*
X36463Y51316D01*
X36499Y51263D01*
X36552Y51227D01*
X36614Y51215D01*
X36677Y51227D01*
X36730Y51263D01*
X36765Y51316D01*
X36777Y51378D01*
X36765Y51440D01*
X36774Y51458D01*
X36834Y51464D01*
X36856Y51437D01*
X36845Y51378D01*
X36857Y51316D01*
X36893Y51263D01*
X36945Y51227D01*
X37008Y51215D01*
X37070Y51227D01*
X37123Y51263D01*
X37159Y51316D01*
X37171Y51378D01*
X37159Y51440D01*
X37181Y51483D01*
X37205D01*
X37240Y51490D01*
Y51490D01*
X37240D01*
X37251Y51440D01*
X37238Y51378D01*
X37251Y51316D01*
X37286Y51263D01*
X37339Y51227D01*
X37402Y51215D01*
X37464Y51227D01*
X37517Y51263D01*
X37552Y51316D01*
X37565Y51378D01*
X37552Y51440D01*
X37517Y51493D01*
X37464Y51529D01*
X37402Y51541D01*
X37377Y51536D01*
X37364Y51561D01*
X37400Y51609D01*
X37402Y51609D01*
X37464Y51621D01*
X37517Y51656D01*
X37552Y51709D01*
X37565Y51772D01*
X37552Y51834D01*
X37517Y51887D01*
X37464Y51922D01*
X37402Y51935D01*
X37339Y51922D01*
X37286Y51887D01*
X37251Y51834D01*
X37238Y51772D01*
X37239Y51770D01*
X37191Y51734D01*
X37166Y51747D01*
X37171Y51772D01*
X37159Y51834D01*
X37123Y51887D01*
X37070Y51922D01*
X37008Y51935D01*
X36945Y51922D01*
X36893Y51887D01*
X36857Y51834D01*
X36845Y51772D01*
X36856Y51713D01*
X36841Y51694D01*
X36781D01*
X36766Y51713D01*
X36777Y51772D01*
X36765Y51834D01*
X36730Y51887D01*
X36677Y51922D01*
X36614Y51935D01*
X36612Y51934D01*
X36577Y51983D01*
X36590Y52007D01*
X36614Y52002D01*
X36677Y52015D01*
X36730Y52050D01*
X36765Y52103D01*
X36777Y52165D01*
X36765Y52228D01*
X36779Y52255D01*
X36839Y52257D01*
X36857Y52228D01*
X36845Y52165D01*
X36857Y52103D01*
X36893Y52050D01*
X36945Y52015D01*
X37008Y52002D01*
X37070Y52015D01*
X37123Y52050D01*
X37159Y52103D01*
X37171Y52165D01*
X37159Y52228D01*
X37123Y52281D01*
X37070Y52316D01*
X37008Y52329D01*
X36983Y52324D01*
X36970Y52348D01*
X37006Y52396D01*
X37008Y52396D01*
X37070Y52408D01*
X37123Y52444D01*
X37159Y52497D01*
X37171Y52559D01*
X37166Y52584D01*
X37191Y52597D01*
X37239Y52561D01*
X37238Y52559D01*
X37251Y52497D01*
X37286Y52444D01*
X37339Y52408D01*
X37402Y52396D01*
X37464Y52408D01*
X37517Y52444D01*
X37552Y52497D01*
X37565Y52559D01*
X37552Y52621D01*
X37517Y52674D01*
X37464Y52710D01*
X37402Y52722D01*
X37374Y52717D01*
X37270Y52821D01*
X37247Y52836D01*
X37240Y52841D01*
X37240D01*
X37240Y52841D01*
X37221Y52845D01*
X37205Y52848D01*
X37197D01*
X37159Y52894D01*
X37171Y52953D01*
X37159Y53015D01*
X37123Y53068D01*
X37070Y53103D01*
X37008Y53116D02*
G37*
G36*
X42913Y52722D02*
X42851Y52710D01*
X42798Y52674D01*
X42763Y52621D01*
X42750Y52559D01*
X42763Y52497D01*
X42798Y52444D01*
X42851Y52408D01*
X42913Y52396D01*
X42976Y52408D01*
X43029Y52444D01*
X43064Y52497D01*
X43077Y52559D01*
X43064Y52621D01*
X43029Y52674D01*
X42976Y52710D01*
X42913Y52722D02*
G37*
G36*
X43307D02*
X43245Y52710D01*
X43192Y52674D01*
X43156Y52621D01*
X43144Y52559D01*
X43156Y52497D01*
X43192Y52444D01*
X43245Y52408D01*
X43307Y52396D01*
X43370Y52408D01*
X43422Y52444D01*
X43458Y52497D01*
X43470Y52559D01*
X43458Y52621D01*
X43422Y52674D01*
X43370Y52710D01*
X43307Y52722D02*
G37*
G36*
X37795D02*
X37733Y52710D01*
X37680Y52674D01*
X37645Y52621D01*
X37632Y52559D01*
X37645Y52497D01*
X37680Y52444D01*
X37733Y52408D01*
X37795Y52396D01*
X37858Y52408D01*
X37911Y52444D01*
X37946Y52497D01*
X37958Y52559D01*
X37946Y52621D01*
X37911Y52674D01*
X37858Y52710D01*
X37795Y52722D02*
G37*
G36*
X41732D02*
X41670Y52710D01*
X41617Y52674D01*
X41582Y52621D01*
X41569Y52559D01*
X41582Y52497D01*
X41617Y52444D01*
X41670Y52408D01*
X41732Y52396D01*
X41795Y52408D01*
X41848Y52444D01*
X41883Y52497D01*
X41895Y52559D01*
X41883Y52621D01*
X41848Y52674D01*
X41795Y52710D01*
X41732Y52722D02*
G37*
%LPD*%
G36*
X28036Y45969D02*
X28058Y45960D01*
Y43444D01*
X27475Y42861D01*
X27422Y42889D01*
X27427Y42913D01*
X27421Y42941D01*
X27821Y43341D01*
X27841Y43370D01*
X27845Y43394D01*
X27848Y43406D01*
Y45828D01*
X27996Y45977D01*
X28036Y45969D02*
G37*
%ADD10R,0.0433X0.0394*%
%ADD11R,0.0394X0.0433*%
%ADD12R,0.0866X0.1024*%
%ADD13R,0.1024X0.0866*%
%ADD14C,0.0157*%
%ADD15R,0.0354X0.0276*%
%ADD16R,0.0157X0.0709*%
%ADD17R,0.0709X0.0157*%
%ADD18R,0.0150X0.0600*%
%ADD19R,0.1969X0.1181*%
%ADD20R,0.0394X0.1929*%
%ADD21R,0.1063X0.0630*%
%ADD22O,0.0409X0.0150*%
%ADD23R,0.1614X0.1024*%
%ADD24R,0.0610X0.0197*%
%ADD25R,0.0610X0.0197*%
%ADD26R,0.0197X0.0610*%
%ADD27R,0.0551X0.0787*%
%ADD28R,0.0630X0.1063*%
%ADD29R,0.0709X0.0630*%
%ADD30R,0.0358X0.0480*%
%ADD31R,0.0630X0.0709*%
%ADD32R,0.0512X0.0591*%
%ADD33R,0.0866X0.0157*%
%ADD34R,0.0866X0.0157*%
%ADD35R,0.0571X0.0217*%
%ADD36R,0.1010X0.0620*%
%ADD37R,0.2560X0.0360*%
%ADD38R,0.0775X0.0620*%
%ADD39R,0.0409X0.0150*%
%ADD40R,0.1024X0.0945*%
%ADD41R,0.0157X0.0472*%
%ADD42C,0.0060*%
%ADD43C,0.0180*%
%ADD44C,0.0160*%
%ADD45C,0.0140*%
%ADD46C,0.0240*%
%ADD47C,0.0120*%
%ADD48C,0.0500*%
%ADD49C,0.0550*%
%ADD50C,0.1063*%
%ADD51C,0.1300*%
%ADD52C,0.0945*%
%ADD53C,0.0591*%
%ADD54R,0.0591X0.0591*%
%ADD55C,0.0700*%
%ADD56C,0.1600*%
%ADD57C,0.0200*%
%ADD58C,0.0300*%
%ADD59C,0.0240*%
%ADD60C,0.0280*%
%ADD61C,0.0420*%
%ADD62C,0.0080*%
%ADD63C,0.0100*%
D42*
X131104Y36025D02*
Y36974D01*
X130709Y35630D02*
X131104Y36025D01*
X129626Y35630D02*
X130709D01*
X129104Y31761D02*
Y36974D01*
X33661Y56398D02*
Y57283D01*
X34005Y58120D02*
X43209Y67323D01*
X33661Y57283D02*
X33858Y57480D01*
Y57972D02*
X34005Y58120D01*
X33858Y57480D02*
Y57972D01*
X82874Y73622D02*
X91929D01*
X92520Y73032D01*
X82776Y73130D02*
X88484D01*
X89075Y72539D01*
X82776D02*
X83366D01*
X80217Y76280D02*
X82874Y73622D01*
X64862Y76280D02*
X80217D01*
X62795Y74213D02*
X64862Y76280D01*
X50098Y74213D02*
X62795D01*
X49606Y73720D02*
X50098Y74213D01*
X45079Y73720D02*
X49606D01*
X43209Y71850D02*
X45079Y73720D01*
X43209Y67323D02*
Y71850D01*
X80020Y75886D02*
X82776Y73130D01*
X72441Y75886D02*
X80020D01*
X69980Y73425D02*
X72441Y75886D01*
X51772Y73425D02*
X69980D01*
X51181Y72835D02*
X51772Y73425D01*
X44783Y72835D02*
X51181D01*
X43406Y71457D02*
X44783Y72835D01*
X43406Y66929D02*
Y71457D01*
X34055Y57579D02*
X43406Y66929D01*
X34055Y56988D02*
Y57579D01*
X80807Y74508D02*
X82776Y72539D01*
X78543Y74508D02*
X80807D01*
X76575Y72539D02*
X78543Y74508D01*
X45374Y72539D02*
X76575D01*
X43799Y70965D02*
X45374Y72539D01*
X43799Y66831D02*
Y70965D01*
X34449Y57480D02*
X43799Y66831D01*
X34449Y57087D02*
Y57480D01*
X40748Y49016D02*
Y50394D01*
Y49016D02*
X50197Y39567D01*
X56594D01*
X59449Y36713D01*
X56988Y39665D02*
X60433Y36220D01*
X41142Y49016D02*
X50098Y40059D01*
X56890Y39764D02*
X57194Y39459D01*
X50394Y39764D02*
X56890D01*
X50069Y40089D02*
X50394Y39764D01*
X41142Y49016D02*
Y50000D01*
X40945Y50197D02*
X41142Y50000D01*
X40748Y50394D02*
X40945Y50591D01*
X59449Y34941D02*
Y36713D01*
Y34941D02*
X59894Y34496D01*
Y33649D02*
Y34496D01*
X60433Y35039D02*
Y36220D01*
Y35039D02*
X60894Y34579D01*
Y33649D02*
Y34579D01*
X42618Y57677D02*
X44685D01*
X42421Y57480D02*
X42618Y57677D01*
X123622Y36220D02*
Y37106D01*
X41732Y49016D02*
Y49409D01*
X42717Y48032D02*
X43602D01*
X41732Y49016D02*
X42717Y48032D01*
X35531Y51575D02*
X37205D01*
X34843Y44980D02*
Y50886D01*
X35531Y51575D01*
X35433Y51968D02*
X36417D01*
X34350Y45079D02*
Y50886D01*
X35433Y51968D01*
X56417Y32844D02*
Y33740D01*
X56299Y35000D02*
Y35925D01*
X48622Y39272D02*
X52953D01*
X56299Y35925D01*
X48183Y39711D02*
X48622Y39272D01*
X39173Y48711D02*
X48173Y39711D01*
X48183D01*
X123130Y37598D02*
X123622Y37106D01*
X123130Y37598D02*
Y37795D01*
X122638Y38287D02*
X123130Y37795D01*
X122638Y38287D02*
Y38484D01*
X121161Y39961D02*
X122638Y38484D01*
X50394Y39961D02*
X121161D01*
X44685Y45669D02*
X50394Y39961D01*
X44685Y45669D02*
Y46949D01*
X43602Y48032D02*
X44685Y46949D01*
X122441Y40157D02*
X123622Y38976D01*
X50591Y40157D02*
X122441D01*
X44980Y45768D02*
X50591Y40157D01*
X44980Y45768D02*
Y47244D01*
X44390Y47835D02*
X44980Y47244D01*
X125591Y36220D02*
Y37106D01*
X125098Y37598D02*
X125591Y37106D01*
X125098Y37598D02*
Y37894D01*
X124705Y38287D02*
X125098Y37894D01*
X124705Y38287D02*
Y38583D01*
X122933Y40354D02*
X124705Y38583D01*
X50689Y40354D02*
X122933D01*
X45177Y45866D02*
X50689Y40354D01*
X45177Y45866D02*
Y47343D01*
X44390Y48130D02*
X45177Y47343D01*
X51575Y43012D02*
X88851D01*
X91756Y45917D01*
X47539Y47047D02*
X51575Y43012D01*
X47539Y47047D02*
Y57874D01*
X45374Y60039D02*
X47539Y57874D01*
X44390Y60039D02*
X45374D01*
X96154Y42815D02*
X99256Y45917D01*
X51378Y42815D02*
X96154D01*
X47343Y46850D02*
X51378Y42815D01*
X47343Y46850D02*
Y57776D01*
X45374Y59744D02*
X47343Y57776D01*
X43012Y59744D02*
X45374D01*
X41142Y57874D02*
X43012Y59744D01*
X41142Y56299D02*
Y57874D01*
X40945Y56102D02*
X41142Y56299D01*
X103359Y42520D02*
X106756Y45917D01*
X51280Y42520D02*
X103359D01*
X47146Y46654D02*
X51280Y42520D01*
X47146Y46654D02*
Y57579D01*
X45276Y59449D02*
X47146Y57579D01*
X43110Y59449D02*
X45276D01*
X110563Y42224D02*
X114256Y45917D01*
X51280Y42224D02*
X110563D01*
X46949Y46555D02*
X51280Y42224D01*
X46949Y46555D02*
Y57480D01*
X45276Y59154D02*
X46949Y57480D01*
X42815Y59154D02*
X45276D01*
X117768Y41929D02*
X121756Y45917D01*
X51280Y41929D02*
X117768D01*
X46752Y46457D02*
X51280Y41929D01*
X46752Y46457D02*
Y57382D01*
X45177Y58957D02*
X46752Y57382D01*
X42520Y58957D02*
X45177D01*
X41339Y57776D02*
X42520Y58957D01*
X41339Y56496D02*
Y57776D01*
X124973Y41634D02*
X129256Y45917D01*
X51280Y41634D02*
X124973D01*
X46555Y46358D02*
X51280Y41634D01*
X46555Y46358D02*
Y57283D01*
X45079Y58760D02*
X46555Y57283D01*
X42618Y58760D02*
X45079D01*
X41535Y57677D02*
X42618Y58760D01*
X41535Y56299D02*
Y57677D01*
X41339Y56102D02*
X41535Y56299D01*
X132276Y41437D02*
X136756Y45917D01*
X51181Y41437D02*
X132276D01*
X46358Y46260D02*
X51181Y41437D01*
X46358Y46260D02*
Y57185D01*
X44980Y58563D02*
X46358Y57185D01*
X42815Y58563D02*
X44980D01*
X139481Y41142D02*
X144256Y45917D01*
X51181Y41142D02*
X139481D01*
X46161Y46161D02*
X51181Y41142D01*
X46161Y46161D02*
Y57087D01*
X44980Y58268D02*
X46161Y57087D01*
X42520Y58268D02*
X44980D01*
X146784Y40945D02*
X151756Y45917D01*
X51083Y40945D02*
X146784D01*
X45965Y46063D02*
X51083Y40945D01*
X45965Y46063D02*
Y56988D01*
X44882Y58071D02*
X45965Y56988D01*
X42126Y58071D02*
X44882D01*
X41732Y57677D02*
X42126Y58071D01*
X41732Y56496D02*
Y57677D01*
X41929Y56299D02*
Y57579D01*
X159256Y45772D02*
Y45917D01*
X154232Y40748D02*
X159256Y45772D01*
X50984Y40748D02*
X154232D01*
X45768Y45965D02*
X50984Y40748D01*
X45768Y45965D02*
Y56890D01*
X44783Y57874D02*
X45768Y56890D01*
X42224Y57874D02*
X44783D01*
X41929Y57579D02*
X42224Y57874D01*
X41732Y56102D02*
X41929Y56299D01*
X44685Y57677D02*
X45571Y56791D01*
Y45866D02*
Y56791D01*
Y45866D02*
X50886Y40551D01*
X161614D01*
X166756Y45693D01*
Y45917D01*
X37205Y46447D02*
X47290Y36361D01*
X47411Y36240D01*
X60218Y60955D02*
X60256Y60917D01*
X54793Y56955D02*
X60218D01*
X54380Y57368D02*
X54793Y56955D01*
X54026Y57368D02*
X54380D01*
X53574Y56917D02*
X54026Y57368D01*
X52756Y56917D02*
X53574D01*
X54793Y54955D02*
X60218D01*
X54380Y55368D02*
X54793Y54955D01*
X54026Y55368D02*
X54380D01*
X53574Y54917D02*
X54026Y55368D01*
X52756Y54917D02*
X53574D01*
X54793Y52955D02*
X60218D01*
X54380Y53368D02*
X54793Y52955D01*
X54026Y53368D02*
X54380D01*
X53574Y52917D02*
X54026Y53368D01*
X52756Y52917D02*
X53574D01*
X54793Y51955D02*
X60218D01*
X54380Y52368D02*
X54793Y51955D01*
X54026Y52368D02*
X54380D01*
X53574Y51917D02*
X54026Y52368D01*
X52756Y51917D02*
X53574D01*
X54793Y49955D02*
X60218D01*
X54380Y50368D02*
X54793Y49955D01*
X54026Y50368D02*
X54380D01*
X53574Y49917D02*
X54026Y50368D01*
X52756Y49917D02*
X53574D01*
X54793Y48955D02*
X60218D01*
X54380Y49368D02*
X54793Y48955D01*
X54026Y49368D02*
X54380D01*
X53574Y48917D02*
X54026Y49368D01*
X52756Y48917D02*
X53574D01*
X54793Y47955D02*
X60218D01*
X54380Y48368D02*
X54793Y47955D01*
X54026Y48368D02*
X54380D01*
X53574Y47917D02*
X54026Y48368D01*
X52756Y47917D02*
X53574D01*
X54793Y46955D02*
X60218D01*
X54380Y47368D02*
X54793Y46955D01*
X54026Y47368D02*
X54380D01*
X53574Y46917D02*
X54026Y47368D01*
X52756Y46917D02*
X53574D01*
X60256Y56917D02*
X61074D01*
X61526Y57368D01*
X61880D01*
X62293Y56955D01*
X67718D01*
X67756Y56917D02*
X68574D01*
X69026Y57368D01*
X69380D01*
X69793Y56955D01*
X75218D01*
X75256Y56917D02*
X76074D01*
X76526Y57368D01*
X76880D01*
X77293Y56955D01*
X82718D01*
X82756Y56917D02*
X83574D01*
X84026Y57368D01*
X84380D01*
X84793Y56955D01*
X90218D01*
X90256Y56917D02*
X91074D01*
X91526Y57368D01*
X91880D01*
X92293Y56955D01*
X97718D01*
X97756Y56917D02*
X98574D01*
X99026Y57368D01*
X99380D01*
X99793Y56955D01*
X105218D01*
X105256Y56917D02*
X106074D01*
X106526Y57368D01*
X106880D01*
X107293Y56955D01*
X112718D01*
X112756Y56917D02*
X113574D01*
X114026Y57368D01*
X114380D01*
X114793Y56955D01*
X120218D01*
X120256Y56917D02*
X121074D01*
X121526Y57368D01*
X121880D01*
X122293Y56955D01*
X127718D01*
X127756Y56917D02*
X128574D01*
X129026Y57368D01*
X129380D01*
X129793Y56955D01*
X135218D01*
X135256Y56917D02*
X136074D01*
X136526Y57368D01*
X136880D01*
X137293Y56955D01*
X142718D01*
X142756Y56917D02*
X143574D01*
X144026Y57368D01*
X144380D01*
X144793Y56955D01*
X150218D01*
X150256Y56917D02*
X151074D01*
X151526Y57368D01*
X151880D01*
X152293Y56955D01*
X157718D01*
X157756Y56917D02*
X158574D01*
X159026Y57368D01*
X159380D01*
X159793Y56955D01*
X165218D01*
X60256Y46917D02*
X61074D01*
X61526Y47368D01*
X61880D01*
X62293Y46955D01*
X67718D01*
X60256Y47917D02*
X61074D01*
X61526Y48368D01*
X61880D01*
X62293Y47955D01*
X67718D01*
X60256Y48917D02*
X61074D01*
X61526Y49368D01*
X61880D01*
X62293Y48955D01*
X67718D01*
X60256Y49917D02*
X61074D01*
X61526Y50368D01*
X61880D01*
X62293Y49955D01*
X67718D01*
X60256Y51917D02*
X61074D01*
X61526Y52368D01*
X61880D01*
X62293Y51955D01*
X67718D01*
X60256Y52917D02*
X61074D01*
X61526Y53368D01*
X61880D01*
X62293Y52955D01*
X67718D01*
X60256Y54917D02*
X61074D01*
X61526Y55368D01*
X61880D01*
X62293Y54955D01*
X67718D01*
X67756Y46917D02*
X68574D01*
X69026Y47368D01*
X69380D01*
X69793Y46955D01*
X75218D01*
X67756Y47917D02*
X68574D01*
X69026Y48368D01*
X69380D01*
X69793Y47955D01*
X75218D01*
X67756Y48917D02*
X68574D01*
X69026Y49368D01*
X69380D01*
X69793Y48955D01*
X75218D01*
X67756Y49917D02*
X68574D01*
X69026Y50368D01*
X69380D01*
X69793Y49955D01*
X75218D01*
X67756Y51917D02*
X68574D01*
X69026Y52368D01*
X69380D01*
X69793Y51955D01*
X75218D01*
X67756Y52917D02*
X68574D01*
X69026Y53368D01*
X69380D01*
X69793Y52955D01*
X75218D01*
X67756Y54917D02*
X68574D01*
X69026Y55368D01*
X69380D01*
X69793Y54955D01*
X75218D01*
X75256Y46917D02*
X76074D01*
X76526Y47368D01*
X76880D01*
X77293Y46955D01*
X82718D01*
X75256Y47917D02*
X76074D01*
X76526Y48368D01*
X76880D01*
X77293Y47955D01*
X82718D01*
X75256Y48917D02*
X76074D01*
X76526Y49368D01*
X76880D01*
X77293Y48955D01*
X82718D01*
X75256Y49917D02*
X76074D01*
X76526Y50368D01*
X76880D01*
X77293Y49955D01*
X82718D01*
X75256Y51917D02*
X76074D01*
X76526Y52368D01*
X76880D01*
X77293Y51955D01*
X82718D01*
X75256Y52917D02*
X76074D01*
X76526Y53368D01*
X76880D01*
X77293Y52955D01*
X82718D01*
X75256Y54917D02*
X76074D01*
X76526Y55368D01*
X76880D01*
X77293Y54955D01*
X82718D01*
X82756Y46917D02*
X83574D01*
X84026Y47368D01*
X84380D01*
X84793Y46955D01*
X90218D01*
X82756Y47917D02*
X83574D01*
X84026Y48368D01*
X84380D01*
X84793Y47955D01*
X90218D01*
X82756Y48917D02*
X83574D01*
X84026Y49368D01*
X84380D01*
X84793Y48955D01*
X90218D01*
X82756Y49917D02*
X83574D01*
X84026Y50368D01*
X84380D01*
X84793Y49955D01*
X90218D01*
X82756Y51917D02*
X83574D01*
X84026Y52368D01*
X84380D01*
X84793Y51955D01*
X90218D01*
X82756Y52917D02*
X83574D01*
X84026Y53368D01*
X84380D01*
X84793Y52955D01*
X90218D01*
X82756Y54917D02*
X83574D01*
X84026Y55368D01*
X84380D01*
X84793Y54955D01*
X90218D01*
X90256Y46917D02*
X91074D01*
X91526Y47368D01*
X91880D01*
X92293Y46955D01*
X97718D01*
X90256Y47917D02*
X91074D01*
X91526Y48368D01*
X91880D01*
X92293Y47955D01*
X97718D01*
X90256Y48917D02*
X91074D01*
X91526Y49368D01*
X91880D01*
X92293Y48955D01*
X97718D01*
X90256Y49917D02*
X91074D01*
X91526Y50368D01*
X91880D01*
X92293Y49955D01*
X97718D01*
X90256Y51917D02*
X91074D01*
X91526Y52368D01*
X91880D01*
X92293Y51955D01*
X97718D01*
X90256Y52917D02*
X91074D01*
X91526Y53368D01*
X91880D01*
X92293Y52955D01*
X97718D01*
X90256Y54917D02*
X91074D01*
X91526Y55368D01*
X91880D01*
X92293Y54955D01*
X97718D01*
X97756Y46917D02*
X98574D01*
X99026Y47368D01*
X99380D01*
X99793Y46955D01*
X105218D01*
X97756Y47917D02*
X98574D01*
X99026Y48368D01*
X99380D01*
X99793Y47955D01*
X105218D01*
X97756Y48917D02*
X98574D01*
X99026Y49368D01*
X99380D01*
X99793Y48955D01*
X105218D01*
X97756Y49917D02*
X98574D01*
X99026Y50368D01*
X99380D01*
X99793Y49955D01*
X105218D01*
X97756Y51917D02*
X98574D01*
X99026Y52368D01*
X99380D01*
X99793Y51955D01*
X105218D01*
X97756Y52917D02*
X98574D01*
X99026Y53368D01*
X99380D01*
X99793Y52955D01*
X105218D01*
X97756Y54917D02*
X98574D01*
X99026Y55368D01*
X99380D01*
X99793Y54955D01*
X105218D01*
X105256Y46917D02*
X106074D01*
X106526Y47368D01*
X106880D01*
X107293Y46955D01*
X112718D01*
X105256Y47917D02*
X106074D01*
X106526Y48368D01*
X106880D01*
X107293Y47955D01*
X112718D01*
X105256Y48917D02*
X106074D01*
X106526Y49368D01*
X106880D01*
X107293Y48955D01*
X112718D01*
X105256Y49917D02*
X106074D01*
X106526Y50368D01*
X106880D01*
X107293Y49955D01*
X112718D01*
X105256Y51917D02*
X106074D01*
X106526Y52368D01*
X106880D01*
X107293Y51955D01*
X112718D01*
X105256Y52917D02*
X106074D01*
X106526Y53368D01*
X106880D01*
X107293Y52955D01*
X112718D01*
X105256Y54917D02*
X106074D01*
X106526Y55368D01*
X106880D01*
X107293Y54955D01*
X112718D01*
X112756Y46917D02*
X113574D01*
X114026Y47368D01*
X114380D01*
X114793Y46955D01*
X120218D01*
X112756Y47917D02*
X113574D01*
X114026Y48368D01*
X114380D01*
X114793Y47955D01*
X120218D01*
X112756Y48917D02*
X113574D01*
X114026Y49368D01*
X114380D01*
X114793Y48955D01*
X120218D01*
X112756Y49917D02*
X113574D01*
X114026Y50368D01*
X114380D01*
X114793Y49955D01*
X120218D01*
X112756Y51917D02*
X113574D01*
X114026Y52368D01*
X114380D01*
X114793Y51955D01*
X120218D01*
X112756Y52917D02*
X113574D01*
X114026Y53368D01*
X114380D01*
X114793Y52955D01*
X120218D01*
X112756Y54917D02*
X113574D01*
X114026Y55368D01*
X114380D01*
X114793Y54955D01*
X120218D01*
X120256Y46917D02*
X121074D01*
X121526Y47368D01*
X121880D01*
X122293Y46955D01*
X127718D01*
X120256Y47917D02*
X121074D01*
X121526Y48368D01*
X121880D01*
X122293Y47955D01*
X127718D01*
X120256Y48917D02*
X121074D01*
X121526Y49368D01*
X121880D01*
X122293Y48955D01*
X127718D01*
X120256Y49917D02*
X121074D01*
X121526Y50368D01*
X121880D01*
X122293Y49955D01*
X127718D01*
X120256Y51917D02*
X121074D01*
X121526Y52368D01*
X121880D01*
X122293Y51955D01*
X127718D01*
X120256Y52917D02*
X121074D01*
X121526Y53368D01*
X121880D01*
X122293Y52955D01*
X127718D01*
X120256Y54917D02*
X121074D01*
X121526Y55368D01*
X121880D01*
X122293Y54955D01*
X127718D01*
X127756Y46917D02*
X128574D01*
X129026Y47368D01*
X129380D01*
X129793Y46955D01*
X135218D01*
X127756Y47917D02*
X128574D01*
X129026Y48368D01*
X129380D01*
X129793Y47955D01*
X135218D01*
X127756Y48917D02*
X128574D01*
X129026Y49368D01*
X129380D01*
X129793Y48955D01*
X135218D01*
X127756Y49917D02*
X128574D01*
X129026Y50368D01*
X129380D01*
X129793Y49955D01*
X135218D01*
X127756Y51917D02*
X128574D01*
X129026Y52368D01*
X129380D01*
X129793Y51955D01*
X135218D01*
X127756Y52917D02*
X128574D01*
X129026Y53368D01*
X129380D01*
X129793Y52955D01*
X135218D01*
X127756Y54917D02*
X128574D01*
X129026Y55368D01*
X129380D01*
X129793Y54955D01*
X135218D01*
X135256Y46917D02*
X136074D01*
X136526Y47368D01*
X136880D01*
X137293Y46955D01*
X142718D01*
X135256Y47917D02*
X136074D01*
X136526Y48368D01*
X136880D01*
X137293Y47955D01*
X142718D01*
X135256Y48917D02*
X136074D01*
X136526Y49368D01*
X136880D01*
X137293Y48955D01*
X142718D01*
X135256Y49917D02*
X136074D01*
X136526Y50368D01*
X136880D01*
X137293Y49955D01*
X142718D01*
X135256Y51917D02*
X136074D01*
X136526Y52368D01*
X136880D01*
X137293Y51955D01*
X142718D01*
X135256Y52917D02*
X136074D01*
X136526Y53368D01*
X136880D01*
X137293Y52955D01*
X142718D01*
X135256Y54917D02*
X136074D01*
X136526Y55368D01*
X136880D01*
X137293Y54955D01*
X142718D01*
X142756Y46917D02*
X143574D01*
X144026Y47368D01*
X144380D01*
X144793Y46955D01*
X150218D01*
X142756Y47917D02*
X143574D01*
X144026Y48368D01*
X144380D01*
X144793Y47955D01*
X150218D01*
X142756Y48917D02*
X143574D01*
X144026Y49368D01*
X144380D01*
X144793Y48955D01*
X150218D01*
X142756Y49917D02*
X143574D01*
X144026Y50368D01*
X144380D01*
X144793Y49955D01*
X150218D01*
X142756Y51917D02*
X143574D01*
X144026Y52368D01*
X144380D01*
X144793Y51955D01*
X150218D01*
X142756Y52917D02*
X143574D01*
X144026Y53368D01*
X144380D01*
X144793Y52955D01*
X150218D01*
X142756Y54917D02*
X143574D01*
X144026Y55368D01*
X144380D01*
X144793Y54955D01*
X150218D01*
X150256Y46917D02*
X151074D01*
X151526Y47368D01*
X151880D01*
X152293Y46955D01*
X157718D01*
X150256Y47917D02*
X151074D01*
X151526Y48368D01*
X151880D01*
X152293Y47955D01*
X157718D01*
X150256Y48917D02*
X151074D01*
X151526Y49368D01*
X151880D01*
X152293Y48955D01*
X157718D01*
X150256Y49917D02*
X151074D01*
X151526Y50368D01*
X151880D01*
X152293Y49955D01*
X157718D01*
X150256Y51917D02*
X151074D01*
X151526Y52368D01*
X151880D01*
X152293Y51955D01*
X157718D01*
X150256Y52917D02*
X151074D01*
X151526Y53368D01*
X151880D01*
X152293Y52955D01*
X157718D01*
X150256Y54917D02*
X151074D01*
X151526Y55368D01*
X151880D01*
X152293Y54955D01*
X157718D01*
X157756Y46917D02*
X158574D01*
X159026Y47368D01*
X159380D01*
X159793Y46955D01*
X165218D01*
X157756Y47917D02*
X158574D01*
X159026Y48368D01*
X159380D01*
X159793Y47955D01*
X165218D01*
X157756Y48917D02*
X158574D01*
X159026Y49368D01*
X159380D01*
X159793Y48955D01*
X165218D01*
X157756Y49917D02*
X158574D01*
X159026Y50368D01*
X159380D01*
X159793Y49955D01*
X165218D01*
X157756Y51917D02*
X158574D01*
X159026Y52368D01*
X159380D01*
X159793Y51955D01*
X165218D01*
X157756Y52917D02*
X158574D01*
X159026Y53368D01*
X159380D01*
X159793Y52955D01*
X165218D01*
X157756Y54917D02*
X158574D01*
X159026Y55368D01*
X159380D01*
X159793Y54955D01*
X165218D01*
X38976Y50591D02*
X39173Y50394D01*
Y48711D02*
Y50394D01*
X55974Y34675D02*
X56299Y35000D01*
X55974Y34183D02*
Y34675D01*
Y34183D02*
X56417Y33740D01*
X38583Y50591D02*
X38780Y50394D01*
Y48435D02*
Y50394D01*
Y48435D02*
X48307Y38907D01*
X51417D01*
X53307Y37018D01*
Y35039D02*
Y37018D01*
Y35039D02*
X53894Y34453D01*
Y33649D02*
Y34453D01*
X38189Y50197D02*
X38386Y50000D01*
Y48415D02*
Y50000D01*
Y48415D02*
X48888Y37913D01*
X49852D01*
X51378Y36388D01*
Y35000D02*
Y36388D01*
Y35000D02*
X51894Y34484D01*
Y33649D02*
Y34484D01*
X37795Y50591D02*
X37992Y50394D01*
Y48179D02*
Y50394D01*
Y48179D02*
X50325Y35846D01*
Y35030D02*
Y35846D01*
Y35030D02*
X50768Y34587D01*
Y34173D02*
Y34587D01*
X50394Y33799D02*
X50768Y34173D01*
X50394Y32899D02*
Y33799D01*
X37402Y50591D02*
X37598Y50394D01*
Y48858D02*
Y50394D01*
Y48858D02*
X37844Y48612D01*
Y46890D02*
Y48612D01*
Y46890D02*
X48346Y36388D01*
X37205Y50000D02*
X37402Y50197D01*
X37205Y46447D02*
Y50000D01*
X48819Y34262D02*
Y34547D01*
X48394Y33837D02*
X48819Y34262D01*
X48346Y35020D02*
X48819Y34547D01*
X48394Y32899D02*
Y33837D01*
X48346Y35020D02*
Y36388D01*
X47411Y35030D02*
X47894Y34547D01*
Y33649D02*
Y34547D01*
X47411Y35030D02*
Y36240D01*
X165256Y47917D02*
X166067D01*
X166500Y48350D01*
X166950D01*
X167300Y48000D01*
X169650D01*
X170000Y48350D01*
X170450D01*
X170800Y48000D01*
X171200D01*
X171611Y48411D01*
X172494D01*
X171611Y49411D02*
X172494D01*
X171200Y49000D02*
X171611Y49411D01*
X170800Y49000D02*
X171200D01*
X170500Y49300D02*
X170800Y49000D01*
X169750Y49300D02*
X170500D01*
X169450Y49000D02*
X169750Y49300D01*
X167250Y49000D02*
X169450D01*
X166950Y49300D02*
X167250Y49000D01*
X166500Y49300D02*
X166950D01*
X166117Y48917D02*
X166500Y49300D01*
X165256Y48917D02*
X166117D01*
X167550Y50000D02*
X169650D01*
X169950Y50300D01*
X170450D01*
X170750Y50000D01*
X171150D01*
X171561Y50411D01*
X172494D01*
X165256Y51917D02*
X166133D01*
X166600Y51450D01*
X166900D01*
X167300Y51850D01*
X169400D01*
X169900Y52350D01*
X170400D01*
X170800Y51950D01*
X171150D01*
X171611Y52411D01*
X172494D01*
X171611Y53411D02*
X172494D01*
X171200Y53000D02*
X171611Y53411D01*
X170750Y53000D02*
X171200D01*
X170400Y53350D02*
X170750Y53000D01*
X168100Y53350D02*
X170400D01*
X167700Y52950D02*
X168100Y53350D01*
X167350Y52950D02*
X167700D01*
X166900Y52500D02*
X167350Y52950D01*
X166550Y52500D02*
X166900D01*
X166133Y52917D02*
X166550Y52500D01*
X165256Y52917D02*
X166133D01*
X165256Y54917D02*
X166117D01*
X166550Y55350D01*
X166900D01*
X167250Y55000D01*
X169450D01*
X169750Y55300D01*
X170500D01*
X170850Y54950D01*
X171150D01*
X171611Y55411D01*
X172494D01*
X171661Y57411D02*
X172494D01*
X171250Y57000D02*
X171661Y57411D01*
X170750Y57000D02*
X171250D01*
X170450Y57300D02*
X170750Y57000D01*
X169100Y57300D02*
X170450D01*
X168750Y56950D02*
X169100Y57300D01*
X167350Y56950D02*
X168750D01*
X166950Y57350D02*
X167350Y56950D01*
X166550Y57350D02*
X166950D01*
X166117Y56917D02*
X166550Y57350D01*
X165256Y56917D02*
X166117D01*
X172483Y59400D02*
X172494Y59411D01*
X37205Y51575D02*
X37402Y51772D01*
X31201Y41339D02*
X34843Y44980D01*
X36417Y51968D02*
X36614Y51772D01*
X32087Y42815D02*
X34350Y45079D01*
X30906Y42815D02*
X32087D01*
X26673Y41929D02*
X28150Y43406D01*
Y45965D01*
X27264Y42913D02*
X27756Y43406D01*
Y45866D01*
X36811Y52362D02*
X37008Y52559D01*
X34547Y52362D02*
X36811D01*
X28150Y45965D02*
X34547Y52362D01*
X37205Y52756D02*
X37402Y52559D01*
X34646Y52756D02*
X37205D01*
X27756Y45866D02*
X34646Y52756D01*
X44488Y48819D02*
Y55217D01*
X44193Y55512D02*
X44488Y55217D01*
X41142Y55512D02*
X44193D01*
X40945Y55315D02*
X41142Y55512D01*
X166500Y49500D02*
X167050D01*
X165256Y49911D02*
X166089D01*
X166500Y49500D01*
X167050D02*
X167550Y50000D01*
X123622Y38378D02*
X124100Y37900D01*
Y37600D02*
Y37900D01*
Y37600D02*
X124604Y37096D01*
X123622Y38378D02*
Y38976D01*
X124604Y36224D02*
Y37096D01*
D43*
X169291Y59863D02*
X170244Y58911D01*
X169291Y59863D02*
Y65748D01*
X160236Y74803D02*
X169291Y65748D01*
X103937Y74803D02*
X160236D01*
X102362Y73228D02*
X103937Y74803D01*
D44*
X54134Y71949D02*
X101083D01*
X40157Y57972D02*
X54134Y71949D01*
X176500Y53700D02*
Y52500D01*
X177300D01*
X177900Y53300D02*
X178299D01*
X178499Y53100D01*
Y52500D01*
X177900D01*
X177700Y52700D01*
X177900Y52900D01*
X178499D01*
X178899Y53300D02*
Y52700D01*
X179099Y52500D01*
X179699D01*
Y52300D01*
X179499Y52100D01*
X179299D01*
X179699Y52500D02*
Y53300D01*
X180699Y52500D02*
X180299D01*
X180099Y52700D01*
Y53100D01*
X180299Y53300D01*
X180699D01*
X180899Y53100D01*
Y52900D01*
X180099D01*
X181298Y53300D02*
Y52500D01*
Y52900D01*
X181498Y53100D01*
X181698Y53300D01*
X181898D01*
X184497Y53700D02*
X184098Y53500D01*
X183698Y53100D01*
Y52700D01*
X183898Y52500D01*
X184297D01*
X184497Y52700D01*
Y52900D01*
X184297Y53100D01*
X183698D01*
D47*
X75197Y70571D02*
X104823D01*
X163189Y65453D02*
Y68898D01*
X147393Y58417D02*
X148425Y59449D01*
X148394Y59418D02*
Y70701D01*
X151575Y58465D02*
X152559D01*
X131941Y58417D02*
X134055Y60532D01*
Y59350D02*
Y69980D01*
X117078Y58417D02*
X118406Y59744D01*
X119193Y60532D01*
Y59350D02*
Y69390D01*
X104035Y59055D02*
X104384Y58707D01*
X72590Y58417D02*
X73524Y59350D01*
X72933Y59941D02*
X74409Y58465D01*
X57874Y59744D02*
X59154Y58465D01*
X57874Y59646D02*
Y67815D01*
X103248Y59843D02*
X104035Y59055D01*
X163189Y68898D02*
Y69094D01*
X166681Y58417D02*
X167506D01*
X166240Y58858D02*
X166681Y58417D01*
X165846Y58858D02*
X166240D01*
X165354Y58366D02*
X165846Y58858D01*
X160006Y58417D02*
X160057Y58366D01*
X162500D01*
X164468D02*
X165354D01*
X162500D02*
X163484Y59350D01*
X151083Y58957D02*
X151575Y58465D01*
X150886Y58957D02*
X151083D01*
X150394Y58465D02*
X150886Y58957D01*
X149409Y58465D02*
X150394D01*
X145006Y58417D02*
X147393D01*
X148425Y59449D02*
X149409Y58465D01*
X136662Y58417D02*
X137506D01*
X136220Y58858D02*
X136662Y58417D01*
X135827Y58858D02*
X136220D01*
X135433Y58465D02*
X135827Y58858D01*
X134941Y58465D02*
X135433D01*
X130006Y58417D02*
X131941D01*
X133366Y70079D02*
X133465Y69980D01*
X133268Y70079D02*
X133366D01*
X133169Y69980D02*
X133268Y70079D01*
X133169Y65551D02*
Y69980D01*
X133071Y65453D02*
X133169Y65551D01*
X132972Y65453D02*
X133071D01*
X132874Y65551D02*
X132972Y65453D01*
X132874Y65551D02*
Y69980D01*
X132776Y70079D02*
X132874Y69980D01*
X132677Y70079D02*
X132776D01*
X132579Y69980D02*
X132677Y70079D01*
X132579Y65551D02*
Y69980D01*
X132480Y65453D02*
X132579Y65551D01*
X132382Y65453D02*
X132480D01*
X132283Y65551D02*
X132382Y65453D01*
X148327Y70768D02*
X148394Y70701D01*
X147933Y70472D02*
X148032D01*
X148130Y65354D02*
Y70669D01*
X148032Y65256D02*
X148130Y65354D01*
X147933Y65256D02*
X148032D01*
X147835Y65354D02*
X147933Y65256D01*
X148130Y70669D02*
X148228Y70768D01*
X121603Y58417D02*
X122506D01*
X121161Y58858D02*
X121603Y58417D01*
X120866Y58858D02*
X121161D01*
X120472Y58465D02*
X120866Y58858D01*
X115008Y58417D02*
X117078D01*
X120079Y58465D02*
X120472D01*
X118504Y69488D02*
X118602Y69390D01*
X118406Y69488D02*
X118504D01*
X118307Y69390D02*
X118406Y69488D01*
X117913D02*
X118012Y69390D01*
X117815Y69488D02*
X117913D01*
X117717Y69390D02*
X117815Y69488D01*
X117323D02*
X117421Y69390D01*
X117224Y69488D02*
X117323D01*
X117126Y69390D02*
X117224Y69488D01*
X116732D02*
X116831Y69390D01*
X116634Y69488D02*
X116732D01*
X116535Y69390D02*
X116634Y69488D01*
X114272Y69783D02*
X116240Y67815D01*
X113287Y69783D02*
X114272D01*
X106642Y58417D02*
X107506D01*
X106201Y58858D02*
X106642Y58417D01*
X105807Y58858D02*
X106201D01*
X105413Y58465D02*
X105807Y58858D01*
X104626Y58465D02*
X105413D01*
X100006Y58417D02*
X101823D01*
X104384Y58707D02*
X104626Y58465D01*
X102362Y61909D02*
X102461Y61811D01*
X102559D01*
X102657Y61909D01*
X102953D02*
X103051Y61811D01*
X103150D01*
X103248Y61909D01*
X103543D02*
X103642Y61811D01*
X103740D01*
X103839Y61909D01*
Y68504D01*
X101823Y58417D02*
X103248Y59843D01*
X103288Y59802D01*
X55006Y58417D02*
X56645D01*
X57874Y59646D01*
X61220Y71161D02*
X102165D01*
X59154Y58465D02*
X60433D01*
X60827Y58858D01*
X61220D01*
X61662Y58417D01*
X62506D01*
X76622D02*
X77506D01*
X76083Y58957D02*
X76622Y58417D01*
X75886Y58957D02*
X76083D01*
X75394Y58465D02*
X75886Y58957D01*
X74409Y58465D02*
X75394D01*
X70006Y58417D02*
X72590D01*
X73524Y69094D02*
X73622Y69193D01*
X73720D01*
X73819Y69094D01*
Y62795D02*
Y69094D01*
Y62795D02*
X73917Y62697D01*
X74016D01*
X74114Y62795D01*
Y69488D01*
X75197Y70571D01*
X85006Y58417D02*
X86074D01*
X87205Y59547D01*
Y69587D02*
X87303Y69685D01*
X87402D01*
X87500Y69587D01*
Y65059D02*
Y69587D01*
Y65059D02*
X87598Y64961D01*
X87697D01*
X87795Y65059D01*
Y69587D01*
X87894Y69685D01*
X87992D01*
X88091Y69587D01*
Y65059D02*
Y69587D01*
Y65059D02*
X88189Y64961D01*
X88287D01*
X88386Y65059D01*
Y69587D01*
X88484Y69685D01*
X88583D01*
X88681Y69587D01*
Y65059D02*
Y69587D01*
Y65059D02*
X88780Y64961D01*
X88878D01*
X88976Y65059D01*
X102067Y68898D02*
X102165Y68996D01*
X102264D01*
X102362Y68898D01*
Y61909D02*
Y68898D01*
X102657D02*
X102756Y68996D01*
X102854D01*
X102953Y68898D01*
X102657Y61909D02*
Y68898D01*
X102953Y61909D02*
Y68898D01*
X103248D02*
X103346Y68996D01*
X103445D01*
X103543Y68898D01*
X103248Y61909D02*
Y68898D01*
X103543Y61909D02*
Y68898D01*
X163386Y69193D02*
X163527Y69052D01*
X163287Y69193D02*
X163386D01*
X163189Y69094D02*
X163287Y69193D01*
X162992Y65354D02*
X163091D01*
X162894Y65453D02*
X162992Y65354D01*
X163091D02*
X163189Y65453D01*
X160433Y71752D02*
X162894Y69291D01*
X163527Y59307D02*
Y69052D01*
X162894Y65453D02*
Y69291D01*
X114075Y71752D02*
X160433D01*
X163484Y59350D02*
X164468Y58366D01*
X147736Y70768D02*
X147835Y70669D01*
X147343Y70472D02*
X147441D01*
X147539Y70669D02*
X147638Y70768D01*
X147441Y65256D02*
X147539Y65354D01*
X147343Y65256D02*
X147441D01*
X147244Y65354D02*
X147343Y65256D01*
X147539Y65354D02*
Y70669D01*
X147835Y65354D02*
Y70669D01*
X113583Y71063D02*
X146260D01*
X147244Y70079D01*
Y65354D02*
Y70079D01*
X133563Y65453D02*
X133661D01*
X133760Y65551D01*
Y69980D01*
X133858Y70079D01*
X133957D01*
X134055Y69980D01*
Y59350D02*
X134941Y58465D01*
X133465Y65551D02*
Y69980D01*
Y65551D02*
X133563Y65453D01*
X132185Y70079D02*
X132283Y69980D01*
X132087Y70079D02*
X132185D01*
X131988Y65551D02*
Y69980D01*
X131890Y65453D02*
X131988Y65551D01*
X131791Y65453D02*
X131890D01*
X131693Y65551D02*
X131791Y65453D01*
X131693Y65551D02*
Y69783D01*
X131102Y70374D02*
X131693Y69783D01*
X113386Y70374D02*
X131102D01*
X132283Y65551D02*
Y69980D01*
X131988D02*
X132087Y70079D01*
X116240Y64567D02*
X116339Y64468D01*
X116437D01*
X116535Y64567D01*
X116240Y64567D02*
Y67815D01*
X116535Y64567D02*
Y69390D01*
X116831Y64567D02*
X116929Y64468D01*
X117028D01*
X117126Y64567D01*
X116831D02*
Y69390D01*
X117126Y64567D02*
Y69390D01*
X117421Y64567D02*
X117520Y64468D01*
X117618D01*
X117717Y64567D01*
X117421D02*
Y69390D01*
X117717Y64567D02*
Y69390D01*
X118012Y64567D02*
X118110Y64468D01*
X118209D01*
X118307Y64567D01*
X118012D02*
Y69390D01*
X118307Y64567D02*
Y69390D01*
X118701Y64468D02*
X118799D01*
X118898Y64567D01*
Y69390D01*
X118996Y69488D01*
X119094D01*
X119193Y69390D01*
Y59350D02*
X119393Y59150D01*
X119393D02*
X120079Y58465D01*
X118602Y64567D02*
Y69390D01*
Y64567D02*
X118701Y64468D01*
X101870Y61811D02*
X101968D01*
X101772Y61909D02*
X101870Y61811D01*
X102756Y60335D02*
X103248Y59843D01*
X101968Y61811D02*
X102067Y61909D01*
X101476Y61614D02*
X102756Y60335D01*
X102067Y61909D02*
Y68898D01*
X101673Y67618D02*
X101772Y67520D01*
X101575Y67618D02*
X101673D01*
X101476Y67520D02*
X101575Y67618D01*
X101476Y61614D02*
Y67520D01*
X101772Y61909D02*
Y67520D01*
X88976Y69587D02*
X89075Y69685D01*
X89173D01*
X89272Y65059D02*
Y69587D01*
Y65059D02*
X89370Y64961D01*
X89468D01*
X89567Y65059D01*
X88976D02*
Y69587D01*
X89173Y69685D02*
X89272Y69587D01*
X89567Y68898D02*
X90650Y69980D01*
X104724D01*
X89567Y65059D02*
Y68898D01*
X73327Y62697D02*
X73425D01*
X73228Y62795D02*
X73327Y62697D01*
X73228Y62795D02*
Y69094D01*
X73130Y69193D02*
X73228Y69094D01*
X73032Y69193D02*
X73130D01*
X72933Y69094D02*
X73032Y69193D01*
X72933Y59941D02*
Y69094D01*
X73425Y62697D02*
X73524Y62795D01*
Y69094D01*
X57874Y67815D02*
X57972Y67913D01*
X58071D02*
X58169Y67815D01*
Y61909D02*
Y67815D01*
Y61909D02*
X58268Y61811D01*
X58366D01*
X58465Y61909D01*
Y68406D01*
X58723Y68664D01*
X57972Y67913D02*
X58071D01*
X58723Y68664D02*
X61220Y71161D01*
X88287Y58465D02*
X90453D01*
X90846Y58858D01*
X91240D01*
X91732Y58366D01*
X87205Y59547D02*
X88287Y58465D01*
X87205Y59547D02*
Y69587D01*
X91732Y58366D02*
X92520D01*
D49*
X60894Y33649D02*
D03*
X59894D02*
D03*
X125601Y36224D02*
D03*
X129101Y36974D02*
D03*
X131101D02*
D03*
X123601Y36224D02*
D03*
X124601D02*
D03*
X56394Y32899D02*
D03*
X53894Y33649D02*
D03*
X50394Y32899D02*
D03*
X51894Y33649D02*
D03*
X48394Y32899D02*
D03*
X47894Y33649D02*
D03*
X167506Y58411D02*
D03*
X165256Y56911D02*
D03*
Y54911D02*
D03*
Y52911D02*
D03*
X166756Y45911D02*
D03*
X165256Y51911D02*
D03*
Y49911D02*
D03*
Y48911D02*
D03*
Y47911D02*
D03*
Y46911D02*
D03*
X160006Y58411D02*
D03*
X157756Y56911D02*
D03*
Y54911D02*
D03*
Y52911D02*
D03*
X159256Y45911D02*
D03*
X157756Y51911D02*
D03*
Y49911D02*
D03*
Y48911D02*
D03*
Y47911D02*
D03*
Y46911D02*
D03*
X152506Y58411D02*
D03*
X150256Y56911D02*
D03*
Y54911D02*
D03*
Y52911D02*
D03*
X151756Y45911D02*
D03*
X150256Y51911D02*
D03*
Y49911D02*
D03*
Y48911D02*
D03*
Y47911D02*
D03*
Y46911D02*
D03*
X145006Y58411D02*
D03*
X142756Y56911D02*
D03*
Y54911D02*
D03*
Y52911D02*
D03*
X144256Y45911D02*
D03*
X142756Y51911D02*
D03*
Y49911D02*
D03*
Y48911D02*
D03*
Y47911D02*
D03*
Y46911D02*
D03*
X137506Y58411D02*
D03*
X135256Y56911D02*
D03*
Y54911D02*
D03*
Y52911D02*
D03*
X136756Y45911D02*
D03*
X135256Y51911D02*
D03*
Y49911D02*
D03*
Y48911D02*
D03*
Y47911D02*
D03*
Y46911D02*
D03*
X130006Y58411D02*
D03*
X127756Y56911D02*
D03*
Y54911D02*
D03*
Y52911D02*
D03*
X129256Y45911D02*
D03*
X127756Y51911D02*
D03*
Y49911D02*
D03*
Y48911D02*
D03*
Y47911D02*
D03*
Y46911D02*
D03*
X122506Y58411D02*
D03*
X120256Y56911D02*
D03*
Y54911D02*
D03*
Y52911D02*
D03*
X121756Y45911D02*
D03*
X120256Y51911D02*
D03*
Y49911D02*
D03*
Y48911D02*
D03*
Y47911D02*
D03*
Y46911D02*
D03*
X115006Y58411D02*
D03*
X112756Y56911D02*
D03*
Y54911D02*
D03*
Y52911D02*
D03*
X114256Y45911D02*
D03*
X112756Y51911D02*
D03*
Y49911D02*
D03*
Y48911D02*
D03*
Y47911D02*
D03*
Y46911D02*
D03*
X107506Y58411D02*
D03*
X105256Y56911D02*
D03*
Y54911D02*
D03*
Y52911D02*
D03*
X106756Y45911D02*
D03*
X105256Y51911D02*
D03*
Y49911D02*
D03*
Y48911D02*
D03*
Y47911D02*
D03*
Y46911D02*
D03*
X100006Y58411D02*
D03*
X97756Y56911D02*
D03*
Y54911D02*
D03*
Y52911D02*
D03*
X99256Y45911D02*
D03*
X97756Y51911D02*
D03*
Y49911D02*
D03*
Y48911D02*
D03*
Y47911D02*
D03*
Y46911D02*
D03*
X92506Y58411D02*
D03*
X90256Y56911D02*
D03*
Y54911D02*
D03*
Y52911D02*
D03*
X91756Y45911D02*
D03*
X90256Y51911D02*
D03*
Y49911D02*
D03*
Y48911D02*
D03*
Y47911D02*
D03*
Y46911D02*
D03*
X85006Y58411D02*
D03*
X82756Y56911D02*
D03*
Y54911D02*
D03*
Y52911D02*
D03*
Y51911D02*
D03*
Y49911D02*
D03*
Y48911D02*
D03*
Y47911D02*
D03*
Y46911D02*
D03*
X77506Y58411D02*
D03*
X75256Y56911D02*
D03*
Y54911D02*
D03*
Y52911D02*
D03*
Y51911D02*
D03*
Y49911D02*
D03*
Y48911D02*
D03*
Y47911D02*
D03*
Y46911D02*
D03*
X70006Y58411D02*
D03*
X67756Y56911D02*
D03*
Y54911D02*
D03*
Y52911D02*
D03*
Y51911D02*
D03*
Y49911D02*
D03*
Y48911D02*
D03*
Y47911D02*
D03*
Y46911D02*
D03*
X62506Y58411D02*
D03*
X60256Y56911D02*
D03*
Y54911D02*
D03*
Y52911D02*
D03*
Y51911D02*
D03*
Y49911D02*
D03*
Y48911D02*
D03*
Y47911D02*
D03*
Y46911D02*
D03*
Y60911D02*
D03*
X55006Y58411D02*
D03*
X52756Y56911D02*
D03*
Y54911D02*
D03*
Y52911D02*
D03*
Y51911D02*
D03*
Y49911D02*
D03*
Y48911D02*
D03*
Y47911D02*
D03*
Y46911D02*
D03*
X172494Y48411D02*
D03*
Y49411D02*
D03*
Y50411D02*
D03*
Y52411D02*
D03*
Y53411D02*
D03*
Y55411D02*
D03*
Y57411D02*
D03*
Y59411D02*
D03*
X170244Y58911D02*
D03*
D57*
X129626Y35630D02*
D03*
X92520Y73032D02*
D03*
X89075Y72539D02*
D03*
X83366D02*
D03*
X33661Y56398D02*
D03*
X34055Y56988D02*
D03*
X34449Y57087D02*
D03*
X40945Y50197D02*
D03*
Y50591D02*
D03*
X42421Y57480D02*
D03*
X40945Y55315D02*
D03*
X41732Y49409D02*
D03*
X44390Y47835D02*
D03*
X44390Y48130D02*
D03*
Y60039D02*
D03*
X40945Y56102D02*
D03*
X40157Y57972D02*
D03*
X43110Y59449D02*
D03*
X42815Y59154D02*
D03*
X41339Y56496D02*
D03*
Y56102D02*
D03*
X42815Y58563D02*
D03*
X42520Y58268D02*
D03*
X41732Y56496D02*
D03*
Y56102D02*
D03*
X38189Y50197D02*
D03*
X37402D02*
D03*
X38976Y50591D02*
D03*
X38583D02*
D03*
X37795D02*
D03*
X37402D02*
D03*
X36614Y51772D02*
D03*
X37008Y52559D02*
D03*
X37402Y51772D02*
D03*
Y52559D02*
D03*
X31201Y41339D02*
D03*
X30906Y42815D02*
D03*
X26673Y41929D02*
D03*
X27264Y42913D02*
D03*
X114075Y71752D02*
D03*
X113583Y71063D02*
D03*
X113386Y70374D02*
D03*
X113287Y69783D02*
D03*
X103839Y68504D02*
D03*
X102165Y71161D02*
D03*
X104823Y70571D02*
D03*
X104724Y69980D02*
D03*
X102362Y73228D02*
D03*
X101083Y71949D02*
D03*
X44488Y48819D02*
D03*
D58*
X129104Y31761D02*
D03*
M02*
