%FSLAX24Y24*%
%MOIN*%
G70*
G01*
G75*
G04 Layer_Color=16711935*
G04 Layer_Color=16711935*
%ADD10R,0.0394X0.0433*%
%ADD11R,0.0374X0.0335*%
%ADD12R,0.0374X0.0335*%
%ADD13R,0.0433X0.0394*%
%ADD14R,0.0610X0.0197*%
%ADD15R,0.0945X0.1024*%
%ADD16R,0.0630X0.0709*%
%ADD17C,0.0197*%
%ADD18R,0.0610X0.0197*%
%ADD19R,0.0197X0.0610*%
%ADD20R,0.1024X0.0945*%
%ADD21R,0.3000X0.2900*%
%ADD22R,0.1500X0.0500*%
%ADD23R,0.1102X0.1024*%
%ADD24R,0.0394X0.1496*%
%ADD25R,0.1496X0.0394*%
%ADD26R,0.1575X0.0335*%
%ADD27R,0.0551X0.0787*%
%ADD28R,0.0630X0.0512*%
%ADD29C,0.0130*%
%ADD30R,0.0709X0.0630*%
%ADD31R,0.0571X0.0197*%
%ADD32C,0.0400*%
%ADD33R,0.0276X0.0354*%
%ADD34C,0.0110*%
%ADD35C,0.0080*%
%ADD36C,0.0100*%
%ADD37C,0.0150*%
%ADD38C,0.0060*%
%ADD39C,0.0160*%
%ADD40C,0.0200*%
%ADD41C,0.0300*%
%ADD42C,0.0180*%
%ADD43C,0.0240*%
%ADD44C,0.0120*%
%ADD45R,0.0591X0.0591*%
%ADD46C,0.0591*%
%ADD47C,0.0500*%
%ADD48C,0.1750*%
%ADD49C,0.0669*%
%ADD50C,0.1063*%
%ADD51C,0.0800*%
%ADD52C,0.1300*%
%ADD53C,0.0600*%
%ADD54C,0.0200*%
%ADD55C,0.0300*%
%ADD56O,0.0394X0.1083*%
%ADD57R,0.0394X0.1083*%
%ADD58R,0.0354X0.0276*%
%ADD59R,0.0500X0.1449*%
%ADD60R,0.0354X0.0945*%
%ADD61C,0.0098*%
%ADD62C,0.0039*%
%ADD63C,0.0079*%
%ADD64C,0.0040*%
%ADD65C,0.0070*%
%ADD66C,0.0600*%
%ADD67C,0.0090*%
%ADD68R,0.1575X0.0098*%
%ADD69R,0.0474X0.0513*%
%ADD70R,0.0454X0.0415*%
%ADD71R,0.0454X0.0415*%
%ADD72R,0.0513X0.0474*%
%ADD73R,0.0690X0.0277*%
%ADD74R,0.1025X0.1104*%
%ADD75R,0.0710X0.0789*%
%ADD76C,0.0277*%
%ADD77R,0.0690X0.0277*%
%ADD78R,0.0277X0.0690*%
%ADD79R,0.1104X0.1025*%
%ADD80R,0.3080X0.2980*%
%ADD81R,0.1580X0.0580*%
%ADD82R,0.1182X0.1104*%
%ADD83R,0.0474X0.1576*%
%ADD84R,0.1576X0.0474*%
%ADD85R,0.1655X0.0415*%
%ADD86R,0.0631X0.0867*%
%ADD87R,0.0710X0.0592*%
%ADD88C,0.0248*%
%ADD89R,0.0789X0.0710*%
%ADD90R,0.0651X0.0277*%
%ADD91C,0.1000*%
%ADD92R,0.0356X0.0434*%
%ADD93R,0.0671X0.0671*%
%ADD94C,0.0671*%
%ADD95C,0.0580*%
%ADD96C,0.2350*%
%ADD97C,0.0749*%
%ADD98C,0.1143*%
%ADD99C,0.0880*%
%ADD100C,0.1900*%
%ADD101C,0.0680*%
%ADD102C,0.0280*%
%ADD103C,0.0380*%
%ADD104C,0.0480*%
%ADD105O,0.0474X0.1163*%
%ADD106R,0.0474X0.1163*%
%ADD107R,0.0434X0.0356*%
%ADD108R,0.0580X0.1529*%
%ADD109R,0.0434X0.1025*%
D69*
X102362Y35256D02*
D03*
Y35925D02*
D03*
X102441Y34193D02*
D03*
Y33524D02*
D03*
X97638Y37461D02*
D03*
Y38130D02*
D03*
X98425Y41043D02*
D03*
Y40374D02*
D03*
X92126Y46594D02*
D03*
Y47264D02*
D03*
X91890Y44783D02*
D03*
Y45453D02*
D03*
X99764Y44862D02*
D03*
Y45532D02*
D03*
X98032Y48366D02*
D03*
Y47697D02*
D03*
D72*
X95335Y46457D02*
D03*
X96004D02*
D03*
X90610Y37323D02*
D03*
X91280D02*
D03*
X93799Y32992D02*
D03*
X93130D02*
D03*
X92028Y42362D02*
D03*
X92697D02*
D03*
X91831Y42992D02*
D03*
X91161D02*
D03*
D75*
X29249Y40800D02*
D03*
X30351D02*
D03*
X24980Y62800D02*
D03*
X26082D02*
D03*
D89*
X42300Y35251D02*
D03*
Y34149D02*
D03*
D91*
X103000Y49000D02*
D03*
X88000Y37000D02*
D03*
X155000D02*
D03*
Y71000D02*
D03*
X31000Y46000D02*
D03*
D92*
X105118Y35610D02*
D03*
Y35098D02*
D03*
X90472Y42185D02*
D03*
Y42697D02*
D03*
X91339Y43681D02*
D03*
Y44193D02*
D03*
X90866Y46358D02*
D03*
Y46870D02*
D03*
X93307Y47461D02*
D03*
Y46949D02*
D03*
X90315Y39272D02*
D03*
Y38760D02*
D03*
X99370Y41752D02*
D03*
Y41240D02*
D03*
X93307Y39468D02*
D03*
Y38957D02*
D03*
X96063Y45137D02*
D03*
Y45649D02*
D03*
X97244Y47776D02*
D03*
Y47264D02*
D03*
D93*
X21900Y73900D02*
D03*
X45400Y75000D02*
D03*
X30100Y36700D02*
D03*
D94*
X21900Y74900D02*
D03*
X45400Y74000D02*
D03*
Y73000D02*
D03*
X29100Y36700D02*
D03*
D95*
X62969Y73900D02*
D03*
X59032D02*
D03*
X37362Y54567D02*
D03*
X39682Y53074D02*
D03*
X44843Y54567D02*
D03*
X39685Y56063D02*
D03*
X47168Y53074D02*
D03*
X52330Y54574D02*
D03*
X47126Y56063D02*
D03*
X54721Y53074D02*
D03*
X59882Y54606D02*
D03*
X54724Y56063D02*
D03*
X62283Y53071D02*
D03*
X67359Y53074D02*
D03*
X62205Y56063D02*
D03*
X67369Y54574D02*
D03*
X69724Y56063D02*
D03*
X77205Y53071D02*
D03*
X74921Y54567D02*
D03*
X82330Y54574D02*
D03*
X84649Y53074D02*
D03*
X89843Y54567D02*
D03*
X77283Y56102D02*
D03*
X84685Y56063D02*
D03*
X89567D02*
D03*
X90512Y52598D02*
D03*
X99803Y54626D02*
D03*
X105433Y52559D02*
D03*
X99688Y53074D02*
D03*
X99764Y56063D02*
D03*
X104843Y54567D02*
D03*
X112362Y52717D02*
D03*
X112409Y54574D02*
D03*
X107165Y56063D02*
D03*
X114724Y56102D02*
D03*
X119843Y52913D02*
D03*
X119882Y54606D02*
D03*
X122154Y56074D02*
D03*
X127405Y53074D02*
D03*
X127316Y54574D02*
D03*
X129646Y56063D02*
D03*
X134803Y52874D02*
D03*
X134843Y54567D02*
D03*
X137165Y56063D02*
D03*
X142365Y53074D02*
D03*
X142330Y54574D02*
D03*
X142323Y56063D02*
D03*
X152250Y53000D02*
D03*
X149843Y54567D02*
D03*
X152165Y56063D02*
D03*
D96*
X25000Y74000D02*
D03*
X69000D02*
D03*
X114500D02*
D03*
X157000D02*
D03*
X36000Y47500D02*
D03*
X66000D02*
D03*
X124000D02*
D03*
X157000D02*
D03*
D97*
X96968Y71394D02*
D03*
X91917Y71000D02*
D03*
X107969Y71394D02*
D03*
X102917Y71000D02*
D03*
X80917D02*
D03*
X85969Y71394D02*
D03*
D98*
X143900Y51700D02*
D03*
Y66948D02*
D03*
X136400Y51700D02*
D03*
Y66948D02*
D03*
X128900Y51700D02*
D03*
Y66948D02*
D03*
X151400Y51700D02*
D03*
Y66948D02*
D03*
X106400Y51700D02*
D03*
Y66948D02*
D03*
X98900Y51700D02*
D03*
Y66948D02*
D03*
X121400Y51700D02*
D03*
Y66948D02*
D03*
X113900Y51700D02*
D03*
Y66948D02*
D03*
X76400Y51700D02*
D03*
Y66948D02*
D03*
X68900Y51700D02*
D03*
Y66948D02*
D03*
X91400Y51700D02*
D03*
Y66948D02*
D03*
X83900Y51700D02*
D03*
Y66948D02*
D03*
X46400Y51700D02*
D03*
Y66948D02*
D03*
X38900Y51700D02*
D03*
Y66948D02*
D03*
X61400Y51700D02*
D03*
Y66948D02*
D03*
X53900Y51700D02*
D03*
Y66948D02*
D03*
D99*
X110108Y32884D02*
D03*
X112608D02*
D03*
X113858D02*
D03*
Y39134D02*
D03*
X110108Y39084D02*
D03*
X25900Y32800D02*
D03*
X24250D02*
D03*
X25900Y34970D02*
D03*
X24250D02*
D03*
X44705Y36850D02*
D03*
X43455D02*
D03*
X42205D02*
D03*
X35955D02*
D03*
Y41850D02*
D03*
X42205D02*
D03*
X43455D02*
D03*
X44705D02*
D03*
X48455D02*
D03*
Y36850D02*
D03*
X27323Y40837D02*
D03*
X32323D02*
D03*
Y44587D02*
D03*
Y45837D02*
D03*
Y47087D02*
D03*
Y53337D02*
D03*
X27323D02*
D03*
Y47087D02*
D03*
Y45837D02*
D03*
Y44587D02*
D03*
Y61181D02*
D03*
Y62431D02*
D03*
Y63681D02*
D03*
Y69931D02*
D03*
X32323D02*
D03*
Y63681D02*
D03*
Y62431D02*
D03*
Y61181D02*
D03*
Y57431D02*
D03*
X27323D02*
D03*
D100*
X22400Y34790D02*
D03*
X27750D02*
D03*
D101*
X84750Y37800D02*
D03*
Y36800D02*
D03*
X83750Y37800D02*
D03*
X82750D02*
D03*
X81750D02*
D03*
X80750D02*
D03*
X79750D02*
D03*
X78750D02*
D03*
X77750D02*
D03*
X76750D02*
D03*
X75750D02*
D03*
X74750D02*
D03*
X73750D02*
D03*
X72750D02*
D03*
X71750D02*
D03*
X70750D02*
D03*
X69750D02*
D03*
X68750D02*
D03*
X67750D02*
D03*
X66750D02*
D03*
X65750D02*
D03*
X64750D02*
D03*
X63750D02*
D03*
X62750D02*
D03*
X61750D02*
D03*
X60750D02*
D03*
X59750D02*
D03*
X58750D02*
D03*
X57750D02*
D03*
X83750Y36800D02*
D03*
X82750D02*
D03*
X81750D02*
D03*
X80750D02*
D03*
X79750D02*
D03*
X78750D02*
D03*
X77750D02*
D03*
X76750D02*
D03*
X75750D02*
D03*
X74750D02*
D03*
X73750D02*
D03*
X72750D02*
D03*
X71750D02*
D03*
X70750D02*
D03*
X69750D02*
D03*
X68750D02*
D03*
X67750D02*
D03*
X66750D02*
D03*
X65750D02*
D03*
X64750D02*
D03*
X63750D02*
D03*
X62750D02*
D03*
X61750D02*
D03*
X60750D02*
D03*
X59750D02*
D03*
X58750D02*
D03*
X57750D02*
D03*
X34800Y74800D02*
D03*
X33800D02*
D03*
X32800D02*
D03*
X28700D02*
D03*
X29700D02*
D03*
X30700D02*
D03*
D102*
X32382Y37894D02*
D03*
X76772Y72146D02*
D03*
X60532Y72047D02*
D03*
X76476Y72539D02*
D03*
X58661Y72146D02*
D03*
X63681Y73917D02*
D03*
X62303D02*
D03*
X61780Y73949D02*
D03*
X60992D02*
D03*
X60205D02*
D03*
X59646Y73917D02*
D03*
X58366D02*
D03*
X62399Y71065D02*
D03*
X61780Y72276D02*
D03*
X60138Y72146D02*
D03*
X59154D02*
D03*
X58700Y70237D02*
D03*
X59700Y69532D02*
D03*
X32265Y39094D02*
D03*
X76870Y74606D02*
D03*
X95669Y45669D02*
D03*
X71850Y70079D02*
D03*
X75343Y74457D02*
D03*
X74606Y70866D02*
D03*
X75000Y70571D02*
D03*
X75619Y74143D02*
D03*
X75591Y73425D02*
D03*
X75787Y70669D02*
D03*
X72441Y66831D02*
D03*
X75000Y68209D02*
D03*
X72244Y72835D02*
D03*
X75394Y72244D02*
D03*
X75689D02*
D03*
X74114Y72146D02*
D03*
X73720Y73524D02*
D03*
X74125Y73828D02*
D03*
X51476Y75984D02*
D03*
X74128Y74691D02*
D03*
X50492Y76181D02*
D03*
X49508Y76083D02*
D03*
X73813Y75006D02*
D03*
X52500Y76122D02*
D03*
X53500Y76039D02*
D03*
X71950Y75885D02*
D03*
X55020Y76083D02*
D03*
X71842Y75402D02*
D03*
X56496Y75098D02*
D03*
X71665Y75087D02*
D03*
X72146Y52264D02*
D03*
X94882Y40157D02*
D03*
X94488D02*
D03*
Y39764D02*
D03*
X94094D02*
D03*
X100492Y40157D02*
D03*
X100699Y33888D02*
D03*
X103642Y38878D02*
D03*
X94291Y32972D02*
D03*
X93110Y33366D02*
D03*
X100984Y40748D02*
D03*
X97244Y37461D02*
D03*
X97244Y38189D02*
D03*
X99606Y40157D02*
D03*
X100000Y40551D02*
D03*
X96850D02*
D03*
X96457D02*
D03*
X98032Y39370D02*
D03*
X98425D02*
D03*
X98819D02*
D03*
X98032Y40157D02*
D03*
X99606Y40551D02*
D03*
X96358Y32087D02*
D03*
X97480Y32047D02*
D03*
X96457Y34547D02*
D03*
X97441Y34350D02*
D03*
X98032Y38583D02*
D03*
X97638Y35728D02*
D03*
X96654Y37598D02*
D03*
X96260Y37598D02*
D03*
X95866Y37402D02*
D03*
X94783Y36516D02*
D03*
X93307Y35728D02*
D03*
X93406Y35335D02*
D03*
X94291Y36122D02*
D03*
X93701Y39370D02*
D03*
X82874Y40453D02*
D03*
X92520Y39370D02*
D03*
X92126D02*
D03*
X91732D02*
D03*
X91339D02*
D03*
X93110Y36811D02*
D03*
X93504Y37303D02*
D03*
X92913Y38976D02*
D03*
X92520Y38583D02*
D03*
Y38976D02*
D03*
X92126D02*
D03*
Y38583D02*
D03*
X91732D02*
D03*
X91339D02*
D03*
X91732Y38976D02*
D03*
X91339D02*
D03*
X90945D02*
D03*
X91339Y39764D02*
D03*
X90945D02*
D03*
X91339Y40157D02*
D03*
X90945D02*
D03*
X91339Y40551D02*
D03*
X90945D02*
D03*
X91732Y46850D02*
D03*
X98130Y48819D02*
D03*
X100492Y42717D02*
D03*
X96063Y47244D02*
D03*
X91732Y37697D02*
D03*
X98425Y46457D02*
D03*
X95276Y44488D02*
D03*
X100492Y43110D02*
D03*
X95669Y45276D02*
D03*
X94094Y37697D02*
D03*
X90059Y43110D02*
D03*
X90551Y44094D02*
D03*
X89491Y43875D02*
D03*
X90945Y43701D02*
D03*
X89635Y44125D02*
D03*
X90945Y44094D02*
D03*
X97244Y45669D02*
D03*
X91732Y41339D02*
D03*
X91339Y44488D02*
D03*
X92913Y47244D02*
D03*
X96457Y40945D02*
D03*
X96850D02*
D03*
X92520Y42913D02*
D03*
Y43701D02*
D03*
X98425Y44488D02*
D03*
Y42913D02*
D03*
Y41732D02*
D03*
X98032Y40551D02*
D03*
X92520Y41339D02*
D03*
X93307Y44094D02*
D03*
X93701D02*
D03*
Y44488D02*
D03*
X95276Y41339D02*
D03*
X96457Y42126D02*
D03*
Y42520D02*
D03*
X96063D02*
D03*
Y43307D02*
D03*
X96457D02*
D03*
X96850Y43701D02*
D03*
X96457D02*
D03*
Y44488D02*
D03*
X96063Y44094D02*
D03*
Y44488D02*
D03*
X95669D02*
D03*
Y44094D02*
D03*
Y43701D02*
D03*
X93701Y43307D02*
D03*
X94094D02*
D03*
X94882Y44882D02*
D03*
Y44488D02*
D03*
X94488D02*
D03*
X94094D02*
D03*
X94488Y44094D02*
D03*
X94882D02*
D03*
Y43701D02*
D03*
X93701D02*
D03*
X94094D02*
D03*
X94488Y43307D02*
D03*
X94882Y41339D02*
D03*
X94488D02*
D03*
X94094D02*
D03*
X93701D02*
D03*
Y42126D02*
D03*
X94094D02*
D03*
X93701Y42520D02*
D03*
X94094D02*
D03*
X94488D02*
D03*
X94882Y41732D02*
D03*
X94488D02*
D03*
X95669D02*
D03*
Y42126D02*
D03*
X94882D02*
D03*
Y42520D02*
D03*
Y43307D02*
D03*
X95669D02*
D03*
Y42520D02*
D03*
X69587Y57579D02*
D03*
X69094Y50295D02*
D03*
X82283Y40354D02*
D03*
X70965Y54331D02*
D03*
X94882Y40551D02*
D03*
Y40945D02*
D03*
X94488Y40551D02*
D03*
X99213Y44094D02*
D03*
X74803Y66240D02*
D03*
X76280Y45866D02*
D03*
X73622Y46063D02*
D03*
X75197Y46358D02*
D03*
X94094Y46063D02*
D03*
Y46850D02*
D03*
X94488D02*
D03*
Y46457D02*
D03*
X92520Y46063D02*
D03*
X95669Y44882D02*
D03*
X96457Y46457D02*
D03*
X94488Y45669D02*
D03*
X95276Y46063D02*
D03*
X90551Y39764D02*
D03*
X95276Y45669D02*
D03*
X91634Y48917D02*
D03*
X94882Y45669D02*
D03*
X94488Y46063D02*
D03*
X90059Y41240D02*
D03*
X90551Y41339D02*
D03*
X90157Y40945D02*
D03*
X90945Y41339D02*
D03*
X91339D02*
D03*
X93307Y39764D02*
D03*
X93701Y38583D02*
D03*
X92126Y39764D02*
D03*
X100000Y37795D02*
D03*
X95079Y37697D02*
D03*
X95472Y37697D02*
D03*
X96063Y38583D02*
D03*
X94488Y38189D02*
D03*
X118799Y66634D02*
D03*
X96457Y38189D02*
D03*
X114862Y66339D02*
D03*
X94882Y46063D02*
D03*
X96063D02*
D03*
X97244Y46850D02*
D03*
X97638Y47638D02*
D03*
X98819D02*
D03*
X97638Y46457D02*
D03*
X100000Y46063D02*
D03*
X98819D02*
D03*
X99606Y42126D02*
D03*
X100000Y43701D02*
D03*
X98819Y44094D02*
D03*
Y42126D02*
D03*
X93701Y40551D02*
D03*
X94094D02*
D03*
X93307Y38189D02*
D03*
X91732Y39764D02*
D03*
X93307Y40551D02*
D03*
X92913Y40945D02*
D03*
Y40551D02*
D03*
X93307Y43701D02*
D03*
Y43307D02*
D03*
Y42520D02*
D03*
Y42126D02*
D03*
Y41732D02*
D03*
Y41339D02*
D03*
X92913D02*
D03*
X94094Y40945D02*
D03*
X93701D02*
D03*
Y41732D02*
D03*
X94094D02*
D03*
Y44094D02*
D03*
X94488Y43701D02*
D03*
Y42126D02*
D03*
X96063D02*
D03*
Y43701D02*
D03*
X96457Y44094D02*
D03*
Y44882D02*
D03*
X96850D02*
D03*
Y44488D02*
D03*
X97244D02*
D03*
X97638Y44882D02*
D03*
Y44488D02*
D03*
X97244Y44094D02*
D03*
X96850D02*
D03*
X97244Y43307D02*
D03*
X96850D02*
D03*
X97244Y42913D02*
D03*
X96850D02*
D03*
X97244Y42520D02*
D03*
X96850D02*
D03*
Y42126D02*
D03*
X97244D02*
D03*
X96063Y41732D02*
D03*
Y41339D02*
D03*
X96457D02*
D03*
Y41732D02*
D03*
X96850D02*
D03*
X97244D02*
D03*
X97638Y41339D02*
D03*
X96850D02*
D03*
X93307Y44488D02*
D03*
X94488Y44882D02*
D03*
X94094D02*
D03*
X93701D02*
D03*
X92913Y44488D02*
D03*
Y44882D02*
D03*
X93307Y45276D02*
D03*
X93701D02*
D03*
X94094D02*
D03*
X96457D02*
D03*
X96850D02*
D03*
X97244D02*
D03*
X97638D02*
D03*
X92913Y46457D02*
D03*
X94882D02*
D03*
X95276Y46850D02*
D03*
X95669Y46063D02*
D03*
X94094Y47244D02*
D03*
X99606Y49409D02*
D03*
X98032Y47244D02*
D03*
X99606Y49016D02*
D03*
X98425Y47638D02*
D03*
X99952Y48327D02*
D03*
X99606D02*
D03*
Y47244D02*
D03*
Y46850D02*
D03*
X93898Y48622D02*
D03*
X93701Y47638D02*
D03*
Y48819D02*
D03*
Y47244D02*
D03*
Y46850D02*
D03*
X95079Y48228D02*
D03*
X95276Y47638D02*
D03*
X96457Y46850D02*
D03*
Y47244D02*
D03*
X101181Y56299D02*
D03*
X91732Y47638D02*
D03*
X90551Y46063D02*
D03*
X91732D02*
D03*
Y43701D02*
D03*
Y41732D02*
D03*
X90551D02*
D03*
X92126Y65157D02*
D03*
X94882Y39764D02*
D03*
X94094Y40157D02*
D03*
X94882Y39370D02*
D03*
X94882Y38976D02*
D03*
X94488D02*
D03*
X94094D02*
D03*
X90079Y42717D02*
D03*
X91339Y41732D02*
D03*
X91339Y42126D02*
D03*
X99606Y38583D02*
D03*
X100000Y38189D02*
D03*
X90512Y37756D02*
D03*
X90551Y38189D02*
D03*
X90157D02*
D03*
X116378Y68740D02*
D03*
X124488Y68701D02*
D03*
X91299Y56496D02*
D03*
X91535Y56732D02*
D03*
X91732Y56929D02*
D03*
X91929Y57126D02*
D03*
X101890Y56378D02*
D03*
X92087Y57362D02*
D03*
X92283Y57598D02*
D03*
X92402Y57992D02*
D03*
X92709Y64574D02*
D03*
X102244Y56063D02*
D03*
X102559Y55630D02*
D03*
X102874Y55591D02*
D03*
X103228Y55472D02*
D03*
X103583Y55315D02*
D03*
X90551Y44488D02*
D03*
X90945D02*
D03*
X89961Y44291D02*
D03*
X91339Y44882D02*
D03*
X90945Y45276D02*
D03*
X90551Y48032D02*
D03*
Y47638D02*
D03*
X90118Y47677D02*
D03*
X90945Y47244D02*
D03*
X91339Y47244D02*
D03*
Y48898D02*
D03*
Y46850D02*
D03*
X91142Y48661D02*
D03*
X90000Y44625D02*
D03*
X89370Y45866D02*
D03*
X89665Y45571D02*
D03*
X89875Y41750D02*
D03*
X90000Y41500D02*
D03*
X134449Y53248D02*
D03*
X134881Y54074D02*
D03*
X99213Y44882D02*
D03*
X98819D02*
D03*
X100000Y48032D02*
D03*
Y47638D02*
D03*
X101625Y45375D02*
D03*
X101500Y45625D02*
D03*
X100000Y43307D02*
D03*
X99606D02*
D03*
X100886Y43110D02*
D03*
X100591Y43406D02*
D03*
X99213Y40945D02*
D03*
X98425Y39764D02*
D03*
Y46063D02*
D03*
X99213Y47244D02*
D03*
X100506Y47750D02*
D03*
X100362Y48000D02*
D03*
X98819Y46850D02*
D03*
X95669Y48581D02*
D03*
X95276Y48474D02*
D03*
X95669Y39764D02*
D03*
X96063D02*
D03*
X97638D02*
D03*
X96063Y40945D02*
D03*
X95669Y41339D02*
D03*
Y40551D02*
D03*
X95276Y40945D02*
D03*
X95669D02*
D03*
X97244Y41339D02*
D03*
X96850Y38583D02*
D03*
X95669D02*
D03*
X96457Y38976D02*
D03*
X96063D02*
D03*
X95669D02*
D03*
Y39370D02*
D03*
X96457Y40157D02*
D03*
X96063D02*
D03*
X95669D02*
D03*
X94882Y38583D02*
D03*
X103937Y55315D02*
D03*
X102834Y34094D02*
D03*
X100669Y34961D02*
D03*
X100945Y35984D02*
D03*
X101535Y36024D02*
D03*
X102795Y35906D02*
D03*
X100276Y38110D02*
D03*
X105630Y35039D02*
D03*
X105039Y34725D02*
D03*
X105630Y35354D02*
D03*
X105630Y35669D02*
D03*
X103268Y34213D02*
D03*
X102992Y32874D02*
D03*
X103268Y32677D02*
D03*
X103464Y32914D02*
D03*
X103622Y34094D02*
D03*
X103858Y34252D02*
D03*
X105039Y32795D02*
D03*
X104567Y34134D02*
D03*
X104055Y34016D02*
D03*
X104173Y34264D02*
D03*
X105197Y34094D02*
D03*
X104882D02*
D03*
X105630Y33779D02*
D03*
X105669Y33465D02*
D03*
X105669Y33150D02*
D03*
X104724Y32795D02*
D03*
X102638Y32795D02*
D03*
X103779Y32717D02*
D03*
X104094Y32665D02*
D03*
X104409Y32638D02*
D03*
X104173Y32913D02*
D03*
X105236Y36024D02*
D03*
X104724Y34685D02*
D03*
Y36023D02*
D03*
X105000Y36181D02*
D03*
X104409Y34685D02*
D03*
X104094Y34724D02*
D03*
X104094Y35984D02*
D03*
X104409Y36220D02*
D03*
X103779Y36220D02*
D03*
Y34725D02*
D03*
X103543Y34567D02*
D03*
X103149Y36260D02*
D03*
X103425Y36142D02*
D03*
X103583Y35906D02*
D03*
X97244Y38583D02*
D03*
Y38976D02*
D03*
X97638D02*
D03*
X98032D02*
D03*
X98425D02*
D03*
Y38583D02*
D03*
X101693Y34803D02*
D03*
X102283D02*
D03*
X98819Y38583D02*
D03*
X98819Y38976D02*
D03*
X99213Y38583D02*
D03*
Y38976D02*
D03*
X99606D02*
D03*
X99213Y39370D02*
D03*
X99606D02*
D03*
X99213Y39764D02*
D03*
Y40157D02*
D03*
X97638Y39370D02*
D03*
X98819Y40157D02*
D03*
Y39764D02*
D03*
X101929Y32913D02*
D03*
X102598Y34764D02*
D03*
X102913D02*
D03*
X103268Y34724D02*
D03*
X93307Y44882D02*
D03*
X92913Y46063D02*
D03*
X93307Y46457D02*
D03*
X86732Y48504D02*
D03*
X97244Y40945D02*
D03*
X102250Y36400D02*
D03*
X51500Y71950D02*
D03*
X50500Y72100D02*
D03*
X82500Y70250D02*
D03*
X83000D02*
D03*
X84000D02*
D03*
X84500Y70200D02*
D03*
X83000Y76700D02*
D03*
X94000Y69250D02*
D03*
X93500Y70200D02*
D03*
X95000Y70000D02*
D03*
X95500Y70100D02*
D03*
X94100Y76750D02*
D03*
X106000Y69500D02*
D03*
X106500Y70250D02*
D03*
X104065Y70065D02*
D03*
X104959Y70359D02*
D03*
X105050Y76600D02*
D03*
X94150Y72250D02*
D03*
X89173Y70900D02*
D03*
X70965Y66835D02*
D03*
X100550Y66850D02*
D03*
X102362Y32972D02*
D03*
X96654Y37106D02*
D03*
X97244Y39370D02*
D03*
X93701Y37697D02*
D03*
X92913Y37303D02*
D03*
Y38583D02*
D03*
Y38189D02*
D03*
Y37697D02*
D03*
X93307Y38583D02*
D03*
X93799Y36811D02*
D03*
X94094Y37008D02*
D03*
X90900Y34994D02*
D03*
X90551Y33268D02*
D03*
X26181Y63484D02*
D03*
X42300Y35850D02*
D03*
D103*
X108563Y40354D02*
D03*
X106201Y36516D02*
D03*
X108268Y37106D02*
D03*
D104*
X108563Y38189D02*
D03*
X127657Y38189D02*
D03*
X126575Y37598D02*
D03*
X138051Y37559D02*
D03*
X136811Y38091D02*
D03*
X123447Y37420D02*
D03*
Y36520D02*
D03*
Y35620D02*
D03*
Y34720D02*
D03*
X122547Y37420D02*
D03*
X121647D02*
D03*
X120747D02*
D03*
X119847D02*
D03*
Y36520D02*
D03*
Y35620D02*
D03*
Y34720D02*
D03*
X123447Y33820D02*
D03*
X122547D02*
D03*
X121647D02*
D03*
X120747D02*
D03*
X119847D02*
D03*
X139646Y37323D02*
D03*
X118701Y32776D02*
D03*
X117520Y36220D02*
D03*
Y37500D02*
D03*
X127756Y35630D02*
D03*
X123622Y32579D02*
D03*
X129429Y37598D02*
D03*
X138082Y35523D02*
D03*
X135039Y32677D02*
D03*
X138080Y34853D02*
D03*
X138061Y34183D02*
D03*
X136811Y33465D02*
D03*
X137965Y36193D02*
D03*
X127698Y34999D02*
D03*
X127756Y34350D02*
D03*
X126555Y32598D02*
D03*
X91535Y33760D02*
D03*
X95039Y32126D02*
D03*
X45551Y44173D02*
D03*
X47559Y36850D02*
D03*
X48455Y37746D02*
D03*
Y35955D02*
D03*
X49350Y36850D02*
D03*
X47559Y41850D02*
D03*
X48455Y42746D02*
D03*
Y40955D02*
D03*
X49350Y41850D02*
D03*
X35059Y36850D02*
D03*
X35955Y37746D02*
D03*
Y35955D02*
D03*
X36850Y36850D02*
D03*
X35059Y41850D02*
D03*
X35955Y42746D02*
D03*
Y40955D02*
D03*
X36850Y41850D02*
D03*
X26427Y40837D02*
D03*
X27323Y41732D02*
D03*
Y39941D02*
D03*
X28219Y40837D02*
D03*
X31427D02*
D03*
X32323Y41732D02*
D03*
Y39941D02*
D03*
X33219Y40837D02*
D03*
X31427Y53337D02*
D03*
X32323Y54232D02*
D03*
Y52441D02*
D03*
X33219Y53337D02*
D03*
X26427D02*
D03*
X27323Y54232D02*
D03*
Y52441D02*
D03*
X28219Y53337D02*
D03*
X31427Y69931D02*
D03*
X32323Y70827D02*
D03*
Y69035D02*
D03*
X33219Y69931D02*
D03*
X31427Y57431D02*
D03*
X32323Y58327D02*
D03*
Y56535D02*
D03*
X33219Y57431D02*
D03*
X26427D02*
D03*
X27323Y58327D02*
D03*
Y56535D02*
D03*
X28219Y57431D02*
D03*
Y69931D02*
D03*
X27323Y69035D02*
D03*
Y70827D02*
D03*
X26427Y69931D02*
D03*
X36083Y65905D02*
D03*
X36350Y44900D02*
D03*
X46220Y33681D02*
D03*
Y32402D02*
D03*
X42913Y33681D02*
D03*
Y32402D02*
D03*
X40472Y33602D02*
D03*
Y32323D02*
D03*
X37165Y33602D02*
D03*
Y32323D02*
D03*
X34488Y33602D02*
D03*
Y32323D02*
D03*
X31181Y33602D02*
D03*
Y32323D02*
D03*
X23878Y40000D02*
D03*
X22598D02*
D03*
X23878Y43307D02*
D03*
X22598D02*
D03*
X23799Y46063D02*
D03*
X22520D02*
D03*
X23799Y49370D02*
D03*
X22520D02*
D03*
X23760Y70945D02*
D03*
X22480D02*
D03*
X23760Y67638D02*
D03*
X22480D02*
D03*
X23760Y65669D02*
D03*
X22480D02*
D03*
X23740Y62421D02*
D03*
X22461D02*
D03*
X23760Y60394D02*
D03*
X22480D02*
D03*
X23760Y57087D02*
D03*
X22480D02*
D03*
X22441Y55118D02*
D03*
X23720D02*
D03*
X23622Y51968D02*
D03*
X23228Y50492D02*
D03*
X23268Y38839D02*
D03*
X23228Y44783D02*
D03*
X89882Y59567D02*
D03*
X82419Y59508D02*
D03*
X92067Y59074D02*
D03*
X84604Y59016D02*
D03*
X74882Y59567D02*
D03*
X67382D02*
D03*
X77067Y59074D02*
D03*
X69567D02*
D03*
X89882Y58583D02*
D03*
X82419Y58524D02*
D03*
X85748Y58268D02*
D03*
X79000Y57819D02*
D03*
X74882Y58583D02*
D03*
X67382D02*
D03*
X71500Y57819D02*
D03*
X64000D02*
D03*
X59882Y59567D02*
D03*
X62067Y59074D02*
D03*
X54567D02*
D03*
X52382Y59567D02*
D03*
X44882D02*
D03*
X37382D02*
D03*
X47067Y59074D02*
D03*
X39567D02*
D03*
X59882Y58583D02*
D03*
X52382D02*
D03*
X56500Y57819D02*
D03*
X49000D02*
D03*
X44882Y58583D02*
D03*
X41496Y57795D02*
D03*
X37382Y58583D02*
D03*
X35984Y57756D02*
D03*
X88976Y48425D02*
D03*
X101575Y49409D02*
D03*
X105118Y49803D02*
D03*
X102264Y40354D02*
D03*
X105768Y40394D02*
D03*
X39586Y60079D02*
D03*
X47086D02*
D03*
X54586D02*
D03*
X62086D02*
D03*
X69586D02*
D03*
X77086D02*
D03*
X84623Y60020D02*
D03*
X92086Y60079D02*
D03*
X37382Y60551D02*
D03*
X35984Y61339D02*
D03*
X39626Y61063D02*
D03*
X44882Y60551D02*
D03*
X41500Y61382D02*
D03*
X130083Y33722D02*
D03*
X130983D02*
D03*
X131883D02*
D03*
X132783D02*
D03*
X133683D02*
D03*
X39590Y63074D02*
D03*
X47090D02*
D03*
X39607Y64074D02*
D03*
X52382Y60551D02*
D03*
X47126Y61063D02*
D03*
X59882Y60551D02*
D03*
X67382D02*
D03*
X49016Y61457D02*
D03*
X54626Y61063D02*
D03*
X47107Y64074D02*
D03*
X54590Y63074D02*
D03*
X56516Y61457D02*
D03*
X62126Y61063D02*
D03*
X64016Y61457D02*
D03*
X62090Y63074D02*
D03*
X130083Y34622D02*
D03*
Y35522D02*
D03*
Y36422D02*
D03*
Y37322D02*
D03*
X130983D02*
D03*
X131883D02*
D03*
X132783D02*
D03*
X133683Y34622D02*
D03*
X36940Y64184D02*
D03*
X43504Y65000D02*
D03*
X51004D02*
D03*
X54607Y64074D02*
D03*
X62107D02*
D03*
X133683Y35522D02*
D03*
Y36422D02*
D03*
Y37322D02*
D03*
X58504Y65000D02*
D03*
X66004D02*
D03*
X74882Y60551D02*
D03*
X69626Y61063D02*
D03*
X71516Y61457D02*
D03*
X82419Y60493D02*
D03*
X77126Y61063D02*
D03*
X69590Y63074D02*
D03*
X69607Y64074D02*
D03*
X79016Y61457D02*
D03*
X77090Y63074D02*
D03*
X77107Y64074D02*
D03*
X89882Y60551D02*
D03*
X84663Y61004D02*
D03*
X97382Y60551D02*
D03*
X92126Y61063D02*
D03*
X86516Y61457D02*
D03*
X84627Y63016D02*
D03*
X84644Y64016D02*
D03*
X92090Y63074D02*
D03*
X92107Y64074D02*
D03*
X73504Y65000D02*
D03*
X81023Y65039D02*
D03*
X82022Y71783D02*
D03*
X83518D02*
D03*
X88504Y65000D02*
D03*
X85014Y71783D02*
D03*
X93008Y71823D02*
D03*
X96008Y71839D02*
D03*
X94500Y71866D02*
D03*
X99586Y60079D02*
D03*
X104882Y60551D02*
D03*
X99626Y61063D02*
D03*
X107086Y60079D02*
D03*
X112382Y60551D02*
D03*
X114586Y60079D02*
D03*
X122143Y60060D02*
D03*
X119938Y60532D02*
D03*
X99590Y63074D02*
D03*
X101535Y61338D02*
D03*
X99607Y64074D02*
D03*
X101456Y64960D02*
D03*
X107090Y63074D02*
D03*
X104000Y71824D02*
D03*
X105500Y71789D02*
D03*
X107000Y71853D02*
D03*
X107126Y61063D02*
D03*
X109035Y61338D02*
D03*
X114590Y63074D02*
D03*
X114626Y61063D02*
D03*
X122182Y61044D02*
D03*
X116535Y61338D02*
D03*
X122146Y63055D02*
D03*
X107107Y64074D02*
D03*
X114607D02*
D03*
X108956Y64960D02*
D03*
X122163Y64055D02*
D03*
X116456Y64960D02*
D03*
X123956D02*
D03*
X129586Y60079D02*
D03*
X127382Y60551D02*
D03*
X134882D02*
D03*
X137086Y60079D02*
D03*
X144586D02*
D03*
X142382Y60551D02*
D03*
X153976Y59803D02*
D03*
X149882Y60551D02*
D03*
X152086Y60079D02*
D03*
X129626Y61063D02*
D03*
X124035Y61338D02*
D03*
X129590Y63074D02*
D03*
X131535Y61338D02*
D03*
X137126Y61063D02*
D03*
X129607Y64074D02*
D03*
X137090Y63074D02*
D03*
X131456Y64960D02*
D03*
X137107Y64074D02*
D03*
X144626Y61063D02*
D03*
X139035Y61338D02*
D03*
X144590Y63074D02*
D03*
X146535Y61338D02*
D03*
X152126Y61063D02*
D03*
X144607Y64074D02*
D03*
X138956Y64960D02*
D03*
X146456D02*
D03*
X152090Y63074D02*
D03*
X152107Y64074D02*
D03*
X154000Y64984D02*
D03*
X37436Y62574D02*
D03*
X39586Y62047D02*
D03*
X37421Y61575D02*
D03*
X44936Y62574D02*
D03*
X47086Y62047D02*
D03*
X44921Y61575D02*
D03*
X52436Y62574D02*
D03*
X54586Y62047D02*
D03*
X52421Y61575D02*
D03*
X59936Y62574D02*
D03*
X62086Y62047D02*
D03*
X59921Y61575D02*
D03*
X67436Y62574D02*
D03*
X69586Y62047D02*
D03*
X67421Y61575D02*
D03*
X74936Y62574D02*
D03*
X77086Y62047D02*
D03*
X74921Y61575D02*
D03*
X82473Y62516D02*
D03*
X84623Y61989D02*
D03*
X82458Y61516D02*
D03*
X89936Y62574D02*
D03*
X92086Y62047D02*
D03*
X89921Y61575D02*
D03*
X97436Y62574D02*
D03*
X99586Y62047D02*
D03*
X97421Y61575D02*
D03*
X97382Y59567D02*
D03*
X99567Y59074D02*
D03*
X97382Y58583D02*
D03*
X149936Y62574D02*
D03*
X152086Y62047D02*
D03*
X149921Y61575D02*
D03*
X149882Y59567D02*
D03*
X152067Y59074D02*
D03*
X149882Y58583D02*
D03*
X142436Y62574D02*
D03*
X144586Y62047D02*
D03*
X142421Y61575D02*
D03*
X142382Y59567D02*
D03*
X144567Y59074D02*
D03*
X142382Y58583D02*
D03*
X134936Y62574D02*
D03*
X137086Y62047D02*
D03*
X134921Y61575D02*
D03*
X134882Y59567D02*
D03*
X137067Y59074D02*
D03*
X134882Y58583D02*
D03*
X127436Y62574D02*
D03*
X129586Y62047D02*
D03*
X127421Y61575D02*
D03*
X127382Y59567D02*
D03*
X129567Y59074D02*
D03*
X127382Y58583D02*
D03*
X119993Y62555D02*
D03*
X122143Y62028D02*
D03*
X119978Y61556D02*
D03*
X119938Y59548D02*
D03*
X122124Y59055D02*
D03*
X119938Y58564D02*
D03*
X112436Y62574D02*
D03*
X114586Y62047D02*
D03*
X112421Y61575D02*
D03*
X112382Y59567D02*
D03*
X114567Y59074D02*
D03*
X112382Y58583D02*
D03*
X104882D02*
D03*
X107067Y59074D02*
D03*
X104882Y59567D02*
D03*
X104921Y61575D02*
D03*
X107086Y62047D02*
D03*
X104936Y62574D02*
D03*
X101456Y62992D02*
D03*
Y57835D02*
D03*
X103464Y57795D02*
D03*
X110964D02*
D03*
X108956Y57835D02*
D03*
Y62992D02*
D03*
X118464Y57795D02*
D03*
X116456Y57835D02*
D03*
Y62992D02*
D03*
X125964Y57795D02*
D03*
X123956Y57835D02*
D03*
Y62992D02*
D03*
X133464Y57795D02*
D03*
X131456Y57835D02*
D03*
Y62992D02*
D03*
X140964Y57795D02*
D03*
X138956Y57835D02*
D03*
Y62992D02*
D03*
X148464Y57795D02*
D03*
X146456Y57835D02*
D03*
Y62992D02*
D03*
X154000Y62977D02*
D03*
X154015Y57795D02*
D03*
X35157Y62205D02*
D03*
X127854Y36319D02*
D03*
X55500Y72000D02*
D03*
X54500D02*
D03*
X53500D02*
D03*
X52500D02*
D03*
X49500D02*
D03*
X48500D02*
D03*
Y76000D02*
D03*
X87000Y72750D02*
D03*
X86000D02*
D03*
X85000D02*
D03*
X84000D02*
D03*
X83000Y72724D02*
D03*
X82000Y72750D02*
D03*
X81000D02*
D03*
X80000D02*
D03*
X87000Y76626D02*
D03*
X86000D02*
D03*
X85000D02*
D03*
X84000D02*
D03*
X82000D02*
D03*
X81000D02*
D03*
X80000D02*
D03*
X91000D02*
D03*
X92000D02*
D03*
X93000D02*
D03*
X95000D02*
D03*
X96000D02*
D03*
X97000D02*
D03*
X98000D02*
D03*
X91000Y72750D02*
D03*
X92000D02*
D03*
X93000D02*
D03*
X94000Y72724D02*
D03*
X95000Y72750D02*
D03*
X96000D02*
D03*
X97000D02*
D03*
X98000D02*
D03*
X102000Y76626D02*
D03*
X103000D02*
D03*
X104000D02*
D03*
X106000D02*
D03*
X107000D02*
D03*
X108000D02*
D03*
X109000D02*
D03*
X102000Y72750D02*
D03*
X103000D02*
D03*
X104000D02*
D03*
X105000Y72724D02*
D03*
X106000Y72750D02*
D03*
X107000D02*
D03*
X108000D02*
D03*
X109000D02*
D03*
D105*
X58638Y74737D02*
D03*
Y73063D02*
D03*
X59425Y74737D02*
D03*
X62575D02*
D03*
X63362D02*
D03*
X59425Y73063D02*
D03*
X62575D02*
D03*
X63362D02*
D03*
D106*
X60213Y74737D02*
D03*
X61000D02*
D03*
X61787D02*
D03*
X60213Y73063D02*
D03*
X61000D02*
D03*
X61787D02*
D03*
D107*
X75856Y71900D02*
D03*
X75344D02*
D03*
X104665Y33622D02*
D03*
X104153D02*
D03*
X100138Y40945D02*
D03*
X100649D02*
D03*
X99665Y39842D02*
D03*
X100177D02*
D03*
X97067Y40157D02*
D03*
X97579D02*
D03*
X97736Y41969D02*
D03*
X98247D02*
D03*
X92382Y41024D02*
D03*
X91870D02*
D03*
X92854Y41732D02*
D03*
X92343D02*
D03*
X97776Y44094D02*
D03*
X98287D02*
D03*
X97657Y43307D02*
D03*
X98169D02*
D03*
X97814Y45669D02*
D03*
X98326D02*
D03*
X95965Y38110D02*
D03*
X95453D02*
D03*
X96633Y46063D02*
D03*
X97145D02*
D03*
X93644Y38000D02*
D03*
X94156D02*
D03*
X94444Y45300D02*
D03*
X94956D02*
D03*
X92816Y40157D02*
D03*
X92304D02*
D03*
X92854Y44094D02*
D03*
X92343D02*
D03*
X93209Y45669D02*
D03*
X92697D02*
D03*
X100177Y44094D02*
D03*
X99665D02*
D03*
X97776Y46850D02*
D03*
X98287D02*
D03*
X137067Y37559D02*
D03*
X137578D02*
D03*
X127105Y37638D02*
D03*
X127617D02*
D03*
D108*
X54500Y74874D02*
D03*
X52500D02*
D03*
X51500D02*
D03*
X48500Y73126D02*
D03*
Y74874D02*
D03*
X49500Y73126D02*
D03*
Y74874D02*
D03*
X50500Y73126D02*
D03*
Y74874D02*
D03*
X51500Y73126D02*
D03*
X52500D02*
D03*
X53500D02*
D03*
Y74874D02*
D03*
X54500Y73126D02*
D03*
X55500D02*
D03*
Y74874D02*
D03*
X80000Y73876D02*
D03*
Y75624D02*
D03*
X81000Y73876D02*
D03*
Y75624D02*
D03*
X82000Y73876D02*
D03*
Y75624D02*
D03*
X83000Y73876D02*
D03*
Y75624D02*
D03*
X84000Y73876D02*
D03*
Y75624D02*
D03*
X85000Y73876D02*
D03*
Y75624D02*
D03*
X86000Y73876D02*
D03*
Y75624D02*
D03*
X87000Y73876D02*
D03*
Y75624D02*
D03*
X91000Y73876D02*
D03*
Y75624D02*
D03*
X92000Y73876D02*
D03*
Y75624D02*
D03*
X93000Y73876D02*
D03*
Y75624D02*
D03*
X94000Y73876D02*
D03*
Y75624D02*
D03*
X95000Y73876D02*
D03*
Y75624D02*
D03*
X96000Y73876D02*
D03*
Y75624D02*
D03*
X97000Y73876D02*
D03*
Y75624D02*
D03*
X98000Y73876D02*
D03*
Y75624D02*
D03*
X102000Y73876D02*
D03*
Y75624D02*
D03*
X103000Y73876D02*
D03*
Y75624D02*
D03*
X104000Y73876D02*
D03*
Y75624D02*
D03*
X105000Y73876D02*
D03*
Y75624D02*
D03*
X106000Y73876D02*
D03*
Y75624D02*
D03*
X107000Y73876D02*
D03*
Y75624D02*
D03*
X108000Y73876D02*
D03*
Y75624D02*
D03*
X109000Y73876D02*
D03*
Y75624D02*
D03*
D109*
X96000Y71000D02*
D03*
X94500D02*
D03*
X93000D02*
D03*
X107000D02*
D03*
X105500D02*
D03*
X104000D02*
D03*
X104500D02*
D03*
X105000D02*
D03*
X106500D02*
D03*
X106000D02*
D03*
X93500D02*
D03*
X94000D02*
D03*
X95500D02*
D03*
X95000D02*
D03*
X84000D02*
D03*
X84500D02*
D03*
X83000D02*
D03*
X82500D02*
D03*
X82000D02*
D03*
X83500D02*
D03*
X85000D02*
D03*
M02*
