M48
;Layer_Color=15461320
;FILE_FORMAT=2:4
INCH,LZ
;TYPE=PLATED
T1F00S00C0.0100
T2F00S00C0.0150
T3F00S00C0.0200
T4F00S00C0.0250
T5F00S00C0.0354
T6F00S00C0.0394
T7F00S00C0.0400
T8F00S00C0.0531
T9F00S00C0.0600
T10F00S00C0.0906
T11F00S00C0.1180
T12F00S00C0.1400
%
T01
X073622Y046063
X075197Y046358
X07628Y045866
X082283Y040354
X082874Y040453
X090157Y040945
X090059Y04124
X09Y0415
X089875Y04175
X090551Y041732
Y041339
X090945
X091339
X091732
Y041732
X091339
X091339Y042126
X091339Y040551
Y040157
Y039764
X091732
Y03937
X091339
Y038976
X091732
X092126
Y03937
X09252
Y038976
X092913
Y038583
X09252
X092126
X091732
X091339
X090945Y038976
Y039764
Y040157
Y040551
X090551Y039764
X092126
X093307
X093701Y03937
Y038583
X093307
X093504Y037303
X09311Y036811
X093307Y035728
X093406Y035335
X09311Y033366
X091732Y037697
X090512Y037756
X090551Y038189
X090157
X090079Y042717
X090059Y04311
X089961Y044291
X09Y044625
X090551Y044488
Y044094
X090945
Y044488
X091339
X091339Y044882
X090945Y045276
X090551Y046063
X091732
Y04685
X091339Y04685
X09252Y046063
X092913
Y046457
X093307
X093701Y04685
Y045276
X093307
Y044882
X093701
Y044488
X093307
Y044094
X093701
Y043701
Y043307
X093307
Y043701
X09252
Y042913
X093307Y04252
X093701
Y042126
X093307
Y041732
Y041339
X093701
Y041732
Y040945
Y040551
X093307
X092913
Y040945
Y041339
X09252
X091732Y043701
X090945
X089491Y043875
X089635Y044125
X089665Y045571
X08937Y045866
X092913Y044882
Y044488
X094094
X094488
X094882
X095276
X095669
X096063
X096457
Y044094
Y043701
Y043307
X096063
Y043701
Y044094
X095669
Y043701
Y043307
X094882
Y043701
Y044094
X094488
X094094
Y043701
Y043307
X094488
Y043701
Y04252
X094094
Y042126
Y041732
Y041339
X094488
Y041732
X094882
Y041339
X095276
X095669
Y041732
Y042126
Y04252
X096063
X096457
Y042126
X096063
Y041732
Y041339
X096457
Y041732
X09685
X097244
Y042126
X09685
Y04252
X097244
Y042913
X09685
Y043307
Y043701
Y044094
X097244
Y044488
X09685
Y044882
X096457
Y045276
X09685
X097244
Y045669
X097638Y045276
Y044882
Y044488
X098425
X098819Y044094
X099213
X099213Y044882
X098819
X098819Y046063
X098425
Y046457
X098819Y04685
X099606Y04685
X1Y046063
X1015Y045625
X101625Y045375
X100886Y04311
X100492
X100492Y042717
X100591Y043406
X1Y043307
X099606
X1Y043701
X099606Y042126
X098819
X098425Y041732
X097638Y041339
X097244Y041339
X09685Y041339
Y040945
X097244
X09685Y040551
X096457
Y040945
X096063
X095669
X095276
X094882
Y040551
Y040157
Y039764
X094488
Y040157
Y040551
X094094
Y040945
Y040157
Y039764
X094094Y038976
X094488
X094882
X094882Y03937
X095669
Y039764
Y040157
Y040551
X096063Y040157
Y039764
X096457Y040157
Y038976
X096063
Y038583
X095669
X095669Y038976
X094882Y038583
X094488Y038189
X094094Y037697
X095079
X095472Y037697
X095866Y037402
X09626Y037598
X096654Y037598
X097244Y037461
X097244Y038189
Y038583
X09685
X097244Y038976
X097638
X098032
Y03937
X098425
X098819
X099213
Y038976
X098819
X098425
Y038583
X098032
X098819
X099213
X099606
X099606Y038976
X099606Y03937
Y040157
X099213
Y039764
X098819Y039764
Y040157
X098425Y039764
X097638
X097638Y03937
X098032Y040157
Y040551
X099213Y040945
X099606Y040551
X1
X100492Y040157
X100984Y040748
X100276Y03811
X1Y038189
Y037795
X100945Y035984
X101535Y036024
X10225Y0364
X103149Y03626
X103425Y036142
X103583Y035906
X103779Y03622
X104094Y035984
X104409Y03622
X104724Y036023
X105Y036181
X105236Y036024
X10563Y035669
X10563Y035354
X10563Y035039
X105039Y034725
X104724Y034685
X104409Y034685
X104094Y034724
X103779Y034725
X103543Y034567
X103268Y034724
X102913Y034764
X102598
X102283Y034803
X101693
X100669Y034961
X100699Y033888
X101929Y032913
X102362
X102638Y032795
X102992Y032874
X103268Y032677
X103464Y032914
X103779Y032717
X104094Y032665
X104173Y032913
X104409Y032638
X104724Y032795
X105039Y032795
X105669Y03315
X105669Y033465
X10563Y033779
X105197Y034094
X104882
X104567Y034134
X104173Y034264
X103858Y034252
X103622Y034094
X103268Y034213
X102834Y034094
X104055Y034016
X102795Y035906
X103642Y038878
X096457Y038189
X094783Y036516
X094291Y036122
Y032972
X096358Y032087
X09748Y032047
X097441Y03435
X096457Y034547
X097638Y035728
X098425Y042913
X097244Y043307
X094882Y04252
Y042126
X094488
Y044882
X094882
X095669
Y045276
X095276Y045669
X095276Y046063
X094882
Y045669
X094488
Y046063
Y046457
Y04685
X094094
Y046063
Y045276
Y044882
X094882Y046457
X095276Y04685
X095669Y046063
X096063Y046063
X096457Y046457
Y04685
X097244
X097638Y046457
X134449Y053248
X134881Y054074
X103937Y055315
X103583
X103228Y055472
X102874Y055591
X102559Y05563
X102244Y056063
X10189Y056378
X101181Y056299
X099606Y049409
Y049016
Y048327
X099952
X1Y048032
Y047638
X100506Y04775
X100362Y048
X099606Y047244
X099213
X098819Y047638
X098425
X097638
X098032Y047244
X096457
X096063
X095276Y047638
X095079Y048228
X095276Y048474
X095669Y048581
X093898Y048622
X094094Y047244
X09813Y048819
X093701
Y047638
Y047244
X092913
X091732Y047638
X091339Y047244
X090945Y047244
X090551Y047638
Y048032
X090118Y047677
X091142Y048661
X091339Y048898
X091634Y048917
X086732Y048504
X091299Y056496
X091535Y056732
X091732Y056929
X091929Y057126
X092087Y057362
X092283Y057598
X092402Y057992
X069587Y057579
X070965Y054331
X072146Y052264
X069094Y050295
X06185Y0748
X0606Y07485
X0565Y075
X0563Y07575
X05505Y07585
X05395Y0758
X053Y0757
X05185Y076
X051Y0759
X05
X0505Y0721
X0515Y07195
X0626Y0718
X06265Y0726
X06275Y07315
X0625Y0749
X0633
X0641
X06475
X0658Y07495
X066Y07315
X06555Y07285
X06378Y071555
X064468Y069587
X065157Y068898
X069764Y071102
X07122Y068071
X072146Y068602
X072441Y068799
X073622Y067913
X074016Y067028
X074803Y06624
X070965Y066835
X072756Y073268
X07378Y073228
X074409Y073543
X075161Y07398
X074094Y072008
X071Y07555
X07045Y07585
X083Y0767
Y07025
X0825
X084
X0845Y0702
X089173Y0709
X0935Y0702
X092709Y064574
X092126Y065157
X094Y06925
X095Y07
X0955Y0701
X09415Y07225
X0941Y07675
X10505Y0766
X104959Y070359
X104065Y070065
X106Y0695
X1065Y07025
X10055Y06685
X114862Y066339
X116378Y06874
X118799Y066634
X124488Y068701
T02
X106201Y036516
X108268Y037106
X108563Y040354
T03
X102264Y040354
X105768Y040394
X119847Y03742
X120747
X121647
X122547
X123447
Y03652
Y03562
Y03472
Y03382
X122547
X121647
X120747
X119847
Y03472
Y03562
Y03652
X130083Y036422
Y035522
Y034622
Y033722
X130983
X131883
X132783
X133683
Y034622
Y035522
Y036422
Y037322
X132783
X131883
X130983
X130083
X140964Y057795
X142382Y058583
Y059567
Y060551
X142421Y061575
X144586Y062047
X144626Y061063
X144586Y060079
X144567Y059074
X146456Y057835
X148464Y057795
X149882Y058583
Y059567
Y060551
X149921Y061575
X152086Y062047
X152126Y061063
X152086Y060079
X152067Y059074
X153976Y059803
X154015Y057795
X146535Y061338
X139035
X137126Y061063
X137086Y060079
X137067Y059074
X134882Y058583
Y059567
Y060551
X134921Y061575
X137086Y062047
X138956Y057835
X133464Y057795
X131456Y057835
X129567Y059074
X129586Y060079
X129626Y061063
X129586Y062047
X127421Y061575
X127382Y060551
Y059567
Y058583
X125964Y057795
X131535Y061338
X124035
X122182Y061044
X122143Y06006
X122124Y059055
X119938Y058564
Y059548
Y060532
X119978Y061556
X122143Y062028
X123956Y057835
X118464Y057795
X116456Y057835
X114567Y059074
X114586Y060079
X114626Y061063
X114586Y062047
X112421Y061575
X112382Y060551
Y059567
Y058583
X110964Y057795
X116535Y061338
X109035
X107126Y061063
X107086Y060079
X107067Y059074
X104882Y058583
Y059567
Y060551
X104921Y061575
X107086Y062047
X108956Y057835
X103464Y057795
X101456Y057835
X099567Y059074
X099586Y060079
X099626Y061063
X099586Y062047
X097421Y061575
X097382Y060551
Y059567
Y058583
X101535Y061338
X101575Y049409
X105118Y049803
X088976Y048425
X089882Y058583
Y059567
Y060551
X089921Y061575
X092086Y062047
X092126Y061063
X092086Y060079
X092067Y059074
X085748Y058268
X084604Y059016
X084623Y06002
X084663Y061004
X084623Y061989
X086516Y061457
X082458Y061516
X082419Y060493
Y059508
Y058524
X079Y057819
X079016Y061457
X077126Y061063
X077086Y060079
X077067Y059074
X074882Y058583
Y059567
Y060551
X074921Y061575
X077086Y062047
X071516Y061457
X069626Y061063
X069586Y060079
X069567Y059074
X067382Y058583
Y059567
Y060551
X067421Y061575
X069586Y062047
X0715Y057819
X064
X064016Y061457
X062126Y061063
X062086Y060079
X062067Y059074
X059882Y058583
Y059567
Y060551
X059921Y061575
X062086Y062047
X056516Y061457
X054626Y061063
X054586Y060079
X054567Y059074
X052382Y058583
Y059567
Y060551
X052421Y061575
X054586Y062047
X0565Y057819
X049
X047067Y059074
X047086Y060079
X047126Y061063
X047086Y062047
X049016Y061457
X044921Y061575
X044882Y060551
Y059567
Y058583
X041496Y057795
X039567Y059074
X039586Y060079
X039626Y061063
X039586Y062047
X0415Y061382
X037421Y061575
X037382Y060551
Y059567
Y058583
X035984Y057756
Y061339
X035157Y062205
X037436Y062574
X03694Y064184
X039607Y064074
X03959Y063074
X043504Y065
X044936Y062574
X04709Y063074
X047107Y064074
X051004Y065
X052436Y062574
X05459Y063074
X054607Y064074
X058504Y065
X059936Y062574
X06209Y063074
X062107Y064074
X0555Y072
X0545
X0535
X0525
X0495
X0485
Y076
X063071Y071496
X065777Y072115
X066004Y065
X067436Y062574
X06959Y063074
X069607Y064074
X073504Y065
X074936Y062574
X07709Y063074
X077107Y064074
X077126Y072716
X077165Y073622
X07805Y072617
X075791Y074295
X075039Y074331
X074882Y075079
X074277Y075054
X075397Y074925
X073504Y073897
X07252Y074252
X071338Y073976
X071929Y070748
X07299Y070392
X08Y07275
X081
X082
X082022Y071783
X083518
X084Y07275
X085
X085014Y071783
X086Y07275
X087
Y076626
X086
X085
X084
X082
X081
X08
X079094Y074212
X083Y072724
X091Y07275
X092
X093
X093008Y071823
X093Y076626
X092
X091
X092107Y064074
X09209Y063074
X089936Y062574
X088504Y065
X084644Y064016
X084627Y063016
X082473Y062516
X081023Y065039
X097436Y062574
X09959Y063074
X099607Y064074
X101456Y06496
Y062992
X104936Y062574
X10709Y063074
X107107Y064074
X108956Y06496
Y062992
X109Y07275
X108
X107
Y071853
X1055Y071789
X105Y072724
X104Y07275
Y071824
X103Y07275
X102
Y076626
X103
X104
X106
X107
X108
X109
X106Y07275
X098
X097
X096
X096008Y071839
X0945Y071866
X094Y072724
X095Y07275
Y076626
X096
X097
X098
X112436Y062574
X11459Y063074
X114607Y064074
X116456Y06496
Y062992
X119993Y062555
X122146Y063055
X122163Y064055
X123956Y06496
Y062992
X127436Y062574
X12959Y063074
X129607Y064074
X131456Y06496
Y062992
X134936Y062574
X13709Y063074
X137107Y064074
X138956Y06496
Y062992
X142436Y062574
X14459Y063074
X144607Y064074
X146456Y06496
Y062992
X149936Y062574
X15209Y063074
X152107Y064074
X154Y064984
Y062977
T04
X023268Y038839
X023878Y04
X022598
Y043307
X023878
X023228Y044783
X023799Y046063
X02252
X026427Y040837
X027323Y041732
Y039941
X028219Y040837
X031181Y033602
Y032323
X034488
Y033602
X037165
Y032323
X040472
Y033602
X042913Y033681
Y032402
X04622
Y033681
X042205Y035955
Y037746
X041309Y03685
X03685
X035059
X035955Y037746
Y035955
Y040955
X035059Y04185
X035955Y042746
X03685Y04185
X03635Y0449
X032323Y041732
X031427Y040837
X032323Y039941
X033219Y040837
X045551Y044173
X047559Y04185
X048455Y042746
Y040955
X04935Y04185
X048455Y037746
X047559Y03685
X048455Y035955
X04935Y03685
X091535Y03376
X095039Y032126
X108563Y038189
X11752Y0375
Y03622
X118701Y032776
X123622Y032579
X124803Y032776
X126555Y032598
X127756Y03435
X127698Y034999
X127756Y03563
X127854Y036319
X127657Y038189
X126575Y037598
X129429
X136811Y038091
X138051Y037559
X137965Y036193
X138082Y035523
X13808Y034853
X138061Y034183
X136811Y033465
X135039Y032677
X139646Y037323
X142365Y053074
X14233Y054574
X142323Y056063
X149843Y054567
X152165Y056063
X15225Y053
X134803Y052874
X134843Y054567
X137165Y056063
X129646
X127316Y054574
X127405Y053074
X119843Y052913
X119882Y054606
X122154Y056074
X114724Y056102
X112409Y054574
X112362Y052717
X105433Y052559
X104843Y054567
X107165Y056063
X099764
X099803Y054626
X099688Y053074
X090512Y052598
X089843Y054567
X089567Y056063
X084685
X084649Y053074
X08233Y054574
X077283Y056102
X077205Y053071
X074921Y054567
X069724Y056063
X067369Y054574
X067359Y053074
X062283Y053071
X062205Y056063
X059882Y054606
X054724Y056063
X054721Y053074
X05233Y054574
X047168Y053074
X047126Y056063
X044843Y054567
X039682Y053074
X039685Y056063
X037362Y054567
X032323Y054232
X031427Y053337
X032323Y052441
X033219Y053337
X032323Y056535
X031427Y057431
X032323Y058327
X033219Y057431
X028219
X026427
X027323Y058327
Y056535
Y054232
X026427Y053337
X027323Y052441
X028219Y053337
X023622Y051968
X023228Y050492
X023799Y04937
X02252
X022441Y055118
X02372
X02376Y057087
X02248
Y060394
X02376
X02374Y062421
X022461
X027323Y047982
X028219Y047087
X026427
Y063681
X028219
X027323Y064577
Y069035
X028219Y069931
X027323Y070827
X026427Y069931
X02376Y070945
X02248
Y067638
X02376
Y065669
X02248
X031427Y069931
X032323Y070827
Y069035
X033219Y069931
X036083Y065905
T05
X029157Y073464
X030157
T06
X061332Y0748
X065269
T07
X05775Y0368
Y0378
X05875
X05975
X06075
X06175
Y0368
X06075
X05975
X05875
X06275
Y0378
X06375
X06475
X06575
X06675
X06775
X06875
X06975
X07075
X07175
X07275
X07375
X07475
X07575
X07675
X07775
Y0368
X07675
X07575
X07475
X07375
X07275
X07175
X07075
X06975
X06875
X06775
X06675
X06575
X06475
X06375
X07875
Y0378
X07975
X08075
X08175
X08275
X08375
X08475
Y0368
X08375
X08275
X08175
X08075
X07975
T08
X080917Y071
X085969Y071394
X091917Y071
X096968Y071394
X102917Y071
X107969Y071394
T09
X024331Y033578
X025981
Y035748
X024331
X110108Y032884
X112608
X113858
Y039134
X110108Y039084
T10
X1439Y0517
X1514
X1364
X1289
X1214
X1139
X1064
X0989
X0914
X0839
X0764
X0689
X0614
X0539
X0464
X0389
Y066948
X0464
X0539
X0614
X0689
X0764
X0839
X0914
X0989
X1064
X1139
X1214
X1289
X1364
X1439
X1514
T11
X022481Y033758
X027831
T12
X157Y0475
X124
X066
X036
X025Y074
X069
X113
X157
M30
