%FSLAX24Y24*%
%MOIN*%
G70*
G01*
G75*
G04 Layer_Color=65535*
%ADD10R,0.0394X0.0433*%
%ADD11R,0.0374X0.0335*%
%ADD12R,0.0374X0.0335*%
%ADD13R,0.0433X0.0394*%
%ADD14R,0.0610X0.0197*%
%ADD15R,0.0945X0.1024*%
%ADD16R,0.0630X0.0709*%
%ADD17C,0.0197*%
%ADD18R,0.0610X0.0197*%
%ADD19R,0.0197X0.0610*%
%ADD20R,0.1024X0.0945*%
%ADD21R,0.3000X0.2900*%
%ADD22R,0.1500X0.0500*%
%ADD23R,0.1102X0.1024*%
%ADD24R,0.0394X0.1496*%
%ADD25R,0.1496X0.0394*%
%ADD26R,0.1575X0.0335*%
%ADD27R,0.0551X0.0787*%
%ADD28R,0.0630X0.0512*%
%ADD29C,0.0130*%
%ADD30R,0.0709X0.0630*%
%ADD31R,0.0571X0.0197*%
%ADD32C,0.0400*%
%ADD33R,0.0276X0.0354*%
%ADD34C,0.0110*%
%ADD35C,0.0080*%
%ADD36C,0.0100*%
%ADD37C,0.0150*%
%ADD38C,0.0060*%
%ADD39C,0.0160*%
%ADD40C,0.0200*%
%ADD41C,0.0300*%
%ADD42C,0.0180*%
%ADD43C,0.0240*%
%ADD44C,0.0120*%
%ADD45R,0.0591X0.0591*%
%ADD46C,0.0591*%
%ADD47C,0.0500*%
%ADD48C,0.1750*%
%ADD49C,0.0669*%
%ADD50C,0.1063*%
%ADD51C,0.0800*%
%ADD52C,0.1300*%
%ADD53C,0.0600*%
%ADD54C,0.0200*%
%ADD55C,0.0300*%
%ADD56O,0.0394X0.1083*%
%ADD57R,0.0394X0.1083*%
%ADD58R,0.0354X0.0276*%
%ADD59R,0.0500X0.1449*%
%ADD60R,0.0354X0.0945*%
%ADD61C,0.0098*%
%ADD62C,0.0039*%
%ADD63C,0.0079*%
%ADD64C,0.0040*%
%ADD65C,0.0070*%
%ADD66C,0.0600*%
%ADD67C,0.0090*%
D35*
X108194Y61506D02*
Y64696D01*
X109800Y61509D02*
Y64700D01*
X108194Y61506D02*
X109800Y61500D01*
X103004Y37294D02*
X106194D01*
X103000Y38900D02*
X106191D01*
X106194Y37294D02*
X106200Y38900D01*
X116417Y32205D02*
X118543D01*
Y35984D01*
X116417Y32205D02*
Y35984D01*
X153194Y61506D02*
Y64696D01*
X154800Y61509D02*
Y64700D01*
X153194Y61506D02*
X154800Y61500D01*
X153194Y57906D02*
X154800Y57900D01*
Y57909D02*
Y61100D01*
X153194Y57906D02*
Y61096D01*
X147694Y57906D02*
X149300Y57900D01*
Y57909D02*
Y61100D01*
X147694Y57906D02*
Y61096D01*
X145694Y61506D02*
X147300Y61500D01*
Y61509D02*
Y64700D01*
X145694Y61506D02*
Y64696D01*
Y57906D02*
X147300Y57900D01*
Y57909D02*
Y61100D01*
X145694Y57906D02*
Y61096D01*
X140194Y57906D02*
X141800Y57900D01*
Y57909D02*
Y61100D01*
X140194Y57906D02*
Y61096D01*
X138194Y61506D02*
X139800Y61500D01*
Y61509D02*
Y64700D01*
X138194Y61506D02*
Y64696D01*
Y57906D02*
X139800Y57900D01*
Y57909D02*
Y61100D01*
X138194Y57906D02*
Y61096D01*
X132694Y57906D02*
X134300Y57900D01*
Y57909D02*
Y61100D01*
X132694Y57906D02*
Y61096D01*
X130694Y61506D02*
X132300Y61500D01*
Y61509D02*
Y64700D01*
X130694Y61506D02*
Y64696D01*
Y57906D02*
X132300Y57900D01*
Y57909D02*
Y61100D01*
X130694Y57906D02*
Y61096D01*
X125194Y57906D02*
X126800Y57900D01*
Y57909D02*
Y61100D01*
X125194Y57906D02*
Y61096D01*
X123194Y61506D02*
X124800Y61500D01*
Y61509D02*
Y64700D01*
X123194Y61506D02*
Y64696D01*
Y57906D02*
X124800Y57900D01*
Y57909D02*
Y61100D01*
X123194Y57906D02*
Y61096D01*
X117694Y57906D02*
X119300Y57900D01*
Y57909D02*
Y61100D01*
X117694Y57906D02*
Y61096D01*
X115694Y61506D02*
X117300Y61500D01*
Y61509D02*
Y64700D01*
X115694Y61506D02*
Y64696D01*
Y57906D02*
X117300Y57900D01*
Y57909D02*
Y61100D01*
X115694Y57906D02*
Y61096D01*
X110194Y57906D02*
X111800Y57900D01*
Y57909D02*
Y61100D01*
X110194Y57906D02*
Y61096D01*
X108194Y57906D02*
X109800Y57900D01*
Y57909D02*
Y61100D01*
X108194Y57906D02*
Y61096D01*
X89411Y48328D02*
X89417Y49934D01*
X86217D02*
X89407D01*
X86220Y48328D02*
X89411D01*
X102694Y57906D02*
X104300Y57900D01*
Y57909D02*
Y61100D01*
X102694Y57906D02*
Y61096D01*
X100694Y61506D02*
X102300Y61500D01*
Y61509D02*
Y64700D01*
X100694Y61506D02*
Y64696D01*
Y57906D02*
X102300Y57900D01*
Y57909D02*
Y61100D01*
X100694Y57906D02*
Y61096D01*
X87694Y61506D02*
X89300Y61500D01*
Y61509D02*
Y64700D01*
X87694Y61506D02*
Y64696D01*
Y57906D02*
X89300Y57900D01*
Y57909D02*
Y61100D01*
X87694Y57906D02*
Y61096D01*
X85694Y57906D02*
X87300Y57900D01*
Y57909D02*
Y61100D01*
X85694Y57906D02*
Y61096D01*
X101686Y48649D02*
X101691Y50254D01*
X101695Y48649D02*
X104886D01*
X101691Y50254D02*
X104882D01*
X102316Y39594D02*
X102321Y41199D01*
X102325Y39594D02*
X105516D01*
X102321Y41199D02*
X105512D01*
X80194Y61506D02*
X81800Y61500D01*
Y61509D02*
Y64700D01*
X80194Y61506D02*
Y64696D01*
Y57906D02*
X81800Y57900D01*
Y57909D02*
Y61100D01*
X80194Y57906D02*
Y61096D01*
X78194Y57906D02*
X79800Y57900D01*
Y57909D02*
Y61100D01*
X78194Y57906D02*
Y61096D01*
X72694Y61506D02*
X74300Y61500D01*
Y61509D02*
Y64700D01*
X72694Y61506D02*
Y64696D01*
Y57906D02*
X74300Y57900D01*
Y57909D02*
Y61100D01*
X72694Y57906D02*
Y61096D01*
X70694Y57906D02*
X72300Y57900D01*
Y57909D02*
Y61100D01*
X70694Y57906D02*
Y61096D01*
X65294Y61506D02*
X66900Y61500D01*
Y61509D02*
Y64700D01*
X65294Y61506D02*
Y64696D01*
Y57906D02*
X66900Y57900D01*
Y57909D02*
Y61100D01*
X65294Y57906D02*
Y61096D01*
X35194Y57906D02*
Y61096D01*
X36800Y57909D02*
Y61100D01*
X35194Y57906D02*
X36800Y57900D01*
X35194Y61506D02*
X36800Y61500D01*
Y61509D02*
Y64700D01*
X35194Y61506D02*
Y64696D01*
X40694Y57906D02*
Y61096D01*
X42300Y57909D02*
Y61100D01*
X40694Y57906D02*
X42300Y57900D01*
X42694Y57906D02*
X44300Y57900D01*
Y57909D02*
Y61100D01*
X42694Y57906D02*
Y61096D01*
Y61506D02*
Y64696D01*
X44300Y61509D02*
Y64700D01*
X42694Y61506D02*
X44300Y61500D01*
X48194Y57906D02*
X49800Y57900D01*
Y57909D02*
Y61100D01*
X48194Y57906D02*
Y61096D01*
X50194Y57906D02*
Y61096D01*
X51800Y57909D02*
Y61100D01*
X50194Y57906D02*
X51800Y57900D01*
X50194Y61506D02*
X51800Y61500D01*
Y61509D02*
Y64700D01*
X50194Y61506D02*
Y64696D01*
X55694Y57906D02*
Y61096D01*
X57300Y57909D02*
Y61100D01*
X55694Y57906D02*
X57300Y57900D01*
X57694Y57906D02*
X59300Y57900D01*
Y57909D02*
Y61100D01*
X57694Y57906D02*
Y61096D01*
Y61506D02*
Y64696D01*
X59300Y61509D02*
Y64700D01*
X57694Y61506D02*
X59300Y61500D01*
X63194Y57906D02*
X64800Y57900D01*
Y57909D02*
Y61100D01*
X63194Y57906D02*
Y61096D01*
X21161Y72835D02*
X20762D01*
Y73035D01*
X20828Y73101D01*
X20961D01*
X21028Y73035D01*
Y72835D01*
X20762Y73434D02*
Y73301D01*
X20828Y73235D01*
X21095D01*
X21161Y73301D01*
Y73434D01*
X21095Y73501D01*
X20828D01*
X20762Y73434D01*
Y73634D02*
X21161D01*
X21028Y73768D01*
X21161Y73901D01*
X20762D01*
Y74301D02*
Y74034D01*
X21161D01*
Y74301D01*
X20961Y74034D02*
Y74168D01*
X21161Y74434D02*
X20762D01*
Y74634D01*
X20828Y74701D01*
X20961D01*
X21028Y74634D01*
Y74434D01*
Y74567D02*
X21161Y74701D01*
X20762Y75234D02*
X21161D01*
Y75500D01*
X20762Y75900D02*
Y75634D01*
X21161D01*
Y75900D01*
X20961Y75634D02*
Y75767D01*
X20762Y76034D02*
X21161D01*
Y76234D01*
X21095Y76300D01*
X20828D01*
X20762Y76234D01*
Y76034D01*
D36*
X26400Y74000D02*
G03*
X26400Y74000I-1400J0D01*
G01*
X70400D02*
G03*
X70400Y74000I-1400J0D01*
G01*
X115900D02*
G03*
X115900Y74000I-1400J0D01*
G01*
X158400D02*
G03*
X158400Y74000I-1400J0D01*
G01*
X37400Y47500D02*
G03*
X37400Y47500I-1400J0D01*
G01*
X67400D02*
G03*
X67400Y47500I-1400J0D01*
G01*
X125400D02*
G03*
X125400Y47500I-1400J0D01*
G01*
X158400D02*
G03*
X158400Y47500I-1400J0D01*
G01*
X130668Y33783D02*
X134468D01*
X130618Y37083D02*
X134418D01*
X21024Y46181D02*
Y46417D01*
Y46181D02*
X21575Y45630D01*
X24567D02*
X24803D01*
X25354Y46181D01*
X21024Y49960D02*
X22795D01*
X23583D02*
X25354D01*
X23583Y45630D02*
X25354D01*
X21024Y49842D02*
Y49960D01*
Y45630D02*
Y49842D01*
X25354Y45630D02*
Y49960D01*
X21024Y45630D02*
X22795D01*
X25433Y43110D02*
Y43346D01*
X24882Y43897D02*
X25433Y43346D01*
X21653Y43897D02*
X21890D01*
X21102Y43346D02*
X21653Y43897D01*
X23661Y39567D02*
X25433D01*
X21102D02*
X22874D01*
X21102Y43897D02*
X22874D01*
X25433Y39567D02*
Y39685D01*
Y43897D01*
X21102Y39567D02*
Y43897D01*
X23661D02*
X25433D01*
X25315Y60197D02*
Y60433D01*
X24764Y60984D02*
X25315Y60433D01*
X21535Y60984D02*
X21772D01*
X20984Y60433D02*
X21535Y60984D01*
X23543Y56653D02*
X25315D01*
X20984D02*
X22756D01*
X20984Y60984D02*
X22756D01*
X25315Y56653D02*
Y56772D01*
Y60984D01*
X20984Y56653D02*
Y60984D01*
X23543D02*
X25315D01*
Y65472D02*
Y65709D01*
X24764Y66260D02*
X25315Y65709D01*
X21535Y66260D02*
X21772D01*
X20984Y65709D02*
X21535Y66260D01*
X23543Y61929D02*
X25315D01*
X20984D02*
X22756D01*
X20984Y66260D02*
X22756D01*
X25315Y61929D02*
Y62047D01*
Y66260D01*
X20984Y61929D02*
Y66260D01*
X23543D02*
X25315D01*
X40118Y30827D02*
X40354D01*
X40905Y31378D01*
Y34370D02*
Y34606D01*
X40354Y35157D02*
X40905Y34606D01*
X36575Y30827D02*
Y32598D01*
Y33386D02*
Y35157D01*
X40905Y33386D02*
Y35157D01*
X36575Y30827D02*
X36693D01*
X40905D01*
X36575Y35157D02*
X40905D01*
Y30827D02*
Y32598D01*
X45866Y30905D02*
X46102D01*
X46653Y31457D01*
Y34449D02*
Y34685D01*
X46102Y35236D02*
X46653Y34685D01*
X42323Y30905D02*
Y32677D01*
Y33465D02*
Y35236D01*
X46653Y33465D02*
Y35236D01*
X42323Y30905D02*
X42441D01*
X46653D01*
X42323Y35236D02*
X46653D01*
Y30905D02*
Y32677D01*
X25315Y70748D02*
Y70984D01*
X24764Y71535D02*
X25315Y70984D01*
X21535Y71535D02*
X21772D01*
X20984Y70984D02*
X21535Y71535D01*
X23543Y67205D02*
X25315D01*
X20984D02*
X22756D01*
X20984Y71535D02*
X22756D01*
X25315Y67205D02*
Y67323D01*
Y71535D01*
X20984Y67205D02*
Y71535D01*
X23543D02*
X25315D01*
X25275Y54921D02*
Y55157D01*
X24724Y55708D02*
X25275Y55157D01*
X21496Y55708D02*
X21732D01*
X20945Y55157D02*
X21496Y55708D01*
X23504Y51378D02*
X25275D01*
X20945D02*
X22716D01*
X20945Y55708D02*
X22716D01*
X25275Y51378D02*
Y51496D01*
Y55708D01*
X20945Y51378D02*
Y55708D01*
X23504D02*
X25275D01*
X34134Y30827D02*
X34370D01*
X34921Y31378D01*
Y34370D02*
Y34606D01*
X34370Y35157D02*
X34921Y34606D01*
X30590Y30827D02*
Y32598D01*
Y33386D02*
Y35157D01*
X34921Y33386D02*
Y35157D01*
X30590Y30827D02*
X30709D01*
X34921D01*
X30590Y35157D02*
X34921D01*
Y30827D02*
Y32598D01*
X91575Y31929D02*
X91968Y31535D01*
X91575Y34488D02*
X95315D01*
Y31535D02*
Y34488D01*
X91575Y31535D02*
X95315D01*
X91575D02*
Y34488D01*
X109108Y31884D02*
X115108D01*
Y39884D01*
X109108D02*
X115108D01*
X109108Y31884D02*
Y39884D01*
X25550Y36300D02*
Y36650D01*
X25500Y36700D02*
X25550Y36650D01*
X24550Y36700D02*
X25500D01*
X24550Y36300D02*
Y36700D01*
X27100Y35750D02*
Y36300D01*
X26900D02*
X27100D01*
X26650D02*
X26900D01*
X27150Y31800D02*
Y33500D01*
X23150Y31800D02*
Y33500D01*
Y35750D02*
Y36300D01*
Y31800D02*
X27150D01*
X23150Y36300D02*
X26650D01*
X120335Y37229D02*
X124135D01*
X120385Y33929D02*
X124185D01*
X85250Y36300D02*
Y38300D01*
X57250D02*
X85250D01*
X57250Y36300D02*
Y38300D01*
Y36300D02*
X85250D01*
X33250Y75950D02*
Y76100D01*
Y75950D02*
X34300D01*
Y76100D01*
Y76250D01*
X33250D02*
X34300D01*
X33250Y76100D02*
Y76250D01*
X32300Y73500D02*
X35300D01*
X32300Y76100D02*
X35300D01*
Y73500D02*
Y76100D01*
X32300Y73500D02*
Y76100D01*
X28200Y73500D02*
Y76100D01*
X31200Y73500D02*
Y76100D01*
X28200D02*
X31200D01*
X28200Y73500D02*
X31200D01*
X29150Y76100D02*
Y76250D01*
X30200D01*
Y76100D02*
Y76250D01*
Y75950D02*
Y76100D01*
X29150Y75950D02*
X30200D01*
X29150D02*
Y76100D01*
X49455Y35850D02*
Y42850D01*
X34455Y35850D02*
X49455D01*
X34455D02*
Y42850D01*
X49455D01*
Y39150D02*
Y42850D01*
X29623Y39837D02*
X33323D01*
Y54837D01*
X26323D02*
X33323D01*
X26323Y39837D02*
Y54837D01*
Y39837D02*
X33323D01*
X26323Y56431D02*
X33323D01*
X26323D02*
Y71431D01*
X33323D01*
Y56431D02*
Y71431D01*
X29623Y56431D02*
X33323D01*
X36610Y76380D02*
Y76780D01*
X36510Y76880D01*
X36310D01*
X36210Y76780D01*
Y76380D01*
X36310Y76280D01*
X36510D01*
X36410Y76480D02*
X36610Y76280D01*
X36510D02*
X36610Y76380D01*
X37210Y76280D02*
X36810D01*
X37210Y76680D01*
Y76780D01*
X37110Y76880D01*
X36910D01*
X36810Y76780D01*
X24546Y31322D02*
X24463Y31405D01*
X24296D01*
X24213Y31322D01*
Y30989D01*
X24296Y30906D01*
X24463D01*
X24546Y30989D01*
Y31155D01*
X24379D01*
X24712Y30906D02*
Y31405D01*
X25046Y30906D01*
Y31405D01*
X25212D02*
Y30906D01*
X25462D01*
X25545Y30989D01*
Y31322D01*
X25462Y31405D01*
X25212D01*
X24016Y37356D02*
X24349D01*
X24182Y37523D02*
Y37190D01*
X24516Y37106D02*
X24682D01*
X24599D01*
Y37606D01*
X24516Y37523D01*
X25265Y37106D02*
X24932D01*
X25265Y37440D01*
Y37523D01*
X25182Y37606D01*
X25015D01*
X24932Y37523D01*
X25432Y37606D02*
Y37273D01*
X25599Y37106D01*
X25765Y37273D01*
Y37606D01*
X129650Y38600D02*
X129917D01*
X129783Y38733D02*
Y38467D01*
X130316Y38400D02*
X130050D01*
X130316Y38667D01*
Y38733D01*
X130250Y38800D01*
X130117D01*
X130050Y38733D01*
X130450Y38400D02*
Y38467D01*
X130516D01*
Y38400D01*
X130450D01*
X131050Y38800D02*
X130783D01*
Y38600D01*
X130916Y38667D01*
X130983D01*
X131050Y38600D01*
Y38467D01*
X130983Y38400D01*
X130850D01*
X130783Y38467D01*
X131183Y38800D02*
Y38533D01*
X131316Y38400D01*
X131449Y38533D01*
Y38800D01*
X131849Y38733D02*
X131783Y38800D01*
X131649D01*
X131583Y38733D01*
Y38467D01*
X131649Y38400D01*
X131783D01*
X131849Y38467D01*
X132249Y38733D02*
X132183Y38800D01*
X132049D01*
X131983Y38733D01*
Y38467D01*
X132049Y38400D01*
X132183D01*
X132249Y38467D01*
X132782Y38400D02*
Y38800D01*
X132982D01*
X133049Y38733D01*
Y38600D01*
X132982Y38533D01*
X132782D01*
X133249Y38400D02*
X133382D01*
X133449Y38467D01*
Y38600D01*
X133382Y38667D01*
X133249D01*
X133182Y38600D01*
Y38467D01*
X133249Y38400D01*
X133582Y38667D02*
Y38467D01*
X133649Y38400D01*
X133715Y38467D01*
X133782Y38400D01*
X133849Y38467D01*
Y38667D01*
X134182Y38400D02*
X134049D01*
X133982Y38467D01*
Y38600D01*
X134049Y38667D01*
X134182D01*
X134249Y38600D01*
Y38533D01*
X133982D01*
X134382Y38667D02*
Y38400D01*
Y38533D01*
X134448Y38600D01*
X134515Y38667D01*
X134582D01*
X119150Y38350D02*
X119417D01*
X119283Y38483D02*
Y38217D01*
X119550Y38150D02*
X119683D01*
X119617D01*
Y38550D01*
X119550Y38483D01*
X119883Y38150D02*
Y38217D01*
X119950D01*
Y38150D01*
X119883D01*
X120216Y38483D02*
X120283Y38550D01*
X120416D01*
X120483Y38483D01*
Y38417D01*
X120416Y38350D01*
X120483Y38283D01*
Y38217D01*
X120416Y38150D01*
X120283D01*
X120216Y38217D01*
Y38283D01*
X120283Y38350D01*
X120216Y38417D01*
Y38483D01*
X120283Y38350D02*
X120416D01*
X120616Y38550D02*
Y38283D01*
X120749Y38150D01*
X120883Y38283D01*
Y38550D01*
X121283Y38483D02*
X121216Y38550D01*
X121083D01*
X121016Y38483D01*
Y38217D01*
X121083Y38150D01*
X121216D01*
X121283Y38217D01*
X121683Y38483D02*
X121616Y38550D01*
X121483D01*
X121416Y38483D01*
Y38217D01*
X121483Y38150D01*
X121616D01*
X121683Y38217D01*
X122216Y38150D02*
Y38550D01*
X122416D01*
X122482Y38483D01*
Y38350D01*
X122416Y38283D01*
X122216D01*
X122682Y38150D02*
X122815D01*
X122882Y38217D01*
Y38350D01*
X122815Y38417D01*
X122682D01*
X122616Y38350D01*
Y38217D01*
X122682Y38150D01*
X123015Y38417D02*
Y38217D01*
X123082Y38150D01*
X123149Y38217D01*
X123215Y38150D01*
X123282Y38217D01*
Y38417D01*
X123615Y38150D02*
X123482D01*
X123415Y38217D01*
Y38350D01*
X123482Y38417D01*
X123615D01*
X123682Y38350D01*
Y38283D01*
X123415D01*
X123815Y38417D02*
Y38150D01*
Y38283D01*
X123882Y38350D01*
X123948Y38417D01*
X124015D01*
X110250Y31400D02*
X110517D01*
X110383Y31533D02*
Y31267D01*
X110650Y31200D02*
X110783D01*
X110717D01*
Y31600D01*
X110650Y31533D01*
X110983Y31200D02*
Y31267D01*
X111050D01*
Y31200D01*
X110983D01*
X111583D02*
X111316D01*
X111583Y31467D01*
Y31533D01*
X111516Y31600D01*
X111383D01*
X111316Y31533D01*
X111716Y31600D02*
Y31333D01*
X111849Y31200D01*
X111983Y31333D01*
Y31600D01*
X112383Y31533D02*
X112316Y31600D01*
X112183D01*
X112116Y31533D01*
Y31267D01*
X112183Y31200D01*
X112316D01*
X112383Y31267D01*
X112783Y31533D02*
X112716Y31600D01*
X112583D01*
X112516Y31533D01*
Y31267D01*
X112583Y31200D01*
X112716D01*
X112783Y31267D01*
X113316Y31200D02*
Y31600D01*
X113516D01*
X113582Y31533D01*
Y31400D01*
X113516Y31333D01*
X113316D01*
X113782Y31200D02*
X113915D01*
X113982Y31267D01*
Y31400D01*
X113915Y31467D01*
X113782D01*
X113716Y31400D01*
Y31267D01*
X113782Y31200D01*
X114115Y31467D02*
Y31267D01*
X114182Y31200D01*
X114249Y31267D01*
X114315Y31200D01*
X114382Y31267D01*
Y31467D01*
X114715Y31200D02*
X114582D01*
X114515Y31267D01*
Y31400D01*
X114582Y31467D01*
X114715D01*
X114782Y31400D01*
Y31333D01*
X114515D01*
X114915Y31467D02*
Y31200D01*
Y31333D01*
X114982Y31400D01*
X115048Y31467D01*
X115115D01*
X100350Y31800D02*
Y32200D01*
X100617Y31800D01*
Y32200D01*
X100750D02*
X100883D01*
X100817D01*
Y31800D01*
X100750D01*
X100883D01*
X101350Y32133D02*
X101283Y32200D01*
X101150D01*
X101083Y32133D01*
Y31867D01*
X101150Y31800D01*
X101283D01*
X101350Y31867D01*
X101883Y32200D02*
X102016D01*
X101949D01*
Y31800D01*
X101883D01*
X102016D01*
X102216D02*
Y32200D01*
X102483Y31800D01*
Y32200D01*
X102616D02*
X102883D01*
X102749D01*
Y31800D01*
X103282Y32200D02*
X103016D01*
Y31800D01*
X103282D01*
X103016Y32000D02*
X103149D01*
X103416Y31800D02*
Y32200D01*
X103616D01*
X103682Y32133D01*
Y32000D01*
X103616Y31933D01*
X103416D01*
X103549D02*
X103682Y31800D01*
X104082Y32200D02*
X103816D01*
Y32000D01*
X103949D01*
X103816D01*
Y31800D01*
X104215D02*
Y32067D01*
X104349Y32200D01*
X104482Y32067D01*
Y31800D01*
Y32000D01*
X104215D01*
X104882Y32133D02*
X104815Y32200D01*
X104682D01*
X104615Y32133D01*
Y31867D01*
X104682Y31800D01*
X104815D01*
X104882Y31867D01*
X105282Y32200D02*
X105015D01*
Y31800D01*
X105282D01*
X105015Y32000D02*
X105148D01*
X85650Y37650D02*
X85783D01*
X85717D01*
Y38050D01*
X85650Y37983D01*
X57300Y38650D02*
Y39050D01*
X57567Y38650D01*
Y39050D01*
X57700D02*
X57833D01*
X57767D01*
Y38650D01*
X57700D01*
X57833D01*
X58300Y38983D02*
X58233Y39050D01*
X58100D01*
X58033Y38983D01*
Y38717D01*
X58100Y38650D01*
X58233D01*
X58300Y38717D01*
X58833Y39050D02*
X58966D01*
X58899D01*
Y38650D01*
X58833D01*
X58966D01*
X59166D02*
Y39050D01*
X59433Y38650D01*
Y39050D01*
X59566D02*
X59833D01*
X59699D01*
Y38650D01*
X60232Y39050D02*
X59966D01*
Y38650D01*
X60232D01*
X59966Y38850D02*
X60099D01*
X60366Y38650D02*
Y39050D01*
X60566D01*
X60632Y38983D01*
Y38850D01*
X60566Y38783D01*
X60366D01*
X60499D02*
X60632Y38650D01*
X61032Y39050D02*
X60766D01*
Y38850D01*
X60899D01*
X60766D01*
Y38650D01*
X61165D02*
Y38917D01*
X61299Y39050D01*
X61432Y38917D01*
Y38650D01*
Y38850D01*
X61165D01*
X61832Y38983D02*
X61765Y39050D01*
X61632D01*
X61565Y38983D01*
Y38717D01*
X61632Y38650D01*
X61765D01*
X61832Y38717D01*
X62232Y39050D02*
X61965D01*
Y38650D01*
X62232D01*
X61965Y38850D02*
X62098D01*
X34300Y43600D02*
X34567D01*
X34433Y43733D02*
Y43467D01*
X34966Y43800D02*
X34700D01*
Y43600D01*
X34833Y43667D01*
X34900D01*
X34966Y43600D01*
Y43467D01*
X34900Y43400D01*
X34767D01*
X34700Y43467D01*
X35100Y43800D02*
Y43533D01*
X35233Y43400D01*
X35366Y43533D01*
Y43800D01*
X35766Y43733D02*
X35700Y43800D01*
X35566D01*
X35500Y43733D01*
Y43467D01*
X35566Y43400D01*
X35700D01*
X35766Y43467D01*
X36166Y43733D02*
X36099Y43800D01*
X35966D01*
X35899Y43733D01*
Y43467D01*
X35966Y43400D01*
X36099D01*
X36166Y43467D01*
X36699Y43400D02*
Y43800D01*
X36899D01*
X36966Y43733D01*
Y43600D01*
X36899Y43533D01*
X36699D01*
X37166Y43400D02*
X37299D01*
X37366Y43467D01*
Y43600D01*
X37299Y43667D01*
X37166D01*
X37099Y43600D01*
Y43467D01*
X37166Y43400D01*
X37499Y43667D02*
Y43467D01*
X37566Y43400D01*
X37632Y43467D01*
X37699Y43400D01*
X37766Y43467D01*
Y43667D01*
X38099Y43400D02*
X37965D01*
X37899Y43467D01*
Y43600D01*
X37965Y43667D01*
X38099D01*
X38165Y43600D01*
Y43533D01*
X37899D01*
X38299Y43667D02*
Y43400D01*
Y43533D01*
X38365Y43600D01*
X38432Y43667D01*
X38499D01*
X39365Y43733D02*
X39298Y43800D01*
X39165D01*
X39098Y43733D01*
Y43467D01*
X39165Y43400D01*
X39298D01*
X39365Y43467D01*
X39565Y43400D02*
X39698D01*
X39765Y43467D01*
Y43600D01*
X39698Y43667D01*
X39565D01*
X39498Y43600D01*
Y43467D01*
X39565Y43400D01*
X39898D02*
Y43667D01*
X40098D01*
X40165Y43600D01*
Y43400D01*
X40298Y43667D02*
X40431Y43400D01*
X40565Y43667D01*
X34150Y54900D02*
X33883D01*
X33750Y54767D01*
X33883Y54633D01*
X34150D01*
X34083Y54234D02*
X34150Y54300D01*
Y54433D01*
X34083Y54500D01*
X33817D01*
X33750Y54433D01*
Y54300D01*
X33817Y54234D01*
X34083Y53834D02*
X34150Y53900D01*
Y54034D01*
X34083Y54100D01*
X33817D01*
X33750Y54034D01*
Y53900D01*
X33817Y53834D01*
X33750Y53301D02*
X34150D01*
Y53101D01*
X34083Y53034D01*
X33950D01*
X33883Y53101D01*
Y53301D01*
X33750Y52834D02*
Y52701D01*
X33817Y52634D01*
X33950D01*
X34017Y52701D01*
Y52834D01*
X33950Y52901D01*
X33817D01*
X33750Y52834D01*
X34017Y52501D02*
X33817D01*
X33750Y52434D01*
X33817Y52367D01*
X33750Y52301D01*
X33817Y52234D01*
X34017D01*
X33750Y51901D02*
Y52034D01*
X33817Y52101D01*
X33950D01*
X34017Y52034D01*
Y51901D01*
X33950Y51834D01*
X33883D01*
Y52101D01*
X34017Y51701D02*
X33750D01*
X33883D01*
X33950Y51634D01*
X34017Y51568D01*
Y51501D01*
X34083Y50635D02*
X34150Y50701D01*
Y50835D01*
X34083Y50901D01*
X33817D01*
X33750Y50835D01*
Y50701D01*
X33817Y50635D01*
X33750Y50435D02*
Y50301D01*
X33817Y50235D01*
X33950D01*
X34017Y50301D01*
Y50435D01*
X33950Y50501D01*
X33817D01*
X33750Y50435D01*
Y50102D02*
X34017D01*
Y49902D01*
X33950Y49835D01*
X33750D01*
X34017Y49702D02*
X33750Y49568D01*
X34017Y49435D01*
X72447Y71661D02*
X72347Y71761D01*
X72147D01*
X72047Y71661D01*
Y71561D01*
X72147Y71461D01*
X72347D01*
X72447Y71361D01*
Y71261D01*
X72347Y71161D01*
X72147D01*
X72047Y71261D01*
X72647Y71161D02*
X72847D01*
X72747D01*
Y71561D01*
X72647D01*
X73147Y71761D02*
Y71161D01*
X73547D01*
X74346Y71761D02*
Y71161D01*
X74646D01*
X74746Y71261D01*
Y71361D01*
X74646Y71461D01*
X74346D01*
X74646D01*
X74746Y71561D01*
Y71661D01*
X74646Y71761D01*
X74346D01*
X75246D02*
X75046D01*
X74946Y71661D01*
Y71261D01*
X75046Y71161D01*
X75246D01*
X75346Y71261D01*
Y71661D01*
X75246Y71761D01*
X75846D02*
X75646D01*
X75546Y71661D01*
Y71261D01*
X75646Y71161D01*
X75846D01*
X75946Y71261D01*
Y71661D01*
X75846Y71761D01*
X76146D02*
X76546D01*
X76346D01*
Y71161D01*
X27650Y72100D02*
Y71833D01*
X27783Y71700D01*
X27917Y71833D01*
Y72100D01*
X28316Y72033D02*
X28250Y72100D01*
X28117D01*
X28050Y72033D01*
Y71767D01*
X28117Y71700D01*
X28250D01*
X28316Y71767D01*
X28716Y72033D02*
X28650Y72100D01*
X28516D01*
X28450Y72033D01*
Y71767D01*
X28516Y71700D01*
X28650D01*
X28716Y71767D01*
X29116Y71700D02*
X28850D01*
X29116Y71967D01*
Y72033D01*
X29050Y72100D01*
X28916D01*
X28850Y72033D01*
X29649Y71700D02*
Y72100D01*
X29849D01*
X29916Y72033D01*
Y71900D01*
X29849Y71833D01*
X29649D01*
X30116Y71700D02*
X30249D01*
X30316Y71767D01*
Y71900D01*
X30249Y71967D01*
X30116D01*
X30049Y71900D01*
Y71767D01*
X30116Y71700D01*
X30449Y71967D02*
Y71767D01*
X30516Y71700D01*
X30582Y71767D01*
X30649Y71700D01*
X30716Y71767D01*
Y71967D01*
X31049Y71700D02*
X30916D01*
X30849Y71767D01*
Y71900D01*
X30916Y71967D01*
X31049D01*
X31116Y71900D01*
Y71833D01*
X30849D01*
X31249Y71967D02*
Y71700D01*
Y71833D01*
X31315Y71900D01*
X31382Y71967D01*
X31449D01*
X32315Y72033D02*
X32249Y72100D01*
X32115D01*
X32049Y72033D01*
Y71767D01*
X32115Y71700D01*
X32249D01*
X32315Y71767D01*
X32515Y71700D02*
X32648D01*
X32715Y71767D01*
Y71900D01*
X32648Y71967D01*
X32515D01*
X32448Y71900D01*
Y71767D01*
X32515Y71700D01*
X32848D02*
Y71967D01*
X33048D01*
X33115Y71900D01*
Y71700D01*
X33248Y71967D02*
X33381Y71700D01*
X33515Y71967D01*
X132205Y72417D02*
X132605D01*
X132405D01*
Y71817D01*
X132805Y72417D02*
Y71817D01*
Y72117D01*
X132905Y72217D01*
X133105D01*
X133205Y72117D01*
Y71817D01*
X133704D02*
X133504D01*
X133405Y71917D01*
Y72117D01*
X133504Y72217D01*
X133704D01*
X133804Y72117D01*
Y72017D01*
X133405D01*
X134604Y72417D02*
Y71817D01*
X134804Y72017D01*
X135004Y71817D01*
Y72417D01*
X135204Y71817D02*
X135404D01*
X135304D01*
Y72217D01*
X135204D01*
X135704Y71817D02*
X135904D01*
X135804D01*
Y72417D01*
X135704D01*
X136204Y71817D02*
X136503D01*
X136603Y71917D01*
X136503Y72017D01*
X136304D01*
X136204Y72117D01*
X136304Y72217D01*
X136603D01*
X136903Y71817D02*
X137103D01*
X137203Y71917D01*
Y72117D01*
X137103Y72217D01*
X136903D01*
X136803Y72117D01*
Y71917D01*
X136903Y71817D01*
X137403D02*
Y72217D01*
X137703D01*
X137803Y72117D01*
Y71817D01*
X138603Y72417D02*
Y71817D01*
X139003D01*
X139303Y72217D02*
X139503D01*
X139602Y72117D01*
Y71817D01*
X139303D01*
X139203Y71917D01*
X139303Y72017D01*
X139602D01*
X139802Y72417D02*
Y71817D01*
X140102D01*
X140202Y71917D01*
Y72017D01*
Y72117D01*
X140102Y72217D01*
X139802D01*
X140502Y71717D02*
X140602Y71817D01*
Y71917D01*
X140502D01*
Y71817D01*
X140602D01*
X140502Y71717D01*
X140402Y71617D01*
X141602Y71817D02*
Y72417D01*
X141902D01*
X142002Y72317D01*
Y72117D01*
X141902Y72017D01*
X141602D01*
X142202Y72417D02*
X142402D01*
X142302D01*
Y71817D01*
X142202D01*
X142402D01*
X142701Y72417D02*
Y71817D01*
X143101D01*
X143301D02*
Y72417D01*
X143501Y72217D01*
X143701Y72417D01*
Y71817D01*
X132605Y73399D02*
X132505Y73499D01*
X132305D01*
X132205Y73399D01*
Y72999D01*
X132305Y72899D01*
X132505D01*
X132605Y72999D01*
X132905Y72899D02*
X133105D01*
X133205Y72999D01*
Y73199D01*
X133105Y73299D01*
X132905D01*
X132805Y73199D01*
Y72999D01*
X132905Y72899D01*
X133405Y72700D02*
Y73299D01*
X133704D01*
X133804Y73199D01*
Y72999D01*
X133704Y72899D01*
X133405D01*
X134004Y73299D02*
Y72999D01*
X134104Y72899D01*
X134404D01*
Y72799D01*
X134304Y72700D01*
X134204D01*
X134404Y72899D02*
Y73299D01*
X134604D02*
Y72899D01*
Y73099D01*
X134704Y73199D01*
X134804Y73299D01*
X134904D01*
X135204Y72899D02*
X135404D01*
X135304D01*
Y73299D01*
X135204D01*
X135904Y72700D02*
X136004D01*
X136104Y72799D01*
Y73299D01*
X135804D01*
X135704Y73199D01*
Y72999D01*
X135804Y72899D01*
X136104D01*
X136304Y73499D02*
Y72899D01*
Y73199D01*
X136404Y73299D01*
X136603D01*
X136703Y73199D01*
Y72899D01*
X137003Y73399D02*
Y73299D01*
X136903D01*
X137103D01*
X137003D01*
Y72999D01*
X137103Y72899D01*
X138403Y73499D02*
X138003D01*
Y72899D01*
X138403D01*
X138003Y73199D02*
X138203D01*
X138603Y73299D02*
Y72899D01*
Y73099D01*
X138703Y73199D01*
X138803Y73299D01*
X138903D01*
X139203Y72899D02*
X139403D01*
X139303D01*
Y73299D01*
X139203D01*
X140102D02*
X139802D01*
X139702Y73199D01*
Y72999D01*
X139802Y72899D01*
X140102D01*
X141302Y73499D02*
X141102D01*
X141202D01*
Y72999D01*
X141102Y72899D01*
X141002D01*
X140902Y72999D01*
X141602Y72899D02*
X141802D01*
X141902Y72999D01*
Y73199D01*
X141802Y73299D01*
X141602D01*
X141502Y73199D01*
Y72999D01*
X141602Y72899D01*
X142102D02*
Y73299D01*
X142402D01*
X142502Y73199D01*
Y72899D01*
X142801Y73299D02*
X143001D01*
X143101Y73199D01*
Y72899D01*
X142801D01*
X142701Y72999D01*
X142801Y73099D01*
X143101D01*
X143301Y72899D02*
X143601D01*
X143701Y72999D01*
X143601Y73099D01*
X143401D01*
X143301Y73199D01*
X143401Y73299D01*
X143701D01*
D37*
X144606Y71817D02*
X145006D01*
X145140Y71950D01*
X145006Y72083D01*
X144740D01*
X144606Y72217D01*
X144740Y72350D01*
X145140D01*
X145539Y71817D02*
X145806D01*
X145939Y71950D01*
Y72217D01*
X145806Y72350D01*
X145539D01*
X145406Y72217D01*
Y71950D01*
X145539Y71817D01*
X146206D02*
Y72350D01*
X146339D01*
X146473Y72217D01*
Y71817D01*
Y72217D01*
X146606Y72350D01*
X146739Y72217D01*
Y71817D01*
X147139Y72350D02*
X147406D01*
X147539Y72217D01*
Y71817D01*
X147139D01*
X147006Y71950D01*
X147139Y72083D01*
X147539D01*
X147805Y71817D02*
Y71950D01*
X147939D01*
Y71817D01*
X147805D01*
X148472D02*
Y72350D01*
X148605D01*
X148738Y72217D01*
Y71817D01*
Y72217D01*
X148872Y72350D01*
X149005Y72217D01*
Y71817D01*
X149272D02*
X149538D01*
X149405D01*
Y72350D01*
X149272D01*
X150071Y72483D02*
Y72350D01*
X149938D01*
X150205D01*
X150071D01*
Y71950D01*
X150205Y71817D01*
X150605D02*
Y71950D01*
X150738D01*
Y71817D01*
X150605D01*
X151671D02*
X151404D01*
X151271Y71950D01*
Y72217D01*
X151404Y72350D01*
X151671D01*
X151804Y72217D01*
Y72083D01*
X151271D01*
X152604Y72617D02*
Y71817D01*
X152204D01*
X152071Y71950D01*
Y72217D01*
X152204Y72350D01*
X152604D01*
X152870D02*
Y71950D01*
X153004Y71817D01*
X153404D01*
Y72350D01*
X145041Y72998D02*
X144508D01*
X145041Y73531D01*
Y73664D01*
X144908Y73798D01*
X144641D01*
X144508Y73664D01*
X145308D02*
X145441Y73798D01*
X145708D01*
X145841Y73664D01*
Y73131D01*
X145708Y72998D01*
X145441D01*
X145308Y73131D01*
Y73664D01*
X146108D02*
X146241Y73798D01*
X146507D01*
X146641Y73664D01*
Y73131D01*
X146507Y72998D01*
X146241D01*
X146108Y73131D01*
Y73664D01*
X146907Y73798D02*
X147440D01*
Y73664D01*
X146907Y73131D01*
Y72998D01*
D39*
X132303Y75975D02*
Y74376D01*
X133103D01*
X133370Y74642D01*
Y74909D01*
X133103Y75176D01*
X132303D01*
X133103D01*
X133370Y75442D01*
Y75709D01*
X133103Y75975D01*
X132303D01*
X134169Y75442D02*
X134703D01*
X134969Y75176D01*
Y74376D01*
X134169D01*
X133903Y74642D01*
X134169Y74909D01*
X134969D01*
X136569Y75442D02*
X135769D01*
X135502Y75176D01*
Y74642D01*
X135769Y74376D01*
X136569D01*
X137102D02*
Y75975D01*
Y74909D02*
X137901Y75442D01*
X137102Y74909D02*
X137901Y74376D01*
X138701Y73843D02*
Y75442D01*
X139501D01*
X139768Y75176D01*
Y74642D01*
X139501Y74376D01*
X138701D01*
X140301D02*
X140834D01*
X140567D01*
Y75975D01*
X140301D01*
X141900Y75442D02*
X142433D01*
X142700Y75176D01*
Y74376D01*
X141900D01*
X141634Y74642D01*
X141900Y74909D01*
X142700D01*
X143233Y74376D02*
Y75442D01*
X144033D01*
X144299Y75176D01*
Y74376D01*
X145632D02*
X145099D01*
X144833Y74642D01*
Y75176D01*
X145099Y75442D01*
X145632D01*
X145899Y75176D01*
Y74909D01*
X144833D01*
D40*
X33045Y73141D02*
X32579D01*
Y72791D01*
X32812D01*
X32579D01*
Y72441D01*
X33279D02*
Y72907D01*
X33512Y73141D01*
X33745Y72907D01*
Y72441D01*
Y72791D01*
X33279D01*
X33978Y72441D02*
Y73141D01*
X34445Y72441D01*
Y73141D01*
X35145Y72441D02*
X34678D01*
X35145Y72907D01*
Y73024D01*
X35028Y73141D01*
X34795D01*
X34678Y73024D01*
X28715Y73239D02*
X28248D01*
Y72889D01*
X28481D01*
X28248D01*
Y72539D01*
X28948D02*
Y73006D01*
X29181Y73239D01*
X29414Y73006D01*
Y72539D01*
Y72889D01*
X28948D01*
X29648Y72539D02*
Y73239D01*
X30114Y72539D01*
Y73239D01*
X31047Y72539D02*
X31280D01*
X31164D01*
Y73239D01*
X31047Y73123D01*
D44*
X117204Y69449D02*
Y70248D01*
X117604D01*
X117738Y70115D01*
Y69849D01*
X117604Y69715D01*
X117204D01*
X118138Y69449D02*
X118404D01*
X118537Y69582D01*
Y69849D01*
X118404Y69982D01*
X118138D01*
X118004Y69849D01*
Y69582D01*
X118138Y69449D01*
X118804Y69982D02*
Y69582D01*
X118937Y69449D01*
X119071Y69582D01*
X119204Y69449D01*
X119337Y69582D01*
Y69982D01*
X120004Y69449D02*
X119737D01*
X119604Y69582D01*
Y69849D01*
X119737Y69982D01*
X120004D01*
X120137Y69849D01*
Y69715D01*
X119604D01*
X120403Y69982D02*
Y69449D01*
Y69715D01*
X120537Y69849D01*
X120670Y69982D01*
X120803D01*
X125927Y70170D02*
X125393D01*
Y69370D01*
X125927D01*
X125393Y69770D02*
X125660D01*
X126193Y69903D02*
X126460Y69370D01*
X126726Y69903D01*
X127393Y69370D02*
X127126D01*
X126993Y69503D01*
Y69770D01*
X127126Y69903D01*
X127393D01*
X127526Y69770D01*
Y69637D01*
X126993D01*
X127793Y69370D02*
Y69903D01*
X128193D01*
X128326Y69770D01*
Y69370D01*
X128726Y70036D02*
Y69903D01*
X128592D01*
X128859D01*
X128726D01*
Y69503D01*
X128859Y69370D01*
D61*
X37715Y75400D02*
G03*
X37715Y75400I-49J0D01*
G01*
X27688Y38394D02*
G03*
X27688Y38394I-49J0D01*
G01*
X73232Y72725D02*
G03*
X73232Y72725I-49J0D01*
G01*
X89754Y47835D02*
G03*
X89754Y47835I-49J0D01*
G01*
D62*
X107962Y37224D02*
G03*
X107962Y37224I-20J0D01*
G01*
D63*
X61143Y70731D02*
X61457D01*
X37263Y74898D02*
Y75075D01*
Y75725D02*
Y75902D01*
X36682Y74898D02*
X37263D01*
X36682Y75902D02*
X37263D01*
X21400Y75400D02*
X22400D01*
Y73400D02*
Y75400D01*
X21400Y73400D02*
X22400D01*
X21400D02*
Y75400D01*
X21131Y72243D02*
Y72557D01*
X32003Y37638D02*
Y38150D01*
X28042Y38719D02*
Y38896D01*
Y37892D02*
Y38069D01*
Y38896D02*
X28623D01*
X28042Y37892D02*
X28623D01*
X30107Y38838D02*
Y39350D01*
X73478Y75422D02*
X75722D01*
X73478Y73178D02*
X75722D01*
X73478D02*
Y75422D01*
X75722Y73178D02*
Y75422D01*
X28600Y36200D02*
Y37200D01*
X30600D01*
Y36200D02*
Y37200D01*
X28600Y36200D02*
X30600D01*
X74843Y70369D02*
X75157D01*
X75643D02*
X75957D01*
X74143D02*
X74457D01*
X115897Y68999D02*
X116803D01*
Y69857D02*
Y70487D01*
X115897Y69857D02*
Y70487D01*
X116803D01*
X115897Y68861D02*
X116803D01*
Y69543D01*
X115897Y68861D02*
Y69543D01*
X123947Y68999D02*
X124853D01*
Y69857D02*
Y70487D01*
X123947Y69857D02*
Y70487D01*
X124853D01*
X123947Y68861D02*
X124853D01*
Y69543D01*
X123947Y68861D02*
Y69543D01*
X100197Y48228D02*
X100591Y47835D01*
X100197Y37598D02*
X100591Y37992D01*
X89961D02*
X90354Y37598D01*
X89961Y48228D02*
X100197D01*
X100591Y37992D02*
Y47835D01*
X90354Y37598D02*
X100197D01*
X89961Y37992D02*
Y48228D01*
X45171Y43917D02*
Y44429D01*
X138720Y37770D02*
X139232D01*
X106482Y36279D02*
Y36791D01*
X117224Y39738D02*
X117736D01*
X106325Y40059D02*
Y40571D01*
X106325Y38957D02*
Y39468D01*
X107785Y38386D02*
Y38405D01*
X107077Y38386D02*
Y38405D01*
X107785Y37224D02*
Y37244D01*
X107077Y37224D02*
Y37244D01*
Y37224D02*
X107785D01*
X107077Y38405D02*
X107785D01*
X35998Y44644D02*
Y45156D01*
X35880Y65649D02*
Y66161D01*
X124199Y32342D02*
Y32854D01*
X128405Y38006D02*
X128917D01*
X135301Y32421D02*
Y32933D01*
X58543Y70631D02*
X58857D01*
X59543Y71869D02*
X59857D01*
X114752Y68999D02*
X114948D01*
X122952Y68949D02*
X123148D01*
X96279Y32598D02*
X96476D01*
X97382D02*
X97579D01*
X90802Y33651D02*
X90998D01*
X90802Y34851D02*
X90998D01*
X99802Y36051D02*
X99998D01*
D64*
X148007Y76096D02*
X148647D01*
X149047D02*
X149687D01*
X150087D02*
X150727D01*
X151127D02*
X151767D01*
X152167D02*
X153847D01*
X148007Y76056D02*
X148647D01*
X149047D02*
X149687D01*
X150087D02*
X150727D01*
X151127D02*
X151767D01*
X152167D02*
X153847D01*
X148007Y76016D02*
X148647D01*
X149047D02*
X149687D01*
X150087D02*
X150727D01*
X151127D02*
X151767D01*
X152167D02*
X153847D01*
X148007Y75976D02*
X148647D01*
X149047D02*
X149687D01*
X150087D02*
X150727D01*
X151127D02*
X151767D01*
X152167D02*
X153847D01*
X148007Y75936D02*
X148647D01*
X149047D02*
X149687D01*
X150087D02*
X150727D01*
X151127D02*
X151767D01*
X152167D02*
X153847D01*
X148007Y75896D02*
X148647D01*
X149047D02*
X149687D01*
X150087D02*
X150727D01*
X151127D02*
X151767D01*
X152167D02*
X153847D01*
X148007Y75856D02*
X148647D01*
X149047D02*
X149687D01*
X150087D02*
X150727D01*
X151127D02*
X151767D01*
X152167D02*
X153847D01*
X148007Y75816D02*
X148647D01*
X149047D02*
X149687D01*
X150087D02*
X150727D01*
X151127D02*
X151767D01*
X152167D02*
X153847D01*
X148007Y75776D02*
X148647D01*
X149047D02*
X149687D01*
X150087D02*
X150727D01*
X151127D02*
X151767D01*
X152167D02*
X153847D01*
X148007Y75736D02*
X148647D01*
X149047D02*
X149687D01*
X150087D02*
X150727D01*
X151127D02*
X151767D01*
X152167D02*
X153847D01*
X148007Y75696D02*
X148647D01*
X149047D02*
X149687D01*
X150087D02*
X150727D01*
X151127D02*
X151767D01*
X152167D02*
X153847D01*
X148007Y75656D02*
X148647D01*
X149047D02*
X149687D01*
X150087D02*
X150727D01*
X151127D02*
X151767D01*
X152167D02*
X153847D01*
X148007Y75616D02*
X148647D01*
X149047D02*
X149687D01*
X150087D02*
X150727D01*
X151127D02*
X151767D01*
X152167D02*
X153847D01*
X148007Y75576D02*
X148647D01*
X149047D02*
X149687D01*
X150087D02*
X150727D01*
X151127D02*
X151767D01*
X152167D02*
X153847D01*
X148007Y75536D02*
X148647D01*
X149047D02*
X149687D01*
X150087D02*
X150727D01*
X151127D02*
X151767D01*
X152167D02*
X153847D01*
X148007Y75496D02*
X148647D01*
X149047D02*
X149687D01*
X150087D02*
X150727D01*
X151127D02*
X151767D01*
X152167D02*
X153847D01*
X148007Y75456D02*
X148647D01*
X149047D02*
X149687D01*
X150087D02*
X150727D01*
X148007Y75416D02*
X148647D01*
X149047D02*
X149687D01*
X150087D02*
X150727D01*
X148007Y75376D02*
X148647D01*
X149047D02*
X149687D01*
X150087D02*
X150727D01*
X148007Y75336D02*
X148647D01*
X149047D02*
X149687D01*
X150087D02*
X150727D01*
X148007Y75296D02*
X148647D01*
X149047D02*
X149687D01*
X150087D02*
X150727D01*
X148007Y75256D02*
X148647D01*
X149047D02*
X149687D01*
X150087D02*
X150727D01*
X148007Y75216D02*
X148647D01*
X149047D02*
X149687D01*
X150087D02*
X150727D01*
X148007Y75176D02*
X148647D01*
X149047D02*
X149687D01*
X150087D02*
X150727D01*
X148007Y75136D02*
X148647D01*
X149047D02*
X149687D01*
X150087D02*
X150727D01*
X148007Y75096D02*
X148647D01*
X149047D02*
X149687D01*
X150087D02*
X150727D01*
X148007Y75056D02*
X148647D01*
X149047D02*
X149687D01*
X150087D02*
X150727D01*
X151127D02*
X151767D01*
X152167D02*
X152807D01*
X148007Y75016D02*
X148647D01*
X149047D02*
X149687D01*
X150087D02*
X150727D01*
X151127D02*
X151767D01*
X152167D02*
X152807D01*
X148007Y74976D02*
X148647D01*
X149047D02*
X149687D01*
X150087D02*
X150727D01*
X151127D02*
X151767D01*
X152167D02*
X152807D01*
X148007Y74936D02*
X148647D01*
X149047D02*
X149687D01*
X150087D02*
X150727D01*
X151127D02*
X151767D01*
X152167D02*
X152807D01*
X148007Y74896D02*
X148647D01*
X149047D02*
X149687D01*
X150087D02*
X150727D01*
X151127D02*
X151767D01*
X152167D02*
X152807D01*
X148007Y74856D02*
X148647D01*
X149047D02*
X149687D01*
X150087D02*
X150727D01*
X151127D02*
X151767D01*
X152167D02*
X152807D01*
X148007Y74816D02*
X148647D01*
X149047D02*
X149687D01*
X150087D02*
X150727D01*
X151127D02*
X151767D01*
X152167D02*
X152807D01*
X148007Y74776D02*
X148647D01*
X149047D02*
X149687D01*
X150087D02*
X150727D01*
X151127D02*
X151767D01*
X152167D02*
X152807D01*
X148007Y74736D02*
X148647D01*
X149047D02*
X149687D01*
X150087D02*
X150727D01*
X151127D02*
X151767D01*
X152167D02*
X152807D01*
X148007Y74696D02*
X148647D01*
X149047D02*
X149687D01*
X150087D02*
X150727D01*
X151127D02*
X151767D01*
X152167D02*
X152807D01*
X148007Y74656D02*
X148647D01*
X149047D02*
X149687D01*
X150087D02*
X150727D01*
X151127D02*
X151767D01*
X152167D02*
X152807D01*
X148007Y74616D02*
X148647D01*
X149047D02*
X149687D01*
X150087D02*
X150727D01*
X151127D02*
X151767D01*
X152167D02*
X152807D01*
X148007Y74576D02*
X148647D01*
X149047D02*
X149687D01*
X150087D02*
X150727D01*
X151127D02*
X151767D01*
X152167D02*
X152807D01*
X148007Y74536D02*
X148647D01*
X149047D02*
X149687D01*
X150087D02*
X150727D01*
X151127D02*
X151767D01*
X152167D02*
X152807D01*
X148007Y74496D02*
X148647D01*
X149047D02*
X149687D01*
X150087D02*
X150727D01*
X151127D02*
X151767D01*
X152167D02*
X152807D01*
X148007Y74456D02*
X148647D01*
X149047D02*
X149687D01*
X150087D02*
X150727D01*
X151127D02*
X151767D01*
X152167D02*
X152807D01*
X148007Y74416D02*
X148647D01*
X149047D02*
X149687D01*
X150087D02*
X150727D01*
X151127D02*
X151767D01*
X152167D02*
X152807D01*
X148007Y74376D02*
X148647D01*
X149047D02*
X149687D01*
X150087D02*
X150727D01*
X151127D02*
X151767D01*
X152167D02*
X152807D01*
X148007Y74336D02*
X148647D01*
X149047D02*
X149687D01*
X150087D02*
X150727D01*
X151127D02*
X151767D01*
X152167D02*
X152807D01*
X148007Y74296D02*
X148647D01*
X149047D02*
X149687D01*
X150087D02*
X150727D01*
X151127D02*
X151767D01*
X152167D02*
X152807D01*
X148007Y74256D02*
X148647D01*
X149047D02*
X149687D01*
X150087D02*
X150727D01*
X151127D02*
X151767D01*
X152167D02*
X152807D01*
X148007Y74216D02*
X148647D01*
X149047D02*
X149687D01*
X150087D02*
X150727D01*
X151127D02*
X151767D01*
X152167D02*
X152807D01*
X148007Y74176D02*
X148647D01*
X149047D02*
X149687D01*
X150087D02*
X150727D01*
X151127D02*
X151767D01*
X152167D02*
X152807D01*
X148007Y74136D02*
X148647D01*
X149047D02*
X149687D01*
X150087D02*
X150727D01*
X151127D02*
X151767D01*
X152167D02*
X152807D01*
X148007Y74096D02*
X148647D01*
X149047D02*
X149687D01*
X150087D02*
X150727D01*
X151127D02*
X151767D01*
X152167D02*
X152807D01*
X148007Y74056D02*
X148647D01*
X149047D02*
X149687D01*
X150087D02*
X150727D01*
X151127D02*
X151767D01*
X152167D02*
X152807D01*
X148007Y74016D02*
X148647D01*
X150087D02*
X150727D01*
X151127D02*
X151767D01*
X152167D02*
X152807D01*
X148007Y73976D02*
X148647D01*
X150087D02*
X150727D01*
X151127D02*
X151767D01*
X152167D02*
X152807D01*
X148007Y73936D02*
X148647D01*
X150087D02*
X150727D01*
X151127D02*
X151767D01*
X152167D02*
X152807D01*
X148007Y73896D02*
X148647D01*
X150087D02*
X150727D01*
X151127D02*
X151767D01*
X152167D02*
X152807D01*
X148007Y73856D02*
X148647D01*
X150087D02*
X150727D01*
X151127D02*
X151767D01*
X152167D02*
X152807D01*
X148007Y73816D02*
X148647D01*
X150087D02*
X150727D01*
X151127D02*
X151767D01*
X152167D02*
X152807D01*
X148007Y73776D02*
X148647D01*
X150087D02*
X150727D01*
X151127D02*
X151767D01*
X152167D02*
X152807D01*
X148007Y73736D02*
X148647D01*
X150087D02*
X150727D01*
X151127D02*
X151767D01*
X152167D02*
X152807D01*
X148007Y73696D02*
X148647D01*
X150087D02*
X150727D01*
X151127D02*
X151767D01*
X152167D02*
X152807D01*
X148007Y73656D02*
X148647D01*
X150087D02*
X150727D01*
X151127D02*
X151767D01*
X152167D02*
X152807D01*
X148007Y73616D02*
X148647D01*
X150087D02*
X150727D01*
X151127D02*
X151767D01*
X152167D02*
X152807D01*
X148007Y73576D02*
X148647D01*
X150087D02*
X150727D01*
X151127D02*
X151767D01*
X152167D02*
X152807D01*
X148007Y73536D02*
X148647D01*
X150087D02*
X150727D01*
X151127D02*
X151767D01*
X152167D02*
X152807D01*
X148007Y73496D02*
X148647D01*
X150087D02*
X150727D01*
X151127D02*
X151767D01*
X152167D02*
X152807D01*
X148007Y73456D02*
X148647D01*
X150087D02*
X150727D01*
X151127D02*
X151767D01*
X152167D02*
X152807D01*
X148007Y73416D02*
X148647D01*
X150087D02*
X150727D01*
X151127D02*
X151767D01*
X152167D02*
X152807D01*
X148007Y73376D02*
X148647D01*
X150087D02*
X150727D01*
X151127D02*
X151767D01*
X152167D02*
X152807D01*
X148007Y73336D02*
X148647D01*
X150087D02*
X150727D01*
X151127D02*
X151767D01*
X152167D02*
X152807D01*
X148007Y73296D02*
X148647D01*
X150087D02*
X150727D01*
X151127D02*
X151767D01*
X152167D02*
X152807D01*
X148007Y73256D02*
X148647D01*
X150087D02*
X150727D01*
X151127D02*
X151767D01*
X152167D02*
X152807D01*
X148007Y73216D02*
X148647D01*
X150087D02*
X150727D01*
X151127D02*
X151767D01*
X152167D02*
X152807D01*
X148007Y73176D02*
X148647D01*
X150087D02*
X150727D01*
X151127D02*
X151767D01*
X152167D02*
X152807D01*
X148007Y73136D02*
X148647D01*
X150087D02*
X150727D01*
X151127D02*
X151767D01*
X152167D02*
X152807D01*
X148007Y73096D02*
X148647D01*
X150087D02*
X150727D01*
X151127D02*
X151767D01*
X152167D02*
X152807D01*
D65*
X142601Y50913D02*
X145199D01*
X142601Y67735D02*
X145199D01*
X142601Y50913D02*
Y67735D01*
X145199Y50913D02*
Y67735D01*
X135101Y50913D02*
X137699D01*
X135101Y67735D02*
X137699D01*
X135101Y50913D02*
Y67735D01*
X137699Y50913D02*
Y67735D01*
X127601Y50913D02*
X130199D01*
X127601Y67735D02*
X130199D01*
X127601Y50913D02*
Y67735D01*
X130199Y50913D02*
Y67735D01*
X150101Y50913D02*
X152699D01*
X150101Y67735D02*
X152699D01*
X150101Y50913D02*
Y67735D01*
X152699Y50913D02*
Y67735D01*
X105101Y50913D02*
X107699D01*
X105101Y67735D02*
X107699D01*
X105101Y50913D02*
Y67735D01*
X107699Y50913D02*
Y67735D01*
X97601Y50913D02*
X100199D01*
X97601Y67735D02*
X100199D01*
X97601Y50913D02*
Y67735D01*
X100199Y50913D02*
Y67735D01*
X120101Y50913D02*
X122699D01*
X120101Y67735D02*
X122699D01*
X120101Y50913D02*
Y67735D01*
X122699Y50913D02*
Y67735D01*
X112601Y50913D02*
X115199D01*
X112601Y67735D02*
X115199D01*
X112601Y50913D02*
Y67735D01*
X115199Y50913D02*
Y67735D01*
X75101Y50913D02*
X77699D01*
X75101Y67735D02*
X77699D01*
X75101Y50913D02*
Y67735D01*
X77699Y50913D02*
Y67735D01*
X67601Y50913D02*
X70199D01*
X67601Y67735D02*
X70199D01*
X67601Y50913D02*
Y67735D01*
X70199Y50913D02*
Y67735D01*
X90101Y50913D02*
X92699D01*
X90101Y67735D02*
X92699D01*
X90101Y50913D02*
Y67735D01*
X92699Y50913D02*
Y67735D01*
X82601Y50913D02*
X85199D01*
X82601Y67735D02*
X85199D01*
X82601Y50913D02*
Y67735D01*
X85199Y50913D02*
Y67735D01*
X45101Y50913D02*
X47699D01*
X45101Y67735D02*
X47699D01*
X45101Y50913D02*
Y67735D01*
X47699Y50913D02*
Y67735D01*
X37601Y50913D02*
X40199D01*
X37601Y67735D02*
X40199D01*
X37601Y50913D02*
Y67735D01*
X40199Y50913D02*
Y67735D01*
X60101Y50913D02*
X62699D01*
X60101Y67735D02*
X62699D01*
X60101Y50913D02*
Y67735D01*
X62699Y50913D02*
Y67735D01*
X52601Y50913D02*
X55199D01*
X52601Y67735D02*
X55199D01*
X52601Y50913D02*
Y67735D01*
X55199Y50913D02*
Y67735D01*
X105945Y32795D02*
Y36024D01*
X100354D02*
X105945D01*
X100354Y32795D02*
Y36024D01*
Y32795D02*
X105945D01*
X105708Y36024D02*
X105945Y35787D01*
X105669Y36024D02*
X105708D01*
X105945Y35827D02*
Y35866D01*
X105787Y36024D02*
X105945Y35866D01*
Y35905D02*
Y35945D01*
X105866Y36024D02*
X105945Y35945D01*
X60864Y70918D02*
X60564D01*
Y71068D01*
X60614Y71118D01*
X60714D01*
X60764Y71068D01*
Y70918D01*
Y71018D02*
X60864Y71118D01*
X60614Y71218D02*
X60564Y71268D01*
Y71368D01*
X60614Y71418D01*
X60664D01*
X60714Y71368D01*
Y71318D01*
Y71368D01*
X60764Y71418D01*
X60814D01*
X60864Y71368D01*
Y71268D01*
X60814Y71218D01*
X21630Y76010D02*
X21530D01*
X21580D01*
Y75760D01*
X21530Y75710D01*
X21480D01*
X21430Y75760D01*
X21730Y75710D02*
Y76010D01*
X21880D01*
X21930Y75960D01*
Y75860D01*
X21880Y75810D01*
X21730D01*
X22030Y75960D02*
X22080Y76010D01*
X22180D01*
X22230Y75960D01*
Y75910D01*
X22180Y75860D01*
X22130D01*
X22180D01*
X22230Y75810D01*
Y75760D01*
X22180Y75710D01*
X22080D01*
X22030Y75760D01*
X22736Y72441D02*
Y72741D01*
X22886D01*
X22936Y72691D01*
Y72591D01*
X22886Y72541D01*
X22736D01*
X22836D02*
X22936Y72441D01*
X23036Y72691D02*
X23086Y72741D01*
X23186D01*
X23236Y72691D01*
Y72641D01*
X23186Y72591D01*
X23236Y72541D01*
Y72491D01*
X23186Y72441D01*
X23086D01*
X23036Y72491D01*
Y72541D01*
X23086Y72591D01*
X23036Y72641D01*
Y72691D01*
X23086Y72591D02*
X23186D01*
X29921Y38780D02*
X29621D01*
Y38929D01*
X29671Y38979D01*
X29771D01*
X29821Y38929D01*
Y38780D01*
Y38879D02*
X29921Y38979D01*
X29621Y39079D02*
Y39279D01*
X29671D01*
X29871Y39079D01*
X29921D01*
X30020Y37598D02*
X29720D01*
Y37748D01*
X29770Y37798D01*
X29870D01*
X29920Y37748D01*
Y37598D01*
Y37698D02*
X30020Y37798D01*
Y38048D02*
X29720D01*
X29870Y37898D01*
Y38098D01*
X27815Y39294D02*
Y39494D01*
X27765Y39544D01*
X27665D01*
X27615Y39494D01*
Y39294D01*
X27665Y39244D01*
X27765D01*
X27715Y39344D02*
X27815Y39244D01*
X27765D02*
X27815Y39294D01*
X27915Y39244D02*
X28015D01*
X27965D01*
Y39544D01*
X27915Y39494D01*
X75984Y76186D02*
Y75936D01*
X76034Y75886D01*
X76134D01*
X76184Y75936D01*
Y76186D01*
X76284Y76136D02*
X76334Y76186D01*
X76434D01*
X76484Y76136D01*
Y76086D01*
X76434Y76036D01*
X76384D01*
X76434D01*
X76484Y75986D01*
Y75936D01*
X76434Y75886D01*
X76334D01*
X76284Y75936D01*
X158900Y47450D02*
X158850Y47500D01*
X158750D01*
X158700Y47450D01*
Y47400D01*
X158750Y47350D01*
X158850D01*
X158900Y47300D01*
Y47250D01*
X158850Y47200D01*
X158750D01*
X158700Y47250D01*
X159000Y47450D02*
X159050Y47500D01*
X159150D01*
X159200Y47450D01*
Y47400D01*
X159150Y47350D01*
X159200Y47300D01*
Y47250D01*
X159150Y47200D01*
X159050D01*
X159000Y47250D01*
Y47300D01*
X159050Y47350D01*
X159000Y47400D01*
Y47450D01*
X159050Y47350D02*
X159150D01*
X122845Y49495D02*
X122795Y49545D01*
X122695D01*
X122645Y49495D01*
Y49445D01*
X122695Y49395D01*
X122795D01*
X122845Y49345D01*
Y49295D01*
X122795Y49245D01*
X122695D01*
X122645Y49295D01*
X122945Y49545D02*
X123145D01*
Y49495D01*
X122945Y49295D01*
Y49245D01*
X64845Y49495D02*
X64795Y49545D01*
X64695D01*
X64645Y49495D01*
Y49445D01*
X64695Y49395D01*
X64795D01*
X64845Y49345D01*
Y49295D01*
X64795Y49245D01*
X64695D01*
X64645Y49295D01*
X65145Y49545D02*
X65045Y49495D01*
X64945Y49395D01*
Y49295D01*
X64995Y49245D01*
X65095D01*
X65145Y49295D01*
Y49345D01*
X65095Y49395D01*
X64945D01*
X34845Y49495D02*
X34795Y49545D01*
X34695D01*
X34645Y49495D01*
Y49445D01*
X34695Y49395D01*
X34795D01*
X34845Y49345D01*
Y49295D01*
X34795Y49245D01*
X34695D01*
X34645Y49295D01*
X35145Y49545D02*
X34945D01*
Y49395D01*
X35045Y49445D01*
X35095D01*
X35145Y49395D01*
Y49295D01*
X35095Y49245D01*
X34995D01*
X34945Y49295D01*
X158950Y74200D02*
X158900Y74250D01*
X158800D01*
X158750Y74200D01*
Y74150D01*
X158800Y74100D01*
X158900D01*
X158950Y74050D01*
Y74000D01*
X158900Y73950D01*
X158800D01*
X158750Y74000D01*
X159200Y73950D02*
Y74250D01*
X159050Y74100D01*
X159250D01*
X114350Y72200D02*
X114300Y72250D01*
X114200D01*
X114150Y72200D01*
Y72150D01*
X114200Y72100D01*
X114300D01*
X114350Y72050D01*
Y72000D01*
X114300Y71950D01*
X114200D01*
X114150Y72000D01*
X114450Y72200D02*
X114500Y72250D01*
X114600D01*
X114650Y72200D01*
Y72150D01*
X114600Y72100D01*
X114550D01*
X114600D01*
X114650Y72050D01*
Y72000D01*
X114600Y71950D01*
X114500D01*
X114450Y72000D01*
X67845Y75995D02*
X67795Y76045D01*
X67695D01*
X67645Y75995D01*
Y75945D01*
X67695Y75895D01*
X67795D01*
X67845Y75845D01*
Y75795D01*
X67795Y75745D01*
X67695D01*
X67645Y75795D01*
X68145Y75745D02*
X67945D01*
X68145Y75945D01*
Y75995D01*
X68095Y76045D01*
X67995D01*
X67945Y75995D01*
X23845D02*
X23795Y76045D01*
X23695D01*
X23645Y75995D01*
Y75945D01*
X23695Y75895D01*
X23795D01*
X23845Y75845D01*
Y75795D01*
X23795Y75745D01*
X23695D01*
X23645Y75795D01*
X23945Y75745D02*
X24045D01*
X23995D01*
Y76045D01*
X23945Y75995D01*
X94874Y34985D02*
X94774D01*
X94724Y34935D01*
Y34735D01*
X94774Y34685D01*
X94874D01*
X94924Y34735D01*
Y34935D01*
X94874Y34985D01*
X95224Y34685D02*
X95024D01*
X95224Y34885D01*
Y34935D01*
X95174Y34985D01*
X95074D01*
X95024Y34935D01*
X85632Y48649D02*
X85582Y48599D01*
Y48499D01*
X85632Y48449D01*
X85832D01*
X85882Y48499D01*
Y48599D01*
X85832Y48649D01*
X85632Y48749D02*
X85582Y48799D01*
Y48899D01*
X85632Y48949D01*
X85682D01*
X85732Y48899D01*
Y48849D01*
Y48899D01*
X85782Y48949D01*
X85832D01*
X85882Y48899D01*
Y48799D01*
X85832Y48749D01*
X85632Y49049D02*
X85582Y49099D01*
Y49199D01*
X85632Y49249D01*
X85682D01*
X85732Y49199D01*
X85782Y49249D01*
X85832D01*
X85882Y49199D01*
Y49099D01*
X85832Y49049D01*
X85782D01*
X85732Y49099D01*
X85682Y49049D01*
X85632D01*
X85732Y49099D02*
Y49199D01*
X105471Y49934D02*
X105521Y49984D01*
Y50084D01*
X105471Y50134D01*
X105271D01*
X105221Y50084D01*
Y49984D01*
X105271Y49934D01*
X105221Y49634D02*
Y49834D01*
X105421Y49634D01*
X105471D01*
X105521Y49684D01*
Y49784D01*
X105471Y49834D01*
X105271Y49534D02*
X105221Y49484D01*
Y49384D01*
X105271Y49334D01*
X105471D01*
X105521Y49384D01*
Y49484D01*
X105471Y49534D01*
X105421D01*
X105371Y49484D01*
Y49334D01*
X102500Y41800D02*
X102450Y41850D01*
X102350D01*
X102300Y41800D01*
Y41600D01*
X102350Y41550D01*
X102450D01*
X102500Y41600D01*
X102800Y41550D02*
X102600D01*
X102800Y41750D01*
Y41800D01*
X102750Y41850D01*
X102650D01*
X102600Y41800D01*
X102900D02*
X102950Y41850D01*
X103050D01*
X103100Y41800D01*
Y41750D01*
X103050Y41700D01*
X103100Y41650D01*
Y41600D01*
X103050Y41550D01*
X102950D01*
X102900Y41600D01*
Y41650D01*
X102950Y41700D01*
X102900Y41750D01*
Y41800D01*
X102950Y41700D02*
X103050D01*
X34350Y45500D02*
Y45800D01*
X34500D01*
X34550Y45750D01*
Y45650D01*
X34500Y45600D01*
X34350D01*
X34450D02*
X34550Y45500D01*
X34650D02*
X34750D01*
X34700D01*
Y45800D01*
X34650Y45750D01*
X34405Y66464D02*
Y66764D01*
X34555D01*
X34605Y66714D01*
Y66614D01*
X34555Y66564D01*
X34405D01*
X34505D02*
X34605Y66464D01*
X34705D02*
X34805D01*
X34755D01*
Y66764D01*
X34705Y66714D01*
X35105Y66464D02*
Y66764D01*
X34955Y66614D01*
X35155D01*
X150165Y68375D02*
Y68075D01*
X150315D01*
X150365Y68125D01*
Y68325D01*
X150315Y68375D01*
X150165D01*
X150665Y68325D02*
X150615Y68375D01*
X150515D01*
X150465Y68325D01*
Y68275D01*
X150515Y68225D01*
X150615D01*
X150665Y68175D01*
Y68125D01*
X150615Y68075D01*
X150515D01*
X150465Y68125D01*
X150765Y68075D02*
Y68375D01*
X150915D01*
X150965Y68325D01*
Y68225D01*
X150915Y68175D01*
X150765D01*
X151065Y68075D02*
X151165D01*
X151115D01*
Y68375D01*
X151065Y68325D01*
X151515Y68375D02*
X151315D01*
Y68225D01*
X151415Y68275D01*
X151465D01*
X151515Y68225D01*
Y68125D01*
X151465Y68075D01*
X151365D01*
X151315Y68125D01*
X142665Y68375D02*
Y68075D01*
X142815D01*
X142865Y68125D01*
Y68325D01*
X142815Y68375D01*
X142665D01*
X143165Y68325D02*
X143115Y68375D01*
X143015D01*
X142965Y68325D01*
Y68275D01*
X143015Y68225D01*
X143115D01*
X143165Y68175D01*
Y68125D01*
X143115Y68075D01*
X143015D01*
X142965Y68125D01*
X143265Y68075D02*
Y68375D01*
X143415D01*
X143465Y68325D01*
Y68225D01*
X143415Y68175D01*
X143265D01*
X143565Y68075D02*
X143665D01*
X143615D01*
Y68375D01*
X143565Y68325D01*
X143965Y68075D02*
Y68375D01*
X143815Y68225D01*
X144015D01*
X135165Y68375D02*
Y68075D01*
X135315D01*
X135365Y68125D01*
Y68325D01*
X135315Y68375D01*
X135165D01*
X135665Y68325D02*
X135615Y68375D01*
X135515D01*
X135465Y68325D01*
Y68275D01*
X135515Y68225D01*
X135615D01*
X135665Y68175D01*
Y68125D01*
X135615Y68075D01*
X135515D01*
X135465Y68125D01*
X135765Y68075D02*
Y68375D01*
X135915D01*
X135965Y68325D01*
Y68225D01*
X135915Y68175D01*
X135765D01*
X136065Y68075D02*
X136165D01*
X136115D01*
Y68375D01*
X136065Y68325D01*
X136315D02*
X136365Y68375D01*
X136465D01*
X136515Y68325D01*
Y68275D01*
X136465Y68225D01*
X136415D01*
X136465D01*
X136515Y68175D01*
Y68125D01*
X136465Y68075D01*
X136365D01*
X136315Y68125D01*
X127665Y68375D02*
Y68075D01*
X127815D01*
X127865Y68125D01*
Y68325D01*
X127815Y68375D01*
X127665D01*
X128165Y68325D02*
X128115Y68375D01*
X128015D01*
X127965Y68325D01*
Y68275D01*
X128015Y68225D01*
X128115D01*
X128165Y68175D01*
Y68125D01*
X128115Y68075D01*
X128015D01*
X127965Y68125D01*
X128265Y68075D02*
Y68375D01*
X128415D01*
X128465Y68325D01*
Y68225D01*
X128415Y68175D01*
X128265D01*
X128565Y68075D02*
X128665D01*
X128615D01*
Y68375D01*
X128565Y68325D01*
X129015Y68075D02*
X128815D01*
X129015Y68275D01*
Y68325D01*
X128965Y68375D01*
X128865D01*
X128815Y68325D01*
X120165Y68375D02*
Y68075D01*
X120315D01*
X120365Y68125D01*
Y68325D01*
X120315Y68375D01*
X120165D01*
X120665Y68325D02*
X120615Y68375D01*
X120515D01*
X120465Y68325D01*
Y68275D01*
X120515Y68225D01*
X120615D01*
X120665Y68175D01*
Y68125D01*
X120615Y68075D01*
X120515D01*
X120465Y68125D01*
X120765Y68075D02*
Y68375D01*
X120915D01*
X120965Y68325D01*
Y68225D01*
X120915Y68175D01*
X120765D01*
X121065Y68075D02*
X121165D01*
X121115D01*
Y68375D01*
X121065Y68325D01*
X121315Y68075D02*
X121415D01*
X121365D01*
Y68375D01*
X121315Y68325D01*
X112665Y68375D02*
Y68075D01*
X112815D01*
X112865Y68125D01*
Y68325D01*
X112815Y68375D01*
X112665D01*
X113165Y68325D02*
X113115Y68375D01*
X113015D01*
X112965Y68325D01*
Y68275D01*
X113015Y68225D01*
X113115D01*
X113165Y68175D01*
Y68125D01*
X113115Y68075D01*
X113015D01*
X112965Y68125D01*
X113265Y68075D02*
Y68375D01*
X113415D01*
X113465Y68325D01*
Y68225D01*
X113415Y68175D01*
X113265D01*
X113565Y68075D02*
X113665D01*
X113615D01*
Y68375D01*
X113565Y68325D01*
X113815D02*
X113865Y68375D01*
X113965D01*
X114015Y68325D01*
Y68125D01*
X113965Y68075D01*
X113865D01*
X113815Y68125D01*
Y68325D01*
X105165Y68375D02*
Y68075D01*
X105315D01*
X105365Y68125D01*
Y68325D01*
X105315Y68375D01*
X105165D01*
X105665Y68325D02*
X105615Y68375D01*
X105515D01*
X105465Y68325D01*
Y68275D01*
X105515Y68225D01*
X105615D01*
X105665Y68175D01*
Y68125D01*
X105615Y68075D01*
X105515D01*
X105465Y68125D01*
X105765Y68075D02*
Y68375D01*
X105915D01*
X105965Y68325D01*
Y68225D01*
X105915Y68175D01*
X105765D01*
X106065Y68125D02*
X106115Y68075D01*
X106215D01*
X106265Y68125D01*
Y68325D01*
X106215Y68375D01*
X106115D01*
X106065Y68325D01*
Y68275D01*
X106115Y68225D01*
X106265D01*
X97665Y68375D02*
Y68075D01*
X97815D01*
X97865Y68125D01*
Y68325D01*
X97815Y68375D01*
X97665D01*
X98165Y68325D02*
X98115Y68375D01*
X98015D01*
X97965Y68325D01*
Y68275D01*
X98015Y68225D01*
X98115D01*
X98165Y68175D01*
Y68125D01*
X98115Y68075D01*
X98015D01*
X97965Y68125D01*
X98265Y68075D02*
Y68375D01*
X98415D01*
X98465Y68325D01*
Y68225D01*
X98415Y68175D01*
X98265D01*
X98565Y68325D02*
X98615Y68375D01*
X98715D01*
X98765Y68325D01*
Y68275D01*
X98715Y68225D01*
X98765Y68175D01*
Y68125D01*
X98715Y68075D01*
X98615D01*
X98565Y68125D01*
Y68175D01*
X98615Y68225D01*
X98565Y68275D01*
Y68325D01*
X98615Y68225D02*
X98715D01*
X90165Y68375D02*
Y68075D01*
X90315D01*
X90365Y68125D01*
Y68325D01*
X90315Y68375D01*
X90165D01*
X90665Y68325D02*
X90615Y68375D01*
X90515D01*
X90465Y68325D01*
Y68275D01*
X90515Y68225D01*
X90615D01*
X90665Y68175D01*
Y68125D01*
X90615Y68075D01*
X90515D01*
X90465Y68125D01*
X90765Y68075D02*
Y68375D01*
X90915D01*
X90965Y68325D01*
Y68225D01*
X90915Y68175D01*
X90765D01*
X91065Y68375D02*
X91265D01*
Y68325D01*
X91065Y68125D01*
Y68075D01*
X82665Y68375D02*
Y68075D01*
X82815D01*
X82865Y68125D01*
Y68325D01*
X82815Y68375D01*
X82665D01*
X83165Y68325D02*
X83115Y68375D01*
X83015D01*
X82965Y68325D01*
Y68275D01*
X83015Y68225D01*
X83115D01*
X83165Y68175D01*
Y68125D01*
X83115Y68075D01*
X83015D01*
X82965Y68125D01*
X83265Y68075D02*
Y68375D01*
X83415D01*
X83465Y68325D01*
Y68225D01*
X83415Y68175D01*
X83265D01*
X83765Y68375D02*
X83665Y68325D01*
X83565Y68225D01*
Y68125D01*
X83615Y68075D01*
X83715D01*
X83765Y68125D01*
Y68175D01*
X83715Y68225D01*
X83565D01*
X75165Y68375D02*
Y68075D01*
X75315D01*
X75365Y68125D01*
Y68325D01*
X75315Y68375D01*
X75165D01*
X75665Y68325D02*
X75615Y68375D01*
X75515D01*
X75465Y68325D01*
Y68275D01*
X75515Y68225D01*
X75615D01*
X75665Y68175D01*
Y68125D01*
X75615Y68075D01*
X75515D01*
X75465Y68125D01*
X75765Y68075D02*
Y68375D01*
X75915D01*
X75965Y68325D01*
Y68225D01*
X75915Y68175D01*
X75765D01*
X76265Y68375D02*
X76065D01*
Y68225D01*
X76165Y68275D01*
X76215D01*
X76265Y68225D01*
Y68125D01*
X76215Y68075D01*
X76115D01*
X76065Y68125D01*
X67665Y68375D02*
Y68075D01*
X67815D01*
X67865Y68125D01*
Y68325D01*
X67815Y68375D01*
X67665D01*
X68165Y68325D02*
X68115Y68375D01*
X68015D01*
X67965Y68325D01*
Y68275D01*
X68015Y68225D01*
X68115D01*
X68165Y68175D01*
Y68125D01*
X68115Y68075D01*
X68015D01*
X67965Y68125D01*
X68265Y68075D02*
Y68375D01*
X68415D01*
X68465Y68325D01*
Y68225D01*
X68415Y68175D01*
X68265D01*
X68715Y68075D02*
Y68375D01*
X68565Y68225D01*
X68765D01*
X60165Y68375D02*
Y68075D01*
X60315D01*
X60365Y68125D01*
Y68325D01*
X60315Y68375D01*
X60165D01*
X60665Y68325D02*
X60615Y68375D01*
X60515D01*
X60465Y68325D01*
Y68275D01*
X60515Y68225D01*
X60615D01*
X60665Y68175D01*
Y68125D01*
X60615Y68075D01*
X60515D01*
X60465Y68125D01*
X60765Y68075D02*
Y68375D01*
X60915D01*
X60965Y68325D01*
Y68225D01*
X60915Y68175D01*
X60765D01*
X61065Y68325D02*
X61115Y68375D01*
X61215D01*
X61265Y68325D01*
Y68275D01*
X61215Y68225D01*
X61165D01*
X61215D01*
X61265Y68175D01*
Y68125D01*
X61215Y68075D01*
X61115D01*
X61065Y68125D01*
X52665Y68375D02*
Y68075D01*
X52815D01*
X52865Y68125D01*
Y68325D01*
X52815Y68375D01*
X52665D01*
X53165Y68325D02*
X53115Y68375D01*
X53015D01*
X52965Y68325D01*
Y68275D01*
X53015Y68225D01*
X53115D01*
X53165Y68175D01*
Y68125D01*
X53115Y68075D01*
X53015D01*
X52965Y68125D01*
X53265Y68075D02*
Y68375D01*
X53415D01*
X53465Y68325D01*
Y68225D01*
X53415Y68175D01*
X53265D01*
X53765Y68075D02*
X53565D01*
X53765Y68275D01*
Y68325D01*
X53715Y68375D01*
X53615D01*
X53565Y68325D01*
X45165Y68375D02*
Y68075D01*
X45315D01*
X45365Y68125D01*
Y68325D01*
X45315Y68375D01*
X45165D01*
X45665Y68325D02*
X45615Y68375D01*
X45515D01*
X45465Y68325D01*
Y68275D01*
X45515Y68225D01*
X45615D01*
X45665Y68175D01*
Y68125D01*
X45615Y68075D01*
X45515D01*
X45465Y68125D01*
X45765Y68075D02*
Y68375D01*
X45915D01*
X45965Y68325D01*
Y68225D01*
X45915Y68175D01*
X45765D01*
X46065Y68075D02*
X46165D01*
X46115D01*
Y68375D01*
X46065Y68325D01*
X37665Y68375D02*
Y68075D01*
X37815D01*
X37865Y68125D01*
Y68325D01*
X37815Y68375D01*
X37665D01*
X38165Y68325D02*
X38115Y68375D01*
X38015D01*
X37965Y68325D01*
Y68275D01*
X38015Y68225D01*
X38115D01*
X38165Y68175D01*
Y68125D01*
X38115Y68075D01*
X38015D01*
X37965Y68125D01*
X38265Y68075D02*
Y68375D01*
X38415D01*
X38465Y68325D01*
Y68225D01*
X38415Y68175D01*
X38265D01*
X38565Y68325D02*
X38615Y68375D01*
X38715D01*
X38765Y68325D01*
Y68125D01*
X38715Y68075D01*
X38615D01*
X38565Y68125D01*
Y68325D01*
X34700Y61800D02*
X34650Y61750D01*
Y61650D01*
X34700Y61600D01*
X34900D01*
X34950Y61650D01*
Y61750D01*
X34900Y61800D01*
X34650Y62100D02*
X34700Y62000D01*
X34800Y61900D01*
X34900D01*
X34950Y61950D01*
Y62050D01*
X34900Y62100D01*
X34850D01*
X34800Y62050D01*
Y61900D01*
X42050Y57500D02*
X42100Y57450D01*
X42200D01*
X42250Y57500D01*
Y57700D01*
X42200Y57750D01*
X42100D01*
X42050Y57700D01*
X41950Y57450D02*
X41750D01*
Y57500D01*
X41950Y57700D01*
Y57750D01*
X34650Y58200D02*
X34600Y58150D01*
Y58050D01*
X34650Y58000D01*
X34850D01*
X34900Y58050D01*
Y58150D01*
X34850Y58200D01*
X34600Y58500D02*
Y58300D01*
X34750D01*
X34700Y58400D01*
Y58450D01*
X34750Y58500D01*
X34850D01*
X34900Y58450D01*
Y58350D01*
X34850Y58300D01*
X42200Y61700D02*
X42150Y61650D01*
Y61550D01*
X42200Y61500D01*
X42400D01*
X42450Y61550D01*
Y61650D01*
X42400Y61700D01*
Y61800D02*
X42450Y61850D01*
Y61950D01*
X42400Y62000D01*
X42200D01*
X42150Y61950D01*
Y61850D01*
X42200Y61800D01*
X42250D01*
X42300Y61850D01*
Y62000D01*
X49603Y57427D02*
X49653Y57377D01*
X49753D01*
X49803Y57427D01*
Y57627D01*
X49753Y57677D01*
X49653D01*
X49603Y57627D01*
X49503Y57677D02*
X49403D01*
X49453D01*
Y57377D01*
X49503Y57427D01*
X49253D02*
X49203Y57377D01*
X49103D01*
X49053Y57427D01*
Y57627D01*
X49103Y57677D01*
X49203D01*
X49253Y57627D01*
Y57427D01*
X44050Y57450D02*
X44100Y57400D01*
X44200D01*
X44250Y57450D01*
Y57650D01*
X44200Y57700D01*
X44100D01*
X44050Y57650D01*
X43950Y57450D02*
X43900Y57400D01*
X43800D01*
X43750Y57450D01*
Y57500D01*
X43800Y57550D01*
X43750Y57600D01*
Y57650D01*
X43800Y57700D01*
X43900D01*
X43950Y57650D01*
Y57600D01*
X43900Y57550D01*
X43950Y57500D01*
Y57450D01*
X43900Y57550D02*
X43800D01*
X49700Y61800D02*
X49650Y61750D01*
Y61650D01*
X49700Y61600D01*
X49900D01*
X49950Y61650D01*
Y61750D01*
X49900Y61800D01*
X49950Y61900D02*
Y62000D01*
Y61950D01*
X49650D01*
X49700Y61900D01*
X49950Y62350D02*
Y62150D01*
X49750Y62350D01*
X49700D01*
X49650Y62300D01*
Y62200D01*
X49700Y62150D01*
X57100Y57400D02*
X57150Y57350D01*
X57250D01*
X57300Y57400D01*
Y57600D01*
X57250Y57650D01*
X57150D01*
X57100Y57600D01*
X57000Y57650D02*
X56900D01*
X56950D01*
Y57350D01*
X57000Y57400D01*
X56750D02*
X56700Y57350D01*
X56600D01*
X56550Y57400D01*
Y57450D01*
X56600Y57500D01*
X56650D01*
X56600D01*
X56550Y57550D01*
Y57600D01*
X56600Y57650D01*
X56700D01*
X56750Y57600D01*
X51600Y57400D02*
X51650Y57350D01*
X51750D01*
X51800Y57400D01*
Y57600D01*
X51750Y57650D01*
X51650D01*
X51600Y57600D01*
X51500Y57650D02*
X51400D01*
X51450D01*
Y57350D01*
X51500Y57400D01*
X51250Y57650D02*
X51150D01*
X51200D01*
Y57350D01*
X51250Y57400D01*
X57300Y61650D02*
X57250Y61600D01*
Y61500D01*
X57300Y61450D01*
X57500D01*
X57550Y61500D01*
Y61600D01*
X57500Y61650D01*
X57550Y61750D02*
Y61850D01*
Y61800D01*
X57250D01*
X57300Y61750D01*
X57250Y62200D02*
Y62000D01*
X57400D01*
X57350Y62100D01*
Y62150D01*
X57400Y62200D01*
X57500D01*
X57550Y62150D01*
Y62050D01*
X57500Y62000D01*
X64600Y57400D02*
X64650Y57350D01*
X64750D01*
X64800Y57400D01*
Y57600D01*
X64750Y57650D01*
X64650D01*
X64600Y57600D01*
X64500Y57650D02*
X64400D01*
X64450D01*
Y57350D01*
X64500Y57400D01*
X64250D02*
X64200Y57350D01*
X64100D01*
X64050Y57400D01*
Y57450D01*
X64100Y57500D01*
X64050Y57550D01*
Y57600D01*
X64100Y57650D01*
X64200D01*
X64250Y57600D01*
Y57550D01*
X64200Y57500D01*
X64250Y57450D01*
Y57400D01*
X64200Y57500D02*
X64100D01*
X59100Y57400D02*
X59150Y57350D01*
X59250D01*
X59300Y57400D01*
Y57600D01*
X59250Y57650D01*
X59150D01*
X59100Y57600D01*
X59000Y57650D02*
X58900D01*
X58950D01*
Y57350D01*
X59000Y57400D01*
X58600Y57650D02*
Y57350D01*
X58750Y57500D01*
X58550D01*
X73917Y69291D02*
X73617D01*
Y69441D01*
X73667Y69491D01*
X73767D01*
X73817Y69441D01*
Y69291D01*
Y69391D02*
X73917Y69491D01*
X73867Y69591D02*
X73917Y69641D01*
Y69741D01*
X73867Y69791D01*
X73667D01*
X73617Y69741D01*
Y69641D01*
X73667Y69591D01*
X73717D01*
X73767Y69641D01*
Y69791D01*
X75394Y69094D02*
Y68795D01*
X75244D01*
X75194Y68845D01*
Y68945D01*
X75244Y68995D01*
X75394D01*
X75294D02*
X75194Y69094D01*
X75094D02*
X74994D01*
X75044D01*
Y68795D01*
X75094Y68845D01*
X74844D02*
X74794Y68795D01*
X74694D01*
X74644Y68845D01*
Y69044D01*
X74694Y69094D01*
X74794D01*
X74844Y69044D01*
Y68845D01*
X76181Y70276D02*
X76481D01*
Y70126D01*
X76431Y70076D01*
X76331D01*
X76281Y70126D01*
Y70276D01*
Y70176D02*
X76181Y70076D01*
Y69976D02*
Y69876D01*
Y69926D01*
X76481D01*
X76431Y69976D01*
X76181Y69726D02*
Y69626D01*
Y69676D01*
X76481D01*
X76431Y69726D01*
X60039Y71752D02*
X60339D01*
Y71602D01*
X60289Y71552D01*
X60189D01*
X60139Y71602D01*
Y71752D01*
Y71652D02*
X60039Y71552D01*
X60339Y71252D02*
X60289Y71352D01*
X60189Y71452D01*
X60089D01*
X60039Y71402D01*
Y71302D01*
X60089Y71252D01*
X60139D01*
X60189Y71302D01*
Y71452D01*
X58169Y70866D02*
X57869D01*
Y71016D01*
X57919Y71066D01*
X58019D01*
X58069Y71016D01*
Y70866D01*
Y70966D02*
X58169Y71066D01*
X57869Y71366D02*
Y71166D01*
X58019D01*
X57969Y71266D01*
Y71316D01*
X58019Y71366D01*
X58119D01*
X58169Y71316D01*
Y71216D01*
X58119Y71166D01*
X28849Y37685D02*
X28750D01*
X28800D01*
Y37435D01*
X28750Y37385D01*
X28700D01*
X28650Y37435D01*
X28949Y37385D02*
Y37685D01*
X29099D01*
X29149Y37635D01*
Y37535D01*
X29099Y37485D01*
X28949D01*
X29249Y37385D02*
X29349D01*
X29299D01*
Y37685D01*
X29249Y37635D01*
X125250Y62300D02*
X125300Y62350D01*
Y62450D01*
X125250Y62500D01*
X125050D01*
X125000Y62450D01*
Y62350D01*
X125050Y62300D01*
X125000Y62050D02*
X125300D01*
X125150Y62200D01*
Y62000D01*
X125250Y61900D02*
X125300Y61850D01*
Y61750D01*
X125250Y61700D01*
X125200D01*
X125150Y61750D01*
X125100Y61700D01*
X125050D01*
X125000Y61750D01*
Y61850D01*
X125050Y61900D01*
X125100D01*
X125150Y61850D01*
X125200Y61900D01*
X125250D01*
X125150Y61850D02*
Y61750D01*
X124600Y57500D02*
X124650Y57450D01*
X124750D01*
X124800Y57500D01*
Y57700D01*
X124750Y57750D01*
X124650D01*
X124600Y57700D01*
X124350Y57750D02*
Y57450D01*
X124500Y57600D01*
X124300D01*
X124200Y57450D02*
X124000D01*
Y57500D01*
X124200Y57700D01*
Y57750D01*
X119100Y57450D02*
X119150Y57400D01*
X119250D01*
X119300Y57450D01*
Y57650D01*
X119250Y57700D01*
X119150D01*
X119100Y57650D01*
X118850Y57700D02*
Y57400D01*
X119000Y57550D01*
X118800D01*
X118500Y57400D02*
X118700D01*
Y57550D01*
X118600Y57500D01*
X118550D01*
X118500Y57550D01*
Y57650D01*
X118550Y57700D01*
X118650D01*
X118700Y57650D01*
X117750Y62200D02*
X117800Y62250D01*
Y62350D01*
X117750Y62400D01*
X117550D01*
X117500Y62350D01*
Y62250D01*
X117550Y62200D01*
X117500Y61950D02*
X117800D01*
X117650Y62100D01*
Y61900D01*
X117500Y61650D02*
X117800D01*
X117650Y61800D01*
Y61600D01*
X117100Y57450D02*
X117150Y57400D01*
X117250D01*
X117300Y57450D01*
Y57650D01*
X117250Y57700D01*
X117150D01*
X117100Y57650D01*
X116850Y57700D02*
Y57400D01*
X117000Y57550D01*
X116800D01*
X116700Y57450D02*
X116650Y57400D01*
X116550D01*
X116500Y57450D01*
Y57500D01*
X116550Y57550D01*
X116600D01*
X116550D01*
X116500Y57600D01*
Y57650D01*
X116550Y57700D01*
X116650D01*
X116700Y57650D01*
X111600Y57400D02*
X111650Y57350D01*
X111750D01*
X111800Y57400D01*
Y57600D01*
X111750Y57650D01*
X111650D01*
X111600Y57600D01*
X111350Y57650D02*
Y57350D01*
X111500Y57500D01*
X111300D01*
X111200Y57650D02*
X111100D01*
X111150D01*
Y57350D01*
X111200Y57400D01*
X110289Y62250D02*
X110339Y62300D01*
Y62400D01*
X110289Y62450D01*
X110089D01*
X110039Y62400D01*
Y62300D01*
X110089Y62250D01*
X110039Y62000D02*
X110339D01*
X110189Y62150D01*
Y61950D01*
X110289Y61850D02*
X110339Y61800D01*
Y61700D01*
X110289Y61650D01*
X110089D01*
X110039Y61700D01*
Y61800D01*
X110089Y61850D01*
X110289D01*
X109600Y57450D02*
X109650Y57400D01*
X109750D01*
X109800Y57450D01*
Y57650D01*
X109750Y57700D01*
X109650D01*
X109600Y57650D01*
X109500Y57450D02*
X109450Y57400D01*
X109350D01*
X109300Y57450D01*
Y57500D01*
X109350Y57550D01*
X109400D01*
X109350D01*
X109300Y57600D01*
Y57650D01*
X109350Y57700D01*
X109450D01*
X109500Y57650D01*
X109200D02*
X109150Y57700D01*
X109050D01*
X109000Y57650D01*
Y57450D01*
X109050Y57400D01*
X109150D01*
X109200Y57450D01*
Y57500D01*
X109150Y57550D01*
X109000D01*
X104100Y57500D02*
X104150Y57450D01*
X104250D01*
X104300Y57500D01*
Y57700D01*
X104250Y57750D01*
X104150D01*
X104100Y57700D01*
X104000Y57500D02*
X103950Y57450D01*
X103850D01*
X103800Y57500D01*
Y57550D01*
X103850Y57600D01*
X103900D01*
X103850D01*
X103800Y57650D01*
Y57700D01*
X103850Y57750D01*
X103950D01*
X104000Y57700D01*
X103700Y57450D02*
X103500D01*
Y57500D01*
X103700Y57700D01*
Y57750D01*
X102800Y62300D02*
X102850Y62350D01*
Y62450D01*
X102800Y62500D01*
X102600D01*
X102550Y62450D01*
Y62350D01*
X102600Y62300D01*
X102800Y62200D02*
X102850Y62150D01*
Y62050D01*
X102800Y62000D01*
X102750D01*
X102700Y62050D01*
Y62100D01*
Y62050D01*
X102650Y62000D01*
X102600D01*
X102550Y62050D01*
Y62150D01*
X102600Y62200D01*
X102850Y61700D02*
Y61900D01*
X102700D01*
X102750Y61800D01*
Y61750D01*
X102700Y61700D01*
X102600D01*
X102550Y61750D01*
Y61850D01*
X102600Y61900D01*
X102100Y57500D02*
X102150Y57450D01*
X102250D01*
X102300Y57500D01*
Y57700D01*
X102250Y57750D01*
X102150D01*
X102100Y57700D01*
X102000Y57500D02*
X101950Y57450D01*
X101850D01*
X101800Y57500D01*
Y57550D01*
X101850Y57600D01*
X101900D01*
X101850D01*
X101800Y57650D01*
Y57700D01*
X101850Y57750D01*
X101950D01*
X102000Y57700D01*
X101550Y57750D02*
Y57450D01*
X101700Y57600D01*
X101500D01*
X87300Y61700D02*
X87250Y61650D01*
Y61550D01*
X87300Y61500D01*
X87500D01*
X87550Y61550D01*
Y61650D01*
X87500Y61700D01*
X87300Y61800D02*
X87250Y61850D01*
Y61950D01*
X87300Y62000D01*
X87350D01*
X87400Y61950D01*
Y61900D01*
Y61950D01*
X87450Y62000D01*
X87500D01*
X87550Y61950D01*
Y61850D01*
X87500Y61800D01*
X87550Y62300D02*
Y62100D01*
X87350Y62300D01*
X87300D01*
X87250Y62250D01*
Y62150D01*
X87300Y62100D01*
X89100Y57500D02*
X89150Y57450D01*
X89250D01*
X89300Y57500D01*
Y57700D01*
X89250Y57750D01*
X89150D01*
X89100Y57700D01*
X89000Y57500D02*
X88950Y57450D01*
X88850D01*
X88800Y57500D01*
Y57550D01*
X88850Y57600D01*
X88900D01*
X88850D01*
X88800Y57650D01*
Y57700D01*
X88850Y57750D01*
X88950D01*
X89000Y57700D01*
X88700Y57750D02*
X88600D01*
X88650D01*
Y57450D01*
X88700Y57500D01*
X79800Y61700D02*
X79750Y61650D01*
Y61550D01*
X79800Y61500D01*
X80000D01*
X80050Y61550D01*
Y61650D01*
X80000Y61700D01*
X80050Y62000D02*
Y61800D01*
X79850Y62000D01*
X79800D01*
X79750Y61950D01*
Y61850D01*
X79800Y61800D01*
X79750Y62100D02*
Y62300D01*
X79800D01*
X80000Y62100D01*
X80050D01*
X87100Y57500D02*
X87150Y57450D01*
X87250D01*
X87300Y57500D01*
Y57700D01*
X87250Y57750D01*
X87150D01*
X87100Y57700D01*
X87000Y57500D02*
X86950Y57450D01*
X86850D01*
X86800Y57500D01*
Y57550D01*
X86850Y57600D01*
X86900D01*
X86850D01*
X86800Y57650D01*
Y57700D01*
X86850Y57750D01*
X86950D01*
X87000Y57700D01*
X86700Y57500D02*
X86650Y57450D01*
X86550D01*
X86500Y57500D01*
Y57700D01*
X86550Y57750D01*
X86650D01*
X86700Y57700D01*
Y57500D01*
X81600Y57450D02*
X81650Y57400D01*
X81750D01*
X81800Y57450D01*
Y57650D01*
X81750Y57700D01*
X81650D01*
X81600Y57650D01*
X81300Y57700D02*
X81500D01*
X81300Y57500D01*
Y57450D01*
X81350Y57400D01*
X81450D01*
X81500Y57450D01*
X81000Y57400D02*
X81200D01*
Y57550D01*
X81100Y57500D01*
X81050D01*
X81000Y57550D01*
Y57650D01*
X81050Y57700D01*
X81150D01*
X81200Y57650D01*
X64850Y61700D02*
X64800Y61650D01*
Y61550D01*
X64850Y61500D01*
X65050D01*
X65100Y61550D01*
Y61650D01*
X65050Y61700D01*
X65100Y62000D02*
Y61800D01*
X64900Y62000D01*
X64850D01*
X64800Y61950D01*
Y61850D01*
X64850Y61800D01*
Y62100D02*
X64800Y62150D01*
Y62250D01*
X64850Y62300D01*
X65050D01*
X65100Y62250D01*
Y62150D01*
X65050Y62100D01*
X64850D01*
X72100Y57500D02*
X72150Y57450D01*
X72250D01*
X72300Y57500D01*
Y57700D01*
X72250Y57750D01*
X72150D01*
X72100Y57700D01*
X71800Y57750D02*
X72000D01*
X71800Y57550D01*
Y57500D01*
X71850Y57450D01*
X71950D01*
X72000Y57500D01*
X71700Y57750D02*
X71600D01*
X71650D01*
Y57450D01*
X71700Y57500D01*
X66700Y57450D02*
X66750Y57400D01*
X66850D01*
X66900Y57450D01*
Y57650D01*
X66850Y57700D01*
X66750D01*
X66700Y57650D01*
X66600Y57700D02*
X66500D01*
X66550D01*
Y57400D01*
X66600Y57450D01*
X66350Y57650D02*
X66300Y57700D01*
X66200D01*
X66150Y57650D01*
Y57450D01*
X66200Y57400D01*
X66300D01*
X66350Y57450D01*
Y57500D01*
X66300Y57550D01*
X66150D01*
X72350Y61700D02*
X72300Y61650D01*
Y61550D01*
X72350Y61500D01*
X72550D01*
X72600Y61550D01*
Y61650D01*
X72550Y61700D01*
X72600Y62000D02*
Y61800D01*
X72400Y62000D01*
X72350D01*
X72300Y61950D01*
Y61850D01*
X72350Y61800D01*
Y62100D02*
X72300Y62150D01*
Y62250D01*
X72350Y62300D01*
X72400D01*
X72450Y62250D01*
Y62200D01*
Y62250D01*
X72500Y62300D01*
X72550D01*
X72600Y62250D01*
Y62150D01*
X72550Y62100D01*
X79600Y57450D02*
X79650Y57400D01*
X79750D01*
X79800Y57450D01*
Y57650D01*
X79750Y57700D01*
X79650D01*
X79600Y57650D01*
X79300Y57700D02*
X79500D01*
X79300Y57500D01*
Y57450D01*
X79350Y57400D01*
X79450D01*
X79500Y57450D01*
X79050Y57700D02*
Y57400D01*
X79200Y57550D01*
X79000D01*
X74100Y57500D02*
X74150Y57450D01*
X74250D01*
X74300Y57500D01*
Y57700D01*
X74250Y57750D01*
X74150D01*
X74100Y57700D01*
X73800Y57750D02*
X74000D01*
X73800Y57550D01*
Y57500D01*
X73850Y57450D01*
X73950D01*
X74000Y57500D01*
X73500Y57750D02*
X73700D01*
X73500Y57550D01*
Y57500D01*
X73550Y57450D01*
X73650D01*
X73700Y57500D01*
X155300Y62200D02*
X155350Y62250D01*
Y62350D01*
X155300Y62400D01*
X155100D01*
X155050Y62350D01*
Y62250D01*
X155100Y62200D01*
X155350Y61900D02*
X155300Y62000D01*
X155200Y62100D01*
X155100D01*
X155050Y62050D01*
Y61950D01*
X155100Y61900D01*
X155150D01*
X155200Y61950D01*
Y62100D01*
X155300Y61800D02*
X155350Y61750D01*
Y61650D01*
X155300Y61600D01*
X155100D01*
X155050Y61650D01*
Y61750D01*
X155100Y61800D01*
X155300D01*
X154550Y57300D02*
X154600Y57250D01*
X154700D01*
X154750Y57300D01*
Y57500D01*
X154700Y57550D01*
X154600D01*
X154550Y57500D01*
X154250Y57250D02*
X154450D01*
Y57400D01*
X154350Y57350D01*
X154300D01*
X154250Y57400D01*
Y57500D01*
X154300Y57550D01*
X154400D01*
X154450Y57500D01*
X154150D02*
X154100Y57550D01*
X154000D01*
X153950Y57500D01*
Y57300D01*
X154000Y57250D01*
X154100D01*
X154150Y57300D01*
Y57350D01*
X154100Y57400D01*
X153950D01*
X149100Y57400D02*
X149150Y57350D01*
X149250D01*
X149300Y57400D01*
Y57600D01*
X149250Y57650D01*
X149150D01*
X149100Y57600D01*
X148800Y57350D02*
X149000D01*
Y57500D01*
X148900Y57450D01*
X148850D01*
X148800Y57500D01*
Y57600D01*
X148850Y57650D01*
X148950D01*
X149000Y57600D01*
X148700Y57400D02*
X148650Y57350D01*
X148550D01*
X148500Y57400D01*
Y57450D01*
X148550Y57500D01*
X148500Y57550D01*
Y57600D01*
X148550Y57650D01*
X148650D01*
X148700Y57600D01*
Y57550D01*
X148650Y57500D01*
X148700Y57450D01*
Y57400D01*
X148650Y57500D02*
X148550D01*
X147850Y62200D02*
X147900Y62250D01*
Y62350D01*
X147850Y62400D01*
X147650D01*
X147600Y62350D01*
Y62250D01*
X147650Y62200D01*
X147900Y61900D02*
Y62100D01*
X147750D01*
X147800Y62000D01*
Y61950D01*
X147750Y61900D01*
X147650D01*
X147600Y61950D01*
Y62050D01*
X147650Y62100D01*
X147900Y61800D02*
Y61600D01*
X147850D01*
X147650Y61800D01*
X147600D01*
X147100Y57400D02*
X147150Y57350D01*
X147250D01*
X147300Y57400D01*
Y57600D01*
X147250Y57650D01*
X147150D01*
X147100Y57600D01*
X146800Y57350D02*
X147000D01*
Y57500D01*
X146900Y57450D01*
X146850D01*
X146800Y57500D01*
Y57600D01*
X146850Y57650D01*
X146950D01*
X147000Y57600D01*
X146500Y57350D02*
X146600Y57400D01*
X146700Y57500D01*
Y57600D01*
X146650Y57650D01*
X146550D01*
X146500Y57600D01*
Y57550D01*
X146550Y57500D01*
X146700D01*
X141600Y57450D02*
X141650Y57400D01*
X141750D01*
X141800Y57450D01*
Y57650D01*
X141750Y57700D01*
X141650D01*
X141600Y57650D01*
X141300Y57400D02*
X141500D01*
Y57550D01*
X141400Y57500D01*
X141350D01*
X141300Y57550D01*
Y57650D01*
X141350Y57700D01*
X141450D01*
X141500Y57650D01*
X141000Y57400D02*
X141200D01*
Y57550D01*
X141100Y57500D01*
X141050D01*
X141000Y57550D01*
Y57650D01*
X141050Y57700D01*
X141150D01*
X141200Y57650D01*
X140250Y62200D02*
X140300Y62250D01*
Y62350D01*
X140250Y62400D01*
X140050D01*
X140000Y62350D01*
Y62250D01*
X140050Y62200D01*
X140300Y61900D02*
Y62100D01*
X140150D01*
X140200Y62000D01*
Y61950D01*
X140150Y61900D01*
X140050D01*
X140000Y61950D01*
Y62050D01*
X140050Y62100D01*
X140000Y61650D02*
X140300D01*
X140150Y61800D01*
Y61600D01*
X139600Y57400D02*
X139650Y57350D01*
X139750D01*
X139800Y57400D01*
Y57600D01*
X139750Y57650D01*
X139650D01*
X139600Y57600D01*
X139300Y57350D02*
X139500D01*
Y57500D01*
X139400Y57450D01*
X139350D01*
X139300Y57500D01*
Y57600D01*
X139350Y57650D01*
X139450D01*
X139500Y57600D01*
X139200Y57400D02*
X139150Y57350D01*
X139050D01*
X139000Y57400D01*
Y57450D01*
X139050Y57500D01*
X139100D01*
X139050D01*
X139000Y57550D01*
Y57600D01*
X139050Y57650D01*
X139150D01*
X139200Y57600D01*
X134100Y57450D02*
X134150Y57400D01*
X134250D01*
X134300Y57450D01*
Y57650D01*
X134250Y57700D01*
X134150D01*
X134100Y57650D01*
X133800Y57400D02*
X134000D01*
Y57550D01*
X133900Y57500D01*
X133850D01*
X133800Y57550D01*
Y57650D01*
X133850Y57700D01*
X133950D01*
X134000Y57650D01*
X133500Y57700D02*
X133700D01*
X133500Y57500D01*
Y57450D01*
X133550Y57400D01*
X133650D01*
X133700Y57450D01*
X132750Y62050D02*
X132800Y62100D01*
Y62200D01*
X132750Y62250D01*
X132550D01*
X132500Y62200D01*
Y62100D01*
X132550Y62050D01*
X132800Y61750D02*
Y61950D01*
X132650D01*
X132700Y61850D01*
Y61800D01*
X132650Y61750D01*
X132550D01*
X132500Y61800D01*
Y61900D01*
X132550Y61950D01*
X132500Y61650D02*
Y61550D01*
Y61600D01*
X132800D01*
X132750Y61650D01*
X132100Y57450D02*
X132150Y57400D01*
X132250D01*
X132300Y57450D01*
Y57650D01*
X132250Y57700D01*
X132150D01*
X132100Y57650D01*
X131800Y57400D02*
X132000D01*
Y57550D01*
X131900Y57500D01*
X131850D01*
X131800Y57550D01*
Y57650D01*
X131850Y57700D01*
X131950D01*
X132000Y57650D01*
X131700Y57450D02*
X131650Y57400D01*
X131550D01*
X131500Y57450D01*
Y57650D01*
X131550Y57700D01*
X131650D01*
X131700Y57650D01*
Y57450D01*
X126600Y57500D02*
X126650Y57450D01*
X126750D01*
X126800Y57500D01*
Y57700D01*
X126750Y57750D01*
X126650D01*
X126600Y57700D01*
X126350Y57750D02*
Y57450D01*
X126500Y57600D01*
X126300D01*
X126200Y57700D02*
X126150Y57750D01*
X126050D01*
X126000Y57700D01*
Y57500D01*
X126050Y57450D01*
X126150D01*
X126200Y57500D01*
Y57550D01*
X126150Y57600D01*
X126000D01*
X125500Y33100D02*
Y33350D01*
X125450Y33400D01*
X125350D01*
X125300Y33350D01*
Y33100D01*
X125200Y33400D02*
X125100D01*
X125150D01*
Y33100D01*
X125200Y33150D01*
X133748Y37628D02*
Y37378D01*
X133798Y37328D01*
X133898D01*
X133948Y37378D01*
Y37628D01*
X134248Y37328D02*
X134048D01*
X134248Y37528D01*
Y37578D01*
X134198Y37628D01*
X134098D01*
X134048Y37578D01*
X115255Y68925D02*
X115555D01*
Y69075D01*
X115505Y69125D01*
X115305D01*
X115255Y69075D01*
Y68925D01*
X115305Y69425D02*
X115255Y69375D01*
Y69275D01*
X115305Y69225D01*
X115355D01*
X115405Y69275D01*
Y69375D01*
X115455Y69425D01*
X115505D01*
X115555Y69375D01*
Y69275D01*
X115505Y69225D01*
X115555Y69525D02*
Y69625D01*
Y69575D01*
X115255D01*
X115305Y69525D01*
X123479Y68898D02*
X123779D01*
Y69047D01*
X123729Y69097D01*
X123529D01*
X123479Y69047D01*
Y68898D01*
X123529Y69397D02*
X123479Y69347D01*
Y69247D01*
X123529Y69197D01*
X123579D01*
X123629Y69247D01*
Y69347D01*
X123679Y69397D01*
X123729D01*
X123779Y69347D01*
Y69247D01*
X123729Y69197D01*
X123779Y69697D02*
Y69497D01*
X123579Y69697D01*
X123529D01*
X123479Y69647D01*
Y69547D01*
X123529Y69497D01*
X114461Y68876D02*
X114161D01*
Y69026D01*
X114211Y69076D01*
X114311D01*
X114361Y69026D01*
Y68876D01*
Y68976D02*
X114461Y69076D01*
Y69176D02*
Y69276D01*
Y69226D01*
X114161D01*
X114211Y69176D01*
X114461Y69626D02*
Y69426D01*
X114261Y69626D01*
X114211D01*
X114161Y69576D01*
Y69476D01*
X114211Y69426D01*
X122677Y68858D02*
X122377D01*
Y69008D01*
X122427Y69058D01*
X122527D01*
X122577Y69008D01*
Y68858D01*
Y68958D02*
X122677Y69058D01*
Y69158D02*
Y69258D01*
Y69208D01*
X122377D01*
X122427Y69158D01*
Y69408D02*
X122377Y69458D01*
Y69558D01*
X122427Y69608D01*
X122477D01*
X122527Y69558D01*
Y69508D01*
Y69558D01*
X122577Y69608D01*
X122627D01*
X122677Y69558D01*
Y69458D01*
X122627Y69408D01*
X89711Y48868D02*
Y48618D01*
X89761Y48568D01*
X89861D01*
X89911Y48618D01*
Y48868D01*
X90010Y48568D02*
X90110D01*
X90060D01*
Y48868D01*
X90010Y48818D01*
X90260D02*
X90310Y48868D01*
X90410D01*
X90460Y48818D01*
Y48618D01*
X90410Y48568D01*
X90310D01*
X90260Y48618D01*
Y48818D01*
X96050Y32700D02*
X95750D01*
Y32850D01*
X95800Y32900D01*
X95900D01*
X95950Y32850D01*
Y32700D01*
Y32800D02*
X96050Y32900D01*
Y33000D02*
Y33100D01*
Y33050D01*
X95750D01*
X95800Y33000D01*
X95750Y33450D02*
Y33250D01*
X95900D01*
X95850Y33350D01*
Y33400D01*
X95900Y33450D01*
X96000D01*
X96050Y33400D01*
Y33300D01*
X96000Y33250D01*
X97150Y32700D02*
X96850D01*
Y32850D01*
X96900Y32900D01*
X97000D01*
X97050Y32850D01*
Y32700D01*
Y32800D02*
X97150Y32900D01*
Y33000D02*
Y33100D01*
Y33050D01*
X96850D01*
X96900Y33000D01*
X96850Y33450D02*
X96900Y33350D01*
X97000Y33250D01*
X97100D01*
X97150Y33300D01*
Y33400D01*
X97100Y33450D01*
X97050D01*
X97000Y33400D01*
Y33250D01*
X106584Y35964D02*
X106334D01*
X106284Y35914D01*
Y35814D01*
X106334Y35764D01*
X106584D01*
X106284Y35515D02*
X106584D01*
X106434Y35664D01*
Y35465D01*
X135915Y33508D02*
X135865Y33558D01*
X135765D01*
X135715Y33508D01*
Y33308D01*
X135765Y33258D01*
X135865D01*
X135915Y33308D01*
X136015Y33258D02*
X136115D01*
X136065D01*
Y33558D01*
X136015Y33508D01*
X136265Y33558D02*
X136465D01*
Y33508D01*
X136265Y33308D01*
Y33258D01*
X129453Y37266D02*
X129503Y37316D01*
Y37416D01*
X129453Y37466D01*
X129253D01*
X129203Y37416D01*
Y37316D01*
X129253Y37266D01*
X129203Y37166D02*
Y37066D01*
Y37116D01*
X129503D01*
X129453Y37166D01*
X129503Y36716D02*
X129453Y36816D01*
X129353Y36916D01*
X129253D01*
X129203Y36866D01*
Y36766D01*
X129253Y36716D01*
X129303D01*
X129353Y36766D01*
Y36916D01*
X124504Y33338D02*
X124454Y33388D01*
X124354D01*
X124304Y33338D01*
Y33138D01*
X124354Y33088D01*
X124454D01*
X124504Y33138D01*
X124754Y33088D02*
Y33388D01*
X124604Y33238D01*
X124804D01*
X116000Y32100D02*
X115950Y32050D01*
Y31950D01*
X116000Y31900D01*
X116200D01*
X116250Y31950D01*
Y32050D01*
X116200Y32100D01*
X116250Y32400D02*
Y32200D01*
X116050Y32400D01*
X116000D01*
X115950Y32350D01*
Y32250D01*
X116000Y32200D01*
X105550Y39350D02*
X105500Y39400D01*
X105400D01*
X105350Y39350D01*
Y39150D01*
X105400Y39100D01*
X105500D01*
X105550Y39150D01*
X105650Y39100D02*
X105750D01*
X105700D01*
Y39400D01*
X105650Y39350D01*
X108800Y36550D02*
X108850Y36600D01*
Y36700D01*
X108800Y36750D01*
X108600D01*
X108550Y36700D01*
Y36600D01*
X108600Y36550D01*
X108800Y36450D02*
X108850Y36400D01*
Y36300D01*
X108800Y36250D01*
X108750D01*
X108700Y36300D01*
Y36350D01*
Y36300D01*
X108650Y36250D01*
X108600D01*
X108550Y36300D01*
Y36400D01*
X108600Y36450D01*
X139750Y36450D02*
X139800Y36500D01*
Y36600D01*
X139750Y36650D01*
X139550D01*
X139500Y36600D01*
Y36500D01*
X139550Y36450D01*
X139500Y36200D02*
X139800D01*
X139650Y36350D01*
Y36150D01*
X139800Y35850D02*
X139750Y35950D01*
X139650Y36050D01*
X139550D01*
X139500Y36000D01*
Y35900D01*
X139550Y35850D01*
X139600D01*
X139650Y35900D01*
Y36050D01*
X35600Y34950D02*
X35650Y35000D01*
Y35100D01*
X35600Y35150D01*
X35400D01*
X35350Y35100D01*
Y35000D01*
X35400Y34950D01*
X35350Y34850D02*
Y34750D01*
Y34800D01*
X35650D01*
X35600Y34850D01*
X35350Y34600D02*
Y34500D01*
Y34550D01*
X35650D01*
X35600Y34600D01*
X35650Y34150D02*
X35600Y34250D01*
X35500Y34350D01*
X35400D01*
X35350Y34300D01*
Y34200D01*
X35400Y34150D01*
X35450D01*
X35500Y34200D01*
Y34350D01*
X24300Y56250D02*
X24250Y56300D01*
X24150D01*
X24100Y56250D01*
Y56050D01*
X24150Y56000D01*
X24250D01*
X24300Y56050D01*
X24400Y56000D02*
X24500D01*
X24450D01*
Y56300D01*
X24400Y56250D01*
X24650Y56000D02*
X24750D01*
X24700D01*
Y56300D01*
X24650Y56250D01*
X24900Y56300D02*
X25100D01*
Y56250D01*
X24900Y56050D01*
Y56000D01*
X24250Y72150D02*
X24200Y72200D01*
X24100D01*
X24050Y72150D01*
Y71950D01*
X24100Y71900D01*
X24200D01*
X24250Y71950D01*
X24350Y71900D02*
X24450D01*
X24400D01*
Y72200D01*
X24350Y72150D01*
X24600Y71900D02*
X24700D01*
X24650D01*
Y72200D01*
X24600Y72150D01*
X24850D02*
X24900Y72200D01*
X25000D01*
X25050Y72150D01*
Y72100D01*
X25000Y72050D01*
X25050Y72000D01*
Y71950D01*
X25000Y71900D01*
X24900D01*
X24850Y71950D01*
Y72000D01*
X24900Y72050D01*
X24850Y72100D01*
Y72150D01*
X24900Y72050D02*
X25000D01*
X47350Y34950D02*
X47400Y35000D01*
Y35100D01*
X47350Y35150D01*
X47150D01*
X47100Y35100D01*
Y35000D01*
X47150Y34950D01*
X47100Y34850D02*
Y34750D01*
Y34800D01*
X47400D01*
X47350Y34850D01*
X47100Y34600D02*
Y34500D01*
Y34550D01*
X47400D01*
X47350Y34600D01*
X47150Y34350D02*
X47100Y34300D01*
Y34200D01*
X47150Y34150D01*
X47350D01*
X47400Y34200D01*
Y34300D01*
X47350Y34350D01*
X47300D01*
X47250Y34300D01*
Y34150D01*
X41500Y34900D02*
X41550Y34950D01*
Y35050D01*
X41500Y35100D01*
X41300D01*
X41250Y35050D01*
Y34950D01*
X41300Y34900D01*
X41250Y34800D02*
Y34700D01*
Y34750D01*
X41550D01*
X41500Y34800D01*
X41250Y34350D02*
Y34550D01*
X41450Y34350D01*
X41500D01*
X41550Y34400D01*
Y34500D01*
X41500Y34550D01*
Y34250D02*
X41550Y34200D01*
Y34100D01*
X41500Y34050D01*
X41300D01*
X41250Y34100D01*
Y34200D01*
X41300Y34250D01*
X41500D01*
X24350Y66800D02*
X24300Y66850D01*
X24200D01*
X24150Y66800D01*
Y66600D01*
X24200Y66550D01*
X24300D01*
X24350Y66600D01*
X24450Y66550D02*
X24550D01*
X24500D01*
Y66850D01*
X24450Y66800D01*
X24900Y66550D02*
X24700D01*
X24900Y66750D01*
Y66800D01*
X24850Y66850D01*
X24750D01*
X24700Y66800D01*
X25000D02*
X25050Y66850D01*
X25150D01*
X25200Y66800D01*
Y66750D01*
X25150Y66700D01*
X25100D01*
X25150D01*
X25200Y66650D01*
Y66600D01*
X25150Y66550D01*
X25050D01*
X25000Y66600D01*
X24400Y61550D02*
X24350Y61600D01*
X24250D01*
X24200Y61550D01*
Y61350D01*
X24250Y61300D01*
X24350D01*
X24400Y61350D01*
X24500Y61300D02*
X24600D01*
X24550D01*
Y61600D01*
X24500Y61550D01*
X24950Y61300D02*
X24750D01*
X24950Y61500D01*
Y61550D01*
X24900Y61600D01*
X24800D01*
X24750Y61550D01*
X25200Y61300D02*
Y61600D01*
X25050Y61450D01*
X25250D01*
X24300Y44450D02*
X24250Y44500D01*
X24150D01*
X24100Y44450D01*
Y44250D01*
X24150Y44200D01*
X24250D01*
X24300Y44250D01*
X24400Y44200D02*
X24500D01*
X24450D01*
Y44500D01*
X24400Y44450D01*
X24850Y44200D02*
X24650D01*
X24850Y44400D01*
Y44450D01*
X24800Y44500D01*
X24700D01*
X24650Y44450D01*
X25150Y44500D02*
X25050Y44450D01*
X24950Y44350D01*
Y44250D01*
X25000Y44200D01*
X25100D01*
X25150Y44250D01*
Y44300D01*
X25100Y44350D01*
X24950D01*
X22050Y44900D02*
X22100Y44850D01*
X22200D01*
X22250Y44900D01*
Y45100D01*
X22200Y45150D01*
X22100D01*
X22050Y45100D01*
X21950Y45150D02*
X21850D01*
X21900D01*
Y44850D01*
X21950Y44900D01*
X21500Y45150D02*
X21700D01*
X21500Y44950D01*
Y44900D01*
X21550Y44850D01*
X21650D01*
X21700Y44900D01*
X21400Y44850D02*
X21200D01*
Y44900D01*
X21400Y45100D01*
Y45150D01*
X84000Y38833D02*
X83950Y38883D01*
X83850D01*
X83800Y38833D01*
Y38633D01*
X83850Y38583D01*
X83950D01*
X84000Y38633D01*
X84250Y38883D02*
X84150D01*
X84100Y38833D01*
Y38633D01*
X84150Y38583D01*
X84250D01*
X84300Y38633D01*
Y38833D01*
X84250Y38883D01*
X84400Y38583D02*
Y38883D01*
X84600Y38583D01*
Y38883D01*
X84700Y38583D02*
Y38883D01*
X84900Y38583D01*
Y38883D01*
X85000Y38583D02*
X85100D01*
X85050D01*
Y38883D01*
X85000Y38833D01*
X34110Y35895D02*
X33810D01*
Y36045D01*
X33860Y36095D01*
X33960D01*
X34010Y36045D01*
Y35895D01*
X34110Y36195D02*
X33810D01*
X33910Y36295D01*
X33810Y36395D01*
X34110D01*
Y36495D02*
Y36595D01*
Y36545D01*
X33810D01*
X33860Y36495D01*
X26368Y55182D02*
Y55481D01*
X26518D01*
X26568Y55431D01*
Y55331D01*
X26518Y55281D01*
X26368D01*
X26668Y55182D02*
Y55481D01*
X26768Y55381D01*
X26868Y55481D01*
Y55182D01*
X27168D02*
X26968D01*
X27168Y55381D01*
Y55431D01*
X27118Y55481D01*
X27018D01*
X26968Y55431D01*
X26368Y71776D02*
Y72076D01*
X26518D01*
X26568Y72026D01*
Y71926D01*
X26518Y71876D01*
X26368D01*
X26668Y71776D02*
Y72076D01*
X26768Y71976D01*
X26868Y72076D01*
Y71776D01*
X26968Y72026D02*
X27018Y72076D01*
X27118D01*
X27168Y72026D01*
Y71976D01*
X27118Y71926D01*
X27068D01*
X27118D01*
X27168Y71876D01*
Y71826D01*
X27118Y71776D01*
X27018D01*
X26968Y71826D01*
X42968Y43878D02*
X42668D01*
Y44028D01*
X42718Y44078D01*
X42818D01*
X42868Y44028D01*
Y43878D01*
Y43978D02*
X42968Y44078D01*
Y44378D02*
Y44178D01*
X42768Y44378D01*
X42718D01*
X42668Y44328D01*
Y44228D01*
X42718Y44178D01*
X108528Y39508D02*
X108828D01*
Y39358D01*
X108778Y39308D01*
X108678D01*
X108628Y39358D01*
Y39508D01*
Y39408D02*
X108528Y39308D01*
Y39208D02*
Y39108D01*
Y39158D01*
X108828D01*
X108778Y39208D01*
X108828Y38958D02*
Y38758D01*
X108778D01*
X108578Y38958D01*
X108528D01*
X108528Y40610D02*
X108828D01*
Y40460D01*
X108778Y40410D01*
X108678D01*
X108628Y40460D01*
Y40610D01*
Y40510D02*
X108528Y40410D01*
Y40310D02*
Y40210D01*
Y40260D01*
X108828D01*
X108778Y40310D01*
Y40060D02*
X108828Y40010D01*
Y39910D01*
X108778Y39860D01*
X108728D01*
X108678Y39910D01*
X108628Y39860D01*
X108578D01*
X108528Y39910D01*
Y40010D01*
X108578Y40060D01*
X108628D01*
X108678Y40010D01*
X108728Y40060D01*
X108778D01*
X108678Y40010D02*
Y39910D01*
X118050Y39250D02*
X118350D01*
Y39100D01*
X118300Y39050D01*
X118200D01*
X118150Y39100D01*
Y39250D01*
Y39150D02*
X118050Y39050D01*
Y38950D02*
Y38850D01*
Y38900D01*
X118350D01*
X118300Y38950D01*
X118100Y38700D02*
X118050Y38650D01*
Y38550D01*
X118100Y38500D01*
X118300D01*
X118350Y38550D01*
Y38650D01*
X118300Y38700D01*
X118250D01*
X118200Y38650D01*
Y38500D01*
X109153Y40529D02*
Y40279D01*
X109203Y40229D01*
X109303D01*
X109353Y40279D01*
Y40529D01*
X109653D02*
X109453D01*
Y40379D01*
X109553Y40429D01*
X109603D01*
X109653Y40379D01*
Y40279D01*
X109603Y40229D01*
X109503D01*
X109453Y40279D01*
X107950Y38750D02*
Y38500D01*
X108000Y38450D01*
X108100D01*
X108150Y38500D01*
Y38750D01*
X108450D02*
X108350Y38700D01*
X108250Y38600D01*
Y38500D01*
X108300Y38450D01*
X108400D01*
X108450Y38500D01*
Y38550D01*
X108400Y38600D01*
X108250D01*
X158007Y70182D02*
X157807D01*
Y70032D01*
X157907D01*
X157807D01*
Y69882D01*
X158107Y70182D02*
X158207D01*
X158157D01*
Y69882D01*
X158107D01*
X158207D01*
X158357Y70182D02*
Y69882D01*
X158507D01*
X158557Y69932D01*
Y70132D01*
X158507Y70182D01*
X158357D01*
X158657Y69882D02*
X158757D01*
X158707D01*
Y70182D01*
X158657Y70132D01*
X158200Y36300D02*
X158000D01*
Y36150D01*
X158100D01*
X158000D01*
Y36000D01*
X158300Y36300D02*
X158400D01*
X158350D01*
Y36000D01*
X158300D01*
X158400D01*
X158550Y36300D02*
Y36000D01*
X158700D01*
X158750Y36050D01*
Y36250D01*
X158700Y36300D01*
X158550D01*
X159050Y36000D02*
X158850D01*
X159050Y36200D01*
Y36250D01*
X159000Y36300D01*
X158900D01*
X158850Y36250D01*
X39200Y45300D02*
X39000D01*
Y45150D01*
X39100D01*
X39000D01*
Y45000D01*
X39300Y45300D02*
X39400D01*
X39350D01*
Y45000D01*
X39300D01*
X39400D01*
X39550Y45300D02*
Y45000D01*
X39700D01*
X39750Y45050D01*
Y45250D01*
X39700Y45300D01*
X39550D01*
X39850Y45250D02*
X39900Y45300D01*
X40000D01*
X40050Y45250D01*
Y45200D01*
X40000Y45150D01*
X39950D01*
X40000D01*
X40050Y45100D01*
Y45050D01*
X40000Y45000D01*
X39900D01*
X39850Y45050D01*
X36400Y69600D02*
X36200D01*
Y69450D01*
X36300D01*
X36200D01*
Y69300D01*
X36500Y69600D02*
X36600D01*
X36550D01*
Y69300D01*
X36500D01*
X36600D01*
X36750Y69600D02*
Y69300D01*
X36900D01*
X36950Y69350D01*
Y69550D01*
X36900Y69600D01*
X36750D01*
X37200Y69300D02*
Y69600D01*
X37050Y69450D01*
X37250D01*
X109200Y48300D02*
X109000D01*
Y48150D01*
X109100D01*
X109000D01*
Y48000D01*
X109300Y48300D02*
X109400D01*
X109350D01*
Y48000D01*
X109300D01*
X109400D01*
X109550Y48300D02*
Y48000D01*
X109700D01*
X109750Y48050D01*
Y48250D01*
X109700Y48300D01*
X109550D01*
X110050D02*
X109850D01*
Y48150D01*
X109950Y48200D01*
X110000D01*
X110050Y48150D01*
Y48050D01*
X110000Y48000D01*
X109900D01*
X109850Y48050D01*
X97000Y31100D02*
X96800D01*
Y30950D01*
X96900D01*
X96800D01*
Y30800D01*
X97100Y31100D02*
X97200D01*
X97150D01*
Y30800D01*
X97100D01*
X97200D01*
X97350Y31100D02*
Y30800D01*
X97500D01*
X97550Y30850D01*
Y31050D01*
X97500Y31100D01*
X97350D01*
X97850D02*
X97750Y31050D01*
X97650Y30950D01*
Y30850D01*
X97700Y30800D01*
X97800D01*
X97850Y30850D01*
Y30900D01*
X97800Y30950D01*
X97650D01*
X27131Y31498D02*
Y31198D01*
X26981D01*
X26931Y31248D01*
Y31348D01*
X26981Y31398D01*
X27131D01*
X26831Y31498D02*
X26731D01*
X26781D01*
Y31198D01*
X26831Y31248D01*
X90554Y32657D02*
X90254D01*
Y32807D01*
X90304Y32857D01*
X90404D01*
X90454Y32807D01*
Y32657D01*
Y32757D02*
X90554Y32857D01*
Y33157D02*
Y32957D01*
X90354Y33157D01*
X90304D01*
X90254Y33107D01*
Y33007D01*
X90304Y32957D01*
Y33256D02*
X90254Y33306D01*
Y33406D01*
X90304Y33456D01*
X90504D01*
X90554Y33406D01*
Y33306D01*
X90504Y33256D01*
X90304D01*
X90653Y33888D02*
X90353D01*
Y34038D01*
X90403Y34088D01*
X90503D01*
X90553Y34038D01*
Y33888D01*
Y33988D02*
X90653Y34088D01*
Y34388D02*
Y34188D01*
X90453Y34388D01*
X90403D01*
X90353Y34338D01*
Y34238D01*
X90403Y34188D01*
X90653Y34488D02*
Y34588D01*
Y34538D01*
X90353D01*
X90403Y34488D01*
X100035Y34605D02*
Y34305D01*
X99885D01*
X99835Y34355D01*
Y34455D01*
X99885Y34505D01*
X100035D01*
X99935D02*
X99835Y34605D01*
X99535D02*
X99735D01*
X99535Y34405D01*
Y34355D01*
X99585Y34305D01*
X99685D01*
X99735Y34355D01*
X99235Y34605D02*
X99435D01*
X99235Y34405D01*
Y34355D01*
X99285Y34305D01*
X99385D01*
X99435Y34355D01*
X28445Y76855D02*
X28395Y76905D01*
X28295D01*
X28245Y76855D01*
Y76655D01*
X28295Y76605D01*
X28395D01*
X28445Y76655D01*
X28695Y76905D02*
X28595D01*
X28545Y76855D01*
Y76655D01*
X28595Y76605D01*
X28695D01*
X28745Y76655D01*
Y76855D01*
X28695Y76905D01*
X28845Y76605D02*
Y76905D01*
X29045Y76605D01*
Y76905D01*
X29145Y76605D02*
Y76905D01*
X29345Y76605D01*
Y76905D01*
X29645Y76605D02*
X29445D01*
X29645Y76805D01*
Y76855D01*
X29595Y76905D01*
X29495D01*
X29445Y76855D01*
X32545D02*
X32495Y76905D01*
X32395D01*
X32345Y76855D01*
Y76655D01*
X32395Y76605D01*
X32495D01*
X32545Y76655D01*
X32795Y76905D02*
X32695D01*
X32645Y76855D01*
Y76655D01*
X32695Y76605D01*
X32795D01*
X32845Y76655D01*
Y76855D01*
X32795Y76905D01*
X32945Y76605D02*
Y76905D01*
X33145Y76605D01*
Y76905D01*
X33245Y76605D02*
Y76905D01*
X33445Y76605D01*
Y76905D01*
X33545Y76855D02*
X33595Y76905D01*
X33695D01*
X33745Y76855D01*
Y76805D01*
X33695Y76755D01*
X33645D01*
X33695D01*
X33745Y76705D01*
Y76655D01*
X33695Y76605D01*
X33595D01*
X33545Y76655D01*
X128005Y75760D02*
X128105Y75560D01*
X128205Y75760D01*
X128455Y75560D02*
X128355D01*
X128305Y75610D01*
Y75710D01*
X128355Y75760D01*
X128455D01*
X128505Y75710D01*
Y75660D01*
X128305D01*
X128605Y75760D02*
Y75560D01*
Y75660D01*
X128655Y75710D01*
X128705Y75760D01*
X128755D01*
X128905Y75560D02*
X129055D01*
X129105Y75610D01*
X129055Y75660D01*
X128955D01*
X128905Y75710D01*
X128955Y75760D01*
X129105D01*
X129204Y75560D02*
X129304D01*
X129254D01*
Y75760D01*
X129204D01*
X129504Y75560D02*
X129604D01*
X129654Y75610D01*
Y75710D01*
X129604Y75760D01*
X129504D01*
X129454Y75710D01*
Y75610D01*
X129504Y75560D01*
X129754D02*
Y75760D01*
X129904D01*
X129954Y75710D01*
Y75560D01*
X130354D02*
X130454D01*
X130404D01*
Y75860D01*
X130354Y75810D01*
X130604Y75560D02*
Y75610D01*
X130654D01*
Y75560D01*
X130604D01*
X130854Y75810D02*
X130904Y75860D01*
X131004D01*
X131054Y75810D01*
Y75760D01*
X131004Y75710D01*
X130954D01*
X131004D01*
X131054Y75660D01*
Y75610D01*
X131004Y75560D01*
X130904D01*
X130854Y75610D01*
D66*
X118926Y75441D02*
X118545Y75822D01*
X117974Y76013D01*
X117212D01*
X116641Y75822D01*
X116260Y75441D01*
Y75061D01*
X116450Y74680D01*
X116641Y74489D01*
X117022Y74299D01*
X118164Y73918D01*
X118545Y73728D01*
X118736Y73537D01*
X118926Y73156D01*
Y72585D01*
X118545Y72204D01*
X117974Y72014D01*
X117212D01*
X116641Y72204D01*
X116260Y72585D01*
X120773Y74680D02*
X120392Y74489D01*
X120012Y74108D01*
X119821Y73537D01*
Y73156D01*
X120012Y72585D01*
X120392Y72204D01*
X120773Y72014D01*
X121345D01*
X121725Y72204D01*
X122106Y72585D01*
X122297Y73156D01*
Y73537D01*
X122106Y74108D01*
X121725Y74489D01*
X121345Y74680D01*
X120773D01*
X123173D02*
Y72014D01*
Y73918D02*
X123744Y74489D01*
X124125Y74680D01*
X124696D01*
X125077Y74489D01*
X125268Y73918D01*
Y72014D01*
Y73918D02*
X125839Y74489D01*
X126220Y74680D01*
X126791D01*
X127172Y74489D01*
X127362Y73918D01*
Y72014D01*
X130904Y74680D02*
Y72014D01*
Y74108D02*
X130524Y74489D01*
X130143Y74680D01*
X129571D01*
X129191Y74489D01*
X128810Y74108D01*
X128619Y73537D01*
Y73156D01*
X128810Y72585D01*
X129191Y72204D01*
X129571Y72014D01*
X130143D01*
X130524Y72204D01*
X130904Y72585D01*
D67*
X28445Y35433D02*
Y35833D01*
X28645D01*
X28711Y35766D01*
Y35633D01*
X28645Y35566D01*
X28445D01*
X29045Y35833D02*
X28911D01*
X28845Y35766D01*
Y35500D01*
X28911Y35433D01*
X29045D01*
X29111Y35500D01*
Y35766D01*
X29045Y35833D01*
X29245D02*
Y35433D01*
X29378Y35566D01*
X29511Y35433D01*
Y35833D01*
X29644Y35633D02*
X29911D01*
X30311Y35833D02*
X30044D01*
Y35433D01*
X30311D01*
X30044Y35633D02*
X30178D01*
X30444Y35433D02*
Y35833D01*
X30711Y35433D01*
Y35833D01*
M02*
