%FSLAX24Y24*%
%MOIN*%
G70*
G01*
G75*
G04 Layer_Physical_Order=3*
G04 Layer_Color=128*
%ADD10R,0.1024X0.0866*%
%ADD11C,0.0197*%
%ADD12R,0.0394X0.0433*%
%ADD13R,0.0433X0.0394*%
%ADD14R,0.0551X0.0787*%
%ADD15R,0.1575X0.0335*%
%ADD16R,0.0866X0.1024*%
%ADD17R,0.0197X0.0748*%
%ADD18R,0.0709X0.0630*%
%ADD19R,0.0630X0.0709*%
%ADD20R,0.0787X0.0551*%
%ADD21R,0.0709X0.0157*%
%ADD22R,0.0157X0.0709*%
%ADD23R,0.0748X0.0197*%
%ADD24R,0.1929X0.0898*%
%ADD25R,0.1929X0.0866*%
%ADD26R,0.3000X0.2900*%
%ADD27R,0.1500X0.0500*%
%ADD28R,0.2900X0.3000*%
%ADD29R,0.0500X0.1500*%
%ADD30R,0.0630X0.0512*%
%ADD31C,0.0060*%
%ADD32C,0.0110*%
%ADD33C,0.0080*%
%ADD34C,0.0160*%
%ADD35C,0.0240*%
%ADD36C,0.0300*%
%ADD37C,0.0180*%
%ADD38C,0.0200*%
%ADD39C,0.0100*%
%ADD40C,0.0140*%
%ADD41C,0.0120*%
%ADD42C,0.0591*%
%ADD43C,0.0700*%
%ADD44C,0.1600*%
%ADD45C,0.0669*%
%ADD46C,0.1063*%
%ADD47R,0.0591X0.0591*%
%ADD48C,0.0550*%
%ADD49C,0.1300*%
%ADD50C,0.0866*%
%ADD51C,0.0200*%
%ADD52C,0.0400*%
%ADD53C,0.0500*%
%ADD54C,0.0300*%
D31*
X100492Y42717D02*
X100492Y42717D01*
X95472Y47539D02*
Y48278D01*
X95276Y48474D02*
X95472Y48278D01*
Y47539D02*
X96161Y46850D01*
X96457D01*
X90945Y37611D02*
Y38287D01*
X89882Y37008D02*
X90342D01*
X90945Y37611D01*
X91080Y37576D02*
Y38128D01*
X90315Y36811D02*
X91080Y37576D01*
X91259Y37440D02*
Y38011D01*
X90391Y36572D02*
X91259Y37440D01*
X92126Y37598D02*
Y38091D01*
X90554Y36026D02*
X92126Y37598D01*
X92323Y37441D02*
Y38091D01*
X90591Y35709D02*
X92323Y37441D01*
X92520Y37165D02*
Y38189D01*
X90645Y35291D02*
X92520Y37165D01*
X92717Y37008D02*
Y38189D01*
X90630Y34921D02*
X92717Y37008D01*
X92913Y36654D02*
Y38287D01*
X90787Y34528D02*
X92913Y36654D01*
X93110Y36181D02*
Y38386D01*
X91811Y34882D02*
X93110Y36181D01*
X91732Y38287D02*
Y38583D01*
X90546Y36333D02*
X91535Y37323D01*
Y38091D02*
X91732Y38287D01*
X91535Y37323D02*
Y38091D01*
Y38287D02*
Y38780D01*
X91259Y38011D02*
X91535Y38287D01*
X91339Y38386D02*
Y38583D01*
X91080Y38128D02*
X91339Y38386D01*
X90945Y38287D02*
X91142Y38484D01*
Y38780D01*
X90733Y38371D02*
X90945Y38583D01*
X90748Y37965D02*
Y38386D01*
X90733Y38244D02*
Y38371D01*
Y37675D02*
Y37965D01*
X90945Y38583D02*
X90945D01*
X91929Y38287D02*
Y38780D01*
Y38287D02*
X92126Y38091D01*
Y38287D02*
Y38583D01*
Y38287D02*
X92323Y38091D01*
Y38386D02*
Y38780D01*
Y38386D02*
X92520Y38189D01*
Y38386D02*
X92717Y38189D01*
X92520Y38386D02*
Y38583D01*
X92717Y38484D02*
X92913Y38287D01*
X92717Y38484D02*
Y38780D01*
X92913Y38583D02*
X93110Y38386D01*
X90303Y37244D02*
X90733Y37675D01*
X94094Y37697D02*
X95571Y36220D01*
Y35925D02*
Y36220D01*
X89491Y43875D02*
X89665Y43701D01*
X90945D01*
X89635Y44125D02*
X89862Y43898D01*
X90748D01*
X90945Y44094D01*
X72146Y52264D02*
Y68602D01*
X106486Y38671D02*
X106890Y38268D01*
X64468Y69587D02*
X65059D01*
X65650Y68996D01*
Y59154D02*
Y68996D01*
Y59154D02*
X67224Y57579D01*
X69587D01*
X65157Y54232D02*
Y68898D01*
Y54232D02*
X69094Y50295D01*
X62598Y74173D02*
X63138Y74713D01*
X62598Y71161D02*
Y74173D01*
Y71161D02*
X63878Y69882D01*
X69488D01*
X70965Y68406D01*
Y54331D02*
Y68406D01*
X78839Y36220D02*
X83366Y40748D01*
X90748D01*
X90945Y40945D01*
X92339Y32700D02*
Y33508D01*
X74803Y66240D02*
X75492Y65551D01*
Y46654D02*
Y65551D01*
Y46654D02*
X76280Y45866D01*
X72441Y64862D02*
Y68799D01*
Y64862D02*
X73622Y63681D01*
Y46063D02*
Y63681D01*
X74016Y67028D02*
X74213Y66831D01*
Y47343D02*
Y66831D01*
Y47343D02*
X75197Y46358D01*
X78800Y31950D02*
Y32913D01*
X77854Y33858D02*
X78800Y32913D01*
X77854Y33858D02*
Y34646D01*
X79626Y36417D01*
X81693D01*
X85630Y40354D01*
X91142D01*
X91339Y40551D01*
X79300Y32700D02*
Y33594D01*
X78839Y34055D02*
X79300Y33594D01*
X78839Y34055D02*
Y34547D01*
X80118Y35827D01*
X81496D01*
X85827Y40157D01*
X91339D01*
X96654Y46260D02*
Y47441D01*
X96063Y45669D02*
X96654Y46260D01*
X95276Y45669D02*
X96063D01*
X85827Y73917D02*
Y74114D01*
Y73917D02*
X86516Y73228D01*
X87303D01*
X89173Y71358D01*
Y52362D02*
Y71358D01*
Y52362D02*
X91634Y49902D01*
Y48917D02*
Y49902D01*
X95079Y45866D02*
Y47835D01*
X94882Y48032D02*
X95079Y47835D01*
X94882Y48032D02*
Y48524D01*
X94900Y48542D01*
Y74100D01*
X94882Y45669D02*
X95079Y45866D01*
X94685Y45472D02*
Y63189D01*
X95472Y40354D02*
Y44685D01*
X94685Y45472D02*
X95472Y44685D01*
X92717Y65157D02*
X94685Y63189D01*
X90059Y41240D02*
X90157Y41339D01*
X90551D01*
X90157Y40945D02*
X90551D01*
X90945Y41339D01*
X90000Y41500D02*
X90035Y41535D01*
X91142D01*
X91339Y41732D01*
X92323Y40354D02*
X93701Y38976D01*
X93110Y39961D02*
X93406D01*
X94390Y38976D01*
X92717Y40354D02*
X93110Y39961D01*
X94390Y38976D02*
X94488D01*
X93110Y40453D02*
Y55945D01*
Y40453D02*
X93307Y40256D01*
X93406D02*
X94291Y39370D01*
X93307Y40256D02*
X93406D01*
X94291Y39370D02*
X94488D01*
X97441Y36063D02*
Y37697D01*
X97047Y38091D02*
X97441Y37697D01*
X97047Y38091D02*
Y38780D01*
X97244Y38976D01*
X98819Y38189D02*
X99020Y37988D01*
X99020Y36689D02*
X100103Y35605D01*
X99020Y36689D02*
Y37988D01*
X98819Y38189D02*
Y38583D01*
X99213Y36811D02*
Y38189D01*
X99016Y38386D02*
X99213Y38189D01*
Y36811D02*
X100472Y35551D01*
X99016Y38386D02*
Y38780D01*
X99409Y37008D02*
X100591Y35827D01*
X99409Y37008D02*
Y38386D01*
X99213Y38583D02*
X99409Y38386D01*
X99803Y37008D02*
X100669Y36142D01*
X99803Y37008D02*
Y38780D01*
X99606Y38976D02*
X99803Y38780D01*
X100197Y36969D02*
X100748Y36417D01*
X100197Y36969D02*
Y38780D01*
X100000Y38976D02*
X100197Y38780D01*
X96260Y38386D02*
X97047Y39173D01*
X95866Y38386D02*
X96260D01*
X95669Y38583D02*
X95866Y38386D01*
X95571Y35925D02*
X100591Y30906D01*
X102067D01*
X102264Y31102D01*
X114468D01*
X118799Y35433D01*
Y66634D01*
X96457Y35630D02*
Y38189D01*
Y35630D02*
X100394Y31693D01*
X110827D01*
X111713Y32579D01*
Y48032D01*
X112894Y49213D01*
Y64370D01*
X114862Y66339D01*
X98819Y46063D02*
X98917D01*
X93898Y40354D02*
Y47441D01*
X94094Y47638D01*
Y49016D01*
X96458Y47636D02*
X96654Y47441D01*
X99508Y49409D02*
X99606D01*
X98032Y47933D02*
X99508Y49409D01*
X98032Y47244D02*
Y47933D01*
X99606Y48819D02*
Y49016D01*
X98425Y47638D02*
X99606Y48819D01*
X93898Y47835D02*
Y48622D01*
X93701Y47638D02*
X93898Y47835D01*
X93701Y48032D02*
Y48819D01*
X93504Y47835D02*
X93701Y48032D01*
X93504Y47441D02*
Y47835D01*
Y47441D02*
X93701Y47244D01*
X93898Y49213D02*
Y55984D01*
Y49213D02*
X94094Y49016D01*
X94291Y40354D02*
Y49213D01*
X94094Y49409D02*
X94291Y49213D01*
X94094Y49409D02*
Y56299D01*
X93508Y49016D02*
Y55941D01*
Y40351D02*
Y46654D01*
X93307Y46850D02*
X93504Y46654D01*
X93307Y46850D02*
Y48032D01*
X93504Y48228D01*
Y49016D01*
X95669Y48032D02*
X96457Y47244D01*
X95669Y48032D02*
Y48228D01*
X92339Y33508D02*
X92689Y33858D01*
X92219Y33164D02*
Y33568D01*
X91931Y33856D02*
X92126Y33661D01*
X91800Y32745D02*
X92219Y33164D01*
X92126Y33661D02*
X92219Y33568D01*
X92913Y35039D02*
X93898Y36024D01*
X92323Y35039D02*
X92913D01*
X91931Y33856D02*
Y34648D01*
X92323Y35039D01*
X92689Y33858D02*
X92913D01*
Y34646D01*
X94094Y35827D01*
X93898Y36024D02*
Y37205D01*
X93307Y32677D02*
X93701D01*
X94291Y33268D01*
Y33661D01*
X93898Y34055D02*
X94291Y33661D01*
X93898Y34055D02*
Y34843D01*
X94094Y35039D01*
X93701Y31890D02*
X94094D01*
X94882Y32480D02*
X95472Y33071D01*
X94094Y31890D02*
X94685Y32480D01*
X94882D01*
X95472Y33071D02*
Y34055D01*
X91800Y31950D02*
Y32745D01*
X92717Y31890D02*
Y32677D01*
X93307Y33268D01*
Y33661D01*
X93701Y34055D01*
Y35039D01*
X94291Y35630D01*
Y36811D01*
X94685Y34843D02*
X95472Y34055D01*
X94685Y34843D02*
Y36811D01*
X92126Y65157D02*
X92717D01*
X95276Y40157D02*
X95472Y40354D01*
X92402Y57992D02*
X94094Y56299D01*
X94291Y40354D02*
X94488Y40157D01*
X92087Y57362D02*
X93508Y55941D01*
Y40351D02*
X94291Y39567D01*
X92283Y57598D02*
X93898Y55984D01*
Y40354D02*
X94094Y40157D01*
X94685Y39567D02*
X94882Y39370D01*
X94291Y39567D02*
X94685D01*
X91929Y57126D02*
X93110Y55945D01*
X94488Y39370D02*
X94882Y38976D01*
X91732Y56929D02*
X92717Y55945D01*
Y40354D02*
Y55945D01*
X92126Y40157D02*
X93504Y38780D01*
X91299Y56496D02*
X92126Y55669D01*
Y40157D02*
Y55669D01*
X91535Y56732D02*
X92323Y55945D01*
Y40354D02*
Y55945D01*
X93701Y38976D02*
X94094D01*
X97638Y38976D02*
X97638D01*
X103819Y33228D02*
X104481Y32567D01*
X97441Y36063D02*
X100276Y33228D01*
X103819D01*
X97638Y36260D02*
Y38976D01*
Y36260D02*
X100433Y33465D01*
X104134D01*
X104737Y32862D01*
X97835Y38780D02*
X98032Y38976D01*
X97835Y36339D02*
Y38780D01*
Y36339D02*
X100472Y33701D01*
X104764D01*
X105512Y32953D01*
X98032Y36417D02*
Y38583D01*
Y36417D02*
X100512Y33937D01*
X105039D01*
X105760Y33216D01*
X98228Y38780D02*
X98425Y38976D01*
X98228Y38780D02*
Y38780D01*
X98228Y36496D02*
Y38780D01*
Y36496D02*
X100551Y34173D01*
X105236D01*
X107040Y32370D01*
X98425Y36654D02*
Y38583D01*
Y36654D02*
X100630Y34449D01*
X105394D01*
X107283Y32559D01*
X98622Y36732D02*
X100354Y35000D01*
X105236D01*
X105859Y34377D02*
X108063Y32173D01*
X105236Y35000D02*
X105859Y34377D01*
X105394Y35236D02*
X108319Y32311D01*
X100472Y35236D02*
X105394D01*
X100103Y35605D02*
X100472Y35236D01*
X105354Y35551D02*
X108583Y32323D01*
X100472Y35551D02*
X105354D01*
X105433Y35827D02*
X108831Y32429D01*
X100591Y35827D02*
X105433D01*
X105551Y36142D02*
X109599Y32094D01*
X100669Y36142D02*
X105551D01*
X105669Y36417D02*
X109855Y32232D01*
X100748Y36417D02*
X105669D01*
X98622Y38780D02*
X98819Y38976D01*
X98622Y36732D02*
Y38780D01*
X99016D02*
X99213Y38976D01*
X103701Y38583D02*
X104370Y37913D01*
Y36969D02*
Y37913D01*
X104606Y38780D02*
X105000Y38386D01*
Y36811D02*
Y38386D01*
X104843Y39094D02*
X105512Y38425D01*
Y36850D02*
Y38425D01*
X105157Y39370D02*
X106181Y38346D01*
Y36693D02*
Y38346D01*
X106890Y36890D02*
Y38268D01*
X79300Y34200D02*
Y34576D01*
X80354Y35630D01*
X81693D01*
X86024Y39961D01*
X91142D01*
X91339Y39764D01*
X79800Y33450D02*
Y34446D01*
X80472Y35118D01*
X81929D01*
X86378Y39567D01*
X90748D01*
X90945Y39764D01*
X82800Y31950D02*
Y32839D01*
X83228Y33268D01*
Y33661D01*
X82795Y34094D02*
X83228Y33661D01*
X83386Y32786D02*
Y33661D01*
X83300Y32700D02*
X83386Y32786D01*
Y33661D02*
X83819Y34094D01*
Y34606D01*
X82795Y34094D02*
Y34449D01*
X85433Y37087D01*
X88661D01*
X89961Y38386D01*
X90354D01*
X90945Y38976D01*
X83819Y34606D02*
X86024Y36811D01*
X89370D01*
X89803Y37244D01*
X90303D01*
X86575Y36535D02*
X89409D01*
X84300Y32700D02*
Y33591D01*
X84724Y34016D01*
Y34685D01*
X86575Y36535D01*
X85624Y35231D02*
X86732Y36339D01*
X84898Y33960D02*
Y34504D01*
Y33960D02*
X85276Y33583D01*
X84898Y34504D02*
X85624Y35231D01*
X89409Y36535D02*
X89882Y37008D01*
Y36811D02*
X90315D01*
X89409Y36339D02*
X89882Y36811D01*
X89449Y36024D02*
X89997Y36572D01*
X89997D02*
X90391D01*
X90113Y36333D02*
X90546D01*
X89409Y35630D02*
X90113Y36333D01*
X90121Y36026D02*
X90554D01*
X89449Y35354D02*
X90121Y36026D01*
X90119Y35709D02*
X90591D01*
X89528Y35118D02*
X90119Y35709D01*
X90094Y35291D02*
X90645D01*
X89673Y34870D02*
X90094Y35291D01*
X89764Y34370D02*
X90315Y34921D01*
X89764Y34055D02*
Y34370D01*
X90315Y34921D02*
X90630D01*
X90787Y34094D02*
Y34528D01*
X91142Y38780D02*
X91339Y38976D01*
X84800Y31950D02*
Y32831D01*
X85276Y33307D01*
Y33583D01*
X85827Y34055D02*
Y34449D01*
X85300Y32700D02*
X85433Y32833D01*
Y33661D01*
X85827Y34055D01*
X86732Y36339D02*
X89409D01*
X85827Y34449D02*
X87402Y36024D01*
X89449D01*
X91535Y38780D02*
X91732Y38976D01*
X86300Y32700D02*
Y33623D01*
X86772Y34094D01*
Y34528D01*
X87874Y35630D01*
X89409D01*
X87300Y32700D02*
Y33599D01*
X87795Y34094D01*
Y34488D01*
X88661Y35354D01*
X89449D01*
X91929Y38780D02*
X92126Y38976D01*
X88701Y34606D02*
X89213Y35118D01*
X89528D01*
X88893Y34484D02*
X89280Y34870D01*
X89280D02*
X89673D01*
X89213Y33228D02*
Y33661D01*
X88893Y33981D02*
Y34484D01*
Y33981D02*
X89213Y33661D01*
X88300Y32700D02*
Y33576D01*
X88701Y33976D01*
Y34606D01*
X88800Y32816D02*
X89213Y33228D01*
X89380Y32780D02*
Y33671D01*
X89764Y34055D01*
X89300Y32700D02*
X89380Y32780D01*
X88800Y31950D02*
Y32816D01*
X92323Y38780D02*
X92520Y38976D01*
X90276Y33307D02*
Y33583D01*
X90787Y34094D01*
X90800Y32847D02*
X91317Y33365D01*
Y33601D01*
X91811Y34094D01*
Y34882D01*
X89800Y31950D02*
Y32831D01*
X90276Y33307D01*
X92717Y38780D02*
X92913Y38976D01*
X90800Y31950D02*
Y32847D01*
X102634Y34728D02*
X102638Y34724D01*
X73671Y74328D02*
X74019Y73980D01*
X75161D01*
X76063Y54882D02*
Y65472D01*
X73622Y67913D02*
X76063Y65472D01*
X90748Y44291D02*
X90945Y44488D01*
X89961Y44291D02*
X90748D01*
X91339Y47244D02*
Y48898D01*
X91142Y47047D02*
X91339Y46850D01*
X91142Y47047D02*
Y48661D01*
X91142Y45079D02*
X91339Y44882D01*
X134449Y53248D02*
Y53642D01*
X134881Y54074D01*
X99213Y44882D02*
X100394D01*
X100000Y43307D02*
X100098Y43406D01*
X99606Y43307D02*
X100000Y42913D01*
X100689D01*
X100886Y43110D01*
X100098Y43406D02*
X100689D01*
X100197Y47835D02*
X100362Y48000D01*
X99409Y47835D02*
X100197D01*
X98819Y46850D02*
Y47244D01*
X99409Y47835D01*
X99213Y47244D02*
X99409Y47441D01*
X100197D01*
Y47441D02*
X100506Y47750D01*
X103228Y43386D02*
Y55472D01*
X102874Y43425D02*
Y55591D01*
X100376Y40927D02*
X102874Y43425D01*
X99803Y40354D02*
X100376Y40927D01*
X96063Y38976D02*
X96063D01*
X97047Y39567D02*
X100197D01*
X103583Y42953D01*
X96457Y38976D02*
X97047Y39567D01*
X103583Y42953D02*
Y55315D01*
X97047Y39961D02*
X99803D01*
X100394Y40551D01*
X100394D02*
X103228Y43386D01*
X96063Y38976D02*
X96480Y39393D01*
X96457Y39370D02*
X97047Y39961D01*
X96063Y39370D02*
X97047Y40354D01*
X99803D01*
X95669Y38976D02*
X96063Y39370D01*
X94685Y38780D02*
X94882Y38583D01*
X93504Y38780D02*
X94685D01*
X103937Y42717D02*
Y55315D01*
X100394Y39173D02*
X103937Y42717D01*
X97047Y39173D02*
X100394D01*
D32*
X95669Y48228D02*
Y48581D01*
X90414Y44625D02*
X90551Y44488D01*
X90000Y44625D02*
X90414D01*
X90354Y45866D02*
X90945Y45276D01*
X90256Y45571D02*
X90945Y44882D01*
X91339D01*
X89370Y45866D02*
X90354D01*
X89665Y45571D02*
X90256D01*
X90251Y42126D02*
X91339D01*
X89875Y41750D02*
X90251Y42126D01*
X98819Y44882D02*
X99076Y44625D01*
X100875D01*
X101625Y45375D01*
X99213Y44882D02*
X100757D01*
X101500Y45625D01*
D33*
X63543Y73622D02*
X74134D01*
X74291Y73780D02*
X75276D01*
X75276Y73780D02*
X75791Y74295D01*
X74134Y73622D02*
X74291Y73780D01*
X73393Y74606D02*
X73671Y74328D01*
X73346Y74606D02*
X73393D01*
X52007Y76457D02*
X71496D01*
X51100Y75550D02*
X52007Y76457D01*
X71496D02*
X73346Y74606D01*
X71260Y76142D02*
X73504Y73897D01*
X52953Y76142D02*
X71260D01*
X52598Y75787D02*
X52953Y76142D01*
X52598Y75275D02*
Y75787D01*
X52401Y75079D02*
X52598Y75275D01*
X50572Y75079D02*
X52401D01*
X50100Y75550D02*
X50572Y75079D01*
X71220Y68071D02*
X71299D01*
X69764Y71102D02*
X71929Y73268D01*
X72756D01*
D34*
X77205Y53071D02*
X77283Y53150D01*
X111339Y35039D02*
X111378Y35079D01*
D36*
X29122Y57492D02*
X29173Y57441D01*
D41*
X162480Y46705D02*
Y45905D01*
X163013D01*
X163413Y46439D02*
X163680D01*
X163813Y46305D01*
Y45905D01*
X163413D01*
X163280Y46039D01*
X163413Y46172D01*
X163813D01*
X164079Y46439D02*
Y46039D01*
X164213Y45905D01*
X164613D01*
Y45772D01*
X164479Y45639D01*
X164346D01*
X164613Y45905D02*
Y46439D01*
X165279Y45905D02*
X165012D01*
X164879Y46039D01*
Y46305D01*
X165012Y46439D01*
X165279D01*
X165412Y46305D01*
Y46172D01*
X164879D01*
X165679Y46439D02*
Y45905D01*
Y46172D01*
X165812Y46305D01*
X165946Y46439D01*
X166079D01*
X167278Y46572D02*
X167412Y46705D01*
X167678D01*
X167812Y46572D01*
Y46439D01*
X167678Y46305D01*
X167545D01*
X167678D01*
X167812Y46172D01*
Y46039D01*
X167678Y45905D01*
X167412D01*
X167278Y46039D01*
D42*
X94900Y74100D02*
D03*
X63138Y74713D02*
D03*
X51100Y75550D02*
D03*
X50100D02*
D03*
X85800Y74100D02*
D03*
D48*
X91800Y31950D02*
D03*
X90800D02*
D03*
X89800D02*
D03*
X88800D02*
D03*
X89300Y32700D02*
D03*
X88300D02*
D03*
X87300D02*
D03*
X86300D02*
D03*
X84800Y31950D02*
D03*
X85300Y32700D02*
D03*
X82800Y31950D02*
D03*
X84300Y32700D02*
D03*
X83300D02*
D03*
X78800Y31950D02*
D03*
X79300Y32700D02*
D03*
X79800Y33450D02*
D03*
X79300Y34200D02*
D03*
X93800Y31950D02*
D03*
X93300Y32700D02*
D03*
X92800Y31950D02*
D03*
X92300Y32700D02*
D03*
D51*
X100492Y42717D02*
D03*
X94094Y37697D02*
D03*
X89491Y43875D02*
D03*
X90945Y43701D02*
D03*
X89635Y44125D02*
D03*
X90945Y44094D02*
D03*
X72146Y68602D02*
D03*
X106496Y38681D02*
D03*
X64468Y69587D02*
D03*
X69587Y57579D02*
D03*
X65157Y68898D02*
D03*
X69094Y50295D02*
D03*
X70965Y54331D02*
D03*
X72146Y52264D02*
D03*
X78839Y36220D02*
D03*
X74803Y66240D02*
D03*
X76280Y45866D02*
D03*
X72441Y68799D02*
D03*
X73622Y46063D02*
D03*
X74016Y67028D02*
D03*
X75197Y46358D02*
D03*
X90945Y40945D02*
D03*
X91339Y40551D02*
D03*
X91339Y40157D02*
D03*
X95276Y45669D02*
D03*
X91634Y48917D02*
D03*
X94882Y45669D02*
D03*
X90059Y41240D02*
D03*
X90551Y41339D02*
D03*
X90157Y40945D02*
D03*
X90945Y41339D02*
D03*
X118799Y66634D02*
D03*
X96457Y38189D02*
D03*
X114862Y66339D02*
D03*
X98819Y46063D02*
D03*
X96458Y47636D02*
D03*
X99606Y49409D02*
D03*
X98032Y47244D02*
D03*
X99606Y49016D02*
D03*
X98425Y47638D02*
D03*
X93898Y48622D02*
D03*
X93701Y47638D02*
D03*
Y48819D02*
D03*
Y47244D02*
D03*
X96457Y46850D02*
D03*
Y47244D02*
D03*
X94094Y35827D02*
D03*
Y35039D02*
D03*
X93898Y37205D02*
D03*
X94291Y36811D02*
D03*
X94685Y36811D02*
D03*
X92126Y65157D02*
D03*
X95276Y40157D02*
D03*
X94488Y40157D02*
D03*
X94094D02*
D03*
X94882Y39370D02*
D03*
X94882Y38976D02*
D03*
X94488D02*
D03*
X94094D02*
D03*
X91339Y41732D02*
D03*
X91339Y42126D02*
D03*
X97638Y38976D02*
D03*
X98032Y38976D02*
D03*
Y38583D02*
D03*
X105512Y32953D02*
D03*
X105760Y33216D02*
D03*
X98425Y38976D02*
D03*
Y38583D02*
D03*
X107040Y32370D02*
D03*
X107283Y32559D02*
D03*
X98819Y38976D02*
D03*
Y38583D02*
D03*
X99213Y38976D02*
D03*
Y38583D02*
D03*
X99606Y38976D02*
D03*
X100000Y38976D02*
D03*
X108063Y32173D02*
D03*
X108319Y32311D02*
D03*
X108583Y32323D02*
D03*
X108831Y32429D02*
D03*
X109599Y32094D02*
D03*
X109855Y32232D02*
D03*
X103701Y38583D02*
D03*
X104606Y38780D02*
D03*
X104370Y36969D02*
D03*
X105000Y36811D02*
D03*
X104843Y39094D02*
D03*
X105512Y36850D02*
D03*
X105157Y39370D02*
D03*
X106181Y36693D02*
D03*
X106890Y36890D02*
D03*
X91339Y39764D02*
D03*
X90945D02*
D03*
Y38976D02*
D03*
Y38583D02*
D03*
X91339Y38976D02*
D03*
Y38583D02*
D03*
X91732Y38976D02*
D03*
X91732Y38583D02*
D03*
X92126Y38976D02*
D03*
Y38583D02*
D03*
X92520Y38976D02*
D03*
Y38583D02*
D03*
X92913Y38976D02*
D03*
Y38583D02*
D03*
X102634Y34728D02*
D03*
X111378Y35079D02*
D03*
X72756Y73268D02*
D03*
X75161Y73980D02*
D03*
X91299Y56496D02*
D03*
X91535Y56732D02*
D03*
X91732Y56929D02*
D03*
X91929Y57126D02*
D03*
X92087Y57362D02*
D03*
X92283Y57598D02*
D03*
X92402Y57992D02*
D03*
X102874Y55591D02*
D03*
X103228Y55472D02*
D03*
X103583Y55315D02*
D03*
X104737Y32862D02*
D03*
X104481Y32567D02*
D03*
X63543Y73622D02*
D03*
X73622Y67913D02*
D03*
X71220Y68071D02*
D03*
X69764Y71102D02*
D03*
X90551Y44488D02*
D03*
X90945D02*
D03*
X89961Y44291D02*
D03*
X91339Y44882D02*
D03*
X90945Y45276D02*
D03*
X91339Y47244D02*
D03*
Y48898D02*
D03*
Y46850D02*
D03*
X91142Y48661D02*
D03*
X90000Y44625D02*
D03*
X89370Y45866D02*
D03*
X89665Y45571D02*
D03*
X89875Y41750D02*
D03*
X90000Y41500D02*
D03*
X134449Y53248D02*
D03*
X134881Y54074D02*
D03*
X99213Y44882D02*
D03*
X98819D02*
D03*
X101625Y45375D02*
D03*
X101500Y45625D02*
D03*
X100000Y43307D02*
D03*
X99606D02*
D03*
X100886Y43110D02*
D03*
X100591Y43406D02*
D03*
X99213Y47244D02*
D03*
X100506Y47750D02*
D03*
X100362Y48000D02*
D03*
X98819Y46850D02*
D03*
X95669Y48581D02*
D03*
X95276Y48474D02*
D03*
X95669Y38583D02*
D03*
X96457Y38976D02*
D03*
X96063D02*
D03*
X97244D02*
D03*
X95669D02*
D03*
X94882Y38583D02*
D03*
X103937Y55315D02*
D03*
D52*
X29252Y57441D02*
D03*
D53*
X77205Y53071D02*
D03*
D54*
X75791Y74295D02*
D03*
X73504Y73897D02*
D03*
M02*
