%FSLAX24Y24*%
%MOIN*%
G70*
G01*
G75*
G04 Layer_Color=8388736*
G04 Layer_Color=8388736*
%ADD10C,0.0197*%
%ADD11R,0.1575X0.0335*%
%ADD12R,0.0433X0.0394*%
%ADD13R,0.0197X0.0748*%
%ADD14R,0.0866X0.1024*%
%ADD15R,0.0394X0.0433*%
%ADD16R,0.0630X0.0512*%
%ADD17R,0.1929X0.0866*%
%ADD18R,0.1929X0.0898*%
%ADD19R,0.0500X0.1500*%
%ADD20R,0.2900X0.3000*%
%ADD21R,0.0709X0.0630*%
%ADD22R,0.0630X0.0709*%
%ADD23R,0.1500X0.0500*%
%ADD24R,0.3000X0.2900*%
%ADD25R,0.0709X0.0157*%
%ADD26R,0.0748X0.0197*%
%ADD27R,0.0157X0.0709*%
%ADD28R,0.1024X0.0866*%
%ADD29R,0.0787X0.0551*%
%ADD30R,0.0551X0.0787*%
%ADD31C,0.0110*%
%ADD32C,0.0060*%
%ADD33C,0.0160*%
%ADD34C,0.0300*%
%ADD35C,0.0080*%
%ADD36C,0.0200*%
%ADD37C,0.0180*%
%ADD38C,0.0140*%
%ADD39C,0.0100*%
%ADD40C,0.0240*%
%ADD41C,0.0120*%
%ADD42C,0.0866*%
%ADD43C,0.0700*%
%ADD44R,0.0591X0.0591*%
%ADD45C,0.0591*%
%ADD46C,0.0550*%
%ADD47C,0.1300*%
%ADD48C,0.1063*%
%ADD49C,0.1600*%
%ADD50C,0.0669*%
%ADD51C,0.0200*%
%ADD52C,0.0400*%
%ADD53C,0.0300*%
%ADD54C,0.0500*%
%ADD55R,0.0354X0.0945*%
%ADD56R,0.0354X0.0276*%
%ADD57R,0.0276X0.0354*%
%ADD58C,0.0098*%
%ADD59C,0.0079*%
%ADD60C,0.0070*%
%ADD61C,0.0040*%
%ADD62C,0.0600*%
%ADD63C,0.0150*%
%ADD64C,0.0277*%
%ADD65R,0.1655X0.0415*%
%ADD66R,0.0513X0.0474*%
%ADD67R,0.0277X0.0828*%
%ADD68R,0.0946X0.1104*%
%ADD69R,0.0474X0.0513*%
%ADD70R,0.0710X0.0592*%
%ADD71R,0.2009X0.0946*%
%ADD72R,0.2009X0.0978*%
%ADD73R,0.0580X0.1580*%
%ADD74R,0.2980X0.3080*%
%ADD75R,0.0789X0.0710*%
%ADD76R,0.0710X0.0789*%
%ADD77R,0.1580X0.0580*%
%ADD78R,0.3080X0.2980*%
%ADD79R,0.0789X0.0237*%
%ADD80R,0.0828X0.0277*%
%ADD81R,0.0237X0.0789*%
%ADD82R,0.1104X0.0946*%
%ADD83R,0.0867X0.0631*%
%ADD84R,0.0631X0.0867*%
%ADD85C,0.0946*%
%ADD86C,0.0780*%
%ADD87R,0.0671X0.0671*%
%ADD88C,0.0671*%
%ADD89C,0.0630*%
%ADD90C,0.1380*%
%ADD91C,0.1143*%
%ADD92C,0.1680*%
%ADD93C,0.0749*%
%ADD94C,0.0280*%
%ADD95C,0.0480*%
%ADD96C,0.0380*%
%ADD97C,0.0580*%
D64*
X93898Y47441D02*
D03*
X94685Y47835D02*
D03*
X94291D02*
D03*
X93898D02*
D03*
X95866Y47047D02*
D03*
X95472D02*
D03*
X95866Y47441D02*
D03*
X95472D02*
D03*
X93110Y47835D02*
D03*
X92717D02*
D03*
X93898Y46654D02*
D03*
Y47047D02*
D03*
X92323Y47835D02*
D03*
X91929D02*
D03*
X93504Y47441D02*
D03*
Y47835D02*
D03*
X96654Y47441D02*
D03*
Y47835D02*
D03*
X96260D02*
D03*
X95866D02*
D03*
X97441Y41535D02*
D03*
X99803Y41929D02*
D03*
X98622D02*
D03*
X100197Y42717D02*
D03*
X97047Y43504D02*
D03*
X99803Y43898D02*
D03*
X98622D02*
D03*
X97441Y44291D02*
D03*
Y44685D02*
D03*
X93110D02*
D03*
X97441Y45079D02*
D03*
X97047D02*
D03*
X93898D02*
D03*
X93504D02*
D03*
X99803Y45866D02*
D03*
X98622D02*
D03*
X91929D02*
D03*
X90748D02*
D03*
X97441Y46260D02*
D03*
X93110D02*
D03*
X98622Y47441D02*
D03*
X97441D02*
D03*
X96260D02*
D03*
X94291D02*
D03*
X93110D02*
D03*
X91929D02*
D03*
X100197Y46654D02*
D03*
X99803D02*
D03*
X99409Y45472D02*
D03*
X99016D02*
D03*
X100197Y47047D02*
D03*
X99803D02*
D03*
Y46260D02*
D03*
X99409D02*
D03*
X99016Y46654D02*
D03*
Y47047D02*
D03*
X98228D02*
D03*
Y47441D02*
D03*
X98622Y47835D02*
D03*
X98228D02*
D03*
X99409D02*
D03*
X99016D02*
D03*
X99409Y47441D02*
D03*
X99016D02*
D03*
X97835Y47835D02*
D03*
X97441D02*
D03*
X97047Y47441D02*
D03*
Y47835D02*
D03*
X100197Y45472D02*
D03*
X99803D02*
D03*
X100197Y45866D02*
D03*
Y46260D02*
D03*
Y45079D02*
D03*
X99803D02*
D03*
X100197Y44685D02*
D03*
X99803D02*
D03*
X99016D02*
D03*
X98622D02*
D03*
X100197Y43504D02*
D03*
Y43898D02*
D03*
Y44291D02*
D03*
X99803D02*
D03*
Y42717D02*
D03*
X99409D02*
D03*
X99803Y43110D02*
D03*
X99409D02*
D03*
X100197Y42323D02*
D03*
X99803D02*
D03*
Y41535D02*
D03*
X99409D02*
D03*
X100197D02*
D03*
Y41929D02*
D03*
X91535Y46654D02*
D03*
Y47441D02*
D03*
Y47047D02*
D03*
Y47835D02*
D03*
X91142Y47441D02*
D03*
Y47835D02*
D03*
X90354Y45866D02*
D03*
Y46260D02*
D03*
X90748Y46654D02*
D03*
X90354D02*
D03*
X91535Y45079D02*
D03*
X91142D02*
D03*
X90748D02*
D03*
X90354D02*
D03*
Y45472D02*
D03*
X90748D02*
D03*
X91142Y44291D02*
D03*
X90748D02*
D03*
Y44685D02*
D03*
X90354D02*
D03*
X90748Y43504D02*
D03*
X90354D02*
D03*
X91535Y43898D02*
D03*
X91142D02*
D03*
Y43110D02*
D03*
X90748D02*
D03*
X100197Y38386D02*
D03*
Y38780D02*
D03*
Y39173D02*
D03*
Y39567D02*
D03*
Y39961D02*
D03*
Y40354D02*
D03*
Y40748D02*
D03*
Y41142D02*
D03*
Y43110D02*
D03*
Y47441D02*
D03*
X99803Y37992D02*
D03*
Y38386D02*
D03*
Y38780D02*
D03*
Y39173D02*
D03*
Y39567D02*
D03*
Y40354D02*
D03*
Y40748D02*
D03*
Y41142D02*
D03*
Y43504D02*
D03*
Y47441D02*
D03*
Y47835D02*
D03*
X99409Y37992D02*
D03*
Y38386D02*
D03*
Y38780D02*
D03*
Y39173D02*
D03*
Y39567D02*
D03*
Y39961D02*
D03*
Y40354D02*
D03*
Y40748D02*
D03*
Y41142D02*
D03*
Y41929D02*
D03*
Y42323D02*
D03*
Y43504D02*
D03*
Y43898D02*
D03*
Y44291D02*
D03*
Y44685D02*
D03*
Y45079D02*
D03*
Y45866D02*
D03*
Y46654D02*
D03*
Y47047D02*
D03*
X99016Y37992D02*
D03*
Y38386D02*
D03*
Y38780D02*
D03*
Y39173D02*
D03*
Y39567D02*
D03*
Y39961D02*
D03*
Y40354D02*
D03*
Y40748D02*
D03*
Y41142D02*
D03*
Y41535D02*
D03*
Y41929D02*
D03*
Y42323D02*
D03*
Y42717D02*
D03*
Y43110D02*
D03*
Y43504D02*
D03*
Y43898D02*
D03*
Y44291D02*
D03*
Y45079D02*
D03*
Y45866D02*
D03*
Y46260D02*
D03*
X98622Y37992D02*
D03*
Y38780D02*
D03*
Y39173D02*
D03*
Y39567D02*
D03*
Y40354D02*
D03*
Y40748D02*
D03*
Y41142D02*
D03*
Y41535D02*
D03*
Y42323D02*
D03*
Y42717D02*
D03*
Y43110D02*
D03*
Y43504D02*
D03*
Y44291D02*
D03*
Y45079D02*
D03*
Y45472D02*
D03*
Y46260D02*
D03*
Y46654D02*
D03*
Y47047D02*
D03*
X98228Y37992D02*
D03*
Y38386D02*
D03*
Y38780D02*
D03*
Y39173D02*
D03*
Y39567D02*
D03*
Y39961D02*
D03*
Y40354D02*
D03*
Y40748D02*
D03*
Y41142D02*
D03*
Y41535D02*
D03*
Y41929D02*
D03*
Y42323D02*
D03*
Y42717D02*
D03*
Y43110D02*
D03*
Y43504D02*
D03*
Y43898D02*
D03*
Y44291D02*
D03*
Y44685D02*
D03*
Y45079D02*
D03*
Y45472D02*
D03*
Y45866D02*
D03*
Y46260D02*
D03*
Y46654D02*
D03*
X97835Y37992D02*
D03*
Y38386D02*
D03*
Y38780D02*
D03*
Y39173D02*
D03*
Y39567D02*
D03*
Y39961D02*
D03*
Y40354D02*
D03*
Y40748D02*
D03*
Y41142D02*
D03*
Y41535D02*
D03*
Y41929D02*
D03*
Y42323D02*
D03*
Y42717D02*
D03*
Y43110D02*
D03*
Y43504D02*
D03*
Y43898D02*
D03*
Y44291D02*
D03*
Y44685D02*
D03*
Y45079D02*
D03*
Y45472D02*
D03*
Y45866D02*
D03*
Y46260D02*
D03*
Y46654D02*
D03*
Y47047D02*
D03*
Y47441D02*
D03*
X97441Y37992D02*
D03*
Y38780D02*
D03*
Y39173D02*
D03*
Y39961D02*
D03*
Y40354D02*
D03*
Y40748D02*
D03*
Y41929D02*
D03*
Y42323D02*
D03*
Y42717D02*
D03*
Y43110D02*
D03*
Y43504D02*
D03*
Y43898D02*
D03*
Y45472D02*
D03*
Y45866D02*
D03*
Y46654D02*
D03*
Y47047D02*
D03*
X97047Y37992D02*
D03*
Y38386D02*
D03*
Y38780D02*
D03*
Y39173D02*
D03*
Y39567D02*
D03*
Y39961D02*
D03*
Y40354D02*
D03*
Y45472D02*
D03*
Y45866D02*
D03*
Y46260D02*
D03*
Y46654D02*
D03*
Y47047D02*
D03*
X96654Y37992D02*
D03*
Y38386D02*
D03*
Y39173D02*
D03*
Y39567D02*
D03*
Y39961D02*
D03*
Y40354D02*
D03*
Y42323D02*
D03*
Y42717D02*
D03*
Y43110D02*
D03*
Y43504D02*
D03*
Y45472D02*
D03*
Y45866D02*
D03*
Y46260D02*
D03*
Y46654D02*
D03*
Y47047D02*
D03*
X96260Y37992D02*
D03*
Y38386D02*
D03*
Y38780D02*
D03*
Y39173D02*
D03*
Y39567D02*
D03*
Y39961D02*
D03*
Y40354D02*
D03*
Y41535D02*
D03*
Y42323D02*
D03*
Y42717D02*
D03*
Y43110D02*
D03*
Y43504D02*
D03*
Y44291D02*
D03*
Y45472D02*
D03*
Y45866D02*
D03*
Y46654D02*
D03*
X95866Y37992D02*
D03*
Y38386D02*
D03*
Y39173D02*
D03*
Y39567D02*
D03*
Y39961D02*
D03*
Y40354D02*
D03*
Y40748D02*
D03*
Y41535D02*
D03*
Y41929D02*
D03*
Y42717D02*
D03*
Y43110D02*
D03*
Y43898D02*
D03*
Y44291D02*
D03*
Y44685D02*
D03*
Y45472D02*
D03*
Y46260D02*
D03*
X95472Y37992D02*
D03*
Y38780D02*
D03*
Y39173D02*
D03*
Y39567D02*
D03*
Y39961D02*
D03*
Y40354D02*
D03*
Y40748D02*
D03*
Y41142D02*
D03*
Y41535D02*
D03*
Y41929D02*
D03*
Y42323D02*
D03*
Y42717D02*
D03*
Y43110D02*
D03*
Y43504D02*
D03*
Y43898D02*
D03*
Y44291D02*
D03*
Y44685D02*
D03*
Y45079D02*
D03*
Y47835D02*
D03*
X95079Y38780D02*
D03*
Y39173D02*
D03*
Y39567D02*
D03*
Y39961D02*
D03*
Y40748D02*
D03*
Y45079D02*
D03*
Y45472D02*
D03*
Y46260D02*
D03*
Y46654D02*
D03*
Y47047D02*
D03*
Y47441D02*
D03*
X94685Y38386D02*
D03*
Y38780D02*
D03*
Y39173D02*
D03*
Y41142D02*
D03*
Y45079D02*
D03*
Y47047D02*
D03*
Y47441D02*
D03*
X94291Y38780D02*
D03*
Y39173D02*
D03*
Y39567D02*
D03*
Y45472D02*
D03*
X93898Y38780D02*
D03*
Y39173D02*
D03*
Y39567D02*
D03*
Y39961D02*
D03*
Y40354D02*
D03*
Y45472D02*
D03*
Y45866D02*
D03*
Y46260D02*
D03*
X93504Y39173D02*
D03*
Y39567D02*
D03*
Y39961D02*
D03*
Y40354D02*
D03*
Y42323D02*
D03*
Y45472D02*
D03*
Y45866D02*
D03*
Y46260D02*
D03*
Y46654D02*
D03*
X93110Y38780D02*
D03*
Y39173D02*
D03*
Y39961D02*
D03*
Y40354D02*
D03*
Y41535D02*
D03*
Y41929D02*
D03*
Y42323D02*
D03*
Y42717D02*
D03*
Y43110D02*
D03*
Y43504D02*
D03*
Y43898D02*
D03*
Y44291D02*
D03*
Y45079D02*
D03*
Y45472D02*
D03*
Y45866D02*
D03*
Y46654D02*
D03*
Y47047D02*
D03*
X92717Y38386D02*
D03*
Y38780D02*
D03*
Y39173D02*
D03*
Y39567D02*
D03*
Y39961D02*
D03*
Y40354D02*
D03*
Y40748D02*
D03*
Y41142D02*
D03*
Y41535D02*
D03*
Y41929D02*
D03*
Y42323D02*
D03*
Y42717D02*
D03*
Y43110D02*
D03*
Y43504D02*
D03*
Y43898D02*
D03*
Y44291D02*
D03*
Y44685D02*
D03*
Y45079D02*
D03*
Y45472D02*
D03*
Y45866D02*
D03*
Y46260D02*
D03*
Y46654D02*
D03*
Y47047D02*
D03*
Y47441D02*
D03*
X92323Y37992D02*
D03*
Y38386D02*
D03*
Y38780D02*
D03*
Y39173D02*
D03*
Y39567D02*
D03*
Y40354D02*
D03*
Y40748D02*
D03*
Y41142D02*
D03*
Y41535D02*
D03*
Y41929D02*
D03*
Y42323D02*
D03*
Y42717D02*
D03*
Y43504D02*
D03*
Y43898D02*
D03*
Y44291D02*
D03*
Y44685D02*
D03*
Y45079D02*
D03*
Y45472D02*
D03*
Y46260D02*
D03*
Y46654D02*
D03*
Y47047D02*
D03*
Y47441D02*
D03*
X91929Y37992D02*
D03*
Y38780D02*
D03*
Y39173D02*
D03*
Y39567D02*
D03*
Y40748D02*
D03*
Y41142D02*
D03*
Y41535D02*
D03*
Y41929D02*
D03*
Y42323D02*
D03*
Y42717D02*
D03*
Y43110D02*
D03*
Y43504D02*
D03*
Y43898D02*
D03*
Y44291D02*
D03*
Y44685D02*
D03*
Y45079D02*
D03*
Y45472D02*
D03*
Y46260D02*
D03*
Y46654D02*
D03*
Y47047D02*
D03*
X91535Y37992D02*
D03*
Y38386D02*
D03*
Y38780D02*
D03*
Y39173D02*
D03*
Y39567D02*
D03*
Y39961D02*
D03*
Y40354D02*
D03*
Y40748D02*
D03*
Y41142D02*
D03*
Y41535D02*
D03*
Y41929D02*
D03*
Y42323D02*
D03*
Y42717D02*
D03*
Y43110D02*
D03*
Y43504D02*
D03*
Y44291D02*
D03*
Y44685D02*
D03*
Y45472D02*
D03*
Y45866D02*
D03*
Y46260D02*
D03*
X91142Y37992D02*
D03*
Y38386D02*
D03*
Y38780D02*
D03*
Y39173D02*
D03*
Y39567D02*
D03*
Y39961D02*
D03*
Y40354D02*
D03*
Y40748D02*
D03*
Y41535D02*
D03*
Y41929D02*
D03*
Y42323D02*
D03*
Y42717D02*
D03*
Y43504D02*
D03*
Y45472D02*
D03*
Y45866D02*
D03*
Y46260D02*
D03*
Y46654D02*
D03*
X90748Y38780D02*
D03*
Y39173D02*
D03*
Y39567D02*
D03*
Y40354D02*
D03*
Y40748D02*
D03*
Y41142D02*
D03*
Y41535D02*
D03*
Y41929D02*
D03*
Y42323D02*
D03*
Y42717D02*
D03*
Y43898D02*
D03*
Y46260D02*
D03*
Y47047D02*
D03*
X90354Y38780D02*
D03*
Y39173D02*
D03*
Y39567D02*
D03*
Y39961D02*
D03*
Y40354D02*
D03*
Y40748D02*
D03*
Y41142D02*
D03*
Y41535D02*
D03*
Y41929D02*
D03*
Y42323D02*
D03*
Y43110D02*
D03*
Y43898D02*
D03*
Y44291D02*
D03*
Y47047D02*
D03*
X90748Y47835D02*
D03*
X95079D02*
D03*
X90748Y39961D02*
D03*
X91929D02*
D03*
X92323D02*
D03*
X98622D02*
D03*
X99803D02*
D03*
X93110Y39567D02*
D03*
X94685D02*
D03*
X97441D02*
D03*
X93504Y38780D02*
D03*
X90354Y38386D02*
D03*
X90748D02*
D03*
X91929D02*
D03*
X93110D02*
D03*
X93504D02*
D03*
X97441D02*
D03*
X98622D02*
D03*
X90748Y37992D02*
D03*
X92717D02*
D03*
X93110D02*
D03*
X93504D02*
D03*
X95079D02*
D03*
X90354Y47441D02*
D03*
X90748D02*
D03*
X91142Y47047D02*
D03*
X93504D02*
D03*
X94685Y46260D02*
D03*
X92323Y45866D02*
D03*
X94291Y45079D02*
D03*
X96260D02*
D03*
X96654D02*
D03*
X91142Y44685D02*
D03*
X93898D02*
D03*
X94291D02*
D03*
X94685D02*
D03*
X95079D02*
D03*
X96260D02*
D03*
X96654D02*
D03*
X93504Y44291D02*
D03*
X93898D02*
D03*
X94291D02*
D03*
X94685D02*
D03*
X95079D02*
D03*
X96654D02*
D03*
X97047D02*
D03*
X93504Y43898D02*
D03*
X93898D02*
D03*
X94291D02*
D03*
X94685D02*
D03*
X95079D02*
D03*
X96260D02*
D03*
X96654D02*
D03*
X97047D02*
D03*
X93504Y43504D02*
D03*
X93898D02*
D03*
X94291D02*
D03*
X94685D02*
D03*
X95079D02*
D03*
X95866D02*
D03*
X92323Y43110D02*
D03*
X93504D02*
D03*
X93898D02*
D03*
X94291D02*
D03*
X94685D02*
D03*
X95079D02*
D03*
X97047D02*
D03*
X90354Y42717D02*
D03*
X93504D02*
D03*
X93898D02*
D03*
X94291D02*
D03*
X94685D02*
D03*
X95079D02*
D03*
X97047D02*
D03*
X93898Y42323D02*
D03*
X94291D02*
D03*
X94685D02*
D03*
X95079D02*
D03*
X95866D02*
D03*
X97047D02*
D03*
X93504Y41929D02*
D03*
X93898D02*
D03*
X94291D02*
D03*
X94685D02*
D03*
X95079D02*
D03*
X96260D02*
D03*
X96654D02*
D03*
X97047D02*
D03*
X93504Y41535D02*
D03*
X93898D02*
D03*
X94291D02*
D03*
X94685D02*
D03*
X95079D02*
D03*
X96654D02*
D03*
X97047D02*
D03*
X91142Y41142D02*
D03*
X93110D02*
D03*
X93898D02*
D03*
X94291D02*
D03*
X95079D02*
D03*
X95866D02*
D03*
X96260D02*
D03*
X96654D02*
D03*
X97441D02*
D03*
X93110Y40748D02*
D03*
X93504D02*
D03*
X93898D02*
D03*
X94291D02*
D03*
X96260D02*
D03*
X96654D02*
D03*
X97047D02*
D03*
X94291Y39961D02*
D03*
X94685D02*
D03*
X95866Y38780D02*
D03*
X94291Y38386D02*
D03*
Y46260D02*
D03*
X96260D02*
D03*
X94685Y40354D02*
D03*
X95079D02*
D03*
X94291D02*
D03*
X94685Y40748D02*
D03*
X95866Y45079D02*
D03*
X94685Y45472D02*
D03*
X95472D02*
D03*
X94291Y37992D02*
D03*
X96654Y38780D02*
D03*
X93898Y38386D02*
D03*
Y37992D02*
D03*
X94685D02*
D03*
X95472Y46654D02*
D03*
Y46260D02*
D03*
X94685Y45866D02*
D03*
X95079D02*
D03*
X95472D02*
D03*
X95866D02*
D03*
X96260Y47047D02*
D03*
X95866Y46654D02*
D03*
X95472Y38386D02*
D03*
X94291Y45866D02*
D03*
Y47047D02*
D03*
Y46654D02*
D03*
X95079Y38386D02*
D03*
X94685Y46654D02*
D03*
X91929Y40354D02*
D03*
D65*
X121006Y54074D02*
D03*
Y53574D02*
D03*
Y55074D02*
D03*
Y55574D02*
D03*
X113506Y54074D02*
D03*
Y53574D02*
D03*
Y55074D02*
D03*
Y55574D02*
D03*
X106006Y54074D02*
D03*
Y53574D02*
D03*
Y55074D02*
D03*
Y55574D02*
D03*
X98506Y54074D02*
D03*
Y53574D02*
D03*
Y55074D02*
D03*
Y55574D02*
D03*
X143506Y54074D02*
D03*
Y53574D02*
D03*
Y55074D02*
D03*
Y55574D02*
D03*
X136006Y54074D02*
D03*
Y53574D02*
D03*
Y55074D02*
D03*
Y55574D02*
D03*
X128506Y54074D02*
D03*
Y53574D02*
D03*
Y55074D02*
D03*
Y55574D02*
D03*
X151006Y54074D02*
D03*
Y53574D02*
D03*
Y55074D02*
D03*
Y55574D02*
D03*
X91006Y54074D02*
D03*
Y53574D02*
D03*
Y55074D02*
D03*
Y55574D02*
D03*
X83506Y54074D02*
D03*
Y53574D02*
D03*
Y55074D02*
D03*
Y55574D02*
D03*
X76006Y54074D02*
D03*
Y53574D02*
D03*
Y55074D02*
D03*
Y55574D02*
D03*
X68506Y54074D02*
D03*
Y53574D02*
D03*
Y55074D02*
D03*
Y55574D02*
D03*
X61006Y54074D02*
D03*
Y53574D02*
D03*
Y55074D02*
D03*
Y55574D02*
D03*
X53506Y54074D02*
D03*
Y53574D02*
D03*
Y55074D02*
D03*
Y55574D02*
D03*
X38506Y54074D02*
D03*
Y53574D02*
D03*
Y55074D02*
D03*
Y55574D02*
D03*
X53506Y58574D02*
D03*
Y56074D02*
D03*
Y54574D02*
D03*
Y53074D02*
D03*
Y59074D02*
D03*
Y59574D02*
D03*
Y60074D02*
D03*
Y60574D02*
D03*
Y61074D02*
D03*
Y61574D02*
D03*
Y62074D02*
D03*
Y62574D02*
D03*
Y63074D02*
D03*
Y63574D02*
D03*
Y64074D02*
D03*
Y64574D02*
D03*
Y65074D02*
D03*
Y65574D02*
D03*
X61006Y58574D02*
D03*
Y56074D02*
D03*
Y54574D02*
D03*
Y53074D02*
D03*
Y59074D02*
D03*
Y59574D02*
D03*
Y60074D02*
D03*
Y60574D02*
D03*
Y61074D02*
D03*
Y61574D02*
D03*
Y62074D02*
D03*
Y62574D02*
D03*
Y63074D02*
D03*
Y63574D02*
D03*
Y64074D02*
D03*
Y64574D02*
D03*
Y65074D02*
D03*
Y65574D02*
D03*
X38506Y58574D02*
D03*
Y56074D02*
D03*
Y54574D02*
D03*
Y53074D02*
D03*
Y59074D02*
D03*
Y59574D02*
D03*
Y60074D02*
D03*
Y60574D02*
D03*
Y61074D02*
D03*
Y61574D02*
D03*
Y62074D02*
D03*
Y62574D02*
D03*
Y63074D02*
D03*
Y63574D02*
D03*
Y64074D02*
D03*
Y64574D02*
D03*
Y65074D02*
D03*
Y65574D02*
D03*
X46006Y58574D02*
D03*
Y56074D02*
D03*
Y54574D02*
D03*
Y53074D02*
D03*
Y59074D02*
D03*
Y59574D02*
D03*
Y60074D02*
D03*
Y60574D02*
D03*
Y61074D02*
D03*
Y61574D02*
D03*
Y62074D02*
D03*
Y62574D02*
D03*
Y63074D02*
D03*
Y63574D02*
D03*
Y64074D02*
D03*
Y64574D02*
D03*
Y65074D02*
D03*
Y65574D02*
D03*
X83506Y58574D02*
D03*
Y56074D02*
D03*
Y54574D02*
D03*
Y53074D02*
D03*
Y59074D02*
D03*
Y59574D02*
D03*
Y60074D02*
D03*
Y60574D02*
D03*
Y61074D02*
D03*
Y61574D02*
D03*
Y62074D02*
D03*
Y62574D02*
D03*
Y63074D02*
D03*
Y63574D02*
D03*
Y64074D02*
D03*
Y64574D02*
D03*
Y65074D02*
D03*
Y65574D02*
D03*
X91006Y58574D02*
D03*
Y56074D02*
D03*
Y54574D02*
D03*
Y53074D02*
D03*
Y59074D02*
D03*
Y59574D02*
D03*
Y60074D02*
D03*
Y60574D02*
D03*
Y61074D02*
D03*
Y61574D02*
D03*
Y62074D02*
D03*
Y62574D02*
D03*
Y63074D02*
D03*
Y63574D02*
D03*
Y64074D02*
D03*
Y64574D02*
D03*
Y65074D02*
D03*
Y65574D02*
D03*
X68506Y58574D02*
D03*
Y56074D02*
D03*
Y54574D02*
D03*
Y53074D02*
D03*
Y59074D02*
D03*
Y59574D02*
D03*
Y60074D02*
D03*
Y60574D02*
D03*
Y61074D02*
D03*
Y61574D02*
D03*
Y62074D02*
D03*
Y62574D02*
D03*
Y63074D02*
D03*
Y63574D02*
D03*
Y64074D02*
D03*
Y64574D02*
D03*
Y65074D02*
D03*
Y65574D02*
D03*
X76006Y58574D02*
D03*
Y56074D02*
D03*
Y54574D02*
D03*
Y53074D02*
D03*
Y59074D02*
D03*
Y59574D02*
D03*
Y60074D02*
D03*
Y60574D02*
D03*
Y61074D02*
D03*
Y61574D02*
D03*
Y62074D02*
D03*
Y62574D02*
D03*
Y63074D02*
D03*
Y63574D02*
D03*
Y64074D02*
D03*
Y64574D02*
D03*
Y65074D02*
D03*
Y65574D02*
D03*
X113506Y58574D02*
D03*
Y56074D02*
D03*
Y54574D02*
D03*
Y53074D02*
D03*
Y59074D02*
D03*
Y59574D02*
D03*
Y60074D02*
D03*
Y60574D02*
D03*
Y61074D02*
D03*
Y61574D02*
D03*
Y62074D02*
D03*
Y62574D02*
D03*
Y63074D02*
D03*
Y63574D02*
D03*
Y64074D02*
D03*
Y64574D02*
D03*
Y65074D02*
D03*
Y65574D02*
D03*
X121006Y58574D02*
D03*
Y56074D02*
D03*
Y54574D02*
D03*
Y53074D02*
D03*
Y59074D02*
D03*
Y59574D02*
D03*
Y60074D02*
D03*
Y60574D02*
D03*
Y61074D02*
D03*
Y61574D02*
D03*
Y62074D02*
D03*
Y62574D02*
D03*
Y63074D02*
D03*
Y63574D02*
D03*
Y64074D02*
D03*
Y64574D02*
D03*
Y65074D02*
D03*
Y65574D02*
D03*
X98506Y58574D02*
D03*
Y56074D02*
D03*
Y54574D02*
D03*
Y53074D02*
D03*
Y59074D02*
D03*
Y59574D02*
D03*
Y60074D02*
D03*
Y60574D02*
D03*
Y61074D02*
D03*
Y61574D02*
D03*
Y62074D02*
D03*
Y62574D02*
D03*
Y63074D02*
D03*
Y63574D02*
D03*
Y64074D02*
D03*
Y64574D02*
D03*
Y65074D02*
D03*
Y65574D02*
D03*
X106006Y58574D02*
D03*
Y56074D02*
D03*
Y54574D02*
D03*
Y53074D02*
D03*
Y59074D02*
D03*
Y59574D02*
D03*
Y60074D02*
D03*
Y60574D02*
D03*
Y61074D02*
D03*
Y61574D02*
D03*
Y62074D02*
D03*
Y62574D02*
D03*
Y63074D02*
D03*
Y63574D02*
D03*
Y64074D02*
D03*
Y64574D02*
D03*
Y65074D02*
D03*
Y65574D02*
D03*
X151006Y58574D02*
D03*
Y56074D02*
D03*
Y54574D02*
D03*
Y53074D02*
D03*
Y59074D02*
D03*
Y59574D02*
D03*
Y60074D02*
D03*
Y60574D02*
D03*
Y61074D02*
D03*
Y61574D02*
D03*
Y62074D02*
D03*
Y62574D02*
D03*
Y63074D02*
D03*
Y63574D02*
D03*
Y64074D02*
D03*
Y64574D02*
D03*
Y65074D02*
D03*
Y65574D02*
D03*
X128506Y58574D02*
D03*
Y56074D02*
D03*
Y54574D02*
D03*
Y53074D02*
D03*
Y59074D02*
D03*
Y59574D02*
D03*
Y60074D02*
D03*
Y60574D02*
D03*
Y61074D02*
D03*
Y61574D02*
D03*
Y62074D02*
D03*
Y62574D02*
D03*
Y63074D02*
D03*
Y63574D02*
D03*
Y64074D02*
D03*
Y64574D02*
D03*
Y65074D02*
D03*
Y65574D02*
D03*
X136006Y58574D02*
D03*
Y56074D02*
D03*
Y54574D02*
D03*
Y53074D02*
D03*
Y59074D02*
D03*
Y59574D02*
D03*
Y60074D02*
D03*
Y60574D02*
D03*
Y61074D02*
D03*
Y61574D02*
D03*
Y62074D02*
D03*
Y62574D02*
D03*
Y63074D02*
D03*
Y63574D02*
D03*
Y64074D02*
D03*
Y64574D02*
D03*
Y65074D02*
D03*
Y65574D02*
D03*
X143506Y58574D02*
D03*
Y56074D02*
D03*
Y54574D02*
D03*
Y53074D02*
D03*
Y59074D02*
D03*
Y59574D02*
D03*
Y60074D02*
D03*
Y60574D02*
D03*
Y61074D02*
D03*
Y61574D02*
D03*
Y62074D02*
D03*
Y62574D02*
D03*
Y63074D02*
D03*
Y63574D02*
D03*
Y64074D02*
D03*
Y64574D02*
D03*
Y65074D02*
D03*
Y65574D02*
D03*
X46006Y53574D02*
D03*
Y54074D02*
D03*
Y55074D02*
D03*
Y55574D02*
D03*
D66*
X71735Y69450D02*
D03*
X73285D02*
D03*
X71065D02*
D03*
X76385Y69400D02*
D03*
X74835Y69450D02*
D03*
X72615D02*
D03*
X74165D02*
D03*
X75715Y69400D02*
D03*
D67*
X73305Y71007D02*
D03*
X72675D02*
D03*
X72990D02*
D03*
X73620D02*
D03*
X73935D02*
D03*
X74250D02*
D03*
X74565D02*
D03*
X74880D02*
D03*
X75195D02*
D03*
X75510D02*
D03*
X75825D02*
D03*
X72675Y75693D02*
D03*
X72990D02*
D03*
X73305D02*
D03*
X73620D02*
D03*
X73935D02*
D03*
X74250D02*
D03*
X74565D02*
D03*
X75195D02*
D03*
X75510D02*
D03*
X75825D02*
D03*
X74880D02*
D03*
D68*
X56500Y58616D02*
D03*
Y60584D02*
D03*
X88500Y62216D02*
D03*
Y64184D02*
D03*
X41500Y58616D02*
D03*
Y60584D02*
D03*
X43500Y62216D02*
D03*
Y64184D02*
D03*
X51000Y58616D02*
D03*
Y60584D02*
D03*
X36000Y64184D02*
D03*
Y62216D02*
D03*
Y60584D02*
D03*
Y58616D02*
D03*
X66100Y60584D02*
D03*
Y58616D02*
D03*
X71500Y60584D02*
D03*
Y58616D02*
D03*
X66100Y64184D02*
D03*
Y62216D02*
D03*
X81000Y60584D02*
D03*
Y58616D02*
D03*
X86500Y60584D02*
D03*
Y58616D02*
D03*
X88500Y60584D02*
D03*
Y58616D02*
D03*
X73500Y60584D02*
D03*
Y58616D02*
D03*
X79000Y60584D02*
D03*
Y58616D02*
D03*
X73500Y64184D02*
D03*
Y62216D02*
D03*
X111000Y60584D02*
D03*
Y58616D02*
D03*
X116500Y60584D02*
D03*
Y58616D02*
D03*
Y64184D02*
D03*
Y62216D02*
D03*
X118500Y60584D02*
D03*
Y58616D02*
D03*
X124000Y60584D02*
D03*
Y58616D02*
D03*
Y64184D02*
D03*
Y62216D02*
D03*
X101500Y60584D02*
D03*
Y58616D02*
D03*
Y64184D02*
D03*
Y62216D02*
D03*
X103500Y60584D02*
D03*
Y58616D02*
D03*
X109000Y60584D02*
D03*
Y58616D02*
D03*
Y64184D02*
D03*
Y62216D02*
D03*
X148500Y60584D02*
D03*
Y58616D02*
D03*
X154000Y60584D02*
D03*
Y58616D02*
D03*
Y64184D02*
D03*
Y62216D02*
D03*
X126000Y60584D02*
D03*
Y58616D02*
D03*
X131500Y60584D02*
D03*
Y58616D02*
D03*
Y64184D02*
D03*
Y62216D02*
D03*
X133500Y60584D02*
D03*
Y58616D02*
D03*
X139000Y60584D02*
D03*
Y58616D02*
D03*
Y64184D02*
D03*
Y62216D02*
D03*
X141000Y60584D02*
D03*
Y58616D02*
D03*
X146500Y60584D02*
D03*
Y58616D02*
D03*
Y64184D02*
D03*
Y62216D02*
D03*
X112750Y36384D02*
D03*
Y34416D02*
D03*
X43500Y60584D02*
D03*
Y58616D02*
D03*
X49000Y60584D02*
D03*
Y58616D02*
D03*
X51000Y64184D02*
D03*
Y62216D02*
D03*
X58500Y60584D02*
D03*
Y58616D02*
D03*
X64000Y60584D02*
D03*
Y58616D02*
D03*
X58500Y64184D02*
D03*
Y62216D02*
D03*
X81000D02*
D03*
Y64184D02*
D03*
D69*
X123050Y69835D02*
D03*
X114850Y69885D02*
D03*
X62050Y72115D02*
D03*
Y72785D02*
D03*
X65150Y72115D02*
D03*
Y72785D02*
D03*
X63200Y72115D02*
D03*
Y72785D02*
D03*
X63800Y72065D02*
D03*
X64500Y72115D02*
D03*
X63800Y72735D02*
D03*
X64500Y72785D02*
D03*
X114850Y69215D02*
D03*
X123050Y69165D02*
D03*
D70*
X124400Y70074D02*
D03*
Y69326D02*
D03*
X116350Y70074D02*
D03*
Y69326D02*
D03*
D71*
X33159Y58312D02*
D03*
X35768Y41750D02*
D03*
X123882Y34500D02*
D03*
D72*
X29222Y58312D02*
D03*
X31832Y41750D02*
D03*
X127818Y34500D02*
D03*
D73*
X33509Y71300D02*
D03*
X32839D02*
D03*
X32169D02*
D03*
X31499D02*
D03*
X30829D02*
D03*
D74*
X32259Y66450D02*
D03*
D75*
X30650Y72599D02*
D03*
Y73701D02*
D03*
X62450Y34849D02*
D03*
Y35951D02*
D03*
Y32849D02*
D03*
Y33951D02*
D03*
X146700Y35201D02*
D03*
Y34099D02*
D03*
X28553Y66343D02*
D03*
Y65240D02*
D03*
D76*
X33451Y73250D02*
D03*
X32349D02*
D03*
X41351Y39250D02*
D03*
X40249D02*
D03*
D77*
X60550Y32800D02*
D03*
Y33470D02*
D03*
Y34140D02*
D03*
Y34810D02*
D03*
Y35480D02*
D03*
D78*
X55700Y34050D02*
D03*
D79*
X110772Y33448D02*
D03*
X102028Y37031D02*
D03*
Y36775D02*
D03*
Y36519D02*
D03*
Y36263D02*
D03*
Y36007D02*
D03*
Y35752D02*
D03*
Y35496D02*
D03*
Y35240D02*
D03*
Y34984D02*
D03*
Y34728D02*
D03*
Y34472D02*
D03*
Y34216D02*
D03*
Y33960D02*
D03*
Y33704D02*
D03*
Y33448D02*
D03*
Y33193D02*
D03*
Y32937D02*
D03*
Y32681D02*
D03*
Y32425D02*
D03*
Y32169D02*
D03*
X110772D02*
D03*
Y32425D02*
D03*
Y32681D02*
D03*
Y32937D02*
D03*
Y33193D02*
D03*
Y33704D02*
D03*
Y33960D02*
D03*
Y34216D02*
D03*
Y34472D02*
D03*
Y34728D02*
D03*
Y34984D02*
D03*
Y35240D02*
D03*
Y35496D02*
D03*
Y35752D02*
D03*
Y36007D02*
D03*
Y36263D02*
D03*
Y36519D02*
D03*
Y36775D02*
D03*
Y37031D02*
D03*
D80*
X71907Y74925D02*
D03*
Y74610D02*
D03*
Y74295D02*
D03*
Y73980D02*
D03*
Y73665D02*
D03*
Y73350D02*
D03*
Y73035D02*
D03*
Y72720D02*
D03*
Y72405D02*
D03*
Y72090D02*
D03*
Y71775D02*
D03*
X76593Y74925D02*
D03*
Y74610D02*
D03*
Y74295D02*
D03*
Y73980D02*
D03*
Y73665D02*
D03*
Y73350D02*
D03*
Y73035D02*
D03*
Y72720D02*
D03*
Y72405D02*
D03*
Y72090D02*
D03*
Y71775D02*
D03*
D81*
X110111Y37791D02*
D03*
X109855D02*
D03*
X109599D02*
D03*
X109343D02*
D03*
X109087D02*
D03*
X108831D02*
D03*
X108575D02*
D03*
X108319D02*
D03*
X108063D02*
D03*
X107807D02*
D03*
X107552D02*
D03*
X107296D02*
D03*
X107040D02*
D03*
X106784D02*
D03*
X106528D02*
D03*
X106272D02*
D03*
X106016D02*
D03*
X105760D02*
D03*
X105504D02*
D03*
X105248D02*
D03*
X104993D02*
D03*
X104737D02*
D03*
X104481D02*
D03*
X104225D02*
D03*
X103969D02*
D03*
X103713D02*
D03*
X103457D02*
D03*
X103201D02*
D03*
X102945D02*
D03*
X102689D02*
D03*
Y31409D02*
D03*
X102945D02*
D03*
X103201D02*
D03*
X103457D02*
D03*
X103713D02*
D03*
X103969D02*
D03*
X104225D02*
D03*
X104481D02*
D03*
X104737D02*
D03*
X104993D02*
D03*
X105248D02*
D03*
X105504D02*
D03*
X105760D02*
D03*
X106016D02*
D03*
X106272D02*
D03*
X106528D02*
D03*
X106784D02*
D03*
X107040Y31409D02*
D03*
X107296Y31409D02*
D03*
X107552D02*
D03*
X107807D02*
D03*
X108063D02*
D03*
X108319D02*
D03*
X108575D02*
D03*
X108831D02*
D03*
X109087D02*
D03*
X109343D02*
D03*
X109599D02*
D03*
X109855D02*
D03*
X110111D02*
D03*
D82*
X98516Y31300D02*
D03*
X100484D02*
D03*
X75148Y36048D02*
D03*
X77117D02*
D03*
X105000Y40394D02*
D03*
X103032D02*
D03*
X86732Y49134D02*
D03*
X88701D02*
D03*
X104370Y49449D02*
D03*
X102402D02*
D03*
D83*
X79704Y74200D02*
D03*
Y72200D02*
D03*
X78050D02*
D03*
Y74200D02*
D03*
D84*
X81024Y37165D02*
D03*
X83024D02*
D03*
X81024Y38819D02*
D03*
X83024D02*
D03*
D85*
X25300Y52900D02*
D03*
Y51246D02*
D03*
Y49593D02*
D03*
Y47939D02*
D03*
Y46286D02*
D03*
Y44632D02*
D03*
Y42979D02*
D03*
Y41325D02*
D03*
Y39672D02*
D03*
Y38018D02*
D03*
Y36365D02*
D03*
Y34711D02*
D03*
X23135Y52900D02*
D03*
Y51246D02*
D03*
Y49593D02*
D03*
Y47939D02*
D03*
Y46286D02*
D03*
Y44632D02*
D03*
Y42979D02*
D03*
Y41325D02*
D03*
Y39672D02*
D03*
Y38018D02*
D03*
Y36365D02*
D03*
Y34711D02*
D03*
D86*
X21603Y61242D02*
D03*
Y62492D02*
D03*
Y63742D02*
D03*
Y69992D02*
D03*
X26603D02*
D03*
Y63742D02*
D03*
Y62492D02*
D03*
Y61242D02*
D03*
Y57492D02*
D03*
X21603D02*
D03*
X31850Y37150D02*
D03*
Y32150D02*
D03*
X35600D02*
D03*
X36850D02*
D03*
X38100D02*
D03*
X44350D02*
D03*
Y37150D02*
D03*
X38100D02*
D03*
X36850D02*
D03*
X35600D02*
D03*
X131400Y37200D02*
D03*
Y32200D02*
D03*
X135150D02*
D03*
X136400D02*
D03*
X137650D02*
D03*
X143900D02*
D03*
Y37200D02*
D03*
X137650D02*
D03*
X136400D02*
D03*
X135150D02*
D03*
D87*
X88800Y74100D02*
D03*
X97900D02*
D03*
X107600Y74150D02*
D03*
X48100Y75550D02*
D03*
X29600Y49000D02*
D03*
D88*
X88800Y75100D02*
D03*
X87800Y74100D02*
D03*
Y75100D02*
D03*
X86800Y74100D02*
D03*
Y75100D02*
D03*
X85800Y74100D02*
D03*
Y75100D02*
D03*
X84800Y74100D02*
D03*
Y75100D02*
D03*
X83800Y74100D02*
D03*
Y75100D02*
D03*
X82800Y74100D02*
D03*
Y75100D02*
D03*
X81800Y74100D02*
D03*
Y75100D02*
D03*
X97900D02*
D03*
X96900Y74100D02*
D03*
Y75100D02*
D03*
X95900Y74100D02*
D03*
Y75100D02*
D03*
X94900D02*
D03*
X93900Y74100D02*
D03*
Y75100D02*
D03*
X92900Y74100D02*
D03*
Y75100D02*
D03*
X91900Y74100D02*
D03*
Y75100D02*
D03*
X90900Y74100D02*
D03*
Y75100D02*
D03*
X107600Y75150D02*
D03*
X106600Y74150D02*
D03*
Y75150D02*
D03*
X105600Y74150D02*
D03*
Y75150D02*
D03*
X104600Y74150D02*
D03*
Y75150D02*
D03*
X103600Y74150D02*
D03*
Y75150D02*
D03*
X102600Y74150D02*
D03*
Y75150D02*
D03*
X101600Y74150D02*
D03*
Y75150D02*
D03*
X100600Y74150D02*
D03*
Y75150D02*
D03*
X48100Y74550D02*
D03*
X49100Y75550D02*
D03*
Y74550D02*
D03*
X50100Y75550D02*
D03*
Y74550D02*
D03*
X51100Y75550D02*
D03*
Y74550D02*
D03*
X52100Y75550D02*
D03*
Y74550D02*
D03*
X53100Y75550D02*
D03*
Y74550D02*
D03*
X54100Y75550D02*
D03*
Y74550D02*
D03*
X55100Y75550D02*
D03*
Y74550D02*
D03*
X65500Y75500D02*
D03*
Y74713D02*
D03*
X64713Y75500D02*
D03*
Y74713D02*
D03*
X63925Y75500D02*
D03*
Y74713D02*
D03*
X63138Y75500D02*
D03*
Y74713D02*
D03*
X62350Y75500D02*
D03*
Y74713D02*
D03*
X61563Y75500D02*
D03*
Y74713D02*
D03*
X60776Y75500D02*
D03*
Y74713D02*
D03*
X28600Y49000D02*
D03*
X94900Y74100D02*
D03*
D89*
X92300Y34200D02*
D03*
X92800Y33450D02*
D03*
X93300Y34200D02*
D03*
X93800Y33450D02*
D03*
X92300Y32700D02*
D03*
X92800Y31950D02*
D03*
X93300Y32700D02*
D03*
X94300Y34200D02*
D03*
Y32700D02*
D03*
X94800Y33450D02*
D03*
X93800Y31950D02*
D03*
X94800D02*
D03*
X78300Y34200D02*
D03*
X79300D02*
D03*
X80300D02*
D03*
X78800Y33450D02*
D03*
X79800D02*
D03*
X80800D02*
D03*
X81300Y34200D02*
D03*
X82300D02*
D03*
X83300D02*
D03*
X84300D02*
D03*
X81800Y33450D02*
D03*
X82800D02*
D03*
X83800D02*
D03*
X78300Y32700D02*
D03*
X79300D02*
D03*
X80300D02*
D03*
X78800Y31950D02*
D03*
X79800D02*
D03*
X80800D02*
D03*
X81300Y32700D02*
D03*
X82300D02*
D03*
X83300D02*
D03*
X84300D02*
D03*
X81800Y31950D02*
D03*
X82800D02*
D03*
X83800D02*
D03*
X85300Y34200D02*
D03*
X84800Y33450D02*
D03*
X86300Y34200D02*
D03*
X87300D02*
D03*
X85800Y33450D02*
D03*
X86800D02*
D03*
X87800D02*
D03*
X88300Y34200D02*
D03*
X89300D02*
D03*
X90300D02*
D03*
X91300D02*
D03*
X88800Y33450D02*
D03*
X89800D02*
D03*
X90800D02*
D03*
X85300Y32700D02*
D03*
X84800Y31950D02*
D03*
X86300Y32700D02*
D03*
X87300D02*
D03*
X85800Y31950D02*
D03*
X86800D02*
D03*
X87800D02*
D03*
X88300Y32700D02*
D03*
X89300D02*
D03*
X90300D02*
D03*
X91300D02*
D03*
X88800Y31950D02*
D03*
X89800D02*
D03*
X90800D02*
D03*
X91800Y33450D02*
D03*
Y31950D02*
D03*
D90*
X96760Y33075D02*
D03*
X76340D02*
D03*
D91*
X77406Y32206D02*
D03*
X53900Y66948D02*
D03*
Y51700D02*
D03*
X61400Y66948D02*
D03*
Y51700D02*
D03*
X38900Y66948D02*
D03*
Y51700D02*
D03*
X46400Y66948D02*
D03*
Y51700D02*
D03*
X83900Y66948D02*
D03*
Y51700D02*
D03*
X91400Y66948D02*
D03*
Y51700D02*
D03*
X68900Y66948D02*
D03*
Y51700D02*
D03*
X76400Y66948D02*
D03*
Y51700D02*
D03*
X113900Y66948D02*
D03*
Y51700D02*
D03*
X121400Y66948D02*
D03*
Y51700D02*
D03*
X98900Y66948D02*
D03*
Y51700D02*
D03*
X106400Y66948D02*
D03*
Y51700D02*
D03*
X151400Y66948D02*
D03*
Y51700D02*
D03*
X128900Y66948D02*
D03*
Y51700D02*
D03*
X136400Y66948D02*
D03*
Y51700D02*
D03*
X143900Y66948D02*
D03*
Y51700D02*
D03*
D92*
X24900Y32000D02*
D03*
Y75100D02*
D03*
X68900D02*
D03*
Y32000D02*
D03*
X112900Y75100D02*
D03*
Y32000D02*
D03*
X156900Y75100D02*
D03*
Y32000D02*
D03*
D93*
X82517Y71500D02*
D03*
X87569Y71894D02*
D03*
X101439Y71500D02*
D03*
X106490Y71894D02*
D03*
X91717Y71500D02*
D03*
X96768Y71894D02*
D03*
D94*
X103937Y55315D02*
D03*
X94882Y38583D02*
D03*
X95669Y40157D02*
D03*
X96063D02*
D03*
X96457D02*
D03*
X95669Y39370D02*
D03*
Y38976D02*
D03*
X97244D02*
D03*
X96063D02*
D03*
X96457D02*
D03*
X95669Y38583D02*
D03*
X96850D02*
D03*
X97244Y41339D02*
D03*
X95669Y40945D02*
D03*
X95276D02*
D03*
X95669Y40551D02*
D03*
Y41339D02*
D03*
X96063Y40945D02*
D03*
X97638Y39764D02*
D03*
X96063D02*
D03*
X95669D02*
D03*
X95276Y48474D02*
D03*
X95669Y48581D02*
D03*
X98819Y46850D02*
D03*
X100362Y48000D02*
D03*
X100506Y47750D02*
D03*
X99213Y47244D02*
D03*
X98425Y46063D02*
D03*
Y39764D02*
D03*
X98819D02*
D03*
X100000D02*
D03*
X99606Y40945D02*
D03*
X100591Y43406D02*
D03*
X100886Y43110D02*
D03*
X99606Y43307D02*
D03*
X100000D02*
D03*
X101500Y45625D02*
D03*
X101625Y45375D02*
D03*
X100000Y47638D02*
D03*
Y48032D02*
D03*
X98819Y44882D02*
D03*
X99213D02*
D03*
X134881Y54074D02*
D03*
X134449Y53248D02*
D03*
X90000Y41500D02*
D03*
X89875Y41750D02*
D03*
X89665Y45571D02*
D03*
X89370Y45866D02*
D03*
X90000Y44625D02*
D03*
X91142Y48661D02*
D03*
X91339Y46850D02*
D03*
Y48898D02*
D03*
Y47244D02*
D03*
X90945Y47244D02*
D03*
X90118Y47677D02*
D03*
X90551Y47638D02*
D03*
Y48032D02*
D03*
X90945Y45276D02*
D03*
X91339Y44882D02*
D03*
X89961Y44291D02*
D03*
X90945Y44488D02*
D03*
X90551D02*
D03*
X69764Y71102D02*
D03*
X71220Y68071D02*
D03*
X74094Y72008D02*
D03*
X73622Y67913D02*
D03*
X75512Y67913D02*
D03*
X63543Y73622D02*
D03*
X103344Y31966D02*
D03*
X105248Y30878D02*
D03*
X106227Y30860D02*
D03*
X107552Y30859D02*
D03*
X109331Y30827D02*
D03*
X111260Y34724D02*
D03*
X111414Y36263D02*
D03*
X103969Y32252D02*
D03*
X104225Y32389D02*
D03*
X104481Y32567D02*
D03*
X104737Y32862D02*
D03*
X106535Y37087D02*
D03*
X107552Y37133D02*
D03*
X109343Y37178D02*
D03*
X105236Y37165D02*
D03*
X103583Y55315D02*
D03*
X103228Y55472D02*
D03*
X102874Y55591D02*
D03*
X102559Y55630D02*
D03*
X102244Y56063D02*
D03*
X92709Y64574D02*
D03*
X92402Y57992D02*
D03*
X92283Y57598D02*
D03*
X92087Y57362D02*
D03*
X101890Y56378D02*
D03*
X91929Y57126D02*
D03*
X91732Y56929D02*
D03*
X91535Y56732D02*
D03*
X91299Y56496D02*
D03*
X75161Y73980D02*
D03*
X74409Y73543D02*
D03*
X73780Y73228D02*
D03*
X72756Y73268D02*
D03*
X124488Y68701D02*
D03*
X116378Y68740D02*
D03*
X111374Y35752D02*
D03*
X111378Y35079D02*
D03*
X111322Y36519D02*
D03*
X111339Y34370D02*
D03*
X111417Y33425D02*
D03*
X109921Y37205D02*
D03*
X109087Y32000D02*
D03*
X110363Y31409D02*
D03*
X108701Y37165D02*
D03*
X107913Y37205D02*
D03*
X107165Y37165D02*
D03*
X105787D02*
D03*
X107807Y31956D02*
D03*
X106772Y30866D02*
D03*
X106016Y32015D02*
D03*
X105039Y31969D02*
D03*
X104803Y37205D02*
D03*
X104016Y37126D02*
D03*
X103713Y30815D02*
D03*
X102634Y34728D02*
D03*
X102410Y31409D02*
D03*
X90157Y38189D02*
D03*
X90551D02*
D03*
X90512Y37756D02*
D03*
X92913Y38583D02*
D03*
Y38976D02*
D03*
X92520Y38583D02*
D03*
Y38976D02*
D03*
X92126Y38583D02*
D03*
Y38976D02*
D03*
X91732Y38583D02*
D03*
X91732Y38976D02*
D03*
X91339Y38583D02*
D03*
Y38976D02*
D03*
X90945Y38583D02*
D03*
Y38976D02*
D03*
X92520Y39370D02*
D03*
X92126D02*
D03*
X91732Y39370D02*
D03*
X91339D02*
D03*
X90945D02*
D03*
Y39764D02*
D03*
X91339D02*
D03*
X106890Y36890D02*
D03*
X106181Y36693D02*
D03*
X105157Y39370D02*
D03*
X105512Y36850D02*
D03*
X104843Y39094D02*
D03*
X105000Y36811D02*
D03*
X104370Y36969D02*
D03*
X104606Y38780D02*
D03*
X103701Y38583D02*
D03*
X100000Y38189D02*
D03*
X100394D02*
D03*
X99606Y38583D02*
D03*
X109855Y32232D02*
D03*
X109599Y32094D02*
D03*
X108831Y32429D02*
D03*
X108583Y32323D02*
D03*
X108319Y32311D02*
D03*
X108063Y32173D02*
D03*
X100000Y38976D02*
D03*
X99606Y38976D02*
D03*
X99213Y38583D02*
D03*
Y38976D02*
D03*
X98819Y38583D02*
D03*
Y38976D02*
D03*
X107283Y32559D02*
D03*
X107040Y32370D02*
D03*
X98425Y38583D02*
D03*
Y38976D02*
D03*
X105760Y33216D02*
D03*
X105512Y32953D02*
D03*
X98032Y38583D02*
D03*
Y38976D02*
D03*
X97638Y38976D02*
D03*
X103201Y30800D02*
D03*
X102945Y32252D02*
D03*
X100433Y32165D02*
D03*
X99213Y39370D02*
D03*
X98819D02*
D03*
X98425D02*
D03*
X98032D02*
D03*
X97638D02*
D03*
X91339Y42126D02*
D03*
X91339Y41732D02*
D03*
X90079Y42717D02*
D03*
X94094Y38976D02*
D03*
X94488D02*
D03*
X94882D02*
D03*
X94882Y39370D02*
D03*
X94094Y40157D02*
D03*
X94488D02*
D03*
X95276Y40157D02*
D03*
X92126Y65157D02*
D03*
X90551Y41732D02*
D03*
X91732D02*
D03*
Y43701D02*
D03*
Y46063D02*
D03*
X90551D02*
D03*
X91732Y47638D02*
D03*
X94685Y36811D02*
D03*
X94291Y36811D02*
D03*
X93898Y37205D02*
D03*
X101181Y56299D02*
D03*
X94094Y35039D02*
D03*
Y35827D02*
D03*
X96457Y47244D02*
D03*
Y46850D02*
D03*
X95276Y47638D02*
D03*
X95079Y48228D02*
D03*
X93701Y46850D02*
D03*
Y47244D02*
D03*
Y48819D02*
D03*
Y47638D02*
D03*
X93898Y48622D02*
D03*
X99606Y46850D02*
D03*
Y47244D02*
D03*
Y48327D02*
D03*
X99952D02*
D03*
X98425Y47638D02*
D03*
X99606Y49016D02*
D03*
X98032Y47244D02*
D03*
X99606Y49409D02*
D03*
X96458Y47636D02*
D03*
X94094Y47244D02*
D03*
X95669Y46063D02*
D03*
X95276Y46850D02*
D03*
X94882Y46457D02*
D03*
X92913D02*
D03*
X97638Y45276D02*
D03*
X97244D02*
D03*
X96850D02*
D03*
X96457D02*
D03*
X94094D02*
D03*
X93701D02*
D03*
X93307D02*
D03*
X92913Y44882D02*
D03*
Y44488D02*
D03*
X93701Y44882D02*
D03*
X94094D02*
D03*
X94488D02*
D03*
X93307Y44488D02*
D03*
X96850Y41339D02*
D03*
X97638D02*
D03*
X97244Y41732D02*
D03*
X96850D02*
D03*
X96457D02*
D03*
Y41339D02*
D03*
X96063D02*
D03*
Y41732D02*
D03*
X97244Y42126D02*
D03*
X96850D02*
D03*
Y42520D02*
D03*
X97244D02*
D03*
X96850Y42913D02*
D03*
X97244D02*
D03*
X96850Y43307D02*
D03*
X97244D02*
D03*
X96850Y44094D02*
D03*
X97244D02*
D03*
X97638Y44488D02*
D03*
Y44882D02*
D03*
X97244Y44488D02*
D03*
X96850D02*
D03*
Y44882D02*
D03*
X96457D02*
D03*
Y44094D02*
D03*
X96063Y43701D02*
D03*
Y42126D02*
D03*
X94488D02*
D03*
Y43701D02*
D03*
X94094Y44094D02*
D03*
Y41732D02*
D03*
X93701D02*
D03*
Y40945D02*
D03*
X94094D02*
D03*
X92913Y41339D02*
D03*
X93307D02*
D03*
Y41732D02*
D03*
Y42126D02*
D03*
Y42520D02*
D03*
Y43307D02*
D03*
Y43701D02*
D03*
X92913Y40551D02*
D03*
Y40945D02*
D03*
X93307Y40551D02*
D03*
X91732Y39764D02*
D03*
X93307Y38583D02*
D03*
X94094Y40551D02*
D03*
X93701D02*
D03*
X98819Y42126D02*
D03*
Y44094D02*
D03*
X100000Y43701D02*
D03*
X99606Y42126D02*
D03*
X98819Y46063D02*
D03*
X100000D02*
D03*
X97638Y46457D02*
D03*
X98819Y47638D02*
D03*
X97638D02*
D03*
X97244Y46850D02*
D03*
X96063Y46063D02*
D03*
X94882D02*
D03*
X114862Y66339D02*
D03*
X96457Y38189D02*
D03*
X118799Y66634D02*
D03*
X94488Y38189D02*
D03*
X96063Y38583D02*
D03*
X95472Y37697D02*
D03*
X95079Y37697D02*
D03*
X94882Y39764D02*
D03*
X97244Y38583D02*
D03*
X100000Y37795D02*
D03*
X98819Y37697D02*
D03*
X94488Y39764D02*
D03*
X92126D02*
D03*
X93701Y38583D02*
D03*
X93307Y39764D02*
D03*
X91339Y41339D02*
D03*
X90945D02*
D03*
X90157Y40945D02*
D03*
X90551Y41339D02*
D03*
X90059Y41240D02*
D03*
X94488Y46063D02*
D03*
X94882Y45669D02*
D03*
X91634Y48917D02*
D03*
X95276Y45669D02*
D03*
X91339Y40157D02*
D03*
X91339Y40551D02*
D03*
X90551Y39764D02*
D03*
X90945Y40945D02*
D03*
Y40551D02*
D03*
X79331Y35433D02*
D03*
X95276Y46063D02*
D03*
X94488Y45669D02*
D03*
X96457Y46457D02*
D03*
X95669Y44882D02*
D03*
X92520Y46063D02*
D03*
X94488Y46457D02*
D03*
Y46850D02*
D03*
X94094D02*
D03*
Y46063D02*
D03*
X63780Y71555D02*
D03*
X75197Y46358D02*
D03*
X74016Y67028D02*
D03*
X73622Y46063D02*
D03*
X72441Y68799D02*
D03*
X76280Y45866D02*
D03*
X74803Y66240D02*
D03*
X99213Y44094D02*
D03*
X94488Y40551D02*
D03*
X94882Y40945D02*
D03*
Y40157D02*
D03*
X95276Y40551D02*
D03*
X78839Y36220D02*
D03*
X84449Y39961D02*
D03*
X72146Y52264D02*
D03*
X83858Y39567D02*
D03*
X70965Y54331D02*
D03*
X82283Y40354D02*
D03*
X69094Y50295D02*
D03*
X65157Y68898D02*
D03*
X84646Y40354D02*
D03*
X69587Y57579D02*
D03*
X64468Y69587D02*
D03*
X91732Y40157D02*
D03*
X83465Y38878D02*
D03*
Y37008D02*
D03*
X80512Y38780D02*
D03*
X104528Y70276D02*
D03*
X104975Y70625D02*
D03*
X102854Y70374D02*
D03*
X103302Y70625D02*
D03*
X95250Y70644D02*
D03*
X94685Y70669D02*
D03*
X93406Y70866D02*
D03*
X93799Y70079D02*
D03*
X86122Y70503D02*
D03*
X85600Y70601D02*
D03*
X84600Y70124D02*
D03*
X84100Y70275D02*
D03*
X95669Y42520D02*
D03*
Y43307D02*
D03*
X94882D02*
D03*
Y42520D02*
D03*
Y42126D02*
D03*
X95669D02*
D03*
Y41732D02*
D03*
X94488D02*
D03*
X94882D02*
D03*
X94488Y42520D02*
D03*
X94094D02*
D03*
X93701D02*
D03*
X94094Y42126D02*
D03*
X93701D02*
D03*
Y41339D02*
D03*
X94094D02*
D03*
X94488D02*
D03*
X94882D02*
D03*
X94488Y43307D02*
D03*
X94094Y43701D02*
D03*
X93701D02*
D03*
X94882D02*
D03*
Y44094D02*
D03*
X94488D02*
D03*
X94094Y44488D02*
D03*
X94488D02*
D03*
X94882D02*
D03*
Y44882D02*
D03*
X94094Y43307D02*
D03*
X93701D02*
D03*
X95669Y43701D02*
D03*
Y44094D02*
D03*
Y44488D02*
D03*
X96063D02*
D03*
Y44094D02*
D03*
X96457Y44488D02*
D03*
Y43701D02*
D03*
X96850D02*
D03*
X96457Y43307D02*
D03*
X96063D02*
D03*
Y42520D02*
D03*
X96457D02*
D03*
Y42126D02*
D03*
X95276Y41339D02*
D03*
X93701Y44488D02*
D03*
Y44094D02*
D03*
X93307D02*
D03*
X92520Y41339D02*
D03*
X98032Y40551D02*
D03*
X98425Y41732D02*
D03*
Y42913D02*
D03*
Y44488D02*
D03*
X92520Y43701D02*
D03*
Y42913D02*
D03*
X97244Y40551D02*
D03*
X96850Y40945D02*
D03*
X96457D02*
D03*
X96850Y40551D02*
D03*
X106496Y38681D02*
D03*
X92913Y47244D02*
D03*
X91339Y44488D02*
D03*
X91732Y41339D02*
D03*
X97638Y40157D02*
D03*
X97244Y45669D02*
D03*
X72146Y68602D02*
D03*
X90945Y44094D02*
D03*
X89635Y44125D02*
D03*
X90945Y43701D02*
D03*
X89491Y43875D02*
D03*
X90551Y44094D02*
D03*
X90059Y43110D02*
D03*
X94094Y37697D02*
D03*
X95669Y45276D02*
D03*
X102945Y37212D02*
D03*
X103445Y37146D02*
D03*
X102465Y37791D02*
D03*
X102028Y37264D02*
D03*
X101280Y34646D02*
D03*
X100492Y43110D02*
D03*
X95276Y44488D02*
D03*
X98425Y46457D02*
D03*
X91732Y37697D02*
D03*
X102559Y48524D02*
D03*
X96063Y47244D02*
D03*
X100492Y42717D02*
D03*
D95*
X77972Y36083D02*
D03*
X101338Y31260D02*
D03*
X112750Y33588D02*
D03*
X129082Y34500D02*
D03*
X35157Y62205D02*
D03*
X35984Y57756D02*
D03*
X41496Y57795D02*
D03*
X31850Y42638D02*
D03*
X31811Y40945D02*
D03*
X29252Y57441D02*
D03*
X29222Y59163D02*
D03*
X30197Y71378D02*
D03*
X34177Y71299D02*
D03*
X32800Y72403D02*
D03*
X31494Y72475D02*
D03*
Y74089D02*
D03*
X34178Y73230D02*
D03*
X62480Y32126D02*
D03*
X60039Y35984D02*
D03*
X63340Y34810D02*
D03*
X61725D02*
D03*
X61654Y33504D02*
D03*
X60550Y32127D02*
D03*
X154015Y57795D02*
D03*
X154000Y62977D02*
D03*
X146456Y62992D02*
D03*
Y57835D02*
D03*
X148464Y57795D02*
D03*
X138956Y62992D02*
D03*
Y57835D02*
D03*
X140964Y57795D02*
D03*
X131456Y62992D02*
D03*
Y57835D02*
D03*
X133464Y57795D02*
D03*
X123956Y62992D02*
D03*
Y57835D02*
D03*
X125964Y57795D02*
D03*
X116456Y62992D02*
D03*
Y57835D02*
D03*
X118464Y57795D02*
D03*
X108956Y62992D02*
D03*
Y57835D02*
D03*
X110964Y57795D02*
D03*
X103464D02*
D03*
X101456Y57835D02*
D03*
Y62992D02*
D03*
X85748Y58268D02*
D03*
X79000Y57819D02*
D03*
X71500D02*
D03*
X64000D02*
D03*
X56500D02*
D03*
X49000D02*
D03*
X104936Y62574D02*
D03*
X107086Y62047D02*
D03*
X104921Y61575D02*
D03*
X104882Y59567D02*
D03*
X107067Y59074D02*
D03*
X104882Y58583D02*
D03*
X112382D02*
D03*
X114567Y59074D02*
D03*
X112382Y59567D02*
D03*
X112421Y61575D02*
D03*
X114586Y62047D02*
D03*
X112436Y62574D02*
D03*
X119938Y58564D02*
D03*
X122124Y59055D02*
D03*
X119938Y59548D02*
D03*
X119978Y61556D02*
D03*
X122143Y62028D02*
D03*
X119993Y62555D02*
D03*
X127382Y58583D02*
D03*
X129567Y59074D02*
D03*
X127382Y59567D02*
D03*
X127421Y61575D02*
D03*
X129586Y62047D02*
D03*
X127436Y62574D02*
D03*
X134882Y58583D02*
D03*
X137067Y59074D02*
D03*
X134882Y59567D02*
D03*
X134921Y61575D02*
D03*
X137086Y62047D02*
D03*
X134936Y62574D02*
D03*
X142382Y58583D02*
D03*
X144567Y59074D02*
D03*
X142382Y59567D02*
D03*
X142421Y61575D02*
D03*
X144586Y62047D02*
D03*
X142436Y62574D02*
D03*
X149882Y58583D02*
D03*
X152067Y59074D02*
D03*
X149882Y59567D02*
D03*
X149921Y61575D02*
D03*
X152086Y62047D02*
D03*
X149936Y62574D02*
D03*
X97382Y58583D02*
D03*
X99567Y59074D02*
D03*
X97382Y59567D02*
D03*
X97421Y61575D02*
D03*
X99586Y62047D02*
D03*
X97436Y62574D02*
D03*
X89882Y58583D02*
D03*
X92067Y59074D02*
D03*
X89882Y59567D02*
D03*
X89921Y61575D02*
D03*
X92086Y62047D02*
D03*
X89936Y62574D02*
D03*
X82419Y58524D02*
D03*
X84604Y59016D02*
D03*
X82419Y59508D02*
D03*
X82458Y61516D02*
D03*
X84623Y61989D02*
D03*
X82473Y62516D02*
D03*
X74882Y58583D02*
D03*
X77067Y59074D02*
D03*
X74882Y59567D02*
D03*
X74921Y61575D02*
D03*
X77086Y62047D02*
D03*
X74936Y62574D02*
D03*
X67382Y58583D02*
D03*
X69567Y59074D02*
D03*
X67382Y59567D02*
D03*
X67421Y61575D02*
D03*
X69586Y62047D02*
D03*
X67436Y62574D02*
D03*
X59882Y58583D02*
D03*
X62067Y59074D02*
D03*
X59882Y59567D02*
D03*
X59921Y61575D02*
D03*
X62086Y62047D02*
D03*
X59936Y62574D02*
D03*
X52382Y58583D02*
D03*
X54567Y59074D02*
D03*
X52382Y59567D02*
D03*
X52421Y61575D02*
D03*
X54586Y62047D02*
D03*
X52436Y62574D02*
D03*
X44882Y58583D02*
D03*
X47067Y59074D02*
D03*
X44882Y59567D02*
D03*
X44921Y61575D02*
D03*
X47086Y62047D02*
D03*
X44936Y62574D02*
D03*
X37382Y58583D02*
D03*
X39567Y59074D02*
D03*
X37382Y59567D02*
D03*
X37421Y61575D02*
D03*
X39586Y62047D02*
D03*
X37436Y62574D02*
D03*
X154000Y64984D02*
D03*
X152107Y64074D02*
D03*
X152090Y63074D02*
D03*
X146456Y64960D02*
D03*
X138956D02*
D03*
X144607Y64074D02*
D03*
X152126Y61063D02*
D03*
X146535Y61338D02*
D03*
X144590Y63074D02*
D03*
X139035Y61338D02*
D03*
X144626Y61063D02*
D03*
X137107Y64074D02*
D03*
X131456Y64960D02*
D03*
X137090Y63074D02*
D03*
X129607Y64074D02*
D03*
X137126Y61063D02*
D03*
X131535Y61338D02*
D03*
X129590Y63074D02*
D03*
X124035Y61338D02*
D03*
X129626Y61063D02*
D03*
X152086Y60079D02*
D03*
X149882Y60551D02*
D03*
X153976Y59803D02*
D03*
X142382Y60551D02*
D03*
X144586Y60079D02*
D03*
X137086D02*
D03*
X134882Y60551D02*
D03*
X127382D02*
D03*
X129586Y60079D02*
D03*
X123956Y64960D02*
D03*
X116456D02*
D03*
X122163Y64055D02*
D03*
X108956Y64960D02*
D03*
X114607Y64074D02*
D03*
X107107D02*
D03*
X122146Y63055D02*
D03*
X116535Y61338D02*
D03*
X122182Y61044D02*
D03*
X114626Y61063D02*
D03*
X114590Y63074D02*
D03*
X109035Y61338D02*
D03*
X107126Y61063D02*
D03*
X105521Y72353D02*
D03*
X104021Y72289D02*
D03*
X102521Y72324D02*
D03*
X107090Y63074D02*
D03*
X101456Y64960D02*
D03*
X99607Y64074D02*
D03*
X101535Y61338D02*
D03*
X99590Y63074D02*
D03*
X119938Y60532D02*
D03*
X122143Y60060D02*
D03*
X114586Y60079D02*
D03*
X112382Y60551D02*
D03*
X107086Y60079D02*
D03*
X99626Y61063D02*
D03*
X104882Y60551D02*
D03*
X99586Y60079D02*
D03*
X112716Y37244D02*
D03*
X122638Y34527D02*
D03*
X123937Y33661D02*
D03*
X94291Y72323D02*
D03*
X95799Y72295D02*
D03*
X92799Y72280D02*
D03*
X86614Y72283D02*
D03*
X88504Y65000D02*
D03*
X85118Y72283D02*
D03*
X83622D02*
D03*
X81023Y65039D02*
D03*
X73504Y65000D02*
D03*
X92107Y64074D02*
D03*
X92090Y63074D02*
D03*
X84644Y64016D02*
D03*
X84627Y63016D02*
D03*
X86516Y61457D02*
D03*
X92126Y61063D02*
D03*
X97382Y60551D02*
D03*
X84663Y61004D02*
D03*
X89882Y60551D02*
D03*
X77107Y64074D02*
D03*
X77090Y63074D02*
D03*
X79016Y61457D02*
D03*
X69607Y64074D02*
D03*
X69590Y63074D02*
D03*
X77126Y61063D02*
D03*
X82419Y60493D02*
D03*
X71516Y61457D02*
D03*
X69626Y61063D02*
D03*
X74882Y60551D02*
D03*
X66004Y65000D02*
D03*
X58504D02*
D03*
X34077Y67341D02*
D03*
Y66441D02*
D03*
Y65541D02*
D03*
X62107Y64074D02*
D03*
X54607D02*
D03*
X51004Y65000D02*
D03*
X43504D02*
D03*
X36940Y64184D02*
D03*
X34077Y64641D02*
D03*
X32131Y72442D02*
D03*
X33177Y67341D02*
D03*
X32277D02*
D03*
X31377D02*
D03*
X30669Y74331D02*
D03*
X29650Y72603D02*
D03*
X30477Y67341D02*
D03*
X33177Y66441D02*
D03*
X32277D02*
D03*
X31377D02*
D03*
X33177Y65541D02*
D03*
Y64641D02*
D03*
X32277Y65541D02*
D03*
Y64641D02*
D03*
X30477Y66441D02*
D03*
X31377Y65541D02*
D03*
Y64641D02*
D03*
X30477Y65541D02*
D03*
Y64641D02*
D03*
X62090Y63074D02*
D03*
X64016Y61457D02*
D03*
X62126Y61063D02*
D03*
X56516Y61457D02*
D03*
X54590Y63074D02*
D03*
X47107Y64074D02*
D03*
X54626Y61063D02*
D03*
X49016Y61457D02*
D03*
X67382Y60551D02*
D03*
X59882D02*
D03*
X47126Y61063D02*
D03*
X52382Y60551D02*
D03*
X39607Y64074D02*
D03*
X47090Y63074D02*
D03*
X39590D02*
D03*
X34077Y63741D02*
D03*
X33177D02*
D03*
X32277D02*
D03*
X31377D02*
D03*
X30477D02*
D03*
X41500Y61382D02*
D03*
X44882Y60551D02*
D03*
X39626Y61063D02*
D03*
X35984Y61339D02*
D03*
X37382Y60551D02*
D03*
X92086Y60079D02*
D03*
X84623Y60020D02*
D03*
X77086Y60079D02*
D03*
X97756Y31339D02*
D03*
X74311Y36083D02*
D03*
X69586Y60079D02*
D03*
X62086D02*
D03*
X54586D02*
D03*
X47086D02*
D03*
X39586D02*
D03*
X33189Y59094D02*
D03*
X33110Y57480D02*
D03*
X61683Y36250D02*
D03*
X63222Y35951D02*
D03*
X56592Y35827D02*
D03*
X55692D02*
D03*
X54792D02*
D03*
X56592Y34927D02*
D03*
X55692D02*
D03*
X53892Y35827D02*
D03*
X54792Y34927D02*
D03*
X61693Y34173D02*
D03*
X56592Y34027D02*
D03*
Y33127D02*
D03*
X55692Y34027D02*
D03*
Y33127D02*
D03*
X53892Y34927D02*
D03*
X54792Y34027D02*
D03*
X56592Y32227D02*
D03*
X55692D02*
D03*
X54792Y33127D02*
D03*
Y32227D02*
D03*
X35787Y42717D02*
D03*
X52992Y35827D02*
D03*
X53892Y34027D02*
D03*
X52992Y34927D02*
D03*
Y34027D02*
D03*
X53892Y33127D02*
D03*
Y32227D02*
D03*
X52992Y33127D02*
D03*
Y32227D02*
D03*
X35787Y40866D02*
D03*
X105768Y40394D02*
D03*
X102264Y40354D02*
D03*
X105118Y49803D02*
D03*
X101575Y49409D02*
D03*
X88976Y48425D02*
D03*
X86024Y49016D02*
D03*
D96*
X63071Y71496D02*
D03*
X75397Y74925D02*
D03*
X65777Y72115D02*
D03*
X75039Y74331D02*
D03*
X79094Y74212D02*
D03*
X73504Y73897D02*
D03*
X75791Y74295D02*
D03*
X77165Y73622D02*
D03*
X72990Y70392D02*
D03*
X71338Y73976D02*
D03*
X74882Y75079D02*
D03*
X74277Y75054D02*
D03*
X72520Y74252D02*
D03*
X78050Y72617D02*
D03*
X77126Y72716D02*
D03*
X71929Y70748D02*
D03*
D97*
X152165Y56063D02*
D03*
X149843Y54567D02*
D03*
X152250Y53000D02*
D03*
X142323Y56063D02*
D03*
X142330Y54574D02*
D03*
X142365Y53074D02*
D03*
X137165Y56063D02*
D03*
X134843Y54567D02*
D03*
X134803Y52874D02*
D03*
X129646Y56063D02*
D03*
X127316Y54574D02*
D03*
X127405Y53074D02*
D03*
X122154Y56074D02*
D03*
X119882Y54606D02*
D03*
X119843Y52913D02*
D03*
X114724Y56102D02*
D03*
X107165Y56063D02*
D03*
X112409Y54574D02*
D03*
X112362Y52717D02*
D03*
X104843Y54567D02*
D03*
X99764Y56063D02*
D03*
X99688Y53074D02*
D03*
X105433Y52559D02*
D03*
X99803Y54626D02*
D03*
X90512Y52598D02*
D03*
X89567Y56063D02*
D03*
X84685D02*
D03*
X77283Y56102D02*
D03*
X89843Y54567D02*
D03*
X84649Y53074D02*
D03*
X82330Y54574D02*
D03*
X74921Y54567D02*
D03*
X77205Y53071D02*
D03*
X69724Y56063D02*
D03*
X67369Y54574D02*
D03*
X62205Y56063D02*
D03*
X67359Y53074D02*
D03*
X62283Y53071D02*
D03*
X54724Y56063D02*
D03*
X59882Y54606D02*
D03*
X54721Y53074D02*
D03*
X47126Y56063D02*
D03*
X52330Y54574D02*
D03*
X47168Y53074D02*
D03*
X39685Y56063D02*
D03*
X44843Y54567D02*
D03*
X39682Y53074D02*
D03*
X37362Y54567D02*
D03*
M02*
