;Layer_Color=15461320
M48
;FILE_FORMAT=2:4
INCH,LZ
;TYPE=PLATED
T1F00S00C0.0100
T2F00S00C0.0118
T3F00S00C0.0135
T4F00S00C0.0140
T5F00S00C0.0150
T6F00S00C0.0180
T7F00S00C0.0240
T8F00S00C0.0280
T9F00S00C0.0315
T10F00S00C0.0350
T11F00S00C0.0354
T12F00S00C0.0394
T13F00S00C0.0460
T14F00S00C0.0709
T15F00S00C0.0984
T16F00S00C0.1100
T17F00S00C0.1400
%
T01
X026369Y040069
X026673Y041929
X0263Y0422
X026175Y042825
X026545Y043081
X026309Y043337
X026143Y043593
X025049Y043848
X0249Y0449
X024848Y046152
X0263Y0462
Y04485
X02687Y045177
X027165Y04498
X027431Y04564
X027461Y046654
X028445Y04439
X027904Y042765
X027648Y042529
X027264Y042913
X027393Y041997
X0288Y0413
X029724Y041437
X030906Y041732
X031201Y041339
X030906Y042815
X029952Y042845
X02875Y0399
X02485Y04225
X03125Y0422
X0327Y04225
X033071Y041043
X031398Y039764
X03135Y0437
X0313Y0447
X031416Y045384
X03125Y0463
X0327
Y0446
X032548Y043848
X035502Y043081
X036545Y043337
X042618Y040354
X052657Y044882
X061811Y03937
X064665Y037106
X066634Y043504
X082776Y044783
X097539Y044685
X112894Y044882
X111811Y037992
X111122Y036024
X114961Y038681
X1151Y032
X118701Y035335
X120571Y035827
X129626Y03563
X132677Y039665
X127559Y044685
X142913Y04498
X146772Y045295
X156988Y044193
X045276Y047736
X04439Y047835
X04439Y04813
X044488Y048819
X044085Y048632
X043691Y049026
X04252Y049409
X042126
X041732Y049409
X041732Y049803
X041732Y050197
X041339
X040945
Y049803
Y049409
X039764
X03937Y049409
X038976
X038583
X038189
X037795
X037402
X037008
X036614Y049803
X036617Y0502
X036224
X03622Y050591
Y050984
Y051378
X036614
Y050984
Y050591
X037008
X037402
Y050984
X037008
Y051378
Y051772
X037402
Y052165
Y052559
X037795
Y052165
Y051772
Y051378
X037402
X037795Y050984
Y050591
Y050197
X037402
X037402Y049803
X037795
X038189
X038583
X038976
X03937
Y050197
Y050591
Y050984
X038976
Y050591
X038583
Y050197
X038189
Y050591
Y050984
X038583
X038976Y050197
X039764Y049803
X040551Y050197
X040945Y050591
X041339Y050591
Y050984
X040945
X040551
X040157
X041732
X041722Y051388
X042116
X041732Y051772
Y052165
Y052559
Y053346
Y05374
Y054134
Y054528
Y054921
X041339
X041329Y055305
X040945Y055315
X040945Y054921
X040551
X040157
X03937
X038976
X038583
X038189
X037795
Y054528
X037402Y054528
X037795Y054134
Y05374
Y053346
X037008Y052953
Y052559
X036614
Y052165
X037008
X03622
Y052559
Y051772
X036614
X03622Y05374
Y054134
X035335Y055118
X035236Y056693
X035433Y057283
X035827Y05689
X034449Y057087
X034055Y056988
X033661Y056398
X03376Y053346
X034055Y053543
X03435Y05374
X035236Y050689
X035237Y049213
X035827Y049016
X036024Y048425
X036417Y048405
X035433Y048622
X035335Y047343
X03265Y04775
X0313Y0478
X031325Y047175
X037598Y048435
X04065Y048524
X040945Y048228
X041929Y048524
X042126Y049803
X04252
X04252Y050197
X043307Y051378
X042923Y051782
X042913Y052165
Y052559
Y052953
Y053346
X043307
Y052953
Y052559
Y052165
X043307Y054134
X042913
Y054528
Y054921
X043307
Y055315
Y055709
X042913
X042913Y056102
X043307
X043701Y05689
X044144Y057333
X042815Y05748
X042421
X042126
X04252Y058268
X042815Y058563
X042815Y059154
X04311Y059449
X04439Y060039
X041535Y05876
X040157Y057972
X039764Y05689
X040157Y056496
X040551
X040945
X041339
X041732
Y056102
X041339
X040945
X040551
X040157
X03937Y056496
X038976
X038583
X038189
X038199Y055305
X0375Y05748
X041339Y055709
X04252Y056496
X042904Y055305
X043307Y054528
X042126
X044193Y055118
X045079Y056496
X044193Y050787
X044685Y047244
X030207Y048657
X029696Y048704
X02875Y04865
X028937Y048327
X0282Y0487
X027Y04865
X0263Y04785
X0248Y04775
X028445Y046949
X0288Y0501
X02695Y0502
X053051Y065354
X053937Y065551
X05561Y06624
X052035Y073
X064173Y06998
X075394Y071457
X083366Y072539
X089075
X09252Y073032
X090472Y067736
X103839Y068504
X104724Y06998
X104823Y070571
X104232Y07313
X102362Y073228
X102165Y071161
X101083Y071949
X114075Y071752
X113583Y071063
X113386Y070374
X113287Y069783
T02
X038583Y051772
Y052165
Y052559
Y052953
Y053346
Y05374
Y054134
X038976
Y05374
Y053346
Y052953
Y052559
Y052165
Y051772
X03937
Y052165
Y052559
Y052953
Y053346
Y05374
Y054134
X039764
Y05374
Y053346
Y052953
Y052559
Y052165
Y051772
X040157
Y052165
Y052559
Y052953
Y053346
Y05374
Y054134
X040551
X040945
Y05374
Y053346
Y052953
Y052559
Y052165
Y051772
X040551
Y052165
Y052559
Y052953
Y053346
Y05374
T03
X03755Y0365
Y0369
X03795
Y0365
X03835
Y0369
X0383Y0637
Y0641
X0379
X0375
Y0637
X0379
T04
X052189Y068313
X056225
X059689
X063725
X067043Y068307
X071107
X074757
X078793
X082257
X086293
X093743
X096807
X100843
X104257
X108293
X112157
X116193
X119657
X123693
X126907
X130943
X134607
X138643
X142107
X146143
X149557
X153593
X157057
X161093
X164507
X168543
T05
X029539Y0382
X033158
X03414Y039187
Y040636
X036726Y041647
X039173Y041634
X03835Y0398
X037462Y0399
X036909Y038431
X036289Y037765
X03625Y0356
X037008Y035138
X03788Y035025
X038386Y035039
X038976
X039832Y0356
X040846Y035138
X041162Y037184
X039832Y037765
X03914Y038746
X038647Y03845
X04166Y039101
X041339Y040551
X035531Y044882
X0355Y046819
X062609Y0382
X066328
X06845Y035084
X066983Y033116
X116929Y03563
X119666Y0363
X119587Y038484
X117618
X116816Y039257
X129104Y031761
X136417Y03376
X140157
X170866Y041831
X172933Y039961
X045276Y048425
Y049902
X044146Y050244
X044882Y05689
X04685Y059941
X036201Y0575
X033554Y057784
X03189Y057776
Y055807
X033456Y055816
X034598Y055956
X037597Y047944
X028051Y052953
X025492Y051673
X039272Y0652
X044587Y066634
Y067618
X045965Y067224
X045936Y069025
X044497Y069775
X044534Y070525
X046048Y071275
X0459Y073262
X046555Y075098
X042913Y07185
X037992Y072835
X035531Y073917
X047049Y073227
Y071754
X048176Y070525
X048237Y069775
X048257Y069025
X048287Y067775
X048231Y067025
X04967Y066275
X049679Y065525
X049803Y071457
X050349Y073765
X048317Y0744
X047047Y075591
X098524Y074016
X099508Y073622
X099311Y072835
X102362Y071949
X103204Y071215
X104528Y071752
X103642Y072736
X105512Y072736
Y073819
X104626Y07372
X102461Y073819
X10315Y074803
X106737Y071698
X1703Y07035
X170276Y066634
X172343Y066831
X1723Y070417
T06
X03895Y0363
Y0371
X0389Y0635
Y0643
X03685
Y0635
T07
X029921Y064272
X03376
X035728Y06437
X040846Y067618
X042323
X040453Y07185
X037008Y072736
T08
X0854Y0748
X0864
X0892
X0902
X0933Y0747
X0943
T09
X054694Y075
X055679
X056663
X057647
X058632
X059616
X0606
X060108Y075787
X059124
X058139
X057155
X056171
X055187
X054202
T10
X046394Y032899
X045894Y033649
X046394Y034399
X045894Y035149
X046894
X047894
X048894
X049894
X050894
X051894
X052894
X053894
X054894
X055894
X056894
X057894
X058894
X059894
X060894
X061894
X061394Y034399
X060394
X059394
X058394
X057394
X056394
X055394
X054394
X053394
X052394
X051394
X050394
X049394
X048394
X047394
X046894Y033649
X047894
X048894
X049894
X050894
X051894
X052894
X053894
X054894
X055894
X056894
X057894
X058894
X059894
X060894
X061894
X062394Y034399
Y032899
X061394
X060394
X059394
X058394
X057394
X056394
X055394
X054394
X053394
X052394
X051394
X050394
X049394
X048394
X047394
X052756Y045911
X053506Y046411
X054256Y045911
X055006Y046411
X060256Y045911
X061006Y046411
X061756Y045911
X062506Y046411
X067756Y045911
X068506Y046411
X069256Y045911
X070006Y046411
X075256Y045911
X076006Y046411
X076756Y045911
X077506Y046411
X082756Y045911
X083506Y046411
X084256Y045911
X085006Y046411
X090256Y045911
X091006Y046411
X091756Y045911
X092506Y046411
X097756Y045911
X098506Y046411
X099256Y045911
X100006Y046411
X105256Y045911
X106006Y046411
X106756Y045911
X107506Y046411
X112756Y045911
X113506Y046411
X114256Y045911
X115006Y046411
X120256Y045911
X121006Y046411
X121756Y045911
X122506Y046411
X123101Y038474
X124101
X124601Y037724
X123601
X122601
X123101Y036974
X124101
X124601Y036224
X123601
X122601
X125601
X126601
X127601
X128601
X129601
X130601
X131601
X132601
X133601
X134601
X135601
X136601
X137601
X138601
X139101Y036974
X138101
X137101
X136101
X135101
X134101
X133101
X132101
X131101
X130101
X129101
X128101
X127101
X126101
X125101
X125601Y037724
X126601
X127601
X128601
X129601
X130601
X131601
X132601
X133601
X134601
X135601
X136601
X137601
X138601
X139101Y038474
X138101
X137101
X136101
X135101
X134101
X133101
X132101
X131101
X130101
X129101
X128101
X127101
X126101
X125101
X127756Y045911
X128506Y046411
X129256Y045911
X130006Y046411
X135256Y045911
X136006Y046411
X136756Y045911
X137506Y046411
X142756Y045911
X143506Y046411
X144256Y045911
X145006Y046411
X150256Y045911
X151006Y046411
X151756Y045911
X152506Y046411
X157756Y045911
X158506Y046411
X159256Y045911
X160006Y046411
X165256Y045911
X166006Y046411
X166756Y045911
X167506Y046411
X170994
X172494
Y047411
Y048411
Y049411
Y050411
Y051411
Y052411
Y053411
Y054411
Y055411
Y056411
Y057411
Y058411
Y059411
Y060411
Y061411
Y062411
X171744Y061911
Y060911
Y059911
Y058911
Y057911
Y056911
Y055911
Y054911
Y053911
Y052911
Y051911
Y050911
Y049911
Y048911
Y047911
Y046911
X170994Y047411
Y048411
Y049411
Y050411
Y051411
Y052411
Y053411
Y054411
Y055411
Y056411
Y057411
Y058411
Y059411
Y060411
Y061411
Y062411
X170244Y061911
Y060911
Y059911
Y058911
Y057911
Y056911
Y055911
Y054911
Y053911
Y052911
Y051911
Y050911
Y049911
Y048911
Y047911
Y046911
X167506Y047411
Y048411
Y049411
Y050411
Y051411
Y052411
Y053411
Y054411
Y055411
Y056411
Y057411
Y058411
Y059411
Y060411
Y061411
Y062411
X166756Y061911
Y060911
Y059911
Y058911
Y057911
Y056911
Y055911
Y054911
Y053911
Y052911
Y051911
Y050911
Y049911
Y048911
Y047911
Y046911
X166006Y047411
Y048411
Y049411
Y050411
Y051411
Y052411
Y053411
Y054411
Y055411
Y056411
Y057411
Y058411
Y059411
Y060411
Y061411
Y062411
X165256Y061911
Y060911
Y059911
Y058911
Y057911
Y056911
Y055911
Y054911
Y053911
Y052911
Y051911
Y050911
Y049911
Y048911
Y047911
Y046911
X160006Y047411
Y048411
Y049411
Y050411
Y051411
Y052411
Y053411
Y054411
Y055411
Y056411
Y057411
Y058411
Y059411
Y060411
Y061411
Y062411
X159256Y061911
Y060911
Y059911
Y058911
Y057911
Y056911
Y055911
Y054911
Y053911
Y052911
Y051911
Y050911
Y049911
Y048911
Y047911
Y046911
X158506Y047411
Y048411
Y049411
Y050411
Y051411
Y052411
Y053411
Y054411
Y055411
Y056411
Y057411
Y058411
Y059411
Y060411
Y061411
Y062411
X157756Y061911
Y060911
Y059911
Y058911
Y057911
Y056911
Y055911
Y054911
Y053911
Y052911
Y051911
Y050911
Y049911
Y048911
Y047911
Y046911
X152506Y047411
Y048411
Y049411
Y050411
Y051411
Y052411
Y053411
Y054411
Y055411
Y056411
Y057411
Y058411
Y059411
Y060411
Y061411
Y062411
X151756Y061911
Y060911
Y059911
Y058911
Y057911
Y056911
Y055911
Y054911
Y053911
Y052911
Y051911
Y050911
Y049911
Y048911
Y047911
Y046911
X151006Y047411
Y048411
Y049411
Y050411
Y051411
Y052411
Y053411
Y054411
Y055411
Y056411
Y057411
Y058411
Y059411
Y060411
Y061411
Y062411
X150256Y061911
Y060911
Y059911
Y058911
Y057911
Y056911
Y055911
Y054911
Y053911
Y052911
Y051911
Y050911
Y049911
Y048911
Y047911
Y046911
X145006Y047411
Y048411
Y049411
Y050411
Y051411
Y052411
Y053411
Y054411
Y055411
Y056411
Y057411
Y058411
Y059411
Y060411
Y061411
Y062411
X144256Y061911
Y060911
Y059911
Y058911
Y057911
Y056911
Y055911
Y054911
Y053911
Y052911
Y051911
Y050911
Y049911
Y048911
Y047911
Y046911
X143506Y047411
Y048411
Y049411
Y050411
Y051411
Y052411
Y053411
Y054411
Y055411
Y056411
Y057411
Y058411
Y059411
Y060411
Y061411
Y062411
X142756Y061911
Y060911
Y059911
Y058911
Y057911
Y056911
Y055911
Y054911
Y053911
Y052911
Y051911
Y050911
Y049911
Y048911
Y047911
Y046911
X137506Y047411
Y048411
Y049411
Y050411
Y051411
Y052411
Y053411
Y054411
Y055411
Y056411
Y057411
Y058411
Y059411
Y060411
Y061411
Y062411
X136756Y061911
Y060911
Y059911
Y058911
Y057911
Y056911
Y055911
Y054911
Y053911
Y052911
Y051911
Y050911
Y049911
Y048911
Y047911
Y046911
X136006Y047411
Y048411
Y049411
Y050411
Y051411
Y052411
Y053411
Y054411
Y055411
Y056411
Y057411
Y058411
Y059411
Y060411
Y061411
Y062411
X135256Y061911
Y060911
Y059911
Y058911
Y057911
Y056911
Y055911
Y054911
Y053911
Y052911
Y051911
Y050911
Y049911
Y048911
Y047911
Y046911
X130006Y047411
Y048411
Y049411
Y050411
Y051411
Y052411
Y053411
Y054411
Y055411
Y056411
Y057411
Y058411
Y059411
Y060411
Y061411
Y062411
X129256Y061911
Y060911
Y059911
Y058911
Y057911
Y056911
Y055911
Y054911
Y053911
Y052911
Y051911
Y050911
Y049911
Y048911
Y047911
Y046911
X128506Y047411
Y048411
Y049411
Y050411
Y051411
Y052411
Y053411
Y054411
Y055411
Y056411
Y057411
Y058411
Y059411
Y060411
Y061411
Y062411
X127756Y061911
Y060911
Y059911
Y058911
Y057911
Y056911
Y055911
Y054911
Y053911
Y052911
Y051911
Y050911
Y049911
Y048911
Y047911
Y046911
X122506Y047411
Y048411
Y049411
Y050411
Y051411
Y052411
Y053411
Y054411
Y055411
Y056411
Y057411
Y058411
Y059411
Y060411
Y061411
Y062411
X121756Y061911
Y060911
Y059911
Y058911
Y057911
Y056911
Y055911
Y054911
Y053911
Y052911
Y051911
Y050911
Y049911
Y048911
Y047911
Y046911
X121006Y047411
Y048411
Y049411
Y050411
Y051411
Y052411
Y053411
Y054411
Y055411
Y056411
Y057411
Y058411
Y059411
Y060411
Y061411
Y062411
X120256Y061911
Y060911
Y059911
Y058911
Y057911
Y056911
Y055911
Y054911
Y053911
Y052911
Y051911
Y050911
Y049911
Y048911
Y047911
Y046911
X115006Y047411
Y048411
Y049411
Y050411
Y051411
Y052411
Y053411
Y054411
Y055411
Y056411
Y057411
Y058411
Y059411
Y060411
Y061411
Y062411
X114256Y061911
Y060911
Y059911
Y058911
Y057911
Y056911
Y055911
Y054911
Y053911
Y052911
Y051911
Y050911
Y049911
Y048911
Y047911
Y046911
X113506Y047411
Y048411
Y049411
Y050411
Y051411
Y052411
Y053411
Y054411
Y055411
Y056411
Y057411
Y058411
Y059411
Y060411
Y061411
Y062411
X112756Y061911
Y060911
Y059911
Y058911
Y057911
Y056911
Y055911
Y054911
Y053911
Y052911
Y051911
Y050911
Y049911
Y048911
Y047911
Y046911
X107506Y047411
Y048411
Y049411
Y050411
Y051411
Y052411
Y053411
Y054411
Y055411
Y056411
Y057411
Y058411
Y059411
Y060411
Y061411
Y062411
X106756Y061911
Y060911
Y059911
Y058911
Y057911
Y056911
Y055911
Y054911
Y053911
Y052911
Y051911
Y050911
Y049911
Y048911
Y047911
Y046911
X106006Y047411
Y048411
Y049411
Y050411
Y051411
Y052411
Y053411
Y054411
Y055411
Y056411
Y057411
Y058411
Y059411
Y060411
Y061411
Y062411
X105256Y061911
Y060911
Y059911
Y058911
Y057911
Y056911
Y055911
Y054911
Y053911
Y052911
Y051911
Y050911
Y049911
Y048911
Y047911
Y046911
X100006Y047411
Y048411
Y049411
Y050411
Y051411
Y052411
Y053411
Y054411
Y055411
Y056411
Y057411
Y058411
Y059411
Y060411
Y061411
Y062411
X099256Y061911
Y060911
Y059911
Y058911
Y057911
Y056911
Y055911
Y054911
Y053911
Y052911
Y051911
Y050911
Y049911
Y048911
Y047911
Y046911
X098506Y047411
Y048411
Y049411
Y050411
Y051411
Y052411
Y053411
Y054411
Y055411
Y056411
Y057411
Y058411
Y059411
Y060411
Y061411
Y062411
X097756Y061911
Y060911
Y059911
Y058911
Y057911
Y056911
Y055911
Y054911
Y053911
Y052911
Y051911
Y050911
Y049911
Y048911
Y047911
Y046911
X092506Y047411
Y048411
Y049411
Y050411
Y051411
Y052411
Y053411
Y054411
Y055411
Y056411
Y057411
Y058411
Y059411
Y060411
Y061411
Y062411
X091756Y061911
Y060911
Y059911
Y058911
Y057911
Y056911
Y055911
Y054911
Y053911
Y052911
Y051911
Y050911
Y049911
Y048911
Y047911
Y046911
X091006Y047411
Y048411
Y049411
Y050411
Y051411
Y052411
Y053411
Y054411
Y055411
Y056411
Y057411
Y058411
Y059411
Y060411
Y061411
Y062411
X090256Y061911
Y060911
Y059911
Y058911
Y057911
Y056911
Y055911
Y054911
Y053911
Y052911
Y051911
Y050911
Y049911
Y048911
Y047911
Y046911
X085006Y047411
Y048411
Y049411
Y050411
Y051411
Y052411
Y053411
Y054411
Y055411
Y056411
Y057411
Y058411
Y059411
Y060411
Y061411
Y062411
X084256Y061911
Y060911
Y059911
Y058911
Y057911
Y056911
Y055911
Y054911
Y053911
Y052911
Y051911
Y050911
Y049911
Y048911
Y047911
Y046911
X083506Y047411
Y048411
Y049411
Y050411
Y051411
Y052411
Y053411
Y054411
Y055411
Y056411
Y057411
Y058411
Y059411
Y060411
Y061411
Y062411
X082756Y061911
Y060911
Y059911
Y058911
Y057911
Y056911
Y055911
Y054911
Y053911
Y052911
Y051911
Y050911
Y049911
Y048911
Y047911
Y046911
X077506Y047411
Y048411
Y049411
Y050411
Y051411
Y052411
Y053411
Y054411
Y055411
Y056411
Y057411
Y058411
Y059411
Y060411
Y061411
Y062411
X076756Y061911
Y060911
Y059911
Y058911
Y057911
Y056911
Y055911
Y054911
Y053911
Y052911
Y051911
Y050911
Y049911
Y048911
Y047911
Y046911
X076006Y047411
Y048411
Y049411
Y050411
Y051411
Y052411
Y053411
Y054411
Y055411
Y056411
Y057411
Y058411
Y059411
Y060411
Y061411
Y062411
X075256Y061911
Y060911
Y059911
Y058911
Y057911
Y056911
Y055911
Y054911
Y053911
Y052911
Y051911
Y050911
Y049911
Y048911
Y047911
Y046911
X070006Y047411
Y048411
Y049411
Y050411
Y051411
Y052411
Y053411
Y054411
Y055411
Y056411
Y057411
Y058411
Y059411
Y060411
Y061411
Y062411
X069256Y061911
Y060911
Y059911
Y058911
Y057911
Y056911
Y055911
Y054911
Y053911
Y052911
Y051911
Y050911
Y049911
Y048911
Y047911
Y046911
X068506Y047411
Y048411
Y049411
Y050411
Y051411
Y052411
Y053411
Y054411
Y055411
Y056411
Y057411
Y058411
Y059411
Y060411
Y061411
Y062411
X067756Y061911
Y060911
Y059911
Y058911
Y057911
Y056911
Y055911
Y054911
Y053911
Y052911
Y051911
Y050911
Y049911
Y048911
Y047911
Y046911
X062506Y047411
Y048411
Y049411
Y050411
Y051411
Y052411
Y053411
Y054411
Y055411
Y056411
Y057411
Y058411
Y059411
Y060411
Y061411
Y062411
X061756Y061911
Y060911
Y059911
Y058911
Y057911
Y056911
Y055911
Y054911
Y053911
Y052911
Y051911
Y050911
Y049911
Y048911
Y047911
Y046911
X061006Y047411
Y048411
Y049411
Y050411
Y051411
Y052411
Y053411
Y054411
Y055411
Y056411
Y057411
Y058411
Y059411
Y060411
Y061411
Y062411
X060256Y061911
Y060911
Y059911
Y058911
Y057911
Y056911
Y055911
Y054911
Y053911
Y052911
Y051911
Y050911
Y049911
Y048911
Y047911
Y046911
X055006Y047411
Y048411
Y049411
Y050411
Y051411
Y052411
Y053411
Y054411
Y055411
Y056411
Y057411
Y058411
Y059411
Y060411
Y061411
Y062411
X054256Y061911
Y060911
Y059911
Y058911
Y057911
Y056911
Y055911
Y054911
Y053911
Y052911
Y051911
Y050911
Y049911
Y048911
Y047911
Y046911
X053506Y047411
Y048411
Y049411
Y050411
Y051411
Y052411
Y053411
Y054411
Y055411
Y056411
Y057411
Y058411
Y059411
Y060411
Y061411
Y062411
X052756Y061911
Y060911
Y059911
Y058911
Y057911
Y056911
Y055911
Y054911
Y053911
Y052911
Y051911
Y050911
Y049911
Y048911
Y047911
Y046911
X170244Y062911
X171744
T11
X0291Y0698
Y0708
T12
X072776Y074413
X073563
X07435
X075138
X075925
X076713
X0775
Y0752
X076713
X075925
X075138
X07435
X073563
X072776
T13
X064722Y0744
X0661
X067478
T14
X022635Y059818
Y061472
X0248
Y059818
Y063125
Y064779
Y066432
Y068086
Y069739
Y071393
Y073046
Y0747
X022635
Y073046
Y071393
Y069739
Y068086
Y066432
Y064779
Y063125
T15
X045Y033155
X05475Y045017
X06225
X06975
X07725
X08475
X09225
X09975
X10725
X11475
X12225
X12975
X13725
X139995Y03648
X14475Y045017
X15225
X15975
X16725
X1705Y045517
T16
X043934Y034024
X053881Y043951
X061381
X068881
X076381
X064354Y034024
X083881Y043951
X091381
X098881
X106381
X113881
X121381
X120641Y037349
X128881Y043951
X136381
X143881
X151381
X141061Y037349
X158881Y043951
X166381
X171369Y044451
X061381Y064371
X053881
X068881
X076381
X083881
X091381
X098881
X106381
X113881
X121381
X128881
X136381
X143881
X151381
X158881
X166381
X171369Y064871
T17
X04Y032
X08
X12
X16
X04Y07325
X08
X12
X16
M30
