%FSLAX24Y24*%
%MOIN*%
G70*
G01*
G75*
G04 Layer_Color=32896*
%ADD10R,0.0394X0.0433*%
%ADD11R,0.1024X0.0945*%
%ADD12R,0.3000X0.2900*%
%ADD13R,0.1500X0.0500*%
%ADD14R,0.0394X0.1083*%
%ADD15R,0.1102X0.1024*%
%ADD16R,0.0945X0.1024*%
%ADD17R,0.0630X0.0709*%
%ADD18C,0.0700*%
%ADD19R,0.0748X0.0197*%
%ADD20R,0.0394X0.1496*%
%ADD21R,0.1496X0.0394*%
%ADD22C,0.0197*%
%ADD23R,0.1575X0.0335*%
%ADD24R,0.0433X0.0394*%
%ADD25R,0.0551X0.0787*%
%ADD26R,0.0197X0.0748*%
%ADD27R,0.0787X0.0551*%
%ADD28R,0.0630X0.0512*%
%ADD29C,0.0130*%
%ADD30R,0.0709X0.0630*%
%ADD31R,0.0571X0.0197*%
%ADD32C,0.0400*%
%ADD33C,0.0060*%
%ADD34C,0.0080*%
%ADD35C,0.0200*%
%ADD36C,0.0100*%
%ADD37C,0.0110*%
%ADD38C,0.0160*%
%ADD39C,0.0300*%
%ADD40C,0.0180*%
%ADD41C,0.0240*%
%ADD42C,0.0120*%
%ADD43C,0.0433*%
%ADD44C,0.1600*%
%ADD45C,0.0669*%
%ADD46C,0.1063*%
%ADD47R,0.0591X0.0591*%
%ADD48C,0.0591*%
%ADD49C,0.0800*%
%ADD50C,0.1300*%
%ADD51C,0.0600*%
%ADD52C,0.0200*%
%ADD53C,0.0300*%
%ADD54C,0.0500*%
%ADD55R,0.0354X0.0276*%
%ADD56R,0.0276X0.0354*%
%ADD57R,0.0354X0.0945*%
%ADD58R,0.0500X0.1449*%
%ADD59C,0.0098*%
%ADD60C,0.0039*%
%ADD61C,0.0079*%
%ADD62C,0.0040*%
%ADD63C,0.0070*%
%ADD64C,0.0150*%
%ADD65C,0.0600*%
%ADD66C,0.0090*%
%ADD67C,0.0025*%
D34*
X48950Y75950D02*
X49000Y75900D01*
X48000Y75950D02*
X48950D01*
X48000Y75900D02*
X49000D01*
X48000Y75850D02*
X48950D01*
X48000Y75800D02*
X49000D01*
Y76000D01*
X48000D02*
X56000D01*
X48000Y72000D02*
X56000D01*
X48000D02*
Y76000D01*
X56000Y72000D02*
Y76000D01*
X80450Y76700D02*
X80500Y76650D01*
X79500Y76700D02*
X80450D01*
X79500Y76650D02*
X80500D01*
X79500Y76600D02*
X80450D01*
X79500Y76550D02*
X80500D01*
Y76750D01*
X79500D02*
X87500D01*
X79500Y72750D02*
X87500D01*
X79500D02*
Y76750D01*
X87500Y72750D02*
Y76750D01*
X91450Y76700D02*
X91500Y76650D01*
X90500Y76700D02*
X91450D01*
X90500Y76650D02*
X91500D01*
X90500Y76600D02*
X91450D01*
X90500Y76550D02*
X91500D01*
Y76750D01*
X90500D02*
X98500D01*
X90500Y72750D02*
X98500D01*
X90500D02*
Y76750D01*
X98500Y72750D02*
Y76750D01*
X102450Y76700D02*
X102500Y76650D01*
X101500Y76700D02*
X102450D01*
X101500Y76650D02*
X102500D01*
X101500Y76600D02*
X102450D01*
X101500Y76550D02*
X102500D01*
Y76750D01*
X101500D02*
X109500D01*
X101500Y72750D02*
X109500D01*
X101500D02*
Y76750D01*
X109500Y72750D02*
Y76750D01*
D36*
X26400Y74000D02*
G03*
X26400Y74000I-1400J0D01*
G01*
X70400D02*
G03*
X70400Y74000I-1400J0D01*
G01*
X114400D02*
G03*
X114400Y74000I-1400J0D01*
G01*
X158400D02*
G03*
X158400Y74000I-1400J0D01*
G01*
X37400Y47500D02*
G03*
X37400Y47500I-1400J0D01*
G01*
X67400D02*
G03*
X67400Y47500I-1400J0D01*
G01*
X125400D02*
G03*
X125400Y47500I-1400J0D01*
G01*
X158400D02*
G03*
X158400Y47500I-1400J0D01*
G01*
X27236Y62905D02*
X27336Y62805D01*
Y62605D01*
X27236Y62505D01*
X26836D01*
X26736Y62605D01*
Y62805D01*
X26836Y62905D01*
X26736Y63105D02*
Y63305D01*
Y63205D01*
X27336D01*
X27236Y63105D01*
X26736Y64005D02*
Y63605D01*
X27136Y64005D01*
X27236D01*
X27336Y63905D01*
Y63705D01*
X27236Y63605D01*
X27336Y64604D02*
Y64204D01*
X27036D01*
X27136Y64404D01*
Y64504D01*
X27036Y64604D01*
X26836D01*
X26736Y64504D01*
Y64304D01*
X26836Y64204D01*
X42195Y36405D02*
X42295Y36505D01*
X42495D01*
X42595Y36405D01*
Y36005D01*
X42495Y35905D01*
X42295D01*
X42195Y36005D01*
X41995Y35905D02*
X41795D01*
X41895D01*
Y36505D01*
X41995Y36405D01*
X41095Y35905D02*
X41495D01*
X41095Y36305D01*
Y36405D01*
X41195Y36505D01*
X41395D01*
X41495Y36405D01*
X40896Y35905D02*
X40696D01*
X40796D01*
Y36505D01*
X40896Y36405D01*
D42*
X55333Y73359D02*
X55866D01*
Y72959D01*
X55599D01*
X55866D01*
Y72559D01*
X55066D02*
Y73359D01*
X54666D01*
X54533Y73225D01*
Y72959D01*
X54666Y72825D01*
X55066D01*
X54800D02*
X54533Y72559D01*
X53867Y73359D02*
X54133D01*
X54267Y73225D01*
Y72692D01*
X54133Y72559D01*
X53867D01*
X53733Y72692D01*
Y73225D01*
X53867Y73359D01*
X53467Y72559D02*
Y73359D01*
X52934Y72559D01*
Y73359D01*
X52667D02*
X52134D01*
X52400D01*
Y72559D01*
X51068D02*
Y73359D01*
X50668D01*
X50534Y73225D01*
Y72959D01*
X50668Y72825D01*
X51068D01*
X50268Y72559D02*
Y73092D01*
X50001Y73359D01*
X49735Y73092D01*
Y72559D01*
Y72959D01*
X50268D01*
X49468Y72559D02*
Y73359D01*
X48935Y72559D01*
Y73359D01*
X48135D02*
X48668D01*
Y72559D01*
X48135D01*
X48668Y72959D02*
X48402D01*
X47869Y73359D02*
Y72559D01*
X47335D01*
X85217Y69066D02*
X85350Y69200D01*
X85617D01*
X85750Y69066D01*
Y68933D01*
X85617Y68800D01*
X85350D01*
X85217Y68667D01*
Y68533D01*
X85350Y68400D01*
X85617D01*
X85750Y68533D01*
X84950Y69200D02*
Y69066D01*
X84684Y68800D01*
X84417Y69066D01*
Y69200D01*
X84684Y68800D02*
Y68400D01*
X83617Y69066D02*
X83751Y69200D01*
X84017D01*
X84151Y69066D01*
Y68933D01*
X84017Y68800D01*
X83751D01*
X83617Y68667D01*
Y68533D01*
X83751Y68400D01*
X84017D01*
X84151Y68533D01*
X82551Y69200D02*
X82284D01*
X82418D01*
Y68400D01*
X82551D01*
X82284D01*
X81485Y69200D02*
X81751D01*
X81885Y69066D01*
Y68533D01*
X81751Y68400D01*
X81485D01*
X81351Y68533D01*
Y69066D01*
X81485Y69200D01*
X108000Y68400D02*
Y68933D01*
X107733Y69200D01*
X107467Y68933D01*
Y68400D01*
Y68800D01*
X108000D01*
X107200Y69200D02*
Y68400D01*
X106800D01*
X106667Y68533D01*
Y69066D01*
X106800Y69200D01*
X107200D01*
X106401D02*
X106134D01*
X106267D01*
Y68400D01*
X106401D01*
X106134D01*
X105334Y69200D02*
X105601D01*
X105734Y69066D01*
Y68533D01*
X105601Y68400D01*
X105334D01*
X105201Y68533D01*
Y69066D01*
X105334Y69200D01*
X104135D02*
X103868D01*
X104001D01*
Y68400D01*
X104135D01*
X103868D01*
X103068Y69200D02*
X103335D01*
X103468Y69066D01*
Y68533D01*
X103335Y68400D01*
X103068D01*
X102935Y68533D01*
Y69066D01*
X103068Y69200D01*
X96800Y68400D02*
Y69200D01*
X96267Y68400D01*
Y69200D01*
X95467D02*
X96000D01*
Y68400D01*
X95467D01*
X96000Y68800D02*
X95734D01*
X95201Y68400D02*
Y69200D01*
X94801D01*
X94667Y69066D01*
Y68800D01*
X94801Y68667D01*
X95201D01*
X93601Y69200D02*
X93334D01*
X93468D01*
Y68400D01*
X93601D01*
X93334D01*
X92535Y69200D02*
X92801D01*
X92935Y69066D01*
Y68533D01*
X92801Y68400D01*
X92535D01*
X92401Y68533D01*
Y69066D01*
X92535Y69200D01*
D61*
X28802Y40544D02*
Y41056D01*
X102205Y36260D02*
X102519D01*
X102283Y33189D02*
X102598D01*
X97480Y38464D02*
X97795D01*
X98268Y40039D02*
X98582D01*
X91968Y47598D02*
X92283D01*
X91732Y45787D02*
X92047D01*
X96339Y46299D02*
Y46614D01*
X91614Y37165D02*
Y37480D01*
X92795Y32835D02*
Y33150D01*
X93032Y42205D02*
Y42520D01*
X99606Y45866D02*
X99921D01*
X97874Y47362D02*
X98189D01*
X90827Y42835D02*
Y43150D01*
X104960Y33524D02*
Y33720D01*
X105019Y35905D02*
X105216D01*
X99842Y40846D02*
Y41043D01*
X99370Y39744D02*
Y39941D01*
X96771Y40059D02*
Y40256D01*
X90374Y41890D02*
X90571D01*
X91240Y43386D02*
X91437D01*
X90768Y46063D02*
X90965D01*
X97440Y41870D02*
Y42067D01*
X92677Y40925D02*
Y41122D01*
X93150Y41634D02*
Y41831D01*
X93209Y47757D02*
X93406D01*
X97480Y43996D02*
Y44193D01*
X97362Y43209D02*
Y43406D01*
X97519Y45571D02*
Y45768D01*
X90217Y39568D02*
X90413D01*
X96260Y38012D02*
Y38209D01*
X96338Y45965D02*
Y46161D01*
X92952Y38012D02*
Y38209D01*
X99272Y42047D02*
X99468D01*
X94133Y45098D02*
Y45295D01*
X93111Y40059D02*
Y40256D01*
X93150Y43996D02*
Y44193D01*
X93208Y39764D02*
X93405D01*
X95965Y44842D02*
X96161D01*
X97146Y48071D02*
X97343D01*
X93505Y45571D02*
Y45768D01*
X100472Y43996D02*
Y44193D01*
X97480Y46752D02*
Y46949D01*
X75084Y74652D02*
Y74848D01*
X71802Y73566D02*
X71998D01*
X73184Y70652D02*
Y70848D01*
X136771Y37461D02*
Y37657D01*
X126810Y37539D02*
Y37736D01*
X42044Y33702D02*
X42556D01*
X24533Y62544D02*
Y63056D01*
D63*
X91079Y72181D02*
X98165D01*
X91079D02*
X98165D01*
X91079Y69819D02*
Y72181D01*
X98165Y69819D02*
Y72181D01*
X91079Y69819D02*
X98165D01*
X102079Y72181D02*
X109165D01*
X102079D02*
X109165D01*
X102079Y69819D02*
Y72181D01*
X109165Y69819D02*
Y72181D01*
X102079Y69819D02*
X109165D01*
X80079D02*
X87165D01*
Y72181D01*
X80079Y69819D02*
Y72181D01*
X87165D01*
X80079D02*
X87165D01*
X101650Y36000D02*
X101600Y36050D01*
Y36150D01*
X101650Y36200D01*
X101850D01*
X101900Y36150D01*
Y36050D01*
X101850Y36000D01*
X101900Y35900D02*
Y35800D01*
Y35850D01*
X101600D01*
X101650Y35900D01*
Y35650D02*
X101600Y35600D01*
Y35500D01*
X101650Y35450D01*
X101700D01*
X101750Y35500D01*
Y35550D01*
Y35500D01*
X101800Y35450D01*
X101850D01*
X101900Y35500D01*
Y35600D01*
X101850Y35650D01*
Y35350D02*
X101900Y35300D01*
Y35200D01*
X101850Y35150D01*
X101650D01*
X101600Y35200D01*
Y35300D01*
X101650Y35350D01*
X101700D01*
X101750Y35300D01*
Y35150D01*
X105200Y33300D02*
X105250Y33350D01*
X105350D01*
X105400Y33300D01*
Y33100D01*
X105350Y33050D01*
X105250D01*
X105200Y33100D01*
X105100Y33050D02*
X105000D01*
X105050D01*
Y33350D01*
X105100Y33300D01*
X104850D02*
X104800Y33350D01*
X104700D01*
X104650Y33300D01*
Y33250D01*
X104700Y33200D01*
X104750D01*
X104700D01*
X104650Y33150D01*
Y33100D01*
X104700Y33050D01*
X104800D01*
X104850Y33100D01*
X104550Y33300D02*
X104500Y33350D01*
X104400D01*
X104350Y33300D01*
Y33250D01*
X104400Y33200D01*
X104350Y33150D01*
Y33100D01*
X104400Y33050D01*
X104500D01*
X104550Y33100D01*
Y33150D01*
X104500Y33200D01*
X104550Y33250D01*
Y33300D01*
X104500Y33200D02*
X104400D01*
X101750Y34050D02*
X101700Y34100D01*
Y34200D01*
X101750Y34250D01*
X101950D01*
X102000Y34200D01*
Y34100D01*
X101950Y34050D01*
X102000Y33950D02*
Y33850D01*
Y33900D01*
X101700D01*
X101750Y33950D01*
Y33700D02*
X101700Y33650D01*
Y33550D01*
X101750Y33500D01*
X101800D01*
X101850Y33550D01*
Y33600D01*
Y33550D01*
X101900Y33500D01*
X101950D01*
X102000Y33550D01*
Y33650D01*
X101950Y33700D01*
X101700Y33400D02*
Y33200D01*
X101750D01*
X101950Y33400D01*
X102000D01*
X104650Y35200D02*
X104700Y35250D01*
X104800D01*
X104850Y35200D01*
Y35000D01*
X104800Y34950D01*
X104700D01*
X104650Y35000D01*
X104550Y34950D02*
X104450D01*
X104500D01*
Y35250D01*
X104550Y35200D01*
X104300D02*
X104250Y35250D01*
X104150D01*
X104100Y35200D01*
Y35150D01*
X104150Y35100D01*
X104200D01*
X104150D01*
X104100Y35050D01*
Y35000D01*
X104150Y34950D01*
X104250D01*
X104300Y35000D01*
X103800Y35250D02*
X103900Y35200D01*
X104000Y35100D01*
Y35000D01*
X103950Y34950D01*
X103850D01*
X103800Y35000D01*
Y35050D01*
X103850Y35100D01*
X104000D01*
X101200Y41450D02*
X101250Y41500D01*
X101350D01*
X101400Y41450D01*
Y41250D01*
X101350Y41200D01*
X101250D01*
X101200Y41250D01*
X101100Y41200D02*
X101000D01*
X101050D01*
Y41500D01*
X101100Y41450D01*
X100850D02*
X100800Y41500D01*
X100700D01*
X100650Y41450D01*
Y41400D01*
X100700Y41350D01*
X100750D01*
X100700D01*
X100650Y41300D01*
Y41250D01*
X100700Y41200D01*
X100800D01*
X100850Y41250D01*
X100350Y41200D02*
X100550D01*
X100350Y41400D01*
Y41450D01*
X100400Y41500D01*
X100500D01*
X100550Y41450D01*
X98350Y37300D02*
X98400Y37250D01*
Y37150D01*
X98350Y37100D01*
X98150D01*
X98100Y37150D01*
Y37250D01*
X98150Y37300D01*
X98100Y37400D02*
Y37500D01*
Y37450D01*
X98400D01*
X98350Y37400D01*
Y37650D02*
X98400Y37700D01*
Y37800D01*
X98350Y37850D01*
X98300D01*
X98250Y37800D01*
Y37750D01*
Y37800D01*
X98200Y37850D01*
X98150D01*
X98100Y37800D01*
Y37700D01*
X98150Y37650D01*
X98100Y37950D02*
Y38050D01*
Y38000D01*
X98400D01*
X98350Y37950D01*
X100120Y40540D02*
X100170Y40590D01*
X100270D01*
X100320Y40540D01*
Y40340D01*
X100270Y40290D01*
X100170D01*
X100120Y40340D01*
X100020Y40290D02*
X99920D01*
X99970D01*
Y40590D01*
X100020Y40540D01*
X99770D02*
X99720Y40590D01*
X99620D01*
X99570Y40540D01*
Y40490D01*
X99620Y40440D01*
X99670D01*
X99620D01*
X99570Y40390D01*
Y40340D01*
X99620Y40290D01*
X99720D01*
X99770Y40340D01*
X99470Y40540D02*
X99420Y40590D01*
X99320D01*
X99270Y40540D01*
Y40340D01*
X99320Y40290D01*
X99420D01*
X99470Y40340D01*
Y40540D01*
X99000Y40600D02*
X99050Y40550D01*
Y40450D01*
X99000Y40400D01*
X98800D01*
X98750Y40450D01*
Y40550D01*
X98800Y40600D01*
X98750Y40700D02*
Y40800D01*
Y40750D01*
X99050D01*
X99000Y40700D01*
X98750Y41150D02*
Y40950D01*
X98950Y41150D01*
X99000D01*
X99050Y41100D01*
Y41000D01*
X99000Y40950D01*
X98800Y41250D02*
X98750Y41300D01*
Y41400D01*
X98800Y41450D01*
X99000D01*
X99050Y41400D01*
Y41300D01*
X99000Y41250D01*
X98950D01*
X98900Y41300D01*
Y41450D01*
X97530Y40860D02*
X97580Y40910D01*
X97680D01*
X97730Y40860D01*
Y40660D01*
X97680Y40610D01*
X97580D01*
X97530Y40660D01*
X97430Y40610D02*
X97330D01*
X97380D01*
Y40910D01*
X97430Y40860D01*
X96980Y40610D02*
X97180D01*
X96980Y40810D01*
Y40860D01*
X97030Y40910D01*
X97130D01*
X97180Y40860D01*
X96880D02*
X96830Y40910D01*
X96730D01*
X96680Y40860D01*
Y40810D01*
X96730Y40760D01*
X96680Y40710D01*
Y40660D01*
X96730Y40610D01*
X96830D01*
X96880Y40660D01*
Y40710D01*
X96830Y40760D01*
X96880Y40810D01*
Y40860D01*
X96830Y40760D02*
X96730D01*
X127560Y38340D02*
X127610Y38390D01*
X127710D01*
X127760Y38340D01*
Y38140D01*
X127710Y38090D01*
X127610D01*
X127560Y38140D01*
X127260Y38390D02*
X127360Y38340D01*
X127460Y38240D01*
Y38140D01*
X127410Y38090D01*
X127310D01*
X127260Y38140D01*
Y38190D01*
X127310Y38240D01*
X127460D01*
X127160Y38090D02*
X127060D01*
X127110D01*
Y38390D01*
X127160Y38340D01*
X92418Y47986D02*
X92468Y48036D01*
X92568D01*
X92618Y47986D01*
Y47786D01*
X92568Y47736D01*
X92468D01*
X92418Y47786D01*
X92318Y47736D02*
X92218D01*
X92268D01*
Y48036D01*
X92318Y47986D01*
X92068Y47736D02*
X91968D01*
X92018D01*
Y48036D01*
X92068Y47986D01*
X91618Y48036D02*
X91818D01*
Y47886D01*
X91718Y47936D01*
X91668D01*
X91618Y47886D01*
Y47786D01*
X91668Y47736D01*
X91768D01*
X91818Y47786D01*
X91187Y45469D02*
X91137Y45519D01*
Y45619D01*
X91187Y45669D01*
X91387D01*
X91437Y45619D01*
Y45519D01*
X91387Y45469D01*
X91437Y45369D02*
Y45269D01*
Y45319D01*
X91137D01*
X91187Y45369D01*
X91437Y45119D02*
Y45019D01*
Y45069D01*
X91137D01*
X91187Y45119D01*
X91437Y44720D02*
X91137D01*
X91287Y44870D01*
Y44670D01*
X95961Y47100D02*
X96011Y47150D01*
X96111D01*
X96161Y47100D01*
Y46900D01*
X96111Y46850D01*
X96011D01*
X95961Y46900D01*
X95862Y46850D02*
X95762D01*
X95812D01*
Y47150D01*
X95862Y47100D01*
X95612Y46850D02*
X95512D01*
X95562D01*
Y47150D01*
X95612Y47100D01*
X95362D02*
X95312Y47150D01*
X95212D01*
X95162Y47100D01*
Y46900D01*
X95212Y46850D01*
X95312D01*
X95362Y46900D01*
Y47100D01*
X90653Y36758D02*
X90603Y36708D01*
X90503D01*
X90453Y36758D01*
Y36958D01*
X90503Y37008D01*
X90603D01*
X90653Y36958D01*
X90753Y37008D02*
X90853D01*
X90803D01*
Y36708D01*
X90753Y36758D01*
X91003D02*
X91053Y36708D01*
X91153D01*
X91203Y36758D01*
Y36958D01*
X91153Y37008D01*
X91053D01*
X91003Y36958D01*
Y36758D01*
X91302Y36958D02*
X91352Y37008D01*
X91452D01*
X91502Y36958D01*
Y36758D01*
X91452Y36708D01*
X91352D01*
X91302Y36758D01*
Y36808D01*
X91352Y36858D01*
X91502D01*
X93737Y33537D02*
X93787Y33587D01*
X93887D01*
X93937Y33537D01*
Y33337D01*
X93887Y33287D01*
X93787D01*
X93737Y33337D01*
X93637Y33287D02*
X93537D01*
X93587D01*
Y33587D01*
X93637Y33537D01*
X93387D02*
X93337Y33587D01*
X93237D01*
X93187Y33537D01*
Y33337D01*
X93237Y33287D01*
X93337D01*
X93387Y33337D01*
Y33537D01*
X93087D02*
X93037Y33587D01*
X92937D01*
X92887Y33537D01*
Y33487D01*
X92937Y33437D01*
X92887Y33387D01*
Y33337D01*
X92937Y33287D01*
X93037D01*
X93087Y33337D01*
Y33387D01*
X93037Y33437D01*
X93087Y33487D01*
Y33537D01*
X93037Y33437D02*
X92937D01*
X91217Y42297D02*
X91167Y42347D01*
Y42447D01*
X91217Y42497D01*
X91417D01*
X91467Y42447D01*
Y42347D01*
X91417Y42297D01*
X91467Y42197D02*
Y42097D01*
Y42147D01*
X91167D01*
X91217Y42197D01*
Y41947D02*
X91167Y41897D01*
Y41797D01*
X91217Y41747D01*
X91417D01*
X91467Y41797D01*
Y41897D01*
X91417Y41947D01*
X91217D01*
X91167Y41647D02*
Y41448D01*
X91217D01*
X91417Y41647D01*
X91467D01*
X100095Y46214D02*
X100145Y46264D01*
X100245D01*
X100295Y46214D01*
Y46015D01*
X100245Y45965D01*
X100145D01*
X100095Y46015D01*
X99995Y45965D02*
X99895D01*
X99945D01*
Y46264D01*
X99995Y46214D01*
X99745D02*
X99695Y46264D01*
X99595D01*
X99546Y46214D01*
Y46015D01*
X99595Y45965D01*
X99695D01*
X99745Y46015D01*
Y46214D01*
X99246Y46264D02*
X99346Y46214D01*
X99446Y46115D01*
Y46015D01*
X99396Y45965D01*
X99296D01*
X99246Y46015D01*
Y46065D01*
X99296Y46115D01*
X99446D01*
X98577Y47739D02*
X98627Y47689D01*
Y47589D01*
X98577Y47539D01*
X98377D01*
X98327Y47589D01*
Y47689D01*
X98377Y47739D01*
X98327Y47839D02*
Y47939D01*
Y47889D01*
X98627D01*
X98577Y47839D01*
Y48089D02*
X98627Y48139D01*
Y48239D01*
X98577Y48289D01*
X98377D01*
X98327Y48239D01*
Y48139D01*
X98377Y48089D01*
X98577D01*
X98627Y48589D02*
Y48389D01*
X98477D01*
X98527Y48489D01*
Y48539D01*
X98477Y48589D01*
X98377D01*
X98327Y48539D01*
Y48439D01*
X98377Y48389D01*
X92474Y42916D02*
X92524Y42866D01*
Y42767D01*
X92474Y42717D01*
X92274D01*
X92224Y42767D01*
Y42866D01*
X92274Y42916D01*
X92224Y43016D02*
Y43116D01*
Y43066D01*
X92524D01*
X92474Y43016D01*
Y43266D02*
X92524Y43316D01*
Y43416D01*
X92474Y43466D01*
X92274D01*
X92224Y43416D01*
Y43316D01*
X92274Y43266D01*
X92474D01*
X92224Y43716D02*
X92524D01*
X92374Y43566D01*
Y43766D01*
X98687Y76466D02*
Y76766D01*
X98537D01*
X98487Y76716D01*
Y76616D01*
X98537Y76566D01*
X98687D01*
X98187Y76766D02*
X98387D01*
Y76616D01*
X98287Y76666D01*
X98237D01*
X98187Y76616D01*
Y76516D01*
X98237Y76466D01*
X98337D01*
X98387Y76516D01*
X87623Y76477D02*
Y76777D01*
X87473D01*
X87424Y76727D01*
Y76627D01*
X87473Y76577D01*
X87623D01*
X87174Y76477D02*
Y76777D01*
X87324Y76627D01*
X87124D01*
X76629Y76477D02*
Y76777D01*
X76479D01*
X76429Y76727D01*
Y76627D01*
X76479Y76577D01*
X76629D01*
X76329Y76727D02*
X76279Y76777D01*
X76179D01*
X76129Y76727D01*
Y76677D01*
X76179Y76627D01*
X76229D01*
X76179D01*
X76129Y76577D01*
Y76527D01*
X76179Y76477D01*
X76279D01*
X76329Y76527D01*
X44707Y73251D02*
Y72951D01*
X44857D01*
X44907Y73001D01*
Y73101D01*
X44857Y73151D01*
X44707D01*
X45206Y73251D02*
X45007D01*
X45206Y73051D01*
Y73001D01*
X45156Y72951D01*
X45057D01*
X45007Y73001D01*
X109613Y70133D02*
Y70033D01*
Y70083D01*
X109363D01*
X109313Y70033D01*
Y69983D01*
X109363Y69933D01*
X109563Y70233D02*
X109613Y70283D01*
Y70383D01*
X109563Y70433D01*
X109513D01*
X109463Y70383D01*
Y70333D01*
Y70383D01*
X109413Y70433D01*
X109363D01*
X109313Y70383D01*
Y70283D01*
X109363Y70233D01*
X98650Y70133D02*
Y70033D01*
Y70083D01*
X98400D01*
X98350Y70033D01*
Y69983D01*
X98400Y69933D01*
X98350Y70433D02*
Y70233D01*
X98550Y70433D01*
X98600D01*
X98650Y70383D01*
Y70283D01*
X98600Y70233D01*
X87805Y70085D02*
Y69985D01*
Y70035D01*
X87555D01*
X87505Y69985D01*
Y69935D01*
X87555Y69885D01*
X87505Y70185D02*
Y70285D01*
Y70235D01*
X87805D01*
X87755Y70185D01*
X74137Y74199D02*
X74087Y74149D01*
X73987D01*
X73937Y74199D01*
Y74399D01*
X73987Y74449D01*
X74087D01*
X74137Y74399D01*
X74437Y74149D02*
X74337Y74199D01*
X74237Y74299D01*
Y74399D01*
X74287Y74449D01*
X74387D01*
X74437Y74399D01*
Y74349D01*
X74387Y74299D01*
X74237D01*
X74737Y74149D02*
X74537D01*
Y74299D01*
X74637Y74249D01*
X74687D01*
X74737Y74299D01*
Y74399D01*
X74687Y74449D01*
X74587D01*
X74537Y74399D01*
X72910Y71313D02*
X72960Y71363D01*
X73060D01*
X73110Y71313D01*
Y71113D01*
X73060Y71063D01*
X72960D01*
X72910Y71113D01*
X72610Y71363D02*
X72710Y71313D01*
X72810Y71213D01*
Y71113D01*
X72760Y71063D01*
X72660D01*
X72610Y71113D01*
Y71163D01*
X72660Y71213D01*
X72810D01*
X72510Y71313D02*
X72460Y71363D01*
X72360D01*
X72310Y71313D01*
Y71263D01*
X72360Y71213D01*
X72410D01*
X72360D01*
X72310Y71163D01*
Y71113D01*
X72360Y71063D01*
X72460D01*
X72510Y71113D01*
X72123Y74974D02*
X72173Y75024D01*
X72273D01*
X72323Y74974D01*
Y74774D01*
X72273Y74724D01*
X72173D01*
X72123Y74774D01*
X71823Y75024D02*
X71923Y74974D01*
X72023Y74874D01*
Y74774D01*
X71973Y74724D01*
X71873D01*
X71823Y74774D01*
Y74824D01*
X71873Y74874D01*
X72023D01*
X71573Y74724D02*
Y75024D01*
X71723Y74874D01*
X71523D01*
X137465Y38134D02*
X137515Y38184D01*
X137615D01*
X137665Y38134D01*
Y37934D01*
X137615Y37884D01*
X137515D01*
X137465Y37934D01*
X137165Y38184D02*
X137265Y38134D01*
X137365Y38034D01*
Y37934D01*
X137315Y37884D01*
X137215D01*
X137165Y37934D01*
Y37984D01*
X137215Y38034D01*
X137365D01*
X136865Y37884D02*
X137065D01*
X136865Y38084D01*
Y38134D01*
X136915Y38184D01*
X137015D01*
X137065Y38134D01*
X90998Y41932D02*
X91048Y41882D01*
Y41782D01*
X90998Y41732D01*
X90798D01*
X90748Y41782D01*
Y41882D01*
X90798Y41932D01*
Y42032D02*
X90748Y42082D01*
Y42182D01*
X90798Y42232D01*
X90998D01*
X91048Y42182D01*
Y42082D01*
X90998Y42032D01*
X90948D01*
X90898Y42082D01*
Y42232D01*
X90998Y42332D02*
X91048Y42382D01*
Y42482D01*
X90998Y42532D01*
X90948D01*
X90898Y42482D01*
Y42432D01*
Y42482D01*
X90848Y42532D01*
X90798D01*
X90748Y42482D01*
Y42382D01*
X90798Y42332D01*
X91884Y43704D02*
X91934Y43654D01*
Y43554D01*
X91884Y43504D01*
X91684D01*
X91634Y43554D01*
Y43654D01*
X91684Y43704D01*
Y43804D02*
X91634Y43854D01*
Y43954D01*
X91684Y44004D01*
X91884D01*
X91934Y43954D01*
Y43854D01*
X91884Y43804D01*
X91834D01*
X91784Y43854D01*
Y44004D01*
X91634Y44304D02*
Y44104D01*
X91834Y44304D01*
X91884D01*
X91934Y44254D01*
Y44154D01*
X91884Y44104D01*
X90301Y46749D02*
X90251Y46799D01*
Y46899D01*
X90301Y46949D01*
X90501D01*
X90551Y46899D01*
Y46799D01*
X90501Y46749D01*
Y46649D02*
X90551Y46599D01*
Y46499D01*
X90501Y46449D01*
X90301D01*
X90251Y46499D01*
Y46599D01*
X90301Y46649D01*
X90351D01*
X90401Y46599D01*
Y46449D01*
X90551Y46349D02*
Y46249D01*
Y46299D01*
X90251D01*
X90301Y46349D01*
X98225Y42474D02*
X98275Y42524D01*
X98375D01*
X98425Y42474D01*
Y42274D01*
X98375Y42224D01*
X98275D01*
X98225Y42274D01*
X98125D02*
X98075Y42224D01*
X97975D01*
X97925Y42274D01*
Y42474D01*
X97975Y42524D01*
X98075D01*
X98125Y42474D01*
Y42424D01*
X98075Y42374D01*
X97925D01*
X97825Y42474D02*
X97775Y42524D01*
X97675D01*
X97625Y42474D01*
Y42274D01*
X97675Y42224D01*
X97775D01*
X97825Y42274D01*
Y42474D01*
X91344Y41119D02*
X91294Y41169D01*
Y41269D01*
X91344Y41319D01*
X91544D01*
X91594Y41269D01*
Y41169D01*
X91544Y41119D01*
X91344Y41019D02*
X91294Y40969D01*
Y40869D01*
X91344Y40819D01*
X91394D01*
X91444Y40869D01*
X91494Y40819D01*
X91544D01*
X91594Y40869D01*
Y40969D01*
X91544Y41019D01*
X91494D01*
X91444Y40969D01*
X91394Y41019D01*
X91344D01*
X91444Y40969D02*
Y40869D01*
X91544Y40719D02*
X91594Y40669D01*
Y40569D01*
X91544Y40519D01*
X91344D01*
X91294Y40569D01*
Y40669D01*
X91344Y40719D01*
X91394D01*
X91444Y40669D01*
Y40519D01*
X93459Y41539D02*
X93509Y41489D01*
Y41389D01*
X93459Y41339D01*
X93259D01*
X93209Y41389D01*
Y41489D01*
X93259Y41539D01*
X93459Y41638D02*
X93509Y41688D01*
Y41788D01*
X93459Y41838D01*
X93409D01*
X93359Y41788D01*
X93309Y41838D01*
X93259D01*
X93209Y41788D01*
Y41688D01*
X93259Y41638D01*
X93309D01*
X93359Y41688D01*
X93409Y41638D01*
X93459D01*
X93359Y41688D02*
Y41788D01*
X93459Y41938D02*
X93509Y41988D01*
Y42088D01*
X93459Y42138D01*
X93409D01*
X93359Y42088D01*
X93309Y42138D01*
X93259D01*
X93209Y42088D01*
Y41988D01*
X93259Y41938D01*
X93309D01*
X93359Y41988D01*
X93409Y41938D01*
X93459D01*
X93359Y41988D02*
Y42088D01*
X92762Y47438D02*
X92712Y47488D01*
Y47588D01*
X92762Y47638D01*
X92962D01*
X93012Y47588D01*
Y47488D01*
X92962Y47438D01*
X92762Y47338D02*
X92712Y47288D01*
Y47188D01*
X92762Y47138D01*
X92812D01*
X92862Y47188D01*
X92912Y47138D01*
X92962D01*
X93012Y47188D01*
Y47288D01*
X92962Y47338D01*
X92912D01*
X92862Y47288D01*
X92812Y47338D01*
X92762D01*
X92862Y47288D02*
Y47188D01*
X92712Y47038D02*
Y46838D01*
X92762D01*
X92962Y47038D01*
X93012D01*
X98225Y44640D02*
X98275Y44690D01*
X98375D01*
X98425Y44640D01*
Y44440D01*
X98375Y44390D01*
X98275D01*
X98225Y44440D01*
X98125Y44640D02*
X98075Y44690D01*
X97975D01*
X97925Y44640D01*
Y44590D01*
X97975Y44540D01*
X97925Y44490D01*
Y44440D01*
X97975Y44390D01*
X98075D01*
X98125Y44440D01*
Y44490D01*
X98075Y44540D01*
X98125Y44590D01*
Y44640D01*
X98075Y44540D02*
X97975D01*
X97625Y44690D02*
X97725Y44640D01*
X97825Y44540D01*
Y44440D01*
X97775Y44390D01*
X97675D01*
X97625Y44440D01*
Y44490D01*
X97675Y44540D01*
X97825D01*
X97542Y42762D02*
X97492Y42712D01*
X97393D01*
X97343Y42762D01*
Y42962D01*
X97393Y43012D01*
X97492D01*
X97542Y42962D01*
X97642Y42762D02*
X97692Y42712D01*
X97792D01*
X97842Y42762D01*
Y42812D01*
X97792Y42862D01*
X97842Y42912D01*
Y42962D01*
X97792Y43012D01*
X97692D01*
X97642Y42962D01*
Y42912D01*
X97692Y42862D01*
X97642Y42812D01*
Y42762D01*
X97692Y42862D02*
X97792D01*
X98142Y42712D02*
X97942D01*
Y42862D01*
X98042Y42812D01*
X98092D01*
X98142Y42862D01*
Y42962D01*
X98092Y43012D01*
X97992D01*
X97942Y42962D01*
X98324Y46214D02*
X98374Y46264D01*
X98474D01*
X98524Y46214D01*
Y46015D01*
X98474Y45965D01*
X98374D01*
X98324Y46015D01*
X98224Y46214D02*
X98174Y46264D01*
X98074D01*
X98024Y46214D01*
Y46164D01*
X98074Y46115D01*
X98024Y46065D01*
Y46015D01*
X98074Y45965D01*
X98174D01*
X98224Y46015D01*
Y46065D01*
X98174Y46115D01*
X98224Y46164D01*
Y46214D01*
X98174Y46115D02*
X98074D01*
X97774Y45965D02*
Y46264D01*
X97924Y46115D01*
X97724D01*
X89809Y39170D02*
X89759Y39220D01*
Y39320D01*
X89809Y39370D01*
X90009D01*
X90059Y39320D01*
Y39220D01*
X90009Y39170D01*
X89809Y39070D02*
X89759Y39020D01*
Y38920D01*
X89809Y38870D01*
X89859D01*
X89909Y38920D01*
X89959Y38870D01*
X90009D01*
X90059Y38920D01*
Y39020D01*
X90009Y39070D01*
X89959D01*
X89909Y39020D01*
X89859Y39070D01*
X89809D01*
X89909Y39020D02*
Y38920D01*
X89809Y38770D02*
X89759Y38720D01*
Y38620D01*
X89809Y38570D01*
X89859D01*
X89909Y38620D01*
Y38670D01*
Y38620D01*
X89959Y38570D01*
X90009D01*
X90059Y38620D01*
Y38720D01*
X90009Y38770D01*
X95476Y37545D02*
X95426Y37495D01*
X95326D01*
X95276Y37545D01*
Y37745D01*
X95326Y37795D01*
X95426D01*
X95476Y37745D01*
X95575Y37545D02*
X95625Y37495D01*
X95725D01*
X95775Y37545D01*
Y37595D01*
X95725Y37645D01*
X95775Y37695D01*
Y37745D01*
X95725Y37795D01*
X95625D01*
X95575Y37745D01*
Y37695D01*
X95625Y37645D01*
X95575Y37595D01*
Y37545D01*
X95625Y37645D02*
X95725D01*
X96075Y37795D02*
X95875D01*
X96075Y37595D01*
Y37545D01*
X96025Y37495D01*
X95925D01*
X95875Y37545D01*
X97044Y46608D02*
X97094Y46658D01*
X97194D01*
X97244Y46608D01*
Y46408D01*
X97194Y46358D01*
X97094D01*
X97044Y46408D01*
X96944Y46608D02*
X96894Y46658D01*
X96794D01*
X96744Y46608D01*
Y46558D01*
X96794Y46508D01*
X96744Y46458D01*
Y46408D01*
X96794Y46358D01*
X96894D01*
X96944Y46408D01*
Y46458D01*
X96894Y46508D01*
X96944Y46558D01*
Y46608D01*
X96894Y46508D02*
X96794D01*
X96644Y46358D02*
X96544D01*
X96594D01*
Y46658D01*
X96644Y46608D01*
X93310Y37644D02*
X93260Y37594D01*
X93160D01*
X93110Y37644D01*
Y37844D01*
X93160Y37894D01*
X93260D01*
X93310Y37844D01*
X93410Y37644D02*
X93460Y37594D01*
X93560D01*
X93610Y37644D01*
Y37694D01*
X93560Y37744D01*
X93610Y37794D01*
Y37844D01*
X93560Y37894D01*
X93460D01*
X93410Y37844D01*
Y37794D01*
X93460Y37744D01*
X93410Y37694D01*
Y37644D01*
X93460Y37744D02*
X93560D01*
X93710Y37644D02*
X93760Y37594D01*
X93860D01*
X93910Y37644D01*
Y37844D01*
X93860Y37894D01*
X93760D01*
X93710Y37844D01*
Y37644D01*
X99800Y42400D02*
X99850Y42450D01*
X99950D01*
X100000Y42400D01*
Y42200D01*
X99950Y42150D01*
X99850D01*
X99800Y42200D01*
X99700Y42450D02*
X99500D01*
Y42400D01*
X99700Y42200D01*
Y42150D01*
X99400Y42200D02*
X99350Y42150D01*
X99250D01*
X99200Y42200D01*
Y42400D01*
X99250Y42450D01*
X99350D01*
X99400Y42400D01*
Y42350D01*
X99350Y42300D01*
X99200D01*
X94780Y45722D02*
X94830Y45772D01*
X94930D01*
X94980Y45722D01*
Y45522D01*
X94930Y45472D01*
X94830D01*
X94780Y45522D01*
X94680Y45772D02*
X94480D01*
Y45722D01*
X94680Y45522D01*
Y45472D01*
X94381Y45722D02*
X94331Y45772D01*
X94231D01*
X94181Y45722D01*
Y45672D01*
X94231Y45622D01*
X94181Y45572D01*
Y45522D01*
X94231Y45472D01*
X94331D01*
X94381Y45522D01*
Y45572D01*
X94331Y45622D01*
X94381Y45672D01*
Y45722D01*
X94331Y45622D02*
X94231D01*
X92424Y39711D02*
X92374Y39661D01*
X92274D01*
X92224Y39711D01*
Y39911D01*
X92274Y39961D01*
X92374D01*
X92424Y39911D01*
X92524Y39661D02*
X92724D01*
Y39711D01*
X92524Y39911D01*
Y39961D01*
X92824Y39661D02*
X93024D01*
Y39711D01*
X92824Y39911D01*
Y39961D01*
X92910Y44738D02*
X92960Y44788D01*
X93060D01*
X93110Y44738D01*
Y44538D01*
X93060Y44488D01*
X92960D01*
X92910Y44538D01*
X92810Y44788D02*
X92610D01*
Y44738D01*
X92810Y44538D01*
Y44488D01*
X92310Y44788D02*
X92410Y44738D01*
X92510Y44638D01*
Y44538D01*
X92460Y44488D01*
X92360D01*
X92310Y44538D01*
Y44588D01*
X92360Y44638D01*
X92510D01*
X93852Y39038D02*
X93902Y38988D01*
Y38888D01*
X93852Y38838D01*
X93652D01*
X93602Y38888D01*
Y38988D01*
X93652Y39038D01*
X93902Y39138D02*
Y39338D01*
X93852D01*
X93652Y39138D01*
X93602D01*
X93902Y39638D02*
Y39438D01*
X93752D01*
X93802Y39538D01*
Y39588D01*
X93752Y39638D01*
X93652D01*
X93602Y39588D01*
Y39488D01*
X93652Y39438D01*
X96608Y45082D02*
X96658Y45032D01*
Y44932D01*
X96608Y44882D01*
X96408D01*
X96358Y44932D01*
Y45032D01*
X96408Y45082D01*
X96658Y45182D02*
Y45382D01*
X96608D01*
X96408Y45182D01*
X96358D01*
X96608Y45482D02*
X96658Y45532D01*
Y45632D01*
X96608Y45682D01*
X96558D01*
X96508Y45632D01*
Y45582D01*
Y45632D01*
X96458Y45682D01*
X96408D01*
X96358Y45632D01*
Y45532D01*
X96408Y45482D01*
X96700Y47750D02*
X96650Y47800D01*
Y47900D01*
X96700Y47950D01*
X96900D01*
X96950Y47900D01*
Y47800D01*
X96900Y47750D01*
X96650Y47650D02*
Y47450D01*
X96700D01*
X96900Y47650D01*
X96950D01*
Y47150D02*
Y47350D01*
X96750Y47150D01*
X96700D01*
X96650Y47200D01*
Y47300D01*
X96700Y47350D01*
X93304Y46214D02*
X93354Y46264D01*
X93454D01*
X93504Y46214D01*
Y46015D01*
X93454Y45965D01*
X93354D01*
X93304Y46015D01*
X93004Y46264D02*
X93104Y46214D01*
X93204Y46115D01*
Y46015D01*
X93154Y45965D01*
X93054D01*
X93004Y46015D01*
Y46065D01*
X93054Y46115D01*
X93204D01*
X92904Y46015D02*
X92854Y45965D01*
X92754D01*
X92704Y46015D01*
Y46214D01*
X92754Y46264D01*
X92854D01*
X92904Y46214D01*
Y46164D01*
X92854Y46115D01*
X92704D01*
X99708Y43549D02*
X99658Y43499D01*
X99558D01*
X99508Y43549D01*
Y43749D01*
X99558Y43799D01*
X99658D01*
X99708Y43749D01*
X100008Y43499D02*
X99908Y43549D01*
X99808Y43649D01*
Y43749D01*
X99858Y43799D01*
X99958D01*
X100008Y43749D01*
Y43699D01*
X99958Y43649D01*
X99808D01*
X100108Y43549D02*
X100158Y43499D01*
X100258D01*
X100308Y43549D01*
Y43599D01*
X100258Y43649D01*
X100308Y43699D01*
Y43749D01*
X100258Y43799D01*
X100158D01*
X100108Y43749D01*
Y43699D01*
X100158Y43649D01*
X100108Y43599D01*
Y43549D01*
X100158Y43649D02*
X100258D01*
X98872Y46558D02*
X98922Y46508D01*
Y46408D01*
X98872Y46358D01*
X98672D01*
X98622Y46408D01*
Y46508D01*
X98672Y46558D01*
X98922Y46858D02*
X98872Y46758D01*
X98772Y46658D01*
X98672D01*
X98622Y46708D01*
Y46808D01*
X98672Y46858D01*
X98722D01*
X98772Y46808D01*
Y46658D01*
X98922Y46958D02*
Y47158D01*
X98872D01*
X98672Y46958D01*
X98622D01*
X152800Y71300D02*
X153000D01*
Y71150D01*
X152900D01*
X153000D01*
Y71000D01*
X152700Y71300D02*
X152600D01*
X152650D01*
Y71000D01*
X152700D01*
X152600D01*
X152450Y71300D02*
Y71000D01*
X152300D01*
X152250Y71050D01*
Y71250D01*
X152300Y71300D01*
X152450D01*
X152150D02*
X151950D01*
Y71250D01*
X152150Y71050D01*
Y71000D01*
X153800Y37300D02*
X154000D01*
Y37150D01*
X153900D01*
X154000D01*
Y37000D01*
X153700Y37300D02*
X153600D01*
X153650D01*
Y37000D01*
X153700D01*
X153600D01*
X153450Y37300D02*
Y37000D01*
X153300D01*
X153250Y37050D01*
Y37250D01*
X153300Y37300D01*
X153450D01*
X153150Y37250D02*
X153100Y37300D01*
X153000D01*
X152950Y37250D01*
Y37200D01*
X153000Y37150D01*
X152950Y37100D01*
Y37050D01*
X153000Y37000D01*
X153100D01*
X153150Y37050D01*
Y37100D01*
X153100Y37150D01*
X153150Y37200D01*
Y37250D01*
X153100Y37150D02*
X153000D01*
X31195Y47105D02*
X31395D01*
Y46955D01*
X31295D01*
X31395D01*
Y46805D01*
X31095Y47105D02*
X30995D01*
X31045D01*
Y46805D01*
X31095D01*
X30995D01*
X30845Y47105D02*
Y46805D01*
X30695D01*
X30645Y46855D01*
Y47055D01*
X30695Y47105D01*
X30845D01*
X30545Y46805D02*
X30445D01*
X30495D01*
Y47105D01*
X30545Y47055D01*
X30295D02*
X30245Y47105D01*
X30145D01*
X30095Y47055D01*
Y46855D01*
X30145Y46805D01*
X30245D01*
X30295Y46855D01*
Y47055D01*
X88195Y38105D02*
X88395D01*
Y37955D01*
X88295D01*
X88395D01*
Y37805D01*
X88095Y38105D02*
X87995D01*
X88045D01*
Y37805D01*
X88095D01*
X87995D01*
X87845Y38105D02*
Y37805D01*
X87695D01*
X87645Y37855D01*
Y38055D01*
X87695Y38105D01*
X87845D01*
X87545Y37805D02*
X87445D01*
X87495D01*
Y38105D01*
X87545Y38055D01*
X87295Y37805D02*
X87195D01*
X87245D01*
Y38105D01*
X87295Y38055D01*
X103800Y50300D02*
X104000D01*
Y50150D01*
X103900D01*
X104000D01*
Y50000D01*
X103700Y50300D02*
X103600D01*
X103650D01*
Y50000D01*
X103700D01*
X103600D01*
X103450Y50300D02*
Y50000D01*
X103300D01*
X103250Y50050D01*
Y50250D01*
X103300Y50300D01*
X103450D01*
X103150Y50000D02*
X103050D01*
X103100D01*
Y50300D01*
X103150Y50250D01*
X102700Y50000D02*
X102900D01*
X102700Y50200D01*
Y50250D01*
X102750Y50300D01*
X102850D01*
X102900Y50250D01*
X31255Y40705D02*
X31305Y40655D01*
Y40555D01*
X31255Y40505D01*
X31055D01*
X31005Y40555D01*
Y40655D01*
X31055Y40705D01*
X31005Y40805D02*
Y40905D01*
Y40855D01*
X31305D01*
X31255Y40805D01*
X31005Y41255D02*
Y41055D01*
X31205Y41255D01*
X31255D01*
X31305Y41205D01*
Y41105D01*
X31255Y41055D01*
X31005Y41555D02*
Y41355D01*
X31205Y41555D01*
X31255D01*
X31305Y41505D01*
Y41405D01*
X31255Y41355D01*
M02*
