%FSLAX24Y24*%
%MOIN*%
G70*
G01*
G75*
G04 Layer_Color=32896*
%ADD10R,0.0433X0.0394*%
%ADD11R,0.0394X0.0433*%
%ADD12R,0.0866X0.1024*%
%ADD13R,0.1024X0.0866*%
%ADD14C,0.0157*%
%ADD15R,0.0354X0.0276*%
%ADD16R,0.0157X0.0709*%
%ADD17R,0.0709X0.0157*%
%ADD18R,0.0150X0.0600*%
%ADD19R,0.1969X0.1181*%
%ADD20R,0.0394X0.1929*%
%ADD21R,0.1063X0.0630*%
%ADD22O,0.0409X0.0150*%
%ADD23R,0.1614X0.1024*%
%ADD24R,0.0610X0.0197*%
%ADD25R,0.0610X0.0197*%
%ADD26R,0.0197X0.0610*%
%ADD27R,0.0551X0.0787*%
%ADD28R,0.0630X0.1063*%
%ADD29R,0.0709X0.0630*%
%ADD30R,0.0358X0.0480*%
%ADD31R,0.0630X0.0709*%
%ADD32R,0.0512X0.0591*%
%ADD33R,0.0866X0.0157*%
%ADD34R,0.0866X0.0157*%
%ADD35R,0.0571X0.0217*%
%ADD36R,0.1010X0.0620*%
%ADD37R,0.2560X0.0360*%
%ADD38R,0.0775X0.0620*%
%ADD39R,0.0409X0.0150*%
%ADD40R,0.1024X0.0945*%
%ADD41R,0.0157X0.0472*%
%ADD42C,0.0060*%
%ADD43C,0.0180*%
%ADD44C,0.0160*%
%ADD45C,0.0140*%
%ADD46C,0.0240*%
%ADD47C,0.0120*%
%ADD48C,0.0500*%
%ADD49C,0.0550*%
%ADD50C,0.1063*%
%ADD51C,0.1300*%
%ADD52C,0.0945*%
%ADD53C,0.0591*%
%ADD54R,0.0591X0.0591*%
%ADD55C,0.0700*%
%ADD56C,0.1600*%
%ADD57C,0.0200*%
%ADD58C,0.0300*%
%ADD59C,0.0240*%
%ADD60C,0.0280*%
%ADD61C,0.0420*%
%ADD62C,0.0080*%
%ADD63C,0.0100*%
%ADD64R,0.0276X0.0354*%
%ADD65C,0.0098*%
%ADD66C,0.0039*%
%ADD67C,0.0079*%
%ADD68C,0.0040*%
%ADD69C,0.0070*%
%ADD70C,0.0150*%
%ADD71C,0.0600*%
D62*
X120000Y34874D02*
Y39096D01*
X141711Y34874D02*
Y39074D01*
X120006Y34852D02*
X141699D01*
X119995Y39124D02*
X141699D01*
X173144Y43812D02*
Y65517D01*
X168872Y43812D02*
Y65505D01*
X168894Y43801D02*
X173094D01*
X168894Y65511D02*
X173116D01*
D67*
X44102Y54851D02*
X44298D01*
X26843Y50069D02*
X27157D01*
X102802Y73666D02*
X102998D01*
X105634Y74302D02*
Y74498D01*
X106102Y71866D02*
X106298D01*
X103666Y71102D02*
Y71298D01*
X102902Y71866D02*
X103098D01*
X99334Y73502D02*
Y73698D01*
X45202Y67451D02*
X45398D01*
X45202Y69549D02*
X45398D01*
X48902Y69951D02*
X49098D01*
X48902Y66849D02*
X49098D01*
X26269Y47643D02*
Y47957D01*
Y46043D02*
Y46357D01*
Y42043D02*
Y42357D01*
X31331Y47643D02*
Y47957D01*
Y46143D02*
Y46457D01*
Y42043D02*
Y42357D01*
X28643Y41269D02*
X28957D01*
X28643Y48731D02*
X28957D01*
X31331Y44543D02*
Y44857D01*
X34902Y55149D02*
X35098D01*
X35202Y50849D02*
X35398D01*
X41749Y56802D02*
Y56998D01*
X37451Y57402D02*
Y57598D01*
X37202Y48751D02*
X37398D01*
X43702Y51051D02*
X43898D01*
X38049Y54502D02*
Y54698D01*
X41551Y54502D02*
Y54698D01*
X37949Y51302D02*
Y51498D01*
X41551Y51302D02*
Y51498D01*
X38249Y48902D02*
Y49098D01*
X41202Y50051D02*
X41398D01*
X37849Y56002D02*
Y56198D01*
X35702Y50849D02*
X35898D01*
X39249Y51302D02*
Y51498D01*
X38102Y54251D02*
X38298D01*
X38102Y51749D02*
X38298D01*
X41202Y54251D02*
X41398D01*
X41202Y52851D02*
X41398D01*
X39249Y54502D02*
Y54698D01*
X43602Y54851D02*
X43798D01*
X42402Y51049D02*
X42598D01*
X35702Y54451D02*
X35898D01*
D69*
X35925Y52875D02*
X35875Y52825D01*
X35775D01*
X35725Y52875D01*
Y53075D01*
X35775Y53125D01*
X35875D01*
X35925Y53075D01*
X36225Y52825D02*
X36025D01*
Y52975D01*
X36125Y52925D01*
X36175D01*
X36225Y52975D01*
Y53075D01*
X36175Y53125D01*
X36075D01*
X36025Y53075D01*
X36525Y52825D02*
X36425Y52875D01*
X36325Y52975D01*
Y53075D01*
X36375Y53125D01*
X36475D01*
X36525Y53075D01*
Y53025D01*
X36475Y52975D01*
X36325D01*
X42375Y52625D02*
X42425Y52675D01*
X42525D01*
X42575Y52625D01*
Y52425D01*
X42525Y52375D01*
X42425D01*
X42375Y52425D01*
X42075Y52675D02*
X42275D01*
Y52525D01*
X42175Y52575D01*
X42125D01*
X42075Y52525D01*
Y52425D01*
X42125Y52375D01*
X42225D01*
X42275Y52425D01*
X41775Y52675D02*
X41975D01*
Y52525D01*
X41875Y52575D01*
X41825D01*
X41775Y52525D01*
Y52425D01*
X41825Y52375D01*
X41925D01*
X41975Y52425D01*
X43825Y53275D02*
X43775Y53225D01*
X43675D01*
X43625Y53275D01*
Y53475D01*
X43675Y53525D01*
X43775D01*
X43825Y53475D01*
X44125Y53225D02*
X43925D01*
Y53375D01*
X44025Y53325D01*
X44075D01*
X44125Y53375D01*
Y53475D01*
X44075Y53525D01*
X43975D01*
X43925Y53475D01*
X44375Y53525D02*
Y53225D01*
X44225Y53375D01*
X44425D01*
X40825Y54725D02*
X40875Y54675D01*
Y54575D01*
X40825Y54525D01*
X40625D01*
X40575Y54575D01*
Y54675D01*
X40625Y54725D01*
X40875Y55025D02*
Y54825D01*
X40725D01*
X40775Y54925D01*
Y54975D01*
X40725Y55025D01*
X40625D01*
X40575Y54975D01*
Y54875D01*
X40625Y54825D01*
X40825Y55125D02*
X40875Y55175D01*
Y55275D01*
X40825Y55325D01*
X40775D01*
X40725Y55275D01*
Y55225D01*
Y55275D01*
X40675Y55325D01*
X40625D01*
X40575Y55275D01*
Y55175D01*
X40625Y55125D01*
X41440Y51325D02*
X41390Y51275D01*
X41290D01*
X41240Y51325D01*
Y51525D01*
X41290Y51575D01*
X41390D01*
X41440Y51525D01*
X41740Y51275D02*
X41540D01*
Y51425D01*
X41640Y51375D01*
X41690D01*
X41740Y51425D01*
Y51525D01*
X41690Y51575D01*
X41590D01*
X41540Y51525D01*
X42040Y51575D02*
X41840D01*
X42040Y51375D01*
Y51325D01*
X41990Y51275D01*
X41890D01*
X41840Y51325D01*
X41425Y52675D02*
X41375Y52625D01*
X41275D01*
X41225Y52675D01*
Y52875D01*
X41275Y52925D01*
X41375D01*
X41425Y52875D01*
X41725Y52625D02*
X41525D01*
Y52775D01*
X41625Y52725D01*
X41675D01*
X41725Y52775D01*
Y52875D01*
X41675Y52925D01*
X41575D01*
X41525Y52875D01*
X41825Y52925D02*
X41925D01*
X41875D01*
Y52625D01*
X41825Y52675D01*
X38075Y53325D02*
X38125Y53375D01*
X38225D01*
X38275Y53325D01*
Y53125D01*
X38225Y53075D01*
X38125D01*
X38075Y53125D01*
X37775Y53375D02*
X37975D01*
Y53225D01*
X37875Y53275D01*
X37825D01*
X37775Y53225D01*
Y53125D01*
X37825Y53075D01*
X37925D01*
X37975Y53125D01*
X37675Y53325D02*
X37625Y53375D01*
X37525D01*
X37475Y53325D01*
Y53125D01*
X37525Y53075D01*
X37625D01*
X37675Y53125D01*
Y53325D01*
X38325Y52675D02*
X38275Y52625D01*
X38175D01*
X38125Y52675D01*
Y52875D01*
X38175Y52925D01*
X38275D01*
X38325Y52875D01*
X38575Y52925D02*
Y52625D01*
X38425Y52775D01*
X38625D01*
X38725Y52875D02*
X38775Y52925D01*
X38875D01*
X38925Y52875D01*
Y52675D01*
X38875Y52625D01*
X38775D01*
X38725Y52675D01*
Y52725D01*
X38775Y52775D01*
X38925D01*
X40825Y51525D02*
X40875Y51475D01*
Y51375D01*
X40825Y51325D01*
X40625D01*
X40575Y51375D01*
Y51475D01*
X40625Y51525D01*
X40575Y51775D02*
X40875D01*
X40725Y51625D01*
Y51825D01*
X40875Y51925D02*
Y52125D01*
X40825D01*
X40625Y51925D01*
X40575D01*
X35675Y52425D02*
X35725Y52475D01*
X35825D01*
X35875Y52425D01*
Y52225D01*
X35825Y52175D01*
X35725D01*
X35675Y52225D01*
X35425Y52175D02*
Y52475D01*
X35575Y52325D01*
X35375D01*
X35125Y52175D02*
Y52475D01*
X35275Y52325D01*
X35075D01*
X39425Y56225D02*
X39475Y56175D01*
Y56075D01*
X39425Y56025D01*
X39225D01*
X39175Y56075D01*
Y56175D01*
X39225Y56225D01*
X39175Y56475D02*
X39475D01*
X39325Y56325D01*
Y56525D01*
X39425Y56625D02*
X39475Y56675D01*
Y56775D01*
X39425Y56825D01*
X39375D01*
X39325Y56775D01*
Y56725D01*
Y56775D01*
X39275Y56825D01*
X39225D01*
X39175Y56775D01*
Y56675D01*
X39225Y56625D01*
X41425Y48475D02*
X41375Y48425D01*
X41275D01*
X41225Y48475D01*
Y48675D01*
X41275Y48725D01*
X41375D01*
X41425Y48675D01*
X41675Y48725D02*
Y48425D01*
X41525Y48575D01*
X41725D01*
X42025Y48725D02*
X41825D01*
X42025Y48525D01*
Y48475D01*
X41975Y48425D01*
X41875D01*
X41825Y48475D01*
X39825Y49125D02*
X39875Y49075D01*
Y48975D01*
X39825Y48925D01*
X39625D01*
X39575Y48975D01*
Y49075D01*
X39625Y49125D01*
X39575Y49375D02*
X39875D01*
X39725Y49225D01*
Y49425D01*
X39575Y49525D02*
Y49625D01*
Y49575D01*
X39875D01*
X39825Y49525D01*
X39975Y51275D02*
X39925Y51325D01*
Y51425D01*
X39975Y51475D01*
X40175D01*
X40225Y51425D01*
Y51325D01*
X40175Y51275D01*
X39975Y51175D02*
X39925Y51125D01*
Y51025D01*
X39975Y50975D01*
X40025D01*
X40075Y51025D01*
Y51075D01*
Y51025D01*
X40125Y50975D01*
X40175D01*
X40225Y51025D01*
Y51125D01*
X40175Y51175D01*
X40225Y50725D02*
X39925D01*
X40075Y50875D01*
Y50675D01*
X39525Y51525D02*
X39575Y51475D01*
Y51375D01*
X39525Y51325D01*
X39325D01*
X39275Y51375D01*
Y51475D01*
X39325Y51525D01*
X39525Y51625D02*
X39575Y51675D01*
Y51775D01*
X39525Y51825D01*
X39475D01*
X39425Y51775D01*
Y51725D01*
Y51775D01*
X39375Y51825D01*
X39325D01*
X39275Y51775D01*
Y51675D01*
X39325Y51625D01*
X39525Y51925D02*
X39575Y51975D01*
Y52075D01*
X39525Y52125D01*
X39475D01*
X39425Y52075D01*
Y52025D01*
Y52075D01*
X39375Y52125D01*
X39325D01*
X39275Y52075D01*
Y51975D01*
X39325Y51925D01*
X39975Y54475D02*
X39925Y54525D01*
Y54625D01*
X39975Y54675D01*
X40175D01*
X40225Y54625D01*
Y54525D01*
X40175Y54475D01*
X39975Y54375D02*
X39925Y54325D01*
Y54225D01*
X39975Y54175D01*
X40025D01*
X40075Y54225D01*
Y54275D01*
Y54225D01*
X40125Y54175D01*
X40175D01*
X40225Y54225D01*
Y54325D01*
X40175Y54375D01*
X40225Y53875D02*
Y54075D01*
X40025Y53875D01*
X39975D01*
X39925Y53925D01*
Y54025D01*
X39975Y54075D01*
X39625Y54725D02*
X39675Y54675D01*
Y54575D01*
X39625Y54525D01*
X39425D01*
X39375Y54575D01*
Y54675D01*
X39425Y54725D01*
X39625Y54825D02*
X39675Y54875D01*
Y54975D01*
X39625Y55025D01*
X39575D01*
X39525Y54975D01*
Y54925D01*
Y54975D01*
X39475Y55025D01*
X39425D01*
X39375Y54975D01*
Y54875D01*
X39425Y54825D01*
X39375Y55125D02*
Y55225D01*
Y55175D01*
X39675D01*
X39625Y55125D01*
X43925Y49475D02*
X43875Y49425D01*
X43775D01*
X43725Y49475D01*
Y49675D01*
X43775Y49725D01*
X43875D01*
X43925Y49675D01*
X44225Y49725D02*
X44025D01*
X44225Y49525D01*
Y49475D01*
X44175Y49425D01*
X44075D01*
X44025Y49475D01*
X44325Y49425D02*
X44525D01*
Y49475D01*
X44325Y49675D01*
Y49725D01*
X37425Y47175D02*
X37375Y47125D01*
X37275D01*
X37225Y47175D01*
Y47375D01*
X37275Y47425D01*
X37375D01*
X37425Y47375D01*
X37725Y47425D02*
X37525D01*
X37725Y47225D01*
Y47175D01*
X37675Y47125D01*
X37575D01*
X37525Y47175D01*
X38025Y47125D02*
X37925Y47175D01*
X37825Y47275D01*
Y47375D01*
X37875Y47425D01*
X37975D01*
X38025Y47375D01*
Y47325D01*
X37975Y47275D01*
X37825D01*
X35875Y57375D02*
X35825Y57425D01*
Y57525D01*
X35875Y57575D01*
X36075D01*
X36125Y57525D01*
Y57425D01*
X36075Y57375D01*
X36125Y57075D02*
Y57275D01*
X35925Y57075D01*
X35875D01*
X35825Y57125D01*
Y57225D01*
X35875Y57275D01*
X35825Y56775D02*
Y56975D01*
X35975D01*
X35925Y56875D01*
Y56825D01*
X35975Y56775D01*
X36075D01*
X36125Y56825D01*
Y56925D01*
X36075Y56975D01*
X43325Y57025D02*
X43375Y56975D01*
Y56875D01*
X43325Y56825D01*
X43125D01*
X43075Y56875D01*
Y56975D01*
X43125Y57025D01*
X43075Y57325D02*
Y57125D01*
X43275Y57325D01*
X43325D01*
X43375Y57275D01*
Y57175D01*
X43325Y57125D01*
X43075Y57575D02*
X43375D01*
X43225Y57425D01*
Y57625D01*
X44325Y53275D02*
X44275Y53225D01*
X44175D01*
X44125Y53275D01*
Y53475D01*
X44175Y53525D01*
X44275D01*
X44325Y53475D01*
X44625Y53525D02*
X44425D01*
X44625Y53325D01*
Y53275D01*
X44575Y53225D01*
X44475D01*
X44425Y53275D01*
X44725D02*
X44775Y53225D01*
X44875D01*
X44925Y53275D01*
Y53325D01*
X44875Y53375D01*
X44825D01*
X44875D01*
X44925Y53425D01*
Y53475D01*
X44875Y53525D01*
X44775D01*
X44725Y53475D01*
X35175Y52425D02*
X35225Y52475D01*
X35325D01*
X35375Y52425D01*
Y52225D01*
X35325Y52175D01*
X35225D01*
X35175Y52225D01*
X34875Y52175D02*
X35075D01*
X34875Y52375D01*
Y52425D01*
X34925Y52475D01*
X35025D01*
X35075Y52425D01*
X34575Y52175D02*
X34775D01*
X34575Y52375D01*
Y52425D01*
X34625Y52475D01*
X34725D01*
X34775Y52425D01*
X34875Y56725D02*
X34925Y56775D01*
X35025D01*
X35075Y56725D01*
Y56525D01*
X35025Y56475D01*
X34925D01*
X34875Y56525D01*
X34575Y56475D02*
X34775D01*
X34575Y56675D01*
Y56725D01*
X34625Y56775D01*
X34725D01*
X34775Y56725D01*
X34475Y56475D02*
X34375D01*
X34425D01*
Y56775D01*
X34475Y56725D01*
X102775Y75242D02*
X102825Y75292D01*
X102925D01*
X102975Y75242D01*
Y75042D01*
X102925Y74992D01*
X102825D01*
X102775Y75042D01*
X102675Y75242D02*
X102625Y75292D01*
X102525D01*
X102475Y75242D01*
Y75192D01*
X102525Y75142D01*
X102475Y75092D01*
Y75042D01*
X102525Y74992D01*
X102625D01*
X102675Y75042D01*
Y75092D01*
X102625Y75142D01*
X102675Y75192D01*
Y75242D01*
X102625Y75142D02*
X102525D01*
X102175Y74992D02*
X102375D01*
X102175Y75192D01*
Y75242D01*
X102225Y75292D01*
X102325D01*
X102375Y75242D01*
X104058Y74275D02*
X104008Y74325D01*
Y74425D01*
X104058Y74475D01*
X104258D01*
X104308Y74425D01*
Y74325D01*
X104258Y74275D01*
X104058Y74175D02*
X104008Y74125D01*
Y74025D01*
X104058Y73975D01*
X104108D01*
X104158Y74025D01*
X104208Y73975D01*
X104258D01*
X104308Y74025D01*
Y74125D01*
X104258Y74175D01*
X104208D01*
X104158Y74125D01*
X104108Y74175D01*
X104058D01*
X104158Y74125D02*
Y74025D01*
X104308Y73875D02*
Y73775D01*
Y73825D01*
X104008D01*
X104058Y73875D01*
X106075Y73442D02*
X106125Y73492D01*
X106225D01*
X106275Y73442D01*
Y73242D01*
X106225Y73192D01*
X106125D01*
X106075Y73242D01*
X105975Y73442D02*
X105925Y73492D01*
X105825D01*
X105775Y73442D01*
Y73392D01*
X105825Y73342D01*
X105775Y73292D01*
Y73242D01*
X105825Y73192D01*
X105925D01*
X105975Y73242D01*
Y73292D01*
X105925Y73342D01*
X105975Y73392D01*
Y73442D01*
X105925Y73342D02*
X105825D01*
X105675Y73442D02*
X105625Y73492D01*
X105525D01*
X105475Y73442D01*
Y73242D01*
X105525Y73192D01*
X105625D01*
X105675Y73242D01*
Y73442D01*
X105242Y71325D02*
X105292Y71275D01*
Y71175D01*
X105242Y71125D01*
X105042D01*
X104992Y71175D01*
Y71275D01*
X105042Y71325D01*
X105292Y71425D02*
Y71625D01*
X105242D01*
X105042Y71425D01*
X104992D01*
X105042Y71725D02*
X104992Y71775D01*
Y71875D01*
X105042Y71925D01*
X105242D01*
X105292Y71875D01*
Y71775D01*
X105242Y71725D01*
X105192D01*
X105142Y71775D01*
Y71925D01*
X102875Y73442D02*
X102925Y73492D01*
X103025D01*
X103075Y73442D01*
Y73242D01*
X103025Y73192D01*
X102925D01*
X102875Y73242D01*
X102775Y73492D02*
X102575D01*
Y73442D01*
X102775Y73242D01*
Y73192D01*
X102475Y73442D02*
X102425Y73492D01*
X102325D01*
X102275Y73442D01*
Y73392D01*
X102325Y73342D01*
X102275Y73292D01*
Y73242D01*
X102325Y73192D01*
X102425D01*
X102475Y73242D01*
Y73292D01*
X102425Y73342D01*
X102475Y73392D01*
Y73442D01*
X102425Y73342D02*
X102325D01*
X97758Y73475D02*
X97708Y73525D01*
Y73625D01*
X97758Y73675D01*
X97958D01*
X98008Y73625D01*
Y73525D01*
X97958Y73475D01*
X97708Y73375D02*
Y73175D01*
X97758D01*
X97958Y73375D01*
X98008D01*
X97708Y73075D02*
Y72875D01*
X97758D01*
X97958Y73075D01*
X98008D01*
X48875Y68425D02*
X48925Y68475D01*
X49025D01*
X49075Y68425D01*
Y68225D01*
X49025Y68175D01*
X48925D01*
X48875Y68225D01*
X48775Y68475D02*
X48575D01*
Y68425D01*
X48775Y68225D01*
Y68175D01*
X48275Y68475D02*
X48375Y68425D01*
X48475Y68325D01*
Y68225D01*
X48425Y68175D01*
X48325D01*
X48275Y68225D01*
Y68275D01*
X48325Y68325D01*
X48475D01*
X49125Y68375D02*
X49075Y68325D01*
X48975D01*
X48925Y68375D01*
Y68575D01*
X48975Y68625D01*
X49075D01*
X49125Y68575D01*
X49225Y68325D02*
X49425D01*
Y68375D01*
X49225Y68575D01*
Y68625D01*
X49725Y68325D02*
X49525D01*
Y68475D01*
X49625Y68425D01*
X49675D01*
X49725Y68475D01*
Y68575D01*
X49675Y68625D01*
X49575D01*
X49525Y68575D01*
X45175Y71125D02*
X45225Y71175D01*
X45325D01*
X45375Y71125D01*
Y70925D01*
X45325Y70875D01*
X45225D01*
X45175Y70925D01*
X45075Y71175D02*
X44875D01*
Y71125D01*
X45075Y70925D01*
Y70875D01*
X44625D02*
Y71175D01*
X44775Y71025D01*
X44575D01*
X45425Y65875D02*
X45375Y65825D01*
X45275D01*
X45225Y65875D01*
Y66075D01*
X45275Y66125D01*
X45375D01*
X45425Y66075D01*
X45525Y65825D02*
X45725D01*
Y65875D01*
X45525Y66075D01*
Y66125D01*
X45825Y65875D02*
X45875Y65825D01*
X45975D01*
X46025Y65875D01*
Y65925D01*
X45975Y65975D01*
X45925D01*
X45975D01*
X46025Y66025D01*
Y66075D01*
X45975Y66125D01*
X45875D01*
X45825Y66075D01*
X172889Y66166D02*
X172939Y66216D01*
X173039D01*
X173089Y66166D01*
Y65966D01*
X173039Y65916D01*
X172939D01*
X172889Y65966D01*
X172639Y66216D02*
X172739D01*
X172789Y66166D01*
Y65966D01*
X172739Y65916D01*
X172639D01*
X172589Y65966D01*
Y66166D01*
X172639Y66216D01*
X172489Y65916D02*
Y66216D01*
X172289Y65916D01*
Y66216D01*
X172189Y65916D02*
Y66216D01*
X171989Y65916D01*
Y66216D01*
X171889Y65916D02*
X171790D01*
X171840D01*
Y66216D01*
X171889Y66166D01*
X171640Y66216D02*
X171440D01*
Y66166D01*
X171640Y65966D01*
Y65916D01*
X33145Y44765D02*
X33195Y44715D01*
Y44615D01*
X33145Y44565D01*
X32945D01*
X32895Y44615D01*
Y44715D01*
X32945Y44765D01*
X32895Y44865D02*
Y44965D01*
Y44915D01*
X33195D01*
X33145Y44865D01*
X32895Y45265D02*
X33195D01*
X33045Y45115D01*
Y45315D01*
X27065Y48255D02*
X27015Y48205D01*
X26915D01*
X26865Y48255D01*
Y48455D01*
X26915Y48505D01*
X27015D01*
X27065Y48455D01*
X27165Y48505D02*
X27265D01*
X27215D01*
Y48205D01*
X27165Y48255D01*
X27415D02*
X27465Y48205D01*
X27565D01*
X27615Y48255D01*
Y48305D01*
X27565Y48355D01*
X27515D01*
X27565D01*
X27615Y48405D01*
Y48455D01*
X27565Y48505D01*
X27465D01*
X27415Y48455D01*
X28735Y50545D02*
X28785Y50595D01*
X28885D01*
X28935Y50545D01*
Y50345D01*
X28885Y50295D01*
X28785D01*
X28735Y50345D01*
X28635Y50295D02*
X28535D01*
X28585D01*
Y50595D01*
X28635Y50545D01*
X28185Y50295D02*
X28385D01*
X28185Y50495D01*
Y50545D01*
X28235Y50595D01*
X28335D01*
X28385Y50545D01*
X28865Y39455D02*
X28815Y39405D01*
X28715D01*
X28665Y39455D01*
Y39655D01*
X28715Y39705D01*
X28815D01*
X28865Y39655D01*
X28965Y39705D02*
X29065D01*
X29015D01*
Y39405D01*
X28965Y39455D01*
X29215Y39705D02*
X29315D01*
X29265D01*
Y39405D01*
X29215Y39455D01*
X33145Y42265D02*
X33195Y42215D01*
Y42115D01*
X33145Y42065D01*
X32945D01*
X32895Y42115D01*
Y42215D01*
X32945Y42265D01*
X32895Y42365D02*
Y42465D01*
Y42415D01*
X33195D01*
X33145Y42365D01*
Y42615D02*
X33195Y42665D01*
Y42765D01*
X33145Y42815D01*
X32945D01*
X32895Y42765D01*
Y42665D01*
X32945Y42615D01*
X33145D01*
X31595Y45515D02*
X31545Y45465D01*
X31445D01*
X31395Y45515D01*
Y45715D01*
X31445Y45765D01*
X31545D01*
X31595Y45715D01*
X31695D02*
X31745Y45765D01*
X31845D01*
X31895Y45715D01*
Y45515D01*
X31845Y45465D01*
X31745D01*
X31695Y45515D01*
Y45565D01*
X31745Y45615D01*
X31895D01*
X31595Y47015D02*
X31545Y46965D01*
X31445D01*
X31395Y47015D01*
Y47215D01*
X31445Y47265D01*
X31545D01*
X31595Y47215D01*
X31695Y47015D02*
X31745Y46965D01*
X31845D01*
X31895Y47015D01*
Y47065D01*
X31845Y47115D01*
X31895Y47165D01*
Y47215D01*
X31845Y47265D01*
X31745D01*
X31695Y47215D01*
Y47165D01*
X31745Y47115D01*
X31695Y47065D01*
Y47015D01*
X31745Y47115D02*
X31845D01*
X26005Y42985D02*
X26055Y43035D01*
X26155D01*
X26205Y42985D01*
Y42785D01*
X26155Y42735D01*
X26055D01*
X26005Y42785D01*
X25905Y43035D02*
X25705D01*
Y42985D01*
X25905Y42785D01*
Y42735D01*
X26005Y46985D02*
X26055Y47035D01*
X26155D01*
X26205Y46985D01*
Y46785D01*
X26155Y46735D01*
X26055D01*
X26005Y46785D01*
X25705Y47035D02*
X25905D01*
Y46885D01*
X25805Y46935D01*
X25755D01*
X25705Y46885D01*
Y46785D01*
X25755Y46735D01*
X25855D01*
X25905Y46785D01*
X26005Y48585D02*
X26055Y48635D01*
X26155D01*
X26205Y48585D01*
Y48385D01*
X26155Y48335D01*
X26055D01*
X26005Y48385D01*
X25755Y48335D02*
Y48635D01*
X25905Y48485D01*
X25705D01*
X119346Y38869D02*
X119296Y38919D01*
Y39019D01*
X119346Y39069D01*
X119546D01*
X119596Y39019D01*
Y38919D01*
X119546Y38869D01*
X119296Y38619D02*
Y38719D01*
X119346Y38769D01*
X119546D01*
X119596Y38719D01*
Y38619D01*
X119546Y38569D01*
X119346D01*
X119296Y38619D01*
X119596Y38469D02*
X119296D01*
X119596Y38269D01*
X119296D01*
X119596Y38169D02*
X119296D01*
X119596Y37969D01*
X119296D01*
X119596Y37869D02*
Y37770D01*
Y37819D01*
X119296D01*
X119346Y37869D01*
X119546Y37620D02*
X119596Y37570D01*
Y37470D01*
X119546Y37420D01*
X119346D01*
X119296Y37470D01*
Y37570D01*
X119346Y37620D01*
X119396D01*
X119446Y37570D01*
Y37420D01*
M02*
