M48
;Layer_Color=15461320
;FILE_FORMAT=2:4
INCH,LZ
;TYPE=PLATED
T1F00S00C0.0135
T2F00S00C0.0200
T3F00S00C0.0350
T4F00S00C0.0354
T5F00S00C0.0394
T6F00S00C0.0400
T7F00S00C0.0530
T8F00S00C0.0531
T9F00S00C0.1496
%
T01
X0329Y0311
X03105Y03935
X0303Y0393
X03035Y0389
X0303Y0406
X0296Y0405
X0287Y0407
X028878Y041522
X02865Y04185
X0293Y0422
X028691Y043491
X028644Y044056
X0288Y0444
X029722Y045222
X0302Y04535
X030756Y045344
X0298Y0465
X028738Y046638
X0275Y0415
X02845Y03935
X029
X02165Y03945
X02115Y0398
Y04025
Y03875
Y04175
X023109Y036891
X0326Y0375
X0334Y0373
X0335Y0379
Y0388
X033
X0328Y0393
X0323
Y0408
X0328
X0335Y041
Y0415
X033416Y041916
X0347Y0418
X0351Y0417
X0346Y0442
X0335Y0439
X033531Y043432
X033531Y044868
X0328Y0452
X0323
X0318Y0451
X0319Y04655
X0323Y0465
X031691Y040491
X0324Y0321
X0355Y0333
X036675Y033725
X037725
X03834Y03404
X0376Y03565
X0364Y0356
X0346Y0343
X0404Y035
X04015Y0357
X04167Y03593
X04277Y03237
X0434Y0323
X045Y0345
X0464Y0347
X0481Y0384
X0509Y0383
X053Y0387
X0535Y0359
X07025Y0379
X0705Y0398
X0713Y0393
X0728Y0382
X072091Y037109
X073765Y036535
X0741Y0342
X0723Y0314
X0688Y0317
X07275Y04075
X073665Y0412
X07475Y04025
X07465Y03975
X04435Y04905
X04185Y049
X041Y0502
X0411Y052
X041Y0537
X0411Y0554
X035Y0501
X034Y051
X0328Y0484
Y0471
X036291Y046891
X0311Y0471
X0305Y0473
X0296
T02
X0257Y0328
X0276
X0298Y0315
X0304Y0348
X0301Y0359
X0286
X0271
X0269Y0391
X0274
X027Y0446
X0287Y045
X0253Y0455
X0246
X0233
X0215Y0457
X0216Y0451
Y0445
X02135Y04675
X0232Y043
X024651Y043749
X033068Y044131
Y041631
X0338Y0402
X0345Y0376
X0378Y0378
X0402Y0375
X0419Y0367
X0418Y0347
X0398Y0328
X0335Y0344
X0321Y0339
Y0316
X034208Y045892
X0344Y0463
X0398Y0421
X0409
X046335Y039335
X04466Y03694
X0319Y0485
X0328Y0521
X031087Y052187
X030457Y048957
X0293Y0478
X0285Y0484
X0282Y0489
X028144Y046956
X02455Y04955
X02135Y04975
Y04875
X0215Y048
Y0475
X022Y047
X028Y058
X0289
X0299
T03
X0458Y04
Y041
Y042
Y043
Y044
Y045
Y046
X0468
Y045
Y044
Y043
Y042
Y041
Y04
X0478
X0488
X0498
X0508
X0518
X0528
X0538
X0548
X0558
Y039
X0568
X0578
X0588
X0598
X0608
X0618
Y038
X0608
X0598
X0588
X0578
X0568
X0558
Y037
X0568
X0578
X0588
X0598
X0608
X0618
Y036
X0608
X0598
X0588
X0578
X0568
X0558
Y035
X0568
X0578
X0588
X0598
X0608
X0618
Y04
X0608
X0598
X0588
X0578
X0568
Y041
X0558
X0548
X0538
X0528
X0518
X0508
X0498
X0488
X0478
Y042
X0488
X0498
X0508
X0518
X0528
X0538
X0548
X0558
X0568
X0578
Y041
X0588
X0598
X0608
X0618
Y042
X0608
X0598
X0588
Y043
X0578
X0568
X0558
X0548
X0538
X0528
X0518
X0508
X0498
X0488
X0478
Y044
X0488
X0498
X0508
X0518
X0528
X0538
X0548
X0558
X0568
X0578
X0588
X0598
Y043
X0608
X0618
Y044
X0608
Y045
X0598
X0588
X0578
X0568
X0558
X0548
X0538
X0528
X0518
X0508
X0498
X0488
X0478
Y046
X0488
X0498
X0508
X0518
X0528
X0538
X0548
X0558
X0568
X0578
X0588
X0598
X0608
X0618
Y045
X0628
Y044
Y043
Y042
Y041
Y04
Y039
X0638
X0648
X0658
X0668
X0678
X0688
Y038
X0678
X0668
X0658
X0648
X0638
X0628
Y037
X0638
X0648
X0658
X0668
X0678
X0688
Y036
X0678
X0668
X0658
X0648
X0638
X0628
Y035
X0638
X0648
X0658
X0668
X0678
X0688
Y04
X0678
X0668
X0658
X0648
X0638
Y041
X0648
X0658
X0668
X0678
X0688
Y042
X0678
X0668
X0658
X0648
X0638
Y043
X0648
X0658
X0668
X0678
X0688
Y044
X0678
X0668
X0658
X0648
X0638
Y045
X0648
X0658
X0668
X0678
X0688
X0698
Y044
X0708
X0718
X0728
X0738
X0748
Y045
X0738
X0728
X0718
X0708
Y046
X0698
X0688
X0678
X0668
X0658
X0648
X0638
X0628
X0718
X0728
X0738
X0748
Y047
X0738
X0728
X0718
X0708
X0698
X0688
X0678
X0668
X0658
X0648
X0638
X0628
Y048
X0638
X0648
X0658
X0668
X0678
X0688
X0698
X0708
X0718
X0728
X0738
X0748
Y049
X0738
X0728
X0718
X0708
X0698
X0688
X0678
X0668
X0658
X0648
X0638
X0628
Y05
X0638
X0648
X0658
X0668
X0678
X0688
X0698
X0708
X0718
X0728
X0738
X0748
Y051
X0738
X0728
X0718
X0708
X0698
X0688
X0678
X0668
X0658
X0648
X0638
X0628
Y052
X0638
X0648
X0658
X0668
X0678
X0688
X0698
X0708
X0718
X0728
X0738
X0748
Y053
X0738
X0728
X0718
X0708
X0698
X0688
X0678
X0668
X0658
X0648
X0638
X0628
X0618
Y052
Y051
Y05
Y049
Y048
Y047
X0608
X0598
X0588
X0578
X0568
X0558
X0548
X0538
X0528
X0518
X0508
X0498
X0488
X0478
Y048
X0488
X0498
X0508
X0518
X0528
X0538
X0548
X0558
X0568
X0578
X0588
X0598
X0608
Y049
X0598
X0588
X0578
X0568
X0558
X0548
X0538
X0528
X0518
X0508
X0498
X0488
X0478
Y05
X0488
X0498
X0508
X0518
X0528
X0538
X0548
X0558
X0568
X0578
X0588
X0598
X0608
Y051
X0598
X0588
X0578
X0568
X0558
X0548
X0538
X0528
X0518
X0508
X0498
X0488
X0478
Y052
X0488
X0498
X0508
X0518
X0528
X0538
X0548
X0558
X0568
X0578
X0588
X0598
X0608
Y053
X0598
X0588
X0578
X0568
X0558
X0548
X0538
X0528
X0518
X0508
X0498
X0488
X0478
X0468
X0458
Y052
X0468
Y051
X0458
Y05
X0468
Y049
X0458
Y048
X0468
Y047
X0458
T04
X0372Y0392
X0382
X0392
X0402
X0412
X0422
X0432
X0442
Y0402
X0432
X0422
X0412
X0402
X0392
X0382
X0372
X0373Y0466
X0383
X0393
X0403
X0413
X0423
X0433
X0443
Y0476
X0433
X0423
X0413
X0403
X0393
X0383
X0373
T05
X0332Y0316
Y032387
X033987
X034775
Y0316
X033987
X035562
X03635
Y032387
X035562
X037137
X037924
Y0316
X03715
T06
X0762Y0346
Y0356
Y0366
Y0376
Y0386
Y0396
Y0406
Y0416
X0792
Y0386
Y0376
Y0346
T07
X020472Y037573
Y052427
T08
X026131Y037094
X031183Y0367
T09
X02Y0325
X0775
Y0575
X02
M30
