%FSLAX24Y24*%
%MOIN*%
G70*
G01*
G75*
G04 Layer_Color=8388736*
G04 Layer_Color=8388736*
%ADD10R,0.0748X0.0197*%
%ADD11R,0.0197X0.0748*%
%ADD12R,0.0394X0.0433*%
%ADD13R,0.0600X0.0800*%
%ADD14R,0.1772X0.0591*%
%ADD15R,0.0354X0.0276*%
%ADD16R,0.3000X0.2900*%
%ADD17R,0.1500X0.0500*%
%ADD18R,0.0630X0.0709*%
%ADD19R,0.2900X0.3000*%
%ADD20R,0.0500X0.1500*%
%ADD21R,0.0709X0.0630*%
%ADD22R,0.0787X0.0866*%
%ADD23R,0.0276X0.0354*%
%ADD24R,0.0551X0.0787*%
%ADD25R,0.0197X0.0610*%
%ADD26R,0.0197X0.0610*%
%ADD27R,0.0610X0.0197*%
%ADD28R,0.0433X0.0394*%
%ADD29R,0.0512X0.0630*%
%ADD30R,0.0118X0.0630*%
%ADD31R,0.0630X0.0118*%
%ADD32R,0.0354X0.0945*%
%ADD33R,0.0807X0.0236*%
%ADD34R,0.0827X0.0354*%
%ADD35R,0.0827X0.0354*%
%ADD36R,0.1732X0.1441*%
%ADD37C,0.0100*%
%ADD38C,0.0080*%
%ADD39C,0.0200*%
%ADD40C,0.0160*%
%ADD41C,0.0120*%
%ADD42C,0.0250*%
%ADD43C,0.0150*%
%ADD44C,0.0591*%
%ADD45R,0.0591X0.0591*%
%ADD46C,0.0669*%
%ADD47C,0.0600*%
%ADD48C,0.1732*%
%ADD49C,0.1732*%
%ADD50C,0.0250*%
%ADD51C,0.0350*%
%ADD52C,0.0090*%
%ADD53C,0.0098*%
%ADD54C,0.0079*%
%ADD55C,0.0070*%
%ADD56C,0.0050*%
%ADD57R,0.0828X0.0277*%
%ADD58R,0.0277X0.0828*%
%ADD59R,0.0474X0.0513*%
%ADD60R,0.0680X0.0880*%
%ADD61R,0.1852X0.0671*%
%ADD62R,0.0434X0.0356*%
%ADD63R,0.3080X0.2980*%
%ADD64R,0.1580X0.0580*%
%ADD65R,0.0710X0.0789*%
%ADD66R,0.2980X0.3080*%
%ADD67R,0.0580X0.1580*%
%ADD68R,0.0789X0.0710*%
%ADD69R,0.0867X0.0946*%
%ADD70R,0.0356X0.0434*%
%ADD71R,0.0631X0.0867*%
%ADD72R,0.0277X0.0690*%
%ADD73R,0.0277X0.0690*%
%ADD74R,0.0690X0.0277*%
%ADD75R,0.0513X0.0474*%
%ADD76R,0.0592X0.0710*%
%ADD77R,0.0198X0.0710*%
%ADD78R,0.0710X0.0198*%
%ADD79R,0.0434X0.1025*%
%ADD80R,0.0887X0.0316*%
%ADD81R,0.0907X0.0434*%
%ADD82R,0.0907X0.0434*%
%ADD83R,0.1812X0.1521*%
%ADD84C,0.0671*%
%ADD85R,0.0671X0.0671*%
%ADD86C,0.0749*%
%ADD87C,0.0680*%
%ADD88C,0.1812*%
%ADD89C,0.1812*%
%ADD90C,0.0330*%
%ADD91C,0.0430*%
D57*
X41057Y36875D02*
D03*
Y36560D02*
D03*
Y36245D02*
D03*
Y35930D02*
D03*
Y35615D02*
D03*
Y35300D02*
D03*
Y34985D02*
D03*
Y34670D02*
D03*
Y34355D02*
D03*
Y34040D02*
D03*
Y33725D02*
D03*
X45743Y36875D02*
D03*
Y36560D02*
D03*
Y36245D02*
D03*
Y35930D02*
D03*
Y35615D02*
D03*
Y35300D02*
D03*
Y34985D02*
D03*
Y34670D02*
D03*
Y34355D02*
D03*
Y34040D02*
D03*
Y33725D02*
D03*
D58*
X41825Y32957D02*
D03*
X42140D02*
D03*
X42455D02*
D03*
X42770D02*
D03*
X43085D02*
D03*
X43400D02*
D03*
X43715D02*
D03*
X44030D02*
D03*
X44345D02*
D03*
X44660D02*
D03*
X44975D02*
D03*
X41825Y37643D02*
D03*
X42140D02*
D03*
X42455D02*
D03*
X42770D02*
D03*
X43085D02*
D03*
X43400D02*
D03*
X43715D02*
D03*
X44030D02*
D03*
X44345D02*
D03*
X44660D02*
D03*
X44975D02*
D03*
D59*
X39800Y31465D02*
D03*
Y32135D02*
D03*
X36100Y34335D02*
D03*
Y33665D02*
D03*
X35100Y33665D02*
D03*
Y34335D02*
D03*
X33200Y48365D02*
D03*
Y49035D02*
D03*
X33100Y34335D02*
D03*
Y33665D02*
D03*
X34100Y34335D02*
D03*
Y33665D02*
D03*
X37100Y34335D02*
D03*
Y33665D02*
D03*
X45800Y38665D02*
D03*
Y39335D02*
D03*
X74100Y36535D02*
D03*
Y35865D02*
D03*
D60*
X33900Y58900D02*
D03*
X32900D02*
D03*
X31900D02*
D03*
X30900D02*
D03*
X29900D02*
D03*
X28900D02*
D03*
X27900D02*
D03*
X26900D02*
D03*
X25900D02*
D03*
X24900D02*
D03*
X23900D02*
D03*
X22900D02*
D03*
Y55700D02*
D03*
X23900D02*
D03*
X24900D02*
D03*
X25900D02*
D03*
X26900D02*
D03*
X27900D02*
D03*
X28900D02*
D03*
X29900D02*
D03*
X30900D02*
D03*
X31900D02*
D03*
X32900D02*
D03*
X33900D02*
D03*
D61*
X35046Y53600D02*
D03*
X31700D02*
D03*
D62*
X34656Y51800D02*
D03*
X34144D02*
D03*
X32356Y52100D02*
D03*
X31844D02*
D03*
X49056Y38500D02*
D03*
X48544D02*
D03*
X33556Y51000D02*
D03*
X33044D02*
D03*
X31056Y46700D02*
D03*
X30544D02*
D03*
X27156Y45200D02*
D03*
X26644D02*
D03*
X26844Y43500D02*
D03*
X27356D02*
D03*
X29344Y39000D02*
D03*
X29856D02*
D03*
D63*
X23800Y32750D02*
D03*
D64*
X28650Y34180D02*
D03*
Y33510D02*
D03*
Y32840D02*
D03*
Y32170D02*
D03*
Y31500D02*
D03*
D65*
X30349Y33900D02*
D03*
X31451D02*
D03*
X30349Y31600D02*
D03*
X31451D02*
D03*
D66*
X51050Y32500D02*
D03*
X24550Y51400D02*
D03*
D67*
X49620Y37350D02*
D03*
X50290D02*
D03*
X50960D02*
D03*
X51630D02*
D03*
X52300D02*
D03*
X25980Y46550D02*
D03*
X25310D02*
D03*
X24640D02*
D03*
X23970D02*
D03*
X23300D02*
D03*
D68*
X48100Y36649D02*
D03*
Y37751D02*
D03*
X53500Y37651D02*
D03*
Y36549D02*
D03*
X25300Y44851D02*
D03*
Y43749D02*
D03*
X23200Y44851D02*
D03*
Y43749D02*
D03*
D69*
X34391Y50100D02*
D03*
X33209D02*
D03*
X23109Y37600D02*
D03*
X24291D02*
D03*
X36291Y46000D02*
D03*
X35109D02*
D03*
X43691Y49000D02*
D03*
X42509D02*
D03*
X39491Y35700D02*
D03*
X38309D02*
D03*
X72091Y37900D02*
D03*
X70909D02*
D03*
D70*
X26100Y45256D02*
D03*
Y44744D02*
D03*
X27600Y46956D02*
D03*
Y46444D02*
D03*
X27100Y42256D02*
D03*
Y41744D02*
D03*
X27400Y39544D02*
D03*
Y40056D02*
D03*
X26900Y40056D02*
D03*
Y39544D02*
D03*
X70900Y39856D02*
D03*
Y39344D02*
D03*
X74100Y35156D02*
D03*
Y34644D02*
D03*
D71*
X33900Y37254D02*
D03*
X35900D02*
D03*
Y35600D02*
D03*
X33900D02*
D03*
D72*
X31402Y51585D02*
D03*
X31087D02*
D03*
X30772D02*
D03*
X30457D02*
D03*
X30143D02*
D03*
X29828D02*
D03*
X29513D02*
D03*
X31402Y48415D02*
D03*
X31087D02*
D03*
X30772D02*
D03*
X30457D02*
D03*
X30143D02*
D03*
X29828D02*
D03*
X29513D02*
D03*
X29198D02*
D03*
D73*
X29198Y51585D02*
D03*
D74*
X31885Y48898D02*
D03*
Y49213D02*
D03*
Y49528D02*
D03*
Y49843D02*
D03*
Y50157D02*
D03*
Y50472D02*
D03*
Y50787D02*
D03*
Y51102D02*
D03*
X28715Y48898D02*
D03*
Y49213D02*
D03*
Y49528D02*
D03*
Y49843D02*
D03*
Y50157D02*
D03*
Y50472D02*
D03*
Y50787D02*
D03*
Y51102D02*
D03*
D75*
X37965Y55400D02*
D03*
X38635D02*
D03*
X37891Y50200D02*
D03*
X38561D02*
D03*
X37891Y52000D02*
D03*
X38561D02*
D03*
X37917Y53700D02*
D03*
X38587D02*
D03*
X39065Y38300D02*
D03*
X39735D02*
D03*
X37465D02*
D03*
X38135D02*
D03*
X38965Y37500D02*
D03*
X39635D02*
D03*
X74335Y41700D02*
D03*
X73665D02*
D03*
X74035Y38200D02*
D03*
X73365D02*
D03*
X73365Y37600D02*
D03*
X74035D02*
D03*
D76*
X39626Y55400D02*
D03*
X40374D02*
D03*
X39552Y50200D02*
D03*
X40300D02*
D03*
X39552Y52000D02*
D03*
X40300D02*
D03*
X39578Y53700D02*
D03*
X40326D02*
D03*
D77*
X33462Y45892D02*
D03*
X33265D02*
D03*
X33068D02*
D03*
X32872D02*
D03*
X32675D02*
D03*
X32478D02*
D03*
X32281D02*
D03*
X32084D02*
D03*
X31887D02*
D03*
X31691D02*
D03*
X31494D02*
D03*
X31297D02*
D03*
X31100D02*
D03*
X30903D02*
D03*
X30706D02*
D03*
X30509D02*
D03*
X30313D02*
D03*
X30116D02*
D03*
X29919D02*
D03*
X29722D02*
D03*
X29525D02*
D03*
X29328D02*
D03*
X29132D02*
D03*
X28935D02*
D03*
X28738D02*
D03*
X33462Y39908D02*
D03*
X33265D02*
D03*
X33068D02*
D03*
X32872D02*
D03*
X32675D02*
D03*
X32478D02*
D03*
X32281D02*
D03*
X32084D02*
D03*
X31887D02*
D03*
X31691D02*
D03*
X31494D02*
D03*
X31297D02*
D03*
X31100D02*
D03*
X30903D02*
D03*
X30706D02*
D03*
X30509D02*
D03*
X30313D02*
D03*
X30116D02*
D03*
X29919D02*
D03*
X29722D02*
D03*
X29525D02*
D03*
X29328D02*
D03*
X29132D02*
D03*
X28935D02*
D03*
X28738D02*
D03*
D78*
X34092Y40538D02*
D03*
Y40735D02*
D03*
Y40932D02*
D03*
Y41128D02*
D03*
Y41325D02*
D03*
Y41522D02*
D03*
Y41719D02*
D03*
Y41916D02*
D03*
Y42113D02*
D03*
Y42309D02*
D03*
Y42506D02*
D03*
Y42703D02*
D03*
Y42900D02*
D03*
Y43097D02*
D03*
Y43294D02*
D03*
Y43491D02*
D03*
Y43687D02*
D03*
Y43884D02*
D03*
Y44081D02*
D03*
Y44278D02*
D03*
Y44475D02*
D03*
Y44672D02*
D03*
Y44868D02*
D03*
Y45065D02*
D03*
Y45262D02*
D03*
X28108Y40538D02*
D03*
Y40735D02*
D03*
Y40932D02*
D03*
Y41128D02*
D03*
Y41325D02*
D03*
Y41522D02*
D03*
Y41719D02*
D03*
Y41916D02*
D03*
Y42113D02*
D03*
Y42309D02*
D03*
Y42506D02*
D03*
Y42703D02*
D03*
Y42900D02*
D03*
Y43097D02*
D03*
Y43294D02*
D03*
Y43491D02*
D03*
Y43687D02*
D03*
Y43884D02*
D03*
Y44081D02*
D03*
Y44278D02*
D03*
Y44475D02*
D03*
Y44672D02*
D03*
Y44868D02*
D03*
Y45065D02*
D03*
Y45262D02*
D03*
D79*
X30100Y36700D02*
D03*
X29600D02*
D03*
X29100D02*
D03*
X28600D02*
D03*
X28100D02*
D03*
X27600D02*
D03*
X27100D02*
D03*
D80*
X74053Y39250D02*
D03*
Y39750D02*
D03*
Y40250D02*
D03*
Y40750D02*
D03*
X71947Y39250D02*
D03*
Y39750D02*
D03*
Y40250D02*
D03*
Y40750D02*
D03*
D81*
X20472Y44250D02*
D03*
Y44750D02*
D03*
Y45250D02*
D03*
Y45750D02*
D03*
Y46250D02*
D03*
Y46750D02*
D03*
Y47250D02*
D03*
Y47750D02*
D03*
Y48250D02*
D03*
Y48750D02*
D03*
Y49250D02*
D03*
Y49750D02*
D03*
Y50250D02*
D03*
Y50750D02*
D03*
Y51250D02*
D03*
D82*
Y41750D02*
D03*
Y41250D02*
D03*
Y40750D02*
D03*
Y40250D02*
D03*
Y39750D02*
D03*
Y39250D02*
D03*
Y38750D02*
D03*
D83*
X18583Y54508D02*
D03*
Y35492D02*
D03*
D84*
X33200Y31600D02*
D03*
Y32387D02*
D03*
X33987Y31600D02*
D03*
Y32387D02*
D03*
X34775Y31600D02*
D03*
Y32387D02*
D03*
X35562Y31600D02*
D03*
Y32387D02*
D03*
X36350Y31600D02*
D03*
Y32387D02*
D03*
X37150Y31600D02*
D03*
X37137Y32387D02*
D03*
X37924Y31600D02*
D03*
Y32387D02*
D03*
X37300Y47600D02*
D03*
X38300Y46600D02*
D03*
Y47600D02*
D03*
X39300Y46600D02*
D03*
Y47600D02*
D03*
X40300Y46600D02*
D03*
Y47600D02*
D03*
X41300Y46600D02*
D03*
Y47600D02*
D03*
X42300Y46600D02*
D03*
Y47600D02*
D03*
X43300Y46600D02*
D03*
Y47600D02*
D03*
X44300Y46600D02*
D03*
Y47600D02*
D03*
X44200Y39200D02*
D03*
X43200Y40200D02*
D03*
Y39200D02*
D03*
X42200Y40200D02*
D03*
Y39200D02*
D03*
X41200Y40200D02*
D03*
Y39200D02*
D03*
X40200Y40200D02*
D03*
Y39200D02*
D03*
X39200Y40200D02*
D03*
Y39200D02*
D03*
X38200Y40200D02*
D03*
Y39200D02*
D03*
X37200Y40200D02*
D03*
Y39200D02*
D03*
D85*
X37300Y46600D02*
D03*
X44200Y40200D02*
D03*
D86*
X31183Y36700D02*
D03*
X26131Y37094D02*
D03*
D87*
X79200Y38600D02*
D03*
Y41600D02*
D03*
X76200Y38600D02*
D03*
Y39600D02*
D03*
Y41600D02*
D03*
Y40600D02*
D03*
X79200Y34600D02*
D03*
Y37600D02*
D03*
X76200Y34600D02*
D03*
Y35600D02*
D03*
Y37600D02*
D03*
Y36600D02*
D03*
X20472Y52427D02*
D03*
Y37573D02*
D03*
X68800Y39000D02*
D03*
X67800D02*
D03*
X66800D02*
D03*
X65800D02*
D03*
X64800D02*
D03*
X63800D02*
D03*
X62800D02*
D03*
X61800D02*
D03*
X60800D02*
D03*
X59800D02*
D03*
X58800D02*
D03*
X57800D02*
D03*
X56800D02*
D03*
X55800D02*
D03*
X68800Y38000D02*
D03*
X67800D02*
D03*
X66800D02*
D03*
X65800D02*
D03*
X64800D02*
D03*
X63800D02*
D03*
X62800D02*
D03*
X61800D02*
D03*
X60800D02*
D03*
X59800D02*
D03*
X58800D02*
D03*
X57800D02*
D03*
X56800D02*
D03*
X55800D02*
D03*
X68800Y37000D02*
D03*
X67800D02*
D03*
X66800D02*
D03*
X65800D02*
D03*
X64800D02*
D03*
X63800D02*
D03*
X62800D02*
D03*
X61800D02*
D03*
X60800D02*
D03*
X59800D02*
D03*
X58800D02*
D03*
X57800D02*
D03*
X56800D02*
D03*
X55800D02*
D03*
X68800Y36000D02*
D03*
X67800D02*
D03*
X66800D02*
D03*
X65800D02*
D03*
X64800D02*
D03*
X63800D02*
D03*
X62800D02*
D03*
X61800D02*
D03*
X60800D02*
D03*
X59800D02*
D03*
X58800D02*
D03*
X57800D02*
D03*
X56800D02*
D03*
X55800D02*
D03*
X68800Y35000D02*
D03*
X67800D02*
D03*
X66800D02*
D03*
X65800D02*
D03*
X64800D02*
D03*
X63800D02*
D03*
X62800D02*
D03*
X61800D02*
D03*
X60800D02*
D03*
X59800D02*
D03*
X58800D02*
D03*
X57800D02*
D03*
X56800D02*
D03*
X55800D02*
D03*
X46800Y53000D02*
D03*
X45800D02*
D03*
X46800Y52000D02*
D03*
X45800D02*
D03*
X46800Y51000D02*
D03*
X45800D02*
D03*
X46800Y50000D02*
D03*
X45800D02*
D03*
X46800Y49000D02*
D03*
X45800D02*
D03*
X46800Y48000D02*
D03*
X45800D02*
D03*
X46800Y47000D02*
D03*
X45800D02*
D03*
X46800Y46000D02*
D03*
X45800D02*
D03*
X46800Y45000D02*
D03*
X45800D02*
D03*
X46800Y44000D02*
D03*
X45800D02*
D03*
X46800Y43000D02*
D03*
X45800D02*
D03*
X46800Y42000D02*
D03*
X45800D02*
D03*
X46800Y41000D02*
D03*
X45800D02*
D03*
X46800Y40000D02*
D03*
X45800D02*
D03*
X47800D02*
D03*
X48800D02*
D03*
X49800D02*
D03*
X50800D02*
D03*
X51800D02*
D03*
X52800D02*
D03*
X53800D02*
D03*
X54800D02*
D03*
X55800D02*
D03*
X56800D02*
D03*
X57800D02*
D03*
X58800D02*
D03*
X59800D02*
D03*
X60800D02*
D03*
X61800D02*
D03*
X62800D02*
D03*
X63800D02*
D03*
X64800D02*
D03*
X65800D02*
D03*
X66800D02*
D03*
X67800D02*
D03*
X68800D02*
D03*
X47800Y41000D02*
D03*
X48800D02*
D03*
X49800D02*
D03*
X50800D02*
D03*
X51800D02*
D03*
X52800D02*
D03*
X53800D02*
D03*
X54800D02*
D03*
X55800D02*
D03*
X56800D02*
D03*
X57800D02*
D03*
X58800D02*
D03*
X59800D02*
D03*
X60800D02*
D03*
X61800D02*
D03*
X62800D02*
D03*
X63800D02*
D03*
X64800D02*
D03*
X65800D02*
D03*
X66800D02*
D03*
X67800D02*
D03*
X68800D02*
D03*
X47800Y42000D02*
D03*
X48800D02*
D03*
X49800D02*
D03*
X50800D02*
D03*
X51800D02*
D03*
X52800D02*
D03*
X53800D02*
D03*
X54800D02*
D03*
X55800D02*
D03*
X56800D02*
D03*
X57800D02*
D03*
X58800D02*
D03*
X59800D02*
D03*
X60800D02*
D03*
X61800D02*
D03*
X62800D02*
D03*
X63800D02*
D03*
X64800D02*
D03*
X65800D02*
D03*
X66800D02*
D03*
X67800D02*
D03*
X68800D02*
D03*
X47800Y43000D02*
D03*
X48800D02*
D03*
X49800D02*
D03*
X50800D02*
D03*
X51800D02*
D03*
X52800D02*
D03*
X53800D02*
D03*
X54800D02*
D03*
X55800D02*
D03*
X56800D02*
D03*
X57800D02*
D03*
X58800D02*
D03*
X59800D02*
D03*
X60800D02*
D03*
X61800D02*
D03*
X62800D02*
D03*
X63800D02*
D03*
X64800D02*
D03*
X65800D02*
D03*
X66800D02*
D03*
X67800D02*
D03*
X68800D02*
D03*
X47800Y44000D02*
D03*
X48800D02*
D03*
X49800D02*
D03*
X50800D02*
D03*
X51800D02*
D03*
X52800D02*
D03*
X53800D02*
D03*
X54800D02*
D03*
X55800D02*
D03*
X56800D02*
D03*
X57800D02*
D03*
X58800D02*
D03*
X59800D02*
D03*
X60800D02*
D03*
X61800D02*
D03*
X62800D02*
D03*
X63800D02*
D03*
X64800D02*
D03*
X65800D02*
D03*
X66800D02*
D03*
X67800D02*
D03*
X68800D02*
D03*
X69800D02*
D03*
X70800D02*
D03*
X71800D02*
D03*
X72800D02*
D03*
X73800D02*
D03*
X74800D02*
D03*
X47800Y45000D02*
D03*
X48800D02*
D03*
X49800D02*
D03*
X50800D02*
D03*
X51800D02*
D03*
X52800D02*
D03*
X53800D02*
D03*
X54800D02*
D03*
X55800D02*
D03*
X56800D02*
D03*
X57800D02*
D03*
X58800D02*
D03*
X59800D02*
D03*
X60800D02*
D03*
X61800D02*
D03*
X62800D02*
D03*
X63800D02*
D03*
X64800D02*
D03*
X65800D02*
D03*
X66800D02*
D03*
X67800D02*
D03*
X68800D02*
D03*
X69800D02*
D03*
X70800D02*
D03*
X71800D02*
D03*
X72800D02*
D03*
X73800D02*
D03*
X74800D02*
D03*
X47800Y46000D02*
D03*
X48800D02*
D03*
X49800D02*
D03*
X50800D02*
D03*
X51800D02*
D03*
X52800D02*
D03*
X53800D02*
D03*
X54800D02*
D03*
X55800D02*
D03*
X56800D02*
D03*
X57800D02*
D03*
X58800D02*
D03*
X59800D02*
D03*
X60800D02*
D03*
X61800D02*
D03*
X62800D02*
D03*
X63800D02*
D03*
X64800D02*
D03*
X65800D02*
D03*
X66800D02*
D03*
X67800D02*
D03*
X68800D02*
D03*
X69800D02*
D03*
X70800D02*
D03*
X71800D02*
D03*
X72800D02*
D03*
X73800D02*
D03*
X74800D02*
D03*
X47800Y47000D02*
D03*
X48800D02*
D03*
X49800D02*
D03*
X50800D02*
D03*
X51800D02*
D03*
X52800D02*
D03*
X53800D02*
D03*
X54800D02*
D03*
X55800D02*
D03*
X56800D02*
D03*
X57800D02*
D03*
X58800D02*
D03*
X59800D02*
D03*
X60800D02*
D03*
X61800D02*
D03*
X62800D02*
D03*
X63800D02*
D03*
X64800D02*
D03*
X65800D02*
D03*
X66800D02*
D03*
X67800D02*
D03*
X68800D02*
D03*
X69800D02*
D03*
X70800D02*
D03*
X71800D02*
D03*
X72800D02*
D03*
X73800D02*
D03*
X74800D02*
D03*
X47800Y48000D02*
D03*
X48800D02*
D03*
X49800D02*
D03*
X50800D02*
D03*
X51800D02*
D03*
X52800D02*
D03*
X53800D02*
D03*
X54800D02*
D03*
X55800D02*
D03*
X56800D02*
D03*
X57800D02*
D03*
X58800D02*
D03*
X59800D02*
D03*
X60800D02*
D03*
X61800D02*
D03*
X62800D02*
D03*
X63800D02*
D03*
X64800D02*
D03*
X65800D02*
D03*
X66800D02*
D03*
X67800D02*
D03*
X68800D02*
D03*
X69800D02*
D03*
X70800D02*
D03*
X71800D02*
D03*
X72800D02*
D03*
X73800D02*
D03*
X74800D02*
D03*
X47800Y49000D02*
D03*
X48800D02*
D03*
X49800D02*
D03*
X50800D02*
D03*
X51800D02*
D03*
X52800D02*
D03*
X53800D02*
D03*
X54800D02*
D03*
X55800D02*
D03*
X56800D02*
D03*
X57800D02*
D03*
X58800D02*
D03*
X59800D02*
D03*
X60800D02*
D03*
X61800D02*
D03*
X62800D02*
D03*
X63800D02*
D03*
X64800D02*
D03*
X65800D02*
D03*
X66800D02*
D03*
X67800D02*
D03*
X68800D02*
D03*
X69800D02*
D03*
X70800D02*
D03*
X71800D02*
D03*
X72800D02*
D03*
X73800D02*
D03*
X74800D02*
D03*
X47800Y50000D02*
D03*
X48800D02*
D03*
X49800D02*
D03*
X50800D02*
D03*
X51800D02*
D03*
X52800D02*
D03*
X53800D02*
D03*
X54800D02*
D03*
X55800D02*
D03*
X56800D02*
D03*
X57800D02*
D03*
X58800D02*
D03*
X59800D02*
D03*
X60800D02*
D03*
X61800D02*
D03*
X62800D02*
D03*
X63800D02*
D03*
X64800D02*
D03*
X65800D02*
D03*
X66800D02*
D03*
X67800D02*
D03*
X68800D02*
D03*
X69800D02*
D03*
X70800D02*
D03*
X71800D02*
D03*
X72800D02*
D03*
X73800D02*
D03*
X74800D02*
D03*
X47800Y51000D02*
D03*
X48800D02*
D03*
X49800D02*
D03*
X50800D02*
D03*
X51800D02*
D03*
X52800D02*
D03*
X53800D02*
D03*
X54800D02*
D03*
X55800D02*
D03*
X56800D02*
D03*
X57800D02*
D03*
X58800D02*
D03*
X59800D02*
D03*
X60800D02*
D03*
X61800D02*
D03*
X62800D02*
D03*
X63800D02*
D03*
X64800D02*
D03*
X65800D02*
D03*
X66800D02*
D03*
X67800D02*
D03*
X68800D02*
D03*
X69800D02*
D03*
X70800D02*
D03*
X71800D02*
D03*
X72800D02*
D03*
X73800D02*
D03*
X74800D02*
D03*
X47800Y52000D02*
D03*
X48800D02*
D03*
X49800D02*
D03*
X50800D02*
D03*
X51800D02*
D03*
X52800D02*
D03*
X53800D02*
D03*
X54800D02*
D03*
X55800D02*
D03*
X56800D02*
D03*
X57800D02*
D03*
X58800D02*
D03*
X59800D02*
D03*
X60800D02*
D03*
X61800D02*
D03*
X62800D02*
D03*
X63800D02*
D03*
X64800D02*
D03*
X65800D02*
D03*
X66800D02*
D03*
X67800D02*
D03*
X68800D02*
D03*
X69800D02*
D03*
X70800D02*
D03*
X71800D02*
D03*
X72800D02*
D03*
X73800D02*
D03*
X74800D02*
D03*
X47800Y53000D02*
D03*
X48800D02*
D03*
X49800D02*
D03*
X50800D02*
D03*
X51800D02*
D03*
X52800D02*
D03*
X53800D02*
D03*
X54800D02*
D03*
X55800D02*
D03*
X56800D02*
D03*
X57800D02*
D03*
X58800D02*
D03*
X59800D02*
D03*
X60800D02*
D03*
X61800D02*
D03*
X62800D02*
D03*
X63800D02*
D03*
X64800D02*
D03*
X65800D02*
D03*
X66800D02*
D03*
X67800D02*
D03*
X68800D02*
D03*
X69800D02*
D03*
X70800D02*
D03*
X71800D02*
D03*
X72800D02*
D03*
X73800D02*
D03*
X74800D02*
D03*
D88*
X20000Y57500D02*
D03*
Y32500D02*
D03*
X77500Y57500D02*
D03*
D89*
Y32500D02*
D03*
D90*
X70250Y37900D02*
D03*
X73665Y41200D02*
D03*
X37600Y35650D02*
D03*
X40150Y35700D02*
D03*
X41850Y49000D02*
D03*
X44350Y49050D02*
D03*
X23109Y36891D02*
D03*
X36291Y46891D02*
D03*
X42770Y32370D02*
D03*
X43400Y32300D02*
D03*
X30350Y38900D02*
D03*
X31050Y39350D02*
D03*
X21150Y38750D02*
D03*
Y41750D02*
D03*
Y40250D02*
D03*
Y39800D02*
D03*
X21650Y39450D02*
D03*
X33500Y38800D02*
D03*
X33000D02*
D03*
X33500Y37900D02*
D03*
X32900Y31100D02*
D03*
X32400Y32100D02*
D03*
X68800Y31700D02*
D03*
X32600Y37500D02*
D03*
X35500Y33300D02*
D03*
X72300Y31400D02*
D03*
X72750Y40750D02*
D03*
X70500Y39800D02*
D03*
X71300Y39300D02*
D03*
X72091Y37109D02*
D03*
X74100Y34200D02*
D03*
X73765Y36535D02*
D03*
X72800Y38200D02*
D03*
X74650Y39750D02*
D03*
X74750Y40250D02*
D03*
X29000Y39350D02*
D03*
X29600Y40500D02*
D03*
X30300Y39300D02*
D03*
Y40600D02*
D03*
X29600Y47300D02*
D03*
X28738Y46638D02*
D03*
X48100Y38400D02*
D03*
X50900Y38300D02*
D03*
X53500Y35900D02*
D03*
X53000Y38700D02*
D03*
X45000Y34500D02*
D03*
X46400Y34700D02*
D03*
X41670Y35930D02*
D03*
X40400Y35000D02*
D03*
X33400Y37300D02*
D03*
X34000Y51000D02*
D03*
X32800Y48400D02*
D03*
X35000Y50100D02*
D03*
X41000Y50200D02*
D03*
X41100Y52000D02*
D03*
X41000Y53700D02*
D03*
X41100Y55400D02*
D03*
X32800Y47100D02*
D03*
Y45200D02*
D03*
X36400Y35600D02*
D03*
X36675Y33725D02*
D03*
X37725D02*
D03*
X34600Y34300D02*
D03*
X38340Y34040D02*
D03*
X31691Y40491D02*
D03*
X32800Y40800D02*
D03*
Y39300D02*
D03*
X32300Y40800D02*
D03*
Y39300D02*
D03*
X33500Y41000D02*
D03*
Y41500D02*
D03*
X35100Y41700D02*
D03*
X33416Y41916D02*
D03*
X34700Y41800D02*
D03*
X33531Y43432D02*
D03*
X33500Y43900D02*
D03*
X34600Y44200D02*
D03*
X33531Y44868D02*
D03*
X31800Y45100D02*
D03*
X31900Y46550D02*
D03*
X32300Y45200D02*
D03*
Y46500D02*
D03*
X30756Y45344D02*
D03*
X30200Y45350D02*
D03*
X29722Y45222D02*
D03*
X29800Y46500D02*
D03*
X28800Y44400D02*
D03*
X28644Y44056D02*
D03*
X28691Y43491D02*
D03*
X29300Y42200D02*
D03*
X28650Y41850D02*
D03*
X28878Y41522D02*
D03*
X27500Y41500D02*
D03*
X28450Y39350D02*
D03*
X28700Y40700D02*
D03*
X30500Y47300D02*
D03*
X31100Y47100D02*
D03*
D91*
X28700Y45000D02*
D03*
X27000Y44600D02*
D03*
X28144Y46956D02*
D03*
X26900Y39100D02*
D03*
X27400D02*
D03*
X46335Y39335D02*
D03*
X40900Y42100D02*
D03*
X39800D02*
D03*
X44660Y36940D02*
D03*
X37800Y37800D02*
D03*
X40200Y37500D02*
D03*
X41900Y36700D02*
D03*
X29300Y47800D02*
D03*
X28500Y48400D02*
D03*
X30457Y48957D02*
D03*
X33500Y34400D02*
D03*
X33800Y40200D02*
D03*
X33068Y41631D02*
D03*
Y44131D02*
D03*
X34208Y45892D02*
D03*
X39800Y32800D02*
D03*
X34400Y46300D02*
D03*
X34500Y37600D02*
D03*
X28200Y48900D02*
D03*
X31087Y52187D02*
D03*
X31900Y48500D02*
D03*
X28000Y58000D02*
D03*
X28900D02*
D03*
X29900D02*
D03*
X32800Y52100D02*
D03*
X25700Y32800D02*
D03*
X30400Y34800D02*
D03*
X32100Y33900D02*
D03*
Y31600D02*
D03*
X29800Y31500D02*
D03*
X27600Y32800D02*
D03*
X27100Y35900D02*
D03*
X28600D02*
D03*
X30100D02*
D03*
X24550Y49550D02*
D03*
X41800Y34700D02*
D03*
X22000Y47000D02*
D03*
X24651Y43749D02*
D03*
X25300Y45500D02*
D03*
X24600D02*
D03*
X23200Y43000D02*
D03*
X23300Y45500D02*
D03*
X21500Y48000D02*
D03*
Y47500D02*
D03*
X21600Y44500D02*
D03*
Y45100D02*
D03*
X21500Y45700D02*
D03*
X21350Y46750D02*
D03*
Y48750D02*
D03*
Y49750D02*
D03*
M02*
