%FSLAX24Y24*%
%MOIN*%
G70*
G01*
G75*
G04 Layer_Physical_Order=3*
G04 Layer_Color=128*
G04 Layer_Color=128*
%ADD10R,0.1732X0.1441*%
%ADD11R,0.0827X0.0354*%
%ADD12R,0.0827X0.0354*%
%ADD13R,0.0394X0.0433*%
%ADD14R,0.0276X0.0354*%
%ADD15R,0.0433X0.0394*%
%ADD16R,0.0807X0.0236*%
%ADD17R,0.0787X0.0866*%
%ADD18R,0.0630X0.0118*%
%ADD19R,0.0118X0.0630*%
%ADD20R,0.0354X0.0276*%
%ADD21R,0.0512X0.0630*%
%ADD22R,0.0866X0.0787*%
%ADD23R,0.0610X0.0197*%
%ADD24R,0.0197X0.0610*%
%ADD25R,0.0551X0.0787*%
%ADD26R,0.0709X0.0630*%
%ADD27R,0.0500X0.1500*%
%ADD28R,0.2900X0.3000*%
%ADD29R,0.0630X0.0709*%
%ADD30R,0.1500X0.0500*%
%ADD31R,0.3000X0.2900*%
%ADD32R,0.1772X0.0591*%
%ADD33R,0.0197X0.0748*%
%ADD34R,0.0748X0.0197*%
%ADD35R,0.0197X0.0610*%
%ADD36R,0.0600X0.0800*%
%ADD37R,0.0669X0.0177*%
%ADD38R,0.0669X0.0177*%
%ADD39C,0.0100*%
%ADD40C,0.0120*%
%ADD41C,0.0200*%
%ADD42C,0.0160*%
%ADD43C,0.0150*%
%ADD44C,0.0250*%
%ADD45C,0.0080*%
%ADD46C,0.0600*%
%ADD47C,0.1732*%
%ADD48C,0.1732*%
%ADD49C,0.0591*%
%ADD50R,0.0591X0.0591*%
%ADD51C,0.0250*%
%ADD52C,0.0400*%
%ADD53C,0.0350*%
%ADD54C,0.0090*%
%ADD55C,0.0098*%
%ADD56C,0.0079*%
%ADD57C,0.0070*%
%ADD58C,0.0050*%
%ADD59R,0.1812X0.1521*%
%ADD60R,0.0907X0.0434*%
%ADD61R,0.0907X0.0434*%
%ADD62R,0.0474X0.0513*%
%ADD63R,0.0356X0.0434*%
%ADD64R,0.0513X0.0474*%
%ADD65R,0.0887X0.0316*%
%ADD66R,0.0867X0.0946*%
%ADD67R,0.0710X0.0198*%
%ADD68R,0.0198X0.0710*%
%ADD69R,0.0434X0.0356*%
%ADD70R,0.0592X0.0710*%
%ADD71R,0.0946X0.0867*%
%ADD72R,0.0690X0.0277*%
%ADD73R,0.0277X0.0690*%
%ADD74R,0.0631X0.0867*%
%ADD75R,0.0789X0.0710*%
%ADD76R,0.0580X0.1580*%
%ADD77R,0.2980X0.3080*%
%ADD78R,0.0710X0.0789*%
%ADD79R,0.1580X0.0580*%
%ADD80R,0.3080X0.2980*%
%ADD81R,0.1852X0.0671*%
%ADD82R,0.0277X0.0828*%
%ADD83R,0.0828X0.0277*%
%ADD84R,0.0277X0.0690*%
%ADD85R,0.0680X0.0880*%
%ADD86R,0.0749X0.0257*%
%ADD87R,0.0749X0.0257*%
%ADD88C,0.0680*%
%ADD89C,0.1812*%
%ADD90C,0.1812*%
%ADD91C,0.0671*%
%ADD92R,0.0671X0.0671*%
%ADD93C,0.0330*%
%ADD94C,0.0480*%
%ADD95C,0.0430*%
%ADD96C,0.0400*%
%ADD97C,0.1130*%
%ADD98C,0.2096*%
%ADD99C,0.2096*%
%AMTHD100*
7,0,0,0.0960,0.0800,0.0150,45*
%
%ADD100THD100*%
%ADD101C,0.1000*%
%AMTHD102*
7,0,0,0.0914,0.0754,0.0150,45*
%
%ADD102THD102*%
%ADD103C,0.0954*%
%ADD104C,0.0994*%
%AMTHD105*
7,0,0,0.0954,0.0794,0.0150,45*
%
%ADD105THD105*%
%ADD106C,0.0735*%
%AMTHD107*
7,0,0,0.0810,0.0650,0.0150,45*
%
%ADD107THD107*%
%ADD108C,0.0850*%
%AMTHD109*
7,0,0,0.0695,0.0535,0.0150,45*
%
%ADD109THD109*%
%AMTHD110*
7,0,0,0.0760,0.0600,0.0150,45*
%
%ADD110THD110*%
%ADD111C,0.0800*%
%AMTHD112*
7,0,0,0.0910,0.0750,0.0150,45*
%
%ADD112THD112*%
%ADD113C,0.0950*%
D96*
X19842Y53175D02*
G03*
X19449Y53569I-394J0D01*
G01*
Y36431D02*
G03*
X19842Y36825I0J394D01*
G01*
X17500Y30000D02*
X80000D01*
Y60000D01*
X17500D02*
X80000D01*
X17500Y53569D02*
Y60000D01*
Y53569D02*
X19449D01*
X19842Y36825D02*
Y53175D01*
X17500Y36431D02*
X19449D01*
X17500Y30000D02*
Y36431D01*
D97*
X20472Y37573D02*
D03*
Y52427D02*
D03*
D98*
X77500Y32500D02*
D03*
D99*
Y57500D02*
D03*
X20000Y32500D02*
D03*
Y57500D02*
D03*
D100*
X73800Y52000D02*
D03*
X72800D02*
D03*
X71800D02*
D03*
X70800D02*
D03*
X69800D02*
D03*
X68800D02*
D03*
X67800D02*
D03*
X66800D02*
D03*
X65800D02*
D03*
X64800D02*
D03*
X63800D02*
D03*
X62800D02*
D03*
X61800D02*
D03*
X60800D02*
D03*
X59800D02*
D03*
X58800D02*
D03*
X57800D02*
D03*
X56800D02*
D03*
X55800D02*
D03*
X54800D02*
D03*
X53800D02*
D03*
X52800D02*
D03*
X51800D02*
D03*
X50800D02*
D03*
X49800D02*
D03*
X48800D02*
D03*
X47800D02*
D03*
X45800D02*
D03*
X46800D02*
D03*
D101*
X76200Y36600D02*
D03*
Y37600D02*
D03*
Y35600D02*
D03*
Y34600D02*
D03*
X79200Y37600D02*
D03*
Y34600D02*
D03*
X76200Y40600D02*
D03*
Y41600D02*
D03*
Y39600D02*
D03*
Y38600D02*
D03*
X79200Y41600D02*
D03*
Y38600D02*
D03*
X73800Y53000D02*
D03*
X72800D02*
D03*
X71800D02*
D03*
X70800D02*
D03*
X69800D02*
D03*
X68800D02*
D03*
X67800D02*
D03*
X66800D02*
D03*
X65800D02*
D03*
X64800D02*
D03*
X63800D02*
D03*
X62800D02*
D03*
X61800D02*
D03*
X60800D02*
D03*
X59800D02*
D03*
X58800D02*
D03*
X57800D02*
D03*
X56800D02*
D03*
X55800D02*
D03*
X54800D02*
D03*
X53800D02*
D03*
X52800D02*
D03*
X51800D02*
D03*
X50800D02*
D03*
X49800D02*
D03*
X48800D02*
D03*
X47800D02*
D03*
X73800Y51000D02*
D03*
X72800D02*
D03*
X71800D02*
D03*
X70800D02*
D03*
X69800D02*
D03*
X68800D02*
D03*
X67800D02*
D03*
X66800D02*
D03*
X65800D02*
D03*
X64800D02*
D03*
X63800D02*
D03*
X62800D02*
D03*
X61800D02*
D03*
X60800D02*
D03*
X59800D02*
D03*
X58800D02*
D03*
X57800D02*
D03*
X56800D02*
D03*
X55800D02*
D03*
X54800D02*
D03*
X53800D02*
D03*
X52800D02*
D03*
X51800D02*
D03*
X50800D02*
D03*
X49800D02*
D03*
X48800D02*
D03*
X47800D02*
D03*
X73800Y50000D02*
D03*
X72800D02*
D03*
X71800D02*
D03*
X70800D02*
D03*
X69800D02*
D03*
X68800D02*
D03*
X67800D02*
D03*
X66800D02*
D03*
X65800D02*
D03*
X64800D02*
D03*
X63800D02*
D03*
X62800D02*
D03*
X61800D02*
D03*
X60800D02*
D03*
X59800D02*
D03*
X58800D02*
D03*
X57800D02*
D03*
X56800D02*
D03*
X55800D02*
D03*
X54800D02*
D03*
X53800D02*
D03*
X52800D02*
D03*
X51800D02*
D03*
X50800D02*
D03*
X49800D02*
D03*
X48800D02*
D03*
X47800D02*
D03*
X73800Y49000D02*
D03*
X72800D02*
D03*
X71800D02*
D03*
X70800D02*
D03*
X69800D02*
D03*
X68800D02*
D03*
X67800D02*
D03*
X66800D02*
D03*
X65800D02*
D03*
X64800D02*
D03*
X63800D02*
D03*
X62800D02*
D03*
X61800D02*
D03*
X60800D02*
D03*
X59800D02*
D03*
X58800D02*
D03*
X57800D02*
D03*
X56800D02*
D03*
X55800D02*
D03*
X54800D02*
D03*
X53800D02*
D03*
X52800D02*
D03*
X51800D02*
D03*
X50800D02*
D03*
X49800D02*
D03*
X48800D02*
D03*
X47800D02*
D03*
X73800Y48000D02*
D03*
X72800D02*
D03*
X71800D02*
D03*
X70800D02*
D03*
X69800D02*
D03*
X68800D02*
D03*
X67800D02*
D03*
X66800D02*
D03*
X65800D02*
D03*
X64800D02*
D03*
X63800D02*
D03*
X62800D02*
D03*
X61800D02*
D03*
X60800D02*
D03*
X59800D02*
D03*
X58800D02*
D03*
X57800D02*
D03*
X56800D02*
D03*
X55800D02*
D03*
X54800D02*
D03*
X53800D02*
D03*
X52800D02*
D03*
X51800D02*
D03*
X50800D02*
D03*
X49800D02*
D03*
X48800D02*
D03*
X47800D02*
D03*
X73800Y47000D02*
D03*
X72800D02*
D03*
X71800D02*
D03*
X70800D02*
D03*
X69800D02*
D03*
X68800D02*
D03*
X67800D02*
D03*
X66800D02*
D03*
X65800D02*
D03*
X64800D02*
D03*
X63800D02*
D03*
X62800D02*
D03*
X61800D02*
D03*
X60800D02*
D03*
X59800D02*
D03*
X58800D02*
D03*
X57800D02*
D03*
X56800D02*
D03*
X55800D02*
D03*
X54800D02*
D03*
X53800D02*
D03*
X52800D02*
D03*
X51800D02*
D03*
X50800D02*
D03*
X49800D02*
D03*
X48800D02*
D03*
X47800D02*
D03*
X73800Y46000D02*
D03*
X72800D02*
D03*
X71800D02*
D03*
X70800D02*
D03*
X69800D02*
D03*
X68800D02*
D03*
X67800D02*
D03*
X66800D02*
D03*
X65800D02*
D03*
X64800D02*
D03*
X63800D02*
D03*
X62800D02*
D03*
X61800D02*
D03*
X60800D02*
D03*
X59800D02*
D03*
X58800D02*
D03*
X57800D02*
D03*
X56800D02*
D03*
X55800D02*
D03*
X54800D02*
D03*
X53800D02*
D03*
X52800D02*
D03*
X51800D02*
D03*
X50800D02*
D03*
X49800D02*
D03*
X48800D02*
D03*
X47800D02*
D03*
X73800Y45000D02*
D03*
X72800D02*
D03*
X71800D02*
D03*
X70800D02*
D03*
X69800D02*
D03*
X68800D02*
D03*
X67800D02*
D03*
X66800D02*
D03*
X65800D02*
D03*
X64800D02*
D03*
X63800D02*
D03*
X62800D02*
D03*
X61800D02*
D03*
X60800D02*
D03*
X59800D02*
D03*
X58800D02*
D03*
X57800D02*
D03*
X56800D02*
D03*
X55800D02*
D03*
X54800D02*
D03*
X53800D02*
D03*
X52800D02*
D03*
X51800D02*
D03*
X50800D02*
D03*
X49800D02*
D03*
X48800D02*
D03*
X47800D02*
D03*
X73800Y44000D02*
D03*
X72800D02*
D03*
X71800D02*
D03*
X70800D02*
D03*
X69800D02*
D03*
X68800D02*
D03*
X67800D02*
D03*
X66800D02*
D03*
X65800D02*
D03*
X64800D02*
D03*
X63800D02*
D03*
X62800D02*
D03*
X61800D02*
D03*
X60800D02*
D03*
X59800D02*
D03*
X58800D02*
D03*
X57800D02*
D03*
X56800D02*
D03*
X55800D02*
D03*
X54800D02*
D03*
X53800D02*
D03*
X52800D02*
D03*
X51800D02*
D03*
X50800D02*
D03*
X49800D02*
D03*
X48800D02*
D03*
X47800D02*
D03*
X68800Y43000D02*
D03*
X67800D02*
D03*
X66800D02*
D03*
X65800D02*
D03*
X64800D02*
D03*
X63800D02*
D03*
X62800D02*
D03*
X61800D02*
D03*
X60800D02*
D03*
X59800D02*
D03*
X58800D02*
D03*
X57800D02*
D03*
X56800D02*
D03*
X55800D02*
D03*
X54800D02*
D03*
X53800D02*
D03*
X52800D02*
D03*
X51800D02*
D03*
X50800D02*
D03*
X49800D02*
D03*
X48800D02*
D03*
X47800D02*
D03*
X68800Y42000D02*
D03*
X67800D02*
D03*
X66800D02*
D03*
X65800D02*
D03*
X64800D02*
D03*
X63800D02*
D03*
X62800D02*
D03*
X61800D02*
D03*
X60800D02*
D03*
X59800D02*
D03*
X58800D02*
D03*
X57800D02*
D03*
X56800D02*
D03*
X55800D02*
D03*
X54800D02*
D03*
X53800D02*
D03*
X52800D02*
D03*
X51800D02*
D03*
X50800D02*
D03*
X49800D02*
D03*
X48800D02*
D03*
X47800D02*
D03*
X68800Y41000D02*
D03*
X67800D02*
D03*
X66800D02*
D03*
X65800D02*
D03*
X64800D02*
D03*
X63800D02*
D03*
X62800D02*
D03*
X61800D02*
D03*
X60800D02*
D03*
X59800D02*
D03*
X58800D02*
D03*
X57800D02*
D03*
X56800D02*
D03*
X55800D02*
D03*
X54800D02*
D03*
X53800D02*
D03*
X52800D02*
D03*
X51800D02*
D03*
X50800D02*
D03*
X49800D02*
D03*
X48800D02*
D03*
X47800D02*
D03*
X68800Y40000D02*
D03*
X67800D02*
D03*
X66800D02*
D03*
X65800D02*
D03*
X64800D02*
D03*
X63800D02*
D03*
X62800D02*
D03*
X61800D02*
D03*
X60800D02*
D03*
X59800D02*
D03*
X58800D02*
D03*
X57800D02*
D03*
X56800D02*
D03*
X55800D02*
D03*
X54800D02*
D03*
X53800D02*
D03*
X52800D02*
D03*
X51800D02*
D03*
X50800D02*
D03*
X49800D02*
D03*
X48800D02*
D03*
X47800D02*
D03*
X45800D02*
D03*
X46800D02*
D03*
X45800Y41000D02*
D03*
X46800D02*
D03*
X45800Y42000D02*
D03*
X46800D02*
D03*
X45800Y43000D02*
D03*
X46800D02*
D03*
X45800Y44000D02*
D03*
X46800D02*
D03*
X45800Y45000D02*
D03*
X46800D02*
D03*
X45800Y46000D02*
D03*
X46800D02*
D03*
X45800Y47000D02*
D03*
X46800D02*
D03*
X45800Y48000D02*
D03*
X46800D02*
D03*
X45800Y49000D02*
D03*
X46800D02*
D03*
X45800Y50000D02*
D03*
X46800D02*
D03*
X45800Y51000D02*
D03*
X46800D02*
D03*
X45800Y53000D02*
D03*
X46800D02*
D03*
X55800Y35000D02*
D03*
X56800D02*
D03*
X57800D02*
D03*
X58800D02*
D03*
X59800D02*
D03*
X60800D02*
D03*
X61800D02*
D03*
X62800D02*
D03*
X63800D02*
D03*
X64800D02*
D03*
X65800D02*
D03*
X66800D02*
D03*
X67800D02*
D03*
X68800D02*
D03*
X55800Y36000D02*
D03*
X56800D02*
D03*
X57800D02*
D03*
X58800D02*
D03*
X59800D02*
D03*
X60800D02*
D03*
X61800D02*
D03*
X62800D02*
D03*
X63800D02*
D03*
X64800D02*
D03*
X65800D02*
D03*
X66800D02*
D03*
X67800D02*
D03*
X68800D02*
D03*
X55800Y37000D02*
D03*
X56800D02*
D03*
X57800D02*
D03*
X58800D02*
D03*
X59800D02*
D03*
X60800D02*
D03*
X61800D02*
D03*
X62800D02*
D03*
X63800D02*
D03*
X64800D02*
D03*
X65800D02*
D03*
X66800D02*
D03*
X67800D02*
D03*
X68800D02*
D03*
X55800Y38000D02*
D03*
X56800D02*
D03*
X57800D02*
D03*
X58800D02*
D03*
X59800D02*
D03*
X60800D02*
D03*
X61800D02*
D03*
X62800D02*
D03*
X63800D02*
D03*
X64800D02*
D03*
X65800D02*
D03*
X66800D02*
D03*
X67800D02*
D03*
X68800D02*
D03*
X55800Y39000D02*
D03*
X56800D02*
D03*
X57800D02*
D03*
X58800D02*
D03*
X59800D02*
D03*
X60800D02*
D03*
X61800D02*
D03*
X62800D02*
D03*
X63800D02*
D03*
X64800D02*
D03*
X65800D02*
D03*
X66800D02*
D03*
X67800D02*
D03*
X68800D02*
D03*
D103*
X37200Y39200D02*
D03*
Y40200D02*
D03*
X38200Y39200D02*
D03*
Y40200D02*
D03*
X39200Y39200D02*
D03*
Y40200D02*
D03*
X40200Y39200D02*
D03*
Y40200D02*
D03*
X41200Y39200D02*
D03*
Y40200D02*
D03*
X42200Y39200D02*
D03*
Y40200D02*
D03*
X43200Y39200D02*
D03*
Y40200D02*
D03*
X44200Y39200D02*
D03*
Y40200D02*
D03*
X44300Y47600D02*
D03*
Y46600D02*
D03*
X43300Y47600D02*
D03*
Y46600D02*
D03*
X42300Y47600D02*
D03*
Y46600D02*
D03*
X41300Y47600D02*
D03*
Y46600D02*
D03*
X40300Y47600D02*
D03*
Y46600D02*
D03*
X39300Y47600D02*
D03*
Y46600D02*
D03*
X38300Y47600D02*
D03*
Y46600D02*
D03*
X37300Y47600D02*
D03*
Y46600D02*
D03*
D104*
X37924Y32387D02*
D03*
Y31600D02*
D03*
X37137Y32387D02*
D03*
X37150Y31600D02*
D03*
X36350Y32387D02*
D03*
Y31600D02*
D03*
X35562Y32387D02*
D03*
Y31600D02*
D03*
X34775Y32387D02*
D03*
Y31600D02*
D03*
X33987Y32387D02*
D03*
Y31600D02*
D03*
X33200D02*
D03*
D105*
Y32387D02*
D03*
D106*
X34450Y45850D02*
D03*
X21500Y39600D02*
D03*
X21600Y38850D02*
D03*
X30250Y40600D02*
D03*
X29328Y40428D02*
D03*
X28650Y41350D02*
D03*
X25500Y38200D02*
D03*
X26700Y38650D02*
D03*
X23987Y36737D02*
D03*
X22900Y37200D02*
D03*
X23450Y40450D02*
D03*
X31100Y47100D02*
D03*
X30500Y47300D02*
D03*
X28650Y41850D02*
D03*
X29300Y42200D02*
D03*
X28691Y43491D02*
D03*
X28644Y44056D02*
D03*
X28800Y44400D02*
D03*
X29800Y46500D02*
D03*
X29722Y45222D02*
D03*
X30200Y45350D02*
D03*
X30756Y45344D02*
D03*
X32300Y45200D02*
D03*
X31900Y46550D02*
D03*
X31800Y45100D02*
D03*
X33531Y44868D02*
D03*
X33500Y43900D02*
D03*
X33531Y43432D02*
D03*
X34700Y41800D02*
D03*
X33416Y41916D02*
D03*
X35100Y41700D02*
D03*
X33500Y41000D02*
D03*
X32300Y39300D02*
D03*
Y40800D02*
D03*
X32800D02*
D03*
X31691Y40491D02*
D03*
X38340Y34040D02*
D03*
X34600Y34300D02*
D03*
X37725Y33725D02*
D03*
X36675D02*
D03*
X36400Y35600D02*
D03*
X32800Y45200D02*
D03*
Y47100D02*
D03*
X41100Y55400D02*
D03*
X41000Y53700D02*
D03*
X41100Y52000D02*
D03*
X41000Y50200D02*
D03*
X35000Y50100D02*
D03*
X34000Y51000D02*
D03*
X41670Y35930D02*
D03*
X45000Y34500D02*
D03*
X53500Y35900D02*
D03*
X50900Y38300D02*
D03*
X48100Y38400D02*
D03*
X34400Y46300D02*
D03*
X28738Y46638D02*
D03*
X33950Y45892D02*
D03*
X29600Y47300D02*
D03*
X74750Y40250D02*
D03*
X74650Y39750D02*
D03*
X72800Y38200D02*
D03*
X73765Y36535D02*
D03*
X74100Y34200D02*
D03*
X72091Y37109D02*
D03*
X71300Y39300D02*
D03*
X70500Y39800D02*
D03*
X72750Y40750D02*
D03*
X72300Y31400D02*
D03*
X35500Y33300D02*
D03*
X32600Y37500D02*
D03*
X68800Y31700D02*
D03*
X32400Y32100D02*
D03*
X32900Y31100D02*
D03*
X33500Y37900D02*
D03*
X33000Y38800D02*
D03*
X33500D02*
D03*
X21150Y40250D02*
D03*
Y41750D02*
D03*
Y38750D02*
D03*
X43400Y32300D02*
D03*
X42770Y32370D02*
D03*
X36291Y46891D02*
D03*
X44350Y49050D02*
D03*
X40150Y35700D02*
D03*
X73665Y41200D02*
D03*
X70250Y37900D02*
D03*
X24716Y38016D02*
D03*
X31150Y38350D02*
D03*
X31850Y38850D02*
D03*
X24850Y37650D02*
D03*
D107*
X43050Y42750D02*
D03*
X23350Y35350D02*
D03*
D108*
X27100Y45650D02*
D03*
X28100Y51100D02*
D03*
X44891Y41959D02*
D03*
X26050Y35350D02*
D03*
X30550Y36950D02*
D03*
X31300Y35100D02*
D03*
D109*
X29722Y40422D02*
D03*
X27400Y41600D02*
D03*
X28508Y39908D02*
D03*
X26672Y38272D02*
D03*
X25466Y38784D02*
D03*
X22700Y40800D02*
D03*
X24100Y37500D02*
D03*
X24172Y38528D02*
D03*
X24050Y39200D02*
D03*
Y39800D02*
D03*
X28700Y40700D02*
D03*
X32300Y46500D02*
D03*
X34600Y44200D02*
D03*
X33500Y41500D02*
D03*
X32800Y39300D02*
D03*
Y48400D02*
D03*
X33400Y37300D02*
D03*
X40400Y35000D02*
D03*
X46400Y34700D02*
D03*
X53000Y38700D02*
D03*
X41850Y49000D02*
D03*
X37600Y35650D02*
D03*
X24050Y57600D02*
D03*
D110*
X21600Y45100D02*
D03*
Y44500D02*
D03*
X23300Y45500D02*
D03*
X29800Y31500D02*
D03*
X30457Y48957D02*
D03*
X29300Y47800D02*
D03*
X44660Y36940D02*
D03*
X46335Y39335D02*
D03*
D111*
X21350Y49750D02*
D03*
Y48750D02*
D03*
Y46750D02*
D03*
X21500Y45700D02*
D03*
Y47500D02*
D03*
Y48000D02*
D03*
X23200Y43000D02*
D03*
X24600Y45500D02*
D03*
X25300D02*
D03*
X24651Y43749D02*
D03*
X22000Y47000D02*
D03*
X41800Y34700D02*
D03*
X24550Y49550D02*
D03*
X27600Y32800D02*
D03*
X32100Y31600D02*
D03*
Y33900D02*
D03*
X30400Y34800D02*
D03*
X25700Y32800D02*
D03*
X32800Y52100D02*
D03*
X31900Y48500D02*
D03*
X31087Y52187D02*
D03*
X28200Y48900D02*
D03*
X34500Y37600D02*
D03*
X39800Y32800D02*
D03*
X33068Y44131D02*
D03*
Y41631D02*
D03*
X33800Y40200D02*
D03*
X33500Y34400D02*
D03*
X28500Y48400D02*
D03*
X41900Y36700D02*
D03*
X40200Y37500D02*
D03*
X37800Y37800D02*
D03*
X39800Y42100D02*
D03*
X40900D02*
D03*
X27000Y44600D02*
D03*
X28700Y45000D02*
D03*
D112*
X74800Y52000D02*
D03*
D113*
Y53000D02*
D03*
Y51000D02*
D03*
Y50000D02*
D03*
Y49000D02*
D03*
Y48000D02*
D03*
Y47000D02*
D03*
Y46000D02*
D03*
Y45000D02*
D03*
Y44000D02*
D03*
M02*
