%FSLAX24Y24*%
%MOIN*%
G70*
G01*
G75*
G04 Layer_Color=65535*
%ADD10R,0.1732X0.1441*%
%ADD11R,0.0827X0.0354*%
%ADD12R,0.0827X0.0354*%
%ADD13R,0.0394X0.0433*%
%ADD14R,0.0276X0.0354*%
%ADD15R,0.0433X0.0394*%
%ADD16R,0.0807X0.0236*%
%ADD17R,0.0787X0.0866*%
%ADD18R,0.0630X0.0118*%
%ADD19R,0.0118X0.0630*%
%ADD20R,0.0354X0.0276*%
%ADD21R,0.0512X0.0630*%
%ADD22R,0.0866X0.0787*%
%ADD23R,0.0610X0.0197*%
%ADD24R,0.0197X0.0610*%
%ADD25R,0.0551X0.0787*%
%ADD26R,0.0709X0.0630*%
%ADD27R,0.0500X0.1500*%
%ADD28R,0.2900X0.3000*%
%ADD29R,0.0630X0.0709*%
%ADD30R,0.1500X0.0500*%
%ADD31R,0.3000X0.2900*%
%ADD32R,0.1772X0.0591*%
%ADD33R,0.0197X0.0748*%
%ADD34R,0.0748X0.0197*%
%ADD35R,0.0197X0.0610*%
%ADD36R,0.0600X0.0800*%
%ADD37R,0.0669X0.0177*%
%ADD38R,0.0669X0.0177*%
%ADD39C,0.0100*%
%ADD40C,0.0120*%
%ADD41C,0.0200*%
%ADD42C,0.0160*%
%ADD43C,0.0150*%
%ADD44C,0.0250*%
%ADD45C,0.0080*%
%ADD46C,0.0600*%
%ADD47C,0.1732*%
%ADD48C,0.1732*%
%ADD49C,0.0591*%
%ADD50R,0.0591X0.0591*%
%ADD51C,0.0250*%
%ADD52C,0.0400*%
%ADD53C,0.0350*%
%ADD54C,0.0090*%
%ADD55C,0.0098*%
%ADD56C,0.0079*%
%ADD57C,0.0070*%
%ADD58C,0.0050*%
D39*
X17722Y34550D02*
X20472D01*
Y36000D01*
X21472D01*
Y45000D01*
Y54000D01*
X20472D02*
X21472D01*
X20472D02*
Y55450D01*
X17722D02*
X20472D01*
X76200Y34100D02*
X79600D01*
X76200Y38100D02*
X79600D01*
X75200Y34100D02*
Y34300D01*
X75400D01*
Y34900D01*
X75200D02*
X75400D01*
X75200D02*
Y35600D01*
X75400D01*
Y36600D01*
X75200D02*
X75400D01*
X75200D02*
Y37300D01*
X75400D01*
Y37900D01*
X75200D02*
X75400D01*
X75200D02*
Y38100D01*
X76200D01*
X75200Y34100D02*
X76300D01*
X79200D02*
X79900D01*
Y38100D01*
X79600D02*
X79900D01*
X79500Y34100D02*
X79900Y34500D01*
X79500Y38100D02*
X79900Y37700D01*
X76200Y38100D02*
X79600D01*
X76200Y42100D02*
X79600D01*
X75200Y38100D02*
Y38300D01*
X75400D01*
Y38900D01*
X75200D02*
X75400D01*
X75200D02*
Y39600D01*
X75400D01*
Y40600D01*
X75200D02*
X75400D01*
X75200D02*
Y41300D01*
X75400D01*
Y41900D01*
X75200D02*
X75400D01*
X75200D02*
Y42100D01*
X76200D01*
X75200Y38100D02*
X76300D01*
X79200D02*
X79900D01*
Y42100D01*
X79600D02*
X79900D01*
X79500Y38100D02*
X79900Y38500D01*
X79500Y42100D02*
X79900Y41700D01*
X33113Y35009D02*
Y37962D01*
Y35009D02*
X36853D01*
Y37962D01*
X33113D02*
X36853D01*
X33113Y35403D02*
X33506Y35009D01*
X26200Y48950D02*
Y52750D01*
X22900Y48900D02*
Y52700D01*
X49400Y31150D02*
Y34950D01*
X52700Y31200D02*
Y35000D01*
X22450Y34400D02*
X26250D01*
X22500Y31100D02*
X26300D01*
X44350Y56675D02*
X44275Y56750D01*
X44125D01*
X44050Y56675D01*
Y56375D01*
X44125Y56300D01*
X44275D01*
X44350Y56375D01*
X44575Y56300D02*
X44725D01*
X44800Y56375D01*
Y56525D01*
X44725Y56600D01*
X44575D01*
X44500Y56525D01*
Y56375D01*
X44575Y56300D01*
X44950Y56150D02*
Y56600D01*
X45175D01*
X45250Y56525D01*
Y56375D01*
X45175Y56300D01*
X44950D01*
X45400Y56600D02*
Y56375D01*
X45475Y56300D01*
X45699D01*
Y56225D01*
X45624Y56150D01*
X45550D01*
X45699Y56300D02*
Y56600D01*
X45849D02*
Y56300D01*
Y56450D01*
X45924Y56525D01*
X45999Y56600D01*
X46074D01*
X46299Y56300D02*
X46449D01*
X46374D01*
Y56600D01*
X46299D01*
X46824Y56150D02*
X46899D01*
X46974Y56225D01*
Y56600D01*
X46749D01*
X46674Y56525D01*
Y56375D01*
X46749Y56300D01*
X46974D01*
X47124Y56750D02*
Y56300D01*
Y56525D01*
X47199Y56600D01*
X47349D01*
X47424Y56525D01*
Y56300D01*
X47649Y56675D02*
Y56600D01*
X47574D01*
X47724D01*
X47649D01*
Y56375D01*
X47724Y56300D01*
X48699Y56750D02*
X48399D01*
Y56300D01*
X48699D01*
X48399Y56525D02*
X48549D01*
X48848Y56600D02*
Y56300D01*
Y56450D01*
X48923Y56525D01*
X48998Y56600D01*
X49073D01*
X49298Y56300D02*
X49448D01*
X49373D01*
Y56600D01*
X49298D01*
X49973D02*
X49748D01*
X49673Y56525D01*
Y56375D01*
X49748Y56300D01*
X49973D01*
X50873Y56750D02*
X50723D01*
X50798D01*
Y56375D01*
X50723Y56300D01*
X50648D01*
X50573Y56375D01*
X51098Y56300D02*
X51248D01*
X51323Y56375D01*
Y56525D01*
X51248Y56600D01*
X51098D01*
X51023Y56525D01*
Y56375D01*
X51098Y56300D01*
X51473D02*
Y56600D01*
X51698D01*
X51773Y56525D01*
Y56300D01*
X51997Y56600D02*
X52147D01*
X52222Y56525D01*
Y56300D01*
X51997D01*
X51922Y56375D01*
X51997Y56450D01*
X52222D01*
X52372Y56300D02*
X52597D01*
X52672Y56375D01*
X52597Y56450D01*
X52447D01*
X52372Y56525D01*
X52447Y56600D01*
X52672D01*
X43700Y53150D02*
X43600Y53250D01*
X43400D01*
X43300Y53150D01*
Y52750D01*
X43400Y52650D01*
X43600D01*
X43700Y52750D01*
Y52950D01*
X43500D01*
X43900Y52650D02*
Y53250D01*
X44300Y52650D01*
Y53250D01*
X44500D02*
Y52650D01*
X44800D01*
X44899Y52750D01*
Y53150D01*
X44800Y53250D01*
X44500D01*
X43100Y52150D02*
X43200Y52250D01*
X43400D01*
X43500Y52150D01*
Y52050D01*
X43400Y51950D01*
X43300D01*
X43400D01*
X43500Y51850D01*
Y51750D01*
X43400Y51650D01*
X43200D01*
X43100Y51750D01*
X43700Y51650D02*
Y51750D01*
X43800D01*
Y51650D01*
X43700D01*
X44200Y52150D02*
X44300Y52250D01*
X44500D01*
X44600Y52150D01*
Y52050D01*
X44500Y51950D01*
X44400D01*
X44500D01*
X44600Y51850D01*
Y51750D01*
X44500Y51650D01*
X44300D01*
X44200Y51750D01*
X44799Y52250D02*
Y51850D01*
X44999Y51650D01*
X45199Y51850D01*
Y52250D01*
X70650Y35150D02*
X70550Y35250D01*
X70350D01*
X70250Y35150D01*
Y34750D01*
X70350Y34650D01*
X70550D01*
X70650Y34750D01*
Y34950D01*
X70450D01*
X70850Y34650D02*
Y35250D01*
X71250Y34650D01*
Y35250D01*
X71450D02*
Y34650D01*
X71750D01*
X71849Y34750D01*
Y35150D01*
X71750Y35250D01*
X71450D01*
D40*
X69533Y56300D02*
X69200D01*
X69533Y56633D01*
Y56717D01*
X69450Y56800D01*
X69283D01*
X69200Y56717D01*
X69700D02*
X69783Y56800D01*
X69950D01*
X70033Y56717D01*
Y56383D01*
X69950Y56300D01*
X69783D01*
X69700Y56383D01*
Y56717D01*
X70200D02*
X70283Y56800D01*
X70450D01*
X70533Y56717D01*
Y56383D01*
X70450Y56300D01*
X70283D01*
X70200Y56383D01*
Y56717D01*
X71033Y56800D02*
X70866Y56717D01*
X70700Y56550D01*
Y56383D01*
X70783Y56300D01*
X70949D01*
X71033Y56383D01*
Y56467D01*
X70949Y56550D01*
X70700D01*
D41*
X45000Y58400D02*
X44800Y58600D01*
X44400D01*
X44200Y58400D01*
Y58200D01*
X44400Y58000D01*
X44800D01*
X45000Y57800D01*
Y57600D01*
X44800Y57400D01*
X44400D01*
X44200Y57600D01*
X45600Y57400D02*
X45999D01*
X46199Y57600D01*
Y58000D01*
X45999Y58200D01*
X45600D01*
X45400Y58000D01*
Y57600D01*
X45600Y57400D01*
X46599D02*
Y58200D01*
X46799D01*
X46999Y58000D01*
Y57400D01*
Y58000D01*
X47199Y58200D01*
X47399Y58000D01*
Y57400D01*
X47999Y58200D02*
X48399D01*
X48599Y58000D01*
Y57400D01*
X47999D01*
X47799Y57600D01*
X47999Y57800D01*
X48599D01*
X50998Y58400D02*
X50798Y58600D01*
X50398D01*
X50198Y58400D01*
Y58200D01*
X50398Y58000D01*
X50798D01*
X50998Y57800D01*
Y57600D01*
X50798Y57400D01*
X50398D01*
X50198Y57600D01*
X51997Y57400D02*
X51598D01*
X51398Y57600D01*
Y58000D01*
X51598Y58200D01*
X51997D01*
X52197Y58000D01*
Y57800D01*
X51398D01*
X52597Y58200D02*
Y57400D01*
Y57800D01*
X52797Y58000D01*
X52997Y58200D01*
X53197D01*
X53797Y57400D02*
X54197D01*
X53997D01*
Y58200D01*
X53797D01*
X54997D02*
X55396D01*
X55596Y58000D01*
Y57400D01*
X54997D01*
X54797Y57600D01*
X54997Y57800D01*
X55596D01*
X55996Y57400D02*
X56396D01*
X56196D01*
Y58600D01*
X55996D01*
X56996D02*
X57396D01*
X57196D01*
Y57400D01*
X56996D01*
X57396D01*
X58595Y58600D02*
X58195D01*
X57996Y58400D01*
Y57600D01*
X58195Y57400D01*
X58595D01*
X58795Y57600D01*
Y58400D01*
X58595Y58600D01*
X60395Y57400D02*
Y58600D01*
X60995D01*
X61195Y58400D01*
Y58000D01*
X60995Y57800D01*
X60395D01*
X61594Y58200D02*
Y57400D01*
Y57800D01*
X61794Y58000D01*
X61994Y58200D01*
X62194D01*
X62994Y57400D02*
X63394D01*
X63594Y57600D01*
Y58000D01*
X63394Y58200D01*
X62994D01*
X62794Y58000D01*
Y57600D01*
X62994Y57400D01*
X64194Y58400D02*
Y58200D01*
X63994D01*
X64393D01*
X64194D01*
Y57600D01*
X64393Y57400D01*
X65193D02*
X65593D01*
X65793Y57600D01*
Y58000D01*
X65593Y58200D01*
X65193D01*
X64993Y58000D01*
Y57600D01*
X65193Y57400D01*
X67393Y58600D02*
Y57400D01*
X67992D01*
X68192Y57600D01*
Y57800D01*
X67992Y58000D01*
X67393D01*
X67992D01*
X68192Y58200D01*
Y58400D01*
X67992Y58600D01*
X67393D01*
X68792Y57400D02*
X69192D01*
X69392Y57600D01*
Y58000D01*
X69192Y58200D01*
X68792D01*
X68592Y58000D01*
Y57600D01*
X68792Y57400D01*
X69992Y58200D02*
X70392D01*
X70591Y58000D01*
Y57400D01*
X69992D01*
X69792Y57600D01*
X69992Y57800D01*
X70591D01*
X70991Y58200D02*
Y57400D01*
Y57800D01*
X71191Y58000D01*
X71391Y58200D01*
X71591D01*
X72991Y58600D02*
Y57400D01*
X72391D01*
X72191Y57600D01*
Y58000D01*
X72391Y58200D01*
X72991D01*
D43*
X75500Y42900D02*
Y53550D01*
X69800Y43000D02*
X75400D01*
X69800Y34250D02*
Y43000D01*
X54900Y34250D02*
X69800D01*
X54900D02*
Y39000D01*
X47050D02*
X54900D01*
X45500Y53550D02*
X75500D01*
X31650Y55450D02*
Y58700D01*
X23100Y55400D02*
Y58650D01*
D44*
X31300Y52650D02*
Y53100D01*
Y52650D02*
X35500D01*
Y53100D01*
X31300Y54100D02*
Y54550D01*
X33350D01*
X35500Y54100D02*
Y54550D01*
X33350D02*
X35500D01*
X75400Y43000D02*
X75500Y42900D01*
D45*
X36600Y39400D02*
X36433D01*
X36517D01*
Y38900D01*
X36600Y38983D01*
X35850Y38900D02*
X36017Y38983D01*
X36183Y39150D01*
Y39317D01*
X36100Y39400D01*
X35934D01*
X35850Y39317D01*
Y39233D01*
X35934Y39150D01*
X36183D01*
X36600Y40400D02*
X36433D01*
X36517D01*
Y39900D01*
X36600Y39983D01*
X35850Y39900D02*
X36183D01*
Y40150D01*
X36017Y40067D01*
X35934D01*
X35850Y40150D01*
Y40317D01*
X35934Y40400D01*
X36100D01*
X36183Y40317D01*
X45000Y40050D02*
X45167D01*
X45083D01*
Y40550D01*
X45000Y40467D01*
X44867Y39400D02*
X45200D01*
X44867Y39067D01*
Y38983D01*
X44950Y38900D01*
X45117D01*
X45200Y38983D01*
X44400Y48300D02*
X44567D01*
X44483D01*
Y48800D01*
X44400Y48717D01*
X45150Y48800D02*
X44983Y48717D01*
X44817Y48550D01*
Y48383D01*
X44900Y48300D01*
X45066D01*
X45150Y48383D01*
Y48467D01*
X45066Y48550D01*
X44817D01*
X43850Y45300D02*
X44017D01*
X43933D01*
Y45800D01*
X43850Y45717D01*
X44600Y45800D02*
X44267D01*
Y45550D01*
X44433Y45633D01*
X44516D01*
X44600Y45550D01*
Y45383D01*
X44516Y45300D01*
X44350D01*
X44267Y45383D01*
X37200Y45450D02*
X37367D01*
X37283D01*
Y45950D01*
X37200Y45867D01*
X37483Y48300D02*
X37150D01*
X37483Y48633D01*
Y48717D01*
X37400Y48800D01*
X37233D01*
X37150Y48717D01*
X25150Y54150D02*
X24750D01*
X25150Y54417D01*
X24750D01*
X24817Y54550D02*
X24750Y54617D01*
Y54750D01*
X24817Y54816D01*
X25083D01*
X25150Y54750D01*
Y54617D01*
X25083Y54550D01*
X24817D01*
X24100Y54300D02*
X23700D01*
X24100Y54567D01*
X23700D01*
X24100Y54700D02*
Y54833D01*
Y54767D01*
X23700D01*
X23767Y54700D01*
X31050Y54050D02*
X30650D01*
X30783Y54183D01*
X30650Y54317D01*
X31050D01*
X30717Y54450D02*
X30650Y54517D01*
Y54650D01*
X30717Y54716D01*
X30983D01*
X31050Y54650D01*
Y54517D01*
X30983Y54450D01*
X30717D01*
X27150Y54100D02*
X26750D01*
X26883Y54233D01*
X26750Y54367D01*
X27150D01*
Y54700D02*
X26750D01*
X26950Y54500D01*
Y54766D01*
X67650Y55750D02*
X67800D01*
X67850Y55800D01*
X67800Y55850D01*
X67700D01*
X67650Y55900D01*
X67700Y55950D01*
X67850D01*
X68000Y55750D02*
X68100D01*
X68150Y55800D01*
Y55900D01*
X68100Y55950D01*
X68000D01*
X67950Y55900D01*
Y55800D01*
X68000Y55750D01*
X68250D02*
Y55950D01*
X68300D01*
X68350Y55900D01*
Y55750D01*
Y55900D01*
X68400Y55950D01*
X68450Y55900D01*
Y55750D01*
X68600Y55950D02*
X68700D01*
X68750Y55900D01*
Y55750D01*
X68600D01*
X68550Y55800D01*
X68600Y55850D01*
X68750D01*
X68850Y55750D02*
Y55800D01*
X68900D01*
Y55750D01*
X68850D01*
X69100D02*
Y55950D01*
X69150D01*
X69200Y55900D01*
Y55750D01*
Y55900D01*
X69249Y55950D01*
X69299Y55900D01*
Y55750D01*
X69399D02*
X69499D01*
X69449D01*
Y55950D01*
X69399D01*
X69699Y56000D02*
Y55950D01*
X69649D01*
X69749D01*
X69699D01*
Y55800D01*
X69749Y55750D01*
X69899D02*
Y55800D01*
X69949D01*
Y55750D01*
X69899D01*
X70299D02*
X70199D01*
X70149Y55800D01*
Y55900D01*
X70199Y55950D01*
X70299D01*
X70349Y55900D01*
Y55850D01*
X70149D01*
X70649Y56050D02*
Y55750D01*
X70499D01*
X70449Y55800D01*
Y55900D01*
X70499Y55950D01*
X70649D01*
X70749D02*
Y55800D01*
X70799Y55750D01*
X70949D01*
Y55950D01*
D55*
X71996Y41085D02*
G03*
X71996Y41085I-49J0D01*
G01*
X70486Y38491D02*
G03*
X70486Y38491I-49J0D01*
G01*
X28157Y45538D02*
G03*
X28157Y45538I-49J0D01*
G01*
X37886Y36291D02*
G03*
X37886Y36291I-49J0D01*
G01*
X42086Y49591D02*
G03*
X42086Y49591I-49J0D01*
G01*
X34686Y46591D02*
G03*
X34686Y46591I-49J0D01*
G01*
X31940Y37463D02*
G03*
X31940Y37463I-49J0D01*
G01*
X28774Y51417D02*
G03*
X28774Y51417I-49J0D01*
G01*
X32786Y50691D02*
G03*
X32786Y50691I-49J0D01*
G01*
X41107Y37190D02*
G03*
X41107Y37190I-49J0D01*
G01*
X23686Y35991D02*
G03*
X23686Y35991I-49J0D01*
G01*
X43286Y43391D02*
G03*
X43286Y43391I-49J0D01*
G01*
X23511Y40368D02*
G03*
X23511Y40368I-49J0D01*
G01*
D56*
X72836Y40984D02*
G03*
X73164Y40984I164J0D01*
G01*
X24550Y40437D02*
G03*
X25050Y40437I250J0D01*
G01*
X74002Y35451D02*
X74198D01*
X72508Y40984D02*
X72836D01*
X73164D02*
X73492D01*
X72508Y39016D02*
X73492D01*
X72508D02*
Y40984D01*
X73492Y39016D02*
Y40984D01*
X70802Y40151D02*
X70998D01*
X70772Y38471D02*
X71303D01*
X72228D02*
Y38491D01*
X70772Y37329D02*
X71303D01*
X72228Y37309D02*
Y37329D01*
X70772Y38491D02*
X72228D01*
X70772Y37309D02*
X72228D01*
X28580Y40380D02*
X33620D01*
X28580Y45420D02*
X33620D01*
X28580Y40380D02*
Y45420D01*
X33620Y40380D02*
Y45420D01*
X40653Y53247D02*
Y54153D01*
X39165D02*
X39794D01*
X39165Y53247D02*
X39794D01*
X39165D02*
Y54153D01*
X40791Y53247D02*
Y54153D01*
X40109D02*
X40791D01*
X40109Y53247D02*
X40791D01*
X40627Y51547D02*
Y52453D01*
X39139D02*
X39769D01*
X39139Y51547D02*
X39769D01*
X39139D02*
Y52453D01*
X40765Y51547D02*
Y52453D01*
X40083D02*
X40765D01*
X40083Y51547D02*
X40765D01*
X40627Y49747D02*
Y50653D01*
X39139D02*
X39769D01*
X39139Y49747D02*
X39769D01*
X39139D02*
Y50653D01*
X40765Y49747D02*
Y50653D01*
X40083D02*
X40765D01*
X40083Y49747D02*
X40765D01*
X40701Y54947D02*
Y55853D01*
X39213D02*
X39843D01*
X39213Y54947D02*
X39843D01*
X39213D02*
Y55853D01*
X40839Y54947D02*
Y55853D01*
X40157D02*
X40839D01*
X40157Y54947D02*
X40839D01*
X38172Y36271D02*
X38703D01*
X39628D02*
Y36291D01*
X38172Y35129D02*
X38703D01*
X39628Y35109D02*
Y35129D01*
X38172Y36291D02*
X39628D01*
X38172Y35109D02*
X39628D01*
X42372Y49571D02*
X42903D01*
X43828D02*
Y49591D01*
X42372Y48429D02*
X42903D01*
X43828Y48409D02*
Y48429D01*
X42372Y49591D02*
X43828D01*
X42372Y48409D02*
X43828D01*
X34972Y46571D02*
X35503D01*
X36428D02*
Y46591D01*
X34972Y45429D02*
X35503D01*
X36428Y45409D02*
Y45429D01*
X34972Y46591D02*
X36428D01*
X34972Y45409D02*
X36428D01*
X31871Y36597D02*
Y37128D01*
Y35672D02*
X31891D01*
X30729Y36597D02*
Y37128D01*
X30709Y35672D02*
X30729D01*
X31891D02*
Y37128D01*
X30709Y35672D02*
Y37128D01*
X29178Y48878D02*
X31422D01*
X29178Y51122D02*
X31422D01*
X29178Y48878D02*
Y51122D01*
X31422Y48878D02*
Y51122D01*
X27002Y46951D02*
X27198D01*
X33851Y50902D02*
Y51098D01*
X33072Y50671D02*
X33603D01*
X34528D02*
Y50691D01*
X33072Y49529D02*
X33603D01*
X34528Y49509D02*
Y49529D01*
X33072Y50691D02*
X34528D01*
X33072Y49509D02*
X34528D01*
X22885Y44182D02*
Y44418D01*
X23515Y44182D02*
Y44418D01*
X22885Y44182D02*
X23515D01*
X22885Y44257D02*
X23515D01*
X24985Y44182D02*
Y44418D01*
X25615Y44182D02*
Y44418D01*
X24985Y44182D02*
X25615D01*
X24985Y44257D02*
X25615D01*
X49351Y38402D02*
Y38598D01*
X53185Y36982D02*
Y37218D01*
X53815Y36982D02*
Y37218D01*
X53185Y36982D02*
X53815D01*
X53185Y37057D02*
X53815D01*
X48415Y37082D02*
Y37318D01*
X47785Y37082D02*
Y37318D01*
X48415D01*
X47785Y37243D02*
X48415D01*
X30782Y31285D02*
X31018D01*
X30782Y31915D02*
X31018D01*
Y31285D02*
Y31915D01*
X30943Y31285D02*
Y31915D01*
X30782Y33585D02*
X31018D01*
X30782Y34215D02*
X31018D01*
Y33585D02*
Y34215D01*
X30943Y33585D02*
Y34215D01*
X36700Y38700D02*
X44700D01*
X36700Y40700D02*
X44700D01*
Y38700D02*
Y40700D01*
X36700Y38700D02*
Y40700D01*
X36800Y48100D02*
X44800D01*
X36800Y46100D02*
X44800D01*
X36800D02*
Y48100D01*
X44800Y46100D02*
Y48100D01*
X32609Y31009D02*
Y32978D01*
Y31009D02*
X38515D01*
X32609Y32978D02*
X38515D01*
Y31009D02*
Y32978D01*
X32651Y52002D02*
Y52198D01*
X34951Y51702D02*
Y51898D01*
X45211Y33489D02*
Y37111D01*
X41589Y33489D02*
Y37111D01*
X45211D01*
X41589Y33489D02*
X45211D01*
X23972Y35971D02*
X24503D01*
X25428D02*
Y35991D01*
X23972Y34829D02*
X24503D01*
X25428Y34809D02*
Y34829D01*
X23972Y35991D02*
X25428D01*
X23972Y34809D02*
X25428D01*
X43572Y43371D02*
X44103D01*
X45028D02*
Y43391D01*
X43572Y42229D02*
X44103D01*
X45028Y42209D02*
Y42229D01*
X43572Y43391D02*
X45028D01*
X43572Y42209D02*
X45028D01*
X23954Y40437D02*
X24550D01*
X25050D02*
X25646D01*
X23954Y36363D02*
X25646D01*
X23954D02*
Y40437D01*
X25646Y36363D02*
Y40437D01*
D57*
X21987Y33895D02*
X21887D01*
X21937D01*
Y34195D01*
X21987D01*
X21887D01*
X21588Y33895D02*
X21688D01*
X21737Y33945D01*
Y34145D01*
X21688Y34195D01*
X21588D01*
X21538Y34145D01*
Y33945D01*
X21588Y33895D01*
X30300Y32450D02*
X30250Y32500D01*
X30150D01*
X30100Y32450D01*
Y32250D01*
X30150Y32200D01*
X30250D01*
X30300Y32250D01*
X30400Y32200D02*
X30500D01*
X30450D01*
Y32500D01*
X30400Y32450D01*
X48900Y37950D02*
X48950Y37900D01*
X49050D01*
X49100Y37950D01*
Y38150D01*
X49050Y38200D01*
X48950D01*
X48900Y38150D01*
X48800Y37950D02*
X48750Y37900D01*
X48650D01*
X48600Y37950D01*
Y38000D01*
X48650Y38050D01*
X48700D01*
X48650D01*
X48600Y38100D01*
Y38150D01*
X48650Y38200D01*
X48750D01*
X48800Y38150D01*
X30200Y34750D02*
X30150Y34800D01*
X30050D01*
X30000Y34750D01*
Y34550D01*
X30050Y34500D01*
X30150D01*
X30200Y34550D01*
X30450Y34500D02*
Y34800D01*
X30300Y34650D01*
X30500D01*
X34500Y51050D02*
X34450Y51100D01*
X34350D01*
X34300Y51050D01*
Y50850D01*
X34350Y50800D01*
X34450D01*
X34500Y50850D01*
X34800Y51100D02*
X34600D01*
Y50950D01*
X34700Y51000D01*
X34750D01*
X34800Y50950D01*
Y50850D01*
X34750Y50800D01*
X34650D01*
X34600Y50850D01*
X33050Y51550D02*
X33000Y51600D01*
X32900D01*
X32850Y51550D01*
Y51350D01*
X32900Y51300D01*
X33000D01*
X33050Y51350D01*
X33350Y51600D02*
X33250Y51550D01*
X33150Y51450D01*
Y51350D01*
X33200Y51300D01*
X33300D01*
X33350Y51350D01*
Y51400D01*
X33300Y51450D01*
X33150D01*
X53405Y38555D02*
X53355Y38605D01*
X53255D01*
X53205Y38555D01*
Y38355D01*
X53255Y38305D01*
X53355D01*
X53405Y38355D01*
X53505Y38555D02*
X53555Y38605D01*
X53655D01*
X53705Y38555D01*
Y38505D01*
X53655Y38455D01*
X53705Y38405D01*
Y38355D01*
X53655Y38305D01*
X53555D01*
X53505Y38355D01*
Y38405D01*
X53555Y38455D01*
X53505Y38505D01*
Y38555D01*
X53555Y38455D02*
X53655D01*
X53805Y38305D02*
X53905D01*
X53855D01*
Y38605D01*
X53805Y38555D01*
X48195Y35745D02*
X48245Y35695D01*
X48345D01*
X48395Y35745D01*
Y35945D01*
X48345Y35995D01*
X48245D01*
X48195Y35945D01*
X48095Y35745D02*
X48045Y35695D01*
X47945D01*
X47895Y35745D01*
Y35795D01*
X47945Y35845D01*
X47895Y35895D01*
Y35945D01*
X47945Y35995D01*
X48045D01*
X48095Y35945D01*
Y35895D01*
X48045Y35845D01*
X48095Y35795D01*
Y35745D01*
X48045Y35845D02*
X47945D01*
X47595Y35995D02*
X47795D01*
X47595Y35795D01*
Y35745D01*
X47645Y35695D01*
X47745D01*
X47795Y35745D01*
X22350Y43700D02*
X22300Y43650D01*
Y43550D01*
X22350Y43500D01*
X22550D01*
X22600Y43550D01*
Y43650D01*
X22550Y43700D01*
X22350Y43800D02*
X22300Y43850D01*
Y43950D01*
X22350Y44000D01*
X22400D01*
X22450Y43950D01*
X22500Y44000D01*
X22550D01*
X22600Y43950D01*
Y43850D01*
X22550Y43800D01*
X22500D01*
X22450Y43850D01*
X22400Y43800D01*
X22350D01*
X22450Y43850D02*
Y43950D01*
X22300Y44100D02*
Y44300D01*
X22350D01*
X22550Y44100D01*
X22600D01*
X24550Y43700D02*
X24500Y43650D01*
Y43550D01*
X24550Y43500D01*
X24750D01*
X24800Y43550D01*
Y43650D01*
X24750Y43700D01*
X24550Y43800D02*
X24500Y43850D01*
Y43950D01*
X24550Y44000D01*
X24600D01*
X24650Y43950D01*
X24700Y44000D01*
X24750D01*
X24800Y43950D01*
Y43850D01*
X24750Y43800D01*
X24700D01*
X24650Y43850D01*
X24600Y43800D01*
X24550D01*
X24650Y43850D02*
Y43950D01*
X24550Y44100D02*
X24500Y44150D01*
Y44250D01*
X24550Y44300D01*
X24600D01*
X24650Y44250D01*
X24700Y44300D01*
X24750D01*
X24800Y44250D01*
Y44150D01*
X24750Y44100D01*
X24700D01*
X24650Y44150D01*
X24600Y44100D01*
X24550D01*
X24650Y44150D02*
Y44250D01*
X27600Y46600D02*
X27650Y46650D01*
Y46750D01*
X27600Y46800D01*
X27400D01*
X27350Y46750D01*
Y46650D01*
X27400Y46600D01*
X27600Y46500D02*
X27650Y46450D01*
Y46350D01*
X27600Y46300D01*
X27550D01*
X27500Y46350D01*
X27450Y46300D01*
X27400D01*
X27350Y46350D01*
Y46450D01*
X27400Y46500D01*
X27450D01*
X27500Y46450D01*
X27550Y46500D01*
X27600D01*
X27500Y46450D02*
Y46350D01*
X27400Y46200D02*
X27350Y46150D01*
Y46050D01*
X27400Y46000D01*
X27600D01*
X27650Y46050D01*
Y46150D01*
X27600Y46200D01*
X27550D01*
X27500Y46150D01*
Y46000D01*
X38300Y36750D02*
X38250Y36800D01*
X38150D01*
X38100Y36750D01*
Y36550D01*
X38150Y36500D01*
X38250D01*
X38300Y36550D01*
X38400D02*
X38450Y36500D01*
X38550D01*
X38600Y36550D01*
Y36750D01*
X38550Y36800D01*
X38450D01*
X38400Y36750D01*
Y36700D01*
X38450Y36650D01*
X38600D01*
X38900Y36500D02*
X38700D01*
X38900Y36700D01*
Y36750D01*
X38850Y36800D01*
X38750D01*
X38700Y36750D01*
X34835Y47235D02*
X34785Y47285D01*
X34685D01*
X34635Y47235D01*
Y47035D01*
X34685Y46985D01*
X34785D01*
X34835Y47035D01*
X34935D02*
X34985Y46985D01*
X35085D01*
X35135Y47035D01*
Y47235D01*
X35085Y47285D01*
X34985D01*
X34935Y47235D01*
Y47185D01*
X34985Y47135D01*
X35135D01*
X35235Y47235D02*
X35285Y47285D01*
X35385D01*
X35435Y47235D01*
Y47185D01*
X35385Y47135D01*
X35435Y47085D01*
Y47035D01*
X35385Y46985D01*
X35285D01*
X35235Y47035D01*
Y47085D01*
X35285Y47135D01*
X35235Y47185D01*
Y47235D01*
X35285Y47135D02*
X35385D01*
X30300Y35850D02*
X30250Y35800D01*
Y35700D01*
X30300Y35650D01*
X30500D01*
X30550Y35700D01*
Y35800D01*
X30500Y35850D01*
X30550Y35950D02*
Y36050D01*
Y36000D01*
X30250D01*
X30300Y35950D01*
Y36200D02*
X30250Y36250D01*
Y36350D01*
X30300Y36400D01*
X30500D01*
X30550Y36350D01*
Y36250D01*
X30500Y36200D01*
X30300D01*
X30550Y36700D02*
Y36500D01*
X30350Y36700D01*
X30300D01*
X30250Y36650D01*
Y36550D01*
X30300Y36500D01*
X43000Y50050D02*
X42950Y50100D01*
X42850D01*
X42800Y50050D01*
Y49850D01*
X42850Y49800D01*
X42950D01*
X43000Y49850D01*
X43100Y49800D02*
X43200D01*
X43150D01*
Y50100D01*
X43100Y50050D01*
X43350D02*
X43400Y50100D01*
X43500D01*
X43550Y50050D01*
Y49850D01*
X43500Y49800D01*
X43400D01*
X43350Y49850D01*
Y50050D01*
X43650D02*
X43700Y50100D01*
X43800D01*
X43850Y50050D01*
Y50000D01*
X43800Y49950D01*
X43750D01*
X43800D01*
X43850Y49900D01*
Y49850D01*
X43800Y49800D01*
X43700D01*
X43650Y49850D01*
X70250Y39300D02*
X70200Y39250D01*
Y39150D01*
X70250Y39100D01*
X70450D01*
X70500Y39150D01*
Y39250D01*
X70450Y39300D01*
X70500Y39400D02*
Y39500D01*
Y39450D01*
X70200D01*
X70250Y39400D01*
Y39650D02*
X70200Y39700D01*
Y39800D01*
X70250Y39850D01*
X70450D01*
X70500Y39800D01*
Y39700D01*
X70450Y39650D01*
X70250D01*
X70200Y40150D02*
X70250Y40050D01*
X70350Y39950D01*
X70450D01*
X70500Y40000D01*
Y40100D01*
X70450Y40150D01*
X70400D01*
X70350Y40100D01*
Y39950D01*
X74650Y35200D02*
X74700Y35250D01*
Y35350D01*
X74650Y35400D01*
X74450D01*
X74400Y35350D01*
Y35250D01*
X74450Y35200D01*
X74400Y35100D02*
Y35000D01*
Y35050D01*
X74700D01*
X74650Y35100D01*
Y34850D02*
X74700Y34800D01*
Y34700D01*
X74650Y34650D01*
X74450D01*
X74400Y34700D01*
Y34800D01*
X74450Y34850D01*
X74650D01*
X74700Y34550D02*
Y34350D01*
X74650D01*
X74450Y34550D01*
X74400D01*
X71900Y36650D02*
X71950Y36600D01*
X72050D01*
X72100Y36650D01*
Y36850D01*
X72050Y36900D01*
X71950D01*
X71900Y36850D01*
X71800Y36900D02*
X71700D01*
X71750D01*
Y36600D01*
X71800Y36650D01*
X71550D02*
X71500Y36600D01*
X71400D01*
X71350Y36650D01*
Y36850D01*
X71400Y36900D01*
X71500D01*
X71550Y36850D01*
Y36650D01*
X71250D02*
X71200Y36600D01*
X71100D01*
X71050Y36650D01*
Y36700D01*
X71100Y36750D01*
X71050Y36800D01*
Y36850D01*
X71100Y36900D01*
X71200D01*
X71250Y36850D01*
Y36800D01*
X71200Y36750D01*
X71250Y36700D01*
Y36650D01*
X71200Y36750D02*
X71100D01*
X39200Y54700D02*
Y54400D01*
X39350D01*
X39400Y54450D01*
Y54650D01*
X39350Y54700D01*
X39200D01*
X39700Y54650D02*
X39650Y54700D01*
X39550D01*
X39500Y54650D01*
Y54600D01*
X39550Y54550D01*
X39650D01*
X39700Y54500D01*
Y54450D01*
X39650Y54400D01*
X39550D01*
X39500Y54450D01*
X39800Y54400D02*
X39900D01*
X39850D01*
Y54700D01*
X39800Y54650D01*
X39200Y53000D02*
Y52700D01*
X39350D01*
X39400Y52750D01*
Y52950D01*
X39350Y53000D01*
X39200D01*
X39700Y52950D02*
X39650Y53000D01*
X39550D01*
X39500Y52950D01*
Y52900D01*
X39550Y52850D01*
X39650D01*
X39700Y52800D01*
Y52750D01*
X39650Y52700D01*
X39550D01*
X39500Y52750D01*
X40000Y52700D02*
X39800D01*
X40000Y52900D01*
Y52950D01*
X39950Y53000D01*
X39850D01*
X39800Y52950D01*
X39100Y51200D02*
Y50900D01*
X39250D01*
X39300Y50950D01*
Y51150D01*
X39250Y51200D01*
X39100D01*
X39600Y51150D02*
X39550Y51200D01*
X39450D01*
X39400Y51150D01*
Y51100D01*
X39450Y51050D01*
X39550D01*
X39600Y51000D01*
Y50950D01*
X39550Y50900D01*
X39450D01*
X39400Y50950D01*
X39700Y51150D02*
X39750Y51200D01*
X39850D01*
X39900Y51150D01*
Y51100D01*
X39850Y51050D01*
X39800D01*
X39850D01*
X39900Y51000D01*
Y50950D01*
X39850Y50900D01*
X39750D01*
X39700Y50950D01*
X39200Y56400D02*
Y56100D01*
X39350D01*
X39400Y56150D01*
Y56350D01*
X39350Y56400D01*
X39200D01*
X39700Y56350D02*
X39650Y56400D01*
X39550D01*
X39500Y56350D01*
Y56300D01*
X39550Y56250D01*
X39650D01*
X39700Y56200D01*
Y56150D01*
X39650Y56100D01*
X39550D01*
X39500Y56150D01*
X39950Y56100D02*
Y56400D01*
X39800Y56250D01*
X40000D01*
X39155Y32715D02*
Y32815D01*
Y32765D01*
X38905D01*
X38855Y32815D01*
Y32865D01*
X38905Y32915D01*
X38855Y32615D02*
X39155D01*
Y32465D01*
X39105Y32415D01*
X39005D01*
X38955Y32465D01*
Y32615D01*
X38905Y32315D02*
X38855Y32265D01*
Y32165D01*
X38905Y32115D01*
X39105D01*
X39155Y32165D01*
Y32265D01*
X39105Y32315D01*
X39055D01*
X39005Y32265D01*
Y32115D01*
X75650Y33400D02*
X75750D01*
X75800Y33450D01*
Y33650D01*
X75750Y33700D01*
X75650D01*
X75600Y33650D01*
Y33450D01*
X75650Y33400D01*
X75500Y33700D02*
X75400D01*
X75450D01*
Y33400D01*
X75500Y33450D01*
X74555Y38295D02*
Y38195D01*
X74605Y38145D01*
X74805D01*
X74855Y38195D01*
Y38295D01*
X74805Y38345D01*
X74605D01*
X74555Y38295D01*
X74855Y38645D02*
Y38445D01*
X74655Y38645D01*
X74605D01*
X74555Y38595D01*
Y38495D01*
X74605Y38445D01*
X33315Y38615D02*
X33215D01*
X33165Y38565D01*
Y38365D01*
X33215Y38315D01*
X33315D01*
X33365Y38365D01*
Y38565D01*
X33315Y38615D01*
X33465Y38565D02*
X33515Y38615D01*
X33615D01*
X33665Y38565D01*
Y38515D01*
X33615Y38465D01*
X33565D01*
X33615D01*
X33665Y38415D01*
Y38365D01*
X33615Y38315D01*
X33515D01*
X33465Y38365D01*
X37700Y54100D02*
Y54400D01*
X37850D01*
X37900Y54350D01*
Y54250D01*
X37850Y54200D01*
X37700D01*
X37800D02*
X37900Y54100D01*
X38000Y54350D02*
X38050Y54400D01*
X38150D01*
X38200Y54350D01*
Y54300D01*
X38150Y54250D01*
X38100D01*
X38150D01*
X38200Y54200D01*
Y54150D01*
X38150Y54100D01*
X38050D01*
X38000Y54150D01*
X37700Y52400D02*
Y52700D01*
X37850D01*
X37900Y52650D01*
Y52550D01*
X37850Y52500D01*
X37700D01*
X37800D02*
X37900Y52400D01*
X38150D02*
Y52700D01*
X38000Y52550D01*
X38200D01*
X37700Y50600D02*
Y50900D01*
X37850D01*
X37900Y50850D01*
Y50750D01*
X37850Y50700D01*
X37700D01*
X37800D02*
X37900Y50600D01*
X38200Y50900D02*
X38000D01*
Y50750D01*
X38100Y50800D01*
X38150D01*
X38200Y50750D01*
Y50650D01*
X38150Y50600D01*
X38050D01*
X38000Y50650D01*
X37700Y55800D02*
Y56100D01*
X37850D01*
X37900Y56050D01*
Y55950D01*
X37850Y55900D01*
X37700D01*
X37800D02*
X37900Y55800D01*
X38200Y56100D02*
X38100Y56050D01*
X38000Y55950D01*
Y55850D01*
X38050Y55800D01*
X38150D01*
X38200Y55850D01*
Y55900D01*
X38150Y55950D01*
X38000D01*
X40100Y38500D02*
X40400D01*
Y38350D01*
X40350Y38300D01*
X40250D01*
X40200Y38350D01*
Y38500D01*
Y38400D02*
X40100Y38300D01*
X40400Y38200D02*
Y38000D01*
X40350D01*
X40150Y38200D01*
X40100D01*
X22450Y38550D02*
X22150D01*
Y38700D01*
X22200Y38750D01*
X22300D01*
X22350Y38700D01*
Y38550D01*
Y38650D02*
X22450Y38750D01*
X22200Y38850D02*
X22150Y38900D01*
Y39000D01*
X22200Y39050D01*
X22250D01*
X22300Y39000D01*
X22350Y39050D01*
X22400D01*
X22450Y39000D01*
Y38900D01*
X22400Y38850D01*
X22350D01*
X22300Y38900D01*
X22250Y38850D01*
X22200D01*
X22300Y38900D02*
Y39000D01*
X35400Y34400D02*
X35700D01*
Y34250D01*
X35650Y34200D01*
X35550D01*
X35500Y34250D01*
Y34400D01*
Y34300D02*
X35400Y34200D01*
Y34100D02*
Y34000D01*
Y34050D01*
X35700D01*
X35650Y34100D01*
Y33850D02*
X35700Y33800D01*
Y33700D01*
X35650Y33650D01*
X35450D01*
X35400Y33700D01*
Y33800D01*
X35450Y33850D01*
X35650D01*
X36400Y34400D02*
X36700D01*
Y34250D01*
X36650Y34200D01*
X36550D01*
X36500Y34250D01*
Y34400D01*
Y34300D02*
X36400Y34200D01*
Y34100D02*
Y34000D01*
Y34050D01*
X36700D01*
X36650Y34100D01*
X36400Y33850D02*
Y33750D01*
Y33800D01*
X36700D01*
X36650Y33850D01*
X40200Y32100D02*
X40500D01*
Y31950D01*
X40450Y31900D01*
X40350D01*
X40300Y31950D01*
Y32100D01*
Y32000D02*
X40200Y31900D01*
Y31800D02*
Y31700D01*
Y31750D01*
X40500D01*
X40450Y31800D01*
X40200Y31350D02*
Y31550D01*
X40400Y31350D01*
X40450D01*
X40500Y31400D01*
Y31500D01*
X40450Y31550D01*
X33400Y34400D02*
X33700D01*
Y34250D01*
X33650Y34200D01*
X33550D01*
X33500Y34250D01*
Y34400D01*
Y34300D02*
X33400Y34200D01*
Y34100D02*
Y34000D01*
Y34050D01*
X33700D01*
X33650Y34100D01*
Y33850D02*
X33700Y33800D01*
Y33700D01*
X33650Y33650D01*
X33600D01*
X33550Y33700D01*
Y33750D01*
Y33700D01*
X33500Y33650D01*
X33450D01*
X33400Y33700D01*
Y33800D01*
X33450Y33850D01*
X34400Y34400D02*
X34700D01*
Y34250D01*
X34650Y34200D01*
X34550D01*
X34500Y34250D01*
Y34400D01*
Y34300D02*
X34400Y34200D01*
Y34100D02*
Y34000D01*
Y34050D01*
X34700D01*
X34650Y34100D01*
X34400Y33700D02*
X34700D01*
X34550Y33850D01*
Y33650D01*
X38300Y37900D02*
Y37600D01*
X38150D01*
X38100Y37650D01*
Y37750D01*
X38150Y37800D01*
X38300D01*
X38200D02*
X38100Y37900D01*
X38000D02*
X37900D01*
X37950D01*
Y37600D01*
X38000Y37650D01*
X37750Y37600D02*
X37550D01*
Y37650D01*
X37750Y37850D01*
Y37900D01*
X45650Y39650D02*
Y39950D01*
X45800D01*
X45850Y39900D01*
Y39800D01*
X45800Y39750D01*
X45650D01*
X45750D02*
X45850Y39650D01*
X45950D02*
X46050D01*
X46000D01*
Y39950D01*
X45950Y39900D01*
X46200D02*
X46250Y39950D01*
X46350D01*
X46400Y39900D01*
Y39850D01*
X46350Y39800D01*
X46400Y39750D01*
Y39700D01*
X46350Y39650D01*
X46250D01*
X46200Y39700D01*
Y39750D01*
X46250Y39800D01*
X46200Y39850D01*
Y39900D01*
X46250Y39800D02*
X46350D01*
X37450Y34450D02*
X37750D01*
Y34300D01*
X37700Y34250D01*
X37600D01*
X37550Y34300D01*
Y34450D01*
Y34350D02*
X37450Y34250D01*
Y34150D02*
Y34050D01*
Y34100D01*
X37750D01*
X37700Y34150D01*
X37500Y33900D02*
X37450Y33850D01*
Y33750D01*
X37500Y33700D01*
X37700D01*
X37750Y33750D01*
Y33850D01*
X37700Y33900D01*
X37650D01*
X37600Y33850D01*
Y33700D01*
X39900Y37150D02*
Y36850D01*
X39750D01*
X39700Y36900D01*
Y37000D01*
X39750Y37050D01*
X39900D01*
X39800D02*
X39700Y37150D01*
X39400D02*
X39600D01*
X39400Y36950D01*
Y36900D01*
X39450Y36850D01*
X39550D01*
X39600Y36900D01*
X39300D02*
X39250Y36850D01*
X39150D01*
X39100Y36900D01*
Y37100D01*
X39150Y37150D01*
X39250D01*
X39300Y37100D01*
Y36900D01*
X74500Y36800D02*
X74800D01*
Y36650D01*
X74750Y36600D01*
X74650D01*
X74600Y36650D01*
Y36800D01*
Y36700D02*
X74500Y36600D01*
Y36300D02*
Y36500D01*
X74700Y36300D01*
X74750D01*
X74800Y36350D01*
Y36450D01*
X74750Y36500D01*
X74500Y36200D02*
Y36100D01*
Y36150D01*
X74800D01*
X74750Y36200D01*
X73700Y37200D02*
Y36900D01*
X73550D01*
X73500Y36950D01*
Y37050D01*
X73550Y37100D01*
X73700D01*
X73600D02*
X73500Y37200D01*
X73200D02*
X73400D01*
X73200Y37000D01*
Y36950D01*
X73250Y36900D01*
X73350D01*
X73400Y36950D01*
X72900Y37200D02*
X73100D01*
X72900Y37000D01*
Y36950D01*
X72950Y36900D01*
X73050D01*
X73100Y36950D01*
X73200Y38500D02*
Y38800D01*
X73350D01*
X73400Y38750D01*
Y38650D01*
X73350Y38600D01*
X73200D01*
X73300D02*
X73400Y38500D01*
X73700D02*
X73500D01*
X73700Y38700D01*
Y38750D01*
X73650Y38800D01*
X73550D01*
X73500Y38750D01*
X73800D02*
X73850Y38800D01*
X73950D01*
X74000Y38750D01*
Y38700D01*
X73950Y38650D01*
X73900D01*
X73950D01*
X74000Y38600D01*
Y38550D01*
X73950Y38500D01*
X73850D01*
X73800Y38550D01*
X73400Y42100D02*
Y42400D01*
X73550D01*
X73600Y42350D01*
Y42250D01*
X73550Y42200D01*
X73400D01*
X73500D02*
X73600Y42100D01*
X73900D02*
X73700D01*
X73900Y42300D01*
Y42350D01*
X73850Y42400D01*
X73750D01*
X73700Y42350D01*
X74150Y42100D02*
Y42400D01*
X74000Y42250D01*
X74200D01*
X30300Y47000D02*
Y47300D01*
X30450D01*
X30500Y47250D01*
Y47150D01*
X30450Y47100D01*
X30300D01*
X30400D02*
X30500Y47000D01*
X30800D02*
X30600D01*
X30800Y47200D01*
Y47250D01*
X30750Y47300D01*
X30650D01*
X30600Y47250D01*
X30900D02*
X30950Y47300D01*
X31050D01*
X31100Y47250D01*
Y47200D01*
X31050Y47150D01*
X31100Y47100D01*
Y47050D01*
X31050Y47000D01*
X30950D01*
X30900Y47050D01*
Y47100D01*
X30950Y47150D01*
X30900Y47200D01*
Y47250D01*
X30950Y47150D02*
X31050D01*
X33467Y49000D02*
X33767D01*
Y48850D01*
X33717Y48800D01*
X33617D01*
X33567Y48850D01*
Y49000D01*
Y48900D02*
X33467Y48800D01*
Y48500D02*
Y48700D01*
X33667Y48500D01*
X33717D01*
X33767Y48550D01*
Y48650D01*
X33717Y48700D01*
X33517Y48400D02*
X33467Y48350D01*
Y48250D01*
X33517Y48200D01*
X33717D01*
X33767Y48250D01*
Y48350D01*
X33717Y48400D01*
X33667D01*
X33617Y48350D01*
Y48200D01*
X27900Y46100D02*
Y45850D01*
X27950Y45800D01*
X28050D01*
X28100Y45850D01*
Y46100D01*
X28200Y45800D02*
X28300D01*
X28250D01*
Y46100D01*
X28200Y46050D01*
X21655Y31145D02*
X21905D01*
X21955Y31195D01*
Y31295D01*
X21905Y31345D01*
X21655D01*
X21955Y31645D02*
Y31445D01*
X21755Y31645D01*
X21705D01*
X21655Y31595D01*
Y31495D01*
X21705Y31445D01*
X28150Y52000D02*
Y51750D01*
X28200Y51700D01*
X28300D01*
X28350Y51750D01*
Y52000D01*
X28450Y51950D02*
X28500Y52000D01*
X28600D01*
X28650Y51950D01*
Y51900D01*
X28600Y51850D01*
X28550D01*
X28600D01*
X28650Y51800D01*
Y51750D01*
X28600Y51700D01*
X28500D01*
X28450Y51750D01*
X75095Y41085D02*
X74845D01*
X74795Y41035D01*
Y40935D01*
X74845Y40885D01*
X75095D01*
Y40585D02*
Y40785D01*
X74945D01*
X74995Y40685D01*
Y40635D01*
X74945Y40585D01*
X74845D01*
X74795Y40635D01*
Y40735D01*
X74845Y40785D01*
X40600Y37800D02*
Y37550D01*
X40650Y37500D01*
X40750D01*
X40800Y37550D01*
Y37800D01*
X41100Y37500D02*
X40900D01*
X41100Y37700D01*
Y37750D01*
X41050Y37800D01*
X40950D01*
X40900Y37750D01*
X41400Y37500D02*
X41200D01*
X41400Y37700D01*
Y37750D01*
X41350Y37800D01*
X41250D01*
X41200Y37750D01*
X52655Y30355D02*
Y30605D01*
X52605Y30655D01*
X52505D01*
X52455Y30605D01*
Y30355D01*
X52155Y30655D02*
X52355D01*
X52155Y30455D01*
Y30405D01*
X52205Y30355D01*
X52305D01*
X52355Y30405D01*
X52055D02*
X52005Y30355D01*
X51905D01*
X51855Y30405D01*
Y30455D01*
X51905Y30505D01*
X51955D01*
X51905D01*
X51855Y30555D01*
Y30605D01*
X51905Y30655D01*
X52005D01*
X52055Y30605D01*
X22200Y49000D02*
X22450D01*
X22500Y49050D01*
Y49150D01*
X22450Y49200D01*
X22200D01*
X22500Y49500D02*
Y49300D01*
X22300Y49500D01*
X22250D01*
X22200Y49450D01*
Y49350D01*
X22250Y49300D01*
X22200Y49800D02*
Y49600D01*
X22350D01*
X22300Y49700D01*
Y49750D01*
X22350Y49800D01*
X22450D01*
X22500Y49750D01*
Y49650D01*
X22450Y49600D01*
X35700Y55050D02*
Y55000D01*
X35800Y54900D01*
X35900Y55000D01*
Y55050D01*
X35800Y54900D02*
Y54750D01*
X36000D02*
X36100D01*
X36050D01*
Y55050D01*
X36000Y55000D01*
X39100Y48300D02*
Y48600D01*
X39250D01*
X39300Y48550D01*
Y48450D01*
X39250Y48400D01*
X39100D01*
X39400Y48300D02*
X39500D01*
X39450D01*
Y48600D01*
X39400Y48550D01*
X39650D02*
X39700Y48600D01*
X39800D01*
X39850Y48550D01*
Y48350D01*
X39800Y48300D01*
X39700D01*
X39650Y48350D01*
Y48550D01*
X43400Y41000D02*
Y41300D01*
X43550D01*
X43600Y41250D01*
Y41150D01*
X43550Y41100D01*
X43400D01*
X43700Y41000D02*
X43800D01*
X43750D01*
Y41300D01*
X43700Y41250D01*
X43950Y41000D02*
X44050D01*
X44000D01*
Y41300D01*
X43950Y41250D01*
X32300Y51600D02*
X32350Y51550D01*
X32450D01*
X32500Y51600D01*
Y51800D01*
X32450Y51850D01*
X32350D01*
X32300Y51800D01*
X32000Y51850D02*
X32200D01*
X32000Y51650D01*
Y51600D01*
X32050Y51550D01*
X32150D01*
X32200Y51600D01*
X34150Y52350D02*
X34100Y52400D01*
X34000D01*
X33950Y52350D01*
Y52150D01*
X34000Y52100D01*
X34100D01*
X34150Y52150D01*
X34250Y52400D02*
X34450D01*
Y52350D01*
X34250Y52150D01*
Y52100D01*
X23250Y35150D02*
X23200Y35100D01*
Y35000D01*
X23250Y34950D01*
X23450D01*
X23500Y35000D01*
Y35100D01*
X23450Y35150D01*
Y35250D02*
X23500Y35300D01*
Y35400D01*
X23450Y35450D01*
X23250D01*
X23200Y35400D01*
Y35300D01*
X23250Y35250D01*
X23300D01*
X23350Y35300D01*
Y35450D01*
X23450Y35550D02*
X23500Y35600D01*
Y35700D01*
X23450Y35750D01*
X23250D01*
X23200Y35700D01*
Y35600D01*
X23250Y35550D01*
X23300D01*
X23350Y35600D01*
Y35750D01*
X43900Y43850D02*
X43850Y43900D01*
X43750D01*
X43700Y43850D01*
Y43650D01*
X43750Y43600D01*
X43850D01*
X43900Y43650D01*
X44000Y43600D02*
X44100D01*
X44050D01*
Y43900D01*
X44000Y43850D01*
X44250D02*
X44300Y43900D01*
X44400D01*
X44450Y43850D01*
Y43650D01*
X44400Y43600D01*
X44300D01*
X44250Y43650D01*
Y43850D01*
X44550Y43600D02*
X44650D01*
X44600D01*
Y43900D01*
X44550Y43850D01*
X22500Y55650D02*
X22450Y55600D01*
Y55500D01*
X22500Y55450D01*
X22550D01*
X22600Y55500D01*
Y55600D01*
X22650Y55650D01*
X22700D01*
X22750Y55600D01*
Y55500D01*
X22700Y55450D01*
X22750Y55750D02*
Y55850D01*
Y55800D01*
X22450D01*
X22500Y55750D01*
X23950Y40850D02*
Y40600D01*
X24000Y40550D01*
X24100D01*
X24150Y40600D01*
Y40850D01*
X24400Y40550D02*
Y40850D01*
X24250Y40700D01*
X24450D01*
X22450Y37400D02*
X22150D01*
Y37550D01*
X22200Y37600D01*
X22300D01*
X22350Y37550D01*
Y37400D01*
Y37500D02*
X22450Y37600D01*
Y37700D02*
Y37800D01*
Y37750D01*
X22150D01*
X22200Y37700D01*
X22450Y40000D02*
X22150D01*
Y40150D01*
X22200Y40200D01*
X22300D01*
X22350Y40150D01*
Y40000D01*
Y40100D02*
X22450Y40200D01*
X22400Y40300D02*
X22450Y40350D01*
Y40450D01*
X22400Y40500D01*
X22200D01*
X22150Y40450D01*
Y40350D01*
X22200Y40300D01*
X22250D01*
X22300Y40350D01*
Y40500D01*
X22022Y36200D02*
X21723D01*
X21822Y36300D01*
X21723Y36400D01*
X22022D01*
X21723Y36650D02*
Y36550D01*
X21772Y36500D01*
X21972D01*
X22022Y36550D01*
Y36650D01*
X21972Y36700D01*
X21772D01*
X21723Y36650D01*
Y36800D02*
X22022D01*
Y37000D01*
X21723Y37300D02*
Y37100D01*
X22022D01*
Y37300D01*
X21872Y37100D02*
Y37200D01*
X21723Y37400D02*
X22022Y37600D01*
X21723D02*
X22022Y37400D01*
X21772Y37999D02*
X21723Y38049D01*
Y38149D01*
X21772Y38199D01*
X21822D01*
X21872Y38149D01*
X21922Y38199D01*
X21972D01*
X22022Y38149D01*
Y38049D01*
X21972Y37999D01*
X21922D01*
X21872Y38049D01*
X21822Y37999D01*
X21772D01*
X21872Y38049D02*
Y38149D01*
X21723Y38299D02*
Y38499D01*
X21772D01*
X21972Y38299D01*
X22022D01*
X21723Y38599D02*
Y38799D01*
X21772D01*
X21972Y38599D01*
X22022D01*
X21772Y38899D02*
X21723Y38949D01*
Y39049D01*
X21772Y39099D01*
X21972D01*
X22022Y39049D01*
Y38949D01*
X21972Y38899D01*
X21772D01*
Y39199D02*
X21723Y39249D01*
Y39349D01*
X21772Y39399D01*
X21822D01*
X21872Y39349D01*
Y39299D01*
Y39349D01*
X21922Y39399D01*
X21972D01*
X22022Y39349D01*
Y39249D01*
X21972Y39199D01*
X21872Y39499D02*
Y39699D01*
X21772Y39799D02*
X21723Y39849D01*
Y39949D01*
X21772Y39999D01*
X21972D01*
X22022Y39949D01*
Y39849D01*
X21972Y39799D01*
X21772D01*
Y40099D02*
X21723Y40149D01*
Y40249D01*
X21772Y40299D01*
X21972D01*
X22022Y40249D01*
Y40149D01*
X21972Y40099D01*
X21772D01*
Y40399D02*
X21723Y40449D01*
Y40549D01*
X21772Y40599D01*
X21972D01*
X22022Y40549D01*
Y40449D01*
X21972Y40399D01*
X21772D01*
X22022Y40699D02*
Y40799D01*
Y40749D01*
X21723D01*
X21772Y40699D01*
X44150Y55850D02*
Y55650D01*
X44250Y55550D01*
X44350Y55650D01*
Y55850D01*
X44600Y55550D02*
X44500D01*
X44450Y55600D01*
Y55700D01*
X44500Y55750D01*
X44600D01*
X44650Y55700D01*
Y55650D01*
X44450D01*
X44750Y55750D02*
Y55550D01*
Y55650D01*
X44800Y55700D01*
X44850Y55750D01*
X44900D01*
X45050Y55550D02*
X45200D01*
X45250Y55600D01*
X45200Y55650D01*
X45100D01*
X45050Y55700D01*
X45100Y55750D01*
X45250D01*
X45350Y55550D02*
X45450D01*
X45400D01*
Y55750D01*
X45350D01*
X45650Y55550D02*
X45749D01*
X45799Y55600D01*
Y55700D01*
X45749Y55750D01*
X45650D01*
X45600Y55700D01*
Y55600D01*
X45650Y55550D01*
X45899D02*
Y55750D01*
X46049D01*
X46099Y55700D01*
Y55550D01*
X46699D02*
X46499D01*
X46699Y55750D01*
Y55800D01*
X46649Y55850D01*
X46549D01*
X46499Y55800D01*
X46799Y55550D02*
Y55600D01*
X46849D01*
Y55550D01*
X46799D01*
X47049Y55800D02*
X47099Y55850D01*
X47199D01*
X47249Y55800D01*
Y55600D01*
X47199Y55550D01*
X47099D01*
X47049Y55600D01*
Y55800D01*
D58*
X72625Y55925D02*
Y56575D01*
X72775D01*
Y55925D01*
X72625D01*
X72667Y55967D02*
Y56533D01*
X72733D01*
Y55967D01*
X72667D01*
X72695Y56008D02*
X72705Y56492D01*
X72325Y56725D02*
Y56875D01*
X72475D01*
Y56725D01*
X72325D01*
X72367Y56767D02*
Y56833D01*
X72433D01*
Y56767D01*
X72367D01*
X72395Y56795D02*
X72405Y56805D01*
X72325Y55925D02*
Y56575D01*
X72475D01*
Y55925D01*
X72325D01*
X72367Y55967D02*
Y56533D01*
X72433D01*
Y55967D01*
X72367D01*
X72395Y56008D02*
X72405Y56492D01*
X72625Y56725D02*
Y56875D01*
X73075D01*
Y56725D01*
X72625D01*
X72667Y56767D02*
Y56833D01*
X73033D01*
Y56767D01*
X72667D01*
X72708Y56795D02*
X72992Y56805D01*
X72025Y55925D02*
Y56875D01*
X72175D01*
Y55925D01*
X72025D01*
X72067Y55967D02*
Y56833D01*
X72133D01*
Y55967D01*
X72067D01*
X72095Y56008D02*
X72105Y56792D01*
X71725Y56425D02*
Y56875D01*
X71875D01*
Y56425D01*
X71725D01*
X71767Y56467D02*
Y56833D01*
X71833D01*
Y56467D01*
X71767D01*
X71795Y56508D02*
X71805Y56792D01*
X71425Y55925D02*
Y56875D01*
X71575D01*
Y55925D01*
X71425D01*
X71467Y55967D02*
Y56833D01*
X71533D01*
Y55967D01*
X71467D01*
X71495Y56008D02*
X71505Y56792D01*
M02*
